<svg xmlns="http://www.w3.org/2000/svg" viewBox="0 0 97.73 97.74"><defs><style>.cls-1{fill:#f4cbdc;}.cls-2{fill:#010101;}</style></defs><title>coffee_1</title><g id="Layer_2" data-name="Layer 2"><g id="Layer_1-2" data-name="Layer 1"><g id="_Group_" data-name="&lt;Group&gt;"><path id="_Path_" data-name="&lt;Path&gt;" class="cls-1" d="M97.73,48.87A48.87,48.87,0,1,1,48.87,0,48.87,48.87,0,0,1,97.73,48.87"/></g><path class="cls-2" d="M39.22,36.15a2,2,0,0,0,2-2V25.24a2,2,0,1,0-4.09,0v8.87A2,2,0,0,0,39.22,36.15Z"/><path class="cls-2" d="M48.42,36.15a2,2,0,0,0,2-2v-13a2.05,2.05,0,0,0-4.1,0v13A2,2,0,0,0,48.42,36.15Z"/><path class="cls-2" d="M57.63,36.15a2,2,0,0,0,2-2V25.24a2,2,0,0,0-4.1,0v8.87A2,2,0,0,0,57.63,36.15Z"/><path class="cls-2" d="M43.56,74.17h9.72A13,13,0,0,0,66,63.62H67.8a9.27,9.27,0,0,0,0-18.54H66.25V40.62a2,2,0,0,0-2-2H32.64a2,2,0,0,0-2,2V61.21A13,13,0,0,0,43.56,74.17Zm22.69-25H67.8a5.18,5.18,0,0,1,0,10.35H66.25Z"/></g></g></svg>