<svg xmlns="http://www.w3.org/2000/svg" viewBox="0 0 97.73 97.74"><defs><style>.cls-1{fill:#d9d9d8;}.cls-2{fill:#231f20;}</style></defs><title>food</title><g id="Layer_2" data-name="Layer 2"><g id="Layer_1-2" data-name="Layer 1"><path id="_Path_" data-name="&lt;Path&gt;" class="cls-1" d="M97.68,51A48.86,48.86,0,1,1,51,.05,48.87,48.87,0,0,1,97.68,51"/><g id="g3789"><path id="path3791" class="cls-2" d="M47.62,39a4.53,4.53,0,0,1-4.36,4.37V79.07c0,5.06-6.8,5.06-6.8,0V43.4A4.49,4.49,0,0,1,32,38.73V17.13a1.22,1.22,0,1,1,2.43.06V33.67h2V17.06a1.17,1.17,0,1,1,2.34.07V33.67H40.9V17.08a1.14,1.14,0,1,1,2.27.06V33.67h2.07V17.08a1.19,1.19,0,1,1,2.38.06Z"/><path id="path3793" class="cls-2" d="M65.75,20.7V79.05a3.42,3.42,0,1,1-6.81,0v-22H55.31V20.7C55.31,12.92,65.75,12.92,65.75,20.7Z"/></g></g></g></svg>