<svg xmlns="http://www.w3.org/2000/svg" viewBox="0 0 97.73 97.74"><defs><style>.cls-1{fill:#f4cbdc;}.cls-2{fill:#1d1d1b;fill-rule:evenodd;}</style></defs><title>minioya</title><g id="Layer_2" data-name="Layer 2"><g id="Layer_1-2" data-name="Layer 1"><g id="_Group_" data-name="&lt;Group&gt;"><path id="_Path_" data-name="&lt;Path&gt;" class="cls-1" d="M97.73,48.87A48.87,48.87,0,1,1,48.87,0,48.87,48.87,0,0,1,97.73,48.87"/><path id="_Path_2" data-name="&lt;Path&gt;" class="cls-2" d="M58.69,47.11v6.74H39.09V47.08c-.66.59-1.17,1-1.63,1.49-2,2-4,4-6,6a3.11,3.11,0,1,1-4.53-4.24c4.18-4.3,8.37-8.59,12.69-12.76a5.27,5.27,0,0,1,3.25-1.14c4-.14,8-.07,12,0a4.68,4.68,0,0,1,3.47,1.31q6,6.06,12,12.13a5.61,5.61,0,0,1,1.1,1.46,3,3,0,0,1-.92,3.72,3,3,0,0,1-3.92-.12c-2-1.94-4-4-6-5.94-.58-.58-1.19-1.14-2-1.88"/><path id="_Path_3" data-name="&lt;Path&gt;" class="cls-2" d="M48.85,34.54a9,9,0,1,1,9.06-9,9,9,0,0,1-9.06,9"/><path id="_Path_4" data-name="&lt;Path&gt;" class="cls-2" d="M38.78,57.56c2.51,2.52,4.93,4.92,7.31,7.29-1.68,1.64-3.41,3.35-5.45,5.36.89.74,1.57,1.23,2.17,1.8,1.33,1.28,2.64,2.57,3.9,3.91a3.14,3.14,0,0,1-4.47,4.41c-3.25-3.21-6.49-6.43-9.69-9.7-1.83-1.87-1.65-4.81.31-7.09l.64-.66,5.28-5.32"/><path id="_Path_5" data-name="&lt;Path&gt;" class="cls-2" d="M56.79,70.16l-5.26-5c2.5-2.52,4.93-5,7.49-7.52,2,2.1,4.35,4.19,6.27,6.6s1.54,4.81-.65,7c-2.93,2.93-5.85,5.86-8.79,8.79-1.53,1.52-3.47,1.65-4.78.32s-1.23-3.21.33-4.78c1.73-1.74,3.47-3.46,5.39-5.37"/></g></g></g></svg>