<svg xmlns="http://www.w3.org/2000/svg" viewBox="0 0 97.73 97.73"><defs><style>.cls-1{fill:#147bc1;}.cls-2{fill:#fff;}</style></defs><title>toilet</title><g id="Layer_2" data-name="Layer 2"><g id="Layer_1-2" data-name="Layer 1"><path id="_Path_" data-name="&lt;Path&gt;" class="cls-1" d="M97.73,48.86A48.87,48.87,0,1,1,48.87,0,48.86,48.86,0,0,1,97.73,48.86"/><path id="_Path_2" data-name="&lt;Path&gt;" class="cls-2" d="M33.55,26.93a5.29,5.29,0,1,0-5.29-5.29,5.3,5.3,0,0,0,5.29,5.29"/><path id="_Path_3" data-name="&lt;Path&gt;" class="cls-2" d="M32.77,60.4V78.87a2.5,2.5,0,0,1-5,0V60.4h-6.6l7.06-24.49H27.13L23,49.9c-1,3.05-5.19,1.8-4.23-1.47l4.62-15.2a7,7,0,0,1,6.49-4.81h7.25a7.24,7.24,0,0,1,6.55,4.81l4.61,15.19c.92,3.26-3.23,4.61-4.22,1.44l-4.16-14h-1.2L45.82,60.4H39.2V78.9a2.48,2.48,0,0,1-5,0V60.4Z"/><path id="_Path_4" data-name="&lt;Path&gt;" class="cls-2" d="M61.25,28.4a6.79,6.79,0,0,0-6.7,6.91V51.65a2.29,2.29,0,1,0,4.58,0V36.71h1.09V78.12a3.05,3.05,0,1,0,6.1,0V53.88h1.05V78.12c0,4.12,6.14,4.24,6.14,0V36.71h1.06V51.65a2.28,2.28,0,1,0,4.55,0V35.41a6.88,6.88,0,0,0-6.79-7Z"/><path id="_Path_5" data-name="&lt;Path&gt;" class="cls-2" d="M66.83,26.93a5.29,5.29,0,1,0-5.29-5.29,5.29,5.29,0,0,0,5.29,5.29"/></g></g></svg>