<svg xmlns="http://www.w3.org/2000/svg" viewBox="0 0 97.73 97.73"><defs><style>.cls-1{fill:#d9d9d8;}.cls-2{fill:#010101;}</style></defs><title>wardrobe_1</title><g id="Layer_2" data-name="Layer 2"><g id="Layer_1-2" data-name="Layer 1"><path id="_Path_" data-name="&lt;Path&gt;" class="cls-1" d="M97.73,48.87A48.87,48.87,0,1,1,48.87,0,48.86,48.86,0,0,1,97.73,48.87"/><path class="cls-2" d="M79.18,56.25,51.26,39.66V36.84c0-3.2-3.47-4.59-3.47-4.59a3.79,3.79,0,0,1,1.54-7.16A3.61,3.61,0,0,1,53.2,28.5c.31,3.71,4.49,2.77,4.49-.22a8.23,8.23,0,0,0-8.39-7.77c-6.31,0-8.12,6.2-8.12,8.17a8.14,8.14,0,0,0,1.14,4.4C43.86,35.74,47,36.15,47,37.91v1.75L18.75,56.31C16,58,15.47,61.48,16.07,63.61a6.39,6.39,0,0,0,6.36,4.54H75.15c4.16,0,6.06-2.4,6.64-4.47A6.31,6.31,0,0,0,79.18,56.25Zm-4,7.25H22.52a1.87,1.87,0,0,1-1.08-3.42L48.93,43.92,76.28,60A1.89,1.89,0,0,1,75.22,63.5Z"/></g></g></svg>