<?xml version="1.0" encoding="utf-8"?>
<!-- Generator: Adobe Illustrator 23.0.6, SVG Export Plug-In . SVG Version: 6.00 Build 0)  -->
<svg version="1.1" id="Layer_1" 
	xmlns="http://www.w3.org/2000/svg" 
	xmlns:xlink="http://www.w3.org/1999/xlink" x="0px" y="0px" viewBox="0 0 421 64.2" style="enable-background:new 0 0 421 64.2;" xml:space="preserve" width="421px" height="64px">
	<title>cure</title>
	<polygon points="377,1.7 377,61.7 421,61.7 421,52.7 387,52.7 387,34.7 418,34.7 418,25.7 387,25.7 387,9.7 420,9.7 420,1.7 "/>
	<path d="M365.5,53l-0.5-8.6c-0.3-6.5-1.5-10.2-7.2-12c5.5-2.1,8.7-7.1,8.7-13.9c0-10.4-6.5-16.7-17.1-16.7c-0.3,0-1.4-0.1-3.2-0.1
	H320v60h10v-25h15.2c8,0,9.2,3.4,9.6,9.7l0.3,7.3c0.2,3.2,0.3,5.8,1.5,8H368v-1.7C365.7,58.7,365.6,56.5,365.5,53z M344.7,28.7H330
	v-19h15c7.7,0,11.9,2.2,11.9,9.4S352.8,28.7,344.7,28.7z"/>
	<path d="M267.4,1.7l-13.9,38.1c-5.7,15.8-0.6,23.9,15.1,23.9c15,0,27-8.4,32.6-23.9l13.9-38.1h-10.1l-13.6,37.5
	c-3.7,10.2-9.8,15.3-19.4,15.3s-11.9-5-8.2-15.3l13.7-37.5H267.4z"/>
	<path d="M244.4,20.7C243.3,8,234,0,219.1,0c-18,0-28.8,11.9-28.8,32.1c0,20,10.7,32.1,28,32.1c15,0,25.8-9.8,26.3-23.6h-9.9
	c-0.7,8.7-7,14.4-15.9,14.4c-11.1,0-18.1-8.6-18.1-23.4c0-14.3,6.6-22.6,18.3-22.6c8.7,0,14.3,4.2,15.4,11.6H244.4z"/>
	<polygon points="114,1.7 114,61.7 158,61.7 158,52.7 124,52.7 124,34.7 155,34.7 155,25.7 124,25.7 124,9.7 157,9.7 157,1.7 "/>
	<polygon points="53,1.7 53,61.7 63,61.7 63,33.7 92,33.7 92,61.7 102,61.7 102,1.7 92,1.7 92,25.7 63,25.7 63,1.7 "/>
	<polygon points="0,1.7 0,10.7 18,10.7 18,61.7 28,61.7 28,10.7 47,10.7 47,1.7 "/>
</svg>
