<svg id="Layer_1" data-name="Layer 1" xmlns="http://www.w3.org/2000/svg" viewBox="0 0 421 64.24"><title>cure</title><polygon points="377 1.68 377 61.68 421 61.68 421 52.68 387 52.68 387 34.68 418 34.68 418 25.68 387 25.68 387 9.68 420 9.68 420 1.68 377 1.68"/><path d="M365.47,53l-.5-8.6c-.34-6.5-1.52-10.18-7.24-12,5.47-2.09,8.67-7.1,8.67-13.94,0-10.43-6.48-16.69-17.09-16.69-.34,0-1.44-.08-3.21-.08H320v60h10v-25h15.21c8,0,9.24,3.38,9.58,9.71l.34,7.26c.16,3.21.33,5.83,1.51,8H368V59.93C365.73,58.67,365.64,56.5,365.47,53ZM344.7,28.68H330v-19h15c7.74,0,11.86,2.23,11.86,9.37S352.78,28.68,344.7,28.68Z"/><path d="M267.42,1.68,253.57,39.75c-5.74,15.76-.57,23.9,15.11,23.9,15,0,27-8.39,32.6-23.9L315.14,1.68H305.08L291.43,39.16C287.71,49.39,281.6,54.42,272,54.42s-11.92-5-8.2-15.26L277.49,1.68Z"/><path d="M244.37,20.68C243.27,8,234,0,219.12,0,201.07,0,190.3,11.86,190.3,32.12c0,20,10.68,32.12,28,32.12,15,0,25.77-9.75,26.27-23.56h-9.91c-.68,8.73-7,14.41-15.93,14.41-11.1,0-18.14-8.65-18.14-23.4,0-14.32,6.61-22.62,18.31-22.62,8.73,0,14.32,4.23,15.42,11.61Z"/><polygon points="114 1.68 114 61.68 158 61.68 158 52.68 124 52.68 124 34.68 155 34.68 155 25.68 124 25.68 124 9.68 157 9.68 157 1.68 114 1.68"/><polygon points="53 1.68 53 61.68 63 61.68 63 33.68 92 33.68 92 61.68 102 61.68 102 1.68 92 1.68 92 25.68 63 25.68 63 1.68 53 1.68"/><polygon points="0 1.68 0 10.68 18 10.68 18 61.68 28 61.68 28 10.68 47 10.68 47 1.68 0 1.68"/></svg>