<?xml version="1.0" encoding="utf-8"?>
<!-- Generator: Adobe Illustrator 23.0.6, SVG Export Plug-In . SVG Version: 6.00 Build 0)  -->
<svg version="1.1" id="Layer_1" 
	xmlns="http://www.w3.org/2000/svg" 
	xmlns:xlink="http://www.w3.org/1999/xlink" x="0px" y="0px" viewBox="0 0 574.7 64.2" style="enable-background:new 0 0 574.7 64.2;" xml:space="preserve" width="574px" height="64px">
	<title>artist</title>
	<path d="M525.5,1.1v38.1c0,15.8,8.1,23.9,23.8,23.9c15,0,23.9-8.4,23.9-23.9V1.1h-10.1v37.5c0,10.2-4.3,15.3-13.8,15.3
	c-9.6,0-13.8-5-13.8-15.3V1.1H525.5z"/>
	<path d="M489.9,1.1h-23.3v60.3h21.6c18.4,0,28.3-11,28.3-30.4C516.5,11.2,507.6,1.1,489.9,1.1z M488.8,52.5h-12.3V9.7h13
	c11,0,16.8,7.2,16.8,20.9C506.3,45.6,500.7,52.5,488.8,52.5L488.8,52.5z"/>
	<path d="M438.3,1.1H427l-22.1,60.3h10.5l5.5-15.6h23.5l5.4,15.6h10.7L438.3,1.1z M423.6,37.4l9-26.2l9,26.2H423.6z"/>
	<rect x="393.1" y="34" width="7.9" height="19.5"/>
	<polygon points="361.6,26.1 361.6,9.4 393.2,9.4 393.2,1.6 353.6,1.6 353.6,61.4 393.2,61.4 393.2,53.5 361.6,53.5 361.6,34 
	393.2,34 393.2,26.1 "/>
	<rect x="393.1" y="9.4" width="7.9" height="16.7"/>
	<polygon points="269.6,1.1 269.6,61.4 279.7,61.4 279.7,33.8 308.2,33.8 308.2,61.4 318.3,61.4 318.3,1.1 308.2,1.1 308.2,24.9 
	279.7,24.9 279.7,1.1 "/>
	<polygon points="251.5,35.5 219.9,35.5 219.9,17.3 212,17.3 212,61.4 219.9,61.4 219.9,43.4 251.5,43.4 251.5,61.4 259.3,61.4 
	259.3,17.3 251.5,17.3 "/>
	<rect x="243.6" y="9.4" width="7.9" height="7.9"/>
	<rect x="219.9" y="9.4" width="7.9" height="7.9"/>
	<rect x="227.8" y="1.6" width="15.8" height="7.9"/>
	<polygon points="156.7,1.1 156.7,61.4 166.7,61.4 166.7,40.3 174.7,32.3 195.3,61.4 207.5,61.4 181.8,25.4 206.2,1.1 193.3,1.1 
	166.7,28.4 166.7,1.1 "/>
	<rect x="132.3" y="27.6" width="7.9" height="7.9"/>
	<rect x="116.5" y="27.6" width="7.9" height="7.9"/>
	<rect x="140.1" y="1.6" width="7.9" height="26.1"/>
	<rect x="124.3" y="35.5" width="8" height="25.9"/>
	<rect x="108.6" y="1.6" width="7.9" height="26.1"/>
	<path d="M100.3,52.7l-0.5-8.6c-0.3-6.5-1.5-10.2-7.2-12.1c5.5-2.1,8.6-7.1,8.6-14c0-10.5-6.5-16.8-17-16.8c-0.3,0-1.4-0.1-3.2-0.1
	H55v60.3h10V36.6h15.2c8,0,9.2,3.4,9.6,9.6l0.3,7.2c0.2,3.2,0.3,5.8,1.5,8h11.2v-1.8C100.5,58.4,100.4,56.2,100.3,52.7z M79.2,28.1
	H64.9V9.6h14.6C87,9.6,91,11.8,91,18.7C91,25.8,87.1,28.1,79.2,28.1L79.2,28.1z"/>
	<polygon points="2.2,1.1 2.2,61.4 46.6,61.4 46.6,52.4 12.1,52.4 12.1,34.2 42.9,34.2 42.9,25.7 12.1,25.7 12.1,9.9 45.5,9.9 
	45.5,1.1 "/>
</svg>
