<svg id="Layer_1" data-name="Layer 1" xmlns="http://www.w3.org/2000/svg" viewBox="0 0 574.70778 64.24"><title>artist</title><path d="M525.5002,1.135V39.206c0,15.765,8.134,23.899,23.816,23.899,15.01,0,23.899-8.385,23.899-23.899V1.135h-10.063V38.619c0,10.231-4.277,15.262-13.836,15.262-9.56,0-13.753-5.031-13.753-15.262V1.135Z"/><path d="M489.90417,1.135h-23.312V61.428h21.635c18.365,0,28.26-10.985,28.26-30.356C516.48718,11.198,507.59814,1.135,489.90417,1.135Zm-1.09,51.404h-12.327V9.688h12.998c10.985,0,16.771,7.212,16.771,20.881C506.25616,45.579,500.72217,52.539,488.81415,52.539Z"/><path d="M438.27417,1.135h-11.32l-22.055,60.293h10.483l5.45-15.597h23.48l5.367,15.597h10.734Zm-14.675,36.31,8.973-26.163,8.973,26.163Z"/><rect x="393.08419" y="34.007" width="7.883" height="19.539"/><polygon points="361.554 26.124 361.554 9.437 393.168 9.437 393.168 1.554 353.588 1.554 353.588 61.428 393.168 61.428 393.168 53.546 361.554 53.546 361.554 34.007 393.168 34.007 393.168 26.124 361.554 26.124"/><rect x="393.08419" y="9.436" width="7.883" height="16.688"/><polygon points="269.648 1.135 269.648 61.428 279.711 61.428 279.711 33.839 308.222 33.839 308.222 61.428 318.285 61.428 318.285 1.135 308.222 1.135 308.222 24.867 279.711 24.867 279.711 1.135 269.648 1.135"/><polygon points="251.46 35.516 219.93 35.516 219.93 17.319 212.047 17.319 212.047 61.428 219.93 61.428 219.93 43.399 251.46 43.399 251.46 61.428 259.343 61.428 259.343 17.319 251.46 17.319 251.46 35.516"/><rect x="243.57717" y="9.43701" width="7.883" height="7.883"/><rect x="219.92916" y="9.43701" width="7.883" height="7.883"/><rect x="227.81215" y="1.55401" width="15.76501" height="7.883"/><polygon points="156.678 1.135 156.678 61.428 166.657 61.428 166.657 40.296 174.707 32.33 195.252 61.428 207.495 61.428 181.835 25.37 206.154 1.135 193.323 1.135 166.657 28.389 166.657 1.135 156.678 1.135"/><rect x="132.30919" y="27.634" width="7.883" height="7.883"/><rect x="116.46019" y="27.634" width="7.883" height="7.883"/><rect x="140.10817" y="1.55502" width="7.883" height="26.07898"/><rect x="124.34319" y="35.516" width="7.966" height="25.91199"/><rect x="108.57817" y="1.55401" width="7.883" height="26.07898"/><path d="M100.26917,52.707l-.503-8.637c-.336-6.54095-1.51-10.231-7.212-12.076,5.451-2.096,8.637-7.127,8.637-14.004,0-10.48205-6.457-16.771-17.023-16.771-.335,0-1.425-.084-3.186-.084h-25.996V61.428h9.979V36.606h15.178c7.967,0,9.225,3.355,9.56,9.644l.335,7.212c.168,3.186.336,5.786,1.51,7.966h11.237V59.667C100.5202,58.409,100.43719,56.229,100.26917,52.707Zm-21.048-24.57h-14.34V9.605h14.591c7.548,0,11.573,2.18,11.573,9.13995C91.04517,25.789,87.10315,28.137,79.22119,28.137Z"/><polygon points="2.208 1.135 2.208 61.428 46.568 61.428 46.568 52.372 12.103 52.372 12.103 34.175 42.878 34.175 42.878 25.705 12.103 25.705 12.103 9.94 45.478 9.94 45.478 1.135 2.208 1.135"/></svg>