<svg id="Layer_1" data-name="Layer 1" xmlns="http://www.w3.org/2000/svg" viewBox="0 0 573.21517 64.24"><title>artist</title><polygon points="524.422 1.177 524.422 61.47 568.782 61.47 568.782 52.413 534.317 52.413 534.317 34.217 565.092 34.217 565.092 25.747 534.317 25.747 534.317 9.982 567.692 9.982 567.692 1.177 524.422 1.177"/><polygon points="467.954 1.177 467.954 61.47 477.933 61.47 477.933 40.338 485.983 32.372 506.528 61.47 518.771 61.47 493.111 25.412 517.429 1.177 504.599 1.177 477.933 28.43 477.933 1.177 467.954 1.177"/><path d="M439.63593,1.177h-11.321l-22.054,60.293h10.482l5.451-15.597h23.48l5.367,15.597h10.733Zm-14.675,36.31,8.973-26.163,8.973,26.163Z"/><polygon points="363.009 1.177 363.009 61.47 402.841 61.47 402.841 52.33 373.072 52.33 373.072 1.177 363.009 1.177"/><path d="M343.36188,28.934a12.99,12.99,0,0,0,8.05-12.495c0-10.231-6.289-15.262-18.867-15.262h-26.08V61.47h26.415c13.585,0,21.048-7.296,21.048-17.861C353.92792,35.894,350.23792,30.862,343.36188,28.934Zm-27.086-19.371h14.591c6.961,0,10.483,2.432,10.483,7.631,0,6.037-3.522,8.469-10.818,8.469h-14.256Zm15.765,43.018h-15.765V33.881h15.178c8.051,0,12.16,2.516,12.16,9.22394C343.61389,49.478,339.75592,52.581,332.04089,52.581Z"/><rect x="231.66492" y="53.587" width="31.614" height="7.883"/><rect x="231.66492" y="1.596" width="31.614" height="7.883"/><rect x="231.66492" y="27.25601" width="31.614" height="7.883"/><rect x="223.78193" y="9.479" width="7.883" height="17.778"/><rect x="263.2799" y="9.479" width="7.966" height="7.88301"/><rect x="263.2799" y="35.139" width="7.966" height="18.448"/><rect x="223.78193" y="45.705" width="7.883" height="7.883"/><polygon points="172.757 1.177 172.757 61.47 217.117 61.47 217.117 52.413 182.652 52.413 182.652 34.217 213.427 34.217 213.427 25.747 182.652 25.747 182.652 9.982 216.027 9.982 216.027 1.177 172.757 1.177"/><polygon points="146.376 17.026 146.376 24.908 154.342 24.908 154.342 61.47 162.225 61.47 162.225 1.596 154.342 1.596 154.342 17.026 146.376 17.026"/><rect x="138.49293" y="24.90901" width="7.883" height="20.79599"/><polygon points="114.762 17.026 114.762 1.596 106.879 1.596 106.879 61.47 114.762 61.47 114.762 24.908 122.728 24.908 122.728 17.026 114.762 17.026"/><rect x="122.72793" y="24.90901" width="7.883" height="20.79599"/><rect x="130.60992" y="45.705" width="7.883" height="7.883"/><path d="M79.65991,1.177h-11.321L46.28491,61.47h10.482l5.451-15.597h23.48l5.367,15.597h10.733Zm-14.675,36.31,8.973-26.163,8.973,26.163Z"/><path d="M32.34093,1.177V42.183c0,7.882-.839,12.243-8.47,12.243-5.618,0-8.301-3.27-8.301-9.895V40.674h-9.644v2.935c0,13.165,5.283,19.454,18.365,19.454,12.83,0,18.113-6.121,18.113-18.7V1.177Z"/></svg>