<?xml version="1.0" encoding="utf-8"?>
<!-- Generator: Adobe Illustrator 23.0.6, SVG Export Plug-In . SVG Version: 6.00 Build 0)  -->
<svg version="1.1" id="Layer_1" 
	xmlns="http://www.w3.org/2000/svg" 
	xmlns:xlink="http://www.w3.org/1999/xlink" x="0px" y="0px" viewBox="0 0 573.2 64.2" style="enable-background:new 0 0 573.2 64.2;" xml:space="preserve" width="573px" height="64px">
	<title>artist</title>
	<polygon points="524.4,1.2 524.4,61.5 568.8,61.5 568.8,52.4 534.3,52.4 534.3,34.2 565.1,34.2 565.1,25.7 534.3,25.7 534.3,10 
	567.7,10 567.7,1.2 "/>
	<polygon points="468,1.2 468,61.5 477.9,61.5 477.9,40.3 486,32.4 506.5,61.5 518.8,61.5 493.1,25.4 517.4,1.2 504.6,1.2 
	477.9,28.4 477.9,1.2 "/>
	<path d="M439.6,1.2h-11.3l-22.1,60.3h10.5l5.5-15.6h23.5l5.4,15.6h10.7L439.6,1.2z M425,37.5l9-26.2l9,26.2H425z"/>
	<polygon points="363,1.2 363,61.5 402.8,61.5 402.8,52.3 373.1,52.3 373.1,1.2 "/>
	<path d="M343.4,28.9c5-2.1,8.3-7.1,8-12.5c0-10.2-6.3-15.3-18.9-15.3h-26.1v60.3h26.4c13.6,0,21-7.3,21-17.9
	C353.9,35.9,350.2,30.9,343.4,28.9z M316.3,9.6h14.6c7,0,10.5,2.4,10.5,7.6c0,6-3.5,8.5-10.8,8.5h-14.3V9.6z M332,52.6h-15.8V33.9
	h15.2c8.1,0,12.2,2.5,12.2,9.2C343.6,49.5,339.8,52.6,332,52.6z"/>
	<rect x="231.7" y="53.6" width="31.6" height="7.9"/>
	<rect x="231.7" y="1.6" width="31.6" height="7.9"/>
	<rect x="231.7" y="27.3" width="31.6" height="7.9"/>
	<rect x="223.8" y="9.5" width="7.9" height="17.8"/>
	<rect x="263.3" y="9.5" width="8" height="7.9"/>
	<rect x="263.3" y="35.1" width="8" height="18.4"/>
	<rect x="223.8" y="45.7" width="7.9" height="7.9"/>
	<polygon points="172.8,1.2 172.8,61.5 217.1,61.5 217.1,52.4 182.7,52.4 182.7,34.2 213.4,34.2 213.4,25.7 182.7,25.7 182.7,10 
	216,10 216,1.2 "/>
	<polygon points="146.4,17 146.4,24.9 154.3,24.9 154.3,61.5 162.2,61.5 162.2,1.6 154.3,1.6 154.3,17 "/>
	<rect x="138.5" y="24.9" width="7.9" height="20.8"/>
	<polygon points="114.8,17 114.8,1.6 106.9,1.6 106.9,61.5 114.8,61.5 114.8,24.9 122.7,24.9 122.7,17 "/>
	<rect x="122.7" y="24.9" width="7.9" height="20.8"/>
	<rect x="130.6" y="45.7" width="7.9" height="7.9"/>
	<path d="M79.7,1.2H68.3L46.3,61.5h10.5l5.5-15.6h23.5l5.4,15.6h10.7L79.7,1.2z M65,37.5l9-26.2l9,26.2H65z"/>
	<path d="M32.3,1.2v41c0,7.9-0.8,12.2-8.5,12.2c-5.6,0-8.3-3.3-8.3-9.9v-3.9H5.9v2.9c0,13.2,5.3,19.5,18.4,19.5
	c12.8,0,18.1-6.1,18.1-18.7V1.2H32.3z"/>
</svg>
