<svg id="Layer_1" data-name="Layer 1" xmlns="http://www.w3.org/2000/svg" viewBox="0 0 272 64.24"><title>artist</title><polygon points="225.528 2.068 225.528 62.361 269.888 62.361 269.888 53.305 235.423 53.305 235.423 35.108 266.199 35.108 266.199 26.638 235.423 26.638 235.423 10.873 268.798 10.873 268.798 2.068 225.528 2.068"/><path d="M209.37793,4.24869c-3.85791-2.097-8.051-2.181-13.08191-2.181H173.319v60.293H183.382v-23.731h13.669c5.87,0,10.23-.50293,13.83593-3.187,4.44409-3.27,6.876-8.38495,6.876-14.842C217.76294,12.80167,214.828,7.18369,209.37793,4.24869ZM196.38,29.82474H183.382V10.7897h13.585c7.211,0,10.733,2.767,10.733,9.559C207.7,27.5607,203.927,29.82474,196.38,29.82474Z"/><path d="M161.647,53.63974l-.503-8.637c-.335-6.541-1.509-10.23-7.212-12.075,5.451-2.097,8.638-7.128,8.638-14.004,0-10.48206-6.457-16.772-17.023-16.772-.336,0-1.426-.084-3.187-.084H116.365v60.293h9.979V37.5397h15.178c7.966,0,9.224,3.354,9.559,9.643l.336,7.212c.167,3.187.335,5.786,1.509,7.966h11.237v-1.761C161.899,59.34268,161.815,57.16171,161.647,53.63974Zm-21.048-24.57H126.26v-18.532h14.591c7.547,0,11.572,2.18,11.572,9.14C152.423,26.72171,148.482,29.06973,140.599,29.06973Z"/><path d="M88.047,2.0677H76.726l-22.054,60.293H65.154l5.451-15.597h23.48l5.367,15.597h10.733Zm-14.675,36.31,8.973-26.163,8.972,26.163Z"/><rect x="33.64099" y="41.8997" width="7.883" height="7.883"/><rect x="25.75899" y="34.01772" width="7.883" height="7.883"/><rect x="41.52399" y="2.48772" width="7.883" height="7.883"/><rect x="33.64099" y="10.36971" width="7.883" height="7.883"/><rect x="25.75899" y="18.2527" width="7.883" height="7.883"/><rect x="17.87599" y="26.13472" width="7.883" height="7.883"/><polygon points="9.994 34.018 9.994 2.488 2.112 2.488 2.112 62.361 9.994 62.361 9.994 41.9 17.877 41.9 17.877 34.018 9.994 34.018"/><rect x="41.52399" y="49.7827" width="7.883" height="12.578"/></svg>