<?xml version="1.0" encoding="utf-8"?>
<!-- Generator: Adobe Illustrator 23.0.6, SVG Export Plug-In . SVG Version: 6.00 Build 0)  -->
<svg version="1.1" id="Layer_1" 
	xmlns="http://www.w3.org/2000/svg" 
	xmlns:xlink="http://www.w3.org/1999/xlink" x="0px" y="0px" viewBox="0 0 272 64.2" style="enable-background:new 0 0 272 64.2;" xml:space="preserve" width="272px" height="64px">
	<title>artist</title>
	<polygon points="225.5,2.1 225.5,62.4 269.9,62.4 269.9,53.3 235.4,53.3 235.4,35.1 266.2,35.1 266.2,26.6 235.4,26.6 235.4,10.9 
	268.8,10.9 268.8,2.1 "/>
	<path d="M209.4,4.2c-3.9-2.1-8.1-2.2-13.1-2.2h-23v60.3h10.1V38.6h13.7c5.9,0,10.2-0.5,13.8-3.2c4.4-3.3,6.9-8.4,6.9-14.8
	C217.8,12.8,214.8,7.2,209.4,4.2z M196.4,29.8h-13v-19H197c7.2,0,10.7,2.8,10.7,9.6C207.7,27.6,203.9,29.8,196.4,29.8z"/>
	<path d="M161.6,53.6l-0.5-8.6c-0.3-6.5-1.5-10.2-7.2-12.1c5.5-2.1,8.6-7.1,8.6-14c0-10.5-6.5-16.8-17-16.8c-0.3,0-1.4-0.1-3.2-0.1
	h-26v60.3h10V37.5h15.2c8,0,9.2,3.4,9.6,9.6l0.3,7.2c0.2,3.2,0.3,5.8,1.5,8h11.2v-1.8C161.9,59.3,161.8,57.2,161.6,53.6z
	 M140.6,29.1h-14.3V10.5h14.6c7.5,0,11.6,2.2,11.6,9.1C152.4,26.7,148.5,29.1,140.6,29.1z"/>
	<path d="M88,2.1H76.7L54.7,62.4h10.5l5.5-15.6h23.5l5.4,15.6h10.7L88,2.1z M73.4,38.4l9-26.2l9,26.2H73.4z"/>
	<rect x="33.6" y="41.9" width="7.9" height="7.9"/>
	<rect x="25.8" y="34" width="7.9" height="7.9"/>
	<rect x="41.5" y="2.5" width="7.9" height="7.9"/>
	<rect x="33.6" y="10.4" width="7.9" height="7.9"/>
	<rect x="25.8" y="18.3" width="7.9" height="7.9"/>
	<rect x="17.9" y="26.1" width="7.9" height="7.9"/>
	<polygon points="10,34 10,2.5 2.1,2.5 2.1,62.4 10,62.4 10,41.9 17.9,41.9 17.9,34 "/>
	<rect x="41.5" y="49.8" width="7.9" height="12.6"/>
</svg>
