<svg id="Layer_1" data-name="Layer 1" xmlns="http://www.w3.org/2000/svg" viewBox="0 0 272 64.24"><title>robyn</title><polygon points="221.9 1.62 221.9 61.91 231.54 61.91 231.54 16.79 259.8 61.91 270.37 61.91 270.37 1.62 260.64 1.62 260.64 46.73 232.55 1.62 221.9 1.62"/><rect x="197.53" y="28.11" width="7.88" height="7.88"/><rect x="181.68" y="28.11" width="7.88" height="7.88"/><rect x="205.33" y="2.04" width="7.88" height="26.08"/><rect x="189.56" y="36" width="7.97" height="25.91"/><rect x="173.8" y="2.03" width="7.88" height="26.08"/><path d="M158,29.37a13,13,0,0,0,8.05-12.49c0-10.23-6.29-15.26-18.87-15.26H121.13V61.91h26.41c13.59,0,21.05-7.3,21.05-17.86C168.59,36.33,164.9,31.3,158,29.37ZM130.94,10h14.59c7,0,10.48,2.43,10.48,7.63,0,6-3.52,8.47-10.81,8.47H130.94Zm15.77,43H130.94V34.32h15.18c8,0,12.16,2.52,12.16,9.22C158.28,49.92,154.42,53,146.71,53Z"/><path d="M45.51,53.19,45,44.55C44.67,38,43.5,34.32,37.79,32.47c5.45-2.09,8.64-7.12,8.64-14C46.43,8,40,1.7,29.41,1.7c-.34,0-1.43-.08-3.19-.08H.23V61.91h10V37.09H25.38c8,0,9.23,3.35,9.56,9.64l.34,7.21c.17,3.19.33,5.79,1.51,8H48V60.15C45.76,58.89,45.68,56.71,45.51,53.19Zm-21-24.57H10.12V10.09H24.71c7.55,0,11.57,2.18,11.57,9.14S32.34,28.62,24.46,28.62Z"/><path d="M91.92,57.55A4,4,0,0,1,93.14,52h0a4,4,0,0,1,5.52,1.21h0a4,4,0,0,1-1.21,5.53h0a4,4,0,0,1-2.15.63h0A4,4,0,0,1,91.92,57.55Zm10.78-8.81a4,4,0,0,1-1.69-5.4h0a4,4,0,0,1,5.4-1.69h0a4,4,0,0,1,1.69,5.4h0a4,4,0,0,1-3.55,2.14h0A3.87,3.87,0,0,1,102.7,48.74Z"/><path d="M101,20.25h0a4,4,0,0,1,1.68-5.39h0a4,4,0,0,1,5.4,1.68h0a4,4,0,0,1-1.69,5.4h0a4,4,0,0,1-1.85.46h0A4,4,0,0,1,101,20.25Zm-7.87-8.67h0a4,4,0,0,1-1.22-5.53h0a4,4,0,0,1,5.53-1.21h0a4,4,0,0,1,1.21,5.52h0a4,4,0,0,1-3.37,1.85h0A4,4,0,0,1,93.14,11.58Z"/><path d="M57.82,21.94a4,4,0,0,1-1.69-5.4h0a4,4,0,0,1,5.4-1.69h0a4,4,0,0,1,1.69,5.4h0a4,4,0,0,1-3.55,2.15h0A4,4,0,0,1,57.82,21.94Zm7.75-11.58a4,4,0,0,1,1.21-5.52h0a4,4,0,0,1,5.53,1.21h0a4,4,0,0,1-1.22,5.53h0a3.93,3.93,0,0,1-2.15.63h0A4,4,0,0,1,65.57,10.36Z"/><path d="M66.78,58.76a4,4,0,0,1-1.21-5.53h0A4,4,0,0,1,71.09,52h0a4,4,0,0,1,1.22,5.52h0a4,4,0,0,1-3.38,1.85h0A4.06,4.06,0,0,1,66.78,58.76ZM56.13,47.06h0a4,4,0,0,1,1.69-5.41h0a4,4,0,0,1,5.4,1.69h0a4,4,0,0,1-1.69,5.4h0a4,4,0,0,1-1.85.46h0A4,4,0,0,1,56.13,47.06Z"/><path d="M80,7.69h0a4,4,0,0,1-1.22-5.53h0A4,4,0,0,1,84.28,1h0a4,4,0,0,1,1.21,5.52h0a4,4,0,0,1-3.37,1.85h0A4,4,0,0,1,80,7.69Z"/><path d="M80,62.69h0a4,4,0,0,1-1.22-5.53h0A4,4,0,0,1,84.28,56h0a4,4,0,0,1,1.21,5.52h0a4,4,0,0,1-3.37,1.85h0A4,4,0,0,1,80,62.69Z"/><path d="M104.44,29.67h0A4,4,0,0,1,110,28.45h0A4,4,0,0,1,111.18,34h0a4,4,0,0,1-5.52,1.21h0a4,4,0,0,1-1.85-3.37h0A4,4,0,0,1,104.44,29.67Z"/><path d="M53.06,29.67h0a4,4,0,0,1,5.53-1.22h0A4,4,0,0,1,59.8,34h0a4,4,0,0,1-5.52,1.21h0a4,4,0,0,1-1.85-3.37h0A4,4,0,0,1,53.06,29.67Z"/></svg>