<?xml version="1.0" encoding="utf-8"?>
<!-- Generator: Adobe Illustrator 23.0.6, SVG Export Plug-In . SVG Version: 6.00 Build 0)  -->
<svg version="1.1" id="Layer_1" 
	xmlns="http://www.w3.org/2000/svg" 
	xmlns:xlink="http://www.w3.org/1999/xlink" x="0px" y="0px" viewBox="0 0 272 64.2" style="enable-background:new 0 0 272 64.2;" xml:space="preserve" width="272px" height="64px">
	<title>robyn</title>
	<polygon points="221.9,1.6 221.9,61.9 231.5,61.9 231.5,16.8 259.8,61.9 270.4,61.9 270.4,1.6 260.6,1.6 260.6,46.7 232.6,1.6 "/>
	<rect x="197.5" y="28.1" width="7.9" height="7.9"/>
	<rect x="181.7" y="28.1" width="7.9" height="7.9"/>
	<rect x="205.3" y="2" width="7.9" height="26.1"/>
	<rect x="189.6" y="36" width="8" height="25.9"/>
	<rect x="173.8" y="2" width="7.9" height="26.1"/>
	<path d="M158,29.4c5-2.1,8.2-7.1,8.1-12.5c0-10.2-6.3-15.3-18.9-15.3h-26.1v60.3h26.4c13.6,0,21.1-7.3,21.1-17.9
	C168.6,36.3,164.9,31.3,158,29.4z M130.9,10h14.6c7,0,10.5,2.4,10.5,7.6c0,6-3.5,8.5-10.8,8.5h-14.3V10z M146.7,53h-15.8V34.3h15.2
	c8,0,12.2,2.5,12.2,9.2C158.3,49.9,154.4,53,146.7,53z"/>
	<path d="M45.5,53.2L45,44.5c-0.3-6.5-1.5-10.2-7.2-12.1c5.5-2.1,8.6-7.1,8.6-14C46.4,8,40,1.7,29.4,1.7c-0.3,0-1.4-0.1-3.2-0.1h-26
	v60.3h10V37.1h15.1c8,0,9.2,3.3,9.6,9.6l0.3,7.2c0.2,3.2,0.3,5.8,1.5,8H48v-1.8C45.8,58.9,45.7,56.7,45.5,53.2z M24.5,28.6H10.1
	V10.1h14.6c7.5,0,11.6,2.2,11.6,9.1S32.3,28.6,24.5,28.6L24.5,28.6z"/>
	<path d="M91.9,57.5c-1.2-1.9-0.7-4.3,1.2-5.5c0,0,0,0,0,0l0,0c1.9-1.2,4.3-0.6,5.5,1.2l0,0c1.2,1.9,0.7,4.3-1.2,5.5c0,0,0,0,0,0l0,0
	c-0.6,0.4-1.4,0.6-2.2,0.6l0,0C93.9,59.4,92.7,58.7,91.9,57.5z M102.7,48.7c-2-1-2.7-3.4-1.7-5.4c0,0,0,0,0,0l0,0
	c1-2,3.4-2.7,5.4-1.7c0,0,0,0,0,0l0,0c2,1,2.7,3.4,1.7,5.4c0,0,0,0,0,0l0,0c-0.7,1.3-2.1,2.1-3.6,2.1l0,0
	C103.9,49.2,103.3,49,102.7,48.7z"/>
	<path d="M101,20.2L101,20.2c-1-2-0.3-4.4,1.7-5.4l0,0c2-1,4.4-0.3,5.4,1.7l0,0c1,2,0.3,4.4-1.7,5.4c0,0,0,0,0,0l0,0
	c-0.6,0.3-1.2,0.5-1.8,0.5l0,0C103.1,22.4,101.7,21.6,101,20.2z M93.1,11.6L93.1,11.6c-1.9-1.2-2.4-3.7-1.2-5.5c0,0,0,0,0,0l0,0
	c1.2-1.9,3.7-2.4,5.5-1.2c0,0,0,0,0,0l0,0c1.9,1.2,2.4,3.7,1.2,5.5l0,0c-0.7,1.2-2,1.8-3.4,1.9l0,0C94.5,12.2,93.8,12,93.1,11.6
	L93.1,11.6z"/>
	<path d="M57.8,21.9c-2-1-2.7-3.4-1.7-5.4c0,0,0,0,0,0l0,0c1-2,3.4-2.7,5.4-1.7c0,0,0,0,0,0l0,0c2,1,2.7,3.4,1.7,5.4c0,0,0,0,0,0l0,0
	c-0.7,1.3-2.1,2.2-3.5,2.1l0,0C59,22.4,58.4,22.2,57.8,21.9z M65.6,10.4c-1.2-1.9-0.6-4.3,1.2-5.5l0,0c1.9-1.2,4.3-0.7,5.5,1.2
	c0,0,0,0,0,0l0,0c1.2,1.9,0.6,4.3-1.2,5.5c0,0,0,0,0,0l0,0c-0.6,0.4-1.4,0.6-2.2,0.6l0,0C67.6,12.2,66.3,11.5,65.6,10.4z"/>
	<path d="M66.8,58.8c-1.9-1.2-2.4-3.7-1.2-5.5c0,0,0,0,0,0l0,0c1.2-1.9,3.7-2.4,5.5-1.2l0,0c1.9,1.2,2.4,3.7,1.2,5.5l0,0
	c-0.7,1.2-2,1.9-3.4,1.8l0,0C68.2,59.4,67.4,59.2,66.8,58.8z M56.1,47.1L56.1,47.1c-1-2-0.3-4.4,1.7-5.4c0,0,0,0,0,0l0,0
	c2-1,4.4-0.3,5.4,1.7c0,0,0,0,0,0l0,0c1,2,0.3,4.4-1.7,5.4c0,0,0,0,0,0l0,0c-0.6,0.3-1.2,0.5-1.8,0.5l0,0
	C58.2,49.2,56.8,48.4,56.1,47.1z"/>
	<path d="M80,7.7L80,7.7c-1.9-1.2-2.4-3.7-1.2-5.5c0,0,0,0,0,0l0,0C80,0.3,82.4-0.2,84.3,1l0,0c1.9,1.2,2.4,3.7,1.2,5.5l0,0
	c-0.7,1.2-2,1.8-3.4,1.8l0,0C81.4,8.3,80.6,8.1,80,7.7z"/>
	<path d="M80,62.7L80,62.7c-1.9-1.2-2.4-3.7-1.2-5.5c0,0,0,0,0,0l0,0c1.2-1.8,3.7-2.3,5.5-1.2l0,0c1.9,1.2,2.4,3.7,1.2,5.5l0,0
	c-0.7,1.2-2,1.8-3.4,1.8l0,0C81.4,63.3,80.6,63.1,80,62.7z"/>
	<path d="M104.4,29.7L104.4,29.7c1.2-1.9,3.6-2.4,5.5-1.2c0,0,0,0,0,0l0,0c1.9,1.2,2.4,3.7,1.2,5.5c0,0,0,0,0,0l0,0
	c-1.2,1.9-3.7,2.4-5.5,1.2l0,0c-1.2-0.7-1.8-2-1.8-3.4l0,0C103.8,31.1,104,30.3,104.4,29.7z"/>
	<path d="M53.1,29.7L53.1,29.7c1.2-1.9,3.7-2.4,5.5-1.2c0,0,0,0,0,0l0,0c1.9,1.2,2.4,3.7,1.2,5.5c0,0,0,0,0,0l0,0
	c-1.2,1.9-3.7,2.4-5.5,1.2l0,0c-1.2-0.7-1.8-2-1.8-3.4l0,0C52.4,31.1,52.6,30.3,53.1,29.7z"/>
</svg>
