<?xml version="1.0" encoding="utf-8"?>
<!-- Generator: Adobe Illustrator 23.0.6, SVG Export Plug-In . SVG Version: 6.00 Build 0)  -->
<svg version="1.1" id="Layer_1" 
	xmlns="http://www.w3.org/2000/svg" 
	xmlns:xlink="http://www.w3.org/1999/xlink" x="0px" y="0px" viewBox="0 0 282.6 64.2" style="enable-background:new 0 0 282.6 64.2;" xml:space="preserve" width="282px" height="64px">
	<title>artist</title>
	<path d="M262.6,2h-23.3l-21.9,60.3H239c18.4,0,32.3-11,39.3-30.4C285.5,12,280.3,2,262.6,2z M268.2,31.4c-5.5,15-13.5,22-25.4,22
	h-12.3L246,10.5h13C270,10.5,273.2,17.7,268.2,31.4L268.2,31.4z"/>
	<polygon points="217.2,2 195.3,62.3 205.3,62.3 227.3,2 "/>
	<path d="M189.3,2.1c-0.3,0-1.4-0.1-3.2-0.1h-26l-21.9,60.3h10l9-24.8h15.2c8,0,8,3.4,6.1,9.6l-2.3,7.2c-1,3.2-1.8,5.8-1.4,8H186
	l0.6-1.8c-1.8-1.3-1.1-3.4,0-7l2.6-8.6c2-6.5,2.2-10.2-2.8-12.1c6.5-2.3,11.5-7.5,13.7-14C204.1,8.3,199.9,2.1,189.3,2.1z
	 M189.8,19.6c-2.6,7-7.4,9.4-15.2,9.4h-14.3l6.7-18.5h14.6C189.1,10.4,192.4,12.6,189.8,19.6L189.8,19.6z"/>
	<path d="M141.5,20.4c2.8-12.4-3.9-20-18.6-20c-17.3,0-33.2,12.3-40.2,31.8c-7,19.3,0.1,31.7,16.5,31.7c8.1,0,15.7-3.2,22.3-9.2
	l-1.1,7.6h6.6l11.8-32.5H113l-3,8.3h16.5c-4.2,10.5-13.3,16.9-23.1,16.9c-11.2,0-15.8-8.2-10.4-23C98.3,17.3,108.4,9,120.4,9
	c8.1,0,12.2,4.3,11.1,11.4H141.5z"/>
	<polygon points="74.1,2 52.1,62.3 62.2,62.3 84.1,2 "/>
	<path d="M56.6,19.6C60.8,7.8,55,0.4,41.8,0.4c-14.3,0-25.1,7.5-28.6,17c-3.7,10.1,0.6,14.7,11.9,17.9c5.3,1.5,9.6,2.3,11.5,4.9
	c1.3,1.9,1.6,4.2,1,6.4c-1.6,4.4-7.5,8.6-14.9,8.6c-9.1,0-13.1-4.4-10.8-12.3H2.2c-4.3,13.4,1.4,21,16.5,21C33.4,63.9,45,56,49,45
	c4.4-12-2.9-14.9-14.8-18.3c-7.2-2-12.9-3.9-10.6-10.1c1.5-4.2,7-8,14.1-8c7.9,0,11.4,4.1,9.4,10.9H56.6z"/>
</svg>
