<svg id="Layer_1" data-name="Layer 1" xmlns="http://www.w3.org/2000/svg" viewBox="0 0 282.63512 64.24"><title>artist</title><path d="M262.57782,1.97346h-23.312l-21.945,60.293h21.635c18.365,0,32.258-10.985,39.309-30.356C285.4978,12.03645,280.27179,1.97346,262.57782,1.97346Zm5.639,29.434c-5.46295,15.01-13.531,21.97-25.438,21.97h-12.327l15.59595-42.851h12.99805C270.03082,10.5265,273.19183,17.73847,268.2168,31.40748Z"/><polygon points="217.213 1.973 195.268 62.266 205.33 62.266 227.275 1.973 217.213 1.973"/><path d="M189.3418,2.0575c-.335,0-1.395-.084-3.156-.084h-25.995l-21.945,60.293h9.979l9.034-24.822h15.178c7.967,0,8.004,3.355,6.05,9.644l-2.289,7.212c-.992,3.186-1.771,5.786-1.39,7.966h11.236l.641-1.761c-1.806-1.25806-1.096-3.438.018-6.96l2.64-8.637c2.046-6.541,2.215-10.23095-2.816-12.076a22.49021,22.49021,0,0,0,13.734-14.004C204.07581,8.34644,199.90784,2.0575,189.3418,2.0575Zm.498,17.52594c-2.564,7.044-7.36,9.392-15.242,9.392h-14.34l6.745-18.532h14.591C189.14081,10.44349,192.3728,12.62348,189.83984,19.58344Z"/><path d="M141.46882,20.42249c2.756-12.411-3.859-20.042-18.617-20.042-17.275,0-33.166,12.327-40.247,31.782-7.02,19.287.119,31.697,16.471,31.697,8.05,0,15.667-3.186,22.309-9.224l-1.1,7.631h6.624l11.843-32.536h-25.744l-3.022,8.301h16.52c-4.235,10.483-13.347,16.856-23.074,16.856-11.237,0-15.793-8.218-10.421-22.977,5.311-14.591,15.376-22.893,27.368-22.893,8.134,0,12.196,4.277,11.111,11.405Z"/><polygon points="74.063 1.973 52.118 62.266 62.181 62.266 84.126 1.973 74.063 1.973"/><path d="M56.56782,19.58348c4.189-11.74-1.564-19.203-14.729-19.203-14.256,0-25.137,7.547-28.586,17.023-3.663,10.063.613,14.675,11.917,17.945,5.32,1.509,9.574,2.264,11.479,4.864a7.45948,7.45948,0,0,1,.951,6.373c-1.618,4.444-7.505,8.637-14.884,8.637-9.056,0-13.057-4.444-10.775-12.327h-9.728c-4.296,13.417,1.427,20.964,16.521,20.964,14.675,0,26.265-7.882,30.263-18.867,4.365-11.992-2.869-14.927-14.813-18.281-7.151-2.013-12.852-3.858-10.594-10.063,1.526-4.193,7.009-7.966,14.053-7.966,7.882,0,11.418,4.109,9.365,10.901Z"/></svg>