<?xml version="1.0" encoding="utf-8"?>
<!-- Generator: Adobe Illustrator 23.0.6, SVG Export Plug-In . SVG Version: 6.00 Build 0)  -->
<svg version="1.1" id="Layer_1" 
	xmlns="http://www.w3.org/2000/svg" 
	xmlns:xlink="http://www.w3.org/1999/xlink" x="0px" y="0px" viewBox="0 0 533 64.2" style="enable-background:new 0 0 533 64.2;" xml:space="preserve" width="533px" height="64px">
	<title>artist</title>
	<path d="M529.4,62.9l-0.2-60.3h-11.3l-44,60.3h10.5l11.1-15.6H519l-0.3,15.6H529.4z M501.3,38.9l18.5-26.2l-0.5,26.2H501.3z"/>
	<polygon points="431.9,55 439.9,55 458.8,3 450.8,3 "/>
	<polygon points="439.9,55 437,62.9 468.6,62.9 471.5,55 "/>
	<polygon points="422.1,37 390.5,37 397.2,18.8 389.3,18.8 373.2,62.9 381.1,62.9 387.7,44.9 419.2,44.9 412.6,62.9 420.5,62.9 
	436.6,18.8 428.7,18.8 "/>
	<polygon points="431.5,10.9 423.7,10.9 420.8,18.8 428.7,18.8 "/>
	<polygon points="407.9,10.9 400,10.9 397.2,18.8 405,18.8 "/>
	<polygon points="423.7,10.9 426.5,3 410.8,3 407.9,10.9 "/>
	<path d="M379.3,4.8c-3.1-2.1-7.3-2.2-12.3-2.2h-23l-21.9,60.3h10.1l8.6-23.7h13.7c5.9,0,10.4-0.5,15-3.2c5.7-3.3,10.1-8.6,12.3-14.8
	C384.6,13.3,383.7,7.7,379.3,4.8z M371.8,20.9c-2.6,7.2-7.2,9.5-14.8,9.5h-13l6.9-19h13.6C371.7,11.3,374.2,14.1,371.8,20.9
	L371.8,20.9z"/>
	<polygon points="273.6,2.6 251.7,62.9 261,62.9 279.1,13.1 275.8,62.9 285.6,62.9 318.6,13.1 300.5,62.9 310.1,62.9 332,2.6 
	317.4,2.6 285.2,50.8 288.2,2.6 "/>
	<polygon points="251.6,2.6 229.6,62.9 239.7,62.9 261.6,2.6 "/>
	<polygon points="216,3 184.3,3 181.5,10.9 213.1,10.9 "/>
	<polygon points="197,55 165.4,55 162.6,62.9 194.2,62.9 "/>
	<polygon points="174.9,28.8 198.7,28.8 195.8,36.7 172.1,36.7 165.4,55 157.5,55 173.5,10.9 181.5,10.9 "/>
	<polygon points="107.8,2.6 85.9,62.9 95.2,62.9 113.3,13.1 110,62.9 119.8,62.9 152.8,13.1 134.7,62.9 144.3,62.9 166.2,2.6 
	151.6,2.6 119.4,50.8 122.4,2.6 "/>
	<path d="M79.7,62.9L79.5,2.6H68.2l-44,60.3h10.5l11.1-15.6h23.5L69,62.9H79.7z M51.6,38.9l18.5-26.2l-0.6,26.2H51.6z"/>
	<polygon points="5.4,2.6 2.2,11.4 20.9,11.4 2.1,62.9 12.1,62.9 30.8,11.4 49.4,11.4 52.6,2.6 "/>
</svg>
