<svg id="Layer_1" data-name="Layer 1" xmlns="http://www.w3.org/2000/svg" viewBox="0 0 533.02934 64.24"><title>artist</title><path d="M529.413,62.88569l-.194-60.293h-11.32l-44,60.293h10.483l11.127-15.597h23.48l-.31,15.597Zm-28.084-23.983,18.495-26.163-.55,26.163Z"/><polygon points="431.915 55.004 439.881 55.004 458.804 3.013 450.838 3.013 431.915 55.004"/><polygon points="439.881 55.004 437.012 62.886 468.626 62.886 471.495 55.004 439.881 55.004"/><polygon points="422.058 36.975 390.528 36.975 397.151 18.778 389.269 18.778 373.215 62.886 381.097 62.886 387.659 44.857 419.189 44.857 412.627 62.886 420.51 62.886 436.564 18.778 428.681 18.778 422.058 36.975"/><polygon points="431.55 10.895 423.668 10.895 420.799 18.778 428.681 18.778 431.55 10.895"/><polygon points="407.903 10.895 400.02 10.895 397.151 18.778 405.034 18.778 407.903 10.895"/><polygon points="423.668 10.895 426.537 3.013 410.772 3.013 407.903 10.895 423.668 10.895"/><path d="M379.314,4.77369c-3.094-2.097-7.257-2.181-12.288-2.181H344.049l-21.945,60.293h10.063l8.638-23.731h13.668c5.87,0,10.414-.503,14.996-3.187a27.95909,27.95909,0,0,0,12.279-14.842C384.586,13.32673,383.696,7.70869,379.314,4.77369Zm-7.537,16.1c-2.625,7.212-7.223,9.476-14.77,9.476H344.009l6.929-19.035h13.584C371.734,11.3147,374.249,14.08173,371.777,20.87373Z"/><polygon points="273.635 2.593 251.69 62.886 260.998 62.886 279.128 13.076 275.757 62.886 285.568 62.886 318.625 13.076 300.495 62.886 310.055 62.886 331.999 2.593 317.408 2.593 285.184 50.811 288.226 2.593 273.635 2.593"/><polygon points="251.582 2.593 229.637 62.886 239.7 62.886 261.644 2.593 251.582 2.593"/><polygon points="215.959 3.013 184.345 3.013 181.476 10.895 213.09 10.895 215.959 3.013"/><polygon points="197.035 55.004 165.421 55.004 162.552 62.886 194.166 62.886 197.035 55.004"/><polygon points="174.944 28.841 198.676 28.841 195.807 36.723 172.075 36.723 165.421 55.004 157.455 55.004 173.509 10.895 181.476 10.895 174.944 28.841"/><polygon points="107.845 2.593 85.9 62.886 95.208 62.886 113.338 13.076 109.967 62.886 119.778 62.886 152.834 13.076 134.704 62.886 144.264 62.886 166.209 2.593 151.618 2.593 119.393 50.811 122.436 2.593 107.845 2.593"/><path d="M79.72,62.88569l-.193-60.293H68.206l-43.999,60.293H34.689l11.128-15.597h23.48l-.31,15.597Zm-28.084-23.983,18.496-26.163-.55,26.163Z"/><polygon points="5.44 2.593 2.235 11.398 20.852 11.398 2.112 62.886 12.09 62.886 30.831 11.398 49.363 11.398 52.568 2.593 5.44 2.593"/></svg>