<svg xmlns="http://www.w3.org/2000/svg" viewBox="0 0 95.42 95.42"><defs><style>.cls-1{fill:#f4cbdc;}.cls-2{fill:#231f20;}</style></defs><title>bar</title><g id="Layer_2" data-name="Layer 2"><g id="Layer_1-2" data-name="Layer 1"><path id="_Path_" data-name="&lt;Path&gt;" class="cls-1" d="M95.42,47.71A47.71,47.71,0,1,1,47.71,0,47.71,47.71,0,0,1,95.42,47.71"/><path class="cls-2" d="M12.79,36H26.13q6.93,0,6.93,5.14a4.85,4.85,0,0,1-2.79,4.51,4.89,4.89,0,0,1,3.59,5.08c0,3.57-2.42,5.88-6.71,5.88H12.79ZM18,40.24v4h6.11c2.43,0,3.6-.37,3.6-2.11s-1.14-1.94-3.6-1.94Zm6.88,12.17c2.43,0,3.6-.26,3.6-2.14s-1.14-2.37-3.6-2.37H18v4.51Z"/><path class="cls-2" d="M45.41,36h5l9.39,20.61H54l-1.88-4.37H43.07l-1.86,4.37H35.64ZM50.29,48.1l-2.77-6.37L44.84,48.1Z"/><path class="cls-2" d="M62.8,36H75.48c5.37,0,8,1.65,8,5.54a5.37,5.37,0,0,1-3.42,5.22c2.2.92,2.45,2.06,2.57,4.4s.11,4.31,1.11,5.45H78A3,3,0,0,1,77.54,55V53.63c0-3.51-.55-4.59-3.6-4.59H68v7.59H62.8Zm11,8.79c2.77,0,4.2-.51,4.2-2.42s-1.45-2.15-4.43-2.15H68v4.57Z"/></g></g></svg>