<svg xmlns="http://www.w3.org/2000/svg" viewBox="0 0 97.73 97.73"><defs><style>.cls-1{fill:#d9d9d8;}.cls-2{fill:#231f20;}</style></defs><title>bike</title><g id="Layer_2" data-name="Layer 2"><g id="Layer_1-2" data-name="Layer 1"><path id="_Path_" data-name=" Path " class="cls-1" d="M97.73,48.87A48.87,48.87,0,1,1,48.87,0h0A48.87,48.87,0,0,1,97.73,48.87"/><path class="cls-2" d="M73.07,40.55a15.68,15.68,0,0,0-6,1.18l-3.22-5.41,3.42-5.64h3.67a2,2,0,1,0,0-3.94H58.77a2,2,0,0,0,0,3.94h3.87l-1.73,2.85H41.46l2.09-3.44a1.83,1.83,0,0,0,.27-1.2l0-.19a2,2,0,0,0-2-2H31.17a2,2,0,1,0,0,3.94h7.42L31.71,42a15.76,15.76,0,0,0-6.62-1.45,16.07,16.07,0,1,0,10,3.52l3-5L48.32,57.9l.08.13,0,0a2.06,2.06,0,0,0,.51.51l.13.13h.1a2,2,0,0,0,.87.19h7.18A16,16,0,1,0,73.07,40.55Zm-14.5-3.09L50,53,41.72,37.46Zm15.2,21.42a1.93,1.93,0,0,0,1.7-1,2,2,0,0,0,0-2L69.08,45.17a11.89,11.89,0,0,1,4-.68A12.08,12.08,0,1,1,61.27,58.88ZM63.6,43.66a15.89,15.89,0,0,0-6.45,11.28H53.47l8.06-14.77Zm2,3.43L70.3,55H61.16A12,12,0,0,1,65.63,47.09ZM25.09,44.48a11.81,11.81,0,0,1,4.56.93L23.28,55.9A2,2,0,0,0,24,58.6a2,2,0,0,0,2.7-.66L33,47.5a12,12,0,1,1-7.9-3Z"/></g></g></svg>