<svg xmlns="http://www.w3.org/2000/svg" viewBox="0 0 97.73 97.74"><defs><style>.cls-1{fill:#f4cbdc;}.cls-2{fill:#010101;}</style></defs><title>coffee_2</title><g id="Layer_2" data-name="Layer 2"><g id="Layer_1-2" data-name="Layer 1"><g id="_Group_" data-name="&lt;Group&gt;"><path id="_Path_" data-name="&lt;Path&gt;" class="cls-1" d="M97.73,48.87A48.87,48.87,0,1,1,48.87,0,48.87,48.87,0,0,1,97.73,48.87"/></g><path class="cls-2" d="M34.49,32.77a2.72,2.72,0,0,0,2.71-2.71V18.32a2.71,2.71,0,0,0-5.42,0V30.06A2.71,2.71,0,0,0,34.49,32.77Z"/><path class="cls-2" d="M46.67,32.77a2.71,2.71,0,0,0,2.71-2.71V12.9a2.71,2.71,0,0,0-5.42,0V30.06A2.71,2.71,0,0,0,46.67,32.77Z"/><path class="cls-2" d="M58.86,32.77a2.72,2.72,0,0,0,2.71-2.71V18.32a2.71,2.71,0,0,0-5.42,0V30.06A2.71,2.71,0,0,0,58.86,32.77Z"/><path class="cls-2" d="M40.24,83.08H53.11A17.17,17.17,0,0,0,70,69.11h2.35a12.27,12.27,0,1,0,0-24.53h-2v-5.9A2.71,2.71,0,0,0,67.55,36H25.79a2.71,2.71,0,0,0-2.71,2.71V65.92A17.16,17.16,0,0,0,40.24,83.08ZM70.26,50h2a6.85,6.85,0,0,1,0,13.7h-2Z"/></g></g></svg>