<svg xmlns="http://www.w3.org/2000/svg" viewBox="0 0 97.73 97.74"><defs><style>.cls-1{fill:#f4cbdc;}.cls-2{fill:#231f20;}</style></defs><title>coffee</title><g id="Layer_2" data-name="Layer 2"><g id="Layer_1-2" data-name="Layer 1"><g id="_Group_" data-name="&lt;Group&gt;"><path id="_Path_" data-name="&lt;Path&gt;" class="cls-1" d="M97.73,48.87A48.87,48.87,0,1,1,48.87,0,48.87,48.87,0,0,1,97.73,48.87"/></g><path class="cls-2" d="M71.35,44.58h-2v-5.9A2.71,2.71,0,0,0,66.59,36H24.83a2.71,2.71,0,0,0-2.71,2.71V65.92A17.16,17.16,0,0,0,39.28,83.08H52.14A17.16,17.16,0,0,0,69,69.11h2.36a12.27,12.27,0,0,0,0-24.53Zm0,19.12h-2V50h2a6.85,6.85,0,1,1,0,13.7Z"/><path class="cls-2" d="M57.74,31.77a2.05,2.05,0,0,0,1.43-.62,2,2,0,0,0,.6-1.41V18.34a2,2,0,0,0-4.06,0v11.4A2.09,2.09,0,0,0,57.74,31.77Z"/><path class="cls-2" d="M33.37,31.77a2.05,2.05,0,0,0,1.43-.62,2,2,0,0,0,.6-1.41V18.34a2,2,0,0,0-4.06,0v11.4A2.09,2.09,0,0,0,33.37,31.77Z"/><path class="cls-2" d="M45.55,30.77A2.05,2.05,0,0,0,47,30.15a2,2,0,0,0,.6-1.41V12.92a2.09,2.09,0,0,0-2-2,2.1,2.1,0,0,0-2,2V28.73A2.09,2.09,0,0,0,45.55,30.77Z"/></g></g></svg>