<svg xmlns="http://www.w3.org/2000/svg" viewBox="0 0 97.73 97.74"><defs><style>.cls-1{fill:#f4cbdc;}.cls-2{fill:#010101;}</style></defs><title>drinks_1</title><g id="Layer_2" data-name="Layer 2"><g id="Layer_1-2" data-name="Layer 1"><g id="_Group_" data-name="&lt;Group&gt;"><path id="_Path_" data-name="&lt;Path&gt;" class="cls-1" d="M97.73,48.87A48.87,48.87,0,1,1,48.87,0,48.87,48.87,0,0,1,97.73,48.87"/></g><path class="cls-2" d="M31.06,31.88a.95.95,0,0,0-.78,1.49L47.59,58V71.54H40.54a.95.95,0,1,0,0,1.89h16a.95.95,0,0,0,0-1.89h-7V58q8.63-12.31,17.29-24.6A.94.94,0,0,0,66,31.88Zm1.82,1.89h31.3l-2.7,3.84H35.58Z"/><path class="cls-2" d="M24.25,30.63,29.07,20.1a.33.33,0,0,1,.4-.24L41,20.57a.33.33,0,0,1,.09.6s-1.65,2.57-7.5,6.07S24.74,31,24.74,31A.33.33,0,0,1,24.25,30.63Z"/><rect class="cls-2" x="35.59" y="23.96" width="1.89" height="16.25" transform="translate(-11.3 23.35) rotate(-30.94)"/><path class="cls-2" d="M54.44,42.06,54.38,42a.89.89,0,0,1-.25-1.25L67.29,21.15a.92.92,0,0,1,1.26-.25l.06.05a.89.89,0,0,1,.25,1.25L55.7,41.81A.91.91,0,0,1,54.44,42.06Z"/><circle class="cls-2" cx="65.15" cy="26.06" r="4.03"/></g></g></svg>