<?xml version="1.0" encoding="utf-8"?>
<!-- Generator: Adobe Illustrator 22.1.0, SVG Export Plug-In . SVG Version: 6.00 Build 0)  -->
<svg version="1.1" id="Layer_1" xmlns="http://www.w3.org/2000/svg" xmlns:xlink="http://www.w3.org/1999/xlink" x="0px" y="0px"
	 viewBox="0 0 97.7 97.7" style="enable-background:new 0 0 97.7 97.7;" xml:space="preserve">
<style type="text/css">
	.st0{fill:#F4CBDC;}
	.st1{fill:#231F20;}
</style>
<title>drinks</title>
<g id="Layer_2_1_">
	<g id="Layer_1-2">
		<g id="_Group_">
			<path id="_Path_" class="st0" d="M97.7,48.9c0,27-21.9,48.9-48.9,48.9C21.9,97.7,0,75.9,0,48.9S21.9,0,48.9,0
				C75.9,0,97.7,21.9,97.7,48.9"/>
		</g>
		<path class="st1" d="M75.9,22.7c-0.4-0.7-1-1.1-1.8-1.1H23c-0.8,0-1.5,0.4-1.8,1.1c-0.3,0.7-0.3,1.5,0.1,2.1l25.2,35.8v19h-9.7
			c-1.1,0-2,0.9-2,2c0,0.5,0.2,1.1,0.6,1.4c0.4,0.4,0.9,0.6,1.4,0.6h23.4c1.1,0,2-0.9,2-2c0-1.1-0.9-2-2-2h-9.7v-19
			c7.5-10.7,15-21.3,22.5-32l2.7-3.8C76.3,24.2,76.3,23.4,75.9,22.7z M70.2,25.7l-6.5,9.2H33.3l-6.5-9.2H70.2z"/>
	</g>
</g>
</svg>
