<svg xmlns="http://www.w3.org/2000/svg" viewBox="0 0 97.73 97.74"><defs><style>.cls-1{fill:#f4cbdc;}.cls-2{fill:#010101;}</style></defs><title>drinks_2</title><g id="Layer_2" data-name="Layer 2"><g id="Layer_1-2" data-name="Layer 1"><g id="_Group_" data-name="&lt;Group&gt;"><path id="_Path_" data-name="&lt;Path&gt;" class="cls-1" d="M97.73,48.87A48.87,48.87,0,1,1,48.87,0,48.87,48.87,0,0,1,97.73,48.87"/></g><path class="cls-2" d="M23,22.24a1.37,1.37,0,0,0-1.23.73,1.42,1.42,0,0,0,.08,1.45l25.34,36V80.31H36.83a1.39,1.39,0,1,0,0,2.77h23.4a1.39,1.39,0,0,0,0-2.77H49.92V60.43q12.64-18,25.32-36A1.41,1.41,0,0,0,75.35,23a1.44,1.44,0,0,0-1.23-.75ZM25.61,25H71.44l-4,5.62H29.57Z"/></g></g></svg>