<svg xmlns="http://www.w3.org/2000/svg" viewBox="0 0 310.66 571.86"><defs><style>.cls-1{fill:#1d1d1b;}.cls-2{fill:#fff;}</style></defs><title>exit10</title><g id="Layer_2" data-name="Layer 2"><g id="Installasjoner_2017" data-name="Installasjoner 2017"><polygon id="_Path_" data-name="&lt;Path&gt;" class="cls-1" points="27.08 571.86 102.31 531.04 310.66 41.22 209.21 0 15.42 451.62 0 490.67 27.08 571.86"/><path class="cls-2" d="M241.71,64.17c-5.55-2.37-9.06-1.29-11.32,4-1.2,2.82-1.2,5.25-.2,7.18s2.78,2.82,5.12,3.82l15.37,6.56-3,7.13L231.51,86c-8.68-3.7-11.09-10.68-7-20.31S235.36,53,244,56.71l16.13,6.88-3,7.13Z"/><path class="cls-2" d="M209.49,103l3-7.14,22.75,9.71,4.17-9.79,5.87,2.5L233.93,125l-5.87-2.5,4.18-9.79Z"/><path class="cls-2" d="M195.77,133.13a20.23,20.23,0,0,1,8.43-9.9c4.41-2.42,8.9-2.52,13.78-.45,9.07,3.88,12.23,13,7.74,23.59-3.87,9.07-11,13.35-17.52,11.54l3.32-7.81c3.77.06,6.52-2,8.33-6.24,2.44-5.7.47-10.76-5.24-13.19s-10.67-.34-13.11,5.37c-1.71,4-1.2,7.88,1.06,10.38l2.77-6.5,5.86,2.5-6,14.11-15.65-6.68,2.31-5.43,3.38,1C193.73,141.53,193.89,137.53,195.77,133.13Z"/><path class="cls-2" d="M210.63,179.67l-2.95,6.89-34.17.84,3.4-8,7.18,0,5.37-12.6-5-5.16,3.29-7.73ZM191,179.29l10.48-.07-7.25-7.5Z"/><path class="cls-2" d="M200.33,203.81l-3.75,8.8-26.28,5.7,20.18,8.61-2.95,6.89-28.61-12.2,3.72-8.72,26.52-5.74-20.37-8.69,2.93-6.85Z"/><path class="cls-2" d="M147.92,245.31a20.17,20.17,0,0,1,8.44-9.89c4.41-2.43,8.9-2.52,13.77-.45,9.08,3.87,12.24,13,7.74,23.58-3.87,9.08-11,13.35-17.52,11.55l3.33-7.81c3.77.07,6.52-2,8.33-6.24,2.43-5.7.47-10.76-5.24-13.19s-10.68-.34-13.11,5.37c-1.71,4-1.2,7.87,1.05,10.38l2.77-6.5,5.87,2.5-6,14.11L141.68,262l2.32-5.43,3.37,1C145.88,253.72,146.05,249.71,147.92,245.31Z"/><path class="cls-2" d="M140.8,293.31a31.74,31.74,0,0,0-20.7-1.52l1.24-2.94c8.21-2.44,14.89-2.5,21.27.22s11,7.58,14.88,15.2l-1.25,2.93A31.81,31.81,0,0,0,140.8,293.31Z"/><path class="cls-2" d="M134.13,306.54c-4-1.71-8.13.17-10.06,4.69-1.44,3.37-1.07,6.48.89,8.35l-1.91,4.47c-4-3.46-5-8.73-2.59-14.35,3.05-7.14,9.49-9.73,16.31-6.82s9.39,9.39,6.36,16.48c-3.09,7.25-9.21,9.75-16.27,6.75l-.75-.33,8.18-19.18Zm-3.53,16.28c3.82.93,7.22-.89,9-5s.75-7.78-2.58-10Z"/><path class="cls-2" d="M112.71,337.55a12.11,12.11,0,0,0-.74,2.73l-3.49-1.49a25.51,25.51,0,0,1,1.15-3.68c1.6-3.76,3.93-4.83,7.22-3.43l13.75,5.86,1.58-3.68,3.32,1.42L133.93,339l5.39,2.3-1.64,3.85-5.39-2.31-2.21,5.2-3.33-1.42,2.22-5.19L116.32,336C114.54,335.24,113.52,335.65,112.71,337.55Z"/><path class="cls-2" d="M105.72,353.92a13.06,13.06,0,0,0-.73,2.73l-3.49-1.49a25.92,25.92,0,0,1,1.15-3.68c1.6-3.76,3.93-4.83,7.22-3.43l13.75,5.87,1.57-3.69,3.33,1.42L127,355.33l5.39,2.31-1.64,3.84-5.39-2.3-2.21,5.19L119.77,363l2.21-5.19-12.64-5.39C107.56,351.61,106.54,352,105.72,353.92Z"/><path class="cls-2" d="M108.15,367.47c-4-1.71-8.14.18-10.06,4.7-1.44,3.36-1.08,6.47.89,8.34L97.07,385c-4-3.47-5-8.73-2.59-14.36,3-7.13,9.49-9.73,16.3-6.82s9.39,9.39,6.37,16.49S107.93,390,100.88,387l-.75-.32,8.18-19.18Zm-3.53,16.29c3.82.92,7.22-.9,9-5s.74-7.79-2.59-10Z"/><path class="cls-2" d="M108.9,397.67l-1.63,3.81L103.7,400a10,10,0,0,1,1,9.63,3.55,3.55,0,0,1-1.08,1.55l-4-1.72a10.59,10.59,0,0,0,1.6-2.55c1.55-3.65-.18-8-4.69-10l-10.39-4.43,1.64-3.84Z"/><path class="cls-2" d="M74.93,420c4.36,1.86,6,5.47,6.76,11.83.44,3.7.3,7.2,1.15,10.38a6.09,6.09,0,0,0,3.51,4.07c3.13,1.33,6.58-.38,8.27-4.34,1.81-4.25.52-7.6-3.76-9.53l1.82-4.28.28.12c6.34,2.71,8.18,8.17,5.17,15.23-2.89,6.78-8.12,9.27-13.51,7a9,9,0,0,1-4.45-4c-1.47-2.58-1.66-5.34-1.89-8.53-.39-4.8-.24-8.67-2.16-11.5L69,443.19l-3.84-1.64,9.3-21.8Z"/><path class="cls-2" d="M63,448c4.36,1.86,6,5.47,6.76,11.83.43,3.7.3,7.2,1.15,10.37a6.07,6.07,0,0,0,3.51,4.07c3.13,1.34,6.57-.38,8.27-4.34,1.81-4.24.52-7.6-3.77-9.52l1.83-4.28.28.12c6.34,2.71,8.18,8.17,5.17,15.23-2.89,6.77-8.13,9.27-13.52,7a9,9,0,0,1-4.44-4c-1.48-2.59-1.66-5.34-1.89-8.53-.39-4.8-.24-8.67-2.17-11.51L57,471.22l-3.84-1.64,9.29-21.8Z"/><path class="cls-2" d="M59.11,484.86a31.76,31.76,0,0,0,20.71,1.53l-1.25,2.93c-8.21,2.45-14.89,2.51-21.27-.22s-11-7.57-14.88-15.19L43.67,471A31.84,31.84,0,0,0,59.11,484.86Z"/></g></g></svg>