<svg xmlns="http://www.w3.org/2000/svg" viewBox="0 0 97.73 97.74"><defs><style>.cls-1{fill:#f4cbdc;}.cls-2{fill:#231f20;}</style></defs><title>handicap</title><g id="Layer_2" data-name="Layer 2"><g id="Layer_1-2" data-name="Layer 1"><g id="_Group_" data-name="&lt;Group&gt;"><path id="_Path_" data-name="&lt;Path&gt;" class="cls-1" d="M97.73,48.87A48.87,48.87,0,1,1,48.87,0,48.87,48.87,0,0,1,97.73,48.87"/></g><path class="cls-2" d="M43.42,25.73a6.68,6.68,0,1,0-6.68-6.68A6.69,6.69,0,0,0,43.42,25.73Z"/><path class="cls-2" d="M79.87,68.6,69.41,50.53a4.1,4.1,0,0,0-3.44-2H51.16L51.05,45H61.66a3.35,3.35,0,0,0,0-6.69h-11l-.36-4.75a6.48,6.48,0,0,0-12.94.75l1.08,18.64A6.64,6.64,0,0,0,45.2,59H64.8l8,13.82a4.25,4.25,0,0,0,3.6,2,4.11,4.11,0,0,0,2.07-.55h0A4.15,4.15,0,0,0,79.87,68.6Z"/><path class="cls-2" d="M46.35,80.54a18.17,18.17,0,0,1-11.83-32l-.33-5.7A23,23,0,1,0,67.34,71.7L64.1,66.08A18.16,18.16,0,0,1,46.35,80.54Z"/></g></g></svg>