<svg xmlns="http://www.w3.org/2000/svg" viewBox="0 0 97.73 97.74"><defs><style>.cls-1{fill:#147bc1;}.cls-2{fill:#fff;}</style></defs><title>handicap-toilet</title><g id="Layer_2" data-name="Layer 2"><g id="Layer_1-2" data-name="Layer 1"><path id="_Path_" data-name="&lt;Path&gt;" class="cls-1" d="M97.73,48.87A48.87,48.87,0,1,1,48.87,0,48.87,48.87,0,0,1,97.73,48.87"/><path class="cls-2" d="M43.65,26.37a6.5,6.5,0,1,0-6.5-6.5A6.51,6.51,0,0,0,43.65,26.37Z"/><path class="cls-2" d="M79.1,68.06,68.93,50.48a4,4,0,0,0-3.34-1.95H51.18l-.11-3.43H61.39a3.31,3.31,0,0,0,3.2-3.27,3.28,3.28,0,0,0-3.23-3.24H50.7L50.35,34a6.3,6.3,0,0,0-12.58.73l1,18.13a6.46,6.46,0,0,0,6.56,5.9H64.45L72.2,72.17a4.1,4.1,0,0,0,3.5,1.92,3.89,3.89,0,0,0,2-.54h0A4,4,0,0,0,79.1,68.06Z"/><path class="cls-2" d="M46.5,79.67A17.66,17.66,0,0,1,35,48.55L34.67,43A22.36,22.36,0,1,0,66.92,71.07l-3.15-5.46A17.68,17.68,0,0,1,46.5,79.67Z"/></g></g></svg>