<svg xmlns="http://www.w3.org/2000/svg" viewBox="0 0 97.73 97.74"><defs><style>.cls-1{fill:#f4cbdc;}.cls-2{fill:#231f20;}</style></defs><title>merch</title><g id="Layer_2" data-name="Layer 2"><g id="Layer_1-2" data-name="Layer 1"><g id="_Group_" data-name="&lt;Group&gt;"><path id="_Path_" data-name="&lt;Path&gt;" class="cls-1" d="M97.73,48.87A48.87,48.87,0,1,1,48.87,0,48.87,48.87,0,0,1,97.73,48.87"/></g><path class="cls-2" d="M60.15,21.05C57.2,24,53.22,27.53,49.09,27.53S41,24,38,21.05a1,1,0,0,0-.88-.23l-22.72,6.5a1,1,0,0,0-.67,1.1l3.47,15.27a.88.88,0,0,0,1.11.67l10-2.29.37,37.84a.91.91,0,0,0,1,.89H68.12a1,1,0,0,0,1-.89l.29-37.84,10,2.29a.9.9,0,0,0,1.11-.67L84,28.42a.92.92,0,0,0-.67-1.1L61,20.82A1,1,0,0,0,60.15,21.05Z"/></g></g></svg>