<svg xmlns="http://www.w3.org/2000/svg" viewBox="0 0 97.73 97.74"><defs><style>.cls-1{fill:#f4cbdc;}.cls-2{fill:#010101;}</style></defs><title>partner</title><g id="Layer_2" data-name="Layer 2"><g id="Layer_1-2" data-name="Layer 1"><g id="_Group_" data-name="&lt;Group&gt;"><path id="_Path_" data-name="&lt;Path&gt;" class="cls-1" d="M97.73,48.87A48.87,48.87,0,1,1,48.87,0,48.87,48.87,0,0,1,97.73,48.87"/></g><path class="cls-2" d="M75.32,65.49a5.16,5.16,0,0,1-4,1.92,4.72,4.72,0,0,1-.64,0,5.13,5.13,0,0,1-4.6,5,5.25,5.25,0,0,1-.56,0,5.14,5.14,0,0,1-1.24-.16,5.09,5.09,0,0,1-1.1,2.6,5.17,5.17,0,0,1-3.47,1.89,5.25,5.25,0,0,1-.56,0,5.13,5.13,0,0,1-3.22-1.14l-.19-.16a4.49,4.49,0,0,1-7.06,2.31l-.13-.07-.43.55a3.27,3.27,0,0,1-5.55-3.37l-.22.28a3.5,3.5,0,0,1-6-3.34,3.52,3.52,0,0,1-4.64.3l-.1-.08a3.52,3.52,0,0,1-.89-4.51,3.8,3.8,0,0,1-5.41-5.28l1.81-2.31L22.29,53.7a1.45,1.45,0,0,1-.16-1.5L23,50.32l4.78,5.8L29,57.68a3.8,3.8,0,0,1,5.22,5.42l-.19.25a3.5,3.5,0,0,1,4.23,0l.11.08a3.51,3.51,0,0,1,1,4.24,3.5,3.5,0,0,1,5.36,4.11l.36.21a3.27,3.27,0,0,1,3.38.39h0A3.25,3.25,0,0,1,49.72,75l.54.33.14.1a1.59,1.59,0,0,0,2-2.48l0,0-5.81-4.88,0,0L46.47,68l0,0-.05-.06,0,0,0-.06,0-.06,0-.06,0-.07,0-.06,0-.07a.14.14,0,0,0,0-.06.14.14,0,0,0,0-.07s0,0,0-.07a.15.15,0,0,1,0-.07s0,0,0-.06V67a.2.2,0,0,1,0-.07.15.15,0,0,1,0-.07v-.07s0,0,0-.07a.17.17,0,0,1,0-.07.19.19,0,0,1,0-.07s0,0,0-.07l0-.06a.14.14,0,0,1,0-.07l0-.07,0-.06a.43.43,0,0,0,0-.07l0,0,.05-.07,0,0h0l0,0,0,0,.06,0,.05-.05.06,0,.06,0,.06,0,.06,0,.07,0,.06,0,.07,0,.06,0,.07,0h.68l.07,0,.07,0,.07,0,.06,0,.07,0,.06,0,.06,0,.06.05,0,0,9.32,7.52A2.27,2.27,0,0,0,60.9,73a2.27,2.27,0,0,0-.12-3L53,63.71a.91.91,0,0,1-.17-.17L50.87,62a1.45,1.45,0,1,1,1.82-2.25l9.69,7.83c.12.1.24.2.35.31L64.09,69a2.26,2.26,0,0,0,1.66.48,2.22,2.22,0,0,0,1.52-.82,2.27,2.27,0,0,0-.34-3.18l-12-9.71a1.45,1.45,0,0,1,1.82-2.26l10.63,8.59L69.88,64a2.26,2.26,0,0,0,1.66.49,2.27,2.27,0,0,0,2-2.49,2.28,2.28,0,0,0-.83-1.52l-24.43-20a12.34,12.34,0,0,0-3.52,3.27c-4.53,11.81-9.48,5.09-9.48,5.09,1.42-1.84,2.69-10,2.69-10,.79-1.4,2.85-2.77,5.09-3.9l-4.17-.17h0l-8.26-.55.83-1.75a1.44,1.44,0,0,1,1.37-.83l16.71.67a7.19,7.19,0,0,1,1-.25c9.72-1.63,14.93,2.47,14.93,2.47l9.9,20L73.7,57.55l.85.7A5.16,5.16,0,0,1,75.32,65.49ZM11.4,46.5a2,2,0,0,0,1,2.72l5.23,2.47a2,2,0,0,0,2.72-1l9-19.07a2,2,0,0,0-1-2.72l-5.23-2.47a2,2,0,0,0-2.72,1M86.33,48.67l-9.16-19a2,2,0,0,0-2.73-.95l-5.21,2.51a2,2,0,0,0-1,2.72l9.16,19a2,2,0,0,0,2.72.95l5.21-2.51A2,2,0,0,0,86.33,48.67Z"/></g></g></svg>