<svg xmlns="http://www.w3.org/2000/svg" viewBox="0 0 97.73 97.74"><defs><style>.cls-1{fill:#008a69;}.cls-2{fill:#fff;}</style></defs><title>recycle</title><g id="Layer_2" data-name="Layer 2"><g id="Layer_1-2" data-name="Layer 1"><g id="_Group_" data-name="&lt;Group&gt;"><path id="_Path_" data-name="&lt;Path&gt;" class="cls-1" d="M97.73,48.87A48.87,48.87,0,1,1,48.87,0,48.87,48.87,0,0,1,97.73,48.87"/></g><path class="cls-2" d="M70.08,61.74H56.29V57.39l-4,5.26-4,5.25,4,5.25,4,5.25v-3l7.35-.28c6.49-.39,8-3.08,8-3.08L79,58.49c-2.69,3.75-8.9,3.25-8.9,3.25Z"/><path class="cls-2" d="M73.86,42.23,62.1,49.06,68,59.25c6,.56,7.84-1.29,7.84-1.29,4.8-2.71,2.13-8.74,2.13-8.74Z"/><path class="cls-2" d="M26.92,70.73c-1.81-4.24,1.85-9.3,1.85-9.3l7.14-11.79,3.71,2.25-2.43-6.11-2.44-6.12-6.54.67L21.66,41l2.57,1.56L20.66,49c-3,5.75-1.54,8.47-1.54,8.47Z"/><path class="cls-2" d="M29,68.64C28.8,74.16,35.34,75,35.34,75l8.11.14.25-13.6-11.77-.26c-3.58,4.84-3,7.37-3,7.37Z"/><path class="cls-2" d="M58.34,40.86l6.51,1,2.73-6,2.74-6-2.64,1.43L63.94,25c-3.43-5.52-6.53-5.61-6.53-5.61l-15.4,0c4.58.58,7.09,6.29,7.09,6.29l6.55,12.13-3.81,2.06Z"/><path class="cls-2" d="M47.64,28c-2.35-5.53-4.86-6.28-4.86-6.28C38.11,18.77,34.09,24,34.09,24l-4.22,6.92L41.47,38Z"/></g></g></svg>