<svg xmlns="http://www.w3.org/2000/svg" viewBox="0 0 97.73 97.74"><defs><style>.cls-1{fill:#f4cbdc;}</style></defs><title>snacks</title><g id="Layer_2" data-name="Layer 2"><g id="Layer_1-2" data-name="Layer 1"><g id="_Group_" data-name="&lt;Group&gt;"><path id="_Path_" data-name="&lt;Path&gt;" class="cls-1" d="M97.73,48.87A48.87,48.87,0,1,1,48.87,0,48.87,48.87,0,0,1,97.73,48.87"/></g><path d="M85.86,43.1a10.2,10.2,0,0,0-7.26-9.32h0a11.17,11.17,0,0,0-3.82-.42,10.41,10.41,0,0,0-8.41-6.18,10.85,10.85,0,0,0-2-.11,10.37,10.37,0,0,0-6.07-6.35,10.19,10.19,0,0,0-9.18.78,10.14,10.14,0,0,0-6.47-1.41,10,10,0,0,0-9,6.88,10.34,10.34,0,0,0-3.14.23A10,10,0,0,0,22.94,34a10.35,10.35,0,0,0-5.42,1.18,10,10,0,0,0-5.65,9.28,8.92,8.92,0,0,0,5.44,8L21,89A48.71,48.71,0,0,0,42.39,97.3L39.9,53.12H57.84L55.35,97.3a48.75,48.75,0,0,0,21.52-8.39l3.84-36.42A10.16,10.16,0,0,0,85.86,43.1Zm-6.69,6.61H18.85A5.73,5.73,0,0,1,15,44.47,6.74,6.74,0,0,1,18.91,38l0,0a7.06,7.06,0,0,1,7.41.44,1.57,1.57,0,1,0,1.79-2.59A10.08,10.08,0,0,0,26,34.73a6.85,6.85,0,0,1,5.06-4.41,7.88,7.88,0,0,1,7.74,2.6,1.59,1.59,0,1,0,2.47-2,10.75,10.75,0,0,0-4.64-3.25,6.78,6.78,0,0,1,6.18-4.38h.11a6.9,6.9,0,0,1,7.36,4.47,1.58,1.58,0,1,0,3-1.08,10.22,10.22,0,0,0-1.67-2.91,7.19,7.19,0,0,1,5.47-.06,7.34,7.34,0,0,1,4.11,4.05A10.38,10.38,0,0,0,56,31.84,1.59,1.59,0,0,0,56.5,34a1.56,1.56,0,0,0,2.19-.46,7.36,7.36,0,0,1,7.24-3.23.25.25,0,0,1,.12,0A7.25,7.25,0,0,1,71.56,34a10.69,10.69,0,0,0-4.47,3.17,1.58,1.58,0,1,0,2.44,2,7.69,7.69,0,0,1,8.21-2.38,7,7,0,0,1,1.43,12.87Z"/><path d="M41.08,39.05a7.54,7.54,0,0,0-7.49-1,6.52,6.52,0,0,0-3.9,6.18,1.58,1.58,0,0,0,3.16,0,3.38,3.38,0,0,1,2-3.27,4.4,4.4,0,0,1,4.25.55,1.59,1.59,0,0,0,2-2.45Z"/><path d="M57.26,36.92A1.61,1.61,0,0,0,55,36.71a4.32,4.32,0,0,1-4.15.59,4,4,0,0,1-2-3.56,1.58,1.58,0,1,0-3.16,0,7.2,7.2,0,0,0,3.73,6.35.65.65,0,0,0,.17.08,7.5,7.5,0,0,0,2.87.57,7.38,7.38,0,0,0,4.62-1.58A1.61,1.61,0,0,0,57.26,36.92Z"/><path d="M65.12,39.22a1.6,1.6,0,0,0-1.58,1.58,3.63,3.63,0,0,1-2.23,3.27,4.38,4.38,0,0,1-4.24-.55A1.59,1.59,0,0,0,55,46a7.37,7.37,0,0,0,4.62,1.58A7.75,7.75,0,0,0,62.55,47a6.73,6.73,0,0,0,4.16-6.18A1.6,1.6,0,0,0,65.12,39.22Z"/></g></g></svg>