<svg xmlns="http://www.w3.org/2000/svg" viewBox="0 0 97.73 97.74"><defs><style>.cls-1{fill:#231f20;}.cls-2{fill:#fff;}</style></defs><title>stage</title><g id="Layer_2" data-name="Layer 2"><g id="Layer_1-2" data-name="Layer 1"><g id="_Group_" data-name="&lt;Group&gt;"><path id="_Path_" data-name="&lt;Path&gt;" class="cls-1" d="M97.73,48.87A48.87,48.87,0,1,1,48.87,0,48.87,48.87,0,0,1,97.73,48.87"/></g><path class="cls-2" d="M67.57,20.86l-29,5.75a1.5,1.5,0,0,0-1.21,1.5V38.36h0V64a10.25,10.25,0,0,0-7.92-.71,10.82,10.82,0,0,0-5.61,3.64,6.13,6.13,0,0,0-1.28,5.46c.8,2.81,3.85,4.54,7.42,4.54a11.8,11.8,0,0,0,3.24-.46c3.65-1,6.46-3.71,7-6.64a8,8,0,0,0,.15-1.69V39.58l26-5.38V58a10.25,10.25,0,0,0-7.92-.71c-4.84,1.38-7.92,5.47-6.88,9.1.8,2.81,3.85,4.54,7.42,4.54a11.8,11.8,0,0,0,3.24-.46c3.65-1,6.46-3.71,7-6.64a7.28,7.28,0,0,0,.14-1.39V32.36h0v-10a1.5,1.5,0,0,0-1.47-1.53Z"/></g></g></svg>