<svg xmlns="http://www.w3.org/2000/svg" viewBox="0 0 97.73 97.73"><defs><style>.cls-1{fill:#147bc1;}.cls-2{fill:#fff;}</style></defs><title>water</title><g id="Layer_2" data-name="Layer 2"><g id="Layer_1-2" data-name="Layer 1"><path id="_Path_" data-name=" Path " class="cls-1" d="M97.73,48.87A48.87,48.87,0,1,1,48.87,0h0A48.87,48.87,0,0,1,97.73,48.87"/><g id="B9e2T0.tif"><g id="_Group_" data-name=" Group "><path id="_Path_2" data-name=" Path 2" class="cls-2" d="M25.93,50.91V38.46h8.73c.59,0,.92-.19,1-.76v-.09c.35-1,.44-2.25,1.12-2.77s1.9-.14,2.91-.14h9.95c.32,1,.69,1.89.93,2.85s.55.92,1.27.91a22.14,22.14,0,0,1,8.09.89A16.51,16.51,0,0,1,71,55.08v2.39H58.51V55.25A3.93,3.93,0,0,0,55,51l-.39,0A35.23,35.23,0,0,0,51,51a1.62,1.62,0,0,0-.88.47,9.19,9.19,0,0,1-13,1,9.07,9.07,0,0,1-1-1A1.85,1.85,0,0,0,35,50.91h-9Z"/><path id="_Compound_Path_" data-name=" Compound Path " class="cls-2" d="M65.25,80.86a7.6,7.6,0,0,1-7.5-4.72A6.84,6.84,0,0,1,58.44,70c.79-1.29,1.76-2.44,2.61-3.7,1.07-1.57,2.13-3.24,3.15-4.87.52-.83,1-.87,1.57,0A73.17,73.17,0,0,0,71,69a7.73,7.73,0,0,1,1.59,4.53,6.72,6.72,0,0,1-4,6.48A7.22,7.22,0,0,1,65.25,80.86Z"/><path id="_Path_3" data-name=" Path 3" class="cls-2" d="M29.57,20.87a15.24,15.24,0,0,1,2.7.89,7.18,7.18,0,0,0,6.92.25,8.69,8.69,0,0,1,8,.12,6.38,6.38,0,0,0,5.74,0,13.33,13.33,0,0,1,3.66-1,3.82,3.82,0,0,1,4,2.25,4,4,0,0,1-.41,4.52,4.19,4.19,0,0,1-4.38,1.57,14.15,14.15,0,0,1-2-.68c-.76-.26-1.5-.59-2.27-.8-2.28-.61-3.6.19-3.8,2.55-.1,1.23-.59,1.34-1.58,1.31H39.57c-.64,0-1-.11-1-.89a3.61,3.61,0,0,0-.24-1,2.6,2.6,0,0,0-3-2.19,2.45,2.45,0,0,0-.74.23c-1.05.31-2.08.83-3.15,1.22a4.71,4.71,0,0,1-4.26-.2A4.27,4.27,0,0,1,25.32,24,4.56,4.56,0,0,1,29.57,20.87Z"/></g></g></g></g></svg>