<svg xmlns="http://www.w3.org/2000/svg" viewBox="0 0 222.53 86.42"><defs><style>.cls-1{fill:#e6575a;}.cls-2{fill:#13110c;}.cls-3{fill:#fff;}</style></defs><title>biblioteket</title><g id="Layer_2" data-name="Layer 2"><g id="Installasjoner_2017" data-name="Installasjoner 2017"><polygon class="cls-1" points="220.08 4.88 219.6 83.96 2.45 81.55 2.93 2.46 220.08 4.88"/><path class="cls-2" d="M0,84,.51,0l222,2.48L222,86.42Zm5.34-79L4.89,79.14,217.18,81.5l.46-74.21Z"/><path class="cls-3" d="M17.16,35.33h11q5.72,0,5.72,4.22a4,4,0,0,1-2.3,3.72,4,4,0,0,1,3,4.17c0,2.94-2,4.84-5.52,4.85l-11.81,0Zm9.93,13.48c2,0,3-.22,3-1.77s-.94-1.95-3-1.94H21.43v3.71Zm-5.67-10v3.32h5c2,0,3-.31,3-1.74s-.94-1.6-3-1.6Z"/><path class="cls-3" d="M38,35.3h4.26l0,17H38Z"/><path class="cls-3" d="M46.81,35.29h11c3.81,0,5.71,1.4,5.72,4.22a4,4,0,0,1-2.3,3.71,4,4,0,0,1,3,4.18c0,2.94-2,4.85-5.52,4.85l-11.82,0Zm9.93,13.48c2,0,3-.22,3-1.77s-.94-2-3-2H51.08v3.72Zm-5.67-10v3.31h5c2,0,3-.31,3-1.74s-.94-1.6-3-1.6Z"/><path class="cls-3" d="M67.6,35.26h4.26l0,13.49h8.73v3.47l-13,0Z"/><path class="cls-3" d="M83.92,35.24h4.25l0,17H83.94Z"/><path class="cls-3" d="M102,34.77c6.25,0,10.15,3.53,10.16,8.92s-3.89,8.93-10.14,8.94-10.18-3.54-10.18-8.92S95.73,34.78,102,34.77Zm5.49,8.92c0-3.4-2.1-5.45-5.49-5.44s-5.49,2.07-5.49,5.46,2.12,5.45,5.5,5.44S107.47,47.07,107.47,43.69Z"/><path class="cls-3" d="M123.76,52.15h-4.23l0-13.49h-5.8V35.2l15.84,0v3.48h-5.81Z"/><path class="cls-3" d="M132,35.18l15.06,0v3.48l-10.81,0v2.82l9.63,0v3.48l-9.63,0v3.71l10.8,0v3.48l-15.06,0Z"/><path class="cls-3" d="M150.53,35.15h4.25v6.5l7.13-6.51h5.48l-7.46,6.59,8.4,10.37h-5.22L157,44.33l-2.15,1.91v5.87h-4.26Z"/><path class="cls-3" d="M170.15,35.12l15.06,0v3.48l-10.81,0v2.82l9.63,0v3.48l-9.63,0v3.71l10.8,0v3.48l-15.06,0Z"/><path class="cls-3" d="M196.71,52.05h-4.23l0-13.49h-5.81V35.1l15.83,0v3.48h-5.8Z"/></g></g></svg>