<svg xmlns="http://www.w3.org/2000/svg" viewBox="0 0 157.86 264.46"><defs><style>.cls-1{fill:#e6575a;}.cls-2{fill:#1d1d1b;}.cls-3{fill:#fff;}</style></defs><title>hagen</title><g id="Layer_2" data-name="Layer 2"><g id="Installasjoner_2017" data-name="Installasjoner 2017"><rect id="_Rectangle_" data-name="&lt;Rectangle&gt;" class="cls-1" x="-50.87" y="55.73" width="259.59" height="153" transform="translate(211.16 53.3) rotate(90)"/><path class="cls-2" d="M0,264.46V0H157.86V264.46ZM4.86,4.86V259.59H153V4.86Z"/><path class="cls-3" d="M94.51,42.76V50h-11V64h11v7.24h-29V64H77.58V50H65.47V42.76Z"/><path class="cls-3" d="M94.51,89.66v7l-29,13.23V101.8l6.16-2.65V86.36l-6.16-2.61V75.91Zm-17,6.88,9-3.9-9-3.78Z"/><path class="cls-3" d="M64.71,129.26a18.89,18.89,0,0,1,3.62-11.59C71.22,114,75,112.25,80,112.25c9.21,0,15.28,6.71,15.28,17.41,0,9.21-4.54,15.48-10.82,16.33v-7.93c3.26-1.33,4.87-4.1,4.87-8.4,0-5.79-3.54-9.41-9.33-9.41s-9.29,3.62-9.29,9.41c0,4.06,1.85,7.2,4.71,8.52v-6.59h6V145.9H65.47v-5.51l3.26-.4A14.62,14.62,0,0,1,64.71,129.26Z"/><path class="cls-3" d="M94.51,155.08v25.78h-6v-18.5H83.73v16.49h-6V162.36H71.42v18.5h-6V155.08Z"/><path class="cls-3" d="M94.51,188.43v8.93L74,211.88H94.51v7h-29V210l20.67-14.64H65.47v-7Z"/></g></g></svg>