<svg xmlns="http://www.w3.org/2000/svg" viewBox="0 0 179.66 244.4"><defs><style>.cls-1{fill:#e6575a;}.cls-2{fill:#13110c;}.cls-3{fill:#fff;}</style></defs><title>hifiklubben</title><g id="Layer_2" data-name="Layer 2"><g id="Installasjoner_2017" data-name="Installasjoner 2017"><polygon id="_Path_" data-name="&lt;Path&gt;" class="cls-1" points="65.22 3.05 176.63 37.95 114.45 241.34 3.03 206.44 65.22 3.05"/><path class="cls-2" d="M0,208,63.61,0,179.66,36.35,116.06,244.4ZM66.83,6.1,6.06,204.85l106.78,33.44L173.6,39.55Z"/><path class="cls-3" d="M126.14,87.12l-1.52,5-7.51-2.31-2.93,9.54,7.51,2.3-1.52,4.95-19.84-6.09,1.52-5,8.27,2.54,2.93-9.53L104.78,86l1.52-5Z"/><path class="cls-3" d="M118.36,112.44l-1.52,5L97,111.33l1.53-5Z"/><path class="cls-3" d="M104.86,119.8l-2.94,9.57-4.31-1.32,2.93-9.57Z"/><path class="cls-3" d="M110.51,138l-5.19,16.92-4.07-1.25,3.67-12-3.77-1.16L97.8,151.51l-4.07-1.24,3.36-10.94-7.94-2.44,1.53-5Z"/><path class="cls-3" d="M104,159.27l-1.52,5-19.84-6.09,1.53-5Z"/><path class="cls-3" d="M111.7,36.26l-1.53,5-7.6-2.34,5,10.69-2,6.4-5-11.1L85.48,51l1.87-6.1,11.31-4.41-1.45-3.21-6.87-2.11,1.53-5Z"/><path class="cls-3" d="M104.48,59.77l-1.52,5L87.18,59.9,84.05,70.13,80,68.88l4.67-15.2Z"/><path class="cls-3" d="M86.29,81c-3.84-1.19-6.1-.22-7.23,3.46a5.47,5.47,0,0,0,.37,4.77c.82,1.25,2,1.68,3.66,2.18l10.66,3.27-1.52,5L81.05,96.22c-6-1.84-8.1-6.3-6-13s6.3-9.16,12.29-7.32l11.18,3.44L97,84.3Z"/><path class="cls-3" d="M90.44,105.5,86.5,118.33q-2.06,6.67-7,5.16a4.87,4.87,0,0,1-3.51-4,4.92,4.92,0,0,1-5.95,2c-3.44-1-5-4.07-3.68-8.19L70.6,99.41Zm-19.33,6.75c-.72,2.34-.82,3.54,1,4.1s2.61-.4,3.34-2.77l2-6.62-4.34-1.33Zm13.74-3L81,108l-1.8,5.88c-.72,2.34-.71,3.58,1,4.09s2.21-.52,2.94-2.89Z"/><path class="cls-3" d="M82.8,130.39l-3.94,12.83q-2.06,6.67-7,5.16a4.88,4.88,0,0,1-3.51-4,5,5,0,0,1-6,2c-3.43-1.06-4.94-4.08-3.67-8.19L63,124.29Zm-19.33,6.75c-.72,2.33-.82,3.54,1,4.09s2.62-.4,3.35-2.76l2-6.62-4.34-1.33Zm13.73-3-3.87-1.19-1.81,5.88c-.71,2.34-.7,3.57,1,4.09s2.21-.53,2.94-2.89Z"/><path class="cls-3" d="M75.15,155.27l-5.4,17.61-4.07-1.25L69.56,159l-3.29-1-3.46,11.27L58.74,168l3.46-11.27-4.34-1.33L54,168l-4.07-1.25,5.41-17.61Z"/><path class="cls-3" d="M68.33,177.49l-1.87,6.1-17,5.63,14,4.29-1.47,4.78-19.83-6.1,1.85-6,17.2-5.66L47,176.15l1.46-4.75Z"/></g></g></svg>