<svg xmlns="http://www.w3.org/2000/svg" viewBox="0 0 578.21 359.71"><defs><style>.cls-1{fill:#fff;}.cls-2{fill:#13110c;}.cls-3{fill:#e6575a;}.cls-4{fill:#1d1d1b;}</style></defs><title>sirkus</title><g id="Layer_2" data-name="Layer 2"><g id="Installasjoner_2017" data-name="Installasjoner 2017"><rect id="_Path_" data-name="&lt;Path&gt;" class="cls-1" x="16.93" y="2.43" width="558.84" height="354.84"/><path class="cls-2" d="M14.5,359.71V0H578.21V359.71ZM19.36,4.86v350h554V4.86Z"/><rect class="cls-2" x="16.94" y="179.04" width="558.84" height="1.62"/><rect class="cls-2" x="517.02" y="2.43" width="1.62" height="354.85"/><rect class="cls-2" x="455.72" y="2.43" width="1.62" height="354.85"/><rect class="cls-2" x="394.43" y="2.43" width="1.62" height="354.85"/><rect class="cls-2" x="333.13" y="2.43" width="1.62" height="354.85"/><rect class="cls-2" x="271.83" y="2.43" width="1.62" height="354.85"/><rect class="cls-2" x="210.53" y="2.43" width="1.62" height="354.85"/><rect class="cls-2" x="149.24" y="2.43" width="1.62" height="354.85"/><rect class="cls-2" x="76.46" y="2.43" width="1.62" height="354.85"/><rect class="cls-3" x="-71.82" y="76.72" width="354.78" height="206.27" transform="translate(285.42 74.29) rotate(90)"/><path class="cls-4" d="M0,359.71V0H211.13V359.71ZM4.86,4.93V354.78H206.27V4.93Z"/><path class="cls-1" d="M102.91,90.59h-.28c-3.21,0-5,2.85-5,8.44,0,4.31,1.33,6.64,3.59,6.64s2.73-1.81,3.13-5.71l.52-5.15c.77-7.4,3.26-11,8.17-11,5.47,0,9.65,5.23,9.65,14,0,9.29-3.74,14.47-9.45,14.47H113v-7.24q4.34-.48,4.34-7.11c0-4.19-1.29-6.44-3.34-6.44s-2.45,1.85-2.89,5.87l-.57,5.39c-.8,7.32-3.41,10.82-8.52,10.82-6.4,0-9.89-5.23-9.89-15.44,0-9.81,3.78-15,10.21-15h.6Z"/><path class="cls-1" d="M121.9,121.4v7.28h-29V121.4Z"/><path class="cls-1" d="M121.9,137.69v17.86c0,7.56-2.34,11.3-7.81,11.3a7.57,7.57,0,0,1-7.36-4.83c-1.28,3.1-2.89,3.46-6.19,3.62-3.5.16-6.07.16-7.68,1.57v-8.16a4.21,4.21,0,0,1,2.25-.61h2c5,0,6.48-.76,6.48-5.06V145H92.86v-7.28Zm-12.39,15.53c0,3.9.72,5.91,3.42,5.91s3-2,3-6.24V145h-6.43Z"/><path class="cls-1" d="M121.9,174.54v7.28H110.76L121.9,194v9.37l-11.27-12.79L92.86,205v-8.93l13.31-10.53-3.26-3.7h-10v-7.28Z"/><path class="cls-1" d="M106.29,215.86c-5.63,0-8.24,2.22-8.24,7.61,0,2.85.88,4.94,2.45,6.23s3.42,1.41,5.79,1.41H121.9v7.23H105.53c-8.81,0-13.43-5.1-13.43-14.87s4.66-14.84,13.43-14.84H121.9v7.23Z"/><path class="cls-1" d="M102.91,253.56h-.28c-3.21,0-5,2.85-5,8.44,0,4.31,1.33,6.64,3.59,6.64s2.73-1.81,3.13-5.71l.52-5.15c.77-7.4,3.26-11,8.17-11,5.47,0,9.65,5.23,9.65,14,0,9.28-3.74,14.47-9.45,14.47H113V268q4.34-.48,4.34-7.11c0-4.19-1.29-6.44-3.34-6.44s-2.45,1.85-2.89,5.87l-.57,5.39c-.8,7.32-3.41,10.82-8.52,10.82-6.4,0-9.89-5.23-9.89-15.44,0-9.82,3.78-15,10.21-15h.6Z"/></g></g></svg>