<svg xmlns="http://www.w3.org/2000/svg" viewBox="0 0 404.45 315.8"><defs><style>.cls-1{fill:#e25054;}.cls-2{fill:#1d1d1b;}.cls-3{fill:#fff;}</style></defs><title>vindfruen</title><g id="Layer_2" data-name="Layer 2"><g id="Installasjoner_2017" data-name="Installasjoner 2017"><rect class="cls-1" x="27.23" y="54.77" width="349.98" height="206.27" transform="translate(62.96 -57.58) rotate(19.14)"/><path class="cls-2" d="M0,199.46l.79-2.3L69.23,0l2.29.79L404.45,116.35,335.22,315.8l-2.29-.79ZM72.22,6.19l-66,190.27,326,113.16,66-190.27Z"/><path class="cls-3" d="M66.05,95.4,73.61,98l1.07,22.42,14.85-16.9,7.53,2.61L75.45,129.4l-7-2.43Z"/><path class="cls-3" d="M100.22,107.26l6.87,2.39-9.52,27.43-6.87-2.39Z"/><path class="cls-3" d="M114.85,112.34l8.43,2.92,7,24.1L137,120l6.61,2.3-9.51,27.43-8.36-2.9-7.06-24.33-6.77,19.53-6.57-2.28Z"/><path class="cls-3" d="M173.69,134.76c3.26,3.6,4.11,8.66,2.21,14.13s-5.69,8.92-10.49,9.73c-3.62.62-7-.44-11.25-1.91l-12.39-4.3L151.29,125l12.38,4.3C167.89,130.75,171.23,132,173.69,134.76ZM150.94,149.3l5.32,1.85c6.34,2.2,10.63.41,12.46-4.88s-.5-9.11-6.84-11.31l-5.32-1.85Z"/><path class="cls-3" d="M186.82,137.32l23.4,8.12-1.95,5.62-16.53-5.73-1.8,5.2,15.12,5.25-1.95,5.62L188,156.16l-3.81,11-6.88-2.38Z"/><path class="cls-3" d="M215.78,147.37l16.87,5.85c7.14,2.48,9.91,5.91,8.11,11.08a7.58,7.58,0,0,1-7,5.37c2.51,2.23,2.32,3.87,1.39,7-1,3.36-1.84,5.79-1,7.78l-7.71-2.68a4.17,4.17,0,0,1,.17-2.33l.65-1.86c1.62-4.67,1.4-6.36-2.67-7.77l-.15-.06-7.79-2.7-3.5,10.11-6.88-2.39Zm10.6,16.79c3.69,1.27,5.82,1.25,6.71-1.29s-1-3.53-4.9-4.9l-7.49-2.6-2.11,6.08Z"/><path class="cls-3" d="M251.55,176.3c-1.85,5.32-.62,8.51,4.48,10.28,2.69.93,5,.79,6.69-.28s2.45-2.76,3.23-5l5.11-14.73,6.84,2.37-5.37,15.46c-2.88,8.32-9.22,11-18.46,7.81s-12.48-9.27-9.61-17.55l5.37-15.46,6.83,2.37Z"/><path class="cls-3" d="M285.63,171.61,310,180.06l-2,5.62-17.47-6.06L289,184.18l15.57,5.41-2,5.62L287,189.8l-2.09,6,17.48,6.07-2,5.62L276.1,199Z"/><path class="cls-3" d="M316,182.15l8.44,2.92,7,24.1,6.72-19.33,6.61,2.29-9.53,27.43-8.35-2.9-7.06-24.33L313,211.86l-6.57-2.28Z"/></g></g></svg>