<svg xmlns="http://www.w3.org/2000/svg" viewBox="0 0 500 500">
  <title>apple</title>
  <g>
    <path d="M338.92,252.68c0-.27-.05-.55-.06-.81l0-.91c0-.47,0-.93-.07-1.41a6.73,6.73,0,0,0-.28-1.12,6.18,6.18,0,0,1-.25-1.05,7.87,7.87,0,0,1,0-1v-.08a6.86,6.86,0,0,0-.05-1.18c-.06-.41-.15-.82-.26-1.29-.06-.29-.13-.58-.18-.86s-.16-.82-.26-1.23l-.22-1a7,7,0,0,0-.3-1l-.06-.17a8,8,0,0,1-.33-1l0-.18c-.17-.65-.33-1.3-.52-2-.14-.48-.3-.94-.47-1.39l-.1-.3-.14-.39a8.91,8.91,0,0,1-.26-1.11l0-.13a6,6,0,0,0-.25-.95l-.22-.58c-.19-.5-.38-1-.59-1.47a5.94,5.94,0,0,0-.61-1.05,8.64,8.64,0,0,1-.51-.83,7.6,7.6,0,0,0-.55-.93l-.18-.27a8.79,8.79,0,0,1-.47-.75,6.38,6.38,0,0,1-.42-1,4.08,4.08,0,0,0-.44-1l-.41-.69c-.25-.41-.5-.81-.74-1.14s-.36-.59-.54-.91a11,11,0,0,0-.66-1l-.51-.71c-.26-.37-.51-.74-.84-1.13a4.19,4.19,0,0,0-.82-.68,4.45,4.45,0,0,1-.88-.75,3.71,3.71,0,0,1-.58-.91,3.57,3.57,0,0,0-.61-1,8.77,8.77,0,0,0-.84-.75l-.09-.08c-.27-.22-.54-.43-.79-.66h0a2.68,2.68,0,0,0-.88-.5l-.1,0a4,4,0,0,1-1-.5,10.08,10.08,0,0,1-.73-.7,2,2,0,0,0-1.6-.61,2,2,0,0,0-1.48.85,1.78,1.78,0,0,1-.48.5,3.69,3.69,0,0,1-.84.31l-.43.12a2.85,2.85,0,0,1-.85.09,3,3,0,0,0-.45,0l-.4.08a4.06,4.06,0,0,1-.87.11,3.39,3.39,0,0,1-.68-.08l-.5-.08a2.3,2.3,0,0,0-.57,0,2.53,2.53,0,0,1-.73,0,3.55,3.55,0,0,1-.7-.23l-.33-.14a2.58,2.58,0,0,0-.6-.13h-.16a2.76,2.76,0,0,1-.66-.13,2.36,2.36,0,0,1-.67-.41l-.07-.06a2.24,2.24,0,0,0-.77-.35l-.13,0a1.93,1.93,0,0,1-.68-.21,4.47,4.47,0,0,1-.64-.51,2.88,2.88,0,0,0-.36-.33,3.42,3.42,0,0,1-.52-.62,3.44,3.44,0,0,0-.3-.4l-.2-.23-.07-.07a3.67,3.67,0,0,1-.5-.62,1.92,1.92,0,0,0-.13-.17l-.08-.11a.71.71,0,0,0-.1-.14,3.51,3.51,0,0,1-.42-.69l-.11-.23a5.58,5.58,0,0,1-.38-.92s0-.12,0-.13-.06-.19-.1-.28-.09-.28-.13-.45a2,2,0,0,0-1.94-1.5,2.75,2.75,0,0,0-.43,0,4.86,4.86,0,0,1-1,.06c-.31,0-.62,0-1-.08l-1.28-.09-1.08-.07a8,8,0,0,0-1-.08H293a4.8,4.8,0,0,0-1.14.28,4.88,4.88,0,0,1-1,.25,10.46,10.46,0,0,0-1.41.25l-.84.17a6.28,6.28,0,0,1-1.16,0,6.91,6.91,0,0,0-.92,0l-.22,0-.4.09c-.65.15-1.24.29-1.78.46a5,5,0,0,0-1.12.5,6,6,0,0,1-.95.44A5.32,5.32,0,0,1,281,207a4.08,4.08,0,0,0-1.14.29,8.6,8.6,0,0,0-1.16.69l-.77.5c-.23.13-.48.24-.72.35l-.19.09a5.74,5.74,0,0,0-1.2.63l-.2.18a4.09,4.09,0,0,0-.52.69,4.4,4.4,0,0,1-.7.85,8.71,8.71,0,0,1-.79.6,6.1,6.1,0,0,0-1,.78c-.47.53-.87,1-1.21,1.48a9.76,9.76,0,0,0-2.07-.27l-.08-.13a2,2,0,0,0-2.14-.59,3.07,3.07,0,0,0-.37.15,3,3,0,0,0-.36.13,2.92,2.92,0,0,0-.37.24,1.64,1.64,0,0,0-.3.29,2.18,2.18,0,0,1-.6.54,2.8,2.8,0,0,1-.78.2l-.18,0-.17,0a2.19,2.19,0,0,0-.6.23c-.08.05-.16.09-.24.15l0,0a3.24,3.24,0,0,1-.7.34c-.19.06-.38.12-.52.18a6.21,6.21,0,0,1-.81.24,2.76,2.76,0,0,1-.86,0l-.13,0a1.82,1.82,0,0,0-.57,0,12.06,12.06,0,0,1-2.71,0l-.36,0a9.54,9.54,0,0,1-1-.07,13.23,13.23,0,0,1-1.29-.37,2.55,2.55,0,0,1-.85-.47,2.32,2.32,0,0,0-.42-.25l-.12-.06-.41-.17a8.67,8.67,0,0,1-.79-.36l-.32-.17a5.73,5.73,0,0,1-1-.59,5.06,5.06,0,0,0-.5-.29,4,4,0,0,1-.72-.51c-.17-.16-.33-.33-.48-.5l-.12-.13a3.89,3.89,0,0,0-.36-.41l-.43-.44c-.21-.21-.4-.42-.58-.61s-.4-.44-.59-.62l-.41-.41a2.85,2.85,0,0,1-.38-.55l-.13-.22a2,2,0,0,0-.4-.48c-.27-.23-.6-.48-.91-.7l-.1-.08a8.36,8.36,0,0,0-1.14-.66,2,2,0,0,0-.47-.16l-.24,0h-.09a4.08,4.08,0,0,1-.59-.11,10,10,0,0,0-1.28-.29,3.32,3.32,0,0,1-.54-.17l-.05,0a2.06,2.06,0,0,0-.76-.21l-.52-.06c-.41,0-.86,0-1.19-.05a4.1,4.1,0,0,0-1,0,2.84,2.84,0,0,0-.39.11,2.69,2.69,0,0,1-.67.15,4.18,4.18,0,0,0-.51.06l-.19,0-.62.07a4.42,4.42,0,0,1-.78,0,3,3,0,0,0-.59,0l-1.17.06h-.15l-.15,0a4.2,4.2,0,0,0-.47.08l-.15,0-.2,0a1.58,1.58,0,0,0-.31.09,2.52,2.52,0,0,0-.4.19c-.28.15-.54.28-.78.38l-.67.25a10.22,10.22,0,0,0-1,.37c-.51.23-1,.47-1.58.73l-.59.28c-.32.14-.66.3-1.05.51a8.77,8.77,0,0,0-.79.51,6.66,6.66,0,0,1-.65.43,8.08,8.08,0,0,1-.8.42,4.85,4.85,0,0,0-.75.41c-.48.32-1,.66-1.43,1-.28.21-.56.44-.83.67l-.55.47-.33.26-.32.25a7,7,0,0,0-.69.58,7.53,7.53,0,0,0-.56.57l-.21.22c-.15.17-.29.32-.48.51s-.27.26-.41.39l-.14.13a6.89,6.89,0,0,0-.67.65,4.13,4.13,0,0,0-.52.69l-.06.09c-.13.19-.27.39-.46.62s-.23.33-.34.5l-.11.16-.07.11c-.12.2-.25.41-.35.55a7.3,7.3,0,0,1-.56.63,4.82,4.82,0,0,0-.53.59,1.3,1.3,0,0,0-.1.15c-.05.09-.22.44-.31.67a5.34,5.34,0,0,1-.35.77,5.68,5.68,0,0,1-.41.59,5.35,5.35,0,0,0-.51.75c-.12.21-.25.42-.39.65l-.06.09c-.14.23-.28.46-.4.7l0,.09a4.77,4.77,0,0,0-.21.66l0,.12a6.09,6.09,0,0,1-.26.75c-.09.2-.19.39-.32.64l0,.1c-.12.24-.24.49-.32.7l-.3.66c-.13.29-.26.58-.38.91a5.83,5.83,0,0,0-.21.82c-.06.26-.12.51-.2.75a7.45,7.45,0,0,1-.3.76l-.05.12a5.32,5.32,0,0,0-.26.72c-.05.19-.11.38-.18.58s-.2.65-.28,1a4.66,4.66,0,0,0-.11.81,5.56,5.56,0,0,1-.09.82,5.32,5.32,0,0,1-.25.79,6.42,6.42,0,0,0-.25.82l-.09.51c-.08.37-.14.72-.2,1.09a.8.8,0,0,0,0,.15,2,2,0,0,0,.32,1.81,1,1,0,0,1,.13.21,3.21,3.21,0,0,1,.15.49l0,.12a2.58,2.58,0,0,0,.08.26l.13.35.11.33a2.71,2.71,0,0,1,.11.51,1.74,1.74,0,0,0,0,.22,2.07,2.07,0,0,0,.18.47,1.62,1.62,0,0,1,.19.45,1.25,1.25,0,0,1,0,.47,2.09,2.09,0,0,0,0,.61,4.37,4.37,0,0,1,.08.7,1.74,1.74,0,0,0,0,.51l.12.75a.77.77,0,0,0,0,.15v.63c0,.15,0,.31,0,.53v.59a.88.88,0,0,0,0,.16,2.64,2.64,0,0,1,0,.28l-.07.56s0,.13,0,.16a1.85,1.85,0,0,0,0,.47c0,.18,0,.37,0,.51l0,.93s0,.07,0,.08l-.06.56c0,.24,0,.49-.07.74v.05l-.34,1.62c-.06.26-.13.51-.21.78l0,.14a4.87,4.87,0,0,0-.21.8l-.09.5-.16.83a1.11,1.11,0,0,0,0,.17l0,.23a1.87,1.87,0,0,0,0,.58v.21l-.06.21-.12.48a2,2,0,0,0,0,1,2.61,2.61,0,0,0,.39,1.57,2.1,2.1,0,0,0,1.82,1,2.39,2.39,0,0,0,.86-.16l.52-.19A1.92,1.92,0,0,0,209,263a1.63,1.63,0,0,0,.49-.33l.35-.29.58-.32.49-.2a3.89,3.89,0,0,0,1.11-.54,4.55,4.55,0,0,0,.71,0,2,2,0,0,0,1.67-1.82,3.87,3.87,0,0,0,0-.48c0-.09,0-.18,0-.32l.11-.88c0-.22.06-.44.08-.62l.1-.49c0-.12.05-.24.08-.36l.1-.39c.08-.34.16-.69.25-1.06l.25-1,0-.11,0-.07.42-1.06.12-.29.07-.18.41-.77.08-.1.17-.24.19-.25a.18.18,0,0,1,.05-.07l.12-.14.14-.15.32-.26.1-.05.18-.08h.19l.1,0a.47.47,0,0,1,.17.06,1,1,0,0,1,.36.38l.06.1a2.37,2.37,0,0,0,.41.5l.25.36a2.54,2.54,0,0,1,.21.32l.18.3,0,.09.06.1,0,.06.06.13.08.16c.09.18.18.39.25.55l.25.59.06.29.19,1.18a.51.51,0,0,0,0,.09,2.05,2.05,0,0,0,.07.34v0l.09.34c0,.17.09.35.13.55l.12.58c0,.25.06.5.08.78l.06.75s0,.15,0,.18c0,.24.07.48.09.65s.06.51.1.77l.11,1.63a3,3,0,0,1,0,.42l0,.4c0,.26,0,.53-.07.86v.21c0,.1,0,.2,0,.3l.12,1.25-.06.9c0,.56-.06,1.12-.1,1.68l0,.68s0,.08,0,.11l0,.27-.14,1.08a2.34,2.34,0,0,0,0,.38v.22l0,1.19h0v0L221,273.4c0,.2-.08.4-.12.59-.09.44-.18.87-.24,1.32,0,.25,0,.5-.09.76l0,.34v0l-.14.43c-.09.28-.16.48-.24.67l-.13.36h0a2.71,2.71,0,0,0-.13.63l0,.77s0,0,0,.06l-.05.21a.24.24,0,0,0,0,.08l0,0-.12.28-.08.12,0,0a1.94,1.94,0,0,0-.4.55l-.09.16-.06.1a.05.05,0,0,1,0,0l0,.06s0,.09,0,.13l-.14.29-.24.54-.23.5,0,0L218,283a1,1,0,0,0-.09.2l-.12.17-.36.51a2.74,2.74,0,0,1-.37.35l-.09.06-.35.15h-.11l-.12,0-.2,0a1,1,0,0,1-.3-.13l-.21-.18-.09-.08,0,0-.25-.35c-.12-.19-.22-.37-.32-.52l-.18-.31a1.81,1.81,0,0,0-.73-.77,2.69,2.69,0,0,0-.35-.21,3,3,0,0,0-1.29-.3l-.39,0a2.82,2.82,0,0,0-1.25.11,6.87,6.87,0,0,0-1.14.63,9.25,9.25,0,0,0-1.19,1l-.21.19a9.74,9.74,0,0,0-.92.9,3.92,3.92,0,0,0-.25.32l-.21.28a4.32,4.32,0,0,1-.49.61l-.44.44a9.43,9.43,0,0,1-.85.82l-.3.26-.17.15-.33.27a2,2,0,0,0-.68,1.61,4.87,4.87,0,0,0,.11.87c.07.3.15.6.24.91l0,.07c.05.23.12.46.17.62a3.67,3.67,0,0,0,.33.82,5.81,5.81,0,0,1,.32.78,2.15,2.15,0,0,1,0,.87,2.62,2.62,0,0,0,0,.28,2,2,0,0,0,.34,1.11l.05.08a1.43,1.43,0,0,0,.11.15,2.76,2.76,0,0,1,.46.74,5.33,5.33,0,0,1,.19.67l.07.29a5.8,5.8,0,0,0,.21.71l.43,1,.25.55a3.85,3.85,0,0,0,.42.75l.07.13a6,6,0,0,1,.35.62,3.19,3.19,0,0,1,.21.82l.41-.06.06.08-.45.1c0,.16.06.32.1.47a2,2,0,0,0,.44.78l.17.22a5.69,5.69,0,0,1,.48.7,5.53,5.53,0,0,1,.28.76,3.68,3.68,0,0,0,.25.72,1.09,1.09,0,0,1,.08.15c.16.25.33.51.47.7s.3.43.46.7l.48.72.07.1c.14.18.26.37.4.58a4.75,4.75,0,0,1,.37.75,1,1,0,0,0,.07.15,2.14,2.14,0,0,0,.17.37,1.9,1.9,0,0,0,.5.59,3.48,3.48,0,0,0,.3.22,2.34,2.34,0,0,1,.69.57q.21.29.39.57l.07.1.12.18c.13.18.26.37.38.52s.46.56.69.83l.38.43c.18.22.36.45.53.69l.07.1a4.49,4.49,0,0,0,.48.62,7,7,0,0,0,.74.67l.1.09c.12.11.26.23.41.38a3.05,3.05,0,0,1,.46.61,4,4,0,0,0,.24.38,2,2,0,0,0,1,.74l.14,0a2.9,2.9,0,0,1,.79.39,4.24,4.24,0,0,1,.62.57,2.91,2.91,0,0,0,.68.61c.23.15.48.29.72.42l.11.06.1.05a4.42,4.42,0,0,1,.55.3c.2.11.4.24.56.35a6.73,6.73,0,0,0,.86.53l.51.29.15.09a5.78,5.78,0,0,0,.9.5,2.53,2.53,0,0,0,.82.15,2.93,2.93,0,0,1,.82.14,6.62,6.62,0,0,0,.84.24l.11,0,.73.19a4,4,0,0,1,.76.36,4.31,4.31,0,0,0,.77.34,8.17,8.17,0,0,0,.86.17l.16,0,.7.11.23,0,.4.09,1.09.21c.25,0,.49,0,.74.05h.17l.75,0a3.76,3.76,0,0,1,.79.2,3.9,3.9,0,0,0,.69.19,2,2,0,0,0,.34,0,3.15,3.15,0,0,0,.79-.12,6.06,6.06,0,0,1,.77-.12,6.11,6.11,0,0,0,.86-.07l.11,0c.26,0,.51-.07.73-.08a5.65,5.65,0,0,0,1-.15l.19,0a5.83,5.83,0,0,1,.58-.08,2.18,2.18,0,0,1,.8.07l.36.07a2,2,0,0,0,1-.11l.43-.17a3.19,3.19,0,0,1,.75-.26l.67-.13h.1l.21,0c.24,0,.47-.09.74-.16l.65-.16a8.52,8.52,0,0,0,1-.23,1.39,1.39,0,0,0,.28-.12,2.83,2.83,0,0,0,.42-.26l.09-.06a3,3,0,0,1,1.53-.6c.25,0,.54-.11.66-.14a1.09,1.09,0,0,0,.23-.09c.36-.15.72-.33,1.07-.51L255,321c.44-.2.87-.42,1.3-.65s.78-.45,1.09-.65l.36-.21.08-.05.53-.38.21-.15c.19-.15.38-.3.61-.45a6,6,0,0,1,.65-.37l.1-.05.17-.09,0,0,.23-.07c.82,0,1.65,0,2.46.08h.3a2.05,2.05,0,0,0,.48.54,2.76,2.76,0,0,1,.25.21,2,2,0,0,0,1.29.58,1.5,1.5,0,0,1,.45.09,3.9,3.9,0,0,0,.5.19,4.41,4.41,0,0,1,.62.23.87.87,0,0,1,.3.25,2,2,0,0,0,1.39.75,1.21,1.21,0,0,1,.37.11c.15.08.31.16.47.26l.56.3a1.56,1.56,0,0,1,.47.4,2.15,2.15,0,0,0,.72.51l.15.06.13.05c.16.06.33.12.48.19l.45.24.32.18a2.14,2.14,0,0,0,.84.23,2.13,2.13,0,0,1,.61.14,2,2,0,0,1,.45.25l.19.14a2,2,0,0,0,.53.25l.33.08.16,0c.16,0,.31.07.46.12l.69.19.47.12a1.78,1.78,0,0,0,.56.06,4,4,0,0,1,.54.05l.33.08.75.17a5.75,5.75,0,0,0,.76.12l.48.07a2.32,2.32,0,0,1,.53.17l.09,0a3,3,0,0,0,.36.12l.18,0,.39.06.7.09a2.28,2.28,0,0,0,.62-.05,3.13,3.13,0,0,1,.5,0h.11a2.55,2.55,0,0,0,.55,0,3.63,3.63,0,0,1,.57,0h0a2.13,2.13,0,0,1,.66.16l.18.05a1.88,1.88,0,0,0,.53.07h1.05a4.56,4.56,0,0,1,.54,0,3,3,0,0,0,.56,0h.78a2.11,2.11,0,0,0,.95-.23,1.5,1.5,0,0,1,.58-.23,1.48,1.48,0,0,1,.6.07,2.09,2.09,0,0,0,1.26-.06l.26-.09a2,2,0,0,0,.72-.39,1.27,1.27,0,0,1,.56-.34,1.64,1.64,0,0,1,.4,0h.21a2,2,0,0,0,1.18-.33,1.59,1.59,0,0,1,.47-.24,1.33,1.33,0,0,1,.6,0,2,2,0,0,0,1.25-.09h0l.17-.07.27-.1a3.4,3.4,0,0,0,.51-.22l.14-.07.52-.25a2.4,2.4,0,0,0,.45-.23l.09,0a2.9,2.9,0,0,1,.49-.26,1.89,1.89,0,0,1,.67-.12,2.45,2.45,0,0,0,.8-.23l.29-.15.19-.1c.08,0,.16-.09.28-.14l.44-.2.62-.28c.21-.1.41-.22.59-.32l.35-.21a2.09,2.09,0,0,0,.52-.43,1.9,1.9,0,0,1,.48-.41,5.14,5.14,0,0,1,.47-.23l.15-.07a3.55,3.55,0,0,0,.44-.21,2.07,2.07,0,0,1,.5-.22,2,2,0,0,0,1-.74,1.62,1.62,0,0,1,.38-.4,4.13,4.13,0,0,0,.47-.38c.15-.13.3-.27.42-.36a2,2,0,0,1,.64-.25,1.81,1.81,0,0,0,.71-.31l.34-.24.36-.27a2,2,0,0,0,.37-.39l.07-.08a2.3,2.3,0,0,1,.4-.46,1.65,1.65,0,0,1,.55-.27,2,2,0,0,0,1-.74,3,3,0,0,1,.4-.41,2.05,2.05,0,0,1,.42-.29,2,2,0,0,0,.84-1,1.19,1.19,0,0,1,.28-.44,2.12,2.12,0,0,1,.52-.36l.06,0a2.51,2.51,0,0,0,.48-.36l.16-.16a8.15,8.15,0,0,0,.59-.6c.11-.12.23-.22.34-.32l.18-.15.28-.26.12-.13a2.37,2.37,0,0,0,.21-.3l.09-.12a3,3,0,0,1,.27-.39,2.21,2.21,0,0,0,.34-.58,2.3,2.3,0,0,1,.32-.57,4.34,4.34,0,0,0,.37-.5c.11-.16.22-.3.31-.42l.39-.45.31-.37.08-.1a2.79,2.79,0,0,1,.47-.44h0a2.4,2.4,0,0,0,.43-.41,2.39,2.39,0,0,1,.39-.39l.16-.14a2.15,2.15,0,0,0,.5-.83,2.75,2.75,0,0,1,.24-.52,3.86,3.86,0,0,1,.3-.38l0,0a4.84,4.84,0,0,0,.4-.5c.22-.33.44-.66.64-1A3.73,3.73,0,0,1,326,301l.13-.17a2,2,0,0,0,.39-.87,1.61,1.61,0,0,1,.52-1,2,2,0,0,0,.57-1.24,1.21,1.21,0,0,1,.13-.5,1.53,1.53,0,0,1,.47-.48,2.06,2.06,0,0,0,.54-.6,3,3,0,0,1,.2-.34,3.4,3.4,0,0,0,.28-.45c.05-.12.13-.35.17-.47l0-.12a3.23,3.23,0,0,1,.2-.57c.06-.14.12-.29.17-.43a.65.65,0,0,0,0-.13c.06-.16.11-.32.2-.52l.24-.47.07-.14c.08-.16.16-.32.23-.49a2.42,2.42,0,0,0,.13-.53,3.32,3.32,0,0,1,.15-.54l.47-1.09a1,1,0,0,1,.23-.37,2,2,0,0,0,.49-1.38,1.19,1.19,0,0,1,.06-.48c.07-.17.12-.36.19-.59l.16-.5a2.18,2.18,0,0,1,.26-.53l.1-.18a1.14,1.14,0,0,0,.1-.19,2.85,2.85,0,0,0,.12-.31l.07-.2.23-.63a1.57,1.57,0,0,0,.08-.29,2.23,2.23,0,0,0,.05-.44,2.62,2.62,0,0,1,.08-.58l.35-1.12a1.68,1.68,0,0,1,.33-.57,2.09,2.09,0,0,0,.4-.87l.07-.34a2.69,2.69,0,0,1,.1-.45c.05-.2.09-.39.11-.53l.05-.24c0-.11.05-.22.09-.39s.12-.37.18-.55a2.79,2.79,0,0,0,.12-.34,2.49,2.49,0,0,0,.08-.61.57.57,0,0,0,0-.13,2.26,2.26,0,0,1,.06-.74c0-.17.06-.36.07-.49s.05-.4.1-.6a4.85,4.85,0,0,0,.09-.55l0-.15a3.2,3.2,0,0,1,.07-.41,1.39,1.39,0,0,1,.06-.13,2,2,0,0,0,.47-1.29,3.92,3.92,0,0,1,.07-.81c.09-.41.16-.81.21-1.19l.17-1a4.1,4.1,0,0,1,.56-1.21c.12-.21.26-.48.3-.58a1.91,1.91,0,0,0,.16-.78s0-.44-.05-.71a5.26,5.26,0,0,1,0-1.12,11.39,11.39,0,0,0,.13-1.27,9,9,0,0,1,.09-1,3.29,3.29,0,0,1,.38-1.08,4.65,4.65,0,0,0,.26-.57,1.94,1.94,0,0,0,.14-.92,4.41,4.41,0,0,0-.11-.63l0-.1a4.07,4.07,0,0,1-.17-1.16l0-.43c0-.61.08-1.22.1-1.82a6.57,6.57,0,0,1,.19-1.19l0-.15a4,4,0,0,0,.13-.95C339,253.6,339,253.15,338.92,252.68Z" style="fill: #e20613"/>
    <path d="M275.32,199.05a4.13,4.13,0,0,1,.15,1v.11a11.64,11.64,0,0,1-.18,1.66,6.73,6.73,0,0,1-.25.88l-.05.12a4.68,4.68,0,0,0-.18.51,1,1,0,0,1-.05.16,7.43,7.43,0,0,1-.38.8c-.12.23-.22.44-.33.66s-.43,1-.72,1.78a1.94,1.94,0,0,1-1,1,7.59,7.59,0,0,1-1.88,2.22l-.14.16a3.69,3.69,0,0,1-1.32,1l-.15.23a2,2,0,0,1-1.06.86,3.55,3.55,0,0,0-.63.28l-.18.1a3.66,3.66,0,0,1-.53.21,3.25,3.25,0,0,0-.56.25,1.74,1.74,0,0,0-.49.42,2,2,0,0,1-1.26.69,2.72,2.72,0,0,0-.63.15,2.79,2.79,0,0,0-.52.26,1.93,1.93,0,0,1-.73.4l-.52.17a5.58,5.58,0,0,1-.58.18,2,2,0,0,1-.76.06l-.15,0a2.31,2.31,0,0,0-.65,0c-.45,0-.94.09-1.41.09h-.11c-.32,0-.74,0-1.2-.07l-.59,0a3.64,3.64,0,0,1-.82-.06c-.38-.08-.77-.2-1.18-.33a2.19,2.19,0,0,1-.61-.31l.33-.51-.07-.06-.36.49a2.86,2.86,0,0,0-.57-.34l-.42-.18a9.06,9.06,0,0,1-.83-.38l-.27-.14a7.38,7.38,0,0,1-.93-.55c-.16-.11-.37-.24-.58-.36l-.41-.25a1.73,1.73,0,0,1-.21-.17c-.18-.17-.34-.35-.51-.54l-.08-.09c-.11-.13-.21-.25-.32-.36l-.1-.1a2.73,2.73,0,0,0-.23-.25l-.15-.16-.52-.53c-.24-.27-.43-.47-.63-.67l-.33-.33a1.81,1.81,0,0,1-.25-.3l-.12-.2-.08-.12a2.61,2.61,0,0,0-.48-.65,11,11,0,0,0-1.07-.85l-.13-.09a9.15,9.15,0,0,0-1.27-.73,2.63,2.63,0,0,0-.77-.19,2.94,2.94,0,0,1-.53-.09,8.52,8.52,0,0,0-1.27-.28,1.68,1.68,0,0,1-.32-.09l-.21-.08-.1,0a2.65,2.65,0,0,0-.79-.22l-.45-.05h-.17c-.42,0-.85,0-1.27-.07h-.8a3,3,0,0,0-.69.15h0l-.06,0a2.65,2.65,0,0,1-.69.15l-.42.05-.18,0-.6.06a4.57,4.57,0,0,1-.64,0,3.88,3.88,0,0,0-.57-.05h-.13l-1.14.06h-.16l-.39,0a1.87,1.87,0,0,1-.53,0,2.58,2.58,0,0,1-.73.11c-.37,0-.71,0-1.08,0a4.68,4.68,0,0,1-.67-.11c-.25-.05-.47-.09-.71-.12l-.21,0-.45-.11a4.8,4.8,0,0,0-.71-.16,5.22,5.22,0,0,0-.69,0h-.19a4.17,4.17,0,0,1-.52,0c-.3-.05-.61-.12-.91-.19l-.51-.12-.36-.06-.4-.06a3.75,3.75,0,0,1-.5-.08l-.24-.08a2.39,2.39,0,0,1-.43-.2,3.72,3.72,0,0,0-.73-.35l-.54-.13a4,4,0,0,1-.83-.23,3.63,3.63,0,0,0-.61-.15,2,2,0,0,1-1.27-.8,1.87,1.87,0,0,0-.41-.44,5.26,5.26,0,0,1-.94-.86l-.16-.19c-.09-.11-.18-.21-.26-.32a2.08,2.08,0,0,1-.39-1c0-.12,0-.33,0-.52s0-.19,0-.29l0-.32a4.48,4.48,0,0,1,0-.94l.05-.37a4.81,4.81,0,0,1,.18-.92l.05-.11c.06-.14.1-.28.15-.42s.2-.54.25-.63a1.18,1.18,0,0,1,.11-.19c.23-.35.42-.65.62-.9a2.08,2.08,0,0,1,.6-.5l.12-.06a2.71,2.71,0,0,0,.62-.4,2.08,2.08,0,0,0,.43-.54,1.06,1.06,0,0,1,.12-.2,2,2,0,0,1,.45-.48c.3-.23.61-.45.92-.66s.31-.23.43-.32l.17-.13a3.36,3.36,0,0,1,.36-.27,1.87,1.87,0,0,1,.88-.34h0a2.52,2.52,0,0,0,.69-.22l.68-.34.49-.25a3.28,3.28,0,0,0,.63-.42l.24-.18a2.3,2.3,0,0,1,.33-.21c.25-.12.51-.24.76-.34l.08,0,.44-.19c.13-.07.3-.14.47-.21l.18-.08.1,0,.51-.22a6.31,6.31,0,0,0,.68-.38l.12-.07L228,187l.14-.07s0,0,0,0a2,2,0,0,1,1-.43,2.64,2.64,0,0,0,.8-.52l.09-.08a4.43,4.43,0,0,1,.41-.31,1.66,1.66,0,0,1,.27-.13,5,5,0,0,1,.73-.23,4.72,4.72,0,0,0,.89-.27,6,6,0,0,1,.85-.28,6.46,6.46,0,0,0,.78-.26,1.49,1.49,0,0,0,.38-.19c.14-.09.27-.17.37-.25a4.07,4.07,0,0,1,.57-.39l.12-.05a3.56,3.56,0,0,1,.77-.21l.11,0a6.11,6.11,0,0,0,.93-.19,5.51,5.51,0,0,0,.75-.33,5.71,5.71,0,0,1,.85-.35l.5-.15.16,0a9.53,9.53,0,0,1,1-.29,2.89,2.89,0,0,1,.68-.06h.49a4.83,4.83,0,0,0,.6-.05l.34-.06c.45-.07.9-.14,1.35-.18s1.08-.08,1.72-.09H246l.27,0a7.43,7.43,0,0,1,1.05,0c.43,0,.94.1,1.67.22l.19.05c.09,0,.3.1.51.18l.13,0a5.91,5.91,0,0,0,.8.31l.27.09a10,10,0,0,1,1.35.44l.33.13a11.48,11.48,0,0,1,1.22.55,6.05,6.05,0,0,0,.57.28,6.51,6.51,0,0,1,.94.5,13.41,13.41,0,0,1,1.09.91l.24.21c.22.2.43.37.64.54l.65.55c.34.31.63.56.92.79l.42.34a4.87,4.87,0,0,1,.51.5l.09.1a3.85,3.85,0,0,0,.68.66,15.22,15.22,0,0,0,1.54.92,13.79,13.79,0,0,0,1.56.66,4.33,4.33,0,0,0,1,.2l.1,0,.11,0a5.18,5.18,0,0,1,.62.12c.5.13,1.06.25,1.69.37l.11,0a6.48,6.48,0,0,1,.64.25l.11.05a7.19,7.19,0,0,0,.74.3,11.27,11.27,0,0,1,1.37.58l.07,0a10.48,10.48,0,0,1,1.49.89c.16.1.34.21.52.3l.1.05.14.08a4.47,4.47,0,0,1,.45.28,1.12,1.12,0,0,1,.2.18,8,8,0,0,1,1.08,1.23,4.49,4.49,0,0,1,.48,1.11c0,.14.09.28.14.42a7.14,7.14,0,0,1,.42,1.62Zm46.71-11a2.6,2.6,0,0,1-.16-.58l0-.31c0-.31-.08-.61-.14-.88a4.18,4.18,0,0,1-.06-.56,1.27,1.27,0,0,0,0-.28,1.88,1.88,0,0,0-.35-.88,2.53,2.53,0,0,1-.33-.59q-.15-.39-.3-.75l-.14-.35a1.48,1.48,0,0,1-.1-.5,2,2,0,0,0-.59-1.3,2.19,2.19,0,0,1-.32-.38,3.74,3.74,0,0,1-.24-.5,2,2,0,0,0-.88-1,1.39,1.39,0,0,1-.41-.31l-.1-.1-.09-.12-.17-.2c-.13-.15-.26-.3-.43-.47a2.73,2.73,0,0,1-.38-.49,2.07,2.07,0,0,0-.91-.77,3.88,3.88,0,0,1-.5-.25l-.46-.36a2.69,2.69,0,0,0-.53-.42,4.1,4.1,0,0,0-.63-.3l-.13,0-.29-.14-.18-.08c-.14-.06-.28-.1-.5-.17l-.49-.17a2.14,2.14,0,0,1-.52-.32,2.07,2.07,0,0,0-.24-.17l-.14-.08a1.69,1.69,0,0,0-.28-.12c-.35-.12-.71-.23-1-.3l-.3-.09-.33-.11-.43-.14-.15,0-.22,0-1-.15a3.36,3.36,0,0,0-.65,0,2.7,2.7,0,0,1-.54,0,2.53,2.53,0,0,0-.69,0,3.25,3.25,0,0,1-.49.05,2.71,2.71,0,0,1-.68-.09,2,2,0,0,0-1.23.07,2.74,2.74,0,0,1-.6.18,3.62,3.62,0,0,1-.45,0h-.37a2.05,2.05,0,0,0-.49.06,1.92,1.92,0,0,0-.42.16l-.12,0c-.19.09-.36.18-.48.22a3.42,3.42,0,0,0-.6.18l-.16.06a3.94,3.94,0,0,1-.48.18,2.25,2.25,0,0,1-.68.06h-.11a1.81,1.81,0,0,0-.61.1l-.73.24a2,2,0,0,0-.79.53,1.78,1.78,0,0,1-.52.41,2.35,2.35,0,0,1-.66.17l-.06,0a1.85,1.85,0,0,0-.64.21l-.41.2a5.89,5.89,0,0,0-.61.31c-.16.1-.31.2-.51.35l-.44.31-.31.2c-.25.14-.5.29-.82.51a3.5,3.5,0,0,0-.45.38l-.43.35-.12.08c-.38.29-.76.59-1.15.92l-.41.32a9.09,9.09,0,0,0-.76.63c-.4.35-.79.72-1.13,1.08a8.21,8.21,0,0,0-.69.78c-.1.13-.21.24-.35.39l-.44.5c-.2.23-.41.47-.57.68-.33.42-.64.85-.92,1.25s-.59.94-.83,1.36-.49.89-.72,1.37c-.13.29-.25.6-.41,1a2.4,2.4,0,0,0-.13.59c0,.19,0,.37-.06.51a2,2,0,0,0-.06.48,2.07,2.07,0,0,0,.14.74l.22.52a.64.64,0,0,0,0,.07,2,2,0,0,0,1.37,1.24l.15,0,.13.05a.93.93,0,0,1,.24.09,2,2,0,0,0,1.48.09l.2-.07.31-.1c.14,0,.3-.06.4-.08a3,3,0,0,0,.49-.1,1.85,1.85,0,0,0,.55-.26,2.83,2.83,0,0,0,.28-.2,5.72,5.72,0,0,1,.48-.32l.26-.13.22-.11a3.73,3.73,0,0,0,.6-.34,2.22,2.22,0,0,0,.41-.4h0a3.78,3.78,0,0,1,.45-.44,3.2,3.2,0,0,1,.45-.3l.34-.22a2.56,2.56,0,0,0,.45-.48l.11-.18a2.45,2.45,0,0,1,.38-.53l.15-.14.22-.21c.16-.14.31-.29.5-.48l.29-.32a7.17,7.17,0,0,0,.57-.63l.12-.13.63-.79a2.77,2.77,0,0,1,.62-.53l0,0a1.7,1.7,0,0,0,.42-.33,4.33,4.33,0,0,1,.63-.5l.08-.06.12-.09a2.9,2.9,0,0,0,.36-.3,2.81,2.81,0,0,1,.69-.51l.24-.12a3.57,3.57,0,0,1,.86-.36,1.86,1.86,0,0,1,.88.09l.1,0a2.5,2.5,0,0,0,.38.06,2.83,2.83,0,0,1,1.12.22,3,3,0,0,1,1,.73,3.86,3.86,0,0,1,.76.93,5.34,5.34,0,0,1,.45,1.09l.12.3.13.24a1.91,1.91,0,0,1,.28.7,3.48,3.48,0,0,1,0,.79v.18a2.64,2.64,0,0,0,0,.32v.26a7.87,7.87,0,0,1,0,1,5.66,5.66,0,0,0,0,.58,3.37,3.37,0,0,1,0,.71,2.17,2.17,0,0,1-.21.66,2.63,2.63,0,0,0-.2.54c-.05.22-.11.45-.2.76l-.06.24a2.51,2.51,0,0,0-.06.55,2.09,2.09,0,0,0,0,.25,1.88,1.88,0,0,1,0,.71c0,.21-.09.41-.16.65l0,.13c0,.15-.07.29-.1.44a2.12,2.12,0,0,1-.22.5,2,2,0,0,0-.21,1.39,1.21,1.21,0,0,1,0,.53,2,2,0,0,1-.28.64,2,2,0,0,0-.26.74,4.26,4.26,0,0,0,0,.48c0,.19,0,.37,0,.45l-.11.76a3.93,3.93,0,0,0-.06.48v.12a4.8,4.8,0,0,0,.05.67,2.46,2.46,0,0,0,0,.28v.18a4.34,4.34,0,0,1,0,.51,3.36,3.36,0,0,0,0,.64s0,.07,0,.11a4.76,4.76,0,0,0,.22.76l.13.4a5.59,5.59,0,0,0,.37.91l.12.25.06.12a3.43,3.43,0,0,0,.29.41l.08.11.24.36a4.2,4.2,0,0,0,.49.57l.27.3a3.55,3.55,0,0,1,.23.31,2.06,2.06,0,0,0,.24.34,1.62,1.62,0,0,0,.32.32l.27.26.09.08.2.18a1.92,1.92,0,0,0,.89.41,2.69,2.69,0,0,1,.59.16,2.73,2.73,0,0,1,.52.34l.2.15a2.18,2.18,0,0,0,.82.29h.15a4.27,4.27,0,0,1,.55.08,4.94,4.94,0,0,1,.55.2,2.52,2.52,0,0,0,.33.14,2.1,2.1,0,0,0,.92.08h0a3.81,3.81,0,0,1,.59,0,4.35,4.35,0,0,1,.46.06,3.79,3.79,0,0,0,.52.08h.16a1.87,1.87,0,0,0,.42,0,2.76,2.76,0,0,0,.42-.08l.39-.07a4.75,4.75,0,0,1,.54,0h.15a2,2,0,0,0,.59-.09l.25-.07.1,0a2,2,0,0,0,1.18-.81,2.47,2.47,0,0,1,.33-.41c.17-.19.32-.36.45-.53l.1-.13a.39.39,0,0,0,.08-.1l.08-.11a2.06,2.06,0,0,1,.33-.33,2,2,0,0,0,.74-1.41l.05-.38a6.73,6.73,0,0,0,.08-.74,2.45,2.45,0,0,0,0-.27c0-.27-.09-.55-.15-.83l-.07-.34a2,2,0,0,0-.17-.48,2.51,2.51,0,0,1-.19-.73V205a6.14,6.14,0,0,1,0-1.15,1.7,1.7,0,0,1,.23-.63,3.33,3.33,0,0,0,.24-.52l0-.11a6.82,6.82,0,0,1,.34-.93,2.43,2.43,0,0,0,.17-.6,2.5,2.5,0,0,1,.21-.76c.16-.28.29-.57.47-.92l.05-.11a5.11,5.11,0,0,0,.27-.64l.21-.52a3.08,3.08,0,0,1,.35-.57.1.1,0,0,0,0,0,1.82,1.82,0,0,0,.31-.56c.12-.32.21-.62.3-.94a1.87,1.87,0,0,0,.1-.62v-.07a4.07,4.07,0,0,1,.06-.62,2.54,2.54,0,0,1,.27-.6,2.1,2.1,0,0,0,.27-1,.86.86,0,0,0,0-.16,3,3,0,0,1,0-.59c0-.33.06-.65.07-1v-.2c0-.4,0-.8,0-1.2a2.36,2.36,0,0,1,.1-.61A2,2,0,0,0,322,188.1Z" style="fill: #009f46"/>
    <path d="M221.14,267.57a3.25,3.25,0,0,1,0,.44l0,.41a2.12,2.12,0,0,1,0,.33l0,.12s0,.09,0,.12l-.15,1.08,0,1.43a2.22,2.22,0,0,1-.06.51l-.27,1.41c0,.23-.07.46-.11.68a6.26,6.26,0,0,0-.12.84l-.07,1.23a3.11,3.11,0,0,1-.07.47l-.36,1.26v0l0,.19a1.69,1.69,0,0,0,0,.3v.12a2.17,2.17,0,0,1,0,.62l0,.23,0,.11a2.77,2.77,0,0,1-.12.41,3.26,3.26,0,0,1-.32.6c0,.05-.11.18-.15.26l-.37,1a2,2,0,0,1-1.4,1.25,2,2,0,0,1-1.82-.46,2.37,2.37,0,0,1-.36-.32,4.79,4.79,0,0,0-1.28-.89,3.55,3.55,0,0,0-1.52-.37l-.42,0a3.22,3.22,0,0,0-1.22.08,6.56,6.56,0,0,0-1.41.75,8.87,8.87,0,0,0-1.23,1l-.22.19a11.12,11.12,0,0,0-.92.89c-.15.18-.3.38-.45.58a4.94,4.94,0,0,1-.59.73l-.35.36-.17.17c-.2.2-.4.41-.63.6l-.56.5c-.23.19-.45.38-.67.55l-.11.08a3.31,3.31,0,0,1-.56.29l-.13.06a4.57,4.57,0,0,0-.7.35c-.38.23-.77.44-1.16.65l-.25.13-.55.31a5.78,5.78,0,0,1-1,.5c-.39.17-.87.32-1.47.51l-.16,0a12.07,12.07,0,0,1-1.38.32l-.31,0a3.15,3.15,0,0,1-.61-.06c-.28,0-.51-.05-.77-.06l-.38,0a8,8,0,0,1-1.14,0c-.26,0-.5,0-.76,0h-.32a2.45,2.45,0,0,1-.71-.11,3.46,3.46,0,0,1-.62-.28l-.08,0a4,4,0,0,0-.61-.27,2.89,2.89,0,0,0-.77-.13l-.11,0a3,3,0,0,1-.44-.07,2.37,2.37,0,0,1-.61-.27l-.46-.32a5.3,5.3,0,0,0-.51-.36c-.08,0-.15-.1-.23-.15a3.52,3.52,0,0,1-.39-.38,5.2,5.2,0,0,0-.62-.57,3.53,3.53,0,0,0-.71-.39l-.22-.09a1.93,1.93,0,0,1-.57-.37l-.29-.27c-.29-.27-.57-.53-.8-.79l-.08-.09c0-.07-.16-.24-.27-.43l-.07-.13a7.66,7.66,0,0,0-.47-.75c-.29-.39-.59-.84-.87-1.28l-.37-.54a8.29,8.29,0,0,1-.51-.79l-.22-.43a7.79,7.79,0,0,1-.53-1.08,5.19,5.19,0,0,1-.22-.64l0-.2a5.54,5.54,0,0,0-.17-.6c-.2-.57-.36-1.08-.51-1.61-.07-.21-.15-.45-.24-.68a6.74,6.74,0,0,1-.28-.84,5.9,5.9,0,0,1-.08-.78c0-.24,0-.47-.08-.7a1.84,1.84,0,0,1,0-.33L178,273c-.06-.27-.1-.48-.15-.71l-.08-.36c0-.1,0-.19,0-.28l-.07-.75a2.76,2.76,0,0,1,0-.72v-.61l0-.27c0-.19-.05-.38-.09-.63s-.14-.62-.19-.8l0-.16a2.23,2.23,0,0,1,0-.36l0-.38c0-.47-.05-1-.06-1.47v-.13a1.83,1.83,0,0,1,0-.47l0-.41v-.18l-.06-.78a.17.17,0,0,1,0-.07l0-.19c-.06-.34-.1-.54-.15-.74a2,2,0,0,1-.05-.24,2.58,2.58,0,0,1,0-.39,2,2,0,0,1,.77-1.58,2,2,0,0,1-.82-1.6h0l-.15.25a5.9,5.9,0,0,1-.71,1l-.09.11c-.13.19-.3.39-.46.6a3.65,3.65,0,0,1-.5.52l-.14.14a1.07,1.07,0,0,1-.16.14l-.13.1-.32.23-.11.08-.27.2a2.19,2.19,0,0,1-.3.16l-.21.1-.18.1-.17.08-.73.29a3.39,3.39,0,0,1-.59.15l-.14,0a1.88,1.88,0,0,1-.33,0l-.8.07a1.38,1.38,0,0,1-.29,0l-.47,0h-.26l-.46-.06a5.94,5.94,0,0,1-.81-.15l-.14,0-.1,0-1.06-.27-.21-.07-.48-.17a2.48,2.48,0,0,1-.37-.17l-.62-.36a6.56,6.56,0,0,1-.6-.42.91.91,0,0,0-.16-.11l-.23-.17a8.41,8.41,0,0,1-.72-.54,1,1,0,0,1-.15-.14,3,3,0,0,1-.59-.62l-.08-.1a5.91,5.91,0,0,1-.58-.89l-.13-.22-.07-.14-.4-.82-.08-.18-.17-.46c0-.11-.08-.22-.12-.35l-.15-.46a6.81,6.81,0,0,1-.2-.71.7.7,0,0,0,0-.14s0-.14,0-.17a2.38,2.38,0,0,1-.06-.37l0-.73c0-.16,0-.33,0-.5s0-.28,0-.47l-.11-1.16a2.09,2.09,0,0,1,0-.61l0-.25c.06-.37.1-.67.13-1a.5.5,0,0,0,0-.12l0-.16a.8.8,0,0,0,0-.15l.31-1.32a2.05,2.05,0,0,1,.07-.31l.2-.62s0-.09.05-.13l.22-.54a1.79,1.79,0,0,1,.2-.39l.37-.58.11-.16.09-.11.34-.42.06-.09.4-.54c.16-.2.3-.37.45-.53a3.31,3.31,0,0,1,.27-.26l.4-.3a3.34,3.34,0,0,1,.52-.37l.17-.11.43-.27.08-.06.13-.08a5.08,5.08,0,0,1,.52-.3l.3-.15a1.66,1.66,0,0,1,.33-.15l.16-.07.12-.05a5.76,5.76,0,0,1,.79-.26l.16-.05h0a2.36,2.36,0,0,1,.46-.1h.09l.26,0a3.24,3.24,0,0,1,.63-.05h.4a2.43,2.43,0,0,1,.38,0l.38.06a3.67,3.67,0,0,1,.89.17,1.89,1.89,0,0,1,.34.09l.22.07.11,0,.29.1a2.86,2.86,0,0,1,.69.31,1.53,1.53,0,0,1,.4.21l.59.39c.22.17.33.27.44.36l.16.12.12.1.07.08.08.08.19.19.12.14a3.23,3.23,0,0,1,.38.43l0,0a2.35,2.35,0,0,1,.33.37l.6.91.11.17.09-.14,0-.05v0a2.68,2.68,0,0,1,.07-.27c0-.12,0-.23,0-.35s0-.24,0-.31a1.86,1.86,0,0,1,.1-.48l.09-.3c0-.15.1-.35.16-.56l0-.08c0-.1,0-.2.08-.3a1.84,1.84,0,0,1,.5-.82,1.37,1.37,0,0,1,.17-.17l.06-.06.12-.17.05-.13,0-.05,0-.14a2.07,2.07,0,0,1,.45-1.09l.47-.56s0,0,.05,0l.16-.22.46-.69.16-.24a2.2,2.2,0,0,1,.5-.51l.55-.44,0,0,.07-.1a2,2,0,0,1,.41-.59l.59-.56a.8.8,0,0,1,.17-.15,1.43,1.43,0,0,1,.22-.15l.15-.1.32-.19.2-.12h0l.22-.18.1-.1,0,0a2,2,0,0,1,.5-.37l.12-.06-.07,0,.15-.08.62-.31.09-.06.35-.17.18-.07.11,0a3.94,3.94,0,0,0,.61-.21c.19-.08.37-.18.56-.28a3.1,3.1,0,0,1,.73-.37,4.69,4.69,0,0,1,1-.17,4.29,4.29,0,0,0,.5-.06h.82a5.41,5.41,0,0,0,.7,0l.54-.07.84-.08c.21,0,.42,0,.63,0l.12,0a2.79,2.79,0,0,1,.89,0h0a3.05,3.05,0,0,1,.54.14l.11,0a4.89,4.89,0,0,0,.62.19,4,4,0,0,0,.48.08,4,4,0,0,1,.75.15l.16.05.11,0a2,2,0,0,1,1,.7.76.76,0,0,0,.2.17,1.07,1.07,0,0,0,.38.13,2.14,2.14,0,0,1,.6.21l.13.06a1.89,1.89,0,0,1,.69.42l.12.11s0,0,.05,0l.22.21c.09.08.21.16.32.24l.11.08.18.14.19.17a1.89,1.89,0,0,1,.64.89,1,1,0,0,0,.17.31.76.76,0,0,0,.21.15,2,2,0,0,1,.9.9.35.35,0,0,0,.05.08l.25.29a1.81,1.81,0,0,1,.42.67,3.63,3.63,0,0,0,.18.43,1.57,1.57,0,0,1,.15.43,1.93,1.93,0,0,0,.14.36.94.94,0,0,0,.15.23,2,2,0,0,1,.58,1,1.58,1.58,0,0,0,.09.31c0,.12.11.31.17.5a2,2,0,0,1,.07.23l.06.24a1.16,1.16,0,0,1,0,.18,2.34,2.34,0,0,0,0,.26v0a2.11,2.11,0,0,1,.15.86.49.49,0,0,0,0,.12l.28,1.53s0,.09,0,.13c0,.25.06.52.11.82l0,.31a1.83,1.83,0,0,1,0,.47c0,.13,0,.27,0,.41v.1c0,.16,0,.33,0,.49v.38a2.83,2.83,0,0,1-.06.42l0,.35a.68.68,0,0,0,0,.14l-.06.48a.54.54,0,0,0,0,.08l0,.85v.07a2.38,2.38,0,0,1,0,.6l-.17,1.44,0,.19c-.09.45-.2.9-.3,1.36l0,.12-.23.84c0,.05-.05.2-.09.35a2.61,2.61,0,0,0-.08.33l-.26,1.47c0,.05,0,.09,0,.13v.19a6.23,6.23,0,0,0,0,.63v.06c0,.09,0,.19,0,.26a2.31,2.31,0,0,1-.06.52l0,.12-.08.32-.14.67s0,.09,0,.13v.24l0,.4,0,.48,0,.1.06.11c.08.16.19.45.3.74a2.52,2.52,0,0,1,.54.61l.11.12,0,.06a.39.39,0,0,1,.1.08l.09.05.06,0,.17.05.19,0h.09l.28,0,.18,0h.08l.41-.06.18,0,.64-.11.2,0a1,1,0,0,0,.23-.06l.07,0h0l.82-.51,0,0,.51-.4,0,0,.17-.14a2.52,2.52,0,0,1,.33-.24l1.51-.86a2.06,2.06,0,0,1,.26-.12,13.19,13.19,0,0,1,1.61-.67l.18-.07a1.4,1.4,0,0,1,.35-.1l.58-.11a1.87,1.87,0,0,1,.91,0,5.18,5.18,0,0,1,1.88.71l.07,0,.52.32.21.14.09.08.76.61a3.48,3.48,0,0,1,.92,1.28,1.78,1.78,0,0,1,.2.56l.24.49a3.77,3.77,0,0,0,.16.36l.12.21c.09.16.17.31.24.46h0l0,0a2.26,2.26,0,0,1,.25.38A2.07,2.07,0,0,1,221.14,267.57ZM193.06,250a5.75,5.75,0,0,0-.31-1.62A5.35,5.35,0,0,0,192,247a4.5,4.5,0,0,0-1.16-1.09,4.7,4.7,0,0,0-1.45-.69A4.9,4.9,0,0,0,188,245h-.24a5.89,5.89,0,0,0-1.6.27A4.06,4.06,0,0,0,185,246a4.43,4.43,0,0,0-.9,1l-.06.08-.06.07a5.28,5.28,0,0,0-.66,1,4,4,0,0,0-.23.62c-.07.24-.13.48-.18.73a2.37,2.37,0,0,0,0,.71l0,.19c0,.12,0,.27,0,.45a5.1,5.1,0,0,0,.27,1.21,5.88,5.88,0,0,0,.68,1.42,4.76,4.76,0,0,0,1.08,1.11,4.21,4.21,0,0,0,1.37.65,5.05,5.05,0,0,0,1.55.1,5.66,5.66,0,0,0,1.53-.32,5.52,5.52,0,0,0,1.44-.73,5.76,5.76,0,0,0,1.22-1.19,4.78,4.78,0,0,0,.71-1.45A4.72,4.72,0,0,0,193.06,250Z" style="fill: #f8d1dd"/>
    <path d="M188.1,244.32a5.92,5.92,0,1,1-5.92,5.91A5.91,5.91,0,0,1,188.1,244.32Z" style="fill: #fff"/>
    <path d="M193.62,245.78a6.56,6.56,0,0,0-1.64-1.54,6.74,6.74,0,0,0-2-1,7.25,7.25,0,0,0-2.22-.24,8,8,0,0,0-2.17.37,6.08,6.08,0,0,0-1.73,1,6.78,6.78,0,0,0-1.31,1.4l-.09.11a7.59,7.59,0,0,0-.91,1.46,7.15,7.15,0,0,0-.33.89,9.37,9.37,0,0,0-.23,1,4.34,4.34,0,0,0,0,1.26c0,.12,0,.27,0,.48a7.18,7.18,0,0,0,.39,1.79,7.77,7.77,0,0,0,.93,1.9,6.77,6.77,0,0,0,1.54,1.57,6.24,6.24,0,0,0,2,1,5.6,5.6,0,0,0,1.54.19l.63,0a8.05,8.05,0,0,0,2.07-.43,7.17,7.17,0,0,0,2-1,7.54,7.54,0,0,0,1.61-1.58,6.9,6.9,0,0,0,1-2,6.68,6.68,0,0,0,.3-2.29,7.61,7.61,0,0,0-.43-2.21A7.19,7.19,0,0,0,193.62,245.78Zm-1.24,5.7a4.32,4.32,0,0,1-.64,1.31,5.27,5.27,0,0,1-1.09,1.07,4.79,4.79,0,0,1-1.34.67,5.58,5.58,0,0,1-1.41.3,5,5,0,0,1-1,0,3.44,3.44,0,0,0,.89-.29,3.79,3.79,0,0,0,1.5-1.19,3.71,3.71,0,0,0,.63-1.81,3.4,3.4,0,0,0-.32-1.85,3.52,3.52,0,0,0-1.23-1.42,3.59,3.59,0,0,0-1.77-.66,3.76,3.76,0,0,0-1.89.34,3.45,3.45,0,0,0-.95.66l.09-.25a5.4,5.4,0,0,1,.62-.94l.09-.12a4.81,4.81,0,0,1,.83-.91,3.73,3.73,0,0,1,1-.58,5.51,5.51,0,0,1,1.46-.23h.24a4.48,4.48,0,0,1,1.2.15,4,4,0,0,1,1.29.61,4.19,4.19,0,0,1,1.06,1,5.22,5.22,0,0,1,.66,1.32,4.68,4.68,0,0,1,.28,1.47A4.14,4.14,0,0,1,192.38,251.48Z" style="fill: #1d1d1b"/>
    <path d="M337.63,279.26a31.08,31.08,0,0,0,1.27-6.75c.11-.47.19-.93.26-1.4,0-.3.09-.59.14-.84a4,4,0,0,1,.23-.42,5.63,5.63,0,0,0,.75-1.8,6.72,6.72,0,0,0,0-1.78c0-.2,0-.48,0-.58a14.22,14.22,0,0,0,.14-1.45c0-.29,0-.58.06-.81a3.69,3.69,0,0,1,.2-.43,5.38,5.38,0,0,0,.62-1.88,5.56,5.56,0,0,0-.21-1.95l-.1-.43,0-.41c.05-.65.09-1.29.11-1.92a3.68,3.68,0,0,1,.12-.67,7,7,0,0,0,.24-1.67c0-.53-.05-1.06-.09-1.57l-.06-.8c0-.26,0-.52,0-.79,0-.54,0-1.08-.09-1.59a8.05,8.05,0,0,0-.35-1.56,4.67,4.67,0,0,1-.18-.68c0-.21,0-.48,0-.78a9.08,9.08,0,0,0-.07-1.52c-.08-.48-.18-.94-.28-1.41-.07-.28-.13-.56-.18-.85-.1-.52-.22-1-.33-1.56l-.16-.69a12.13,12.13,0,0,0-.45-1.46,6.65,6.65,0,0,1-.26-.75l0-.18c-.17-.69-.34-1.37-.54-2-.15-.52-.33-1-.51-1.52-.08-.22-.16-.45-.23-.68a4.27,4.27,0,0,1-.17-.72,7.89,7.89,0,0,0-.4-1.55l-.21-.56c-.21-.54-.41-1.08-.65-1.61a9.16,9.16,0,0,0-.79-1.38,5.2,5.2,0,0,1-.39-.64,12.57,12.57,0,0,0-.79-1.31c-.15-.22-.3-.44-.43-.67a3.87,3.87,0,0,1-.24-.61,7.39,7.39,0,0,0-.68-1.56l-.31-.51c-.3-.49-.6-1-.93-1.47a7.92,7.92,0,0,1-.42-.69,11.06,11.06,0,0,0-.83-1.29c-.16-.21-.31-.44-.46-.66-.28-.4-.57-.82-.92-1.23-.59-.72-1.63-1.16-2-2a7,7,0,0,0-2.16-2.53,8.3,8.3,0,0,1-.64-.54,5.1,5.1,0,0,0-1.78-1c-.16-.07-.37-.15-.41-.18a5.52,5.52,0,0,1-.5-.49c-.17-.19-.38-.4-.61-.61a4.72,4.72,0,0,0,.07-.54c0-.06,0-.12,0-.24a5.83,5.83,0,0,0,.08-1.77,9.93,9.93,0,0,0-.19-1l-.06-.3a4.31,4.31,0,0,0-.27-.87.88.88,0,0,1,0-.15v0c0-.18,0-.35,0-.5a4.24,4.24,0,0,0,.4-1,8.86,8.86,0,0,1,.32-.85,4.08,4.08,0,0,0,.28-1,.28.28,0,0,1,0-.09c.15-.29.3-.58.44-.87l.09-.19c.14-.29.25-.58.37-.87l.11-.3.09-.11a4.09,4.09,0,0,0,.64-1.12c.14-.39.26-.78.38-1.17l0-.12a4.62,4.62,0,0,0,.17-1.24s0-.05,0-.06a4,4,0,0,0,.54-1.33,5.07,5.07,0,0,0,0-1.2c0-.07,0-.14,0-.18,0-.38.06-.76.08-1.14v-.22c0-.41,0-.82,0-1.23l0-.08a4.2,4.2,0,0,0,.19-1.44,4.67,4.67,0,0,0-.3-1.24.37.37,0,0,0-.05-.11l0-.31c-.05-.35-.09-.7-.16-1a1,1,0,0,1,0-.25,5.52,5.52,0,0,0-.16-1.13,4,4,0,0,0-.68-1.3l0-.07c-.11-.32-.24-.63-.37-.95v0a3.77,3.77,0,0,0-.35-1.53,4.21,4.21,0,0,0-.87-1.13l-.05,0a.69.69,0,0,1,0-.1,4.57,4.57,0,0,0-.6-1.15,3.58,3.58,0,0,0-1.28-1l-.1-.11a7.31,7.31,0,0,0-.64-.72l-.08-.12a4.3,4.3,0,0,0-.88-1,13.8,13.8,0,0,0-1.76-1.27,4,4,0,0,0-1.28-.47c-.35-1.14-2.12-.92-2.85-1.43a3.85,3.85,0,0,0-1.52-.54l-.32-.11a7.5,7.5,0,0,0-1-.28c-.45-.09-.92-.17-1.38-.22a5.11,5.11,0,0,0-1.12,0h-.26a5.68,5.68,0,0,0-1.09.07l-.19,0-.07,0a4.21,4.21,0,0,0-1.43-.18,4.37,4.37,0,0,0-1.3.34l-.1,0h-.18a5.07,5.07,0,0,0-1.16.08,4.71,4.71,0,0,0-1.18.43l-.11.07c-.31.08-.61.19-.92.3l-.22.09h0a4,4,0,0,0-1.48.19l-.37.13c-.31.11-.61.21-.91.33a3.65,3.65,0,0,0-1.19.85,4.54,4.54,0,0,0-1.21.38l-.38.19c-.28.13-.56.26-.82.41s-.53.34-.79.53l-.32.23-.32.19c-.27.17-.55.34-.81.52a7.36,7.36,0,0,0-.77.61l-.21.18-.07,0c-.46.34-.89.69-1.33,1l-.4.32c-.31.24-.62.49-.91.75s-.83.78-1.23,1.18-.54.6-.8.9l-.31.38-.28.31c-.29.32-.58.65-.84,1s-.61.82-.9,1.24c-.16-.49-.33-.94-.48-1.32l-.19-.48a18.08,18.08,0,0,0-1.14-2.36l-.16-.29a16.58,16.58,0,0,0-1.49-2.37,11.4,11.4,0,0,0-1.69-1.71l-.4-.35c-.17-.15-.32-.32-.48-.47a9.84,9.84,0,0,0-1.7-1.47,12.51,12.51,0,0,0-2.25-1.14l-.39-.16a7.19,7.19,0,0,1-.65-.33,6.38,6.38,0,0,0-2.34-.81,3.5,3.5,0,1,0-1.21,6.89l.13,0a11.78,11.78,0,0,0,1.25.62l.55.23a7.13,7.13,0,0,1,1.07.52,7.68,7.68,0,0,1,.56.53c.23.24.47.47.71.7l.58.51a6.51,6.51,0,0,1,.74.7,15.44,15.44,0,0,1,.88,1.46l.17.32a11,11,0,0,1,.71,1.42l.24.61a9.93,9.93,0,0,1,.43,1.2,6.15,6.15,0,0,1,.06.76c0,.4.05.82.1,1.23a13.15,13.15,0,0,1,.16,2,10.58,10.58,0,0,1-.18,1.37c-.05.24-.09.49-.12.73a1.5,1.5,0,0,0,0,.2l-.44-.45a5.71,5.71,0,0,0-1.38-.95,3.52,3.52,0,0,1-.4-.24,12.77,12.77,0,0,0-1.73-1l-.11-.05a13.56,13.56,0,0,0-1.72-.71,3.2,3.2,0,0,1-.39-.16,6.12,6.12,0,0,0-1.46-.52c-.57-.12-1.08-.22-1.55-.35a9,9,0,0,0-1.07-.19c-.16,0-.38,0-.44-.07a12.83,12.83,0,0,1-1.32-.55,12,12,0,0,1-1.23-.73c-.06-.05-.2-.2-.3-.31a6.84,6.84,0,0,0-.81-.81l-.46-.39c-.26-.21-.54-.44-.82-.69L259,184c-.21-.18-.43-.36-.65-.56l-.24-.21a14,14,0,0,0-1.29-1.06,8.05,8.05,0,0,0-1.31-.72,4.71,4.71,0,0,1-.45-.22,14.83,14.83,0,0,0-1.51-.69l-.31-.12a13.48,13.48,0,0,0-1.67-.55l-.21-.06-.43-.17a5.85,5.85,0,0,0-1.45-.48,18.61,18.61,0,0,0-2-.26,9.14,9.14,0,0,0-1.4,0l-.54,0c-.7,0-1.33,0-1.92.1s-1.25.16-1.87.26a3.53,3.53,0,0,1-.46,0,7.13,7.13,0,0,0-1.43.13,12.41,12.41,0,0,0-1.23.35l-.57.17a7.31,7.31,0,0,0-1.25.51c-.15.07-.3.15-.46.21a3.21,3.21,0,0,1-.47.08,6.76,6.76,0,0,0-1.32.32,5,5,0,0,0-1.35.78L233,182c-.19.07-.38.12-.57.18a7.69,7.69,0,0,0-1.15.38,2.92,2.92,0,0,1-.48.14,6.68,6.68,0,0,0-1.23.4,5.76,5.76,0,0,0-1.28.86l-.22.19a2.06,2.06,0,0,0-.46.31,2.11,2.11,0,0,0-.64.18,7.31,7.31,0,0,0-.77.42c-.14.08-.28.17-.43.24l-.52.23c-.26.1-.52.21-.77.33l-.48.21c-.28.12-.56.24-.82.37a5.19,5.19,0,0,0-1,.66l-.2.16-.45.22c-.25.11-.49.23-.73.36l-.12,0a4.08,4.08,0,0,0-1.45.51,8.14,8.14,0,0,0-.88.63l-.34.26c-.43.29-.85.6-1.26.9a4.19,4.19,0,0,0-1,1.21l0,0h0a4,4,0,0,0-1.31,1,11.08,11.08,0,0,0-1,1.4,6.11,6.11,0,0,0-.63,1.37,2.65,2.65,0,0,1-.11.3,7.13,7.13,0,0,0-.38,1.62l0,.23a6.36,6.36,0,0,0,0,1.7v.19c0,.1,0,.19,0,.28a5.52,5.52,0,0,0,.24,1.54,4.81,4.81,0,0,0,1,1.74l.12.15a7.49,7.49,0,0,0,1.29,1.21l.06.09a3.93,3.93,0,0,0,1.35,1.23,4.64,4.64,0,0,0,1.36.43l.23.05a6.9,6.9,0,0,0,1.13.32l.36.08a2.53,2.53,0,0,1,.23.12,5.35,5.35,0,0,0,1.22.52,8.89,8.89,0,0,0,1,.19l.1,0-.39.26a5.91,5.91,0,0,1-.52.35,4.74,4.74,0,0,1-.5.26,8.77,8.77,0,0,0-1.16.64c-.51.34-1,.71-1.53,1.09s-.75.59-1.13.91l-.34.29-.47.37a12.79,12.79,0,0,0-1,.82c-.3.28-.59.6-.88.92-.14.15-.28.31-.42.45s-.29.27-.44.4a11.4,11.4,0,0,0-.94.92,9.81,9.81,0,0,0-.71,1c-.11.15-.21.31-.34.46-.24.31-.45.64-.66,1l-.32.49a3.06,3.06,0,0,1-.3.32,6.82,6.82,0,0,0-.87,1,5.77,5.77,0,0,0-.59,1.21c-.06.13-.1.27-.17.39s-.2.3-.31.44a8.2,8.2,0,0,0-.68,1c-.09.17-.2.34-.3.5-.21.33-.41.67-.59,1a6.77,6.77,0,0,0-.44,1.25,2.92,2.92,0,0,1-.13.42c-.08.18-.17.36-.26.54a11.28,11.28,0,0,0-.5,1.05c-.07.18-.16.37-.24.55-.15.35-.31.7-.44,1.06a7.79,7.79,0,0,0-.31,1.13c0,.18-.08.37-.14.56a4.4,4.4,0,0,1-.21.5,11,11,0,0,0-.41,1.13l-.18.57c-.11.36-.23.73-.32,1.11a6.54,6.54,0,0,0-.16,1.12l-.36-.3-.24-.2a6,6,0,0,0-.56-.44l-.25-.2a6.28,6.28,0,0,0-.67-.59,3.87,3.87,0,0,0-.91-.48h0a2.84,2.84,0,0,0-.63-.28,2.55,2.55,0,0,0-.94-.76,4,4,0,0,0-.93-.3l-.07,0a6,6,0,0,0-1.4-.33l-.35-.06a2.07,2.07,0,0,1-.33-.1,5.75,5.75,0,0,0-1.41-.33,7.1,7.1,0,0,0-1.27,0l-.43,0c-.39,0-.78.06-1.17.1l-.45.06c-.12,0-.25,0-.37,0a5.7,5.7,0,0,0-1.22,0l-.4,0a8,8,0,0,0-1.43.24,5.59,5.59,0,0,0-1.29.6,3.07,3.07,0,0,1-.31.17,3.1,3.1,0,0,1-.4.13,7.43,7.43,0,0,0-1.16.43,2.28,2.28,0,0,0-.5.36l-.33.14-.17.09,0,0-.06,0-.13.08-.27.18-.43.31-.06,0-.05,0-.21.11-.48.27-.06,0,0,0-.28.21-.11.1-.23.21-.23.21-.12.11-.14.12-.09.11c-.13.15-.26.31-.38.47l-.09.12-.05.07-.09.14,0,.09-.16.11-.25.21-.13.12-.06,0-.24.24-.07.11-.3.44-.2.33-.39.62-.18.31-.14.21-.08.11c-.1.13-.24.33-.37.53l0,.08-.16.25v0l0,.08-.06.16a4,4,0,0,0-.16.66l0,.35a2.28,2.28,0,0,0-.3.45l0,.07v0l-.13.3a6.08,6.08,0,0,0-.5-.43l-.39-.29-.2-.15-.17-.11-.07,0-.16-.08-.6-.29a2.54,2.54,0,0,0-.52-.21l-.41-.13-.19-.06-.21-.07-.13,0c-.35-.07-.66-.12-.94-.16a4.62,4.62,0,0,0-.58,0H170l-.16,0h-.64a5.31,5.31,0,0,0-.69,0l-.38,0-.21,0-.18,0h0l-.07,0-.14,0a11,11,0,0,0-1.17.35l-.26.09-.13.05-.07,0-.11.05-.05,0-.73.36a6.67,6.67,0,0,0-.62.34l-.29.18-.4.25c-.23.15-.53.33-.7.47l-.3.23-.15.12,0,0-.16.14-.09.09c-.24.26-.5.55-.71.81l-.51.68-.61.79-.23.37-.12.18-.06.09,0,.07-.1.19c-.15.35-.32.76-.44,1.08l-.14.44-.08.22v.06l-.07.22,0,.11-.21.92-.1.47,0,.12,0,.31v.06l0,.24-.12,1,0,.24v.4l.05.66,0,.32,0,.25.07.5c0,.23,0,.64,0,1l0,.51,0,.25v.05l0,.19v.08l0,.16a11.4,11.4,0,0,0,.33,1.19,14.11,14.11,0,0,0,.88,2.19l.12.23.06.11.08.14,0,.07.35.57a7.84,7.84,0,0,0,.66.9l.08.11,0,.05c.08.1.1.12.12.13l0,0,.28.25.56.48c.34.26.57.39.88.61s.72.49,1,.68l.45.24.22.11.06,0,.17.08,0,0,.16.05.63.2.31.09.24,0,.48.1.59.11a9.16,9.16,0,0,0,1.1.15l.47,0h1.29l.46-.06.22,0h.18l.16,0h0l.59-.18.56-.19.4-.19.46-.22.49-.29.48-.3.18-.14a2.64,2.64,0,0,1,0,.28l0,.12a1.33,1.33,0,0,1,0,.2v.77l0,.19c0,.21-.1.68-.13,1.1s0,1.09,0,1.63v.55s0,.29,0,.32l0,.19a5.15,5.15,0,0,0,.13.55c0,.21,0,.49.09.72l0,.34v.2c0,.29,0,.57,0,.84s0,.46.07.69a2.54,2.54,0,0,0,0,.29v.25s0,.22,0,.24l.14.5c0,.11.07.22.11.31s.05.27.08.38,0,.15.05.22a2,2,0,0,0,0,.59,4.21,4.21,0,0,1,0,.5,7.14,7.14,0,0,0,.16,1.24,8.21,8.21,0,0,0,.38,1.18c.06.16.12.32.17.49.17.57.34,1.13.53,1.67a5.08,5.08,0,0,1,.15.52,8,8,0,0,0,.38,1.18c.19.43.41.85.62,1.25l.19.35a9.89,9.89,0,0,0,.7,1.11c.1.14.2.27.28.41q.48.76,1,1.5a3,3,0,0,1,.23.38,6,6,0,0,0,.78,1.15,12.5,12.5,0,0,0,1.11,1.09l.22.21a4.64,4.64,0,0,0,1.43.86l.18.08a2.4,2.4,0,0,1,.28.27,5.77,5.77,0,0,0,1.13.94l.39.28a6.3,6.3,0,0,0,1.19.74,4.66,4.66,0,0,0,1.64.4H189a2.81,2.81,0,0,1,.35.17,6,6,0,0,0,1.38.55,7,7,0,0,0,1.49.11c.14,0,.27,0,.4,0a10.81,10.81,0,0,0,1.48,0l.4,0a3.5,3.5,0,0,1,.37,0,6.11,6.11,0,0,0,.94.08,4.22,4.22,0,0,0,.6,0,15.1,15.1,0,0,0,1.91-.44,18,18,0,0,0,1.8-.61,9.63,9.63,0,0,0,1.21-.63l.36-.21a3.37,3.37,0,0,1,.09.34l.16.56a6.8,6.8,0,0,0,.47,1.21,2.49,2.49,0,0,1,.16.33c0,.06,0,.12,0,.18a4,4,0,0,0,.15,1.76,4.42,4.42,0,0,0,.79,1.37,1,1,0,0,0,.15.17,4.23,4.23,0,0,1,.13.51,7.86,7.86,0,0,0,.35,1.19c.14.35.3.7.46,1,.08.19.17.37.25.56a7.73,7.73,0,0,0,.58,1.05c.1.16.2.32.26.44s0,.21.06.31a4.78,4.78,0,0,0,.42,1.46,6.21,6.21,0,0,0,.73,1.09c.1.14.23.3.27.38a3.49,3.49,0,0,1,.13.39,6,6,0,0,0,.5,1.27c.19.33.4.64.62.95s.25.34.36.53.4.62.62.93l.36.53a4.34,4.34,0,0,1,.2.42,6.07,6.07,0,0,0,.61,1.18,4.42,4.42,0,0,0,1.26,1.15l.18.12.31.45c.21.31.42.63.65.92s.59.71.89,1l.27.31a5.48,5.48,0,0,1,.34.46,8.12,8.12,0,0,0,.76,1,9.83,9.83,0,0,0,.88.83l.42.37c.07.08.12.18.19.28a4.75,4.75,0,0,0,1,1.23,3.7,3.7,0,0,0,1,.59l-.4,0c-.35,0-.69,0-1,0h-.13c-.34,0-.67,0-1,0s-.73,0-1.08,0l-2.51,0-1.43,0-.95,0h-1.45l-.93,0c-.56,0-1.09.26-1.6.3l-.81.06-.9,0c-.51,0-1.32.13-1.83.18s-1.05.32-1.6.4l-.8.1c-1.16.14-2.58.68-2.52,1.86.1,2.22,2.95,2.28,5.54,2.35.75,0,1.63,0,2.63,0h2.62l1.5,0,1.71,0h2l1.21,0,1.41,0,1.23,0c.47,0,.94,0,1.4,0l1.22,0h.94l.35,0c.4.05.84.07,1.33.1s.77,0,1.19.07.86.06,1.32.08.77,0,1.17.07l1.35.09,1.12.07c.44,0,.88,0,1.34,0s.75,0,1.14,0,.69.07,1.05.11.93.11,1.41.14c.33,0,.66.08,1,.13s1,.14,1.46.17l.47,0a4.18,4.18,0,0,0,1.18.23h.15a4.68,4.68,0,0,0,.67-.05h.36a10,10,0,0,0,1.21-.08c.26,0,.52,0,.78,0h.13c.25,0,.57.08.91.14a12.66,12.66,0,0,0,1.55.21c.48,0,1,0,1.45,0,.34,0,.69,0,1,0s.95,0,1.42,0,.71,0,1.06,0a4.21,4.21,0,0,1,.69.17,7.89,7.89,0,0,0,1.76.33,11.23,11.23,0,0,0,1.53,0,7.52,7.52,0,0,1,.82-.05h.13c.47,0,.94,0,1.42,0s.7,0,1.06,0l1.16.06,1.31.07c.46,0,.92,0,1.38,0s.72,0,1.09,0l1.35,0,1.13,0a3.49,3.49,0,0,1,.73.16,7.82,7.82,0,0,0,1.74.3h.13a8.67,8.67,0,0,0,1.6-.19,5.22,5.22,0,0,1,.75-.11c.29,0,.63,0,1,.1a12.63,12.63,0,0,0,1.48.14h.14c.47,0,.94,0,1.4-.08a9.22,9.22,0,0,1,.94-.07l1.13,0c.8,0,1.58,0,2.36.11.42,0,.91.09,1.41.09h0a10.28,10.28,0,0,0,1.59-.16A8.24,8.24,0,0,1,281,328c.33,0,.66,0,1,0h.08l.61.08a3.54,3.54,0,0,0,1.07,0h.51l1.08,0a3.55,3.55,0,0,0,1.1.18h1.24l.24,0a7.21,7.21,0,0,0,.75,0h.64c.3,0,.6,0,.9,0a3.39,3.39,0,0,0,1.16-.35,3.47,3.47,0,0,0,1.33.08L293,328h.19l2.06-.09.4,0c.46,0,.92-.06,1.38-.1l1.07-.08h1.59q.44,0,.87,0c.48,0,1-.09,1.43-.16s.67-.09,1-.12.66,0,1,0a12.18,12.18,0,0,0,1.48,0,11.94,11.94,0,0,0,1.52-.23,7.5,7.5,0,0,1,.91-.15,13.43,13.43,0,0,0,1.49-.23c.32,0,.63-.12.94-.14a4.69,4.69,0,0,1,.84,0,9,9,0,0,0,1.64,0,8.37,8.37,0,0,0,1.72-.41,3.64,3.64,0,0,1,.68-.19,4.93,4.93,0,0,1,.66,0h.67a9.58,9.58,0,0,0,1.14-.06c.36,0,.72-.06,1.07-.07s.95-.05,1.39-.11a8.19,8.19,0,0,0,1.78-.49,5.32,5.32,0,0,1,.63-.2c.4-.06.78-.1,1.13-.13s.92-.09,1.37-.18c1.92-.39,3.91-.78,4-2.77a2.31,2.31,0,0,0-1.68-2.34,7.65,7.65,0,0,0-1.59-.26c-.33,0-.7-.07-1.1-.15-.23,0-.47-.11-.73-.18a11.19,11.19,0,0,0-1.75-.4l-.88-.14c-.5-.09-1-.18-1.58-.25a8.57,8.57,0,0,0-1.6,0,4.46,4.46,0,0,1-.9,0,4.59,4.59,0,0,1-.77-.17,9.42,9.42,0,0,0-1.66-.32l-.36,0c.12-.14.22-.26.3-.37a3.54,3.54,0,0,0,1.21-.65,5.67,5.67,0,0,0,.7-.74.73.73,0,0,1,.1-.13l.1-.06a4.17,4.17,0,0,0,1-.67,3.16,3.16,0,0,0,.79-1.2,4.09,4.09,0,0,0,.85-.64l.27-.27.59-.6a3,3,0,0,1,.26-.24,7.34,7.34,0,0,0,.64-.61,7,7,0,0,0,.58-.77,1.82,1.82,0,0,1,.15-.23,4.13,4.13,0,0,0,.66-1.09l0-.09.4-.54.25-.35.28-.32c.15-.17.3-.35.44-.53l.08-.06a3.7,3.7,0,0,0,.84-.81l.13-.12a4,4,0,0,0,.79-.83,4.38,4.38,0,0,0,.53-1.08.42.42,0,0,1,0-.1l.17-.21a7,7,0,0,0,.53-.69c.22-.34.45-.68.66-1l.21-.28a7.08,7.08,0,0,0,.51-.71,3.76,3.76,0,0,0,.45-1.18,3.67,3.67,0,0,0,.76-.93,3.19,3.19,0,0,0,.38-1.22,3.27,3.27,0,0,0,.76-.94,2.82,2.82,0,0,1,.18-.29,6.68,6.68,0,0,0,.46-.76,6,6,0,0,0,.35-1l.05-.18a8.43,8.43,0,0,0,.33-.83,3,3,0,0,1,.11-.32c.06-.13.13-.26.2-.39s.24-.47.34-.7a4.88,4.88,0,0,0,.3-1,.7.7,0,0,0,0-.14l.18-.43c.07-.16.14-.31.2-.48a3.37,3.37,0,0,0,.82-1.23,3.41,3.41,0,0,0,.18-1.55l.14-.44c0-.14.08-.29.11-.38l.1-.17a4.42,4.42,0,0,0,.46-1c0-.15.1-.29.16-.43.6-1.41.73-3.08,1.28-4.55C337.1,280.63,337.37,279.94,337.63,279.26Zm-54-88.46a6.69,6.69,0,0,0,.11-.84c.13-.34.24-.63.36-.89.2-.42.41-.82.64-1.23s.47-.81.74-1.2.54-.77.84-1.15.41-.49.62-.73l.32-.36c.14-.15.27-.3.4-.46a8,8,0,0,1,.55-.63c.33-.34.69-.68,1.05-1,.2-.19.43-.37.65-.54l.48-.38c.35-.29.7-.57,1.06-.84a.47.47,0,0,0,.09-.06c.2-.15.4-.31.59-.48a3.73,3.73,0,0,1,.3-.26q.32-.21.63-.39l.36-.22q.3-.19.6-.42c.11-.08.23-.17.36-.25s.34-.17.51-.25l.41-.2.11,0a4.52,4.52,0,0,0,1.15-.33,3.68,3.68,0,0,0,1.14-.87l.41-.14.25-.08h.05a4.33,4.33,0,0,0,1.32-.15c.23-.07.44-.15.66-.24a3.31,3.31,0,0,1,.41-.14,4.79,4.79,0,0,0,1-.4l.1,0H302a6.58,6.58,0,0,0,.94,0,4.58,4.58,0,0,0,1.06-.3,5,5,0,0,0,1.14.16,5.67,5.67,0,0,0,.82-.07l.26,0a5.13,5.13,0,0,0,.87,0l.23,0c.35,0,.72.11,1.07.17l.36.12.67.21a8.89,8.89,0,0,1,.88.26l.05,0a4,4,0,0,0,1,.62,7,7,0,0,0,.69.24l.31.1c.19.1.39.18.59.27a2.43,2.43,0,0,1,.36.16,1.18,1.18,0,0,1,.21.18c.2.17.41.34.63.5a4.86,4.86,0,0,0,.88.47h0a4.63,4.63,0,0,0,.68.85c.13.13.24.27.35.4s.21.26.32.37a3.43,3.43,0,0,0,.95.75,5.23,5.23,0,0,0,.39.8,4.25,4.25,0,0,0,.61.75,3.57,3.57,0,0,0,.26,1.15c.13.33.27.65.39,1a4.34,4.34,0,0,0,.59,1.08.17.17,0,0,0,0,.07,5.39,5.39,0,0,0,.1.9c0,.23.08.47.11.72l.05.35a4.37,4.37,0,0,0,.26,1A4.15,4.15,0,0,0,320,190c0,.36,0,.72,0,1.08v.24q0,.42-.06.84a5.2,5.2,0,0,0,0,1v0a4.15,4.15,0,0,0-.48,1.12,5.52,5.52,0,0,0-.12,1v.15l0,.06c-.08.27-.16.54-.26.82l-.06.08a4.77,4.77,0,0,0-.59,1l-.2.5a4.93,4.93,0,0,1-.22.53l-.09.19c-.13.27-.26.54-.41.81a4.32,4.32,0,0,0-.44,1.42v.09a8.59,8.59,0,0,0-.45,1.23.8.8,0,0,1-.08.16,3.71,3.71,0,0,0-.48,1.43,7.65,7.65,0,0,0,0,1.54v.11a4.23,4.23,0,0,0,.34,1.33c0,.06,0,.11.05.11l.07.34c.05.24.1.48.13.7s0,.33-.08.6,0,.24,0,.37a4,4,0,0,0-.65.65l-.13.18c-.14.17-.28.36-.46.55a4.33,4.33,0,0,0-.52.65l-.08,0-.4.11h-.15a5.69,5.69,0,0,0-.83.05l-.53.1-.38.07-.31,0c-.23,0-.46-.08-.69-.1a5.88,5.88,0,0,0-1,0h-.11l-.16-.07a7.47,7.47,0,0,0-.79-.29,5.2,5.2,0,0,0-.95-.15h-.07l0,0a5,5,0,0,0-.88-.57,4.62,4.62,0,0,0-1.11-.33l-.13-.12a5.36,5.36,0,0,0-.43-.4.91.91,0,0,1-.11-.16c-.13-.19-.27-.38-.41-.55l-.34-.38a3.09,3.09,0,0,1-.28-.31c-.11-.18-.23-.34-.35-.51a2.48,2.48,0,0,1-.18-.24l-.12-.25a3.76,3.76,0,0,1-.25-.61l-.15-.46a3.4,3.4,0,0,1-.14-.44,1.51,1.51,0,0,1,0-.3c0-.25,0-.49,0-.73s0-.37,0-.56a3.89,3.89,0,0,1,0-.49c0-.16,0-.32.06-.48l.09-.61q0-.34,0-.72a1.41,1.41,0,0,1,0-.2,3.9,3.9,0,0,0,.53-1.29,3.32,3.32,0,0,0,0-1.32,3.94,3.94,0,0,0,.43-1.06c0-.17.08-.35.12-.52s.12-.46.17-.7a4,4,0,0,0,0-1.37v-.06l.06-.24c.08-.27.15-.54.21-.8a.37.37,0,0,1,.05-.11,4.46,4.46,0,0,0,.4-1.3,5.72,5.72,0,0,0,0-1.09,1.63,1.63,0,0,1,0-.31c0-.4,0-.8,0-1.2v-.24c0-.1,0-.19,0-.29a5.55,5.55,0,0,0,0-1.21,3.87,3.87,0,0,0-.53-1.42l-.06-.11a7.55,7.55,0,0,0-.61-1.46,5.81,5.81,0,0,0-1.13-1.42,5,5,0,0,0-1.58-1.13,4.88,4.88,0,0,0-1.79-.38l-.08,0a3.62,3.62,0,0,0-1.86-.11,5.72,5.72,0,0,0-1.34.54l-.23.12a4.62,4.62,0,0,0-1.11.8,1.29,1.29,0,0,1-.17.15l-.15.11a7.15,7.15,0,0,0-1,.78l-.14.09a4.61,4.61,0,0,0-1.06.94c-.24.31-.49.61-.72.89s-.32.36-.48.53l-.3.32c-.13.13-.26.26-.4.38l-.42.4a4.67,4.67,0,0,0-.72,1l0,0-.14.09a5.89,5.89,0,0,0-.71.48,5.41,5.41,0,0,0-.68.67.45.45,0,0,0-.09.11,2.47,2.47,0,0,1-.36.19c-.2.1-.4.19-.58.3s-.45.29-.66.44l-.17.13-.21,0a5.59,5.59,0,0,0-.71.15c-.19,0-.37.12-.55.18a3.59,3.59,0,0,0-.54-.21l-.32-.09s0-.07,0-.11l-.09-.21-.13-.32S283.6,190.81,283.6,190.8Zm-4.85,13.53c.13-.27.26-.53.4-.79.26-.49.55-1,.81-1.68a15.76,15.76,0,0,0,.61-1.84c.07-.28.15-.55.24-.82s.2-.49.3-.73a10.91,10.91,0,0,0,.72-1.94,6.55,6.55,0,0,0,.17-.91,5.93,5.93,0,0,0,.65.19h.09l.12.06a3.68,3.68,0,0,0,1.94.49,4.3,4.3,0,0,0,1.43-.36l.25-.09.21,0a5,5,0,0,0,1.33-.36,5.88,5.88,0,0,0,1-.62,2.4,2.4,0,0,1,.26-.18,2.44,2.44,0,0,1,.28-.14,8,8,0,0,0,1-.55,4.91,4.91,0,0,0,.86-.8l.15-.17.21-.13a5.5,5.5,0,0,0,.92-.65,4,4,0,0,0,.81-1.06l.07-.11a2.61,2.61,0,0,1,.24-.22c.22-.21.44-.42.66-.65l.25-.28c.22-.22.43-.46.65-.71s.5-.6.75-.92l.09-.06a4.94,4.94,0,0,0,.74-.58,3.65,3.65,0,0,1,.48-.38l.18-.13a5.55,5.55,0,0,0,.58-.49l.11-.1.26-.13.07,0a4.29,4.29,0,0,0,.8.13h.29s.09.07.26.24a1.89,1.89,0,0,1,.32.35,3.44,3.44,0,0,1,.26.62,4.93,4.93,0,0,0,.43,1,.57.57,0,0,1,0,.13c0,.25,0,.51,0,.76v.26a6.77,6.77,0,0,1,0,.78,7,7,0,0,0,0,.79c0,.07,0,.14,0,.21a.08.08,0,0,0,0,.05,4.6,4.6,0,0,0-.39,1.15,2.36,2.36,0,0,1-.1.38c-.07.25-.14.5-.19.76a4.08,4.08,0,0,0,0,1.3s0,0,0,.07-.06.26-.1.39l-.12.5,0,.06a3.94,3.94,0,0,0-.54,1.27,3.42,3.42,0,0,0,0,1.37,3.27,3.27,0,0,0-.44,1.21,6.74,6.74,0,0,0-.08,1c0,.12,0,.24,0,.35s0,.25-.05.38l-.54,0c-.27,0-.52.06-.69.06l-.83-.07c-.68-.07-1.51-.07-2.33-.17a10.14,10.14,0,0,0-1.62-.08,6.3,6.3,0,0,0-1.77.38,3.86,3.86,0,0,1-.59.16,14.87,14.87,0,0,0-1.57.28c-.26.06-.52.12-.78.16a4.19,4.19,0,0,1-.6,0,6.62,6.62,0,0,0-1.84.09c-.84.2-1.59.37-2.36.6a8.67,8.67,0,0,0-1.57.68,4.45,4.45,0,0,1-.66.32,3.44,3.44,0,0,1-.61.13,6.49,6.49,0,0,0-1.79.48c-.17.08-.32.17-.48.26C278.44,204.94,278.6,204.64,278.75,204.33Zm-56.93-1.82a5.78,5.78,0,0,0-1-.46,7.54,7.54,0,0,0-.82-.2,3.06,3.06,0,0,1-.39-.1,5.19,5.19,0,0,0-1-.28,4,4,0,0,0-.84-.88,3.24,3.24,0,0,1-.6-.54l-.16-.19-.19-.23a3.32,3.32,0,0,1,0-.35c0-.16,0-.32,0-.48l0-.23a4.7,4.7,0,0,1,0-.58l0-.29a4.35,4.35,0,0,1,.1-.55c.07-.17.13-.34.19-.51s.12-.34.15-.4c.18-.28.34-.53.5-.73l.06,0a4.47,4.47,0,0,0,1.08-.71,4.14,4.14,0,0,0,.8-1l.05-.09c.29-.22.59-.43.89-.64s.42-.31.63-.47l.28-.22h.08a4.3,4.3,0,0,0,1.34-.44l.62-.31.56-.28a5.43,5.43,0,0,0,.94-.63l.18-.14c.2-.1.41-.19.61-.27l.64-.28c.2-.1.41-.18.61-.27l.65-.28a8.92,8.92,0,0,0,.86-.47l.36-.21a2.12,2.12,0,0,0,.51-.33,2.2,2.2,0,0,0,.64-.18,5,5,0,0,0,1.17-.8c.09-.07.18-.16.26-.21a4.46,4.46,0,0,1,.43-.12,6.66,6.66,0,0,0,1.21-.39,5,5,0,0,1,.55-.17,8.22,8.22,0,0,0,1.06-.35,3.61,3.61,0,0,0,.68-.35c.2-.13.38-.25.52-.36a2.11,2.11,0,0,1,.24-.18,3.9,3.9,0,0,1,.45-.09,7.54,7.54,0,0,0,1.18-.26,7.4,7.4,0,0,0,1-.44,3.94,3.94,0,0,1,.49-.21l.74-.23a7.88,7.88,0,0,1,.83-.24c.07,0,.3,0,.45,0a5.47,5.47,0,0,0,1.18-.07c.52-.08,1-.17,1.57-.22s1-.07,1.57-.08l.76,0a5.38,5.38,0,0,1,.78,0,14.53,14.53,0,0,1,1.52.2l.43.17a7.56,7.56,0,0,0,1,.37l.22.07a10.43,10.43,0,0,1,1.19.38l.34.14a9.76,9.76,0,0,1,1,.45c.24.13.49.25.74.36a4.59,4.59,0,0,1,.6.31c.27.2.57.46.89.75l.26.23.73.62.59.5c.32.29.64.56.95.81l.42.34a4,4,0,0,1,.35.36,5.77,5.77,0,0,0,1,1,16.83,16.83,0,0,0,1.75,1.05,15.81,15.81,0,0,0,1.88.8,6.29,6.29,0,0,0,1.36.29c.18,0,.36,0,.55.1.55.14,1.15.27,1.81.4.08,0,.29.12.45.19a8.84,8.84,0,0,0,.92.37,9.32,9.32,0,0,1,1.17.5l.12.05a8.88,8.88,0,0,1,1.14.69,7,7,0,0,0,.75.44l.37.21a7,7,0,0,1,.83.94,3.63,3.63,0,0,1,.23.6c.06.18.12.36.19.54a5.28,5.28,0,0,1,.3,1.17l.12.64a3.55,3.55,0,0,1,.11.64,9.22,9.22,0,0,1-.14,1.37,5.39,5.39,0,0,1-.23.75,6.26,6.26,0,0,0-.21.61c-.05.13-.16.35-.28.58s-.25.49-.37.75-.47,1.09-.78,1.91a1.53,1.53,0,0,0-.11-.27,17.92,17.92,0,0,0-.91-1.75l-.28-.48a24.59,24.59,0,0,0-1.36-2.13c-.14-.19-.26-.39-.39-.6a9.51,9.51,0,0,0-1.06-1.5c-.55-.6-1.15-1.2-1.8-1.79a11,11,0,0,0-1.38-1c-.23-.15-.46-.3-.67-.46-.77-.6-1.42-1.08-2-1.5l-.64-.45c-.47-.32-.94-.67-1.48-1s-1.19-.59-1.72-.82L257,192l-.72-.35a14.81,14.81,0,0,0-1.6-.72c-.79-.28-1.54-.48-2.26-.67l-.29-.08c-.77-.2-1.58-.42-2.39-.57s-1.45-.21-2.13-.29l-.37,0a14.72,14.72,0,0,0-1.69-.08c-.28,0-.55,0-.82,0l-.66,0-1.79-.09c-.38,0-.75-.05-1.11-.08s-.86-.09-1.27-.1h-1a9.39,9.39,0,0,1-1.23,0,4.61,4.61,0,0,1-1.59-.43,1.9,1.9,0,0,0-.83-.22,2,2,0,0,0-1,3.78,8.74,8.74,0,0,0,3,.85,14.07,14.07,0,0,0,1.71.05h.86c.3,0,.62,0,1,.07s.94.1,1.44.11,1.07.05,1.63.09l.69,0,1,0c.45,0,.88,0,1.29.05l.39,0c.61.07,1.24.13,1.85.25s1.35.3,2.17.52l.2,0c.68.18,1.31.35,1.94.58a9.51,9.51,0,0,1,1.16.53l.85.41.66.3a13.23,13.23,0,0,1,1.36.64c.35.2.72.46,1.12.74l.73.51c.54.36,1.11.79,1.8,1.33.3.23.62.45,1,.66a8,8,0,0,1,.89.64c.55.5,1.06,1,1.51,1.5a6.23,6.23,0,0,1,.61.89c.18.3.36.6.56.87.42.59.79,1.16,1.13,1.75l.29.52a12.62,12.62,0,0,1,.71,1.33c.25.59.46,1.18.65,1.73a2.68,2.68,0,0,0-.28.18,3.88,3.88,0,0,0-.9,1.08,4.92,4.92,0,0,0-1,.48l-.26.1a5.58,5.58,0,0,0-.92.4,3.69,3.69,0,0,0-1,.88,4.52,4.52,0,0,0-1.11.27,4.81,4.81,0,0,0-.95.5c-.06,0-.12.08-.12.1l-.61.2-.43.14h-.13a4.37,4.37,0,0,0-1.18,0c-.39,0-.79.08-1.15.08a10.59,10.59,0,0,1-1.14-.06l-.74,0a2.49,2.49,0,0,1-.42,0,9,9,0,0,1-1-.28l-.12-.09a4.7,4.7,0,0,0-1-.58l-.39-.17a6.56,6.56,0,0,1-.67-.3l-.34-.17a5.89,5.89,0,0,1-.63-.37c-.24-.17-.49-.32-.74-.47s-.21-.11-.28-.16-.31-.33-.46-.5-.27-.31-.41-.45-.29-.31-.43-.46l-.53-.54c-.21-.24-.43-.47-.66-.7l-.34-.34c0-.06-.08-.14-.13-.21a4.51,4.51,0,0,0-.87-1.13,13.65,13.65,0,0,0-1.36-1.07,11.67,11.67,0,0,0-1.56-.9,4.64,4.64,0,0,0-1.48-.4l-.18,0a12.19,12.19,0,0,0-1.47-.33l-.18-.07a4.61,4.61,0,0,0-1.4-.38l-.4,0c-.36,0-.72-.07-1.08-.07l-.45,0c-.33,0-.66,0-1,0a4.92,4.92,0,0,0-1.29.26l-.16.06c-.26,0-.52.05-.77.08l-.49.05-.27,0a5.78,5.78,0,0,0-1.08-.05l-1.26.07a4.38,4.38,0,0,0-.68.08,2.18,2.18,0,0,0-.87.11h0c-.29,0-.59,0-.92,0a3.06,3.06,0,0,1-.4-.07,9.09,9.09,0,0,0-.91-.15l-.32-.08a6.28,6.28,0,0,0-1-.22,7.46,7.46,0,0,0-.95,0h-.39c-.25,0-.51-.1-.76-.16l-.54-.12c-.24-.05-.48-.08-.72-.12s-.39-.05-.51-.08A2.53,2.53,0,0,1,221.82,202.51Zm-16.89,80.75a3.53,3.53,0,0,1-.36.46l-.42.43c-.21.21-.42.43-.65.63l-.36.32c-.26.22-.52.45-.78.65a3.14,3.14,0,0,1-.37.18,6.57,6.57,0,0,0-1,.5c-.4.25-.85.48-1.28.71-.22.12-.44.24-.65.37a4.28,4.28,0,0,1-.61.33,13.79,13.79,0,0,1-2.61.76,2,2,0,0,1-.34,0c-.29,0-.63-.07-1-.08l-.49,0a7.78,7.78,0,0,1-.84,0c-.31,0-.62,0-.94,0h-.4a2,2,0,0,1-.33-.16,7.48,7.48,0,0,0-1-.43,5.4,5.4,0,0,0-1.25-.23l-.22,0-.36-.25a8,8,0,0,0-.7-.48,3.19,3.19,0,0,1-.26-.26,6.53,6.53,0,0,0-.79-.72,5.2,5.2,0,0,0-1.12-.62l-.22-.09-.17-.16c-.29-.27-.57-.52-.79-.77,0,0-.14-.24-.22-.37a8.78,8.78,0,0,0-.54-.86c-.28-.38-.55-.78-.8-1.18-.14-.22-.29-.44-.44-.65a5.88,5.88,0,0,1-.37-.56l-.22-.42a8.39,8.39,0,0,1-.45-.9,5.13,5.13,0,0,1-.17-.54,6.38,6.38,0,0,0-.26-.88c-.16-.46-.31-.94-.45-1.43-.08-.27-.18-.55-.28-.82a2.27,2.27,0,0,1-.25-1.09,8.78,8.78,0,0,0-.1-.88.33.33,0,0,0,0-.1s0-.26-.08-.73c0-.12,0-.25-.06-.39s-.08-.37-.12-.58l-.09-.41v0l0-.15,0-.29,0-.31a1.43,1.43,0,0,1,0-.26,3.2,3.2,0,0,0,0-.5v-.52l0-.36c0-.25-.06-.47-.11-.76s-.17-.74-.22-.94l0-.13,0-.38c0-.52-.05-1.05-.07-1.58a2.47,2.47,0,0,0,0-.5l0-.2v-.44l0-.4,0-.39c0-.06,0-.14,0-.19l0-.27c-.07-.39-.12-.63-.18-.87v-.13h0l.19,0,.58,0h.47l.41-.05a3.41,3.41,0,0,0,.8-.22,2.61,2.61,0,0,0,.7-.35l.11-.07,0,0h0l.08,0h0l0,0,.19-.15c.13-.11.28-.22.44-.37a2.78,2.78,0,0,0,.4-.48.58.58,0,0,0,.09-.27h0a1.34,1.34,0,0,0-.07-.39,1.32,1.32,0,0,0-1.25-.9,1.23,1.23,0,0,0-.42.07.45.45,0,0,0-.22.18c0,.05-.05,0-.05,0a.07.07,0,0,1,0-.05,1,1,0,0,0-.23.08l-.22.09h0l0,0H181l-.12,0a.36.36,0,0,1-.29,0h-.47l-.14,0-.59-.07-.27-.12-.13,0h0l-.1,0v-.15c0-.16,0-.32,0-.46s0-.25,0-.34a4.49,4.49,0,0,0,0-.55.91.91,0,0,0,0-.2l0-.05a1.58,1.58,0,0,0-.24-.39.13.13,0,0,0,0-.06c0-.14,0-.26.06-.38s0-.43.07-.59c0-.32,0-.5,0-.5a1.35,1.35,0,0,0-2.63-.44,3.88,3.88,0,0,0-.13.48c-.06.26-.14.66-.25,1.16-.1.28-.21.6-.34.94-.05.16-.11.32-.17.49l0,.08-.15.26a5.76,5.76,0,0,1-.64.91l-.44.57a4.73,4.73,0,0,1-.39.39l-.09.09-.05,0-.32.23-.32.23-.25.11-.2.11h0l0,0-.1,0-.2.08-.41.16a1.57,1.57,0,0,1-.28.06l-.23.06h-.11l-.22,0-.46,0-.34,0h-.25l-.46-.06a5.49,5.49,0,0,1-.8-.15l-.84-.21-.24-.06-.16-.06-.32-.12-.06,0-.19-.11-.43-.25c-.26-.16-.42-.31-.64-.46s-.59-.41-.79-.58-.34-.27-.38-.36a5.7,5.7,0,0,1-.53-.78l-.18-.32,0,0,0-.1-.11-.24-.22-.45-.13-.35c0-.12-.09-.22-.13-.35l-.16-.49c-.13-.37-.13-.53-.21-.8l0-.08v-.19l0-.51c0-.37,0-.63,0-1.07l-.06-.5,0-.25V252l0-.34v-.1l0-.24c0-.33.09-.65.13-1l0-.16v-.06l.11-.47.21-.92v-.07l.07-.21.14-.44.22-.55,0-.06.12-.19.23-.36.44-.55.47-.64q.16-.21.33-.39l0,0,.13-.1.29-.23a6,6,0,0,1,.51-.35l.47-.3a4.63,4.63,0,0,1,.51-.3l.36-.19h0l.13,0,.26-.11a7.15,7.15,0,0,1,.75-.24l.07,0h.12l.38,0a2.33,2.33,0,0,1,.5,0h.24l.46.07a3.46,3.46,0,0,1,.48.07,2.45,2.45,0,0,0,.41.11h0l.19.06.4.14a1.06,1.06,0,0,1,.3.14l.22.11.07,0h0l.15.1.41.28c.2.15.3.27.47.39h0l.08.09.18.18c.1.12.26.26.31.34a2.88,2.88,0,0,0,.22.27l.1.1s0,0,0,0l0,0,.07.1.5.76c.08.12.16.24.23.36l.11.16,0,0,0-.05a.09.09,0,0,1,0,.06h0c.21.42.4.77.52,1a2.53,2.53,0,0,0,.17.31.32.32,0,0,0,.09.09l0,0a1.91,1.91,0,0,0,.48.22,1.54,1.54,0,0,0,1.91-.7c0-.08.07-.37.09-.46a.73.73,0,0,0,0-.13,2.51,2.51,0,0,0-.08-.33c0-.14-.08-.31-.13-.5l.08-.08a.9.9,0,0,0,.1-.16c0-.13.08-.23.17-.51s.07-.28.12-.44,0-.35,0-.54,0-.18,0-.29v0h0l0-.06a2.58,2.58,0,0,1,.08-.26c0-.18.1-.36.16-.55s.07-.27.11-.4l.07-.07.23-.21a4.15,4.15,0,0,0,.37-.53l.08-.14,0-.07v0l.11-.32,0-.08.06-.19c0-.1,0-.2,0-.3l.35-.42.12-.14,0,0h0l0-.06.22-.3.64-.95.07-.05.3-.24.36-.29.05,0h0l.18-.22h0l.05-.07.1-.14.15-.22a.08.08,0,0,0,0-.07v0h0l-.05.05v0l0,0h0l.09-.09.23-.21.23-.22,0,0,.44-.27.26-.15.06,0h0l.1-.07,0,0,.09-.08c.11-.09.22-.18.31-.27l.08-.07,0,0h0l.18-.09.62-.31a2.2,2.2,0,0,0,.26-.15l.1,0a6.51,6.51,0,0,0,.88-.3,9.06,9.06,0,0,0,.82-.42,1.33,1.33,0,0,1,.3-.17,4.87,4.87,0,0,1,.57-.08l.61-.07c.12,0,.25,0,.37,0a6.76,6.76,0,0,0,1,0l.58-.07c.24,0,.48-.06.72-.07s.52,0,.78-.06a3,3,0,0,1,.46,0,3.37,3.37,0,0,1,.34.1,8.28,8.28,0,0,0,.81.24c.22.05.43.08.65.11l.41.07.35.12a2.67,2.67,0,0,0,.78.68,3.3,3.3,0,0,0,1,.36,3,3,0,0,0,.41.18h0l.14.13.22.21a4.94,4.94,0,0,0,.56.44l.1.07.28.24a2.92,2.92,0,0,0,.55,1,2.77,2.77,0,0,0,.82.62,3.21,3.21,0,0,0,.23.38c.11.14.24.29.41.47a6.11,6.11,0,0,0,.26.62h0a4,4,0,0,0,.32.84,2.71,2.71,0,0,0,.54.73,4.91,4.91,0,0,0,.15.51c.07.18.13.37.19.55l.06.24a5.6,5.6,0,0,0,.12.59c0,.06,0,.09.06.14a2.44,2.44,0,0,0,0,.54V245l.27,1.5q0,.4.12.9l0,.25,0,.11c0,.17,0,.35,0,.53s0,.39,0,.59v.35c0,.22-.05.44-.07.66l-.05.36,0,.19v.14h0v.2l0,.71c0,.19,0,.33,0,.49,0,0,0,.09,0,0v.09l0,.2,0,.38-.09.79c-.09.44-.19.89-.29,1.34-.08.28-.15.56-.23.84s-.19.66-.23.92l-.15.87-.08.44,0,.24v.2l0,.23c0,.27,0,.65,0,.85v.24c0,.12-.08.35-.11.45l0,.17-.08.35,0,.18s0,.22,0,.33,0,.25,0,.37v0l0,.47v.46l0,.23v.19c0,.15.13.43.15.48l.1.21c.12.24.4,1,.4,1s.47.37.55.5a3.57,3.57,0,0,0,.34.43l.2.2.1.09,0,0h0s.12.09.35.23h0l.1.06.15.07a4.59,4.59,0,0,0,.48.17l.47.1h.16l.18,0h0l.3,0h.26c.17,0,.78-.1.78-.1l.11,0,.64-.11a3.42,3.42,0,0,0,.72-.15l.2-.07,0,0h0l.2-.1,0,0,.1-.06.2-.12.39-.25.31-.2,0,0,.09-.07.18-.14.18-.14.09-.07,0,0,0,0,.19-.16h0l1.51-.86,0,0a12.87,12.87,0,0,1,1.47-.62l.26-.1.58-.11s1.14.32,1.22.39l.12.09h0l.06,0,.3.19.27.16h0l0,0,.06.05.53.44.22.17a5,5,0,0,1,.39.64,2.34,2.34,0,0,0,.12.38,3.94,3.94,0,0,0,.17.38l.1.21.18.39.38.7,0,.06,0,0,.19.28h0v0a2.28,2.28,0,0,1,0,.26l0,.46c0,.06,0,.28-.05.41l-.13.91,0,.23v.06h0v.72l0,.91v0l0,.18-.07.36-.19,1a17.53,17.53,0,0,0-.26,1.79c0,.31,0,.63-.05.94l0,.22v.07l-.08.29-.21.74-.06.2,0,.18v.1l0,.19a3.87,3.87,0,0,0-.05.69v.27c0,.12,0,.05,0,.08l0,0a1.26,1.26,0,0,1,0,.16l0,.11a1.94,1.94,0,0,1-.17.3c-.1.17-.25.43-.28.51l-.07.17-.08.18,0,.09-.12.36-.12.32,0,0a1.37,1.37,0,0,1-.22-.19,7.06,7.06,0,0,0-1.81-1.29,5.59,5.59,0,0,0-2.36-.58l-.27,0a4.79,4.79,0,0,0-2.08.17,8.76,8.76,0,0,0-1.86,1,11.27,11.27,0,0,0-1.49,1.19l-.21.19a11.55,11.55,0,0,0-1.08,1C205.3,282.76,205.11,283,204.93,283.26Zm132-28.54a7.78,7.78,0,0,0-.24,1.55c0,.57-.06,1.16-.1,1.75l0,.43a5.77,5.77,0,0,0,.22,1.78,4,4,0,0,1,.09.42,3.52,3.52,0,0,1-.16.35,5.37,5.37,0,0,0-.62,1.81c-.05.38-.08.76-.1,1.15a9.15,9.15,0,0,1-.1,1,6.85,6.85,0,0,0,0,1.63c0,.21,0,.51,0,.54s-.14.26-.22.4a5.93,5.93,0,0,0-.75,1.74c-.07.37-.13.74-.19,1.11s-.11.71-.19,1.06a5.81,5.81,0,0,0-.12,1.26,2.18,2.18,0,0,0-.47.92,7.81,7.81,0,0,0-.14.82,1.88,1.88,0,0,1-.05.33c-.06.27-.1.55-.14.82a3,3,0,0,1,0,.33,4,4,0,0,0-.09,1.27v0c0,.07-.05.14-.08.22a7.41,7.41,0,0,0-.24.76c-.06.22-.1.44-.15.66s-.06.32-.1.48-.11.48-.16.73l0,.16a3.58,3.58,0,0,0-.69,1.27c-.06.2-.13.4-.19.6l-.15.49a4.63,4.63,0,0,0-.17,1.07.76.76,0,0,1,0,.15l-.15.41c-.07.2-.15.4-.19.54l-.09.17a4.45,4.45,0,0,0-.46.93l-.18.57c-.05.17-.1.35-.16.52a3.14,3.14,0,0,0-.18,1.21,3.3,3.3,0,0,0-.58.94l-.24.56-.21.49a4.83,4.83,0,0,0-.28,1l0,.14c-.06.15-.14.3-.21.44s-.2.39-.29.59a5.8,5.8,0,0,0-.28.73c0,.11-.08.23-.13.34a6,6,0,0,0-.32.91l0,.18a2.68,2.68,0,0,1-.18.28l-.25.41a3.46,3.46,0,0,0-1,1.12,3.38,3.38,0,0,0-.36,1.29,3.69,3.69,0,0,0-.61.77,4.09,4.09,0,0,0-.45,1.21v0l-.12.15a7.24,7.24,0,0,0-.48.65c-.2.32-.41.64-.62,1a2.88,2.88,0,0,1-.22.27c-.17.21-.34.41-.49.63a5.21,5.21,0,0,0-.5,1,0,0,0,0,1,0,0l0,0a4.45,4.45,0,0,0-.68.69l-.08.06a4.19,4.19,0,0,0-.85.82l-.32.38-.41.48c-.14.18-.28.36-.41.55s-.17.25-.26.36a4.09,4.09,0,0,0-.62,1.05l0,.08a5.79,5.79,0,0,0-.42.59c-.06.08-.1.16-.15.22l-.27.24c-.19.17-.39.34-.57.53s-.33.35-.51.52l-.2.2-.08.05a4.22,4.22,0,0,0-1,.68,3.11,3.11,0,0,0-.75,1.15,4.19,4.19,0,0,0-.76.54,5.55,5.55,0,0,0-.65.69v0a3.62,3.62,0,0,0-1.19.61,4.58,4.58,0,0,0-.77.85l-.06.08-.44.32-.17.12a3.74,3.74,0,0,0-1.33.55,7.91,7.91,0,0,0-.63.52,2.31,2.31,0,0,1-.24.2,3.55,3.55,0,0,0-.89.9,4.35,4.35,0,0,0-.93.41c-.1.06-.2.09-.3.14a6,6,0,0,0-.72.35,4,4,0,0,0-1,.81l0,0-.36.21-.47.26-.49.22-.53.24c-.2.09-.39.2-.59.3l-.25.13a3.89,3.89,0,0,0-1.31.27,5.34,5.34,0,0,0-.81.43l-.18.1a7.12,7.12,0,0,0-.74.35,2.39,2.39,0,0,1-.28.13l-.59.23h0a3.09,3.09,0,0,0-1.64,0,3.67,3.67,0,0,0-1,.49,4.19,4.19,0,0,0-1.11.08,3.26,3.26,0,0,0-1.44.78l-.39.13h0a3.51,3.51,0,0,0-1.38-.13,3.74,3.74,0,0,0-1.28.45h-.88l-.24,0a5.77,5.77,0,0,0-.9-.05h-.95a4,4,0,0,0-1.26-.27,5.53,5.53,0,0,0-.9.06l-.2,0a5.28,5.28,0,0,0-1.07.07l-.13,0a4.61,4.61,0,0,1-.5-.07l-.4-.06-.1,0a4.61,4.61,0,0,0-1.06-.33c-.2,0-.39-.06-.59-.08a4.33,4.33,0,0,1-.5-.08l-.73-.16-.32-.08a5,5,0,0,0-1-.11h-.11l-.47-.12-.58-.16c-.22-.07-.45-.12-.67-.17l-.31-.08-.09-.07a4.46,4.46,0,0,0-.93-.52,4.35,4.35,0,0,0-1.16-.26h-.06l-.28-.16-.57-.3c-.22-.1-.45-.19-.67-.27l-.2-.08a3.66,3.66,0,0,0-1.05-.84l-.49-.27-.52-.28a3,3,0,0,0-1.12-.33,2.86,2.86,0,0,0-1-.81,7.05,7.05,0,0,0-.89-.34,1.82,1.82,0,0,1-.3-.11,3.41,3.41,0,0,0-1.14-.26,4.69,4.69,0,0,0-.45-.38h0a4.93,4.93,0,0,0,1.35-.83c.32-.29.64-.6.95-.92l.34-.33a2.12,2.12,0,1,0-3-3l-.35.35-.77.75-.29.14a5.09,5.09,0,0,0-1.23.73c-.26.22-.5.47-.74.71a4.36,4.36,0,0,1-.43.43,8.61,8.61,0,0,0-.8.73,4.48,4.48,0,0,1-.41.39c-.12.09-.33.19-.54.31a7.65,7.65,0,0,0-.88.5c-.26.17-.5.35-.74.54s-.38.29-.58.42l-.36.21c-.34.22-.69.43-1,.62s-.79.41-1.19.6l-.74.37c-.33.17-.65.33-1,.47l-.41.08a6.46,6.46,0,0,0-1.19.3,5.49,5.49,0,0,0-1.15.63c-.1.06-.19.14-.27.18a6.8,6.8,0,0,1-.75.18c-.28.06-.56.12-.83.2s-.5.1-.76.15-.55.09-.82.15a5.66,5.66,0,0,0-1.15.4l-.31.12-.19,0a4.46,4.46,0,0,0-1.53-.11c-.31,0-.6.09-.9.14a4.18,4.18,0,0,1-.68.11c-.3,0-.6.06-.9.1a5.51,5.51,0,0,1-.71.07,6.28,6.28,0,0,0-1.21.17l-.35.07a1.91,1.91,0,0,1-.34-.1,5.55,5.55,0,0,0-1.29-.31l-.87,0c-.25,0-.49,0-.74,0s-.64-.12-1-.19l-.61-.13-.8-.13a6.53,6.53,0,0,1-.77-.14,3,3,0,0,1-.37-.18,5.86,5.86,0,0,0-1.11-.5l-.83-.22a5.75,5.75,0,0,1-.71-.2,5.19,5.19,0,0,0-1.38-.27h-.24a4.2,4.2,0,0,1-.58-.33c-.27-.16-.54-.33-.81-.47a5.09,5.09,0,0,1-.63-.39c-.24-.16-.48-.32-.73-.46s-.44-.25-.67-.36-.49-.26-.72-.41a2.37,2.37,0,0,1-.32-.32,6.72,6.72,0,0,0-.85-.78,4.86,4.86,0,0,0-1.31-.66l-.18-.06a2.39,2.39,0,0,1-.13-.21,5.1,5.1,0,0,0-.82-1.07c-.19-.19-.4-.37-.6-.55a5.67,5.67,0,0,1-.58-.52,4.62,4.62,0,0,1-.37-.5c-.19-.27-.39-.53-.6-.79l-.28-.32c-.26-.3-.52-.59-.77-.91s-.3-.42-.45-.63-.31-.47-.48-.7a4.47,4.47,0,0,0-1.2-1.06l-.15-.1c-.05-.09-.1-.23-.15-.33a6.32,6.32,0,0,0-.54-1.07q-.21-.33-.45-.66c-.16-.23-.32-.46-.47-.7s-.33-.52-.51-.78-.28-.39-.4-.59a3.49,3.49,0,0,1-.13-.39,5.86,5.86,0,0,0-.45-1.17,6.4,6.4,0,0,0-.67-1c-.1-.13-.24-.31-.25-.31s0-.22-.06-.32a5,5,0,0,0-.38-1.37,9.28,9.28,0,0,0-.52-.93,2.9,2.9,0,0,1-.29-.51l-.29-.63c-.13-.29-.26-.58-.38-.87a4.53,4.53,0,0,1-.14-.54,10.31,10.31,0,0,0-.3-1.05,4.71,4.71,0,0,0-.77-1.29l-.07-.1v-.09a4.15,4.15,0,0,0-.11-1.63,7.27,7.27,0,0,0-.44-1.08,2.72,2.72,0,0,1-.19-.43c-.06-.21-.12-.42-.17-.62s-.18-.63-.25-.94a3.31,3.31,0,0,1-.06-.54l.5-.41.32-.29a11.63,11.63,0,0,0,.95-.91l.35-.35a7.66,7.66,0,0,0,.85-1c.1-.13.19-.26.29-.38a9.47,9.47,0,0,1,.71-.68l.23-.21a8,8,0,0,1,.92-.75,5.27,5.27,0,0,1,.8-.45l.29,0,.5,0a1.13,1.13,0,0,1,.51.1l.21.13.23.41.38.61c.11.14.22.3.34.47l.07.09.18.18a4.15,4.15,0,0,0,.44.38,3.12,3.12,0,0,0,1.08.49,5.68,5.68,0,0,0,.61.07h.08l.27,0h.07l.13,0a3.5,3.5,0,0,0,1.28-.55,4.8,4.8,0,0,0,.76-.7L219,285l.15-.21.09-.13.18-.28a6,6,0,0,0,.4-.7l.11-.19.05-.1,0-.05v0l.05-.11.15-.32.3-.67.16-.34v0h0l0,0,.09-.16c.08-.16.1-.11.13-.15a3.44,3.44,0,0,0,.24-.34,4.38,4.38,0,0,0,.34-.64l.08-.19,0-.1,0-.05.06-.23,0-.2a1.64,1.64,0,0,0,0-.24l0-.38,0-.48a.2.2,0,0,1,0-.09l.07-.2c.1-.26.2-.51.32-.89l.17-.52v0h0a.63.63,0,0,0,0-.17v-.16l0-.22c0-.27.07-.54.1-.82.07-.57.23-1.17.34-1.76l.19-.81.11-.53.05-.28,0-.13h0v0s0-.1,0-.22v-1l0-.37v-.23l0-.22.12-.92c0-.17,0-.26.05-.5l0-.46c0-.63.08-1.26.11-1.88l0-.45,0-.23v-.4c0-.29-.05-.59-.07-.88l0-.39,0-.2v-.07c0-.29,0-.58.07-.87s.06-.73,0-1.07l-.06-.84-.06-.88c0-.27-.07-.54-.1-.8s-.07-.5-.1-.74l-.06-.76c0-.29-.05-.57-.08-.84v-.16l0-.12v0l0-.18-.08-.34c0-.22-.1-.44-.16-.65l-.08-.31,0-.06a.08.08,0,0,1,0,0h0v0l0-.09-.09-.61-.12-.7c0-.11,0-.23-.07-.34l-.05-.17v-.05l0-.06-.05-.12-.2-.47c-.13-.3-.27-.58-.39-.83v0l-.07-.17h0l0,0,0-.09-.09-.16-.17-.29a5,5,0,0,0-.33-.51l-.31-.45a1.48,1.48,0,0,0-.25-.25,2,2,0,0,0-.14-.23,2.89,2.89,0,0,0-.92-.93,2.55,2.55,0,0,0-1.08-.37h-.27l-.25,0h-.12l-.27,0a3.35,3.35,0,0,0-.66.26,2.16,2.16,0,0,0-.31.17l-.18.14-.37.31-.29.31-.14.15-.07.08,0,.05,0,0h0l-.06.08-.17.23c-.11.17-.22.28-.35.51l-.39.73-.1.18,0,.05h0l0,.1v0l0,.07-.12.29c-.15.39-.31.79-.47,1.19l-.05.18v0l0,.08,0,.15-.07.31-.15.62c-.11.44-.21.87-.31,1.29-.05.2-.1.39-.14.58l-.06.28,0,.13v.07l0,.14c0,.36-.09.71-.13,1l-.06.51c0,.14,0,.28,0,.41s0,.33,0,.47a4.25,4.25,0,0,0-1.16.15,6.19,6.19,0,0,1-.9.5,2.56,2.56,0,0,0-.41.12l-.06,0-.39.2-.1.06-.2.11-.39.22a4.78,4.78,0,0,0-.65.52,1.63,1.63,0,0,0-.71.56l-.55.2s-.21.09-.27,0a.59.59,0,0,1-.06-.52c.1-.14-.1-.52-.1-.52l.12-.48a1.24,1.24,0,0,0,.12-.56v-.4l0-.29c0-.11,0,0,0-.05l0-.23,0-.11.06-.33c.06-.3.11-.59.17-.88a5.45,5.45,0,0,1,.21-.76c.08-.28.15-.55.22-.82l.21-1,.09-.4,0-.2,0-.1,0-.14v0c0-.26.05-.53.08-.79l0-.38,0-.2v-.09a.61.61,0,0,0,0-.18c0-.33,0-.67,0-1s0-.43,0-.64v-.07l0-.16,0-.32c0-.22,0-.43.06-.64l0-.16v-.74c0-.2,0-.4,0-.59v-.57l0-.19v-.1l0-.12,0-.25c0-.17-.05-.3-.07-.45a2.25,2.25,0,0,0,0-.52c0-.27-.07-.54-.12-.8a3.38,3.38,0,0,0,0-1.12,3.63,3.63,0,0,0-.39-1v0a5.45,5.45,0,0,0-.18-.8l0-.12c-.09-.26-.17-.52-.25-.72l0-.12a4.33,4.33,0,0,0-.28-.85,2.7,2.7,0,0,0-.35-.58,2.59,2.59,0,0,0,.09-.4c.06-.35.12-.69.19-1l.1-.54a4.43,4.43,0,0,1,.16-.49,7,7,0,0,0,.32-1,7.57,7.57,0,0,0,.14-1.12,3.75,3.75,0,0,1,0-.47c.07-.28.15-.56.24-.83s.15-.47.21-.7a5.83,5.83,0,0,1,.23-.58c.13-.3.25-.6.35-.91s.18-.62.25-.94a4.39,4.39,0,0,1,.15-.6c.09-.25.2-.49.31-.73s.22-.48.32-.72.21-.46.32-.68.26-.49.37-.75a7.81,7.81,0,0,0,.37-1.09c0-.15.09-.35.12-.42s.24-.42.37-.63.3-.48.44-.73a3.45,3.45,0,0,1,.35-.5c.19-.26.38-.52.54-.79a7.52,7.52,0,0,0,.5-1.07,4,4,0,0,1,.16-.37,3,3,0,0,1,.32-.34,9.93,9.93,0,0,0,.74-.84c.17-.24.33-.49.48-.74s.24-.38.38-.56a8.15,8.15,0,0,0,.55-.76,3.92,3.92,0,0,1,.37-.51,6.57,6.57,0,0,1,.54-.52c.23-.21.46-.41.67-.63s.36-.38.54-.58.39-.43.6-.62.46-.39.69-.57l.6-.48.37-.31c.3-.25.6-.51.91-.74s.9-.66,1.35-1a4.45,4.45,0,0,1,.59-.31c.31-.15.61-.3.89-.47s.53-.34.78-.52.4-.28.61-.4.59-.29.88-.42l.63-.3c.52-.25,1-.48,1.53-.7.27-.12.55-.22.83-.32l.75-.28a8.57,8.57,0,0,0,1-.49l.15-.07.38-.08.26-.05,1.36-.07.26,0a6.2,6.2,0,0,0,1.11,0l.74-.08c.19,0,.37-.05.56-.06a4.79,4.79,0,0,0,1.19-.25l.15-.05.53,0,.63,0c.22,0,.44,0,.66,0l.41,0,.13.06a4.9,4.9,0,0,0,1,.32,8.1,8.1,0,0,1,1,.23,5.49,5.49,0,0,0,1,.18l.14,0a6,6,0,0,1,.84.48c.29.21.62.44.88.67l.1.17a4.93,4.93,0,0,0,.68.95l.45.46c.18.17.35.35.51.53s.43.46.66.69l.37.39a3.17,3.17,0,0,1,.3.34c.26.28.51.57.8.83a6.2,6.2,0,0,0,1.09.77,2.48,2.48,0,0,1,.31.18,8.64,8.64,0,0,0,1.21.73l.28.15c.41.22.79.37,1.12.51l.27.11.18.12a4.53,4.53,0,0,0,1.37.72c.44.14.95.3,1.47.41a6.12,6.12,0,0,0,1.26.11l.36,0a15.26,15.26,0,0,0,1.57.08h.05a12.24,12.24,0,0,0,1.52-.11l.21,0a4.36,4.36,0,0,0,1.49,0,9,9,0,0,0,1.15-.34l.38-.13a5.12,5.12,0,0,0,1.24-.6l.16-.1.16,0a4.51,4.51,0,0,0,1.39-.37,3.93,3.93,0,0,0,1.28-1.06l0,0,.14-.05.34-.13,0,.06a2.25,2.25,0,0,0,4,2.12,11.19,11.19,0,0,1,.78-1.15l.37-.51a16.24,16.24,0,0,1,1.27-1.56,4.7,4.7,0,0,1,.64-.49,9,9,0,0,0,1-.74,6.42,6.42,0,0,0,1-1.23c.1-.15.25-.37.28-.4a4.39,4.39,0,0,1,.79-.4c.37-.17.74-.33,1.09-.53l.88-.56a7.56,7.56,0,0,1,.9-.55,3.92,3.92,0,0,1,.6-.12,7.4,7.4,0,0,0,1.49-.36,9.21,9.21,0,0,0,1.17-.54,4.5,4.5,0,0,1,.76-.36c.63-.19,1.31-.34,2.07-.52.09,0,.39,0,.58,0a6.68,6.68,0,0,0,1.59,0l1-.2a8.49,8.49,0,0,1,1.09-.2,7.34,7.34,0,0,0,1.5-.36,4,4,0,0,1,.62-.17,5.82,5.82,0,0,1,.86.06c.69.08,1.56.09,2.41.17l1.05.09a8.17,8.17,0,0,0,1.45-.08h.13c.06.23.13.44.19.62s.07.21.1.3a8.18,8.18,0,0,0,.5,1.24l.1.21a5.43,5.43,0,0,0,.66,1.06l.18.25a5.7,5.7,0,0,0,.76.94l.21.24.12.16a5,5,0,0,0,.95,1.1,1.71,1.71,0,0,1,.2.18,5.79,5.79,0,0,0,1,.8,3.89,3.89,0,0,0,1.39.48h0l.05,0a4.51,4.51,0,0,0,1.18.7,4.72,4.72,0,0,0,1.25.25h.17l.24.1a6.17,6.17,0,0,0,1.12.36,4.53,4.53,0,0,0,1.31,0l.16,0,.31.05a6,6,0,0,0,1.08.12h.07a6.24,6.24,0,0,0,1.21-.16l.29,0h.22a4.49,4.49,0,0,0,1.38-.18l.28-.08a5.76,5.76,0,0,0,1.38-.52,3.71,3.71,0,0,0,1.13-1.1,11.88,11.88,0,0,0,.87.84,6.06,6.06,0,0,0,1.56.84l.36.14c.29.27.6.52.91.77a8.49,8.49,0,0,1,.72.63,3.52,3.52,0,0,1,.27.47,5.76,5.76,0,0,0,.91,1.39,6.52,6.52,0,0,0,1.2,1,3.68,3.68,0,0,1,.47.37c.24.29.46.61.68.93s.38.54.58.8.33.51.51.82.39.68.6,1,.55.84.81,1.26l.32.54a3.15,3.15,0,0,1,.25.63,7.49,7.49,0,0,0,.56,1.35c.19.35.41.67.63,1a6.94,6.94,0,0,1,.49.8,10.2,10.2,0,0,0,.68,1.13,4.43,4.43,0,0,1,.42.7c.2.46.38.93.56,1.4l.22.58a5.38,5.38,0,0,1,.18.76,9.47,9.47,0,0,0,.32,1.34c.09.24.17.49.26.74.15.42.3.84.43,1.28.18.62.34,1.25.5,1.88l.05.19a9.53,9.53,0,0,0,.4,1.21,7.91,7.91,0,0,1,.27.84l.17.74c.1.45.21.91.29,1.37s.14.68.22,1,.16.73.22,1.1a5,5,0,0,1,0,.8,9.81,9.81,0,0,0,.06,1.39,8.91,8.91,0,0,0,.33,1.41,4.6,4.6,0,0,1,.19.72c0,.41.05.83.06,1.26l0,.89c0,.3,0,.62.07.94s.06.81.07,1.23A5,5,0,0,1,336.88,254.72Z" style="fill: #1d1d1b"/>
    <path d="M309.9,295.48A5.84,5.84,0,0,0,308,298.8c-.06.41-.22.9-1.31,1.56a2,2,0,0,0,1,3.71,2.1,2.1,0,0,0,1-.29,6.07,6.07,0,0,0,3.18-4.37,1.94,1.94,0,0,1,.53-.91,2,2,0,0,0-2.62-3Z" style="fill: #1d1d1b"/>
    <path d="M321.14,236.42a2,2,0,0,0-.88,2.69,6.21,6.21,0,0,1,.29,3,2,2,0,0,0,1.9,2.08h.1a2,2,0,0,0,2-1.93,9.43,9.43,0,0,0-.72-5A2,2,0,0,0,321.14,236.42Z" style="fill: #1d1d1b"/>
    <path d="M300.87,296.47a2,2,0,0,0-2.78.52,7.29,7.29,0,0,1-2.89,2.06l-.22.11a2,2,0,0,0-.87,2.7,2,2,0,0,0,2.69.86l.22-.11a10.77,10.77,0,0,0,4.37-3.36A2,2,0,0,0,300.87,296.47Z" style="fill: #1d1d1b"/>
    <path d="M217.83,279.05s0,0,0,0Z" style="fill: #1d1d1b"/>
    <path d="M202.19,259.56Z" style="fill: #1d1d1b"/>
  </g>
</svg>
