<svg xmlns="http://www.w3.org/2000/svg" viewBox="0 0 500 500">
  <title>Artboard 26</title>
  <g>
    <g>
      <path d="M175,275.29c0,.31-.1.62-.1.93s.21.62.21.92,0,.62,0,.93l0,.93c0,.31-.19.63-.18.93s0,.63,0,.94l.06.93c0,.31.28.6.31.91s0,.62.05.93.07.61.11.92.1.61.14.91,0,.64,0,.94.15.61.21.9.15.61.21.9.07.63.14.93.22.58.31.87.19.6.29.89.2.58.31.87.34.53.46.8,0,.71.11,1,.43.48.58.74.24.59.41.84.52.4.71.63a7.66,7.66,0,0,0,.51.79,8.09,8.09,0,0,0,.74.57c.24.2.46.42.71.59s.62.16.89.3.47.45.76.57.61.1.91.19.6.08.9.14.59.21.9.25.59.22.91.24.61-.32.93-.32.62.26.93.24c-.54,0-.54,0-1.08.05s-.54,0-1.08,0a7.61,7.61,0,0,0-.94-.08c-.31,0-.57.31-.87.39a9.08,9.08,0,0,0-.9.22c-.28.12-.55.26-.83.41a7.47,7.47,0,0,0-.73.56c-.26.16-.64.16-.89.35s-.54.33-.77.54-.3.58-.52.8-.44.43-.64.67-.35.51-.54.77-.56.36-.73.62,0,.7-.2,1-.53.41-.67.69-.35.52-.48.81,0,.68-.1,1-.23.56-.34.86-.37.51-.48.81-.09.62-.18.92-.23.57-.31.88-.18.59-.25.89-.12.61-.18.92-.27.58-.32.89.14.64.1,1-.15.61-.18.92-.19.61-.21.92,0,.63,0,.94.11.62.11.93.08.46.07.91-.07.45-.08.91-.11.45-.13.9c0-.31.12-.62.13-.93s0-.63,0-.94-.07-.62-.07-.93,0-.62,0-.93-.07-.62-.08-.93.08-.63.06-.93,0-.63,0-.93-.23-.61-.26-.91,0-.63-.06-.93.21-.66.17-1-.07-.63-.12-.93-.44-.56-.5-.86.1-.66,0-1-.27-.58-.35-.87-.16-.6-.25-.89-.1-.63-.21-.92-.22-.58-.34-.86-.36-.53-.5-.8-.13-.64-.29-.9-.39-.5-.56-.75-.27-.59-.47-.83-.45-.44-.66-.67-.52-.36-.75-.56-.48-.39-.73-.58-.45-.43-.71-.6-.48-.42-.76-.56-.62-.15-.91-.27-.56-.25-.86-.35-.56-.29-.87-.37-.63-.06-.94-.12-.45.11-.88.09-.44-.08-.87-.12c.32,0,.64.1.95.09s.62-.32.93-.35.63,0,.94-.07.65.07,1,0,.63-.14.93-.22.56-.33.85-.43.67,0,1-.16a9.59,9.59,0,0,0,1.59-1c.25-.19.45-.44.68-.65s.65-.24.87-.48a9.11,9.11,0,0,0,.56-.78c.19-.24.22-.6.4-.87s.3-.54.45-.82.41-.5.53-.8.05-.64.16-.95.38-.52.48-.83.17-.6.25-.92.26-.58.33-.9-.19-.67-.13-1,.45-.56.49-.88-.24-.66-.2-1,.3-.6.33-.92-.09-.63-.06-.95.19-.62.21-.94-.18-.63-.16-1,0-.62,0-.94.06-.63.06-.95.23-.63.23-1v-.93c0-.47-.19-.47-.19-.94s.28-.46.27-.93S175,275.76,175,275.29Z" style="fill: #fff381"/>
      <path d="M174.09,323.65a2,2,0,0,1-1.93-2,3.45,3.45,0,0,1,.09-.77c0-.06,0-.12,0-.16s0-.24,0-.36a5,5,0,0,1,0-.55,2,2,0,0,0,0-.24c0-.22,0-.45,0-.66s0-.28,0-.42,0-.33,0-.49a2.83,2.83,0,0,0,0-.29q0-.3-.06-.6a6.3,6.3,0,0,1,.05-.75c0-.06,0-.12,0-.15,0-.19,0-.38,0-.56v-.2h0a3.1,3.1,0,0,1-.26-1c0-.18,0-.35,0-.52s0-.25,0-.37a3,3,0,0,1,.14-1.21l0-.16s0-.05,0-.07a2.75,2.75,0,0,1-.53-1.14,2.83,2.83,0,0,1,0-1,4.92,4.92,0,0,1-.27-.69l0-.14c-.06-.23-.12-.45-.19-.68a5.77,5.77,0,0,1-.16-.72c0-.05,0-.1,0-.1h0c-.1-.26-.2-.52-.28-.71,0,0-.06-.08-.09-.13a5,5,0,0,1-.39-.62,3.7,3.7,0,0,1-.29-.88l-.07-.08c-.13-.15-.25-.31-.36-.46a6.77,6.77,0,0,1-.36-.65,1,1,0,0,0,0-.1l-.17-.15-.29-.29-.12-.09a4.75,4.75,0,0,1-.58-.42c-.16-.15-.34-.28-.59-.47a5.72,5.72,0,0,1-.46-.4l-.11-.1a5.34,5.34,0,0,1-.55-.42l0,0h0a3.94,3.94,0,0,1-.78-.23l-.14-.06-.58-.23a4.17,4.17,0,0,1-.65-.29l-.1,0h-.14l-.36,0a3.09,3.09,0,0,1-.71.08h-.22a3.9,3.9,0,0,1-.72-.09l-.24,0a2,2,0,0,1,.24-4,4.62,4.62,0,0,1,.65.05,3,3,0,0,1,1-.3l.45,0c.13,0,.27,0,.4,0a3.78,3.78,0,0,1,1,0h0l.55-.13.05,0a4.17,4.17,0,0,1,.77-.39,3.35,3.35,0,0,1,1-.17l.16-.1a3.13,3.13,0,0,1,.34-.21,1.84,1.84,0,0,0,.22-.17,4.39,4.39,0,0,1,.36-.28l.15-.15c.12-.13.25-.26.38-.38a3.34,3.34,0,0,1,.86-.52l0-.05.18-.26,0,0a3.64,3.64,0,0,1,.37-.82c.11-.18.21-.37.31-.57l.06-.11a3.5,3.5,0,0,1,.41-.62,3.58,3.58,0,0,1,.18-.89,3.62,3.62,0,0,1,.47-.86l0,0c.06-.22.12-.46.18-.69a4.84,4.84,0,0,1,.22-.6,2.77,2.77,0,0,1-.05-1.14,2.65,2.65,0,0,1,.32-.85,2.88,2.88,0,0,1,0-.9,3,3,0,0,1,.3-1,4,4,0,0,1,0-.82,4.4,4.4,0,0,1,.17-.84,3.22,3.22,0,0,1-.12-1c0-.11,0-.22,0-.33s0-.39,0-.59,0-.37,0-.56,0-.24,0-.37a3.1,3.1,0,0,1,.23-1.1v-.6a3.19,3.19,0,0,1-.19-1.12,3.39,3.39,0,0,1,.05-.47,2.72,2.72,0,0,1,0-.42,5.39,5.39,0,0,1,.07-.79l0-.16v0a2,2,0,0,1,2-1.95,2,2,0,0,1,2,1.93,3.21,3.21,0,0,1,.15,1,2.65,2.65,0,0,1-.06.66,2.45,2.45,0,0,1,0,.27c0,.16,0,.31,0,.46l0,1.35A3.5,3.5,0,0,1,177,280c0,.24,0,.48,0,.71s0,.48.05.71a3.27,3.27,0,0,1,.31,1.08c0,.18,0,.36,0,.53s0,.25,0,.36l.09.76,0,.13c0,.17,0,.32.07.48l.06.4a4.41,4.41,0,0,1,0,.87v.09a2.44,2.44,0,0,0,.06.26c0,.18.09.35.12.53s.06.27.1.4.07.29.11.45.07.44.1.65a1.49,1.49,0,0,0,0,.21,1.57,1.57,0,0,0,.09.23,5.84,5.84,0,0,1,.2.59c.06.18.12.36.17.53l.1.27c.08.27.18.52.24.71l.08.11a4.45,4.45,0,0,1,.39.69,2.6,2.6,0,0,1,.21,1,2.83,2.83,0,0,1,.36.49,5.25,5.25,0,0,1,.31.63h0a3.5,3.5,0,0,1,.63.58,3.73,3.73,0,0,1,.45.69h0l.1.07.42.32.29.25a.69.69,0,0,0,.13.11,3.4,3.4,0,0,1,.83.3,3,3,0,0,1,.68.48,5.49,5.49,0,0,1,.61.12,1.52,1.52,0,0,0,.21,0,5,5,0,0,1,.54.08,4.67,4.67,0,0,1,.64.18l.09,0a2.92,2.92,0,0,1,.59.12,2.84,2.84,0,0,1,1-.21,2.93,2.93,0,0,1,1.17.26,2,2,0,0,1-.09,4c-.54,0-.54,0-1.09,0a6.63,6.63,0,0,1-.68,0l-.43,0a3.39,3.39,0,0,1-.71,0,3.25,3.25,0,0,1-.71.29l-.45.1a.71.71,0,0,0-.22.05,6,6,0,0,0-.56.26l-.11.09a4.34,4.34,0,0,1-.54.42,3.17,3.17,0,0,1-1,.41l-.31.2h0a3.23,3.23,0,0,1-.53.77l-.3.3a3.45,3.45,0,0,0-.26.28,1.85,1.85,0,0,0-.19.27,4.85,4.85,0,0,1-.28.4,2.46,2.46,0,0,1-.49.52,2.81,2.81,0,0,1-.33.91,3,3,0,0,1-.76.84c0,.09-.11.17-.16.25a3,3,0,0,1-.21,1.14c-.11.25-.2.5-.31.79a3.91,3.91,0,0,1-.46.82v0a5.9,5.9,0,0,1-.15.73c-.06.19-.13.37-.2.56s-.07.16-.1.26-.07.27-.11.41a3.17,3.17,0,0,0-.12.41c0,.18-.07.35-.1.53l-.06.33a3.12,3.12,0,0,1-.25.75,3,3,0,0,1,0,1,4.66,4.66,0,0,1-.12.63,2.25,2.25,0,0,0,0,.22,4,4,0,0,1-.18.83l0,.1V318a.78.78,0,0,0,0,.14,4,4,0,0,1,.09.8V319a3.66,3.66,0,0,1,.07.86,5.57,5.57,0,0,1-.06.66,1.29,1.29,0,0,0,0,.25,3.23,3.23,0,0,1-.12.85.17.17,0,0,1,0,.07,2,2,0,0,1-2,1.92Zm2.24-20.08a3,3,0,0,1,.9-.88l.05-.07a5.79,5.79,0,0,1,.45-.62,7.28,7.28,0,0,1,.53-.57l.1-.1v0a3.36,3.36,0,0,1,.7-1,4.37,4.37,0,0,1,.75-.54l.15-.1a3,3,0,0,1,.4-.26l-.08-.05a5.37,5.37,0,0,1-.7-.56l-.19-.16-.17-.12a5.52,5.52,0,0,1-.72-.58,4,4,0,0,1-.61-.88h0a3.59,3.59,0,0,1-.82-.81,4.69,4.69,0,0,1-.43-.81.3.3,0,0,0,0-.1l0,0a3.72,3.72,0,0,1-.63-.88,2.63,2.63,0,0,1-.27-1.24,3.66,3.66,0,0,1-.39-.75l-.15-.41a3.34,3.34,0,0,1-.22.85,4.36,4.36,0,0,1-.56.88l-.1.15c-.14.27-.28.52-.43.77l0,.08a3.44,3.44,0,0,1-.5,1l-.15.21a6.44,6.44,0,0,1-.54.72,3.12,3.12,0,0,1-1.13.74l0,0a5,5,0,0,1-.69.62l-.19.15a5.93,5.93,0,0,1-.75.53l-.22.13-.36.22.11.1a1.39,1.39,0,0,0,.2.17c.27.21.54.41.77.62l.13.08a4.71,4.71,0,0,1,.77.62,1,1,0,0,0,.18.17c.2.2.41.4.59.62a4,4,0,0,1,.5.84l.05.11.13.17a5.59,5.59,0,0,1,.51.7,3.35,3.35,0,0,1,.38,1v0s0,0,0,0a4.24,4.24,0,0,1,.47.81c.14.31.27.64.39,1a4.4,4.4,0,0,1,.19.73,2.25,2.25,0,0,1,.2-.66c.11-.23.25-.45.38-.67a1.64,1.64,0,0,0,.14-.22,2.78,2.78,0,0,1,.57-.74A2.45,2.45,0,0,1,176.33,303.57Z" style="fill: #12110c"/>
    </g>
    <g>
      <path d="M303.17,108.44c0,.31.09.63.1.93s0,.63,0,.94,0,.62,0,.93.35.62.37.92,0,.63,0,.94,0,.62,0,.93-.05.63,0,.93.13.62.16.93-.25.65-.22,1,.4.59.43.9-.16.65-.12,1,.12.62.16.93,0,.63.08.93.11.62.17.92.33.57.39.87,0,.63.11.93.11.62.19.91.26.58.35.87.27.57.37.86,0,.67.11,1,.29.56.42.84.23.58.37.85.44.47.6.73.29.55.47.8.16.67.35.9.51.4.72.62.53.35.76.55.44.45.69.63a9.29,9.29,0,0,0,.87.35c.27.16.45.46.74.59s.6.14.9.25.52.43.82.51.66-.11,1-.05.61,0,.93,0,.6,0,.91,0,.61.18.93.17.61,0,.92,0c-.39,0-.39,0-.79,0s-.39.06-.78.08-.4,0-.79,0-.61.32-.92.35a32.38,32.38,0,0,0-1.9.17c-.3.11-.61.22-.9.36s-.43.53-.7.69-.69.11-.95.3-.36.56-.6.77-.38.5-.61.72-.59.3-.81.54-.38.5-.58.75-.34.53-.52.79-.54.4-.71.67-.24.6-.4.87-.34.53-.49.82-.21.6-.35.88-.24.59-.36.88-.4.52-.51.82-.29.56-.4.86-.17.61-.27.92.12.69,0,1-.36.55-.44.86,0,.65-.05,1-.17.61-.23.92,0,.64-.05.95-.3.6-.33.91,0,.64,0,1,0,.64,0,.95-.16.63-.17,1,.21.64.21,1c0,.49-.35.48-.37,1s.33.5.31,1,0,.5,0,1c0-.31-.08-.62-.07-.93s-.06-.62-.06-.93.06-.62.06-.93-.11-.62-.11-.93.16-.63.15-.93-.34-.61-.35-.92.21-.63.19-.94.06-.62,0-.93,0-.62-.07-.92-.2-.61-.24-.91,0-.62-.08-.93,0-.63-.05-.93-.34-.57-.4-.87,0-.63-.1-.93-.16-.59-.24-.89-.3-.56-.39-.85-.16-.59-.26-.88-.13-.61-.24-.89-.15-.61-.27-.89-.14-.63-.28-.9-.59-.38-.75-.64,0-.74-.17-1-.63-.31-.82-.55-.26-.58-.47-.8-.5-.37-.73-.58a7.81,7.81,0,0,0-.67-.62c-.24-.19-.44-.44-.7-.62s-.45-.44-.72-.6-.53-.32-.81-.45-.68,0-1-.1-.52-.37-.81-.46-.62-.08-.92-.16-.57-.3-.88-.36c-.47,0-.49.2-1,.17s-.47-.12-1-.17c.32,0,.63,0,.94,0s.63-.07.94-.09.65.06.95,0,.6-.3.9-.36.67.11,1,0,.62-.18.91-.27.55-.37.83-.48a8.2,8.2,0,0,0,.82-.46c.28-.14.68-.06.95-.22s.49-.39.75-.58.41-.47.65-.68a8.23,8.23,0,0,0,.59-.71c.21-.23.43-.43.63-.68s.64-.3.81-.57.1-.67.25-.95.48-.44.61-.73.32-.55.44-.84.12-.62.23-.92.26-.57.35-.88,0-.63.12-.94.05-.62.11-.93.16-.6.21-.92.09-.61.14-.92.17-.61.21-.92,0-.63,0-.94.3-.6.33-.92-.13-.63-.11-1,.26-.61.28-.92-.05-.63,0-1-.25-.63-.24-.95.27-.62.27-.94,0-.62,0-.94c0-.51-.21-.51-.2-1s.31-.51.32-1-.12-.51-.18-1A5.34,5.34,0,0,1,303.17,108.44Zm-9.05,77.91c0,.49,0,.49-.05,1s-.29.49-.3,1,.06.49.06,1c0,.32,0,.63,0,.94s.19.63.18.94-.12.63-.13.93.14.64.12,1-.06.62-.08.93-.34.6-.37.91,0,.62-.06.93.22.66.17,1-.09.62-.14.93-.18.61-.23.91-.31.57-.38.87.12.68,0,1-.17.62-.26.91-.23.59-.33.88-.41.51-.53.79-.17.62-.31.88a8.6,8.6,0,0,1-.56.75c-.17.27-.18.64-.36.89s-.54.37-.74.6-.37.51-.59.72-.36.55-.61.74-.66.13-.93.3-.55.26-.82.4-.44.54-.73.66-.62.12-.92.22-.55.34-.86.41-.64,0-.95,0-.61.14-.92.18-.63,0-.94,0-.62-.06-.94,0-.61.17-.92.18c.45,0,.45.2.91.23s.48-.32.94-.28.58.42.89.5.61.14.91.24.56.27.85.39.64.11.92.25.63.18.9.34.54.36.79.54.33.6.57.81.48.39.71.61.45.43.66.67.44.45.62.71.47.45.63.72.09.68.24,1,.48.46.61.75.27.57.39.87,0,.66.11,1,.5.49.59.8,0,.67.06,1,.1.62.17.93,0,.63.11.94.17.61.22.93.25.59.29.91,0,.63,0,1,.1.62.13.94.11.63.13.95.06.62.08,1,0,.63,0,.95,0,.63,0,.95,0,.63,0,1-.11.63-.11.95.19.64.18,1-.09.63-.1.95c0-.48.07-.48.08-1s.11-.47.12-1,0-.48,0-.95c0-.32-.16-.64-.15-1s-.1-.64-.08-.95.38-.61.4-.93.08-.62.12-.93-.14-.66-.09-1,.21-.6.26-.91,0-.65.07-1,.24-.59.31-.9.28-.58.36-.88.19-.6.29-.89.12-.63.22-.92.18-.61.3-.9.39-.51.52-.8.07-.66.21-.94.16-.64.32-.91.63-.37.79-.63.28-.56.46-.82.32-.55.51-.8.19-.66.4-.89.53-.39.75-.61.42-.49.65-.7.59-.28.84-.47.48-.41.74-.58.55-.31.83-.45a6.78,6.78,0,0,1,.91-.25,6.51,6.51,0,0,1,.88-.3,5.69,5.69,0,0,1,.9-.24,7.51,7.51,0,0,1,.93-.25c.56,0,.57.08,1.14,0s.56-.17,1.13-.21c-.32,0-.62.06-.92.07s-.61,0-.92,0-.61,0-.91,0-.63,0-.92-.07-.61-.14-.9-.21-.64-.07-.92-.17-.56-.3-.83-.43a8.13,8.13,0,0,1-.85-.38c-.26-.16-.42-.49-.67-.67s-.53-.31-.76-.52-.46-.4-.67-.63-.36-.49-.56-.74-.48-.41-.65-.67-.38-.5-.53-.77-.23-.57-.37-.86-.27-.55-.39-.84-.15-.6-.26-.89-.05-.63-.15-.93-.49-.48-.58-.78,0-.64-.09-.94-.3-.56-.37-.86-.1-.61-.16-.92,0-.62,0-.93l-.15-.91c0-.3,0-.62,0-.93s-.15-.6-.18-.91-.16-.6-.19-.91.11-.63.08-.94-.29-.59-.31-.9-.06-.62-.08-.93.2-.63.18-.94-.11-.61-.12-.92,0-.61,0-.92,0-.61,0-.92-.07-.61-.07-.93.07-.61.07-.92C294,185.86,294.14,185.86,294.12,186.35ZM326,152c0,.44.07.44.1.88s.15.44.16.88.09.64.09.95-.21.64-.22.95.19.65.18,1-.07.64-.09,1-.07.64-.1.95-.07.63-.1.94-.11.63-.15.94-.12.63-.17.93-.09.64-.15.94-.24.6-.31.9.05.68,0,1-.2.61-.3.9-.36.55-.48.84-.19.61-.32.89-.29.56-.44.83-.16.66-.33.92-.45.47-.64.72-.58.33-.8.56a8.07,8.07,0,0,1-.67.64c-.24.21-.32.62-.57.8s-.68.11-.95.27-.54.3-.83.43-.5.45-.8.55-.6.22-.91.29-.63.14-.95.18-.64,0-1,0-.63.05-1,.05-.62-.12-.95-.13c.44,0,.44.06.88.08s.43.09.87.11.44,0,.87,0,.63.05.91.13.54.36.82.46l.83.34c.28.14.55.27.81.43a8.88,8.88,0,0,1,.75.5c.24.19.59.24.81.45a6.67,6.67,0,0,1,.62.68,8.08,8.08,0,0,1,.66.65c.18.24.28.55.45.81s.28.54.42.81.3.53.43.82.33.52.45.81.17.58.27.88.13.59.21.89.12.6.2.9.07.6.14.91.27.57.32.87.25.58.3.89,0,.61.06.92.12.61.15.92-.1.62-.08.93-.06.61,0,.92.33.6.35.91,0,.61,0,.92-.07.61-.06.92-.19.62-.19.93.19.61.19.92-.13.61-.14.92c0-.52-.11-.52-.13-1s0-.53,0-1.06,0-.52,0-1.05c0-.31.22-.62.23-.93s-.15-.64-.13-1,.33-.6.36-.91,0-.64,0-.95.08-.62.14-.92,0-.64.08-.94.16-.61.23-.91.12-.63.2-.92.12-.63.22-.92.42-.52.53-.81.28-.56.4-.85.27-.56.4-.83.07-.67.22-.94.26-.59.41-.85.33-.55.5-.8.58-.37.76-.61.28-.58.49-.81.51-.39.73-.6.4-.49.64-.68a8.62,8.62,0,0,1,.79-.5,6.77,6.77,0,0,1,.8-.48,6.16,6.16,0,0,1,.85-.43c.29-.1.65.05.95,0a5.59,5.59,0,0,1,.91-.08c.58,0,.57-.33,1.15-.34s.58.29,1.16.28c-.32,0-.64,0-.95,0s-.63-.18-.93-.21-.66.07-1,0-.55-.41-.85-.49-.63-.08-.92-.19-.65-.09-.93-.23a8.45,8.45,0,0,1-.82-.49c-.26-.18-.41-.51-.65-.71s-.38-.5-.6-.72-.41-.45-.61-.7-.6-.32-.78-.59-.08-.67-.24-1-.39-.49-.53-.78-.39-.51-.51-.8-.28-.57-.39-.87-.19-.6-.28-.9-.07-.63-.15-.94-.07-.62-.14-.94-.21-.59-.27-.9.05-.64,0-1-.19-.59-.24-.91-.11-.61-.15-.93-.05-.62-.08-.93-.19-.61-.21-.93.16-.64.13-.95-.15-.62-.17-.94.14-.63.13-1,0-.62-.05-.94-.1-.62-.11-.94-.19-.63-.19-.94.05-.63.05-1C326.14,151.59,326,151.6,326,152Z" style="fill: #fff381"/>
      <path d="M302.59,161.19h-.12a1.94,1.94,0,0,1-1-.39,2,2,0,0,1-.81-1.6v0a1.11,1.11,0,0,0,0-.17,4.6,4.6,0,0,1-.05-.64,2.8,2.8,0,0,1,0-2.13,4.26,4.26,0,0,1-.07-.7,2.66,2.66,0,0,1,.08-.74,2.68,2.68,0,0,1-.28-1.06,3.12,3.12,0,0,1,.19-1.14,4.58,4.58,0,0,1,0-.53c0-.06,0-.11,0-.13l0-.36,0-.45,0-.09a3.6,3.6,0,0,1-.21-.85c0-.16,0-.33-.05-.49s0-.26,0-.39a5.79,5.79,0,0,1,0-.72h0a3,3,0,0,1-.38-1,5.71,5.71,0,0,1-.08-.71.76.76,0,0,0,0-.16c0-.15-.07-.29-.11-.43l-.09-.3,0-.06a4.23,4.23,0,0,1-.37-.81l-.11-.38c0-.15-.07-.29-.12-.43s-.12-.42-.17-.62,0-.14,0-.19a5.75,5.75,0,0,1-.21-.67l0-.13a4.76,4.76,0,0,1-.2-.55,2.7,2.7,0,0,1-.73-.79,2.37,2.37,0,0,1-.3-.81,2.76,2.76,0,0,1-.54-.5,4.27,4.27,0,0,1-.44-.74h0a3.69,3.69,0,0,1-.53-.43l-.18-.16-.38-.35a5.56,5.56,0,0,1-.44-.39,1.58,1.58,0,0,0-.13-.13,5.27,5.27,0,0,1-.58-.48l-.25-.18-.17-.1a2.67,2.67,0,0,1-1.13-.19,3.65,3.65,0,0,1-.74-.42h0a5.54,5.54,0,0,1-.71-.12,4.24,4.24,0,0,1-.58-.21,2.73,2.73,0,0,1-.69.08h-.2a4.33,4.33,0,0,1-.92-.16l-.11,0a2,2,0,0,1,.16-4h.88a3,3,0,0,0,.42,0l.45,0a4.82,4.82,0,0,1,.76,0,3.39,3.39,0,0,1,.91-.32,3.15,3.15,0,0,1,1.06,0l.41-.12,0,0a3.77,3.77,0,0,1,.8-.46l.14-.09a5.33,5.33,0,0,1,.56-.32,3,3,0,0,1,1-.27l0,0,.35-.28.08-.09a4.14,4.14,0,0,1,.44-.47l.09-.12a5.08,5.08,0,0,1,.41-.51l.2-.21c.11-.11.21-.21.32-.34a2.28,2.28,0,0,1,.62-.56,2.7,2.7,0,0,1,.27-.7,3.28,3.28,0,0,1,.63-.78h0a2.69,2.69,0,0,0,.16-.29l.13-.21,0-.16a4.74,4.74,0,0,1,.18-.72c.06-.18.14-.36.22-.54a1.42,1.42,0,0,0,.08-.18v-.07a3.86,3.86,0,0,1,.1-.82,1.09,1.09,0,0,0,0-.18,6.38,6.38,0,0,1,.1-.73c0-.14.06-.28.1-.42s.07-.28.1-.43l.06-.44.06-.43a5.23,5.23,0,0,1,.15-.66,1.66,1.66,0,0,0,.06-.21v-.21c0-.23,0-.46,0-.69a3.2,3.2,0,0,1,.27-.93,3.12,3.12,0,0,1,0-.85,3.59,3.59,0,0,1,.26-1V116l0-.4a2.91,2.91,0,0,1-.24-1.21,3,3,0,0,1,.27-1.15v-.56a3,3,0,0,1-.2-1.18,2.82,2.82,0,0,1,.08-.65,1,1,0,0,1,0-.17c0-.1,0-.21,0-.31s0-.39,0-.59,0-.21,0-.3h0a3.66,3.66,0,0,1-.1-1.06,2,2,0,0,1,4,0l0,.18c0,.1,0,.21.05.31s0,.2,0,.33h0s0,.06,0,.1h0a3.62,3.62,0,0,1,.16,1.17,2.73,2.73,0,0,1-.09.68,2.6,2.6,0,0,1,.2.91,5.23,5.23,0,0,1,0,.56c0,.12,0,.23,0,.35l0,.91a5.77,5.77,0,0,1,0,.72,1.28,1.28,0,0,0,0,.18.71.71,0,0,0,0,.2,6.12,6.12,0,0,1,.11.71,2.47,2.47,0,0,1-.08.88,2.49,2.49,0,0,1,.29.92,3.24,3.24,0,0,1-.09,1.12l0,.17c0,.18.07.35.09.52s0,.42.06.63a1.23,1.23,0,0,0,0,.27c0,.22.07.43.12.68a3.55,3.55,0,0,1,.42,1,6.39,6.39,0,0,1,.09.75.45.45,0,0,0,0,.13c0,.17.07.35.1.52s0,.23.06.31.05.12.08.17a4.51,4.51,0,0,1,.26.66l.09.18a4.66,4.66,0,0,1,.26.61,3,3,0,0,1,.16,1,.56.56,0,0,1,.05.08c.09.16.17.33.25.49s.11.27.17.4l.11.26,0,0a4.27,4.27,0,0,1,.56.69l.19.35c.07.12.13.23.2.33a3,3,0,0,1,.4.88,2.56,2.56,0,0,1,.4.34l.12.08a3.81,3.81,0,0,1,.58.41l.36.33.09.1h0a3.92,3.92,0,0,1,.78.33,3.32,3.32,0,0,1,.67.51,4.34,4.34,0,0,1,.62.16,3,3,0,0,1,.7.36,3.27,3.27,0,0,1,.7,0h.11a6.26,6.26,0,0,1,.75,0c.26,0,.53,0,.8,0a3.36,3.36,0,0,1,.75.12h.09a3.57,3.57,0,0,1,.76,0H318a2,2,0,0,1,.3,4h-.26c-.27,0-.53,0-.8,0H317l-.26,0a4.21,4.21,0,0,1-.6,0,2.88,2.88,0,0,1-1,.34c-.21,0-.41,0-.62,0s-.11,0-.09,0a4,4,0,0,1-.87.1h0l-.31.11a2.91,2.91,0,0,1-.78.71,2.57,2.57,0,0,1-.79.32,2.26,2.26,0,0,1-.44.5l-.09.12a4.26,4.26,0,0,1-.48.57,3.42,3.42,0,0,1-.83.58l-.16.21-.24.31a1.09,1.09,0,0,0-.14.23c-.1.16-.2.33-.32.49a3.42,3.42,0,0,1-.68.69h0a6.1,6.1,0,0,1-.32.68l-.24.39c-.07.12-.15.24-.2.35a1.07,1.07,0,0,0-.07.19c-.08.21-.16.43-.25.63s-.12.27-.17.4-.11.28-.17.41a4,4,0,0,1-.47.79l0,.06a5,5,0,0,1-.22.47c0,.07-.08.15-.11.23s-.08.28-.12.42l0,.11a3.07,3.07,0,0,1-.05,1.26,3.33,3.33,0,0,1-.39.86,3.88,3.88,0,0,1-.07.84c0,.18-.09.36-.14.54l-.08.29v.17a4.71,4.71,0,0,1,0,.75,3.74,3.74,0,0,1-.33,1v.1a4.73,4.73,0,0,1,0,.65,2.82,2.82,0,0,0,0,.41c0,.16,0,.32,0,.48a3.87,3.87,0,0,1-.1.67.5.5,0,0,1,0,.12,3.55,3.55,0,0,1,.17,1,2.88,2.88,0,0,1-.19,1,.13.13,0,0,0,0,.06,2.62,2.62,0,0,1,.14,1c0,.22,0,.33,0,.44a4.38,4.38,0,0,1,0,.52h0v0h0a2.13,2.13,0,0,1-.07.44h0a2,2,0,0,1-1.93,1.46Zm.67-18.06c.09-.22.18-.44.28-.65a1.18,1.18,0,0,0,.07-.2,5.51,5.51,0,0,1,.31-.76c.11-.21.24-.41.36-.61l.16-.26a.76.76,0,0,0,.06-.16,4.54,4.54,0,0,1,.4-.8,3.42,3.42,0,0,1,.83-.86h0l.07-.11a6.31,6.31,0,0,1,.44-.66l.18-.23c.16-.21.31-.41.48-.6a3.49,3.49,0,0,1,1-.71l0,0a4.44,4.44,0,0,1,.51-.59v0a3.35,3.35,0,0,1,.84-1,2.7,2.7,0,0,1,.31-.2,3,3,0,0,1-.54-.3,5.28,5.28,0,0,1-.67-.58l-.15-.14-.12-.08a4.15,4.15,0,0,1-.76-.59l-.12-.08a4.36,4.36,0,0,1-.75-.69,3.08,3.08,0,0,1-.57-1.22c-.1-.16-.19-.32-.28-.48l-.14-.21a3.67,3.67,0,0,1-.65-.87c-.11-.21-.21-.44-.31-.67s-.07-.18-.11-.28l-.12-.22c-.12-.23-.24-.46-.34-.7a3,3,0,0,1-.2-1.17s0,0,0,0l-.1-.21,0,.16a3.94,3.94,0,0,1-.24.86,6,6,0,0,1-.36.72l-.12.22a3.45,3.45,0,0,1-.58.83,2.66,2.66,0,0,1-1.54,2.06l-.38.4-.15.15-.1.14a4.3,4.3,0,0,1-.61.7l-.09.11a4.53,4.53,0,0,1-.73.71l-.18.14a5.4,5.4,0,0,1-.72.53,3.1,3.1,0,0,1-1.23.39h0l0,0,.13.12.07.07a4.75,4.75,0,0,1,.67.57l.15.14c.22.18.43.38.64.57l.14.14.13.09a4.61,4.61,0,0,1,.71.6,3.53,3.53,0,0,1,.5.73,2.72,2.72,0,0,1,1,.85,2.54,2.54,0,0,1,.4,1,2.54,2.54,0,0,1,.65.79,3.71,3.71,0,0,1,.32.94v.06a4.48,4.48,0,0,1,.27.81.85.85,0,0,0,0,.17,4.75,4.75,0,0,1,.22.76c0,.07,0,.14.05.21.08.22.14.44.2.67l.06.21c.11-.19.23-.34.31-.46l.05-.07ZM293,236.23a2,2,0,0,1-1.94-2,6.75,6.75,0,0,1,.06-.72s0-.08,0-.14a3.19,3.19,0,0,1-.16-1,4.26,4.26,0,0,1,.09-.82l0-.11v-1.12a4,4,0,0,1-.06-.92,2.34,2.34,0,0,1,.12-.63v-.09l0-.44c0-.16,0-.32,0-.47s0-.18,0-.27a4.92,4.92,0,0,1-.09-.64c0-.12,0-.23-.06-.35s0-.37-.07-.54a5.31,5.31,0,0,1,0-.69v-.14l0,0a3.93,3.93,0,0,1-.27-.9,1.19,1.19,0,0,0-.07-.27c-.05-.2-.1-.4-.14-.59s-.06-.46-.08-.68a1.48,1.48,0,0,0,0-.21c0-.17-.07-.34-.1-.51s0-.24-.06-.35a3.1,3.1,0,0,1-.09-.75,2.74,2.74,0,0,1-.51-.87,3.18,3.18,0,0,1-.16-1.08c-.05-.12-.11-.23-.16-.35l0-.05a3.48,3.48,0,0,1-.63-.82,2.89,2.89,0,0,1-.31-1,4.75,4.75,0,0,1-.42-.49c-.06-.08-.13-.15-.2-.23s-.23-.24-.33-.36-.2-.21-.3-.3l-.26-.25c-.11-.12-.23-.21-.34-.31l-.24-.2a3,3,0,0,1-.68-.87l-.34-.23-.09,0a3.93,3.93,0,0,1-.64-.23h-.08a4.56,4.56,0,0,1-.81-.23c-.17-.07-.34-.16-.51-.24a1,1,0,0,0-.21-.1l-.46-.13-.33-.08a2.69,2.69,0,0,1-.6-.24,2.65,2.65,0,0,1-.67.09h-.18a3.13,3.13,0,0,1-1.06-.24,2,2,0,0,1,.13-4l.09,0a3.77,3.77,0,0,1,.88-.16h.18a5.44,5.44,0,0,1,.57,0c.06,0,.11,0,.11,0a4.45,4.45,0,0,1,.73,0h.12l.4-.08.42-.09a3.44,3.44,0,0,1,.85,0,3.14,3.14,0,0,1,.73-.34,3.53,3.53,0,0,1,.54-.13,2.71,2.71,0,0,1,.8-.62l.4-.19a1.66,1.66,0,0,0,.27-.13,2.7,2.7,0,0,1,.83-.34,3.6,3.6,0,0,1,.38-.44,1.83,1.83,0,0,0,.13-.16c.11-.15.22-.3.34-.44a2.72,2.72,0,0,1,.59-.51,3.41,3.41,0,0,1,.31-.71,5,5,0,0,1,.46-.59l0-.05,0-.08a5.9,5.9,0,0,1,.23-.67,3.63,3.63,0,0,1,.53-.82l.09-.22a3.61,3.61,0,0,0,.16-.42c.06-.18.11-.36.16-.55a3.14,3.14,0,0,1,0-1.18,3.53,3.53,0,0,1,.38-.93l0,0a3.17,3.17,0,0,1,.12-.44,2.44,2.44,0,0,0,.06-.26l0-.15c0-.14.05-.29.07-.43a3,3,0,0,1-.13-1.21c0-.12,0-.24,0-.36s0-.35,0-.52a2.87,2.87,0,0,1,.39-1.17c0-.06,0-.11,0-.17s0-.22,0-.33l0-.06a4.37,4.37,0,0,1-.1-.95,5.11,5.11,0,0,1,.1-.76v-.09a3.73,3.73,0,0,1-.15-1c0-.17,0-.34,0-.51s0-.27,0-.43a1.09,1.09,0,0,0,0-.22,6.43,6.43,0,0,1,0-.77,3.08,3.08,0,0,1,.21-1.05,2,2,0,0,0,0-.25c0-.22,0-.45,0-.68a5.65,5.65,0,0,1,0-.71,1.64,1.64,0,0,0,0-.22h0v0h0a2,2,0,0,1,4,0,3,3,0,0,1,.14,1.09c0,.28,0,.43,0,.57s0,.19,0,.38a3.08,3.08,0,0,1-.1.75v.28c0,.2,0,.39,0,.59l0,.2a5.59,5.59,0,0,1,.09.7,2.93,2.93,0,0,1-.15,1c0,.1,0,.2,0,.3v.08c0,.06,0,.11,0,.16a3,3,0,0,1,.33,1.12,3.39,3.39,0,0,1-.06,1v0l0,.1a4.13,4.13,0,0,1,.14.7c0,.08,0,.16,0,.24a4.7,4.7,0,0,1,.13.63,6.52,6.52,0,0,1,0,.77.74.74,0,0,0,0,.15c0,.29.08.57.13.84a4,4,0,0,1,0,.88V198l.06.4c0,.09,0,.19,0,.28l0,0a3.32,3.32,0,0,1,.46,1.54,2.82,2.82,0,0,1,.53.92,3.6,3.6,0,0,1,.16.93v0c.05.17.1.34.14.52s0,.12,0,.15c.11.25.22.51.34.75a5.55,5.55,0,0,1,.24.56,1.82,1.82,0,0,0,.08.19,2.53,2.53,0,0,0,.18.27l.22.3.07.06a3.81,3.81,0,0,1,.55.57,4.73,4.73,0,0,1,.28.39c.06.08.11.16.17.23s.23.22.35.33l.17.15.18.11.45.3a3.82,3.82,0,0,1,.64.62l.13.06.4.17.48.25c.07,0,.13.08.1.08l.16,0a6.66,6.66,0,0,1,.67.12l.12,0a6.23,6.23,0,0,0,.62.15h.27l.54,0h1.56c.14,0,.27,0,.4,0l.43,0a2,2,0,0,1,2.05,1.87,2.06,2.06,0,0,1-1.9,2.15,4.66,4.66,0,0,1-1,.19,4,4,0,0,1-1,0h-.11a4.37,4.37,0,0,1-.85.23l-.21.06-.46.14a5.9,5.9,0,0,0-.67.23,5.71,5.71,0,0,1-.71.19l-.09,0-.58.31-.24.2-.36.29a3.45,3.45,0,0,1-.76.43l0,0-.14.16-.34.36a3.75,3.75,0,0,1-.53.45,3,3,0,0,1-.46.87,2.2,2.2,0,0,0-.15.26l-.29.46a1,1,0,0,0-.13.23c-.09.17-.18.34-.28.49a2.55,2.55,0,0,1-.79.81c0,.12-.08.25-.14.39h0a3.7,3.7,0,0,1-.27,1.06,4,4,0,0,1-.49.78l0,0a1.55,1.55,0,0,0-.07.23c0,.17-.11.34-.16.49l-.05.2a4.54,4.54,0,0,1-.16.66l-.06.19c-.07.21-.14.43-.2.64a4.31,4.31,0,0,1-.3.74s-.05.1-.05.09a7.26,7.26,0,0,1-.24.7,1.17,1.17,0,0,0-.05.11v.09a4.36,4.36,0,0,1-.06.82,4.68,4.68,0,0,1-.21.73,3.21,3.21,0,0,1,.06,1l-.05.39a3.93,3.93,0,0,0-.06.48,2.74,2.74,0,0,1-.31,1c0,.12,0,.24,0,.36v.11a1.09,1.09,0,0,1,0,.18l0,.07a4.06,4.06,0,0,1,.13,1,2.09,2.09,0,0,0,0,.36c0,.15,0,.3,0,.61a4,4,0,0,1-.1.81v.14a5.69,5.69,0,0,1-.07.71,2.6,2.6,0,0,0,0,.26,2,2,0,0,1-2,1.93Zm1.18-18.52,0-.13a4.4,4.4,0,0,1,.36-.93,2.7,2.7,0,0,1,1-1,6.11,6.11,0,0,1,.36-.61l.15-.24c.09-.16.19-.31.29-.46a3.15,3.15,0,0,1,.6-1.17,4.12,4.12,0,0,1,.78-.67l.06,0,.18-.2a6.37,6.37,0,0,1,.57-.59,3.42,3.42,0,0,1,.95-.59l.07,0,.14-.12.08-.06a3.69,3.69,0,0,1-.69-.68l0,0-.09-.06a4.79,4.79,0,0,1-.75-.54l-.15-.13a7.82,7.82,0,0,1-.66-.63,5.76,5.76,0,0,1-.51-.66l-.1-.15-.09-.08a4,4,0,0,1-.7-.77l-.15-.21a6,6,0,0,1-.45-.67,5.7,5.7,0,0,1-.34-.75l-.08-.21c-.15-.3-.3-.62-.44-.95a4,4,0,0,1-.24-.77,1.17,1.17,0,0,0-.06-.2,4,4,0,0,1-.11-.39,3.51,3.51,0,0,1-.57.92.19.19,0,0,0,0,.07,4.61,4.61,0,0,1-.32.84,3.9,3.9,0,0,1-.58.82h0a3.28,3.28,0,0,1-.49,1.06,3.21,3.21,0,0,1-.93.84l-.06.08a5.91,5.91,0,0,1-.53.63l-.06.08a3.52,3.52,0,0,1-.75.84,2.84,2.84,0,0,1-1.32.54c-.18.1-.35.18-.53.26h0a3.39,3.39,0,0,1-.33.34l.3.21a3,3,0,0,1,.87,1h0a8.6,8.6,0,0,1,.64.58l.18.18a6.82,6.82,0,0,1,.59.61l.17.18a6.78,6.78,0,0,1,.52.61l.11.11a4.66,4.66,0,0,1,.63.76,3,3,0,0,1,.38,1.09,3.06,3.06,0,0,1,.58.83l.09.2c.12.25.23.51.34.77a2.8,2.8,0,0,1,.19.93,3,3,0,0,1,.4.57,3.53,3.53,0,0,1,.25-.35A2.94,2.94,0,0,1,294.19,217.71Zm29.48-23a.74.74,0,0,0,0-.18,4.19,4.19,0,0,1-.11-.9l0-1.51c0-.16,0-.3,0-.64a3,3,0,0,1,.2-1,3.66,3.66,0,0,1-.1-.68,3.74,3.74,0,0,1-.09-.52,6.87,6.87,0,0,1,0-.79l0-.1a3.66,3.66,0,0,1,.06-.95v-.05c0-.07,0-.15-.05-.23s-.06-.36-.08-.54a5.82,5.82,0,0,1-.05-.6v-.18l0-.06a4.19,4.19,0,0,1-.25-.76l0-.07a3.39,3.39,0,0,1-.3-.85c0-.2-.07-.39-.09-.59s0-.17,0-.24a4.85,4.85,0,0,1-.11-.49,3.4,3.4,0,0,0-.07-.34c0-.18-.09-.37-.13-.56a2.27,2.27,0,0,0-.06-.25c0-.15-.09-.3-.14-.45l-.08-.3a1.3,1.3,0,0,0-.1-.15,4.83,4.83,0,0,1-.32-.59c-.1-.22-.22-.42-.37-.7l-.2-.4c0-.09-.09-.19-.14-.28a4.51,4.51,0,0,1-.31-.57c0-.05-.05-.11,0-.09l-.14-.13a5.33,5.33,0,0,1-.42-.4l-.25-.29-.14-.16a3.34,3.34,0,0,1-.76-.42c-.2-.14-.38-.27-.59-.39a6.31,6.31,0,0,0-.63-.34c-.22-.1-.44-.18-.67-.27a3.36,3.36,0,0,1-.78-.42h0l-.47-.06a2.57,2.57,0,0,0-.36,0l-.35,0a3.55,3.55,0,0,1-.57-.06h-.12a5.63,5.63,0,0,1-.92-.11l-.13,0a2,2,0,0,1-1.91-2.09,2,2,0,0,1,2.1-1.9h0a5.35,5.35,0,0,1,.65.06l.22,0a1.86,1.86,0,0,1,.36,0l.27,0,.16,0a6,6,0,0,1,.73,0H316l.79-.15a3.59,3.59,0,0,0,.43-.14l.07,0a3.34,3.34,0,0,1,.86-.57,4.89,4.89,0,0,0,.51-.26l.13-.08a2.45,2.45,0,0,1,.7-.27A3,3,0,0,1,320,169c.19-.16.36-.33.53-.5a3.05,3.05,0,0,1,.85-.63l.24-.26.05-.05a3.42,3.42,0,0,1,.33-.86l.07-.12.31-.59a2.31,2.31,0,0,0,.1-.28c.05-.17.11-.33.17-.51a3.86,3.86,0,0,1,.44-.77l.11-.27.12-.33a3.47,3.47,0,0,1,.06-1.07,5.78,5.78,0,0,1,.24-.7l.06-.13c0-.14.05-.28.07-.42s0-.3.07-.45.05-.28.08-.43.06-.29.08-.45,0-.3.07-.46.05-.28.07-.42l0-.34c0-.18.05-.37.06-.56s0-.29.05-.44,0-.3,0-.46,0-.35.05-.52l0-.22a3.49,3.49,0,0,1-.17-1.09,3.29,3.29,0,0,1,.21-1l0-.09c0-.21-.05-.42-.05-.59a3.28,3.28,0,0,1-.17-.92c0-.15,0-.22,0-.29s0-.27-.06-.52a3.56,3.56,0,0,1,.05-1,.28.28,0,0,0,0-.09,2,2,0,0,1,1.92-2A2,2,0,0,1,328.1,151a3.7,3.7,0,0,1,0,.75v0c0,.06,0,.13,0,.19v0a3.58,3.58,0,0,1,.18,1l0,.23a5.35,5.35,0,0,1,.08.7c0,.16,0,.32,0,.47l0,.44a3.68,3.68,0,0,1-.11,1,.11.11,0,0,1,0,.05,4.26,4.26,0,0,1,.14.78,3.49,3.49,0,0,1-.1,1,6,6,0,0,1,.17.8c0,.16,0,.32,0,.48l0,.42c0,.14.05.28.07.41s.06.32.08.45a1.21,1.21,0,0,0,.05.18,3.89,3.89,0,0,1,.18.71,3.51,3.51,0,0,1,0,.95v0a.58.58,0,0,0,.05.14q.1.31.18.63a4.63,4.63,0,0,1,.1.65q0,.12,0,.21a4,4,0,0,1,.12.77,1.22,1.22,0,0,0,0,.17c.07.25.15.51.23.75s.09.2.14.3l.18.38.05.08a3.79,3.79,0,0,1,.42.66,1.47,1.47,0,0,1,.1.13,6,6,0,0,1,.4.58,2.83,2.83,0,0,1,.28.76,2.61,2.61,0,0,1,.55.52c.16.19.32.37.49.55a4,4,0,0,1,.45.55l.06.08a4.87,4.87,0,0,1,.53.59v0l.37.22h0a3.23,3.23,0,0,1,.73.18l.15,0a5.1,5.1,0,0,1,.68.13,3.13,3.13,0,0,1,.84.4h.4a2.9,2.9,0,0,1,.78-.1,3,3,0,0,1,1.32.29,2,2,0,0,1-.14,4h-.3l-.58,0h-.18a3,3,0,0,1-.55-.06,3.21,3.21,0,0,1-.75.09,4,4,0,0,0-.58,0,3.16,3.16,0,0,1-.82,0l-.43.24a3.9,3.9,0,0,0-.59.36l-.38.22c-.08.05-.17.09-.22.13l-.13.14a4.38,4.38,0,0,1-.41.45,4.58,4.58,0,0,1-.53.44l-.05,0h0a4.45,4.45,0,0,1-.43.71,3.11,3.11,0,0,1-.83.72l-.19.32-.11.18c-.05.09-.09.18-.13.27a2.39,2.39,0,0,0-.13.28,3.44,3.44,0,0,1-.28,1.07l-.16.31-.21.45c-.07.17-.16.34-.24.51a1.49,1.49,0,0,0-.13.25,3.06,3.06,0,0,1-.54.9l0,.08a6,6,0,0,1-.14.61,3,3,0,0,0-.07.32c0,.18-.07.35-.11.53l-.09.34c0,.16-.09.33-.12.47a1,1,0,0,1,0,.17,4.4,4.4,0,0,1-.06.73c0,.22-.07.44-.1.67l0,.13a1,1,0,0,0,0,.17,4.84,4.84,0,0,1,0,.76,2.42,2.42,0,0,1-.15.63,1.62,1.62,0,0,1,0,.4c0,.19,0,.39,0,.6v.35c0,.24,0,.49,0,.74a1.49,1.49,0,0,0,0,.21,3.82,3.82,0,0,1-.14,1,3.58,3.58,0,0,1,.14.93,3.63,3.63,0,0,1-.12.87l0,.13a2,2,0,0,1-2,1.91h0A2,2,0,0,1,323.67,194.68Zm2.94-16a1.42,1.42,0,0,0,.12-.25,6.19,6.19,0,0,1,.35-.68l.1-.17c.15-.25.3-.5.46-.73a2.93,2.93,0,0,1,.88-.83,3.66,3.66,0,0,1,1.25-1.42l.11-.08.14-.16a4.77,4.77,0,0,1,.64-.64l.12-.1a3.34,3.34,0,0,1-.57-.62l0-.06a3.94,3.94,0,0,1-.62-.72l-.06-.09c-.2-.21-.4-.42-.59-.65a3,3,0,0,1-1-.92,2.89,2.89,0,0,1-.43-1.23,3.87,3.87,0,0,1-.43-.67l-.07-.1a3.77,3.77,0,0,1-.53-.89,2.56,2.56,0,0,1-.11-.24c0-.1-.09-.19-.14-.28a4.78,4.78,0,0,1-.19.48c-.14.29-.29.57-.44.84l0,.09a3.61,3.61,0,0,1-.44,1.06,5.06,5.06,0,0,1-.61.73l-.12.13a3.36,3.36,0,0,1-1.05.83c-.17.18-.34.34-.52.5a2.88,2.88,0,0,1-.9,1.07,2.5,2.5,0,0,1-.71.36l.1.08.06,0a3.54,3.54,0,0,1,1,.6,6,6,0,0,1,.6.63l.16.19.14.12a5.13,5.13,0,0,1,.63.66,4.27,4.27,0,0,1,.47.8l.07.15a4.38,4.38,0,0,1,.38.71,3.3,3.3,0,0,0,.16.29c.15.28.3.57.44.86a1,1,0,0,0,.08.14,4.29,4.29,0,0,1,.42.79c.08.22.15.45.22.69a1.87,1.87,0,0,0,.07.22,2.4,2.4,0,0,1,.11-.23l0-.1A3.12,3.12,0,0,1,326.61,178.72Z" style="fill: #12110c"/>
    </g>
    <g>
      <g>
        <path d="M204.74,159.6c.09-2.85.2-5.69.23-8.54v-8.33a53.2,53.2,0,0,1,.7-7.45,3,3,0,0,1-.2-1.05c0-.7,0-1.4.05-2.09a21.05,21.05,0,0,1,1.08-7.33,2.93,2.93,0,0,1,.07-.41c0-.13.06-.26.1-.39-.71-3.21.41-7,2-9.88.36-2.69.2-5.4.49-8.07.78-7.07,4.91-3.11,7,0,2.55,3.73,4.35,7.74,6.64,11.53s4.69,8,6.71,12.18c4.25,8.71,8.56,17.32,12,26.41a13.4,13.4,0,0,1,1.57,1.71,28.51,28.51,0,0,1,2.58,6.19c1.44,4.44,2.73,8.94,4.12,13.39,2.42,7.76,4.31,15.69,6.64,23.47a238.24,238.24,0,0,1,6.44,25.18,3.17,3.17,0,0,1,1.31,2.11c2,11.24,5.5,22.13,7.39,33.42.26,1.58.49,3.16.74,4.75a1.41,1.41,0,0,1,.06-.22,11.51,11.51,0,0,1,.64-1.55c.26-.49.79-.81,1.12-1.25a10.52,10.52,0,0,1,.93-1.39,9.36,9.36,0,0,1,1.35-1,8.1,8.1,0,0,1,1.57-.55,7.43,7.43,0,0,1,1.57-.43,10.31,10.31,0,0,1,3.33-.15,11.79,11.79,0,0,1,1.61.47,11.05,11.05,0,0,1,1.61.48,12,12,0,0,1,1.36,1,14.28,14.28,0,0,1,1.47.84,13.4,13.4,0,0,1,1.24,1.15c.38.41.59,1,.93,1.42s.89.76,1.18,1.25a16,16,0,0,1,.6,1.6c.23.51.43,1,.62,1.57s.44,1,.58,1.59.25,1.09.34,1.65.22,1.11.26,1.68,0,1.13,0,1.7a15.57,15.57,0,0,1,0,1.67,12.59,12.59,0,0,1-.37,1.64,13.36,13.36,0,0,1-.49,1.59,13.88,13.88,0,0,1-.76,1.49,11.79,11.79,0,0,1-.88,1.4,12.07,12.07,0,0,1-1,1.34,11.09,11.09,0,0,1-1.16,1.21,10.58,10.58,0,0,1-1.38.95,10,10,0,0,1-1.57.61,9.06,9.06,0,0,1-3.28.46,9.55,9.55,0,0,1-1.69,0,8.84,8.84,0,0,1-1.57-.62,9.66,9.66,0,0,1-1.58-.59,11.47,11.47,0,0,1-1.35-1,13.18,13.18,0,0,1-1.13-1.23,12,12,0,0,1-1.18-1.18l-.56-.69c.59,4.18,1.19,8.36,1.87,12.53a1.44,1.44,0,0,1,.53.88l.24,1.38a9.3,9.3,0,0,1,.15,1c0,.33.1.67.15,1s.08.46.11.7l.05.29c0,.34.09.66.15,1s.1.58.14.87l.19,1.11c.06.31.1.63.15,1s.09.64.14.95.09.47.14.7l.05.26c.08.33.15.65.2.95s.15.69.23,1,.14.62.2.95.12.64.21,1,.12.62.16.87a5,5,0,0,1,.09.87v.13a8.85,8.85,0,0,0,.1,1c.06.35.16.68.27,1.09l.06.22a6.19,6.19,0,0,1,.15.65c0,.31.08.62.1.89l0,.24c0,.26,0,.52.11.84s.07.61.11.91.07.68.12,1a6.42,6.42,0,0,0,.29,1l0,.07a4.5,4.5,0,0,1,.27.85c0,.24.05.48.07.72v.22a9.1,9.1,0,0,0,.11,1.06c0,.31.07.61.11,1s.07.64.13,1,.09.54.14.81l.18,1.11c.06.33.09.66.12,1s.08.65.13,1v0c0,.09,0,.2,0,.28a2,2,0,0,0,0,.23l.05.26a6.19,6.19,0,0,1,.17,1.51,8.56,8.56,0,0,1-.21,1.83,10.08,10.08,0,0,1-.68,1.72,11.53,11.53,0,0,1-.95,1.66,12.93,12.93,0,0,1-1,1.32l-.15.18a12.24,12.24,0,0,1-.95,1l-.39.36a15.86,15.86,0,0,1-1.43,1.29c-.54.45-1,.83-1.55,1.19s-1.06.69-1.63,1a7.08,7.08,0,0,0-.71.51l-.06.05a4.4,4.4,0,0,1-.82.57,7.55,7.55,0,0,1-1,.44l-.82.36c-.18.08-.38.15-.58.22l-.21.08a1.49,1.49,0,0,1-1.24-.09,1.47,1.47,0,0,1-.75-1l-.06-.25a5.31,5.31,0,0,1-.08-.59l0-.21a6.19,6.19,0,0,0-.11-.93,5.73,5.73,0,0,0-.36-.95,4.85,4.85,0,0,1-.26-.69c0-.18-.09-.37-.14-.55l-.08-.29c-.07-.26-.14-.51-.2-.79s-.13-.53-.18-.77l-.06-.28c0-.19-.08-.38-.13-.56l0-.1a3.39,3.39,0,0,1-.05-.44l0-.26a5.79,5.79,0,0,0-.13-1,4.85,4.85,0,0,0-.3-.81l-.05-.14a3.42,3.42,0,0,1-.24-.65,1.55,1.55,0,0,1,0-.21c0-.11,0-.26,0-.49a3.75,3.75,0,0,0-.1-1,2.86,2.86,0,0,0-.61-1h0a1.75,1.75,0,0,1-.36-1.05,5,5,0,0,0-.12-1.25c0-.12,0-.26-.08-.4l-.05-.32c-.05-.31-.1-.63-.19-1a5.86,5.86,0,0,0-.33-.9,6.52,6.52,0,0,1-.31-.77,4.53,4.53,0,0,0-.38-.93,4,4,0,0,1-.32-.72,4.14,4.14,0,0,1-.11-.79,4.37,4.37,0,0,0-.17-1,.74.74,0,0,1,0-.14,5.59,5.59,0,0,1-.09-.6,4.58,4.58,0,0,0-.24-1.07,5.46,5.46,0,0,0-.5-1,5.5,5.5,0,0,1-.3-.59,7.59,7.59,0,0,0-.66-1.1l-.08-.11c-.08-.12-.16-.23-.25-.39a5.66,5.66,0,0,0-1.33-1.52,4.24,4.24,0,0,0-1.86-1,7.11,7.11,0,0,0-1.5-.16l-.49,0a.71.71,0,0,0-.32.09,1.34,1.34,0,0,1-.48.19,3.1,3.1,0,0,0-1,.36,5.06,5.06,0,0,0-1.3,1.18,3.46,3.46,0,0,0-.56,1.14l0,.09a2,2,0,0,1-.11.29,7.2,7.2,0,0,0-.46,1.58,14.28,14.28,0,0,0-.12,1.68c0,.14,0,.28,0,.42v.2a6.5,6.5,0,0,0-.05,1.1l0,.29c0,.44.07.89.13,1.38,0,.23,0,.45.05.68s0,.62.1.94a8,8,0,0,0,.27,1,4.06,4.06,0,0,1,.16.63,3.5,3.5,0,0,1,0,.66,5.54,5.54,0,0,0,.06,1c0,.16.07.32.1.48l.11.52c0,.19.09.39.12.6s.06.37.08.55l.06.5c0,.19,0,.37.07.57a5.77,5.77,0,0,0,.27.9,2.62,2.62,0,0,1,.24.74c0,.28.1.57.16.88l.14.78a1.39,1.39,0,0,1,0,.73,3.47,3.47,0,0,0,0,1,3.26,3.26,0,0,0,.42,1l.1.19a1.42,1.42,0,0,1,.19.52c0,.16,0,.33,0,.5l0,.41c0,.22.05.44.09.65,0,0,0,.08,0,.12a2.94,2.94,0,0,1,0,.6,4.21,4.21,0,0,0,0,1,3.18,3.18,0,0,0,.4,1c.07.13.14.25.2.38a1.38,1.38,0,0,1,.08.29,6.87,6.87,0,0,1,.1.74c0,.3.08.6.13.89a1.69,1.69,0,0,1,0,.55l0,.19a3.62,3.62,0,0,0,0,.5,1.5,1.5,0,0,1-1.46,1.5h-1.2c-.28,0-.62-.08-.95-.15l-.27-.05-.64-.11a6.23,6.23,0,0,0-1.06,0h-.13a3.79,3.79,0,0,1-.8,0c-.42-.08-.84-.19-1.19-.28l-.71-.17c-.43-.11-.85-.26-1.2-.38l-.39-.13-.22-.07A6.24,6.24,0,0,1,243,347l-.19-.09a6.39,6.39,0,0,0-.7-.34c-.29-.12-.58-.21-.87-.3l-.12,0a5.52,5.52,0,0,1-.84-.32,11.89,11.89,0,0,1-1.18-.76l-.41-.29a13.22,13.22,0,0,1-1.47-1.17,10,10,0,0,1-1.16-1.39l-.35-.46a5,5,0,0,1-.73-1.08,8.29,8.29,0,0,1-.49-1.75.65.65,0,0,0-.11-.26,1.48,1.48,0,0,1-.28-.56,5,5,0,0,0-.37-.92l1.32-.71-1.38.58a2.64,2.64,0,0,1-.28-.68l-.26-1.12c0-.25-.11-.51-.14-.69a3.59,3.59,0,0,1-.12-.94,6.58,6.58,0,0,0-.11-1.07c-.08-.3-.15-.62-.22-.93s-.13-.64-.2-1a4,4,0,0,0-.52-1.08l-.07-.1a3.11,3.11,0,0,1-.22-.4,1.76,1.76,0,0,1-.1-.3c-.05-.21-.1-.52-.15-.81s-.12-.68-.18-1a3.22,3.22,0,0,1-.08-.86,4.55,4.55,0,0,0-.11-1.13c-.07-.31-.15-.61-.23-.91s-.17-.63-.24-.93-.17-.65-.25-.95-.17-.61-.24-.91a5.34,5.34,0,0,1-.13-.8v-.11c0-.35-.1-.7-.18-1a3.83,3.83,0,0,0-.45-1,3.15,3.15,0,0,1-.31-.57,1.61,1.61,0,0,1-.1-.36c0-.09,0-.36-.05-.72a6.1,6.1,0,0,0-.1-1,8.69,8.69,0,0,0-.35-1,5.92,5.92,0,0,1-.31-.85l-.21-1c-.06-.29-.12-.59-.2-.93s-.17-.64-.27-1-.18-.58-.25-.86-.09-.47-.12-.72l0-.22a9.59,9.59,0,0,0-.16-1,5.5,5.5,0,0,1-.12-.87c0-.25-.07-.54-.12-.85a1.37,1.37,0,0,1,.08-.78c-.1-.3-.19-.61-.27-.91-.84-2.54-1.8-5-2.44-7.64-.2-.76-.36-1.54-.51-2.31-.78-2.82-1.16-5.69-1.72-8.56,0-.12,0-.24,0-.35-.17-.57-.33-1.14-.48-1.72a3.47,3.47,0,0,1-.32-.76,87.75,87.75,0,0,1-1.93-9.08c-.21-.93-.43-1.86-.67-2.78a165.85,165.85,0,0,1-4.66-26A48.87,48.87,0,0,1,212,235.09a208.31,208.31,0,0,1-5.07-26.49A133.14,133.14,0,0,1,205.27,194c-.12-3.71.25-7.37.19-11a2.57,2.57,0,0,1-.47-1.35c-.28-5.24,0-10.47,0-15.71a3.25,3.25,0,0,1-.39-1.48C204.61,162.77,204.61,161.2,204.74,159.6Z" style="fill: #c6c5c6"/>
        <path d="M254.7,315.22a6.85,6.85,0,0,1,1.83.12,3.65,3.65,0,0,1,1.54.9,5,5,0,0,1,1.19,1.35,14.44,14.44,0,0,1,.94,1.51c.23.52.59,1,.8,1.6s.17,1.19.35,1.76.12,1.2.28,1.77.55,1.09.7,1.65.5,1.12.64,1.67.19,1.22.33,1.75,0,1.32.15,1.79.77.93.93,1.5,0,1.15.15,1.72.44,1,.58,1.6.08,1.14.22,1.7.24,1.09.38,1.65.29,1.09.43,1.64.47,1.05.6,1.6.08,1.14.21,1.7.25,1.1.38,1.66.37,1.07.5,1.62.41,1.07.53,1.62-.19,1.2-.06,1.75.48,1,.6,1.61.35,1.08.48,1.64.18,1.12.3,1.67.12,1.14.24,1.7.37,1.08.49,1.63-.09,1.18,0,1.74.47,1.06.59,1.61.35,1.09.47,1.63.29,1.1.41,1.66.1,1.14.21,1.7,0,1.16.1,1.72.43,1.08.53,1.64.23,1.12.32,1.68-.05,1.17,0,1.73.43,1.09.52,1.65.26,1.12.35,1.67-.24,1.2-.16,1.75.22,1.13.29,1.69.33,1.11.39,1.67.29,1.12.35,1.68.15,1.14.2,1.7.05,1.16.09,1.71-.21,1.17-.17,1.72.33,1.15.35,1.69-.17,1.17-.17,1.71.31,1.19.28,1.71a8.62,8.62,0,0,1-.49,1.69,6,6,0,0,1-.5,1.66,3.59,3.59,0,0,1-1.24,1.19,2.77,2.77,0,0,1-1.6.31,3.66,3.66,0,0,1-1.71-.1,5,5,0,0,1-1.32-1.13,6,6,0,0,1-1.12-1.36c-.19-.42-.08-1.09-.32-1.71s-.71-.88-.92-1.46-.11-1.12-.3-1.69-.52-1-.7-1.55-.34-1.06-.51-1.62-.05-1.15-.21-1.7-.71-1-.88-1.51-.25-1.1-.41-1.65-.37-1.07-.53-1.61-.27-1.1-.42-1.65-.27-1.1-.42-1.65-.29-1.1-.43-1.64-.13-1.14-.27-1.68-.17-1.12-.31-1.67-.3-1.09-.44-1.64-.46-1.05-.59-1.6-.24-1.1-.36-1.65-.15-1.13-.27-1.68-.4-1.06-.52-1.62-.21-1.11-.33-1.66-.35-1.08-.47-1.63.11-1.17,0-1.73-.43-1.06-.54-1.61-.41-1.07-.52-1.62-.14-1.13-.25-1.68-.28-1.1-.39-1.65.13-1.18,0-1.73-.51-1.06-.61-1.62.09-1.16,0-1.72-.6-1-.7-1.6.12-1.17,0-1.73-.13-1.13-.23-1.69-.58-1-.68-1.61.08-1.15,0-1.71-.11-1.13-.21-1.69-.58-1.05-.68-1.62.17-1.17.08-1.73-.2-1.12-.3-1.68-.41-1.08-.5-1.65-.13-1.08-.22-1.62-.24-1.07-.33-1.6,0-1.11-.08-1.64-.34-1.06-.42-1.59-.1-1.1-.17-1.62-.09-1.11-.13-1.63.08-1.11.09-1.63a11.54,11.54,0,0,1,.1-1.6,6,6,0,0,1,.42-1.41,5,5,0,0,1,.6-1.37,4.3,4.3,0,0,1,1.12-1,4.66,4.66,0,0,1,1.43-.42" style="fill: #c6c5c6"/>
        <path d="M206.42,355.75a7.64,7.64,0,0,0,.07-1.12,7.73,7.73,0,0,0-.1-1.11,7.34,7.34,0,0,1-.09-.94,1.37,1.37,0,0,1,0-.19,4.88,4.88,0,0,1,.15-.66l0-.13a4.37,4.37,0,0,0,.19-1.07c0-.3,0-.6.06-.9l0-.43c0-.25.05-.5.05-.77a5.16,5.16,0,0,0-.09-1v-.11a4.35,4.35,0,0,1-.11-.86s0-.07,0-.1a5.22,5.22,0,0,1,.16-.9,6.3,6.3,0,0,0,.21-1.13l0-1c0-.37,0-.76.05-1.12s0-.51,0-.77v-.26c0-.35,0-.71,0-1.06s.05-.51.07-.86l.11-1.21a5.71,5.71,0,0,0,0-1v-.14a7,7,0,0,1,0-.94,9.88,9.88,0,0,1,.2-1.07c.07-.31.14-.63.18-.93a5.22,5.22,0,0,1,.18-.83l.07-.26c.09-.31.18-.61.24-.91l.05-.26c.1-.59.22-1.17.37-1.8a6.45,6.45,0,0,0,.17-1l0-.14a4.31,4.31,0,0,1,.18-.87c.13-.44.29-.88.45-1.32l.23-.61c.23-.64.47-1.27.76-1.93.11-.25.28-.53.45-.83l.08-.13c.16-.27.31-.52.45-.8.29-.57.61-1.14.95-1.71s.48-.75.7-1.08l.47-.67.38-.63.1-.18a7.23,7.23,0,0,1,.56-.92,6.45,6.45,0,0,1,.63-.66l.11-.1c.25-.23.49-.47.69-.69l.37-.43c.33-.38.65-.75,1-1.08s.62-.57.94-.85l.59-.51a8.44,8.44,0,0,0,.71-.74,6.42,6.42,0,0,1,.73-.74c.48-.37,1-.8,1.64-1.19l.16-.1a4.86,4.86,0,0,1,.67-.24c.23-.08.52-.19.81-.32a1.47,1.47,0,0,1,1.28,0,1.45,1.45,0,0,1,.8,1c.08.31.16.61.24.89a8.13,8.13,0,0,1,.25.88l.41,1.89a7.58,7.58,0,0,0,.38,1.08l.05.12a5.49,5.49,0,0,1,.22.64,3.63,3.63,0,0,1,.08.73v.18a6.75,6.75,0,0,0,.12,1.06,4.28,4.28,0,0,0,.49,1.09l.09.15a2.53,2.53,0,0,1,.21.44.66.66,0,0,1,.06.2,8,8,0,0,1,.12.82,9.26,9.26,0,0,0,.18,1c.07.32.15.64.25,1s.15.58.23.91.17.65.25.95.16.61.24,1a4.59,4.59,0,0,1,.06.82,5.18,5.18,0,0,0,.12,1.13c0,.2.08.41.11.61l.05.28c.06.34.12.69.19,1a3.6,3.6,0,0,0,.52,1.08l.07.12a2.6,2.6,0,0,1,.23.4,2.13,2.13,0,0,1,.11.33c0,.18.09.45.16.78s.14.65.21,1a4.12,4.12,0,0,1,.09.91,5.68,5.68,0,0,0,.13,1.05c.07.29.13.59.21.94s.12.61.21,1a4.65,4.65,0,0,0,.45,1.09l.06.12a2.45,2.45,0,0,1,.24.58c.08.31.15.64.19.88l.1.49c0,.18.08.36.12.51a.66.66,0,0,0,.17.32,1.8,1.8,0,0,1,.29.39.09.09,0,0,0,0,.06.76.76,0,0,0,.07.13,1.56,1.56,0,0,1,.08,1.14.5.5,0,0,0,0,.16l-.09.83-.09,1,0,.22a6.1,6.1,0,0,1-.17.89c-.07.36-.14.72-.19,1.09s-.06.61-.1,1l-.11,1c0,.33-.1.66-.16.93l0,.13c-.05.32-.1.62-.14.95s-.11.61-.18.93a8.69,8.69,0,0,0-.2,1c0,.33-.07.66-.1,1s-.07.65-.11,1a6.31,6.31,0,0,0,0,1.06v.06a3.74,3.74,0,0,1,0,1,3.52,3.52,0,0,1-.29.86,5,5,0,0,0-.33,1.07,8.05,8.05,0,0,0-.08,1.11V360a7.39,7.39,0,0,1-.06.74,5.72,5.72,0,0,1-.25.86l-.05.15a5.94,5.94,0,0,0-.26.95c0,.23-.07.46-.1.69l0,.25c0,.35-.09.69-.15,1-.13.67-.27,1.32-.41,2-.05.21-.08.42-.12.63l0,.26c-.06.36-.12.71-.2,1.05a9.3,9.3,0,0,1-.31.95,8.78,8.78,0,0,0-.32.95,9.75,9.75,0,0,0-.19,1l0,.13a5.29,5.29,0,0,1-.17.81,8.21,8.21,0,0,0-.18,1l0,.1a5.31,5.31,0,0,1-.2.95l-.2.73c-.11.39-.23.82-.37,1.26s-.22.61-.34.92l-.39,1a7,7,0,0,1-.46.9,8.3,8.3,0,0,0-.47.88c-.12.27-.27.55-.44.85l-.15.26c-.13.23-.26.44-.38.66l-.25.48c-.2.39-.43.84-.7,1.26a15.53,15.53,0,0,1-1.19,1.56l-.51.6a3.75,3.75,0,0,1-.91.91,2.93,2.93,0,0,1-.86.33,6.68,6.68,0,0,0-.75.24l-.41.17a3.89,3.89,0,0,1-1.34.43l-.32,0a8,8,0,0,1-1.26-.14l-.24,0c-.23,0-.44-.06-.74-.09l-.16,0a3.08,3.08,0,0,1-.86-.18l-.11-.05a4.83,4.83,0,0,1-1.1-.89l-.33-.32a9.42,9.42,0,0,1-1.26-1.44,7.41,7.41,0,0,0-.58-.7,4.92,4.92,0,0,1-.69-.91c-.18-.39-.35-.86-.48-1.24l-.15-.4-.09-.24a4.35,4.35,0,0,1-.2-1l0-.13a7.3,7.3,0,0,0-.19-.93c-.08-.31-.19-.6-.3-.9a8.55,8.55,0,0,1-.36-1c-.06-.29-.13-.56-.2-.81-.11-.4-.21-.8-.28-1.16a5.12,5.12,0,0,1-.08-.87v-.21a6.05,6.05,0,0,0-.06-1c-.05-.34-.09-.68-.13-1l-.23-1.86c-.06-.43-.12-.85-.16-1.25s-.07-.79-.09-1.12l-.08-1a7.62,7.62,0,0,0-.24-1.21l0-.15A5.93,5.93,0,0,1,207,365c0-.35,0-.71,0-1v-.29c0-.25,0-.51,0-.75s0-.73,0-1.1,0-.66,0-1,0-.73,0-1.14l0-.92a4.45,4.45,0,0,0-.29-1.22c-.08-.24-.17-.58-.19-.69a.53.53,0,0,1,0-.13,4.41,4.41,0,0,1,0-.76Z" style="fill: #c6c5c6"/>
        <path d="M280.85,298.6l.32,0c.25,0,.51.05.84.1.17,0,.43.12.71.21l.11,0a7.9,7.9,0,0,0,.88.26l.3.07c.49.11,1,.22,1.43.36a4.1,4.1,0,0,0,1,.12h.13a2.34,2.34,0,0,1,.57.07l.17.05c.21.07.43.17.67.27l.32.14.61.27a12.23,12.23,0,0,1,1.15.55l.46.22.68.31a9.18,9.18,0,0,1,.95.44,1.06,1.06,0,0,1,.2.12l.53.44a5.54,5.54,0,0,0,.72.58c.24.15.46.32.68.48l.2.16c.19.16.38.3.62.47s.42.34.63.52l.15.13c.19.17.38.34.57.49a3.06,3.06,0,0,0,1,.49l.21.06a1.54,1.54,0,0,1,.69.44l.28.35.11.14a7.92,7.92,0,0,0,.59.71c.33.33.64.67.94,1l.64.7c.28.32.58.64.87,1s.32.44.48.68l.07.11c.16.24.31.49.44.67a6,6,0,0,1,.47.69l.12.2c.14.23.27.46.39.64l.53.76c.17.26.34.52.48.75a3.84,3.84,0,0,1,.35.81,6.56,6.56,0,0,0,.37.89c.2.37.4.73.59,1.11l.27.51a3,3,0,0,0,.84.91l.26.23a1.8,1.8,0,0,1,.29.39l.61,1.25.07.15a1.21,1.21,0,0,1,.13.42,1.64,1.64,0,0,1,0,.22.71.71,0,0,1,0,.14,3.27,3.27,0,0,0,.23,1.18l.16.34.2.4.45.91a4.72,4.72,0,0,0,.59.93l.06.09a2.84,2.84,0,0,1,.31.48,4.36,4.36,0,0,1,.27.86,3.81,3.81,0,0,0,.84,1.85l.09.12a2.73,2.73,0,0,1,.35.56,6.7,6.7,0,0,1,.28.83c.11.32.21.64.3.9s.26.58.4.86l.06.14a7.22,7.22,0,0,1,.31.69c.09.25.17.51.24.77a.38.38,0,0,1,0,.1c.08.3.17.59.29.92a4.49,4.49,0,0,1,.14.75,3.92,3.92,0,0,0,.21,1,7.81,7.81,0,0,0,.3.75l.1.24c.1.23.2.45.28.69a3.81,3.81,0,0,0,.54,1c.09.13.19.25.27.39a1.21,1.21,0,0,1,.21.68c0,.06,0,.22.05.45a4.72,4.72,0,0,0,.16.95c.09.28.2.56.34.89a5.5,5.5,0,0,1,.31.78c.08.26.14.52.2.78l0,.2c.07.27.13.54.21.8a1.84,1.84,0,0,1,.05.41V346a4.56,4.56,0,0,0,.13,1.27c.07.28.16.58.24.83s.21.65.31,1a4.1,4.1,0,0,0,.43,1,.47.47,0,0,1,.05.1l.06.12a2.58,2.58,0,0,1,.23.54,4.71,4.71,0,0,1,.14.91l0,.21a6.87,6.87,0,0,0,.14.88,6,6,0,0,1,.08.85,7.24,7.24,0,0,0,.11,1,4.3,4.3,0,0,0,.36,1,5.47,5.47,0,0,1,.28.65c0,.06,0,.13,0,.19,0,.25,0,.52.07.79v.27c0,.27,0,.56.06.83a5,5,0,0,0,.07.54l0,.27a8.5,8.5,0,0,1,.14,1.09c0,.58,0,1.17,0,1.88a17.53,17.53,0,0,1-.14,1.9,10.65,10.65,0,0,1-.39,1.52l-.07.24a7.64,7.64,0,0,1-.73,1.63l-.08.15-.17.34-.06.11a3.53,3.53,0,0,1-.63,1,6.16,6.16,0,0,1-1.29,1,1.49,1.49,0,0,1-.51.19l-.37,0h-.12a3.41,3.41,0,0,0-.82.13,4.8,4.8,0,0,0-.67.23c-.17.07-.39.15-.53.19a1.54,1.54,0,0,1-.43.06,1.47,1.47,0,0,1-.46-.07l-.41-.15c-.26-.09-.52-.19-.75-.25a5.11,5.11,0,0,0-.92-.09h-.43a1.82,1.82,0,0,1-.91-.42,3,3,0,0,1-.28-.24,5.14,5.14,0,0,0-.7-.54,7.38,7.38,0,0,0-.69-.39c-.32-.17-.61-.34-.8-.46l-.09-.08a8,8,0,0,1-.75-.73,6.47,6.47,0,0,0-.52-.53c-.22-.2-.44-.39-.66-.56a7.92,7.92,0,0,1-.72-.64l-.61-.61c-.25-.24-.5-.48-.73-.74a8.58,8.58,0,0,1-.59-.85,7.78,7.78,0,0,0-.48-.7c-.21-.26-.44-.51-.68-.76l-.07-.08a7.81,7.81,0,0,1-.53-.6,6.47,6.47,0,0,1-.42-.75l-.1-.18a7,7,0,0,0-.4-.67,6.19,6.19,0,0,0-.69-.73,4.1,4.1,0,0,1-.6-.66l-.09-.16a3,3,0,0,1-.15-.39.76.76,0,0,1,0-.11,3.89,3.89,0,0,0-.46-1,3.2,3.2,0,0,0-.89-.83l-.23-.19a1.22,1.22,0,0,1-.3-.34l-.16-.26-.43-.69-.3-.49a2.84,2.84,0,0,1-.34-.76,5.81,5.81,0,0,0-.42-1,7.4,7.4,0,0,1-.41-.78c-.14-.3-.28-.59-.45-.89a3.58,3.58,0,0,0-.82-.87l-.17-.14a1.6,1.6,0,0,1-.44-.67c0-.11-.1-.32-.12-.41a4.27,4.27,0,0,0-.41-1l-.39-.69c-.14-.22-.26-.45-.39-.68l-.16-.28a4.4,4.4,0,0,1-.25-.7,6.31,6.31,0,0,0-.37-1,3.24,3.24,0,0,0-.88-.92,2,2,0,0,1-.27-.23,1.56,1.56,0,0,1-.33-.5c-.05-.12-.09-.26-.14-.41l1.44-.44-1.47.32a5.75,5.75,0,0,0-.35-.93l-.16-.29c-.09-.17-.18-.34-.31-.55s-.19-.37-.29-.54l-.14-.27a8.09,8.09,0,0,0-.5-.79l-.1-.15a4.22,4.22,0,0,1-.39-.61,1.17,1.17,0,0,1-.17-.63l0-.11a3.51,3.51,0,0,0-.3-1.1,5.09,5.09,0,0,0-.54-.8l-.1-.14a4.69,4.69,0,0,1-.4-.57.68.68,0,0,0-.17-.21,1.48,1.48,0,0,1-.53-1.34c0-.44.08-.87.1-1.26a8.09,8.09,0,0,0-.22-1.9l0-.21a1.45,1.45,0,0,1,0-.3c0-.05,0-.11,0-.12-.06-.31-.09-.63-.13-1s-.08-.68-.14-1.05-.09-.55-.14-.83l0-.12c-.06-.31-.11-.63-.17-1s-.07-.59-.11-.89-.07-.7-.13-1.05-.05-.47-.07-.71l0-.39a8.6,8.6,0,0,0-.08-.86,5.32,5.32,0,0,0-.32-1.06,4.26,4.26,0,0,1-.25-.84c-.05-.24-.07-.49-.1-.75l0-.19c0-.34-.07-.67-.14-1.07,0-.2-.05-.41-.07-.62l0-.29c0-.34-.06-.7-.11-1a9.24,9.24,0,0,0-.28-1.09c-.08-.29-.15-.57-.2-.85a8.72,8.72,0,0,1-.08-.93,7.43,7.43,0,0,0-.09-1c-.06-.33-.13-.65-.21-1l0-.16c0-.26-.1-.51-.14-.76s-.15-.69-.24-1.06l0-.24c-.05-.21-.1-.42-.15-.66s-.11-.59-.18-.89l-.08-.4c-.05-.21-.1-.43-.14-.65s-.09-.62-.13-.93-.1-.7-.16-1l-.16-.95c-.05-.34-.11-.66-.17-1s-.1-.63-.14-.93l-.09-.59a1.48,1.48,0,0,1,.41-1.26A1.45,1.45,0,0,1,280.85,298.6Z" style="fill: #c6c5c6"/>
      </g>
      <path d="M263.81,274.2c.25.17.45.43.68.62s.54.36.73.55a4.22,4.22,0,0,1,.57.71,5.54,5.54,0,0,1,.54.64,6.59,6.59,0,0,1,.38.75c.1.26.15.54.23.81a6.29,6.29,0,0,1,.29.79c0,.28-.1.58-.08.86s.24.56.23.84-.06.57-.1.84-.29.51-.38.78a4.66,4.66,0,0,1-.23.81,6.73,6.73,0,0,1-.44.73,6.73,6.73,0,0,1-.44.73,5.79,5.79,0,0,1-.57.64,5.51,5.51,0,0,1-.7.49,7.91,7.91,0,0,1-.7.48c-.25.14-.43.41-.68.53a8.11,8.11,0,0,1-.86.14,4.46,4.46,0,0,1-1.66.3,6,6,0,0,1-.85.06,8.23,8.23,0,0,1-.86,0c-.27,0-.53-.22-.81-.3s-.52-.2-.79-.31a8,8,0,0,1-.77-.41,7.55,7.55,0,0,1-.71-.51,8.59,8.59,0,0,1-1.89-1.81c-.15-.25-.1-.6-.22-.87s-.44-.47-.52-.75a38,38,0,0,0-.14-1.77,6.87,6.87,0,0,1-.12-.88,6.21,6.21,0,0,1,.15-.88,7.42,7.42,0,0,1,.18-.87c.09-.29.35-.51.47-.77a7.59,7.59,0,0,1,.33-.78c.15-.24.43-.39.6-.61s.31-.47.5-.67a6.66,6.66,0,0,1,.66-.53,6.41,6.41,0,0,1,.7-.45,5.22,5.22,0,0,1,.75-.37,7.31,7.31,0,0,1,.78-.29,7.55,7.55,0,0,1,.83-.13c.28,0,.53-.27.82-.28s.55.19.84.22a6,6,0,0,1,.85,0,8.17,8.17,0,0,1,.84.14c.27.09.46.36.73.48A3.75,3.75,0,0,1,263.81,274.2ZM214.3,171c.08,4.05,2.35,5.5,2.76,8.65.95,7.14-4.68,5.47,2.34,23,3,7.38-2,8.58.06,16.14,1.7,6.28,5,9.92,4,19.9-.63,6.21,4.26,7.47,3.62,14.21-.3,3.21,2,13.22,4.39,18.72,1.77,4.1-.23,8.5.69,12.33,1.67,7,5.83,9.85,4.59,16.46-1.7,9.07,2.47,16.15,5.56,25.49,2.23,6.73.9,13.48,4,20.91,1.22,2.89,6.07,3.34,7.46,1.42.91-.63.65-3.32.46-4.59a38.19,38.19,0,0,0-1.47-7.52c-1-4.79-1.8-9.54-2.42-14.56a12.83,12.83,0,0,0,.61-4.41c-1.63-6.61-7-7.25-4.09-13.41,1.91-4.1.07-8.43-.78-11-.58-1.74-2.92-7.08-3.15-7.63-.56-1.37-1.25-2.83-1.9-4.35a8.19,8.19,0,0,1-.61-2.2c-.24-3.48.91-3.75,1.21-5.57.5-3-5-11.37-4.61-13.95s2-3.27,1.4-7.05c-.5-3-5.47-5.07-5-8.94.32-2.5,2.74-5.77-.28-12.66-1.76-4,1.07-7.06-1.81-10.78-1.91-2.47-2.18-3-1.77-6.83a8.26,8.26,0,0,1,1.81-2.93c2.29-2.75-.1-6.64-2-9.37-2.33-3.32-7.06-9.92-3.93-12.55s1.71-8.25-1.42-15c-4.62-10-2.81-24.88-7.71-25.87-1.83-.36-2.49,1.45-3.2,3.38C211.27,155.32,214.18,164.67,214.3,171Z" style="fill: #fff"/>
      <path d="M251.52,280.46a3.25,3.25,0,0,1-.08-.9,6.15,6.15,0,0,1,.13-.86l.07-.37a6.12,6.12,0,0,1,.2-.87,3,3,0,0,1,.49-.89l0-.07c0-.06.05-.13.08-.19a3.82,3.82,0,0,1,.34-.74,2.82,2.82,0,0,1,.62-.68l.07-.07a1.09,1.09,0,0,0,.13-.17,3.89,3.89,0,0,1,.5-.63,7,7,0,0,1,.66-.56l.12-.09a9.18,9.18,0,0,1,.86-.56,8.68,8.68,0,0,1,.92-.45,6.91,6.91,0,0,1,1-.35,4,4,0,0,1,.8-.14l.13,0,0,0a2.51,2.51,0,0,1,1.11-.29,2.91,2.91,0,0,1,1,.2h0a3.09,3.09,0,0,1,1,0l.22,0a4,4,0,0,1,.78.15,2.68,2.68,0,0,1,.88.51l.05,0,.1,0a3.69,3.69,0,0,1,.93.43,4.06,4.06,0,0,1,.63.56l.16.15a1.77,1.77,0,0,0,.24.17,4.53,4.53,0,0,1,.57.45,3.13,3.13,0,0,1,.6.71l.14.19.11.12a3,3,0,0,1,.53.68,7,7,0,0,1,.46.91,4.87,4.87,0,0,1,.23.74l.06.22a.76.76,0,0,0,.06.16,3.08,3.08,0,0,1,.27.8,2.55,2.55,0,0,1,0,1,2.33,2.33,0,0,1,.2,1,8.77,8.77,0,0,1-.12,1,2.79,2.79,0,0,1-.39.95l0,0a1.06,1.06,0,0,0,0,.19,4.06,4.06,0,0,1-.27.82,7.76,7.76,0,0,1-.4.69l-.12.18a1.28,1.28,0,0,0-.11.2,4.17,4.17,0,0,1-.42.67,10.21,10.21,0,0,1-.69.77,3.28,3.28,0,0,1-.7.52l-.14.09a7.26,7.26,0,0,1-.81.55l-.09.08a2.8,2.8,0,0,1-.8.57,2.88,2.88,0,0,1-1,.21h-.05l-.18.06a6.86,6.86,0,0,1-.81.21,6.11,6.11,0,0,1-.86.09h-.15l-.22,0a4.18,4.18,0,0,1-.61.05h-.66a2.78,2.78,0,0,1-.58-.05,3.32,3.32,0,0,1-.81-.27l-.17-.07a9.15,9.15,0,0,1-.94-.37,6,6,0,0,1-.8-.41l-.12-.07a5.08,5.08,0,0,1-.7-.48l-.32-.24a6,6,0,0,1-.68-.54,1.29,1.29,0,0,0-.17-.16,5.42,5.42,0,0,1-.6-.59,1.07,1.07,0,0,0-.14-.16,3.6,3.6,0,0,1-.55-.69,2.81,2.81,0,0,1-.32-1,2.4,2.4,0,0,1-.57-1,3,3,0,0,1-.09-.93v-.15a9,9,0,0,1-.11-1A.5.5,0,0,0,251.52,280.46Zm3.14,1.34a2.42,2.42,0,0,1,.63,1.45l.07.06.33.37a1.21,1.21,0,0,0,.2.19,3.65,3.65,0,0,1,.3.27,2.18,2.18,0,0,0,.34.26l.42.31a2.16,2.16,0,0,0,.33.24l.14.08a4.48,4.48,0,0,0,.49.26c.21.09.41.18.63.25a3.7,3.7,0,0,1,.52.2l.11.06h.71l.27,0,.38,0h.2a3.57,3.57,0,0,0,.46,0,1.09,1.09,0,0,0,.24-.07,4.48,4.48,0,0,1-2.05-7.94,4.32,4.32,0,0,1,6.09,1s0,0,0,0l-.09-.34a2.8,2.8,0,0,0-.09-.31,5.83,5.83,0,0,0-.28-.56l-.11-.12a3.22,3.22,0,0,1-.29-.33,3.16,3.16,0,0,1-.35-.49l-.1-.09a.94.94,0,0,0-.19-.14c-.16-.11-.32-.22-.48-.35s-.26-.24-.39-.37l-.15-.16-.21-.07c-.14-.05-.27-.09-.4-.15a2.84,2.84,0,0,1-.69-.44l-.16,0-.33-.05h-.09a3.88,3.88,0,0,1-.48,0h-.2a2.69,2.69,0,0,1-.66-.15,2.2,2.2,0,0,1-.64.2l-.36.05a1.26,1.26,0,0,0-.28,0,4.49,4.49,0,0,0-.61.23,5.71,5.71,0,0,0-1.13.62l-.14.11a3.72,3.72,0,0,0-.37.3,1.18,1.18,0,0,0-.13.18l-.26.37a3.27,3.27,0,0,1-.46.45l-.06.05a.78.78,0,0,1,0,.14,4.37,4.37,0,0,1-.18.46,3.63,3.63,0,0,1-.35.55l-.06.08c0,.14-.06.29-.09.44l-.08.43c0,.15-.07.31-.08.4l0,.15a3.52,3.52,0,0,1,.09.64,5.53,5.53,0,0,0,.07.7A4.08,4.08,0,0,1,254.66,281.8ZM209.58,158.18a2,2,0,1,1,3.58,1.78l-.06.13a3.54,3.54,0,0,1-.76,1.07,1.92,1.92,0,0,1-1.38.58,2,2,0,0,1-1.42-.6,2,2,0,0,1,0-2.79Zm9.79,73.31a2,2,0,0,0-1.39-3.75l-.26.08a2,2,0,0,0,.09,4h.08a3.74,3.74,0,0,0,1.33-.27Zm-1-72.26a2,2,0,0,0-.89,2.14,2,2,0,0,0,1.91,1.55,2.3,2.3,0,0,0,.45,0,2.64,2.64,0,0,0,2.2-2.16,2,2,0,0,0-1.44-2.43A2,2,0,0,0,218.38,159.23Zm8.33,70.59a2,2,0,0,0,.9,3.79,2,2,0,0,0,.89-.21,3.52,3.52,0,0,0,1.1-.8l.11-.11a2,2,0,1,0-2.79-2.86Zm.69-73.28a2.67,2.67,0,0,0-1.36,2.53,1.84,1.84,0,0,0,.59,1.69,2.18,2.18,0,0,0,2.57-.11,2.88,2.88,0,0,0,.84-3.09A2,2,0,0,0,227.4,156.54Zm5.85-3.43a2,2,0,0,0,.16,2.82,2,2,0,0,0,2.81-.15,5.35,5.35,0,0,0,.91-1.35,2,2,0,0,0-3.65-1.64A1.78,1.78,0,0,1,233.25,153.11Zm3.61,76.31a2,2,0,0,0,.95,3.76,1.82,1.82,0,0,0,.46-.06,2.69,2.69,0,0,0,2.26-2.21,2,2,0,0,0-3.67-1.49Zm10.26-4.12c-1,.45-1.47,1.35-1.42,2.84s2.19,2.14,3.17,1.34a3,3,0,0,0,.89-3.16A2,2,0,0,0,247.12,225.3Zm6.4-3.77a2,2,0,0,0,1.48,3.34,2,2,0,0,0,1.49-.66,6.38,6.38,0,0,0,1-1.43,2,2,0,0,0-3.66-1.63A1.89,1.89,0,0,1,253.52,221.53ZM220,164.72a.9.9,0,0,1-.36-.05,6,6,0,0,0-1-.08c-.3,0-.6,0-.9.08a2.49,2.49,0,0,1-.46.05h-.43c-.31,0-.63,0-.93,0s-.55-.06-.81-.1l-.54-.07c-.45-.06-.89-.12-1.32-.2a6.86,6.86,0,0,1-.78-.2l-.51-.13c-.2-.06-.42-.1-.63-.15s-.43-.09-.63-.15l-.42-.23c-.23-.13-.47-.27-.71-.38a9.57,9.57,0,0,1-1.07-.57,7.29,7.29,0,0,0-.74-.37,3.41,3.41,0,0,1-.33-.17,5.07,5.07,0,0,1-.65-.7l-.07-.08a4.77,4.77,0,0,1-.57-.8,2.76,2.76,0,0,1-.17-.6v-.07c0-.33,0-.66,0-1a6.83,6.83,0,0,1,.06-.79,11.28,11.28,0,0,0,.07-1.16v-1.94a4.12,4.12,0,0,1,.1-.52,5.89,5.89,0,0,0,.22-1.42,8,8,0,0,0-.11-1.3,4,4,0,0,1-.06-.61,10.48,10.48,0,0,0,0-1.12c0-.27,0-.53,0-.79a5.61,5.61,0,0,1,.1-.63,8.51,8.51,0,0,0,.17-1.27c0-.35,0-.7,0-1.05s0-.57,0-.85l0-.84c0-.35,0-.71,0-1.07a6.76,6.76,0,0,1,.1-.77c.06-.37.11-.75.14-1.12s.05-.71.08-1.06l.07-.84a6.45,6.45,0,0,0-.08-1.45,4,4,0,0,1-.06-.47,4.42,4.42,0,0,1,.13-.45,5.92,5.92,0,0,0,.34-1.42,7.14,7.14,0,0,0,0-1.33c0-.23,0-.46,0-.59s.08-.36.14-.6a7.11,7.11,0,0,0,.27-1.28,7.59,7.59,0,0,0,0-1.36,3.86,3.86,0,0,1,0-.56c0-.37.06-.74.07-1.12s0-.52.05-.78a4.88,4.88,0,0,1,.15-.66,10.57,10.57,0,0,0,.26-1.21,5.59,5.59,0,0,1,.15-.71,8.14,8.14,0,0,0,.24-1.16,7,7,0,0,0,0-1.34,5.14,5.14,0,0,1,0-.58,6.57,6.57,0,0,1,.16-.77c.08-.37.17-.74.22-1.1s.08-.8.1-1.2a5.52,5.52,0,0,1,0-.71,3.48,3.48,0,0,1,.17-.54,6.52,6.52,0,0,0,.37-1.31,7.34,7.34,0,0,0,.07-1.35,4.54,4.54,0,0,1,0-.57,5.29,5.29,0,0,1,.18-.67,9.1,9.1,0,0,0,.31-1.18,7.25,7.25,0,0,0,.07-1.42c0-.18,0-.42,0-.5a6.29,6.29,0,0,1,.2-.65,8.63,8.63,0,0,0,.34-1.19c.06-.36.11-.71.16-1.06s.08-.56.13-.83.13-.59.21-.88.16-.65.23-1a6.28,6.28,0,0,1,.21-.69s0-.07,0-.11l.2.2a3.37,3.37,0,0,1,.27.27l.86,1.3c0,.07,0,.15.07.23a4.81,4.81,0,0,0,.59,1.39,5.78,5.78,0,0,0,.76.91c.12.13.25.28.3.35a6.66,6.66,0,0,0,.77.93,2.5,2.5,0,0,1,.3.34,3,3,0,0,1,.24.47,10.06,10.06,0,0,0,.53,1l.89,1.38a8.17,8.17,0,0,0,.69.89,4,4,0,0,1,.32.4q.19.31.36.63l.47.8c.09.15.16.32.24.48a8.48,8.48,0,0,0,.51,1l.85,1.4a6,6,0,0,0,.8,1,1.8,1.8,0,0,1,.26.29c.12.2.23.41.35.63s.25.46.38.69l0,.18a4.53,4.53,0,0,0,.52,1.55,5.2,5.2,0,0,0,.86,1.05,2.73,2.73,0,0,1,.23.25,7,7,0,0,0,.69.94l.23.27c0,.06,0,.11,0,.17a4.67,4.67,0,0,0,.5,1.54,5.89,5.89,0,0,0,.84,1.08,2.61,2.61,0,0,1,.23.24c0,.08.06.2.09.32a6.63,6.63,0,0,0,.48,1.2,6.36,6.36,0,0,1,.28.59c.14.3.28.6.44.89a4.91,4.91,0,0,0,.85,1.11,2.39,2.39,0,0,1,.22.23l.35.69c.12.24.25.48.38.72l.34.63.44.82c.08.16.14.34.21.52a8.7,8.7,0,0,0,.43,1c.13.25.26.5.4.74s.26.47.38.71a5.42,5.42,0,0,0,.79,1.11,2.52,2.52,0,0,1,.21.25c.09.19.19.42.29.65s.24.54.38.81.19.43.28.65.24.58.38.86a2.72,2.72,0,0,1,.14.45,7.85,7.85,0,0,0,.41,1.11q.2.4.42.81c.12.21.23.42.34.64s.21.48.31.73.23.52.34.77.21.48.3.71l.35.81a5.55,5.55,0,0,0,.71,1.13,1.86,1.86,0,0,1,.21.28c.09.21.19.45.28.7s.21.52.33.79.19.47.28.71.18.46.28.69V154c0,.14,0,.29,0,.44a3,3,0,0,1-.06.54,3.26,3.26,0,0,1-.27.5c-.09.14-.18.29-.26.44l-.17.3a5.15,5.15,0,0,1-.42.7,8.27,8.27,0,0,1-.61.67l-.22.22a5.84,5.84,0,0,1-.59.51l-.37.31c-.21.18-.4.38-.6.58a2.68,2.68,0,0,1-.34.34c-.35.25-.71.5-1.1.74l-.47.31c-.22.15-.43.29-.66.42-.39.21-.79.42-1.21.62a6,6,0,0,1-.59.23l-.68.26a4.9,4.9,0,0,1-.61.21l-.69.23a5.78,5.78,0,0,0-.84.39,2.67,2.67,0,0,1-.41.19,3.56,3.56,0,0,1-.47.1,5.4,5.4,0,0,0-.89.18c-.24.06-.49.15-.74.23a3.77,3.77,0,0,1-.57.18,4.34,4.34,0,0,1-.52.07c-.28,0-.57.06-.86.11s-.51.08-.77.11l-.59.08a6.69,6.69,0,0,0-1,.24l-.39.1-.27,0Zm51.82,213c0,.08,0,.15,0,.23a4.6,4.6,0,0,0-.1,1.6c0,.31.1.61.16.91s.09.5.12.75a7.72,7.72,0,0,0,.27,1.16c.06.19.11.39.13.49a8.71,8.71,0,0,0,.22,1.11,3.61,3.61,0,0,1,.12.55c0,.26.06.51.1.77s.07.6.1.89,0,.55,0,.82,0,.58.05.86c0,.09,0,.21-.06.32a5.86,5.86,0,0,0-.12,1.36,6.23,6.23,0,0,0,.26,1.34,1.56,1.56,0,0,1,.09.34c0,.06,0,.28-.06.47a6.74,6.74,0,0,0-.12,1.12,6,6,0,0,0,.22,1.42l.06.22c0,.09-.09.27-.14.39a8.56,8.56,0,0,0-.28.86l-.08.35a6.61,6.61,0,0,1-.19.73,1.84,1.84,0,0,1-.45.38h-.5l-.64,0-.18,0c-.13-.11-.32-.3-.57-.56s-.22-.24-.34-.36a3.81,3.81,0,0,1-.34-.37.34.34,0,0,1,0-.1,5.53,5.53,0,0,0-.33-1.55,4.8,4.8,0,0,0-.72-1.2,1.85,1.85,0,0,1-.19-.27,1.1,1.1,0,0,0,0-.24,6.54,6.54,0,0,0-.26-1.35,8.48,8.48,0,0,0-.46-1,3.94,3.94,0,0,1-.23-.5l-.33-1-.18-.56v-.27a6,6,0,0,0-.2-1.42,4.41,4.41,0,0,0-.77-1.4l-.13-.18-.15-.61c-.07-.31-.14-.63-.23-.94s-.19-.58-.29-.88-.16-.47-.23-.71-.14-.53-.2-.79-.14-.57-.22-.85-.15-.56-.22-.84-.13-.53-.2-.79c-.15-.55-.29-1.09-.43-1.63a4.68,4.68,0,0,1-.08-.54,6.46,6.46,0,0,0-.18-1.12c-.05-.21-.08-.43-.12-.65s-.11-.68-.19-1-.15-.56-.22-.84-.15-.52-.21-.79a6.37,6.37,0,0,0-.42-1.16,3.37,3.37,0,0,1-.17-.43c-.07-.28-.13-.55-.19-.83s-.11-.55-.18-.82-.06-.41-.09-.62-.09-.7-.17-1a10,10,0,0,0-.34-1.08,3.68,3.68,0,0,1-.18-.53c-.06-.25-.1-.5-.15-.76s-.11-.6-.17-.89-.18-.68-.29-1a4.27,4.27,0,0,1-.18-.61.42.42,0,0,0,0-.19,4.73,4.73,0,0,0,0-1.53,7,7,0,0,0-.38-1.17,2.17,2.17,0,0,1-.16-.43,7,7,0,0,0-.36-1.14,3.74,3.74,0,0,1-.16-.47c0-.23-.07-.45-.1-.68s-.08-.66-.15-1-.14-.62-.21-.93-.13-.48-.18-.72a.62.62,0,0,0,0-.2,5.15,5.15,0,0,0,0-1.52,5.55,5.55,0,0,0-.48-1.33,2.22,2.22,0,0,1-.14-.32,1.25,1.25,0,0,0,0-.23,5.53,5.53,0,0,0,0-1.45,4.39,4.39,0,0,0-.61-1.48c0-.05-.06-.1-.08-.15s0-.13,0-.2a5,5,0,0,0,0-1.49c0-.23-.07-.47-.1-.71s-.07-.64-.13-1a4.79,4.79,0,0,0-.57-1.47l-.11-.18c0-.09,0-.19,0-.28a5.06,5.06,0,0,0,0-1.38c0-.23-.06-.46-.08-.69s-.07-.67-.12-1a4.48,4.48,0,0,0-.59-1.49c0-.05,0-.09-.07-.14l0-.16a5.15,5.15,0,0,0,0-1.55l-.15-.83-.15-.84a5.86,5.86,0,0,0-.37-1.25,4,4,0,0,1-.14-.4l-.09-.67a9.66,9.66,0,0,0-.13-1c-.05-.31-.12-.62-.18-.92s-.1-.46-.14-.69a2.7,2.7,0,0,1,0-.45,5.52,5.52,0,0,0-.07-1.17,7.74,7.74,0,0,0-.28-1.09,2.75,2.75,0,0,1-.13-.47c0-.27-.06-.54-.08-.8s0-.51-.08-.76c0-.41-.07-.81-.1-1.2l0-.32a3.73,3.73,0,0,1,0-.62c0-.28.05-.55.05-.82a10.16,10.16,0,0,1,.08-1.3,4.37,4.37,0,0,1,.28-.92c.08-.18.14-.37.2-.55s.07-.21.11-.3a2.23,2.23,0,0,1,.52-.48l.32-.05.49-.11.21-.06a4.07,4.07,0,0,1,.61.08,2.21,2.21,0,0,1,.58.42,2.81,2.81,0,0,1,.71.78c.14.23.29.46.46.7a4.49,4.49,0,0,1,.37.6c.13.28.28.56.44.84s.25.46.32.62,0,.29.06.44a8.23,8.23,0,0,0,.25,1.24,3.2,3.2,0,0,1,.05.43A5.71,5.71,0,0,0,260,326a4.23,4.23,0,0,1,.19.4,7.25,7.25,0,0,0,.44,1.17,5.12,5.12,0,0,1,.19.48c.06.25.1.5.14.74a10.05,10.05,0,0,0,.19,1,3,3,0,0,1,0,.46,5,5,0,0,0,.15,1.41,4.21,4.21,0,0,0,.85,1.47l.07.09v.15a5.39,5.39,0,0,0,.15,1.45,6.45,6.45,0,0,0,.38,1.06,3.31,3.31,0,0,1,.2.52,3.93,3.93,0,0,1,0,.45,8.43,8.43,0,0,0,.17,1.24c.07.25.12.51.18.77s.12.58.19.87.15.56.23.84.14.53.2.79a5.64,5.64,0,0,0,.44,1.18,3.6,3.6,0,0,1,.16.41,2.74,2.74,0,0,1,.05.49,8.87,8.87,0,0,0,.16,1.2l.38,1.65a9.37,9.37,0,0,0,.31,1c.07.2.14.39.19.59a6.73,6.73,0,0,0,.36,1.12c0,.12.1.25.14.38l0,.17a4.52,4.52,0,0,0,0,1.7,6.78,6.78,0,0,0,.46,1.25,1.76,1.76,0,0,1,.15.35c.08.34.18.68.29,1a4.83,4.83,0,0,1,.18.62c0,.24.09.49.13.73s.11.63.17.95a6.17,6.17,0,0,1,.09.62c0,.36.08.71.15,1.06a9.45,9.45,0,0,0,.32,1.07c.06.19.13.38.17.57s0,.14,0,.25a4.87,4.87,0,0,0,.06,1.49,5.53,5.53,0,0,0,.44,1.24c0,.13.11.24.15.37a9.27,9.27,0,0,0,.29,1c.06.2.13.4.17.6s.15.61.23.91.13.48.18.73.05.41.07.61a9.48,9.48,0,0,0,.14,1.07,3,3,0,0,1,0,.43,6.83,6.83,0,0,0,.09,1.28,6.27,6.27,0,0,0,.39,1.22,4,4,0,0,1,.14.4c.05.26.1.53.16.79s.11.58.16.87a1.71,1.71,0,0,1,0,.39,5.64,5.64,0,0,0,.05,1.33,5.8,5.8,0,0,0,.37,1.26,2.92,2.92,0,0,1,.14.38c.05.32.13.65.21,1S271.75,377.57,271.78,377.76ZM230.65,354.5a7.43,7.43,0,0,0,0,1.48,2.83,2.83,0,0,1,0,.56,3.06,3.06,0,0,1-.18.48,7,7,0,0,0-.44,1.45,9,9,0,0,0-.1,1.3,6.68,6.68,0,0,1,0,.71,4.59,4.59,0,0,1-.2.66,8.52,8.52,0,0,0-.35,1.27c-.07.35-.11.7-.16,1s-.08.62-.14.93q-.19,1-.39,1.95c-.08.34-.13.68-.19,1s-.1.63-.17.93a7.29,7.29,0,0,1-.25.75,9.93,9.93,0,0,0-.38,1.13c-.1.39-.16.78-.22,1.17a5.86,5.86,0,0,1-.14.75,8.17,8.17,0,0,0-.23,1.16,5.54,5.54,0,0,1-.17.85c-.07.24-.13.48-.2.73s-.23.79-.36,1.2-.29.79-.44,1.19l-.26.66a5.89,5.89,0,0,1-.36.69,10.33,10.33,0,0,0-.55,1c-.13.3-.32.61-.51.95l-.4.71-.28.52a11.87,11.87,0,0,1-.6,1.09,14.24,14.24,0,0,1-1.06,1.39c-.18.2-.35.41-.52.62a3.62,3.62,0,0,1-.56.62,3.48,3.48,0,0,1-.49.16c-.32.09-.64.19-.95.31l-.41.18a3.27,3.27,0,0,1-.89.31,5.2,5.2,0,0,1-1.19-.11l-.25,0c-.26,0-.51-.07-.77-.09a4.77,4.77,0,0,1-.65-.1,4.4,4.4,0,0,1-.71-.61l-.37-.36a7.19,7.19,0,0,1-1.06-1.22,10.1,10.1,0,0,0-.69-.83,4,4,0,0,1-.45-.56,11.47,11.47,0,0,1-.44-1.14c-.08-.2-.15-.41-.23-.62a3.59,3.59,0,0,1-.12-.66,10.59,10.59,0,0,0-.25-1.25c-.1-.34-.22-.67-.35-1a7.83,7.83,0,0,1-.29-.85c-.07-.3-.14-.59-.22-.88s-.19-.71-.26-1.07a5,5,0,0,1,0-.75,8.52,8.52,0,0,0-.08-1.28c-.07-.42-.11-.85-.16-1.27l-.09-.74c0-.29-.07-.57-.11-.85s-.11-.8-.15-1.18-.07-.74-.09-1.1-.05-.65-.08-1a9,9,0,0,0-.28-1.44,5,5,0,0,1-.14-.62c0-.3,0-.61,0-.91s0-.76,0-1.14,0-.64,0-1,0-.72,0-1.08,0-.74,0-1.11l0-.94a5.71,5.71,0,0,0-.36-1.63,4.35,4.35,0,0,1-.13-.43,5.88,5.88,0,0,1,.06-.72,8.7,8.7,0,0,0,.09-1.31,9.55,9.55,0,0,0-.11-1.28,6.5,6.5,0,0,1-.08-.77,4.71,4.71,0,0,1,.12-.48,6.45,6.45,0,0,0,.27-1.57c0-.31,0-.62.07-.93s.07-.74.08-1.12a7.79,7.79,0,0,0-.13-1.47,4.66,4.66,0,0,1-.08-.59,5,5,0,0,1,.13-.66,8.69,8.69,0,0,0,.24-1.38c0-.34,0-.69,0-1s0-.67,0-1,0-.76,0-1.14,0-.61,0-.91,0-.58.07-.86.07-.79.11-1.18a8.85,8.85,0,0,0,0-1.34,5.85,5.85,0,0,1,0-.73c0-.3.1-.59.17-.89s.16-.75.21-1.13a7.63,7.63,0,0,1,.2-.84,10.54,10.54,0,0,0,.28-1.07l.05-.27c.1-.56.21-1.11.34-1.66a8.35,8.35,0,0,0,.21-1.11,6,6,0,0,1,.16-.82c.14-.47.32-.94.49-1.4l.17-.45c.22-.61.45-1.22.71-1.82.11-.24.28-.52.45-.81s.35-.59.5-.89c.28-.55.59-1.09.9-1.62s.51-.79.75-1.14l.38-.55c.2-.3.37-.61.55-.92a6.2,6.2,0,0,1,.45-.74,5.81,5.81,0,0,1,.56-.57c.28-.26.56-.53.81-.81l.36-.42c.3-.35.6-.7.92-1s.63-.58,1-.86l.48-.42a9.75,9.75,0,0,0,.85-.88,5.48,5.48,0,0,1,.5-.53c.46-.35,1-.76,1.57-1.14a4,4,0,0,1,.47-.16,9.92,9.92,0,0,0,1-.38c.08.34.17.67.27,1s.16.51.22.77.13.6.2.9l.21,1a7.75,7.75,0,0,0,.44,1.27,4.85,4.85,0,0,1,.21.58,4,4,0,0,1,0,.57,7.7,7.7,0,0,0,.16,1.38,5.24,5.24,0,0,0,.66,1.51,3.79,3.79,0,0,1,.18.34c0,.19.07.44.1.69a9.38,9.38,0,0,0,.2,1.18c.08.35.17.7.27,1s.15.56.22.84.17.68.26,1,.15.57.22.86a3.39,3.39,0,0,1,0,.51,6.64,6.64,0,0,0,.15,1.44c.06.27.1.54.15.81s.13.74.21,1.1a5,5,0,0,0,.73,1.56,3.14,3.14,0,0,1,.18.31c0,.2.1.49.17.78s.14.69.22,1a3.75,3.75,0,0,1,.05.57,7,7,0,0,0,.17,1.38c.07.29.13.58.19.87s.14.68.23,1a5.65,5.65,0,0,0,.55,1.38,4.66,4.66,0,0,1,.2.43c.07.28.13.57.18.85s.15.7.23,1a2.2,2.2,0,0,0,.57,1l0,.07.07.12a2.31,2.31,0,0,0-.11.47l-.09.87c0,.37-.07.74-.11,1.13a7.45,7.45,0,0,1-.15.77c-.08.4-.16.8-.21,1.21s-.07.66-.1,1-.07.68-.11,1-.09.59-.15.89-.12.73-.17,1.1-.1.54-.16.81-.17.78-.22,1.17-.08.72-.11,1.08S230.69,354.2,230.65,354.5Zm7.69-49a1.54,1.54,0,0,1-.37,0l-.65-.09c-.26,0-.52-.07-.77-.12s-.3-.1-.49-.17a7.55,7.55,0,0,0-.87-.31,6.48,6.48,0,0,1-.78-.26l-.55-.19-.54-.17a7.19,7.19,0,0,1-.78-.27c-.27-.11-.52-.25-.77-.38l-.45-.24c-.27-.13-.56-.24-.84-.35a2.55,2.55,0,0,1-.41-.17,3.11,3.11,0,0,1-.49-.41c-.17-.15-.34-.3-.51-.43s-.4-.3-.6-.44a3.16,3.16,0,0,1-.42-.32,6.41,6.41,0,0,1-.74-.89,2,2,0,0,1-.07-.26,4.89,4.89,0,0,0-.28-.92,5.48,5.48,0,0,1-.31-1,1.94,1.94,0,0,0-.79-1.24c0-.13,0-.25-.07-.37s0-.41-.07-.67a9.17,9.17,0,0,0-.17-1.26,5.54,5.54,0,0,0-.57-1.45,3,3,0,0,1-.18-.39c-.05-.23-.08-.48-.11-.73s-.1-.78-.18-1.17-.18-.71-.28-1.06a8,8,0,0,1-.21-.81c-.09-.38-.2-.75-.32-1.12a6.84,6.84,0,0,1-.21-.74,3.91,3.91,0,0,1,0-.55,6.8,6.8,0,0,0-.13-1.4,6.23,6.23,0,0,0-.49-1.36,3.28,3.28,0,0,1-.19-.47,6.16,6.16,0,0,1-.11-.75,10.56,10.56,0,0,0-.49-2.3,6.09,6.09,0,0,1-.21-.73c-.07-.3-.12-.6-.18-.9s-.12-.66-.19-1a6.42,6.42,0,0,1-.1-.75,11.38,11.38,0,0,0-.18-1.17l-.41-1.89a3.6,3.6,0,0,1,0-.49,6.07,6.07,0,0,0-.1-1.47,9.25,9.25,0,0,0-.41-1.28,3,3,0,0,1-.2-.56c-.08-.39-.2-.76-.31-1.13s-.15-.5-.21-.75a4.58,4.58,0,0,1,0-.63,8.26,8.26,0,0,0-.14-1.3c-.08-.36-.17-.71-.27-1.07s-.14-.53-.2-.81l-.21-1c-.07-.3-.14-.6-.2-.91a6.31,6.31,0,0,1-.1-.76c-.05-.39-.09-.77-.17-1.15s-.13-.63-.18-.94-.13-.64-.19-1a6.61,6.61,0,0,0-.5-1.4,3.73,3.73,0,0,1-.18-.43,2.4,2.4,0,0,1,0-.47,6,6,0,0,0-.08-1.48,7.15,7.15,0,0,0-.41-1.3,4.06,4.06,0,0,1-.19-.55,4.41,4.41,0,0,1-.05-.62,7.41,7.41,0,0,0-.12-1.32,6.5,6.5,0,0,0-.43-1.33,3.26,3.26,0,0,1-.18-.52c-.08-.38-.18-.75-.29-1.12s-.14-.5-.19-.75a4.08,4.08,0,0,1-.06-.68,10.43,10.43,0,0,0-.13-1.25,6,6,0,0,1-.08-.73,11.85,11.85,0,0,0-.14-1.19,8.4,8.4,0,0,0-.4-1.32,3.73,3.73,0,0,1-.18-.54c-.05-.26-.07-.53-.1-.79s-.07-.76-.14-1.12a11.38,11.38,0,0,0-.32-1.2c-.06-.23-.14-.45-.18-.67a4.49,4.49,0,0,1,0-.55c0-.18,0-.38,0-.59a5.75,5.75,0,0,0,.55.28l.32.16.18.15a5.54,5.54,0,0,0,.93.61,4.43,4.43,0,0,0,1.07.34l.16,0a.27.27,0,0,1,.08.07,4.25,4.25,0,0,0,1.12.64,3.25,3.25,0,0,0,1.41.14h.07c.36.11.72.21,1.09.3l.15.08a4.33,4.33,0,0,0,1.06.39l.37.1a6.66,6.66,0,0,0,.88.22,3.54,3.54,0,0,0,1.36-.07h0l0,0a4.3,4.3,0,0,0,1.13.3l.92.07.34,0,.18.05a4.44,4.44,0,0,0,1.08.2h.1a3.29,3.29,0,0,0,1.33-.31h0a5.48,5.48,0,0,0,1.08.14l.84,0,.42,0a6.26,6.26,0,0,0,.94-.13l.2,0H233a3.49,3.49,0,0,0,1.33.16,4.38,4.38,0,0,0,1.05-.25l.22-.06a5.89,5.89,0,0,0,.85-.18l.35-.08a8.15,8.15,0,0,0,.83-.17l.4-.09.43,0c.27,0,.54-.06.81-.11s.53-.11.79-.18l.43-.1.34-.07.78-.17h.11A3.91,3.91,0,0,0,243,239l.45-.11.78-.2a4.63,4.63,0,0,0,1-.46.81.81,0,0,1,.18-.1l.35-.11.81-.26a2.8,2.8,0,0,1,.28-.06,6,6,0,0,0,.95-.24c.26-.1.52-.23.78-.36l.37-.17.33-.1a6.87,6.87,0,0,0,.88-.29,3.61,3.61,0,0,0,1.13-.85l0,0,.25-.11.64-.3.11,0a3.81,3.81,0,0,0,1.24-.39,5,5,0,0,0,.83-.6,1.77,1.77,0,0,1,.22-.16,2,2,0,0,1,.32-.17,5.73,5.73,0,0,0,.81-.44c.26-.17.51-.35.76-.53l.29-.21a3.7,3.7,0,0,1,.33-.21,7.34,7.34,0,0,0,1.45-1.11l.29-.27a3.58,3.58,0,0,0,.78-1,3.3,3.3,0,0,0,1.21-.79c.24-.26.46-.53.67-.8l.19-.25a2.11,2.11,0,0,0,.18-.27c0,.13,0,.26.07.39a2.36,2.36,0,0,1,0,.38,6.79,6.79,0,0,0,.13,1.24q.1.45.24.9c.06.22.13.44.18.67s.09.46.13.7.11.59.18.89.08.46.12.69.11.6.17.9a5,5,0,0,0,.51,1.3,1.43,1.43,0,0,1,.13.28c0,.18.08.42.12.66s.11.59.17.88.09.47.13.71.1.59.16.89a1.3,1.3,0,0,1,0,.27,5.68,5.68,0,0,0,.08,1.37c.06.26.11.51.16.77s.11.55.16.82a5.45,5.45,0,0,0,.5,1.31c.05.09.1.18.14.27,0,.25.13.55.2.85a5.2,5.2,0,0,1,.17.68c.07.31.15.61.23.91s.12.44.17.67c0,0,0,.14,0,.25a5.34,5.34,0,0,0,.06,1.4c0,.22.08.45.11.68s.1.61.16.92a5.74,5.74,0,0,0,.38,1.17,3.61,3.61,0,0,1,.15.38l.32,1.58a2.54,2.54,0,0,1,0,.39,6.64,6.64,0,0,0,.1,1.25c.05.24.09.48.13.73s.1.58.16.87a9.13,9.13,0,0,0,.29,1.05,5,5,0,0,1,.16.51,7.76,7.76,0,0,0,.34,1.13,2.07,2.07,0,0,1,.15.44,3.57,3.57,0,0,1,0,.47,7.6,7.6,0,0,0,.11,1.15c.06.29.12.57.19.86s.12.48.16.72.07.42.09.63a8.42,8.42,0,0,0,.14,1,5.51,5.51,0,0,0,.44,1.26,1.69,1.69,0,0,1,.13.31,3.47,3.47,0,0,1,0,.49c0,.16,0,.34,0,.53a.5.5,0,0,0,0,.12c0,.26-.07.46-.1.72s0,.51-.05.74v.14a2.4,2.4,0,0,0,0,.24c0,.09,0,.14-.07.24s-.07.36-.1.51a3.17,3.17,0,0,0-.05.53c0,.3,0,.46,0,.46a2.08,2.08,0,1,0,4.14-.36s0,0,0,.05a.62.62,0,0,0,0-.16c.05-.18.1-.39.16-.62,0-.08,0-.16,0-.25l0-.14,0-.21v-.06c0-.15,0-.32,0-.49s.06-.44.1-.67.06-.39.09-.6a8.12,8.12,0,0,1,.18-.81l0-.13.16-.39.33-.77h0l.35-.33c.22-.21.33-.34.45-.47l.05-.06.11-.13,0,0,0,0,.13-.19.23-.35.15-.27,0-.06h0l.15-.2,0,0,.07-.05.13-.11a2.58,2.58,0,0,1,.44-.31l.27-.18.05,0h0l.21-.07.74-.21.54-.18a2.65,2.65,0,0,1,.55-.15l.32-.07h.06l.13,0a4,4,0,0,1,.58-.09l.36,0h.75l.73.06a10.19,10.19,0,0,1,1,.29c.51.2.87.2,1.39.41l.26.08c.07.05.19.14.49.39l.35.28.08,0,0,0,.12.09,0,0,.27.15.27.15.19.1.2.09,0,0h0a1,1,0,0,1,.15.09l.12.08.56.52.3.27.15.14h0l0,0a4.75,4.75,0,0,0,.27.42l.21.35.11.18.06.09,0,0,.11.16h0c.16.19.36.41.51.56l.36.32,0,0,.14.18h0v.06l0,.11.08.22.28.79.33.82.57,1.43.26.75v0l0,.21.09.42.18.8v0a0,0,0,0,0,0,0v0l0,.17.07.41.13.81v1.54l0,.71v.82l0,.14-.06.29-.19.79-.2.69-.24.79-.19.43c-.09.18-.25.46-.36.69l0,.05,0,0-.1.17-.21.34-.73,1.17a6.74,6.74,0,0,1-.45.61l-.09.13,0,0v0h0l-.21.25a4.73,4.73,0,0,1-.5.52l-.13.14,0,0-.18.12-.62.44-.31.22h0l-.1,0c-.16.06-.21.12-.46.21l-.69.24-.45.14-.67.15-.17,0h-.09l-.22,0-.23,0h-1l-.58.05h-.69l-.16-.06-.17-.05-.27-.11-.62-.26a9.52,9.52,0,0,1-1-.34l-.27-.11-.06,0h0l-.33-.21c-.21-.14-.57-.43-.79-.61l-.23-.24a3.6,3.6,0,0,1-.28-.28l-.31-.35-.08-.09-.08-.09,0,0-.16-.14a7.7,7.7,0,0,1-.59-.56l-.28-.29,0,0s-.05-.06-.06-.06l-.05-.07a11,11,0,0,1-.79-1h0l0-.08-.06-.16-.13-.28c-.19-.49-.31-.74-.31-.74a1.51,1.51,0,0,0-2.85,1l0,.1s.05.28.2.79c0,.14.12.34.2.54s.09.21.13.32l.07.17,0,0,.08.13,0,.06c.1.13.2.28.31.44a2,2,0,0,0,0,.69c.06.36.15.72.24,1.08s.14.56.19.84.08.56.12.84.08.7.14,1a3.11,3.11,0,0,0,0,.43l.09.42s0,.07,0,.1c0,.22.06.44.09.67a3.6,3.6,0,0,1-.11.53l-.12.5-.06.27a5.45,5.45,0,0,1-.23.89,6.32,6.32,0,0,1-.35.64l-.27.44-.12.22a8,8,0,0,1-.54.89l-.32.45a5.84,5.84,0,0,1-.47.64,5.94,5.94,0,0,1-.57.55l-.43.4c-.17.16-.33.34-.5.52a5.43,5.43,0,0,1-.48.48,4.54,4.54,0,0,1-.42.27,7.94,7.94,0,0,0-.78.5,6.14,6.14,0,0,0-.77.71l-.28.28a3.71,3.71,0,0,1-.43.2c-.29.13-.59.27-.87.43a7.43,7.43,0,0,0-.76.53,2.55,2.55,0,0,1-.43.3,1.79,1.79,0,0,1-.35.11,6.24,6.24,0,0,0-1,.37c-.43.21-.87.41-1.32.61-.25.11-.49.23-.73.36a6.19,6.19,0,0,1-.58.28l-.84.31-.54.18-.77.25-.63.19-.14,0-1.27.4c-.39.11-.8.21-1.21.31l-.2.06c-.24,0-.47.12-.7.19l-.72.2c-.24.05-.49.08-.73.12l-.72.12a6.94,6.94,0,0,0-1,.31,2.92,2.92,0,0,1-.39.13,6,6,0,0,1-.61.05,8.1,8.1,0,0,0-.86.06c-.22,0-.44,0-.66,0l-.81,0a6.82,6.82,0,0,0-1,.2,2.85,2.85,0,0,1-.44.09l-.62.05c-.28,0-.56.05-.84.05l-.41-.05a6.07,6.07,0,0,0-1.06-.11l-1,0-.51,0h-.8c-.22,0-.43,0-.65,0a3.1,3.1,0,0,1-.53-.1c-.3-.07-.6-.13-.9-.17A6.69,6.69,0,0,0,238.34,305.49Zm14.46,46.13c.21,0,.46,0,.65,0h0a6.82,6.82,0,0,0,.4,1.06,1.89,1.89,0,0,1,.11.25,2,2,0,0,1,0,.23,4.94,4.94,0,0,0,0,1.53c.06.32.14.65.22,1s.12.46.17.69.07.44.1.67.08.68.15,1a6.69,6.69,0,0,0,.36,1.16,3.74,3.74,0,0,1,.16.47,6.77,6.77,0,0,0,.39,1.2,4.18,4.18,0,0,1,.16.43.62.62,0,0,0,0,.2,5.08,5.08,0,0,0,.05,1.53,7.83,7.83,0,0,0,.3,1.05,5.72,5.72,0,0,1,.17.59c0,.24.1.48.14.72s.11.64.18.95a8.63,8.63,0,0,0,.35,1.11,3.2,3.2,0,0,1,.18.52c0,.2.07.41.09.61,0,.36.1.72.18,1.07s.11.5.16.74l.21.93a6.93,6.93,0,0,0,.42,1.18,3.37,3.37,0,0,1,.17.43c.08.3.16.61.25.92s.13.48.19.73.08.42.12.63a9.7,9.7,0,0,0,.2,1.05,4.18,4.18,0,0,1,.07.51,7.71,7.71,0,0,0,.19,1.18c.15.55.29,1.1.44,1.66l.18.72c.08.31.16.63.25.94l.18.72.24.95c.1.32.2.64.31.95s.16.45.23.67.11.46.16.69.16.66.25,1a4.68,4.68,0,0,0,.78,1.45l.11.14V388a5.53,5.53,0,0,0,.21,1.42l.17.54c.11.38.23.74.34,1.1a8.53,8.53,0,0,0,.5,1.14,2.93,2.93,0,0,1,.21.44,2.5,2.5,0,0,1,.05.4,6,6,0,0,0,.26,1.32,5.42,5.42,0,0,0,.83,1.42l.12.15c0,.08,0,.22,0,.32a3.94,3.94,0,0,0,.34,1.46,6,6,0,0,0,1.25,1.68l.23.24a6.86,6.86,0,0,0,1.95,1.61,3.78,3.78,0,0,0,1.75.39c.26,0,.49,0,.68,0l.29,0h.12a4.63,4.63,0,0,0,2.68-.68,5.57,5.57,0,0,0,1.94-1.93,6.71,6.71,0,0,0,.66-1.95l.07-.3c0-.1.07-.2.11-.31a5.44,5.44,0,0,0,.43-1.77,4.75,4.75,0,0,0-.2-1.49,2.21,2.21,0,0,1-.08-.35c0-.12,0-.25.06-.39a6.74,6.74,0,0,0,.12-1.38,5.3,5.3,0,0,0-.26-1.37,3.69,3.69,0,0,1-.1-.38l0-.27a5,5,0,0,0,.12-1.49l0-.67q0-.54-.06-1.08c0-.33-.08-.68-.12-1s-.06-.47-.08-.7a9,9,0,0,0-.23-1.15,5.07,5.07,0,0,1-.13-.56,7.37,7.37,0,0,0-.26-1.19,2.83,2.83,0,0,1-.13-.5c-.05-.33-.11-.67-.17-1s-.08-.4-.11-.61,0-.14,0-.22a4.42,4.42,0,0,0,.1-1.65c0-.34-.13-.69-.21-1s-.11-.44-.15-.66a5.44,5.44,0,0,0-.38-1.28,3.47,3.47,0,0,1-.13-.38,1.63,1.63,0,0,1,0-.38,6,6,0,0,0-.05-1.37c-.06-.33-.12-.65-.19-1s-.09-.48-.14-.72a6.63,6.63,0,0,0-.39-1.25c-.06-.14-.13-.33-.15-.4s0-.27,0-.42a5.72,5.72,0,0,0-.09-1.31,6,6,0,0,1-.07-.61,8.21,8.21,0,0,0-.14-1.11c-.07-.34-.16-.66-.24-1s-.13-.46-.18-.69a9.67,9.67,0,0,0-.28-1,4.69,4.69,0,0,1-.18-.61,6.08,6.08,0,0,0-.44-1.24,2.24,2.24,0,0,1-.15-.38s0-.13,0-.24a4.86,4.86,0,0,0-.06-1.49,8.15,8.15,0,0,0-.31-1.07c-.06-.19-.13-.38-.18-.57s-.06-.41-.08-.61a9.69,9.69,0,0,0-.16-1.08q-.07-.36-.12-.72c-.06-.32-.11-.65-.18-1a9.27,9.27,0,0,0-.29-1c-.07-.21-.13-.41-.18-.62a5.68,5.68,0,0,0-.46-1.26l-.12-.25,0-.15a4.53,4.53,0,0,0,0-1.7c0-.13-.07-.25-.11-.37h0a11.85,11.85,0,0,0,1.29-.49l.65-.28c.44-.18.87-.36,1.28-.57a8.83,8.83,0,0,0,1.26-.86,4,4,0,0,1,.48-.36c.58-.35,1.2-.73,1.79-1.15s1.1-.8,1.71-1.3a19.35,19.35,0,0,0,1.61-1.44l.37-.34a15.41,15.41,0,0,0,1.19-1.22l.13-.16a14.92,14.92,0,0,0,1.25-1.61.47.47,0,0,0,.06-.09,4.39,4.39,0,0,0,.31.82,9.42,9.42,0,0,0,.66,1,5,5,0,0,1,.35.54l.49.89.4.74a3.86,3.86,0,0,1,.16.46,6.47,6.47,0,0,0,.5,1.31,4.35,4.35,0,0,0,1.25,1.37l.15.12c0,.1.08.24.12.35a6.51,6.51,0,0,0,.51,1.3l.54.93.4.68a4.13,4.13,0,0,1,.13.41,5.88,5.88,0,0,0,.54,1.36,4.76,4.76,0,0,0,1.12,1.26c.08.08.17.14.24.22s.17.34.27.56.34.7.54,1a3.75,3.75,0,0,1,.17.44,6.19,6.19,0,0,0,.59,1.29l.31.51.68,1.09a4.82,4.82,0,0,0,1.24,1.24l.19.14a2.64,2.64,0,0,1,.1.3,5.38,5.38,0,0,0,.66,1.4,6.46,6.46,0,0,0,1,1.06,3.56,3.56,0,0,1,.34.34c.05.07.15.27.23.42a7.58,7.58,0,0,0,.74,1.24c.26.34.54.64.79.91s.34.36.5.56.23.33.35.51a9,9,0,0,0,.79,1.11c.28.33.59.64.91.95l.49.49a10.23,10.23,0,0,0,1,.92c.17.14.34.27.5.42l.44.44a9.13,9.13,0,0,0,1,1,9.26,9.26,0,0,0,1.33.83,3.84,3.84,0,0,1,.49.27,3.79,3.79,0,0,1,.39.31,5.56,5.56,0,0,0,1.42,1,4.82,4.82,0,0,0,2,.37,2,2,0,0,1,.35,0,3,3,0,0,1,.39.14,5.09,5.09,0,0,0,1.89.42h.05a5.54,5.54,0,0,0,1.94-.45,3.16,3.16,0,0,1,.43-.16,2.69,2.69,0,0,1,.32,0,4.8,4.8,0,0,0,2-.54,9.4,9.4,0,0,0,2.07-1.59,7,7,0,0,0,1.17-1.78l.2-.38a12,12,0,0,0,1-2.19l.07-.24a11.73,11.73,0,0,0,.48-2,18.41,18.41,0,0,0,.17-2.18c0-.67,0-1.39,0-2.13a11.09,11.09,0,0,0-.16-1.39c0-.22-.07-.45-.09-.68s0-.46-.05-.7c0-.4,0-.86-.11-1.35a5.77,5.77,0,0,0-.53-1.56c-.06-.14-.15-.32-.17-.39a4.23,4.23,0,0,1-.05-.63,9.2,9.2,0,0,0-.16-1.36,5.36,5.36,0,0,1-.1-.7,9.7,9.7,0,0,0-.2-1.27,5.78,5.78,0,0,0-.61-1.46,4.3,4.3,0,0,1-.19-.39c-.1-.38-.22-.75-.34-1.11s-.16-.51-.23-.76c0-.07,0-.3,0-.46a5.23,5.23,0,0,0-.14-1.5c-.07-.25-.13-.49-.18-.74s-.17-.72-.28-1.08a8.1,8.1,0,0,0-.43-1.16c-.08-.2-.17-.39-.24-.6a3.83,3.83,0,0,1-.06-.49,6.24,6.24,0,0,0-.26-1.37,5.21,5.21,0,0,0-.77-1.43,2.4,2.4,0,0,1-.19-.29,9.76,9.76,0,0,0-.41-1c-.09-.22-.19-.44-.27-.67,0-.07-.05-.28-.07-.44a6.4,6.4,0,0,0-.3-1.41c-.08-.23-.14-.46-.21-.69a10.8,10.8,0,0,0-.35-1.1c-.13-.36-.3-.7-.46-1s-.22-.44-.31-.66-.15-.45-.22-.68a10,10,0,0,0-.38-1.09,5.68,5.68,0,0,0-.78-1.29,2.52,2.52,0,0,1-.24-.33,3,3,0,0,1-.13-.51,7.43,7.43,0,0,0-.41-1.28,6.52,6.52,0,0,0-.74-1.21c-.1-.13-.23-.31-.27-.38-.15-.34-.32-.68-.48-1l-.28-.55c0-.08,0-.16,0-.23a4.31,4.31,0,0,0-.4-1.8l-.13-.27c-.23-.47-.46-.94-.7-1.41a4.42,4.42,0,0,0-1.23-1.41,1.09,1.09,0,0,1-.17-.13l-.19-.37c-.2-.39-.4-.77-.61-1.15a3.15,3.15,0,0,1-.19-.49,7.35,7.35,0,0,0-.58-1.31c-.24-.39-.5-.76-.75-1.14l-.33-.47-.35-.57a12.43,12.43,0,0,0-.7-1.08c-.13-.17-.25-.36-.37-.54a11.2,11.2,0,0,0-.75-1.07c-.32-.39-.66-.76-1-1.13l-.57-.63c-.35-.39-.7-.78-1.07-1.14-.12-.13-.23-.28-.35-.43a7.19,7.19,0,0,0-.94-1.07,4.65,4.65,0,0,0-1.66-.88l-.24-.07-.4-.36c-.33-.29-.67-.58-1-.83l-.52-.4a11.5,11.5,0,0,0-1.07-.77l-.38-.33a6.93,6.93,0,0,0-1.19-.89c-.39-.22-.8-.4-1.21-.58l-.59-.26-.44-.22c-.44-.22-.89-.44-1.35-.63l-.55-.24c-.42-.19-.85-.38-1.28-.53a5.23,5.23,0,0,0-1.61-.25,2.56,2.56,0,0,1-.39,0c-.62-.17-1.25-.32-1.9-.46a5.6,5.6,0,0,1-.54-.17,8.12,8.12,0,0,0-1.36-.38c-.48-.08-1-.13-1.48-.18l-.48,0a2.18,2.18,0,0,0-.51,0l-.51-2.83-.18-1a10.22,10.22,0,0,0-.35-1.26,5.71,5.71,0,0,1-.2-.66c0-.24-.07-.48-.1-.73l.14.06a12.17,12.17,0,0,0,1.2.46l.51.24.3.13.43.16.43.14.23.07.23,0h.14l.65,0h1.83l.46,0,.47,0,.27,0,.17,0c.24,0,.45-.07.73-.13l.94-.25.7-.22c.22-.06.61-.24.91-.36l.23-.11.06,0,.18-.1.07-.06.32-.2.63-.43.32-.21h0l.25-.2h0l0,0,.07-.07.14-.13a7.9,7.9,0,0,0,.58-.58l.31-.34.07-.08.16-.19.13-.15c.16-.22.32-.38.5-.65l.26-.38.31-.47.44-.67.22-.34.11-.17,0,0,.08-.14.05-.09c.14-.25.26-.44.41-.75l.23-.48.12-.25.05-.12.07-.21.26-.79.13-.39.06-.2,0-.09.06-.21.22-.82.11-.53.05-.26,0-.14v0a2.06,2.06,0,0,0,0-.21V278l0-.85,0-1,0-.85v-.79l0-.2v0l-.12-.84-.15-1-.16-.83-.08-.42-.05-.2,0-.11v-.05l-.07-.25v0l-.28-.8L295.2,268l-.29-.74-.28-.8-.22-.56-.12-.27-.06-.14,0-.07v0s-.17-.25-.17-.26l-.24-.3a8.21,8.21,0,0,0-.58-.6l-.27-.23s0,0,0,0l0-.05-.11-.17-.21-.36c-.18-.28-.44-.63-.66-.94l0-.05,0,0-.11-.12-.08-.07-.15-.14-.3-.27-.59-.56-.08-.07-.27-.23-.05,0-.16-.12-.19-.13-.32-.19-.31-.16-.17-.09-.17-.08-.08-.05-.07,0-.06,0-.27-.22a8.43,8.43,0,0,0-.74-.58l-.32-.19-.16-.1,0,0-.24-.1-.05,0-.37-.13c-.44-.18-1.12-.3-1.56-.46a10.22,10.22,0,0,0-1.93-.47l-.75-.06h-1.44l-.36,0c-.21,0-.56.08-.83.12l-.52.09-.34.08a7.52,7.52,0,0,0-.78.2l-.46.16-.18.05h0l-.08,0-.54.16a5.11,5.11,0,0,0-1,.38l-.3.16-.07,0-.08.05-.06,0-.27.17a6.4,6.4,0,0,0-.59.42l-.34.28-.17.14-.08.07,0,0,0,0,0,0-.15.15c-.12.15-.19.22-.36.46a.31.31,0,0,1,0-.08,3.88,3.88,0,0,1,0-.48,5.71,5.71,0,0,0-.46-2.28,2.68,2.68,0,0,1-.14-.43,10.18,10.18,0,0,0-.3-1.06,5,5,0,0,1-.16-.51c-.05-.25-.09-.49-.13-.74l-.15-.87a2.07,2.07,0,0,1,0-.39,6.48,6.48,0,0,0-.09-1.25l-.33-1.59a6.25,6.25,0,0,0-.39-1.18,2.79,2.79,0,0,1-.14-.37c-.05-.23-.08-.46-.11-.68s-.1-.62-.16-.93c0-.05,0-.16,0-.26a5.25,5.25,0,0,0-.06-1.39c-.07-.31-.15-.63-.23-.93s-.12-.44-.17-.65-.14-.62-.22-.93-.12-.44-.17-.65a4.74,4.74,0,0,0-.51-1.33l-.13-.27c0-.2-.08-.45-.13-.7s-.11-.56-.17-.84c0-.07,0-.18,0-.29a5.52,5.52,0,0,0-.08-1.35c-.05-.24-.09-.49-.13-.72s-.11-.59-.17-.88-.09-.48-.13-.72-.1-.59-.17-.88a5.28,5.28,0,0,0-.51-1.33c0-.09-.1-.18-.14-.27l-.11-.64c0-.31-.1-.6-.16-.9s-.1-.48-.14-.73-.11-.58-.17-.87-.16-.64-.25-.95a4.77,4.77,0,0,1-.17-.62,2.39,2.39,0,0,1,0-.43,5.59,5.59,0,0,0-.13-1.2c0-.21-.07-.42-.1-.63s-.1-.64-.17-1-.09-.44-.12-.66-.11-.61-.18-.91a4.76,4.76,0,0,0-.55-1.32,1.49,1.49,0,0,1-.13-.25c0-.2-.12-.49-.19-.77a1.82,1.82,0,0,1-.07-.25,3.75,3.75,0,0,0-.16-1.37l0-.11a1.48,1.48,0,0,1,0-.21,4.67,4.67,0,0,0,0-1.26,1.93,1.93,0,0,0-.59-1.07l-.06-.25-.18-.84a4.94,4.94,0,0,0-.6-1.35,1.18,1.18,0,0,1-.11-.19c0-.16-.06-.33-.09-.5-.05-.33-.1-.67-.18-1v-.27a4.92,4.92,0,0,0-.13-1.34,5.1,5.1,0,0,0-.57-1.31l-.05-.08v0a4,4,0,0,0,0-1.7,5.32,5.32,0,0,0-.52-1.31.77.77,0,0,1-.11-.27,4.33,4.33,0,0,0-.68-1.46,3.58,3.58,0,0,0,0-1.82,5.86,5.86,0,0,1-.15-.66c0-.24-.09-.49-.21-1a4.7,4.7,0,0,0-.6-1.38l-.07-.17-.42-1.61a1.52,1.52,0,0,1-.07-.43,7.08,7.08,0,0,0-.2-1.23,6.36,6.36,0,0,1-.15-.65c0-.25-.09-.5-.21-1a5.63,5.63,0,0,0-.46-1.22,1.42,1.42,0,0,1-.14-.35l-.45-1.59a5.34,5.34,0,0,1-.09-.53,6,6,0,0,0-.2-1.07,5.78,5.78,0,0,0-.52-1.22,2.63,2.63,0,0,1-.14-.3,6.93,6.93,0,0,0-.51-1.19c0-.08-.09-.16-.12-.24a1.48,1.48,0,0,1,0-.21,4.15,4.15,0,0,0-.13-1.5l-.2-.69c-.09-.31-.17-.6-.26-.87a5.7,5.7,0,0,0-.64-1.33c-.05-.08-.1-.15-.14-.23s-.09-.35-.13-.55-.16-.64-.26-1-.19-.54-.3-.81v0a1.88,1.88,0,0,0-.09-.7c-.05-.17-.08-.35-.12-.53a8.54,8.54,0,0,0-.26-1.1,6.11,6.11,0,0,0-.56-1.17,2.27,2.27,0,0,1-.19-.34c-.06-.19-.11-.4-.17-.61s-.17-.66-.28-1-.21-.57-.32-.86l-.25-.69a4.7,4.7,0,0,1-.12-.51,7.94,7.94,0,0,0-.28-1.12,8.87,8.87,0,0,0-.48-1.05,4,4,0,0,1-.23-.46,8,8,0,0,0-.44-1c-.08-.17-.17-.35-.24-.53s-.16-.46-.23-.7l-.3-.88a3.33,3.33,0,0,1-.1-.44,6.46,6.46,0,0,0-.3-1.19l-.58-1.55a6.5,6.5,0,0,0-.54-1.09,3.61,3.61,0,0,1-.22-.4c-.08-.22-.16-.45-.23-.67s-.2-.6-.31-.9a2.57,2.57,0,0,1-.05-.33,5.49,5.49,0,0,0-.31-1.31c-.11-.3-.25-.6-.38-.9s-.19-.41-.28-.63-.25-.6-.38-.89-.2-.42-.28-.63a6.15,6.15,0,0,0-.69-1.19,1.73,1.73,0,0,1-.19-.28l-.26-.64c-.11-.3-.23-.59-.35-.88a2,2,0,0,1-.07-.37,6,6,0,0,0-.34-1.26c-.1-.23-.18-.45-.27-.68s-.23-.59-.35-.87l-.28-.67c-.11-.3-.23-.6-.36-.88a5.31,5.31,0,0,0-.73-1.16,2.43,2.43,0,0,1-.2-.28c-.09-.2-.18-.42-.27-.64s-.25-.6-.38-.89-.19-.43-.29-.66-.25-.58-.38-.87-.3-.59-.46-.88-.22-.4-.32-.6a3.36,3.36,0,0,1-.14-.45,7.13,7.13,0,0,0-.42-1.14c-.09-.2-.18-.41-.26-.61s-.26-.62-.41-.92l-.29-.63c-.13-.3-.26-.6-.41-.89a5,5,0,0,0-.8-1.13,1.83,1.83,0,0,1-.21-.26c-.13-.25-.28-.52-.43-.79l-.35-.65a4,4,0,0,1-.21-.52,9.14,9.14,0,0,0-.44-1l-.47-.87-.32-.6-.34-.65c-.14-.28-.28-.56-.43-.83a5.48,5.48,0,0,0-.87-1.13,2.19,2.19,0,0,1-.21-.23,5.35,5.35,0,0,1-.25-.53q-.21-.48-.45-.93a2.86,2.86,0,0,1-.12-.35,4.86,4.86,0,0,0-1.35-2.31l-.15-.17,0-.14a4.32,4.32,0,0,0-.5-1.56,6.88,6.88,0,0,0-.73-1,3.78,3.78,0,0,1-.27-.35,5.5,5.5,0,0,0-.88-1.08l-.15-.16,0-.15a4.49,4.49,0,0,0-.52-1.54c-.12-.2-.23-.41-.34-.62s-.31-.56-.47-.84a5.85,5.85,0,0,0-.82-1,3.33,3.33,0,0,1-.25-.28l-.86-1.41a4.66,4.66,0,0,1-.25-.5,7.15,7.15,0,0,0-.51-1c-.12-.21-.24-.41-.35-.62s-.32-.56-.48-.82a7.4,7.4,0,0,0-.72-.93,3.79,3.79,0,0,1-.31-.39l-.9-1.39a4.66,4.66,0,0,1-.25-.5,7.39,7.39,0,0,0-.53-1,6.2,6.2,0,0,0-.8-1c-.1-.1-.23-.25-.27-.3a6.63,6.63,0,0,0-.79-1c-.1-.11-.24-.26-.28-.32a1.33,1.33,0,0,0,0-.21,4.91,4.91,0,0,0-.58-1.36l-.43-.65-.49-.73a5.91,5.91,0,0,0-.89-1,2.89,2.89,0,0,1-.25-.24c-.11-.18-.23-.38-.34-.58s-.33-.56-.5-.82-.39-.55-.59-.81-.27-.35-.39-.53a2.17,2.17,0,0,0-.59-.58,2.19,2.19,0,0,0-3.93.78c0,.22-.12.44-.19.67-.11.38-.23.78-.33,1.2a6.82,6.82,0,0,0-.11,1.42,3,3,0,0,1,0,.54,5.16,5.16,0,0,1-.19.6,8.76,8.76,0,0,0-.37,1.26c-.05.25-.12.51-.19.76s-.18.74-.26,1.13-.12.71-.17,1.07-.07.56-.13.84a3.32,3.32,0,0,1-.18.59,8.88,8.88,0,0,0-.35,1.28,6.5,6.5,0,0,0-.08,1.41,4.77,4.77,0,0,1,0,.54,4.54,4.54,0,0,1-.18.63,9.83,9.83,0,0,0-.32,1.25,7.44,7.44,0,0,0-.08,1.35,3.74,3.74,0,0,1,0,.6,5,5,0,0,1-.17.51,7.17,7.17,0,0,0-.38,1.37,9.09,9.09,0,0,0-.1,1.21,5.81,5.81,0,0,1-.05.72c0,.24-.1.48-.15.73s-.18.78-.24,1.17a7,7,0,0,0,0,1.35,5.46,5.46,0,0,1,0,.6,5.52,5.52,0,0,1-.15.68,10,10,0,0,0-.25,1.22,5.27,5.27,0,0,1-.14.64,8.59,8.59,0,0,0-.27,1.26c0,.39-.06.77-.08,1.16s0,.52,0,.78a7,7,0,0,0,0,1.38,2.93,2.93,0,0,1,0,.57,4,4,0,0,1-.13.58,6.07,6.07,0,0,0-.26,2.68c0,.24,0,.46,0,.6a4.35,4.35,0,0,1-.13.43,6.26,6.26,0,0,0-.34,1.47,6.13,6.13,0,0,0,.08,1.48,4.11,4.11,0,0,1,.06.48l-.07.79c0,.38-.07.76-.09,1.14s-.06.49-.1.74a11.71,11.71,0,0,0-.14,1.19c0,.38,0,.76-.06,1.15l0,.79c0,.37,0,.75,0,1.13s0,.54,0,.81-.06.38-.1.62a8,8,0,0,0-.18,1.32c0,.39,0,.79,0,1.19,0,.25,0,.51,0,.76a7.59,7.59,0,0,0,.1,1.35,4.26,4.26,0,0,1,.07.6,3.77,3.77,0,0,1-.1.48,7,7,0,0,0-.22,1.48v2c0,.25,0,.49-.06.74,0,.41-.08.81-.08,1.22s0,.58,0,.88,0,.72,0,1.09,0,.78.07,1.18a6.83,6.83,0,0,1,.06.78c0,.25,0,.5-.05.75,0,.41-.06.81-.06,1.22a7.34,7.34,0,0,0,.2,1.42,3.37,3.37,0,0,1,.1.54,3.72,3.72,0,0,1-.07.55,7.17,7.17,0,0,0-.14,1.42c0,.39.05.78.09,1.18s.06.52.07.78,0,.75.07,1.13.06.56.07.84,0,.5,0,.75a9.94,9.94,0,0,0,0,1.22,5.78,5.78,0,0,0,.29,1.51,3.93,3.93,0,0,1,.12.45,5.22,5.22,0,0,1,0,.67,10.3,10.3,0,0,0-.05,1.29c0,.27,0,.54,0,.82s0,.76,0,1.15a7.8,7.8,0,0,0,.2,1.33,4,4,0,0,1,.12.63c0,.25,0,.51,0,.78s0,.79,0,1.19.07.74.11,1.11.07.56.08.85,0,.56,0,.84,0,.75,0,1.12a5.77,5.77,0,0,1,0,.72,8.68,8.68,0,0,0,0,1.25c0,.26,0,.52,0,.78s0,.8,0,1.2.08.76.14,1.14a7.5,7.5,0,0,1,.11.81c0,.29.05.58.07.87s0,.73.08,1.09a9.57,9.57,0,0,0,.25,1.31,6.34,6.34,0,0,1,.14.63,4.46,4.46,0,0,1,0,.58,7.94,7.94,0,0,0,0,1.4,5.7,5.7,0,0,0,.45,1.57,2.58,2.58,0,0,1,.14.39c0,.21,0,.46,0,.71,0,.41,0,.82.05,1.22s.1.73.15,1.09.09.58.12.87.09.71.15,1.07l.12.87a3.72,3.72,0,0,1,0,.53,7,7,0,0,0,0,1.46c0,.27.05.54.07.82s0,.76.09,1.15a5.3,5.3,0,0,0,.54,1.61,2.17,2.17,0,0,1,.15.35c0,.22.06.51.09.8s.07.73.12,1.09a3.81,3.81,0,0,1,0,.59,7.49,7.49,0,0,0,0,1.4,2.17,2.17,0,0,0,.38.94,2.1,2.1,0,0,0-.11,1.06c0,.26.06.52.08.79s.06.76.12,1.14a6.57,6.57,0,0,0,.43,1.41,3.67,3.67,0,0,1,.16.45,4.63,4.63,0,0,1,0,.65,10.23,10.23,0,0,0,.09,1.28c.05.27.08.55.11.82s.08.73.14,1.09.14.72.22,1.08.12.54.16.81a5.17,5.17,0,0,1,0,.64,7.84,7.84,0,0,0,.1,1.3,6.37,6.37,0,0,0,.42,1.37,3.23,3.23,0,0,1,.17.49,4.65,4.65,0,0,1,0,.66,8.84,8.84,0,0,0,.11,1.27,7.52,7.52,0,0,0,.39,1.32,3.37,3.37,0,0,1,.18.54,3,3,0,0,1,0,.54,8.14,8.14,0,0,0,.08,1.42,9.19,9.19,0,0,0,.31,1.16,6.38,6.38,0,0,1,.19.72,6,6,0,0,1,.09.74c0,.39.08.79.15,1.19a7.21,7.21,0,0,0,.4,1.28c.08.23.16.45.19.59s.05.45.07.68a10.79,10.79,0,0,0,.15,1.25,4.48,4.48,0,0,1,.05.64,8.26,8.26,0,0,0,.14,1.3c.07.37.17.73.28,1.11s.15.5.2.77a7.5,7.5,0,0,0,.42,1.31,4.34,4.34,0,0,1,.2.54c0,.13,0,.36,0,.59a7.72,7.72,0,0,0,.12,1.35,7.29,7.29,0,0,0,.41,1.29,5,5,0,0,1,.2.57,3.67,3.67,0,0,1,0,.45,6.35,6.35,0,0,0,.09,1.51,6,6,0,0,0,.49,1.39c.07.16.17.37.19.45.06.29.12.59.17.89s.13.67.2,1,.07.49.1.74.09.79.17,1.18l.21,1c.07.31.14.62.2.93s.17.71.27,1.06.14.55.2.82,0,.38.06.62a7.62,7.62,0,0,0,.14,1.32c.08.38.19.75.3,1.12a7,7,0,0,1,.21.75,8.07,8.07,0,0,0,.41,1.28,4.81,4.81,0,0,1,.21.57,3.77,3.77,0,0,1,0,.48,6.74,6.74,0,0,0,.11,1.48l.21,1,.2.91a5.83,5.83,0,0,1,.1.73,11.77,11.77,0,0,0,.18,1.19c.06.29.11.58.17.87s.12.69.2,1,.19.75.31,1.13a6.09,6.09,0,0,1,.21.73c.05.25.08.5.11.74a9.33,9.33,0,0,0,.18,1.18,5.75,5.75,0,0,0,.49,1.36,5.12,5.12,0,0,1,.19.48,3.6,3.6,0,0,1,0,.53,7.6,7.6,0,0,0,.13,1.41c.08.38.2.76.31,1.13s.16.49.22.74.18.72.28,1.08.15.53.21.8.08.49.11.74.1.79.18,1.17a5.92,5.92,0,0,0,.57,1.45,3.31,3.31,0,0,1,.19.39,6.47,6.47,0,0,1,.07.65,9.51,9.51,0,0,0,.17,1.27c.06.26.1.53.14.8s.11.75.19,1.11a8,8,0,0,0,.43,1.28,5.55,5.55,0,0,1,.21.57c.05.26.09.51.12.77s.11.78.19,1.16.18.71.28,1.06.16.54.22.82.11.56.16.84a.69.69,0,0,1,0,.13,8.66,8.66,0,0,0-.67.6,2.67,2.67,0,0,1-.35.31c-.07,0-.31.12-.48.18a5.81,5.81,0,0,0-1.58.7c-.67.45-1.31.94-1.8,1.31a8.4,8.4,0,0,0-1.12,1.11c-.15.17-.28.33-.44.48l-.45.38c-.41.35-.82.71-1.21,1.09s-.77.83-1.14,1.26l-.33.39a5.78,5.78,0,0,1-.5.49,8.77,8.77,0,0,0-1,1.11,9,9,0,0,0-.8,1.27c-.12.21-.23.42-.37.62l-.33.49c-.31.44-.61.88-.89,1.35-.4.69-.75,1.3-1.07,1.93-.11.21-.24.42-.36.63a9.9,9.9,0,0,0-.7,1.31c-.29.67-.56,1.36-.81,2.05l-.16.43c-.2.54-.41,1.09-.58,1.65a10.44,10.44,0,0,0-.3,1.45c0,.24-.07.48-.13.71-.15.63-.27,1.26-.39,1.89l0,.26c-.05.24-.12.47-.19.7a11,11,0,0,0-.33,1.44c0,.27-.1.55-.16.82s-.17.84-.23,1.26a8.76,8.76,0,0,0,0,1.43,5.56,5.56,0,0,1,0,.71c-.05.43-.09.86-.12,1.3l-.07.81c0,.42-.05.85-.05,1.28s0,.56,0,.84,0,.83-.05,1.24,0,.58,0,.87a4.91,4.91,0,0,1-.12.65,7,7,0,0,0-.24,1.45,7.06,7.06,0,0,0,.13,1.55,3,3,0,0,1,.07.58c0,.28,0,.57-.06.85s-.08.84-.09,1.27a3,3,0,0,1-.12.48,6,6,0,0,0-.27,1.63,9.21,9.21,0,0,0,.12,1.38,6.37,6.37,0,0,1,.07.74,5.22,5.22,0,0,1-.06.73,9.78,9.78,0,0,0-.09,1.4,5.85,5.85,0,0,0,.36,1.7,2.93,2.93,0,0,1,.14.43c0,.26,0,.54,0,.83s0,.84,0,1.27c0,.28,0,.57,0,.85,0,.43,0,.85,0,1.27s0,.55,0,.83,0,.87.05,1.29a8.29,8.29,0,0,0,.26,1.3,6.16,6.16,0,0,1,.16.76c0,.28.05.56.07.85s.06.83.1,1.26.11.87.17,1.32l.19,1.48c.05.48.1,1,.18,1.44a5.47,5.47,0,0,1,0,.7,9.08,9.08,0,0,0,.12,1.48c.09.47.21.93.34,1.4.06.24.13.49.18.73a11.43,11.43,0,0,0,.47,1.43c.08.22.17.45.24.68a5.19,5.19,0,0,1,.11.64,8,8,0,0,0,.36,1.58c.07.18.14.36.2.54a14.41,14.41,0,0,0,.66,1.64,7.29,7.29,0,0,0,1.1,1.52,3.57,3.57,0,0,1,.36.43,12.1,12.1,0,0,0,1.67,1.91l.3.29a7.3,7.3,0,0,0,1.82,1.4,5.84,5.84,0,0,0,2.19.53l.5.06.23,0a10.47,10.47,0,0,0,1.76.18c.19,0,.4,0,.6,0a7.2,7.2,0,0,0,2.19-.66l.34-.14c.15-.06.31-.1.46-.15a5.53,5.53,0,0,0,2-.88,7.78,7.78,0,0,0,1.34-1.38,4.94,4.94,0,0,1,.36-.44,17.46,17.46,0,0,0,1.43-1.87,12.39,12.39,0,0,0,.86-1.52l.25-.46c.1-.2.21-.39.32-.58a12.49,12.49,0,0,0,.73-1.38c.1-.21.22-.41.34-.62a9.67,9.67,0,0,0,.67-1.33l.23-.62c.19-.48.37-.95.53-1.41s.29-.94.41-1.39c.07-.23.13-.45.19-.66a10.35,10.35,0,0,0,.3-1.44,5.12,5.12,0,0,1,.11-.61,11,11,0,0,0,.26-1.3,6.75,6.75,0,0,1,.14-.76,5.53,5.53,0,0,1,.22-.65,10.25,10.25,0,0,0,.43-1.32c.09-.39.15-.79.22-1.2s.09-.55.15-.83c.14-.66.27-1.33.41-2,.07-.38.13-.78.18-1.17s.08-.57.13-.85a3.92,3.92,0,0,1,.19-.64,9.12,9.12,0,0,0,.37-1.34,9.76,9.76,0,0,0,.1-1.35c0-.23,0-.47,0-.7a4.62,4.62,0,0,1,.18-.49,5.49,5.49,0,0,0,.47-3,3.52,3.52,0,0,1,0-.55c.05-.39.09-.79.12-1.18s.05-.57.09-.86a7.49,7.49,0,0,1,.15-.8,12.29,12.29,0,0,0,.23-1.21c0-.3.09-.59.15-.88s.13-.75.18-1.13.08-.77.12-1.14,0-.6.09-.89.05-.28.07-.43l.85.63.23.16a16,16,0,0,0,1.66,1.07,7.8,7.8,0,0,0,1.46.57,4.76,4.76,0,0,1,.6.21c.18.07.37.17.56.26a8.72,8.72,0,0,0,1.42.62l.51.17c.46.15,1,.33,1.54.47l.58.14a14.84,14.84,0,0,0,1.5.34,6.92,6.92,0,0,0,1.54.06,3,3,0,0,1,.59,0c.22,0,.44.07.66.11a10.48,10.48,0,0,0,1.43.2l.75,0Zm-1.05-10.4a2.24,2.24,0,0,1,0,.35,5.94,5.94,0,0,0,0,1.37,4.82,4.82,0,0,0,.58,1.49,2.12,2.12,0,0,1,.11.21,6.17,6.17,0,0,1,.08.62c0,.33.08.66.14,1a2.43,2.43,0,0,0,0,.25,5,5,0,0,0-.05.72c-.35,0-.69,0-1,0a8,8,0,0,1-.82-.13c-.34-.06-.68-.13-1-.17a7.89,7.89,0,0,0-1.28,0,4,4,0,0,1-.59,0c-.38-.07-.76-.17-1.13-.27l-.67-.16c-.39-.1-.77-.23-1.15-.36l-.58-.19a6.88,6.88,0,0,1-.78-.35c-.28-.15-.56-.29-.85-.41s-.66-.24-1-.34a6.13,6.13,0,0,1-.68-.24,12,12,0,0,1-1.18-.78l-.25-.17a12.49,12.49,0,0,1-1.3-1,9.09,9.09,0,0,1-1-1.22l-.38-.5a3.93,3.93,0,0,1-.52-.74,6.58,6.58,0,0,1-.39-1.44,2.12,2.12,0,0,0-.41-.9,6.61,6.61,0,0,0-.5-1.25,3.92,3.92,0,0,1-.21-.45c-.07-.29-.13-.58-.2-.88s-.14-.67-.22-1a3.31,3.31,0,0,1-.05-.54,7.7,7.7,0,0,0-.16-1.39c-.07-.29-.14-.59-.2-.88s-.14-.68-.22-1a5,5,0,0,0-.72-1.55,3.14,3.14,0,0,1-.18-.31c0-.18-.09-.45-.13-.72s-.13-.74-.21-1.1a3.16,3.16,0,0,1,0-.5,6.64,6.64,0,0,0-.15-1.44c-.07-.33-.16-.66-.25-1s-.16-.59-.23-.89-.17-.67-.26-1-.16-.57-.23-.86a5.84,5.84,0,0,1-.11-.73,11.82,11.82,0,0,0-.2-1.19,5.6,5.6,0,0,0-.65-1.5,2.27,2.27,0,0,1-.19-.34c0-.07,0-.3,0-.52a8.6,8.6,0,0,0-.15-1.38,9.18,9.18,0,0,0-.43-1.26,5.22,5.22,0,0,1-.22-.58c-.07-.31-.13-.62-.2-.93s-.13-.65-.21-1-.19-.73-.3-1.09-.16-.52-.22-.78-.09-.51-.13-.77a11.48,11.48,0,0,0-.19-1.15,5.51,5.51,0,0,1-.09-.71c0-.28-.08-.61-.14-.95a5.34,5.34,0,0,0,1.12.51c.13.06.28.1.41.17l.38.2a11.84,11.84,0,0,0,1.13.55c.36.15.74.27,1.12.39l.45.14.45.16c.36.13.73.26,1.12.37l.42.15a6.81,6.81,0,0,0,1.13.37,9.89,9.89,0,0,0,1.09.17l.53.08a5.87,5.87,0,0,0,1.23,0,1.79,1.79,0,0,1,.4,0c.16,0,.32.06.47.09a7.2,7.2,0,0,0,1.12.19c.34,0,.69,0,1,0h.56l.46,0a11.5,11.5,0,0,1,1.53.09,6.32,6.32,0,0,0,1.08.11h.14l1-.06.55-.05a6.17,6.17,0,0,0,1.15-.2,3.34,3.34,0,0,1,.43-.1l.56,0c.34,0,.69,0,1-.07l.54,0c.35,0,.7,0,1-.09a5.05,5.05,0,0,0,1.14-.33,2.67,2.67,0,0,1,.4-.13c.19,0,.39-.06.58-.09l1-.18c.34-.07.66-.17,1-.26l.55-.16.2-.05c.45-.11.9-.22,1.34-.35s.93-.28,1.39-.43l.13,0,.54-.17,1-.31.48-.17,1-.37a10.59,10.59,0,0,0,1-.46q.24-.14.48-.24c.49-.22,1-.44,1.45-.67a2.78,2.78,0,0,1,.38-.12,5.55,5.55,0,0,0,1.15-.43,6.36,6.36,0,0,0,1-.65c.13-.09.25-.19.38-.27s.29-.14.44-.21a7.27,7.27,0,0,0,1-.53,6.17,6.17,0,0,0,1-.85,1.6,1.6,0,0,1,.26-.26,3.54,3.54,0,0,1,.41-.26,6.74,6.74,0,0,0,1-.66,9.25,9.25,0,0,0,.83-.82l.34-.36.36-.32c.3-.28.6-.56.86-.85a11.2,11.2,0,0,0,.78-1l.23-.33.25,1.42a8.67,8.67,0,0,1,.13.89c.05.36.1.72.16,1.07s.1.61.15.92.1.69.16,1,.11.65.16,1,.11.66.17,1,.09.6.13.9.1.71.16,1.06.14.71.21,1.06.13.58.18.88.16.74.25,1.11.13.54.18.82.13.69.21,1,.12.6.17.9a4.4,4.4,0,0,1,.06.73,9.93,9.93,0,0,0,.12,1.24,11.94,11.94,0,0,0,.29,1.18c.06.25.14.49.18.74s.07.54.09.82.07.76.14,1.14.07.57.1.86.08.73.14,1.1a7.92,7.92,0,0,0,.39,1.35,3.78,3.78,0,0,1,.18.55c0,.26.05.52.07.78a9.4,9.4,0,0,0,.12,1.19c0,.29.07.58.1.87s.08.73.14,1.09.11.65.17,1,.11.64.16,1,.08.6.11.9.08.7.14,1.05c0,0,0,0,0,.06a2.74,2.74,0,0,0,0,.48l0,.23a5.53,5.53,0,0,1,.16,1.23,7.29,7.29,0,0,1-.17,1.52,9.37,9.37,0,0,1-.59,1.47,10.3,10.3,0,0,1-.84,1.46,10.81,10.81,0,0,1-.93,1.18l-.14.17a11.05,11.05,0,0,1-.84.84l-.41.39a16,16,0,0,1-1.33,1.19c-.53.44-1,.79-1.45,1.11s-1,.66-1.54,1a9.07,9.07,0,0,0-.95.68,4,4,0,0,1-.56.41,9.28,9.28,0,0,1-.91.4l-.81.35c-.23.1-.48.18-.72.27l-.07-.32a4.29,4.29,0,0,1-.06-.5,7.39,7.39,0,0,0-.15-1.2,6.72,6.72,0,0,0-.45-1.22,4.1,4.1,0,0,1-.16-.39c-.07-.31-.16-.62-.24-.93s-.13-.48-.19-.72-.12-.5-.17-.75-.13-.62-.21-.91c0-.1,0-.31,0-.49a6.2,6.2,0,0,0-.17-1.23,7.36,7.36,0,0,0-.41-1.14,3,3,0,0,1-.18-.47c0-.09,0-.21,0-.33a4.88,4.88,0,0,0-.16-1.42,4.21,4.21,0,0,0-.9-1.6h0v-.08a6,6,0,0,0-.16-1.56c0-.19-.07-.4-.11-.61-.06-.37-.12-.75-.22-1.13a6.8,6.8,0,0,0-.42-1.17,5.61,5.61,0,0,1-.22-.53,6.09,6.09,0,0,0-.51-1.26,3,3,0,0,1-.2-.43,3.18,3.18,0,0,1-.05-.44,6.32,6.32,0,0,0-.25-1.39c0-.09-.05-.3-.07-.47a6.15,6.15,0,0,0-.31-1.38,7.73,7.73,0,0,0-.6-1.25,4.52,4.52,0,0,1-.25-.49,9,9,0,0,0-.79-1.33c-.09-.13-.19-.26-.27-.39a7,7,0,0,0-1.66-1.92,5.66,5.66,0,0,0-2.5-1.37,8.9,8.9,0,0,0-2.44-.17,2.18,2.18,0,0,0-1,.31,4.48,4.48,0,0,0-1.44.55,6.66,6.66,0,0,0-1.67,1.5,4.8,4.8,0,0,0-.82,1.61c0,.11-.07.21-.12.32a8.65,8.65,0,0,0-.55,1.91,15.4,15.4,0,0,0-.13,1.9c0,.15,0,.3,0,.46a8,8,0,0,0-.05,1.35l0,.3c0,.46.07.94.13,1.43,0,.2,0,.4.05.6,0,.36.06.73.12,1.1a7.36,7.36,0,0,0,.29,1.13,2.72,2.72,0,0,1,.13.49,2.81,2.81,0,0,1,0,.43,7.06,7.06,0,0,0,.08,1.23c0,.29.12.58.18.88s.11.47.15.71.06.48.09.72.07.59.12.89a6.16,6.16,0,0,0,.37,1.26,2.39,2.39,0,0,1,.14.39c.05.3.1.6.16.9l.14.78s0,.1-.05.19a4.86,4.86,0,0,0,0,1.55,4.61,4.61,0,0,0,.59,1.51l.11.2c0,.19,0,.39.06.59S251.69,340.89,251.75,341.22Zm5.84-131.43s0,.06,0,.09a4,4,0,0,0,0,1.7,4.85,4.85,0,0,0,.58,1.3l.1.18a1.92,1.92,0,0,1,0,.24,5.31,5.31,0,0,0,.13,1.34,5.21,5.21,0,0,1,.1.57c.05.33.1.66.18,1a4.64,4.64,0,0,0,.59,1.33l.12.2c.05.21.1.43.14.65l.18.82.19.74c.07.26.13.52.2.79s0,.32.06.48a6.61,6.61,0,0,0,.15,1.05c-.06.22-.1.46-.14.7a.77.77,0,0,1,0,.15l0,.07a4.8,4.8,0,0,0-.57.78,2.12,2.12,0,0,1-.25.36c-.11.15-.23.3-.34.46a3.76,3.76,0,0,0-.48,1.12s0,0,0,.06l-.1.13-.3.38a3.44,3.44,0,0,0-1.17.7,3.89,3.89,0,0,0-.67.9l-.06.1-.32.29c-.14.13-.28.26-.43.38a2.74,2.74,0,0,1-.36.23c-.2.12-.4.24-.59.38l-.33.24-.59.41a1.86,1.86,0,0,1-.34.18,7.06,7.06,0,0,0-.67.35,5.08,5.08,0,0,0-.7.52.69.69,0,0,0-.13.11h0a3.84,3.84,0,0,0-1.19.36l-.55.26-.49.22a3.82,3.82,0,0,0-1,.8s0,0,0,0l-.18,0c-.27.08-.53.16-.78.26s-.42.19-.63.29a3.17,3.17,0,0,1-.42.19,2.14,2.14,0,0,1-.27.06,5.14,5.14,0,0,0-.86.21l-.68.22-.43.13a4.21,4.21,0,0,0-.92.43,1.18,1.18,0,0,1-.19.11l-.52.12-.42.11H242a3.86,3.86,0,0,0-1.22.07l-.77.16-.36.08-.54.13-.58.13-.49.06c-.22,0-.45.05-.67.09s-.47.09-.7.15-.28.07-.43.09a6.33,6.33,0,0,0-.78.17,2.33,2.33,0,0,1-.36.08,5.19,5.19,0,0,0-1,.24l-.07,0h0a3.57,3.57,0,0,0-1.26-.16,6.1,6.1,0,0,0-.84.13,1.54,1.54,0,0,1-.31.05l-.47,0-.67,0-.17-.05a4.77,4.77,0,0,0-1-.13,3.68,3.68,0,0,0-1.32.3h0a4.61,4.61,0,0,0-1-.19l-.36,0-.78-.06s0,0-.09-.05a4.23,4.23,0,0,0-1-.29,3.77,3.77,0,0,0-1.28.08h0l-.26-.07c-.23-.07-.46-.14-.69-.19l-.12-.07a4.9,4.9,0,0,0-.93-.36c-.33-.08-.66-.18-1-.27a3.62,3.62,0,0,0-1.29-.14,4.31,4.31,0,0,0-.9-.55,6,6,0,0,0-.89-.25l-.22,0a.7.7,0,0,0-.13-.13,5,5,0,0,0-.69-.48q-.3-.16-.6-.3a2.71,2.71,0,0,1-.34-.18,3,3,0,0,1-.26-.24c-.16-.16-.32-.32-.49-.46l-.38-.29c-.13-.11-.27-.21-.39-.33l-.43-.41a1.63,1.63,0,0,1-.27-.25,4,4,0,0,1-.23-.41l-.21-.41c-.1-.18-.22-.36-.33-.53l-.13-.19a.62.62,0,0,1,0-.13,5.44,5.44,0,0,0-.07-.82,2.28,2.28,0,0,0-.31-.75c-.05-.22-.09-.44-.14-.67s-.13-.55-.17-.82-.08-.57-.11-.85-.08-.71-.13-1.06a4.16,4.16,0,0,1,0-.66,9.79,9.79,0,0,0-.09-1.25,6.4,6.4,0,0,0-.43-1.41,3.12,3.12,0,0,1-.16-.44,7.4,7.4,0,0,1-.08-.81c0-.37-.06-.74-.12-1.1A2.16,2.16,0,0,0,210,218a2.28,2.28,0,0,0,.11-1,3.09,3.09,0,0,1,0-.6,8.19,8.19,0,0,0,0-1.37c0-.32-.07-.63-.11-.95s-.06-.66-.11-1a5.51,5.51,0,0,0-.53-1.61,3.4,3.4,0,0,1-.16-.34c0-.21,0-.5,0-.79s-.05-.73-.09-1.09c0-.1,0-.34,0-.54a6,6,0,0,0,0-1.42c0-.34-.08-.66-.13-1s-.09-.63-.13-.94-.09-.69-.14-1-.09-.6-.12-.9a6.69,6.69,0,0,1,0-.77,11.52,11.52,0,0,0,0-1.18,5.3,5.3,0,0,0-.44-1.57,2.87,2.87,0,0,1-.15-.37c0-.09,0-.33,0-.56a7.51,7.51,0,0,0,0-1.36,9.12,9.12,0,0,0-.25-1.3c-.06-.25-.12-.48-.14-.62,0-.34,0-.67-.07-1s-.05-.63-.07-.94-.09-.75-.15-1.12-.09-.54-.11-.81,0-.54,0-.81,0-.77,0-1.14a6.09,6.09,0,0,1,0-.74,8.25,8.25,0,0,0,0-1.22c0-.29,0-.59,0-.89s0-.7,0-1-.07-.72-.11-1.07-.07-.58-.09-.87,0-.54,0-.81,0-.76,0-1.14a8.31,8.31,0,0,0-.21-1.32,5.83,5.83,0,0,1-.11-.61c0-.29,0-.57,0-.85s0-.74,0-1.1a6,6,0,0,1,0-.7,8.2,8.2,0,0,0,0-1.25,5.78,5.78,0,0,0-.29-1.51,3.82,3.82,0,0,1-.12-.43c0-.25,0-.52,0-.78a11.23,11.23,0,0,0,0-1.16c0-.37,0-.73-.07-1.09s-.05-.57-.06-.85a11.35,11.35,0,0,0-.1-1.16c0-.26-.06-.52-.06-.78s0-.36.07-.58a6.72,6.72,0,0,0,.14-1.37,4.78,4.78,0,0,0-.06-.68c.08,0,.16.07.24.12a16,16,0,0,0,1.48.78,2.79,2.79,0,0,1,.33.19,6.41,6.41,0,0,0,1.14.55,9.37,9.37,0,0,0,1.1.28l.46.11.43.11a10.18,10.18,0,0,0,1.12.28c.51.1,1,.17,1.56.23l.45.07c.37.05.73.11,1.11.13s.77,0,1.16,0h.5a7,7,0,0,0,1-.08,3.44,3.44,0,0,1,.45,0c.13-.05.23,0,.34,0a5.53,5.53,0,0,0,1.22.08l1.28-.12.25,0a5.46,5.46,0,0,0,1.12-.26,2.79,2.79,0,0,1,.39-.1l.5-.07c.34,0,.68-.08,1-.15.16,0,.33,0,.49-.06a7.44,7.44,0,0,0,1-.15c.34-.08.67-.19,1-.3l.47-.16a3.69,3.69,0,0,1,.46-.08,6.75,6.75,0,0,0,1.06-.24,5.73,5.73,0,0,0,1-.46l.37-.18.5-.16a10.09,10.09,0,0,0,1-.34l.48-.18a10.33,10.33,0,0,0,1-.39c.48-.23,1-.48,1.4-.73s.65-.38,1-.59l.38-.25q.69-.44,1.32-.9a6.88,6.88,0,0,0,.9-.82,2.47,2.47,0,0,1,.28-.28l.31-.26a9.39,9.39,0,0,0,.92-.82l.21-.21a10.52,10.52,0,0,0,.93-1c.08-.1.14-.2.21-.3l.1.25c.11.22.21.45.3.68s.24.56.36.84.2.44.29.66a2.69,2.69,0,0,1,.05.32,5.93,5.93,0,0,0,.3,1.31c.09.22.16.45.24.68s.19.58.3.87a6.52,6.52,0,0,0,.53,1.06,3.58,3.58,0,0,1,.22.41l.58,1.54c0,.07.06.28.09.44a6.83,6.83,0,0,0,.29,1.17c.09.25.18.5.26.75l.27.81c.12.33.28.66.43,1a3.59,3.59,0,0,1,.24.53,8,8,0,0,0,.48,1,4,4,0,0,1,.23.46c0,.17.08.34.12.52a6.8,6.8,0,0,0,.27,1.08l.3.81c.09.25.18.49.26.73s.13.44.19.66.16.62.26.92a6.11,6.11,0,0,0,.56,1.17,1.72,1.72,0,0,1,.18.32,3.15,3.15,0,0,1,.12.55l0,.09a2.18,2.18,0,0,0,.07,1c.11.33.23.63.35.93s.15.39.22.59a5.09,5.09,0,0,1,.14.56c.08.32.16.64.26,1a5,5,0,0,0,.56,1.13,1.83,1.83,0,0,1,.18.31l.23.79.17.59a.76.76,0,0,1,0,.15,4.73,4.73,0,0,0,.14,1.63,6.21,6.21,0,0,0,.47,1.08,3.75,3.75,0,0,1,.18.39,6.36,6.36,0,0,0,.48,1.12,2.41,2.41,0,0,1,.18.37,2.76,2.76,0,0,1,.07.43,8,8,0,0,0,.21,1.16l.45,1.55a5.32,5.32,0,0,0,.45,1.18,1.73,1.73,0,0,1,.13.35c.08.32.11.49.14.65s.09.5.22,1a2,2,0,0,1,.07.43,5.4,5.4,0,0,0,.2,1.22l.42,1.62a4.73,4.73,0,0,0,.59,1.38l.08.17c.08.32.11.49.14.66s.08.44.18.83a3.65,3.65,0,0,0,0,1.87,4.21,4.21,0,0,0,.68,1.47,5.49,5.49,0,0,0,.56,1.37Zm23.18,90.89-.09-.59c.35,0,.69.07,1,.12a6.45,6.45,0,0,1,.62.19,7.74,7.74,0,0,0,1,.31c.56.13,1.12.25,1.66.41a5.6,5.6,0,0,0,1.41.18,2.34,2.34,0,0,1,.38,0c.27.1.58.24.89.37l.66.29c.36.15.72.33,1.07.51l.49.24.73.33q.43.18.84.39l.4.33a6.84,6.84,0,0,0,1,.76c.26.16.48.34.72.52s.44.35.67.51.45.37.67.56l.64.55a4.67,4.67,0,0,0,1.52.76l.2.06c.09.1.19.24.3.38a8.65,8.65,0,0,0,.74.88c.31.31.6.63.89,1l.61.67c.28.31.57.63.84.95a7.92,7.92,0,0,1,.46.67c.17.26.34.52.52.77a8.06,8.06,0,0,1,.47.72c.15.26.3.51.46.75l.37.53c.2.3.41.6.6.92a4,4,0,0,1,.2.49,7.42,7.42,0,0,0,.47,1.13c.2.36.39.72.58,1.08l.27.52a4.54,4.54,0,0,0,1.21,1.37l.16.13.6,1.21.07.15c0,.07,0,.15,0,.22a4.54,4.54,0,0,0,.37,1.76l.37.74.43.88a6,6,0,0,0,.72,1.16,4.33,4.33,0,0,1,.26.39,3.14,3.14,0,0,1,.15.52,6.83,6.83,0,0,0,.37,1.22,5.93,5.93,0,0,0,.77,1.24,2.44,2.44,0,0,1,.23.33,6.38,6.38,0,0,1,.23.7c.11.34.22.67.34,1s.28.64.43.95.23.46.32.7.16.49.23.73.19.68.31,1a4.1,4.1,0,0,1,.07.44,5.81,5.81,0,0,0,.28,1.35c.11.33.25.65.39,1s.21.46.29.7a5.52,5.52,0,0,0,.75,1.39,2.83,2.83,0,0,1,.2.28s0,.24,0,.43a6.75,6.75,0,0,0,.23,1.3,10.87,10.87,0,0,0,.41,1.08,4.54,4.54,0,0,1,.24.61c.09.29.15.59.22.89s.14.58.22.86c0,.08,0,.21,0,.34a6.11,6.11,0,0,0,.17,1.64c.08.31.18.63.28.95s.19.58.27.88a5.44,5.44,0,0,0,.58,1.36c.07.15.18.34.2.42a4,4,0,0,1,.1.71,11.82,11.82,0,0,0,.18,1.17,5,5,0,0,1,.06.66,9.64,9.64,0,0,0,.13,1.21,6,6,0,0,0,.5,1.42,3.31,3.31,0,0,1,.17.39c0,.27.05.58.07.88s0,.63.06.94.08.6.12.9.1.6.12.9c0,.55,0,1.11,0,1.78a15.79,15.79,0,0,1-.13,1.72,8.77,8.77,0,0,1-.34,1.31l-.08.26a6.41,6.41,0,0,1-.61,1.35c-.09.17-.18.33-.26.5a4.08,4.08,0,0,1-.41.71,5.2,5.2,0,0,1-1,.77l-.32,0a4.91,4.91,0,0,0-1.15.18,8.15,8.15,0,0,0-.83.29l-.38.14-.34-.12a8.1,8.1,0,0,0-.95-.31,6.16,6.16,0,0,0-1.25-.13h-.29l-.31-.26a6.74,6.74,0,0,0-.9-.7,8.2,8.2,0,0,0-.82-.46,5.78,5.78,0,0,1-.62-.36,8.1,8.1,0,0,1-.6-.59c-.2-.22-.4-.43-.62-.63s-.49-.43-.75-.64a5.36,5.36,0,0,1-.58-.51l-.63-.63c-.22-.21-.44-.42-.64-.65a5.26,5.26,0,0,1-.42-.61c-.2-.31-.39-.61-.61-.89s-.5-.58-.76-.85a5.93,5.93,0,0,1-.47-.53,4.81,4.81,0,0,1-.33-.59,9.17,9.17,0,0,0-.61-1,6.69,6.69,0,0,0-.87-.93,3.07,3.07,0,0,1-.37-.39c0-.06-.06-.18-.11-.3A5.52,5.52,0,0,0,299,356a4.55,4.55,0,0,0-1.18-1.16l-.22-.17c-.2-.32-.4-.63-.59-.95l-.33-.53a2.54,2.54,0,0,1-.17-.43,6.85,6.85,0,0,0-.56-1.25,5.67,5.67,0,0,1-.33-.65c-.16-.33-.32-.66-.51-1a4.62,4.62,0,0,0-1.09-1.22l-.21-.18c0-.09-.08-.25-.11-.37a5.75,5.75,0,0,0-.53-1.32l-.42-.74c-.17-.28-.33-.57-.49-.85a4.13,4.13,0,0,1-.16-.47,6.81,6.81,0,0,0-.5-1.26,4.67,4.67,0,0,0-1.25-1.36l-.14-.11c0-.1-.08-.24-.12-.37a7,7,0,0,0-.48-1.26c-.15-.27-.3-.55-.45-.81l-.43-.8a8.56,8.56,0,0,0-.66-1,4.65,4.65,0,0,1-.34-.52,2,2,0,0,0,0-.26,4.86,4.86,0,0,0-.44-1.55,6.92,6.92,0,0,0-.77-1.15c-.1-.13-.24-.31-.28-.38a2.17,2.17,0,0,0-.55-.68c.06-.48.09-.95.11-1.37a9.08,9.08,0,0,0-.24-2.25l0-.21v0a2.55,2.55,0,0,0,0-.39c-.05-.28-.08-.57-.11-.86s-.09-.73-.15-1.1-.11-.68-.17-1-.11-.61-.16-.92-.07-.55-.1-.83-.08-.76-.14-1.13-.05-.5-.07-.76-.05-.81-.12-1.21a7.1,7.1,0,0,0-.39-1.35,3.55,3.55,0,0,1-.18-.57c-.05-.27-.07-.55-.1-.83s-.08-.75-.15-1.13-.06-.54-.09-.81-.07-.77-.13-1.16-.18-.79-.29-1.18a6.64,6.64,0,0,1-.18-.74,5.83,5.83,0,0,1-.06-.72,10.22,10.22,0,0,0-.12-1.26q-.09-.52-.21-1.05c-.06-.3-.12-.59-.17-.89s-.16-.75-.25-1.12-.13-.54-.18-.82-.14-.71-.22-1.07-.13-.58-.18-.87-.09-.59-.13-.89-.1-.72-.16-1.08-.11-.61-.16-.92-.11-.69-.17-1S280.81,301,280.77,300.68Z" style="fill: #1d1d1b"/>
    </g>
  </g>
</svg>
