<svg xmlns="http://www.w3.org/2000/svg" viewBox="0 0 500 500">
  <title>Artboard 25</title>
  <g>
    <g>
      <path d="M325,275.29c0,.31.1.62.1.93s-.21.62-.21.92,0,.62,0,.93l0,.93c0,.31.19.63.18.93s0,.63-.05.94l-.06.93c0,.31-.28.6-.31.91s0,.62-.05.93-.07.61-.11.92-.1.61-.14.91,0,.64,0,.94-.15.61-.21.9-.15.61-.21.9-.07.63-.14.93-.22.58-.31.87-.19.6-.29.89-.2.58-.31.87-.34.53-.46.8,0,.71-.11,1-.43.48-.58.74-.24.59-.41.84-.52.4-.71.63a7.66,7.66,0,0,1-.51.79,8.09,8.09,0,0,1-.74.57c-.24.2-.46.42-.71.59s-.62.16-.89.3-.47.45-.76.57-.61.1-.91.19-.6.08-.9.14-.59.21-.9.25-.59.22-.91.24-.61-.32-.93-.32-.62.26-.93.24c.54,0,.54,0,1.08.05s.54,0,1.08,0a7.61,7.61,0,0,1,.94-.08c.31,0,.57.31.87.39a9.08,9.08,0,0,1,.9.22c.28.12.55.26.83.41a7.47,7.47,0,0,1,.73.56c.26.16.64.16.89.35s.54.33.77.54.3.58.52.8.44.43.64.67.35.51.54.77.56.36.73.62,0,.7.2,1,.53.41.67.69.35.52.48.81,0,.68.1,1,.23.56.34.86.37.51.48.81.09.62.18.92.23.57.31.88.18.59.25.89.12.61.18.92.27.58.32.89-.14.64-.1,1,.15.61.18.92.19.61.21.92,0,.63,0,.94-.11.62-.11.93-.08.46-.07.91.07.45.08.91.11.45.13.9c0-.31-.12-.62-.13-.93s0-.63,0-.94.07-.62.07-.93,0-.62,0-.93.07-.62.08-.93-.08-.63-.06-.93,0-.63,0-.93.23-.61.26-.91,0-.63.06-.93-.21-.66-.17-1,.07-.63.12-.93.44-.56.5-.86-.1-.66,0-1,.27-.58.35-.87.16-.6.25-.89.1-.63.21-.92.22-.58.34-.86.36-.53.5-.8.13-.64.29-.9.39-.5.56-.75.27-.59.47-.83.45-.44.66-.67.52-.36.75-.56.48-.39.73-.58.45-.43.71-.6.48-.42.76-.56.62-.15.91-.27.56-.25.86-.35.56-.29.87-.37.63-.06.94-.12.45.11.88.09.44-.08.87-.12c-.32,0-.64.1-.95.09s-.62-.32-.93-.35-.63,0-.94-.07-.65.07-1,0-.63-.14-.93-.22-.56-.33-.85-.43-.67,0-1-.16a9.59,9.59,0,0,1-1.59-1c-.25-.19-.45-.44-.68-.65s-.65-.24-.87-.48a9.11,9.11,0,0,1-.56-.78c-.19-.24-.22-.6-.4-.87s-.3-.54-.45-.82-.41-.5-.53-.8-.05-.64-.16-.95-.38-.52-.48-.83-.17-.6-.25-.92-.26-.58-.33-.9.19-.67.13-1-.45-.56-.49-.88.24-.66.2-1-.3-.6-.33-.92.09-.63.06-.95-.19-.62-.21-.94.18-.63.16-1,0-.62,0-.94-.06-.63-.06-.95-.23-.63-.23-1v-.93c0-.47.19-.47.19-.94s-.28-.46-.27-.93S325.05,275.76,325,275.29Z" style="fill: #fff381"/>
      <path d="M325.84,323.65a2,2,0,0,1-2-1.92.17.17,0,0,1,0-.07,3.23,3.23,0,0,1-.12-.85,1.29,1.29,0,0,0,0-.25,5.57,5.57,0,0,1-.06-.66,3.66,3.66,0,0,1,.07-.86v-.11a4,4,0,0,1,.09-.8.78.78,0,0,0,0-.14v-.73l0-.1a4,4,0,0,1-.18-.83,2.25,2.25,0,0,0-.05-.22,4.66,4.66,0,0,1-.12-.63,3,3,0,0,1,0-1,3.12,3.12,0,0,1-.25-.75l-.06-.33c0-.18-.06-.35-.1-.53a3.17,3.17,0,0,0-.12-.41c0-.14-.08-.27-.11-.41s-.07-.18-.1-.26-.14-.37-.2-.56a5.9,5.9,0,0,1-.15-.73v0a3.91,3.91,0,0,1-.46-.82c-.11-.29-.2-.54-.31-.79a3,3,0,0,1-.21-1.14c0-.08-.11-.16-.16-.25a3,3,0,0,1-.76-.84,2.81,2.81,0,0,1-.33-.91,2.46,2.46,0,0,1-.49-.52,4.85,4.85,0,0,1-.28-.4,1.85,1.85,0,0,0-.19-.27,3.45,3.45,0,0,0-.26-.28l-.3-.3a3.23,3.23,0,0,1-.53-.77h0l-.31-.2a3.17,3.17,0,0,1-.95-.41,4.34,4.34,0,0,1-.54-.42l-.11-.09a6,6,0,0,0-.56-.26.71.71,0,0,0-.22-.05l-.45-.1a3.25,3.25,0,0,1-.71-.29,3.39,3.39,0,0,1-.71,0l-.43,0a6.63,6.63,0,0,1-.68,0c-.55,0-.55,0-1.09,0a2,2,0,0,1-.09-4,2.93,2.93,0,0,1,1.17-.26,2.84,2.84,0,0,1,1,.21,2.92,2.92,0,0,1,.59-.12l.09,0a4.67,4.67,0,0,1,.64-.18,5,5,0,0,1,.54-.08,1.52,1.52,0,0,0,.21,0,5.49,5.49,0,0,1,.61-.12,3,3,0,0,1,.68-.48,3.4,3.4,0,0,1,.83-.3.69.69,0,0,0,.13-.11l.29-.25.42-.32.1-.07h0a3.73,3.73,0,0,1,.45-.69,3.5,3.5,0,0,1,.63-.58h0a5.25,5.25,0,0,1,.31-.63,2.83,2.83,0,0,1,.36-.49,2.6,2.6,0,0,1,.21-1,4.45,4.45,0,0,1,.39-.69L321,291c.06-.19.16-.44.24-.71l.1-.27c0-.17.11-.35.17-.53a5.84,5.84,0,0,1,.2-.59,1.57,1.57,0,0,0,.09-.23,1.49,1.49,0,0,0,0-.21c0-.21.05-.43.1-.65s.07-.3.11-.45.07-.27.1-.4.08-.35.12-.53a2.44,2.44,0,0,0,.06-.26v-.09a4.41,4.41,0,0,1,0-.87l.06-.4c0-.16.05-.31.07-.48l0-.13.09-.76c0-.11,0-.23,0-.36s0-.35,0-.53a3.27,3.27,0,0,1,.31-1.08c0-.23,0-.47.05-.71s0-.47,0-.71a3.5,3.5,0,0,1-.17-1.11l.05-1.35c0-.15,0-.3,0-.46a2.45,2.45,0,0,1,0-.27,2.65,2.65,0,0,1-.06-.66,3.21,3.21,0,0,1,.15-1,2,2,0,0,1,2-1.93,2,2,0,0,1,2,1.95v0l0,.16a5.39,5.39,0,0,1,.07.79,2.72,2.72,0,0,1,0,.42,3.39,3.39,0,0,1,0,.47,3.19,3.19,0,0,1-.19,1.12v.6a3.1,3.1,0,0,1,.23,1.1c0,.13,0,.25,0,.37s0,.37,0,.56,0,.4,0,.59,0,.22,0,.33a3.22,3.22,0,0,1-.12,1,4.4,4.4,0,0,1,.17.84,4,4,0,0,1,0,.82,3,3,0,0,1,.3,1,2.88,2.88,0,0,1-.05.9,2.65,2.65,0,0,1,.32.85,2.77,2.77,0,0,1-.05,1.14,4.84,4.84,0,0,1,.22.6c.06.23.12.47.18.69l0,0a3.62,3.62,0,0,1,.47.86,3.58,3.58,0,0,1,.18.89,3.5,3.5,0,0,1,.41.62l.06.11c.1.2.2.39.31.57a3.64,3.64,0,0,1,.37.82l0,0,.18.26,0,.05a3.34,3.34,0,0,1,.86.52l.38.38.15.15a4.39,4.39,0,0,1,.36.28,1.84,1.84,0,0,0,.22.17,3.13,3.13,0,0,1,.34.21l.16.1a3.35,3.35,0,0,1,1,.17,4.17,4.17,0,0,1,.77.39l0,0,.55.13h0a3.78,3.78,0,0,1,.95,0c.13,0,.27,0,.4,0l.45,0a3,3,0,0,1,1,.3,4.62,4.62,0,0,1,.65-.05,2,2,0,0,1,.24,4l-.24,0a3.9,3.9,0,0,1-.72.09h-.22a3.09,3.09,0,0,1-.71-.08l-.36,0h-.14l-.1,0a4.17,4.17,0,0,1-.65.29l-.58.23-.14.06a3.94,3.94,0,0,1-.78.23h0l-.05,0a5.34,5.34,0,0,1-.55.42l-.11.1a5.72,5.72,0,0,1-.46.4c-.25.19-.43.32-.59.47a4.75,4.75,0,0,1-.58.42l-.12.09-.29.29-.17.15a1,1,0,0,0,0,.1,6.77,6.77,0,0,1-.36.65c-.11.15-.23.31-.36.46l-.07.08a3.7,3.7,0,0,1-.29.88,5,5,0,0,1-.39.62c0,.05-.07.09-.09.13-.08.19-.18.45-.28.71h0s0,0,0,.1a5.77,5.77,0,0,1-.16.72c-.07.23-.13.45-.19.68l0,.14a4.92,4.92,0,0,1-.27.69,2.83,2.83,0,0,1,0,1,2.75,2.75,0,0,1-.53,1.14s0,0,0,.07l0,.16a3,3,0,0,1,.14,1.21c0,.12,0,.25,0,.37s0,.34,0,.52a3.1,3.1,0,0,1-.26,1h0v.2c0,.18,0,.37,0,.56,0,0,0,.09,0,.15a6.3,6.3,0,0,1,.05.75q0,.3-.06.6a2.83,2.83,0,0,0,0,.29c0,.16,0,.33,0,.49s0,.28,0,.42,0,.44,0,.66a2,2,0,0,0,0,.24,5,5,0,0,1,0,.55c0,.12,0,.24,0,.36s0,.1,0,.16a3.45,3.45,0,0,1,.09.77,2,2,0,0,1-1.93,2Zm-1.77-19a2.78,2.78,0,0,1,.57.74,1.64,1.64,0,0,0,.14.22c.13.22.27.44.38.67a2.25,2.25,0,0,1,.2.66,4.4,4.4,0,0,1,.19-.73c.12-.32.25-.65.39-1a4.24,4.24,0,0,1,.47-.81s0,0,0,0v0a3.35,3.35,0,0,1,.38-1,5.59,5.59,0,0,1,.51-.7l.13-.17,0-.11a4,4,0,0,1,.5-.84c.18-.22.39-.42.59-.62a1,1,0,0,0,.18-.17,4.71,4.71,0,0,1,.77-.62l.13-.08c.23-.21.5-.41.77-.62a1.39,1.39,0,0,0,.2-.17l.11-.1-.36-.22-.22-.13a5.93,5.93,0,0,1-.75-.53l-.19-.15a5,5,0,0,1-.69-.62l0,0a3.12,3.12,0,0,1-1.13-.74,6.44,6.44,0,0,1-.54-.72l-.15-.21a3.44,3.44,0,0,1-.5-1l0-.08c-.15-.25-.29-.5-.43-.77l-.1-.15a4.36,4.36,0,0,1-.56-.88,3.34,3.34,0,0,1-.22-.85l-.15.41a3.66,3.66,0,0,1-.39.75,2.63,2.63,0,0,1-.27,1.24,3.72,3.72,0,0,1-.63.88l0,0a.3.3,0,0,0,0,.1,4.69,4.69,0,0,1-.43.81,3.59,3.59,0,0,1-.82.81h0a4,4,0,0,1-.61.88,5.52,5.52,0,0,1-.72.58l-.17.12-.19.16a5.37,5.37,0,0,1-.7.56l-.08.05a3,3,0,0,1,.4.26l.15.1a4.37,4.37,0,0,1,.75.54,3.36,3.36,0,0,1,.7,1v0l.1.1a7.28,7.28,0,0,1,.53.57,5.79,5.79,0,0,1,.45.62l0,.07a3,3,0,0,1,.9.88A2.45,2.45,0,0,1,324.07,304.64Z" style="fill: #12110c"/>
    </g>
    <g>
      <path d="M196.71,109.47c-.06.5-.19.5-.18,1s.31.51.32,1-.2.51-.2,1c0,.32,0,.63,0,.94s.27.63.27.94-.25.64-.24.95,0,.64,0,1,.26.62.28.92-.13.65-.11,1,.3.61.33.92,0,.63,0,.94.17.61.21.92.08.62.14.92.14.62.21.92,0,.63.11.93,0,.65.12.94.25.59.35.88.12.64.23.92.31.56.44.84.46.47.61.73.08.7.25.95.62.33.81.57.42.45.63.68a8.23,8.23,0,0,0,.59.71c.24.21.4.5.65.68s.48.42.75.58.67.08,1,.22a8.2,8.2,0,0,0,.82.46c.28.11.52.39.83.48s.6.19.91.27.65-.09,1,0,.58.32.9.36.63,0,1,0,.62.07.94.09.62,0,.94,0c-.48.05-.47.14-.95.17s-.5-.21-1-.17c-.31.06-.59.29-.88.36s-.63.07-.92.16-.52.35-.81.46-.69,0-1,.1-.55.3-.81.45-.47.43-.72.6-.46.43-.7.62a7.81,7.81,0,0,0-.67.62c-.23.21-.52.35-.73.58s-.28.56-.47.8-.64.29-.82.55,0,.72-.17,1-.61.36-.75.64-.15.61-.28.9-.15.6-.27.89-.14.59-.24.89-.17.58-.26.88-.31.55-.39.85-.17.59-.24.89,0,.62-.1.93-.35.56-.4.87,0,.62,0,.93-.05.62-.08.93-.21.59-.24.91-.05.61-.07.92.06.62,0,.93.2.63.19.94-.34.6-.35.92.16.62.15.93-.11.62-.11.93.06.61.06.93-.07.62-.06.93-.08.62-.07.93c0-.49,0-.49,0-1s.32-.51.31-1-.36-.49-.37-1c0-.32.22-.65.21-1s-.15-.63-.17-1,0-.63,0-.95,0-.64,0-1-.28-.6-.33-.91,0-.64-.05-.95-.16-.61-.23-.92,0-.65,0-1-.36-.56-.44-.86.12-.7,0-1-.17-.62-.27-.92-.29-.57-.4-.86-.38-.53-.51-.82-.23-.59-.36-.88-.2-.61-.35-.88-.33-.55-.49-.82-.23-.61-.4-.87-.53-.41-.71-.67-.32-.55-.52-.79-.38-.52-.58-.75-.58-.32-.81-.54-.37-.52-.61-.72-.35-.59-.6-.77-.68-.14-1-.3-.42-.55-.7-.69-.6-.25-.9-.36a32.38,32.38,0,0,0-1.9-.17c-.31,0-.6-.35-.92-.35s-.39,0-.79,0-.39-.05-.78-.08-.4,0-.79,0c.31,0,.62,0,.92,0s.62-.16.93-.17.61,0,.91,0,.63,0,.93,0,.67.12,1,.05.53-.42.82-.51.62-.12.9-.25.47-.43.74-.59a9.29,9.29,0,0,0,.87-.35c.25-.18.45-.42.69-.63s.54-.32.76-.55.52-.37.72-.62.17-.64.35-.9.31-.53.47-.8.45-.45.6-.73.24-.57.37-.85.31-.55.42-.84,0-.65.11-1,.27-.56.37-.86.27-.56.35-.87.12-.6.19-.91,0-.62.11-.93.33-.56.39-.87.12-.61.17-.92,0-.62.08-.93.12-.61.16-.93-.15-.64-.12-1,.4-.58.43-.9-.24-.64-.22-1,.14-.61.16-.93,0-.62,0-.93,0-.62,0-.93,0-.62,0-.94.36-.61.37-.92,0-.62,0-.93,0-.62,0-.94.11-.62.1-.93A5.34,5.34,0,0,1,196.71,109.47ZM206,185.36c0,.31.07.62.07.92s-.07.62-.07.93,0,.62,0,.92,0,.62,0,.92-.11.62-.12.92.2.63.18.94-.06.62-.08.93-.29.6-.31.9.11.64.08.94-.15.61-.19.91-.14.61-.18.91,0,.63,0,.93l-.15.91c-.05.31,0,.64,0,.93s-.09.62-.16.92-.3.57-.37.86,0,.65-.09.94-.48.5-.58.78,0,.65-.15.93-.14.61-.26.89-.26.57-.39.84-.22.6-.37.86-.36.52-.53.77-.47.43-.65.67-.35.52-.56.74-.45.43-.67.63-.52.34-.76.52-.41.51-.67.67a8.13,8.13,0,0,1-.85.38c-.27.13-.54.32-.83.43s-.62.09-.92.17-.59.16-.9.21-.61,0-.92.07-.6,0-.91,0-.61,0-.92,0-.6-.05-.92-.07c.57,0,.56.17,1.13.21s.58-.07,1.14,0a7.51,7.51,0,0,1,.93.25,5.69,5.69,0,0,1,.9.24,6.51,6.51,0,0,1,.88.3,6.78,6.78,0,0,1,.91.25c.28.14.56.28.83.45s.49.39.74.58.6.26.84.47.43.47.65.7.54.36.75.61.21.64.4.89.33.54.51.8.29.55.46.82.64.35.79.63.18.62.32.91.08.65.21.94.4.51.52.8.19.6.3.9.12.61.22.92.2.59.29.89.28.58.36.88.25.59.31.9,0,.64.07,1,.21.6.26.91-.13.65-.09,1,.09.62.12.93.38.61.4.93-.09.64-.08.95-.15.64-.15,1c0,.47,0,.47,0,.95s.1.48.12,1,.07.48.08,1c0-.32-.09-.64-.1-.95s.19-.64.18-1-.11-.63-.11-.95,0-.64,0-1,0-.64,0-.95,0-.64,0-.95.06-.64.08-1,.11-.63.13-.95.1-.63.13-.94,0-.64,0-1,.24-.61.29-.91.17-.62.22-.93,0-.64.11-.94.1-.63.17-.93,0-.68.06-1,.49-.51.59-.8,0-.68.11-1,.26-.59.39-.87.46-.48.61-.75.07-.69.24-1,.44-.46.63-.72.42-.47.62-.71.44-.44.66-.67.47-.41.71-.61.31-.62.57-.81.52-.37.79-.54.62-.19.9-.34.62-.13.92-.25.55-.29.85-.39.6-.16.91-.24.57-.43.89-.5.48.3.94.28.46-.18.91-.23c-.31,0-.61-.17-.92-.18s-.63.07-.94,0-.63,0-.94,0-.61-.13-.92-.18-.65.05-1,0-.57-.32-.86-.41-.64-.1-.92-.22-.45-.52-.73-.66-.56-.24-.82-.4-.69-.11-.93-.3-.38-.52-.61-.74-.38-.49-.59-.72-.56-.35-.74-.6-.19-.62-.36-.89a8.6,8.6,0,0,1-.56-.75c-.14-.26-.18-.59-.31-.88s-.42-.5-.53-.79-.24-.58-.33-.88-.18-.6-.26-.91.11-.66,0-1-.32-.56-.38-.87-.18-.6-.23-.91-.1-.62-.14-.93.2-.65.17-1,0-.62-.06-.93-.35-.59-.37-.91-.06-.62-.08-.93.13-.63.12-1-.13-.61-.13-.93.18-.62.18-.94,0-.62,0-.94c0-.49.07-.49.06-1s-.3-.49-.3-1,0-.49-.05-1S206,185.86,206,185.36Zm-32.13-34.22c0,.32.05.63.05,1s-.19.63-.19.94-.1.63-.11.94,0,.63,0,.94.14.64.13,1-.15.63-.17.94.16.64.13.95-.18.62-.21.93,0,.63-.08.93-.11.63-.15.93-.19.61-.24.91.05.65,0,1-.2.6-.27.9-.07.64-.14.94-.06.64-.15.94-.18.61-.28.9-.28.58-.39.87-.38.52-.51.8-.38.51-.53.78-.07.69-.24,1-.59.36-.78.59-.4.48-.61.7-.36.52-.6.72-.39.53-.65.71a8.45,8.45,0,0,1-.82.49c-.28.14-.64.12-.93.23s-.62.1-.92.19-.54.43-.85.49-.64-.05-1,0-.61.2-.93.21-.63,0-1,0c.58,0,.58-.29,1.16-.28s.57.33,1.15.34a5.59,5.59,0,0,1,.91.08c.3.05.66-.1,1,0a6.16,6.16,0,0,1,.85.43,6.77,6.77,0,0,1,.8.48,8.62,8.62,0,0,1,.79.5c.24.19.41.46.64.68s.52.36.73.6.29.56.49.81.58.34.76.61.33.53.5.8.26.57.41.85.08.65.22.94.28.54.4.83.29.55.4.85.43.51.53.81.13.61.22.92.12.61.2.92.16.6.23.91,0,.63.08.94.1.61.14.92,0,.63,0,.95.33.59.36.91-.14.63-.13,1,.23.62.23.93c0,.53,0,.53,0,1.05s0,.53,0,1.06-.11.52-.13,1c0-.31-.14-.62-.14-.92s.19-.62.19-.92-.19-.62-.19-.93-.07-.62-.06-.92,0-.62,0-.92.33-.6.35-.91-.07-.62,0-.92-.11-.63-.08-.93.11-.62.15-.92,0-.62.06-.92.25-.59.3-.89.26-.58.32-.87.07-.62.14-.91.11-.61.2-.9.12-.61.21-.89.17-.6.27-.88.33-.54.45-.81.28-.55.43-.82.26-.56.42-.81.27-.57.45-.81a8.08,8.08,0,0,1,.66-.65,6.67,6.67,0,0,1,.62-.68c.22-.21.57-.26.81-.45a8.88,8.88,0,0,1,.75-.5c.26-.16.53-.29.81-.43l.83-.34c.28-.1.52-.37.82-.46s.6-.07.91-.13.43,0,.87,0,.43-.09.87-.11.44-.06.88-.08c-.33,0-.64.14-1,.13s-.64,0-.95-.05-.65.06-1,0-.64-.11-.95-.18-.61-.19-.91-.29-.51-.43-.8-.55-.55-.28-.83-.43-.69-.09-.95-.27-.33-.59-.57-.8a8.07,8.07,0,0,1-.67-.64c-.22-.23-.6-.31-.8-.56s-.46-.46-.64-.72-.17-.64-.33-.92-.3-.54-.44-.83-.2-.59-.32-.89-.38-.53-.48-.84-.21-.59-.3-.9,0-.66,0-1-.24-.58-.31-.9-.09-.62-.15-.94-.12-.61-.17-.93-.11-.62-.15-.94-.08-.62-.1-.94-.08-.63-.1-.95-.07-.63-.09-1,.19-.63.18-1-.22-.62-.22-.95.08-.63.09-.95.14-.44.16-.88.06-.44.1-.88S173.86,151.59,173.89,151.14Z" style="fill: #fff381"/>
      <path d="M197.36,161.19a2,2,0,0,1-1.93-1.46h0a2.13,2.13,0,0,1-.07-.44h0v0h0a4.38,4.38,0,0,1,0-.52c0-.11,0-.22,0-.44a2.62,2.62,0,0,1,.14-1,.13.13,0,0,0,0-.06,2.88,2.88,0,0,1-.19-1,3.55,3.55,0,0,1,.17-1,.5.5,0,0,1,0-.12,3.87,3.87,0,0,1-.1-.67c0-.16,0-.32,0-.48a2.82,2.82,0,0,0,0-.41,4.73,4.73,0,0,1,0-.65v-.1a3.74,3.74,0,0,1-.33-1,4.71,4.71,0,0,1,0-.75v-.17l-.08-.29c-.05-.18-.1-.36-.14-.54a3.88,3.88,0,0,1-.07-.84,3.33,3.33,0,0,1-.39-.86,3.07,3.07,0,0,1-.05-1.26l0-.11c0-.14-.07-.28-.12-.42s-.08-.16-.11-.23a5,5,0,0,1-.22-.47l-.05-.06a4,4,0,0,1-.47-.79c-.06-.13-.12-.27-.17-.41s-.11-.27-.17-.4-.17-.42-.25-.63a1.07,1.07,0,0,0-.07-.19c-.05-.11-.13-.23-.2-.35l-.24-.39a6.1,6.1,0,0,1-.32-.68h0a3.42,3.42,0,0,1-.68-.69c-.12-.16-.22-.33-.32-.49a1.09,1.09,0,0,0-.14-.23l-.24-.31-.16-.21a3.42,3.42,0,0,1-.83-.58,4.26,4.26,0,0,1-.48-.57l-.09-.12a2.26,2.26,0,0,1-.44-.5,2.57,2.57,0,0,1-.79-.32,2.91,2.91,0,0,1-.78-.71l-.31-.11h0a4,4,0,0,1-.87-.1s0,0-.09,0c-.21,0-.41,0-.62,0a2.88,2.88,0,0,1-1-.34,4.21,4.21,0,0,1-.6,0l-.26,0h-.27c-.27,0-.53,0-.8,0h-.26a2,2,0,0,1,.3-4h0a3.57,3.57,0,0,1,.76,0h.09a3.36,3.36,0,0,1,.75-.12c.27,0,.54,0,.8,0a6.26,6.26,0,0,1,.75,0h.11a3.27,3.27,0,0,1,.7,0,3,3,0,0,1,.7-.36,4.34,4.34,0,0,1,.62-.16,3.32,3.32,0,0,1,.67-.51,3.92,3.92,0,0,1,.78-.33h0l.09-.1.36-.33a3.81,3.81,0,0,1,.58-.41l.12-.08a2.56,2.56,0,0,1,.4-.34,3,3,0,0,1,.4-.88c.07-.1.13-.21.2-.33l.19-.35a4.27,4.27,0,0,1,.56-.69l0,0,.11-.26c.06-.13.11-.27.17-.4s.16-.33.25-.49a.56.56,0,0,1,0-.08,3,3,0,0,1,.16-1,4.66,4.66,0,0,1,.26-.61l.09-.18a4.51,4.51,0,0,1,.26-.66s.05-.11.08-.17,0-.2.06-.31.06-.35.1-.52a.45.45,0,0,0,0-.13,6.39,6.39,0,0,1,.09-.75,3.55,3.55,0,0,1,.42-1c.05-.25.09-.46.12-.68a1.23,1.23,0,0,0,0-.27q0-.31.06-.63c0-.17.06-.34.09-.52l0-.17a3.24,3.24,0,0,1-.09-1.12,2.49,2.49,0,0,1,.29-.92,2.47,2.47,0,0,1-.08-.88,6.12,6.12,0,0,1,.11-.71.71.71,0,0,0,0-.2,1.28,1.28,0,0,0,0-.18,5.77,5.77,0,0,1,0-.72l0-.91c0-.12,0-.23,0-.35a5.23,5.23,0,0,1,0-.56,2.6,2.6,0,0,1,.2-.91,2.73,2.73,0,0,1-.09-.68,3.62,3.62,0,0,1,.16-1.17h0s0-.07,0-.1h0c0-.13,0-.24,0-.33s0-.21.05-.31l0-.18a2,2,0,0,1,4,0,3.66,3.66,0,0,1-.1,1.06h0c0,.09,0,.2,0,.3s0,.39,0,.59,0,.21,0,.31a1,1,0,0,1,0,.17,2.82,2.82,0,0,1,.08.65,3,3,0,0,1-.2,1.18v.56a3,3,0,0,1,.27,1.15,2.91,2.91,0,0,1-.24,1.21l0,.4v.08a3.59,3.59,0,0,1,.26,1,3.12,3.12,0,0,1-.05.85,3.2,3.2,0,0,1,.27.93c0,.23,0,.46,0,.69v.21a1.66,1.66,0,0,0,.06.21,5.23,5.23,0,0,1,.15.66l.06.43.06.44c0,.15.07.29.1.43s.07.28.1.42a6.38,6.38,0,0,1,.1.73,1.09,1.09,0,0,0,0,.18,3.86,3.86,0,0,1,.1.82v.07a1.42,1.42,0,0,0,.08.18c.08.18.16.36.22.54a4.74,4.74,0,0,1,.18.72l0,.16.13.21a2.69,2.69,0,0,0,.16.29h0a3.28,3.28,0,0,1,.63.78,2.7,2.7,0,0,1,.27.7,2.28,2.28,0,0,1,.62.56c.11.13.21.23.32.34l.2.21a5.08,5.08,0,0,1,.41.51l.09.12a4.14,4.14,0,0,1,.44.47l.08.09.35.28,0,0a3,3,0,0,1,1,.27,5.33,5.33,0,0,1,.56.32l.14.09a3.77,3.77,0,0,1,.8.46l0,0,.41.12a3.15,3.15,0,0,1,1.06,0,3.39,3.39,0,0,1,.91.32,4.82,4.82,0,0,1,.76,0l.45,0a3,3,0,0,0,.42,0h.88a2,2,0,0,1,.16,4l-.11,0a4.33,4.33,0,0,1-.92.16h-.2a2.73,2.73,0,0,1-.69-.08,4.24,4.24,0,0,1-.58.21,5.54,5.54,0,0,1-.71.12h0a3.65,3.65,0,0,1-.74.42,2.67,2.67,0,0,1-1.13.19l-.17.1-.25.18a5.27,5.27,0,0,1-.58.48l-.13.13a5.56,5.56,0,0,1-.44.39l-.38.35-.18.16a3.69,3.69,0,0,1-.53.43h0a4.27,4.27,0,0,1-.44.74,2.76,2.76,0,0,1-.54.5,2.37,2.37,0,0,1-.3.81,2.7,2.7,0,0,1-.73.79,4.76,4.76,0,0,1-.2.55l0,.13a5.75,5.75,0,0,1-.21.67s0,.12,0,.19-.1.41-.17.62-.08.28-.12.43l-.11.38a4.23,4.23,0,0,1-.37.81l0,.06-.09.3c0,.14-.08.28-.11.43a.76.76,0,0,0,0,.16,5.71,5.71,0,0,1-.08.71,3,3,0,0,1-.38,1h0a5.79,5.79,0,0,1,0,.72c0,.13,0,.26,0,.39s0,.33,0,.49a3.6,3.6,0,0,1-.21.85l0,.09,0,.45,0,.36s0,.07,0,.13a4.58,4.58,0,0,1,0,.53,3.12,3.12,0,0,1,.19,1.14,2.68,2.68,0,0,1-.28,1.06,2.66,2.66,0,0,1,.08.74,4.26,4.26,0,0,1-.07.7,2.8,2.8,0,0,1,0,2.13,4.6,4.6,0,0,1-.05.64,1.11,1.11,0,0,0,0,.17v0a2,2,0,0,1-.81,1.6,1.94,1.94,0,0,1-1,.39h-.17Zm-.53-17.84,0,.07c.08.12.2.27.31.46l.06-.21c.06-.23.12-.45.2-.67,0-.07,0-.14.05-.21a4.75,4.75,0,0,1,.22-.76.85.85,0,0,0,0-.17,4.48,4.48,0,0,1,.27-.81V141a3.71,3.71,0,0,1,.32-.94,2.54,2.54,0,0,1,.65-.79,2.54,2.54,0,0,1,.4-1,2.72,2.72,0,0,1,1-.85,3.53,3.53,0,0,1,.5-.73,4.61,4.61,0,0,1,.71-.6l.13-.09.14-.14c.21-.19.42-.39.64-.57l.15-.14a4.75,4.75,0,0,1,.67-.57l.07-.07.13-.12,0,0h0a3.1,3.1,0,0,1-1.23-.39,5.4,5.4,0,0,1-.72-.53l-.18-.14a4.53,4.53,0,0,1-.73-.71l-.09-.11a4.3,4.3,0,0,1-.61-.7l-.1-.14-.15-.15-.38-.4a2.66,2.66,0,0,1-1.54-2.06,3.45,3.45,0,0,1-.58-.83l-.12-.22a6,6,0,0,1-.36-.72,3.94,3.94,0,0,1-.24-.86l0-.16-.1.21s0,0,0,0a3,3,0,0,1-.2,1.17c-.1.24-.22.47-.34.7l-.12.22c0,.1-.08.19-.11.28s-.2.46-.31.67a3.67,3.67,0,0,1-.65.87l-.14.21c-.09.16-.18.32-.28.48a3.08,3.08,0,0,1-.57,1.22,4.36,4.36,0,0,1-.75.69l-.12.08a4.15,4.15,0,0,1-.76.59l-.12.08-.15.14a5.28,5.28,0,0,1-.67.58,3,3,0,0,1-.54.3,2.7,2.7,0,0,1,.31.2,3.35,3.35,0,0,1,.84,1v0a4.44,4.44,0,0,1,.51.59l0,0a3.49,3.49,0,0,1,.95.71c.17.19.32.39.48.6l.18.23a6.31,6.31,0,0,1,.44.66l.07.11h0a3.42,3.42,0,0,1,.83.86,4.54,4.54,0,0,1,.4.8.76.76,0,0,0,.06.16l.16.26c.12.2.25.4.36.61a5.51,5.51,0,0,1,.31.76,1.18,1.18,0,0,0,.07.2c.1.21.19.43.28.65Zm10.1,92.88a2,2,0,0,1-2-1.93,2.6,2.6,0,0,0,0-.26,5.69,5.69,0,0,1-.07-.71v-.14a4,4,0,0,1-.1-.81c0-.31,0-.46,0-.61a2.09,2.09,0,0,0,0-.36,4.06,4.06,0,0,1,.13-1l0-.07a1.09,1.09,0,0,1,0-.18v-.11c0-.12,0-.24,0-.36a2.74,2.74,0,0,1-.31-1,3.93,3.93,0,0,0-.06-.48l-.05-.39a3.21,3.21,0,0,1,.06-1,4.68,4.68,0,0,1-.21-.73,4.36,4.36,0,0,1-.06-.82v-.09a1.17,1.17,0,0,0-.05-.11,7.26,7.26,0,0,1-.24-.7s0,0,0-.09a4.31,4.31,0,0,1-.3-.74c-.06-.21-.13-.43-.2-.64l-.06-.19a4.54,4.54,0,0,1-.16-.66c0-.07,0-.13-.05-.2s-.11-.32-.16-.49a1.55,1.55,0,0,0-.07-.23l0,0a4,4,0,0,1-.49-.78,3.7,3.7,0,0,1-.27-1.06h0c-.06-.14-.1-.27-.14-.39a2.55,2.55,0,0,1-.79-.81c-.1-.15-.19-.32-.28-.49a1,1,0,0,0-.13-.23l-.29-.46a2.2,2.2,0,0,0-.15-.26,3,3,0,0,1-.46-.87,3.75,3.75,0,0,1-.53-.45l-.34-.36-.14-.16,0,0a3.45,3.45,0,0,1-.76-.43l-.36-.29-.24-.2-.58-.31-.09,0a5.71,5.71,0,0,1-.71-.19,5.9,5.9,0,0,0-.67-.23l-.46-.14-.21-.06a4.37,4.37,0,0,1-.85-.23h-.11a4,4,0,0,1-1,0,4.66,4.66,0,0,1-1-.19,2.06,2.06,0,0,1-1.9-2.15,2,2,0,0,1,2.05-1.87l.43,0c.13,0,.26,0,.4,0h1.56l.54,0h.27a6.23,6.23,0,0,0,.62-.15l.12,0a6.66,6.66,0,0,1,.67-.12l.16,0s0,0,.1-.08l.48-.25.4-.17.13-.06a3.82,3.82,0,0,1,.64-.62l.45-.3.18-.11.17-.15c.12-.11.24-.21.35-.33s.11-.15.17-.23a4.73,4.73,0,0,1,.28-.39,3.81,3.81,0,0,1,.55-.57l.07-.06.22-.3a2.53,2.53,0,0,0,.18-.27,1.82,1.82,0,0,0,.08-.19,5.55,5.55,0,0,1,.24-.56c.12-.24.23-.5.34-.75,0,0,0-.09,0-.15s.09-.35.14-.52v0a3.6,3.6,0,0,1,.16-.93,2.82,2.82,0,0,1,.53-.92,3.32,3.32,0,0,1,.46-1.54l0,0c0-.09,0-.19.05-.28l.06-.4v-.09a4,4,0,0,1,0-.88c.05-.27.09-.55.13-.84a.74.74,0,0,0,0-.15,6.52,6.52,0,0,1,0-.77,4.7,4.7,0,0,1,.13-.63c0-.08,0-.16.05-.24a4.13,4.13,0,0,1,.14-.7l0-.1v0a3.39,3.39,0,0,1-.06-1,3,3,0,0,1,.33-1.12c0-.05,0-.1,0-.16v-.08c0-.1,0-.2,0-.3a2.93,2.93,0,0,1-.15-1,5.59,5.59,0,0,1,.09-.7l0-.2c0-.2,0-.39,0-.59v-.28a3.08,3.08,0,0,1-.1-.75c0-.19,0-.28,0-.38s0-.29,0-.57a3,3,0,0,1,.14-1.09,2,2,0,0,1,4,0h0v0h0a1.64,1.64,0,0,0,0,.22,5.65,5.65,0,0,1,.05.71c0,.23,0,.46-.05.68a2,2,0,0,0,0,.25,3.08,3.08,0,0,1,.21,1.05,6.43,6.43,0,0,1,0,.77,1.09,1.09,0,0,0,0,.22c0,.16,0,.29,0,.43s0,.34,0,.51a3.73,3.73,0,0,1-.15,1v.09a5.11,5.11,0,0,1,.1.76,4.37,4.37,0,0,1-.1.95l0,.06c0,.11,0,.22,0,.33s0,.11,0,.17a2.87,2.87,0,0,1,.39,1.17c0,.17,0,.35,0,.52s0,.24,0,.36a3,3,0,0,1-.13,1.21c0,.14,0,.29.07.43l0,.15a2.44,2.44,0,0,0,.06.26,3.17,3.17,0,0,1,.12.44l0,0a3.53,3.53,0,0,1,.38.93,3.14,3.14,0,0,1,0,1.18c.05.19.1.37.16.55a3.61,3.61,0,0,0,.16.42l.09.22a3.63,3.63,0,0,1,.53.82,5.9,5.9,0,0,1,.23.67l0,.08,0,.05a5,5,0,0,1,.46.59,3.41,3.41,0,0,1,.31.71,2.72,2.72,0,0,1,.59.51c.12.14.23.29.34.44a1.83,1.83,0,0,0,.13.16,3.6,3.6,0,0,1,.38.44,2.7,2.7,0,0,1,.83.34,1.66,1.66,0,0,0,.27.13l.4.19a2.71,2.71,0,0,1,.8.62,3.53,3.53,0,0,1,.54.13,3.14,3.14,0,0,1,.73.34,3.44,3.44,0,0,1,.85,0l.42.09.4.08h.12a4.45,4.45,0,0,1,.73,0s.05,0,.11,0a5.44,5.44,0,0,1,.57,0h.18a3.77,3.77,0,0,1,.88.16l.09,0a2,2,0,0,1,.13,4,3.13,3.13,0,0,1-1.06.24h-.18a2.65,2.65,0,0,1-.67-.09,2.69,2.69,0,0,1-.6.24l-.33.08-.46.13a1,1,0,0,0-.21.1l-.51.24a4.56,4.56,0,0,1-.81.23h-.08a3.93,3.93,0,0,1-.64.23l-.09,0-.34.23a3,3,0,0,1-.68.87l-.24.2c-.11.1-.23.19-.34.31l-.26.25q-.15.13-.3.3t-.33.36c-.07.08-.14.15-.2.23a4.75,4.75,0,0,1-.42.49,2.89,2.89,0,0,1-.31,1,3.48,3.48,0,0,1-.63.82l0,.05c-.05.12-.11.23-.16.35a3.18,3.18,0,0,1-.16,1.08,2.74,2.74,0,0,1-.51.87,3.1,3.1,0,0,1-.09.75c0,.11,0,.23-.06.35s-.06.34-.1.51a1.48,1.48,0,0,0,0,.21c0,.22,0,.45-.08.68s-.09.39-.14.59a1.19,1.19,0,0,0-.07.27,3.93,3.93,0,0,1-.27.9l0,0v.14a5.31,5.31,0,0,1,0,.69c0,.17,0,.36-.07.54s0,.23-.06.35a4.92,4.92,0,0,1-.09.64c0,.09,0,.18,0,.27s0,.31,0,.47l0,.44v.09a2.34,2.34,0,0,1,.12.63,4,4,0,0,1-.06.92v1.12l0,.11a4.26,4.26,0,0,1,.09.82,3.19,3.19,0,0,1-.16,1c0,.06,0,.1,0,.14a6.75,6.75,0,0,1,.06.72,2,2,0,0,1-1.94,2Zm-.86-17.55a3.53,3.53,0,0,1,.25.35,3,3,0,0,1,.4-.57,2.8,2.8,0,0,1,.19-.93c.11-.26.22-.52.34-.77l.09-.2a3.06,3.06,0,0,1,.58-.83,3,3,0,0,1,.38-1.09,4.66,4.66,0,0,1,.63-.76l.11-.11a6.78,6.78,0,0,1,.52-.61l.17-.18a6.82,6.82,0,0,1,.59-.61l.18-.18a8.6,8.6,0,0,1,.64-.58h0a3,3,0,0,1,.87-1l.3-.21A3.39,3.39,0,0,1,212,210h0c-.18-.08-.35-.16-.53-.26a2.84,2.84,0,0,1-1.32-.54,3.52,3.52,0,0,1-.75-.84l-.06-.08a5.91,5.91,0,0,1-.53-.63l-.06-.08a3.21,3.21,0,0,1-.93-.84,3.28,3.28,0,0,1-.49-1.06h0a3.9,3.9,0,0,1-.58-.82,4.61,4.61,0,0,1-.32-.84.19.19,0,0,0,0-.07,3.51,3.51,0,0,1-.57-.92,4,4,0,0,1-.11.39,1.17,1.17,0,0,0-.06.2,4,4,0,0,1-.24.77c-.14.33-.29.65-.44.95l-.08.21a5.7,5.7,0,0,1-.34.75,6,6,0,0,1-.45.67l-.15.21a4,4,0,0,1-.7.77l-.09.08-.1.15a5.76,5.76,0,0,1-.51.66,7.82,7.82,0,0,1-.66.63l-.15.13a4.79,4.79,0,0,1-.75.54l-.09.06,0,0a3.69,3.69,0,0,1-.69.68l.08.06.14.12.07,0a3.42,3.42,0,0,1,.95.59,6.37,6.37,0,0,1,.57.59l.18.2.06,0a4.12,4.12,0,0,1,.78.67,3.15,3.15,0,0,1,.6,1.17c.1.15.2.3.29.46l.15.24a6.11,6.11,0,0,1,.36.61,2.7,2.7,0,0,1,1,1,4.4,4.4,0,0,1,.36.93l0,.13A2.94,2.94,0,0,1,206.07,218.68ZM174.33,196.6h0a2,2,0,0,1-2-1.91l0-.13a3.63,3.63,0,0,1-.12-.87,3.58,3.58,0,0,1,.14-.93,3.82,3.82,0,0,1-.14-1,1.49,1.49,0,0,0,0-.21c0-.25,0-.5,0-.74v-.35c0-.21,0-.41,0-.6a1.62,1.62,0,0,1,.05-.4,2.42,2.42,0,0,1-.15-.63,4.84,4.84,0,0,1,0-.76,1,1,0,0,0,0-.17l0-.13c0-.23-.06-.45-.1-.67a4.4,4.4,0,0,1-.06-.73,1,1,0,0,1,0-.17c0-.14-.08-.31-.12-.47l-.09-.34c0-.18-.08-.35-.11-.53a3,3,0,0,0-.07-.32,6,6,0,0,1-.14-.61l0-.08a3.06,3.06,0,0,1-.54-.9,1.49,1.49,0,0,0-.13-.25c-.08-.17-.17-.34-.24-.51s-.14-.3-.21-.45l-.16-.31a3.44,3.44,0,0,1-.28-1.07,2.39,2.39,0,0,0-.13-.28c0-.09-.08-.18-.13-.27l-.11-.18-.19-.32a3.11,3.11,0,0,1-.83-.72,4.45,4.45,0,0,1-.43-.71h0l-.05,0a4.58,4.58,0,0,1-.53-.44,4.38,4.38,0,0,1-.41-.45l-.13-.14c-.05,0-.14-.08-.22-.13l-.38-.22a3.9,3.9,0,0,0-.59-.36l-.43-.24a3.16,3.16,0,0,1-.82,0,4,4,0,0,0-.58,0,3.21,3.21,0,0,1-.75-.09,3,3,0,0,1-.55.06h-.18l-.58,0h-.3a2,2,0,0,1-.14-4,3,3,0,0,1,1.32-.29,2.9,2.9,0,0,1,.78.1h.4a3.13,3.13,0,0,1,.84-.4,5.1,5.1,0,0,1,.68-.13l.15,0a3.23,3.23,0,0,1,.73-.18h0l.37-.22v0a4.87,4.87,0,0,1,.53-.59l.06-.08a4,4,0,0,1,.45-.55c.17-.18.33-.36.49-.55a2.61,2.61,0,0,1,.55-.52,2.83,2.83,0,0,1,.28-.76,6,6,0,0,1,.4-.58,1.47,1.47,0,0,1,.1-.13,3.79,3.79,0,0,1,.42-.66l.05-.08.18-.38c0-.1.1-.2.14-.3s.16-.5.23-.75a1.22,1.22,0,0,0,0-.17,4,4,0,0,1,.12-.77q0-.09,0-.21a4.63,4.63,0,0,1,.1-.65q.07-.31.18-.63a.58.58,0,0,0,.05-.14v0a3.51,3.51,0,0,1,0-.95,3.89,3.89,0,0,1,.18-.71,1.21,1.21,0,0,0,0-.18c0-.13.05-.29.08-.45s0-.27.07-.41l0-.42c0-.16,0-.32,0-.48a6,6,0,0,1,.17-.8,3.49,3.49,0,0,1-.1-1,4.26,4.26,0,0,1,.14-.78.11.11,0,0,1,0-.05,3.68,3.68,0,0,1-.11-1l0-.44c0-.15,0-.31,0-.47a5.35,5.35,0,0,1,.08-.7l0-.23a3.58,3.58,0,0,1,.18-1v0c0-.06,0-.13,0-.19v0a3.7,3.7,0,0,1,0-.75,2,2,0,0,1,2.07-1.85,2,2,0,0,1,1.92,2,.28.28,0,0,0,0,.09,3.56,3.56,0,0,1,0,1c0,.25,0,.39-.06.52s0,.14,0,.29a3.28,3.28,0,0,1-.17.92c0,.17,0,.38-.05.59l0,.09a3.29,3.29,0,0,1,.21,1,3.49,3.49,0,0,1-.17,1.09l0,.22c0,.17,0,.35.05.52s0,.31,0,.46,0,.3.05.44,0,.38.06.56l0,.34c0,.14,0,.28.07.42s.05.31.07.46.05.31.08.45.06.29.08.43.05.3.07.45,0,.28.07.42l.06.13a5.78,5.78,0,0,1,.24.7,3.47,3.47,0,0,1,.06,1.07l.12.33.11.27a3.86,3.86,0,0,1,.44.77c.06.18.12.34.17.51a2.31,2.31,0,0,0,.1.28l.31.59.07.12a3.42,3.42,0,0,1,.33.86l.05.05.24.26a3.05,3.05,0,0,1,.85.63c.17.17.34.34.53.5a3,3,0,0,1,.49.56,2.45,2.45,0,0,1,.7.27l.13.08a4.89,4.89,0,0,0,.51.26,3.34,3.34,0,0,1,.86.57l.07,0a3.59,3.59,0,0,0,.43.14l.79.15h.09a6,6,0,0,1,.73,0l.16,0,.27,0a1.86,1.86,0,0,1,.36,0l.22,0a5.35,5.35,0,0,1,.65-.06h0a2,2,0,0,1,2.1,1.9,2,2,0,0,1-1.91,2.09l-.13,0a5.63,5.63,0,0,1-.92.11h-.12a3.55,3.55,0,0,1-.57.06l-.35,0a2.57,2.57,0,0,0-.36,0l-.47.06h-.05a3.36,3.36,0,0,1-.78.42c-.23.09-.45.17-.67.27a6.31,6.31,0,0,0-.63.34c-.21.12-.39.25-.59.39a3.34,3.34,0,0,1-.76.42l-.14.16-.25.29a5.33,5.33,0,0,1-.42.4l-.14.13s0,0,0,.09a4.51,4.51,0,0,1-.31.57c0,.09-.1.19-.14.28s-.13.27-.2.4c-.15.28-.27.48-.37.7a4.83,4.83,0,0,1-.32.59l-.1.15-.08.3c-.05.15-.09.3-.14.45a2.27,2.27,0,0,0-.06.25c0,.19-.08.38-.13.56a3.4,3.4,0,0,0-.07.34,4.85,4.85,0,0,1-.11.49l0,.24c0,.2,0,.39-.09.59a3.39,3.39,0,0,1-.3.85l0,.07a4.19,4.19,0,0,1-.25.76l0,.06V186a5.82,5.82,0,0,1-.05.6c0,.18,0,.36-.08.54s0,.16-.05.23v.05a3.66,3.66,0,0,1,.06.95l0,.1a6.87,6.87,0,0,1,0,.79,3.74,3.74,0,0,1-.09.52,3.66,3.66,0,0,1-.1.68,3,3,0,0,1,.2,1c0,.34,0,.48,0,.64l0,1.51a4.19,4.19,0,0,1-.11.9.74.74,0,0,0,0,.18A2,2,0,0,1,174.33,196.6Zm-.61-16.7.05.1a2.4,2.4,0,0,1,.11.23A1.87,1.87,0,0,0,174,180c.07-.24.14-.47.22-.69a4.29,4.29,0,0,1,.42-.79,1,1,0,0,0,.08-.14c.14-.29.29-.58.44-.86a3.3,3.3,0,0,0,.16-.29,4.38,4.38,0,0,1,.38-.71l.07-.15a4.27,4.27,0,0,1,.47-.8,5.13,5.13,0,0,1,.63-.66l.14-.12.16-.19a6,6,0,0,1,.6-.63,3.54,3.54,0,0,1,1-.6l.06,0,.1-.08a2.5,2.5,0,0,1-.71-.36,2.88,2.88,0,0,1-.9-1.07c-.18-.16-.35-.32-.52-.5a3.36,3.36,0,0,1-1.05-.83l-.12-.13a5.06,5.06,0,0,1-.61-.73,3.61,3.61,0,0,1-.44-1.06l0-.09c-.15-.27-.3-.55-.44-.84a4.78,4.78,0,0,1-.19-.48c-.05.09-.09.18-.14.28a2.56,2.56,0,0,1-.11.24,3.77,3.77,0,0,1-.53.89l-.07.1a3.87,3.87,0,0,1-.43.67,2.89,2.89,0,0,1-.43,1.23,3,3,0,0,1-1,.92c-.19.23-.39.44-.59.65a.45.45,0,0,0-.06.09,3.94,3.94,0,0,1-.62.72l-.05.06a3.34,3.34,0,0,1-.57.62l.12.1a4.77,4.77,0,0,1,.64.64l.14.16.11.08a3.66,3.66,0,0,1,1.25,1.42,2.93,2.93,0,0,1,.88.83c.16.23.31.48.46.73l.1.17a6.19,6.19,0,0,1,.35.68,1.42,1.42,0,0,0,.12.25A3.12,3.12,0,0,1,173.72,179.9Z" style="fill: #12110c"/>
    </g>
    <g>
      <g>
        <path d="M295.26,159.6c-.09-2.85-.2-5.69-.23-8.54v-8.33a53.2,53.2,0,0,0-.7-7.45,3,3,0,0,0,.2-1.05c0-.7,0-1.4,0-2.09a21.05,21.05,0,0,0-1.08-7.33,2.93,2.93,0,0,0-.07-.41c0-.13-.06-.26-.1-.39.71-3.21-.41-7-2-9.88-.36-2.69-.2-5.4-.49-8.07-.78-7.07-4.91-3.11-7,0-2.55,3.73-4.35,7.74-6.64,11.53s-4.69,8-6.71,12.18c-4.25,8.71-8.56,17.32-12,26.41a13.4,13.4,0,0,0-1.57,1.71,28.51,28.51,0,0,0-2.58,6.19c-1.44,4.44-2.73,8.94-4.12,13.39-2.42,7.76-4.31,15.69-6.64,23.47a238.24,238.24,0,0,0-6.44,25.18,3.17,3.17,0,0,0-1.31,2.11c-2,11.24-5.5,22.13-7.39,33.42-.26,1.58-.49,3.16-.74,4.75a1.41,1.41,0,0,0-.06-.22,11.51,11.51,0,0,0-.64-1.55c-.26-.49-.79-.81-1.12-1.25a10.52,10.52,0,0,0-.93-1.39,9.36,9.36,0,0,0-1.35-1,8.1,8.1,0,0,0-1.57-.55,7.43,7.43,0,0,0-1.57-.43,10.31,10.31,0,0,0-3.33-.15,11.79,11.79,0,0,0-1.61.47,11.05,11.05,0,0,0-1.61.48,12,12,0,0,0-1.36,1,14.28,14.28,0,0,0-1.47.84,13.4,13.4,0,0,0-1.24,1.15c-.38.41-.59,1-.93,1.42s-.89.76-1.18,1.25a16,16,0,0,0-.6,1.6c-.23.51-.43,1-.62,1.57s-.44,1-.58,1.59-.25,1.09-.34,1.65-.22,1.11-.26,1.68,0,1.13,0,1.7a15.57,15.57,0,0,0,0,1.67,12.59,12.59,0,0,0,.37,1.64,13.36,13.36,0,0,0,.49,1.59,13.88,13.88,0,0,0,.76,1.49,11.79,11.79,0,0,0,.88,1.4,12.07,12.07,0,0,0,1,1.34,11.09,11.09,0,0,0,1.16,1.21,10.58,10.58,0,0,0,1.38.95,10,10,0,0,0,1.57.61,9.06,9.06,0,0,0,3.28.46,9.55,9.55,0,0,0,1.69,0,8.84,8.84,0,0,0,1.57-.62,9.66,9.66,0,0,0,1.58-.59,11.47,11.47,0,0,0,1.35-1,13.18,13.18,0,0,0,1.13-1.23,12,12,0,0,0,1.18-1.18l.56-.69c-.59,4.18-1.19,8.36-1.87,12.53a1.44,1.44,0,0,0-.53.88l-.24,1.38a9.3,9.3,0,0,0-.15,1c-.05.33-.1.67-.15,1s-.08.46-.11.7l0,.29c-.05.34-.09.66-.15,1s-.1.58-.14.87l-.19,1.11c-.06.31-.1.63-.15,1s-.09.64-.14.95-.09.47-.14.7l-.05.26c-.08.33-.15.65-.2.95s-.15.69-.23,1-.14.62-.2.95-.12.64-.21,1-.12.62-.16.87a5,5,0,0,0-.09.87v.13a8.85,8.85,0,0,1-.1,1c-.06.35-.16.68-.27,1.09l-.06.22a6.19,6.19,0,0,0-.15.65c0,.31-.08.62-.1.89l0,.24c0,.26-.05.52-.11.84s-.07.61-.11.91-.07.68-.12,1a6.42,6.42,0,0,1-.29,1l0,.07a4.5,4.5,0,0,0-.27.85c0,.24,0,.48-.07.72v.22a9.1,9.1,0,0,1-.11,1.06c0,.31-.07.61-.11,1s-.07.64-.13,1-.09.54-.14.81l-.18,1.11c-.06.33-.09.66-.12,1s-.08.65-.13,1v0c0,.09,0,.2,0,.28a2,2,0,0,1,0,.23l-.05.26a6.19,6.19,0,0,0-.17,1.51,8.56,8.56,0,0,0,.21,1.83,10.08,10.08,0,0,0,.68,1.72,11.53,11.53,0,0,0,1,1.66,12.93,12.93,0,0,0,1,1.32l.15.18a12.24,12.24,0,0,0,1,1l.39.36a15.86,15.86,0,0,0,1.43,1.29c.54.45,1,.83,1.55,1.19s1.06.69,1.63,1a7.08,7.08,0,0,1,.71.51l.06.05a4.4,4.4,0,0,0,.82.57,7.55,7.55,0,0,0,1,.44l.82.36c.18.08.38.15.58.22l.21.08a1.49,1.49,0,0,0,1.24-.09,1.47,1.47,0,0,0,.75-1l.06-.25a5.31,5.31,0,0,0,.08-.59l0-.21a6.19,6.19,0,0,1,.11-.93,5.73,5.73,0,0,1,.36-.95,4.85,4.85,0,0,0,.26-.69c0-.18.09-.37.14-.55l.08-.29c.07-.26.14-.51.2-.79s.13-.53.18-.77l.06-.28c0-.19.08-.38.13-.56l0-.1a3.39,3.39,0,0,0,.05-.44l0-.26a5.79,5.79,0,0,1,.13-1,4.85,4.85,0,0,1,.3-.81l.05-.14a3.42,3.42,0,0,0,.24-.65,1.55,1.55,0,0,0,0-.21c0-.11,0-.26,0-.49a3.75,3.75,0,0,1,.1-1,2.86,2.86,0,0,1,.61-1h0a1.75,1.75,0,0,0,.36-1.05,5,5,0,0,1,.12-1.25c0-.12.05-.26.08-.4l0-.32c.05-.31.1-.63.19-1a5.86,5.86,0,0,1,.33-.9,6.52,6.52,0,0,0,.31-.77,4.53,4.53,0,0,1,.38-.93,4,4,0,0,0,.32-.72,4.14,4.14,0,0,0,.11-.79,4.37,4.37,0,0,1,.17-1,.74.74,0,0,0,0-.14,5.59,5.59,0,0,0,.09-.6,4.58,4.58,0,0,1,.24-1.07,5.46,5.46,0,0,1,.5-1,5.5,5.5,0,0,0,.3-.59,7.59,7.59,0,0,1,.66-1.1l.08-.11c.08-.12.16-.23.25-.39a5.66,5.66,0,0,1,1.33-1.52,4.24,4.24,0,0,1,1.86-1,7.11,7.11,0,0,1,1.5-.16l.49,0a.71.71,0,0,1,.32.09,1.34,1.34,0,0,0,.48.19,3.1,3.1,0,0,1,1,.36,5.06,5.06,0,0,1,1.3,1.18,3.46,3.46,0,0,1,.56,1.14l0,.09a2,2,0,0,0,.11.29,7.2,7.2,0,0,1,.46,1.58,14.28,14.28,0,0,1,.12,1.68c0,.14,0,.28,0,.42v.2a6.5,6.5,0,0,1,.05,1.1l0,.29c0,.44-.07.89-.13,1.38,0,.23,0,.45-.05.68s0,.62-.1.94a8,8,0,0,1-.27,1,4.06,4.06,0,0,0-.16.63,3.5,3.5,0,0,0,0,.66,5.54,5.54,0,0,1-.06,1c0,.16-.07.32-.1.48l-.11.52c0,.19-.09.39-.12.6s-.06.37-.08.55l-.06.5c0,.19,0,.37-.07.57a5.77,5.77,0,0,1-.27.9,2.62,2.62,0,0,0-.24.74c0,.28-.1.57-.16.88l-.14.78a1.39,1.39,0,0,0,0,.73,3.47,3.47,0,0,1,0,1,3.26,3.26,0,0,1-.42,1l-.1.19a1.42,1.42,0,0,0-.19.52c0,.16,0,.33,0,.5l0,.41c0,.22-.05.44-.09.65,0,0,0,.08,0,.12a2.94,2.94,0,0,0,0,.6,4.21,4.21,0,0,1,0,1,3.18,3.18,0,0,1-.4,1c-.07.13-.14.25-.2.38a1.38,1.38,0,0,0-.08.29,6.87,6.87,0,0,0-.1.74c0,.3-.08.6-.13.89a1.69,1.69,0,0,0,0,.55l0,.19a3.62,3.62,0,0,1,0,.5,1.5,1.5,0,0,0,1.46,1.5h1.2c.28,0,.62-.08.95-.15l.27-.05.64-.11a6.23,6.23,0,0,1,1.06,0h.13a3.79,3.79,0,0,0,.8,0c.42-.08.84-.19,1.19-.28l.71-.17c.43-.11.85-.26,1.2-.38l.39-.13.22-.07A6.24,6.24,0,0,0,257,347l.19-.09a6.39,6.39,0,0,1,.7-.34c.29-.12.58-.21.87-.3l.12,0a5.52,5.52,0,0,0,.84-.32,11.89,11.89,0,0,0,1.18-.76l.41-.29a13.22,13.22,0,0,0,1.47-1.17,10,10,0,0,0,1.16-1.39l.35-.46a5,5,0,0,0,.73-1.08,8.29,8.29,0,0,0,.49-1.75.65.65,0,0,1,.11-.26,1.48,1.48,0,0,0,.28-.56,5,5,0,0,1,.37-.92l-1.32-.71,1.38.58a2.64,2.64,0,0,0,.28-.68l.26-1.12c.05-.25.11-.51.14-.69a3.59,3.59,0,0,0,.12-.94,6.58,6.58,0,0,1,.11-1.07c.08-.3.15-.62.22-.93s.13-.64.2-1a4,4,0,0,1,.52-1.08l.07-.1a3.11,3.11,0,0,0,.22-.4,1.76,1.76,0,0,0,.1-.3c.05-.21.1-.52.15-.81s.12-.68.18-1a3.22,3.22,0,0,0,.08-.86,4.55,4.55,0,0,1,.11-1.13c.07-.31.15-.61.23-.91s.17-.63.24-.93.17-.65.25-.95.17-.61.24-.91a5.34,5.34,0,0,0,.13-.8v-.11c.05-.35.1-.7.18-1a3.83,3.83,0,0,1,.45-1,3.15,3.15,0,0,0,.31-.57,1.61,1.61,0,0,0,.1-.36c0-.09,0-.36.05-.72a6.1,6.1,0,0,1,.1-1,8.69,8.69,0,0,1,.35-1,5.92,5.92,0,0,0,.31-.85l.21-1c.06-.29.12-.59.2-.93s.17-.64.27-1,.18-.58.25-.86.09-.47.12-.72l0-.22a9.59,9.59,0,0,1,.16-1,5.5,5.5,0,0,0,.12-.87c0-.25.07-.54.12-.85a1.37,1.37,0,0,0-.08-.78c.1-.3.19-.61.27-.91.84-2.54,1.8-5,2.44-7.64.2-.76.36-1.54.51-2.31.78-2.82,1.16-5.69,1.72-8.56,0-.12,0-.24,0-.35.17-.57.33-1.14.48-1.72a3.47,3.47,0,0,0,.32-.76,87.75,87.75,0,0,0,1.93-9.08c.21-.93.43-1.86.67-2.78a165.85,165.85,0,0,0,4.66-26A48.87,48.87,0,0,0,288,235.09a208.31,208.31,0,0,0,5.07-26.49A133.14,133.14,0,0,0,294.73,194c.12-3.71-.25-7.37-.19-11a2.57,2.57,0,0,0,.47-1.35c.28-5.24,0-10.47,0-15.71a3.25,3.25,0,0,0,.39-1.48C295.39,162.77,295.39,161.2,295.26,159.6Z" style="fill: #c6c5c6"/>
        <path d="M245.3,315.22a6.85,6.85,0,0,0-1.83.12,3.65,3.65,0,0,0-1.54.9,5,5,0,0,0-1.19,1.35,14.44,14.44,0,0,0-.94,1.51c-.23.52-.59,1-.8,1.6s-.17,1.19-.35,1.76-.12,1.2-.28,1.77-.55,1.09-.7,1.65-.5,1.12-.64,1.67-.19,1.22-.33,1.75,0,1.32-.15,1.79-.77.93-.93,1.5,0,1.15-.15,1.72-.44,1-.58,1.6-.08,1.14-.22,1.7-.24,1.09-.38,1.65-.29,1.09-.43,1.64-.47,1.05-.6,1.6-.08,1.14-.21,1.7-.25,1.1-.38,1.66-.37,1.07-.5,1.62-.41,1.07-.53,1.62.19,1.2.06,1.75-.48,1-.6,1.61-.35,1.08-.48,1.64-.18,1.12-.3,1.67-.12,1.14-.24,1.7-.37,1.08-.49,1.63.09,1.18,0,1.74-.47,1.06-.59,1.61-.35,1.09-.47,1.63-.29,1.1-.41,1.66-.1,1.14-.21,1.7,0,1.16-.1,1.72-.43,1.08-.53,1.64-.23,1.12-.32,1.68,0,1.17,0,1.73-.43,1.09-.52,1.65-.26,1.12-.35,1.67.24,1.2.16,1.75-.22,1.13-.29,1.69-.33,1.11-.39,1.67-.29,1.12-.35,1.68-.15,1.14-.2,1.7,0,1.16-.09,1.71.21,1.17.17,1.72-.33,1.15-.35,1.69.17,1.17.17,1.71-.31,1.19-.28,1.71a8.62,8.62,0,0,0,.49,1.69,6,6,0,0,0,.5,1.66,3.59,3.59,0,0,0,1.24,1.19,2.77,2.77,0,0,0,1.6.31,3.66,3.66,0,0,0,1.71-.1,5,5,0,0,0,1.32-1.13,6,6,0,0,0,1.12-1.36c.19-.42.08-1.09.32-1.71s.71-.88.92-1.46.11-1.12.3-1.69.52-1,.7-1.55.34-1.06.51-1.62,0-1.15.21-1.7.71-1,.88-1.51.25-1.1.41-1.65.37-1.07.53-1.61.27-1.1.42-1.65.27-1.1.42-1.65.29-1.1.43-1.64.13-1.14.27-1.68.17-1.12.31-1.67.3-1.09.44-1.64.46-1.05.59-1.6.24-1.1.36-1.65.15-1.13.27-1.68.4-1.06.52-1.62.21-1.11.33-1.66.35-1.08.47-1.63-.11-1.17,0-1.73.43-1.06.54-1.61.41-1.07.52-1.62.14-1.13.25-1.68.28-1.1.39-1.65-.13-1.18,0-1.73.51-1.06.61-1.62-.09-1.16,0-1.72.6-1,.7-1.6-.12-1.17,0-1.73.13-1.13.23-1.69.58-1,.68-1.61-.08-1.15,0-1.71.11-1.13.21-1.69.58-1.05.68-1.62-.17-1.17-.08-1.73.2-1.12.3-1.68.41-1.08.5-1.65.13-1.08.22-1.62.24-1.07.33-1.6,0-1.11.08-1.64.34-1.06.42-1.59.1-1.1.17-1.62.09-1.11.13-1.63-.08-1.11-.09-1.63a11.54,11.54,0,0,0-.1-1.6,6,6,0,0,0-.42-1.41,5,5,0,0,0-.6-1.37,4.3,4.3,0,0,0-1.12-1,4.66,4.66,0,0,0-1.43-.42" style="fill: #c6c5c6"/>
        <path d="M293.58,355.75a7.64,7.64,0,0,1-.07-1.12,7.73,7.73,0,0,1,.1-1.11,7.34,7.34,0,0,0,.09-.94,1.37,1.37,0,0,0,0-.19,4.88,4.88,0,0,0-.15-.66l0-.13a4.37,4.37,0,0,1-.19-1.07c0-.3,0-.6-.06-.9l0-.43c0-.25,0-.5,0-.77a5.16,5.16,0,0,1,.09-1v-.11a4.35,4.35,0,0,0,.11-.86s0-.07,0-.1a5.22,5.22,0,0,0-.16-.9,6.3,6.3,0,0,1-.21-1.13l0-1c0-.37,0-.76,0-1.12s0-.51,0-.77v-.26c0-.35,0-.71,0-1.06s0-.51-.07-.86l-.11-1.21a5.71,5.71,0,0,1,0-1v-.14a7,7,0,0,0,0-.94,9.88,9.88,0,0,0-.2-1.07c-.07-.31-.14-.63-.18-.93a5.22,5.22,0,0,0-.18-.83l-.07-.26c-.09-.31-.18-.61-.24-.91l-.05-.26c-.1-.59-.22-1.17-.37-1.8a6.45,6.45,0,0,1-.17-1l0-.14A4.31,4.31,0,0,0,291,328c-.13-.44-.29-.88-.45-1.32l-.23-.61c-.23-.64-.47-1.27-.76-1.93-.11-.25-.28-.53-.45-.83l-.08-.13c-.16-.27-.31-.52-.45-.8-.29-.57-.61-1.14-.95-1.71s-.48-.75-.7-1.08l-.47-.67-.38-.63-.1-.18a7.23,7.23,0,0,0-.56-.92,6.45,6.45,0,0,0-.63-.66l-.11-.1c-.25-.23-.49-.47-.69-.69l-.37-.43c-.33-.38-.65-.75-1-1.08s-.62-.57-.94-.85l-.59-.51a8.44,8.44,0,0,1-.71-.74,6.42,6.42,0,0,0-.73-.74c-.48-.37-1-.8-1.64-1.19l-.16-.1a4.86,4.86,0,0,0-.67-.24c-.23-.08-.52-.19-.81-.32a1.47,1.47,0,0,0-1.28,0,1.45,1.45,0,0,0-.8,1c-.08.31-.16.61-.24.89a8.13,8.13,0,0,0-.25.88l-.41,1.89a7.58,7.58,0,0,1-.38,1.08l-.05.12a5.49,5.49,0,0,0-.22.64,3.63,3.63,0,0,0-.08.73v.18a6.75,6.75,0,0,1-.12,1.06,4.28,4.28,0,0,1-.49,1.09l-.09.15a2.53,2.53,0,0,0-.21.44.66.66,0,0,0-.06.2,8,8,0,0,0-.12.82,9.26,9.26,0,0,1-.18,1c-.07.32-.15.64-.25,1s-.15.58-.23.91-.17.65-.25.95-.16.61-.24,1a4.59,4.59,0,0,0-.06.82,5.18,5.18,0,0,1-.12,1.13c0,.2-.08.41-.11.61l-.05.28c-.06.34-.12.69-.19,1a3.6,3.6,0,0,1-.52,1.08l-.07.12a2.6,2.6,0,0,0-.23.4,2.13,2.13,0,0,0-.11.33c0,.18-.09.45-.16.78s-.14.65-.21,1a4.12,4.12,0,0,0-.09.91,5.68,5.68,0,0,1-.13,1.05c-.07.29-.13.59-.21.94s-.12.61-.21,1a4.65,4.65,0,0,1-.45,1.09l-.06.12a2.45,2.45,0,0,0-.24.58c-.08.31-.15.64-.19.88l-.1.49c0,.18-.08.36-.12.51a.66.66,0,0,1-.17.32,1.8,1.8,0,0,0-.29.39.09.09,0,0,1,0,.06.76.76,0,0,1-.07.13,1.56,1.56,0,0,0-.08,1.14.5.5,0,0,1,0,.16l.09.83.09,1,0,.22a6.1,6.1,0,0,0,.17.89c.07.36.14.72.19,1.09s.06.61.1,1l.11,1c0,.33.1.66.16.93l0,.13c.05.32.1.62.14.95s.11.61.18.93a8.69,8.69,0,0,1,.2,1c.05.33.07.66.1,1s.07.65.11,1a6.31,6.31,0,0,1,0,1.06v.06a3.74,3.74,0,0,0,0,1,3.52,3.52,0,0,0,.29.86,5,5,0,0,1,.33,1.07,8.05,8.05,0,0,1,.08,1.11V360a7.39,7.39,0,0,0,.06.74,5.72,5.72,0,0,0,.25.86l.05.15a5.94,5.94,0,0,1,.26.95c0,.23.07.46.1.69l0,.25c0,.35.09.69.15,1,.13.67.27,1.32.41,2,.05.21.08.42.12.63l0,.26c.06.36.12.71.2,1.05a9.3,9.3,0,0,0,.31.95,8.78,8.78,0,0,1,.32.95,9.75,9.75,0,0,1,.19,1l0,.13a5.29,5.29,0,0,0,.17.81,8.21,8.21,0,0,1,.18,1l0,.1a5.31,5.31,0,0,0,.2.95l.2.73c.11.39.23.82.37,1.26s.22.61.34.92l.39,1a7,7,0,0,0,.46.9,8.3,8.3,0,0,1,.47.88c.12.27.27.55.44.85l.15.26c.13.23.26.44.38.66l.25.48c.2.39.43.84.7,1.26a15.53,15.53,0,0,0,1.19,1.56l.51.6a3.75,3.75,0,0,0,.91.91,2.93,2.93,0,0,0,.86.33,6.68,6.68,0,0,1,.75.24l.41.17a3.89,3.89,0,0,0,1.34.43l.32,0a8,8,0,0,0,1.26-.14l.24,0c.23,0,.44-.06.74-.09l.16,0a3.08,3.08,0,0,0,.86-.18l.11-.05a4.83,4.83,0,0,0,1.1-.89l.33-.32a9.42,9.42,0,0,0,1.26-1.44,7.41,7.41,0,0,1,.58-.7,4.92,4.92,0,0,0,.69-.91c.18-.39.35-.86.48-1.24l.15-.4.09-.24a4.35,4.35,0,0,0,.2-1l0-.13a7.3,7.3,0,0,1,.19-.93c.08-.31.19-.6.3-.9a8.55,8.55,0,0,0,.36-1c.06-.29.13-.56.2-.81.11-.4.21-.8.28-1.16a5.12,5.12,0,0,0,.08-.87v-.21a6.05,6.05,0,0,1,.06-1c0-.34.09-.68.13-1l.23-1.86c.06-.43.12-.85.16-1.25s.07-.79.09-1.12l.08-1a7.62,7.62,0,0,1,.24-1.21l0-.15A5.93,5.93,0,0,0,293,365c0-.35,0-.71,0-1v-.29c0-.25,0-.51,0-.75s0-.73,0-1.1,0-.66,0-1,0-.73.05-1.14l0-.92a4.45,4.45,0,0,1,.29-1.22c.08-.24.17-.58.19-.69a.53.53,0,0,0,0-.13,4.41,4.41,0,0,0,0-.76Z" style="fill: #c6c5c6"/>
        <path d="M219.15,298.6l-.32,0c-.25,0-.51.05-.84.1-.17,0-.43.12-.71.21l-.11,0a7.9,7.9,0,0,1-.88.26l-.3.07c-.49.11-1,.22-1.43.36a4.1,4.1,0,0,1-1,.12h-.13a2.34,2.34,0,0,0-.57.07l-.17.05c-.21.07-.43.17-.67.27l-.32.14-.61.27a12.23,12.23,0,0,0-1.15.55l-.46.22-.68.31a9.18,9.18,0,0,0-.95.44,1.06,1.06,0,0,0-.2.12l-.53.44a5.54,5.54,0,0,1-.72.58c-.24.15-.46.32-.68.48l-.2.16c-.19.16-.38.3-.62.47s-.42.34-.63.52l-.15.13c-.19.17-.38.34-.57.49a3.06,3.06,0,0,1-1,.49l-.21.06a1.54,1.54,0,0,0-.69.44l-.28.35-.11.14a7.92,7.92,0,0,1-.59.71c-.33.33-.64.67-.94,1l-.64.7c-.28.32-.58.64-.87,1s-.32.44-.48.68l-.07.11c-.16.24-.31.49-.44.67a6,6,0,0,0-.47.69l-.12.2c-.14.23-.27.46-.39.64l-.53.76c-.17.26-.34.52-.48.75a3.84,3.84,0,0,0-.35.81,6.56,6.56,0,0,1-.37.89c-.2.37-.4.73-.59,1.11l-.27.51a3,3,0,0,1-.84.91l-.26.23a1.8,1.8,0,0,0-.29.39l-.61,1.25-.07.15a1.21,1.21,0,0,0-.13.42,1.64,1.64,0,0,0,0,.22.71.71,0,0,0,0,.14,3.27,3.27,0,0,1-.23,1.18l-.16.34-.2.4-.45.91a4.72,4.72,0,0,1-.59.93l-.06.09a2.84,2.84,0,0,0-.31.48,4.36,4.36,0,0,0-.27.86,3.81,3.81,0,0,1-.84,1.85l-.09.12a2.73,2.73,0,0,0-.35.56,6.7,6.7,0,0,0-.28.83c-.11.32-.21.64-.3.9s-.26.58-.4.86l-.06.14a7.22,7.22,0,0,0-.31.69c-.09.25-.17.51-.24.77a.38.38,0,0,0,0,.1c-.08.3-.17.59-.29.92a4.49,4.49,0,0,0-.14.75,3.92,3.92,0,0,1-.21,1,7.81,7.81,0,0,1-.3.75l-.1.24c-.1.23-.2.45-.28.69a3.81,3.81,0,0,1-.54,1c-.09.13-.19.25-.27.39a1.21,1.21,0,0,0-.21.68c0,.06,0,.22,0,.45a4.72,4.72,0,0,1-.16.95c-.09.28-.2.56-.34.89a5.5,5.5,0,0,0-.31.78c-.08.26-.14.52-.2.78l0,.2c-.07.27-.13.54-.21.8a1.84,1.84,0,0,0,0,.41V346a4.56,4.56,0,0,1-.13,1.27c-.07.28-.16.58-.24.83s-.21.65-.31,1a4.1,4.1,0,0,1-.43,1,.47.47,0,0,0,0,.1l-.06.12a2.58,2.58,0,0,0-.23.54,4.71,4.71,0,0,0-.14.91l0,.21a6.87,6.87,0,0,1-.14.88,6,6,0,0,0-.08.85,7.24,7.24,0,0,1-.11,1,4.3,4.3,0,0,1-.36,1,5.47,5.47,0,0,0-.28.65c0,.06,0,.13,0,.19,0,.25-.05.52-.07.79v.27c0,.27,0,.56-.06.83a5,5,0,0,1-.07.54l0,.27a8.5,8.5,0,0,0-.14,1.09c0,.58,0,1.17,0,1.88a17.53,17.53,0,0,0,.14,1.9,10.65,10.65,0,0,0,.39,1.52l.07.24a7.64,7.64,0,0,0,.73,1.63l.08.15.17.34.06.11a3.53,3.53,0,0,0,.63,1,6.16,6.16,0,0,0,1.29,1,1.49,1.49,0,0,0,.51.19l.37,0h.12a3.41,3.41,0,0,1,.82.13,4.8,4.8,0,0,1,.67.23c.17.07.39.15.53.19a1.54,1.54,0,0,0,.43.06,1.47,1.47,0,0,0,.46-.07l.41-.15c.26-.09.52-.19.75-.25a5.11,5.11,0,0,1,.92-.09h.43a1.82,1.82,0,0,0,.91-.42,3,3,0,0,0,.28-.24,5.14,5.14,0,0,1,.7-.54,7.38,7.38,0,0,1,.69-.39c.32-.17.61-.34.8-.46l.09-.08a8,8,0,0,0,.75-.73,6.47,6.47,0,0,1,.52-.53c.22-.2.44-.39.66-.56a7.92,7.92,0,0,0,.72-.64l.61-.61c.25-.24.5-.48.73-.74a8.58,8.58,0,0,0,.59-.85,7.78,7.78,0,0,1,.48-.7c.21-.26.44-.51.68-.76l.07-.08a7.81,7.81,0,0,0,.53-.6,6.47,6.47,0,0,0,.42-.75l.1-.18a7,7,0,0,1,.4-.67,6.19,6.19,0,0,1,.69-.73,4.1,4.1,0,0,0,.6-.66l.09-.16a3,3,0,0,0,.15-.39.76.76,0,0,0,0-.11,3.89,3.89,0,0,1,.46-1,3.2,3.2,0,0,1,.89-.83l.23-.19a1.22,1.22,0,0,0,.3-.34l.16-.26.43-.69.3-.49a2.84,2.84,0,0,0,.34-.76,5.81,5.81,0,0,1,.42-1,7.4,7.4,0,0,0,.41-.78c.14-.3.28-.59.45-.89a3.58,3.58,0,0,1,.82-.87l.17-.14a1.6,1.6,0,0,0,.44-.67c0-.11.1-.32.12-.41a4.27,4.27,0,0,1,.41-1c.13-.24.27-.48.39-.69s.26-.45.39-.68l.16-.28a4.4,4.4,0,0,0,.25-.7,6.31,6.31,0,0,1,.37-1,3.24,3.24,0,0,1,.88-.92,2,2,0,0,0,.27-.23,1.56,1.56,0,0,0,.33-.5c.05-.12.09-.26.14-.41l-1.44-.44,1.47.32a5.75,5.75,0,0,1,.35-.93l.16-.29c.09-.17.18-.34.31-.55s.19-.37.29-.54l.14-.27a8.09,8.09,0,0,1,.5-.79l.1-.15a4.22,4.22,0,0,0,.39-.61,1.17,1.17,0,0,0,.17-.63l0-.11a3.51,3.51,0,0,1,.3-1.1,5.09,5.09,0,0,1,.54-.8l.1-.14a4.69,4.69,0,0,0,.4-.57.68.68,0,0,1,.17-.21,1.48,1.48,0,0,0,.53-1.34c-.05-.44-.08-.87-.1-1.26a8.09,8.09,0,0,1,.22-1.9l0-.21a1.45,1.45,0,0,0,0-.3c0-.05,0-.11,0-.12.06-.31.09-.63.13-1s.08-.68.14-1.05.09-.55.14-.83l0-.12c.06-.31.11-.63.17-1s.07-.59.11-.89.07-.7.13-1.05,0-.47.07-.71l0-.39a8.6,8.6,0,0,1,.08-.86,5.32,5.32,0,0,1,.32-1.06,4.26,4.26,0,0,0,.25-.84c0-.24.07-.49.1-.75l0-.19c0-.34.07-.67.14-1.07,0-.2,0-.41.07-.62l0-.29c0-.34.06-.7.11-1a9.24,9.24,0,0,1,.28-1.09c.08-.29.15-.57.2-.85a8.72,8.72,0,0,0,.08-.93,7.43,7.43,0,0,1,.09-1c.06-.33.13-.65.21-1l0-.16c.05-.26.1-.51.14-.76s.15-.69.24-1.06l.05-.24c0-.21.1-.42.15-.66s.11-.59.18-.89l.08-.4c.05-.21.1-.43.14-.65s.09-.62.13-.93.1-.7.16-1l.16-.95c0-.34.11-.66.17-1s.1-.63.14-.93l.09-.59a1.48,1.48,0,0,0-.41-1.26A1.45,1.45,0,0,0,219.15,298.6Z" style="fill: #c6c5c6"/>
      </g>
      <path d="M237,273.85c.27-.12.46-.39.73-.48a8.17,8.17,0,0,1,.84-.14,6,6,0,0,1,.85,0c.29,0,.56-.23.84-.22s.54.24.82.28a7.55,7.55,0,0,1,.83.13,7.31,7.31,0,0,1,.78.29,5.22,5.22,0,0,1,.75.37,6.41,6.41,0,0,1,.7.45,6.66,6.66,0,0,1,.66.53c.19.2.32.45.5.67s.45.37.6.61a7.59,7.59,0,0,1,.33.78c.12.26.38.48.47.77a7.42,7.42,0,0,1,.18.87,6.21,6.21,0,0,1,.15.88,6.87,6.87,0,0,1-.12.88,38,38,0,0,0-.14,1.77c-.08.28-.41.48-.52.75s-.07.62-.22.87a8.67,8.67,0,0,1-1.89,1.81,7.55,7.55,0,0,1-.71.51,8,8,0,0,1-.77.41c-.27.11-.53.22-.79.31s-.54.25-.81.3a8.23,8.23,0,0,1-.86,0,6,6,0,0,1-.85-.06,4.46,4.46,0,0,1-1.66-.3,8.11,8.11,0,0,1-.86-.14c-.25-.12-.43-.39-.68-.53a7.91,7.91,0,0,1-.7-.48,5.51,5.51,0,0,1-.7-.49,5.79,5.79,0,0,1-.57-.64,6.73,6.73,0,0,1-.44-.73,6.73,6.73,0,0,1-.44-.73,4.66,4.66,0,0,1-.23-.81c-.09-.27-.33-.5-.38-.78s-.08-.56-.1-.84.21-.56.23-.84-.13-.58-.08-.86a6.29,6.29,0,0,1,.29-.79c.08-.27.13-.55.23-.81a6.59,6.59,0,0,1,.38-.75,5.54,5.54,0,0,1,.54-.64,4.22,4.22,0,0,1,.57-.71c.19-.19.48-.34.73-.55s.43-.45.68-.62A3.75,3.75,0,0,1,237,273.85Zm49.86-123.47c-.71-1.93-1.37-3.74-3.2-3.38-4.9,1-3.09,15.92-7.71,25.87-3.13,6.74-4.56,12.35-1.42,15s-1.6,9.23-3.93,12.55c-1.93,2.73-4.32,6.62-2,9.37a8.26,8.26,0,0,1,1.81,2.93c.41,3.79.14,4.36-1.77,6.83-2.88,3.72-.05,6.77-1.81,10.78-3,6.89-.6,10.16-.28,12.66.5,3.87-4.47,6-5,8.94-.63,3.78,1,4.46,1.4,7.05s-5.11,10.95-4.61,13.95c.3,1.82,1.45,2.09,1.21,5.57a8.19,8.19,0,0,1-.61,2.2c-.65,1.52-1.34,3-1.9,4.35-.23.55-2.57,5.89-3.15,7.63-.85,2.56-2.69,6.89-.78,11,2.88,6.16-2.46,6.8-4.09,13.41a12.83,12.83,0,0,0,.61,4.41c-.62,5-1.38,9.77-2.42,14.56a38.19,38.19,0,0,0-1.47,7.52c-.19,1.27-.45,4,.46,4.59,1.39,1.92,6.24,1.47,7.46-1.42,3.14-7.43,1.81-14.18,4-20.91,3.09-9.34,7.26-16.42,5.56-25.49-1.24-6.61,2.92-9.49,4.59-16.46.92-3.83-1.08-8.23.69-12.33,2.37-5.5,4.69-15.51,4.39-18.72-.64-6.74,4.25-8,3.62-14.21-1-10,2.26-13.62,4-19.9,2-7.56-2.9-8.76.06-16.14,7-17.5,1.39-15.83,2.34-23,.41-3.15,2.68-4.6,2.76-8.65C285.82,164.67,288.73,155.32,286.89,150.38Z" style="fill: #fff"/>
      <path d="M248.45,280.62a9,9,0,0,1-.11,1v.15a3,3,0,0,1-.09.93,2.4,2.4,0,0,1-.57,1,2.81,2.81,0,0,1-.32,1,3.6,3.6,0,0,1-.55.69,1.07,1.07,0,0,0-.14.16,5.42,5.42,0,0,1-.6.59,1.29,1.29,0,0,0-.17.16,6,6,0,0,1-.68.54l-.32.24a5.08,5.08,0,0,1-.7.48l-.12.07a6,6,0,0,1-.8.41,9.15,9.15,0,0,1-.94.37l-.17.07a3.32,3.32,0,0,1-.81.27,2.78,2.78,0,0,1-.58.05h-.66a4.18,4.18,0,0,1-.61-.05l-.22,0h-.15a6.11,6.11,0,0,1-.86-.09,6.86,6.86,0,0,1-.81-.21l-.18-.06h0a2.88,2.88,0,0,1-1-.21,2.8,2.8,0,0,1-.8-.57l-.09-.08a7.26,7.26,0,0,1-.81-.55l-.14-.09a3.28,3.28,0,0,1-.7-.52,10.21,10.21,0,0,1-.69-.77,4.17,4.17,0,0,1-.42-.67,1.28,1.28,0,0,0-.11-.2l-.12-.18a7.76,7.76,0,0,1-.4-.69,4.06,4.06,0,0,1-.27-.82,1.06,1.06,0,0,0,0-.19l0,0a2.79,2.79,0,0,1-.39-.95,8.77,8.77,0,0,1-.12-1,2.33,2.33,0,0,1,.2-1,2.55,2.55,0,0,1,0-1,3.08,3.08,0,0,1,.27-.8.76.76,0,0,0,.06-.16l.06-.22a4.87,4.87,0,0,1,.23-.74,7,7,0,0,1,.46-.91,3,3,0,0,1,.53-.68l.11-.12.14-.19a3.13,3.13,0,0,1,.6-.71,4.53,4.53,0,0,1,.57-.45,1.77,1.77,0,0,0,.24-.17l.16-.15a4.06,4.06,0,0,1,.63-.56,3.69,3.69,0,0,1,.93-.43l.1,0,.05,0a2.68,2.68,0,0,1,.88-.51,4,4,0,0,1,.78-.15l.22,0a3.09,3.09,0,0,1,1,0h0a2.91,2.91,0,0,1,1-.2,2.51,2.51,0,0,1,1.11.29l0,0,.13,0a4,4,0,0,1,.8.14,6.91,6.91,0,0,1,1,.35,8.68,8.68,0,0,1,.92.45,9.18,9.18,0,0,1,.86.56l.12.09a7,7,0,0,1,.66.56,3.89,3.89,0,0,1,.5.63,1.09,1.09,0,0,0,.13.17l.07.07a2.82,2.82,0,0,1,.62.68,3.82,3.82,0,0,1,.34.74c0,.06.05.13.08.19l0,.07a3,3,0,0,1,.49.89,6.12,6.12,0,0,1,.2.87l.07.37a6.15,6.15,0,0,1,.13.86,3.25,3.25,0,0,1-.08.9A.5.5,0,0,0,248.45,280.62Zm-3.07.57a5.53,5.53,0,0,0,.07-.7,3.52,3.52,0,0,1,.09-.64l0-.15c0-.09,0-.25-.08-.4l-.08-.43c0-.15,0-.3-.09-.44l-.06-.08a3.63,3.63,0,0,1-.35-.55,4.37,4.37,0,0,1-.18-.46.78.78,0,0,1,0-.14l-.06-.05a3.27,3.27,0,0,1-.46-.45l-.26-.37a1.18,1.18,0,0,0-.13-.18,3.72,3.72,0,0,0-.37-.3l-.14-.11a5.71,5.71,0,0,0-1.13-.62,4.49,4.49,0,0,0-.61-.23,1.26,1.26,0,0,0-.28,0l-.36-.05a2.2,2.2,0,0,1-.64-.2,2.69,2.69,0,0,1-.66.15h-.2a3.88,3.88,0,0,1-.48,0h-.09l-.33.05-.16,0a2.84,2.84,0,0,1-.69.44c-.13.06-.26.1-.4.15l-.21.07-.15.16c-.13.13-.26.26-.39.37s-.32.24-.48.35a.94.94,0,0,0-.19.14l-.1.09a3.16,3.16,0,0,1-.35.49,3.22,3.22,0,0,1-.29.33l-.11.12a5.83,5.83,0,0,0-.28.56,2.8,2.8,0,0,0-.09.31l-.09.34s0,0,0,0a4.32,4.32,0,0,1,6.09-1,4.48,4.48,0,0,1-2.05,7.94,1.09,1.09,0,0,0,.24.07,3.57,3.57,0,0,0,.46,0h.2l.38,0,.27,0h.71l.11-.06a3.7,3.7,0,0,1,.52-.2c.22-.07.42-.16.63-.25a4.48,4.48,0,0,0,.49-.26l.14-.08a2.16,2.16,0,0,0,.33-.24l.42-.31a2.18,2.18,0,0,0,.34-.26,3.65,3.65,0,0,1,.3-.27,1.21,1.21,0,0,0,.2-.19l.33-.37.07-.06a2.42,2.42,0,0,1,.63-1.45A4.08,4.08,0,0,1,245.38,281.19ZM290.5,158.35a2,2,0,0,1,0,2.79,2,2,0,0,1-1.42.6,1.92,1.92,0,0,1-1.38-.58,3.54,3.54,0,0,1-.76-1.07l-.06-.13a2,2,0,0,1,3.58-1.78Zm-9.72,73.2a3.74,3.74,0,0,0,1.33.27h.08a2,2,0,0,0,.09-4l-.26-.08a2,2,0,1,0-1.39,3.75Zm-1.39-73.27a2,2,0,0,0-1.44,2.43,2.64,2.64,0,0,0,2.2,2.16,2.3,2.3,0,0,0,.45,0,2,2,0,0,0,1.91-1.55,3.14,3.14,0,0,0-3.12-3.09Zm-6.31,71.35a2,2,0,1,0-2.79,2.86l.11.11a3.52,3.52,0,0,0,1.1.8,2,2,0,0,0,.89.21,2,2,0,0,0,.9-3.79ZM270,157.56a2.88,2.88,0,0,0,.84,3.09,2.18,2.18,0,0,0,2.57.11,1.84,1.84,0,0,0,.59-1.69,2.67,2.67,0,0,0-1.36-2.53A2,2,0,0,0,270,157.56Zm-3.44-4.77a2,2,0,0,0-3.65,1.64,5.35,5.35,0,0,0,.91,1.35,2,2,0,0,0,2.81.15,2,2,0,0,0,.16-2.82A1.78,1.78,0,0,1,266.52,152.79Zm-5.6,75.69a2,2,0,0,0-1.45,2.43,2.69,2.69,0,0,0,2.26,2.21,1.82,1.82,0,0,0,.46.06,2,2,0,0,0,.95-3.76A2,2,0,0,0,260.92,228.48Zm-10.68-2.16a3,3,0,0,0,.89,3.16c1,.8,3.12.14,3.17-1.34s-.41-2.39-1.42-2.84A2,2,0,0,0,250.24,226.32Zm-4-5.17a2,2,0,0,0-3.66,1.63,6.38,6.38,0,0,0,1,1.43,2,2,0,0,0,2.82.15,2,2,0,0,0,.15-2.83A1.89,1.89,0,0,1,246.21,221.15Zm32.73-56.54-.27,0-.39-.1a6.69,6.69,0,0,0-1-.24l-.59-.08c-.26,0-.52-.06-.77-.11s-.58-.08-.86-.11a4.34,4.34,0,0,1-.52-.07,3.77,3.77,0,0,1-.57-.18c-.25-.08-.5-.17-.74-.23a5.4,5.4,0,0,0-.89-.18,3.56,3.56,0,0,1-.47-.1,2.67,2.67,0,0,1-.41-.19,5.78,5.78,0,0,0-.84-.39l-.69-.23a4.9,4.9,0,0,1-.61-.21l-.68-.26a6,6,0,0,1-.59-.23c-.42-.2-.82-.41-1.21-.62-.23-.13-.44-.27-.66-.42l-.47-.31c-.39-.24-.75-.49-1.1-.74a2.68,2.68,0,0,1-.34-.34c-.2-.2-.39-.4-.6-.58l-.37-.31a5.84,5.84,0,0,1-.59-.51l-.22-.22a8.27,8.27,0,0,1-.61-.67,5.15,5.15,0,0,1-.42-.7l-.17-.3c-.08-.15-.17-.3-.26-.44a3.26,3.26,0,0,1-.27-.5,3,3,0,0,1-.06-.54c0-.15,0-.3,0-.44v-.18c.1-.23.19-.46.28-.69s.18-.48.28-.71.22-.53.33-.79.19-.49.28-.7a1.86,1.86,0,0,1,.21-.28,5.55,5.55,0,0,0,.71-1.13l.35-.81c.09-.23.19-.47.3-.71s.23-.51.34-.77.2-.49.31-.73.22-.43.34-.64.29-.54.42-.81a7.85,7.85,0,0,0,.41-1.11,2.72,2.72,0,0,1,.14-.45c.14-.28.26-.57.38-.86s.18-.44.28-.65.26-.54.38-.81.2-.46.29-.65a2.52,2.52,0,0,1,.21-.25,5.42,5.42,0,0,0,.79-1.11c.12-.24.25-.48.38-.71s.27-.49.4-.74a8.7,8.7,0,0,0,.43-1c.07-.18.13-.36.21-.52l.44-.82.34-.63c.13-.24.26-.48.38-.72l.35-.69a2.39,2.39,0,0,1,.22-.23,4.91,4.91,0,0,0,.85-1.11c.16-.29.3-.59.44-.89a6.36,6.36,0,0,1,.28-.59,6.63,6.63,0,0,0,.48-1.2c0-.12.06-.24.09-.32a2.61,2.61,0,0,1,.23-.24,5.89,5.89,0,0,0,.84-1.08,4.67,4.67,0,0,0,.5-1.54c0-.06,0-.11,0-.17l.23-.27a7,7,0,0,0,.69-.94,2.73,2.73,0,0,1,.23-.25,5.2,5.2,0,0,0,.86-1.05,4.53,4.53,0,0,0,.52-1.55l0-.18c.13-.23.26-.46.38-.69s.23-.43.35-.63a1.8,1.8,0,0,1,.26-.29,6,6,0,0,0,.8-1l.85-1.4a8.48,8.48,0,0,0,.51-1c.08-.16.15-.33.24-.48l.47-.8q.16-.31.36-.63a4,4,0,0,1,.32-.4,8.17,8.17,0,0,0,.69-.89l.89-1.38a10.06,10.06,0,0,0,.53-1,3,3,0,0,1,.24-.47,2.5,2.5,0,0,1,.3-.34,6.66,6.66,0,0,0,.77-.93c.05-.07.18-.22.3-.35a5.78,5.78,0,0,0,.76-.91,4.81,4.81,0,0,0,.59-1.39c0-.08,0-.16.07-.23l.86-1.3A3.37,3.37,0,0,1,288,105l.2-.2s0,.08,0,.11a6.28,6.28,0,0,1,.21.69c.07.32.15.64.23,1s.15.58.21.88.09.55.13.83.1.7.16,1.06a8.63,8.63,0,0,0,.34,1.19,6.29,6.29,0,0,1,.2.65c0,.08,0,.32,0,.5a7.25,7.25,0,0,0,.07,1.42,9.1,9.1,0,0,0,.31,1.18,5.29,5.29,0,0,1,.18.67,4.54,4.54,0,0,1,0,.57,7.34,7.34,0,0,0,.07,1.35,6.52,6.52,0,0,0,.37,1.31,3.48,3.48,0,0,1,.17.54,5.52,5.52,0,0,1,.05.71c0,.4,0,.8.1,1.2s.14.73.22,1.1a6.57,6.57,0,0,1,.16.77,5.14,5.14,0,0,1,0,.58,7,7,0,0,0,0,1.34,8.14,8.14,0,0,0,.24,1.16,5.59,5.59,0,0,1,.15.71,10.57,10.57,0,0,0,.26,1.21,4.88,4.88,0,0,1,.15.66c0,.26,0,.52.05.78s0,.75.07,1.12a3.86,3.86,0,0,1,0,.56,7.59,7.59,0,0,0,0,1.36,7.11,7.11,0,0,0,.27,1.28c.06.24.12.46.14.6s0,.36,0,.59a7.14,7.14,0,0,0,0,1.33,5.92,5.92,0,0,0,.34,1.42,4.42,4.42,0,0,1,.13.45,4,4,0,0,1-.06.47,6.45,6.45,0,0,0-.08,1.45l.07.84c0,.35.06.7.08,1.06s.08.75.14,1.12a6.76,6.76,0,0,1,.1.77c0,.36,0,.72.05,1.07l0,.84c0,.28,0,.57,0,.85s0,.7,0,1.05a8.51,8.51,0,0,0,.17,1.27,5.61,5.61,0,0,1,.1.63c0,.26,0,.52,0,.79a10.48,10.48,0,0,0,0,1.12,4,4,0,0,1-.06.61,8,8,0,0,0-.11,1.3,5.89,5.89,0,0,0,.22,1.42,4.12,4.12,0,0,1,.1.52v1.94a11.28,11.28,0,0,0,.07,1.16,6.83,6.83,0,0,1,.06.79c0,.32,0,.65,0,1v.07a2.76,2.76,0,0,1-.17.6,4.77,4.77,0,0,1-.57.8l-.07.08a5.07,5.07,0,0,1-.65.7,3.41,3.41,0,0,1-.33.17,7.29,7.29,0,0,0-.74.37,9.57,9.57,0,0,1-1.07.57c-.24.11-.48.25-.71.38l-.42.23c-.2.06-.41.1-.63.15s-.43.09-.63.15l-.51.13a6.86,6.86,0,0,1-.78.2c-.43.08-.87.14-1.32.2l-.54.07c-.26,0-.53.08-.81.1s-.62,0-.93,0h-.43a2.49,2.49,0,0,1-.46-.05c-.3,0-.6-.07-.9-.08a6,6,0,0,0-1,.08.9.9,0,0,1-.36.05Zm-50.6,212.58c.08-.33.16-.66.21-1a2.92,2.92,0,0,1,.14-.38,5.8,5.8,0,0,0,.37-1.26,5.64,5.64,0,0,0,.05-1.33,1.71,1.71,0,0,1,0-.39c.05-.29.11-.58.16-.87s.11-.53.16-.79a4,4,0,0,1,.14-.4,6.27,6.27,0,0,0,.39-1.22,6.83,6.83,0,0,0,.09-1.28,3,3,0,0,1,0-.43,9.48,9.48,0,0,0,.14-1.07c0-.2,0-.41.07-.61s.12-.49.18-.73.16-.61.23-.91.11-.4.17-.6a9.27,9.27,0,0,0,.29-1c0-.13.1-.24.15-.37a5.53,5.53,0,0,0,.44-1.24,4.87,4.87,0,0,0,.06-1.49c0-.11,0-.21,0-.25s.11-.38.17-.57a9.45,9.45,0,0,0,.32-1.07c.07-.35.11-.7.15-1.06a6.17,6.17,0,0,1,.09-.62c.06-.32.12-.63.17-.95s.08-.49.13-.73a4.83,4.83,0,0,1,.18-.62c.11-.33.21-.67.29-1a1.76,1.76,0,0,1,.15-.35,6.78,6.78,0,0,0,.46-1.25,4.52,4.52,0,0,0,0-1.7l0-.17c0-.13.09-.26.14-.38a6.73,6.73,0,0,0,.36-1.12c.05-.2.12-.39.19-.59a9.37,9.37,0,0,0,.31-1l.38-1.65a8.87,8.87,0,0,0,.16-1.2,2.74,2.74,0,0,1,0-.49,3.6,3.6,0,0,1,.16-.41,5.64,5.64,0,0,0,.44-1.18c.06-.26.13-.53.2-.79s.16-.56.23-.84.13-.58.19-.87.11-.52.18-.77a8.43,8.43,0,0,0,.17-1.24,3.93,3.93,0,0,1,0-.45,3.31,3.31,0,0,1,.2-.52,6.45,6.45,0,0,0,.38-1.06,5.39,5.39,0,0,0,.15-1.45v-.15l.07-.09a4.21,4.21,0,0,0,.85-1.47,5,5,0,0,0,.15-1.41,3,3,0,0,1,0-.46,10.05,10.05,0,0,0,.19-1c0-.24.08-.49.14-.74a5.12,5.12,0,0,1,.19-.48,7.25,7.25,0,0,0,.44-1.17,4.23,4.23,0,0,1,.19-.4,5.71,5.71,0,0,0,.71-2.48,3.2,3.2,0,0,1,.05-.43,8.23,8.23,0,0,0,.25-1.24c0-.15,0-.37.06-.44s.19-.38.32-.62.31-.56.44-.84a4.49,4.49,0,0,1,.37-.6c.17-.24.32-.47.46-.7a2.81,2.81,0,0,1,.71-.78,2.21,2.21,0,0,1,.58-.42,4.07,4.07,0,0,1,.61-.08l.21.06.49.11.32.05a2.23,2.23,0,0,1,.52.48c0,.09.07.2.11.3s.12.37.2.55a4.37,4.37,0,0,1,.28.92,10.16,10.16,0,0,1,.08,1.3c0,.27,0,.54.05.82a3.73,3.73,0,0,1,0,.62l0,.32c0,.39-.06.79-.1,1.2,0,.25-.06.5-.08.76s0,.53-.08.8a2.75,2.75,0,0,1-.13.47,7.74,7.74,0,0,0-.28,1.09,5.52,5.52,0,0,0-.07,1.17,2.7,2.7,0,0,1,0,.45c0,.23-.09.46-.14.69s-.13.61-.18.92a9.66,9.66,0,0,0-.13,1l-.09.67a4,4,0,0,1-.14.4,5.86,5.86,0,0,0-.37,1.25l-.15.84-.15.83a5.15,5.15,0,0,0,0,1.55l0,.16c0,.05-.05.09-.07.14a4.48,4.48,0,0,0-.59,1.49c-.05.33-.09.67-.12,1s0,.46-.08.69a5.06,5.06,0,0,0,0,1.38c0,.09,0,.19,0,.28l-.11.18a4.79,4.79,0,0,0-.57,1.47c-.06.33-.1.65-.13,1s-.06.48-.1.71a5,5,0,0,0,0,1.49c0,.07,0,.15,0,.2s-.06.1-.08.15a4.39,4.39,0,0,0-.61,1.48,5.53,5.53,0,0,0,0,1.45,1.25,1.25,0,0,0,0,.23,2.22,2.22,0,0,1-.14.32,5.55,5.55,0,0,0-.48,1.33,5.15,5.15,0,0,0,0,1.52.62.62,0,0,0,0,.2q-.08.36-.18.72c-.07.31-.15.62-.21.93s-.11.66-.15,1-.06.45-.1.68a3.74,3.74,0,0,1-.16.47,7,7,0,0,0-.36,1.14,2.17,2.17,0,0,1-.16.43,7,7,0,0,0-.38,1.17,4.73,4.73,0,0,0,0,1.53.42.42,0,0,0,0,.19,4.27,4.27,0,0,1-.18.61c-.11.34-.21.67-.29,1s-.12.59-.17.89-.09.51-.15.76a3.68,3.68,0,0,1-.18.53,10,10,0,0,0-.34,1.08c-.08.34-.12.69-.17,1s-.05.42-.09.62-.13.55-.18.82-.12.55-.19.83a3.37,3.37,0,0,1-.17.43,6.37,6.37,0,0,0-.42,1.16c-.06.27-.13.53-.21.79s-.15.56-.22.84-.14.67-.19,1-.07.44-.12.65a6.46,6.46,0,0,0-.18,1.12,4.68,4.68,0,0,1-.08.54c-.14.54-.28,1.08-.43,1.63-.07.26-.14.53-.2.79s-.14.56-.22.84-.15.56-.22.85-.12.52-.2.79-.15.48-.23.71-.2.59-.29.88-.16.63-.23.94l-.15.61-.13.18a4.41,4.41,0,0,0-.77,1.4,6,6,0,0,0-.2,1.42v.27l-.18.56-.33,1a3.94,3.94,0,0,1-.23.5,8.48,8.48,0,0,0-.46,1,6.54,6.54,0,0,0-.26,1.35,1.1,1.1,0,0,0,0,.24,1.85,1.85,0,0,1-.19.27,4.8,4.8,0,0,0-.72,1.2,5.53,5.53,0,0,0-.33,1.55.34.34,0,0,1,0,.1,3.81,3.81,0,0,1-.34.37c-.12.12-.24.24-.34.36-.25.26-.44.45-.57.56l-.18,0-.64,0h-.5a1.84,1.84,0,0,1-.45-.38,6.61,6.61,0,0,1-.19-.73l-.08-.35a8.56,8.56,0,0,0-.28-.86c0-.12-.11-.3-.14-.39l.06-.22a6,6,0,0,0,.22-1.42,6.74,6.74,0,0,0-.12-1.12c0-.19-.06-.41-.06-.47a1.56,1.56,0,0,1,.09-.34,6.23,6.23,0,0,0,.26-1.34,5.86,5.86,0,0,0-.12-1.36c0-.11-.05-.23-.06-.32,0-.28,0-.57,0-.86s0-.54,0-.82.07-.59.1-.89.07-.51.1-.77a3.61,3.61,0,0,1,.12-.55,8.71,8.71,0,0,0,.22-1.11c0-.1.07-.3.13-.49a7.72,7.72,0,0,0,.27-1.16c0-.25.08-.5.12-.75s.12-.6.16-.91a4.6,4.6,0,0,0-.1-1.6c0-.08,0-.15,0-.23S228.3,377.38,228.34,377.19Zm40.91-23.61c0-.36-.06-.72-.11-1.08s-.13-.78-.22-1.17-.12-.54-.16-.81-.11-.73-.17-1.1-.11-.59-.15-.89-.07-.68-.11-1-.06-.66-.1-1-.13-.81-.21-1.21a7.45,7.45,0,0,1-.15-.77c0-.39-.08-.76-.11-1.13l-.09-.87a2.31,2.31,0,0,0-.11-.47l.07-.12,0-.07a2.2,2.2,0,0,0,.57-1c.08-.34.15-.69.23-1s.11-.57.18-.85a4.66,4.66,0,0,1,.2-.43,5.65,5.65,0,0,0,.55-1.38c.09-.34.16-.68.23-1s.12-.58.19-.87a7,7,0,0,0,.17-1.38,3.75,3.75,0,0,1,0-.57c.08-.33.15-.67.22-1s.13-.58.17-.78a3.14,3.14,0,0,1,.18-.31,5,5,0,0,0,.73-1.56c.08-.36.15-.73.21-1.1s.09-.54.15-.81a6.64,6.64,0,0,0,.15-1.44,3.39,3.39,0,0,1,0-.51c.07-.29.14-.58.22-.86s.18-.68.26-1,.14-.56.22-.84.19-.69.27-1a9.38,9.38,0,0,0,.2-1.18c0-.25.06-.5.1-.69a3.79,3.79,0,0,1,.18-.34,5.24,5.24,0,0,0,.66-1.51,7.7,7.7,0,0,0,.16-1.38,4,4,0,0,1,0-.57,4.85,4.85,0,0,1,.21-.58,7.75,7.75,0,0,0,.44-1.27l.21-1c.07-.3.13-.6.2-.9s.14-.52.22-.77.19-.66.27-1a9.92,9.92,0,0,0,1,.38,4,4,0,0,1,.47.16c.57.38,1.11.79,1.57,1.14a5.48,5.48,0,0,1,.5.53,9.75,9.75,0,0,0,.85.88l.48.42c.33.28.66.55,1,.86s.62.67.92,1l.36.42c.25.28.53.55.81.81a5.81,5.81,0,0,1,.56.57,6.2,6.2,0,0,1,.45.74c.18.31.35.62.55.92l.38.55c.24.35.48.69.75,1.14s.62,1.07.9,1.62c.15.3.32.59.5.89s.34.57.45.81c.26.6.49,1.21.71,1.82l.17.45c.17.46.35.93.49,1.4a6,6,0,0,1,.16.82,8.35,8.35,0,0,0,.21,1.11c.13.55.24,1.1.34,1.66l0,.27a10.54,10.54,0,0,0,.28,1.07,7.63,7.63,0,0,1,.2.84c.05.38.13.75.21,1.13s.13.59.17.89a5.85,5.85,0,0,1,0,.73,8.85,8.85,0,0,0,0,1.34c0,.39.07.78.11,1.18s0,.57.07.86,0,.61,0,.91,0,.76,0,1.14,0,.68,0,1,0,.7,0,1a8.69,8.69,0,0,0,.24,1.38,5,5,0,0,1,.13.66,4.66,4.66,0,0,1-.08.59,7.79,7.79,0,0,0-.13,1.47c0,.38,0,.75.08,1.12s.07.62.07.93a6.45,6.45,0,0,0,.27,1.57,4.71,4.71,0,0,1,.12.48,6.5,6.5,0,0,1-.08.77,9.55,9.55,0,0,0-.11,1.28,8.7,8.7,0,0,0,.09,1.31,5.88,5.88,0,0,1,.06.72,4.35,4.35,0,0,1-.13.43,5.71,5.71,0,0,0-.36,1.63l0,.94c0,.37,0,.74,0,1.11s0,.72,0,1.08,0,.64,0,1,0,.76,0,1.14,0,.61,0,.91a5,5,0,0,1-.14.62,9,9,0,0,0-.28,1.44c0,.32-.05.64-.08,1s-.05.72-.09,1.1-.09.78-.15,1.18-.07.56-.11.85l-.09.74c0,.42-.09.85-.16,1.27a8.52,8.52,0,0,0-.08,1.28,5,5,0,0,1-.05.75c-.07.36-.16.72-.26,1.07s-.15.58-.22.88a7.83,7.83,0,0,1-.29.85c-.13.34-.25.67-.35,1a10.59,10.59,0,0,0-.25,1.25,3.59,3.59,0,0,1-.12.66c-.08.21-.15.42-.23.62a11.47,11.47,0,0,1-.44,1.14,4,4,0,0,1-.45.56,10.1,10.1,0,0,0-.69.83,7.19,7.19,0,0,1-1.06,1.22l-.37.36a4.4,4.4,0,0,1-.71.61,4.77,4.77,0,0,1-.65.1c-.26,0-.51,0-.77.09l-.25,0a5.2,5.2,0,0,1-1.19.11,3.27,3.27,0,0,1-.89-.31l-.41-.18c-.31-.12-.63-.22-.95-.31a3.48,3.48,0,0,1-.49-.16,3.62,3.62,0,0,1-.56-.62c-.17-.21-.34-.42-.52-.62a14.24,14.24,0,0,1-1.06-1.39,11.87,11.87,0,0,1-.6-1.09l-.28-.52-.4-.71c-.19-.34-.38-.65-.51-.95a10.33,10.33,0,0,0-.55-1,5.89,5.89,0,0,1-.36-.69l-.26-.66c-.15-.4-.31-.8-.44-1.19s-.25-.82-.36-1.2-.13-.49-.2-.73a5.54,5.54,0,0,1-.17-.85,8.17,8.17,0,0,0-.23-1.16,5.86,5.86,0,0,1-.14-.75c-.06-.39-.12-.78-.22-1.17A9.93,9.93,0,0,0,272,369a7.29,7.29,0,0,1-.25-.75c-.07-.3-.12-.61-.17-.93s-.11-.67-.19-1q-.19-1-.39-1.95c-.06-.31-.1-.62-.14-.93s-.09-.7-.16-1a8.52,8.52,0,0,0-.35-1.27,4.59,4.59,0,0,1-.2-.66,6.68,6.68,0,0,1,0-.71,9,9,0,0,0-.1-1.3,7,7,0,0,0-.44-1.45,3.06,3.06,0,0,1-.18-.48,2.83,2.83,0,0,1,0-.56,7.43,7.43,0,0,0,0-1.48C269.31,354.2,269.28,353.89,269.25,353.58Zm-8.68-48.08c-.3,0-.6.1-.9.17a3.1,3.1,0,0,1-.53.1c-.22,0-.43,0-.65,0h-.8l-.51,0-.95,0a6.07,6.07,0,0,0-1.06.11l-.41.05c-.28,0-.56,0-.84-.05l-.62-.05a2.85,2.85,0,0,1-.44-.09,6.82,6.82,0,0,0-1-.2l-.81,0c-.22,0-.44,0-.66,0a8.1,8.1,0,0,0-.86-.06,6,6,0,0,1-.61-.05,2.92,2.92,0,0,1-.39-.13,6.94,6.94,0,0,0-1-.31l-.72-.12c-.24,0-.49-.07-.73-.12l-.72-.2c-.23-.07-.46-.14-.7-.19l-.2-.06c-.41-.1-.82-.2-1.21-.31l-1.27-.4-.14,0-.63-.19-.77-.25-.54-.18-.84-.31a6.19,6.19,0,0,1-.58-.28c-.24-.13-.48-.25-.73-.36-.45-.2-.89-.4-1.32-.61a6.24,6.24,0,0,0-1-.37,1.79,1.79,0,0,1-.35-.11,2.55,2.55,0,0,1-.43-.3,7.43,7.43,0,0,0-.76-.53c-.28-.16-.58-.3-.87-.43a3.71,3.71,0,0,1-.43-.2l-.28-.28a6.14,6.14,0,0,0-.77-.71,7.94,7.94,0,0,0-.78-.5,4.54,4.54,0,0,1-.42-.27,5.43,5.43,0,0,1-.48-.48c-.17-.18-.33-.36-.5-.52l-.43-.4a5.94,5.94,0,0,1-.57-.55,5.84,5.84,0,0,1-.47-.64l-.32-.45a8,8,0,0,1-.54-.89l-.12-.22-.27-.44a6.32,6.32,0,0,1-.35-.64,5.45,5.45,0,0,1-.23-.89l-.06-.27-.12-.5a3.6,3.6,0,0,1-.11-.53c0-.23.07-.45.09-.67,0,0,0-.07,0-.1l.09-.42a3.11,3.11,0,0,0,0-.43c.06-.34.1-.69.14-1s.07-.56.12-.84.12-.56.19-.84.18-.72.24-1.08a2,2,0,0,0,0-.69c.11-.16.21-.31.31-.44l0-.06.08-.13,0,0,.07-.17c0-.11.09-.22.13-.32s.15-.4.2-.54c.15-.51.2-.79.2-.79l0-.1a1.51,1.51,0,0,0-2.85-1s-.12.25-.31.74l-.13.28-.06.16,0,.08h0a11,11,0,0,1-.79,1l-.05.07-.06.06,0,0-.28.29a7.7,7.7,0,0,1-.59.56l-.16.14,0,0-.08.09-.08.09-.31.35a3.6,3.6,0,0,1-.28.28l-.23.24c-.22.18-.58.47-.79.61l-.33.21h0l-.06,0-.27.11a9.52,9.52,0,0,1-1,.34l-.62.26-.27.11-.17.05-.16.06h-.69l-.58-.05h-1l-.23,0-.22,0h-.09l-.17,0-.67-.15-.45-.14-.69-.24c-.25-.09-.3-.15-.46-.21l-.1,0h0l-.31-.22-.62-.44-.18-.12,0,0L211,285a4.73,4.73,0,0,1-.5-.52l-.21-.25h0v0l0,0-.09-.13a6.74,6.74,0,0,1-.45-.61l-.73-1.17-.21-.34-.1-.17,0,0,0-.05c-.11-.23-.27-.51-.36-.69l-.19-.43-.24-.79-.2-.69-.19-.79-.06-.29,0-.14V277l0-.71v-1.54l.13-.81.07-.41,0-.17v0a0,0,0,0,0,0,0v0l.18-.8.09-.42,0-.21v0l.26-.75.57-1.43.33-.82.28-.79.08-.22,0-.11v-.06h0l.14-.18,0,0,.36-.32c.15-.15.35-.37.51-.56h0l.11-.16,0,0,.06-.09.11-.18.21-.35a4.75,4.75,0,0,0,.27-.42l0,0h0l.15-.14.3-.27.56-.52.12-.08a1,1,0,0,1,.15-.09h0l0,0,.2-.09.19-.1.27-.15.27-.15,0,0,.12-.09,0,0,.08,0,.35-.28c.3-.25.42-.34.49-.39l.26-.08c.52-.21.88-.21,1.39-.41a10.19,10.19,0,0,1,1-.29l.73-.06h.75l.36,0a4,4,0,0,1,.58.09l.13,0H220l.32.07a2.65,2.65,0,0,1,.55.15l.54.18.74.21.21.07h0l0,0,.27.18a2.58,2.58,0,0,1,.44.31l.13.11.07.05,0,0,.15.2h0l0,.06.15.27.23.35.13.19,0,0,0,0,.11.13,0,.06c.12.13.23.26.45.47l.35.33h0l.33.77.16.39,0,.13a8.12,8.12,0,0,1,.18.81q0,.32.09.6c0,.23.09.49.1.67s0,.34,0,.49v.06l0,.21,0,.14c0,.09,0,.17,0,.25.06.23.11.44.16.62a.62.62,0,0,0,0,.16s0-.05,0-.05a2.08,2.08,0,1,0,4.14.36s0-.16,0-.46a3.17,3.17,0,0,0,0-.53c0-.15-.06-.32-.1-.51s0-.15-.07-.24a2.4,2.4,0,0,0,0-.24v-.14c0-.23,0-.48,0-.74s-.06-.46-.1-.72a.5.5,0,0,0,0-.12c0-.19,0-.37,0-.53a3.47,3.47,0,0,1,0-.49,1.69,1.69,0,0,1,.13-.31,5.51,5.51,0,0,0,.44-1.26,8.42,8.42,0,0,0,.14-1q0-.31.09-.63c0-.24.1-.48.16-.72s.13-.57.19-.86a7.6,7.6,0,0,0,.11-1.15,3.57,3.57,0,0,1,0-.47,2.07,2.07,0,0,1,.15-.44,7.76,7.76,0,0,0,.34-1.13,5,5,0,0,1,.16-.51,9.13,9.13,0,0,0,.29-1.05c.06-.29.11-.58.16-.87s.08-.49.13-.73a6.64,6.64,0,0,0,.1-1.25,2.54,2.54,0,0,1,0-.39l.32-1.58a3.61,3.61,0,0,1,.15-.38,5.74,5.74,0,0,0,.38-1.17c.06-.31.11-.62.16-.92s.06-.46.11-.68a5.34,5.34,0,0,0,.06-1.4c0-.11,0-.21,0-.25.05-.23.11-.45.17-.67s.16-.6.23-.91a5.2,5.2,0,0,1,.17-.68c.07-.3.15-.6.2-.85,0-.09.09-.18.14-.27a5.45,5.45,0,0,0,.5-1.31c.05-.27.11-.54.16-.82s.1-.51.16-.77a5.68,5.68,0,0,0,.08-1.37,1.3,1.3,0,0,1,0-.27c.06-.3.11-.6.16-.89s.08-.47.13-.71.11-.59.17-.88.08-.48.12-.66a1.43,1.43,0,0,1,.13-.28,5,5,0,0,0,.51-1.3c.06-.3.12-.6.17-.9s.07-.46.12-.69.12-.59.18-.89.08-.47.13-.7.12-.45.18-.67.17-.6.24-.9a6.79,6.79,0,0,0,.13-1.24,2.36,2.36,0,0,1,0-.38c0-.13,0-.26.07-.39a2.11,2.11,0,0,0,.18.27l.19.25c.21.27.43.54.67.8a3.3,3.3,0,0,0,1.21.79,3.58,3.58,0,0,0,.78,1l.29.27a7.34,7.34,0,0,0,1.45,1.11,3.7,3.7,0,0,1,.33.21l.29.21c.25.18.5.36.76.53a5.73,5.73,0,0,0,.81.44,2,2,0,0,1,.32.17,1.77,1.77,0,0,1,.22.16,5,5,0,0,0,.83.6,3.81,3.81,0,0,0,1.24.39l.11,0,.64.3.25.11,0,0a3.61,3.61,0,0,0,1.13.85,6.87,6.87,0,0,0,.88.29l.33.1.37.17c.26.13.52.26.78.36a6,6,0,0,0,.95.24,2.8,2.8,0,0,1,.28.06l.81.26.35.11a.81.81,0,0,1,.18.1,4.63,4.63,0,0,0,1,.46l.78.2.45.11a3.91,3.91,0,0,0,1.27.08h.11l.78.17.34.07.43.1c.26.07.52.13.79.18s.54.08.81.11l.43,0,.4.09a8.15,8.15,0,0,0,.83.17l.35.08a5.89,5.89,0,0,0,.85.18l.22.06a4.38,4.38,0,0,0,1,.25,3.49,3.49,0,0,0,1.33-.16h.06l.2,0a6.26,6.26,0,0,0,.94.13l.42,0,.84,0a5.48,5.48,0,0,0,1.08-.14h0a3.29,3.29,0,0,0,1.33.31h.1a4.44,4.44,0,0,0,1.08-.2l.18-.05.34,0,.92-.07a4.3,4.3,0,0,0,1.13-.3l0,0h0a3.54,3.54,0,0,0,1.36.07A6.66,6.66,0,0,0,278,240l.37-.1a4.33,4.33,0,0,0,1.06-.39l.15-.08c.37-.09.73-.19,1.09-.3h.07a3.25,3.25,0,0,0,1.41-.14,4.25,4.25,0,0,0,1.12-.64.27.27,0,0,1,.08-.07l.16,0a4.43,4.43,0,0,0,1.07-.34,5.54,5.54,0,0,0,.93-.61l.18-.15L286,237a5.75,5.75,0,0,0,.55-.28c0,.21,0,.41,0,.59a4.49,4.49,0,0,1,0,.55c0,.22-.12.44-.18.67a11.38,11.38,0,0,0-.32,1.2c-.07.36-.1.74-.14,1.12s-.05.53-.1.79a3.73,3.73,0,0,1-.18.54,8.4,8.4,0,0,0-.4,1.32,11.85,11.85,0,0,0-.14,1.19,6,6,0,0,1-.08.73,10.43,10.43,0,0,0-.13,1.25,4.08,4.08,0,0,1-.06.68c-.05.25-.12.5-.19.75s-.21.74-.29,1.12a3.26,3.26,0,0,1-.18.52,6.5,6.5,0,0,0-.43,1.33,7.41,7.41,0,0,0-.12,1.32,4.41,4.41,0,0,1-.05.62,4.06,4.06,0,0,1-.19.55,7.15,7.15,0,0,0-.41,1.3,6,6,0,0,0-.08,1.48,2.4,2.4,0,0,1,0,.47,3.73,3.73,0,0,1-.18.43,6.61,6.61,0,0,0-.5,1.4c-.06.32-.12.64-.19,1s-.11.62-.18.94-.12.76-.17,1.15a6.31,6.31,0,0,1-.1.76c-.06.31-.13.61-.2.91l-.21,1c-.06.28-.13.55-.2.81s-.19.71-.27,1.07a8.26,8.26,0,0,0-.14,1.3,4.58,4.58,0,0,1-.05.63c-.06.25-.14.5-.21.75s-.23.74-.31,1.13a3,3,0,0,1-.2.56,9.25,9.25,0,0,0-.41,1.28,6.07,6.07,0,0,0-.1,1.47,3.6,3.6,0,0,1,0,.49l-.41,1.89a11.38,11.38,0,0,0-.18,1.17,6.42,6.42,0,0,1-.1.75c-.07.33-.13.66-.19,1s-.11.6-.18.9a6.09,6.09,0,0,1-.21.73,10.56,10.56,0,0,0-.49,2.3,6.16,6.16,0,0,1-.11.75,3.28,3.28,0,0,1-.19.47,6.23,6.23,0,0,0-.49,1.36,6.8,6.8,0,0,0-.13,1.4,3.91,3.91,0,0,1,0,.55,6.84,6.84,0,0,1-.21.74c-.12.37-.23.74-.32,1.12a8,8,0,0,1-.21.81c-.1.35-.2.7-.28,1.06s-.13.78-.18,1.17-.06.5-.11.73a3,3,0,0,1-.18.39,5.54,5.54,0,0,0-.57,1.45,9.17,9.17,0,0,0-.17,1.26c0,.26,0,.5-.07.67s0,.24-.07.37a1.94,1.94,0,0,0-.79,1.24,5.48,5.48,0,0,1-.31,1,4.89,4.89,0,0,0-.28.92,2,2,0,0,1-.07.26,6.41,6.41,0,0,1-.74.89,3.16,3.16,0,0,1-.42.32c-.2.14-.41.28-.6.44s-.34.28-.51.43a3.11,3.11,0,0,1-.49.41,2.55,2.55,0,0,1-.41.17c-.28.11-.57.22-.84.35l-.45.24c-.25.13-.5.27-.77.38a7.19,7.19,0,0,1-.78.27l-.54.17-.55.19a6.48,6.48,0,0,1-.78.26,7.55,7.55,0,0,0-.87.31c-.19.07-.37.14-.49.17s-.51.08-.77.12l-.65.09a1.54,1.54,0,0,1-.37,0A6.69,6.69,0,0,0,260.57,305.5Zm-12.66,46.13.75,0a10.48,10.48,0,0,0,1.43-.2c.22,0,.44-.09.66-.11a3,3,0,0,1,.59,0,6.92,6.92,0,0,0,1.54-.06,14.84,14.84,0,0,0,1.5-.34l.58-.14c.56-.14,1.08-.32,1.54-.47l.51-.17a8.72,8.72,0,0,0,1.42-.62c.19-.09.38-.19.56-.26a4.76,4.76,0,0,1,.6-.21,7.8,7.8,0,0,0,1.46-.57,16,16,0,0,0,1.66-1.07l.23-.16.85-.63c0,.15.06.28.07.43s.07.59.09.89.08.76.12,1.14.12.75.18,1.13.11.58.15.88a12.29,12.29,0,0,0,.23,1.21,7.49,7.49,0,0,1,.15.8c0,.29.07.57.09.86s.07.79.12,1.18a3.52,3.52,0,0,1,0,.55,5.49,5.49,0,0,0,.47,3,4.62,4.62,0,0,1,.18.49c0,.23,0,.47,0,.7a9.76,9.76,0,0,0,.1,1.35,9.12,9.12,0,0,0,.37,1.34,3.92,3.92,0,0,1,.19.64c.05.28.09.56.13.85s.11.79.18,1.17c.14.69.27,1.36.41,2,.06.28.1.56.15.83s.13.81.22,1.2a10.25,10.25,0,0,0,.43,1.32,5.53,5.53,0,0,1,.22.65,6.75,6.75,0,0,1,.14.76,11,11,0,0,0,.26,1.3,5.12,5.12,0,0,1,.11.61,10.35,10.35,0,0,0,.3,1.44c.06.21.12.43.19.66.12.45.26.91.41,1.39s.34.93.53,1.41l.23.62a9.67,9.67,0,0,0,.67,1.33c.12.21.24.41.34.62a12.49,12.49,0,0,0,.73,1.38c.11.19.22.38.32.58l.25.46a12.39,12.39,0,0,0,.86,1.52,17.46,17.46,0,0,0,1.43,1.87,4.94,4.94,0,0,1,.36.44,7.78,7.78,0,0,0,1.34,1.38,5.53,5.53,0,0,0,1.95.88c.15.05.31.09.46.15l.34.14a7.2,7.2,0,0,0,2.19.66c.2,0,.41,0,.6,0a10.47,10.47,0,0,0,1.76-.18l.23,0,.5-.06a5.84,5.84,0,0,0,2.19-.53,7.3,7.3,0,0,0,1.82-1.4l.3-.29a12.1,12.1,0,0,0,1.67-1.91,3.57,3.57,0,0,1,.36-.43,7.29,7.29,0,0,0,1.1-1.52,14.41,14.41,0,0,0,.66-1.64c.06-.18.13-.36.2-.54a8,8,0,0,0,.36-1.58,5.19,5.19,0,0,1,.11-.64c.07-.23.16-.46.24-.68a11.43,11.43,0,0,0,.47-1.43c.05-.24.12-.49.18-.73.13-.47.25-.93.34-1.4a9.08,9.08,0,0,0,.12-1.48,5.47,5.47,0,0,1,0-.7c.08-.48.13-1,.18-1.44l.19-1.48c.06-.45.12-.89.17-1.32s.07-.85.1-1.26,0-.57.07-.85a6.16,6.16,0,0,1,.16-.76,8.29,8.29,0,0,0,.26-1.3c0-.42,0-.86,0-1.29s0-.55,0-.83,0-.84,0-1.27c0-.28,0-.57,0-.85,0-.43,0-.85.05-1.27s0-.57,0-.83a2.93,2.93,0,0,1,.14-.43,5.85,5.85,0,0,0,.36-1.7,9.78,9.78,0,0,0-.09-1.4,5.22,5.22,0,0,1-.06-.73,6.37,6.37,0,0,1,.07-.74,9.21,9.21,0,0,0,.12-1.38,6,6,0,0,0-.27-1.63,3,3,0,0,1-.12-.48c0-.43,0-.85-.09-1.27s-.05-.57-.06-.85a3,3,0,0,1,.07-.58,7.06,7.06,0,0,0,.13-1.55,7,7,0,0,0-.24-1.45,4.91,4.91,0,0,1-.12-.65c0-.29,0-.58,0-.87s0-.83-.05-1.24,0-.56,0-.84,0-.86,0-1.28l-.07-.81c0-.44-.07-.87-.12-1.3a5.56,5.56,0,0,1,0-.71,8.76,8.76,0,0,0,0-1.43c-.06-.42-.14-.84-.23-1.26s-.12-.55-.16-.82a11,11,0,0,0-.33-1.44c-.07-.23-.14-.46-.19-.7l-.05-.26c-.12-.63-.24-1.26-.39-1.89-.06-.23-.09-.47-.13-.71a10.44,10.44,0,0,0-.3-1.45c-.17-.56-.38-1.11-.58-1.65L293,325c-.25-.69-.52-1.38-.81-2.05a9.9,9.9,0,0,0-.7-1.31c-.12-.21-.25-.42-.36-.63-.32-.63-.67-1.24-1.07-1.93-.28-.47-.58-.91-.89-1.35l-.33-.49c-.14-.2-.25-.41-.37-.62a9,9,0,0,0-.8-1.27,8.77,8.77,0,0,0-1.05-1.11,5.78,5.78,0,0,1-.5-.49l-.33-.39c-.37-.43-.74-.85-1.14-1.26s-.8-.74-1.21-1.09l-.45-.38c-.16-.15-.29-.31-.44-.48a8.4,8.4,0,0,0-1.12-1.11c-.49-.37-1.13-.86-1.8-1.31A5.81,5.81,0,0,0,278,307c-.17-.06-.41-.14-.48-.18a2.67,2.67,0,0,1-.35-.31,8.66,8.66,0,0,0-.67-.6.69.69,0,0,1,0-.13c.05-.28.1-.56.16-.84s.14-.55.22-.82.2-.71.28-1.06.14-.77.19-1.16.07-.51.12-.77a5.55,5.55,0,0,1,.21-.57,8,8,0,0,0,.43-1.28c.08-.36.14-.73.19-1.11s.08-.54.14-.8a9.51,9.51,0,0,0,.17-1.27,6.47,6.47,0,0,1,.07-.65,3.31,3.31,0,0,1,.19-.39,5.92,5.92,0,0,0,.57-1.45c.08-.38.13-.78.18-1.17s.06-.5.11-.74.14-.54.21-.8.2-.72.28-1.08.14-.5.22-.74.23-.75.31-1.13a7.6,7.6,0,0,0,.13-1.41,3.6,3.6,0,0,1,0-.53,5.12,5.12,0,0,1,.19-.48,5.75,5.75,0,0,0,.49-1.36,9.33,9.33,0,0,0,.18-1.18c0-.24.06-.49.11-.74a6.09,6.09,0,0,1,.21-.73c.12-.38.23-.75.31-1.13s.14-.69.2-1,.11-.58.17-.87a11.77,11.77,0,0,0,.18-1.19,5.83,5.83,0,0,1,.1-.73l.2-.91.21-1a6.74,6.74,0,0,0,.11-1.48,3.77,3.77,0,0,1,0-.48,4.81,4.81,0,0,1,.21-.57,8.07,8.07,0,0,0,.41-1.28,7,7,0,0,1,.21-.75c.11-.37.22-.74.3-1.12a7.62,7.62,0,0,0,.14-1.32c0-.24,0-.47.06-.62s.13-.55.2-.82.19-.7.27-1.06.13-.62.2-.93l.21-1c.08-.39.13-.79.17-1.18s.05-.5.1-.74.13-.68.2-1,.11-.6.17-.89c0-.08.12-.29.19-.45a6,6,0,0,0,.49-1.39,6.35,6.35,0,0,0,.09-1.51,3.67,3.67,0,0,1,0-.45,5,5,0,0,1,.2-.57,7.29,7.29,0,0,0,.41-1.29,7.72,7.72,0,0,0,.12-1.35c0-.23,0-.46,0-.59a4.34,4.34,0,0,1,.2-.54,7.5,7.5,0,0,0,.42-1.31c.05-.27.13-.52.2-.77s.21-.74.28-1.11a8.26,8.26,0,0,0,.14-1.3,4.48,4.48,0,0,1,.05-.64,10.79,10.79,0,0,0,.15-1.25c0-.23,0-.46.07-.68s.11-.36.19-.59a7.21,7.21,0,0,0,.4-1.28c.07-.4.11-.8.15-1.19a6,6,0,0,1,.09-.74,6.38,6.38,0,0,1,.19-.72,9.19,9.19,0,0,0,.31-1.16,8.14,8.14,0,0,0,.08-1.42,3,3,0,0,1,0-.54,3.37,3.37,0,0,1,.18-.54,7.52,7.52,0,0,0,.39-1.32,8.84,8.84,0,0,0,.11-1.27,4.65,4.65,0,0,1,.05-.66,3.23,3.23,0,0,1,.17-.49,6.37,6.37,0,0,0,.42-1.37,7.84,7.84,0,0,0,.1-1.3,5.17,5.17,0,0,1,0-.64c0-.27.1-.54.16-.81s.16-.72.22-1.08.1-.72.14-1.09.06-.55.11-.82a10.23,10.23,0,0,0,.09-1.28,4.63,4.63,0,0,1,0-.65,3.67,3.67,0,0,1,.16-.45,6.57,6.57,0,0,0,.43-1.41c.06-.38.09-.76.12-1.14s0-.53.08-.79a2.1,2.1,0,0,0-.11-1.06,2.17,2.17,0,0,0,.38-.94,7.49,7.49,0,0,0,0-1.4,3.81,3.81,0,0,1,0-.59c.05-.36.08-.72.12-1.09s.06-.58.09-.8a2.17,2.17,0,0,1,.15-.35,5.3,5.3,0,0,0,.54-1.61c.05-.39.07-.77.09-1.15s0-.55.07-.82a7,7,0,0,0,0-1.46,3.72,3.72,0,0,1,0-.53l.12-.87c.06-.36.11-.72.15-1.07s.07-.58.12-.87.11-.72.15-1.09.05-.81.05-1.22c0-.25,0-.5,0-.71a2.58,2.58,0,0,1,.14-.39,5.7,5.7,0,0,0,.45-1.57,7.94,7.94,0,0,0,0-1.4,4.46,4.46,0,0,1,0-.58,6.34,6.34,0,0,1,.14-.63,9.57,9.57,0,0,0,.25-1.31c0-.36.06-.73.08-1.09s0-.58.07-.87a7.5,7.5,0,0,1,.11-.81c.06-.38.11-.76.14-1.14s0-.8,0-1.2,0-.52,0-.78a8.68,8.68,0,0,0,0-1.25,5.77,5.77,0,0,1,0-.72c0-.37,0-.74,0-1.12s0-.56,0-.84.05-.57.08-.85.09-.74.11-1.11,0-.8,0-1.19,0-.53,0-.78a4,4,0,0,1,.12-.63,7.8,7.8,0,0,0,.2-1.33c0-.39,0-.77,0-1.15s0-.55,0-.82a10.3,10.3,0,0,0,0-1.29,5.22,5.22,0,0,1,0-.67,3.93,3.93,0,0,1,.12-.45,5.78,5.78,0,0,0,.29-1.51,9.94,9.94,0,0,0,0-1.22c0-.25,0-.5,0-.75s0-.56.07-.84.06-.75.07-1.13,0-.52.07-.78.08-.79.09-1.18a7.17,7.17,0,0,0-.14-1.42,3.72,3.72,0,0,1-.07-.55,3.37,3.37,0,0,1,.1-.54,7.34,7.34,0,0,0,.2-1.42c0-.41,0-.81-.06-1.22,0-.25-.05-.5-.05-.75a6.83,6.83,0,0,1,.06-.78c0-.4.07-.79.07-1.18s0-.73,0-1.09,0-.59,0-.88,0-.81-.08-1.22c0-.25-.05-.49-.06-.74v-2a7,7,0,0,0-.22-1.48,3.77,3.77,0,0,1-.1-.48,4.26,4.26,0,0,1,.07-.6,7.59,7.59,0,0,0,.1-1.35c0-.25,0-.51,0-.76,0-.4,0-.8,0-1.19a8,8,0,0,0-.18-1.32c0-.24-.09-.46-.1-.62s0-.54,0-.81,0-.76,0-1.13l0-.79c0-.39,0-.77-.06-1.15a11.71,11.71,0,0,0-.14-1.19c0-.25-.08-.5-.1-.74s-.06-.76-.09-1.14l-.07-.79a4.11,4.11,0,0,1,.06-.48,6.13,6.13,0,0,0,.08-1.48,6.26,6.26,0,0,0-.34-1.47,4.35,4.35,0,0,1-.13-.43c0-.14,0-.36,0-.6a6.07,6.07,0,0,0-.26-2.68,4,4,0,0,1-.13-.58,2.93,2.93,0,0,1,0-.57,7,7,0,0,0,0-1.38c0-.26,0-.52,0-.78s0-.77-.08-1.16a8.59,8.59,0,0,0-.27-1.26,5.27,5.27,0,0,1-.14-.64,10,10,0,0,0-.25-1.22,5.52,5.52,0,0,1-.15-.68,5.46,5.46,0,0,1,0-.6,7,7,0,0,0,0-1.35q-.09-.58-.24-1.17c-.05-.25-.11-.49-.15-.73a5.81,5.81,0,0,1,0-.72,9.09,9.09,0,0,0-.1-1.21,7.17,7.17,0,0,0-.38-1.37,5,5,0,0,1-.17-.51,3.74,3.74,0,0,1,0-.6,7.44,7.44,0,0,0-.08-1.35,9.83,9.83,0,0,0-.32-1.25,4.54,4.54,0,0,1-.18-.63,4.77,4.77,0,0,1,0-.54,6.5,6.5,0,0,0-.08-1.41,8.88,8.88,0,0,0-.35-1.28,3.32,3.32,0,0,1-.18-.59c-.06-.28-.09-.56-.13-.84s-.1-.72-.17-1.07-.17-.76-.26-1.13-.14-.51-.19-.76a8.76,8.76,0,0,0-.37-1.26,5.16,5.16,0,0,1-.19-.6,3,3,0,0,1,0-.54,6.82,6.82,0,0,0-.11-1.42c-.1-.42-.22-.82-.33-1.2-.07-.23-.14-.45-.19-.67a2.19,2.19,0,0,0-3.93-.78,2.17,2.17,0,0,0-.59.58c-.12.18-.26.35-.39.53s-.4.53-.59.81-.34.53-.5.82-.23.4-.34.58a2.89,2.89,0,0,1-.25.24,5.91,5.91,0,0,0-.89,1l-.49.73-.43.65a4.91,4.91,0,0,0-.58,1.36,1.33,1.33,0,0,0-.05.21c0,.06-.18.21-.28.32a6.63,6.63,0,0,0-.79,1s-.17.2-.27.3a6.2,6.2,0,0,0-.8,1,7.39,7.39,0,0,0-.53,1,4.66,4.66,0,0,1-.25.5l-.9,1.39a3.79,3.79,0,0,1-.31.39,7.4,7.4,0,0,0-.72.93c-.16.26-.32.54-.48.82s-.23.41-.35.62a7.15,7.15,0,0,0-.51,1,4.66,4.66,0,0,1-.25.5l-.86,1.41a3.33,3.33,0,0,1-.25.28,5.85,5.85,0,0,0-.82,1c-.16.28-.32.56-.47.84s-.22.42-.34.62a4.49,4.49,0,0,0-.52,1.54l0,.15-.15.16a5.5,5.5,0,0,0-.88,1.08,3.78,3.78,0,0,1-.27.35,6.88,6.88,0,0,0-.73,1,4.32,4.32,0,0,0-.5,1.56l0,.14-.15.17a4.86,4.86,0,0,0-1.35,2.31,2.86,2.86,0,0,1-.12.35q-.24.45-.45.93a5.35,5.35,0,0,1-.25.53,2.19,2.19,0,0,1-.21.23,5.48,5.48,0,0,0-.87,1.13c-.15.27-.29.55-.43.83l-.34.65-.32.6-.47.87a9.14,9.14,0,0,0-.44,1,4,4,0,0,1-.21.52l-.35.65c-.15.27-.3.54-.43.79a1.83,1.83,0,0,1-.21.26,5,5,0,0,0-.8,1.13c-.15.29-.28.59-.41.89l-.29.63c-.15.3-.28.61-.41.92s-.17.41-.26.61a7.13,7.13,0,0,0-.42,1.14,3.36,3.36,0,0,1-.14.45c-.1.2-.21.4-.32.6s-.32.58-.46.88-.26.58-.38.87-.19.45-.29.66-.26.59-.38.89-.18.44-.27.64a2.43,2.43,0,0,1-.2.28,5.31,5.31,0,0,0-.73,1.16c-.13.28-.25.58-.36.88l-.28.67c-.12.28-.23.58-.35.87s-.17.45-.27.68a6,6,0,0,0-.34,1.26,2,2,0,0,1-.07.37c-.12.29-.24.58-.35.88l-.26.64a1.73,1.73,0,0,1-.19.28,6.15,6.15,0,0,0-.69,1.19c-.08.21-.18.42-.28.63s-.26.59-.38.89-.18.42-.28.63-.27.6-.38.9a5.49,5.49,0,0,0-.31,1.31,2.57,2.57,0,0,1-.05.33c-.11.3-.21.6-.31.9s-.15.45-.23.67a3.61,3.61,0,0,1-.22.4,6.5,6.5,0,0,0-.54,1.09l-.58,1.55a6.46,6.46,0,0,0-.3,1.19,3.33,3.33,0,0,1-.1.44l-.3.88c-.07.24-.15.47-.23.7s-.16.36-.24.53a8,8,0,0,0-.44,1,4,4,0,0,1-.23.46,8.87,8.87,0,0,0-.48,1.05,7.94,7.94,0,0,0-.28,1.12,4.7,4.7,0,0,1-.12.51l-.25.69c-.11.29-.22.57-.32.86s-.2.66-.28,1-.11.42-.17.61a2.27,2.27,0,0,1-.19.34,6.11,6.11,0,0,0-.56,1.17,8.54,8.54,0,0,0-.26,1.1c0,.18-.07.36-.12.53a1.88,1.88,0,0,0-.09.7v0q-.17.41-.3.81c-.1.31-.18.62-.26,1s-.09.41-.13.55-.09.15-.14.23a5.7,5.7,0,0,0-.64,1.33c-.09.27-.17.56-.26.87l-.2.69a4.15,4.15,0,0,0-.13,1.5,1.48,1.48,0,0,1,0,.21c0,.08-.08.16-.12.24a6.93,6.93,0,0,0-.51,1.19,2.63,2.63,0,0,1-.14.3,5.78,5.78,0,0,0-.52,1.22,6,6,0,0,0-.2,1.07,5.34,5.34,0,0,1-.09.53l-.45,1.59a1.42,1.42,0,0,1-.14.35,5.63,5.63,0,0,0-.46,1.22c-.12.48-.17.73-.21,1a6.36,6.36,0,0,1-.15.65,7.08,7.08,0,0,0-.2,1.23,1.52,1.52,0,0,1-.07.43l-.42,1.61-.07.17a4.7,4.7,0,0,0-.6,1.38c-.12.48-.17.73-.21,1a5.86,5.86,0,0,1-.15.66,3.58,3.58,0,0,0,0,1.82,4.33,4.33,0,0,0-.68,1.46.77.77,0,0,1-.11.27,5.32,5.32,0,0,0-.52,1.31,4,4,0,0,0,0,1.7v0l-.05.08a5.1,5.1,0,0,0-.57,1.31,4.92,4.92,0,0,0-.13,1.34v.27c-.08.32-.13.66-.18,1,0,.17-.05.34-.09.5a1.18,1.18,0,0,1-.11.19,4.94,4.94,0,0,0-.6,1.35l-.18.84-.06.25a1.93,1.93,0,0,0-.59,1.07,4.67,4.67,0,0,0-.05,1.26,1.48,1.48,0,0,1,0,.21l0,.11a3.75,3.75,0,0,0-.16,1.37,1.82,1.82,0,0,1-.07.25c-.07.28-.15.57-.19.77a1.49,1.49,0,0,1-.13.25,4.76,4.76,0,0,0-.55,1.32c-.07.3-.12.61-.18.91s-.07.44-.12.66-.12.63-.17,1-.06.42-.1.63a5.59,5.59,0,0,0-.13,1.2,2.39,2.39,0,0,1,0,.43,4.77,4.77,0,0,1-.17.62c-.09.31-.18.63-.25.95s-.11.58-.17.87-.08.49-.14.73-.11.59-.16.9l-.11.64c0,.09-.09.18-.14.27a5.28,5.28,0,0,0-.51,1.33c-.07.29-.12.58-.17.88s-.08.48-.13.72-.12.58-.17.88-.08.48-.13.72a5.52,5.52,0,0,0-.08,1.35c0,.11,0,.22,0,.29-.06.28-.11.56-.17.84s-.1.5-.13.7l-.13.27a4.74,4.74,0,0,0-.51,1.33c-.05.21-.11.43-.17.65s-.16.62-.22.93-.11.43-.17.65-.16.62-.23.93a5.25,5.25,0,0,0-.06,1.39c0,.1,0,.21,0,.26-.06.31-.11.62-.16.93s-.06.45-.11.68a2.79,2.79,0,0,1-.14.37,6.25,6.25,0,0,0-.39,1.18l-.33,1.59a6.48,6.48,0,0,0-.09,1.25,2.07,2.07,0,0,1,0,.39l-.15.87c0,.25-.08.49-.13.74a5,5,0,0,1-.16.51,10.18,10.18,0,0,0-.3,1.06,2.68,2.68,0,0,1-.14.43,5.71,5.71,0,0,0-.46,2.28,3.88,3.88,0,0,1,0,.48.31.31,0,0,1,0,.08c-.17-.24-.24-.31-.36-.46l-.15-.15,0,0,0,0,0,0-.08-.07-.17-.14-.34-.28a6.4,6.4,0,0,0-.59-.42l-.27-.17-.06,0-.08-.05-.07,0-.3-.16a5.11,5.11,0,0,0-1-.38l-.54-.16-.08,0h0l-.18-.05-.46-.16a7.52,7.52,0,0,0-.78-.2l-.34-.08-.52-.09c-.27,0-.62-.11-.83-.12l-.36,0h-1.44l-.75.06a10.22,10.22,0,0,0-1.93.47c-.44.16-1.12.28-1.56.46l-.37.13,0,0-.24.1,0,0-.16.1-.32.19a8.43,8.43,0,0,0-.74.58l-.27.22-.06,0-.07,0-.08.05-.17.08-.17.09-.31.16-.32.19-.19.13-.16.12-.05,0-.27.23-.08.07-.59.56-.3.27-.15.14-.08.07-.11.12,0,0,0,.05c-.22.31-.48.66-.66.94l-.21.36-.11.17,0,.05s0,0,0,0l-.27.23a8.21,8.21,0,0,0-.58.6l-.24.3s-.19.28-.17.26v0l0,.07-.06.14-.12.27-.22.56-.28.8-.29.74-.66,1.72-.28.8v0l-.07.25v.05l0,.11,0,.2-.08.42-.16.83-.15,1-.12.84v0l0,.2v.79l0,.85,0,1,0,.85V278a2.06,2.06,0,0,0,0,.21v0l0,.14,0,.26.11.53.22.82.06.21,0,.09.06.2.13.39.26.79.07.21.05.12.12.25.23.48c.15.31.27.5.41.75l.05.09.08.14,0,0,.11.17.22.34.44.67.31.47.26.38c.18.27.34.43.5.65l.13.15.16.19.07.08.31.34a7.9,7.9,0,0,0,.58.58l.14.13.07.07,0,0h0l.25.2h0l.32.21.63.43.32.2.07.06.18.1.06,0,.23.11c.3.12.69.3.91.36l.7.22.94.25c.28.06.49.09.73.13l.17,0,.27,0,.47,0,.46,0h1.83l.65,0h.14l.23,0,.23-.07.43-.14.43-.16.3-.13.51-.24a12.17,12.17,0,0,0,1.2-.46l.14-.06c0,.25-.06.49-.1.73a5.71,5.71,0,0,1-.2.66,10.22,10.22,0,0,0-.35,1.26l-.18,1-.51,2.83a2.17,2.17,0,0,0-.51,0l-.48,0c-.5.05-1,.1-1.48.18a8.12,8.12,0,0,0-1.36.38,5.6,5.6,0,0,1-.54.17c-.65.14-1.28.29-1.9.46a2.56,2.56,0,0,1-.39,0,5.23,5.23,0,0,0-1.61.25c-.43.15-.86.34-1.28.53l-.55.24c-.46.19-.91.41-1.35.63l-.44.22-.59.26c-.41.18-.82.36-1.21.58a6.93,6.93,0,0,0-1.19.89l-.38.33a11.5,11.5,0,0,0-1.07.77l-.52.4c-.35.25-.69.54-1,.83l-.4.36-.24.07a4.65,4.65,0,0,0-1.66.88,7.19,7.19,0,0,0-.94,1.07c-.12.15-.23.3-.35.43-.37.36-.72.75-1.07,1.14l-.57.63c-.34.37-.68.74-1,1.13a11.2,11.2,0,0,0-.75,1.07c-.12.18-.24.37-.37.54a12.43,12.43,0,0,0-.7,1.08l-.35.57-.33.47c-.25.38-.51.75-.75,1.14a7.35,7.35,0,0,0-.58,1.31,3.15,3.15,0,0,1-.19.49c-.21.38-.41.76-.61,1.15l-.19.37a1.09,1.09,0,0,1-.17.13,4.42,4.42,0,0,0-1.23,1.41c-.24.47-.47.94-.7,1.41l-.13.27a4.31,4.31,0,0,0-.4,1.8c0,.07,0,.15,0,.23l-.28.55c-.16.33-.33.67-.48,1,0,.07-.17.25-.27.38a6.52,6.52,0,0,0-.74,1.21,7.43,7.43,0,0,0-.41,1.28,3,3,0,0,1-.13.51,2.52,2.52,0,0,1-.24.33,5.68,5.68,0,0,0-.78,1.29,10,10,0,0,0-.38,1.09c-.07.23-.14.46-.22.68s-.2.44-.31.66-.33.69-.46,1a10.8,10.8,0,0,0-.35,1.1c-.07.23-.13.46-.21.69a6.4,6.4,0,0,0-.3,1.41c0,.16-.05.37-.07.44-.08.23-.18.45-.27.67a9.76,9.76,0,0,0-.41,1,2.4,2.4,0,0,1-.19.29,5.21,5.21,0,0,0-.77,1.43,6.24,6.24,0,0,0-.26,1.37,3.83,3.83,0,0,1-.06.49c-.07.21-.16.4-.24.6a8.1,8.1,0,0,0-.43,1.16c-.11.36-.19.72-.28,1.08s-.11.49-.18.74a5.23,5.23,0,0,0-.14,1.5c0,.16,0,.39,0,.46-.07.25-.15.5-.23.76s-.24.73-.34,1.11a4.3,4.3,0,0,1-.19.39,5.78,5.78,0,0,0-.61,1.46,9.7,9.7,0,0,0-.2,1.27,5.36,5.36,0,0,1-.1.7,9.2,9.2,0,0,0-.16,1.36,4.23,4.23,0,0,1,0,.63c0,.07-.11.25-.17.39a5.77,5.77,0,0,0-.53,1.56c-.07.49-.09.95-.11,1.35,0,.24,0,.47-.05.7s-.06.46-.09.68a11.09,11.09,0,0,0-.16,1.39c0,.74,0,1.46,0,2.13a18.41,18.41,0,0,0,.17,2.18,11.73,11.73,0,0,0,.48,2l.07.24a12,12,0,0,0,1,2.19l.2.38a7,7,0,0,0,1.17,1.78,9.4,9.4,0,0,0,2.07,1.59,4.8,4.8,0,0,0,2,.54,2.69,2.69,0,0,1,.32,0,3.16,3.16,0,0,1,.43.16,5.54,5.54,0,0,0,1.94.45h.05a5.09,5.09,0,0,0,1.89-.42,3,3,0,0,1,.39-.14,2,2,0,0,1,.35,0,4.82,4.82,0,0,0,2-.37,5.56,5.56,0,0,0,1.42-1,3.79,3.79,0,0,1,.39-.31,3.84,3.84,0,0,1,.49-.27,9.26,9.26,0,0,0,1.33-.83,9.13,9.13,0,0,0,1-1l.44-.44c.16-.15.33-.28.5-.42a10.23,10.23,0,0,0,1-.92c.16-.17.33-.33.49-.49.32-.31.63-.62.91-.95a9,9,0,0,0,.79-1.11c.12-.18.22-.35.35-.51s.33-.38.5-.56.53-.57.79-.91a7.58,7.58,0,0,0,.74-1.24c.08-.15.18-.35.23-.42a3.56,3.56,0,0,1,.34-.34,6.46,6.46,0,0,0,1-1.06,5.38,5.38,0,0,0,.66-1.4,2.64,2.64,0,0,1,.1-.3l.19-.14a4.82,4.82,0,0,0,1.24-1.24l.68-1.09.31-.51a6.19,6.19,0,0,0,.59-1.29,3.75,3.75,0,0,1,.17-.44c.2-.33.37-.68.54-1s.2-.43.27-.56.16-.14.24-.22a4.76,4.76,0,0,0,1.12-1.26,5.88,5.88,0,0,0,.54-1.36,4.13,4.13,0,0,1,.13-.41l.4-.68.54-.93a6.51,6.51,0,0,0,.51-1.3c0-.11.08-.25.12-.35l.15-.12a4.35,4.35,0,0,0,1.25-1.37,6.47,6.47,0,0,0,.5-1.31,3.86,3.86,0,0,1,.16-.46l.4-.74.49-.89a5,5,0,0,1,.35-.54,9.42,9.42,0,0,0,.66-1,4.39,4.39,0,0,0,.31-.82.47.47,0,0,0,.06.09,14.92,14.92,0,0,0,1.25,1.61l.13.16a15.41,15.41,0,0,0,1.19,1.22l.37.34a19.35,19.35,0,0,0,1.61,1.44c.61.5,1.16.92,1.71,1.3s1.21.8,1.79,1.15a4,4,0,0,1,.48.36,8.83,8.83,0,0,0,1.26.86c.41.21.84.39,1.28.57l.65.28a11.85,11.85,0,0,0,1.29.49h0c0,.12-.08.24-.11.37a4.53,4.53,0,0,0,0,1.7l0,.15-.12.25A5.68,5.68,0,0,0,229,352c0,.21-.11.41-.18.62a9.27,9.27,0,0,0-.29,1c-.07.31-.12.64-.18,1s-.07.48-.12.72a9.69,9.69,0,0,0-.16,1.08c0,.2,0,.41-.08.61s-.12.38-.18.57a8.15,8.15,0,0,0-.31,1.07,4.86,4.86,0,0,0-.06,1.49c0,.11,0,.21,0,.24a2.24,2.24,0,0,1-.15.38,6.08,6.08,0,0,0-.44,1.24,4.69,4.69,0,0,1-.18.61,9.67,9.67,0,0,0-.28,1c-.05.23-.12.46-.18.69s-.17.65-.24,1a8.21,8.21,0,0,0-.14,1.11,6,6,0,0,1-.07.61,5.72,5.72,0,0,0-.09,1.31c0,.15,0,.35,0,.42s-.09.26-.15.4a6.63,6.63,0,0,0-.39,1.25c-.05.24-.09.48-.14.72s-.13.65-.19,1a6,6,0,0,0,0,1.37,1.63,1.63,0,0,1,0,.38,3.47,3.47,0,0,1-.13.38,5.44,5.44,0,0,0-.38,1.28q-.06.33-.15.66c-.08.34-.16.69-.21,1a4.42,4.42,0,0,0,.1,1.65c0,.08,0,.15,0,.22s-.07.41-.11.61-.12.67-.17,1a2.83,2.83,0,0,1-.13.5,7.37,7.37,0,0,0-.26,1.19,5.07,5.07,0,0,1-.13.56,9,9,0,0,0-.23,1.15c0,.23-.05.46-.08.7s-.09.69-.12,1,0,.72-.06,1.08l0,.67a5,5,0,0,0,.12,1.49l.05.27a3.69,3.69,0,0,1-.1.38,5.3,5.3,0,0,0-.26,1.37,6.74,6.74,0,0,0,.12,1.38c0,.14.05.27.06.39a2.21,2.21,0,0,1-.08.35,4.75,4.75,0,0,0-.2,1.49,5.44,5.44,0,0,0,.43,1.77c0,.11.08.21.11.31l.07.3a6.71,6.71,0,0,0,.66,1.95,5.57,5.57,0,0,0,1.94,1.93,4.63,4.63,0,0,0,2.68.68h.12l.29,0c.19,0,.42,0,.68,0a3.78,3.78,0,0,0,1.75-.39,6.86,6.86,0,0,0,1.95-1.61l.23-.24a6,6,0,0,0,1.25-1.68,3.94,3.94,0,0,0,.34-1.46c0-.1,0-.24,0-.32l.12-.15a5.42,5.42,0,0,0,.83-1.42,6,6,0,0,0,.26-1.32,2.5,2.5,0,0,1,.05-.4,2.93,2.93,0,0,1,.21-.44,8.53,8.53,0,0,0,.5-1.14c.11-.36.23-.72.34-1.1l.17-.54a5.53,5.53,0,0,0,.21-1.42v-.24l.11-.14a4.68,4.68,0,0,0,.78-1.45c.09-.31.17-.64.25-1s.1-.46.16-.69.15-.44.23-.67.21-.63.31-.95l.24-.95.18-.72c.09-.31.17-.63.25-.94l.18-.72c.15-.56.29-1.11.44-1.66a7.71,7.71,0,0,0,.19-1.18,4.18,4.18,0,0,1,.07-.51,9.7,9.7,0,0,0,.2-1.05c0-.21.07-.43.12-.63s.13-.49.19-.73.17-.62.25-.92a3.37,3.37,0,0,1,.17-.43,6.93,6.93,0,0,0,.42-1.18l.21-.93c.05-.24.1-.49.16-.74s.13-.71.18-1.07c0-.2,0-.41.09-.61a3.2,3.2,0,0,1,.18-.52,8.63,8.63,0,0,0,.35-1.11c.07-.31.12-.63.18-.95s.09-.48.14-.72a5.72,5.72,0,0,1,.17-.59,7.83,7.83,0,0,0,.3-1.05,5.08,5.08,0,0,0,.05-1.53.62.62,0,0,0,0-.2,4.18,4.18,0,0,1,.16-.43,6.77,6.77,0,0,0,.39-1.2,3.74,3.74,0,0,1,.16-.47,6.69,6.69,0,0,0,.36-1.16c.07-.33.11-.67.15-1s.06-.45.1-.67.11-.46.17-.69.16-.65.22-1a4.94,4.94,0,0,0,0-1.53,2,2,0,0,1,0-.23,1.89,1.89,0,0,1,.11-.25,6.82,6.82,0,0,0,.4-1.06h0c.19,0,.44,0,.65,0Zm.47-11.42c0-.2,0-.4.06-.59l.11-.2a4.61,4.61,0,0,0,.59-1.51,4.86,4.86,0,0,0,0-1.55c0-.09,0-.19-.05-.19l.14-.78c.06-.3.11-.6.16-.9a2.39,2.39,0,0,1,.14-.39,6.16,6.16,0,0,0,.37-1.26c0-.3.08-.59.12-.89s0-.48.09-.72.1-.48.15-.71.13-.59.18-.88a7.06,7.06,0,0,0,.08-1.23,2.81,2.81,0,0,1,0-.43,2.72,2.72,0,0,1,.13-.49,7.36,7.36,0,0,0,.29-1.13c.06-.37.09-.74.12-1.1,0-.2,0-.4.05-.6.06-.49.1-1,.13-1.43l0-.3a8,8,0,0,0-.05-1.35c0-.16,0-.31,0-.46a15.4,15.4,0,0,0-.13-1.9,8.65,8.65,0,0,0-.55-1.91c0-.11-.08-.21-.12-.32a4.8,4.8,0,0,0-.82-1.61,6.66,6.66,0,0,0-1.67-1.5,4.48,4.48,0,0,0-1.44-.55,2.18,2.18,0,0,0-1-.31,8.9,8.9,0,0,0-2.44.17,5.66,5.66,0,0,0-2.5,1.37,7,7,0,0,0-1.66,1.92c-.08.13-.18.26-.27.39a9,9,0,0,0-.79,1.33,4.52,4.52,0,0,1-.25.49,7.73,7.73,0,0,0-.6,1.25,6.15,6.15,0,0,0-.31,1.38c0,.17,0,.38-.07.47a6.32,6.32,0,0,0-.25,1.39,3.18,3.18,0,0,1-.05.44,3,3,0,0,1-.2.43,6.09,6.09,0,0,0-.51,1.26,5.61,5.61,0,0,1-.22.53,6.8,6.8,0,0,0-.42,1.17c-.1.38-.16.76-.22,1.13,0,.21-.07.42-.11.61a6,6,0,0,0-.16,1.56v.08h0a4.21,4.21,0,0,0-.9,1.6,4.88,4.88,0,0,0-.16,1.42c0,.12,0,.24,0,.33a3,3,0,0,1-.18.47,7.36,7.36,0,0,0-.41,1.14,6.2,6.2,0,0,0-.17,1.23c0,.18,0,.39-.05.49-.08.29-.14.6-.21.91s-.11.5-.17.75-.12.48-.19.72-.17.62-.24.93a4.1,4.1,0,0,1-.16.39,6.72,6.72,0,0,0-.45,1.22,7.39,7.39,0,0,0-.15,1.2,4.29,4.29,0,0,1-.06.5l-.07.32c-.24-.09-.49-.17-.72-.27l-.81-.35a9.28,9.28,0,0,1-.91-.4,4,4,0,0,1-.56-.41,9.07,9.07,0,0,0-1-.68c-.53-.32-1-.64-1.54-1s-.92-.67-1.45-1.11a16,16,0,0,1-1.33-1.19l-.41-.39a11.05,11.05,0,0,1-.84-.84l-.14-.17a10.81,10.81,0,0,1-.93-1.18,10.3,10.3,0,0,1-.84-1.46,9.37,9.37,0,0,1-.59-1.47,7.29,7.29,0,0,1-.17-1.52,5.53,5.53,0,0,1,.16-1.23l0-.23a2.74,2.74,0,0,0,0-.48s0,0,0-.06c.06-.35.1-.7.14-1.05s.06-.6.11-.9.11-.64.16-1,.12-.65.17-1,.1-.73.14-1.09.06-.58.1-.87a9.4,9.4,0,0,0,.12-1.19c0-.26,0-.52.07-.78a3.78,3.78,0,0,1,.18-.55,7.92,7.92,0,0,0,.39-1.35c.06-.37.1-.73.14-1.1s.06-.58.1-.86.1-.76.14-1.14,0-.55.09-.82.12-.49.18-.74a11.94,11.94,0,0,0,.29-1.18,9.93,9.93,0,0,0,.12-1.24,4.4,4.4,0,0,1,.06-.73c.05-.3.11-.6.17-.9s.15-.69.21-1,.11-.55.18-.82.18-.74.25-1.11.11-.59.18-.88.15-.71.21-1.06.11-.71.16-1.06.08-.6.13-.9.11-.65.17-1,.1-.65.16-1,.11-.69.16-1,.09-.61.15-.92.11-.71.16-1.07a8.67,8.67,0,0,1,.13-.89l.25-1.42.23.33a11.2,11.2,0,0,0,.78,1c.26.29.56.57.86.85l.36.32.34.36a9.25,9.25,0,0,0,.83.82,6.74,6.74,0,0,0,1,.66,3.54,3.54,0,0,1,.41.26,1.6,1.6,0,0,1,.26.26,6.17,6.17,0,0,0,1,.85,7.27,7.27,0,0,0,1,.53c.15.07.3.13.44.21s.25.18.38.27a6.36,6.36,0,0,0,1,.65,5.55,5.55,0,0,0,1.15.43,2.78,2.78,0,0,1,.38.12c.47.23,1,.45,1.45.67q.24.11.48.24a10.59,10.59,0,0,0,1,.46l1,.37.48.17,1,.31.54.17.13,0c.46.15.92.3,1.39.43s.89.24,1.34.35l.2.05.55.16c.33.09.65.19,1,.26l1,.18c.19,0,.39.05.58.09a2.67,2.67,0,0,1,.4.13,5.05,5.05,0,0,0,1.14.33c.35.05.7.07,1,.09l.54,0c.35,0,.7.06,1,.07l.56,0a3.34,3.34,0,0,1,.43.1,6.17,6.17,0,0,0,1.15.2l.55.05,1,.06h.14a6.32,6.32,0,0,0,1.08-.11,11.5,11.5,0,0,1,1.53-.09l.46,0h.56c.36,0,.71,0,1.05,0a7.2,7.2,0,0,0,1.12-.19c.15,0,.31-.07.47-.09a1.79,1.79,0,0,1,.4,0,5.87,5.87,0,0,0,1.23,0l.53-.08a9.89,9.89,0,0,0,1.09-.17,6.81,6.81,0,0,0,1.13-.37l.42-.15c.39-.11.76-.24,1.12-.37l.45-.16.45-.14c.38-.12.76-.24,1.12-.39a11.84,11.84,0,0,0,1.13-.55l.38-.2c.13-.07.28-.11.41-.17a5.34,5.34,0,0,0,1.12-.51c-.06.34-.11.67-.14.95a5.51,5.51,0,0,1-.09.71,11.48,11.48,0,0,0-.19,1.15c0,.26-.07.52-.13.77s-.14.52-.22.78-.22.72-.3,1.09-.15.65-.21,1-.13.62-.2.93a5.22,5.22,0,0,1-.22.58,9.18,9.18,0,0,0-.43,1.26,8.6,8.6,0,0,0-.15,1.38c0,.22,0,.45,0,.52a2.27,2.27,0,0,1-.19.34,5.6,5.6,0,0,0-.65,1.5,11.82,11.82,0,0,0-.2,1.19,5.84,5.84,0,0,1-.11.73c-.07.29-.15.58-.23.86s-.18.68-.26,1-.15.6-.23.89-.18.66-.25,1a6.64,6.64,0,0,0-.15,1.44,3.16,3.16,0,0,1,0,.5c-.08.36-.15.73-.21,1.1s-.09.54-.13.72a3.14,3.14,0,0,1-.18.31,5,5,0,0,0-.72,1.55c-.08.33-.15.67-.22,1s-.13.59-.2.88a7.7,7.7,0,0,0-.16,1.39,3.31,3.31,0,0,1,0,.54c-.08.34-.15.68-.22,1s-.13.59-.2.88a3.92,3.92,0,0,1-.21.45,6.61,6.61,0,0,0-.5,1.25,2.12,2.12,0,0,0-.41.9,6.58,6.58,0,0,1-.39,1.44,3.93,3.93,0,0,1-.52.74l-.38.5a9.09,9.09,0,0,1-1,1.22,12.49,12.49,0,0,1-1.3,1l-.25.17a12,12,0,0,1-1.18.78,6.13,6.13,0,0,1-.68.24c-.33.1-.66.21-1,.34s-.57.26-.85.41a6.88,6.88,0,0,1-.78.35l-.58.19c-.38.13-.76.26-1.15.36l-.67.16c-.37.1-.75.2-1.13.27a4,4,0,0,1-.59,0,7.89,7.89,0,0,0-1.28,0c-.34,0-.68.11-1,.17a8,8,0,0,1-.82.13c-.34,0-.68,0-1,0a5,5,0,0,0-.05-.72,2.43,2.43,0,0,0,0-.25c.06-.33.1-.66.14-1a6.17,6.17,0,0,1,.08-.62,2.12,2.12,0,0,1,.11-.21,4.82,4.82,0,0,0,.58-1.49,5.94,5.94,0,0,0,0-1.37,2.24,2.24,0,0,1,0-.35C248.31,340.89,248.34,340.55,248.38,340.21Zm-5.92-130.53a5.49,5.49,0,0,0,.56-1.37,4.21,4.21,0,0,0,.68-1.47,3.65,3.65,0,0,0,0-1.87c.1-.39.14-.61.18-.83s.06-.34.14-.66l.08-.17a4.73,4.73,0,0,0,.59-1.38l.42-1.62a5.4,5.4,0,0,0,.2-1.22,2,2,0,0,1,.07-.43c.13-.48.17-.73.22-1s.06-.33.14-.65a1.73,1.73,0,0,1,.13-.35,5.32,5.32,0,0,0,.45-1.18l.45-1.55a8,8,0,0,0,.21-1.16,2.76,2.76,0,0,1,.07-.43,2.41,2.41,0,0,1,.18-.37,6.36,6.36,0,0,0,.48-1.12,3.75,3.75,0,0,1,.18-.39,6.21,6.21,0,0,0,.47-1.08,4.73,4.73,0,0,0,.14-1.63.76.76,0,0,1,0-.15l.17-.59.23-.79a1.83,1.83,0,0,1,.18-.31,5,5,0,0,0,.56-1.13c.1-.33.18-.65.26-1a5.09,5.09,0,0,1,.14-.56c.07-.2.15-.39.22-.59s.24-.6.35-.93a2.18,2.18,0,0,0,.07-1l0-.09a3.15,3.15,0,0,1,.12-.55,1.72,1.72,0,0,1,.18-.32,6.11,6.11,0,0,0,.56-1.17c.1-.3.18-.61.26-.92s.11-.44.19-.66.17-.48.26-.73l.3-.81a6.8,6.8,0,0,0,.27-1.08c0-.18.07-.35.12-.52a4,4,0,0,1,.23-.46,8,8,0,0,0,.48-1,3.59,3.59,0,0,1,.24-.53c.15-.32.31-.65.43-1l.27-.81c.08-.25.17-.5.26-.75a6.83,6.83,0,0,0,.29-1.17c0-.16.07-.37.09-.44l.58-1.54a3.58,3.58,0,0,1,.22-.41,6.52,6.52,0,0,0,.53-1.06q.16-.44.3-.87c.08-.23.15-.46.24-.68a5.93,5.93,0,0,0,.3-1.31,2.69,2.69,0,0,1,.05-.32c.09-.22.19-.45.29-.66s.25-.56.36-.84.19-.46.3-.68.07-.17.1-.25c.07.1.13.2.21.3a10.52,10.52,0,0,0,.93,1l.21.21a9.39,9.39,0,0,0,.92.82l.31.26a2.47,2.47,0,0,1,.28.28,6.88,6.88,0,0,0,.9.82q.63.47,1.32.9l.38.25c.31.21.63.41,1,.59s.92.5,1.4.73a10.33,10.33,0,0,0,1,.39l.48.18a10.09,10.09,0,0,0,1,.34l.5.16.37.18a5.73,5.73,0,0,0,1,.46,6.75,6.75,0,0,0,1.06.24,3.69,3.69,0,0,1,.46.08l.47.16c.33.11.66.22,1,.3a7.44,7.44,0,0,0,1,.15c.16,0,.33,0,.49.06.34.07.68.11,1,.15l.5.07a2.79,2.79,0,0,1,.39.1,5.46,5.46,0,0,0,1.12.26l.25,0,1.28.12a5.53,5.53,0,0,0,1.22-.08c.11,0,.21-.09.34,0a3.44,3.44,0,0,1,.45,0,7,7,0,0,0,1,.08h.5c.39,0,.79,0,1.16,0s.74-.08,1.11-.13l.45-.07c.53-.06,1.05-.13,1.56-.23a10.18,10.18,0,0,0,1.12-.28l.43-.11.46-.11a9.37,9.37,0,0,0,1.1-.28,6.41,6.41,0,0,0,1.14-.55,2.79,2.79,0,0,1,.33-.19,16,16,0,0,0,1.48-.78c.08-.05.16-.08.24-.12a4.78,4.78,0,0,0-.06.68,6.72,6.72,0,0,0,.14,1.37c0,.22.07.46.07.58s0,.52-.06.78a11.35,11.35,0,0,0-.1,1.16c0,.28,0,.56-.06.85s-.06.72-.07,1.09a11.23,11.23,0,0,0,0,1.16c0,.26,0,.53,0,.78a3.82,3.82,0,0,1-.12.43,5.78,5.78,0,0,0-.29,1.51,8.2,8.2,0,0,0,.05,1.25,6,6,0,0,1,0,.7c0,.36,0,.73,0,1.1s0,.56,0,.85a5.83,5.83,0,0,1-.11.61,8.31,8.31,0,0,0-.21,1.32c0,.38,0,.76,0,1.14s0,.54,0,.81-.05.58-.09.87-.08.71-.11,1.07,0,.7,0,1,0,.6,0,.89a8.25,8.25,0,0,0,0,1.22,6.09,6.09,0,0,1,0,.74c0,.37,0,.76,0,1.14s0,.54,0,.81-.07.54-.11.81-.12.74-.15,1.12-.05.62-.07.94,0,.66-.07,1c0,.14-.08.37-.14.62a9.12,9.12,0,0,0-.25,1.3,7.51,7.51,0,0,0,0,1.36c0,.23,0,.47,0,.56a2.87,2.87,0,0,1-.15.37,5.3,5.3,0,0,0-.44,1.57,11.52,11.52,0,0,0-.05,1.18,6.69,6.69,0,0,1,0,.77c0,.3-.08.6-.12.9s-.11.68-.14,1-.09.63-.13.94-.1.65-.13,1a6,6,0,0,0,0,1.42c0,.2,0,.44,0,.54,0,.36-.07.73-.09,1.09s0,.58-.05.79a3.4,3.4,0,0,1-.16.34,5.51,5.51,0,0,0-.53,1.61c-.05.33-.08.66-.11,1s-.07.63-.11.95a8.19,8.19,0,0,0,0,1.37,3.09,3.09,0,0,1,0,.6,2.28,2.28,0,0,0,.11,1,2.16,2.16,0,0,0-.37.91c-.06.36-.09.73-.12,1.1a7.4,7.4,0,0,1-.08.81,3.12,3.12,0,0,1-.16.44,6.4,6.4,0,0,0-.43,1.41,9.79,9.79,0,0,0-.09,1.25,4.16,4.16,0,0,1,0,.66c-.05.35-.09.7-.13,1.06s-.06.56-.11.85-.11.55-.17.82-.09.45-.14.67a2.28,2.28,0,0,0-.31.75,5.44,5.44,0,0,0-.07.82.62.62,0,0,1,0,.13l-.13.19c-.11.17-.23.35-.33.53l-.21.41a4,4,0,0,1-.23.41,1.63,1.63,0,0,1-.27.25l-.43.41c-.12.12-.26.22-.39.33l-.38.29c-.17.14-.33.3-.49.46a3,3,0,0,1-.26.24,2.71,2.71,0,0,1-.34.18q-.3.13-.6.3a5,5,0,0,0-.69.48.7.7,0,0,0-.13.13l-.22,0a6,6,0,0,0-.89.25,4.31,4.31,0,0,0-.9.55,3.62,3.62,0,0,0-1.29.14c-.32.09-.65.19-1,.27a4.9,4.9,0,0,0-.93.36l-.12.07c-.23,0-.46.12-.69.19l-.26.07h0a3.77,3.77,0,0,0-1.28-.08,4.23,4.23,0,0,0-1,.29c-.06,0-.12,0-.09.05l-.78.06-.36,0a4.61,4.61,0,0,0-1,.19h0a3.68,3.68,0,0,0-1.32-.3,4.77,4.77,0,0,0-1,.13l-.17.05-.67,0-.47,0a1.54,1.54,0,0,1-.31-.05,6.1,6.1,0,0,0-.84-.13,3.57,3.57,0,0,0-1.26.16h0l-.07,0a5.19,5.19,0,0,0-1-.24,2.33,2.33,0,0,1-.36-.08,6.33,6.33,0,0,0-.78-.17c-.15,0-.29-.06-.43-.09s-.47-.11-.7-.15-.45-.06-.67-.09l-.49-.06-.58-.13-.54-.13-.36-.08-.77-.16a3.86,3.86,0,0,0-1.22-.07h-.1l-.42-.11-.52-.12a1.18,1.18,0,0,1-.19-.11,4.21,4.21,0,0,0-.92-.43l-.43-.13-.68-.22a5.14,5.14,0,0,0-.86-.21,2.14,2.14,0,0,1-.27-.06,3.17,3.17,0,0,1-.42-.19c-.21-.1-.42-.21-.63-.29s-.51-.18-.78-.26l-.18,0s0,0,0,0a3.82,3.82,0,0,0-1-.8l-.49-.22-.55-.26a3.84,3.84,0,0,0-1.19-.36h0a.69.69,0,0,0-.13-.11,5.08,5.08,0,0,0-.7-.52,7.06,7.06,0,0,0-.67-.35,1.86,1.86,0,0,1-.34-.18l-.59-.41-.33-.24c-.19-.14-.39-.26-.59-.38a2.74,2.74,0,0,1-.36-.23c-.15-.12-.29-.25-.43-.38l-.32-.29-.06-.1a3.89,3.89,0,0,0-.67-.9,3.44,3.44,0,0,0-1.17-.7l-.3-.38-.1-.13s0,0,0-.06a3.76,3.76,0,0,0-.48-1.12c-.11-.16-.23-.31-.34-.46a2.12,2.12,0,0,1-.25-.36,4.8,4.8,0,0,0-.57-.78l-.05-.07a.77.77,0,0,1,0-.15c0-.24-.08-.48-.14-.7a6.61,6.61,0,0,0,.15-1.05c0-.16,0-.32.06-.48s.13-.53.2-.79l.19-.74.18-.82c0-.22.09-.44.14-.65l.12-.2a4.64,4.64,0,0,0,.59-1.33c.08-.32.13-.65.18-1a5.21,5.21,0,0,1,.1-.57,5.31,5.31,0,0,0,.13-1.34,1.92,1.92,0,0,1,0-.24l.1-.18a4.85,4.85,0,0,0,.58-1.3,4,4,0,0,0,0-1.7s0-.06,0-.09Zm-23.37,91.9c-.06.34-.12.68-.17,1s-.11.62-.16.92-.11.72-.16,1.08-.08.59-.13.89-.12.58-.18.87-.16.71-.22,1.07-.12.55-.18.82-.18.74-.25,1.12-.11.59-.17.89-.15.7-.21,1.05a10.22,10.22,0,0,0-.12,1.26,5.83,5.83,0,0,1-.06.72,6.64,6.64,0,0,1-.18.74c-.11.39-.22.79-.29,1.18s-.1.78-.13,1.16,0,.54-.09.81-.11.75-.15,1.13-.05.56-.1.83a3.55,3.55,0,0,1-.18.57,7.1,7.1,0,0,0-.39,1.35c-.07.4-.09.81-.12,1.21s0,.51-.07.76-.1.75-.14,1.13-.06.56-.1.83-.1.62-.16.92-.12.69-.17,1-.11.74-.15,1.1-.06.58-.11.86a2.55,2.55,0,0,0,0,.39v0l0,.21a9.08,9.08,0,0,0-.24,2.25c0,.42.05.89.11,1.37a2.17,2.17,0,0,0-.55.68c0,.07-.18.25-.28.38a6.92,6.92,0,0,0-.77,1.15,4.86,4.86,0,0,0-.44,1.55,2,2,0,0,0,0,.26,4.65,4.65,0,0,1-.34.52,8.56,8.56,0,0,0-.66,1l-.43.8-.45.81a7,7,0,0,0-.48,1.26c0,.13-.08.27-.12.37l-.14.11a4.67,4.67,0,0,0-1.25,1.36,6.81,6.81,0,0,0-.5,1.26,4.13,4.13,0,0,1-.16.47c-.16.28-.32.57-.49.85l-.42.74a5.75,5.75,0,0,0-.53,1.32c0,.12-.08.28-.11.37l-.21.18a4.62,4.62,0,0,0-1.09,1.22c-.19.32-.35.65-.51,1a5.67,5.67,0,0,1-.33.65,6.85,6.85,0,0,0-.56,1.25,2.54,2.54,0,0,1-.17.43l-.33.53c-.19.32-.39.63-.59.95l-.22.17A4.55,4.55,0,0,0,201,356a5.52,5.52,0,0,0-.63,1.37c0,.12-.08.24-.11.3a3.07,3.07,0,0,1-.37.39,6.69,6.69,0,0,0-.87.93,9.17,9.17,0,0,0-.61,1,4.81,4.81,0,0,1-.33.59,5.93,5.93,0,0,1-.47.53c-.26.27-.52.55-.76.85s-.41.58-.61.89a5.26,5.26,0,0,1-.42.61c-.2.23-.42.44-.64.65l-.63.63a5.36,5.36,0,0,1-.58.51c-.26.21-.51.42-.75.64s-.42.41-.62.63a8.1,8.1,0,0,1-.6.59,5.78,5.78,0,0,1-.62.36,8.2,8.2,0,0,0-.82.46,6.74,6.74,0,0,0-.9.7l-.31.26h-.29a6.16,6.16,0,0,0-1.25.13,8.1,8.1,0,0,0-1,.31l-.34.12-.38-.14a8.15,8.15,0,0,0-.83-.29,4.91,4.91,0,0,0-1.15-.18l-.32,0a5.2,5.2,0,0,1-1-.77,4.08,4.08,0,0,1-.41-.71c-.08-.17-.17-.33-.26-.5a6.41,6.41,0,0,1-.61-1.35l-.08-.26a8.77,8.77,0,0,1-.34-1.31,15.79,15.79,0,0,1-.13-1.72c0-.67,0-1.23,0-1.78,0-.3.07-.6.12-.9s.09-.6.12-.9.05-.63.06-.94,0-.61.07-.88a3.31,3.31,0,0,1,.17-.39,6,6,0,0,0,.5-1.42,9.64,9.64,0,0,0,.13-1.21,5,5,0,0,1,.06-.66,11.82,11.82,0,0,0,.18-1.17,4,4,0,0,1,.1-.71c0-.08.13-.27.2-.42a5.44,5.44,0,0,0,.58-1.36c.08-.3.17-.59.27-.88s.2-.64.28-.95A6.11,6.11,0,0,0,184,346c0-.13,0-.26,0-.34.08-.28.15-.57.22-.86s.13-.6.22-.89a4.54,4.54,0,0,1,.24-.61,10.87,10.87,0,0,0,.41-1.08,6.75,6.75,0,0,0,.23-1.3c0-.19,0-.41,0-.43a2.83,2.83,0,0,1,.2-.28,5.52,5.52,0,0,0,.75-1.39c.08-.24.19-.47.29-.7s.28-.65.39-1a5.81,5.81,0,0,0,.28-1.35,4.1,4.1,0,0,1,.07-.44c.12-.33.22-.67.31-1s.14-.49.23-.73.21-.47.32-.7.3-.63.43-.95.23-.66.34-1a6.38,6.38,0,0,1,.23-.7,2.44,2.44,0,0,1,.23-.33,5.93,5.93,0,0,0,.77-1.24,6.83,6.83,0,0,0,.37-1.22,3.14,3.14,0,0,1,.15-.52,4.33,4.33,0,0,1,.26-.39,6,6,0,0,0,.72-1.16l.43-.88.37-.74a4.54,4.54,0,0,0,.37-1.76c0-.07,0-.15,0-.22l.07-.15.6-1.21.16-.13a4.54,4.54,0,0,0,1.21-1.37l.27-.52c.19-.36.38-.72.58-1.08a7.42,7.42,0,0,0,.47-1.13,4,4,0,0,1,.2-.49c.19-.32.4-.62.6-.92l.37-.53c.16-.24.31-.49.46-.75a8.06,8.06,0,0,1,.47-.72c.18-.25.35-.51.52-.77a7.92,7.92,0,0,1,.46-.67c.27-.32.56-.64.84-.95l.61-.67c.29-.32.58-.64.89-1a8.65,8.65,0,0,0,.74-.88c.11-.14.21-.28.3-.38l.2-.06a4.67,4.67,0,0,0,1.52-.76l.64-.55c.22-.19.44-.39.67-.56s.45-.33.67-.51.46-.36.72-.52a6.84,6.84,0,0,0,.95-.76l.4-.33q.41-.21.84-.39l.73-.33.49-.24c.35-.18.71-.36,1.07-.51l.66-.29c.31-.13.62-.27.89-.37a2.34,2.34,0,0,1,.38,0,5.6,5.6,0,0,0,1.41-.18c.54-.16,1.1-.28,1.66-.41a7.74,7.74,0,0,0,1-.31,6.45,6.45,0,0,1,.62-.19c.34,0,.68-.08,1-.12l-.09.59C219.19,301,219.14,301.28,219.09,301.58Z" style="fill: #1d1d1b"/>
    </g>
  </g>
</svg>
