<svg xmlns="http://www.w3.org/2000/svg" viewBox="0 0 500 500">
  <title>banner</title>
  <g>
    <rect x="149.58" y="218.54" width="200.93" height="65.03" rx="10.18" style="fill: #fff"/>
    <path d="M352.59,272.94a2.19,2.19,0,0,0,.24-1,5.4,5.4,0,0,0-.26-1.72.92.92,0,0,1-.07-.4,3.47,3.47,0,0,1,.06-.74,9.09,9.09,0,0,0,.1-1.38,7.38,7.38,0,0,1,0-.83,10.92,10.92,0,0,0,.07-1.29c0-.47,0-.71,0-.94s0-.59,0-1.18,0-.9,0-1.2,0-.46,0-.92,0-.86,0-1.15,0-.49,0-1,0-.85,0-1.13,0-.5,0-1a7.83,7.83,0,0,0-.12-1.41,4.25,4.25,0,0,1-.05-.71,4.77,4.77,0,0,1,.05-.76,9.25,9.25,0,0,0,.09-1.36,8,8,0,0,1,0-.86,11.4,11.4,0,0,0,.06-1.27c0-.58,0-.87,0-1.16s0-.48,0-1,0-.71,0-1,0-.59,0-1.17a5.68,5.68,0,0,0-.21-1.63,1.47,1.47,0,0,1-.07-.5,1.66,1.66,0,0,1,.07-.53,6.13,6.13,0,0,0,.19-1.59v-1.08c0-.26,0-.52,0-1a7.85,7.85,0,0,0-.11-1.4,3.45,3.45,0,0,1-.06-.72v-2.13a5.32,5.32,0,0,1,.05-.83,11.62,11.62,0,0,0,.06-1.3c0-.59,0-.89,0-1.19s0-.47,0-.94a4.82,4.82,0,0,1,.05-.77,9.25,9.25,0,0,0,.09-1.36,2.17,2.17,0,0,0-.17-.84s0,0,0,0a12.18,12.18,0,0,0-.38-2.83c0-.19-.08-.37-.11-.56a8.83,8.83,0,0,0-.65-2.22,13.33,13.33,0,0,0-1.54-2.45A8.53,8.53,0,0,0,348.2,219l-.46-.35a12.63,12.63,0,0,0-2.43-1.49L345,217a10.47,10.47,0,0,0-2.35-.91l-.48-.12a8.51,8.51,0,0,0-3.79-.27,4.06,4.06,0,0,1-.8.06c-.53,0-.79,0-1.05,0s-.59,0-1.18,0-1,0-1.28.05-.48,0-.95,0a2.7,2.7,0,0,1-.64-.07,6.24,6.24,0,0,0-1.59-.18,9.63,9.63,0,0,0-1.39.09,5.61,5.61,0,0,1-.83.05,6.33,6.33,0,0,0-1.62.19,2.13,2.13,0,0,1-.61.07.62.62,0,0,1-.33-.07,5.09,5.09,0,0,0-1.9-.35H322a12.33,12.33,0,0,0-1.37.07,5.59,5.59,0,0,1-.86,0,5.73,5.73,0,0,1-.85,0,9.87,9.87,0,0,0-1.38-.08,12.82,12.82,0,0,0-1.29.05c-.23,0-.47,0-.94,0-.65,0-1,0-1.31.05a9.11,9.11,0,0,1-.92,0,9.46,9.46,0,0,0-1.38.09,5.77,5.77,0,0,1-.84.05c-.6,0-.9,0-1.2,0h-1a1.12,1.12,0,0,1-.45-.07,5.8,5.8,0,0,0-3.56,0,1.12,1.12,0,0,1-.45.07h-2.23a12.08,12.08,0,0,0-1.33.07,8.64,8.64,0,0,1-.9,0,.83.83,0,0,1-.41-.07,5.27,5.27,0,0,0-1.81-.3c-.52,0-.78,0-1,0l-1.2,0a7.51,7.51,0,0,0-1.55.15,2.48,2.48,0,0,1-.68.07c-.52,0-.77,0-1,0l-1.2,0-1.05,0-1.18,0a12,12,0,0,0-1.34.07,8.41,8.41,0,0,1-.89,0,8.87,8.87,0,0,1-.91,0,12.51,12.51,0,0,0-1.32-.06,5.44,5.44,0,0,1-.85-.05,9.87,9.87,0,0,0-1.38-.08h-2.23a8.36,8.36,0,0,0-1.47.12,3.6,3.6,0,0,1-.75.07,7.39,7.39,0,0,0-1.47.12,3.75,3.75,0,0,1-.76.06h-4.45a1.73,1.73,0,0,1-.54-.07,5.88,5.88,0,0,0-1.69-.23,12.11,12.11,0,0,0-1.36.07,5.75,5.75,0,0,1-.87,0h-2.23a12.44,12.44,0,0,0-1.28,0c-.24,0-.48,0-.95,0a3.49,3.49,0,0,1-.73-.06,7.39,7.39,0,0,0-1.5-.13,8.2,8.2,0,0,1-.91,0,12.51,12.51,0,0,0-1.32-.06,7.51,7.51,0,0,0-1.55.15,2.48,2.48,0,0,1-.68.07,2.27,2.27,0,0,1-.64-.07,6.69,6.69,0,0,0-1.59-.18,5.27,5.27,0,0,0-1.83.31.83.83,0,0,1-.4.07,5.75,5.75,0,0,1-.87-.05,11.39,11.39,0,0,0-1.37-.08l-1.19,0-1,0a7.19,7.19,0,0,0-1.5.14,3.49,3.49,0,0,1-.73.06h-.13l-.14-.06a4.67,4.67,0,0,0-2-.4,5.29,5.29,0,0,0-1.82.3.83.83,0,0,1-.41.07,5.26,5.26,0,0,1-.8,0,8.31,8.31,0,0,0-1.44-.11l-1.18,0H235a9.64,9.64,0,0,0-1.42.1,5.21,5.21,0,0,1-.82.06,1.26,1.26,0,0,1-.49-.08,5.62,5.62,0,0,0-1.75-.26,2.28,2.28,0,0,0-.94.22l-.62,0a1.28,1.28,0,0,1-.36,0,6.62,6.62,0,0,0-1.2-.11h-1.56a5.65,5.65,0,0,0-1.21.12,1.25,1.25,0,0,1-.35,0h-.86c-.17,0-.35,0-.71,0a2.76,2.76,0,0,1-.5,0,7.55,7.55,0,0,0-1.06-.06,1.89,1.89,0,0,1-.42,0,6.29,6.29,0,0,0-1.14-.09,7.42,7.42,0,0,0-1.12.08,2.11,2.11,0,0,1-.44,0h-.7l-.86,0c-.49,0-.73,0-1,0s-.3,0-.6,0a.82.82,0,0,1-.26,0,5.08,5.08,0,0,0-1.3-.15,7.35,7.35,0,0,0-1.08.07,2.51,2.51,0,0,1-.48,0,4.67,4.67,0,0,0-1.33.17l-.18,0a3.9,3.9,0,0,0-1.61-.33h-1.56a8.15,8.15,0,0,0-1.06.06,3,3,0,0,1-.51,0,2.85,2.85,0,0,1-.49,0,7.41,7.41,0,0,0-1.07-.07c-.49,0-.73,0-1,0a4.07,4.07,0,0,1-.59,0,7.43,7.43,0,0,0-1,.05l-.57,0a7.08,7.08,0,0,0-1.08.08,2.72,2.72,0,0,1-.48,0l-.87,0a5.76,5.76,0,0,1-.74,0,4.11,4.11,0,0,0-1.51-.26,4.43,4.43,0,0,0-1.56.27h-1.57a7.55,7.55,0,0,0-1,.06c-.13,0-.26,0-.56,0a4,4,0,0,0-1.54-.28h-.69l-.87,0a6.07,6.07,0,0,0-1.26.13,1,1,0,0,1-.31,0l-.68,0-.88,0h-1.56c-.52,0-.77,0-1,.05a3.48,3.48,0,0,1-.54,0l-.56,0a7.61,7.61,0,0,0-1-.05,2.76,2.76,0,0,1-.5,0,7.18,7.18,0,0,0-1.07-.07h-1.56a6.54,6.54,0,0,0-1.18.1,1.51,1.51,0,0,1-.39,0,6.41,6.41,0,0,0-1.17.1,1.51,1.51,0,0,1-.39,0h-3.13l-.15,0a4.62,4.62,0,0,0-1.42-.21,7.78,7.78,0,0,0-1,.06,2.93,2.93,0,0,1-.52,0h-1.57c-.49,0-.73,0-1,0s-.3,0-.6,0a1.32,1.32,0,0,1-.36,0,5.65,5.65,0,0,0-1.21-.12,3.69,3.69,0,0,1-.56,0,10,10,0,0,0-1-.05,5.19,5.19,0,0,0-1.25.14,1.09,1.09,0,0,1-.32,0l-.37,0a5.42,5.42,0,0,0-1.48,0,4.61,4.61,0,0,0-1.56.57l-.18.11-.38.1a6.63,6.63,0,0,0-1.36.44,11.4,11.4,0,0,0-1.59.9,5.65,5.65,0,0,0-1.09.95c-.07.07-.14.15-.22.22l-.16.07a4.05,4.05,0,0,0-1.44,1,4.53,4.53,0,0,0-.79,1.43l-.08.21a3.71,3.71,0,0,1-.23.32,6.84,6.84,0,0,0-.75,1.22,12.58,12.58,0,0,0-.62,1.72,7.78,7.78,0,0,0-.23,1.4l0,.39c0,.08-.06.17-.09.26a4.68,4.68,0,0,0-.3,1.56,2.12,2.12,0,0,0,.1.62,4.11,4.11,0,0,0-.19,1.3v1c0,.23,0,.46,0,.93a4.65,4.65,0,0,0,.29,1.67l0,.12a.41.41,0,0,1,0,.12,3,3,0,0,1,0,.6,7.69,7.69,0,0,0-.11,1.31c0,.56,0,.84,0,1.12a7.51,7.51,0,0,1,0,.8,4.65,4.65,0,0,1,0,.66,8,8,0,0,0-.08,1.25V242a6.73,6.73,0,0,0,.13,1.39,1.88,1.88,0,0,1,.06.53v1c0,.23,0,.47,0,.93a.7.7,0,0,1-.05.31,5.08,5.08,0,0,0-.24,1.6,4.72,4.72,0,0,0,.27,1.65.52.52,0,0,1,.05.26c0,.41,0,.61,0,.82s0,.54,0,1.09,0,.81,0,1.08,0,.42,0,.83a5.35,5.35,0,0,1,0,.7,9.45,9.45,0,0,0-.07,1.21,3,3,0,0,1,0,.59,6.88,6.88,0,0,0-.11,1.32,6.58,6.58,0,0,0,.13,1.39,1.9,1.9,0,0,1,.06.52c0,.52,0,.77,0,1s0,.44,0,.88,0,.8,0,1.06,0,.42,0,.85,0,.85,0,1.13a7.08,7.08,0,0,1,0,.78c0,.4,0,.6,0,.8s0,.55,0,1.1a4.82,4.82,0,0,1,0,.67,7.67,7.67,0,0,0-.09,1.24,2.18,2.18,0,0,1-.05.56,6.86,6.86,0,0,0-.12,1.35,4.3,4.3,0,0,0,.34,1.75l0,.07v.09c0,.07,0,.14,0,.21a2.34,2.34,0,0,0-.09.59v.39a10.92,10.92,0,0,0,.27,2.93,12.65,12.65,0,0,0,1.26,3.12,11.6,11.6,0,0,0,2,2.4l.16.16a12.74,12.74,0,0,0,2.65,2l.38.22a10.27,10.27,0,0,0,2.64,1.23,12.82,12.82,0,0,0,3.33.38c.77,0,1.16,0,1.55-.06a10.51,10.51,0,0,1,1.18-.05,4.62,4.62,0,0,1,1,.09,8.77,8.77,0,0,0,1.76.16,8.16,8.16,0,0,0,1.79-.17,3.84,3.84,0,0,1,.95-.09,6.42,6.42,0,0,1,1,.07,9.73,9.73,0,0,0,1.7.13,13.38,13.38,0,0,0,1.6-.08,7.62,7.62,0,0,1,1.13-.07c.72,0,1.08,0,1.43,0l1.3,0a5.06,5.06,0,0,1,1,.09,9.77,9.77,0,0,0,1.71.13c.75,0,1.12,0,1.5,0s.62,0,1.23,0,.94,0,1.25,0,.74,0,1.49,0a9.87,9.87,0,0,0,1.71-.13,5.16,5.16,0,0,1,1-.08c.63,0,.94,0,1.25,0s.74,0,1.49,0c.6,0,.9,0,1.2.05s.77.05,1.53.05l1.3,0c.36,0,.72,0,1.44,0a11.06,11.06,0,0,0,1.62-.1,9.42,9.42,0,0,1,1.12-.06l1.32,0h1.42a2.08,2.08,0,0,0,.9-.2l.21.05a9.08,9.08,0,0,0,2,.21c.76,0,1.13,0,1.51,0l1.64,0a9.54,9.54,0,0,0,2-.18,5.8,5.8,0,0,1,1.18-.1c.84,0,1.26,0,1.68,0s.73,0,1.47,0a3.86,3.86,0,0,1,1.09.12,8.48,8.48,0,0,0,2.06.23c.85,0,1.28,0,1.71-.05s.72,0,1.44,0A10.67,10.67,0,0,0,222,286a7.43,7.43,0,0,1,1.26-.09,2.34,2.34,0,0,1,.91.15,6.61,6.61,0,0,0,2.24.35,6.7,6.7,0,0,0,2.27-.37,2.08,2.08,0,0,1,.88-.15,3.42,3.42,0,0,1,1,.13,7.86,7.86,0,0,0,2.12.27,9.78,9.78,0,0,0,2-.18,5.42,5.42,0,0,1,1.17-.11c.85,0,1.27,0,1.69,0s.73,0,1.46,0a3,3,0,0,1,1,.14,7.42,7.42,0,0,0,2.15.29,13.43,13.43,0,0,0,1.79-.1,13.09,13.09,0,0,1,1.36-.07,10.76,10.76,0,0,1,1.36.07,16.06,16.06,0,0,0,1.79.09,7.4,7.4,0,0,0,2.14-.29,3,3,0,0,1,1-.14A11,11,0,0,1,253,286c.41,0,.88.08,1.77.08a8.14,8.14,0,0,1,1.3.08,13.51,13.51,0,0,0,1.85.12c.73,0,1.09,0,1.45,0s.85.05,1.7.05a9,9,0,0,0,2-.2,5.42,5.42,0,0,1,1.15-.11c.74,0,1.11,0,1.49,0s.83,0,1.66,0,1.13,0,1.51,0l1.64,0c.82,0,1.24,0,1.65,0s.75,0,1.5,0a16.28,16.28,0,0,0,1.8-.09,10.45,10.45,0,0,1,1.35-.07,8.08,8.08,0,0,1,1.29.08,12.1,12.1,0,0,0,1.86.12,10.76,10.76,0,0,1,1.36.07,16.75,16.75,0,0,0,1.79.08,7.8,7.8,0,0,0,2.12-.27,3.17,3.17,0,0,1,1-.14,2.82,2.82,0,0,1,1,.14,6.81,6.81,0,0,0,2.19.32,7.47,7.47,0,0,0,2.12-.27,3.4,3.4,0,0,1,1-.13h3.15a2.85,2.85,0,0,1,1,.14,7,7,0,0,0,2.17.31c.88,0,1.34,0,1.75-.07s.7-.05,1.4-.05a8,8,0,0,1,1.29.08,11.77,11.77,0,0,0,1.86.13,7.85,7.85,0,0,0,2.1-.26,3.62,3.62,0,0,1,1.06-.13,10.39,10.39,0,0,1,1.34.07,13.67,13.67,0,0,0,1.81.1c.83,0,1.25,0,1.67,0s.74,0,1.48,0a8.91,8.91,0,0,0,2-.2,4.75,4.75,0,0,1,1.15-.12c.74,0,1.1,0,1.47,0s.84,0,1.68,0a3.77,3.77,0,0,1,1.08.13,7.92,7.92,0,0,0,2.07.24,13.82,13.82,0,0,0,1.85-.11,8.19,8.19,0,0,1,1.31-.08,3.89,3.89,0,0,1,1.1.12,8.51,8.51,0,0,0,2.05.22h3.15a7.19,7.19,0,0,0,2.18-.3,2.91,2.91,0,0,1,1-.14c.87,0,1.3,0,1.73-.06s.72-.05,1.43-.05h.66a11,11,0,0,0,3.3-.29l.51-.14a11.28,11.28,0,0,0,3.31-1.29,11.5,11.5,0,0,0,3.05-2.94,9,9,0,0,0,1.36-3.13c.06-.22.12-.45.19-.68a9.44,9.44,0,0,0,.49-4.16A1.9,1.9,0,0,0,352.59,272.94ZM348,276.16c-.08.27-.16.54-.23.81a5.63,5.63,0,0,1-.63,1.65,7.59,7.59,0,0,1-1.9,1.88,8.65,8.65,0,0,1-2.11.76l-.54.14a7,7,0,0,1-2,.13h-.74c-.86,0-1.29,0-1.72.06s-.72.05-1.44.05a7.24,7.24,0,0,0-2.18.3,2.83,2.83,0,0,1-1,.14h-3.15a4.44,4.44,0,0,1-1.11-.12,8.41,8.41,0,0,0-2-.22,13.82,13.82,0,0,0-1.85.11,9.59,9.59,0,0,1-1.31.08,3.75,3.75,0,0,1-1.07-.13,8.42,8.42,0,0,0-2.08-.24c-.73,0-1.1,0-1.46,0s-.85,0-1.69,0a9.1,9.1,0,0,0-2,.2,4.6,4.6,0,0,1-1.14.12c-.84,0-1.26,0-1.67,0s-.74,0-1.48,0a10.17,10.17,0,0,1-1.35-.08,16.28,16.28,0,0,0-1.8-.09,7.45,7.45,0,0,0-2.1.26,3.67,3.67,0,0,1-1.06.13,7.7,7.7,0,0,1-1.28-.09,11.92,11.92,0,0,0-1.87-.13c-.87,0-1.33,0-1.74.07s-.71.06-1.41.06a2.85,2.85,0,0,1-1-.14,7.08,7.08,0,0,0-2.17-.31h-3.15a7.74,7.74,0,0,0-2.12.27,3.44,3.44,0,0,1-1,.13,2.63,2.63,0,0,1-1-.14,7.05,7.05,0,0,0-2.19-.32,7.4,7.4,0,0,0-2.13.28,3.39,3.39,0,0,1-1,.13,13.59,13.59,0,0,1-1.36-.06,16.22,16.22,0,0,0-1.79-.09,9.54,9.54,0,0,1-1.3-.08,12,12,0,0,0-1.85-.12,16.35,16.35,0,0,0-1.81.09,10.39,10.39,0,0,1-1.34.07c-.83,0-1.25,0-1.66,0s-.75,0-1.49,0-1.14,0-1.51,0-.82,0-1.64,0-1.12,0-1.49,0-.83,0-1.66,0a8.91,8.91,0,0,0-2,.2A4.83,4.83,0,0,1,261,282c-.73,0-1.09,0-1.46,0s-.84,0-1.69,0a7.89,7.89,0,0,1-1.3-.09,13.82,13.82,0,0,0-1.85-.11,10.94,10.94,0,0,1-1.37-.07c-.42,0-.89-.08-1.78-.08a7.34,7.34,0,0,0-2.14.29,3,3,0,0,1-1,.14,10.82,10.82,0,0,1-1.37-.07,16,16,0,0,0-1.78-.09,13.61,13.61,0,0,0-1.8.1,13,13,0,0,1-1.35.07,3.06,3.06,0,0,1-1-.14,7.34,7.34,0,0,0-2.14-.29c-.84,0-1.26,0-1.68.05s-.74,0-1.47,0a9.74,9.74,0,0,0-2,.18,4.94,4.94,0,0,1-1.18.11,3.42,3.42,0,0,1-1-.13,7.47,7.47,0,0,0-2.12-.27,6.36,6.36,0,0,0-2.27.37,2.11,2.11,0,0,1-.88.15,2.37,2.37,0,0,1-.91-.15,6.87,6.87,0,0,0-2.24-.35,10.67,10.67,0,0,0-1.88.14,7.43,7.43,0,0,1-1.26.09c-.86,0-1.28,0-1.71.05s-.72,0-1.44,0a4.27,4.27,0,0,1-1.09-.12,8,8,0,0,0-2.06-.23c-.83,0-1.25,0-1.67,0s-.74,0-1.48,0a9.82,9.82,0,0,0-2,.17,5,5,0,0,1-1.18.11l-1.51,0c-.41,0-.82,0-1.64,0a4,4,0,0,1-1.11-.12,9,9,0,0,0-2-.21,2.25,2.25,0,0,0-1,.26h-.29l-1.42,0a13.23,13.23,0,0,0-1.62.09,7.47,7.47,0,0,1-1.12.07l-1.3,0c-.36,0-.72,0-1.44,0s-.9,0-1.21,0-.76-.06-1.52-.06-.94,0-1.25,0-.75,0-1.49,0a9.87,9.87,0,0,0-1.71.13,5.16,5.16,0,0,1-1,.08c-.62,0-.93,0-1.25,0s-.74,0-1.49,0-1.12,0-1.5,0-.61,0-1.23,0a5.09,5.09,0,0,1-1-.08,9.65,9.65,0,0,0-1.72-.14c-.71,0-1.07,0-1.43,0h-1.3a12.84,12.84,0,0,0-1.6.09,7.91,7.91,0,0,1-1.13.06,5.32,5.32,0,0,1-1-.08,11.15,11.15,0,0,0-1.69-.12,8.09,8.09,0,0,0-1.79.17,5.11,5.11,0,0,1-1.91,0,8.81,8.81,0,0,0-1.77-.16c-.77,0-1.16,0-1.55.06a10.51,10.51,0,0,1-1.18,0,9,9,0,0,1-2.19-.23,7,7,0,0,1-1.54-.76l-.42-.25a8.64,8.64,0,0,1-1.74-1.29l-.17-.17a6.29,6.29,0,0,1-2.1-3.53,7.19,7.19,0,0,1-.12-1.77v-.42a1.49,1.49,0,0,0,0-.21,2.34,2.34,0,0,0,.09-.59,4.52,4.52,0,0,0-.33-1.76l0-.15a2.75,2.75,0,0,1,.05-.56,7,7,0,0,0,.12-1.35,4.58,4.58,0,0,1,0-.67,9.39,9.39,0,0,0,.08-1.24,7.51,7.51,0,0,1,0-.8c0-.27,0-.55,0-1.1s0-.85-.05-1.13a7.2,7.2,0,0,1,0-.78c0-.53,0-.8,0-1.06s0-.43,0-.85,0-.77,0-1,0-.44,0-.88a6.61,6.61,0,0,0-.14-1.39,1.9,1.9,0,0,1,0-.52,2.39,2.39,0,0,1,0-.59,7.83,7.83,0,0,0,.11-1.32,5.05,5.05,0,0,1,0-.69,9.65,9.65,0,0,0,.07-1.22c0-.54,0-.81,0-1.08s0-.41,0-.83,0-.61,0-.82,0-.54,0-1.09a4.92,4.92,0,0,0-.27-1.65.52.52,0,0,1,0-.26.76.76,0,0,1,0-.32,5,5,0,0,0,.24-1.59c0-.5,0-.74,0-1v-.92a6.61,6.61,0,0,0-.14-1.39,1.94,1.94,0,0,1-.05-.53v-1.9a4.82,4.82,0,0,1,0-.67,8,8,0,0,0,.08-1.24c0-.56,0-.84,0-1.12s0-.4,0-.8a3.12,3.12,0,0,1,.05-.6,6.67,6.67,0,0,0,.11-1.31,5,5,0,0,0-.28-1.68.36.36,0,0,1,0-.11.45.45,0,0,1,0-.12c0-.5,0-.75,0-1s0-.47,0-.92l0-.09a4.22,4.22,0,0,0,.4-1.84,2.32,2.32,0,0,0-.11-.64,3.61,3.61,0,0,0,.12-.54c0-.22.05-.44.07-.65a3.8,3.8,0,0,1,.07-.54,8.11,8.11,0,0,1,.39-1.13,3.23,3.23,0,0,1,.29-.43c.14-.18.27-.37.39-.56a5.32,5.32,0,0,0,.5-1v0a4.4,4.4,0,0,0,1.09-.67,7.27,7.27,0,0,0,.56-.55l.3-.29a8.84,8.84,0,0,1,1-.6,5.84,5.84,0,0,1,.6-.18l.55-.14a5.62,5.62,0,0,0,1-.46l.13-.08.27,0a6.82,6.82,0,0,0,.9.07,5.88,5.88,0,0,0,1.25-.13,1.12,1.12,0,0,1,.32,0c.28,0,.42,0,.56,0a7.9,7.9,0,0,0,1,.05,1.28,1.28,0,0,1,.36,0,5.73,5.73,0,0,0,1.21.12,7.08,7.08,0,0,0,1-.05c.15,0,.3,0,.6,0h1.57a7.39,7.39,0,0,0,1-.07,5,5,0,0,1,.52,0l.16,0a4.55,4.55,0,0,0,1.41.21h3.13a5.57,5.57,0,0,0,1.17-.11,2.21,2.21,0,0,1,.39,0,5.67,5.67,0,0,0,1.18-.11,1.47,1.47,0,0,1,.39,0H179a4.31,4.31,0,0,1,.49,0,7.08,7.08,0,0,0,1.08.08c.28,0,.42,0,.56,0a7.61,7.61,0,0,0,1,0,8.16,8.16,0,0,0,1,0,3.39,3.39,0,0,1,.54,0h1.56c.34,0,.51,0,.68,0s.44,0,.88,0a5.19,5.19,0,0,0,1.25-.14,1.09,1.09,0,0,1,.32,0h.69l.89,0a4.22,4.22,0,0,0,1.54.28,7.43,7.43,0,0,0,1-.06c.14,0,.27,0,.54,0h1.57a4.09,4.09,0,0,0,1.5-.26h.11a4.11,4.11,0,0,0,1.51.26h.87l.69,0a7.47,7.47,0,0,0,1.08-.07,2.72,2.72,0,0,1,.48,0,9.53,9.53,0,0,0,1,0,3.94,3.94,0,0,1,.57,0c.48,0,.73,0,1,0a4.07,4.07,0,0,1,.59,0,4.49,4.49,0,0,1,.49,0,7,7,0,0,0,1.07.08,7.44,7.44,0,0,0,1.05-.07,3.19,3.19,0,0,1,.52,0h1.5a3.9,3.9,0,0,0,1.61.33,5.06,5.06,0,0,0,1.33-.17.72.72,0,0,1,.24,0,7.08,7.08,0,0,0,1.08-.08,2.72,2.72,0,0,1,.48,0,.83.83,0,0,1,.27,0,4.85,4.85,0,0,0,1.29.16,7.08,7.08,0,0,0,1-.05l.6,0h.7l.86,0a6.21,6.21,0,0,0,1.12-.09,2.29,2.29,0,0,1,.44,0,2.05,2.05,0,0,1,.42,0,6.21,6.21,0,0,0,1.14.1,3.13,3.13,0,0,1,.51,0,7,7,0,0,0,1.05.07c.43,0,.64,0,.86,0h.71a5.73,5.73,0,0,0,1.21-.12,1.27,1.27,0,0,1,.35,0h1.56a1.86,1.86,0,0,1,.36,0,5.69,5.69,0,0,0,1.2.12c.45,0,.68,0,.9,0h.66a2.27,2.27,0,0,0,.59-.09,5.55,5.55,0,0,0,1.65.23,9.64,9.64,0,0,0,1.42-.1,5.21,5.21,0,0,1,.82-.06h1.19c.26,0,.52,0,1,0a4.06,4.06,0,0,1,.8.06,8.59,8.59,0,0,0,1.44.1,5.06,5.06,0,0,0,1.82-.3,1,1,0,0,1,.41-.07h.13l.14,0a4.67,4.67,0,0,0,2,.4,7.51,7.51,0,0,0,1.51-.13,3.21,3.21,0,0,1,.72-.07c.6,0,.89,0,1.19,0h1a5.75,5.75,0,0,1,.87,0,12,12,0,0,0,1.37.07,5.29,5.29,0,0,0,1.82-.3.86.86,0,0,1,.41-.08,2.2,2.2,0,0,1,.63.08,6.88,6.88,0,0,0,1.6.17,7.39,7.39,0,0,0,1.54-.15,3.05,3.05,0,0,1,.69-.07,9,9,0,0,1,.91,0,11.86,11.86,0,0,0,1.32.07,3.49,3.49,0,0,1,.73.06,7.19,7.19,0,0,0,1.5.14c.64,0,1,0,1.28,0s.48,0,.95,0h2.23a11.89,11.89,0,0,0,1.35-.07,5.9,5.9,0,0,1,.88-.05,1.7,1.7,0,0,1,.53.07,5.91,5.91,0,0,0,1.7.23h4.45a8.36,8.36,0,0,0,1.47-.12,3.75,3.75,0,0,1,.76-.06,7.36,7.36,0,0,0,1.47-.13,4.52,4.52,0,0,1,.75-.06h2.23a5.44,5.44,0,0,1,.85,0,11.76,11.76,0,0,0,1.38.08,8.87,8.87,0,0,1,.91,0,12.51,12.51,0,0,0,1.32.06,12.66,12.66,0,0,0,1.34-.06,6,6,0,0,1,.89-.05l1,0,1.19,0,1,0,1.21,0a7.39,7.39,0,0,0,1.54-.15,2.52,2.52,0,0,1,.69-.07l1,0,1.2,0a1,1,0,0,1,.41.07,5,5,0,0,0,1.81.3,13,13,0,0,0,1.34-.06,7.77,7.77,0,0,1,.89,0h2.23a5.4,5.4,0,0,0,1.78-.28,1.12,1.12,0,0,1,.45-.07,1.1,1.1,0,0,1,.44.07,5.47,5.47,0,0,0,1.79.28l1.19,0c.26,0,.52,0,1,0a9.87,9.87,0,0,0,1.38-.08,5.51,5.51,0,0,1,.84-.06,13,13,0,0,0,1.31-.05,9.11,9.11,0,0,1,.92,0c.64,0,1,0,1.29-.05s.47,0,.94,0a5.93,5.93,0,0,1,.85.05,9.87,9.87,0,0,0,1.38.08,12,12,0,0,0,1.36-.07A5.75,5.75,0,0,1,322,220h2.22a.63.63,0,0,1,.34.07,4.8,4.8,0,0,0,1.89.35,6.81,6.81,0,0,0,1.61-.18,1.83,1.83,0,0,1,.62-.08,9.35,9.35,0,0,0,1.38-.09,5.77,5.77,0,0,1,.84-.05,2.27,2.27,0,0,1,.64.07,6.24,6.24,0,0,0,1.59.18c.64,0,1,0,1.28-.05a9.51,9.51,0,0,1,1,0l1,0c.3,0,.59,0,1.19,0a9.64,9.64,0,0,0,1.42-.1,4.06,4.06,0,0,1,.8-.06,6,6,0,0,1,1.3.24l.58.14a6.17,6.17,0,0,1,1.37.57l.35.17a8.12,8.12,0,0,1,1.59,1l.6.45a5.63,5.63,0,0,1,.88.74,9,9,0,0,1,1,1.62,5.27,5.27,0,0,1,.3,1.14c0,.23.09.47.14.7a8.34,8.34,0,0,1,.27,1.86,2.19,2.19,0,0,0,.17.85s0,0,0,0a4.87,4.87,0,0,1-.05.78,9.08,9.08,0,0,0-.09,1.35c0,.6,0,.9,0,1.2s0,.47,0,.93a7.24,7.24,0,0,1,0,.83,11,11,0,0,0-.07,1.3V238a7.85,7.85,0,0,0,.11,1.4,3.39,3.39,0,0,1,.06.72c0,.54,0,.82,0,1.09v1a2.06,2.06,0,0,1-.06.54,5.63,5.63,0,0,0-.2,1.58,5.53,5.53,0,0,0,.22,1.63,1.52,1.52,0,0,1,.06.5c0,.48,0,.71,0,.95s0,.59,0,1.17,0,.87,0,1.16,0,.48,0,1a7.89,7.89,0,0,1,0,.86,11.54,11.54,0,0,0-.06,1.27,5,5,0,0,1-.05.77,9,9,0,0,0-.09,1.35,7.89,7.89,0,0,0,.11,1.41,3.35,3.35,0,0,1,.06.71c0,.56,0,.84,0,1.13s0,.5,0,1,0,.85,0,1.14,0,.49,0,1,0,.9,0,1.2,0,.46,0,.92,0,.7,0,.94,0,.59,0,1.18a7.53,7.53,0,0,1,0,.83,9,9,0,0,0-.07,1.29,3.47,3.47,0,0,1-.06.74,9.09,9.09,0,0,0-.1,1.38,5.09,5.09,0,0,0,.27,1.72.93.93,0,0,1,.06.4,2.05,2.05,0,0,0,.1.61,2.21,2.21,0,0,0-.23,1.28A5.15,5.15,0,0,1,348,276.16Z" style="fill: #1d1d1b"/>
  </g>
</svg>
