<svg xmlns="http://www.w3.org/2000/svg" viewBox="0 0 500 500">
  <title>bee-left</title>
  <g>
    <path d="M260.73,277.53c-.2.29-.4.58-.58.87s-.33.57-.5.86c-.3.51-.59,1-.91,1.51-.54.8-1,1.52-1.37,2.18a22.84,22.84,0,0,1-4.28,4.88l-.58.53-.63.59a2,2,0,0,1-1.39.56,2,2,0,0,1-1-.28l1-1.72-1.1,1.68-.24-.15a36,36,0,0,1-4.42-3.06l-.07,0-.23-.2-1.23-1.23-.1-.11-.6-.71c-.09-.1-.19-.22-.28-.34a2,2,0,0,1,.27-2.69,23.29,23.29,0,0,0,3.83-4.72c.33-.49.65-1,1-1.4a8.32,8.32,0,0,0,1.19-2.31,8.9,8.9,0,0,1,1.75-3.08,6.84,6.84,0,0,0,1.35-2.58,8.77,8.77,0,0,1,1.59-3.09,5.08,5.08,0,0,0,.94-2.21,10.34,10.34,0,0,1,1.22-3.16,20.33,20.33,0,0,0,1.48-4l.36-1.14a29.61,29.61,0,0,0,1.35-7,10,10,0,0,1,.46-2.66,4.23,4.23,0,0,0,.18-2.47,8.74,8.74,0,0,1-.16-2,6.29,6.29,0,0,0,0-.94,2,2,0,0,1,.42-1.61,2,2,0,0,1,1.49-.74l2.65,0a5.13,5.13,0,0,1,.91.1l.16,0,.21,0,.7.12a2,2,0,0,1,1,0l.08,0h0l.65.16.91.23.14,0,.11,0,.71.25.34.13a2,2,0,0,1,1,1.17c0,.09,0,.18.07.26a12.37,12.37,0,0,1,.73,3.06l0,.39a19.73,19.73,0,0,1,.15,2.54c0,.38,0,.78,0,1.19a13.76,13.76,0,0,1,0,2,8.41,8.41,0,0,1-.39,1.79,4,4,0,0,0-.22.87c-.1.89-.24,1.85-.44,2.84-.05.29-.09.62-.13.94a15.37,15.37,0,0,1-.31,1.84c-.23.91-.48,1.82-.74,2.7a10,10,0,0,1-.69,1.67,5.49,5.49,0,0,0-.38.87l0,.13c-.3.89-.57,1.74-.85,2.51-.13.4-.23.75-.33,1.15s-.22.82-.39,1.36a10.66,10.66,0,0,1-.82,1.82c-.14.27-.29.54-.42.83-.37.85-.76,1.7-1.18,2.54a9.4,9.4,0,0,0-.36.94,13,13,0,0,1-.67,1.62,14.18,14.18,0,0,1-.91,1.43c-.21.3-.42.59-.59.89C261.36,276.6,261,277.07,260.73,277.53Zm25.79-19.33,0-.13s0-.08,0-.12l0-.11a1.24,1.24,0,0,0,0-.16l-.57-2.28a2,2,0,0,0-.05-.24l-.32-1c-.14-.45-.28-.9-.42-1.38l-.42-1.33s0-.08,0-.12l-.24-.68-.07-.2a2,2,0,0,0-.19-.42,5.67,5.67,0,0,0-.62-.88l-.41-.5-.25-.33-.22-.32,0-.06c-.05-.09-.1-.18-.14-.27s-.13-.25-.21-.42-.26-.58-.41-.89l-.06-.11a4.21,4.21,0,0,0-.95-1.31l-.14-.12-.46-.39a2,2,0,0,0-3.27,1.78v.14a6.32,6.32,0,0,1,.08.81v.09a7.43,7.43,0,0,1-.11.92c-.06.4-.13.87-.16,1.36a9.33,9.33,0,0,0,.06,1.44,5.71,5.71,0,0,1,0,.9,8.7,8.7,0,0,1-.17,1.19c-.07.38-.14.76-.18,1.12l0,.23c-.09.73-.17,1.43-.28,2.09a7,7,0,0,1-.34,1,8.77,8.77,0,0,0-.44,1.31c-.1.45-.19.86-.26,1.23s-.16.77-.24,1.06l-.47,1.58-.29,1c-.12.42-.23.84-.34,1.26s-.21.85-.35,1.28a9.22,9.22,0,0,1-.44,1.05,13.53,13.53,0,0,0-.57,1.31c-.13.37-.25.76-.37,1.15s-.27.9-.44,1.31-.31.72-.5,1.15-.38.84-.59,1.32a8.42,8.42,0,0,1-.51.94,11.71,11.71,0,0,0-.77,1.39l-.42,1c-.23.53-.46,1.08-.7,1.54a8.66,8.66,0,0,1-.74,1.13c-.24.34-.48.67-.68,1s-.25.4-.36.59a8.72,8.72,0,0,1-.86,1.27,7.2,7.2,0,0,0-1,1.56,6.15,6.15,0,0,1-.3.56c-.28.37-.55.76-.83,1.14l-.65.92a17.56,17.56,0,0,1-1.44,1.66l-.32.31a2,2,0,0,0,1.48,3.35h.29l.16,0,.48-.07c.2,0,.39,0,.65-.1l1-.19.63-.06h.79l.47,0a2.53,2.53,0,0,0,.54-.06,2.66,2.66,0,0,0,.38-.1l1.08-.41.2-.09.5-.22.09,0,.43-.2.14-.06.09,0,1.23-.61c.21-.09.41-.19.61-.3l.34-.18a.39.39,0,0,0,.11-.06l.32-.2c.53-.31,1-.62,1.45-.95.26-.18.52-.34.78-.5l.21-.13a2,2,0,0,0,.71-.77l.24-.47a13,13,0,0,1,1.16-2l.24-.32c.58-.77,1.18-1.57,1.74-2.48a13.53,13.53,0,0,0,.93-2,11.68,11.68,0,0,1,.46-1.08,7.55,7.55,0,0,1,.64-.95,9.1,9.1,0,0,0,1.21-1.94,18.63,18.63,0,0,0,.68-2.08c.12-.38.22-.77.35-1.13l.28-.8c.28-.77.57-1.56.79-2.41.29-1.09.52-2.19.75-3.29a12.62,12.62,0,0,0,.19-2.12,12.22,12.22,0,0,1,.07-1.25,9.49,9.49,0,0,1,.28-1.15,9.92,9.92,0,0,0,.44-2.12A1.92,1.92,0,0,0,286.52,258.2Zm-33.84-15.95c-.13,1-.29,2.18-.37,3.14a23.7,23.7,0,0,1-2,7.4,13.17,13.17,0,0,0-.57,1.54c-.18,1.55-1.22,3.29-2.45,5.23l-.17.27c0,.12-.17.65-.26,1a10.22,10.22,0,0,1-1.72,4.24,30.74,30.74,0,0,0-2.35,4.74c-.25.58-.46,1.07-.62,1.41a4.3,4.3,0,0,1-1.64,1.8c-.3.22-.42.3-.5.44a2,2,0,0,1-1.71,1h-.09a2,2,0,0,1-1.71-1.12v0a2.72,2.72,0,0,1-.11-.25l0-.11,0-.08-.21-.58c-.09-.23-.16-.47-.24-.72l-.12-.37a2,2,0,0,1-.07-.26l-.29-1.6a.68.68,0,0,0,0-.14s-.92-.62-1-.35a13.22,13.22,0,0,1-.48,1.66,12.65,12.65,0,0,1-.7,1.63,9.26,9.26,0,0,1-1.1,1.48,9.71,9.71,0,0,1-.95,1,2,2,0,0,1-2.46.14.21.21,0,0,0-.12,0,.22.22,0,0,0-.18.17,2,2,0,0,1-1.79,1.59,5.74,5.74,0,0,1-.6,0,8.74,8.74,0,0,1-1.76-.19,7.33,7.33,0,0,1-1.58-.41,4.55,4.55,0,0,1-1-.62l-.4-.26a8.13,8.13,0,0,1-1.22-1,6.82,6.82,0,0,1-1.85-2.67,9.24,9.24,0,0,1-.55-1.52l0-.05-.35.06a17.39,17.39,0,0,1-.44,2.58,16.78,16.78,0,0,1-3.16,6.35,15.29,15.29,0,0,1-5.43,4.27,14.75,14.75,0,0,1-4.48,1.27,3,3,0,0,1-1.79.21l-.76-.12a15.14,15.14,0,0,1-4.7-1,23.37,23.37,0,0,1-3.85-1.35v0a1.47,1.47,0,0,0,0,.19,5.42,5.42,0,0,1-.32,1.1l0,.13c0,.08-.09.23-.13.31L192,284l-.09.15a1.62,1.62,0,0,1-.1.18,5.48,5.48,0,0,1-.38.63l-.07.09-.14.18-.32.4c-.19.21-.38.44-.53.59l-.12.11-.27.24a2.23,2.23,0,0,1-.44.29l-.19.11a5.07,5.07,0,0,1-.87.41l-1.11.42a3.66,3.66,0,0,1-.54.15l-.1,0a2,2,0,0,1-.47.1l-.74.09h-.86c-.23,0-.86-.05-1.17-.1l-.39-.07-.1,0h0a2,2,0,0,1-.33-.08l-.71-.23-.3-.12-.44-.23-.19-.09-.67-.42a3.22,3.22,0,0,1-.51-.38l-.14-.12a1.12,1.12,0,0,1-.2-.17l-.48-.42a3.62,3.62,0,0,1-.44-.47l-.12-.13a1.93,1.93,0,0,1-.22-.28L177,282.88a4.41,4.41,0,0,1-.26-.46l-.09-.15a2.64,2.64,0,0,1-.15-.29,2,2,0,0,0-.08-.22l-.2-.57c0-.12-.09-.27-.13-.41l0-.1a1,1,0,0,0,0-.16l0-.09c0-.05,0-.1,0-.14s0-.13,0-.15l-.3-1.23,0-.14a.63.63,0,0,1,0-.19l-.15-1.5a1,1,0,0,1,0-.17l0-1.47a2.33,2.33,0,0,1,0-.38l.06-.29a3.82,3.82,0,0,1,.19-.78l.05-.18a1.42,1.42,0,0,1,.07-.22l.17-.41a4,4,0,0,1,.38-.8,1.39,1.39,0,0,1,.11-.21l.34-.6a4,4,0,0,1,.35-.53,1.85,1.85,0,0,1,.3-.39l.26-.25a6,6,0,0,1,1.29-1l.37-.23.22-.12.54-.24.2-.08.41-.12a2.81,2.81,0,0,1,.55-.16l.37-.07.35,0,.7,0H183l.24,0,.74.05a6.08,6.08,0,0,1,.77.09,2.46,2.46,0,0,1,.45.11,2.27,2.27,0,0,1,.5.2c.16.1.32.2.48.28a1.78,1.78,0,0,1,.36.25l.31.25c.17.12.32.23.45.34l.15.11.08.06a2,2,0,0,1-.48-.95,2,2,0,0,1,.24-1.42v-.08a13.55,13.55,0,0,1,.1-1.81,7.82,7.82,0,0,1,.13-.92l.05-.28a.4.4,0,0,1,0-.15l.06-.28a7.24,7.24,0,0,1,.26-1,7.91,7.91,0,0,1,.3-.9l.12-.35a1.12,1.12,0,0,1,.05-.13l.25-.59c0-.05,0-.1.07-.16h0l.24-.5a9.16,9.16,0,0,1,.53-1l.14-.26a.41.41,0,0,1,.07-.11l.11-.18a12.32,12.32,0,0,1,.69-1l.19-.25a8.8,8.8,0,0,1,.57-.73,9.62,9.62,0,0,1,.72-.81l.09-.09c.11-.14.3-.32.47-.49l.14-.13a2,2,0,0,1,.23-.18,2.46,2.46,0,0,1,1-1.06l.94-.56a3.07,3.07,0,0,1,.51-.26,2.23,2.23,0,0,1,.41-.27l.49-.22.45-.2.18-.07.15-.06c.41-.14.92-.33,1.45-.46a10.36,10.36,0,0,1,2-.39,13.89,13.89,0,0,1,4.82.25c.23.05,1,.25,1.4.4a12.59,12.59,0,0,1,1.26.5,13.74,13.74,0,0,1,2.58,1.47,15.34,15.34,0,0,1,2.38,2,14.92,14.92,0,0,1,2,2.58c.4.64.89.27.89.27a3.46,3.46,0,0,1-.42-1.44,2.18,2.18,0,0,1,.41-1.68,2,2,0,0,1,1.77-.53,4.48,4.48,0,0,1-.05-.73v-.17a1.62,1.62,0,0,1,0-.22,2.26,2.26,0,0,1,0-.26l.05-.5c0-.25,0-.5,0-.77a.49.49,0,0,1,0-.12v-.05c0-.05,0-.1,0-.13l.13-1.2a1,1,0,0,1,0-.17v0l0-.16a.78.78,0,0,1,0-.16l.23-1c.2-1,.34-1.41.84-1s.5,1.48,3,.64l.11-.13.09-.11a.49.49,0,0,1,.12-.13l.3-.34.08-.08c0-.05.13-.13.2-.2l1-1c1.55-.6,2.55-.54,3.35.42a2.05,2.05,0,0,1-.42,2.47,6.08,6.08,0,0,1,1.71.42,7,7,0,0,1,1.64.93,9.08,9.08,0,0,1,1.28,1.28,11.82,11.82,0,0,1,1.07,1.4,13.64,13.64,0,0,1,.9,1.61,11.79,11.79,0,0,1,.53,1.55l.32.17.22-.06,1.34-.93.46-1.26,1.08-3.58c0-.05,0-.11.07-.17l.7-1.54a2.46,2.46,0,0,1,.31-.48c.09-.12.19-.22.28-.33a8.21,8.21,0,0,0,.7-.86l1.91-3.08a2,2,0,0,1,.22-.29l1.16-1.28a.68.68,0,0,1,.12-.12l1.32-1.25.2-.19c.32-.31.72-.7,1.09-1l.08-.08a1.86,1.86,0,0,1,.32-.23l.33-.2c.32-.14.58-.27.85-.4l.28-.16,0,0a.27.27,0,0,1,.08-.07l.31-.24c.2-.16.41-.33.62-.47l.44-.33a1.41,1.41,0,0,1,.29-.18l.09,0,1.1-.5a2,2,0,0,1,2.75,1.38c0,.1,0,.2.05.3A10.52,10.52,0,0,1,252.68,242.25ZM205.06,269a4.12,4.12,0,0,0-.56-1.41,5.12,5.12,0,0,0-1-1.2,5.18,5.18,0,0,0-1.24-.82,4.08,4.08,0,0,0-1.44-.31,4,4,0,0,0-1.45.14A4.87,4.87,0,0,0,198,266a5.66,5.66,0,0,0-1.18,1,4.19,4.19,0,0,0-.82,1.46,5.3,5.3,0,0,0-.22,1.71,5.88,5.88,0,0,0,.21,1.74,2.44,2.44,0,0,0,.36.66l.22.34a4.22,4.22,0,0,0,.8.87,5.83,5.83,0,0,0,1.23.87,4.67,4.67,0,0,0,1.4.39,3.92,3.92,0,0,0,2.78-.71,6.12,6.12,0,0,0,1.13-1,5,5,0,0,0,.84-1.29,5.52,5.52,0,0,0,.42-1.52A4.82,4.82,0,0,0,205.06,269Z" style="fill: #ffdc00"/>
    <path d="M194.69,269.89a5.59,5.59,0,1,0,5.59-5.58A5.59,5.59,0,0,0,194.69,269.89Z" style="fill: #fff"/>
    <path d="M340,279.1a2,2,0,0,1,1.58,2.35c-.16.82-.34,1.56-.53,2.26-.07.24-.13.48-.18.71a11,11,0,0,1-.44,1.56,13.94,13.94,0,0,1-.86,1.73l-.23.41a8.68,8.68,0,0,1-1.1,1.52c-.13.15-.26.29-.37.44a11.71,11.71,0,0,1-1.76,1.81A8.86,8.86,0,0,1,334,293.4l-.3.14a6.44,6.44,0,0,1-2.43.75,7.56,7.56,0,0,1-2.87-.52l-.39-.13a6.63,6.63,0,0,1-2.16-1,11.46,11.46,0,0,1-1.89-1.81,1.19,1.19,0,0,1-.15-.18l0,.05-.21.37a15.49,15.49,0,0,1-1,1.53,12.66,12.66,0,0,1-1.62,1.7,9,9,0,0,1-2.05,1.46,7.5,7.5,0,0,1-2.56.76l-.41.05a7.26,7.26,0,0,1-1.25.12,4.21,4.21,0,0,1-1-.11,8.3,8.3,0,0,1-1.94-.8l-.36-.18a15.91,15.91,0,0,1-2-1.19l-.31-.22a10.4,10.4,0,0,1-1.64-1.34,6.6,6.6,0,0,1-1-1.43,4.76,4.76,0,0,0-.34-.57,13.68,13.68,0,0,1-.88-1.48c-.09-.17-.18-.34-.28-.51a5.12,5.12,0,0,0-.36-.51c-.11-.13-.22-.29-.34-.46a10.05,10.05,0,0,1-1,.52l-.43.2-.19.1a6.39,6.39,0,0,1-2.53.86,7.48,7.48,0,0,1-2.86-.31,10,10,0,0,1-2.41-1.12,6.06,6.06,0,0,1-1.3-1.19,4.43,4.43,0,0,0-.47-.51,2,2,0,0,1,2.67-3,8.85,8.85,0,0,1,.81.84c.15.16.35.39.43.45a6.1,6.1,0,0,0,1.45.68,2.42,2.42,0,0,0,2.35-.27l.21-.11c.21-.11.43-.21.66-.31a3.52,3.52,0,0,0,.72-.38,2.42,2.42,0,0,0,.3-.39c0-.23-.07-.43-.1-.62a4,4,0,0,0-.12-.66,3.2,3.2,0,0,0-.25-.46,5.67,5.67,0,0,1-.72-1.54,6.82,6.82,0,0,1-.17-1.58,3.58,3.58,0,0,0,0-.62c-.06-.26-.13-.52-.2-.78-.12-.44-.24-.88-.32-1.33s-.14-.89-.19-1.35c0-.26-.06-.53-.1-.79s-.09-.53-.14-.8c-.09-.44-.17-.89-.22-1.34a10.57,10.57,0,0,1-.07-1.34c0-.27,0-.54,0-.81s-.06-.55-.09-.83c-.06-.44-.12-.87-.14-1.31l-.06-.8c0-.45-.08-.9-.09-1.35,0-.28,0-.56-.07-.84,0-.44-.08-.88-.08-1.32,0-.28,0-.56,0-.84,0-.45,0-.89,0-1.32a11,11,0,0,1,.16-1.42,6.42,6.42,0,0,0,.1-.75c0-.51.12-1,.19-1.4,0-.25.09-.51.11-.75a4.42,4.42,0,0,0,0-.72,7,7,0,0,1,0-1.5,8.12,8.12,0,0,1,.43-1.55,5.3,5.3,0,0,0,.19-.61c.06-.25.09-.5.13-.75a7.15,7.15,0,0,1,.33-1.53,9.36,9.36,0,0,1,1.1-2.1l.13-.18a4.36,4.36,0,0,1,3.1-2.27,4.3,4.3,0,0,1,3.42,1.43,7.1,7.1,0,0,1,1.57,2.33,7.36,7.36,0,0,1,.4,1.64c0,.21.07.43.12.65a10.12,10.12,0,0,1,.2,1.47c0,.23,0,.47.07.71a4.79,4.79,0,0,0,.15.54,6.51,6.51,0,0,1,.34,1.55l.05.58c0,.5.09,1,.1,1.53a6,6,0,0,1-.18,1.51,5.06,5.06,0,0,0-.1.58,6.15,6.15,0,0,0,.06.73,11,11,0,0,1,.07,1.35c0,.42-.06.83-.1,1.25,0,.27-.06.54-.08.81,0,.69-.08,1.38-.14,2.06a6.12,6.12,0,0,0,0,.74,10,10,0,0,1,0,1.33c0,.26-.05.53-.07.79,0,.43-.07.85-.12,1.26a7.32,7.32,0,0,1-.36,1.42,3.57,3.57,0,0,0-.17.6c-.09.59-.2,1.17-.3,1.73l-.06.31a6.12,6.12,0,0,0,0,.69,6.46,6.46,0,0,1-.12,1.4c-.17.75-.32,1.45-.5,2.08l-.08.31c-.17.62-.35,1.25-.59,1.89a8.19,8.19,0,0,1-.79,1.49,6.42,6.42,0,0,0-.34.56c-.26.52-.51,1-.76,1.39.1.26.21.52.33.77a4,4,0,0,0,.42.61,7.71,7.71,0,0,1,.68,1l.32.58a11.79,11.79,0,0,0,.61,1,9,9,0,0,1,.57.94,4.13,4.13,0,0,0,.4.63,7.4,7.4,0,0,0,1,.82l.34.24a11.66,11.66,0,0,0,1.47.86l.4.21a5.56,5.56,0,0,0,1,.46,3.2,3.2,0,0,0,.74-.07l.62-.08a3.44,3.44,0,0,0,1.2-.37,5.48,5.48,0,0,0,1.14-.84,9.21,9.21,0,0,0,1.12-1.16,9.09,9.09,0,0,0,.68-1.09l.23-.4a6.79,6.79,0,0,1,.72-1,3.45,3.45,0,0,0,.38-.52c.05-.1.09-.2.14-.31-.27-.49-.6-1.1-.89-1.74a13.21,13.21,0,0,1-.53-1.37c-.07-.21-.15-.42-.23-.63a3.23,3.23,0,0,0-.29-.59,8.62,8.62,0,0,1-.6-1.35c-.21-.67-.42-1.35-.6-2l-.08-.29c-.15-.58-.3-1.17-.43-1.76a10.85,10.85,0,0,1-.16-1.38q0-.36-.06-.72c0-.24-.09-.49-.14-.73-.09-.44-.17-.89-.23-1.34a13.3,13.3,0,0,1,0-1.37c0-.24,0-.49,0-.73a4.34,4.34,0,0,0-.13-.62,8,8,0,0,1-.23-1.47,5.53,5.53,0,0,1,.16-1.28,4,4,0,0,0,.12-.76c0-.11-.05-.34-.09-.56a8.37,8.37,0,0,1-.16-1.48c0-.38,0-.77.07-1.17s.05-.58.06-.87,0-.54,0-.81,0-.83,0-1.25.06-.81.11-1.23c0-.27.07-.54.09-.82,0-.68.08-1.37.13-2.06a6.43,6.43,0,0,0,0-.76,12.21,12.21,0,0,1,0-1.32,9.07,9.07,0,0,1,.3-1.39,5.28,5.28,0,0,0,.16-.66,4.4,4.4,0,0,0,0-.66,7,7,0,0,1,.1-1.46,5.74,5.74,0,0,1,.62-1.6c.08-.15.18-.35.21-.43s.1-.43.15-.63a8.72,8.72,0,0,1,.47-1.55l.15-.37a7,7,0,0,1,1.08-1.93,4.63,4.63,0,0,1,3.08-1.71,4,4,0,0,1,3.44,1.64,7.32,7.32,0,0,1,1.13,2.06l.09.24c.07.14.13.29.2.44a10.52,10.52,0,0,1,.64,1.66c.05.21.12.41.19.62a9.29,9.29,0,0,1,.42,1.47,7.39,7.39,0,0,1,.11,1.43,5.47,5.47,0,0,0,0,.7c0,.24.08.49.12.73.09.44.16.89.21,1.34s.07.93.09,1.4l0,.69a5.88,5.88,0,0,0,.11.68,7,7,0,0,1,.19,1.39,6.62,6.62,0,0,1-.16,1.52,3,3,0,0,0-.09.56,6.51,6.51,0,0,0,0,.77,9.29,9.29,0,0,1,.06,1.33,11.24,11.24,0,0,1-.2,1.49c0,.21-.08.42-.11.62s0,.43,0,.66c0,.4,0,.86-.07,1.37,0,.36-.11.73-.19,1.12s-.11.58-.15.88a5.54,5.54,0,0,0,0,.71,11.28,11.28,0,0,1-.09,1.34c-.06.4-.16.8-.26,1.2a7.66,7.66,0,0,0-.18.8,3.94,3.94,0,0,0,0,.63,8.35,8.35,0,0,1-.09,1.43c-.08.41-.17.81-.26,1.22-.07.26-.13.53-.18.8-.1.45-.2.91-.31,1.37l-.15.64c-.16.67-.32,1.34-.49,2a7.84,7.84,0,0,1-.49,1.31,3.9,3.9,0,0,0-.26.64c-.14.46-.3.91-.45,1.36-.08.2-.15.41-.22.61s-.13.47-.19.71-.14.58-.24.89l.14.21a8.87,8.87,0,0,1,.55.94,4,4,0,0,0,.37.63,8.39,8.39,0,0,0,1.26,1.21,3.72,3.72,0,0,0,.93.37l.52.17a3.66,3.66,0,0,0,1.32.3,3.59,3.59,0,0,0,.94-.36l.35-.16a5.62,5.62,0,0,0,1.23-.89,8.05,8.05,0,0,0,1.2-1.21c.16-.22.35-.43.53-.65a4.69,4.69,0,0,0,.61-.79l.26-.47a10.24,10.24,0,0,0,.62-1.24,8.46,8.46,0,0,0,.27-1c.07-.3.14-.61.23-.91.16-.59.31-1.22.45-1.94A2,2,0,0,1,340,279.1Zm-13.42-19.89a4,4,0,0,0,.1-.63,5.13,5.13,0,0,0-.12-.7,9.68,9.68,0,0,1-.18-1.24c0-.25,0-.5,0-.75s0-.8-.07-1.19-.1-.68-.16-1-.11-.6-.15-.9a8.93,8.93,0,0,1-.07-1.21,3.67,3.67,0,0,0,0-.72,7.74,7.74,0,0,0-.27-.94c-.1-.29-.2-.57-.27-.85a6.85,6.85,0,0,0-.42-1.06l-.25-.55-.1-.25a4.94,4.94,0,0,0-.48-1,1.54,1.54,0,0,0-.16-.18,1.51,1.51,0,0,0-.28.26,6.54,6.54,0,0,0-.42.87l-.17.42a5.56,5.56,0,0,0-.24.86c-.06.27-.13.54-.2.81a6.24,6.24,0,0,1-.52,1.2,3.61,3.61,0,0,0-.24.53,5.65,5.65,0,0,0,0,.64,8.32,8.32,0,0,1-.06,1.28,8,8,0,0,1-.27,1.16,4.71,4.71,0,0,0-.17.74,7.61,7.61,0,0,0,0,.83,10.84,10.84,0,0,1,0,1.14c-.05.65-.09,1.31-.13,2,0,.37-.06.74-.11,1.1a8.72,8.72,0,0,0-.08.88c0,.32,0,.64,0,1s0,.69,0,1,0,.78-.08,1.15-.05.57-.05.84a4.87,4.87,0,0,0,.1.75,7.26,7.26,0,0,1,.15,1.23,8.21,8.21,0,0,1-.2,1.63,3.39,3.39,0,0,0-.08.39c0,.1.07.35.12.59a8,8,0,0,1,.23,1.28c0,.34,0,.68,0,1a8.15,8.15,0,0,0,0,.89c0,.34.11.68.17,1s.12.58.16.87a10,10,0,0,1,.11,1.1,5.69,5.69,0,0,0,.09.82c.11.53.25,1.05.38,1.57l.08.29c.16.62.35,1.23.54,1.84a6.37,6.37,0,0,0,.32.68c.09.15.18.33.27.51l.23-.55a5.21,5.21,0,0,0,.28-.68c.16-.63.31-1.27.46-1.9l.16-.67c.09-.42.19-.84.28-1.25s.13-.61.2-.91.16-.68.22-1a4.59,4.59,0,0,0,0-.69,6.64,6.64,0,0,1,.07-1.3c.06-.39.16-.77.25-1.15a8.1,8.1,0,0,0,.18-.79,6.73,6.73,0,0,0,.05-.83,8.68,8.68,0,0,1,.06-1.15c0-.39.13-.77.2-1.13s.11-.56.14-.82a8,8,0,0,0,0-1,8.46,8.46,0,0,1,0-1c0-.3.09-.62.15-.95a9.17,9.17,0,0,0,.14-.93c0-.2,0-.47-.05-.77a11.12,11.12,0,0,1-.06-1.16A6.81,6.81,0,0,1,326.62,259.21Zm-19-.3a2.93,2.93,0,0,0,.09-.55c0-.44-.05-.88-.08-1.31l-.06-.62a3.5,3.5,0,0,0-.17-.65,6.94,6.94,0,0,1-.29-1.21c-.05-.31-.07-.61-.1-.9a6.64,6.64,0,0,0-.11-.92c-.07-.3-.12-.61-.17-.9a4.23,4.23,0,0,0-.16-.77,3.07,3.07,0,0,0-.71-1,.94.94,0,0,0-.1-.1c-.06.09-.14.19-.23.33l-.13.21a5.23,5.23,0,0,0-.67,1.19,5.85,5.85,0,0,0-.14.79c-.05.35-.11.7-.19,1.07s-.2.7-.32,1.06a4.35,4.35,0,0,0-.25.82,3.85,3.85,0,0,0,0,.67,8.76,8.76,0,0,1,0,1.35c0,.34-.09.67-.15,1s-.11.64-.14,1a11.24,11.24,0,0,1-.14,1.13,8.59,8.59,0,0,0-.11.89c0,.34,0,.69,0,1s0,.67,0,1,0,.63.07.95.06.73.08,1.09,0,.77.07,1.16.05.58.07.88.07.68.11,1,.09.66.12,1,0,.74.05,1.1a7.31,7.31,0,0,0,0,.94c0,.36.11.72.18,1.07s.11.63.16.94.09.61.12.92.09.73.16,1.1.15.67.24,1,.17.63.24.95a6.5,6.5,0,0,1,.13,1.44,2.91,2.91,0,0,1,0,.3c.13-.38.24-.79.36-1.22l.09-.33c.15-.56.29-1.19.44-1.86a3.58,3.58,0,0,0,0-.62,8.47,8.47,0,0,1,.11-1.33l.06-.32c.09-.52.19-1.06.27-1.61a8,8,0,0,1,.33-1.25,3.74,3.74,0,0,0,.19-.67c0-.35.07-.72.1-1.08s.05-.59.08-.88a6.55,6.55,0,0,0,0-.77,9.88,9.88,0,0,1,0-1.21c.05-.66.09-1.31.13-2,0-.34,0-.67.09-1s.07-.63.08-1a6.29,6.29,0,0,0-.05-.82,10.92,10.92,0,0,1-.08-1.14A7.52,7.52,0,0,1,307.64,258.91ZM244,186.64a.1.1,0,0,0-.05,0h0Zm-4.24,64.55-.09.2-.21.45-.41.9L239,253l-.15.48-.28,1-.56,1.86-.61,1.68-.14.91-.08.5,0,.25h0l0,2.1c-.09.67-.16,1.39-.19,1.65l.07,1,0,.5,0,.25v.18l0,1,0,.5v.35c.07.61.15,1.21.22,1.82l.18,1,.08.48,0,.16,0,.12c.1.31.19.62.3.92l.16.44.05.13s0,0,0,0v0h0v0l0,.11,0,.08c.63-1,1.6-1.09,2-2,.63-1.34,2.17-5.26,3.22-6.56,1.26-1.56,1.28-4.2,1.85-5.09.86-1.36,2.17-3.35,2.32-4.66s2.3-4.73,2.59-8.86c.14-1.86.58-4.51.55-4.83a.08.08,0,0,1,0,0l-.48.21-.58.27,0,0-.15.11-.33.25c-.23.16-.46.35-.69.53l-.17.13-.08.07-.05,0,0,0-.14.09-.37.21-.89.43a1.23,1.23,0,0,0-.16.1l0,0h0l-.11.1c-.43.38-.91.86-1.23,1.17L244,245.39l-1.16,1.28-1.87,3a16.66,16.66,0,0,1-1.18,1.48Zm.55-9.28,0,0h0Zm-2-53.83h-.07l-.15,0-.31-.08-.38-.11-.08,0a2.27,2.27,0,0,1-.49.11,3.62,3.62,0,0,1-.62,0,1.94,1.94,0,0,1-.76-.19,2.9,2.9,0,0,1-.71.13c-.24,0-.48,0-.72,0a2.23,2.23,0,0,0-.45,0l-.42.05a6.46,6.46,0,0,0-.75.11,5.6,5.6,0,0,1-1,.1h-.27l-.59.23-.5.2a6.36,6.36,0,0,1-.88.25,2,2,0,0,0-.33.08c-.3.14-.62.28-.93.44l0,.05a3.77,3.77,0,0,1-1,1,7.31,7.31,0,0,1-.79.4,1.4,1.4,0,0,0-.33.15,5.05,5.05,0,0,1-.9.48,1.23,1.23,0,0,0-.26.12c-.22.17-.46.37-.7.58l-.63.53-.46.38,0,.07a3.65,3.65,0,0,1-.75,1.18c-.29.3-.57.61-.85.92a5.92,5.92,0,0,1-.56.56c-.11.11-.23.21-.34.34s-.33.38-.51.56a4.17,4.17,0,0,0-.34.38,2.64,2.64,0,0,0-.15.29,6,6,0,0,1-.46.83,6.32,6.32,0,0,1-.61.73,1.31,1.31,0,0,0-.22.25l-.29.44c-.14.21-.27.41-.39.63a6.37,6.37,0,0,1-.53.75,2,2,0,0,0-.21.3c-.13.23-.23.47-.34.71l-.14.31a.49.49,0,0,0,0,.12,3.8,3.8,0,0,1-.27,1.32c-.16.39-.32.78-.47,1.18a3.58,3.58,0,0,1-.64,1,3.2,3.2,0,0,1-.06,1.39c-.07.25-.15.49-.24.73a4.43,4.43,0,0,0-.17.47c-.05.24-.13.47-.2.71s-.11.34-.15.52a6.23,6.23,0,0,1-.22.82,2.12,2.12,0,0,0-.12.41c0,.11,0,.22,0,.34a6.13,6.13,0,0,1,0,.94,3.52,3.52,0,0,1-.34,1.13,3.32,3.32,0,0,1,.3,1.41,3.66,3.66,0,0,1-.33,1.31,3.72,3.72,0,0,1,.28,1.22,4.89,4.89,0,0,1-.1,1.11,1,1,0,0,0,0,.24,2.83,2.83,0,0,0,.08.28,7.21,7.21,0,0,1,.19.9,5.41,5.41,0,0,1,0,1,1.14,1.14,0,0,0,0,.32c0,.26.06.54.08.81,0,.1,0,.2,0,.31l0,0a3.77,3.77,0,0,1,.62,1.26,5.64,5.64,0,0,1,.15.9,2.2,2.2,0,0,0,.05.37l.15.58c.06.22.11.44.18.65a5,5,0,0,1,.21,1c0,.1,0,.2.06.3s.16.51.23.77.08.31.13.46l.15.21a5,5,0,0,1,.54.89c.1.21.18.43.27.64s.11.29.17.43l.08.07a3.76,3.76,0,0,1,.86,1l.24.47.35.67a5,5,0,0,1,.42,1,1.83,1.83,0,0,0,.08.25,8.07,8.07,0,0,1,.4.78,1.87,1.87,0,0,0,.16.35c.14.21.26.42.38.63s.19.33.3.49.25.38.37.57l.2.31h0a3.57,3.57,0,0,1,1.29,1c.17.22.35.43.52.64l.3.36a3.52,3.52,0,0,1,.65,1.34l.11.08a5.35,5.35,0,0,1,.7.59l-.1-.22a6.24,6.24,0,0,1-.48-1.19,6.11,6.11,0,0,1-.16-1.23,4.14,4.14,0,0,0,0-.46c0-.19-.09-.38-.14-.57-.09-.35-.18-.7-.25-1.07s-.1-.7-.13-1.07c0-.19,0-.4-.06-.6a4.94,4.94,0,0,0-.13-.52,7,7,0,0,1-.24-1.12,2,2,0,0,0-.12-.42,6.62,6.62,0,0,1-.27-1.24c0-.19-.05-.38-.08-.57a10.52,10.52,0,0,1-.14-1.11,4.33,4.33,0,0,1,.19-1.47,1.63,1.63,0,0,0,.07-.3,9.74,9.74,0,0,1,0-1c0-.19,0-.39,0-.59s-.05-.17-.07-.27a4.71,4.71,0,0,1-.19-1.43c0-.2,0-.39,0-.59a10.47,10.47,0,0,1,0-1.12A5.83,5.83,0,0,1,222,222a3.57,3.57,0,0,0,.11-.47,6.16,6.16,0,0,1,.31-1.22,2.13,2.13,0,0,0,.13-.43c0-.19,0-.38.07-.58,0-.36.09-.73.16-1.1,0,0,0-.13,0-.23a4.5,4.5,0,0,1,.08-1.51c.13-.54.28-1.1.44-1.65a5.24,5.24,0,0,1,.58-1.23,1.72,1.72,0,0,0,.18-.32,4.05,4.05,0,0,0,.12-.5,7.56,7.56,0,0,1,.32-1.15,4.81,4.81,0,0,1,.7-1.2,2.51,2.51,0,0,0,.2-.29c.14-.33.31-.65.48-1l.27-.53a3.58,3.58,0,0,0,.09-.35,5.21,5.21,0,0,1,.42-1.22c.09-.18.18-.36.26-.54s.3-.63.47-.93a6.8,6.8,0,0,1,.63-.93c.1-.14.21-.28.3-.42s.05-.17.08-.27a4.7,4.7,0,0,1,.54-1.29,7.94,7.94,0,0,1,.75-.92,3.38,3.38,0,0,0,.31-.35c.11-.16.21-.33.31-.49a7.75,7.75,0,0,1,.59-.9,4.22,4.22,0,0,1,1.13-1l.22-.16c.3-.37.65-.78,1-1.19l.12-.23a4.39,4.39,0,0,1,.8-1.18,4.12,4.12,0,0,1,1.27-.85l.17-.09.12-.19a4.6,4.6,0,0,1,.91-1.12,8.9,8.9,0,0,1,.95-.67c.14-.09.29-.18.43-.29a6.37,6.37,0,0,1,1-.62,3.3,3.3,0,0,0,.41-.23c.14-.1.27-.21.4-.32a8.65,8.65,0,0,1,.93-.69l.42-.26c.34-.21.68-.42,1-.61l.1-.05-.32-.16a.58.58,0,0,1-.14-.08l-.91-.59c-.47-.34-.64-.47-.69-.52a5,5,0,0,0-.72-.39l-.21-.11h0l-.07,0-.2-.06-.72-.24Zm-1.07-.28.06,0h.05l-.05,0ZM272.27,214v0l0,.06v0A.3.3,0,0,0,272.27,214ZM267,217s0,0,0,0Zm-3.61,11.75h0v0Zm.07-.1ZM225,249.13h0Zm.06,0h0v0Zm-7.75,8.84v0l.23.43.45.88,0,.08.05.08.23.33.36.53.31.47v0a1.71,1.71,0,0,1-.24,2.16,19,19,0,0,1,.45,2.22,19.63,19.63,0,0,1,.15,3.76,2.35,2.35,0,0,1,.19.43,7.94,7.94,0,0,0,.44,1.24,7.26,7.26,0,0,0,.6,1.14,7.66,7.66,0,0,0,.84.93,6,6,0,0,0,.95.79l.4.27a3.83,3.83,0,0,0,.63.41,6.88,6.88,0,0,0,1.21.3,6.44,6.44,0,0,0,1.81.13,2.18,2.18,0,0,1,3.4-1.37,7.68,7.68,0,0,0,.76-.81,7.54,7.54,0,0,0,.86-1.14,13,13,0,0,0,1-2.76c.06-.27.11-.61.16-1v-.31l0-.49,0-1,0-.33,0-.25,0-.5-.06-1a20.4,20.4,0,0,1,.23-2.35c0-.07,0-.16,0-.24a2,2,0,0,1-.47-1.1,8.39,8.39,0,0,0-.27-1.46,9.9,9.9,0,0,0-.48-1.43,10.32,10.32,0,0,0-.74-1.32,9.59,9.59,0,0,0-.9-1.18,7.48,7.48,0,0,0-1-1,5,5,0,0,0-1.15-.65,3.69,3.69,0,0,0-1.11-.28,2,2,0,0,1-.83-3.75l-.14-.08-.25.21,0,0h0l0,0h0l0,0h0l0,0,0,0-.84.85a2.18,2.18,0,0,1-.22.21l-.07.07,0,0-.26.29-.12.13c-.05.06-.09.12-.14.17l-.21.28-.2.24v0a1.71,1.71,0,0,1-2.42.23,1.67,1.67,0,0,1-.6-1.21l-.06.29-.18.74h0v.08l0,.12,0,.24-.05.46,0,.46V253c0,.3,0,.58,0,.85l0,.4,0,.18v0a3.64,3.64,0,0,1,0,.46,3.57,3.57,0,0,0,0,.46c0,.27,0,.43,0,.43a1.71,1.71,0,0,1-2.4,1.73l.07.16h0l.06.12s0,0,0,0h0ZM215.6,253a.37.37,0,0,1,0-.08v.1l.08.27c.07.29.15.58.22.87v0c0-.13,0-.26,0-.39s0-.56.06-.85l0-.44,0-.22.07-.46.07-.46,0-.23,0-.12v-.09l.05-.22c.11-.3.22-.6.32-.89l.16-.43.09-.22.1-.26,0,0,.06-.1q.21-.39.42-.75l.48-.83.39-.51a5,5,0,0,1,.42-.48,2,2,0,0,1,.44-.4,1.22,1.22,0,0,1,1.79,1.09v.63a.53.53,0,0,1-.1.29,3,3,0,0,0-.18.32c-.07.15-.15.32-.23.51v0l0,0,0,0v0l-.06.18c0,.11-.06.21-.1.32l.15-.25.11-.19.19-.24.43-.55.06-.07,0,0v0l.11-.11.11-.11.23-.2,1-.88.09-.08a3.59,3.59,0,0,1-.76-1.26.19.19,0,0,0,0-.07l-.18-.14a7.39,7.39,0,0,1-.78-.7,1.73,1.73,0,0,0-.2-.15,5.18,5.18,0,0,1-.88-.78,3.65,3.65,0,0,1-.69-1.37s0-.06,0-.08l-.17-.2-.45-.55h0a3.49,3.49,0,0,1-1.35-1c-.17-.24-.34-.5-.5-.75l-.28-.44c-.17-.24-.32-.5-.48-.77s-.16-.29-.25-.43a6.3,6.3,0,0,1-.48-.91,2.92,2.92,0,0,0-.17-.36,5,5,0,0,1-.46-1.07,2,2,0,0,0-.09-.26c-.15-.25-.29-.53-.43-.81l-.16-.31-.09-.08a4,4,0,0,1-.91-1.14c-.13-.27-.25-.56-.36-.85s-.12-.31-.19-.46a1.23,1.23,0,0,0-.15-.22,5.19,5.19,0,0,1-.59-1,9.37,9.37,0,0,1-.3-.94c0-.15-.07-.29-.12-.43a4.56,4.56,0,0,1-.25-1.1c0-.1,0-.21-.06-.31-.09-.29-.17-.6-.25-.9s-.08-.31-.13-.47a6,6,0,0,1-.18-1c0-.08,0-.16,0-.24l0-.06a3.62,3.62,0,0,1-.65-1.38,6.53,6.53,0,0,1-.12-1c0-.15,0-.29,0-.44a5.43,5.43,0,0,1-.05-1.1,1.82,1.82,0,0,0,0-.33,2.21,2.21,0,0,0-.08-.35,5.19,5.19,0,0,1-.21-1.07,4.89,4.89,0,0,1,.09-1.23l0-.16,0-.1a3.74,3.74,0,0,1-.29-1.37,3.62,3.62,0,0,1,.29-1.35,3.26,3.26,0,0,1-.3-1.54,4,4,0,0,1,.41-1.38.37.37,0,0,0,.05-.11,2.09,2.09,0,0,0,0-.25,5.23,5.23,0,0,1,0-1.09,5.87,5.87,0,0,1,.26-1,2.85,2.85,0,0,0,.11-.39,7.7,7.7,0,0,1,.26-.94c0-.14.09-.29.13-.44a6.41,6.41,0,0,1,.3-.94,1.18,1.18,0,0,0,.07-.2h0a3.24,3.24,0,0,1,.05-1.71,3.42,3.42,0,0,1,.81-1.3l.07-.08c.13-.36.28-.72.43-1.07,0,0,0-.09,0-.13a3.73,3.73,0,0,1,.31-1.43l.18-.39c.14-.31.28-.62.44-.91a5.74,5.74,0,0,1,.6-.91,2.64,2.64,0,0,0,.21-.29c.17-.28.34-.56.52-.83l.25-.38a5.27,5.27,0,0,1,.7-.87,1.65,1.65,0,0,0,.22-.24,2.29,2.29,0,0,0,.16-.31,5.16,5.16,0,0,1,.55-.95,7.87,7.87,0,0,1,.66-.75c.1-.11.21-.22.3-.33a8.41,8.41,0,0,1,.7-.73c.11-.09.21-.19.31-.29.29-.33.58-.65.88-1,0,0,0-.07.05-.1a3.53,3.53,0,0,1,.83-1.27c.25-.23.52-.45.78-.66l.56-.47c.3-.26.6-.51.9-.74a5.08,5.08,0,0,1,1.06-.59,1.92,1.92,0,0,0,.25-.12,6.21,6.21,0,0,1,1-.51l.19-.08.05-.06a3.49,3.49,0,0,1,1.16-1.07c.44-.23.9-.44,1.34-.65a5.37,5.37,0,0,1,1.13-.34,1.77,1.77,0,0,0,.31-.08l.4-.16c.33-.13.67-.27,1-.37a4.68,4.68,0,0,1,1.27-.17h.26a10.06,10.06,0,0,1,1.12-.17L233,184a6.37,6.37,0,0,1,1.13,0h.22a3.21,3.21,0,0,1,1.7-.45,2,2,0,0,1,1.12.4h.38l.39,0h0l.06,0,.56.14.75.2.73.22.2.06.1,0h0l.08,0h0l.07,0c.2.07.39.16.6.24a6.37,6.37,0,0,1,.93.48,8.62,8.62,0,0,1,1,.64l.87.56h0a6.78,6.78,0,0,1,.88.25l.14,0,0,0h0a4.48,4.48,0,0,1,.41.24h0l0,0,.25.19.49.37.63.47s0,0,0,0c.38-.12.77-.2,1.16-.29l.5-.11a7,7,0,0,1,1.23-.17,3.57,3.57,0,0,0,.47,0,7.73,7.73,0,0,1,1.19-.11c.17,0,.34,0,.51,0l.22-.09a4.5,4.5,0,0,1,1.46-.36,7.53,7.53,0,0,1,1.21.06l.51.05.51,0a7.16,7.16,0,0,1,1.22,0,4.51,4.51,0,0,1,1.45.45l.25.12.43.06a12.29,12.29,0,0,1,1.21.23c.12,0,.25,0,.38,0a4.88,4.88,0,0,1,1.33.24,1.92,1.92,0,0,1,1,.73l.28.12.16.07.08,0h0l.09,0,.1.05a4.37,4.37,0,0,1,.67.46l.21.18v0l.12.09h0c.24.1.5.2.79.35l.11.05h.07l.26.17h0l.27.23.48.42.16.16h0l0,0,0,0s0,0,0,0h0l.25.11.32.17.24.16.12.08.06.05,0,0,.26.25h0l.4.44.2.22.11.12.05.05.07.08,0,0c.17.25.38.57.5.79l.16.28.08.14,0-.05.05.08c.17.28.39.68.46.83l.14.31.14.24.36.61a11.34,11.34,0,0,1,.87,1.45c.1.34.22.76.26,1l0,.18,0,.09.12.34.14.36.07.19,0,.09v0l0,.11h0v0c.08.34.17.76.2,1l0,.2,0,.07v0l.11.35.26.92.1.3.11.4.06.2.08.44.07.41.06.42v.11l0,.16v.24a4.48,4.48,0,0,1-.08.64l-.09.33,0,.1s0-.09,0,0l0,.2v-.18s0,.11,0,.18a.58.58,0,0,0,0,.1l0,.23-.05.5,0,.13v0l0,.06,0,.19.05.27,0,.28v.84c0,.3-.05.6-.08.9,0-.11,0,.18,0,.17v0l0,.08-.05.16-.1.33c-.07.24-.12.34-.17.5l-.07.18a.31.31,0,0,1,0-.08l0,.08-.06.16-.24.62-.18.42,0,.08-.05.22-.11.46,0,.15h0v.19q0,.3,0,.6a.76.76,0,0,1,0,.18l0,.11v.09l-.1.34,0,.06,0,.05-.08.23-.18.44-.08.23,0,.05,0,.07,0,.07-.14.27-.16.26a.82.82,0,0,1-.12.16l-.18.24v0l-.08.13,0,.07-.06.19-.15.43-.08.22s-.1.22-.1.24l-.08.13-.17.26a2.77,2.77,0,0,1-.17.23l-.12.13-.13.15s0,0,0,0l-.13.2-.39.68-.09.17-.14.51-.09.25-.05.13-.05.12,0,0-.16.3-.24.42-.25.43-.06.11a.73.73,0,0,1-.13.18l-.21.26-.38.44-.09.11-.08.2a5.05,5.05,0,0,1-.24.53l-.11.2-.19.26-.06.07-.11.12-.23.23-.39.39-.09.08,0,0-.08.12-.26.36-.15.2-.07.1,0,.05a.85.85,0,0,1-.13.15l-.06.06a4,4,0,0,1-.54.45l-.35.2s.07-.09-.08,0l0,0-.14.16-.33.36-.12.13h0a4.26,4.26,0,0,1-.74,1.15,3.32,3.32,0,0,1-1,.65l-.06,0-.05.1-.16.26a2.75,2.75,0,0,1-.22.31l-.08.09-.22.24h0l-.06,0-.5.39-.37.27h0l0,0,0,0-.11.07-.26.19-.44.3-.1.07h0l-.08.09-.68.7-.67.64.19,0,.15,0,.3,0,.58-.06.56-.06.28,0h.4l2.09,0,1.57,0a9.17,9.17,0,0,1,1.4.27l.13,0a1.62,1.62,0,0,1,.62-.07h0s.34,0,.95.15l1.14.21.34.07.19,0h0l.19,0,0,0,.09,0,.79.25.88.29.47.15.25.08h0l.1,0h0l.09,0,.16.08c.22.11.48.23.67.35l.55.37c.27.19.5.36.88.59l.1.06h0l.05,0,.19.08a5.15,5.15,0,0,0,.49.19,9.9,9.9,0,0,1,1.49.63l.15.08.08,0,0,0h0l.17.1.38.31a6,6,0,0,1,.67.6l.5.5c.12.14.33.32.5.49l2.29,2.16c.24.24.69.54,1.33,1.12.16.14.21.21.32.32l.15.15.07.08,0,0,.11.13v0l0,.06a7.1,7.1,0,0,1,.63,1l.38.76a6.69,6.69,0,0,0,.36.66l0,0,.05.06.09.11a2.57,2.57,0,0,0,.21.27l.27.32.4.48c.31.39.4.58.59.85l.11.19,0,.07.06.12.1.26.21.52.2.52.15.44.3.89a45.66,45.66,0,0,1,2.06,7.83l.16.81c.08.31.15.54.28,1.08a11.49,11.49,0,0,1,.18,1.14v1.26l0,1v.63l0,.31,0,.25-.22,2,0,.24-.06.45-.08.49-.15,1-.16,1,0,.16,0,.07,0,.14-.08.27-.16.56c-.2.65-.34,1.06-.56,1.64l.06,0,.24.16.12.08.06,0,0,0-.11-.06.29.21c.09.07.32.17.46.26l.23.13.12.07-.13,0,.06,0,.43.19.65.29a.38.38,0,0,1,.23.17,2,2,0,0,1-.65,2.75h0a.45.45,0,0,1-.29,0l-.71,0h-.48l-.7-.13a3.19,3.19,0,0,1-.59-.13l-.75-.29-.2-.11a6.27,6.27,0,0,1-.35.58l-.52.83-.09.22a2.86,2.86,0,0,0-.15.33l-.16.42-.28.67a4.61,4.61,0,0,1-.26.51l-.11.21,0,0,0,0-.17.28-.07.09-1.13,1.52-.28.38-.07.09-.18.22,0,0-.16.18-.62.68-.62.68-.31.34-.11.12-.06,0-.1.09-.21.17-.85.7-.72.53-.33.24,0,0-.05,0-.11.08-.21.15-.86.59c-.49.32-1,.59-1.44.91s-1,.67-1.45.94l-.34.2-.17.11-.4.2-.71.35-1.38.67-1.53.67-.66.25-.33.12-.16.06,0,0-.21.06-.14,0a7.94,7.94,0,0,1-1.08.15H265.9l-.31,0h-.22l-1.18.21c-.39.06-.75.09-1.1.14l-.26,0h-1l-.92,0-1.71,0c-.48,0-.89,0-1.19-.06l-1-.08-.3-.06a1.53,1.53,0,0,1-.37,0l-.23,0-1-.12-.52-.08-.3,0-.08,0h0l-.2,0-.2-.07-.88-.3-.79-.32-.11,0h0l-.2-.05-.44-.11c-.3-.07-.64-.17-1-.27l-.12,0h-.1l-.21-.08h0l-.3-.16-.62-.34-1.07-.62a37.53,37.53,0,0,1-4.84-3.27l-.15-.12,0,0-.14-.12,0,0-.07-.07-.27-.27-.55-.55-.28-.28-.14-.14-.19-.19-.06-.08-.53-.61-.54-.62-.19-.22-.14-.13-.28-.27a7.93,7.93,0,0,1-.58-.58l-.3-.31h0v0l-.15-.18,0-.08-.11-.17-.21-.35a4.61,4.61,0,0,1-.27-.57l-.14-.33a3.35,3.35,0,0,0-.3-.6c-.33-.55-.67-1.11-1-1.68s-.57-1.08-.85-1.63l0-.05-.09-.19,0-.11-.09-.22-.17-.43-.35-.88-.4-1c-.08-.18-.14-.36-.21-.55-.15.19-.29.37-.44.54a10,10,0,0,1-1.56,1.57c-.21.17-.42.3-.63.44a7.13,7.13,0,0,1,.47,1.13c.09.25.2.5.3.75s.3.7.42,1.06a5,5,0,0,1,.22,1.68,2.38,2.38,0,0,0,0,.38c0,.09.16.31.28.54a9.07,9.07,0,0,1,.55,1.16c.13.35.23.72.33,1.09a7,7,0,0,0,.24.78,2.45,2.45,0,0,0,.23.31,5.93,5.93,0,0,1,.84,1.37,5.66,5.66,0,0,1,.33,1.57c0,.15,0,.35.06.42a5.33,5.33,0,0,0,.3.5,8.33,8.33,0,0,1,.65,1.18c.15.34.27.69.39,1.05s.18.53.3.79.27.66.39,1,.21.56.33.82l.39.89c.13.31.25.61.39.91l.27.32a5.88,5.88,0,0,1,.91,1.29,6.67,6.67,0,0,1,.46,1.4,3.09,3.09,0,0,0,.13.48,3.78,3.78,0,0,0,.27.31,5.65,5.65,0,0,1,.95,1.27,5,5,0,0,1,.47,1.72,2.91,2.91,0,0,0,0,.31l.54,1,.37.66a4.37,4.37,0,0,0,.4.57,8.67,8.67,0,0,1,.72,1.05,6.82,6.82,0,0,0,.43.62,9.77,9.77,0,0,1,.68,1c.19.31.35.64.51,1s.26.51.41.76.37.67.53,1,.24.49.38.72a2.19,2.19,0,0,1-.7,3,2.21,2.21,0,0,1-3-.7,11.79,11.79,0,0,1-.59-1.11c-.12-.23-.23-.46-.36-.68s-.39-.71-.57-1.07-.24-.48-.38-.71-.27-.4-.41-.6a9,9,0,0,1-.72-1.07,5.12,5.12,0,0,0-.4-.55,8.89,8.89,0,0,1-.75-1.11l-.36-.64c-.21-.38-.42-.75-.62-1.13a4.81,4.81,0,0,1-.49-1.76,2.36,2.36,0,0,0,0-.28c-.05-.07-.16-.19-.24-.28a5.49,5.49,0,0,1-1-1.31,6.35,6.35,0,0,1-.49-1.45,3.28,3.28,0,0,0-.13-.49c0-.05-.17-.21-.27-.33a5.6,5.6,0,0,1-.92-1.32c-.17-.35-.32-.72-.48-1.08s-.21-.51-.33-.76-.31-.74-.45-1.12-.19-.5-.3-.75-.3-.77-.43-1.15-.17-.5-.27-.74a3.9,3.9,0,0,0-.32-.53,7.64,7.64,0,0,1-.67-1.23,5.91,5.91,0,0,1-.36-1.63,1.84,1.84,0,0,0-.05-.41l-.23-.29a5.45,5.45,0,0,1-.85-1.41c-.15-.39-.26-.8-.37-1.2-.07-.25-.14-.49-.22-.73a6.65,6.65,0,0,0-.3-.61,8.76,8.76,0,0,1-.57-1.22,5.2,5.2,0,0,1-.24-1.75,2.26,2.26,0,0,0,0-.37c-.06-.18-.17-.42-.27-.65-.16-.39-.32-.77-.45-1.16a4.07,4.07,0,0,0-.27-.6l-.15-.33-.62.06v0c.07.35.11.72.15,1.09s.07.58.13.88.13.67.18,1,.1.63.17.94.16.55.24.83.23.71.32,1.08a7.15,7.15,0,0,1,.18,1.4,4.09,4.09,0,0,0,0,.6,7.51,7.51,0,0,0,.27.75,11.6,11.6,0,0,1,.39,1.13,11.21,11.21,0,0,1,.25,1.15,7.84,7.84,0,0,0,.18.81c.19.64.38,1.28.58,1.91l.24.37a6.55,6.55,0,0,1,.73,1.41c.1.32.19.64.29.95s.18.64.29,1,.25.66.38,1,.23.58.33.87a8.62,8.62,0,0,1,.34,1.23,5,5,0,0,0,.19.71,7.43,7.43,0,0,0,.35.76c.17.35.34.7.49,1.06a8.79,8.79,0,0,1,.37,1.24,5.33,5.33,0,0,0,.2.68,10.52,10.52,0,0,1,.39,1.22,6.14,6.14,0,0,0,.21.7l.29.38a6.22,6.22,0,0,1,.85,1.3,6.52,6.52,0,0,0,.38.68,8.49,8.49,0,0,1,.6,1.06c.29.6.57,1.2.87,1.8a10.63,10.63,0,0,1,.46,1.1c.1.25.19.51.31.75a2.2,2.2,0,0,1-3.91,2,11.69,11.69,0,0,1-.52-1.22,5.86,5.86,0,0,0-.28-.69c-.31-.63-.61-1.25-.9-1.87-.11-.22-.25-.44-.38-.65a12.87,12.87,0,0,1-.64-1.15,3.36,3.36,0,0,0-.29-.4,6.06,6.06,0,0,1-.87-1.35,7.74,7.74,0,0,1-.43-1.32,5,5,0,0,0-.2-.66,6.94,6.94,0,0,1-.41-1.34,5.17,5.17,0,0,0-.19-.64c-.1-.25-.22-.49-.34-.73s-.37-.76-.52-1.15a8.58,8.58,0,0,1-.38-1.33,4.69,4.69,0,0,0-.17-.67c-.09-.26-.2-.52-.3-.78s-.3-.77-.43-1.15-.25-.78-.36-1.17-.16-.53-.25-.79a4.49,4.49,0,0,0-.24-.41,5.51,5.51,0,0,1-.74-1.44c-.21-.66-.41-1.31-.6-2a12.11,12.11,0,0,1-.29-1.3c0-.25-.09-.5-.16-.74s-.17-.49-.26-.74a11.28,11.28,0,0,1-.42-1.21,7.06,7.06,0,0,1-.2-1.51,3.34,3.34,0,0,0-.05-.55c-.06-.28-.15-.54-.23-.8s-.25-.79-.35-1.18-.16-.83-.23-1.24-.08-.54-.13-.8a11.51,11.51,0,0,1-.2-1.29c0-.25-.05-.51-.1-.75s-.12-.56-.19-.84-.1-.45-.15-.68l-.15-.05a7,7,0,0,1-1.44-.84l-.31-.21a11.18,11.18,0,0,1-1.55-1.28l-.56-.58a18.65,18.65,0,0,1-3,5.08,17,17,0,0,1-6.15,4.61,16.59,16.59,0,0,1-13.28-.06,14.47,14.47,0,0,1-2.07-1.11c0,.07,0,.12-.06.2l-.15.48,0,.13,0,.06,0,0a.64.64,0,0,1,0,.1h0l-.08.18c-.13.24-.21.44-.39.74a10,10,0,0,1-.64,1c-.18.24-.32.44-.57.72l-.44.45-.24.22-.06.06v0h0l-.19.13-.1.06a8.12,8.12,0,0,1-.87.5l-1.09.51-.46.2c-.18.08-.44.16-.66.23a7.4,7.4,0,0,1-.75.19l-.52.09-.26.05-.36,0-.72,0c-.54,0-.74,0-1.21,0l-.74-.1-.18,0h-.09l-.21,0-.27-.08-.54-.16-.68-.28-.35-.14,0,0-.17-.09-.07,0-.12-.08-.5-.28c-.18-.1-.4-.27-.6-.41l-.3-.22-.08-.06-.14-.11-.11-.09-.45-.38c-.15-.12-.36-.34-.53-.51l-.27-.28-.07-.07,0,0-.13-.16-.09-.12-.35-.47-.36-.48-.18-.24,0-.05-.12-.18-.08-.12-.34-.49c-.11-.16-.26-.43-.38-.65l-.19-.34,0-.09,0,0v0l0-.13-.05-.14-.22-.56c-.07-.18-.13-.41-.2-.62L174,281l-.08-.27,0-.14-.3-1.16,0-.15,0-.07v0l0-.29v0l0-.29-.06-.59-.07-.59v-.15l0-.36v-.41c0-.39,0-.78,0-1.17v-.08s0-.06,0-.32v0l0-.14,0-.29c0-.2.06-.36.13-.63l.21-.75V273l.05-.14,0-.06.05-.14.11-.26a13.84,13.84,0,0,1,.61-1.29l.29-.51a5,5,0,0,1,.35-.56c.16-.23.32-.46.49-.68l.07-.08v0l.09-.09,0,0,.1-.1.19-.19c.15-.13.22-.22.43-.4l.59-.47.15-.11.07-.06.16-.09.22-.14.44-.26.64-.32.32-.14.08,0,0,0,.17-.06.12,0,.47-.15.25-.07.33-.07.65-.13.08,0h0l.2,0h.12l.23,0,.47,0,.6,0,1.06.07a10.55,10.55,0,0,1,1.05.15,4.73,4.73,0,0,1,.59.16l.26.09c0-.26-.05-.52-.06-.8a13.57,13.57,0,0,1,.15-2.91,12.24,12.24,0,0,1,.36-1.63l.27-.81,0-.1,0-.05v0l0-.08.07-.18.15-.35a16,16,0,0,1,.74-1.52c.29-.49.55-1,.86-1.41.1-.14.21-.26.31-.4a1.89,1.89,0,0,1-.52-.82c-.12-.39-.22-.78-.32-1.19a8.22,8.22,0,0,0-.34-1.2c-.19-.49-.43-1-.69-1.51l-.36-.74-.2-.43c-.3-.63-.58-1.23-.89-1.79l-.33-.61c-.3-.55-.58-1.07-.89-1.53a11.19,11.19,0,0,0-.88-1.11c-.22-.26-.44-.52-.65-.79s-.42-.55-.62-.83a9.53,9.53,0,0,0-.84-1.07,16.92,16.92,0,0,0-1.78-1.49,11.7,11.7,0,0,0-1.84-1.22,7,7,0,0,0-2-.59,5.37,5.37,0,0,0-1.9.12l-.5.13a13.39,13.39,0,0,0-.67,1.38c-.17.46-.31,1-.47,1.55-.07.27-.14.55-.22.82-.21.73-.41,1.53-.6,2.42-.11.51-.18,1-.25,1.6,0,.29-.08.59-.13.88s-.16.83-.25,1.25a9.1,9.1,0,0,0-.24,1.25c0,.39,0,.83,0,1.3s0,.83,0,1.25c0,.82-.08,1.67-.09,2.55,0,.41,0,.83-.07,1.25s-.07.9-.06,1.32.06.87.1,1.32.08.83.11,1.25a2,2,0,0,1-1.89,2.11h-.11a2,2,0,0,1-2-1.89q0-.56-.09-1.08c-.05-.55-.1-1.09-.12-1.62s0-1.19.07-1.7c0-.35.05-.68.06-1,0-.93.05-1.83.1-2.71,0-.35,0-.7,0-1.05a16.1,16.1,0,0,1,.06-1.68,13.54,13.54,0,0,1,.32-1.76c.07-.31.15-.62.19-.93s.09-.56.12-.83c.09-.62.17-1.26.31-1.89s.24-1.1.37-1.6a10.41,10.41,0,0,0-.91,1.15,12.46,12.46,0,0,0-.74,1.38c-.11.23-.22.46-.34.69-.35.69-.71,1.41-1,2.15s-.58,1.56-.79,2.28c-.15.5-.27,1-.39,1.6-.06.26-.11.52-.17.77-.16.69-.3,1.43-.47,2.42-.07.41-.17.81-.27,1.22a8.89,8.89,0,0,0-.25,1.2,10.77,10.77,0,0,0,0,1.18c0,.43,0,.87,0,1.3s-.08.8-.13,1.19-.11.89-.13,1.29,0,.83,0,1.29.05.8.05,1.2,0,.83,0,1.25,0,.86,0,1.24,0,.63,0,.95c0,.52,0,1,.09,1.54A2,2,0,0,1,160.7,273h-.19a2,2,0,0,1-2-1.81c-.05-.58-.07-1.18-.09-1.77,0-.3,0-.59,0-.89,0-.57,0-1.11,0-1.64,0-.33,0-.67,0-1s0-.66,0-1a15,15,0,0,1-.05-1.66,14.39,14.39,0,0,1,.15-1.67c0-.32.08-.65.11-1s0-.66,0-1a11.15,11.15,0,0,1,.4-3.36c.08-.31.16-.62.21-.94.19-1.06.34-1.87.52-2.63l.16-.72c.13-.62.27-1.26.47-1.91.24-.82.54-1.67.89-2.58s.79-1.76,1.16-2.51c.11-.2.21-.41.31-.62a14.84,14.84,0,0,1,1-1.86,19.85,19.85,0,0,1,1.82-2.23,12.82,12.82,0,0,1,1.94-1.65l.31-.23.42-.33a10.63,10.63,0,0,1,2.06-1.34c.12-.05.25-.09.37-.15a20.47,20.47,0,0,1,1.07-1.87l.09-.13a16.58,16.58,0,0,1,1.72-2.23,10.19,10.19,0,0,1,2-1.54l.45-.29a11,11,0,0,1,2.81-1.43,9.69,9.69,0,0,1,3-.65,8,8,0,0,1,2.83.64l.4.15a9.36,9.36,0,0,1,2.65,1.35,13.36,13.36,0,0,1,2.07,2.06,20,20,0,0,1,1.62,2.26c.5.84.92,1.62,1.28,2.38a13.94,13.94,0,0,1,.61,1.65c.09.28.18.56.29.84s.18.49.28.73a17.19,17.19,0,0,1,.63,1.72c.25.83.5,1.64.71,2.5s.38,1.67.55,2.52a14.71,14.71,0,0,1,.2,1.61c0,.32.05.64.09.95s.11.63.17.94c0,0,0,.07,0,.11a17.07,17.07,0,0,1,1.64-.57,14.46,14.46,0,0,1,2.26-.48,15,15,0,0,1,5.57.23c.63.16.88.22,1.45.41s1.07.37,1.56.59a17,17,0,0,1,3,1.66c.25.17.49.37.74.56l0-.5c0-.35,0-.68,0-1,0-.12,0-.24,0-.36s0-.14,0-.22,0-.27,0-.39,0-.47,0-.65a2,2,0,0,1,.08-.56,1.35,1.35,0,0,1,1.75-.77,1.41,1.41,0,0,1,.74.72,1.83,1.83,0,0,1,.11.57c0,.17,0,.39.06.64s0,.26,0,.4,0,.14,0,.21v0h0a.11.11,0,0,0,0,0v0l0,.11c.07.3.14.63.22,1,0,.18.07.35.11.53Zm31.51-29.88v0l0-.06,0-.1.28-.87.31-.8.32-.84.16-.43,0-.09,0-.12.08-.49.11-.61v0h0v0l.09-.24,0-.05,0-.1.1-.21a2.52,2.52,0,0,1,.21-.4,7.61,7.61,0,0,0,.38-.81,1.68,1.68,0,0,0,.08-.25s.08-.24.12-.37.1-.33.11-.41a1.6,1.6,0,0,1,.05-.21c.06-.36.07-.63.11-1l0-.23v0s0,0,0,0v0a.07.07,0,0,0,0-.05v-.18h0s0-.13,0-.21,0-.18,0-.42a5,5,0,0,1,.06-.54v0h0v0l0-.09.18-.91a5.21,5.21,0,0,1,.16-.63l.12-.31-.09-.23,0-.09-.05-.18-.06-.38,0-.37c0-.06,0-.08,0-.13l.08-.9v-.38l0-.45c0-.49,0-1.45.07-1.45l-.19-.94-.06-.27V205s0-.28,0-.3v-.07c0-.09,0-.1,0-.26s0-.26,0-.39l-.05-.08a2,2,0,0,1-.23-.41,4.49,4.49,0,0,1-.24-.67c0,.18,0-.35,0-.3V202c0-.11,0-.22,0-.33a3.61,3.61,0,0,1-.35-.66l-.1-.25-.05-.13-.06-.28v0l0-.21,0-.4v-.32l0-.09c-.1-.26-.21-.5-.32-.74l0-.09-.06-.18,0,0,0-.19-.1-.37-.06-.24,0-.06v0l-.05-.11-.07-.19-.23-.61,0-.06h0c-.08-.12-.08-.09-.06-.05l-.32-.33a3.52,3.52,0,0,1-.53-.86l-.14-.35-.06-.16,0-.06s0-.09,0-.14v0l-.11-.15-.44-.58-.36-.51-.28.11-.42.19c-.3.14-.61.27-.9.43s-.52.3-.77.46l-.48.3a3.68,3.68,0,0,0-.44.34c-.23.2-.47.38-.71.55a7.48,7.48,0,0,1-.83.48,4.65,4.65,0,0,0-.45.26c-.23.17-.47.33-.71.48a4.59,4.59,0,0,0-.51.35,1,1,0,0,1-.09.17,4.69,4.69,0,0,1-.81,1,4.31,4.31,0,0,1-1.15.73l-.16.08a.8.8,0,0,1-.08.17,5.24,5.24,0,0,1-.7,1.09c-.33.36-.65.74-1,1.12a4.28,4.28,0,0,1-1,.88l-.2.13c-.11.16-.21.32-.31.49a8.09,8.09,0,0,1-.46.73,7.68,7.68,0,0,1-.64.77,4.15,4.15,0,0,0-.33.38l-.07.24a4.89,4.89,0,0,1-.48,1.2c-.16.26-.35.51-.54.76s-.23.31-.33.48-.23.45-.34.69-.21.44-.33.67-.05.2-.08.32a5.66,5.66,0,0,1-.37,1.13c-.11.23-.22.45-.34.66s-.24.47-.35.72a5.66,5.66,0,0,1-.66,1.08c-.06.09-.14.18-.19.27s-.08.31-.12.52a7,7,0,0,1-.25,1,5,5,0,0,1-.54,1.11,1.87,1.87,0,0,0-.17.31c-.14.48-.28,1-.4,1.47a1.41,1.41,0,0,1,0,.22,4.56,4.56,0,0,1,0,1.36c0,.25-.07.49-.1.73s-.06.54-.1.8a6.48,6.48,0,0,1-.29,1.07,3.67,3.67,0,0,0-.13.43,7.26,7.26,0,0,1-.23,1,3.61,3.61,0,0,0-.12.47c0,.23,0,.47,0,.7s0,.57,0,.86c0,.05,0,.16.07.26a5.35,5.35,0,0,1,.19,1.29c0,.3,0,.59-.06.89s0,.44,0,.66a5,5,0,0,1-.2,1.37,1.43,1.43,0,0,0-.07.28c0,.15.05.38.09.6s.1.58.12.86a4,4,0,0,0,.12.46,6.72,6.72,0,0,1,.26,1.07,4.16,4.16,0,0,0,.13.59,7.83,7.83,0,0,1,.22.93c0,.3.07.6.1.9s0,.43.07.64.13.57.2.84.11.45.16.67a6.75,6.75,0,0,1,.14,1.14c0,.15,0,.36,0,.43s.12.27.2.44a6.71,6.71,0,0,1,.42,1c.09.33.2.65.31,1l.17.52a7.18,7.18,0,0,1,.25,1.09,4.13,4.13,0,0,0,.09.44,6,6,0,0,1,.28,1.18c0,.12,0,.25.07.36l.45,1.07.34-.39.24-.25.15-.16.14-.11.59-.48.64-.53.35-.29.09-.08.17-.13.2-.15.52-.31h0l.33-.42.46-.54.82-.79h0l.1-.12,0-.05h0l0-.08.09-.19a3.64,3.64,0,0,1,.35-.5l.11-.14.21-.19,0,0,.13-.1.22-.15.31-.17.09,0,.05,0h0s-.05,0-.06,0c.06-.15.11-.29.19-.46a3.85,3.85,0,0,1,.23-.38l.12-.18,0,0c0-.06-.07.06.12-.13l0,0,.26-.24.21-.19.15-.13,0,0h0l.1-.15.2-.31.26-.37.14-.18,0,0,.15-.16.07-.07.14-.13.28-.22.16-.12,0,0,0-.06,0,0a.25.25,0,0,0,0,.07v0l0-.15a3.08,3.08,0,0,1,.09-.3,3.33,3.33,0,0,1,.25-.5l.14-.24.12-.14,0,0,.13-.15.5-.52,0-.06,0,0,0,0,.12-.16.26-.31.25-.31.18-.22.14-.15.38-.44a5.89,5.89,0,0,0,.42-.7l.21-.36,0-.05v0h0l.13-.18.06-.08.14-.16.48-.53,0,0,.06-.09.12-.17.24-.36.12-.18a.63.63,0,0,0,0-.12l0,0a.14.14,0,0,0,0,.06v0l0-.3a2.45,2.45,0,0,1,.12-.47l.1-.27,0-.06c0-.08,0,.07.1-.19l0,0,.45-.71.11-.17.15-.22.06-.09.26-.36a2.43,2.43,0,0,0,.34-.54l.38-.81v0l.1-.16,0-.05.06-.09.11-.19a5,5,0,0,1,.3-.43l.17-.23.06-.13a.19.19,0,0,0-.06.07.87.87,0,0,1,0-.1,1.75,1.75,0,0,1,.08-.31A2.65,2.65,0,0,1,247.11,223.1Zm1,5.93h0v0l0,0-.08.11-.41.63v0l0,.19-.06.27a2.75,2.75,0,0,1-.21.63l0,0-.2.38,0,0,0,0-.06.09-.12.18-.54.74-.64.73-.14.16-.21.35a5.67,5.67,0,0,1-.45.72l-.39.47a3.19,3.19,0,0,1-.3.32l-.13.14h0v0s0,0,0,0h0l0,.05-.26.3-.27.31-.13.15-.1.11-.07.08-.6.61,0,0,0,.08a4,4,0,0,1-.15.45l-.09.21,0,.09-.08.15,0,0-.16.24,0,0-.07.08-.15.15a2.64,2.64,0,0,1-.29.25c-.09.06-.26.19-.31.21h0l-.13.12h0l-.07.09-.16.22-.21.3-.11.14,0,0,0,.07,0,0-.1.09-.37.36a2.28,2.28,0,0,1-.31.28l-.16.14,0,.05a6,6,0,0,1-.32.67l-.1.13,0,.05,0,0h0l-.18.22-.08.07a3.11,3.11,0,0,1-.94.59v0s0,0-.06,0h0l-.13.25-.18.27,0,.06,0,0,.29-.15.58-.31h0l.25-.1h0l.09,0,.18-.05.34-.07.25,0h.1l.1-.06.63-.35.06,0,.08-.06.3-.21.34-.24.18-.12.09-.06a2.53,2.53,0,0,1,.24-.12h.07l.18-.07.39-.1.12,0,.13-.19a2.15,2.15,0,0,1,.3-.35l.21-.19.11-.09,0,0a1.15,1.15,0,0,1,.21-.13h0a3.35,3.35,0,0,1,.53-.22l.35-.11.2-.19c.19-.18.65-.57.81-.69l.69-.49.07-.06h0l.21-.13,0,0,.2-.09.43-.16.23-.06.15-.14.38-.32.2-.17.05,0,0,0L248,237l.08,0,.69-.4h0l.11-.11h0l.05-.06.11-.14a2.24,2.24,0,0,1,.32-.33l.24-.2.12-.09.06,0,.13-.07.41-.21.85-.42a4.8,4.8,0,0,1,.59-.26l.78-.51.07,0,.08-.08h0l.09-.13a5.18,5.18,0,0,1,.52-.62l.35-.32.68-.63.74-.7.68-.68.66-.71.21-.22.15-.11,0,0,0,0,.1-.07.36-.25c.43-.31,1.26-.91,1.08-.85l0,0v0l.16-.32a5.16,5.16,0,0,1,.38-.51l.05-.06,0,0a2,2,0,0,1,.23-.21l0,0,.1-.07.13-.09.25-.15.21-.11a5.09,5.09,0,0,1,.27-.5l.19-.27.14-.19.17-.19.32-.37.16-.19,0-.05,0,0,.2-.2.1-.08a5,5,0,0,1,.7-.49l.12-.16.32-.44.17-.23.13-.15,0,0,.05,0,.08-.09.32-.31.12-.11.06,0,.05-.1a.18.18,0,0,0-.05.07l0-.07.06-.17.07-.17.15-.28.16-.27,0-.06.1-.13,0-.05.17-.19.27-.31.1-.12,0,0,0-.08.25-.43.17-.3.05-.11a.92.92,0,0,0,0-.09h0c0-.08.07-.27.12-.43a5.49,5.49,0,0,1,.21-.51l.11-.22.58-1,.14-.21a4.65,4.65,0,0,1,.32-.4l.15-.17,0-.07.17-.49.09-.27,0-.13v0l.11-.21,0-.05.14-.23c.09-.14.19-.27.29-.4l.1-.12v0l.07-.17.17-.44.07-.19v-.07a.15.15,0,0,0,0-.06h0a.27.27,0,0,0,0,.12v-.48l.05-.33.06-.32,0-.16.06-.23.1-.46.06-.23,0-.11v0l.06-.18,0-.06.18-.42A1.94,1.94,0,0,1,269,211l0-.06,0,0,.05-.2v0l.08-.22.13-.37.05-.11,0-.05,0,0c0-.27.05-.54.06-.81v-.2s0-.09,0-.09a.43.43,0,0,1,0,.05v0l-.06-.31a3.39,3.39,0,0,1-.06-.54v-.21a.72.72,0,0,0,0-.15v-.11l0-.22.09-.94,0-.22c0-.07.07-.3.1-.44l.08-.24,0-.28-.07-.38v0l-.06-.2c-.08-.29-.17-.6-.26-.89v0l0-.07s0,0,0,.06l0,0-.05-.2-.12-.4-.13-.42,0,0v0a.41.41,0,0,1,0-.09v0l0-.1,0-.2c0-.2-.07-.39-.11-.58l-.24-.64-.14-.36v0l0-.14v0l0-.1,0-.18c-.07-.3-.09-.36-.11-.5l-.66-1-.36-.61-.08-.15-.05-.07-.05-.1,0,0-.14-.31a2.25,2.25,0,0,1-.16-.35v0h0s0,0,0,0a1,1,0,0,0-.11-.18l0,0-.08-.14-.16-.29a1.87,1.87,0,0,1-.14-.3h0l0,0-.1-.11-.21-.23a4.12,4.12,0,0,0-.28-.31l0,0-.06,0c-.07-.05,0,0,0,0l.06,0-.05,0-.17-.09a3.3,3.3,0,0,1-.51-.3,3,3,0,0,1-.31-.24l-.1-.1-.19-.18-.28-.27,0,0h0c-.27-.15-.58-.28-.87-.41h0s-.06,0-.17-.1l0,0-.09-.07a1.37,1.37,0,0,1-.21-.17c-.13-.11-.26-.23-.39-.33h0l-.1,0-.57-.26-.08,0-.1,0-1.12-.23a1.91,1.91,0,0,1-.81-.39,4.86,4.86,0,0,0-.55-.1l-.58-.1a4.59,4.59,0,0,1-1.2-.42l-.22-.1a3.61,3.61,0,0,0-.55,0c-.28,0-.56,0-.83,0a7.36,7.36,0,0,1-.81-.06c-.21,0-.41,0-.56,0l-.23.08a4.79,4.79,0,0,1-1.24.35c-.26,0-.53,0-.8,0s-.42,0-.63,0a6.67,6.67,0,0,1-.91.1l-.32,0,.06.08.11.15.2.27.27.54.13.27.08.19.09.22.12.12a4,4,0,0,1,.46.55l.06.08,0,0h0l.14.23.1.24.2.48.14.37.07.19v0l0,.13.16.54.12.4.05.18,0,.08c.12.25.23.51.33.76l.08.2,0,0a1.45,1.45,0,0,1,.06.22v0l0,.14.07.56.05.41a6.34,6.34,0,0,1,.38.71l.08.19h0v0s0,.1.08.24v.07l0,.16,0,.31,0,.31v.18l0,.26a4.23,4.23,0,0,1,.24.4l.12.25,0,.1,0,.11,0,.05v0l.1.42h0a5.72,5.72,0,0,1,0,.59c0,.24,0,.27,0,.4s0,.2,0,.24a0,0,0,0,0,0,0,.42.42,0,0,0,0,.14h0l0,.16.16.8a13.8,13.8,0,0,1,0,2.13l0,.45v.53l-.08.79,0,.1.11.28a4.44,4.44,0,0,1,.16.71v0s0-.2,0,.36V211l0,.17a2,2,0,0,1-.06.32,1.84,1.84,0,0,1-.08.3l-.06.17-.12.29a.08.08,0,0,0,0,0,1.28,1.28,0,0,0-.07.26l-.19.9,0,.17h0v0l0,.25c0,.15,0,.31,0,.47v.23l-.06.6c0,.29-.06.64-.1.88l-.15.69a4.93,4.93,0,0,1-.14.48,4.5,4.5,0,0,1-.16.51c-.07.2-.17.48-.23.62a8.36,8.36,0,0,1-.42.85,4.36,4.36,0,0,0-.23.42l-.1.2h0l-.11.68,0,.22-.08.3,0,.05,0,.11-.17.42-.35.87-.36.9-.31.86-.1.29h0a.79.79,0,0,1,0,.13l-.07.3c-.06.19-.13.38-.2.56s-.08.15-.12.24l0,0v0l-.16.26-.06.06-.1.13a2.49,2.49,0,0,0-.23.31l-.12.18-.06.1-.38.75a5.69,5.69,0,0,1-.61,1l-.26.35Zm36.43,29.65,0-.13,0-.24,0-.11-.11-.41-.23-1-.23-.93,0-.12v-.06l0-.1-.14-.46c-.19-.61-.38-1.21-.56-1.81l-.28-.89-.14-.45-.13-.34-.12-.34-.05-.18,0-.08v0a3.31,3.31,0,0,0-.39-.57l-.48-.59-.33-.44-.17-.24-.08-.12-.05-.06-.09-.16c-.14-.28-.26-.47-.42-.83s-.24-.54-.37-.81a2.38,2.38,0,0,0-.65-.91l-.46-.39a9.38,9.38,0,0,1,.11,1.21v.17c0,.74-.23,1.51-.27,2.3s.14,1.55.1,2.31-.27,1.67-.36,2.47-.19,1.65-.32,2.43-.64,1.75-.8,2.48c-.23,1-.36,1.79-.53,2.38-.26.9-.52,1.74-.76,2.55s-.43,1.73-.7,2.57-.73,1.59-1,2.45-.48,1.66-.84,2.53c-.27.66-.67,1.5-1.09,2.48-.32.77-.91,1.52-1.31,2.39s-.74,1.77-1.16,2.58-1,1.53-1.5,2.28a15.76,15.76,0,0,1-1.4,2.11,21.83,21.83,0,0,0-1.19,2c-.5.68-1,1.42-1.47,2.05a19.88,19.88,0,0,1-1.58,1.84c-.1.1-.22.2-.32.31h.1l1.08-.16,1.07-.21.78-.08h.82l.54,0c.15,0,.16,0,.26,0l1.09-.41c.2-.1.41-.19.63-.28l.32-.15.16-.07,0,0h0l1.38-.68.71-.35.13-.07.34-.21c.48-.29.9-.57,1.31-.86s.73-.48,1.1-.71a18.32,18.32,0,0,1,1.57-2.73c.63-.84,1.29-1.69,1.87-2.64s.83-2,1.32-3,1.35-1.74,1.78-2.74.64-2.07,1-3.1.75-2,1-3.07.5-2.1.72-3.16.09-2.17.24-3.24S284.5,259.75,284.58,258.68Zm-15.05-11.53c.08-.94-.09-2.17-.06-3.09a21.51,21.51,0,0,0-.18-2.71,11.12,11.12,0,0,0-.67-2.7c0-.07,0-.11,0-.17l-.07,0-.78-.28-.06,0-.12,0-.34-.09-1.12-.28-.08,0a1.46,1.46,0,0,1-.66.07s-.34,0-1-.16c-.25,0-.59-.12-.89-.12h-1.57l-1,0c.15.85,0,2,.18,2.83.58,2.45-.55,3.53-.59,5.63a32,32,0,0,1-1.44,7.58,29.14,29.14,0,0,1-2.05,5.57c-1.23,2-.8,3.77-2.33,5.6s-1.06,3.49-2.95,5.69c-1.63,1.89-1.08,2.8-2.83,5.25-1.33,1.86-2.69,4.32-5.09,6.45l.2.24.52.61.07.08h0l.08.08.28.28.55.55.27.28,0,0,.14.1a33.64,33.64,0,0,0,4.24,2.93l.28.17c.3-.29.66-.61,1-1a22.62,22.62,0,0,0,4.1-4.59c.44-.76.92-1.52,1.43-2.29s.91-1.54,1.38-2.31,1-1.48,1.47-2.27,1.05-1.48,1.47-2.28.62-1.7,1-2.51.78-1.63,1.14-2.45.89-1.59,1.16-2.44c.35-1.14.46-1.76.75-2.59s.56-1.65.86-2.57.81-1.61,1.06-2.5.5-1.74.72-2.62.26-1.82.42-2.69.32-1.81.41-2.67S269.45,248.09,269.53,247.15Zm-32.07.16.42-.65-.09.05v0l-.2.1h-.05l-.07,0-.14.05-.56.22-.3.12a4.69,4.69,0,0,1-.58.17l-.38.06h0l-.18,0h0l-.12.05-.87.42-.84.38c-.18.07-.11.06-.16.07s-.08.07-.13.1-.39.34-.45.38l-.07.05h0l-.22.13,0,0-.16.07-.56.26-.25.12a2.18,2.18,0,0,1-.38.12l-.52.12c.23.14.46.28.67.43a11.43,11.43,0,0,1,1.53,1.49,13.4,13.4,0,0,1,1.34,1.76c.05.07.1.17.15.25.09-.28.18-.57.28-.85s.18-.62.28-.93l.16-.47.08-.24,0-.06.12-.26v0l0-.11.44-.89.21-.44.11-.22a2.85,2.85,0,0,1,.26-.42,3.89,3.89,0,0,1,.48-.63l.22-.24.12-.12a1.65,1.65,0,0,0,.22-.25l.15-.19,0,0Zm0-59.5h0Zm-22.58,84.11a15.77,15.77,0,0,0,.34-6.26,13,13,0,0,0-.3-1.54,14.31,14.31,0,0,0-1.74-4.11,12.59,12.59,0,0,0-1.76-2.25,12.9,12.9,0,0,0-2.08-1.79,12.7,12.7,0,0,0-2.25-1.28c-.39-.18-.75-.31-1.09-.43s-1-.28-1.18-.33a11.8,11.8,0,0,0-4.13-.22,9.69,9.69,0,0,0-1.72.34c-.5.13-1,.32-1.43.47l-.92.41a2,2,0,0,1-1.86,2,2.25,2.25,0,0,1-.69-.09c-.18.18-.38.36-.58.59a9.37,9.37,0,0,0-.71.79c-.25.28-.47.61-.72.94s-.47.69-.69,1a11.28,11.28,0,0,0-.61,1.17l-.17.34-.08.17h0l0,.08-.25.59c-.14.41-.3.8-.4,1.19a10,10,0,0,0-.29,1.14c-.06.37-.14.72-.16,1.06a11.39,11.39,0,0,0-.09,1.63c0,.22,0,.4,0,.52a.54.54,0,0,1,0,.18,1.47,1.47,0,0,1-.24.4l0,0c.2.19.39.37.56.55l.25.25.06.06,0,0,.1.13,0,0,.06.1.25.36.39.57.33.48,0,0a2,2,0,0,1-3.2,2.24l-.34-.47-.4-.56c-.08-.11-.16-.23-.26-.35v0l0,0-.11-.1a2.4,2.4,0,0,1-.24-.22c-.09-.09-.3-.23-.45-.35l-.44-.33-.38-.31-.58-.33h-.06a.74.74,0,0,0-.19-.05,5.22,5.22,0,0,0-.61-.07l-.71-.05-.3,0-.46,0-.24,0h0l-.29.06-.15,0-.22.07-.48.15-.49.22a5.31,5.31,0,0,0-1.32,1l-.19.19-.06.06h0l0,0a1.37,1.37,0,0,1-.15.21,3,3,0,0,0-.24.38l-.26.46a5.43,5.43,0,0,0-.37.76l-.11.26,0,.13h0l-.11.36a2.22,2.22,0,0,0-.11.5l-.06.29v0l0,1.15v.27l0,.59.06.59,0,.24,0,.09.29,1.16,0,.14,0,.08v0l.05.19c.06.17.09.33.16.52l.2.57,0,.08,0,.05.11.18c.07.13.1.21.21.39l.32.5.07.11,0,0,.17.25.35.48.34.49,0,.06,0,0,.14.15a2.62,2.62,0,0,0,.29.32l.44.39.11.1h0l.17.13a2.52,2.52,0,0,0,.34.27l.49.31.12.07h0l.13.07.36.18.54.17.23.08h0l.09,0,.36.06c.26,0,.79.07,1,.08h.52l.26,0,.53-.07s.17-.05.25-.06.18,0,.33-.08l.47-.18.36-.14.35-.13a6.18,6.18,0,0,0,.81-.41l.09-.08.21-.18c.16-.16.38-.43.56-.64s.21-.28.32-.41.25-.45.38-.66l.06-.12v0l0-.06.08-.23a9.15,9.15,0,0,0,.31-1.14c0-.17.08-.32.11-.47s0-.37.08-.53l0-.26v-.11c0-.11,0-.22,0-.32a2.35,2.35,0,0,0,0-.27c0-.12,0-.22,0-.31,0-.38,0-.58,0-.58a1.44,1.44,0,0,1,2.8-.44v0a4.62,4.62,0,0,1,.15.56c0,.09,0,.19.06.31s0,.3.06.47,0,.1,0,.15a12.6,12.6,0,0,0,2.94,1.7,13.1,13.1,0,0,0,5,1,12.83,12.83,0,0,0,5.49-1.21,13.12,13.12,0,0,0,4.71-3.71A14.69,14.69,0,0,0,214.87,271.92Zm-22.34-19c0-.08,0-.15,0-.22-.05-.43-.13-.85-.22-1.27s-.14-.73-.19-1.1-.1-.81-.13-1.22a11.76,11.76,0,0,0-.14-1.17c-.15-.78-.31-1.57-.5-2.34s-.42-1.52-.64-2.25c-.15-.49-.33-.94-.53-1.42-.11-.28-.22-.55-.32-.82s-.24-.69-.35-1a11.9,11.9,0,0,0-.42-1.17,20.49,20.49,0,0,0-1.09-2,14.6,14.6,0,0,0-1.27-1.78,9.11,9.11,0,0,0-1.46-1.46,6,6,0,0,0-1.57-.75l-.43-.16a4.9,4.9,0,0,0-1.38-.38,7.24,7.24,0,0,0-1.82.45,7.41,7.41,0,0,0-1.83,1l-.54.35a6.73,6.73,0,0,0-1.26.92c-.13.14-.27.3-.4.47l.45,0a11.1,11.1,0,0,1,3.08.94,14.82,14.82,0,0,1,2.55,1.64,19.31,19.31,0,0,1,2.21,1.88,13.87,13.87,0,0,1,1.24,1.53c.16.24.33.47.51.7s.36.44.55.65a16.78,16.78,0,0,1,1.19,1.52c.39.61.73,1.22,1.05,1.82l.32.58c.38.68.7,1.37,1,2l.2.42.33.69c.28.57.57,1.17.82,1.8a12.17,12.17,0,0,1,.48,1.59l.11-.08.28-.2ZM207,268.55a6.79,6.79,0,0,1,.12,2.17,7.66,7.66,0,0,1-.57,2.08,7,7,0,0,1-1.19,1.82,7.57,7.57,0,0,1-1.55,1.33,6.5,6.5,0,0,1-1.92.87,6.26,6.26,0,0,1-1.45.17c-.23,0-.45,0-.67,0a6.51,6.51,0,0,1-2-.57,7.28,7.28,0,0,1-1.69-1.16A6.14,6.14,0,0,1,194.9,274l-.22-.33a4.62,4.62,0,0,1-.58-1.1,7.47,7.47,0,0,1-.33-2.42,7.15,7.15,0,0,1,.33-2.36,6.17,6.17,0,0,1,1.22-2.15,7.63,7.63,0,0,1,1.6-1.31,6.93,6.93,0,0,1,1.92-.86,6.28,6.28,0,0,1,2.12-.21,6.16,6.16,0,0,1,2.09.47,6.74,6.74,0,0,1,1.77,1.15,6.91,6.91,0,0,1,1.39,1.67A6.23,6.23,0,0,1,207,268.55Zm-2.37,1.87a4.47,4.47,0,0,0-.08-1.38,4,4,0,0,0-.49-1.25,4.74,4.74,0,0,0-.89-1.07,4.48,4.48,0,0,0-1.12-.74,4.17,4.17,0,0,0-1.28-.28h-.27a3.94,3.94,0,0,0-1,.14,4.45,4.45,0,0,0-1.23.56,5.15,5.15,0,0,0-1.08.87,3.68,3.68,0,0,0-.71,1.29,4.68,4.68,0,0,0-.2,1.54,5.25,5.25,0,0,0,.18,1.57,2.2,2.2,0,0,0,.29.55l.25.37a1.71,1.71,0,0,0,.11.14,3.59,3.59,0,0,1,1.92-4.29,3.44,3.44,0,0,1,4.62,1.71,3.52,3.52,0,0,1,.11,2.51,4.11,4.11,0,0,0,.53-.85A4.87,4.87,0,0,0,204.65,270.42Z" style="fill: #1d1d1b"/>
  </g>
</svg>
