<svg xmlns="http://www.w3.org/2000/svg" viewBox="0 0 500 500">
  <title>bee-right</title>
  <g>
    <path d="M238.34,276.06c-.17-.3-.38-.59-.59-.89a14.18,14.18,0,0,1-.91-1.43,13,13,0,0,1-.67-1.62,9.4,9.4,0,0,0-.36-.94c-.42-.84-.81-1.69-1.18-2.54-.13-.29-.28-.56-.42-.83a10.66,10.66,0,0,1-.82-1.82c-.17-.54-.28-1-.39-1.36s-.2-.75-.33-1.15c-.28-.77-.55-1.62-.85-2.51l0-.13a5.49,5.49,0,0,0-.38-.87,10,10,0,0,1-.69-1.67c-.26-.88-.51-1.79-.74-2.7a15.37,15.37,0,0,1-.31-1.84c0-.32-.08-.65-.13-.94-.2-1-.34-1.95-.44-2.84a4,4,0,0,0-.22-.87,8.41,8.41,0,0,1-.39-1.79,13.76,13.76,0,0,1,0-2c0-.41,0-.81,0-1.19a19.73,19.73,0,0,1,.15-2.54l0-.39a12.37,12.37,0,0,1,.73-3.06c0-.08,0-.17.07-.26a2,2,0,0,1,1-1.17l.34-.13.71-.25.11,0,.14,0,.91-.23.65-.16h0l.08,0a2,2,0,0,1,1,0l.7-.12.21,0,.16,0a5.13,5.13,0,0,1,.91-.1l2.65,0a2,2,0,0,1,1.49.74,2,2,0,0,1,.42,1.61,6.29,6.29,0,0,0,0,.94,8.74,8.74,0,0,1-.16,2,4.23,4.23,0,0,0,.18,2.47,10,10,0,0,1,.46,2.66,29.61,29.61,0,0,0,1.35,7l.36,1.14a20.33,20.33,0,0,0,1.48,4,10.34,10.34,0,0,1,1.22,3.16,5.08,5.08,0,0,0,.94,2.21,8.77,8.77,0,0,1,1.59,3.09,6.84,6.84,0,0,0,1.35,2.58,8.9,8.9,0,0,1,1.75,3.08,8.32,8.32,0,0,0,1.19,2.31c.31.44.63.91,1,1.4a23.29,23.29,0,0,0,3.83,4.72,2,2,0,0,1,.27,2.69c-.09.12-.19.24-.28.34l-.6.71-.1.11-1.23,1.23-.23.2-.07,0a36,36,0,0,1-4.42,3.06l-.24.15-1.1-1.68,1,1.72a2,2,0,0,1-1,.28,2,2,0,0,1-1.39-.56l-.63-.59-.58-.53a22.84,22.84,0,0,1-4.28-4.88c-.38-.66-.83-1.38-1.37-2.18-.32-.49-.61-1-.91-1.51-.17-.29-.33-.58-.5-.86s-.38-.58-.58-.87C239,277.07,238.64,276.6,238.34,276.06Zm-24.91-17.23a9.92,9.92,0,0,0,.44,2.12,9.49,9.49,0,0,1,.28,1.15,12.22,12.22,0,0,1,.07,1.25,12.62,12.62,0,0,0,.19,2.12c.23,1.1.46,2.2.75,3.29.22.85.51,1.64.79,2.41l.28.8c.13.36.23.75.35,1.13a18.63,18.63,0,0,0,.68,2.08,9.1,9.1,0,0,0,1.21,1.94,7.55,7.55,0,0,1,.64.95,11.68,11.68,0,0,1,.46,1.08,13.53,13.53,0,0,0,.93,2c.56.91,1.16,1.71,1.74,2.48l.24.32a13,13,0,0,1,1.16,2l.24.47a2,2,0,0,0,.71.77l.21.13c.26.16.52.32.78.5.46.33.92.64,1.45.95l.32.2a.39.39,0,0,0,.11.06l.34.18c.2.11.4.21.61.3l1.23.61.09,0,.14.06.43.2.09,0,.5.22.2.09,1.08.41a2.66,2.66,0,0,0,.38.1,2.53,2.53,0,0,0,.54.06l.47,0h.79l.63.06,1,.19c.26.05.45.07.65.1l.48.07.16,0h.29a2,2,0,0,0,1.48-3.35l-.32-.31a17.56,17.56,0,0,1-1.44-1.66l-.65-.92c-.28-.38-.55-.77-.83-1.14a6.15,6.15,0,0,1-.3-.56,7.2,7.2,0,0,0-1-1.56,8.72,8.72,0,0,1-.86-1.27c-.11-.19-.23-.39-.36-.59s-.44-.67-.68-1a8.66,8.66,0,0,1-.74-1.13c-.24-.46-.47-1-.7-1.54q-.21-.5-.42-1a11.71,11.71,0,0,0-.77-1.39,8.42,8.42,0,0,1-.51-.94c-.21-.48-.41-.92-.59-1.32s-.36-.81-.5-1.15-.3-.85-.44-1.31-.24-.78-.37-1.15a13.53,13.53,0,0,0-.57-1.31,9.22,9.22,0,0,1-.44-1.05c-.14-.43-.25-.85-.35-1.28s-.22-.84-.34-1.26l-.29-1-.47-1.58c-.08-.29-.15-.65-.24-1.06s-.16-.78-.26-1.23a8.77,8.77,0,0,0-.44-1.31,7,7,0,0,1-.34-1c-.11-.66-.19-1.36-.28-2.09l0-.23c0-.36-.11-.74-.18-1.12a8.7,8.7,0,0,1-.17-1.19,5.71,5.71,0,0,1,0-.9,9.33,9.33,0,0,0,.06-1.44c0-.49-.1-1-.16-1.36a7.43,7.43,0,0,1-.11-.92v-.09a6.32,6.32,0,0,1,.08-.81v-.14a2,2,0,0,0-3.27-1.78l-.46.39-.14.12a4.21,4.21,0,0,0-.95,1.31l-.06.11c-.15.31-.28.6-.41.89s-.14.3-.21.42-.09.18-.14.27l0,.06-.22.32-.25.33-.41.5a5.67,5.67,0,0,0-.62.88,2,2,0,0,0-.19.42l-.07.2-.24.68s0,.08,0,.12l-.42,1.33c-.14.48-.28.93-.42,1.38l-.32,1a2,2,0,0,0-.05.24l-.57,2.28a1.24,1.24,0,0,0,0,.16l0,.11s0,.08,0,.12l0,.13A1.92,1.92,0,0,0,213.43,258.83Zm33.71-18.61c0-.1,0-.2.05-.3a2,2,0,0,1,2.75-1.38l1.1.5.09,0a1.41,1.41,0,0,1,.29.18l.44.33c.21.14.42.31.62.47l.31.24a.27.27,0,0,1,.08.07l0,0,.28.16c.27.13.53.26.85.4l.33.2a1.86,1.86,0,0,1,.32.23l.08.08c.37.33.77.72,1.09,1l.2.19,1.32,1.25a.68.68,0,0,1,.12.12l1.16,1.28a2,2,0,0,1,.22.29l1.91,3.08a8.21,8.21,0,0,0,.7.86c.09.11.19.21.28.33a2.46,2.46,0,0,1,.31.48l.7,1.54c0,.06.05.12.07.17l1.08,3.58.46,1.26,1.34.93.22.06.32-.17a11.79,11.79,0,0,1,.53-1.55,13.64,13.64,0,0,1,.9-1.61,11.82,11.82,0,0,1,1.07-1.4A9.08,9.08,0,0,1,270,251.9a7,7,0,0,1,1.64-.93,6.08,6.08,0,0,1,1.71-.42,2.05,2.05,0,0,1-.42-2.47c.8-1,1.8-1,3.35-.42l.95,1,.2.2.08.08.3.34a.49.49,0,0,1,.12.13l.09.11.11.13c2.47.84,2.36-.15,3-.64s.64,0,.84,1l.23,1a.78.78,0,0,1,0,.16l0,.16v0a1,1,0,0,1,0,.17l.13,1.2s0,.08,0,.13v.05a.49.49,0,0,1,0,.12c0,.27,0,.52,0,.77l0,.5a2.26,2.26,0,0,1,0,.26,1.62,1.62,0,0,1,0,.22v.17a4.48,4.48,0,0,1,0,.73,2,2,0,0,1,1.77.53,2.18,2.18,0,0,1,.41,1.68,3.46,3.46,0,0,1-.42,1.44s.49.37.89-.27a14.92,14.92,0,0,1,2-2.58,15.34,15.34,0,0,1,2.38-2,13.74,13.74,0,0,1,2.58-1.47,12.59,12.59,0,0,1,1.26-.5c.42-.15,1.17-.35,1.4-.4a13.89,13.89,0,0,1,4.82-.25,10.36,10.36,0,0,1,2,.39c.53.13,1,.32,1.45.46l.15.06.18.07.45.2.49.22a2.23,2.23,0,0,1,.41.27,3.07,3.07,0,0,1,.51.26l.94.56a2.46,2.46,0,0,1,1,1.06,2,2,0,0,1,.23.18l.14.13c.17.17.36.35.47.49l.09.09a9.62,9.62,0,0,1,.72.81,8.8,8.8,0,0,1,.57.73l.19.25a12.32,12.32,0,0,1,.69,1l.11.18a.41.41,0,0,1,.07.11l.14.26a9.16,9.16,0,0,1,.53,1l.24.5h0c0,.06.05.11.07.16l.25.59a1.12,1.12,0,0,1,.05.13l.12.35a7.91,7.91,0,0,1,.3.9,7.24,7.24,0,0,1,.26,1l.06.28a.4.4,0,0,1,0,.15l.05.28a7.82,7.82,0,0,1,.13.92,13.55,13.55,0,0,1,.1,1.81v.08a2,2,0,0,1,.24,1.42,2,2,0,0,1-.48.95l.08-.06.15-.11c.13-.11.28-.22.45-.34l.31-.25a1.78,1.78,0,0,1,.36-.25c.16-.08.32-.18.48-.28a2.27,2.27,0,0,1,.5-.2,2.46,2.46,0,0,1,.45-.11,6.08,6.08,0,0,1,.77-.09l.74-.05.24,0h.29l.7,0,.35,0,.37.07a2.81,2.81,0,0,1,.55.16l.41.12.2.08.54.24.22.12.37.23a6,6,0,0,1,1.29,1l.26.25a1.85,1.85,0,0,1,.3.39,4,4,0,0,1,.35.53l.34.6a1.39,1.39,0,0,1,.11.21,4,4,0,0,1,.38.8l.17.41a1.42,1.42,0,0,1,.07.22l0,.18a3.82,3.82,0,0,1,.19.78l.06.29a2.33,2.33,0,0,1,0,.38l0,1.47a1,1,0,0,1,0,.17l-.15,1.5a.63.63,0,0,1,0,.19l0,.14-.3,1.23s0,.12,0,.15,0,.09,0,.14l0,.09a1,1,0,0,0-.05.16l0,.1c0,.14-.09.29-.13.41l-.2.57a2,2,0,0,0-.08.22,2.64,2.64,0,0,1-.15.29l-.09.15a4.41,4.41,0,0,1-.26.46l-1.33,1.95a1.93,1.93,0,0,1-.22.28l-.12.13a3.62,3.62,0,0,1-.44.47l-.48.42a1.12,1.12,0,0,1-.2.17l-.14.12a3.22,3.22,0,0,1-.51.38l-.67.42-.19.09-.44.23-.3.12-.71.23a2,2,0,0,1-.33.08h0l-.1,0-.39.07c-.31.05-.94.09-1.17.1h-.86l-.74-.09a2,2,0,0,1-.47-.1l-.1,0a3.66,3.66,0,0,1-.54-.15l-1.11-.42a5.07,5.07,0,0,1-.87-.41l-.19-.11a2.23,2.23,0,0,1-.44-.29l-.27-.24-.12-.11c-.15-.15-.34-.38-.53-.59l-.32-.4-.14-.18-.07-.09a5.48,5.48,0,0,1-.38-.63,1.62,1.62,0,0,1-.1-.18L308,284l-.06-.13c0-.08-.1-.23-.13-.31l0-.13a5.42,5.42,0,0,1-.32-1.1,1.47,1.47,0,0,0-.05-.19v0a23.37,23.37,0,0,1-3.85,1.35,15.14,15.14,0,0,1-4.7,1l-.76.12a3,3,0,0,1-1.79-.21,14.75,14.75,0,0,1-4.48-1.27,15.29,15.29,0,0,1-5.43-4.27,16.78,16.78,0,0,1-3.16-6.35,17.39,17.39,0,0,1-.44-2.58l-.35-.06,0,.05a9.24,9.24,0,0,1-.55,1.52A6.82,6.82,0,0,1,280,274a8.13,8.13,0,0,1-1.22,1l-.4.26a4.55,4.55,0,0,1-1,.62,7.33,7.33,0,0,1-1.58.41,8.74,8.74,0,0,1-1.76.19,5.74,5.74,0,0,1-.6,0,2,2,0,0,1-1.79-1.59.22.22,0,0,0-.18-.17.21.21,0,0,0-.12,0,2,2,0,0,1-2.46-.14,9.71,9.71,0,0,1-1-1,9.26,9.26,0,0,1-1.1-1.48,12.65,12.65,0,0,1-.7-1.63,13.22,13.22,0,0,1-.48-1.66c-.06-.27-1,.35-1,.35a.68.68,0,0,0,0,.14l-.29,1.6a2,2,0,0,1-.07.26l-.12.37c-.08.25-.15.49-.24.72l-.21.58,0,.08,0,.11a2.72,2.72,0,0,1-.11.25v0a2,2,0,0,1-1.71,1.12h-.09a2,2,0,0,1-1.71-1c-.08-.14-.2-.22-.5-.44a4.3,4.3,0,0,1-1.64-1.8c-.16-.34-.37-.83-.62-1.41a30.74,30.74,0,0,0-2.35-4.74,10.22,10.22,0,0,1-1.72-4.24c-.09-.39-.21-.92-.26-1l-.17-.27c-1.23-1.94-2.27-3.68-2.45-5.23a13.17,13.17,0,0,0-.57-1.54,23.7,23.7,0,0,1-2-7.4c-.08-1-.24-2.17-.37-3.14A10.52,10.52,0,0,1,247.14,240.22Zm47.7,30.25a5.52,5.52,0,0,0,.42,1.52,5,5,0,0,0,.84,1.29,6.12,6.12,0,0,0,1.13,1A3.92,3.92,0,0,0,300,275a4.67,4.67,0,0,0,1.4-.39,5.83,5.83,0,0,0,1.23-.87,4.22,4.22,0,0,0,.8-.87l.22-.34a2.44,2.44,0,0,0,.36-.66,5.88,5.88,0,0,0,.21-1.74,5.3,5.3,0,0,0-.22-1.71,4.19,4.19,0,0,0-.82-1.46,5.66,5.66,0,0,0-1.18-1,4.87,4.87,0,0,0-1.39-.62,4,4,0,0,0-1.45-.14,4.08,4.08,0,0,0-1.44.31,5.18,5.18,0,0,0-1.24.82,5.12,5.12,0,0,0-1,1.2,4.12,4.12,0,0,0-.56,1.41A4.82,4.82,0,0,0,294.84,270.47Z" style="fill: #ffdc00"/>
    <path d="M305.31,269.89a5.59,5.59,0,1,1-5.59-5.58A5.59,5.59,0,0,1,305.31,269.89Z" style="fill: #fff"/>
    <path d="M162.31,280.68c.14.72.29,1.35.45,1.94.09.3.16.61.23.91a8.46,8.46,0,0,0,.27,1,10.24,10.24,0,0,0,.62,1.24l.26.47a4.69,4.69,0,0,0,.61.79c.18.22.37.43.53.65a8.05,8.05,0,0,0,1.2,1.21,5.62,5.62,0,0,0,1.23.89l.35.16a3.59,3.59,0,0,0,.94.36,3.66,3.66,0,0,0,1.32-.3l.52-.17a3.72,3.72,0,0,0,.93-.37,8.39,8.39,0,0,0,1.26-1.21,4,4,0,0,0,.37-.63,8.87,8.87,0,0,1,.55-.94l.14-.21c-.1-.31-.17-.62-.24-.89s-.11-.48-.19-.71-.14-.41-.22-.61c-.15-.45-.31-.9-.45-1.36a3.9,3.9,0,0,0-.26-.64,7.84,7.84,0,0,1-.49-1.31c-.17-.67-.33-1.34-.49-2l-.15-.64c-.11-.46-.21-.92-.31-1.37,0-.27-.11-.54-.18-.8-.09-.41-.18-.81-.26-1.22a8.35,8.35,0,0,1-.09-1.43,3.94,3.94,0,0,0,0-.63,7.66,7.66,0,0,0-.18-.8c-.1-.4-.2-.8-.26-1.2a11.28,11.28,0,0,1-.09-1.34,5.54,5.54,0,0,0,0-.71c0-.3-.1-.6-.15-.88s-.15-.76-.19-1.12c-.06-.51-.06-1-.07-1.37,0-.23,0-.45,0-.66s-.07-.41-.11-.62a11.24,11.24,0,0,1-.2-1.49,9.29,9.29,0,0,1,.06-1.33,6.51,6.51,0,0,0,0-.77,3,3,0,0,0-.09-.56,6.62,6.62,0,0,1-.16-1.52,7,7,0,0,1,.19-1.39,5.88,5.88,0,0,0,.11-.68l0-.69c0-.47,0-.93.09-1.4s.12-.9.21-1.34c0-.24.09-.49.12-.73a5.47,5.47,0,0,0,0-.7,7.39,7.39,0,0,1,.11-1.43,9.29,9.29,0,0,1,.42-1.47c.07-.21.14-.41.19-.62a10.52,10.52,0,0,1,.64-1.66c.07-.15.13-.3.2-.44l.09-.24a7.32,7.32,0,0,1,1.13-2.06,4,4,0,0,1,3.44-1.64,4.63,4.63,0,0,1,3.08,1.71,7,7,0,0,1,1.08,1.93l.15.37a8.72,8.72,0,0,1,.47,1.55c.05.2.09.41.15.63s.13.28.21.43a5.74,5.74,0,0,1,.62,1.6,7,7,0,0,1,.1,1.46,4.4,4.4,0,0,0,0,.66,5.28,5.28,0,0,0,.16.66,9.07,9.07,0,0,1,.3,1.39,12.21,12.21,0,0,1,0,1.32,6.43,6.43,0,0,0,0,.76c0,.69.09,1.38.13,2.06,0,.28.05.55.09.82,0,.42.1.83.11,1.23s0,.84,0,1.25,0,.54,0,.81,0,.59.06.87.07.79.07,1.17a8.37,8.37,0,0,1-.16,1.48c0,.22-.08.45-.09.56a4,4,0,0,0,.12.76,5.53,5.53,0,0,1,.16,1.28,8,8,0,0,1-.23,1.47,4.34,4.34,0,0,0-.13.62c0,.24,0,.49,0,.73a13.3,13.3,0,0,1-.05,1.37c-.06.45-.14.9-.23,1.34-.05.24-.1.49-.14.73s0,.48-.06.72a10.85,10.85,0,0,1-.16,1.38c-.13.59-.28,1.18-.43,1.76l-.08.29c-.18.69-.39,1.37-.6,2a8.62,8.62,0,0,1-.6,1.35,3.23,3.23,0,0,0-.29.59c-.08.21-.16.42-.23.63a13.21,13.21,0,0,1-.53,1.37c-.29.64-.62,1.25-.89,1.74.05.11.09.21.14.31a3.45,3.45,0,0,0,.38.52,6.79,6.79,0,0,1,.72,1l.23.4a9.09,9.09,0,0,0,.68,1.09,9.21,9.21,0,0,0,1.12,1.16,5.48,5.48,0,0,0,1.14.84,3.44,3.44,0,0,0,1.2.37l.62.08a3.2,3.2,0,0,0,.74.07,5.56,5.56,0,0,0,1-.46l.4-.21a11.66,11.66,0,0,0,1.47-.86l.34-.24a7.4,7.4,0,0,0,1-.82,4.13,4.13,0,0,0,.4-.63,9,9,0,0,1,.57-.94,11.79,11.79,0,0,0,.61-1l.32-.58a7.71,7.71,0,0,1,.68-1,4,4,0,0,0,.42-.61c.12-.25.23-.51.33-.77-.25-.41-.5-.87-.76-1.39a6.42,6.42,0,0,0-.34-.56,8.19,8.19,0,0,1-.79-1.49c-.24-.64-.42-1.27-.59-1.89l-.08-.31c-.18-.63-.33-1.33-.5-2.08a6.46,6.46,0,0,1-.12-1.4,6.12,6.12,0,0,0,0-.69l-.06-.31c-.1-.56-.21-1.14-.3-1.73a3.57,3.57,0,0,0-.17-.6,7.32,7.32,0,0,1-.36-1.42c-.05-.41-.08-.83-.12-1.26,0-.26,0-.53-.07-.79a10,10,0,0,1,0-1.33,6.12,6.12,0,0,0,0-.74c-.06-.68-.1-1.37-.14-2.06,0-.27,0-.54-.08-.81,0-.42-.08-.83-.1-1.25a11,11,0,0,1,.07-1.35,6.15,6.15,0,0,0,.06-.73,5.06,5.06,0,0,0-.1-.58,6,6,0,0,1-.18-1.51c0-.52.06-1,.1-1.53l0-.58a6.51,6.51,0,0,1,.34-1.55,4.79,4.79,0,0,0,.15-.54c0-.24.05-.48.07-.71a10.12,10.12,0,0,1,.2-1.47c0-.22.08-.44.12-.65a7.36,7.36,0,0,1,.4-1.64,7.1,7.1,0,0,1,1.57-2.33,4.3,4.3,0,0,1,3.42-1.43,4.36,4.36,0,0,1,3.1,2.27l.13.18a9.36,9.36,0,0,1,1.1,2.1,7.15,7.15,0,0,1,.33,1.53c0,.25.07.5.13.75a5.3,5.3,0,0,0,.19.61,8.12,8.12,0,0,1,.43,1.55,7,7,0,0,1,0,1.5,4.42,4.42,0,0,0,0,.72c0,.24.07.5.11.75.07.42.15.89.19,1.4a6.42,6.42,0,0,0,.1.75,11,11,0,0,1,.16,1.42c0,.43,0,.87,0,1.32,0,.28,0,.56,0,.84,0,.44,0,.88-.08,1.32,0,.28-.06.56-.07.84,0,.45-.05.9-.09,1.35l-.06.8c0,.44-.08.87-.14,1.31,0,.28-.07.55-.09.83s0,.54,0,.81a10.57,10.57,0,0,1-.07,1.34c-.05.45-.13.9-.22,1.34-.05.27-.1.53-.14.8s-.07.53-.1.79c0,.46-.11.91-.19,1.35s-.2.89-.32,1.33c-.07.26-.14.52-.2.78a3.58,3.58,0,0,0,0,.62,6.82,6.82,0,0,1-.17,1.58,5.67,5.67,0,0,1-.72,1.54,3.2,3.2,0,0,0-.25.46,4,4,0,0,0-.12.66c0,.19-.06.39-.1.62a2.42,2.42,0,0,0,.3.39,3.52,3.52,0,0,0,.72.38c.23.1.45.2.66.31l.21.11a2.42,2.42,0,0,0,2.35.27,6.1,6.1,0,0,0,1.45-.68c.08-.06.28-.29.43-.45a8.85,8.85,0,0,1,.81-.84,2,2,0,0,1,2.67,3,4.43,4.43,0,0,0-.47.51,6.06,6.06,0,0,1-1.3,1.19,10,10,0,0,1-2.41,1.12,7.48,7.48,0,0,1-2.86.31,6.39,6.39,0,0,1-2.53-.86l-.19-.1-.43-.2a10.05,10.05,0,0,1-1-.52c-.12.17-.23.33-.34.46a5.12,5.12,0,0,0-.36.51c-.1.17-.19.34-.28.51a13.68,13.68,0,0,1-.88,1.48,4.76,4.76,0,0,0-.34.57,6.6,6.6,0,0,1-1,1.43,10.4,10.4,0,0,1-1.64,1.34l-.31.22a15.91,15.91,0,0,1-2,1.19l-.36.18a8.3,8.3,0,0,1-1.94.8,4.21,4.21,0,0,1-1,.11,7.26,7.26,0,0,1-1.25-.12l-.41-.05a7.5,7.5,0,0,1-2.56-.76,9,9,0,0,1-2.05-1.46,12.66,12.66,0,0,1-1.62-1.7,15.49,15.49,0,0,1-1-1.53l-.21-.37,0-.05a1.19,1.19,0,0,1-.15.18,11.46,11.46,0,0,1-1.89,1.81,6.63,6.63,0,0,1-2.16,1l-.39.13a7.56,7.56,0,0,1-2.87.52,6.44,6.44,0,0,1-2.43-.75l-.3-.14a8.86,8.86,0,0,1-2.19-1.51,11.71,11.71,0,0,1-1.76-1.81c-.11-.15-.24-.29-.37-.44a8.68,8.68,0,0,1-1.1-1.52l-.23-.41a13.94,13.94,0,0,1-.86-1.73,11,11,0,0,1-.44-1.56c-.05-.23-.11-.47-.18-.71-.19-.7-.37-1.44-.53-2.26a2,2,0,1,1,3.93-.77Zm11.23-20.15a11.12,11.12,0,0,1-.06,1.16c0,.3,0,.57,0,.77a9.17,9.17,0,0,0,.14.93c.06.33.12.65.15.95a8.46,8.46,0,0,1,.05,1,8,8,0,0,0,0,1c0,.26.09.53.14.82s.15.74.2,1.13a8.68,8.68,0,0,1,.06,1.15,6.73,6.73,0,0,0,0,.83,8.1,8.1,0,0,0,.18.79c.09.38.19.76.25,1.15a6.64,6.64,0,0,1,.07,1.3,4.59,4.59,0,0,0,0,.69c.06.34.14.68.22,1s.14.61.2.91.19.83.28,1.25l.16.67c.15.63.3,1.27.46,1.9a5.21,5.21,0,0,0,.28.68l.23.55c.09-.18.18-.36.27-.51a6.37,6.37,0,0,0,.32-.68c.19-.61.38-1.22.54-1.84l.08-.29c.13-.52.27-1,.38-1.57a5.69,5.69,0,0,0,.09-.82,10,10,0,0,1,.11-1.1c0-.29.1-.58.16-.87s.13-.68.17-1a8.15,8.15,0,0,0,0-.89c0-.35,0-.69,0-1a8,8,0,0,1,.23-1.28c0-.24.11-.49.12-.59a3.39,3.39,0,0,0-.08-.39,8.21,8.21,0,0,1-.2-1.63,7.26,7.26,0,0,1,.15-1.23,4.87,4.87,0,0,0,.1-.75c0-.27,0-.55-.05-.84s-.07-.76-.08-1.15,0-.68,0-1,0-.64,0-1a8.72,8.72,0,0,0-.08-.88c-.05-.36-.09-.73-.11-1.1,0-.65-.08-1.31-.13-2a10.84,10.84,0,0,1,0-1.14,7.61,7.61,0,0,0,0-.83,4.71,4.71,0,0,0-.17-.74,8,8,0,0,1-.27-1.16,8.32,8.32,0,0,1-.06-1.28,5.65,5.65,0,0,0,0-.64,3.61,3.61,0,0,0-.24-.53,6.24,6.24,0,0,1-.52-1.2c-.07-.27-.14-.54-.2-.81a5.56,5.56,0,0,0-.24-.86l-.17-.42a6.54,6.54,0,0,0-.42-.87,1.51,1.51,0,0,0-.28-.26,1.54,1.54,0,0,0-.16.18,4.94,4.94,0,0,0-.48,1l-.1.25-.25.55a6.85,6.85,0,0,0-.42,1.06c-.07.28-.17.56-.27.85a7.74,7.74,0,0,0-.27.94,3.67,3.67,0,0,0,0,.72,8.93,8.93,0,0,1-.07,1.21q-.06.45-.15.9c-.06.33-.12.67-.16,1s-.05.79-.07,1.19,0,.5,0,.75a9.68,9.68,0,0,1-.18,1.24,5.13,5.13,0,0,0-.12.7,4,4,0,0,0,.1.63A6.81,6.81,0,0,1,173.54,260.53Zm19-.21a10.92,10.92,0,0,1-.08,1.14,6.29,6.29,0,0,0-.05.82c0,.32.05.63.08,1s.07.67.09,1c0,.66.08,1.31.13,2a9.88,9.88,0,0,1,0,1.21,6.55,6.55,0,0,0,0,.77c0,.29.06.58.08.88s.06.73.1,1.08a3.74,3.74,0,0,0,.19.67,8,8,0,0,1,.33,1.25c.08.55.18,1.09.27,1.61l.06.32a8.47,8.47,0,0,1,.11,1.33,3.58,3.58,0,0,0,0,.62c.15.67.29,1.3.44,1.86l.09.33c.12.43.23.84.36,1.22a2.91,2.91,0,0,1,0-.3,6.5,6.5,0,0,1,.13-1.44c.07-.32.15-.63.24-.95s.18-.67.24-1,.11-.73.16-1.1.07-.61.12-.92.1-.63.16-.94.14-.71.18-1.07a7.31,7.31,0,0,0,0-.94c0-.36,0-.73.05-1.1s.07-.66.12-1,.09-.69.11-1,0-.59.07-.88.06-.78.07-1.16,0-.73.08-1.09.07-.64.07-.95,0-.67,0-1,0-.7,0-1a8.59,8.59,0,0,0-.11-.89,11.24,11.24,0,0,1-.14-1.13c0-.34-.09-.66-.14-1s-.12-.68-.15-1a8.76,8.76,0,0,1,0-1.35,3.85,3.85,0,0,0,0-.67,4.35,4.35,0,0,0-.25-.82c-.12-.36-.24-.71-.32-1.06s-.14-.72-.19-1.07a5.85,5.85,0,0,0-.14-.79,5.23,5.23,0,0,0-.67-1.19l-.13-.21c-.09-.14-.17-.24-.23-.33l-.1.1a3.07,3.07,0,0,0-.71,1,4.23,4.23,0,0,0-.16.77c-.05.29-.1.6-.17.9a6.64,6.64,0,0,0-.11.92c0,.29-.05.59-.1.9a6.94,6.94,0,0,1-.29,1.21,3.5,3.5,0,0,0-.17.65l-.06.62c0,.43-.07.87-.08,1.31a2.93,2.93,0,0,0,.09.55A7.52,7.52,0,0,1,192.55,260.32Zm63.5-73.71h0a.1.1,0,0,0-.05,0Zm4.17,64.56a16.66,16.66,0,0,1-1.18-1.48l-1.87-3L256,245.39l-1.34-1.26c-.32-.31-.8-.79-1.23-1.17l-.11-.1h0l0,0a1.23,1.23,0,0,0-.16-.1l-.89-.43-.37-.21-.14-.09,0,0-.05,0-.08-.07-.17-.13c-.23-.18-.46-.37-.69-.53l-.33-.25-.15-.11,0,0-.58-.27-.48-.21a.08.08,0,0,1,0,0c0,.32.41,3,.55,4.83.29,4.13,2.45,7.55,2.59,8.86s1.46,3.3,2.32,4.66c.57.89.59,3.53,1.85,5.09,1.05,1.3,2.59,5.22,3.22,6.56.44,1,1.41,1,2,2l0-.08,0-.11v0h0v0s0,0,0,0l.05-.13.16-.44c.11-.3.2-.61.3-.92l0-.12,0-.16.08-.48.18-1c.07-.61.15-1.21.22-1.82v-.35l0-.5,0-1v-.18l0-.25,0-.5.07-1c0-.26-.1-1-.19-1.65l0-2.1h0l0-.25-.08-.5-.14-.91-.61-1.68-.56-1.86-.28-1L261,253l-.08-.23-.41-.9-.21-.45-.09-.2Zm-.57-9.29h0l0,0Zm2.05-53.79-.72.24-.2.06-.07,0h0l-.21.11a5,5,0,0,0-.72.39c-.05,0-.22.18-.69.52l-.91.59a.58.58,0,0,1-.14.08,3.18,3.18,0,0,1-.32.16l.1.05c.34.19.68.4,1,.61l.42.26a8.65,8.65,0,0,1,.93.69c.13.11.26.22.4.32a3.3,3.3,0,0,0,.41.23,6.37,6.37,0,0,1,1,.62c.14.11.29.2.43.29a8.9,8.9,0,0,1,.95.67,4.6,4.6,0,0,1,.91,1.12l.12.19.17.09a4.12,4.12,0,0,1,1.27.85,4.39,4.39,0,0,1,.8,1.18l.12.23c.36.41.71.82,1,1.19l.22.16a4.22,4.22,0,0,1,1.13,1,7.75,7.75,0,0,1,.59.9c.1.16.2.33.31.49a3.38,3.38,0,0,0,.31.35,7.94,7.94,0,0,1,.75.92,4.7,4.7,0,0,1,.54,1.29c0,.1.05.2.08.27s.2.28.3.42a6.8,6.8,0,0,1,.63.93c.17.3.32.61.47.93s.17.36.26.54a5.21,5.21,0,0,1,.42,1.22,3.58,3.58,0,0,0,.09.35l.27.53c.17.33.34.65.48,1a2.51,2.51,0,0,0,.2.29,4.81,4.81,0,0,1,.7,1.2,7.56,7.56,0,0,1,.32,1.15,4.05,4.05,0,0,0,.12.5,1.72,1.72,0,0,0,.18.32,5.24,5.24,0,0,1,.58,1.23c.16.55.31,1.11.44,1.65a4.5,4.5,0,0,1,.08,1.51c0,.1,0,.2,0,.23.07.37.12.74.16,1.1,0,.2,0,.39.07.58a2.13,2.13,0,0,0,.13.43,6.16,6.16,0,0,1,.31,1.22,3.57,3.57,0,0,0,.11.47,5.83,5.83,0,0,1,.25,1.21,10.47,10.47,0,0,1,0,1.12c0,.2,0,.39,0,.59a4.71,4.71,0,0,1-.19,1.43c0,.1-.06.2-.07.27s0,.4,0,.59a9.74,9.74,0,0,1,.05,1,1.63,1.63,0,0,0,.07.3,4.33,4.33,0,0,1,.19,1.47,10.52,10.52,0,0,1-.14,1.11c0,.19-.06.38-.08.57a6.62,6.62,0,0,1-.27,1.24,2,2,0,0,0-.12.42,7,7,0,0,1-.24,1.12,4.94,4.94,0,0,0-.13.52c0,.2,0,.41-.06.6,0,.37-.07.72-.13,1.07s-.16.72-.25,1.07c-.05.19-.1.38-.14.57a4.14,4.14,0,0,0,0,.46,6.11,6.11,0,0,1-.16,1.23,6.24,6.24,0,0,1-.48,1.19l-.1.22a5.35,5.35,0,0,1,.7-.59l.11-.08a3.52,3.52,0,0,1,.65-1.34l.3-.36c.17-.21.35-.42.52-.64a3.57,3.57,0,0,1,1.29-1h0l.2-.31c.12-.19.24-.38.37-.57s.2-.32.3-.49.24-.42.38-.63a1.87,1.87,0,0,0,.16-.35,8.07,8.07,0,0,1,.4-.78,1.83,1.83,0,0,0,.08-.25,5,5,0,0,1,.42-1l.35-.67.24-.47a3.76,3.76,0,0,1,.86-1l.08-.07c.06-.14.12-.28.17-.43s.17-.43.27-.64a5,5,0,0,1,.54-.89l.15-.21c.05-.15.09-.31.13-.46s.15-.53.23-.77,0-.2.06-.3a5,5,0,0,1,.21-1c.07-.21.12-.43.18-.65l.15-.58a2.2,2.2,0,0,0,.05-.37,5.64,5.64,0,0,1,.15-.9,3.77,3.77,0,0,1,.62-1.26l0,0c0-.11,0-.21,0-.31,0-.27,0-.55.08-.81a1.14,1.14,0,0,0,0-.32,5.41,5.41,0,0,1,0-1,7.21,7.21,0,0,1,.19-.9,2.83,2.83,0,0,0,.08-.28,1,1,0,0,0,0-.24,4.89,4.89,0,0,1-.1-1.11,3.72,3.72,0,0,1,.28-1.22,3.66,3.66,0,0,1-.33-1.31,3.32,3.32,0,0,1,.3-1.41,3.52,3.52,0,0,1-.34-1.13,6.13,6.13,0,0,1,0-.94c0-.12,0-.23,0-.34a2.12,2.12,0,0,0-.12-.41,6.23,6.23,0,0,1-.22-.82c0-.18-.1-.35-.15-.52s-.15-.47-.2-.71a4.43,4.43,0,0,0-.17-.47c-.09-.24-.17-.48-.24-.73a3.2,3.2,0,0,1-.06-1.39,3.58,3.58,0,0,1-.64-1c-.15-.4-.31-.79-.47-1.18a3.8,3.8,0,0,1-.27-1.32.49.49,0,0,0,0-.12l-.14-.31c-.11-.24-.21-.48-.34-.71a2,2,0,0,0-.21-.3,6.37,6.37,0,0,1-.53-.75c-.12-.22-.25-.42-.39-.63l-.29-.44a1.31,1.31,0,0,0-.22-.25,6.32,6.32,0,0,1-.61-.73,6,6,0,0,1-.46-.83,2.64,2.64,0,0,0-.15-.29,4.17,4.17,0,0,0-.34-.38c-.18-.18-.35-.37-.51-.56s-.23-.23-.34-.34a5.92,5.92,0,0,1-.56-.56c-.28-.31-.56-.62-.85-.92a3.65,3.65,0,0,1-.75-1.18l0-.07-.46-.38-.63-.53c-.24-.21-.48-.41-.7-.58a1.23,1.23,0,0,0-.26-.12,5.05,5.05,0,0,1-.9-.48,1.4,1.4,0,0,0-.33-.15,7.31,7.31,0,0,1-.79-.4,3.77,3.77,0,0,1-1-1l0-.05c-.31-.16-.63-.3-.93-.44a2,2,0,0,0-.33-.08,6.36,6.36,0,0,1-.88-.25l-.5-.2-.59-.23h-.27a5.6,5.6,0,0,1-1-.1,6.46,6.46,0,0,0-.75-.11l-.42-.05a2.23,2.23,0,0,0-.45,0c-.24,0-.48,0-.72,0a2.9,2.9,0,0,1-.71-.13,1.94,1.94,0,0,1-.76.19,3.62,3.62,0,0,1-.62,0,2.27,2.27,0,0,1-.49-.11l-.08,0-.38.11L262,188l-.15,0h-.1Zm1-.29-.05,0h.05l.06,0Zm-35,26.34v0l0-.06v0A.3.3,0,0,0,227.75,214.14ZM233,217s0,0,0,0Zm3.63,11.78v0h0Zm-.09-.12ZM275,249.14h0Zm0,0v0h0Zm7.73,8.78h0s0,0,0,0l.06-.12h0l.07-.16a1.71,1.71,0,0,1-2.4-1.73s0-.16,0-.43a3.57,3.57,0,0,0,0-.46,3.64,3.64,0,0,1,0-.46v0l0-.18,0-.4c0-.27,0-.55-.05-.85v-.24l-.05-.46-.05-.46,0-.24,0-.12v-.08h0l-.18-.74-.06-.29a1.67,1.67,0,0,1-.6,1.21,1.71,1.71,0,0,1-2.42-.23v0l-.2-.24-.21-.28c-.05-.05-.09-.11-.14-.17l-.12-.13-.26-.29,0,0-.07-.07a2.18,2.18,0,0,1-.22-.21l-.84-.85,0,0,0,0h0l0,0h0l0,0h0l0,0-.25-.21-.14.08a2,2,0,0,1-.83,3.75,3.69,3.69,0,0,0-1.11.28,5,5,0,0,0-1.15.65,7.48,7.48,0,0,0-1,1,9.59,9.59,0,0,0-.9,1.18,10.32,10.32,0,0,0-.74,1.32,9.9,9.9,0,0,0-.48,1.43,8.39,8.39,0,0,0-.27,1.46,2,2,0,0,1-.47,1.1c0,.08,0,.17,0,.24a20.4,20.4,0,0,1,.23,2.35l-.06,1,0,.5,0,.25,0,.33,0,1,0,.49v.31c0,.35.1.69.16,1a13,13,0,0,0,1,2.76,7.54,7.54,0,0,0,.86,1.14,7.68,7.68,0,0,0,.76.81,2.18,2.18,0,0,1,3.4,1.37,6.44,6.44,0,0,0,1.81-.13,6.88,6.88,0,0,0,1.21-.3,3.83,3.83,0,0,0,.63-.41l.4-.27a6,6,0,0,0,.95-.79,7.66,7.66,0,0,0,.84-.93,7.26,7.26,0,0,0,.6-1.14,7.94,7.94,0,0,0,.44-1.24,2.35,2.35,0,0,1,.19-.43,19.63,19.63,0,0,1,.15-3.76,19,19,0,0,1,.45-2.22,1.71,1.71,0,0,1-.24-2.16v0l.31-.47.36-.53.23-.33,0-.08,0-.08.45-.88.23-.43v0Zm1.74-5c0-.18.07-.35.11-.53.08-.34.15-.67.22-1l0-.11v0a.11.11,0,0,0,0,0h0v0c0-.07,0-.14,0-.21s0-.28,0-.4,0-.47.06-.64a1.83,1.83,0,0,1,.11-.57,1.41,1.41,0,0,1,.74-.72,1.35,1.35,0,0,1,1.75.77,2,2,0,0,1,.08.56c0,.18,0,.4,0,.65l0,.39c0,.08,0,.15,0,.22s0,.24,0,.36c0,.31,0,.64-.05,1l0,.5c.25-.19.49-.39.74-.56a17,17,0,0,1,2.95-1.66c.49-.22,1-.41,1.56-.59s.82-.25,1.45-.41a15,15,0,0,1,5.57-.23,14.46,14.46,0,0,1,2.26.48,17.07,17.07,0,0,1,1.64.57s0-.07,0-.11c.06-.31.12-.62.17-.94s.07-.63.09-.95a14.71,14.71,0,0,1,.2-1.61c.17-.85.34-1.69.55-2.52s.46-1.67.71-2.5a17.19,17.19,0,0,1,.63-1.72c.1-.24.19-.48.28-.73s.2-.56.29-.84a13.94,13.94,0,0,1,.61-1.65c.36-.76.78-1.54,1.28-2.38a20,20,0,0,1,1.62-2.26,13.36,13.36,0,0,1,2.07-2.06,9.36,9.36,0,0,1,2.65-1.35l.4-.15a8,8,0,0,1,2.83-.64,9.69,9.69,0,0,1,3,.65,11,11,0,0,1,2.81,1.43l.45.29a10.19,10.19,0,0,1,2,1.54,16.58,16.58,0,0,1,1.72,2.23l.09.13a20.47,20.47,0,0,1,1.07,1.87c.12.06.25.1.37.15a10.63,10.63,0,0,1,2.06,1.34l.42.33.31.23a12.82,12.82,0,0,1,1.94,1.65,19.85,19.85,0,0,1,1.82,2.23,14.84,14.84,0,0,1,1,1.86c.1.21.2.42.31.62.37.75.8,1.59,1.16,2.51s.65,1.76.89,2.58c.2.65.34,1.29.47,1.91l.16.72c.18.76.33,1.57.52,2.63.05.32.13.63.21.94a11.15,11.15,0,0,1,.4,3.36c0,.33,0,.66,0,1s.07.66.11,1a14.39,14.39,0,0,1,.15,1.67,15,15,0,0,1,0,1.66c0,.33,0,.66,0,1s0,.68,0,1c0,.53.05,1.07,0,1.64,0,.3,0,.59,0,.89,0,.59,0,1.19-.09,1.77a2,2,0,0,1-2,1.81h-.19a2,2,0,0,1-1.81-2.17c.05-.51.07-1,.09-1.54,0-.32,0-.64,0-.95s0-.8,0-1.24,0-.84,0-1.25,0-.8.05-1.2.06-.89.05-1.29-.07-.83-.13-1.29-.1-.79-.13-1.19,0-.87,0-1.3a10.77,10.77,0,0,0,0-1.18,8.89,8.89,0,0,0-.25-1.2c-.1-.41-.2-.81-.27-1.22-.17-1-.31-1.73-.47-2.42-.06-.25-.11-.51-.17-.77-.12-.57-.24-1.1-.39-1.6-.21-.72-.47-1.47-.79-2.28s-.65-1.46-1-2.15c-.12-.23-.23-.46-.34-.69a12.46,12.46,0,0,0-.74-1.38,10.41,10.41,0,0,0-.91-1.15c.13.5.25,1,.37,1.6s.22,1.27.31,1.89c0,.27.07.55.12.83s.12.62.19.93a13.54,13.54,0,0,1,.32,1.76,16.1,16.1,0,0,1,.06,1.68c0,.35,0,.7,0,1.05.05.88.09,1.78.1,2.71,0,.34,0,.67.06,1,0,.51.08,1.09.07,1.7s-.07,1.07-.12,1.62q-.06.52-.09,1.08a2,2,0,0,1-2,1.89h-.11a2,2,0,0,1-1.89-2.11c0-.42.07-.84.11-1.25s.09-.89.1-1.32,0-.86-.06-1.32-.06-.84-.07-1.25c0-.88-.05-1.73-.09-2.55,0-.42,0-.84,0-1.25s0-.91,0-1.3a9.1,9.1,0,0,0-.24-1.25c-.09-.42-.19-.84-.25-1.25s-.09-.59-.13-.88c-.07-.55-.14-1.09-.25-1.6-.19-.89-.39-1.69-.6-2.42-.08-.27-.15-.55-.22-.82-.16-.56-.3-1.09-.47-1.55a13.39,13.39,0,0,0-.67-1.38l-.5-.13a5.37,5.37,0,0,0-1.9-.12,7,7,0,0,0-2,.59,11.7,11.7,0,0,0-1.84,1.22,16.92,16.92,0,0,0-1.78,1.49,9.53,9.53,0,0,0-.84,1.07c-.2.28-.4.56-.62.83s-.43.53-.65.79a11.19,11.19,0,0,0-.88,1.11c-.31.46-.59,1-.89,1.53l-.33.61c-.31.56-.59,1.16-.89,1.79l-.2.43-.36.74c-.26.52-.5,1-.69,1.51a8.22,8.22,0,0,0-.34,1.2c-.1.41-.2.8-.32,1.19a1.89,1.89,0,0,1-.52.82c.1.14.21.26.31.4.31.44.57.92.86,1.41a16,16,0,0,1,.74,1.52l.15.35.07.18,0,.08v0l0,.05,0,.1.27.81a12.24,12.24,0,0,1,.36,1.63,13.57,13.57,0,0,1,.15,2.91c0,.28,0,.54-.06.8l.26-.09a4.73,4.73,0,0,1,.59-.16,10.55,10.55,0,0,1,1-.15l1.06-.07.6,0,.47,0,.23,0h.12l.2,0h0l.08,0,.65.13.33.07.25.07.47.15.12,0,.17.06,0,0,.08,0,.32.14.64.32.44.26.22.14.16.09.07.06.15.11.59.47c.21.18.28.27.43.4l.19.19.1.1,0,0,.09.09v0l.07.08c.17.22.33.45.49.68a5,5,0,0,1,.35.56l.29.51a13.84,13.84,0,0,1,.61,1.29l.11.26,0,.14,0,.06.05.14v.07l.21.75c.07.27.09.43.13.63l.05.29,0,.14v0c0,.26,0,.32,0,.32v.08c0,.39,0,.78,0,1.17v.41l0,.36v.15l-.07.59-.06.59,0,.29v0l-.05.29v0l0,.07,0,.15-.3,1.16,0,.14L326,281l-.1.31c-.07.21-.13.44-.2.62l-.22.56,0,.14-.05.13v0l0,0-.05.09-.19.34c-.12.22-.27.49-.38.65l-.34.49-.08.12-.12.18-.05.05-.18.24-.36.48-.35.47-.09.12-.13.16,0,0-.07.07-.27.28c-.17.17-.38.39-.53.51l-.45.38-.11.09-.14.11-.08.06-.3.22c-.2.14-.42.31-.6.41l-.5.28-.12.08-.07,0-.17.09,0,0-.35.14-.68.28-.54.16-.27.08-.21,0h-.09l-.18,0-.74.1c-.47,0-.67,0-1.21,0l-.72,0-.36,0-.26-.05-.52-.09a7.4,7.4,0,0,1-.75-.19c-.22-.07-.48-.15-.66-.23l-.46-.2-1.09-.51a8.12,8.12,0,0,1-.87-.5l-.1-.06-.19-.13h0v0l-.06-.06-.24-.22-.44-.45c-.25-.28-.39-.48-.57-.72a10,10,0,0,1-.64-1c-.18-.3-.26-.5-.39-.74l-.08-.18h0a.64.64,0,0,1,0-.1l0,0,0-.06,0-.13-.15-.48c0-.08,0-.13-.06-.2a14.47,14.47,0,0,1-2.07,1.11,16.59,16.59,0,0,1-13.28.06,17,17,0,0,1-6.15-4.61,18.65,18.65,0,0,1-3-5.08l-.56.58a11.18,11.18,0,0,1-1.55,1.28l-.31.21a7,7,0,0,1-1.44.84l-.15.05c-.05.23-.09.45-.15.68s-.13.55-.19.84-.07.5-.1.75a11.51,11.51,0,0,1-.2,1.29c-.05.26-.09.53-.13.8s-.14.82-.23,1.24-.22.78-.35,1.18-.17.52-.23.8a3.34,3.34,0,0,0-.05.55,7.06,7.06,0,0,1-.2,1.51,11.28,11.28,0,0,1-.42,1.21c-.09.25-.19.49-.26.74s-.11.49-.16.74a12.11,12.11,0,0,1-.29,1.3c-.19.65-.39,1.3-.6,2a5.51,5.51,0,0,1-.74,1.44,4.49,4.49,0,0,0-.24.41c-.09.26-.17.53-.25.79s-.23.78-.36,1.17-.28.76-.43,1.15-.21.52-.3.78a4.69,4.69,0,0,0-.17.67,8.58,8.58,0,0,1-.38,1.33c-.15.39-.33.77-.52,1.15s-.24.48-.34.73a5.17,5.17,0,0,0-.19.64,6.94,6.94,0,0,1-.41,1.34,5,5,0,0,0-.2.66,7.74,7.74,0,0,1-.43,1.32,6.06,6.06,0,0,1-.87,1.35,3.36,3.36,0,0,0-.29.4,12.87,12.87,0,0,1-.64,1.15c-.13.21-.27.43-.38.65-.29.62-.59,1.24-.9,1.87a5.86,5.86,0,0,0-.28.69,11.69,11.69,0,0,1-.52,1.22,2.21,2.21,0,0,1-2,1.19,2.2,2.2,0,0,1-1.95-3.21c.12-.24.21-.5.31-.75a10.63,10.63,0,0,1,.46-1.1c.3-.6.58-1.2.87-1.8a8.49,8.49,0,0,1,.6-1.06,6.52,6.52,0,0,0,.38-.68,6.22,6.22,0,0,1,.85-1.3l.29-.38a6.14,6.14,0,0,0,.21-.7,10.52,10.52,0,0,1,.39-1.22,5.33,5.33,0,0,0,.2-.68,8.79,8.79,0,0,1,.37-1.24c.15-.36.32-.71.49-1.06a7.43,7.43,0,0,0,.35-.76,5,5,0,0,0,.19-.71,8.62,8.62,0,0,1,.34-1.23c.1-.29.22-.58.33-.87s.26-.66.38-1,.2-.64.29-1,.19-.63.29-.95a6.55,6.55,0,0,1,.73-1.41l.24-.37c.2-.63.39-1.27.58-1.91a7.84,7.84,0,0,0,.18-.81,11.21,11.21,0,0,1,.25-1.15,11.6,11.6,0,0,1,.39-1.13,7.51,7.51,0,0,0,.27-.75,4.09,4.09,0,0,0,.05-.6,7.15,7.15,0,0,1,.18-1.4c.09-.37.2-.73.32-1.08s.18-.55.24-.83.12-.63.17-.94.11-.68.18-1,.09-.59.13-.88.08-.74.15-1.09v0l-.62-.06-.15.33a4.07,4.07,0,0,0-.27.6c-.13.39-.29.77-.45,1.16-.1.23-.21.47-.27.65a2.26,2.26,0,0,0,0,.37,5.2,5.2,0,0,1-.24,1.75,8.76,8.76,0,0,1-.57,1.22,6.65,6.65,0,0,0-.3.61c-.08.24-.15.48-.22.73-.11.4-.22.81-.37,1.2a5.45,5.45,0,0,1-.85,1.41l-.23.29a1.84,1.84,0,0,0-.05.41,5.91,5.91,0,0,1-.36,1.63,7.64,7.64,0,0,1-.67,1.23,3.9,3.9,0,0,0-.32.53c-.1.24-.18.49-.27.74s-.27.77-.43,1.15-.21.5-.3.75-.28.75-.45,1.12-.23.51-.33.76-.31.73-.48,1.08a5.6,5.6,0,0,1-.92,1.32c-.1.12-.24.28-.27.33a3.28,3.28,0,0,0-.13.49,6.35,6.35,0,0,1-.49,1.45,5.49,5.49,0,0,1-1,1.31c-.08.09-.19.21-.24.28a2.36,2.36,0,0,0,0,.28,4.81,4.81,0,0,1-.49,1.76c-.2.38-.41.75-.62,1.13l-.36.64a8.89,8.89,0,0,1-.75,1.11,5.12,5.12,0,0,0-.4.55,9,9,0,0,1-.72,1.07c-.14.2-.29.39-.41.6s-.26.47-.38.71-.36.72-.57,1.07-.24.45-.36.68a11.79,11.79,0,0,1-.59,1.11,2.2,2.2,0,0,1-3.73-2.33c.14-.23.26-.47.38-.72s.34-.68.53-1,.28-.51.41-.76.32-.66.51-1a9.77,9.77,0,0,1,.68-1,6.82,6.82,0,0,0,.43-.62,8.67,8.67,0,0,1,.72-1.05,4.37,4.37,0,0,0,.4-.57l.37-.66.54-1a2.91,2.91,0,0,0,0-.31,5,5,0,0,1,.47-1.72,5.65,5.65,0,0,1,.95-1.27,3.78,3.78,0,0,0,.27-.31,3.09,3.09,0,0,0,.13-.48,6.67,6.67,0,0,1,.46-1.4,5.88,5.88,0,0,1,.91-1.29l.27-.32c.14-.3.26-.6.39-.91l.39-.89c.12-.26.22-.54.33-.82s.25-.67.39-1,.21-.53.3-.79.24-.71.39-1.05a8.33,8.33,0,0,1,.65-1.18,5.33,5.33,0,0,0,.3-.5c0-.07,0-.27.06-.42a5.66,5.66,0,0,1,.33-1.57,5.93,5.93,0,0,1,.84-1.37,2.45,2.45,0,0,0,.23-.31,7,7,0,0,0,.24-.78c.1-.37.2-.74.33-1.09a9.07,9.07,0,0,1,.55-1.16c.12-.23.24-.45.28-.54a2.38,2.38,0,0,0,0-.38,5,5,0,0,1,.22-1.68c.12-.36.27-.71.42-1.06s.21-.5.3-.75a7.13,7.13,0,0,1,.47-1.13c-.21-.14-.42-.27-.63-.44a10,10,0,0,1-1.56-1.57c-.15-.17-.29-.35-.44-.54-.07.19-.13.37-.21.55l-.4,1-.35.88-.17.43-.09.22,0,.11-.09.19,0,.05c-.28.55-.57,1.09-.85,1.63s-.67,1.13-1,1.68a3.35,3.35,0,0,0-.3.6l-.14.33a4.61,4.61,0,0,1-.27.57l-.21.35-.11.17-.05.08-.15.18v0h0l-.3.31a7.93,7.93,0,0,1-.58.58l-.28.27-.14.13-.19.22-.54.62-.53.61-.06.08-.19.19-.14.14-.28.28-.55.55-.27.27-.07.07,0,0-.14.12,0,0-.15.12a37.53,37.53,0,0,1-4.84,3.27l-1.07.62-.62.34-.3.16h0l-.21.08h-.1l-.12,0c-.34.1-.68.2-1,.27l-.44.11-.2.05h0l-.11,0-.79.32-.88.3-.2.07-.2,0h0l-.08,0-.3,0-.52.08-1,.12-.23,0a1.53,1.53,0,0,1-.37,0l-.3.06-1,.08c-.3,0-.71,0-1.19.06l-1.71,0-.92,0h-1l-.26,0c-.35,0-.71-.08-1.1-.14l-1.18-.21h-.22l-.31,0h-1.24a7.94,7.94,0,0,1-1.08-.15l-.14,0-.21-.06,0,0-.16-.06-.33-.12-.66-.25-1.53-.67-1.38-.67-.71-.35-.4-.2-.17-.11-.34-.2c-.46-.27-1-.6-1.45-.94s-.95-.59-1.44-.91l-.86-.59-.21-.15-.11-.08,0,0,0,0-.33-.24-.72-.53-.85-.7-.21-.17-.1-.09-.06,0-.11-.12-.31-.34-.62-.68-.62-.68-.16-.18,0,0-.18-.22-.07-.09-.28-.38-1.13-1.52-.07-.09-.17-.28,0,0,0,0-.11-.21a4.61,4.61,0,0,1-.26-.51l-.28-.67-.16-.42a2.86,2.86,0,0,0-.15-.33l-.09-.22-.52-.83a6.27,6.27,0,0,1-.35-.58l-.2.11-.75.29a3.19,3.19,0,0,1-.59.13l-.7.13h-.48l-.71,0a.45.45,0,0,1-.29,0h0a2,2,0,0,1-.65-2.75.38.38,0,0,1,.23-.17l.65-.29.43-.19.06,0-.13,0,.12-.07.23-.13c.14-.09.37-.19.46-.26l.29-.21-.11.06,0,0,.06,0,.12-.08.24-.16.06,0c-.22-.58-.36-1-.56-1.64l-.16-.56-.08-.27,0-.14,0-.07,0-.16-.16-1-.15-1-.08-.49-.06-.45,0-.24-.22-2,0-.25,0-.31v-.63l0-1v-1.26a11.49,11.49,0,0,1,.18-1.14c.13-.54.2-.77.28-1.08l.16-.81a45.66,45.66,0,0,1,2.06-7.83l.3-.89.15-.44.2-.52.21-.52.1-.26.06-.12,0-.07.11-.19c.19-.27.28-.46.59-.85l.4-.48.27-.32a2.57,2.57,0,0,0,.21-.27l.09-.11.05-.06,0,0a6.69,6.69,0,0,0,.36-.66l.38-.76a7.1,7.1,0,0,1,.63-1l0-.06v0l.11-.13,0,0,.07-.08.15-.15c.11-.11.16-.18.32-.32.64-.58,1.09-.88,1.33-1.12l2.29-2.16c.17-.17.38-.35.5-.49l.5-.5a6,6,0,0,1,.67-.6l.38-.31.17-.1h0l0,0,.08,0,.15-.08a9.9,9.9,0,0,1,1.49-.63,5.15,5.15,0,0,0,.49-.19l.19-.08,0,0h0l.1-.06c.38-.23.61-.4.88-.59l.55-.37c.19-.12.45-.24.67-.35l.16-.08.09,0h0l.1,0h0l.25-.08.47-.15.88-.29.79-.25.09,0,.05,0,.19,0h0l.19,0,.34-.07,1.14-.21c.61-.11,1-.15,1-.15h0a1.62,1.62,0,0,1,.62.07l.13,0a9.17,9.17,0,0,1,1.4-.27l1.57,0,2.09,0h.4l.28,0,.56.06.58.06.3,0,.15,0,.19,0-.67-.64-.68-.7-.08-.09h0l-.1-.07-.44-.3-.26-.19-.11-.07,0,0,0,0h0l-.37-.27-.5-.39-.06,0h0l-.22-.24-.08-.09a2.75,2.75,0,0,1-.22-.31l-.16-.26-.05-.1-.06,0a3.32,3.32,0,0,1-1-.65,4.26,4.26,0,0,1-.74-1.15h0l-.12-.13-.33-.36L236,228l0,0c-.15-.13-.11-.08-.08,0l-.35-.2a4,4,0,0,1-.54-.45l-.06-.06a.85.85,0,0,1-.13-.15l0-.05-.07-.1-.15-.2-.26-.36-.08-.12,0,0-.09-.08-.39-.39-.23-.23-.11-.12-.06-.07-.19-.26-.11-.2a5.05,5.05,0,0,1-.24-.53l-.08-.2-.09-.11-.38-.44-.21-.26a.73.73,0,0,1-.13-.18l-.06-.11-.25-.43-.24-.42-.16-.3,0,0,0-.12-.05-.13-.09-.25-.14-.51-.09-.17-.39-.68-.13-.2s0,0,0,0l-.13-.15-.12-.13a2.77,2.77,0,0,1-.17-.23l-.17-.26-.08-.13s-.1-.24-.1-.24l-.08-.22-.15-.43-.06-.19,0-.07-.08-.13v0l-.18-.24a.82.82,0,0,1-.12-.16l-.16-.26-.14-.27,0-.07,0-.07,0-.05-.08-.23-.18-.44-.08-.23,0-.05,0-.06-.1-.34v-.09l0-.11a.76.76,0,0,1,0-.18q0-.3,0-.6V214h0l0-.15-.11-.46-.05-.22,0-.08-.18-.42-.24-.62-.06-.16,0-.08a.31.31,0,0,1,0,.08l-.07-.18c0-.16-.1-.26-.17-.5l-.1-.33-.05-.16,0-.08v0s0-.28,0-.17c0-.3-.06-.6-.08-.9v-.84l0-.28.05-.27,0-.19,0-.06v0l0-.13,0-.5,0-.23a.58.58,0,0,0,0-.1c0-.07,0-.16,0-.18v.18l0-.2c0-.07,0,0,0,0l0-.1-.09-.33a4.48,4.48,0,0,1-.08-.64v-.24l0-.16v-.11l.06-.42.07-.41.08-.44.06-.2.11-.4.1-.3L227,202l.11-.35v0l0-.07,0-.2c0-.22.12-.64.2-1v0h0l0-.11v0l0-.09.07-.19.14-.36.12-.34,0-.09,0-.18c0-.2.16-.62.26-1a11.34,11.34,0,0,1,.87-1.45l.36-.61.14-.24.14-.31c.07-.15.29-.55.46-.83l0-.08,0,.05.08-.14.16-.28c.12-.22.33-.54.5-.79l0,0,.07-.08,0-.05.11-.12.2-.22.4-.44h0l.26-.25,0,0,.06-.05.12-.08.24-.16.32-.17.25-.11h0l0,0,0,0,0,0h0l.16-.16.48-.42.27-.23h0l.26-.17h.07l.11-.05c.29-.15.55-.25.79-.35h0l.12-.09v0l.21-.18a4.37,4.37,0,0,1,.67-.46l.1-.05.09,0h0l.08,0,.16-.07L237,189a1.92,1.92,0,0,1,1-.73,4.88,4.88,0,0,1,1.33-.24c.13,0,.26,0,.38,0a12.29,12.29,0,0,1,1.21-.23l.43-.06.25-.12a4.51,4.51,0,0,1,1.45-.45,7.16,7.16,0,0,1,1.22,0l.51,0,.51-.05a7.53,7.53,0,0,1,1.21-.06,4.5,4.5,0,0,1,1.46.36l.22.09c.17,0,.34,0,.51,0a7.73,7.73,0,0,1,1.19.11,3.57,3.57,0,0,0,.47,0,7,7,0,0,1,1.23.17l.5.11c.39.09.78.17,1.16.29,0,0,0,0,0,0l.63-.47.49-.37.25-.19,0,0h0a4.48,4.48,0,0,1,.41-.24h0l0,0,.14,0a6.78,6.78,0,0,1,.88-.25h0L257,186a8.62,8.62,0,0,1,1-.64,6.37,6.37,0,0,1,.93-.48c.21-.08.4-.17.6-.24l.07,0h0l.08,0h0l.1,0,.2-.06.73-.22.75-.2.56-.14.06,0h0l.39,0h.38a2,2,0,0,1,1.12-.4,3.21,3.21,0,0,1,1.7.45h.22a6.37,6.37,0,0,1,1.13,0l.35.05a10.06,10.06,0,0,1,1.12.17h.26a4.68,4.68,0,0,1,1.27.17c.33.1.67.24,1,.37l.4.16a1.77,1.77,0,0,0,.31.08,5.37,5.37,0,0,1,1.13.34c.44.21.9.42,1.34.65a3.49,3.49,0,0,1,1.16,1.07l0,.06.19.08a6.21,6.21,0,0,1,1,.51,1.92,1.92,0,0,0,.25.12,5.08,5.08,0,0,1,1.06.59c.3.23.6.48.9.74l.56.47c.26.21.53.43.78.66a3.53,3.53,0,0,1,.83,1.27s0,.07.05.1c.3.31.59.63.88,1,.1.1.2.2.31.29a8.41,8.41,0,0,1,.7.73c.09.11.2.22.3.33a7.87,7.87,0,0,1,.66.75,5.16,5.16,0,0,1,.55.95,2.29,2.29,0,0,0,.16.31,1.65,1.65,0,0,0,.22.24,5.27,5.27,0,0,1,.7.87l.25.38c.18.27.35.55.52.83a2.64,2.64,0,0,0,.21.29,5.74,5.74,0,0,1,.6.91c.16.29.3.6.44.91l.18.39a3.73,3.73,0,0,1,.31,1.43s0,.08,0,.13c.15.35.3.71.43,1.07l.07.08a3.42,3.42,0,0,1,.81,1.3,3.24,3.24,0,0,1,.05,1.71h0a1.18,1.18,0,0,0,.07.2,6.41,6.41,0,0,1,.3.94c0,.15.09.3.13.44a7.7,7.7,0,0,1,.26.94,2.85,2.85,0,0,0,.11.39,5.87,5.87,0,0,1,.26,1,5.23,5.23,0,0,1,0,1.09,2.09,2.09,0,0,0,0,.25.37.37,0,0,0,.05.11,4,4,0,0,1,.41,1.38,3.26,3.26,0,0,1-.3,1.54,3.62,3.62,0,0,1,.29,1.35,3.74,3.74,0,0,1-.29,1.37l0,.1,0,.16a4.89,4.89,0,0,1,.09,1.23,5.19,5.19,0,0,1-.21,1.07,2.21,2.21,0,0,0-.08.35,1.82,1.82,0,0,0,0,.33,5.43,5.43,0,0,1-.05,1.1c0,.15,0,.29,0,.44a6.53,6.53,0,0,1-.12,1,3.62,3.62,0,0,1-.65,1.38l-.05.06c0,.08,0,.16,0,.24a6,6,0,0,1-.18,1c-.05.16-.09.31-.13.47s-.16.61-.25.9c0,.1,0,.21-.06.31a4.56,4.56,0,0,1-.25,1.1c-.05.14-.08.28-.12.43a9.37,9.37,0,0,1-.3.94,5.19,5.19,0,0,1-.59,1,1.23,1.23,0,0,0-.15.22c-.07.15-.13.31-.19.46s-.23.58-.36.85a4,4,0,0,1-.91,1.14l-.09.08-.16.31c-.14.28-.28.56-.43.81a2,2,0,0,0-.09.26,5,5,0,0,1-.46,1.07,2.92,2.92,0,0,0-.17.36,6.3,6.3,0,0,1-.48.91c-.09.14-.17.29-.25.43s-.31.53-.48.77l-.28.44c-.16.25-.33.51-.5.75a3.49,3.49,0,0,1-1.35,1h0l-.45.55-.17.2s0,0,0,.08a3.65,3.65,0,0,1-.69,1.37,5.18,5.18,0,0,1-.88.78,1.73,1.73,0,0,0-.2.15,7.39,7.39,0,0,1-.78.7l-.18.14a.19.19,0,0,0,0,.07,3.59,3.59,0,0,1-.76,1.26l.09.08,1,.88.23.2.11.11.11.11v0l0,0,.06.07.43.55.19.24.11.19.15.25c0-.11-.07-.21-.1-.32l-.06-.18v0l0,0,0,0v0c-.08-.19-.16-.36-.23-.51a3,3,0,0,0-.18-.32.53.53,0,0,1-.1-.29v-.63a1.22,1.22,0,0,1,1.79-1.09,2,2,0,0,1,.44.4,5,5,0,0,1,.42.48l.39.51.48.83.42.75.06.1,0,0,.1.26.09.22.16.43c.1.29.21.59.32.89l.05.22v.09l0,.12,0,.23.07.46.07.46,0,.22.05.44c0,.29,0,.58.06.85s0,.26,0,.39v0c.07-.29.15-.58.22-.87l.08-.27v-.1a.37.37,0,0,1,0,.08ZM253,223.47a1.75,1.75,0,0,1,.08.31.87.87,0,0,1,0,.1.19.19,0,0,0-.06-.07l.06.13.17.23a5,5,0,0,1,.3.43l.11.19.06.09,0,.05.1.16v0l.38.81a2.43,2.43,0,0,0,.34.54l.26.36.06.09.15.22.11.17.45.71,0,0c.15.26.06.11.1.19l0,.06.1.27a2.45,2.45,0,0,1,.12.47l0,.3v0a.14.14,0,0,0,0-.06l0,0a.63.63,0,0,0,0,.12l.12.18.24.36.12.17.06.09,0,0,.48.53.14.16.06.08.13.18h0v0l0,.05.21.36a5.89,5.89,0,0,0,.42.7l.38.44.14.15.18.22.25.31.26.31.12.16,0,0,0,0,.05.06.5.52.13.15,0,0,.12.14.14.24a3.33,3.33,0,0,1,.25.5,3.08,3.08,0,0,1,.09.3l0,.15v0a.25.25,0,0,0,0-.07l0,0,0,.06.05,0,.16.12.28.22.14.13.07.07.15.16,0,0,.14.18.26.37.2.31.1.15h0l0,0,.15.13.21.19.26.24,0,0c.19.19.07.07.12.13l0,0,.12.18a3.85,3.85,0,0,1,.23.38c.08.17.13.31.19.46,0,0-.05-.06-.06,0h0l.05,0,.09,0,.31.17.22.15.13.1,0,0,.21.19.11.14a3.64,3.64,0,0,1,.35.5l.09.19,0,.08h0l0,.05.1.12h0l.82.79.46.54.33.42h0l.52.31.2.15.17.13.09.08.35.29.64.53.59.48.14.11.15.16.24.25.34.39.45-1.07c0-.11.05-.24.07-.36a6,6,0,0,1,.28-1.18,4.13,4.13,0,0,0,.09-.44,7.18,7.18,0,0,1,.25-1.09l.17-.52c.11-.31.22-.63.31-1a6.71,6.71,0,0,1,.42-1c.08-.17.17-.35.2-.44s0-.28,0-.43a6.75,6.75,0,0,1,.14-1.14c.05-.22.1-.44.16-.67s.14-.55.2-.84.05-.42.07-.64.06-.6.1-.9a7.83,7.83,0,0,1,.22-.93,4.16,4.16,0,0,0,.13-.59,6.72,6.72,0,0,1,.26-1.07,4,4,0,0,0,.12-.46c0-.28.07-.57.12-.86s.08-.45.09-.6a1.43,1.43,0,0,0-.07-.28,5,5,0,0,1-.2-1.37c0-.22,0-.44,0-.66s-.05-.59-.06-.89a5.35,5.35,0,0,1,.19-1.29c0-.1.06-.21.07-.26,0-.29,0-.57,0-.86s0-.47,0-.7a3.61,3.61,0,0,0-.12-.47,7.26,7.26,0,0,1-.23-1,3.67,3.67,0,0,0-.13-.43,6.48,6.48,0,0,1-.29-1.07c0-.26-.07-.53-.1-.8s0-.48-.1-.73a4.56,4.56,0,0,1,0-1.36,1.41,1.41,0,0,1,0-.22c-.12-.49-.26-1-.4-1.47a1.87,1.87,0,0,0-.17-.31,5,5,0,0,1-.54-1.11,7,7,0,0,1-.25-1c0-.21-.09-.42-.12-.52s-.13-.18-.19-.27a5.66,5.66,0,0,1-.66-1.08c-.11-.25-.23-.48-.35-.72s-.23-.43-.34-.66a5.66,5.66,0,0,1-.37-1.13c0-.12,0-.23-.08-.32s-.22-.45-.33-.67-.22-.47-.34-.69-.22-.32-.33-.48-.38-.5-.54-.76a4.89,4.89,0,0,1-.48-1.2l-.07-.24a4.15,4.15,0,0,0-.33-.38,7.68,7.68,0,0,1-.64-.77,8.09,8.09,0,0,1-.46-.73c-.1-.17-.2-.33-.31-.49l-.2-.13a4.28,4.28,0,0,1-1-.88c-.32-.38-.64-.76-1-1.12a5.24,5.24,0,0,1-.7-1.09.8.8,0,0,1-.08-.17l-.16-.08a4.31,4.31,0,0,1-1.15-.73,4.69,4.69,0,0,1-.81-1,1,1,0,0,1-.09-.17,4.59,4.59,0,0,0-.51-.35c-.24-.15-.48-.31-.71-.48a4.65,4.65,0,0,0-.45-.26,7.48,7.48,0,0,1-.83-.48c-.24-.17-.48-.35-.71-.55a3.68,3.68,0,0,0-.44-.34l-.48-.3c-.25-.16-.51-.32-.77-.46s-.6-.29-.9-.43l-.42-.19-.28-.11-.36.51-.44.58-.11.15v0c0,.05,0,.1,0,.14l0,.06-.06.16-.14.35a3.52,3.52,0,0,1-.53.86l-.32.33s0-.07-.06.05h0l0,.06-.23.61-.07.19-.05.11v0l0,.06-.06.24-.1.37,0,.19,0,0-.06.18,0,.09c-.11.24-.22.48-.32.74l0,.09v.32l0,.4,0,.21v0l-.06.28-.05.13-.1.25a3.61,3.61,0,0,1-.35.66c0,.11,0,.22,0,.33v.53c0-.05-.06.48,0,.3a4.49,4.49,0,0,1-.24.67,2,2,0,0,1-.23.41l-.05.08c0,.13,0,.26,0,.39s0,.17,0,.26v.07s0,.33,0,.3v.1l-.06.27-.19.94s0,1,.07,1.45l0,.45v.38l.08.9c0,.05,0,.07,0,.13l0,.37-.06.38-.05.18,0,.09-.09.23.12.31a5.21,5.21,0,0,1,.16.63l.18.91,0,.09v0h0v0a5,5,0,0,1,.06.54c0,.24,0,.27,0,.42s0,.18,0,.21h0v.18a.07.07,0,0,0,0,.05v0s0,0,0,0v0l0,.23c0,.32,0,.59.11,1a1.6,1.6,0,0,1,.05.21c0,.08.08.28.11.41s.1.34.12.37a1.68,1.68,0,0,0,.08.25,7.61,7.61,0,0,0,.38.81,2.52,2.52,0,0,1,.21.4l.1.21,0,.1,0,.05.09.24v0h0v0l.11.61.08.49,0,.12,0,.09.16.43.32.84.31.8.28.87,0,.1,0,.06v0A2.65,2.65,0,0,1,253,223.47Zm-1.23,5.47-.26-.35a5.69,5.69,0,0,1-.61-1l-.38-.75-.06-.1-.12-.18a2.49,2.49,0,0,0-.23-.31l-.1-.13-.06-.06-.16-.26v0l0,0c0-.09,0-.1-.12-.24s-.14-.37-.2-.56l-.07-.3a.79.79,0,0,1,0-.13h0l-.1-.29-.31-.86-.36-.9-.35-.87-.17-.42,0-.11,0-.05-.08-.3,0-.22-.11-.68h0l-.1-.2a4.36,4.36,0,0,0-.23-.42,8.36,8.36,0,0,1-.42-.85c-.06-.14-.16-.42-.23-.62a4.5,4.5,0,0,1-.16-.51,4.93,4.93,0,0,1-.14-.48l-.15-.69c0-.24-.07-.59-.1-.88l-.06-.6v-.23c0-.16,0-.32,0-.47l0-.25v0h0l0-.17-.19-.9a1.28,1.28,0,0,0-.07-.26.08.08,0,0,0,0,0l-.12-.29-.06-.17a1.84,1.84,0,0,1-.08-.3,2,2,0,0,1-.06-.32l0-.17V211c0-.56,0-.39,0-.36v0a4.44,4.44,0,0,1,.16-.71l.11-.28,0-.1-.08-.79v-.53l0-.45a13.8,13.8,0,0,1,0-2.13l.16-.8,0-.16h0a.42.42,0,0,0,0-.14,0,0,0,0,0,0,0s0-.17,0-.24,0-.16,0-.4a5.72,5.72,0,0,1,0-.59h0l.1-.42v0l0-.05,0-.11,0-.1.12-.25a4.23,4.23,0,0,1,.24-.4l0-.26v-.18l0-.31,0-.31,0-.16v-.07c0-.14.07-.21.08-.24v0h0l.08-.19a6.34,6.34,0,0,1,.38-.71L247,199l.07-.56,0-.14v0a1.45,1.45,0,0,1,.06-.22l0,0,.08-.2c.1-.25.21-.51.33-.76l0-.08.05-.18.12-.4.16-.54,0-.13v0l.07-.19.14-.37.2-.48.1-.24.14-.23h0l0,0,.06-.08a4,4,0,0,1,.46-.55l.12-.12.09-.22.08-.19.13-.27.27-.54.2-.27.11-.15.06-.08-.32,0a6.67,6.67,0,0,1-.91-.1c-.21,0-.42,0-.63,0s-.54,0-.8,0a4.79,4.79,0,0,1-1.24-.35l-.23-.08c-.15,0-.35,0-.56,0a7.36,7.36,0,0,1-.81.06c-.27,0-.55,0-.83,0a3.61,3.61,0,0,0-.55,0l-.22.1a4.59,4.59,0,0,1-1.2.42l-.58.1a4.86,4.86,0,0,0-.55.1,1.91,1.91,0,0,1-.81.39l-1.12.23-.1,0-.08,0-.57.26-.1,0h0c-.13.1-.26.22-.39.33a1.37,1.37,0,0,1-.21.17l-.09.07,0,0c-.11.07-.15.1-.17.1h0c-.29.13-.6.26-.87.41h0l-.05,0-.28.27-.19.18-.1.1a3,3,0,0,1-.31.24,3.3,3.3,0,0,1-.51.3l-.17.09,0,0,.06,0s.06-.07,0,0l-.06,0,0,0a4.12,4.12,0,0,0-.28.31l-.21.23-.1.11,0,0h0a1.87,1.87,0,0,1-.14.3l-.16.29-.08.14,0,0a1,1,0,0,0-.11.18s0,0,0,0h0v0a2.25,2.25,0,0,1-.16.35l-.14.31,0,0,0,.1-.05.07-.08.15-.36.61-.66,1c0,.14,0,.2-.11.5l0,.18,0,.1v0l0,.14v0l-.14.36-.24.64c0,.19-.07.38-.11.58l0,.2,0,.1v0a.41.41,0,0,1,0,.09v0l0,0L231,203l-.12.4-.05.2,0,0s0,0,0-.06l0,.07v0c-.09.29-.18.6-.26.89l-.06.2v0l-.07.38,0,.28.08.24c0,.14.09.37.1.44l0,.22.09.94,0,.22v.11a.72.72,0,0,0,0,.15V208a3.39,3.39,0,0,1-.06.54l-.06.31v0a.43.43,0,0,1,0-.05s0,.06,0,.09v.2c0,.27,0,.54.06.81l0,0,0,.05,0,.11.13.37.08.22v0l.05.2,0,0,0,.06a1.94,1.94,0,0,1,.11.24l.18.42,0,.06.06.18v0l0,.11.06.23.1.46.06.23,0,.16.06.32.05.33v.48a.27.27,0,0,0,0-.12h0a.15.15,0,0,0,0,.06v.07l.07.19.17.44.07.17v0l.1.12c.1.13.2.26.29.4l.14.23,0,.05.11.21v0l.05.13.09.27.17.49,0,.07.15.17a4.65,4.65,0,0,1,.32.4l.14.21.58,1,.11.22a5.49,5.49,0,0,1,.21.51c0,.16.1.35.12.43h0a.92.92,0,0,0,0,.09l0,.11.17.3.25.43,0,.08,0,0,.1.12.27.31.17.19,0,.05.1.13,0,.06.16.27.15.28.07.17.06.17,0,.07a.18.18,0,0,0-.05-.07l.05.1.06,0,.12.11.32.31.08.09,0,0,0,0,.13.15.17.23.32.44.12.16a5,5,0,0,1,.7.49l.1.08.2.2,0,0,0,.05.16.19.32.37.17.19.14.19.19.27a5.09,5.09,0,0,1,.27.5l.21.11.25.15.13.09.1.07,0,0a2,2,0,0,1,.23.21l0,0,.05.06a5.16,5.16,0,0,1,.38.51l.16.32v0a.08.08,0,0,0,0,0c-.18-.06.65.54,1.08.85l.36.25.1.07.05,0,0,0,.15.11.21.22.66.71.68.68.74.7.68.63.35.32a5.18,5.18,0,0,1,.52.62l.09.13h0l.08.08.07,0,.78.51a4.8,4.8,0,0,1,.59.26l.85.42.41.21.13.07.06,0,.12.09.24.2a2.24,2.24,0,0,1,.32.33l.11.14.05.06h0l.11.11h0l.69.4.08,0,.14.09,0,0,.05,0,.2.17.38.32.15.14.23.06.43.16.2.09,0,0,.21.13h0l.07.06.69.49c.16.12.62.51.81.69l.2.19.35.11a3.35,3.35,0,0,1,.53.22h0a1.15,1.15,0,0,1,.21.13l0,0,.11.09.21.19a2.15,2.15,0,0,1,.3.35l.13.19.12,0,.39.1.18.07h.07a2.53,2.53,0,0,1,.24.12l.09.06.18.12.34.24.3.21.08.06.06,0,.63.35.1.06h.1l.25,0,.34.07.18.05.09,0h0l.25.1h0l.58.31.29.15,0,0,0-.06-.18-.27-.13-.25h0c-.06,0-.07,0-.06,0v0a3.11,3.11,0,0,1-.94-.59l-.08-.07-.18-.22h0l0,0,0-.05-.1-.13a6,6,0,0,1-.32-.67l0-.05-.16-.14a2.28,2.28,0,0,1-.31-.28l-.37-.36-.1-.09,0,0-.05-.07,0,0-.11-.14-.21-.3-.16-.22-.07-.09h0l-.13-.12h0c-.05,0-.22-.15-.31-.21a2.64,2.64,0,0,1-.29-.25l-.15-.15-.07-.08,0,0-.16-.24,0,0-.08-.15,0-.09-.09-.21a4,4,0,0,1-.15-.45l0-.08,0,0-.6-.61-.07-.08-.1-.11-.13-.15-.27-.31-.26-.3,0-.05h0s0,0,0,0v0h0l-.13-.14a3.19,3.19,0,0,1-.3-.32l-.39-.47a5.67,5.67,0,0,1-.45-.72l-.21-.35-.14-.16-.64-.73-.54-.74-.12-.18-.06-.09,0,0,0,0-.2-.38,0,0a2.75,2.75,0,0,1-.21-.63l-.06-.27,0-.19v0l-.41-.63-.08-.11,0,0v0h0Zm-35.65,32.9c.15,1.07,0,2.18.24,3.24s.44,2.12.72,3.16.68,2.06,1,3.07.58,2.11,1,3.1,1.29,1.79,1.78,2.74.77,2.05,1.32,3,1.24,1.8,1.87,2.64a18.32,18.32,0,0,1,1.57,2.73c.37.23.74.45,1.1.71s.83.57,1.31.86l.34.21.13.07.71.35,1.38.68h0l0,0,.16.07.32.15c.22.09.43.18.63.28l1.09.41c.1,0,.11,0,.26,0l.54,0h.82l.78.08,1.07.21,1.08.16h.1c-.1-.11-.22-.21-.32-.31a19.88,19.88,0,0,1-1.58-1.84c-.46-.63-1-1.37-1.47-2.05a21.83,21.83,0,0,0-1.19-2,15.76,15.76,0,0,1-1.4-2.11c-.46-.75-1.08-1.46-1.5-2.28s-.79-1.77-1.16-2.58-1-1.62-1.31-2.39c-.42-1-.82-1.82-1.09-2.48-.36-.87-.55-1.74-.84-2.53s-.78-1.63-1-2.45-.44-1.7-.7-2.57-.5-1.65-.76-2.55c-.17-.59-.3-1.4-.53-2.38-.16-.73-.65-1.61-.8-2.48s-.22-1.58-.32-2.43-.33-1.64-.36-2.47.14-1.54.1-2.31-.24-1.56-.27-2.3v-.17a9.38,9.38,0,0,1,.11-1.21l-.46.39a2.38,2.38,0,0,0-.65.91c-.13.27-.25.54-.37.81s-.28.55-.42.83l-.09.16,0,.06-.08.12-.17.24c-.12.17-.24.33-.33.44l-.48.59a3.31,3.31,0,0,0-.39.57v0l0,.08-.05.18-.12.34-.13.34-.14.45-.28.89c-.18.6-.37,1.2-.56,1.81l-.14.46,0,.1v.06l0,.12-.23.93-.23,1-.11.41,0,.11,0,.24,0,.13C215.5,259.75,216,260.78,216.13,261.84Zm15-12.08c.09.86.23,1.76.41,2.67s.2,1.8.42,2.69.47,1.76.72,2.62.8,1.67,1.06,2.5.58,1.78.86,2.57.4,1.45.75,2.59c.27.85.8,1.61,1.16,2.44s.74,1.64,1.14,2.45.59,1.72,1,2.51,1,1.5,1.47,2.28,1,1.51,1.47,2.27.89,1.57,1.38,2.31,1,1.53,1.43,2.29a22.62,22.62,0,0,0,4.1,4.59c.39.36.75.68,1,1l.28-.17a33.64,33.64,0,0,0,4.24-2.93l.14-.1,0,0,.27-.28.55-.55.28-.28.08-.08h0l.07-.08.52-.61.2-.24c-2.4-2.13-3.76-4.59-5.09-6.45-1.75-2.45-1.2-3.36-2.83-5.25-1.89-2.2-1.52-4-2.95-5.69s-1.1-3.61-2.33-5.6a29.14,29.14,0,0,1-2-5.57,32,32,0,0,1-1.44-7.58c0-2.1-1.17-3.18-.59-5.63.21-.86,0-2,.18-2.83l-1,0h-1.57c-.3,0-.64.1-.89.12-.61.12-.95.16-.95.16a1.46,1.46,0,0,1-.66-.07l-.08,0-1.12.28-.34.09-.12,0-.06,0-.78.28-.07,0c0,.06,0,.1,0,.17a11.12,11.12,0,0,0-.67,2.7,21.51,21.51,0,0,0-.18,2.71c0,.92-.14,2.15-.06,3.09S231,248.85,231.08,249.76Zm31.53-2.35,0,0,.15.19a1.65,1.65,0,0,0,.22.25l.12.12.22.24a3.89,3.89,0,0,1,.48.63,2.85,2.85,0,0,1,.26.42l.11.22.21.44.44.89.05.11v0l.12.26,0,.06.08.24.16.47c.1.31.19.62.28.93s.19.57.28.85c.05-.08.1-.18.15-.25a13.4,13.4,0,0,1,1.34-1.76,11.43,11.43,0,0,1,1.53-1.49c.21-.15.44-.29.67-.43l-.52-.12a2.18,2.18,0,0,1-.38-.12l-.25-.12-.56-.26-.16-.07,0,0-.22-.13h0l-.07-.05c-.06,0-.3-.24-.45-.38s-.11-.1-.13-.1,0,0-.16-.07l-.84-.38-.87-.42-.12-.05h0l-.18,0h0l-.38-.06a4.69,4.69,0,0,1-.58-.17l-.3-.12-.56-.22-.14-.05-.07,0h-.05l-.2-.1v0l-.09-.05.42.65Zm-.05-59.6h0Zm25.35,89.7a13.12,13.12,0,0,0,4.71,3.71,12.83,12.83,0,0,0,5.49,1.21,13.1,13.1,0,0,0,5-1,12.6,12.6,0,0,0,2.94-1.7c0-.05,0-.1,0-.15s0-.33.06-.47,0-.22.06-.31a4.62,4.62,0,0,1,.15-.56v0a1.44,1.44,0,0,1,2.8.44s0,.2,0,.58c0,.09,0,.19,0,.31a2.35,2.35,0,0,0,0,.27c0,.1,0,.21,0,.32v.11l0,.26c0,.16,0,.38.08.53s.07.3.11.47a9.15,9.15,0,0,0,.31,1.14l.08.23,0,.06v0l.06.12c.13.21.26.5.38.66s.21.27.32.41.4.48.56.64l.21.18.09.08a6.18,6.18,0,0,0,.81.41l.35.13.36.14.47.18c.15.05.22.05.33.08s.23.07.25.06l.53.07.26,0h.52c.19,0,.72,0,1-.08l.36-.06.09,0h0l.23-.08.54-.17.36-.18.13-.07h0l.12-.07.49-.31a2.52,2.52,0,0,0,.34-.27l.17-.13h0l.11-.1.44-.39a2.62,2.62,0,0,0,.29-.32l.14-.15,0,0,0-.06.34-.49.35-.48.17-.25,0,0,.07-.11.32-.5c.11-.18.14-.26.21-.39l.11-.18,0-.05,0-.08.2-.57c.07-.19.1-.35.16-.52l0-.19v0l0-.08,0-.14.29-1.16,0-.09,0-.24.06-.59.05-.59v-.27l0-1.15v0l-.06-.29a2.22,2.22,0,0,0-.11-.5l-.11-.36h0l-.05-.13-.11-.26a5.43,5.43,0,0,0-.37-.76l-.26-.46a3,3,0,0,0-.24-.38,1.37,1.37,0,0,1-.15-.21l0,0h0l-.06-.06-.19-.19a5.31,5.31,0,0,0-1.32-1l-.49-.22-.48-.15-.22-.07-.15,0-.29-.06h0l-.24,0-.46,0-.3,0-.71.05a5.22,5.22,0,0,0-.61.07.74.74,0,0,0-.19.05h-.06l-.58.33-.38.31-.44.33c-.15.12-.36.26-.45.35a2.4,2.4,0,0,1-.24.22l-.11.1,0,0v0c-.1.12-.18.24-.26.35l-.4.56-.34.47a2,2,0,0,1-3.2-2.24l0,0,.33-.48.39-.57.25-.36.06-.1,0,0,.1-.13,0,0,.06-.06c.08-.08.16-.17.25-.25s.36-.36.56-.55l0,0a1.47,1.47,0,0,1-.24-.4.54.54,0,0,1,0-.18c0-.12,0-.3,0-.52a11.39,11.39,0,0,0-.09-1.63c0-.34-.1-.69-.16-1.06a10,10,0,0,0-.29-1.14c-.1-.39-.26-.78-.4-1.19l-.25-.59,0-.08h0l-.08-.17-.17-.34a11.28,11.28,0,0,0-.61-1.17c-.22-.35-.44-.72-.69-1s-.47-.66-.72-.94a9.37,9.37,0,0,0-.71-.79c-.2-.23-.4-.41-.58-.59a2.25,2.25,0,0,1-.69.09,2,2,0,0,1-1.86-2l-.92-.41c-.42-.15-.93-.34-1.43-.47a9.69,9.69,0,0,0-1.72-.34,11.8,11.8,0,0,0-4.13.22c-.23,0-.87.22-1.18.33s-.7.25-1.09.43a12.7,12.7,0,0,0-2.25,1.28,12.9,12.9,0,0,0-2.08,1.79,12.59,12.59,0,0,0-1.76,2.25,14.31,14.31,0,0,0-1.74,4.11,13,13,0,0,0-.3,1.54,15.77,15.77,0,0,0,.34,6.26A14.69,14.69,0,0,0,287.91,277.51Zm19.68-24.45.28.2.11.08a12.17,12.17,0,0,1,.48-1.59c.25-.63.54-1.23.82-1.8l.33-.69.2-.42c.31-.66.63-1.35,1-2l.32-.58c.32-.6.66-1.21,1.05-1.82a16.78,16.78,0,0,1,1.19-1.52c.19-.21.38-.43.55-.65s.35-.46.51-.7a13.87,13.87,0,0,1,1.24-1.53,19.31,19.31,0,0,1,2.21-1.88,14.82,14.82,0,0,1,2.55-1.64,11.1,11.1,0,0,1,3.08-.94l.45,0c-.13-.17-.27-.33-.4-.47a6.73,6.73,0,0,0-1.26-.92l-.54-.35a7.41,7.41,0,0,0-1.83-1,7.24,7.24,0,0,0-1.82-.45,4.9,4.9,0,0,0-1.38.38l-.43.16a6,6,0,0,0-1.57.75,9.11,9.11,0,0,0-1.46,1.46,14.6,14.6,0,0,0-1.27,1.78,20.49,20.49,0,0,0-1.09,2,11.9,11.9,0,0,0-.42,1.17c-.11.34-.22.69-.35,1s-.21.54-.32.82c-.2.48-.38.93-.53,1.42-.22.73-.45,1.48-.64,2.25s-.35,1.56-.5,2.34a11.76,11.76,0,0,0-.14,1.17c0,.41-.07.82-.13,1.22s-.12.73-.19,1.1-.17.84-.22,1.27c0,.07,0,.14,0,.22Zm-13.8,13.44a6.91,6.91,0,0,1,1.39-1.67,6.74,6.74,0,0,1,1.77-1.15,6.16,6.16,0,0,1,2.09-.47,6.28,6.28,0,0,1,2.12.21,6.93,6.93,0,0,1,1.92.86,7.63,7.63,0,0,1,1.6,1.31,6.17,6.17,0,0,1,1.22,2.15,7.15,7.15,0,0,1,.33,2.36,7.47,7.47,0,0,1-.33,2.42,4.62,4.62,0,0,1-.58,1.1l-.22.33a6.14,6.14,0,0,1-1.16,1.28,7.28,7.28,0,0,1-1.69,1.16,6.51,6.51,0,0,1-2,.57c-.22,0-.44,0-.67,0a6.26,6.26,0,0,1-1.45-.17,6.5,6.5,0,0,1-1.92-.87,7.57,7.57,0,0,1-1.55-1.33,7,7,0,0,1-1.19-1.82,7.66,7.66,0,0,1-.57-2.08,6.79,6.79,0,0,1,.12-2.17A6.23,6.23,0,0,1,293.79,266.5Zm1.93,5.3a4.11,4.11,0,0,0,.53.85,3.52,3.52,0,0,1,.11-2.51,3.44,3.44,0,0,1,4.62-1.71,3.59,3.59,0,0,1,1.92,4.29,1.71,1.71,0,0,0,.11-.14l.25-.37a2.2,2.2,0,0,0,.29-.55,5.25,5.25,0,0,0,.18-1.57,4.68,4.68,0,0,0-.2-1.54,3.68,3.68,0,0,0-.71-1.29,5.15,5.15,0,0,0-1.08-.87,4.45,4.45,0,0,0-1.23-.56,3.94,3.94,0,0,0-1-.14h-.27a4.17,4.17,0,0,0-1.28.28,4.48,4.48,0,0,0-1.12.74,4.74,4.74,0,0,0-.89,1.07,4,4,0,0,0-.49,1.25,4.47,4.47,0,0,0-.08,1.38A4.87,4.87,0,0,0,295.72,271.8Z" style="fill: #1d1d1b"/>
  </g>
</svg>
