<svg xmlns="http://www.w3.org/2000/svg" viewBox="0 0 500 500">
  <title>border</title>
  <path d="M487.85,248.48a5.23,5.23,0,0,0-2.1.41,1.08,1.08,0,0,1-.56.11,4.55,4.55,0,0,1-.94-.08,8.25,8.25,0,0,0-1.71-.16,6.43,6.43,0,0,1-1.05-.07,10.28,10.28,0,0,0-1.6-.11c-.6,0-.89,0-1.19,0s-.73,0-1.47,0-1.12,0-1.5.06-.58,0-1.16,0-1.07,0-1.43,0-.61,0-1.22,0-1.05,0-1.4,0-.63,0-1.26,0a7.54,7.54,0,0,0-1.74.18,3.65,3.65,0,0,1-.91.09,4.78,4.78,0,0,1-1-.08,8.09,8.09,0,0,0-1.68-.15,7.23,7.23,0,0,1-1.08-.06,12.58,12.58,0,0,0-1.58-.09c-.72,0-1.08,0-1.44,0s-.61,0-1.21,0-.9,0-1.2,0-.73,0-1.46,0a5.74,5.74,0,0,0-2,.33,1.5,1.5,0,0,1-.66.11,1.86,1.86,0,0,1-.71-.11,5.85,5.85,0,0,0-1.95-.3H448a8.42,8.42,0,0,0-1.74.17,3.55,3.55,0,0,1-.92.1h-1.1a6.52,6.52,0,0,1-1.05-.07,10.33,10.33,0,0,0-1.61-.11c-.74,0-1.11,0-1.49.06s-.58,0-1.17,0a4.89,4.89,0,0,1-1-.08,9.06,9.06,0,0,0-1.67-.14,5.55,5.55,0,0,0-2,.35,1.44,1.44,0,0,1-.64.11h-1.36l-1.28,0-.11-.06a4.11,4.11,0,0,0-2.1-.55,6,6,0,0,0-2.14.36,1.93,1.93,0,0,1-.81.14,3.16,3.16,0,0,1-.86-.1,7.43,7.43,0,0,0-1.73-.18,11.81,11.81,0,0,0-1.5.08c-.27,0-.54,0-1.08,0h-1.26c-.33,0-.66,0-1.33,0a3.31,3.31,0,0,1-.87-.09,8.19,8.19,0,0,0-1.72-.17,7.48,7.48,0,0,0-1.72.18,3.7,3.7,0,0,1-.86.09,5.14,5.14,0,0,1-.95-.08,9.46,9.46,0,0,0-3.3,0,4.38,4.38,0,0,1-.93.08,9,9,0,0,1-1.06-.05,10,10,0,0,0-1.52-.09,7.41,7.41,0,0,0-1.7.17,4,4,0,0,1-.89.08,9.24,9.24,0,0,1-1.08,0,11.87,11.87,0,0,0-1.51-.08,3.51,3.51,0,0,1-.84-.09,7.22,7.22,0,0,0-1.75-.2,8,8,0,0,0-1.7.17,3.34,3.34,0,0,1-.88.09c-.74,0-1.1,0-1.47.06s-.56.05-1.12.05a1.73,1.73,0,0,1-.68-.11,5.94,5.94,0,0,0-1.91-.29,6,6,0,0,0-1.92.29,1.68,1.68,0,0,1-.67.11c-.55,0-.82,0-1.1-.05a12.14,12.14,0,0,0-1.49-.07h-1.22a9.61,9.61,0,0,1-1.13-.05c-.37,0-.73,0-1.46,0a8.8,8.8,0,0,0-1.65.14,4.48,4.48,0,0,1-.94.08h-2.58c-.59,0-.89,0-1.18,0s-.71,0-1.42,0h-1c-.59,0-.88,0-1.17,0s-.71-.05-1.42-.05a6.23,6.23,0,0,1-1-.07,11.38,11.38,0,0,0-1.58-.11c-.57,0-.86,0-1.14,0s-.72,0-1.45,0a7.87,7.87,0,0,0-1.67.16,4.23,4.23,0,0,1-.91.08c-.55,0-.82,0-1.09,0a12.46,12.46,0,0,0-1.5-.07,9,9,0,0,0-1.64.13,4.52,4.52,0,0,1-.95.08c-.58,0-.86,0-1.15,0s-.72-.05-1.44-.05-.87,0-1.16,0-.71-.05-1.43-.05h-2.59a8.8,8.8,0,0,0-1.6.12,6,6,0,0,1-1,.07,3.63,3.63,0,0,1-.92-.09,8.83,8.83,0,0,0-1.67-.15,5.4,5.4,0,0,0-2,.36,1.38,1.38,0,0,1-.59.11,1.15,1.15,0,0,1-.55-.11,5,5,0,0,0-2-.39l-1.23,0-1.36,0c-.63,0-.94,0-1.25,0h-1.35c-.38,0-.68,0-.93,0a2,2,0,0,0-.43,0,5.82,5.82,0,0,0-1.82.26,5.42,5.42,0,0,0-.84.14,7.54,7.54,0,0,0-1.62.16,4.27,4.27,0,0,1-.92.08h-1.24l-1.35,0-1.23,0-1.36,0a1.11,1.11,0,0,1-.55-.11,5.1,5.1,0,0,0-2.05-.39,5.4,5.4,0,0,0-2,.36,1.38,1.38,0,0,1-.59.11,4.06,4.06,0,0,1-.91-.09,8.13,8.13,0,0,0-1.67-.15,9.85,9.85,0,0,0-1.6.12,6,6,0,0,1-1,.07h-2.59c-.58,0-.87,0-1.16,0s-.72,0-1.43,0-.87,0-1.15,0-.72-.05-1.44-.05a7.89,7.89,0,0,0-1.64.14,5.51,5.51,0,0,1-.95.07,9.26,9.26,0,0,1-1.1-.05,14.62,14.62,0,0,0-1.49-.07,8.25,8.25,0,0,0-1.68.15,4,4,0,0,1-.91.09c-.57,0-.86,0-1.14,0s-.73,0-1.45,0a6,6,0,0,1-1-.07,10.12,10.12,0,0,0-1.59-.11c-.58,0-.87,0-1.16,0s-.71,0-1.42,0h-1.32c-.59,0-.88,0-1.17,0s-.71,0-1.41,0h-.73a8.8,8.8,0,0,0-1.65.14,4.48,4.48,0,0,1-.94.08c-.56,0-.84,0-1.13,0s-.73-.06-1.46-.06h-2.59a9.06,9.06,0,0,1-1.09,0,14.79,14.79,0,0,0-1.49-.07,5.65,5.65,0,0,0-1.92.3,1.89,1.89,0,0,1-.67.1,2,2,0,0,1-.68-.1,5.63,5.63,0,0,0-1.91-.3c-.73,0-1.1,0-1.46.06a9.74,9.74,0,0,1-1.13.05,7.41,7.41,0,0,0-1.7.17,3.9,3.9,0,0,1-.88.09,3.13,3.13,0,0,1-.85-.1,7.25,7.25,0,0,0-1.74-.19,9.24,9.24,0,0,1-1.08-.05,11.87,11.87,0,0,0-1.51-.08,8.22,8.22,0,0,0-1.7.16,3.86,3.86,0,0,1-.89.09,8.53,8.53,0,0,1-1.06-.06,12.07,12.07,0,0,0-1.52-.08,9.06,9.06,0,0,0-1.67.14,4.16,4.16,0,0,1-.92.09,5.32,5.32,0,0,1-.95-.08,8.76,8.76,0,0,0-1.64-.14A7.48,7.48,0,0,0,245,249a3.22,3.22,0,0,1-.86.09,3.39,3.39,0,0,1-.88-.09,7.3,7.3,0,0,0-1.71-.18h-2.59a11.94,11.94,0,0,0-1.5.08c-.27,0-.54,0-1.08,0a3.22,3.22,0,0,1-.86-.09,7.3,7.3,0,0,0-1.73-.19,6,6,0,0,0-2.14.36,2.31,2.31,0,0,1-.79.16l-.11-.06a4,4,0,0,0-2.1-.55h-2.66a5.5,5.5,0,0,0-2,.36,1.44,1.44,0,0,1-.64.11,4.71,4.71,0,0,1-1-.08,9.29,9.29,0,0,0-1.68-.14c-.74,0-1.11,0-1.49.06s-.58,0-1.17,0a6.52,6.52,0,0,1-1-.07,10.33,10.33,0,0,0-1.61-.11h-1a7.62,7.62,0,0,0-1.74.18,4.16,4.16,0,0,1-.92.09H209a1.84,1.84,0,0,1-.7-.11,5.9,5.9,0,0,0-2-.3,5.74,5.74,0,0,0-2,.33,1.69,1.69,0,0,1-.66.11c-.6,0-.9,0-1.2,0s-.73,0-1.46,0-1.09,0-1.45,0-.6,0-1.21,0a7.14,7.14,0,0,1-1.08-.06,12.58,12.58,0,0,0-1.58-.09,4.54,4.54,0,0,1-1-.09,9.29,9.29,0,0,0-1.68-.14,7.65,7.65,0,0,0-1.75.18,4.2,4.2,0,0,1-.91.09c-.7,0-1.05,0-1.4,0s-.63,0-1.26,0-1.07,0-1.43,0-.61,0-1.22,0-1.12,0-1.5.06a10.15,10.15,0,0,1-1.15.05c-.6,0-.89,0-1.19,0s-.73,0-1.47,0a6.52,6.52,0,0,1-1.05-.07,10.28,10.28,0,0,0-1.6-.11,3.9,3.9,0,0,1-.95-.09,8.44,8.44,0,0,0-1.71-.15h-.24a2.07,2.07,0,0,0-.7-.13,6,6,0,0,0-1.92.29,1.73,1.73,0,0,1-.68.11,8,8,0,0,0-1.68.16,4.27,4.27,0,0,1-.92.08h-1.25l-1.34,0-1.23,0c-.34,0-.68,0-1.37,0a1.09,1.09,0,0,1-.54-.11,5.1,5.1,0,0,0-2-.39,5.4,5.4,0,0,0-2,.36,1.38,1.38,0,0,1-.59.11,4.06,4.06,0,0,1-.91-.09,8.13,8.13,0,0,0-1.67-.15,9.85,9.85,0,0,0-1.6.12,6,6,0,0,1-1,.07h-2.59c-.58,0-.87,0-1.16,0s-.72,0-1.43,0-.87,0-1.15,0-.72-.05-1.44-.05a7.89,7.89,0,0,0-1.64.14,5.51,5.51,0,0,1-.95.07,9.26,9.26,0,0,1-1.1-.05,14.62,14.62,0,0,0-1.49-.07,8.17,8.17,0,0,0-1.68.15,4,4,0,0,1-.91.09c-.57,0-.86,0-1.15,0s-.72,0-1.44,0a6,6,0,0,1-1-.07,10.12,10.12,0,0,0-1.59-.11c-.58,0-.87,0-1.16,0s-.71,0-1.42,0h-2.59c-.59,0-.88,0-1.18,0s-.7,0-1.41,0h-1a9,9,0,0,0-1.66.14,4.38,4.38,0,0,1-.93.08c-.57,0-.85,0-1.13,0s-.73-.06-1.46-.06h-.93a9.26,9.26,0,0,1-1.1,0,14.62,14.62,0,0,0-1.49-.07,5.63,5.63,0,0,0-1.91.3,1.93,1.93,0,0,1-.67.1,2,2,0,0,1-.68-.1,5.63,5.63,0,0,0-1.91-.3c-.73,0-1.1,0-1.47.06a9.53,9.53,0,0,1-1.12.05,7.41,7.41,0,0,0-1.7.17,4,4,0,0,1-.89.09,3.05,3.05,0,0,1-.84-.1,7.33,7.33,0,0,0-1.74-.19,9.24,9.24,0,0,1-1.08-.05,12,12,0,0,0-1.51-.08,8.22,8.22,0,0,0-1.7.16,3.93,3.93,0,0,1-.89.09,8.53,8.53,0,0,1-1.06-.06,12.26,12.26,0,0,0-1.53-.08,9,9,0,0,0-1.66.14,4.16,4.16,0,0,1-.92.09,5.14,5.14,0,0,1-1-.08,8.85,8.85,0,0,0-1.64-.14A7.4,7.4,0,0,0,87,249a3.25,3.25,0,0,1-.87.09,3.36,3.36,0,0,1-.87-.09,7.3,7.3,0,0,0-1.71-.18H80.94a11.81,11.81,0,0,0-1.5.08c-.27,0-.54,0-1.08,0a3.22,3.22,0,0,1-.86-.09,7.3,7.3,0,0,0-1.73-.19,6,6,0,0,0-2.14.36,2.36,2.36,0,0,1-.79.16l-.12-.06a4,4,0,0,0-2.09-.55H68a5.55,5.55,0,0,0-2,.36,1.39,1.39,0,0,1-.63.11,4.89,4.89,0,0,1-1-.08,9.06,9.06,0,0,0-1.67-.14c-.75,0-1.12,0-1.49.06s-.59,0-1.17,0a6.43,6.43,0,0,1-1-.07,10.44,10.44,0,0,0-1.61-.11H54.66a7.54,7.54,0,0,0-1.74.18A4.16,4.16,0,0,1,52,249H49.34a1.86,1.86,0,0,1-.71-.11,5.85,5.85,0,0,0-2-.3,5.79,5.79,0,0,0-2,.33A1.66,1.66,0,0,1,44,249c-.6,0-.9,0-1.19,0s-.74,0-1.47,0-1.08,0-1.45,0-.6,0-1.2,0a7.14,7.14,0,0,1-1.08-.06,12.58,12.58,0,0,0-1.58-.09,4.65,4.65,0,0,1-1-.09,9.2,9.2,0,0,0-1.68-.14,7.72,7.72,0,0,0-1.75.18,4,4,0,0,1-.9.09c-.71,0-1.06,0-1.41,0s-.62,0-1.25,0-1.07,0-1.43,0-.61,0-1.22,0-1.13,0-1.5.06a10.22,10.22,0,0,1-1.16.05c-.59,0-.89,0-1.18,0s-.74,0-1.48,0a6.38,6.38,0,0,1-1-.07,10.44,10.44,0,0,0-1.61-.11,3.75,3.75,0,0,1-.94-.09,8.53,8.53,0,0,0-1.71-.15,5.12,5.12,0,0,0-2.11.41,1.15,1.15,0,0,1-.55.11,2.2,2.2,0,0,0,0,4.4,5.23,5.23,0,0,0,2.1-.41,1.08,1.08,0,0,1,.56-.11,4.48,4.48,0,0,1,.94.08,8.25,8.25,0,0,0,1.71.16,6.43,6.43,0,0,1,1.05.07,10.28,10.28,0,0,0,1.6.11c.6,0,.89,0,1.19,0s.74,0,1.47,0,1.13,0,1.5-.06.58,0,1.16,0,1.07,0,1.43,0,.61,0,1.22,0,1.05,0,1.4,0,.63,0,1.26,0a7.72,7.72,0,0,0,1.75-.18,3.51,3.51,0,0,1,.9-.09,4.78,4.78,0,0,1,1,.08,8.17,8.17,0,0,0,1.68.15,7.14,7.14,0,0,1,1.08.06,12.58,12.58,0,0,0,1.58.09c.72,0,1.08,0,1.44,0s.61,0,1.21,0,.9,0,1.2,0,.73,0,1.46,0a5.74,5.74,0,0,0,2-.33,1.5,1.5,0,0,1,.66-.11,1.86,1.86,0,0,1,.71.11,5.85,5.85,0,0,0,2,.3H52a8.42,8.42,0,0,0,1.74-.17,3.55,3.55,0,0,1,.92-.1h2.66a6.62,6.62,0,0,1,1,.07,10.33,10.33,0,0,0,1.61.11c.74,0,1.11,0,1.48-.06s.59,0,1.18,0a4.78,4.78,0,0,1,1,.08,9.2,9.2,0,0,0,1.68.14,5.6,5.6,0,0,0,2-.35,1.42,1.42,0,0,1,.63-.11h1.37l1.27,0,.12.06a4.1,4.1,0,0,0,2.09.55,6,6,0,0,0,2.15-.36,1.93,1.93,0,0,1,.81-.14,3,3,0,0,1,.85.1,7.53,7.53,0,0,0,1.74.18,11.81,11.81,0,0,0,1.5-.08c.27,0,.54,0,1.08,0h1.25l1.34,0a3.36,3.36,0,0,1,.87.09,8.07,8.07,0,0,0,1.71.17,7.33,7.33,0,0,0,1.72-.18,3.8,3.8,0,0,1,.87-.09,5.32,5.32,0,0,1,1,.08,9.46,9.46,0,0,0,3.3,0,4.27,4.27,0,0,1,.92-.08,8.84,8.84,0,0,1,1.06.05,10.28,10.28,0,0,0,1.53.09,7.41,7.41,0,0,0,1.7-.17,4,4,0,0,1,.89-.08,9.36,9.36,0,0,1,1.08,0,11.87,11.87,0,0,0,1.51.08,3.57,3.57,0,0,1,.84.09,7.19,7.19,0,0,0,1.74.2,7.88,7.88,0,0,0,1.7-.17,3.48,3.48,0,0,1,.89-.09c.73,0,1.1,0,1.47-.06s.56-.05,1.12-.05a1.68,1.68,0,0,1,.67.11,6,6,0,0,0,1.92.29,5.94,5.94,0,0,0,1.91-.29,1.71,1.71,0,0,1,.67-.11c.55,0,.83,0,1.1.05a12.26,12.26,0,0,0,1.49.07h.93a9.86,9.86,0,0,1,1.13.05c.36,0,.73,0,1.46,0a9,9,0,0,0,1.65-.14,4.42,4.42,0,0,1,.94-.08h1c.59,0,.89,0,1.18,0s.71,0,1.41,0h2.59c.58,0,.87,0,1.17,0s.71.05,1.41.05a6.05,6.05,0,0,1,1,.07,11.38,11.38,0,0,0,1.58.11c.57,0,.86,0,1.15,0s.72,0,1.44,0a8.07,8.07,0,0,0,1.68-.16,4.1,4.1,0,0,1,.91-.08c.54,0,.82,0,1.09,0a12.33,12.33,0,0,0,1.5.07,9.09,9.09,0,0,0,1.64-.13,4.39,4.39,0,0,1,1-.08c.57,0,.86,0,1.14,0s.72.05,1.45.05c.57,0,.86,0,1.15,0s.72.05,1.44.05h2.59a8.89,8.89,0,0,0,1.6-.12,5.78,5.78,0,0,1,1-.07,3.68,3.68,0,0,1,.92.09,8.8,8.8,0,0,0,1.66.15,5.35,5.35,0,0,0,2-.36,1.41,1.41,0,0,1,.59-.11,1.13,1.13,0,0,1,.55.11,5,5,0,0,0,2,.39c.62,0,.92,0,1.23,0s.68,0,1.37,0l1.24,0h1.35a7.45,7.45,0,0,0,1.69-.16,4.42,4.42,0,0,1,.84-.08,2,2,0,0,0,.95.24,5.29,5.29,0,0,0,2.11-.41,1,1,0,0,1,.55-.11,4.42,4.42,0,0,1,.94.08,8.37,8.37,0,0,0,1.72.16,6.62,6.62,0,0,1,1.05.07,10.17,10.17,0,0,0,1.6.11c.59,0,.89,0,1.18,0s.74,0,1.48,0,1.12,0,1.5-.06.57,0,1.15,0,1.07,0,1.43,0,.61,0,1.22,0,1.06,0,1.41,0,.62,0,1.25,0a7.65,7.65,0,0,0,1.75-.18A3.6,3.6,0,0,1,193,253a4.67,4.67,0,0,1,1,.08,8.17,8.17,0,0,0,1.68.15,7.14,7.14,0,0,1,1.08.06,12.58,12.58,0,0,0,1.58.09c.72,0,1.09,0,1.45,0s.6,0,1.21,0,.9,0,1.19,0,.74,0,1.47,0a5.79,5.79,0,0,0,2-.33,1.48,1.48,0,0,1,.66-.11,1.84,1.84,0,0,1,.7.11,5.9,5.9,0,0,0,1.95.3h2.66a8.46,8.46,0,0,0,1.75-.17,3.47,3.47,0,0,1,.91-.1h1a6.52,6.52,0,0,1,1.05.07,10.33,10.33,0,0,0,1.61.11c.74,0,1.11,0,1.49-.06s.58,0,1.17,0a4.71,4.71,0,0,1,1,.08,9.29,9.29,0,0,0,1.68.14,5.55,5.55,0,0,0,2-.35,1.44,1.44,0,0,1,.64-.11h1.36l1.27,0,.12.06a4.11,4.11,0,0,0,2.1.55,6,6,0,0,0,2.14-.36,1.93,1.93,0,0,1,.81-.14,3.16,3.16,0,0,1,.86.1,7.43,7.43,0,0,0,1.73.18,11.81,11.81,0,0,0,1.5-.08c.27,0,.54,0,1.08,0h1.26c.33,0,.66,0,1.33,0a3.31,3.31,0,0,1,.87.09,8.19,8.19,0,0,0,1.72.17,7.48,7.48,0,0,0,1.72-.18,3.7,3.7,0,0,1,.86-.09,5.14,5.14,0,0,1,1,.08,9.46,9.46,0,0,0,3.3,0,4.38,4.38,0,0,1,.93-.08,9,9,0,0,1,1.06.05,10,10,0,0,0,1.52.09,7.41,7.41,0,0,0,1.7-.17,4,4,0,0,1,.89-.08,9.24,9.24,0,0,1,1.08,0,11.87,11.87,0,0,0,1.51.08,3.51,3.51,0,0,1,.84.09,7.22,7.22,0,0,0,1.75.2,8,8,0,0,0,1.7-.17,3.34,3.34,0,0,1,.88-.09c.74,0,1.1,0,1.47-.06s.56-.05,1.12-.05a1.73,1.73,0,0,1,.68.11,5.94,5.94,0,0,0,1.91.29,6.05,6.05,0,0,0,1.92-.29,1.68,1.68,0,0,1,.67-.11c.55,0,.82,0,1.1.05a12.06,12.06,0,0,0,1.48.07h2.59a9.61,9.61,0,0,1,1.13.05c.37,0,.73,0,1.46,0a9,9,0,0,0,1.66-.14,4.31,4.31,0,0,1,.93-.08h.73c.59,0,.88,0,1.18,0s.7,0,1.4,0h1.32c.58,0,.88,0,1.17,0s.71.05,1.41.05a6.05,6.05,0,0,1,1,.07,11.38,11.38,0,0,0,1.58.11c.57,0,.86,0,1.15,0s.72,0,1.44,0a8.07,8.07,0,0,0,1.68-.16,4.1,4.1,0,0,1,.91-.08c.54,0,.82,0,1.09,0a12.33,12.33,0,0,0,1.5.07,9.09,9.09,0,0,0,1.64-.13,4.39,4.39,0,0,1,.95-.08c.57,0,.86,0,1.14,0s.72.05,1.45.05c.57,0,.86,0,1.15,0s.72.05,1.44.05h2.59a8.89,8.89,0,0,0,1.6-.12,5.78,5.78,0,0,1,1-.07,3.63,3.63,0,0,1,.92.09,8.8,8.8,0,0,0,1.66.15,5.35,5.35,0,0,0,2-.36,1.41,1.41,0,0,1,.59-.11,1.13,1.13,0,0,1,.55.11,5.06,5.06,0,0,0,2.05.39l1.22,0c.34,0,.68,0,1.37,0l1.24,0h1.35c.38,0,.68,0,.93,0a2.12,2.12,0,0,0,.44,0,5.92,5.92,0,0,0,1.82-.26,5.49,5.49,0,0,0,.83-.14A7.65,7.65,0,0,0,332,253a4.23,4.23,0,0,1,.91-.08h1.25c.34,0,.67,0,1.35,0s.91,0,1.22,0l1.37,0a1.15,1.15,0,0,1,.55.11,5,5,0,0,0,2,.39,5.35,5.35,0,0,0,2-.36,1.41,1.41,0,0,1,.59-.11,4.16,4.16,0,0,1,.92.09,8,8,0,0,0,1.67.15,10,10,0,0,0,1.6-.12,5.78,5.78,0,0,1,1-.07h2.59c.58,0,.86,0,1.15,0s.72,0,1.44,0c.57,0,.86,0,1.15,0s.72.05,1.44.05a8,8,0,0,0,1.64-.14,5.42,5.42,0,0,1,.95-.07,9.06,9.06,0,0,1,1.09.05,14.86,14.86,0,0,0,1.5.07,8,8,0,0,0,1.67-.15,4.13,4.13,0,0,1,.91-.09c.58,0,.86,0,1.15,0s.72,0,1.44,0a6.14,6.14,0,0,1,1,.07,10,10,0,0,0,1.58.11c.58,0,.88,0,1.17,0s.71,0,1.42,0h1c.59,0,.89,0,1.19,0s.7,0,1.41,0H378a8.8,8.8,0,0,0,1.65-.14,4.48,4.48,0,0,1,.94-.08c.56,0,.85,0,1.13,0s.73.06,1.46.06h1.22a9.14,9.14,0,0,1,1.1,0,14.79,14.79,0,0,0,1.49.07,5.7,5.7,0,0,0,1.92-.3,1.89,1.89,0,0,1,.67-.1,2,2,0,0,1,.68.1,5.63,5.63,0,0,0,1.91.3c.73,0,1.1,0,1.46-.06a9.61,9.61,0,0,1,1.13-.05,7.41,7.41,0,0,0,1.7-.17,3.9,3.9,0,0,1,.88-.09,3.13,3.13,0,0,1,.85.1,7.25,7.25,0,0,0,1.74.19,9.24,9.24,0,0,1,1.08.05,11.87,11.87,0,0,0,1.51.08,8.22,8.22,0,0,0,1.7-.16,3.86,3.86,0,0,1,.89-.09,8.53,8.53,0,0,1,1.06.06,12.07,12.07,0,0,0,1.52.08,9.06,9.06,0,0,0,1.67-.14,4.16,4.16,0,0,1,.92-.09,5.32,5.32,0,0,1,1,.08,8.76,8.76,0,0,0,1.64.14,7.3,7.3,0,0,0,1.71-.18,4.3,4.3,0,0,1,1.75,0,7.3,7.3,0,0,0,1.71.18h2.59a11.94,11.94,0,0,0,1.5-.08c.27,0,.54,0,1.08,0a3.22,3.22,0,0,1,.86.09,7.3,7.3,0,0,0,1.73.19,6,6,0,0,0,2.14-.36,2.36,2.36,0,0,1,.79-.16l.11.06a4,4,0,0,0,2.1.55h2.66a5.5,5.5,0,0,0,2-.36,1.44,1.44,0,0,1,.64-.11,4.71,4.71,0,0,1,1,.08,9.29,9.29,0,0,0,1.68.14c.74,0,1.11,0,1.49-.06s.58,0,1.17,0a6.52,6.52,0,0,1,1.05.07,10.33,10.33,0,0,0,1.61.11h1.1a7.54,7.54,0,0,0,1.74-.18A4.23,4.23,0,0,1,448,253h2.66a1.86,1.86,0,0,1,.71.11,5.85,5.85,0,0,0,1.95.3,5.74,5.74,0,0,0,2-.33A1.66,1.66,0,0,1,456,253c.6,0,.89,0,1.19,0s.74,0,1.47,0,1.08,0,1.45,0,.6,0,1.2,0a7.14,7.14,0,0,1,1.08.06,12.58,12.58,0,0,0,1.58.09,4.65,4.65,0,0,1,1,.09,9.2,9.2,0,0,0,1.68.14,7.72,7.72,0,0,0,1.75-.18,4,4,0,0,1,.9-.09c.71,0,1.06,0,1.41,0s.62,0,1.25,0,1.07,0,1.43,0,.61,0,1.22,0,1.13,0,1.5-.06a10.22,10.22,0,0,1,1.16-.05c.59,0,.89,0,1.18,0s.74,0,1.48,0a6.62,6.62,0,0,1,1.05.07,10.17,10.17,0,0,0,1.6.11,3.75,3.75,0,0,1,.94.09,8.53,8.53,0,0,0,1.71.15,5.12,5.12,0,0,0,2.11-.41,1.15,1.15,0,0,1,.55-.11,2.2,2.2,0,0,0,0-4.4Z" style="fill: #1d1d1b"/>
</svg>
