<svg xmlns="http://www.w3.org/2000/svg" viewBox="0 0 500 500">
  <title>bubble2</title>
  <g>
    <path d="M328.83,237.2c-.67-25.9-35.1-44.5-78.76-44.5a128.87,128.87,0,0,0-36.4,5.15C188.33,205.37,171,222.48,171,239.9c0,24.91,32.39,43.1,76,43.1h.55c1.45,5,7.31,26.18,7.31,26.18l3.89-26.68C297.28,279.16,329.45,261.3,328.83,237.2Z" style="fill: #fff"/>
    <path d="M331.1,241.34c.08-.66.12-1.34.16-2a5.88,5.88,0,0,0-.17-1.57,2.53,2.53,0,0,1-.08-.45,3.6,3.6,0,0,1,0-.56,7.11,7.11,0,0,0,.07-1.44c-.05-.68-.13-1.36-.22-2a14,14,0,0,0-.28-1.38c-.05-.2-.09-.41-.13-.61a4.21,4.21,0,0,1-.09-.62,9.43,9.43,0,0,0-.23-1.4,11.24,11.24,0,0,0-.48-1.3c-.08-.2-.16-.4-.23-.6s-.13-.42-.19-.63a10.91,10.91,0,0,0-.42-1.32c-.08-.2-.15-.4-.22-.61a10.86,10.86,0,0,0-.5-1.29c-.24-.48-.5-1-.77-1.43l-.2-.35c-.24-.43-.51-.84-.78-1.26l-.57-.9c-.26-.42-.53-.85-.81-1.25s-.54-.71-.83-1.05c-.15-.17-.29-.34-.43-.52-.27-.34-.56-.66-.87-1-.16-.16-.32-.33-.47-.51a9.14,9.14,0,0,0-1-.93,5,5,0,0,1-.48-.44,3.05,3.05,0,0,1-.31-.42,7.46,7.46,0,0,0-.91-1.16,7,7,0,0,0-1.16-.87,3.72,3.72,0,0,1-.45-.31c-.31-.28-.64-.53-1-.79l-.49-.38-.13-.23a4.71,4.71,0,0,0-1.16-1.45l-1.58-1.19a8.64,8.64,0,0,0-1.16-.68,4.21,4.21,0,0,1-.55-.3,3.08,3.08,0,0,1-.42-.37,7.28,7.28,0,0,0-1.1-.9l-.32-.2c-.44-.28-.89-.57-1.34-.84a6,6,0,0,0-1.48-.58l-.37-.1a2.52,2.52,0,0,1-.3-.27,5.37,5.37,0,0,0-1.27-1c-.36-.19-.74-.35-1.12-.51l-.67-.28c-.35-.18-.72-.33-1.09-.49l-.7-.29a5.15,5.15,0,0,0-1.56-.42,2.69,2.69,0,0,1-.36-.06,4,4,0,0,1-.53-.3,9,9,0,0,0-1.18-.63,5,5,0,0,1-.61-.31,12.1,12.1,0,0,0-1.13-.54,7.22,7.22,0,0,0-1.34-.35,5.08,5.08,0,0,1-.55-.13,11.52,11.52,0,0,0-1.14-.35c-.24-.07-.48-.13-.71-.21a4.6,4.6,0,0,1-.49-.25,7.25,7.25,0,0,0-1.27-.59,4.47,4.47,0,0,1-.6-.25,8.58,8.58,0,0,0-1.19-.49l-1.86-.55a4.8,4.8,0,0,1-.56-.23,8,8,0,0,0-1.26-.48A5.35,5.35,0,0,0,284,194a2.16,2.16,0,0,1-.35,0,8.2,8.2,0,0,0-1.32-.19,5.57,5.57,0,0,1-.6-.07,4.16,4.16,0,0,1-.45-.19,6.4,6.4,0,0,0-1.38-.5c-.22,0-.43-.13-.65-.2s-.76-.24-1.21-.34a5.39,5.39,0,0,1-.66-.18,10,10,0,0,0-1.21-.32c-.39-.07-.79-.11-1.19-.15s-.49,0-.73-.08-.79-.1-1.18-.13-.5,0-.74-.07a5.82,5.82,0,0,0-1.59,0c-.13,0-.26,0-.35,0a2.92,2.92,0,0,1-.38-.14,5.56,5.56,0,0,0-1.51-.45,5.72,5.72,0,0,1-.67-.14,10.88,10.88,0,0,0-1.23-.23,5,5,0,0,0-1.68.15l-.28.07-.77-.1c-.38-.06-.76-.11-1.14-.14l-1.16-.07-.76-.05-.65,0c-.42,0-.85-.07-1.23-.08l-.37-.12a5.08,5.08,0,0,0-1.58-.35l-.79-.06c-.38,0-.76-.06-1.14-.07a4.26,4.26,0,0,0-1.94.49l-.14.07-.32-.07a5.8,5.8,0,0,0-1.46-.21c-.11,0-.33,0-.53-.08a6.23,6.23,0,0,0-1.41-.16c-.38,0-.76,0-1.14,0l-.8,0a7.11,7.11,0,0,0-1.39.2,3.18,3.18,0,0,1-.54.1,4.5,4.5,0,0,1-.5-.07,6.84,6.84,0,0,0-1.45-.12,4.52,4.52,0,0,0-1.79.53l-.2.1-.35-.06a5.86,5.86,0,0,0-1.52-.11,10.94,10.94,0,0,0-1.15.14l-.75.1c-.13,0-.26,0-.39-.06a5.48,5.48,0,0,0-1.6-.12,4.26,4.26,0,0,0-1.86.73l-.12.07-.23,0a5.51,5.51,0,0,0-1.63-.08,5.78,5.78,0,0,0-1.46.43l-.42.15a4.92,4.92,0,0,1-.52,0,6.43,6.43,0,0,0-1.43,0c-.4.07-.8.17-1.19.27s-.47.13-.7.17a3.57,3.57,0,0,1-.42,0,6,6,0,0,0-1.56,0l-.73.13c-.4.07-.8.14-1.19.23a5.16,5.16,0,0,0-1.53.62l-.29.16-.73.15-1.13.25a2.54,2.54,0,0,1-.39,0,5.43,5.43,0,0,0-1.64.11,8.69,8.69,0,0,0-1.28.48,5.64,5.64,0,0,1-.55.23,4.49,4.49,0,0,1-.64.1,11.13,11.13,0,0,0-1.29.25,4.55,4.55,0,0,0-1.62.94l-.2.16a6.23,6.23,0,0,1-.62.15c-.39.1-.78.19-1.16.32l-.71.19c-.39.1-.79.2-1.17.33a8.25,8.25,0,0,0-1.22.58l-.42.22h-.22a4.31,4.31,0,0,0-1.94.23,6.28,6.28,0,0,0-1.26.71,4.76,4.76,0,0,1-.45.27c-.37.16-.73.33-1.09.51l-.68.32c-.23.11-.47.2-.7.3s-.74.31-1.1.48l-.63.29-1.15.55a5.82,5.82,0,0,1-.64.27,10.34,10.34,0,0,0-1.17.52c-.36.2-.71.41-1.06.63s-.42.26-.64.38a5,5,0,0,0-1.33,1.22l-.13.17-.23,0a4.76,4.76,0,0,0-1.68.63,5.12,5.12,0,0,0-1.2,1.15c-.09.1-.16.2-.23.27a5.47,5.47,0,0,1-.5.26,6.15,6.15,0,0,0-2.26,1.66,5.7,5.7,0,0,1-.43.42,4.43,4.43,0,0,1-.42.23,6.08,6.08,0,0,0-1.29.81,9.49,9.49,0,0,0-1,1c-.14.16-.27.33-.41.46a2.08,2.08,0,0,1-.36.2,5.35,5.35,0,0,0-1.35,1,4.77,4.77,0,0,0-1,1.5,2.06,2.06,0,0,1-.12.26l-.25.15a4.8,4.8,0,0,0-1.36,1.09,8.55,8.55,0,0,0-.79,1.16,4.32,4.32,0,0,1-.34.53,5.72,5.72,0,0,0-.75,1.52c0,.12-.07.25-.1.31a3.58,3.58,0,0,1-.28.26,4.31,4.31,0,0,0-1.73,2.93c0,.09,0,.18,0,.25l-.18.15a4.58,4.58,0,0,0-1.19,1.47,5.86,5.86,0,0,0-.44,1.55,2.57,2.57,0,0,1-.09.44,4.22,4.22,0,0,1-.26.46,6.61,6.61,0,0,0-.68,1.36,7.29,7.29,0,0,0-.29,1.47,3.47,3.47,0,0,1-.08.55c-.05.19-.11.38-.16.56-.14.46-.27.93-.37,1.4-.05.19-.12.38-.18.58a7.68,7.68,0,0,0-.37,1.39c0,.2-.07.41-.1.62a13.13,13.13,0,0,0-.21,1.4,6.63,6.63,0,0,0,.07,1.53,4.61,4.61,0,0,1,.06.52,8.48,8.48,0,0,0,.07,1.38c0,.21,0,.42,0,.63a10.64,10.64,0,0,0,.13,1.37l.06.49c0,.06-.05.13-.07.2a4.13,4.13,0,0,0-.28,2c.09.67.23,1.35.37,2a5.64,5.64,0,0,0,.61,1.52c.07.13.17.32.19.38l.09.33c.14.54.29,1.08.48,1.61s.42,1.12.66,1.68l.08.2a8.62,8.62,0,0,0,.63,1.22c.1.19.21.37.31.57a5.44,5.44,0,0,1,.19.52,6.54,6.54,0,0,0,.56,1.36,8,8,0,0,0,.83,1.16,3.25,3.25,0,0,1,.36.47c.12.18.23.37.34.57a13.43,13.43,0,0,0,.71,1.14l.37.54c.24.37.5.74.78,1.1a6.14,6.14,0,0,0,1.19,1.07,2.62,2.62,0,0,1,.33.24c.15.16.28.33.42.49.28.34.57.68.83.95.07.1.11.21.17.31a5,5,0,0,0,1,1.44,5.31,5.31,0,0,0,1.37.9c.12.06.25.11.31.15a1.86,1.86,0,0,1,.23.32,5.65,5.65,0,0,0,1.07,1.24c.51.41,1,.82,1.56,1.21a5.21,5.21,0,0,0,1.46.73c.12.05.25.08.34.13l.56.41,1,.73a8.44,8.44,0,0,0,1.19.61,5.77,5.77,0,0,1,.56.27c.19.12.37.25.55.39s.65.47,1.06.71l.59.34c.36.21.72.42,1.1.62a5.65,5.65,0,0,1,.51.34,7.08,7.08,0,0,0,1.14.71c.35.18.72.34,1.09.5s.46.19.68.3a9.72,9.72,0,0,0,1.22.44,6.4,6.4,0,0,1,.62.2c.08,0,.27.17.42.27a6.27,6.27,0,0,0,1.26.72c.12.05.32.17.51.28a7.2,7.2,0,0,0,1.22.63,4.14,4.14,0,0,0,2,.18l.2,0,1.59.55a2.51,2.51,0,0,1,.29.2,5.1,5.1,0,0,0,1.49.8,11.29,11.29,0,0,0,1.18.29c.24,0,.47.09.7.16a6.24,6.24,0,0,0,1.48.2c.13,0,.3,0,.4,0a1.7,1.7,0,0,1,.22.15,4.9,4.9,0,0,0,1.59.78,4.73,4.73,0,0,0,1.68.08l.29,0c.23.05.45.13.68.2a9.21,9.21,0,0,0,1.17.33l.75.18c.37.09.75.19,1.13.26l.73.15c.38.09.76.17,1.15.24a5,5,0,0,1,.67.16c.35.1.76.21,1.2.29a8.18,8.18,0,0,0,1.34.07,5.33,5.33,0,0,1,.59,0l.76.13,1.14.18c.39,0,.77.07,1.16.09s.51,0,.76.05l.76.11c.38.06.76.12,1.14.16a8.27,8.27,0,0,0,1.32,0,4.54,4.54,0,0,1,.61,0,3.67,3.67,0,0,1,.57.12,7,7,0,0,0,1.33.23c.2,0,.4.07.6.11a8.31,8.31,0,0,0,1.3.2l.75.05,1.17.07c.38,0,.75,0,1.13,0h2.86l1,0,.79,0a6.36,6.36,0,0,0,1.51-.21l.3-.07h.35l.28,1c.15.56.22.84.29,1.12s.15.6.31,1.19.22.83.29,1.11.14.61.31,1.21.25.91.34,1.21.16.54.31,1.09l1.26,4.6c.16.6.24.89.33,1.18s.15.56.3,1.12.23.85.3,1.13l.32,1.18c.15.56.22.84.29,1.12s.15.59.31,1.19.21.82.28,1.1.15.61.31,1.21.27.94.38,1.26.16.51.3,1a2.34,2.34,0,0,0,.58,1,2.2,2.2,0,0,0,1.88,2.25,1.72,1.72,0,0,0,.32,0,2.2,2.2,0,0,0,2.17-1.89c.09-.65.12-1,.15-1.3s0-.52.11-1,.13-.83.17-1.1.11-.61.19-1.23.13-.84.18-1.12.09-.6.18-1.21.12-.86.17-1.14.09-.59.17-1.19.13-.9.16-1.2l.16-1.13.64-4.67c.09-.62.13-.93.16-1.24s.06-.55.14-1.1.12-.83.17-1.11.1-.61.19-1.22.13-.85.17-1.13.1-.6.18-1.2l.32-2.34c0-.08,0-.13,0-.2a5.14,5.14,0,0,0,.75-.39l.17-.1.36,0,1.36-.14c.24,0,.49,0,.74,0s.77,0,1.15-.08.75-.11,1.11-.18l.73-.12a1.5,1.5,0,0,1,.37,0,5.43,5.43,0,0,0,1.61.06,5.49,5.49,0,0,0,1.52-.51l.27-.14a2.58,2.58,0,0,1,.39,0,5.24,5.24,0,0,0,1.59,0,4.82,4.82,0,0,0,1.58-.61l.23-.14.78-.12,1.1-.19a3,3,0,0,1,.58,0,7.72,7.72,0,0,0,1.33-.15,6.86,6.86,0,0,0,1.28-.42c.21-.08.41-.17.5-.19s.24,0,.37,0a5.2,5.2,0,0,0,1.62-.09c.39-.1.77-.23,1.15-.36a5.25,5.25,0,0,1,.67-.22,11.15,11.15,0,0,0,1.22-.44,5.36,5.36,0,0,1,.58-.23,4.16,4.16,0,0,1,.45,0,6.24,6.24,0,0,0,1.48-.2,6.39,6.39,0,0,1,.63-.13,8.59,8.59,0,0,0,1.25-.27,4.42,4.42,0,0,0,1.56-.9l.22-.17c.42-.13.83-.28,1.25-.43l.37-.13h.26a4.43,4.43,0,0,0,1.81-.22,7,7,0,0,0,1.26-.64,3.45,3.45,0,0,1,.46-.26,4.49,4.49,0,0,1,.57-.15,8.88,8.88,0,0,0,1.29-.38,5.37,5.37,0,0,0,1.41-.93l.2-.19c.36-.16.71-.34,1.06-.52l.66-.32a3.13,3.13,0,0,1,.4-.09,5.53,5.53,0,0,0,1.49-.45c.38-.18.76-.38,1.14-.58l.57-.31.64-.32c.36-.18.73-.36,1.09-.56a4.7,4.7,0,0,0,1.32-1.15L309,270l.37-.12a5.64,5.64,0,0,0,1.4-.6,11.48,11.48,0,0,0,1.05-.78,4.87,4.87,0,0,1,.5-.4c.1-.06.29-.15.49-.24a7.39,7.39,0,0,0,1.24-.67,5.72,5.72,0,0,0,1.13-1.14,2.47,2.47,0,0,1,.24-.29,5.32,5.32,0,0,1,.49-.29,7.38,7.38,0,0,0,1.17-.76l.52-.41c.34-.27.68-.54,1-.82a5.94,5.94,0,0,0,1-1.18l.22-.31.23-.09a4.43,4.43,0,0,0,1.56-1,4.48,4.48,0,0,0,.94-1.64l.06-.17.19-.11a4.84,4.84,0,0,0,1.37-1.13l.34-.43c.31-.38.61-.76.89-1.16s.49-.76.72-1.16l.32-.55a5,5,0,0,0,.61-1.6c0-.12.05-.25.07-.32.31-.57.6-1.13.87-1.71l.19-.21a4.39,4.39,0,0,0,1.07-1.52,4.72,4.72,0,0,0,.28-1.76,1.76,1.76,0,0,0,0-.23s.09-.1.13-.16a4.41,4.41,0,0,0,.92-1.69c.13-.5.31-1.24.44-2a6.18,6.18,0,0,0,.07-1.51A4.86,4.86,0,0,1,331.1,241.34Zm-4.37-.51a8.38,8.38,0,0,0,0,1.21,4.77,4.77,0,0,1,0,.56c-.09.52-.21,1.05-.34,1.57l-.15.18a4.69,4.69,0,0,0-.85,1.48,4.93,4.93,0,0,0-.21,1.54c0,.07,0,.13,0,.2l-.11.12a4.72,4.72,0,0,0-1,1.33c-.24.52-.49,1-.77,1.54a5.17,5.17,0,0,0-.49,1.41c0,.12,0,.24-.06.29-.14.22-.27.44-.4.67s-.33.57-.52.84-.46.62-.71.93l-.32.39c-.07.06-.16.1-.24.16a4.1,4.1,0,0,0-2.1,2.51l0,.1-.09,0a4.74,4.74,0,0,0-1.48.91,5.49,5.49,0,0,0-.84,1.05c-.1.13-.23.32-.28.37a10.29,10.29,0,0,1-.8.65l-.59.48c-.09.07-.3.18-.49.29a7.77,7.77,0,0,0-1.05.65,6.05,6.05,0,0,0-1,1.05c-.09.11-.21.27-.24.29a3.2,3.2,0,0,1-.49.24,8.51,8.51,0,0,0-1.13.6,9.53,9.53,0,0,0-.89.68,5.87,5.87,0,0,1-.54.42,2.23,2.23,0,0,1-.4.14,6.34,6.34,0,0,0-1.32.54,5.07,5.07,0,0,0-1.23,1.1l-.2.22c-.28.16-.57.3-.86.44l-.7.35-.62.33c-.33.18-.66.36-1,.51a2.46,2.46,0,0,1-.39.09,5.2,5.2,0,0,0-1.42.41c-.28.12-.56.27-.83.41s-.54.27-.82.39a5.56,5.56,0,0,0-1.33.9l-.2.19a4.71,4.71,0,0,1-.58.15,8.88,8.88,0,0,0-1.2.35,6.85,6.85,0,0,0-1.16.61c-.14.08-.28.17-.39.22h-.23a4.9,4.9,0,0,0-1.76.2l-.48.17c-.41.15-.83.29-1.26.43a4.83,4.83,0,0,0-1.49.88l-.21.17-.55.1a8.71,8.71,0,0,0-1.17.24,2.44,2.44,0,0,1-.44,0,6.25,6.25,0,0,0-1.42.19,8.64,8.64,0,0,0-1.14.42c-.23.09-.45.19-.6.23-.35.09-.7.21-1,.33s-.48.17-.67.22a2.29,2.29,0,0,1-.37,0,5.47,5.47,0,0,0-1.57.08,8.48,8.48,0,0,0-1.21.41,4.38,4.38,0,0,1-.55.2,4.2,4.2,0,0,1-.59.05,6.92,6.92,0,0,0-1.27.13c-.29.06-.59.1-.89.15s-.62.09-.93.15a5.07,5.07,0,0,0-1.53.6l-.24.13a3,3,0,0,1-.31,0,5.66,5.66,0,0,0-1.56,0,5.49,5.49,0,0,0-1.46.5l-.3.14-.32-.05a5.57,5.57,0,0,0-1.58-.06l-1,.16c-.29.05-.57.11-.86.14s-.52,0-.79.05-.71,0-1.06.07l-1.3.13-.54.06a3.77,3.77,0,0,0-1.29.39,2.18,2.18,0,0,0-3.06,1.7c-.08.58-.13.87-.17,1.16s-.09.59-.17,1.18-.13.89-.17,1.19l-.15,1.15c-.08.56-.13.84-.17,1.13s-.1.6-.19,1.2-.12.84-.17,1.11-.1.61-.19,1.22-.12.93-.15,1.24-.06.55-.14,1.1l-.65,4.67-.16,1.19c0,.11,0,.22-.05.34-.06-.24-.13-.52-.26-1l-.32-1.16c-.08-.28-.16-.56-.31-1.13l-1.26-4.61c-.16-.6-.25-.91-.34-1.21s-.17-.54-.31-1.09-.22-.83-.29-1.11-.15-.6-.31-1.2-.22-.85-.3-1.13-.15-.6-.31-1.19l-.63-2.31a2.15,2.15,0,0,0-1-1.3,2.2,2.2,0,0,0-1.71-.67l-.84,0h-.82a6.05,6.05,0,0,0-1.19.19,3.6,3.6,0,0,1-.5.09l-1,0-.87,0H238l-1.06-.06-.8-.05a5.52,5.52,0,0,1-.62-.11,9.14,9.14,0,0,0-1.22-.2,2.72,2.72,0,0,1-.58-.12,8.89,8.89,0,0,0-1.25-.22,7.34,7.34,0,0,0-1.25,0c-.24,0-.47,0-.62,0s-.58-.08-.86-.12-.65-.11-1-.14-.69-.06-1-.08a7.36,7.36,0,0,1-.82-.06c-.32,0-.63-.09-.95-.15l-.88-.14a7.12,7.12,0,0,0-1.26-.06,5.08,5.08,0,0,1-.6,0c-.24,0-.48-.11-.71-.17s-.73-.2-1.09-.27l-1-.2-.81-.17c-.31-.06-.6-.13-.9-.21s-.6-.15-.91-.21-.49-.14-.73-.22-.69-.22-1-.3a5.2,5.2,0,0,0-1.64-.06l-.22,0-.2-.13a4.81,4.81,0,0,0-1.51-.76,6.11,6.11,0,0,0-1.41-.19,2.36,2.36,0,0,1-.44,0c-.35-.1-.71-.17-1.06-.24s-.5-.1-.67-.15a1.87,1.87,0,0,1-.29-.2,5.2,5.2,0,0,0-1.41-.78l-1.73-.6a4.42,4.42,0,0,0-1.94-.16l-.15,0L203,274a8,8,0,0,0-1.11-.58,4.21,4.21,0,0,1-.43-.28,6.72,6.72,0,0,0-1.16-.67,8.71,8.71,0,0,0-1.1-.39,4.6,4.6,0,0,1-.63-.21l-.81-.36-.87-.39a5.24,5.24,0,0,1-.54-.35,7.53,7.53,0,0,0-1-.64c-.32-.17-.62-.35-.93-.53l-.65-.38c-.22-.13-.42-.28-.63-.43a10.33,10.33,0,0,0-.87-.6,8,8,0,0,0-1-.53,5.36,5.36,0,0,1-.58-.28l-.82-.58-.65-.47a5.21,5.21,0,0,0-1.36-.66l-.32-.11-1.4-1.09a3.88,3.88,0,0,1-.23-.33,4.87,4.87,0,0,0-2.21-1.93l-.28-.14c0-.08-.09-.17-.13-.25a5.7,5.7,0,0,0-.87-1.32c-.24-.24-.45-.5-.66-.75s-.33-.4-.5-.59a5.7,5.7,0,0,0-1.09-.93,2.94,2.94,0,0,1-.3-.22c-.2-.26-.38-.53-.56-.8s-.3-.45-.46-.67-.31-.5-.46-.75-.29-.51-.45-.76a9.78,9.78,0,0,0-.68-.91,4.67,4.67,0,0,1-.39-.51,5.88,5.88,0,0,1-.21-.56,6.33,6.33,0,0,0-.42-1.09c-.14-.29-.29-.56-.45-.83a7.41,7.41,0,0,1-.38-.72l-.08-.21c-.2-.47-.4-.94-.56-1.42s-.28-.88-.4-1.33l-.1-.35a6.13,6.13,0,0,0-.54-1.27,2.92,2.92,0,0,1-.18-.36c-.11-.5-.22-1-.3-1.53l.06-.17a4.44,4.44,0,0,0,.31-1.85c0-.28-.06-.56-.1-.85a8.46,8.46,0,0,1-.09-.88,7.91,7.91,0,0,0-.07-1c0-.29-.05-.57,0-.78a7,7,0,0,0-.1-1.3,4.13,4.13,0,0,1-.05-.5c0-.36.1-.71.16-1.05s.09-.49.12-.73a6.64,6.64,0,0,1,.19-.65,10.77,10.77,0,0,0,.31-1.07c.08-.36.18-.71.29-1.07l.18-.64a8.47,8.47,0,0,0,.21-1.2c0-.22.06-.47.09-.58s.17-.3.26-.46a5.82,5.82,0,0,0,.94-2.45c0-.11,0-.25.06-.35l.16-.14a4.57,4.57,0,0,0,1.11-1.31,5.23,5.23,0,0,0,.49-1.51c0-.09,0-.18,0-.26A2.11,2.11,0,0,1,178,223a5.89,5.89,0,0,0,1-1.1,5.77,5.77,0,0,0,.64-1.36,2.33,2.33,0,0,1,.11-.32,10.86,10.86,0,0,0,.61-.94c.14-.23.27-.45.32-.52a3.13,3.13,0,0,1,.3-.2,4.45,4.45,0,0,0,2.11-2.35l.12-.25a2.49,2.49,0,0,1,.28-.15,6,6,0,0,0,1.25-.85,9.71,9.71,0,0,0,.76-.81,4.27,4.27,0,0,1,.49-.52,4,4,0,0,1,.41-.23,6.13,6.13,0,0,0,1.18-.72,7.83,7.83,0,0,0,.87-.83,6.08,6.08,0,0,1,.46-.45,4.61,4.61,0,0,1,.51-.26,8.39,8.39,0,0,0,1.12-.63,5.53,5.53,0,0,0,1.09-1.06l.18-.23.24-.05a4.87,4.87,0,0,0,1.61-.58,4.69,4.69,0,0,0,1.24-1.16,2.11,2.11,0,0,1,.19-.23l.69-.41c.27-.17.54-.34.83-.5a7,7,0,0,1,.68-.29c.35-.14.7-.28,1-.44s.67-.33,1-.48l.67-.32c.29-.14.59-.26.89-.38l.82-.35.81-.39.87-.41a7.31,7.31,0,0,0,1.18-.66l.33-.22h.19a4.45,4.45,0,0,0,1.88-.21,7.82,7.82,0,0,0,1.12-.54,4.13,4.13,0,0,1,.56-.28,6.57,6.57,0,0,1,.76-.21,10.27,10.27,0,0,0,1.05-.29c.25-.08.52-.14.78-.2s.69-.17,1-.27a4.43,4.43,0,0,0,1.56-.92l.19-.15.54-.08a9.37,9.37,0,0,0,1.21-.23,9.92,9.92,0,0,0,1.2-.45,4.49,4.49,0,0,1,.51-.22,2.44,2.44,0,0,1,.38,0,5.38,5.38,0,0,0,1.59-.1l1.05-.23.78-.16a5.56,5.56,0,0,0,1.47-.61c.11-.06.22-.14.29-.17l1.07-.2.76-.13a3.57,3.57,0,0,1,.42,0,6,6,0,0,0,1.51,0c.36-.07.72-.16,1.08-.26s.5-.13.75-.17a3,3,0,0,1,.52,0,6.54,6.54,0,0,0,1.38,0,6.37,6.37,0,0,0,1.4-.41l.37-.15a2.65,2.65,0,0,1,.38,0,5.43,5.43,0,0,0,1.58.09,4.32,4.32,0,0,0,1.81-.72l.11-.07.23,0a5.19,5.19,0,0,0,1.56.12c.34,0,.68-.08,1-.13s.56-.09.84-.11c.05,0,.28,0,.43.06a5.86,5.86,0,0,0,1.47.12,4.48,4.48,0,0,0,1.74-.52l.2-.1.4.06a6.35,6.35,0,0,0,1.4.13,7.5,7.5,0,0,0,1.33-.2,3,3,0,0,1,.55-.1l.93,0c.32,0,.63,0,.95,0a3.11,3.11,0,0,1,.53.08,7.14,7.14,0,0,0,1.35.16,3.1,3.1,0,0,1,.47.09,6.38,6.38,0,0,0,1.41.21,4.2,4.2,0,0,0,1.9-.5l.17-.08.68.05c.33,0,.66.06.94.07a1.6,1.6,0,0,1,.37.12,5.53,5.53,0,0,0,1.53.34l1.18.08.68.05.82,0,1,.06.87.11c.33,0,.66.1,1,.13a5.19,5.19,0,0,0,1.63-.15l.26-.07a4.13,4.13,0,0,1,.7.14,9.53,9.53,0,0,0,1.12.21l.38.15a4.77,4.77,0,0,0,3,.4c.13,0,.25,0,.36,0,.35.05.71.08,1.07.11s.53,0,.78.08.72.1,1.09.13a6.48,6.48,0,0,1,.77.09,5.56,5.56,0,0,1,.7.19c.37.11.74.22,1.11.3s.46.13.69.2a11.4,11.4,0,0,0,1.1.32c.08,0,.3.12.46.19a6.38,6.38,0,0,0,1.3.48,9.27,9.27,0,0,0,1.24.18,3,3,0,0,1,.61.07,5.6,5.6,0,0,0,1.56.12c.13,0,.26,0,.33,0a5.65,5.65,0,0,1,.58.23,7.18,7.18,0,0,0,1.16.46l1.78.53a4.94,4.94,0,0,1,.63.27,10.62,10.62,0,0,0,1.09.45,3.27,3.27,0,0,1,.51.25,6.44,6.44,0,0,0,1.17.55c.33.12.66.21,1,.3a6.86,6.86,0,0,1,.77.24,7.77,7.77,0,0,0,1.26.32,3.21,3.21,0,0,1,.55.13,5.94,5.94,0,0,1,.67.33c.33.17.65.34,1,.48.15.07.35.19.57.32a7.73,7.73,0,0,0,1.05.58,5.3,5.3,0,0,0,1.5.38l.33.05c.3.14.6.26.9.38s.54.22.8.35a10.57,10.57,0,0,0,1,.43c.25.1.49.2.7.3s.2.18.31.28a5.94,5.94,0,0,0,1.16.92,5.49,5.49,0,0,0,1.41.52c.13,0,.27.06.36.1.41.25.83.52,1.23.78l.33.2a5.4,5.4,0,0,1,.44.39,7.78,7.78,0,0,0,1,.81,11.54,11.54,0,0,0,1,.58,5.07,5.07,0,0,1,.57.32c.47.34.93.69,1.38,1l.13.23a4.72,4.72,0,0,0,1.06,1.36c.24.2.48.38.72.57s.47.35.69.55a7.51,7.51,0,0,0,1,.75c.16.11.37.24.45.31s.2.28.32.45a7.3,7.3,0,0,0,.77,1c.25.27.52.51.79.75a4.25,4.25,0,0,1,.52.48c.2.23.41.45.62.67s.41.43.59.66.34.42.52.62.42.51.61.77.45.68.66,1l.63,1c.21.33.43.66.62,1l.21.38c.22.39.44.78.64,1.18a8,8,0,0,1,.29.77c.1.31.2.61.32.89a7,7,0,0,1,.25.8c.08.3.16.6.26.89s.22.58.34.87a6.42,6.42,0,0,1,.29.77,5,5,0,0,1,.11.72c0,.34.08.68.14,1s.11.5.17.75a7.42,7.42,0,0,1,.2,1c.08.57.15,1.15.19,1.73a4.23,4.23,0,0,1-.05.64,7.32,7.32,0,0,0-.07,1.11,6.64,6.64,0,0,0,.17,1.32,2.64,2.64,0,0,1,.08.42C326.83,239.68,326.8,240.26,326.73,240.83Z" style="fill: #1d1d1b"/>
  </g>
</svg>
