<svg xmlns="http://www.w3.org/2000/svg" viewBox="0 0 500 500">
  <title>bubble</title>
  <g>
    <path d="M390.67,228.52c-1.18-40.58-62.5-71.73-140.25-71.73-23.38,0-45.42,4-64.83,9.08-45.13,11.77-76,39.59-76,66.89,0,39,53.8,69.84,131.56,69.84h5.56c2.58,7.89,10.92,40.92,10.92,40.92l5.74-41.71C336.05,296.44,391.78,266.3,390.67,228.52Z" style="fill: #fff"/>
    <path d="M393.55,231a3.14,3.14,0,0,1-.06-.63c0-.5,0-1-.07-1.39,0-.25-.05-.5-.05-.75a3.88,3.88,0,0,1,.05-.61,7.33,7.33,0,0,0,.07-1.54,5.61,5.61,0,0,1,0-.71,9.07,9.07,0,0,0,0-1.45c-.09-.72-.2-1.43-.32-2.14a4.91,4.91,0,0,1-.06-.66,7,7,0,0,0-.16-1.5,5.42,5.42,0,0,0-.7-1.61,4.27,4.27,0,0,1-.21-.39,8.07,8.07,0,0,0-.55-1.38,4.72,4.72,0,0,1-.27-.61c0-.11-.06-.34-.09-.55a6.29,6.29,0,0,0-.34-1.57,7,7,0,0,1-.21-.69,9.78,9.78,0,0,0-.45-1.36,7,7,0,0,1-.24-.69,9.89,9.89,0,0,0-.51-1.33,12.15,12.15,0,0,0-.68-1.21,7.16,7.16,0,0,1-.39-.66c-.24-.43-.5-.82-.73-1.16s-.29-.43-.41-.65a6.06,6.06,0,0,0-1.11-1.3c-.12-.11-.28-.26-.32-.31a3.36,3.36,0,0,1-.16-.44,5.87,5.87,0,0,0-.71-1.54c-.14-.2-.25-.42-.37-.63a10.25,10.25,0,0,0-.74-1.19,5.08,5.08,0,0,0-1.34-1.2l-.31-.22c-.16-.2-.31-.41-.47-.62s-.52-.71-.81-1-.66-.75-1-1.12l-.64-.7c-.39-.44-.79-.87-1.19-1.29,0,0-.14-.24-.22-.38a5.58,5.58,0,0,0-1-1.42c-.19-.18-.37-.38-.56-.57s-.6-.64-.92-.94a4.43,4.43,0,0,0-1.86-.95l-.22-.06c-.08-.09-.17-.22-.26-.33a6.37,6.37,0,0,0-1.05-1.18,5.75,5.75,0,0,1-.39-.45,7.58,7.58,0,0,0-1.06-1.1c-.33-.26-.68-.52-1-.77l-.65-.48a7.61,7.61,0,0,0-1.28-.76,3.78,3.78,0,0,1-.55-.29c-.09-.07-.25-.25-.4-.4a6.28,6.28,0,0,0-1.14-1.06,4.58,4.58,0,0,0-1.8-.7l-.29-.07c-.08-.07-.2-.2-.3-.31a6.22,6.22,0,0,0-1.2-1.07c-.35-.22-.72-.43-1.09-.63s-.49-.26-.71-.4a3.15,3.15,0,0,1-.32-.32,5.88,5.88,0,0,0-1.28-1.1,4.36,4.36,0,0,0-2-.54h-.2l-.22-.22a5.53,5.53,0,0,0-1.33-1.08,6,6,0,0,0-1.5-.55,4.1,4.1,0,0,1-.49-.14,4,4,0,0,1-.47-.35,6.75,6.75,0,0,0-1.25-.86,12.27,12.27,0,0,0-1.18-.5c-.25-.1-.5-.19-.73-.3a4.32,4.32,0,0,1-.38-.3,5.86,5.86,0,0,0-1.35-.93l-.72-.35-1.15-.55a5.75,5.75,0,0,0-1.67-.41l-.4-.05-.75-.34-1.12-.49-.34-.27a5.59,5.59,0,0,0-1.45-.92,8.23,8.23,0,0,0-1.36-.39,5.34,5.34,0,0,1-.65-.17c-.17-.07-.39-.19-.63-.32a8.44,8.44,0,0,0-1.24-.61,4.77,4.77,0,0,0-1.92-.23h-.31l-.66-.29c-.38-.17-.77-.34-1.16-.48s-.5-.2-.75-.31-.77-.34-1.17-.48a9.55,9.55,0,0,0-1.36-.31l-.56-.11-.2-.17a4.45,4.45,0,0,0-1.7-1.08,7.14,7.14,0,0,0-1.47-.26,5.21,5.21,0,0,1-.6-.08c-.37-.12-.76-.21-1.14-.31s-.57-.14-.86-.23l-.84-.26c-.38-.12-.75-.25-1.14-.35l-.83-.25c-.39-.11-.77-.23-1.16-.33a6.93,6.93,0,0,1-.72-.26c-.37-.13-.78-.29-1.24-.41s-.77-.18-1.17-.26l-.85-.19a5.28,5.28,0,0,0-1.84,0l-.26,0a2.2,2.2,0,0,1-.25-.17,5,5,0,0,0-1.67-.78,5.54,5.54,0,0,0-1.68-.08l-.43,0c-.14,0-.36-.13-.59-.22a6.87,6.87,0,0,0-2.76-.6,4.08,4.08,0,0,1-.68-.06,3.66,3.66,0,0,1-.5-.2,6.61,6.61,0,0,0-1.47-.5,9.72,9.72,0,0,0-1.33-.14,5.67,5.67,0,0,1-.72-.06,3.72,3.72,0,0,1-.41-.18,5.71,5.71,0,0,0-1.57-.56,5.11,5.11,0,0,0-1.79.06l-.34.05a1.82,1.82,0,0,1-.31-.16,5.42,5.42,0,0,0-1.65-.59,9.64,9.64,0,0,0-1.35-.09,4.47,4.47,0,0,1-.73,0,5.6,5.6,0,0,0-1.68.06l-.39.05a2.25,2.25,0,0,1-.41-.17,5.73,5.73,0,0,0-1.62-.51,5.26,5.26,0,0,0-1.76.12l-.3.07-.25-.13a4.89,4.89,0,0,0-1.78-.64,6.47,6.47,0,0,0-1.57.06,4.21,4.21,0,0,1-.52,0,4.9,4.9,0,0,1-.58-.16,6.83,6.83,0,0,0-1.45-.32,8.41,8.41,0,0,0-1.44,0,3,3,0,0,1-.64,0c-.29,0-.59-.06-.88-.1s-.78-.1-1.17-.13c-.18,0-.43-.07-.7-.13a9,9,0,0,0-1.35-.23l-.87-.09-1.18-.12a6.85,6.85,0,0,0-1.51.1,3.66,3.66,0,0,1-.58.06,10.77,10.77,0,0,0-1.28,0,7,7,0,0,1-.79,0c-.4,0-.81,0-1.22,0-.23,0-.47,0-.7,0l-.23-.12a4.48,4.48,0,0,0-1.95-.61c-.4,0-.8,0-1.21,0l-.86,0a6.36,6.36,0,0,0-1.59.2,3.51,3.51,0,0,1-.49.09c-.3,0-.59,0-.89,0l-1.18,0h-2.07a10.59,10.59,0,0,0-1.25.07,5.35,5.35,0,0,1-1.48,0,7.42,7.42,0,0,0-1.42-.14,7.92,7.92,0,0,0-1.37.14,5.36,5.36,0,0,1-.7.08c-.27,0-.56,0-.85,0s-.81-.05-1.22,0-.58,0-.88,0-.8,0-1.2,0a6.34,6.34,0,0,0-1.58.3c-.17,0-.4.12-.48.13h-.89c-.39,0-.79,0-1.13,0l-.41-.1a5.22,5.22,0,0,0-1.73-.24,6,6,0,0,0-1.63.37l-.41.14a4.5,4.5,0,0,1-.46-.08,5.76,5.76,0,0,0-1.65-.16l-2.07.15a5.71,5.71,0,0,0-1.61.41c-.16.06-.36.14-.42.15l-.9,0c-.39,0-.78,0-1.17.08a10.07,10.07,0,0,0-1.34.25,5.16,5.16,0,0,1-.71.14,7,7,0,0,1-.8,0c-.42,0-.85,0-1.27.06l-.9.08c-.39,0-.78.07-1.17.12-.18,0-.44,0-.72,0a8.08,8.08,0,0,0-1.36.05c-.39,0-.78.11-1.17.18l-.88.14a11.28,11.28,0,0,0-1.31.29,4.69,4.69,0,0,1-.72.17,3.92,3.92,0,0,1-.6,0,6.9,6.9,0,0,0-1.49,0,3.53,3.53,0,0,1-.68,0,9.07,9.07,0,0,0-1.41.08,4.59,4.59,0,0,0-1.87.85,1.7,1.7,0,0,1-.22.15l-1.85.32a2.52,2.52,0,0,1-.42,0,5.25,5.25,0,0,0-1.74,0c-.41.08-.82.19-1.23.31-.26.07-.52.15-.79.2a6.67,6.67,0,0,0-1.46.51l-.43.19a1.84,1.84,0,0,1-.39,0,4.79,4.79,0,0,0-1.82,0,5.18,5.18,0,0,0-1.61.69c-.13.07-.24.15-.32.18a7.82,7.82,0,0,1-.8.13c-.42.06-.84.11-1.25.21s-.58.12-.88.18l-1.16.24-.87.2-1.15.26a6.69,6.69,0,0,1-.78.14,12.6,12.6,0,0,0-1.27.24,8.94,8.94,0,0,0-1.32.5,5.07,5.07,0,0,1-.63.25L186,163c-.39.09-.77.18-1.15.29s-.78.25-1.16.39-.54.2-.81.28l-.84.22c-.39.09-.78.18-1.16.3a8.39,8.39,0,0,0-1.29.53,4.47,4.47,0,0,1-.64.28,5.12,5.12,0,0,1-.66.13,8.34,8.34,0,0,0-1.38.29,4.53,4.53,0,0,1-.69.15,8.13,8.13,0,0,0-1.35.32l-.82.27-1.15.38c-.38.13-.76.29-1.13.44l-.81.32-1.15.44-.79.31c-.38.14-.75.3-1.12.46l-.8.35a6.42,6.42,0,0,0-1.32.71,3.11,3.11,0,0,1-.52.3l-.75.3c-.39.16-.79.31-1.13.46-.07,0-.27,0-.42.05a5.19,5.19,0,0,0-1.72.36c-.27.12-.54.22-.81.32s-.77.28-1.14.45a7.37,7.37,0,0,0-1.25.74,5.28,5.28,0,0,1-.55.34,6.19,6.19,0,0,0-1.31.85,3.29,3.29,0,0,1-.45.32,4.4,4.4,0,0,1-.65.22,7.1,7.1,0,0,0-2.49,1.21l-.53.36-.39.06a5.1,5.1,0,0,0-1.77.5,5.34,5.34,0,0,0-1.36,1.09l-.27.27a3.34,3.34,0,0,1-.51.17,5.69,5.69,0,0,0-1.48.57c-.37.21-.72.45-1.07.69s-.45.31-.69.45-.72.44-1.08.67l-.69.44a9.35,9.35,0,0,0-1.09.79c-.19.15-.39.31-.6.45s-.44.24-.66.35a10.18,10.18,0,0,0-1.19.64c-.23.16-.48.31-.72.45s-.71.43-1,.67-.69.51-1,.78-.42.34-.64.5a5.7,5.7,0,0,1-.59.33,8,8,0,0,0-1.24.73,5.21,5.21,0,0,0-1.21,1.37c-.06.09-.11.18-.17.26l-.3.1a4.93,4.93,0,0,0-1.66.83L129,190.65a6.66,6.66,0,0,0-1,1.18,4.12,4.12,0,0,1-.35.43,7.19,7.19,0,0,0-1,1.1l-.33.4-.25.08a4.4,4.4,0,0,0-1.81,1,9.91,9.91,0,0,0-.9,1c-.16.2-.31.4-.48.58a8.61,8.61,0,0,0-.87,1.05c-.16.2-.31.4-.48.59a10.09,10.09,0,0,0-.84,1.1c-.14.2-.28.4-.43.58s-.25.18-.38.28a5.43,5.43,0,0,0-1.29,1.11,4.88,4.88,0,0,0-.83,1.8c0,.07,0,.14,0,.21l-.19.11a4.73,4.73,0,0,0-1.5,1.29,7.38,7.38,0,0,0-.72,1.38,4.87,4.87,0,0,1-.25.54c-.14.22-.3.43-.45.64-.26.37-.52.74-.75,1.12l-.41.64c-.25.39-.5.78-.72,1.18a4.93,4.93,0,0,0-.54,1.74c0,.14,0,.28-.06.36a5.87,5.87,0,0,1-.37.59A8.83,8.83,0,0,0,111,214a3.88,3.88,0,0,1-.29.38,5.74,5.74,0,0,0-.91,1.46,12.88,12.88,0,0,0-.44,1.33c-.07.24-.14.48-.22.72l-.22.6c-.18.48-.35,1-.5,1.44l-.18.58c-.16.49-.32,1-.45,1.49a7.94,7.94,0,0,0-.18,1.55,4.53,4.53,0,0,1,0,.61,5.46,5.46,0,0,1-.19.66,8.59,8.59,0,0,0-.39,1.43c0,.24-.08.48-.13.73a13.2,13.2,0,0,0-.24,1.4l0,.33c-.07.6-.14,1.22-.18,1.83s0,1.24,0,1.85v.32a7.38,7.38,0,0,0,.17,1.54,5.16,5.16,0,0,1,.1.62c0,.11,0,.35-.07.56a6.6,6.6,0,0,0-.11,1.61,5.31,5.31,0,0,0,.5,1.74c.06.14.14.33.15.37a3.81,3.81,0,0,1,0,.59,6.29,6.29,0,0,0,.06,1.59l.1.58c.08.52.17,1,.29,1.55a5,5,0,0,0,.81,1.69c.06.1.13.19.18.29s0,.23,0,.35a5.29,5.29,0,0,0,.21,1.83l.16.5c.17.52.34,1,.54,1.54.09.24.17.47.25.71.15.44.31.89.5,1.32a6,6,0,0,0,.91,1.4,2.9,2.9,0,0,1,.3.41c.27.54.56,1.08.86,1.61l.15.28a8.07,8.07,0,0,0,.83,1.2,4.29,4.29,0,0,1,.4.55,3.46,3.46,0,0,1,.25.56,7,7,0,0,0,.68,1.38,11.67,11.67,0,0,0,.81,1.08c.17.2.33.4.48.61s.25.41.37.61a10.15,10.15,0,0,0,.76,1.2,6.83,6.83,0,0,0,1.07,1.08,5,5,0,0,1,.45.42c.37.45.76.89,1.15,1.33l.24.27a5.66,5.66,0,0,1,.4.56,9.53,9.53,0,0,0,.88,1.14,10.34,10.34,0,0,0,1,.93,6.29,6.29,0,0,1,.52.42,2.53,2.53,0,0,1,.2.36,5.51,5.51,0,0,0,1,1.47c.35.33.71.6,1,.85a5.69,5.69,0,0,1,.61.49l1.15,1,.46.39c.33.28.67.54,1,.8l.64.5c.54.44,1.09.87,1.65,1.3a8.92,8.92,0,0,0,1.17.74,5.73,5.73,0,0,1,.62.38c.36.26.73.52,1.11.77l.54.37.18.26a4.75,4.75,0,0,0,1.32,1.43,7.39,7.39,0,0,0,1.27.66,5.82,5.82,0,0,1,.61.3,8.47,8.47,0,0,0,1.31.63,6.25,6.25,0,0,1,.6.27l.7.45c.35.23.7.46,1.06.67l1.15.64.64.34a2.72,2.72,0,0,1,.29.3,5.37,5.37,0,0,0,1.38,1.12l1.2.62.66.33,1.18.58.7.34,1.89.91a4.84,4.84,0,0,0,1.87.39,1.67,1.67,0,0,1,.32,0,6.31,6.31,0,0,1,.63.34c.38.2.76.41,1.15.58s.51.24.77.37.74.36,1.12.52a4.18,4.18,0,0,1,.57.33,8.2,8.2,0,0,0,1.27.67l.77.32,1.16.47,1.51.56.45.17a7.43,7.43,0,0,0,1.39.35,4.55,4.55,0,0,1,.64.14,3.47,3.47,0,0,1,.44.26,6.22,6.22,0,0,0,1.42.74c.38.13.77.24,1.16.35l.84.26c.45.14.88.23,1.26.31a6,6,0,0,1,.76.18,3.94,3.94,0,0,1,.57.27,7.91,7.91,0,0,0,1.35.58c.4.12.81.21,1.22.29s.55.11.81.18a5.14,5.14,0,0,0,1.81.13l.32,0,.82.24,1.17.34a2.53,2.53,0,0,1,.5.23,7.16,7.16,0,0,0,1.44.58,6.13,6.13,0,0,1,.68.24,9.79,9.79,0,0,0,1.29.42,6.44,6.44,0,0,0,1.47.17,4.25,4.25,0,0,1,.61,0c.17,0,.41.13.67.22a8.43,8.43,0,0,0,1.31.42l.25.06,1.78.38a6.41,6.41,0,0,0,1.52.1,4.46,4.46,0,0,1,.57,0c.28,0,.57.12.85.19s.78.19,1.17.26l.87.19c.39.08.77.17,1.16.24a3.94,3.94,0,0,1,.52.19,6.55,6.55,0,0,0,1.47.46c.4.07.8.11,1.2.15s.58.06.87.11a5.06,5.06,0,0,0,1.8-.1l.32-.07,1.54.22.4.06.25.15A4.8,4.8,0,0,0,204,303a4.71,4.71,0,0,0,2-.24l.28-.08.56.14a8.7,8.7,0,0,0,1.36.29c.41.05.82.06,1.24.07l.8,0a4.12,4.12,0,0,1,.41.16,6.13,6.13,0,0,0,1.64.46c.42,0,.83,0,1.25,0s.55,0,.83,0l.86.11c.4.06.8.12,1.2.15l.89.08,1.18.11c.39,0,.78,0,1.17,0l.9,0,.88.09c.39,0,.79.08,1.19.1s.78,0,1.18,0,.59,0,.89,0a7.63,7.63,0,0,0,1.43-.1,4.58,4.58,0,0,1,.65-.06,6.11,6.11,0,0,1,.67.11,7.83,7.83,0,0,0,1.4.18,5.47,5.47,0,0,0,1.74-.29l.33-.11.44.12a5.08,5.08,0,0,0,3.2.1,2.86,2.86,0,0,1,.52-.1c.3,0,.59,0,.89,0l1.19,0,.86.06a11.37,11.37,0,0,0,1.31.09,6.83,6.83,0,0,0,1.54-.17,3.31,3.31,0,0,1,.66-.1,4.45,4.45,0,0,1,.63.16,6,6,0,0,0,1.56.29H244a7.14,7.14,0,0,0,1.08-.08,2.22,2.22,0,0,1,.06.36,6.12,6.12,0,0,0,.2,1.07c.09.35.13.53.17.7s.09.38.19.76a8.9,8.9,0,0,0,.27.87c0,.14.09.28.16.56a2.25,2.25,0,0,1,.07.38,6.32,6.32,0,0,0,.19,1.1,4.34,4.34,0,0,0,.54,1.27l.05.13a3.81,3.81,0,0,0,.12,1.5l.38,1.44a4.53,4.53,0,0,0,.52,1.25l.06.14a2.24,2.24,0,0,1,.08.45,7.78,7.78,0,0,0,.2,1c.11.42.18.63.25.84s.09.3.17.59.08.38.1.5a7.14,7.14,0,0,0,.19,1l.38,1.44a6.34,6.34,0,0,0,.36,1,2,2,0,0,1,.13.38l.39,1.44a.82.82,0,0,1,0,.22,5.53,5.53,0,0,0,.17,1.27,4.92,4.92,0,0,0,.5,1.23l.07.16c.08.31.11.47.15.62s.08.42.19.84.17.61.23.81.1.31.18.62a4.18,4.18,0,0,1,.11.53,9.13,9.13,0,0,0,.2.93c0,.22.06.33.08.44a6.28,6.28,0,0,0,.19,1,6.2,6.2,0,0,0,.37,1,2.28,2.28,0,0,1,.12.37c.11.39.16.58.22.78s.09.33.18.66.16.6.22.8.1.32.18.64.19.64.26.85.09.28.16.57.11.45.14.61.09.42.2.84c.06.25.08.38.1.5a7.18,7.18,0,0,0,.2,1,2.46,2.46,0,0,1,.07.41,6.89,6.89,0,0,0,.19,1.06,4.3,4.3,0,0,0,.59,1.33l0,0a2.09,2.09,0,0,0,.53,1,2.22,2.22,0,0,0,1.92,1.83h.25a2.2,2.2,0,0,0,2.18-1.95,4.28,4.28,0,0,0-.08-1.5,1.6,1.6,0,0,1,.08-.38,6.44,6.44,0,0,0,.2-1.07,3.48,3.48,0,0,1,.09-.48,8,8,0,0,0,.16-1c0-.3.06-.45.09-.6s.07-.43.12-.86.06-.67.07-.89,0-.29,0-.58.07-.62.08-.82,0-.33.06-.65.06-.6.08-.8,0-.33.07-.67a6.2,6.2,0,0,0,0-1.12,2.39,2.39,0,0,1,0-.36,2.66,2.66,0,0,1,.08-.41,7.72,7.72,0,0,0,.2-1,2.86,2.86,0,0,1,.08-.51c.05-.24.1-.47.16-.95s.06-.63.07-.84,0-.32.06-.63.06-.46.08-.61.07-.42.12-.85a4.78,4.78,0,0,0,0-1.36V327l.05-.18a5.07,5.07,0,0,0,.31-1.27l.16-1.47a7.45,7.45,0,0,0,0-1.11,1.61,1.61,0,0,1,0-.37l.16-1.47a3.48,3.48,0,0,1,.09-.48,7.88,7.88,0,0,0,.16-1c.05-.44.06-.66.07-.88s0-.3.05-.59.06-.32.08-.43a6.21,6.21,0,0,0,.19-1,4.21,4.21,0,0,0,0-1.38v-.11l.16-1.44a4.06,4.06,0,0,0,.44-1.47,4.65,4.65,0,0,0-.06-1.49,1.61,1.61,0,0,1,.07-.36,6.15,6.15,0,0,0,.22-1.1c.05-.45.06-.68.07-.91a5.38,5.38,0,0,1,0-.57c0-.35.06-.53.09-.71s0-.38.09-.75a1.61,1.61,0,0,1,.07-.37,6.41,6.41,0,0,0,.22-1.09,3.75,3.75,0,0,0,0-.44,5.47,5.47,0,0,0,1.15-.52l.24-.13.65-.05,1.26-.11a8,8,0,0,1,.85,0c.4,0,.81,0,1.22-.06s.77-.1,1.16-.16.58-.09.86-.11h0l.44.06a5.39,5.39,0,0,0,1.68.11,5.54,5.54,0,0,0,1.6-.46l.39-.15.45.05a5.81,5.81,0,0,0,1.67.08,5,5,0,0,0,1.66-.55,2.74,2.74,0,0,1,.33-.15l.89-.1c.39,0,.78-.07,1.16-.12a4.58,4.58,0,0,1,.68,0,7.53,7.53,0,0,0,1.39-.06,6.8,6.8,0,0,0,1.37-.35,4.7,4.7,0,0,1,.62-.17,2.73,2.73,0,0,1,.44,0,5.46,5.46,0,0,0,1.69,0c.41-.06.82-.17,1.22-.27a8.1,8.1,0,0,1,.79-.18,10.94,10.94,0,0,0,1.32-.34,6,6,0,0,1,.69-.2,5.26,5.26,0,0,1,.54,0,6,6,0,0,0,1.55-.05,6,6,0,0,1,.74-.07,9.91,9.91,0,0,0,1.33-.13,4.79,4.79,0,0,0,1.71-.74l.29-.17,1.15-.24.73-.15.32.05a5,5,0,0,0,1.89,0,8,8,0,0,0,1.39-.48,5.2,5.2,0,0,1,.57-.22c.17,0,.42-.05.69-.07a7.39,7.39,0,0,0,1.38-.17,5.16,5.16,0,0,0,1.59-.7l.33-.19c.38-.09.76-.2,1.14-.31s.56-.17.85-.24a2.47,2.47,0,0,1,.49,0,6.39,6.39,0,0,0,1.6-.15l1.14-.31.86-.24.87-.21c.38-.09.76-.18,1.14-.29a5.28,5.28,0,0,0,1.6-.81l.26-.19a3.17,3.17,0,0,1,.53-.05,6.33,6.33,0,0,0,1.55-.21,13.32,13.32,0,0,0,1.25-.47,5.24,5.24,0,0,1,.69-.28,4.64,4.64,0,0,1,.63-.1,8.11,8.11,0,0,0,1.42-.27,6,6,0,0,0,1.46-.73l.4-.24a5.12,5.12,0,0,1,.66-.13,7.51,7.51,0,0,0,1.38-.3l.85-.26c.38-.11.76-.23,1.13-.36a6.7,6.7,0,0,0,1.37-.69c.15-.09.32-.2.43-.25h.31a4.2,4.2,0,0,0,3.46-1.28c.07-.06.13-.13.2-.18h.31a5.26,5.26,0,0,0,1.76-.31l.83-.31,1.12-.43c.38-.15.74-.33,1.11-.51s.52-.25.78-.36a5.44,5.44,0,0,0,1.43-.94c.11-.1.28-.23.31-.25l1.81-.82a2.33,2.33,0,0,1,.38,0,5,5,0,0,0,1.81-.41,5.17,5.17,0,0,0,1.42-1.05c.09-.08.16-.16.22-.22l.29,0a4.8,4.8,0,0,0,1.86-.45l.49-.24,1.38-.7a8.84,8.84,0,0,0,1.22-.84,4.45,4.45,0,0,1,.5-.37c.43-.23.84-.47,1.26-.71l.56-.32a6.37,6.37,0,0,0,1.24-1c.14-.12.33-.3.41-.35a5,5,0,0,1,.63-.28,8.09,8.09,0,0,0,1.26-.62c.5-.3,1-.62,1.48-.93l.29-.18c.36-.23.7-.48,1-.74l.66-.48c.21-.13.43-.24.65-.36a8.13,8.13,0,0,0,1.17-.68,10.8,10.8,0,0,0,1-.82,7.22,7.22,0,0,1,.6-.5c.21-.15.44-.29.66-.43a9.71,9.71,0,0,0,1.09-.72,7.57,7.57,0,0,1,.66-.44c.33-.22.71-.46,1.08-.76s.69-.58,1-.87l.58-.49,1-.89c.19-.18.38-.36.58-.53l.58-.5,1-.89q.48-.46.93-1c.18-.19.35-.38.54-.57s.6-.65.89-1,.34-.4.52-.59a10.61,10.61,0,0,0,.87-1.09,6.31,6.31,0,0,1,.44-.58,3.06,3.06,0,0,1,.47-.4,8.53,8.53,0,0,0,1.1-1,7.72,7.72,0,0,0,.82-1.29,4.17,4.17,0,0,1,.31-.53c.28-.36.53-.74.77-1.12l.38-.58.28-.19a4.85,4.85,0,0,0,1.41-1.32c.39-.6.78-1.21,1.14-1.82a9,9,0,0,0,.62-1.33c.09-.21.17-.43.28-.63a4.41,4.41,0,0,1,.37-.53,7.58,7.58,0,0,0,.85-1.32c.31-.63.62-1.27.89-1.91a5.87,5.87,0,0,0,.4-1.67c0-.17,0-.4.07-.47a3.61,3.61,0,0,1,.26-.4,5.88,5.88,0,0,0,.8-1.51,11.16,11.16,0,0,0,.34-1.39c.05-.25.1-.49.16-.73.12-.46.21-.93.29-1.4.05-.24.09-.48.14-.72a5.55,5.55,0,0,0,0-1.75c0-.16,0-.38,0-.44a5.19,5.19,0,0,1,.17-.65,8.26,8.26,0,0,0,.32-1.45c0-.23.08-.47.13-.71a12.31,12.31,0,0,0,.21-1.42A7.15,7.15,0,0,0,393.55,231Zm-4.44,2.09c-.07.36-.14.71-.18,1.07a4.7,4.7,0,0,1-.18.72,9.43,9.43,0,0,0-.28,1.16,5.82,5.82,0,0,0,0,1.56c0,.16,0,.37,0,.41-.06.3-.11.6-.17.89s-.12.69-.21,1-.16.67-.22,1a8.24,8.24,0,0,1-.21.88,2.86,2.86,0,0,1-.26.41,6.25,6.25,0,0,0-.73,1.33,6.08,6.08,0,0,0-.33,1.48c0,.17-.05.4-.06.46-.25.58-.54,1.16-.84,1.78a4,4,0,0,1-.38.55,7.76,7.76,0,0,0-.73,1.08,9.91,9.91,0,0,0-.49,1.1,7.36,7.36,0,0,1-.31.7c-.32.53-.66,1.06-1,1.58a2.48,2.48,0,0,1-.26.19,4.83,4.83,0,0,0-1.34,1.21c-.19.27-.36.53-.53.8s-.36.56-.57.83a8,8,0,0,0-.7,1.14,3.74,3.74,0,0,1-.33.55,3.68,3.68,0,0,1-.47.41,9.82,9.82,0,0,0-1,.92c-.25.29-.49.61-.72.93a5.55,5.55,0,0,1-.49.64c-.23.25-.46.51-.68.77s-.41.49-.64.72l-.66.69c-.23.25-.46.5-.72.74s-.56.51-.85.75l-.64.56-.66.6c-.27.25-.54.5-.82.74l-.62.54-.9.76a8,8,0,0,1-.71.48c-.32.21-.64.42-1,.65a6.84,6.84,0,0,1-.72.47c-.32.2-.65.4-1,.63s-.59.47-.88.72a6.88,6.88,0,0,1-.67.54,5.72,5.72,0,0,1-.68.38,10.64,10.64,0,0,0-1.07.62c-.29.19-.57.4-.85.6s-.51.39-.78.56l-.29.19-1.41.88a4.94,4.94,0,0,1-.64.3,9.48,9.48,0,0,0-1.19.56,7.12,7.12,0,0,0-1.17.92,2.73,2.73,0,0,1-.41.36L355,276c-.4.22-.79.45-1.19.66a9.23,9.23,0,0,0-1.14.8,4.68,4.68,0,0,1-.52.38c-.43.23-.87.44-1.3.66l-.42.21a3,3,0,0,1-.31,0,4.93,4.93,0,0,0-1.83.42,5.36,5.36,0,0,0-1.37,1c-.09.08-.17.17-.23.23l-.3,0a5.13,5.13,0,0,0-1.77.39l-1.84.83a5.77,5.77,0,0,0-1.38.91c-.12.1-.28.24-.32.26-.33.14-.65.3-1,.45s-.57.28-.86.4l-1,.37c-.31.11-.63.22-.86.32a2.6,2.6,0,0,1-.4,0,5.28,5.28,0,0,0-1.73.29,5,5,0,0,0-1.55,1l-.17.16h-.23a5,5,0,0,0-1.84.23,6.55,6.55,0,0,0-1.33.68,2.83,2.83,0,0,1-.49.27c-.31.11-.63.21-.95.3l-1,.31a5,5,0,0,1-.66.12,10.57,10.57,0,0,0-1.34.29,5.77,5.77,0,0,0-1.41.72,3.66,3.66,0,0,1-.41.24,4.93,4.93,0,0,1-.63.1,7.88,7.88,0,0,0-1.39.26,9.58,9.58,0,0,0-1.17.45,7.22,7.22,0,0,1-.72.29,4.81,4.81,0,0,1-.52,0,6.55,6.55,0,0,0-1.52.2,5.24,5.24,0,0,0-1.56.8l-.27.2-1,.25c-.32.07-.65.15-1,.24l-.93.25c-.35.1-.69.2-1,.28a3.26,3.26,0,0,1-.49,0,6.09,6.09,0,0,0-1.57.13l-1,.29-.92.26a5.19,5.19,0,0,0-1.56.69l-.32.19a3.87,3.87,0,0,1-.69.07,8.92,8.92,0,0,0-1.34.17,7.56,7.56,0,0,0-1.35.46,5.24,5.24,0,0,1-.51.2l-.32,0a4.88,4.88,0,0,0-1.86,0l-.83.18-1.16.23a5.41,5.41,0,0,0-1.68.73,2.82,2.82,0,0,1-.29.18,6,6,0,0,1-.67.05,9.08,9.08,0,0,0-1.29.13,5,5,0,0,1-.53,0,6.77,6.77,0,0,0-1.53.05,8.63,8.63,0,0,0-1.27.33c-.27.08-.52.16-.71.2-.39.06-.78.16-1.17.26s-.54.14-.79.19l-.44,0a5.59,5.59,0,0,0-1.66,0,7.14,7.14,0,0,0-1.33.34,4.43,4.43,0,0,1-.65.18,4.81,4.81,0,0,1-.68,0,9.41,9.41,0,0,0-1.36.06l-1,.1-1.07.11a5.5,5.5,0,0,0-1.64.55l-.3.16c-.08,0-.29,0-.45-.06a6,6,0,0,0-1.64-.09,6.12,6.12,0,0,0-1.57.46l-.38.16h0a4.17,4.17,0,0,1-.44-.07,5.85,5.85,0,0,0-1.65-.11l-1.09.14c-.31.05-.62.1-.93.13s-.58,0-.87,0a11.45,11.45,0,0,0-1.17.05l-1.22.1-.81.07a3.89,3.89,0,0,0-1.51.47,2.17,2.17,0,0,0-1-.4,2.21,2.21,0,0,0-2.44,1.94,2.19,2.19,0,0,1-.08.44,8.07,8.07,0,0,0-.18,1,5.53,5.53,0,0,0,0,1.12,2.52,2.52,0,0,1,0,.37,2.18,2.18,0,0,1-.08.37,5.68,5.68,0,0,0-.21,1.09l-.09.69c0,.2-.05.39-.09.78a8.45,8.45,0,0,0-.07.92,5.08,5.08,0,0,1,0,.56,2.64,2.64,0,0,1-.07.35,5.56,5.56,0,0,0-.23,1.1,4.64,4.64,0,0,0,.06,1.42v.06a4.18,4.18,0,0,0-.43,1.46l-.16,1.46a4.49,4.49,0,0,0,.05,1.39v.1a2.06,2.06,0,0,1-.08.43,7.47,7.47,0,0,0-.19,1c-.05.44-.06.66-.07.88s0,.3-.05.6a3.87,3.87,0,0,1-.08.48,7.46,7.46,0,0,0-.17,1l-.16,1.46a6.58,6.58,0,0,0,0,1.12,1.18,1.18,0,0,1,0,.37l-.15,1.46-.05.18a5.07,5.07,0,0,0-.31,1.27,4.37,4.37,0,0,0,0,1.36V328c0,.31-.06.46-.08.62a7.7,7.7,0,0,0-.12.85c-.05.41-.07.62-.08.83s0,.32-.06.64a2.72,2.72,0,0,1-.08.5c-.05.24-.1.48-.16.95a3.57,3.57,0,0,1-.07.42,6,6,0,0,0-.2,1c0,.13,0,.24,0,.35,0,0,0-.08,0-.14a6.34,6.34,0,0,0-.36-1,2.09,2.09,0,0,1-.13-.37,2.07,2.07,0,0,1-.08-.44,7.78,7.78,0,0,0-.2-1c-.06-.26-.09-.4-.11-.53a8.46,8.46,0,0,0-.19-.93c-.11-.41-.17-.61-.23-.82s-.1-.31-.18-.62-.11-.46-.14-.62-.09-.42-.2-.83a4.43,4.43,0,0,0-.5-1.23l-.07-.17a1.3,1.3,0,0,1,0-.22,4.6,4.6,0,0,0-.17-1.27l-.38-1.44a5.85,5.85,0,0,0-.36-1,2.66,2.66,0,0,1-.13-.38l-.38-1.45a4.77,4.77,0,0,1-.1-.5,7.07,7.07,0,0,0-.19-1c-.11-.43-.18-.64-.25-.85a4.83,4.83,0,0,1-.17-.59,3.48,3.48,0,0,1-.09-.45,7.23,7.23,0,0,0-.19-1,4.4,4.4,0,0,0-.52-1.25l-.44-1.6a4.5,4.5,0,0,0-.66-2.77l-.05-.12a2.16,2.16,0,0,1-.07-.39,6.24,6.24,0,0,0-.19-1.09c-.11-.44-.19-.66-.26-.88a4.23,4.23,0,0,1-.17-.55c-.09-.35-.13-.52-.18-.69s-.09-.38-.19-.76a2.39,2.39,0,0,1-.07-.4,6,6,0,0,0-.19-1.08,6.34,6.34,0,0,0-.36-1,2.66,2.66,0,0,1-.13-.38,2.2,2.2,0,0,0-1.69-1.6,2.15,2.15,0,0,0-1.09-.33,5.76,5.76,0,0,0-1.51.13,2.53,2.53,0,0,1-.67,0c-.14,0-.29-.08-.45-.12a6.7,6.7,0,0,0-1.8-.34,8.32,8.32,0,0,0-1.54.17,6.71,6.71,0,0,1-.69.1,9.23,9.23,0,0,1-.93-.07c-.45,0-.87-.08-1.3-.08s-.65,0-1,0l-1.08,0a6.49,6.49,0,0,0-1.53.21,4.71,4.71,0,0,1-.49.1,3.93,3.93,0,0,1-.45-.12A6,6,0,0,0,231,300a5.48,5.48,0,0,0-1.71.3c-.14,0-.27.09-.34.1a4.56,4.56,0,0,1-.69-.1,6.94,6.94,0,0,0-2.73-.09c-.26,0-.5.06-.66.06-.36,0-.71,0-1.07,0s-.65,0-1,0l-1-.09c-.36,0-.72-.08-1.08-.1l-1,0-1,0-1-.1-1-.09c-.3,0-.61-.07-.91-.11s-.74-.11-1.11-.14-.79,0-1.19,0-.57,0-.82,0c-.08,0-.27-.1-.42-.16a5.94,5.94,0,0,0-1.6-.45c-.38,0-.77-.05-1.16-.06s-.58,0-.87-.05a6.32,6.32,0,0,1-.69-.16,9.14,9.14,0,0,0-1.3-.28,4.66,4.66,0,0,0-1.94.24l-.15,0-.14-.08a4.65,4.65,0,0,0-1.8-.73l-.53-.07-1.48-.21a5.17,5.17,0,0,0-1.78.1l-.31.07c-.36-.06-.73-.1-1.1-.13s-.62-.07-.92-.12a2.92,2.92,0,0,1-.53-.19,6.61,6.61,0,0,0-1.42-.45l-1-.2c-.34-.08-.68-.16-1-.22s-.63-.14-.94-.21-.69-.17-1-.24a7.33,7.33,0,0,0-1.48-.1,3.33,3.33,0,0,1-.57,0l-1.73-.37-.25-.06a5,5,0,0,1-.69-.23,9.71,9.71,0,0,0-1.25-.4,7.25,7.25,0,0,0-1.43-.16,4.51,4.51,0,0,1-.61,0c-.19,0-.45-.15-.71-.25a9.49,9.49,0,0,0-1.21-.41,3.32,3.32,0,0,1-.51-.23,6.76,6.76,0,0,0-1.38-.57c-.35-.09-.69-.19-1-.3l-.91-.26a5.18,5.18,0,0,0-1.78-.12l-.3,0c-.38-.11-.76-.19-1.15-.27a8.52,8.52,0,0,1-.84-.2,3.88,3.88,0,0,1-.58-.27,8.27,8.27,0,0,0-1.28-.56,12.14,12.14,0,0,0-1.19-.29,5.35,5.35,0,0,1-.79-.19l-1-.29c-.33-.1-.65-.19-1-.3-.08,0-.3-.17-.45-.26a6.55,6.55,0,0,0-1.36-.72,7.94,7.94,0,0,0-1.33-.32,4.25,4.25,0,0,1-.65-.15l-.46-.17-1.44-.53-1-.43-.83-.34a4.45,4.45,0,0,1-.59-.34,8.79,8.79,0,0,0-1.2-.64c-.29-.12-.58-.27-.86-.41l-1-.45c-.27-.12-.51-.26-.76-.4s-.68-.37-1-.53a5,5,0,0,0-1.84-.38h-.31l-1.74-.84-.74-.36-1.07-.52-.7-.36-1-.53a2.78,2.78,0,0,1-.3-.3A5.19,5.19,0,0,0,145,280l-.73-.4c-.34-.19-.69-.37-1-.57s-.58-.36-.86-.54l-.84-.54a7.55,7.55,0,0,0-1.24-.59,3.78,3.78,0,0,1-.59-.27,8.44,8.44,0,0,0-1.19-.61,4.77,4.77,0,0,1-.54-.25l-.18-.25a4.77,4.77,0,0,0-1.24-1.38l-.66-.45-1-.69c-.37-.27-.74-.47-1.06-.66a5.31,5.31,0,0,1-.64-.39l-1.57-1.24-.73-.57q-.43-.31-.84-.66l-.48-.4-1-.89c-.28-.25-.58-.48-.88-.71s-.46-.35-.63-.51a3.93,3.93,0,0,1-.21-.36,5.45,5.45,0,0,0-.94-1.38,12.17,12.17,0,0,0-.94-.81,3.2,3.2,0,0,1-1-1.09,9,9,0,0,0-.74-1l-.24-.28c-.36-.41-.71-.8-1-1.21a6.69,6.69,0,0,0-1-1,5,5,0,0,1-.45-.42,7,7,0,0,1-.42-.68,11.27,11.27,0,0,0-.61-1c-.21-.29-.43-.56-.65-.84a6.14,6.14,0,0,1-.55-.71,3.54,3.54,0,0,1-.27-.6,8.78,8.78,0,0,0-.56-1.19,9.36,9.36,0,0,0-.73-1,4.49,4.49,0,0,1-.42-.58l-.15-.28c-.27-.48-.53-1-.77-1.44a6.19,6.19,0,0,0-.83-1.24,3.7,3.7,0,0,1-.3-.4c-.14-.32-.25-.65-.37-1s-.2-.58-.31-.86c-.16-.43-.31-.88-.45-1.32l-.16-.46a2.8,2.8,0,0,1,0-.41,5.46,5.46,0,0,0-.16-1.66,5.11,5.11,0,0,0-.76-1.52c-.07-.11-.16-.21-.18-.24-.1-.43-.17-.86-.24-1.29l-.11-.63a3.93,3.93,0,0,1,0-.6,8,8,0,0,0,0-1.37,5.83,5.83,0,0,0-.48-1.54l-.15-.35a3.93,3.93,0,0,1,.07-.57,7.85,7.85,0,0,0,.12-1.4,8.81,8.81,0,0,0-.17-1.29,4.34,4.34,0,0,1-.1-.65v-.32c0-.55,0-1.1,0-1.64s.09-1.08.15-1.62l0-.33c0-.34.11-.68.18-1s.12-.61.17-.91a5.81,5.81,0,0,1,.21-.73,10.38,10.38,0,0,0,.33-1.16,8.87,8.87,0,0,0,.14-1.33,4.44,4.44,0,0,1,0-.63c.1-.42.24-.83.37-1.25l.2-.63c.12-.4.27-.8.42-1.2l.23-.65c.12-.32.21-.65.31-1s.17-.61.27-.87a3,3,0,0,1,.29-.37,6.32,6.32,0,0,0,.85-1.31,5.82,5.82,0,0,1,.39-.64,9.53,9.53,0,0,0,.62-1,5.26,5.26,0,0,0,.47-1.6c0-.14,0-.28.06-.34.17-.32.37-.63.57-.94s.32-.49.47-.74.37-.56.57-.84.37-.52.55-.79a7.26,7.26,0,0,0,.63-1.24,4.32,4.32,0,0,1,.21-.47,1.94,1.94,0,0,1,.24-.15,4.79,4.79,0,0,0,1.43-1.2,4.73,4.73,0,0,0,.76-1.7c0-.09.05-.17.07-.25s.2-.15.3-.22a5.61,5.61,0,0,0,1.22-1,10.76,10.76,0,0,0,.7-.93,7,7,0,0,1,.5-.66c.25-.28.49-.58.72-.89a5.75,5.75,0,0,1,.54-.66c.27-.29.52-.6.77-.91s.29-.37.42-.52l.23-.07a4.43,4.43,0,0,0,1.76-1,7.59,7.59,0,0,0,.88-1,4.38,4.38,0,0,1,.44-.51,6.48,6.48,0,0,0,1-1.1,3.49,3.49,0,0,1,.36-.45l1.49-1.24a1.83,1.83,0,0,1,.33-.11,5.26,5.26,0,0,0,1.61-.79,5.35,5.35,0,0,0,1.14-1.31l.17-.28a5.56,5.56,0,0,1,.6-.34,9.15,9.15,0,0,0,1.16-.67c.29-.21.58-.44.86-.67s.48-.39.73-.57.55-.35.83-.52.59-.35.88-.55a6,6,0,0,1,.68-.35,11.29,11.29,0,0,0,1.1-.6,10.1,10.1,0,0,0,1-.73,7.52,7.52,0,0,1,.64-.47l.76-.48.95-.59c.32-.19.63-.41.94-.62s.5-.34.76-.49a3.51,3.51,0,0,1,.49-.16,6.46,6.46,0,0,0,1.43-.54,5.51,5.51,0,0,0,1.3-1l.27-.26c.1,0,.21,0,.31-.05a5.24,5.24,0,0,0,1.73-.47,10.38,10.38,0,0,0,1.09-.68,3.19,3.19,0,0,1,1.28-.63,8,8,0,0,0,1.27-.46,6.76,6.76,0,0,0,1.25-.82,5.28,5.28,0,0,1,.45-.32,8.68,8.68,0,0,0,1.19-.71,4.22,4.22,0,0,1,.56-.35c.28-.13.57-.23.87-.34s.69-.26,1-.38a1.84,1.84,0,0,1,.41-.05A5.53,5.53,0,0,0,165,175c.37-.16.73-.3,1.1-.44l.78-.31a7.92,7.92,0,0,0,1.26-.69,3.31,3.31,0,0,1,.53-.31c.33-.13.66-.28,1-.42s.59-.26.89-.37l.86-.34c.34-.13.69-.27,1-.39s.65-.25,1-.39.61-.25.92-.36l1-.35.88-.28a4.18,4.18,0,0,1,.7-.15,9.41,9.41,0,0,0,1.29-.3,5.32,5.32,0,0,1,.67-.13,7.09,7.09,0,0,0,2.56-.79,4.78,4.78,0,0,1,.66-.29c.3-.09.6-.16.91-.24s.7-.17,1-.27.72-.24,1.08-.37l.85-.29,1-.25,1-.25a8.74,8.74,0,0,0,1.27-.47,4.53,4.53,0,0,1,.64-.26,7.05,7.05,0,0,1,.8-.15,12.26,12.26,0,0,0,1.21-.22c.33-.09.67-.16,1-.23l1-.22c.31-.08.63-.14.95-.2l1.05-.21a7.39,7.39,0,0,1,.82-.14c.4,0,.79-.1,1.19-.19a5.54,5.54,0,0,0,1.57-.68l.31-.17a1.65,1.65,0,0,1,.31,0,5.07,5.07,0,0,0,1.79,0,6.42,6.42,0,0,0,1.43-.49,4,4,0,0,1,.51-.21c.39-.08.77-.18,1.16-.29s.54-.16.76-.21l.42,0a5.39,5.39,0,0,0,1.72,0l2-.34a4.52,4.52,0,0,0,1.83-.85l.21-.14h.54a7.39,7.39,0,0,0,1.37-.07c.12,0,.38,0,.6,0a7.31,7.31,0,0,0,1.46,0,10.68,10.68,0,0,0,1.25-.28,6.47,6.47,0,0,1,.74-.18c.35,0,.7-.1,1.05-.17s.64-.11,1-.15a5.45,5.45,0,0,1,.72,0,12.35,12.35,0,0,0,1.32,0l1-.1,1-.1a7.49,7.49,0,0,1,.82,0c.41,0,.82,0,1.22,0a9.63,9.63,0,0,0,1.29-.24,5.49,5.49,0,0,1,.72-.15c.33,0,.65,0,1-.06l1.05-.07a5.56,5.56,0,0,0,1.59-.41l.42-.14c.67-.06,1.35-.11,2-.15a2.78,2.78,0,0,1,.46.08,6.3,6.3,0,0,0,1.61.16,5.65,5.65,0,0,0,1.59-.37l.37-.14a3.06,3.06,0,0,1,.41.1,5.63,5.63,0,0,0,1.71.25c.32,0,.63,0,1,0s.72,0,1.08,0a5.6,5.6,0,0,0,1.55-.3,4.71,4.71,0,0,1,.48-.12c.31,0,.62,0,.93,0s.74,0,1.11,0,.59,0,.89,0,.76,0,1.15,0a7.34,7.34,0,0,0,1.33-.14,5.68,5.68,0,0,1,.71-.08l.67.08a10.8,10.8,0,0,0,2.58.07,7.7,7.7,0,0,1,.83,0h2l1.05,0,1,0a6.15,6.15,0,0,0,1.55-.2,3.51,3.51,0,0,1,.49-.09l.91,0,1,0,.23.12a4.57,4.57,0,0,0,1.92.61c.39,0,.78,0,1.17,0s.58,0,.87,0,.82,0,1.23,0a7.3,7.3,0,0,1,.81,0,7.06,7.06,0,0,0,1.46-.1c.22,0,.47-.06.58-.06.32,0,.64.06.95.1s.72.09,1.08.11a6.91,6.91,0,0,1,.71.13,7.64,7.64,0,0,0,1.3.22l1,.11,1.06.13a9.05,9.05,0,0,0,1.41,0,3.83,3.83,0,0,1,.64,0,3.9,3.9,0,0,1,.59.15,6.6,6.6,0,0,0,1.4.32,6.22,6.22,0,0,0,1.54-.06l.45,0a2.2,2.2,0,0,1,.26.15,5,5,0,0,0,1.76.63,5.4,5.4,0,0,0,1.74-.13l.3-.08a3.32,3.32,0,0,1,.41.17,5.53,5.53,0,0,0,1.58.51,5.71,5.71,0,0,0,1.65-.06l.42-.05a10.27,10.27,0,0,0,1.3.08l.68,0,.38.18a5.14,5.14,0,0,0,1.61.59,5.19,5.19,0,0,0,1.76-.06l.3-.07a2.33,2.33,0,0,1,.42.19,6.11,6.11,0,0,0,1.53.55c.47.08.9.1,1.28.13a7.13,7.13,0,0,1,.75.06c.09,0,.33.13.5.2a6.39,6.39,0,0,0,1.43.5,8.61,8.61,0,0,0,1.34.14,5.81,5.81,0,0,1,.69.05,5.34,5.34,0,0,1,.61.22,8.07,8.07,0,0,0,1.32.45,6,6,0,0,0,1.65.07l.37,0,.27.17a5.16,5.16,0,0,0,1.63.78,5.32,5.32,0,0,0,1.81,0,2,2,0,0,1,.34,0c.32.08.65.15,1,.21s.63.13.94.21.51.17.76.26.77.29,1.16.4.7.2,1,.3l.91.26c.32.09.63.2.95.3l1,.31c.34.1.68.18,1,.27l.94.25a7.31,7.31,0,0,0,1.43.25c.17,0,.35,0,.48.06a1.54,1.54,0,0,1,.19.17,4.48,4.48,0,0,0,1.66,1.05,8.88,8.88,0,0,0,1.31.3,5,5,0,0,1,.68.14,7.75,7.75,0,0,1,.79.33c.36.16.72.32,1.08.44s.55.22.81.34.7.31,1.06.44a4.78,4.78,0,0,0,1.88.23,1.51,1.51,0,0,1,.3,0c.16.07.35.18.56.29a9.63,9.63,0,0,0,1.16.58,10,10,0,0,0,1.32.37,4.89,4.89,0,0,1,.61.15,3.78,3.78,0,0,1,.35.27,6,6,0,0,0,1.4.9c.34.14.68.3,1,.46l.81.36a5.74,5.74,0,0,0,1.63.39l.39.05,1,.5.77.37a4.32,4.32,0,0,1,.38.3,6.13,6.13,0,0,0,1.29.9c.35.17.72.31,1.09.45a7.43,7.43,0,0,1,.77.33,4.5,4.5,0,0,1,.48.35,7.59,7.59,0,0,0,1.17.82,6.51,6.51,0,0,0,1.45.51l.46.13a2.22,2.22,0,0,1,.31.31,6,6,0,0,0,1.27,1,4.55,4.55,0,0,0,2,.51h.18l.23.24a6,6,0,0,0,1.21,1.06c.31.19.62.36.94.53s.55.29.8.46a4,4,0,0,1,.36.36,6.46,6.46,0,0,0,1.13,1,4.76,4.76,0,0,0,1.76.67,2.3,2.3,0,0,1,.28.06l.34.35a6.82,6.82,0,0,0,1.05,1,7.42,7.42,0,0,0,1.21.69,4.6,4.6,0,0,1,.54.3l.75.55c.29.21.58.42.86.65a4,4,0,0,1,.41.45,6.8,6.8,0,0,0,1,1c.07.06.23.28.35.43a6.38,6.38,0,0,0,1,1.1,4.36,4.36,0,0,0,1.82.9l.23.07.59.61.65.68c.05.06.15.25.23.39a5.51,5.51,0,0,0,.91,1.32c.38.4.74.8,1.1,1.21l.67.73c.3.33.6.65.89,1s.42.53.61.8.38.52.58.77a5.68,5.68,0,0,0,1.27,1.1l.29.19a7.58,7.58,0,0,1,.42.7c.19.34.38.68.59,1a3.6,3.6,0,0,1,.16.45,5.17,5.17,0,0,0,1.65,2.58l.32.3c.17.3.37.59.56.88a9.21,9.21,0,0,1,.49.78c.17.31.35.61.54.91a9,9,0,0,1,.46.79c.09.21.18.49.28.79s.24.72.38,1.06a6.49,6.49,0,0,1,.26.81c.1.36.2.72.33,1.06a3.8,3.8,0,0,1,.1.57A6.77,6.77,0,0,0,387,217a8.49,8.49,0,0,0,.48,1.15,5.75,5.75,0,0,1,.28.65,5.63,5.63,0,0,0,.65,1.43l.21.36a4.41,4.41,0,0,1,.06.72,8.23,8.23,0,0,0,.11,1.24c.11.64.21,1.29.29,1.93a4.88,4.88,0,0,1,0,.78,11.37,11.37,0,0,0,0,1.17,4.7,4.7,0,0,1-.06.65,8.47,8.47,0,0,0-.08,1.3q0,.5.06,1c0,.31.06.63.06.94a8.05,8.05,0,0,0,.1,1.29,4.84,4.84,0,0,1,.06.65C389.23,232.49,389.17,232.79,389.11,233.1Z" style="fill: #1d1d1b"/>
  </g>
</svg>
