<svg xmlns="http://www.w3.org/2000/svg" viewBox="0 0 500 500">
  <title>carrot</title>
  <g>
    <path d="M249.9,380.86c-.82-2.23-1.35-3.75-1.26-4.55.51-4.78.44-7.5-.26-10a2,2,0,0,0-2.35-1.38l.22-.94c.83-3.44,2.21-9.2-2.3-14.83a.41.41,0,0,1,0-.09l-.11-.19c0-.11,0-.24.06-.37s.06-.37.1-.58v-.1l0-.12,0-.23a3.08,3.08,0,0,0,0-.43c0-.11,0-.23,0-.35v-1.14c0-.47,0-1,0-1.44v-.24a.81.81,0,0,0,0-.16v0c0-.15,0-.3,0-.45,0-.33,0-.68,0-1v-.23a1.94,1.94,0,0,0-.12-.58l-.1-.36c-.08-.28-.16-.56-.24-.88l-.21-.9,0-.12c-.08-.27-.17-.57-.25-.86l-.06-.2a2.2,2.2,0,0,0-.25-.54c-.07-.14-.17-.37-.27-.59a8.15,8.15,0,0,0-.38-.81c-.11-.19-.21-.39-.31-.59l-.38-.71a1.88,1.88,0,0,0-.21-.31l-1-1.28A.91.91,0,0,0,240,333L239,331.77l-.16-.16-1.13-1.08-.13-.11c-.12-.1-.25-.19-.38-.28l-.31-.22,0,0a2.7,2.7,0,0,0-.38-.27,2.06,2.06,0,0,0-1.53-.3l0,0-.1,0a.26.26,0,0,1-.12-.34l.06-.16a3.39,3.39,0,0,0,.13-.64,6,6,0,0,1,.16-.72,14.12,14.12,0,0,0,.38-1.49c.1-.5.21-1,.27-1.52a10.4,10.4,0,0,0,.05-1.18l0-.81a8.17,8.17,0,0,0,0-1.12c0-.18,0-.36,0-.62v-.14a5.13,5.13,0,0,0-.06-.81c0-.24,0-.48-.06-.69s0-.63-.08-.8a2.13,2.13,0,0,0-.13-.43,2.55,2.55,0,0,0-.17-.32l-.06-.12a3.93,3.93,0,0,1-.33-.75c-.06-.16-.1-.33-.15-.52a8.52,8.52,0,0,0-.29-.9c-.2-.47-.42-1-.64-1.39a5,5,0,0,0-.52-.76c-.15-.18-.3-.38-.42-.55a2.78,2.78,0,0,1-.3-.69l0-.11a2.77,2.77,0,0,0-.1-.26A2,2,0,0,0,232,311a5.41,5.41,0,0,0-.41-.39l-.1-.1c-.17-.15-.36-.32-.5-.47l-.68-.71a2.05,2.05,0,0,0-1.56-.58l.18-.12a1.77,1.77,0,0,0,.41-.36l0,0c.16-.13.32-.28.48-.43l.29-.23s0,0,.05-.05l.11-.1,0,0,.16-.18.26-.27.38-.4.37-.36a1.46,1.46,0,0,0,.16-.19l.9-1.15a1.64,1.64,0,0,0,.26-.37l.28-.44c.06-.09.1-.17.16-.28l.06-.09.05-.09a2,2,0,0,0,.18-.32l.05-.11,0-.1c.06-.16.13-.33.21-.55l.23-.63,0-.07c0-.12.09-.25.13-.36l0-.1a3.59,3.59,0,0,0,.21.38l0,.06a2.12,2.12,0,0,0,.37.55l.29.37a3.12,3.12,0,0,0,.68.69l.11.1a1.81,1.81,0,0,0,.3.25l.11.09a5.41,5.41,0,0,0,1.29.83l.14.07a1.59,1.59,0,0,0,.27.12l.22.09a3.58,3.58,0,0,0,.83.29l.91.21c.31.06.65.13.92.16a1.45,1.45,0,0,0,.36,0h.1a2.14,2.14,0,0,0,.67,0l.31,0a6.83,6.83,0,0,0,.91-.17l.33-.11a1.73,1.73,0,0,0,.42-.14l.28-.12a1.8,1.8,0,0,0,.49-.27l.76-.48.1-.07.5-.36c.16-.11.31-.23.44-.34a.39.39,0,0,0,.1-.08l1-.95a4.56,4.56,0,0,0,.84-.9,2,2,0,0,0,.19-.36l.19-.39a4,4,0,0,0,.26-.58l.58-1.46.06-.16.21-.63a2.1,2.1,0,0,0,.06-.24l.37-2.09c.08-.47.14-.79.16-1.07v-.07a1.9,1.9,0,0,0,0-.41,1.09,1.09,0,0,0,0-.18l-.13-1.6a1.07,1.07,0,0,0,0-.25l-.31-1.59h0a3.18,3.18,0,0,0-.08-.33l-.09-.26,0-.1-.05-.14a3.9,3.9,0,0,0-.19-.51l-.17-.37c0-.06-.07-.15-.09-.2l-.05-.1-.42-.72a1.37,1.37,0,0,0-.15-.21l-.44-.57-.1-.12-.32-.36a3.33,3.33,0,0,0-.5-.51l-.24-.19a1.88,1.88,0,0,0-.39-.29l-.29-.19a4.1,4.1,0,0,0-.52-.32l-.11,0-.38-.17a2.26,2.26,0,0,0-.33-.13l-.51-.15-.11,0a12.53,12.53,0,0,0-1.28-.23l-.53-.08-.14,0h-.54a2.28,2.28,0,0,0-.59.05l-.66.15a1.29,1.29,0,0,0-.28.08l-.2.07-.35.14-.74.24-.13.05-.32.14-.14.05-.33.17-.21.15-.25.2a4,4,0,0,0-.68.61l-.12.12-.08.07-.12.13,0,0-.43.45a3.29,3.29,0,0,0-.36.47,2.1,2.1,0,0,0-.31.41l-.32.53a2,2,0,0,0,0-.41,2.49,2.49,0,0,0-.07-.53l-.2-1.07a2.76,2.76,0,0,0-.08-.27h0c-.05-.24-.11-.49-.16-.76a2.4,2.4,0,0,0-.12-.38l-.15-.41a5.31,5.31,0,0,0-.21-.51l-.09-.19,0-.07,0,0-.4-.95a3.24,3.24,0,0,0-.17-.32l-.14-.25-.06-.11c-.08-.12-.15-.25-.25-.43l-.06-.1a1.28,1.28,0,0,0-.15-.25l-.05-.06-.58-.89-.07-.08q-.19-.27-.39-.51l-.08-.1a2,2,0,0,0-1.11-.76,2.18,2.18,0,0,0-.26-.6l-.06-.27a3.3,3.3,0,0,0,.45-.26c.52-.36,1.05-.79,1.53-1.19a4.29,4.29,0,0,0,.56-.57l.18-.2a7.12,7.12,0,0,1,.56-.64L234,275a3.71,3.71,0,0,1,.28-.26,11.56,11.56,0,0,0,1-1,5.92,5.92,0,0,1,.41-.45,7.63,7.63,0,0,0,.8-.9,7.39,7.39,0,0,0,.66-1l.14-.24c.07-.12.14-.24.25-.41a5.59,5.59,0,0,1,.34-.54l.1-.15c.21-.33.4-.65.56-.95.31-.63.56-1.21.76-1.74a11.61,11.61,0,0,0,.39-1.27l.14-.55a5.08,5.08,0,0,0,.2-1l.05-.33c0-.22.07-.44.1-.63.07-.4.11-.83.15-1.28l0-.36a.41.41,0,0,0,0-.11v-.18a7.9,7.9,0,0,1,.12-.83,5.44,5.44,0,0,0,.11-1.09,9.37,9.37,0,0,0-.07-1l0-.35c0-.18,0-.36-.06-.58s-.09-.57-.16-.91l-.05-.21c0-.24-.11-.48-.15-.74s-.08-.46-.11-.79l0-.21c-.05-.31-.09-.6-.17-.91l-.14-.55c-.1-.42-.21-.85-.34-1.27a.56.56,0,0,0,0-.12c-.08-.21-.23-.53-.39-.84l0-.09c-.11-.23-.24-.47-.34-.74a3.4,3.4,0,0,1-.15-.49,2,2,0,0,0-2.67-1.35.25.25,0,0,1-.21-.11.24.24,0,0,1,0-.19.26.26,0,0,1,.12-.16l.53-.35.68-.45c.22-.16.44-.35.65-.52l.46-.38c.32-.25.62-.51.9-.75l.16-.13a1.82,1.82,0,0,0,.31-.31,4,4,0,0,0,.24-.35,3,3,0,0,1,.45-.55,5.79,5.79,0,0,1,.55-.43l.09-.07a2.88,2.88,0,0,0,.5-.41c.22-.22.43-.44.66-.7l.21-.24.1-.08a3.2,3.2,0,0,0,1-1.28,3.89,3.89,0,0,1,.43-.38,4,4,0,0,0,.45-.37c.07-.07.13-.15.19-.22s.19-.24.35-.42l.07-.08a5.2,5.2,0,0,0,.35-.44,2.13,2.13,0,0,0,.23-.42,3.21,3.21,0,0,0,.11-.36,3.12,3.12,0,0,1,.28-.69l.19-.33c.18-.3.36-.59.54-.93a2.7,2.7,0,0,1,.47-.59,2,2,0,0,0,.52-1.35,2.06,2.06,0,0,1,.1-.71,2.59,2.59,0,0,1,.43-.66l0-.05.13-.18a1.68,1.68,0,0,0,.26-.56,4.35,4.35,0,0,0,.11-.46l0-.13c0-.21.08-.42.14-.63s.09-.28.13-.43l0-.11c.08-.25.17-.54.24-.86s.1-.62.12-.78l0-.29a3.39,3.39,0,0,1,0-.35,4.05,4.05,0,0,1,.12-.5l0-.16a3.87,3.87,0,0,0,.19-.81,7,7,0,0,0,0-.79c0-.21,0-.43,0-.7s0-.52,0-.79,0-.39,0-.67a5.62,5.62,0,0,0-.05-.7c0-.22,0-.45,0-.78s0-.38,0-.56l0-.24c0-.17,0-.34-.06-.59a5.93,5.93,0,0,1,0-.72,3.34,3.34,0,0,0,0-.63.57.57,0,0,0,0-.13,6.73,6.73,0,0,1,0-.72v-.13a2.83,2.83,0,0,0,0-.3,1.9,1.9,0,0,0-.2-.73,1.65,1.65,0,0,0-.1-.19l-.05-.09a4.06,4.06,0,0,1-.27-.65,4.57,4.57,0,0,1-.09-.71,3,3,0,0,0-.07-.66,1.93,1.93,0,0,0-.16-.46l-.21-.36a3.69,3.69,0,0,1-.31-.63,6,6,0,0,1-.2-.72l0-.11a5.85,5.85,0,0,0-.17-.58l-.1-.19A3.73,3.73,0,0,0,247,212l-.07-.09a4.63,4.63,0,0,1-.38-.59c-.09-.19-.18-.41-.26-.63a5.46,5.46,0,0,0-.3-.7,6.1,6.1,0,0,0-.43-.65.31.31,0,0,0-.07-.09,5.61,5.61,0,0,1-.36-.54,3,3,0,0,1-.27-.53,4.25,4.25,0,0,0-.3-.66,1,1,0,0,0-.08-.11c-.12-.17-.22-.37-.33-.56l-.08-.15a3.73,3.73,0,0,0-.23-.37,1.64,1.64,0,0,0-.59-.58l-.08-.06a2.85,2.85,0,0,1-.6-.5c-.21-.25-.44-.48-.61-.65l-.39-.41a2.64,2.64,0,0,1-.43-.68l-.27.14-.06-.08.28-.16a2,2,0,0,0-.63-.73,1.53,1.53,0,0,0-.23-.15l-.12-.08-.52-.35-.48-.45a6.09,6.09,0,0,0-.65-.58c-.39-.29-.78-.57-1.18-.84l-.15-.09a4,4,0,0,0-.56-.25,5,5,0,0,1-.62-.27,8.56,8.56,0,0,0-.8-.41l-.57-.27a4.22,4.22,0,0,1-.69-.47,2.4,2.4,0,0,0-.37-.28,3.18,3.18,0,0,0-.32-.16l-.47-.19-.83-.35a2.14,2.14,0,0,0-.34-.09,2.69,2.69,0,0,0-.45-.05,4,4,0,0,1-.74-.14,2,2,0,0,0-1.59.18,2,2,0,0,0-.94,1.18.74.74,0,0,0,0,.14l-.07.21a7.52,7.52,0,0,0-.22.91.34.34,0,0,1-.06.09,3.45,3.45,0,0,0-.2.32,2.71,2.71,0,0,0-.18.59,2.72,2.72,0,0,1-1.66,1.87,3.72,3.72,0,0,1-3,.14c-1.22-.7-1.58-2.91-1.21-4a1.94,1.94,0,0,0,0-1.19s0-.05,0-.07a2,2,0,0,0-2.06-1.5,4.76,4.76,0,0,0-.77.13l-.18,0a6.65,6.65,0,0,1-.68.12,5.72,5.72,0,0,1-.79,0h-.18a4.47,4.47,0,0,0-.6,0l-.16,0c-.25.06-.52.14-.86.25a4.88,4.88,0,0,1-.7.21c-.53.14-1.08.3-1.6.47s-1.09.35-1.6.55c-.25.09-.51.15-.85.24a4,4,0,0,0-.77.24,3.57,3.57,0,0,0-.7.4l-.14.08a6.57,6.57,0,0,1-.65.39c-.51.29-1,.57-1.52.88l-.71.43a6.13,6.13,0,0,0-.78.47,4,4,0,0,0-.8.74l-.09.08c-.17.17-.33.34-.48.47-.49.39-.92.8-1.36,1.22a6.57,6.57,0,0,1-.68.56l-.12.08a3.59,3.59,0,0,0-.58.51,5.41,5.41,0,0,0-.59.82c-.15.23-.31.47-.47.68s-.31.38-.48.56a8.29,8.29,0,0,0-.71.88,4.2,4.2,0,0,0-.33.7l-.05.1a5.87,5.87,0,0,1-.35.78l-.27.45c-.21.37-.43.75-.63,1.16-.11.23-.25.45-.39.68l-.05.08a5,5,0,0,0-.42.78,6.28,6.28,0,0,0-.29.83l0,.18c-.06.26-.14.53-.2.71l-.28.72-.07.18c-.11.27-.21.53-.32.87s-.13.53-.19.8l-.2.87a9.59,9.59,0,0,0-.19,1l0,.16c0,.22-.08.45-.14.75a5.84,5.84,0,0,1-.18.69l0,.07a.5.5,0,0,0,0,.13,2.29,2.29,0,0,0-.07,1.07c0,.15-.06.3-.09.45l-.07.33a5.59,5.59,0,0,0-.16.94c0,.61,0,1.17,0,1.72v.1c0,.17,0,.32,0,.49a11.93,11.93,0,0,0,0,1.2c0,.58.1,1.19.19,1.78a9.53,9.53,0,0,0,.23,1.08c.06.21.1.42.15.67s.14.55.22.82l.07.24c.06.2.12.4.18.66s.09.42.13.63l0,.15a5.31,5.31,0,0,0,.18.91,8.24,8.24,0,0,0,.33.82l.06.13a6,6,0,0,1,.32.75c.06.15.11.3.16.45l.07.22a8.8,8.8,0,0,0,.35,1,7.39,7.39,0,0,0,.46.86l.05.09a6.92,6.92,0,0,1,.34.62c.2.38.41.74.6,1l.26.46a6.28,6.28,0,0,1,.36.74,5.76,5.76,0,0,0,.44.87c.32.48.66,1,1,1.45l.07.09c.08.09.24.24.41.4l.14.12a1.09,1.09,0,0,0,.11.1,5.31,5.31,0,0,1,.55.53.17.17,0,0,1,.06.16.22.22,0,0,1-.08.18.31.31,0,0,1-.24,0,2,2,0,0,0-2.35.92l-.17.29c-.13.19-.26.37-.4.54l-.09.12a9.37,9.37,0,0,0-.54.8l-.08.12-.06.1c-.27.49-.54,1-.76,1.44-.1.21-.23.42-.35.63l-.05.09c-.18.32-.35.63-.44.84l-.06.14c-.11.32-.2.64-.3,1l-.21.78a5.18,5.18,0,0,0-.19,1.08c0,.25-.06.51-.1.72s-.16.57-.24.81a4.39,4.39,0,0,0-.29,1,7.81,7.81,0,0,1-.15.79c-.07.28-.13.55-.16.76a1.89,1.89,0,0,0,.06.82,1,1,0,0,0,.07.2.85.85,0,0,0,.06.17,2.71,2.71,0,0,1,.24,1c0,.62,0,1.21.06,1.76a3.58,3.58,0,0,1-.09.94l0,.11a3.27,3.27,0,0,0-.07.62,2.29,2.29,0,0,0,0,.25,6.1,6.1,0,0,0,.19.86l0,.19c.06.2.12.4.18.69a3.22,3.22,0,0,0,.34.82,5,5,0,0,1,.32.77,3.57,3.57,0,0,1,.11.9,3.91,3.91,0,0,0,0,.49,2.39,2.39,0,0,0,.66,1.24,4.06,4.06,0,0,1,.48.69c.11.21.2.43.28.61a8.46,8.46,0,0,0,.47,1l.27.45c.21.38.43.75.65,1.07l.35.53q.33.48.69,1c.16.21.3.43.47.69l.06.09c.15.22.3.45.47.66a5.24,5.24,0,0,0,.71.7,7,7,0,0,1,.62.61.15.15,0,0,1,0,.13.19.19,0,0,1-.08.14s-.1,0-.2,0a2,2,0,0,0-2.4.79l-.22.36c-.16.25-.31.5-.45.74a5.21,5.21,0,0,0-.4.94,6,6,0,0,1-.27.7l-.35.64-.06.1c-.15.28-.29.56-.42.85s-.27.76-.39,1.15l-.15.47c-.09.27-.16.59-.24.94l-.15.77c-.07.36-.12.78-.17,1.27l0,.39a3.7,3.7,0,0,1-.16.7l-.05.17a4.76,4.76,0,0,0-.15.62,2.64,2.64,0,0,0,0,.28c0,.15,0,.3,0,.47,0,.39,0,.79,0,1.24s.06.77.1,1.16l.08.82c0,.12,0,.24,0,.27,0,.37.05.72.1,1.07a1.91,1.91,0,0,0,.25.74,1.52,1.52,0,0,0,.16.26,3.32,3.32,0,0,1,.4.85,6.37,6.37,0,0,1,.11.63v.08a4.13,4.13,0,0,0,.19,1c.08.28.13.55.18.81a4.18,4.18,0,0,0,.22.87,4.1,4.1,0,0,0,.52.86,7.11,7.11,0,0,1,.46.71c.13.24.22.48.34.76l0,.1a3.12,3.12,0,0,0,.37.79l.06.09a4.88,4.88,0,0,0,.48.49l.11.1a5.9,5.9,0,0,1,.56.56c.17.22.32.47.47.71a5,5,0,0,0,.53.78l.09.1c.09.08.31.26.54.43l.12.08a6.25,6.25,0,0,1,.67.55,4.08,4.08,0,0,1,.55.65,4.77,4.77,0,0,0,.62.69,4.49,4.49,0,0,0,.8.48,4.72,4.72,0,0,1,.72.43c.47.35,1,.68,1.47,1a.19.19,0,0,1,0,.28c0,.07-.13.08-.26.05l-.12-.08-.14-.1a2,2,0,0,0-1.82-.2,2,2,0,0,0-1.22,1.36c0,.06,0,.11,0,.15a1.31,1.31,0,0,0-.08.21,4.22,4.22,0,0,0-.2.82c0,.34-.05.69-.06,1.1,0,.22,0,.42,0,.71s0,.65,0,.95,0,.55,0,.78v.51c0,.44,0,.87,0,1.31a6.58,6.58,0,0,1,0,.78,6.87,6.87,0,0,0,0,1c.07.61.15,1.2.25,1.76s.2,1.19.34,1.8l.09.35c.1.46.21.92.36,1.4a6.25,6.25,0,0,0,.39.84l.06.1a5.19,5.19,0,0,1,.31.63l.26.69a6.19,6.19,0,0,0,.37,1,4.84,4.84,0,0,0,.51.83l0,.07.42.66.3.52a10,10,0,0,0,.55,1,6.48,6.48,0,0,0,.58.72l.18.21c.15.16.29.32.44.5a7.1,7.1,0,0,1,.47.64l.12.15a4.94,4.94,0,0,0,.53.66,7.29,7.29,0,0,0,.75.65,5.76,5.76,0,0,1,.56.48,4.49,4.49,0,0,1,.51.55l.06.08a4,4,0,0,0,.61.67.27.27,0,0,0,.08.07,8.46,8.46,0,0,0,.79.48c.24.13.47.26.66.39l.39.28c.39.28.76.53,1.1.73s.65.36,1,.52l.1,0,.51.26a7.68,7.68,0,0,1,.78.47l.29.18a2,2,0,0,0,1.88.18.3.3,0,0,1,.13,0,.25.25,0,0,1,.23.24,2.14,2.14,0,0,0,.1.71,1.78,1.78,0,0,0-.06.65v.14c0,.1,0,.2,0,.27,0,.29,0,.58,0,.86s0,.69,0,.94.12.71.2,1.05l0,.17c0,.18.08.35.13.62.1.42.21.82.31,1.12l.17.55a11,11,0,0,0,.48,1.31l.15.38c0,.13.11.26.15.4l.06.15a7.73,7.73,0,0,0,.46,1.05,7.46,7.46,0,0,0,.59.94l.4.56.32.51,0,.08a7.3,7.3,0,0,0,.58.86,4.66,4.66,0,0,0,.7.64l.25.2.43.38a5.73,5.73,0,0,1,.54.56,7.32,7.32,0,0,0,.69.68,5.38,5.38,0,0,0,.86.53l.26.15.45.26c.48.31,1,.6,1.58.93.17.09.33.2.5.31l.38.24a5.76,5.76,0,0,0,.65.37c.43.2.88.4,1.4.62l.22.09a.26.26,0,0,1,.15.31.54.54,0,0,1-.09.09,2,2,0,0,0-.7,1.74c0,.33.05.65.06.89a8.93,8.93,0,0,0,0,.94,14.68,14.68,0,0,0,1.42,4.51,10.82,10.82,0,0,0,5.93,4.89,2.57,2.57,0,0,0,0,.48c0,.11,0,.23,0,.37a9.55,9.55,0,0,0,.18,1.16l0,.14c0,.14.06.31.09.47a.83.83,0,0,0,0,.15l0,.12.05.17a1.68,1.68,0,0,1,.07.27l.18.62c.08.31.17.64.24.89l.05.21.09.27a1,1,0,0,0,.06.16l.27.62.16.39.06.13.49,1a1.71,1.71,0,0,0,.12.23l.25.48c.31.59.63,1.2,1,1.8a.75.75,0,0,0,.07.12l.3.49c.22.35.44.71.64,1l.26.43.07.11,0,0a1,1,0,0,0,.11.17l0,.05c.08.13.17.25.26.38a3,3,0,0,1,.2.29.61.61,0,0,1,.07.1c.14.18.31.38.47.57l.42.51a2.29,2.29,0,0,0,.21.23l.1.11.46.45a4.05,4.05,0,0,0,.68.58l.13.09.37.27.09.07.09.07.12.09.05,0h0l.12.06h0a2,2,0,0,0,1.18.39,1.92,1.92,0,0,0,1.18-.41,2,2,0,0,0,1.18-1.44C251.91,387,251.45,385.07,249.9,380.86Zm-22.45-85.34a7.08,7.08,0,0,1-.41,1.58,8.21,8.21,0,0,1-.83,1.42,5.3,5.3,0,0,1-1.07,1.11l-.39.31a3.4,3.4,0,0,1-.8.54,6.74,6.74,0,0,1-1.57.55,5.52,5.52,0,0,1-1.13.1h-.49a5.79,5.79,0,0,1-1.59-.29,5.45,5.45,0,0,1-1.4-.72,6.34,6.34,0,0,1-1-1l-.11-.12a6.69,6.69,0,0,1-.94-1.33,5.83,5.83,0,0,1-.52-1.52,5.38,5.38,0,0,1,0-1.6,5.81,5.81,0,0,1,.35-1.54,6.62,6.62,0,0,1,.75-1.41,7.25,7.25,0,0,1,1.1-1.3,5.68,5.68,0,0,1,1.38-.88,5.43,5.43,0,0,1,1.54-.46,5.36,5.36,0,0,1,1-.09c.2,0,.41,0,.61,0a6.35,6.35,0,0,1,1.61.32,5.88,5.88,0,0,1,1.43.75,6.09,6.09,0,0,1,1.17,1.15,5.3,5.3,0,0,1,.85,1.35,5.16,5.16,0,0,1,.5,1.51A6,6,0,0,1,227.45,295.52Z" style="fill: #ee7d00"/>
    <path d="M306.66,147.56a12,12,0,0,0,.13-1.29,11.46,11.46,0,0,0,0-1.16v-.29c0-.29,0-.59-.05-.85,0-.67,0-1.4-.14-2.28a7.11,7.11,0,0,1,0-1,5.9,5.9,0,0,0,0-1.23,4.87,4.87,0,0,0-.37-1.18,5.76,5.76,0,0,1-.34-1c-.06-.3-.12-.6-.17-1l-.05-.27c-.08-.38-.14-.74-.23-1.05a6.11,6.11,0,0,1-.2-1,7.22,7.22,0,0,0-.28-1.26,5.26,5.26,0,0,0-.57-1,5.89,5.89,0,0,1-.56-1,5.42,5.42,0,0,1-.27-.91l-.06-.25a4.2,4.2,0,0,0-.33-1c-.19-.37-.44-.78-.74-1.25-.15-.23-.3-.45-.43-.69-.4-.69-.81-1.34-1.23-2s-.88-1.2-1.3-1.74-.9-1.09-1.29-1.53l-.27-.32c-.36-.4-.76-.8-1.17-1.21l-.39-.39c-.21-.21-.41-.44-.61-.66a10.68,10.68,0,0,0-.92-1,6.08,6.08,0,0,0-.94-.68l-.1-.06a6.81,6.81,0,0,1-.75-.54l-.7-.64-.1-.1a9.52,9.52,0,0,0-.87-.77,6,6,0,0,0-1.05-.56,7.44,7.44,0,0,1-.92-.48l-.3-.19a16.85,16.85,0,0,0-1.56-.92,16,16,0,0,0-1.86-.77l-.16,0-.79-.34a5.48,5.48,0,0,0-1.25-.47l-.1,0a1.93,1.93,0,0,0-.56-.27l-.29-.06a6.69,6.69,0,0,1-.65-.18,4.91,4.91,0,0,0-.73-.19l-.74-.17c-.23-.06-.47-.11-.66-.14A3.74,3.74,0,0,1,279,110l-.21,0a2.78,2.78,0,0,0-.5-.11l-.12,0-.4,0-.17,0-.54-.08a1.8,1.8,0,0,0-.73,0l-.27.07a2.21,2.21,0,0,1-.73.15,7.79,7.79,0,0,1-.8-.09,3.34,3.34,0,0,0-.62-.06h-.48c-.35,0-.69,0-1.07,0a4.39,4.39,0,0,0-.69.13,6,6,0,0,1-.66.14,3,3,0,0,0-.77.16,4.42,4.42,0,0,1-.63.14,2.31,2.31,0,0,1-.77-.08h0a2.24,2.24,0,0,0-1,0l-.33.08-.19,0-.63.16a3.24,3.24,0,0,1-.56,0h-.37a2,2,0,0,0-1.12.34l-.1.08a2.37,2.37,0,0,1-.64.31c-.22.06-.45.11-.63.14a3.56,3.56,0,0,0-.81.17c-.2.07-.39.15-.59.24l-.11.06c-.19.09-.39.19-.6.27l-.9.35-.42.17a2.1,2.1,0,0,1-.66.14,2,2,0,0,0-1.34.69,2,2,0,0,1-.51.45,4.56,4.56,0,0,1-.59.26l-.1,0a3.09,3.09,0,0,0-.61.29,3.06,3.06,0,0,1-.66.23,2,2,0,0,0-1.18.85,1.62,1.62,0,0,1-.44.52,1.93,1.93,0,0,1-.75.27h0a2.13,2.13,0,0,0-.9.45l-.31.29a4,4,0,0,1-.51.46l-.49.4c-.21.16-.42.32-.6.48s-.42.38-.67.61l-.37.35c-.13.11-.26.24-.38.36l-.34.34-.26.25-.09.08-.27.28-.17.18-.09.09c-.13.15-.27.3-.39.42a5.64,5.64,0,0,1-.63.51l-.29.23a1.94,1.94,0,0,0-.41.49,2,2,0,0,0-.18.32,3.1,3.1,0,0,1-.37.61,5.08,5.08,0,0,1-.5.44,3.09,3.09,0,0,0-.39.33,2.66,2.66,0,0,0-.26.31c-.06.1-.11.2-.16.3a2.14,2.14,0,0,0-.1.22,2.09,2.09,0,0,1-.29.6l-.44.51c-.18.2-.34.39-.5.6s-.32.45-.43.64l-.12.2c-.07.11-.13.22-.2.31a2.76,2.76,0,0,1-.49.52l-.09.07a2.2,2.2,0,0,0-.48.53c-.25.39-.48.77-.72,1.17a1.87,1.87,0,0,0-.27.78,2.75,2.75,0,0,1-.24.62,1.33,1.33,0,0,1-.45.43,2,2,0,0,0-.88,1.45,1.76,1.76,0,0,1-.15.61,3,3,0,0,1-.39.56c-.12.15-.24.3-.35.46a1.38,1.38,0,0,0-.14.24,5.47,5.47,0,0,1-.35.56l-.07.09a3.44,3.44,0,0,0-.3.51l-.22.39-.23.41c-.11.19-.21.38-.28.53a6.1,6.1,0,0,0-.26.68l-.27.69c-.11.23-.2.47-.31.74s-.14.38-.25.62-.15.38-.23.58l-.31.81-.06.18a3.83,3.83,0,0,0-.11.5v0a4.24,4.24,0,0,1-.18.66,3.55,3.55,0,0,1-.34.64l-.07.11c-.08.12-.15.25-.22.37l-.09.21a5.07,5.07,0,0,1-.29.62,3.53,3.53,0,0,0-.32.67,7.67,7.67,0,0,0-.26.77,5.22,5.22,0,0,1-.21.65c-.07.19-.15.38-.24.6s-.15.34-.23.52a2.12,2.12,0,0,0-.14.75v.19a2.4,2.4,0,0,1-.07.76,2.48,2.48,0,0,1-.4.66l-.07.1a2,2,0,0,0-.36.7l-.19.62-.2.66a2.45,2.45,0,0,0-.1.64,4.17,4.17,0,0,1-.13.76l-.43,1.41a4.73,4.73,0,0,1-.3.73,3.83,3.83,0,0,0-.26.65c-.05.18-.09.38-.13.57l0,.1c-.05.25-.1.5-.17.76a.78.78,0,0,0,0,.14,4.27,4.27,0,0,1-.24.53c-.06.13-.12.25-.17.38a1.94,1.94,0,0,0-.13.71,1.67,1.67,0,0,0,0,.36,2.38,2.38,0,0,1,0,.66c-.07.21-.12.43-.18.65l-.2.82a1.53,1.53,0,0,1-.34.58,2,2,0,0,0-.44,1.55,1.94,1.94,0,0,1,0,.68,2.84,2.84,0,0,1-.27.66s-.06.12-.06.14a3.79,3.79,0,0,0-.18.42,1.6,1.6,0,0,0,0,.21,4.22,4.22,0,0,0-.1.65c0,.27-.07.53-.11.75l-.19.78-.14.62a3.92,3.92,0,0,1-.28.77,3.07,3.07,0,0,0-.2.5,2.12,2.12,0,0,0-.08.57s0,.17,0,.21v.14a4.65,4.65,0,0,1,0,.67,5.14,5.14,0,0,1-.22.69.12.12,0,0,0,0,0,3.57,3.57,0,0,0-.21.6,2.5,2.5,0,0,0-.05.29,4.52,4.52,0,0,0,0,.53,4.47,4.47,0,0,1,0,.74c0,.25-.13.5-.19.71a5.68,5.68,0,0,0-.18.71l0,.15a3.61,3.61,0,0,0,0,.47v.11a4,4,0,0,1,0,.78,5.62,5.62,0,0,1-.16.65,5.48,5.48,0,0,0-.19.75,4.25,4.25,0,0,1-.23.73c-.06.13-.11.27-.16.4a2.19,2.19,0,0,0-.1.63s0,.24,0,.28v.12a2.59,2.59,0,0,1,0,.73,6.68,6.68,0,0,0-.06.74c0,.23,0,.46-.07.71a2.59,2.59,0,0,1-.28.73l0,.05a2,2,0,0,0-.17,1.41,2.79,2.79,0,0,1,.05.68c-.05.26-.11.52-.17.79l0,.12a5.26,5.26,0,0,0-.11.58l-.19,1.37c0,.31-.1.56-.15.81l0,.12a4.22,4.22,0,0,0-.12.67,4,4,0,0,0,0,.69c0,.25,0,.49,0,.71l-.19,1.48c0,.22-.07.45-.12.76l-.28,2.16a2.12,2.12,0,0,0-.29,1.15.76.76,0,0,0,0,.11,4.3,4.3,0,0,0,.69,3.48,2,2,0,0,0,1.22.7,3.49,3.49,0,0,0,.5,0,4.41,4.41,0,0,0,2.16-.57,2.59,2.59,0,0,0,1.35-1.73,2.08,2.08,0,0,0,.15-1,.24.24,0,0,0,0-.07,9.65,9.65,0,0,1,.31-1.2l0-.18a6.81,6.81,0,0,0,.22-.83c.08-.47.17-.92.27-1.42l.16-.81c.06-.28.1-.57.14-.85l0-.32c.05-.38.1-.77.17-1.11a9.48,9.48,0,0,1,.33-1.14,8.73,8.73,0,0,0,.34-1.13,7.57,7.57,0,0,0,.06-.83v-.25a3.73,3.73,0,0,1,.6-2.37,3.74,3.74,0,0,0,.4-.93l.24-1c.1-.43.21-.85.3-1.21a5.8,5.8,0,0,0,.17-1.23,5.12,5.12,0,0,1,.15-1.11,11.22,11.22,0,0,1,.41-1.1l0-.1,0-.1c.12-.29.24-.57.31-.81s.2-.68.27-.95l.11-.33c.09-.33.19-.65.29-.95a12.7,12.7,0,0,1,.51-1.2c.14-.3.27-.6.38-.89.29-.74.58-1.44.86-2.1.13-.29.22-.59.32-.88l.05-.17a9.15,9.15,0,0,1,.42-1.14c.33-.69.66-1.38,1-2.05a6.15,6.15,0,0,1,.68-1,7.56,7.56,0,0,0,.6-.83l.06-.09a6.15,6.15,0,0,0,.39-1,5.79,5.79,0,0,1,.47-1.13c.19-.34.4-.67.62-1s.35-.55.52-.83l.07-.1.36-.64.28-.51c.15-.27.3-.54.49-.84s.42-.64.62-.92l.2-.27c.14-.2.29-.4.41-.59a10.89,10.89,0,0,1,.78-1l.12-.14c.17-.19.33-.39.5-.62s.34-.55.5-.83a10,10,0,0,1,.64-1l.39-.5c.32-.41.64-.81,1-1.22l.45-.55c.32-.38.64-.75.94-1.08s.42-.47.58-.66.61-.68.9-1,.52-.47.77-.7l.36-.31.52-.45c.3-.26.6-.49.87-.69l.14-.1c.24-.18.48-.35.73-.55a13,13,0,0,1,1.09-.74c.26-.15.5-.3.81-.52a7.41,7.41,0,0,0,.71-.74,5,5,0,0,1,.78-.75,4.66,4.66,0,0,1,1.24-.48l.13,0,.54-.17.27-.14c.26-.16.52-.35.82-.57l.09-.06a5,5,0,0,1,.85-.54,6.5,6.5,0,0,1,2.13-.57,3.88,3.88,0,0,1,1.94.48l.13,0a3,3,0,0,1,1.59,1.37,3.76,3.76,0,0,1,.36,2,3.53,3.53,0,0,0,0,.46v.13a4.28,4.28,0,0,1-.21,1.6,6.06,6.06,0,0,1-.66,1.18,2.37,2.37,0,0,0-.32.85,6.63,6.63,0,0,1-.52.43l-.1.08a5.66,5.66,0,0,0-.5.41l-.27.24-.31.27c-.17.15-.36.31-.48.44a5.81,5.81,0,0,1-.55.45,3.8,3.8,0,0,0-.54.46c-.1.11-.21.21-.33.32l-.11.1-.4.38a2.18,2.18,0,0,0-.49.81,2.46,2.46,0,0,1-.31.65c-.16.18-.34.36-.51.52a3.3,3.3,0,0,0-.52.56l-.24.31-.53.69a2.46,2.46,0,0,0-.22.39c-.06.15-.11.31-.16.48s-.11.35-.17.52a1.46,1.46,0,0,0-.1.34,1.84,1.84,0,0,0,0,.38c0,.2-.05.4-.08.54a2.44,2.44,0,0,1-.24.61,2,2,0,0,0-.1,1.39c.05.17.12.37.19.54l0,.09.05.12a2,2,0,0,0,1.46,1.31l.35.09.44.16a3.77,3.77,0,0,0,1,.28h0a1.77,1.77,0,0,0,.32,0,6.57,6.57,0,0,0,.71-.06l1.16-.05c.08.38.17.75-.7,1.15l-.16.1-.64.48-.49.37a2.66,2.66,0,0,0-.39.43l-.07.09a3.88,3.88,0,0,1-.48.54,2,2,0,0,0-.48.63l-.07.1a4.72,4.72,0,0,1-.31.44,2.09,2.09,0,0,1-.51.41l-.13.09a2.13,2.13,0,0,0-.22.18,2.18,2.18,0,0,0-.46.66,5.71,5.71,0,0,0-.23.65l-.11.33a3.63,3.63,0,0,1-.22.5,2,2,0,0,0,.08,1.93c.08.14.15.27.19.36.13.28.26.56.31.64a2,2,0,0,0,1.32.92l.3.12a5.25,5.25,0,0,0,1.23.38,1.32,1.32,0,0,1,.35.12,2,2,0,0,0,1.78-.06,1.43,1.43,0,0,1,.37-.14,4.55,4.55,0,0,1,.53,0h.15a3.78,3.78,0,0,0,.47-.06l.17,0a1.24,1.24,0,0,1,.38-.05s.76-.14.77-.14c.7-.27,1,.39.44.72s-1,.43-1,.56h0c-.28.24-.56.51-.77.72l-.11.1a1.89,1.89,0,0,0-.49.69l-.05.1a2.23,2.23,0,0,1-.36.56,2.07,2.07,0,0,1-.5.39,2.73,2.73,0,0,0-.49.37,2.2,2.2,0,0,0-.2.23,9.48,9.48,0,0,0-.55.86,2,2,0,0,0-.11.2,3.55,3.55,0,0,0-.2.63l0,.17a2,2,0,0,1-.1.51,2.13,2.13,0,0,1-.2.4,2,2,0,0,0,.69,2.77c.14.09.27.2.36.27l.23.19a4.52,4.52,0,0,0,.77.57l.13.07.13.06a5.18,5.18,0,0,0,1.07.48l.5.17a3.09,3.09,0,0,0,.8.24l.11,0,.27,0,.6.06a2,2,0,0,0,1.31-.38,1.72,1.72,0,0,1,.51-.25c.11,0,1.21-.15,1.34-.17.67.23.36.95,0,1.75a2.23,2.23,0,0,0-.22.61,1.88,1.88,0,0,1-.21.68l-.35.55c-.13.22-.27.43-.42.71a4.15,4.15,0,0,1-.32.53,3.44,3.44,0,0,0-.35.58l0,.1c-.07.16-.15.33-.26.55a3.62,3.62,0,0,0-.19.4,2.2,2.2,0,0,0-.1,1.05c0,.06,0,.11,0,.16a3,3,0,0,1,.07.52c0,.14,0,.29,0,.44a2,2,0,0,0,.73,1.74,2,2,0,0,1,.25.25,1.39,1.39,0,0,1,.23.37,2,2,0,0,0,1.4,1.06,2.7,2.7,0,0,1,.55.17,2.64,2.64,0,0,1,.59.37h0a3.6,3.6,0,0,0,.39.25,2.16,2.16,0,0,0,.45.15,6.64,6.64,0,0,0,1.06.16,2.47,2.47,0,0,0,.54-.05l.3-.08.12,0a3.91,3.91,0,0,1,.54-.14,2.78,2.78,0,0,0,.38-.12,2.26,2.26,0,0,0,.33-.18l.25-.12.21-.1a3.33,3.33,0,0,1,.57-.18l.13,0a2.13,2.13,0,0,0,.68-.28l.34-.21a3.81,3.81,0,0,0,.76-.52,11,11,0,0,0,.87-.94,1.81,1.81,0,0,0,.39-.72.19.19,0,0,1,0-.07h0a3.3,3.3,0,0,1,.27-.59,3.18,3.18,0,0,1,.54-.58.93.93,0,0,0,.14-.14,1.79,1.79,0,0,0,.38-.52l.2-.42.2-.43c.05-.4.35-.3.53-.26,0,.1,0,.59,0,.7a12.66,12.66,0,0,0,.05,1.32,1.86,1.86,0,0,0,.09.47,3.58,3.58,0,0,0,.17.39,3.7,3.7,0,0,1,.19.59,3.14,3.14,0,0,1,0,.57,2.3,2.3,0,0,0,0,.56,1.8,1.8,0,0,0,.15.5c.12.26.29.58.45.85a1.93,1.93,0,0,0,.46.53l.2.15a3.48,3.48,0,0,1,.48.38,2.64,2.64,0,0,1,.37.46,1.35,1.35,0,0,0,.26.32,2,2,0,0,0,.82.5l.46.13.17.05a2,2,0,0,0,.8.09h.14a3.43,3.43,0,0,1,.61,0l.39,0a4.57,4.57,0,0,0,.82.08h.16a7.25,7.25,0,0,0,1.41-.18l.34-.1a7,7,0,0,0,.71-.22,2.09,2.09,0,0,0,.29-.16,5.67,5.67,0,0,0,.7-.5,2,2,0,0,0,.68-1.13,3.63,3.63,0,0,1,.2-.61l.17-.31,0-.06a3.44,3.44,0,0,0,.43-.88,10.23,10.23,0,0,0,.31-1.35,1.73,1.73,0,0,0,0-.32,3.89,3.89,0,0,0,0-.44,6.12,6.12,0,0,1,0-.78,3.47,3.47,0,0,0-.08-.67,6.07,6.07,0,0,1-.07-.63,2.29,2.29,0,0,1,.12-.72,2.09,2.09,0,0,0,.06-1.11l-.1-.43a5.23,5.23,0,0,1-.12-.57,4.23,4.23,0,0,1,0-.71v-.2a1.91,1.91,0,0,0-.22-.91,2.18,2.18,0,0,0-.14-.25,2.7,2.7,0,0,1-.35-.7c-.06-.2-.09-.41-.13-.61,0,0,0-.12,0-.13a5.44,5.44,0,0,0-.15-.61,5,5,0,0,0-.27-.63l-.06-.1a4.6,4.6,0,0,1-.25-.55l0-.1a2,2,0,0,0,0-1s0-.1,0-.14h0c-.12-.36-.26-.7-.39-1l-.06-.13c-.13-.32-.27-.65-.37-1s-.24-.87-.35-1.3l-.05-.22c-.05-.24-.11-.48-.18-.74s-.16-.46-.24-.69l-.11-.31a10.62,10.62,0,0,1-.38-1.12c-.12-.49-.22-1-.32-1.44l-.37-1.63c-.1-.48-.21-.94-.29-1.39a11.85,11.85,0,0,1-.15-1.28c0-.34,0-.67-.1-1-.12-.77-.21-1.51-.3-2.3,0-.32-.09-.65-.15-1s-.14-.82-.18-1.25a6.58,6.58,0,0,1,0-1.08v-.13a6.25,6.25,0,0,0-.05-2l0-.18a7.6,7.6,0,0,1-.13-1.22c0-.17,0-.38,0-.66v-.18a5,5,0,0,1,.31-1.15c1.21-3.82,3.12-.69,3.34,0a5,5,0,0,0,2.71,3.15,6.68,6.68,0,0,0,2.31.52,4.46,4.46,0,0,0,1.49-.36c.23-.08.47-.17.77-.26a7.23,7.23,0,0,0,2-.83,8.41,8.41,0,0,0,1.75-1.48,7.2,7.2,0,0,0,.94-1.49l.27-.5a11.86,11.86,0,0,0,.5-1.22l.07-.19c.08-.21.16-.43.24-.62a6.46,6.46,0,0,1,.53-.95l.09-.17a3.86,3.86,0,0,0,.45-.91c.15-.47.26-1,.37-1.44l0-.13c0-.21.1-.42.16-.69s.13-.46.2-.68l.1-.32a7.18,7.18,0,0,0,.32-1.17,4.87,4.87,0,0,0,0-1.18v-.13c0-.32,0-.66,0-.93Zm-45.28-16a30.9,30.9,0,0,0-7,3.17,39.89,39.89,0,0,0-6.91,5.45,33.82,33.82,0,0,0-3,3.36c-.64.82-1.28,1.68-1.9,2.52l-.74,1c-.93,1.27-1.71,2.36-2.38,3.36-.41.62-.78,1.19-1.12,1.73l0-.06.71-1.65c.1-.21.19-.42.28-.64a3.73,3.73,0,0,1,.47-1l.06-.09.85-1.33a1.71,1.71,0,0,0,.17-.39l.63-1.75h0l.51-.81.55-.85.06-.1a2.39,2.39,0,0,0,.13-.21l.61-1a9.93,9.93,0,0,0,.51-.9l.07-.15.68-1.64,1.31-1.86.08-.13,0,0,2.39-3.67,0-.06,1.23-1.47.46-.59.09-.12,1-1.34,0,0v0l0-.05.33-.3c.27-.25.54-.51.77-.7.46-.4.91-.82,1.35-1.24l.79-.73a3.82,3.82,0,0,1,.64-.46l.4-.27.83-.51.07,0a2.52,2.52,0,0,0,.33-.24l.34-.26c.22-.17.44-.35.69-.52l1.15-.8c.34-.24.67-.45,1.05-.68l.27-.17.05,0h.05l1.18-.56.65-.3.09,0h0l.06,0,1.8-.6.19-.07.15-.06.1,0,.3-.13c.24-.1.46-.2.74-.3l.64-.24h0l.16,0,.13,0,1.05-.18,1.42-.2c.22,0,.43,0,.6,0l1.82,0H273l.61,0,.93.08.71,0,.5,0,.74,0,.64,0a.11.11,0,0,1,.1.11c0,.07-.06.08-.07.08a1.93,1.93,0,0,0-.88.41,2,2,0,0,0-.2.18l-.09.07c-.16.14-.32.28-.49.45l-.38.37-.09.08-.15.15-.37.36c-.15.15-.31.3-.52.48a3.11,3.11,0,0,0-.51.48l-.29.31-.2.2c-.13.13-.27.27-.39.41a2,2,0,0,0-.36.64.31.31,0,0,0,0,.08,3.07,3.07,0,0,1-.31.66,4.41,4.41,0,0,1-.43.49,4,4,0,0,0-.49.56l-.43.6c-.12.16-.24.33-.35.51a2.32,2.32,0,0,0-.24.47c0,.09-.05.19-.09.33s-.05.14-.07.2a22.35,22.35,0,0,0-2.57,1.48,2,2,0,0,0-.7-.1A22.15,22.15,0,0,0,261.38,131.6Z" style="fill: #00a550"/>
    <path d="M214.29,295A6.71,6.71,0,1,0,221,288.3,6.71,6.71,0,0,0,214.29,295Z" style="fill: #fff"/>
    <path d="M233.3,286.74v0h0S233.3,286.73,233.3,286.74Zm-28.81,30.13c0,.39,0,.77,0,1.15a9.33,9.33,0,0,1,0,1.06,4.73,4.73,0,0,0,0,.62c.06.57.14,1.12.23,1.65s.19,1.11.31,1.64l.1.4c.09.41.19.81.31,1.2a4.14,4.14,0,0,0,.26.53,10.45,10.45,0,0,1,.47.95c.1.26.2.53.29.8a5,5,0,0,0,.28.74,5.19,5.19,0,0,0,.4.62q.26.38.48.75l.35.61a8.85,8.85,0,0,0,.47.8,6.6,6.6,0,0,0,.53.64c.19.2.36.4.53.61s.37.48.54.72.32.45.45.59.35.31.57.49.47.37.68.57a8.4,8.4,0,0,1,.8.88,2.81,2.81,0,0,0,.31.37,5.26,5.26,0,0,0,.55.33,9.09,9.09,0,0,1,.87.52l.29.21c.37.26.72.51,1.08.72a9.28,9.28,0,0,0,.88.46l.59.29a9.58,9.58,0,0,1,1,.58l.28.18a2.34,2.34,0,0,1,.84-.19,2.25,2.25,0,0,1,2.3,2.19v.05a2.1,2.1,0,0,1,0,1.22c0,.14,0,.29,0,.43,0,.33,0,.66,0,1s0,.53,0,.71c0,.34.12.67.19,1s.1.42.14.64.18.69.29,1,.11.36.16.54a11,11,0,0,0,.41,1.11l.15.37c.07.17.14.35.2.53a7.3,7.3,0,0,0,.39.91,9.14,9.14,0,0,0,.57.88l.29.4c.16.23.3.47.45.72a4.62,4.62,0,0,0,.39.59,4.55,4.55,0,0,0,.52.45c.23.19.46.37.67.57s.45.45.67.69a4,4,0,0,0,.45.46,4.39,4.39,0,0,0,.62.37c.26.15.53.29.79.46.45.29.92.56,1.42.84a9.09,9.09,0,0,1,.78.48c.22.13.44.28.67.4l1.29.57.28.11a2.27,2.27,0,0,1,1.19,3,2.19,2.19,0,0,1-.63.81c0,.38.06.76.07,1.1s0,.53,0,.74a12.85,12.85,0,0,0,1.15,3.69,8.82,8.82,0,0,0,4.85,4,2,2,0,0,1,1.34,2.16c0,.12,0,.25,0,.41a8.56,8.56,0,0,0,.16,1c0,.17.06.36.1.56v0l0,.17c0,.12.07.24.1.36.14.5.28,1,.44,1.59l0,.21,0,.09.15.34c.1.24.21.48.31.73l.42.87.1.23,0,0,.06.11.23.44.95,1.79c.32.51.64,1,1,1.53l.26.43.07.1,0,.05v0l.08.11c.16.24.33.46.48.69s.4.48.59.71l.29.35,0,0,0,0,.12.11.46.47a5.05,5.05,0,0,0,.59.46l.3.22.15.11,0,0h0l0,0,.22.14a1.85,1.85,0,0,1,.4-.24c.23-1.13-1-4.61-1.67-6.32-1-2.64-1.51-4.2-1.37-5.45.47-4.36.45-7-.2-9.29a1.92,1.92,0,0,1-.41.05,2.2,2.2,0,0,1-.44-.05,2,2,0,0,1-1.52-2.39l.22-.93c.79-3.28,2-8.25-1.94-13.15a2.5,2.5,0,0,1-.25-.41,1.65,1.65,0,0,1-.32-.76v-.07a1,1,0,0,1,0-.27c0-.17.05-.42.1-.73s.06-.33.09-.52,0-.2.05-.3v-.08a.64.64,0,0,0,0,.07v-.17c0-.17,0-.36,0-.55v-.78c0-.52,0-1.09,0-1.69v-.36h0v0h0c0-.15,0-.29,0-.44,0-.31,0-.64,0-1V342h0v0l0-.05-.1-.37c-.09-.31-.18-.62-.26-.94l-.08-.3-.06-.23-.1-.47c-.09-.32-.2-.69-.3-1-.09-.06-.65-1.44-.71-1.49-.17-.31-.33-.63-.49-.94l-.23-.43h0l-.16-.21-.6-.8-.24-.32,0,0-.15-.18-.6-.69-.28-.33-.07-.08,0,0-1.08-1-.09-.09-.2-.14-.43-.3-.3-.22a2.22,2.22,0,0,1-.45.06,2.25,2.25,0,0,1-2.06-3.15,2.63,2.63,0,0,0,.06-.34,8.74,8.74,0,0,1,.22-1,11.85,11.85,0,0,0,.33-1.31c.09-.42.19-.9.24-1.35a7.87,7.87,0,0,0,0-1l0-.9a6.61,6.61,0,0,0,0-.89c0-.21,0-.43,0-.64a6.3,6.3,0,0,0,0-.75c0-.29-.06-.58-.08-.87a5,5,0,0,0,0-.54c0-.07-.1-.17-.15-.28a5.77,5.77,0,0,1-.45-1c-.08-.22-.14-.45-.2-.68a5.6,5.6,0,0,0-.21-.66c-.2-.48-.38-.89-.58-1.26a3.11,3.11,0,0,0-.31-.42c-.18-.23-.36-.47-.52-.71a4.91,4.91,0,0,1-.52-1.13c0-.08-.05-.15-.08-.22s-.22-.21-.35-.33-.43-.39-.63-.6-.44-.46-.63-.65l-.33.11-.24.08-.11.05-.06,0-.26.1h0l-.43.09-.72.14c-.19,0-.35.08-.46.09H226a1.69,1.69,0,0,1-1.48-1.88,1.68,1.68,0,0,1,.52-1,.79.79,0,0,1,.14-.1l.42-.2.66-.3.21-.1h0l0,0,.1-.07.21-.13.93-.61h0l0,0,.23-.21c.16-.13.31-.27.47-.42l.34-.28h0l0,0h0l.07-.06-.06,0,.06-.06.23-.24c.15-.17.3-.33.47-.49l.24-.24.12-.12.71-.91.21-.27,0-.06,0,0h0l.32-.5a4.27,4.27,0,0,1,.22-.38l.11-.18v0l0,.1,0,0,0-.07v0l.05-.11.21-.53.15-.41a2.77,2.77,0,0,1,.12-.33c.06-.15.1-.3.15-.43s.16-.45.22-.62a1.89,1.89,0,0,1,.06-.18,6.63,6.63,0,0,1-.11-1.11c0-.38,0-.59,0-.59v0a1.44,1.44,0,0,1,2.84-.18s0,.2.09.57l.06.42a1.58,1.58,0,0,1,.3.72s0,.17,0,.47a2.79,2.79,0,0,0,.27.57l.11.2,0,.09h0l.44.56a2.55,2.55,0,0,0,.43.4l.15.15h0l0,0,.08.06.16.13a4.49,4.49,0,0,0,1.09.67,7.31,7.31,0,0,0,.82.31l.64.15c.31.06.68.14.95.17h.54c.32-.06.75-.09,1-.16l.35-.11.15,0h0l.13-.06.25-.1.09-.07.33-.2.48-.31.38-.28c.15-.11.33-.22.46-.33l.28-.27.81-.75a2.7,2.7,0,0,0,.5-.52l0-.09.13-.27a4.86,4.86,0,0,0,.24-.53l.18-.49.08-.24.12-.27L248,298l.14-.42.07-.21,0-.15.1-.6.19-1.1c.07-.39.16-.85.17-1.07l0-.21,0-.1v0l-.05-.57-.08-1.06,0-.15-.06-.3-.12-.59-.11-.58h0l0-.05-.09-.28c-.07-.18-.13-.41-.19-.53l-.17-.37,0-.1,0,0-.12-.21-.29-.5-.44-.57-.38-.42a1.2,1.2,0,0,0-.18-.2l-.13-.1-.24-.21,0,0-.06,0-.23-.15c-.14-.09-.32-.22-.44-.28l-.3-.13-.15-.07h0l0,0-.51-.15c-.64-.15-.87-.16-1.65-.28-.25,0-.35,0-.51,0h0l-.22.05-.45.1-.61.23-.78.26c-.2.08-.26.13-.4.17l0,0-.05,0-.29.23a2.37,2.37,0,0,0-.45.41l-.18.17,0,0v0l-.08.08-.43.45a3,3,0,0,0-.23.31c-.06.07-.11.14-.17.2l-.23.38-.2.33c0,.06,0,.12-.07.17l-.16.31-.25.43a1.93,1.93,0,0,1-3.43-1.76l.32-.71v0h0v0l0-.07c0-.13-.05-.27-.08-.42s-.05-.3-.08-.46l-.05-.24v0l0-.06q-.1-.47-.21-1h0l0-.06-.1-.27a5.19,5.19,0,0,0-.2-.5l-.1-.22v0h0l0,0v-.05s0,0,0,0l-.24-.54-.19-.47-.07-.11-.14-.26c-.1-.16-.2-.33-.29-.5l-.08-.14v0l-.08-.11-.59-.89-.47-.6,0,0a2.24,2.24,0,0,1-2.06-4,8.94,8.94,0,0,1,.93-.43,3.85,3.85,0,0,0,.64-.31c.45-.31.94-.71,1.4-1.09a6.19,6.19,0,0,0,.45-.49,9.56,9.56,0,0,1,.74-.83l.49-.46a9.48,9.48,0,0,0,.78-.76,7.82,7.82,0,0,1,.55-.6,6.32,6.32,0,0,0,.63-.71,7.35,7.35,0,0,0,.52-.84c.13-.22.25-.44.39-.66s.24-.39.37-.58.41-.63.55-.91c.28-.57.51-1.09.7-1.59a10.71,10.71,0,0,0,.34-1.15L238,265a8.52,8.52,0,0,0,.18-1c0-.24.07-.49.11-.73.08-.45.11-.95.16-1.48v-.24c0-.32.08-.65.14-1a4,4,0,0,0,.09-.75c0-.33,0-.71-.09-1.12,0-.21-.05-.42-.07-.63s-.1-.57-.17-.91-.12-.54-.17-.82-.09-.56-.12-.85-.09-.65-.15-.91l-.13-.49c-.1-.41-.2-.83-.33-1.25a7,7,0,0,0-.31-.65c-.16-.32-.33-.65-.46-1a6,6,0,0,1-.23-.72,2.1,2.1,0,0,1-.73.14,2.25,2.25,0,0,1-1.28-4.1l.61-.4c.19-.12.38-.24.56-.37s.38-.3.56-.45l.52-.43c.3-.23.58-.47.86-.71l.16-.13.12-.17a4.67,4.67,0,0,1,.79-1,8,8,0,0,1,.73-.57,3.24,3.24,0,0,0,.35-.27c.2-.2.39-.41.58-.62l.34-.38a2.66,2.66,0,0,0,.28-.38,8.58,8.58,0,0,1,.52-.71,5.51,5.51,0,0,1,.9-.81,1.56,1.56,0,0,0,.2-.16c.09-.12.25-.32.42-.51s.22-.25.32-.39,0-.11.05-.17a4.9,4.9,0,0,1,.48-1.17l.21-.35c.16-.26.32-.52.47-.8a4.64,4.64,0,0,1,.76-1,4.05,4.05,0,0,1,.24-1.44,4.48,4.48,0,0,1,.73-1.18l.07-.09c0-.14.06-.28.09-.42s.1-.51.17-.77.13-.43.2-.65a4.81,4.81,0,0,0,.18-.65,4.08,4.08,0,0,0,.09-.61c0-.24,0-.49.09-.73s.13-.58.2-.87a2.49,2.49,0,0,0,.12-.47,5.62,5.62,0,0,0,0-.58c0-.26,0-.53,0-.79s0-.46,0-.7,0-.45,0-.67a4.22,4.22,0,0,0,0-.49,8.69,8.69,0,0,1-.05-.89c0-.21,0-.42-.06-.62s-.06-.47-.07-.71a6.23,6.23,0,0,1,0-1,2.36,2.36,0,0,0,0-.37,8.29,8.29,0,0,1-.06-.87c0-.14,0-.28,0-.41l-.1-.18a5.42,5.42,0,0,1-.47-1.15,6.18,6.18,0,0,1-.15-1.13,1.37,1.37,0,0,0,0-.29l-.14-.23a6,6,0,0,1-.46-.95,6.8,6.8,0,0,1-.26-.91c0-.15-.08-.34-.11-.41s-.11-.15-.17-.24a5.92,5.92,0,0,1-.58-.92c-.12-.25-.23-.52-.33-.79a2.77,2.77,0,0,0-.52-.94,7.66,7.66,0,0,1-.45-.66,5.8,5.8,0,0,1-.47-.93,1.83,1.83,0,0,0-.14-.32,7.83,7.83,0,0,1-.45-.75c-.07-.12-.13-.24-.21-.36l-.15-.1a4.94,4.94,0,0,1-1-.85c-.18-.21-.37-.4-.56-.59l-.37-.39a4.57,4.57,0,0,1-.76-1.14l-.06-.12-.23-.15a6.88,6.88,0,0,1-.81-.57l-.56-.52a4.18,4.18,0,0,0-.44-.4c-.36-.27-.73-.53-1.1-.78a2.22,2.22,0,0,0-.31-.13,7,7,0,0,1-.92-.42c-.22-.13-.47-.24-.73-.36l-.5-.24a5.34,5.34,0,0,1-1-.67c-.08-.06-.15-.13-.23-.18l-.2-.08-1.09-.45-.25,0a5.51,5.51,0,0,1-1.16-.22.65.65,0,0,1,0,.13c-.09.32-.19.63-.24.9a2.19,2.19,0,0,1-.43,1,.13.13,0,0,0,0,.06,4.66,4.66,0,0,1-2.77,3.33,6.24,6.24,0,0,1-2.65.6,4.49,4.49,0,0,1-2.21-.53c-2.23-1.27-2.72-4.58-2.11-6.38a.53.53,0,0,1,0-.12,3.31,3.31,0,0,0-.5.09c-.3.06-.61.13-.94.17a6.61,6.61,0,0,1-1,.06c-.22,0-.44,0-.57,0s-.43.12-.65.19a8,8,0,0,1-.87.26c-.5.13-1,.28-1.52.44s-1,.32-1.48.51a8.62,8.62,0,0,1-1,.29,3.47,3.47,0,0,0-.52.15,4.42,4.42,0,0,0-.57.34c-.25.16-.49.31-.75.45-.49.27-1,.54-1.46.84l-.7.42a7.43,7.43,0,0,0-.73.44,3,3,0,0,0-.45.44c-.25.25-.49.5-.76.73-.43.35-.83.73-1.23,1.11a7.79,7.79,0,0,1-.86.71,4.46,4.46,0,0,0-.44.35,4.58,4.58,0,0,0-.38.55c-.18.28-.37.57-.57.83s-.38.46-.58.68a6.86,6.86,0,0,0-.5.6,5.07,5.07,0,0,0-.21.48,7.85,7.85,0,0,1-.49,1.05l-.2.34c-.21.36-.43.73-.62,1.12s-.31.57-.48.85a5.33,5.33,0,0,0-.35.62,5.88,5.88,0,0,0-.23.71c-.08.31-.17.62-.27.92s-.19.49-.29.74-.23.56-.32.85-.16.66-.24,1l-.15.66a9.32,9.32,0,0,0-.17.92c0,.25-.09.51-.14.77a9.34,9.34,0,0,1-.27,1c0,.05,0,.1-.05.15a2.1,2.1,0,0,1,0,.71c0,.28-.11.56-.17.85a5.11,5.11,0,0,0-.13.7c0,.57,0,1.1,0,1.61,0,.2,0,.39,0,.59s0,.7,0,1c0,.54.1,1.1.18,1.65a8.39,8.39,0,0,0,.18.84c.07.26.13.52.18.79s.15.57.23.85.15.5.21.75.14.67.2,1a3.67,3.67,0,0,0,.12.64,5.68,5.68,0,0,0,.27.64,9,9,0,0,1,.39.9c.1.26.18.53.27.8a7,7,0,0,0,.27.77,6.06,6.06,0,0,0,.36.66c.15.26.31.53.44.8s.36.65.55,1l.27.47a10.22,10.22,0,0,1,.46.94,4.65,4.65,0,0,0,.26.54c.3.45.61.91.94,1.34.07.08.25.23.4.37a8.61,8.61,0,0,1,.78.74,2.24,2.24,0,0,1-2.35,3.64c-.08.14-.16.28-.25.41s-.33.48-.51.7a7.14,7.14,0,0,0-.47.69l-.11.17c-.25.44-.49.87-.7,1.32-.14.29-.31.58-.47.86a7.16,7.16,0,0,0-.34.63c-.14.4-.25.81-.37,1.21l-.11.42a4.21,4.21,0,0,0-.12.75c0,.31-.08.63-.14.93a9.26,9.26,0,0,1-.32,1.1,2.75,2.75,0,0,0-.17.56c0,.34-.12.69-.2,1.05a4.8,4.8,0,0,0-.12.53c0,.07,0,.13.07.2a4.49,4.49,0,0,1,.38,1.69c0,.58,0,1.12.06,1.66a5.75,5.75,0,0,1-.13,1.43,2.15,2.15,0,0,0-.05.34c0,.16.1.45.18.76s.14.5.19.75a3,3,0,0,0,.2.43,7.57,7.57,0,0,1,.44,1.07,5.42,5.42,0,0,1,.19,1.47,1.62,1.62,0,0,0,0,.22l.16.17a5.72,5.72,0,0,1,.79,1.14c.12.24.23.49.34.74a5.78,5.78,0,0,0,.35.74l.28.48c.18.32.36.64.57.94l.22.33c.24.35.48.71.74,1.05s.38.53.55.8a6.91,6.91,0,0,0,.44.62,2.9,2.9,0,0,0,.43.41,10.51,10.51,0,0,1,.83.82,2.2,2.2,0,0,1-1.66,3.64,2.24,2.24,0,0,1-.8-.16l-.21.34c-.15.24-.29.47-.42.7a2.9,2.9,0,0,0-.21.53,8.69,8.69,0,0,1-.41,1q-.18.35-.36.66c-.14.26-.28.51-.39.77s-.23.64-.34,1l-.15.46c-.09.28-.15.61-.23,1l-.1.5c-.06.31-.1.67-.14,1.08l0,.42a6.47,6.47,0,0,1-.26,1.14c0,.14-.1.34-.11.41s0,.39,0,.59,0,.67,0,1,0,.7.09,1.07l.06.58c0,.2,0,.4.05.59s0,.63.08.94l.13.21a5,5,0,0,1,.63,1.38,9,9,0,0,1,.18,1,2.59,2.59,0,0,0,.09.54,9.39,9.39,0,0,1,.26,1.1,3.54,3.54,0,0,0,.11.48,2.84,2.84,0,0,0,.31.47,10.34,10.34,0,0,1,.57.89,9,9,0,0,1,.44,1,3.77,3.77,0,0,0,.21.5s.19.18.3.28a7.89,7.89,0,0,1,.85.87,10.28,10.28,0,0,1,.58.88,4.2,4.2,0,0,0,.32.49c.06.06.26.2.41.31a7.61,7.61,0,0,1,.88.71,6.06,6.06,0,0,1,.75.87,4.05,4.05,0,0,0,.33.39,4.11,4.11,0,0,0,.42.24,7,7,0,0,1,1,.61c.44.33.9.64,1.37.95a2.2,2.2,0,1,1-2.43,3.66l-.25-.17a3.31,3.31,0,0,1-.13.41,4.47,4.47,0,0,0-.13.46c0,.3,0,.6-.05.9s0,.53,0,.79a6.19,6.19,0,0,0,0,.75c0,.32,0,.63,0,.94Zm65.39-204.55a4.15,4.15,0,0,1-1.46-.12l-.09,0-.4.1-.79.2a5.15,5.15,0,0,1-1.12.08h-.18l-.08.06a4.41,4.41,0,0,1-1.25.6,8.6,8.6,0,0,1-.88.19,2.49,2.49,0,0,0-.46.09,4.17,4.17,0,0,0-.44.19,7.38,7.38,0,0,1-.81.36c-.36.13-.72.28-1.07.42l-.18.08a4.23,4.23,0,0,1-1.23.27,3.67,3.67,0,0,1-1.08.91,7,7,0,0,1-.83.37,2.11,2.11,0,0,0-.38.17,4.5,4.5,0,0,1-1.2.46,3.76,3.76,0,0,1-1,1.08,3.88,3.88,0,0,1-1.47.58h0l-.19.18a6.37,6.37,0,0,1-.67.61l-.37.3c-.23.18-.47.36-.69.55s-.37.33-.55.5l-.46.43c-.17.15-.33.32-.5.48s-.31.32-.48.47l-.44.46c-.16.18-.33.36-.5.53a7.18,7.18,0,0,1-.77.64l-.24.18a1.09,1.09,0,0,0-.08.15,4.64,4.64,0,0,1-.7,1.09,5.91,5.91,0,0,1-.79.71l-.17.14,0,.1a4.18,4.18,0,0,1-.64,1.2l-.48.56a5.58,5.58,0,0,0-.39.46,5.39,5.39,0,0,0-.33.5c-.13.21-.25.42-.39.62a4.81,4.81,0,0,1-.87.91l-.13.11-.7,1.13s0,.08,0,.16a4.76,4.76,0,0,1-.47,1.21,3.31,3.31,0,0,1-1.07,1.1,3.62,3.62,0,0,1-.38,1.34,6.16,6.16,0,0,1-.64.93,2.43,2.43,0,0,0-.2.25,6.14,6.14,0,0,1-.52.84,2.85,2.85,0,0,0-.23.37c-.13.25-.27.49-.4.73s-.21.35-.29.53a4.81,4.81,0,0,0-.2.53c-.1.27-.2.54-.32.81s-.17.4-.25.61-.18.48-.29.72-.17.43-.25.64l-.27.69a1.64,1.64,0,0,0,0,.27,6.41,6.41,0,0,1-.3,1.13,5.66,5.66,0,0,1-.52,1c-.06.1-.13.2-.18.3a7.77,7.77,0,0,1-.41.88,2.35,2.35,0,0,0-.21.42c-.08.2-.14.39-.2.59a7.08,7.08,0,0,1-.25.78c-.09.26-.2.52-.31.78s-.13.29-.19.44v.13a3.69,3.69,0,0,1-.88,2.7l-.1.13c-.06.21-.13.43-.2.65l-.19.63a2,2,0,0,0,0,.28,5.63,5.63,0,0,1-.21,1.16l-.42,1.39a6.29,6.29,0,0,1-.38.94,2.83,2.83,0,0,0-.17.4c-.05.18-.09.37-.13.55s-.12.58-.2.87a2.47,2.47,0,0,1-.1.29,6.45,6.45,0,0,1-.31.72,2.4,2.4,0,0,0-.11.23.34.34,0,0,0,0,.1,4.32,4.32,0,0,1-.09,1.51c-.08.26-.14.53-.21.8l-.15.59a3.46,3.46,0,0,1-.73,1.35,3.85,3.85,0,0,1,0,1.42,4.85,4.85,0,0,1-.43,1.11c0,.09-.09.18-.12.27s0,.31-.07.49-.08.62-.14.92-.11.46-.16.68-.12.49-.17.73a5.42,5.42,0,0,1-.39,1.11,2.52,2.52,0,0,0-.12.29c0,.06,0,.16,0,.26a5.81,5.81,0,0,1-.08,1.18,7.73,7.73,0,0,1-.32,1,2.6,2.6,0,0,0-.13.36c0,.11,0,.22,0,.34a5.87,5.87,0,0,1-.08,1.12c-.06.31-.15.62-.24.93a4.27,4.27,0,0,0-.13.48,3,3,0,0,0,0,.3,5.38,5.38,0,0,1-.06,1.16,7.67,7.67,0,0,1-.22.92,3.92,3.92,0,0,0-.13.49,5.8,5.8,0,0,1-.35,1.16c0,.09-.08.18-.11.27s0,.17,0,.28a5.23,5.23,0,0,1,0,1.16,5.29,5.29,0,0,0-.05.56,8.94,8.94,0,0,1-.09.89,4.43,4.43,0,0,1-.46,1.32.3.3,0,0,1,0,.08s0,.05,0,.07a4.71,4.71,0,0,1,.06,1.41c-.05.31-.12.61-.19.91a5,5,0,0,0-.11.53l-.19,1.39c-.05.35-.11.64-.17.93a5.54,5.54,0,0,0-.11.56,2.08,2.08,0,0,0,0,.35,7.19,7.19,0,0,1,0,1.12l-.18,1.45c0,.27-.08.55-.13.82s-.07.41-.1.62l-.16,1.45a2,2,0,0,1-.29.84,2.11,2.11,0,0,1-.13.82,2.51,2.51,0,0,0,.32,1.62,2.41,2.41,0,0,0,1.35-.29.74.74,0,0,0,.37-.36,2.13,2.13,0,0,1,.13-.43,2.08,2.08,0,0,1,0-.61,11.11,11.11,0,0,1,.36-1.41,8.48,8.48,0,0,0,.22-.83c.09-.48.18-.95.28-1.42l.16-.84c.07-.34.11-.68.16-1s.12-.86.2-1.28a12.25,12.25,0,0,1,.41-1.42,6.14,6.14,0,0,0,.25-.8,6.42,6.42,0,0,0,0-.72,7.29,7.29,0,0,1,.13-1.61,6.62,6.62,0,0,1,.68-1.65,3.84,3.84,0,0,0,.25-.52l.12-.48c.15-.61.29-1.2.44-1.77a4.14,4.14,0,0,0,.09-.74,7.16,7.16,0,0,1,.23-1.59,13,13,0,0,1,.52-1.4c.11-.27.22-.53.3-.79s.18-.6.26-.9c.14-.46.27-.91.42-1.35a14.63,14.63,0,0,1,.58-1.39c.12-.26.24-.52.34-.78.3-.76.59-1.48.89-2.18a8.15,8.15,0,0,0,.29-.83,10.7,10.7,0,0,1,.52-1.4c.34-.72.68-1.43,1-2.12a8.17,8.17,0,0,1,.91-1.34,5.89,5.89,0,0,0,.44-.59,5.2,5.2,0,0,0,.26-.68,7.46,7.46,0,0,1,.63-1.5c.21-.37.44-.73.68-1.1l.54-.86c.17-.29.34-.6.51-.9s.4-.73.62-1.09.57-.86.83-1.22.32-.43.47-.66a12.47,12.47,0,0,1,.91-1.18c.17-.2.35-.39.5-.6s.28-.45.41-.68a10.32,10.32,0,0,1,.8-1.25l.34-.44c.36-.46.71-.91,1.08-1.34l.45-.54c.34-.41.68-.81,1-1.19.19-.2.37-.41.54-.61.33-.37.66-.74,1-1.08s.77-.7,1.15-1l.55-.47c.41-.37.83-.67,1.19-.94s.42-.3.62-.46a11,11,0,0,1,1.28-.88,7.32,7.32,0,0,0,.62-.39,5.38,5.38,0,0,0,.45-.47,6.18,6.18,0,0,1,1.22-1.14,6,6,0,0,1,1.82-.74,4,4,0,0,0,.41-.12c.23-.14.46-.31.68-.47a6.72,6.72,0,0,1,1.3-.81,8.52,8.52,0,0,1,2.77-.74,5.6,5.6,0,0,1,2.88.62l.17.07a5,5,0,0,1,2.56,2.26,5.74,5.74,0,0,1,.58,3.13c0,.13,0,.26,0,.39a6.21,6.21,0,0,1-.35,2.38,8.17,8.17,0,0,1-.85,1.55,2.13,2.13,0,0,1-.66,1.25c-.18.16-.38.32-.6.49s-.32.24-.48.39l-.52.46c-.16.14-.34.28-.5.45a6.94,6.94,0,0,1-.71.59,2.3,2.3,0,0,0-.34.28c-.17.18-.36.35-.55.53l-.32.3,0,.09a4.2,4.2,0,0,1-.68,1.27c-.2.23-.42.45-.65.67a1.65,1.65,0,0,0-.29.3l-.26.33-.49.65a1.55,1.55,0,0,0-.07.23c-.07.23-.15.48-.24.71,0,.05,0,.15,0,.25s-.06.46-.1.69a4.69,4.69,0,0,1-.38,1c0,.14.11.31.14.39l.1.27a5.89,5.89,0,0,1,.59.16l.5.18a2.6,2.6,0,0,0,.47.16,2,2,0,0,0,.5,0l.5-.05.43-.06a2.67,2.67,0,0,1,.47-.4c.28-.19.58-.35.87-.51.13-.07.27-.13.39-.21a5.7,5.7,0,0,1,1-.51,2.21,2.21,0,0,0,.27-.12c.29-.17.57-.31.85-.45l.41-.21a6.23,6.23,0,0,1,.63-.32,3.29,3.29,0,0,1,.65-.91,4,4,0,0,1,1.35-.83h0l.19-.27a6.28,6.28,0,0,1,.48-.64c.29-.36.57-.68.8-1a9,9,0,0,0,.57-.94l.07-.12a7.69,7.69,0,0,0,.42-.94l.06-.14a6.42,6.42,0,0,0,.24-.82l.07-.28a2.15,2.15,0,1,1,4.17,1l-.06.25a10.34,10.34,0,0,1-.44,1.43l-.05.14a11.87,11.87,0,0,1-.67,1.43l-.06.12a15.08,15.08,0,0,1-.82,1.32c-.29.41-.64.83-1,1.25a4.22,4.22,0,0,0-.27.36,7.66,7.66,0,0,1-.71.91,3.6,3.6,0,0,1-1.27.84,2.17,2.17,0,0,1-.6.95,2.6,2.6,0,0,1-.32.35,4.17,4.17,0,0,1-1.24.75l-.24.11a5.65,5.65,0,0,1-1,.63l-.29.15a.86.86,0,0,0-.07.1,4.09,4.09,0,0,1-1.36,1.14,3.7,3.7,0,0,1-1.21.32,3.39,3.39,0,0,1-.34.28,7.66,7.66,0,0,1-.85.5,2.29,2.29,0,0,0-.31.16l-.43.32-.63.48-.14.19a5.6,5.6,0,0,1-.74.81,1.65,1.65,0,0,1-.11.2c-.15.22-.3.46-.49.69a3.78,3.78,0,0,1-1,.88l0,0a4.65,4.65,0,0,0-.17.49l-.13.39c-.09.23-.19.47-.31.71.12.2.22.39.31.58s.16.36.19.41a.62.62,0,0,1,.24.06l.5.2a3.45,3.45,0,0,0,.78.24,3.58,3.58,0,0,1,.8.26,3.33,3.33,0,0,1,1-.35,6.48,6.48,0,0,1,.77-.07c.1,0,.2,0,.3,0a3.56,3.56,0,0,1,1-.13,3,3,0,0,1,2.22-1.13l.15-.16a4.49,4.49,0,0,1,.88-.84l.85-.55.36-.23a4.21,4.21,0,0,1,1.28-.54c.13-.11.26-.21.38-.33l.38-.34a5.66,5.66,0,0,0,.49-.49l.39-.41a5.43,5.43,0,0,1,.73-.62l.17-.13,0-.09a4.54,4.54,0,0,1,.56-1.14,5.9,5.9,0,0,1,.67-.75l.2-.21a2.13,2.13,0,0,1,3-.7,2.17,2.17,0,0,1,.7,3,5.3,5.3,0,0,1-.82,1l-.16.16c0,.05,0,.09-.05.13a4,4,0,0,1-.73,1.36,5.65,5.65,0,0,1-.92.84,1.93,1.93,0,0,0-.28.22l-.29.31c-.25.27-.52.55-.81.81l-.31.27c-.08.08-.18.15-.27.23a2.11,2.11,0,0,1-.64.62,2.49,2.49,0,0,1-.28.15c-.29.23-.59.46-.9.68s-.64.41-1,.62l-.31.19a1.72,1.72,0,0,0-.31.24,6.58,6.58,0,0,1-.92.63l-.13.07a4.66,4.66,0,0,1-.51.45,5.08,5.08,0,0,1-1.08.6l-.18.07c-.22.17-.46.33-.7.48a2.37,2.37,0,0,0-.33.22c-.25.22-.5.46-.74.7l-.11.1-.06.13a4.31,4.31,0,0,1-.7,1.08,4.51,4.51,0,0,1-1,.78.41.41,0,0,0-.11.07c-.15.2-.29.44-.44.69l0,.06,0,.15a4.17,4.17,0,0,1-.21.94,4.05,4.05,0,0,1-.38.78l0,0c.2.13.4.28.6.44l.2.17a3.68,3.68,0,0,0,.49.38l.21.1a4.19,4.19,0,0,0,.72.33l.64.22a1.63,1.63,0,0,0,.37.13l.31,0,.5.05h0a4.2,4.2,0,0,1,1.2-.57c.24-.06.49-.11.74-.15a2.41,2.41,0,0,0,.37-.07,10.7,10.7,0,0,0,1.06-.5l.18-.18a5.23,5.23,0,0,1,.75-.64,2.08,2.08,0,0,0,.2-.21l0,0a3.11,3.11,0,0,1,.51-.77,5.43,5.43,0,0,1,.95-.8,1.25,1.25,0,0,0,.22-.16s.06-.12.11-.2a4.73,4.73,0,0,1,.69-1,2.08,2.08,0,0,1,1.45-.66,3,3,0,0,1,.38-.65,6.69,6.69,0,0,1,.61-.68,2.43,2.43,0,0,0,.26-.3c.06-.09.14-.26.22-.42s.24-.5.37-.73c.24-.39.41-.75.56-1.05a2.15,2.15,0,0,1,3.88,1.86,15.25,15.25,0,0,1-.76,1.41l-.15.31a6.08,6.08,0,0,1-.58,1.06,5.85,5.85,0,0,1-.71.84l-.21.22,0,.1a4,4,0,0,1-.74,1.42,4.91,4.91,0,0,1-1,.84c-.07.06-.16.11-.22.17s-.18.21-.28.32a7.39,7.39,0,0,1-.74.82,3.38,3.38,0,0,1-1.27.73,2.78,2.78,0,0,1-.48.73,4.57,4.57,0,0,1-1,.84l-.15.09-.41.54c-.12.16-.23.32-.36.48a6,6,0,0,1-.73.76l-.09.09a3.92,3.92,0,0,1-.51,1.46l-.2.31c-.16.26-.32.5-.46.76a6.73,6.73,0,0,1-.44.73,2,2,0,0,0-.2.31,7.09,7.09,0,0,1-.32.69c0,.08-.09.16-.12.24a.77.77,0,0,1,0,.15,6.17,6.17,0,0,1,.1.87c0,.21,0,.42,0,.63a4.71,4.71,0,0,1,.51.5,3.81,3.81,0,0,1,.5.77,4.42,4.42,0,0,1,.92.28,4.55,4.55,0,0,1,1,.62l.07.05a4.64,4.64,0,0,0,.73.11l.25-.07a7.44,7.44,0,0,1,.74-.2l.26-.14c.19-.09.37-.19.56-.27a6.56,6.56,0,0,1,.88-.28l.18,0,.43-.27a2.79,2.79,0,0,0,.4-.26,8.4,8.4,0,0,0,.69-.75l0-.13a5.24,5.24,0,0,1,.52-1.1,5,5,0,0,1,.79-.87l.13-.12c.1-.2.19-.41.29-.62l.16-.35,0-.19a4.43,4.43,0,0,1,.27-1.15,2.81,2.81,0,0,1,.27-.52v-.14a5.93,5.93,0,0,1,.09-1.11,2.71,2.71,0,0,0,0-.29,4.94,4.94,0,0,1,.11-1.19c.09-.39.19-.76.28-1.1l.09-.33a4.64,4.64,0,0,1,.66-1.36.86.86,0,0,1,.07-.1,2.15,2.15,0,0,1,4.07,1.36,1.67,1.67,0,0,1-.08.2s0,.05,0,.08a6,6,0,0,1-.19,1.23c0,.14-.06.29-.09.46,0,0,0,.06,0,.13a4.91,4.91,0,0,1-.12,1.44c0,.13-.06.26-.08.4a7.9,7.9,0,0,1-.27,1.1,3.3,3.3,0,0,1-.62,1.11s0,0,0,.06a2.25,2.25,0,0,0-.08.24c0,.19-.06.46-.11.73a2.13,2.13,0,0,0-.07.44,10.2,10.2,0,0,0,0,1.11.77.77,0,0,0,.07.16,4.85,4.85,0,0,1,.35,1.06,5.16,5.16,0,0,1,.08,1,.85.85,0,0,0,0,.16,6.61,6.61,0,0,0,.34.64l.14.1a7,7,0,0,1,.66.53,4.47,4.47,0,0,1,.65.8l0,0,.42.12.22.07h.2a5.43,5.43,0,0,1,1,0l.44.05a3.07,3.07,0,0,0,.6.06,6.05,6.05,0,0,0,.93-.09l.41-.12.44-.13a5.69,5.69,0,0,0,.51-.36v0a5,5,0,0,1,.36-1.07c.09-.18.19-.35.29-.53a2.64,2.64,0,0,0,.21-.39,9.47,9.47,0,0,0,.26-1.11c0-.08,0-.19,0-.3,0-.3,0-.61,0-.92a2,2,0,0,0-.05-.33,6.52,6.52,0,0,1-.1-.9,4.23,4.23,0,0,1,.2-1.35l0-.09-.09-.4q-.09-.36-.15-.72a5.93,5.93,0,0,1-.07-1.05v-.2l-.05-.08a4.55,4.55,0,0,1-.58-1.21,7.65,7.65,0,0,1-.18-.83,3.78,3.78,0,0,0-.1-.46,3.36,3.36,0,0,0-.2-.43,6.91,6.91,0,0,1-.36-.78,2.16,2.16,0,0,1-.1-1.2s0,0,0-.07c-.1-.3-.22-.59-.34-.87s-.35-.83-.5-1.3-.26-.94-.37-1.4c-.07-.29-.13-.57-.21-.85s-.2-.58-.3-.87a13.34,13.34,0,0,1-.45-1.35c-.14-.57-.26-1.13-.38-1.68l-.29-1.3c-.12-.54-.24-1.07-.34-1.59s-.14-1-.18-1.51c0-.28,0-.56-.08-.83-.12-.8-.22-1.57-.3-2.33,0-.3-.09-.6-.14-.89-.08-.45-.16-.92-.2-1.43a8.84,8.84,0,0,1,.05-1.58,5.44,5.44,0,0,0,0-.76,7.89,7.89,0,0,0-.1-.85,10.27,10.27,0,0,1-.15-1.45c0-.23,0-.51,0-.81s0-.75,0-1.16,0-.73,0-1.1,0-.62,0-.91,0-.4,0-.55l-.48-.35-.06,0-.12,0a3.64,3.64,0,0,1-1.75-.75,4.18,4.18,0,0,1-1.09-1.65,1.19,1.19,0,0,0-.08-.2l-.13-.18a4.16,4.16,0,0,1-.84-1.63,5.54,5.54,0,0,1-.08-1.53c0-.11,0-.24,0-.35A6.07,6.07,0,0,1,281,150c0-.12.06-.24.08-.37a12.84,12.84,0,0,1,.26-1.37v0a.19.19,0,0,1,0-.08l0-.21-.6.1a4.84,4.84,0,0,1-.74,0,7.8,7.8,0,0,1-.89,0h-.42a4.65,4.65,0,0,1-1.58-.13l-.16,0a7.11,7.11,0,0,1-1.77-.69,3.93,3.93,0,0,1-1.45-1.67l-.09-.17-.14-.2a4.07,4.07,0,0,1-.93-2,7.47,7.47,0,0,1,0-2.14,4.38,4.38,0,0,1,.54-1.46,1.69,1.69,0,0,0,.13-.27s0-.13,0-.21.05-.41.1-.66l-.2,0c-.2,0-.44,0-.7,0a4.67,4.67,0,0,1-.95-.09,6.08,6.08,0,0,1-1.45-.57l-.26-.14-.26-.1a3.71,3.71,0,0,1-1.79-1.2,4.37,4.37,0,0,1-.76-1.94l-.06-.25a8.78,8.78,0,0,1-.24-1.53,20,20,0,0,0-4.73.85,28.4,28.4,0,0,0-6.5,3,37.52,37.52,0,0,0-6.56,5.17A33.75,33.75,0,0,0,246,144.8c-.88,1.14-1.77,2.35-2.61,3.47s-1.61,2.22-2.32,3.27-1.35,2.06-1.91,3-1.07,1.83-1.49,2.63-.81,1.49-1.1,2.08c-.58,1.17-1,1.81-1,1.81l0,0a1.54,1.54,0,0,1-2.75-1.33s.26-.73.84-1.94c.27-.61.63-1.35,1.06-2.19.07-.15.16-.31.23-.47s.11-.3.16-.47l.12-.32c0-.09.07-.19.11-.28.14-.38.31-.81.48-1.27.05-.11.09-.23.14-.35l.17-.41q.17-.36.33-.75l.74-1.71a9.9,9.9,0,0,1,.92-1.91l.62-1,.15-.23.06-.1.16-.47.37-1,.1-.28,0-.14c.05-.11.08-.15.08-.16h0v0l0,0,0-.07.36-.57c.23-.36.45-.71.69-1.07l.08-.13,0,0h0l.16-.27.32-.54c.21-.36.45-.72.64-1.1l.44-1.08.26-.61,0-.07v0a1.52,1.52,0,0,1,.09-.17l0,0,.11-.16.21-.32.44-.63.4-.54.2-.28v0l0-.06.09-.14.37-.58.79-1.23.77-1.15.38-.58.05-.08,0,0,.09-.12.11-.13.22-.27.9-1.07.22-.27.23-.31L249,130l.41-.56.22-.28.1-.14h0l.13-.15,0,0,.08-.07c.38-.35.82-.77,1.15-1,.7-.6,1.37-1.27,2-1.88a10,10,0,0,1,1.38-1l.59-.37.29-.17.07,0h0l.09-.08c.37-.28.74-.58,1.1-.83l.54-.39.65-.44c.38-.26.74-.5,1.11-.72l.27-.17.07,0,.22-.12h0l.15-.07.57-.27,1.14-.53,0,0,.19-.08h0l.08,0,.14,0,.29-.1.58-.19.57-.19.28-.09.07,0,.15-.06.13-.06c.35-.15.68-.3,1-.43l.53-.2.13,0,.06,0h0l.28-.07h.07l.27,0,1.05-.18.51-.09.35-.06.3,0c.38,0,.82-.08,1.13-.09l1,0h2.65l1.35.11.66,0,.51,0,.81.06.67.05a2.1,2.1,0,0,1,.23,4.15l-.14.13c-.15.13-.31.26-.47.42l-.48.46c-.15.15-.32.3-.48.47a7.81,7.81,0,0,1-.66.61,2.3,2.3,0,0,0-.33.3c-.16.18-.33.35-.5.53s-.23.22-.33.34,0,.08,0,.11a4.4,4.4,0,0,1-.62,1.23c-.18.23-.38.45-.59.67a2.28,2.28,0,0,0-.29.33l-.25.34c-.16.23-.32.45-.48.69,0,.09-.05.18-.08.28s-.15.47-.24.71a1.74,1.74,0,0,0,0,.34c0,.23-.07.47-.12.71a4.48,4.48,0,0,1-.43,1.09v0a6.06,6.06,0,0,0,.13.64l.09.42.47.2.37.19a3.31,3.31,0,0,0,.38.19l.39,0,.36,0A3.56,3.56,0,0,0,274,134a4.52,4.52,0,0,1,.9-.16,3.72,3.72,0,0,1,.8-.78c.2-.14.41-.27.62-.39a2.63,2.63,0,0,0,.33-.2,3.57,3.57,0,0,1,.74-.5,5.12,5.12,0,0,1,.56-.89c.26-.32.52-.62.77-.9l.22-.26A4.72,4.72,0,0,1,280,129c0-.08.09-.16.14-.23.25-.36.5-.71.7-1.07s.33-.64.48-1l.08-.17c.13-.29.23-.59.34-.89l.1-.29a6.73,6.73,0,0,0,.21-.77l.11-.46a2.15,2.15,0,0,1,4.16,1.09l-.09.38c-.1.4-.2.81-.34,1.2l-.09.27c-.14.38-.29.83-.5,1.27l-.08.17a12.38,12.38,0,0,1-.66,1.31c-.27.48-.59.94-.89,1.38l-.07.11a1.83,1.83,0,0,1-.26.42,6.47,6.47,0,0,1-.55.81,3.74,3.74,0,0,1-1.27,1h0a4.18,4.18,0,0,1-.85,1.35l-.23.2a2.54,2.54,0,0,0-.16.28c-.15.27-.31.55-.49.81a5.3,5.3,0,0,1-.74.83,2.08,2.08,0,0,0-.21.21c-.13.2-.3.43-.47.65a2.94,2.94,0,0,0-.3.42c-.22.38-.41.79-.59,1.17a.69.69,0,0,1,0,.19,4.78,4.78,0,0,1-.21,1,6.18,6.18,0,0,1-.41.91l-.1.19a3.15,3.15,0,0,0,0,.61l.13.17.26.36a6.56,6.56,0,0,1,.35.59l0,.06.55.16.11,0h.22a7.12,7.12,0,0,1,.8,0l.23,0a5.51,5.51,0,0,0,.64,0,4.74,4.74,0,0,0,.86-.18c.17-.07.35-.12.53-.18a3.94,3.94,0,0,0,.4-.15l.28-.17a4.81,4.81,0,0,0,.47-.3l0,0a4.26,4.26,0,0,1,.66-1.05l.14-.14a3.14,3.14,0,0,1,.25-.75,5.78,5.78,0,0,1,.66-1,1.84,1.84,0,0,0,.17-.22,2.42,2.42,0,0,0,.05-.24,4.77,4.77,0,0,1,.38-1.12,2.12,2.12,0,0,1,.92-.93,5.32,5.32,0,0,1,.61-.78l.05,0c0-.13.07-.27.11-.4s.11-.44.18-.65a6.41,6.41,0,0,1,.42-.95l.07-.13s0-.08,0-.12a4.08,4.08,0,0,1,0-1.11,2.15,2.15,0,0,1,4.26.52.49.49,0,0,1,0,.12,4.3,4.3,0,0,1-.06,1.61,5.16,5.16,0,0,1-.46,1.11,1.55,1.55,0,0,0-.14.29c0,.13-.08.26-.11.4a10,10,0,0,1-.32,1,3.9,3.9,0,0,1-.83,1.25l-.08.08a2,2,0,0,0-.07.23,5.83,5.83,0,0,1-.42,1.07,1.82,1.82,0,0,0-.11.3,5.85,5.85,0,0,1-.5,1.09c-.27.42-.56.83-.86,1.23a1.27,1.27,0,0,1-.1.12,3.2,3.2,0,0,1-.18.55,4.58,4.58,0,0,1-.72,1.07,1.34,1.34,0,0,0-.11.14c-.09.23-.17.46-.25.69l-.17.49a7.32,7.32,0,0,1-.44.92s-.05.08-.07.13a3.9,3.9,0,0,1,0,1.49l-.05.24a7.67,7.67,0,0,0-.19.93c0,.26-.08.51-.13.75a1.51,1.51,0,0,0-.07.37c0,.2,0,.41,0,.63s0,.17,0,.26a.86.86,0,0,1,.07.1,5.47,5.47,0,0,1,.44.63,5.69,5.69,0,0,1,.26.56,4.59,4.59,0,0,1,.81.25,4.38,4.38,0,0,1,.91.57,6.83,6.83,0,0,1,.91-.08,4.94,4.94,0,0,1,1,.15l.06,0a2.56,2.56,0,0,0,.47-.18,1.22,1.22,0,0,0,.15-.17,4.91,4.91,0,0,1,.49-.52,1.51,1.51,0,0,1,.13-.24,5.46,5.46,0,0,1,.34-.55,6.26,6.26,0,0,1,.61-.72l.13-.13c.09-.18.19-.35.28-.52s.19-.33.22-.4c.11-.33.2-.69.28-1,0-.05,0-.1,0-.15a4,4,0,0,1,0-1.21,4.8,4.8,0,0,1,.36-1.14l.07-.15c0-.22,0-.44,0-.66s0-.28,0-.42a1.8,1.8,0,0,1-.05-.19,4.39,4.39,0,0,1-.19-1.13,4.31,4.31,0,0,1,.22-1.38,0,0,0,0,0,0,0c0-.15-.07-.32-.12-.49s-.07-.25-.1-.37a2.15,2.15,0,0,1,4.17-1l.06.23a7.17,7.17,0,0,1,.3,1.43,3.69,3.69,0,0,1-.2,1.5.31.31,0,0,1,0,.08.19.19,0,0,0,0,.07,4.58,4.58,0,0,1,.2,1.4v.4c0,.36,0,.73-.05,1.1a4.31,4.31,0,0,1-.39,1.34.61.61,0,0,1-.05.12.37.37,0,0,1,0,.11,4.06,4.06,0,0,1-.05,1.45c-.12.5-.25,1-.42,1.53a6.54,6.54,0,0,1-.55,1.15c-.06.11-.12.21-.17.32a4.49,4.49,0,0,1-.91,1.21c0,.06-.11.11-.15.17a1.83,1.83,0,0,0-.15.25,5.63,5.63,0,0,1-.8,1.1,2.14,2.14,0,0,1-.43,1.24l-.1.14V158c0,.23-.07.52-.15.92a2.18,2.18,0,0,0,0,1,2.75,2.75,0,0,0,.54,1.05,2.8,2.8,0,0,0,1,.83,4.55,4.55,0,0,0,1.55.37A4.23,4.23,0,0,0,297,162l.78-.26a6.2,6.2,0,0,0,1.57-.61,6.84,6.84,0,0,0,1.34-1.13,6.18,6.18,0,0,0,.69-1.15l.23-.41a10.57,10.57,0,0,0,.42-1c.11-.29.22-.59.34-.88a7.75,7.75,0,0,1,.63-1.16,5.2,5.2,0,0,0,.38-.71c.13-.4.23-.86.34-1.35.05-.24.11-.48.17-.72s.2-.71.31-1.06a8.11,8.11,0,0,0,.29-1,4.2,4.2,0,0,0,0-.8,10.69,10.69,0,0,1,0-1.37l.12-.9a11.74,11.74,0,0,0,.13-1.23c0-.37,0-.77,0-1.21s0-.63-.05-.95c0-.61,0-1.28-.13-2.14a9.81,9.81,0,0,1,0-1.33,4.67,4.67,0,0,0,0-.84,3.83,3.83,0,0,0-.24-.69,8.42,8.42,0,0,1-.46-1.37c-.06-.32-.12-.64-.17-1s-.14-.81-.24-1.15a8.82,8.82,0,0,1-.25-1.29,5.34,5.34,0,0,0-.17-.84,4.07,4.07,0,0,0-.36-.61,6.48,6.48,0,0,1-1.15-2.68,3.81,3.81,0,0,0-.19-.69c-.17-.33-.39-.69-.63-1.07s-.34-.52-.49-.78c-.35-.6-.74-1.23-1.15-1.84s-.79-1.08-1.24-1.65-.82-1-1.22-1.45l-.24-.28c-.34-.38-.71-.75-1.08-1.12l-.44-.43c-.23-.24-.46-.5-.7-.77a8.5,8.5,0,0,0-.74-.81,4.17,4.17,0,0,0-.65-.45,10.25,10.25,0,0,1-1.08-.78c-.27-.23-.53-.47-.79-.72a9,9,0,0,0-.76-.69,4.89,4.89,0,0,0-.7-.36,8.47,8.47,0,0,1-1.14-.6l-.34-.21c-.48-.31-.93-.59-1.38-.82a14.19,14.19,0,0,0-1.61-.66l-.2-.07c-.32-.12-.63-.26-.94-.4a4.28,4.28,0,0,0-.81-.32,2.28,2.28,0,0,1-.8-.34l-.21,0c-.25-.06-.5-.13-.74-.21a3.87,3.87,0,0,0-.56-.15l-.66-.15c-.22,0-.44-.11-.67-.14a7.24,7.24,0,0,1-.92-.22c-.14,0-.27-.08-.41-.1s-.51-.07-.77-.11l-.44-.07-.11,0a4.16,4.16,0,0,1-1.42.25,7.86,7.86,0,0,1-.95-.1,3.05,3.05,0,0,0-.41,0h-.48c-.3,0-.6,0-.89,0a1.94,1.94,0,0,0-.33.07,6.73,6.73,0,0,1-1,.2,1.58,1.58,0,0,0-.36.09A7.1,7.1,0,0,1,269.88,112.32ZM252.7,293.87v.31l0,.2,0,.4c-.06.58-.14.92-.21,1.33l-.26,1.29L252,298l0,.15,0,.07a.87.87,0,0,0,0,.14h0v0l0,0-.13.36-.28.72-.25.55-.13.27-.13.33-.26.62c-.09.21-.18.36-.27.55l-.14.26-.07.13,0,.07-.14.23,0,0A7.16,7.16,0,0,1,249,303.7l-.93.81-.59.48c-.17.13-.32.22-.48.33l-.24.16-.32.2-.47.29c-.18.1-.34.21-.64.35l-.4.2-.26.09-.12.05-.07,0-.16.05h0l-.36.09-.7.14a9.92,9.92,0,0,1-1.1.12l-.27,0h-.18l-.36,0-.71-.08c-.39-.06-.67-.14-1-.22s-.82-.24-1.22-.37a8.93,8.93,0,0,1-.9-.39,8.32,8.32,0,0,1-1.83-1.22l-.25-.22-.21.5-.29.58-.07.15,0,0-.17.27,0,.07-.19.27-.79,1.12-.25.29h0v0l0,0-.07.06-.12.11-.23.22c.1.11.2.2.31.3a7.69,7.69,0,0,1,.93.95,5.08,5.08,0,0,1,.72,1.41,2.77,2.77,0,0,0,.1.26c.06.09.16.21.25.33a6.42,6.42,0,0,1,.74,1.09c.29.55.54,1.1.76,1.61a9.62,9.62,0,0,1,.4,1.23c0,.16.08.32.13.47a1.82,1.82,0,0,0,.16.31,5.62,5.62,0,0,1,.54,1.34,7,7,0,0,1,.17,1.31c0,.16,0,.31,0,.46a10.66,10.66,0,0,1,.09,1.3c0,.16,0,.32,0,.48a12.13,12.13,0,0,1,0,1.35l0,.78a12,12,0,0,1-.07,1.42c-.07.66-.2,1.27-.3,1.76s-.15.7-.23,1l.58.35.45.28.25.16.06.05h0l.21.16,0,0,.12.11,1.11,1,.15.14.23.23,0,0,.07.08.29.32.6.68.16.18.08.09,0,0,.21.27.29.38.59.81.15.21.08.11.15.24v.05l0,.06.23.47c.16.31.31.63.47.95.56,1.24.55,1.21,1.05,2.48l.23,1.08.11.59.05.3s0,.15,0,.22c.08.37.16.65.23,1.13l.09.66v.14l0,.19v.39c0,.34,0,.67-.06,1s-.07.72-.1,1.07q-.09,1-.18,1.83c0,.27-.07.53-.1.78s-.1.58-.14.85l0,.19A16.62,16.62,0,0,1,248.72,362a2,2,0,0,1,.37.52c2.11,4.42,2.18,8,1.53,14a22,22,0,0,0,1.16,3.65c1.3,3.57,2.65,7.25,1.44,9.64a3.49,3.49,0,0,1-2.22,1.82,1.75,1.75,0,0,1-.55.08,1.83,1.83,0,0,1-.62-.1h0l-.33-.07a6.76,6.76,0,0,1-1.38-.45l-.68-.32-.72-.41a6.73,6.73,0,0,1-.71-.43l-.84-.64-.22-.17-.11-.08,0,0,0,0-.07-.07,0,0-.33-.32c-.22-.22-.43-.41-.67-.67l-.72-.83-.19-.21-.21-.29-.29-.41-.58-.82-.29-.42-.15-.2-.07-.11,0-.05,0,0-.12-.21-1-1.76-.24-.43-.06-.11-.1-.19-.11-.22c-.15-.29-.29-.58-.44-.86s-.3-.66-.43-1c-.07-.16-.14-.33-.2-.49l0,0,0-.14,0-.06,0-.11-.06-.21c-.15-.56-.28-1.09-.41-1.59,0-.12-.06-.24-.1-.36l0-.17,0-.09-.06-.26v-.05c0-.23-.06-.45-.08-.65s-.08-.63-.11-.92a12.81,12.81,0,0,1-5.74-5.26,16.57,16.57,0,0,1-1.69-5.32c0-.29,0-.65-.05-1a7.22,7.22,0,0,0-.15-1.52l-.06-.14a7.81,7.81,0,0,1-1.1-.64l-.51-.31q-.87-.48-1.68-1a5.54,5.54,0,0,0-.53-.3,10,10,0,0,1-1.17-.73,7.92,7.92,0,0,1-1.09-1c-.11-.13-.23-.26-.35-.38s-.29-.24-.44-.36a8.07,8.07,0,0,1-1.09-1,7.94,7.94,0,0,1-.88-1.27c-.09-.15-.18-.3-.28-.45l-.24-.34a9.29,9.29,0,0,1-1.52-2.83l-.3-.77a14.13,14.13,0,0,1-.57-1.57l-.14-.46a13.36,13.36,0,0,1-.4-1.47c0-.17-.07-.35-.11-.52a12.21,12.21,0,0,1-.27-1.41,10.25,10.25,0,0,1-.06-1.31c0-.1,0-.21,0-.31l-.31-.12a8,8,0,0,1-1.14-.65,4.26,4.26,0,0,0-.55-.34l-.48-.24c-.37-.18-.8-.39-1.25-.66s-.88-.57-1.34-.89l-.27-.2a3.42,3.42,0,0,0-.46-.26,8.17,8.17,0,0,1-1.21-.77,6.78,6.78,0,0,1-1-1.06,4.13,4.13,0,0,0-.34-.39,5.12,5.12,0,0,0-.43-.36,10.34,10.34,0,0,1-1.05-.93,10,10,0,0,1-.84-1.07c-.12-.16-.23-.33-.36-.49l-.38-.42a10.91,10.91,0,0,1-.88-1.09,11.52,11.52,0,0,1-.72-1.2c-.1-.16-.19-.33-.28-.5s-.21-.31-.32-.47a9.71,9.71,0,0,1-.73-1.2,10.14,10.14,0,0,1-.5-1.28c-.07-.19-.13-.38-.21-.57a4.78,4.78,0,0,0-.23-.45,7.07,7.07,0,0,1-.61-1.34c-.16-.49-.28-1-.4-1.53l-.09-.38c-.15-.62-.27-1.27-.38-1.93s-.19-1.28-.26-1.94a6.84,6.84,0,0,1,0-1.36,5.76,5.76,0,0,0,0-.59c0-.47,0-1,0-1.44v-.48q0-.3,0-.6a11.25,11.25,0,0,1,0-1.32c0-.21,0-.41,0-.62,0-.43,0-.86.07-1.3a6.08,6.08,0,0,1,.34-1.37c.06-.18.12-.38.14-.48s.06-.41.08-.61.1-.66.16-1a2.2,2.2,0,0,0-.24-.28,3,3,0,0,0-.4-.31,6.18,6.18,0,0,1-1.1-.93,6.76,6.76,0,0,1-.84-1.19,3.18,3.18,0,0,0-.28-.43c0-.06-.2-.2-.32-.31a6,6,0,0,1-1-1.14,6.4,6.4,0,0,1-.64-1.34,3.19,3.19,0,0,0-.2-.46,4,4,0,0,0-.28-.43,5.59,5.59,0,0,1-1.17-2.71,3.39,3.39,0,0,0-.1-.48,6.88,6.88,0,0,1-.29-1.42c0-.15,0-.3-.06-.45s-.09-.15-.14-.23a4.63,4.63,0,0,1-.69-1.67,13.31,13.31,0,0,1-.15-1.43l-.1-1.05c0-.46-.09-.9-.11-1.33s0-.95,0-1.4c0-.17,0-.34,0-.5A5.75,5.75,0,0,1,193,288a2.7,2.7,0,0,0,.09-.36l0-.37a13,13,0,0,1,.22-1.56l.09-.43a10,10,0,0,1,.36-1.49l.12-.41a14.8,14.8,0,0,1,.51-1.43,11.41,11.41,0,0,1,.58-1.16c.1-.17.19-.35.28-.53a3.52,3.52,0,0,0,.18-.45,7.52,7.52,0,0,1,.52-1.26c.17-.3.36-.6.56-.91l.39-.62a2.07,2.07,0,0,1,.44-.53l-.19-.29c-.32-.41-.61-.83-.89-1.25l-.22-.32c-.27-.4-.51-.81-.75-1.22l-.25-.44a9.8,9.8,0,0,1-.6-1.23c-.08-.18-.16-.36-.25-.54l-.19-.24a4.24,4.24,0,0,1-1.22-3.15,1.82,1.82,0,0,0,0-.33c0-.09-.11-.22-.17-.35a6,6,0,0,1-.55-1.46c0-.18-.09-.36-.14-.55a10.27,10.27,0,0,1-.3-1.38,4.84,4.84,0,0,1,.1-1.64,2.35,2.35,0,0,0,0-.37c0-.58,0-1.17-.06-1.81a2.34,2.34,0,0,0-.09-.24,4.59,4.59,0,0,1-.37-1.88,8.49,8.49,0,0,1,.24-1.43,3.86,3.86,0,0,0,.12-.57,6.79,6.79,0,0,1,.38-1.47,3.33,3.33,0,0,0,.16-.51c0-.2.06-.4.09-.6a8.63,8.63,0,0,1,.26-1.42l.1-.39c.14-.5.29-1,.49-1.58a8.73,8.73,0,0,1,.65-1.3c.1-.17.21-.35.3-.53.27-.58.57-1.11.87-1.62l.1-.18a10.23,10.23,0,0,1,.78-1.14c.13-.17.26-.34.38-.52a4.21,4.21,0,0,0,.29-.51c.11-.19.23-.4.37-.62l-.28-.41a8.65,8.65,0,0,1-.64-1.23,4.52,4.52,0,0,0-.23-.5l-.25-.42c-.25-.41-.48-.82-.7-1.24-.09-.18-.19-.35-.3-.53a10.93,10.93,0,0,1-.61-1.15,10,10,0,0,1-.43-1.22l-.2-.59c-.07-.18-.16-.36-.24-.55a8.7,8.7,0,0,1-.5-1.2,7.85,7.85,0,0,1-.27-1.31c0-.19-.06-.38-.1-.57l-.17-.59c-.13-.41-.24-.83-.33-1.24,0-.21-.09-.41-.14-.61-.1-.42-.2-.84-.26-1.26-.09-.65-.16-1.29-.22-1.92s0-1,0-1.42v-.51c0-.63,0-1.27,0-2a8.08,8.08,0,0,1,.22-1.4,2.26,2.26,0,0,1,0-.78,9,9,0,0,1,.33-1.3c.06-.19.12-.38.16-.56s.07-.43.11-.64A12.75,12.75,0,0,1,192,217c0-.19.08-.39.13-.58.1-.44.19-.88.32-1.3s.29-.84.45-1.25c.08-.19.16-.38.23-.58s.12-.4.18-.6a10.74,10.74,0,0,1,.41-1.26,9.46,9.46,0,0,1,.65-1.21q.17-.25.3-.51c.24-.49.51-.94.77-1.4l.19-.32a3.32,3.32,0,0,0,.2-.47,7.3,7.3,0,0,1,.66-1.31,9.48,9.48,0,0,1,.87-1.08l.39-.46a5,5,0,0,0,.32-.48,9.79,9.79,0,0,1,.83-1.14,7.38,7.38,0,0,1,1.11-1,2.64,2.64,0,0,0,.41-.32c.54-.52,1-.94,1.47-1.33.14-.12.26-.26.39-.39a7.35,7.35,0,0,1,1.06-1,12.55,12.55,0,0,1,1.15-.73c.18-.1.36-.2.53-.31.55-.35,1.13-.66,1.71-1,.15-.08.3-.18.46-.28a7.26,7.26,0,0,1,1.16-.66,7.13,7.13,0,0,1,1.3-.42,4.27,4.27,0,0,0,.48-.13c.57-.22,1.15-.42,1.73-.6s1.17-.36,1.75-.5a5.58,5.58,0,0,0,.58-.18,9.79,9.79,0,0,1,1.17-.32,7.35,7.35,0,0,1,1.38-.12,3.3,3.3,0,0,0,.45,0c.22,0,.42-.08.61-.12a8,8,0,0,1,1.21-.2,2.53,2.53,0,0,1,.68.07l.08-.7a1.45,1.45,0,0,0,0-.36,7.34,7.34,0,0,1,0-1.13c.05-.31.11-.61.17-.91s.08-.36.11-.55l.2-1.46a7,7,0,0,1,.19-.93c0-.15.07-.29.1-.43l0-.17a4.51,4.51,0,0,1-.06-1.43,4.7,4.7,0,0,1,.46-1.34A.8.8,0,0,0,221,184c0-.15,0-.3,0-.45,0-.31,0-.62.1-.93,0-.1,0-.2,0-.31a5.42,5.42,0,0,1,0-1.18,6,6,0,0,1,.36-1.18c0-.09.08-.18.11-.27a9.51,9.51,0,0,1,.22-.93,4.27,4.27,0,0,0,.13-.48,1.66,1.66,0,0,0,0-.31,6.32,6.32,0,0,1,.07-1.17,8.12,8.12,0,0,1,.25-1c0-.16.09-.31.12-.46a2.08,2.08,0,0,0,0-.35,6.23,6.23,0,0,1,.09-1.14,5.7,5.7,0,0,1,.33-1.07c0-.12.09-.23.12-.35a3,3,0,0,0,0-.3A5.46,5.46,0,0,1,223,171a5.55,5.55,0,0,1,.39-1.14,2.36,2.36,0,0,0,.12-.28c0-.26.12-.54.18-.81l.15-.62c0-.16.05-.33.07-.5a9.62,9.62,0,0,1,.15-1,5.34,5.34,0,0,1,.44-1.16l.07-.14s0,0,0-.06a4,4,0,0,1,0-1.57,3.9,3.9,0,0,1,.84-1.52l0,0,.08-.34c.06-.25.13-.5.19-.74a.61.61,0,0,0,0-.14,4,4,0,0,1,.1-1.53,5.32,5.32,0,0,1,.42-1.05c.05-.11.11-.21.15-.32s.08-.36.12-.55.13-.6.22-.9a6.24,6.24,0,0,1,.39-1,2.66,2.66,0,0,0,.16-.39c.15-.48.29-.95.43-1.42a2,2,0,0,0,0-.29,4.67,4.67,0,0,1,.21-1.18l.18-.59c.09-.27.17-.55.26-.82a4.4,4.4,0,0,1,.71-1.27l0,0v0a4.21,4.21,0,0,1,.2-1.49c.1-.29.22-.58.34-.86s.16-.35.22-.52.12-.37.18-.55.17-.59.28-.87a7,7,0,0,1,.45-.94c.07-.14.14-.27.2-.41a6.19,6.19,0,0,1,.53-1,1.39,1.39,0,0,0,.18-.31c0-.07,0-.17.05-.27a5.57,5.57,0,0,1,.32-1.18c.08-.19.15-.37.22-.56s.21-.56.33-.83.15-.36.22-.54a8.68,8.68,0,0,1,.34-.84c.07-.16.13-.33.19-.5a8.88,8.88,0,0,1,.36-.9c.13-.28.29-.56.45-.84s.18-.32.26-.48a7.15,7.15,0,0,1,.56-.92c.08-.12.17-.23.24-.36a5.11,5.11,0,0,1,.67-1l.11-.14v-.05a4,4,0,0,1,.43-1.57,3.53,3.53,0,0,1,1.21-1.23,4.53,4.53,0,0,1,.5-1.26c.26-.43.52-.86.79-1.28a4.32,4.32,0,0,1,.93-1l.17-.15.21-.35a9,9,0,0,1,1.18-1.58l.27-.32.06-.13a4,4,0,0,1,.71-1.29,5.26,5.26,0,0,1,.86-.78l.21-.18s0-.1.08-.15a4.34,4.34,0,0,1,.77-1.16,6.14,6.14,0,0,1,.84-.72,1.7,1.7,0,0,0,.3-.23l.36-.38c.22-.24.43-.47.66-.69l.38-.37c.23-.23.45-.45.68-.66l.39-.36.71-.64c.26-.22.54-.44.81-.65l.35-.28c.11-.09.22-.2.32-.3a8.21,8.21,0,0,1,.78-.7,3.57,3.57,0,0,1,1.41-.61,3.67,3.67,0,0,1,1.05-1.1,4,4,0,0,1,1.36-.55l.16,0a6.15,6.15,0,0,1,.94-.43l.22-.09.06-.06a3.71,3.71,0,0,1,1.25-1,4,4,0,0,1,1.49-.36l.15,0,.09,0,1.24-.49a3.29,3.29,0,0,0,.39-.17,7.29,7.29,0,0,1,1-.43,6.75,6.75,0,0,1,1.06-.24l.35-.06.12-.08a4.08,4.08,0,0,1,1.37-.64,7.88,7.88,0,0,1,1.25-.12h.3l.47-.12a8.72,8.72,0,0,1,1-.24,4.15,4.15,0,0,1,1.57.1l.1,0,.25-.07a6.37,6.37,0,0,1,1.13-.23c.11,0,.22,0,.33-.07a5.58,5.58,0,0,1,1.18-.21c.37,0,.73,0,1.1,0h.43a7,7,0,0,1,1.13.1l.29,0,.12,0a4.19,4.19,0,0,1,1.55-.24c.34,0,.69.08,1,.14l.5.08a5.89,5.89,0,0,1,1.12.24c.13,0,.26.08.39.1.34.05.68.12,1,.2l.49.11a9.06,9.06,0,0,1,1,.28,4.12,4.12,0,0,0,.47.13h.24a5.06,5.06,0,0,1,1.32.17,2.1,2.1,0,0,1,1.15.84,4.77,4.77,0,0,0,.52.22l.19.07a20.45,20.45,0,0,1,2.08.86c.64.33,1.2.69,1.75,1l.32.21a4.9,4.9,0,0,0,.65.32,8.19,8.19,0,0,1,1.46.82,11.67,11.67,0,0,1,1.19,1l.56.52c.18.14.41.29.66.46a8.48,8.48,0,0,1,1.24.91,15,15,0,0,1,1.06,1.14c.17.2.34.39.51.56l.41.42c.44.43.88.87,1.28,1.32l.24.27c.46.53.91,1,1.33,1.58.53.68,1,1.3,1.45,2s.91,1.41,1.3,2.07l.41.67a13.64,13.64,0,0,1,.84,1.42,7.14,7.14,0,0,1,.56,1.7,4,4,0,0,0,.17.65,4.47,4.47,0,0,0,.36.59,7,7,0,0,1,.83,1.55,7.73,7.73,0,0,1,.37,1.66,5,5,0,0,0,.14.73,14.76,14.76,0,0,1,.33,1.6c.05.26.09.52.15.78a3.71,3.71,0,0,0,.24.67,7,7,0,0,1,.5,1.66,8.3,8.3,0,0,1,.05,1.7,4.67,4.67,0,0,0,0,.74c.08.95.12,1.7.14,2.41,0,.27,0,.53,0,.8,0,.52.06,1.05,0,1.63a15.74,15.74,0,0,1-.17,1.66c0,.25-.07.5-.1.75a6.37,6.37,0,0,0,0,.76,7.55,7.55,0,0,1-.07,1.68,10,10,0,0,1-.43,1.62c-.08.25-.16.5-.22.74s-.11.44-.15.66c-.13.56-.26,1.14-.45,1.72a7.5,7.5,0,0,1-.8,1.63,4.2,4.2,0,0,0-.33.58c-.1.24-.19.48-.27.71a13.08,13.08,0,0,1-.68,1.59l-.2.37a9.84,9.84,0,0,1-1.29,2,10.91,10.91,0,0,1-2.2,1.88,9.73,9.73,0,0,1-2.64,1.1l-.61.21a6.73,6.73,0,0,1-2.28.5h-.09a8.76,8.76,0,0,1-3.07-.68,7,7,0,0,1-2.67-2,6.14,6.14,0,0,1-.49-.65,1.85,1.85,0,0,1,0,.23,12.16,12.16,0,0,1,.15,1.34,9.51,9.51,0,0,1-.06,1.35,5.3,5.3,0,0,0,0,.85,8.59,8.59,0,0,0,.14,1c.07.39.14.78.18,1.17.08.71.17,1.43.28,2.17.05.37.09.74.12,1.12a10,10,0,0,0,.12,1.07c.08.46.19.93.3,1.41l.31,1.37c.1.49.21,1,.34,1.52.08.3.19.59.3.9a12.1,12.1,0,0,1,.41,1.2c.1.33.18.67.26,1s.18.75.3,1.13a8.34,8.34,0,0,0,.35.9c.16.38.32.77.46,1.17s.21.67.31,1,.22.74.35,1.11a2.27,2.27,0,0,1,.12.72c.06.26.11.51.15.71s0,.24.07.35l.08.13a3.94,3.94,0,0,1,.62,1.36,5.13,5.13,0,0,1,.11,1.27,1.51,1.51,0,0,0,0,.3c0,.15.06.3.09.45a8.42,8.42,0,0,1,.21,1.07,4,4,0,0,1-.2,1.6l0,.1c0,.09,0,.17,0,.26a5.35,5.35,0,0,1,.11,1.22,2,2,0,0,0,0,.35,5.16,5.16,0,0,1,0,1.3,12.05,12.05,0,0,1-.38,1.68,5.74,5.74,0,0,1-.62,1.35l-.16.29a.33.33,0,0,1,0,.15,3.76,3.76,0,0,1-.76,1.67,6.76,6.76,0,0,1-1.63,1.34,5.51,5.51,0,0,1-1.64.67l-.29.08a8.43,8.43,0,0,1-1.9.27h-.28a7.9,7.9,0,0,1-1.17-.11l-.34,0c-.1,0-.2,0-.3,0a4.27,4.27,0,0,1-1.48-.13l-.27-.07a7,7,0,0,1-1.52-.57,3.9,3.9,0,0,1-1.34-1.33l-.11-.15a.59.59,0,0,1-.13-.09,4,4,0,0,1-1.22-1.2,9.9,9.9,0,0,1-.75-1.46c-.15.16-.3.32-.46.47A6.74,6.74,0,0,1,278,201a3,3,0,0,0-.3.19,4.4,4.4,0,0,1-1.48.6l-.23.07a2.1,2.1,0,0,0-.26.13,5.24,5.24,0,0,1-1.45.55,1.17,1.17,0,0,0-.25.07,4.94,4.94,0,0,1-1.5.28h-.12a9.5,9.5,0,0,1-1.85-.27,3.89,3.89,0,0,1-1.45-.75c-.06,0-.11-.09-.18-.13l-.21,0a4.33,4.33,0,0,1-1.47-.56,3.9,3.9,0,0,1-1.28-1.55l0-.07-.11-.08a3.58,3.58,0,0,1-1.28-1.61,3.8,3.8,0,0,1-.11-1.94l0-.24s0-.11,0-.19a4.18,4.18,0,0,1,0-1.74,5,5,0,0,1,.51-1.3c.05-.12.11-.23.16-.35a6.47,6.47,0,0,1,.62-1.11,3.7,3.7,0,0,0,.21-.33l.06-.1c-.31,0-.6,0-.85-.06l-.28,0a5.4,5.4,0,0,1-1.46-.38L263,190a8.11,8.11,0,0,1-1.47-.63l-.19-.1a6.81,6.81,0,0,1-1.36-1l-.15-.13a1.77,1.77,0,0,0-.24-.17,3.8,3.8,0,0,1-1.36-1.38,5.28,5.28,0,0,1-.7-2.39,3.49,3.49,0,0,1,.66-1.93l.07-.12s0-.09,0-.13a4.2,4.2,0,0,1,.52-1.62l.09-.15a13.15,13.15,0,0,1,.82-1.25l.06-.07-.26-.12-.11-.06a7.61,7.61,0,0,1-1.59-.51l-.26-.1a5.07,5.07,0,0,1-1.35-.69,4.71,4.71,0,0,1-1.47-2,2.5,2.5,0,0,0-.14-.25A3.73,3.73,0,0,1,254,173a4.43,4.43,0,0,1,.51-1.75,2.92,2.92,0,0,0,.14-.31l.1-.3a7.63,7.63,0,0,1,.61-1.46,3.8,3.8,0,0,1,1.32-1.3l.09-.07.17-.25a6.32,6.32,0,0,1,.57-.78,3.33,3.33,0,0,1-1.64-.75,4.38,4.38,0,0,1-1.13-1.87l-.07-.21a6,6,0,0,1-.5-2.06,3.63,3.63,0,0,1,.49-1.8.41.41,0,0,1,.05-.09c0-.08,0-.15,0-.22a5.07,5.07,0,0,1,.31-1.38,2.67,2.67,0,0,0,.11-.34,4.47,4.47,0,0,1,.6-1.37c.22-.31.45-.61.68-.91l.23-.3a6.45,6.45,0,0,1,.78-.83,1.8,1.8,0,0,1,.2-.19l0-.12a4.13,4.13,0,0,1,.74-1.33,10.05,10.05,0,0,1,.73-.73l.34-.32a7.37,7.37,0,0,1,.86-.75,2.09,2.09,0,0,0,.28-.22c.25-.24.5-.46.75-.67l.36-.31a5.27,5.27,0,0,1,.52-.44s0-.09.07-.14q.21-.34.42-.66a5,5,0,0,0,.5-.85,2.6,2.6,0,0,0,.07-.81c0-.23,0-.45,0-.67a1.62,1.62,0,0,0-.09-.87c0-.08-.09-.16-.46-.32l-.2-.09a2.59,2.59,0,0,0-.79-.27,4.48,4.48,0,0,0-1.38.38,5.48,5.48,0,0,0-.5.35,11,11,0,0,1-1.13.76,5.93,5.93,0,0,1-1.41.53,3.34,3.34,0,0,0-.55.17,5.16,5.16,0,0,0-.35.38,7,7,0,0,1-1.13,1.09c-.3.22-.62.42-.95.62a7.73,7.73,0,0,0-.79.53c-.26.21-.53.41-.82.62s-.59.43-.83.64l-.63.55c-.31.27-.63.54-.94.84s-.52.55-.77.85-.42.47-.64.7-.58.67-.87,1l-.48.57c-.33.38-.63.78-1,1.18l-.35.46a6.63,6.63,0,0,0-.45.72,11.68,11.68,0,0,1-.66,1.06c-.22.31-.47.61-.72.9a6.79,6.79,0,0,0-.59.74c-.19.29-.39.57-.6.85a8.93,8.93,0,0,0-.6.87c-.19.32-.37.64-.55,1s-.38.7-.58,1-.4.66-.61,1l-.59.94a5.1,5.1,0,0,0-.26.7,7.74,7.74,0,0,1-.58,1.4,7.46,7.46,0,0,1-.84,1.19,4.58,4.58,0,0,0-.45.63c-.34.65-.65,1.31-1,2a5.93,5.93,0,0,0-.31.86c-.13.41-.26.82-.43,1.22-.29.66-.56,1.33-.83,2-.14.35-.29.69-.45,1s-.31.66-.43,1-.23.73-.34,1.11-.19.67-.3,1-.27.75-.43,1.13-.27.66-.36,1a3.52,3.52,0,0,0-.07.67,8.31,8.31,0,0,1-.22,1.56c-.15.55-.28,1.11-.42,1.69l-.13.49a6.13,6.13,0,0,1-.63,1.51,4.15,4.15,0,0,0-.28.59c0,.12,0,.41,0,.66a7.38,7.38,0,0,1-.13,1.61,11,11,0,0,1-.37,1.28,7.3,7.3,0,0,0-.27.9c-.07.33-.11.67-.16,1l0,.2.49.15.23,0a5.56,5.56,0,0,1,1.39.29l1.27.53.24.1a5.29,5.29,0,0,1,1.21.77,1.77,1.77,0,0,0,.22.16l.38.18c.39.18.75.36,1.09.55a3.09,3.09,0,0,0,.32.14,6.09,6.09,0,0,1,1.16.57c.44.3.89.61,1.32.94a8.35,8.35,0,0,1,.85.74c.11.11.23.23.35.33a2.82,2.82,0,0,0,.31.21,6.82,6.82,0,0,1,1,.75,4.61,4.61,0,0,1,.88,1.26.8.8,0,0,0,.08.16l.26.27c.26.27.52.54.77.83a.92.92,0,0,1,.13.07,4.66,4.66,0,0,1,1.09,1,7.29,7.29,0,0,1,.62,1,3.07,3.07,0,0,0,.23.39,6.68,6.68,0,0,1,.58,1.11,1.83,1.83,0,0,0,.14.32c.08.13.18.26.27.39a8.34,8.34,0,0,1,.61.93,8.74,8.74,0,0,1,.47,1,3.2,3.2,0,0,0,.17.43c.05.09.12.17.18.26a5.3,5.3,0,0,1,.66,1.1,6.68,6.68,0,0,1,.36,1.15c0,.13.06.26.1.39a1.64,1.64,0,0,0,.16.29,6.11,6.11,0,0,1,.53,1.16,5.06,5.06,0,0,1,.21,1.34,1.42,1.42,0,0,0,0,.29.65.65,0,0,1,.09.14,4.66,4.66,0,0,1,.51,1.35,6.72,6.72,0,0,1,.11,1.18c0,.15,0,.29,0,.44a6.57,6.57,0,0,1,0,1.25,2.32,2.32,0,0,0,0,.37c0,.16,0,.31,0,.47,0,.38.08.76.09,1.14,0,.16,0,.32,0,.47a8.43,8.43,0,0,1,.06,1.08c0,.18,0,.35,0,.53,0,.35,0,.69,0,1,0,.17,0,.34,0,.51a9.28,9.28,0,0,1-.06,1.06,7.53,7.53,0,0,1-.23,1.12c0,.14-.08.28-.11.42l-.06.5a9.34,9.34,0,0,1-.16,1.06,9,9,0,0,1-.29,1c0,.16-.1.32-.14.47s-.07.31-.1.47a10,10,0,0,1-.27,1.08,4.2,4.2,0,0,1-.79,1.36,3.8,3.8,0,0,1-.31,1.63,4.62,4.62,0,0,1-.86,1.21l-.15.18c-.14.27-.34.62-.55,1l-.19.32,0,.15a4.73,4.73,0,0,1-.58,1.33,9.76,9.76,0,0,1-.69.87l-.31.37a4.71,4.71,0,0,1-1,1c-.06.05-.13.09-.19.15s-.13.19-.21.31a8.4,8.4,0,0,1-.69.9l-.3.32c-.25.28-.5.56-.77.82a6.22,6.22,0,0,1-.88.72,4.08,4.08,0,0,0-.33.25.76.76,0,0,1-.09.15,4.92,4.92,0,0,1-.9,1.06l-.2.17-.16.13a9.09,9.09,0,0,1,.41,1.26,3.75,3.75,0,0,0,.15.55,5.55,5.55,0,0,0,.29.6,8.87,8.87,0,0,1,.57,1.3c.17.53.31,1.05.43,1.57l.12.46a11.47,11.47,0,0,1,.25,1.46c0,.21.05.41.09.61s.09.44.13.65a12.88,12.88,0,0,1,.26,1.44l.06.55a13.17,13.17,0,0,1,.12,1.59,8.5,8.5,0,0,1-.15,1.56,5.81,5.81,0,0,0-.09.58l0,.23a16.22,16.22,0,0,1-.21,1.9l-.09.59a11.11,11.11,0,0,1-.29,1.54l-.12.47a14.68,14.68,0,0,1-.5,1.61c-.24.63-.52,1.27-.87,2a13.8,13.8,0,0,1-.81,1.37c-.11.15-.21.31-.31.47l-.31.53a9.38,9.38,0,0,1-1.82,2.45c-.14.15-.28.29-.41.44a14.23,14.23,0,0,1-1.1,1.1l-.41.39a5.12,5.12,0,0,0-.44.49,8.25,8.25,0,0,1-.88.93h0l.16.18.08.1.15.21,0,.05c.18.29.38.59.58.9l.08.11,0,.06.16.27.13.25.26.51.13.27.07.13.13.29,0,.07.18.56c.14.44.28.88.41,1.32,0,0,0,.06,0,.09h0l.15-.13h0l.18-.12,0,0,0,0,.13-.06c.34-.17.76-.38,1.08-.5l1.91-.65.45-.1.23-.06.11,0h.09l.24,0h0c.45,0,1,0,1.38,0a19.67,19.67,0,0,1,2.35.42l.5.15.13,0h0l.19.07h0l.08,0,.34.16.67.33c.21.11.32.2.49.3l.23.15.12.08h0l.15.11.08.07.59.52.29.27.2.22.38.43a5.72,5.72,0,0,1,.5.65c.14.2.31.43.42.62l.29.51.15.25.07.14,0,0,0,.09.07.17.3.71c.1.24.13.39.2.59l.09.28.05.15.07.26V290l.11.59.11.59,0,.29,0,.15v.11l0,.33.09,1.21Zm18.74-171.2,0,0h-.64l-.87.06-.83.07h-.23l-.13,0-.51.09-1.06.18-.16,0-.07,0-.53.2c-.35.13-.71.3-1.08.46l-.14.06h-.05l-.28.09-.57.19-.57.2-.29.1-.15,0h0l-1.06.51-.57.27-.11.05-.27.16-1.08.69-.26.18-.09.06,0,0-.05,0-.54.39c-.38.25-.7.52-1,.78l-.13.1-.14.09,0,0-.07,0-.29.17-.58.35a6.47,6.47,0,0,0-.86.58c-.69.62-1.34,1.26-2.06,1.86-.38.32-.61.55-.92.82l-.06.05,0,.06-.22.28-.43.56-.44.59-.19.25-.23.26-.34.38c.67-.49,1.34-.95,2-1.37a29.28,29.28,0,0,1,7.56-3.49,21.67,21.67,0,0,1,6-.91l1.05,0a4.45,4.45,0,0,1,.55-1.29c.2-.31.41-.61.62-.91l.23-.31a6.58,6.58,0,0,1,.71-.84l.21-.22s0-.1,0-.14a4.06,4.06,0,0,1,.67-1.28C271,123.15,271.21,122.91,271.44,122.67Zm-51,167.23a4.44,4.44,0,0,0-1.27.38A4.68,4.68,0,0,0,218,291a6.35,6.35,0,0,0-.92,1.1,5.68,5.68,0,0,0-.65,1.2,4.52,4.52,0,0,0,.16,3.88,5.78,5.78,0,0,0,.79,1.1l.12.15a5.64,5.64,0,0,0,.84.85,4.56,4.56,0,0,0,1.16.6,5,5,0,0,0,1.31.23,5.33,5.33,0,0,0,1.35-.07,3.93,3.93,0,0,0,.75-.22,4.24,4.24,0,0,1-2.9-2,4.08,4.08,0,0,1,1.44-5.65,4.23,4.23,0,0,1,4.28.09,5.59,5.59,0,0,0-.43-.6,5.15,5.15,0,0,0-1-.95,4.72,4.72,0,0,0-1.2-.63,5.4,5.4,0,0,0-1.36-.27l-.48,0A4.5,4.5,0,0,0,220.41,289.9Zm-7.21,6.58a8.94,8.94,0,0,1,.43-4.24,9.73,9.73,0,0,1,2.37-3.46,7.89,7.89,0,0,1,3.91-1.84,7.77,7.77,0,0,1,2.15-.08,8.51,8.51,0,0,1,2.1.43,8,8,0,0,1,1.93,1,8.28,8.28,0,0,1,1.52,1.48,7.62,7.62,0,0,1,1.14,1.81,7.36,7.36,0,0,1,.66,2.05,8.11,8.11,0,0,1,0,2.15,9.1,9.1,0,0,1-.54,2.06,9.39,9.39,0,0,1-1,1.81,7.18,7.18,0,0,1-1.45,1.52l-.38.31a5.36,5.36,0,0,1-1.22.8,9,9,0,0,1-2.05.71,7.91,7.91,0,0,1-1.5.13h-.62a7.76,7.76,0,0,1-2.12-.4,7.54,7.54,0,0,1-1.93-1,8.24,8.24,0,0,1-1.36-1.34l-.12-.14a8.43,8.43,0,0,1-1.2-1.73A7.79,7.79,0,0,1,213.2,296.48Zm-2.72-58.37A2,2,0,1,1,209.4,242c-2-.55-2.64-1.29-2.91-3.29a2,2,0,0,1,4-.57Zm-5.85,18.18a2,2,0,0,1-.89,3.79,2,2,0,0,1-.63-.1,3.61,3.61,0,0,1-2.29-2.34,4.64,4.64,0,0,1,0-2.59,2,2,0,1,1,3.87,1A1.66,1.66,0,0,0,204.63,256.29Zm3-33.68a2.29,2.29,0,0,1-1.13,2.85,2.06,2.06,0,0,1-1.07.06,2.62,2.62,0,0,1-1.68-1.51l-.23-1.08a2.39,2.39,0,0,1,1.13-2.74,1.85,1.85,0,0,1,2.75,1Zm10.69,13.77a2,2,0,0,1-3.71,1.5,2,2,0,0,0-.52-.84l-.31-.35a5.28,5.28,0,0,1-1-3,2,2,0,1,1,4-.42,3.89,3.89,0,0,0,.17.91l.11.11A5.73,5.73,0,0,1,218.35,236.38Zm-1.77,85.37a1.89,1.89,0,0,1-1,2.61,2,2,0,0,1-2.61-1.11c-.21-.52-.53-.45-.72-.64l-.31-.35c-.27-.39-.27-.4-.41-1.81a2,2,0,0,1,1.78-2.2,1.85,1.85,0,0,1,2.19,1.58,7,7,0,0,1,.07.71l.11.11A3.05,3.05,0,0,1,216.58,321.75Z" style="fill: #1d1d1b"/>
  </g>
</svg>
