<svg xmlns="http://www.w3.org/2000/svg" viewBox="0 0 500 500">
  <title>cat-right</title>
  <g>
    <path d="M168.53,291.67a.76.76,0,0,0,0,.15,3.79,3.79,0,0,0,.29.93,6,6,0,0,1,.21.64l.1.37a7.9,7.9,0,0,0,.43,1.3,4.21,4.21,0,0,1,.2.63,3.34,3.34,0,0,0,.19.65,2,2,0,0,0,.26.47,6.32,6.32,0,0,0,.76.87l.37.39a7.37,7.37,0,0,0,.78.69l.49.4a2.29,2.29,0,0,0,.5.3,3.07,3.07,0,0,0,.34.14,4,4,0,0,1,.75.34c.55.38,1,.68,1.49.95a3.11,3.11,0,0,1,.61.49,3.13,3.13,0,0,0,.47.4,1.75,1.75,0,0,0,.29.18l.63.32a10.59,10.59,0,0,0,1,.46l.16.08.38.17c.34.16.68.32.94.42a1.66,1.66,0,0,0,.38.11,3.5,3.5,0,0,0,.65.08,3.26,3.26,0,0,1,.78.13l.31.12.41.15c.24.1.57.22.9.33l.71.24c.28.1.62.22.94.31s.59.15.9.21l.27.06.51.12a4.93,4.93,0,0,1,.76.32,4.69,4.69,0,0,0,.78.32c.32.08.58.16.85.25a6.33,6.33,0,0,0,1,.27l.38.11.58.16.53.15.3,0h.27a3.19,3.19,0,0,0,.45,0,3.38,3.38,0,0,1,.84,0c.32.07.64.13,1,.17l.78.14a6,6,0,0,1,.77.24l.1,0a5.08,5.08,0,0,0,.74.21l.73.13,1,.18c.22,0,.44.08.66.13l.5.09.43.09a3,3,0,0,0,.85,0l.17,0a2.47,2.47,0,0,1,.82,0,5.6,5.6,0,0,1,.81.19l.22.06.6.14a3.17,3.17,0,0,1,.87.29l.46.19a2.27,2.27,0,0,0,1,.1l.27,0a2.81,2.81,0,0,1,.88,0,2,2,0,0,1,.79.37l.16.1a2.58,2.58,0,0,0,1.6.33h.36l.39,0,.19,0H211a3.79,3.79,0,0,0,.58-.05,2.24,2.24,0,0,1,.78,0,2.05,2.05,0,0,1,.77.38,2.5,2.5,0,0,0,.63.36l.35.11.55.13.31.09.57.15.15,0a2.65,2.65,0,0,0,.56.05h.48a2.62,2.62,0,0,1,.59.06l1.19.31.5.13a4.56,4.56,0,0,1,.72.27l0-.05.12,0,0,.06c.24.1.49.2.75.28a5.83,5.83,0,0,1,.58.17l.26.09c.24.08.52.18.81.25a6.05,6.05,0,0,0,.66.11H223l.14,0a4.13,4.13,0,0,1,.74.1l1.68.43a4.45,4.45,0,0,1,.7.24l.14.06a5.18,5.18,0,0,0,.67.25,2,2,0,0,0,.35.08,4.71,4.71,0,0,0,.53,0h.16a4.48,4.48,0,0,1,.8.07.45.45,0,0,0,.16,0,6.83,6.83,0,0,0,.74,0,4.3,4.3,0,0,1,.81.05,2.23,2.23,0,0,1,.74.34l.16.1a2.32,2.32,0,0,0,.85.33l.24,0,1.23.21a3.4,3.4,0,0,0,1.05,0h0a2.74,2.74,0,0,1,.73,0l.73.12c.3.06.6.11.9.14a11.62,11.62,0,0,0,1.17,0H239a4.77,4.77,0,0,1,.66.05h.11a5.61,5.61,0,0,0,.93,0c.24,0,.47,0,.7,0h.48a4.06,4.06,0,0,0,.56,0c.36,0,.8-.15,1.25-.26l.42-.1a3.81,3.81,0,0,0,.79-.31l.1-.05c.25-.12.45-.23.66-.31a4.69,4.69,0,0,0,.84-.42l.13-.08c.23-.14.38-.24.53-.32a3,3,0,0,1,.73-.24,3,3,0,0,0,.62-.2l.27-.13.49-.31a8.3,8.3,0,0,0,.95-.67l.15-.13a5,5,0,0,0,.53-.67l0-.05a5.62,5.62,0,0,1,.35-.44l.07-.08c.15-.16.33-.31.49-.45a5.38,5.38,0,0,0,.62-.59l.11-.14a5.54,5.54,0,0,0,.51-1,.31.31,0,0,0,.05-.1c.08-.17.15-.33.23-.49a9.89,9.89,0,0,0,.63-1.6c.06-.18.13-.38.21-.58s.25-.67.28-.8a2,2,0,0,0,.07-.54,5.29,5.29,0,0,0-.06-.65l0-.13s0-.07,0-.11a2.49,2.49,0,0,1-.07-.5c0-.1,0-.21,0-.31a2.82,2.82,0,0,0-.2-.65.5.5,0,0,0,0-.13,3.83,3.83,0,0,1-.22-.65,2.64,2.64,0,0,1,0-.68v-.33a2.26,2.26,0,0,0-.17-.85,14.3,14.3,0,0,0-.68-1.41,3.79,3.79,0,0,0-.63-.85l0,0a5.32,5.32,0,0,1-.37-.46,2.14,2.14,0,0,0-.13-.19,3.94,3.94,0,0,0-.5-.5,5.6,5.6,0,0,1-.55-.54,2.36,2.36,0,0,0-.61-1,2.18,2.18,0,0,0-1.06-.61,1.89,1.89,0,0,1-.66-.24,2.84,2.84,0,0,1-.52-.52,2.6,2.6,0,0,0-.24-.28,1.7,1.7,0,0,0-.45-.35,5.54,5.54,0,0,0-.64-.33c-.18-.08-.33-.14-.47-.22a2.28,2.28,0,0,0,1.42-.3,2.35,2.35,0,0,1,1,0,3,3,0,0,0,1.18-.07c.59-.19,1.14-.33,1.66-.46l.12,0,.1,0a3.32,3.32,0,0,0,.91-.45,2.41,2.41,0,0,1,.82-.38l.25,0a3.42,3.42,0,0,1,.78.12l.37.1a2.39,2.39,0,0,0,.8,0,3.48,3.48,0,0,0,.81-.26,2.48,2.48,0,0,1,.91-.26,18.12,18.12,0,0,1,2,.2l.21,0a2.14,2.14,0,0,0-.32.2,2.27,2.27,0,0,0-.87,1.67,10.13,10.13,0,0,0,1.9,6.24c2.16,2.95,5.71,4.5,10.27,4.5a16.54,16.54,0,0,0,3.3-.35,2.23,2.23,0,0,0,1.56-3.18,2.43,2.43,0,0,1,.46.27,4.4,4.4,0,0,1,.64.67l.16.18a6.49,6.49,0,0,0,.48.51l.63.53c.34.27.61.49.85.7a10.42,10.42,0,0,1,.71.79l.06.08.32.39a2.38,2.38,0,0,0,.45.39,4.67,4.67,0,0,0,.69.36l.05,0a2.67,2.67,0,0,1,.63.36,11.58,11.58,0,0,0,1.36.88l.22.15a3.06,3.06,0,0,1,.65.54l.09.1a2.42,2.42,0,0,0,.9.67l.12.05c.37.16.93.41,1.49.59a2.26,2.26,0,0,0,1.88-.21,2.4,2.4,0,0,0,.66-.61,2.23,2.23,0,0,0,.42.75,2.25,2.25,0,0,0,1.71.79c.4,0,.71.06,1,.06h.23a2.2,2.2,0,0,0,.72-.15,3.17,3.17,0,0,0,.6-.32,2.77,2.77,0,0,1,.72-.35,6.22,6.22,0,0,1,.75-.15l.19,0a2.26,2.26,0,0,0,1.87-2.54,17.39,17.39,0,0,0,.21-1.75,2.31,2.31,0,0,0,1,.71,2.25,2.25,0,0,0,2.45-.57,3.81,3.81,0,0,1,.5-.44l.18-.14a2.37,2.37,0,0,1-.61.28,2.26,2.26,0,0,0,1.3-1,11.41,11.41,0,0,0,.84-1.74,5.71,5.71,0,0,0,.27-1.21l0-.28a2.38,2.38,0,0,1,.06-.37,4.58,4.58,0,0,1,.17-.59l.05-.15c0-.08.08-.24.1-.31a2.19,2.19,0,0,0,.14-1.13,4.21,4.21,0,0,0-.15-.59l0-.11,0-.1a3.68,3.68,0,0,1-.19-.76,4.09,4.09,0,0,1,0-.69v-.05l0-.24a2.27,2.27,0,0,0,1,.58l.1,0,.41.13a1.35,1.35,0,0,0,.29.05l.55,0h.16l.68,0a4.62,4.62,0,0,0,.76,0H308l1.26.07.5,0,.15,0a3.84,3.84,0,0,0,1.07,0,3.23,3.23,0,0,0,.51-.14,3.06,3.06,0,0,1,.58-.12,3.2,3.2,0,0,1,.74.13l.09,0a2.36,2.36,0,0,0,.75.12l1.1,0h1.73a3.57,3.57,0,0,0,.71-.1l.11,0,.12,0a5.35,5.35,0,0,1,.55-.11l.51,0,.5,0a2.2,2.2,0,0,0,1.18-.45l.17-.13a2.28,2.28,0,0,1,.45-.29,4.61,4.61,0,0,0,1-.72l.18-.17a2.43,2.43,0,0,1,.41-.21,2.25,2.25,0,0,0,1.3-1.49,1.74,1.74,0,0,1,.18-.43h0c.09-.12.18-.26.26-.39a6.85,6.85,0,0,0,.52-.86,10.09,10.09,0,0,0,.58-1.3,11.25,11.25,0,0,0,.36-1.26l0-.13a2.51,2.51,0,0,1,.24-.6,2.3,2.3,0,0,0,.16-1.67l0-.11a2.94,2.94,0,0,1-.12-.52c0-.34-.08-.62-.13-.9l-.07-.46a1.41,1.41,0,0,1,0-.2c0-.18,0-.34,0-.47a2.6,2.6,0,0,0-.12-1.24,2.2,2.2,0,0,0-.15-.31,4.26,4.26,0,0,1-.19-.49.42.42,0,0,0,0-.1,3.44,3.44,0,0,0-.33-.67,2.51,2.51,0,0,1-.22-.43,2.06,2.06,0,0,1-.16-.65s0-.07,0-.11,0-.19,0-.28a2.35,2.35,0,0,0-.23-.57l-.45-.75-.19-.29a3.14,3.14,0,0,0-.41-.52c-.16-.18-.31-.35-.45-.54a4.08,4.08,0,0,1-.28-.5,5.68,5.68,0,0,0-.38-.64,7.74,7.74,0,0,0-.51-.61l-.09-.1-.18-.22c-.06-.06-.11-.13-.17-.18a2.19,2.19,0,0,0-.48-.37,2,2,0,0,1-.61-.46,2.29,2.29,0,0,1-.29-.54,2,2,0,0,1,.1.58,2.26,2.26,0,0,0-.46-1.27,5.29,5.29,0,0,1-.31-.53l0-.09a2.68,2.68,0,0,0-.36-.61,4.59,4.59,0,0,0-.51-.56,3.92,3.92,0,0,1-.35-.38l-.14-.16a4.57,4.57,0,0,0-.47-.38,3.57,3.57,0,0,1-.43-.38,1.93,1.93,0,0,1-.34-.52,1,1,0,0,0-.11-.17,1.53,1.53,0,0,0-.17-.27,1.57,1.57,0,0,0-.21-.24,2.57,2.57,0,0,0-.4-.34.54.54,0,0,0-.12-.09c-.16-.11-.31-.24-.46-.36a3.77,3.77,0,0,0-.5-.43,6.06,6.06,0,0,1-.54-.44,2.25,2.25,0,0,1-.37-.57,2.34,2.34,0,0,0-.74-.89l-.16-.12a2.24,2.24,0,0,1-.52-.41,5.4,5.4,0,0,1-.51-.72c-.1-.16-.18-.29-.27-.41a3.49,3.49,0,0,0-.45-.47,1.77,1.77,0,0,1-.46-.53,1.25,1.25,0,0,1-.1-.56,1.41,1.41,0,0,0,0-.2,2.3,2.3,0,0,0-.25-1,2.25,2.25,0,0,0-.12-.21,2.15,2.15,0,0,1-.17-.34,2.24,2.24,0,0,0-1.25-1.15,2.63,2.63,0,0,1,.19-.54,2.23,2.23,0,0,0,1-1.17c.58-.45,1.28-.83,2-1.39a2,2,0,0,0,.21-.2,2.3,2.3,0,0,0,1.32-.51l.24-.22c.18-.16.35-.29.51-.41a6.11,6.11,0,0,0,.68-.55l.28-.29c.27-.27.55-.55.81-.86l.17-.2a2.22,2.22,0,0,0,.52-1.8,2.35,2.35,0,0,0-.36-.93H316a2.53,2.53,0,0,0,.58-.07h.12a2.24,2.24,0,0,0,2-1.53.43.43,0,0,0,.05-.1c.07-.19.14-.36.21-.52l.06-.15a3.29,3.29,0,0,0,.17-.71,3.94,3.94,0,0,1,.15-.65,6.47,6.47,0,0,1,.26-.62,3.86,3.86,0,0,0,.34-.78,3.39,3.39,0,0,1,.26-.7l0-.06c0-.09.08-.2.11-.28a2.2,2.2,0,0,0,0-1.39,2,2,0,0,1-.14-.68,3,3,0,0,1,.14-.69,2.49,2.49,0,0,0,.14-.6,2.45,2.45,0,0,0,0-.27c0-.2,0-.4,0-.61a6.13,6.13,0,0,0,0-.63c0-.11,0-.22,0-.33s-.09-.5-.14-.73a5.64,5.64,0,0,1-.14-.8c0-.23,0-.38,0-.52v-.24c0-.14,0-.36,0-.58a2.34,2.34,0,0,0-.23-.85l-.09-.18a3.82,3.82,0,0,1-.35-.8,5.43,5.43,0,0,0-.22-.68l-.13-.33c-.05-.12-.1-.26-.15-.41l0-.09a3.83,3.83,0,0,1-.16-.58,3.82,3.82,0,0,0-.29-.92l-.14-.35c-.12-.31-.26-.65-.42-1a3.4,3.4,0,0,1-.23-.57l0-.07a4.46,4.46,0,0,0-.27-.71,1.14,1.14,0,0,0-.1-.19,6.36,6.36,0,0,0-.43-.59l-.2-.26c-.09-.12-.18-.23-.26-.35a5.81,5.81,0,0,0-.58-.73c-.12-.15-.26-.32-.39-.5a2.06,2.06,0,0,1-.29-.55c-.06-.16-.12-.29-.17-.4a2.26,2.26,0,0,0-.65-.79,3,3,0,0,0-.35-.23,2.93,2.93,0,0,1-.51-.39,5.57,5.57,0,0,1-.43-.49,6.16,6.16,0,0,0-.67-.72c-.12-.11-.3-.25-.49-.39l-.29-.21a3.8,3.8,0,0,1-.38-.29l-.47-.38-.76-.61a3.44,3.44,0,0,1-.51-.5l0,0-.19-.21a2.25,2.25,0,0,0-1.23-.61,2.31,2.31,0,0,1-.73-.21l-.58-.39a6.22,6.22,0,0,0-.73-.47,4.3,4.3,0,0,1-.57-.41,5.36,5.36,0,0,0-.62-.43,5.18,5.18,0,0,0-.74-.3l-.21-.07c-.15,0-.3-.1-.45-.15a2.24,2.24,0,0,0-2.68.87.93.93,0,0,1,0-.13,4.54,4.54,0,0,0,.29-1.05l.14-.68c.06-.37.14-.76.2-1.18l.13-.77c.06-.35.12-.71.17-1.07a6.62,6.62,0,0,0,0-1,6.39,6.39,0,0,1,0-.85,6.54,6.54,0,0,1,.17-.86,4.31,4.31,0,0,0,.17-1.06,7.9,7.9,0,0,0-.08-1.16v-.15a4.38,4.38,0,0,1,0-.5,16,16,0,0,0-.19-2l-.08-.62c0-.31-.11-.77-.14-.89a2.35,2.35,0,0,0-.23-.57,3.32,3.32,0,0,0-1.27-1.16l-.36-.25a5.58,5.58,0,0,0-1.44-.74L298,198l-.42,0c-.23,0-.67.05-1.05.09a6,6,0,0,0-1.78.55,9.45,9.45,0,0,0-1.57.88,14.25,14.25,0,0,0-1.46,1.12l-.58.44a4.66,4.66,0,0,0-.86.72,17.13,17.13,0,0,0-1.15,1.38c-.31.37-.62.81-.92,1.24l-.47.67c-.24.34-.49.7-.71,1.08a9.76,9.76,0,0,0-.5.92l-.08.16c-.08.15-.16.31-.23.46l-.06.12c-.24.46-.46.95-.67,1.43l-.08.19-.12.31a2.55,2.55,0,0,0-.13,1.13,4,4,0,0,0-.29.28,2.19,2.19,0,0,0-1.06-.74,4.32,4.32,0,0,0-.6-.11,13.24,13.24,0,0,0-1.9-.18h-.65c-.5,0-1,0-1.39.06a12.56,12.56,0,0,0-1.8.29,2.23,2.23,0,0,0-1.27.82c0-.17.08-.43.12-.71l0-.29a.5.5,0,0,0,0-.12,2.77,2.77,0,0,0,0-.5,7.26,7.26,0,0,1,.06-1.13,4.16,4.16,0,0,1,.19-.67l0-.11,0-.12a5.88,5.88,0,0,0,.2-.73,18.31,18.31,0,0,0,.28-2,14.3,14.3,0,0,0,.07-1.95,7,7,0,0,0-.29-1.55l-.1-.39a4.83,4.83,0,0,0-.91-1.66,3.7,3.7,0,0,0-1.53-1.21,5.49,5.49,0,0,0-1.87-.42,6.81,6.81,0,0,0-2,.12l-.11,0a3.84,3.84,0,0,0-.9.48l-.1.07a4.16,4.16,0,0,1-.55.34l-.42.24a9.05,9.05,0,0,0-1.26.79,18.92,18.92,0,0,0-1.45,1.36c-.15.16-.31.31-.47.46a9.08,9.08,0,0,0-.87.9l0,0a2.23,2.23,0,0,0-.31-2.18c-.31-.39-.59-.76-.87-1.1l-.06-.07-.47-.6-.28-.35c-.32-.41-.63-.79-.95-1.13a10.07,10.07,0,0,0-1.2-1c-.34-.26-.63-.49-.91-.75-.43-.4-.87-.73-1.35-1.11l-.21-.16c-.2-.15-.41-.3-.6-.46a11.78,11.78,0,0,1-.89-.84l-.21-.2a9.31,9.31,0,0,0-.93-.83,8.67,8.67,0,0,0-1.27-.71l-.1-.05a9.7,9.7,0,0,1-1.11-.58,6.61,6.61,0,0,1-.94-.77l-.09-.08a5.13,5.13,0,0,0-1.2-.94c-.42-.23-.93-.45-1.42-.66l-.23-.09c-.28-.12-.55-.23-.83-.37l-.67-.31c-.61-.29-1.24-.6-1.9-.86-.35-.14-.73-.34-1.06-.51l-.1-.05a8.76,8.76,0,0,0-1.36-.6,4.82,4.82,0,0,0-1.55-.18,6,6,0,0,1-1.26-.13,8.69,8.69,0,0,1-1.1-.44l-.12-.06a5.48,5.48,0,0,0-1.41-.52,12.47,12.47,0,0,0-1.46-.15h-.19l-1.13-.07c-.8-.1-1.8-.2-2.74-.22-.28,0-.52,0-.75,0l-.29,0a15,15,0,0,0-1.73,0,7,7,0,0,0-1.67.46l-.08,0a9.42,9.42,0,0,1-.95.3c-.42.1-.78.14-1.12.19l-.26,0a9.15,9.15,0,0,0-1.44.28,8.56,8.56,0,0,0-1.27.53l-.13.06a8.69,8.69,0,0,1-1.13.52l-1,.33c-.59.2-1.16.39-1.71.63l-.75.33c-.64.27-1.23.53-1.79.82a9.07,9.07,0,0,0-1.33.89l-.21.15c-.23.17-.48.35-.76.52a5.55,5.55,0,0,1-1.22.51,5.07,5.07,0,0,0-1.39.6c-.58.4-1.11.83-1.56,1.2l-.2.16-.46.37-.29.23c-.64.5-1.3,1-1.91,1.56a13.38,13.38,0,0,0-1.12,1.14c-.32.34-.58.62-.85.89s-.49.48-.74.71c-.44.4-.87.81-1.26,1.23a7.4,7.4,0,0,0-.85,1.24,7.3,7.3,0,0,1-.72,1.11,6.33,6.33,0,0,1-1,.89,5.44,5.44,0,0,0-1.11,1.08,8.89,8.89,0,0,0-.78,1.31l0,.07a10.87,10.87,0,0,1-.58,1l-.24.33-.37.54c-.16.21-.29.4-.43.6l-.14.2a2.52,2.52,0,0,0-.34.77,11.13,11.13,0,0,0-.66,1.29l-.11.22c-.13.27-.25.53-.4.78a5.35,5.35,0,0,1-.81,1l-.14.15a4.41,4.41,0,0,0-.77,1c-.15.29-.33.59-.51.88l-.06.12c-.25.41-.52.87-.74,1.33a7,7,0,0,0-.44,1.36,5.69,5.69,0,0,1-.35,1.18c-.17.4-.33.74-.5,1.08s-.44.9-.63,1.36-.3.81-.43,1.19l-.48,1.42c-.09.26-.21.55-.33.83l-.11.27c-.2.47-.39.91-.53,1.35a6.2,6.2,0,0,0-.21,1.46,5.32,5.32,0,0,1-.16,1.24,8.62,8.62,0,0,1-.46,1.15,6.83,6.83,0,0,0-.54,1.34q-.15.6-.33,1.17c-.16.52-.29,1-.38,1.39s-.14.69-.22,1l-.09.38a9.68,9.68,0,0,0-.27,1.3,4.28,4.28,0,0,0,.07,1.27v.11a4.88,4.88,0,0,1,.12,1.47,8.89,8.89,0,0,1-.29,1.27A9.19,9.19,0,0,0,185,240c-.05.54-.06,1-.07,1.55s0,.9,0,1.34,0,1.13,0,1.54,0,.83,0,1.27a7.32,7.32,0,0,1-.23,1.32,8.17,8.17,0,0,0-.25,1.45,9.08,9.08,0,0,0,.16,1.52,7.33,7.33,0,0,1,.16,1.35c0,.36,0,.66,0,1,0,.6,0,1.25,0,1.9s.08,1.55.15,2.33l.08,1.1c0,.76.1,1.49.18,2.2,0,.4.07.8.09,1.2,0,.59.07,1.13.14,1.61a12.26,12.26,0,0,0,.38,1.56c.12.44.22.81.3,1.2s.12.79.15,1.13l0,.18a10.4,10.4,0,0,0,.23,1.55c.09.37.16.79.23,1.21l0,.16a11.3,11.3,0,0,0,.29,1.38,5.55,5.55,0,0,0,.71,1.39,6.47,6.47,0,0,1,.63,1.18l.1.25c.3.85.58,1.62.91,2.4.16.38.33.74.51,1.1a2.27,2.27,0,0,0-1.65-.72,4.52,4.52,0,0,0-.53,0c-.09,0-.38.06-.69.13l-.14,0-.11,0c-.24.06-.48.12-.73.16s-.49,0-.75.06a5.68,5.68,0,0,0-1,.11c-.5.11-1,.23-1.51.37a2.13,2.13,0,0,0-.79.41l-.23.19a2.21,2.21,0,0,1-.69.45,3.92,3.92,0,0,1-.8.15,3,3,0,0,0-.44,0,2.21,2.21,0,0,0-.57.17,5.17,5.17,0,0,1-.63.21c-.41.12-.73.23-.87.29l-.16.08a3.2,3.2,0,0,0-.76.6l0,0a3.59,3.59,0,0,1-.56.44c-.2.12-.39.22-.58.31l-.17.09a8.7,8.7,0,0,0-.81.48c-.36.26-.74.56-1.15.92l-.21.17c-.14.12-.33.25-.51.38l-.1.06a4.36,4.36,0,0,0-.84.67,5.06,5.06,0,0,0-.6.84,5.44,5.44,0,0,1-.37.59,4.38,4.38,0,0,0-.46.78l-.07.16a.54.54,0,0,0-.05.11l-.24.5a9.36,9.36,0,0,0-.74,1.57,4.49,4.49,0,0,1-.24.56l0,.11a3.42,3.42,0,0,0-.31.75c0,.07,0,.15,0,.22A8.07,8.07,0,0,0,168.53,291.67Zm132.26-59c-2,4.19-6.69,5.68-10.47,5.68a16.62,16.62,0,0,1-2.11-.14,2.25,2.25,0,0,0-2.49,2.75,1.91,1.91,0,0,1,0,.21l0,.46v0l-.15.58-.19.39a4,4,0,0,1-.32.57l-.6.64-.26.19-.29.15-.1,0a3.56,3.56,0,0,1-.55.25l-.15.06-.56.17-.54.1-.22,0a2.29,2.29,0,0,0-1.73,1.31,2.24,2.24,0,0,0-1.8-1.52l-.14,0-.23,0a1.46,1.46,0,0,0-.19-.07l-.14,0h-.05l-.09,0-.06,0-.58-.26-.3-.15-.12-.05-.38-.26-.62-.43,0,0-.07-.07-.78-.88a4.42,4.42,0,0,1-.21-.56l-.07-.3a.59.59,0,0,0,0-.13c0-.25,0-.5,0-.76v-.1a2.27,2.27,0,0,0-.76-1.69,2.22,2.22,0,0,0-1.78-.54,15.37,15.37,0,0,1-10.45-2.71,2,2,0,0,0-.43-.24c-1.09-1.19-2.32-3-2.2-4.91a5.53,5.53,0,0,1,2.31-3.82,11.48,11.48,0,0,1,7.3-2.38,16.31,16.31,0,0,1,8.69,2.56,6.49,6.49,0,0,1,1.64,1.52,2.17,2.17,0,0,0,1.84.92,2.26,2.26,0,0,0,1.82-1c2.49-3.61,7.76-4,9.91-4a20.36,20.36,0,0,1,3.14.24,7.61,7.61,0,0,1,5.36,3.76A5,5,0,0,1,300.79,232.64Z" style="fill: #c4c4c6"/>
    <path d="M273.87,241a1.89,1.89,0,0,1,0-.41,3.23,3.23,0,0,1,.28-1c0-.08.08-.17.13-.25l.12-.19a2,2,0,0,1,.14-.25,3.24,3.24,0,0,1,.48-.6l.11-.12a2.79,2.79,0,0,1,.32-.28l0,0a2.27,2.27,0,0,1,.32-.22l.22-.12a2.08,2.08,0,0,1,.91-.35l.11,0,.28-.07.18-.07.5-.17.34-.09a2,2,0,0,1,.42-.06l.86,0a1.78,1.78,0,0,1,.46,0h.1l.39.06.28,0,.2,0,.28,0h.1l.52.07.37.1a3.75,3.75,0,0,1,.53.21l.29.14a2.65,2.65,0,0,1,.39.23,4,4,0,0,1,.49.36l.17.16.11.07a3.48,3.48,0,0,1,.69.57l.23.22a2.12,2.12,0,0,1,.29.38,1.92,1.92,0,0,1,.21.47l.05.11.05.14a2.48,2.48,0,0,1,.35,1l0,.23a1,1,0,0,1,0,.17,2.14,2.14,0,0,1-.08.91l-.05.13-.06.18a1.59,1.59,0,0,1-.09.39,2.27,2.27,0,0,1-.27.54l-.29.4a.76.76,0,0,1-.08.11h0a1.76,1.76,0,0,1-.29.33,1.49,1.49,0,0,1-.27.23l-.29.19-.12.08-.27.18-.1.06a1.9,1.9,0,0,1-.37.2l-.37.16-.3.12-.05,0-.28.09-.11,0-.41.1-.12,0h-.06a2,2,0,0,1-1,.27,14.88,14.88,0,0,0-2.84-.41l-.17-.09-.22-.12a1.16,1.16,0,0,1-.27-.14l-.09-.05-.24-.12h0a1,1,0,0,1-.24-.15l-.45-.3-.31-.2a1.69,1.69,0,0,1-.25-.2l-.21-.19c-.18-.19-.4-.4-.62-.61a1.55,1.55,0,0,1-.24-.27l0,0a3.27,3.27,0,0,1-.34-.44l-.06-.1-.12-.19a1.93,1.93,0,0,1-.31-1.06v-.18a1.82,1.82,0,0,1,0-.32Z" style="fill: #f3acc8"/>
    <path d="M196.07,256.62a2,2,0,0,1,1.42,2.34,3.58,3.58,0,0,0,.85,1.65,2,2,0,0,1-.63,3.9,1.85,1.85,0,0,1-.46-.05,4.79,4.79,0,0,1-2.78-2.37c-.32-.55-1.33-2.44-.87-4.08A2,2,0,0,1,196.07,256.62ZM224.55,197a2,2,0,0,0,1.65,3.65c.91-.42,1.87-.81,2.81-1.19l.9-.37a2,2,0,0,0-1.54-3.7l-.88.37C226.51,196.2,225.51,196.61,224.55,197Zm7,3.8a2,2,0,0,0,1.14,2.58,2,2,0,0,0,.72.14,2,2,0,0,0,1.87-1.29c0-.09.21-.19.69-.43a7.15,7.15,0,0,0,1.5-.93,2,2,0,0,0-2.56-3.07,4.17,4.17,0,0,1-.73.42A4.75,4.75,0,0,0,231.51,200.84Zm44.76,41.31.09.09Zm1.47,4.63.25.05c0,.26,0,.5,0,.71,0,.4,0,.76,0,1.09a2.07,2.07,0,0,0-.91,1.51l-.35.27a8.26,8.26,0,0,0-1.38,1.21c-.29.33-.59.64-.89.94a11.1,11.1,0,0,0-2.35,3.06,2.1,2.1,0,0,0,1,2.8,2,2,0,0,0,.89.2,2.09,2.09,0,0,0,1.9-1.2,7.39,7.39,0,0,1,1.54-1.9c.37-.37.73-.74,1.08-1.14a4.1,4.1,0,0,1,.71-.59c.22-.17.48-.37.75-.61a25.53,25.53,0,0,0,1.75,2,11.2,11.2,0,0,1,2.12,2.67,2.11,2.11,0,0,0,1.89,1.17,2.17,2.17,0,0,0,.92-.21,2.1,2.1,0,0,0,1-2.81,14.85,14.85,0,0,0-2.85-3.73,13.5,13.5,0,0,1-2-2.39,2.64,2.64,0,0,1-.59-2.12c0-.22,0-.45,0-.72l.23,0,.69-.13.8-.23a9.06,9.06,0,0,0,1.07-.48l.41-.21c.14-.08.41-.29.61-.44l.16-.13.08-.07,0,0,0,0h0l.12-.14.17-.19.17-.2.09-.1.12-.19a6.26,6.26,0,0,0,.5-.88l.24-.52a7.21,7.21,0,0,0,.27-1l.05-.28,0-.42V241a3.33,3.33,0,0,0-.1-.62c5.78.79,12.33-1.25,14.92-6.82,2.42-5.24-2-10.63-7.22-11.47s-12.06.08-15.25,4.7a8.54,8.54,0,0,0-2.22-2.07c-5.35-3.49-13.45-4.29-18.64,0-4.46,3.65-3.83,8.27-.28,12.06a1.76,1.76,0,0,0,.71.48A17.46,17.46,0,0,0,272,240.36v0c0,.35,0,.7,0,1l0,.19h0v.11l0,.15.06.29a7.53,7.53,0,0,0,.39,1l.06.12,0,.07,0,0h0a.83.83,0,0,0,.11.17l.09.11.17.21c.07.08.1.13.19.22l.27.28.28.27.06.06,0,0,.14.13h0l.1.07.77.54.18.12.27.18h0l0,0,.1,0,.36.17.64.29.18.08h.06l.07,0,.14,0,.25.07A4.58,4.58,0,0,0,277.74,246.78Zm6.57-5v-.08h0v0Zm-.08-.35.06.31v.07c-.06.18-.12.35-.17.52a.33.33,0,0,0,0,.12.08.08,0,0,1,0,.05l-.08.11-.15.21-.1.15,0,0h0l0,0s0,0-.07.08l-.38.25c-.07.06-.27.17-.4.26l-.34.14-.16.07h0l-.11,0-.3.1-.39.1-.34.09h0l-.25.13a2,2,0,0,0-.84-.18h0a2,2,0,0,0-.81.17l0,0-.43-.24-.17-.09c-.06,0-.08,0-.25-.13l-.24-.12-.08-.05H278l-.07,0,0,0,.1,0-.56-.37-.26-.17-.15-.14-.66-.64h0l0,0-.09-.1-.09-.1s-.09-.13-.14-.2l-.12-.19h0s0,0,0-.06l0-.29v-.13h0V241s0,.05,0,.07a.25.25,0,0,0,0-.17c.1-.6.07-.3.15-.55l.17-.28,0,0h0l0,0a1.22,1.22,0,0,1,.24-.31l.14-.15.06,0a.9.9,0,0,0,.12-.1l.31-.17.1-.07h.14a1,1,0,0,1,.24-.07l.34-.09c.28-.09.39-.15.62-.22l.34-.09.7,0h.19l.16,0c.05,0,.38.05.6.08a5.81,5.81,0,0,0,.65.06l.35,0,.12,0,.11,0a1,1,0,0,1,.23.08l.32.16.07,0,0,0a2.08,2.08,0,0,1,.3.21,4.33,4.33,0,0,0,.47.38,2,2,0,0,1,.42.34l.22.22s.06.16.09.23l.11.3.06.11C284.13,241.13,284.21,241.13,284.23,241.39Zm-24.12-9.78c-.27-2.7,1.83-4.6,4.28-5.34a12.24,12.24,0,0,1,1.74-.4,10.32,10.32,0,0,0-1.16,5.35,10.79,10.79,0,0,0,1.31,5,11.09,11.09,0,0,1-4.32-2.11,1.22,1.22,0,0,0-.19-.12C261.05,233.27,260.22,232.67,260.11,231.61Zm12.78,4.64-.74.12a10.37,10.37,0,0,0,1.14-5.33,10.62,10.62,0,0,0-1.29-5,11.71,11.71,0,0,1,3.59,1.51C280,230.41,277.45,235.27,272.89,236.25Zm13.6.06c-2.73-1.16-5.73-3.64-3.26-7a9.48,9.48,0,0,1,4.65-3.22,10.41,10.41,0,0,0-1.15,5.34,10.55,10.55,0,0,0,1.44,5.24,12.63,12.63,0,0,1-1.48-.33Zm6.76-10.81a10,10,0,0,1,1.37.24c3.55.87,7.43,4.66,3.64,8.07a11.8,11.8,0,0,1-4.18,2.44,10.61,10.61,0,0,0,1-5A10,10,0,0,0,293.25,225.5Zm-54.79,26.86a4.12,4.12,0,0,0-1.55.16,4.78,4.78,0,0,0-1.19.64l-.27.18a5.34,5.34,0,0,0-1,.45L234,254c-.31.12-.61.26-.91.41s-.36.18-.55.25h0c0-.15,0-.29,0-.44.05-.66.1-1.33.13-2a5.16,5.16,0,0,1,.11-.54c.06-.25.11-.55.16-.86l.23,0c.29-.07.57-.16.85-.25s.42-.13.63-.17a6.17,6.17,0,0,1,.62-.11c.3,0,.6-.08.9-.15a3.7,3.7,0,0,0,1.48-.75h.05a4.25,4.25,0,0,0,1.44,0l.61-.11a.92.92,0,0,0,0,.2,4.65,4.65,0,0,0,.6,1.4,4.75,4.75,0,0,0,.62.74,7.61,7.61,0,0,0-.92.17,7.8,7.8,0,0,0-1.07.41l-.36.17A.69.69,0,0,0,238.46,252.36ZM262,297.07a8,8,0,0,1-1.47-4.85l.16,0a2.43,2.43,0,0,1,.25.2,5,5,0,0,0,1.4.89c.32.12.66.21,1,.3a4.76,4.76,0,0,1,.75.24,6.58,6.58,0,0,0,1.3.41c.14,0,.33.07.45.11l.14.17a5.92,5.92,0,0,0,1.19,1.09c.2.14.42.27.65.41s.58.36.88.58.38.31.57.47.55.48.84.7l.71.5.79.58a7.31,7.31,0,0,1,.59.52c.26.24.52.48.8.7l.3.22a14,14,0,0,1-2.85.3C266.65,300.64,263.73,299.4,262,297.07Zm-1.75-49.42a1.45,1.45,0,0,1-.36,0,5.82,5.82,0,0,0-1.24,0c-.22,0-.45.06-.67.09l-.91.13q-.46.07-.93.18l-.63.12a5.09,5.09,0,0,0-1.24.42c-.1,0-.2.1-.3.13h-.38a5.27,5.27,0,0,0-1.2.08l-1.56.32a9.61,9.61,0,0,0-1,.32,3.71,3.71,0,0,1-.47.16,6.13,6.13,0,0,0-1.13.39l-.22.1-.07,0a3.75,3.75,0,0,0-1.75-.07,3.52,3.52,0,0,0-.65.24,6.81,6.81,0,0,0-.49-.77,7.85,7.85,0,0,0-.7-.76l-.12-.12a4.36,4.36,0,0,0,.91-.42h0a4.09,4.09,0,0,0,1.57.18,5.68,5.68,0,0,0,1.14-.26l.42-.11a4.28,4.28,0,0,1,.62,0c.33,0,.66,0,1,0a4.19,4.19,0,0,0,1.44-.42l.19-.09.36,0a5.49,5.49,0,0,0,1.2.07,3.44,3.44,0,0,1,.55,0c.31,0,.67,0,1.06,0a9,9,0,0,0,1.06-.15,5,5,0,0,1,.54-.08l.28.07a4.86,4.86,0,0,0,1.34.17,4.37,4.37,0,0,0,1.48-.37l.18-.07.31.06a4.87,4.87,0,0,0,1.24.14l-.44.14A3.13,3.13,0,0,1,260.27,247.65Zm1.85-.43.39-.12.19-.06a1.41,1.41,0,0,1,.22.06l.51.15-.13.09h0A4.71,4.71,0,0,0,262.12,247.22Zm44.37.79a8.08,8.08,0,0,0,1,.19,4.14,4.14,0,0,0,1.48-.11l.21,0,.34.11a6.27,6.27,0,0,0,1.14.29,5.82,5.82,0,0,0,1.16,0,3.34,3.34,0,0,1,.43,0l.83.1.63.07.17.1.22.13-.19.21c-.22.26-.46.5-.71.75l-.25.26a4.8,4.8,0,0,1-.39.31c-.24.17-.48.36-.71.56l-.18.17a2.14,2.14,0,0,1-.32-.15,5.77,5.77,0,0,0-1.15-.48,5.62,5.62,0,0,0-1.3-.15h-.35c-.16,0-.35-.12-.53-.18s-.65-.24-1-.33a2.92,2.92,0,0,1-.36-.16,5.75,5.75,0,0,0-1.14-.45l-1-.23-.65-.16a5.48,5.48,0,0,0-1.26-.12,3.94,3.94,0,0,1-.44,0,4.23,4.23,0,0,1-.58-.17,9.44,9.44,0,0,0-1-.29,2.3,2.3,0,0,1-.32-.15,5.17,5.17,0,0,0-1.3-.48l-1.05-.16h-.1l.07,0,.17-.08h1.34l.17.08a3.88,3.88,0,0,0,1.58.44,7.21,7.21,0,0,0,1.1-.06,3.76,3.76,0,0,1,.52,0,5.1,5.1,0,0,0,1.34-.13,1.92,1.92,0,0,1,.32-.05,4.69,4.69,0,0,1,.52.12,7,7,0,0,0,1,.2C306.1,247.92,306.29,248,306.49,248Zm11.7-7.27,0,.09a5.36,5.36,0,0,0-.38,1,3,3,0,0,1-.18.38,7.32,7.32,0,0,0-.37.87,5.67,5.67,0,0,0-.25,1,2,2,0,0,1-.07.35c-.09.2-.18.42-.27.65l-.07.18-.42.05-.14,0-.1-.06a4,4,0,0,0-1.47-.59q-.48-.08-1-.12c-.22,0-.44,0-.66-.08a7.14,7.14,0,0,0-1.2,0,3.34,3.34,0,0,1-.43,0,3.13,3.13,0,0,1-.4-.12,5.6,5.6,0,0,0-1.18-.3,4.18,4.18,0,0,0-1.48.11l-.23,0-.49-.11a8.36,8.36,0,0,0-1-.2,2.33,2.33,0,0,1-.44-.1,7.39,7.39,0,0,0-1.27-.24,4.58,4.58,0,0,0-1.37.12,2.25,2.25,0,0,1-.36.06,6.71,6.71,0,0,0-1.15.06c-.14,0-.27,0-.41,0l-.16-.07a4.14,4.14,0,0,0-1.64-.45h-1.69a3.86,3.86,0,0,0-1.69.44l-.12.05-.33-.05a5.55,5.55,0,0,0-1.24-.13,2,2,0,0,0-1.92,2.08,2,2,0,0,0,.76,1.49,2,2,0,0,0,0,4,5.39,5.39,0,0,0,1.18-.05,2.51,2.51,0,0,1,.41,0l.72.08c.29,0,.58.06.87.12l.8.11c.27,0,.54.07.81.12a2.15,2.15,0,0,1,.31.15,5.6,5.6,0,0,0,1.24.46,5,5,0,0,1,.63.19c.31.1.62.19.93.26a6.34,6.34,0,0,0,1.27.13h.38l.69.16.89.22a3.58,3.58,0,0,1,.39.17,6.4,6.4,0,0,0,1.11.44,4.56,4.56,0,0,1,.59.2,8.6,8.6,0,0,0,.9.29l-.18.08a.74.74,0,0,0-.2,0,5.4,5.4,0,0,0-1.17.35,4.77,4.77,0,0,0-1,.63l-.24.17a5.63,5.63,0,0,0-.92.46,3.14,3.14,0,0,1-.31.18,2.2,2.2,0,0,0,.67,4.29,2.27,2.27,0,0,0,.67-.1,5.71,5.71,0,0,0,1.21-.58l.3-.17a4.61,4.61,0,0,0,1.24-.72l.08-.06c.11.24.22.44.31.6l0,0s0,0,0,0a3.8,3.8,0,0,0,.33,1.73,4.18,4.18,0,0,0,1,1.25.52.52,0,0,1,.11.1c.06.08.11.17.16.25a7,7,0,0,0,.71,1,4.4,4.4,0,0,0,1,.85l.08.06,0,0a4.22,4.22,0,0,0,.84,1.21c.21.2.45.39.69.58a2.3,2.3,0,0,1,.34.28,8,8,0,0,0,.71.57c.08.07.17.12.24.19l.08.13a4.42,4.42,0,0,0,.67,1,6,6,0,0,0,.76.68,1.66,1.66,0,0,1,.21.16c.14.17.32.36.5.54a3.59,3.59,0,0,1,.32.35,2.27,2.27,0,0,1,.17.31,5.91,5.91,0,0,0,.54.9,1.2,1.2,0,0,0,.06.17,4.85,4.85,0,0,0,.6,1.08,4.12,4.12,0,0,0,1.23,1l.05,0c.12.15.25.29.38.44s.23.26.34.4a2.53,2.53,0,0,1,.2.36,8.19,8.19,0,0,0,.45.77c.18.25.38.48.58.71a1.94,1.94,0,0,1,.23.27l.15.23c.14.23.28.46.41.69,0,0,0,.08,0,.12a4.14,4.14,0,0,0,.29,1.19,6.53,6.53,0,0,0,.37.75,1.87,1.87,0,0,1,.17.31,8.47,8.47,0,0,0,.32.81l.08.16a6,6,0,0,0-.08.87,3.56,3.56,0,0,0,0,.55l0,.19c.05.33.11.67.15,1a5.26,5.26,0,0,0,.24,1.06,4.67,4.67,0,0,0-.43,1.11,10.8,10.8,0,0,1-.31,1.15,10.45,10.45,0,0,1-.48,1.06,5.2,5.2,0,0,1-.4.65l-.28.41a3.76,3.76,0,0,0-.45,1.05,3.82,3.82,0,0,0-1.05.62l-.11.1a3.27,3.27,0,0,1-.56.44,4.83,4.83,0,0,0-.85.55l-.12.09-.42,0-.66.05a6.52,6.52,0,0,0-.84.16,4.4,4.4,0,0,1-.45.08h-1.33c-.37,0-.67,0-1,0h-.53l-.18-.06a4.31,4.31,0,0,0-1.5-.21,4.83,4.83,0,0,0-1.15.23l-.18.05a3.42,3.42,0,0,1-.45,0c-.26,0-.52-.05-.78-.05l-1.24-.06c-.35,0-.64,0-.93,0a3.69,3.69,0,0,1-.47,0l-.75,0c-.2,0-.39,0-.58,0l-.19-.07-.23-.07a5.16,5.16,0,0,0-.64-1.27,3.37,3.37,0,0,1-.19-.32s0-.24,0-.39a4.85,4.85,0,0,0-.32-1.59,4.74,4.74,0,0,0-1-1.4l-.2-.21a2.66,2.66,0,0,1,0-.28,4.21,4.21,0,0,0-.47-1.69A5,5,0,0,0,301,283.6c-.11-.11-.29-.27-.34-.33a9.89,9.89,0,0,0-.93-1.11l-.42-.47a13.61,13.61,0,0,0-1-1l-.45-.44c-.15-.15-.29-.31-.43-.47a12.89,12.89,0,0,0-1-1l-.45-.41c-.34-.32-.69-.64-1.07-.94a7.6,7.6,0,0,0-1.2-.72,5,5,0,0,1-.55-.3,1,1,0,0,0-.13-.22,4.44,4.44,0,0,0-1.28-1.3,3.69,3.69,0,0,0-.53-.26c1.8-.09,3.75-.1,6,0a47.31,47.31,0,0,1,13.24,2.81l.85.28a2,2,0,1,0,1.23-3.81l-.8-.26c-1.33-.45-3.34-1.13-5.75-1.73a5.63,5.63,0,0,0-1.23-6.23,2,2,0,1,0-2.8,2.86c.46.45.72.86.07,2.55a37.4,37.4,0,0,0-4.7-.47,59.07,59.07,0,0,0-12.85.8h0a5.28,5.28,0,0,0-1.51-.3,2.6,2.6,0,0,1-.49-.06,3.24,3.24,0,0,1-.42-.23,5,5,0,0,0-2.86-.83,3.56,3.56,0,0,1-.55,0l-.35-.18a4.84,4.84,0,0,0-1.52-.61,5.68,5.68,0,0,0-1.51-.06,3.19,3.19,0,0,1-.51,0c-.1,0-.32-.1-.5-.16a5.51,5.51,0,0,0-1.45-.39,5.73,5.73,0,0,0-1.54.08,3.35,3.35,0,0,1-.47.06,5.9,5.9,0,0,0-1.47.11l-.42.06-.2-.11a4.08,4.08,0,0,0-1.89-.55,2,2,0,0,0-.95.25A37.27,37.27,0,0,0,251.11,271a2,2,0,0,0,.79,3.83,2,2,0,0,0,.79-.16,34.79,34.79,0,0,1,13.33-2.2,2,2,0,0,0,.85-.15h0a4.25,4.25,0,0,0,1.76.54,6.36,6.36,0,0,0,1.33-.12c.18,0,.43-.06.52-.06a5.53,5.53,0,0,0,1.41-.1l.46-.06a3.32,3.32,0,0,1,.51.17,6.62,6.62,0,0,0,1.28.36,6.35,6.35,0,0,0,1.36,0,5,5,0,0,1,.5,0l.36.19a5,5,0,0,0,1.36.57A6.11,6.11,0,0,0,279,274a3.26,3.26,0,0,1,.53,0,3,3,0,0,1,.45.24,5.79,5.79,0,0,0,1.22.59,6.71,6.71,0,0,0,1.37.24,3.75,3.75,0,0,1,.47.05c.06,0,.26.18.39.27a5.33,5.33,0,0,0,1.18.71c.5.22,1,.45,1.46.68l.18.09c.31.15.59.32.87.49l.71.4a4.63,4.63,0,0,0,1.49.48,2.61,2.61,0,0,1,.27.06,1.43,1.43,0,0,1,.14.2,4.56,4.56,0,0,0,1.13,1.19,7,7,0,0,0,1,.57,3.78,3.78,0,0,1,.57.33,10.27,10.27,0,0,1,.78.68l.55.51a6.59,6.59,0,0,1,.62.65c.19.22.38.43.58.64l.55.53a9,9,0,0,1,.69.69l.53.6a6,6,0,0,1,.61.71,6.5,6.5,0,0,0,.94,1l.24.22a1.36,1.36,0,0,1,0,.2,4.63,4.63,0,0,0,.42,1.6,5,5,0,0,0,.85,1.16c.07.08.15.15.22.24s0,.22,0,.34a5.24,5.24,0,0,0,.22,1.34,5.6,5.6,0,0,0,.63,1.23,2,2,0,0,1,.17.27,2.77,2.77,0,0,1,0,.39,6.07,6.07,0,0,0,0,1.23,5.59,5.59,0,0,0,.3,1.25c0,.14.1.32.11.39l-.16.46c-.1.32-.21.65-.28,1s-.08.51-.12.76a4.4,4.4,0,0,1-.14.75,9.35,9.35,0,0,1-.68,1.39l-.28.21a6.1,6.1,0,0,0-.8.71c-.08-3.42-1.17-6.55-3-8.21a2,2,0,1,0-2.69,2.95c1.24,1.13,2.13,4.46,1.48,8.06a2.09,2.09,0,0,0,0,.66l-.17,0a9.79,9.79,0,0,0-1,.19,4.94,4.94,0,0,0-1.3.59,2.19,2.19,0,0,1-.29.17,5.85,5.85,0,0,1-.79,0l-.3,0c.54-3.39.86-7.31-2.58-9.81A2,2,0,1,0,286,299.5c1.53,1.11,1.44,3,1,6-.42-.14-.87-.33-1.34-.54l-.12-.05a1.65,1.65,0,0,0-.22-.24,5.35,5.35,0,0,0-1.07-.89l-.22-.14a10.14,10.14,0,0,1-1.16-.75,5.72,5.72,0,0,0-1.15-.67,3.3,3.3,0,0,1-.38-.19l-.31-.37a9,9,0,0,0-1-1.08q-.42-.37-.9-.75l-.59-.49c-.09-.08-.23-.25-.37-.41a6.27,6.27,0,0,0-1-1,5.3,5.3,0,0,0-1.36-.76,2.55,2.55,0,0,1-.38-.16c-.17-.14-.35-.31-.53-.48a10.66,10.66,0,0,0-.89-.77c-.31-.24-.63-.47-.94-.69l-.61-.43a7,7,0,0,1-.59-.49c-.3-.26-.59-.51-.89-.73s-.74-.5-1.09-.71l-.54-.34a3.31,3.31,0,0,1-.41-.42,4.17,4.17,0,0,0-1.13-1,5.86,5.86,0,0,0-1.57-.54,3.45,3.45,0,0,1-.48-.13,8.77,8.77,0,0,0-1.44-.49,3.8,3.8,0,0,1-.6-.18l-.26-.21a4.33,4.33,0,0,0-1.66-1,12.7,12.7,0,0,0-1.67-.31l-.53-.08a19.09,19.09,0,0,0-2.23-.23,4.32,4.32,0,0,0-1.9.41,1.66,1.66,0,0,1-.35.13l-.3-.08a4.68,4.68,0,0,0-1.86-.13,4.43,4.43,0,0,0-1.69.7,2.31,2.31,0,0,1-.36.2l-.1,0c-.57.14-1.16.29-1.8.49l-.28,0a4.24,4.24,0,0,0-2,.18,2.55,2.55,0,0,0-.33.17l-.42-.18a4.37,4.37,0,0,1-.46-.18c-.15-.06-.29-.14-.43-.21a9.72,9.72,0,0,0-1-.47c-.5-.19-1-.36-1.53-.53s-.87-.24-1.32-.35l-.23-.06a5.89,5.89,0,0,0-1.27-.14h-.27l-.16-.08a4.54,4.54,0,0,0-1.41-.5h-.1a2.06,2.06,0,0,0-.23-.37c-1.27-1.56-1.44-4.5-.4-6.83.37-.83,1.57-2.91,2.45-4.42.44-.77.82-1.44,1-1.86a26,26,0,0,0,3.35-9.35,2,2,0,0,0-4-.5,22,22,0,0,1-2.89,7.93c-.22.4-.59,1-1,1.78l-.07.12a38.16,38.16,0,0,0-8.47.21c.37-.6.71-1.2,1-1.8.09-.18.2-.36.31-.54a9.61,9.61,0,0,0,.7-1.33,4.42,4.42,0,0,0,.28-1.88V268c.14-.41.25-.82.37-1.25.05-.21.11-.43.17-.64s.13-.28.21-.43a6.26,6.26,0,0,0,.61-1.47c.1-.41.17-.84.25-1.27,0-.24.08-.48.13-.72q.12-.64.21-1.29c0-.24.07-.47.11-.7a4.88,4.88,0,0,1,.16-.66c.06-.2.11-.42.17-.65l.32-.1a2.54,2.54,0,0,1,.49-.15,7.13,7.13,0,0,0,1-.31c.27-.11.53-.23.79-.36s.4-.2.6-.28a9.23,9.23,0,0,0,.9-.42,2.69,2.69,0,0,1,.48-.24,4.56,4.56,0,0,0,1.12-.62l.17-.11h.15a4.16,4.16,0,0,0,1.46-.13,9.11,9.11,0,0,0,.94-.38,3.5,3.5,0,0,1,.46-.19,4.17,4.17,0,0,1,.51-.09,6.59,6.59,0,0,0,1-.18c.21-.06.42-.1.64-.14s.58-.11.87-.19h0a5.33,5.33,0,0,0,.78.87l.31.28c.33.29.66.58,1,.84a7.7,7.7,0,0,0,1.07.64c.14.08.28.15.42.24a13.27,13.27,0,0,0,1.17.64l.35.18.12.13a4.75,4.75,0,0,0,1.33.91,4.41,4.41,0,0,0,1.63.29h.21c.47.14.93.23,1.33.32l.31.06.31.12a5.34,5.34,0,0,0,1.4.38l.25,0a2.2,2.2,0,0,0,.27-4.39,1.63,1.63,0,0,1-.31-.11,6.23,6.23,0,0,0-1-.32l-.35-.07c-.32-.07-.64-.13-1-.23a4.92,4.92,0,0,0-1.34-.19h-.05l-.06,0a5,5,0,0,0-1-.78l-.4-.2c-.28-.14-.55-.28-.82-.45s-.45-.26-.69-.39l.35-.14a2.65,2.65,0,0,1,.39-.15,9.82,9.82,0,0,0,1-.31,2.81,2.81,0,0,1,.49-.16l1.52-.32h.38a5.64,5.64,0,0,0,1.17-.08,5.15,5.15,0,0,0,1.19-.4,1.69,1.69,0,0,1,.31-.13L257,252l.76-.15.75-.1.79-.1a2,2,0,0,1,.34,0,5.08,5.08,0,0,0,1.23,0,5.66,5.66,0,0,0,1.09-.29l.35-.11.2,0a4,4,0,0,0,1.45.1,3.41,3.41,0,0,0,1.59-.69,4.23,4.23,0,0,0,1.47.14,2,2,0,0,0,.28-3.93,2,2,0,0,0-1.37-3.45l-.58,0a8.11,8.11,0,0,0-1,0l-.22-.07a4.47,4.47,0,0,0-1.5-.27,4.57,4.57,0,0,0-1.37.28,1.58,1.58,0,0,1-.31.09l-.29-.06a5.74,5.74,0,0,0-1.3-.15,4.24,4.24,0,0,0-1.46.37l-.2.07-.22-.06a5.12,5.12,0,0,0-1.38-.17,7.76,7.76,0,0,0-1.09.15,5,5,0,0,1-.54.08,5,5,0,0,1-.54,0,6.45,6.45,0,0,0-1.1,0l-.44,0a5.6,5.6,0,0,0-1.22-.07,4.14,4.14,0,0,0-1.48.43l-.21.09c-.18,0-.35,0-.53,0-.35,0-.7,0-1,0a5.62,5.62,0,0,0-1.23.28l-.31.09-.19-.05a3.37,3.37,0,0,0-3.06.38l-.1.06-.13,0a7.88,7.88,0,0,0-.82-.07l-.1-.1c-.09-.23-.16-.45-.23-.68s-.11-.37-.18-.56c-.12-.35-.21-.7-.3-1l-.08-.31c-.07-.28-.18-.56-.28-.85-.05-.13-.11-.28-.14-.39l0-.16a4.6,4.6,0,0,0,.08-1.35,6.12,6.12,0,0,0-.18-1,4,4,0,0,1-.08-.4,8.54,8.54,0,0,1,0-1l.05-.69c0-.35,0-.71.1-1.08s.06-.57.08-.86a4.51,4.51,0,0,1,.05-.6,2.22,2.22,0,0,1,.15-.32,7,7,0,0,0,.41-1.05,4.25,4.25,0,0,1,.21-.56,7.85,7.85,0,0,0,.32-.8,4,4,0,0,0,.17-1.6v0l.07-.09a5.55,5.55,0,0,0,.7-1.06c.21-.42.44-.84.68-1.26.14-.26.26-.49.38-.74a4.68,4.68,0,0,1,.3-.59,6.54,6.54,0,0,1,.41-.51l.5-.63a5,5,0,0,0,.6-1.12l.08-.18L246,223a4.55,4.55,0,0,0,1.11-.84,7,7,0,0,0,.51-.58c.15-.17.3-.35.47-.51s.4-.4.59-.62a4.57,4.57,0,0,1,.44-.44,2.74,2.74,0,0,1,.34-.19,6.77,6.77,0,0,0,.94-.56,8.49,8.49,0,0,1,.77-.5l.46-.3c.1-.06.29-.14.47-.23a8.32,8.32,0,0,0,.85-.41c.23-.13.45-.28.67-.42a5.8,5.8,0,0,1,.59-.36,4.24,4.24,0,0,0,1.15-.88l.14-.13c.2-.09.42-.16.63-.23l.16-.06a2.24,2.24,0,0,0,1.1.88,2.43,2.43,0,0,0,.74.12,2.19,2.19,0,0,0,2.07-1.46c.08-.22.16-.44.23-.67l.18-.5a2.21,2.21,0,0,0,.67-1.62c.1-.21.2-.43.29-.64.25-.56.52-1.12.79-1.68s.55-1.1.84-1.64c.16-.28.3-.58.44-.87a6.94,6.94,0,0,1,.39-.77,4.8,4.8,0,0,1,.47-.6,10.44,10.44,0,0,0,.66-.83c.17-.25.33-.51.49-.77a7.64,7.64,0,0,1,.49-.73,7,7,0,0,1,.67-.68c.19-.18.38-.36.56-.55a13.28,13.28,0,0,1,1.21-1.14,8,8,0,0,1,1.05-.65l.27-.15a6.81,6.81,0,0,0,.73-.45,4.08,4.08,0,0,1,.49-.3,5,5,0,0,1,1.26,0,3.31,3.31,0,0,1,1.14.26,1.43,1.43,0,0,1,.6.51,2.59,2.59,0,0,1,.51.88l.07.25a6.25,6.25,0,0,1,.24,1.17,11.83,11.83,0,0,1-.06,1.66,17.71,17.71,0,0,1-.25,1.76,5.62,5.62,0,0,1-.17.58,6.88,6.88,0,0,0-.31,1.14,9.42,9.42,0,0,0-.08,1.39c0,.13,0,.24,0,.35-.05.33-.09.69-.13.83a2.2,2.2,0,0,0,3.79,2.25,2.69,2.69,0,0,0,.19-.38,11.63,11.63,0,0,1,1.49-.24,16.89,16.89,0,0,1,1.79,0,13.18,13.18,0,0,1,1.7.17l.22,0a2.2,2.2,0,0,0,3.37.06,2.25,2.25,0,0,0,.61-.69,2.14,2.14,0,0,0,.22-1.39c0-.08.05-.15.08-.21l.09-.21c.19-.44.39-.89.61-1.32.09-.18.18-.37.28-.55a10.72,10.72,0,0,1,.5-.95c.2-.33.42-.65.64-1l.37-.53c.3-.43.6-.87.92-1.26s.72-.91,1.07-1.28a3.35,3.35,0,0,1,.52-.41c.26-.19.52-.39.76-.59a11.24,11.24,0,0,1,1.22-.93,7.07,7.07,0,0,1,1.21-.68,4.1,4.1,0,0,1,1.11-.37,5.94,5.94,0,0,1,.89-.07,4.43,4.43,0,0,1,1,.54l.3.2a2.79,2.79,0,0,1,.52.38c0,.08.06.41.09.66l.09.64a14.09,14.09,0,0,1,.16,1.66c0,.29,0,.61.07.93a5.65,5.65,0,0,1,.06.88,3.13,3.13,0,0,1-.11.53,7.44,7.44,0,0,0-.25,2.33,4.56,4.56,0,0,1,0,.66c-.06.45-.14.9-.21,1.33l-.08.46c-.07.45-.15.87-.22,1.25l-.11.55a2.16,2.16,0,0,1-.16.6,7.12,7.12,0,0,0-.34,1.14,2.2,2.2,0,0,0,1.7,2.61,2.4,2.4,0,0,0,.46,0,2.19,2.19,0,0,0,2.1-1.59c.21.08.42.16.63.22a3.54,3.54,0,0,1,.49.18,2.1,2.1,0,0,1,.3.22,6.58,6.58,0,0,0,.92.63,4.78,4.78,0,0,1,.5.33c.23.16.46.32.7.47a4.06,4.06,0,0,0,1.54.5l.07.08a5.57,5.57,0,0,0,.88.86c.33.25.64.51.95.76l.18.15c.2.17.43.33.65.49s.34.24.49.38a4,4,0,0,1,.43.48c.17.2.34.4.52.58a5.4,5.4,0,0,0,1,.79.57.57,0,0,1,.13.08.5.5,0,0,1,0,.13,4.75,4.75,0,0,0,.63,1.18c.16.21.32.41.49.61a4.87,4.87,0,0,1,.4.5c.16.24.34.46.51.69a4.83,4.83,0,0,1,.34.45,3.2,3.2,0,0,1,.13.38,6.29,6.29,0,0,0,.37.95c.14.29.26.58.37.86l.18.44a2.75,2.75,0,0,1,.14.51,7.24,7.24,0,0,0,.24.83c.08.25.17.47.25.68a4.83,4.83,0,0,1,.21.6,5.65,5.65,0,0,0,.53,1.29l.07.13c0,.17,0,.35,0,.53s0,.55,0,.83a8.37,8.37,0,0,0,.18,1.13c0,.18.08.37.11.57a4.06,4.06,0,0,1,0,.42c0,.28,0,.55,0,.82a1.41,1.41,0,0,1-.06.22,5.14,5.14,0,0,0-.23,1.17A3.87,3.87,0,0,0,318.19,240.74ZM214,218.31a7,7,0,0,0-2,.18,4.66,4.66,0,0,0-1.77,1,1.43,1.43,0,0,1-.24.19c-.06,0-.21.06-.35.11a5.37,5.37,0,0,0-1.64.71,5,5,0,0,0-1.24,1.34,3.3,3.3,0,0,1-.22.3l-.4.35a9.24,9.24,0,0,0-1.12,1.08c-.1.13-.22.26-.33.39a12.9,12.9,0,0,0-.95,1.2,5.56,5.56,0,0,0-.68,1.45l-.09.26-.13.09a4.09,4.09,0,0,0-1.39,1.42,11.5,11.5,0,0,0-.5,1.07c-.1.22-.18.43-.29.63-.23.42-.46.82-.68,1.2l-.19.32a2.2,2.2,0,0,0,3.81,2.21l.18-.31c.25-.43.51-.88.77-1.36.16-.3.3-.62.44-1,.07-.18.15-.35.23-.53l.13-.08a4.46,4.46,0,0,0,1.35-1.34,6,6,0,0,0,.53-1.22,3,3,0,0,1,.15-.39c.16-.23.39-.5.63-.79s.27-.3.4-.46a4.54,4.54,0,0,1,.58-.54l.58-.51a6,6,0,0,0,.79-1l.18-.25.34-.1a7.74,7.74,0,0,0,1.06-.38,5.64,5.64,0,0,0,1.16-.8l.17-.15a4.65,4.65,0,0,1,.66,0h.78a7,7,0,0,1,1.49.13,8.08,8.08,0,0,0,.86.1c.2,0,.43,0,.58.07l.15.16a5.22,5.22,0,0,0,1.18,1,4.83,4.83,0,0,0,1.68.54l.16,0,.23.32a10.14,10.14,0,0,0,.76.94,11.48,11.48,0,0,1,.9,1.07l.23.29c.21.26.44.51.68.76a6.12,6.12,0,0,1,.45.5c0,.08,0,.17.05.26a4.73,4.73,0,0,0,.51,1.64,6.51,6.51,0,0,0,.83,1.12,3,3,0,0,1,.29.36c0,.05.06.29.09.47a6.77,6.77,0,0,0,.32,1.3c.11.31.25.61.39.91a6.38,6.38,0,0,1,.31.75,6.9,6.9,0,0,0,.48,1.16,3.83,3.83,0,0,1,.23.52,7.17,7.17,0,0,1,.11.81c0,.34.07.68.13,1l.09.51c.08.43.16.87.22,1.33,0,.17,0,.43,0,.7a9.14,9.14,0,0,0,0,1.17,5.56,5.56,0,0,0,.42,1.53,2.35,2.35,0,0,1,.14.37c0,.56.06,1.19.08,1.83l0,.57c0,.24,0,.48,0,.73l-1.21.32c-.07,0-.26,0-.42.05a4.91,4.91,0,0,0-1.15.18,5.3,5.3,0,0,1-.55.1,8.65,8.65,0,0,0-1,.22l-.89.29-.62.2a6,6,0,0,0-1.16.55,2.19,2.19,0,0,1-.29.17l-.6.18-.9.29a3.52,3.52,0,0,1-.52.12,7.81,7.81,0,0,0-1,.28,6,6,0,0,0-1.08.54,3.12,3.12,0,0,1-.35.2l-.58.21c-.32.11-.64.22-.94.35a8.42,8.42,0,0,0-1.07.59,2.77,2.77,0,0,1-.37.22,2,2,0,0,0,.89,3.8,2,2,0,0,0,.88-.21,5.85,5.85,0,0,0,.75-.44c.19-.11.37-.23.5-.29l.68-.25c.23-.08.47-.16.71-.26a5.44,5.44,0,0,0,.94-.48,2.9,2.9,0,0,1,.41-.22,3.89,3.89,0,0,1,.49-.12,7.23,7.23,0,0,0,1-.26l.78-.24.67-.21a4.83,4.83,0,0,0,1.09-.52,3.14,3.14,0,0,1,.31-.18l.73-.24.72-.23a4.29,4.29,0,0,1,.54-.11,8.35,8.35,0,0,0,1-.2,2.68,2.68,0,0,1,.4-.05l.74-.09s0,.06,0,.09c0,.63-.08,1.25-.13,1.88a12,12,0,0,0,0,1.2,4.08,4.08,0,0,1,0,.69c0,.22,0,.44,0,.66h0l-.79.38-.62.31-.24,0a4.06,4.06,0,0,0-2.41,1.15c-.08.06-.15.14-.24.2a8.9,8.9,0,0,0-.82.47,2.77,2.77,0,0,1-.37.22h-.12a3.61,3.61,0,0,0-1.64.35,8.94,8.94,0,0,0-.8.44c-.19.11-.38.22-.58.32a6.27,6.27,0,0,0-1,.66,2.19,2.19,0,0,1-.33.24,6,6,0,0,0-.93.6c-.15.11-.3.22-.39.27a2,2,0,0,0,.9,3.78,2.08,2.08,0,0,0,.9-.21,7,7,0,0,0,1-.62,2.4,2.4,0,0,1,.37-.25,6.27,6.27,0,0,0,1-.66,2.26,2.26,0,0,1,.31-.23c.28-.14.54-.29.81-.45l.42-.24h.14a3.85,3.85,0,0,0,1.62-.35,8.1,8.1,0,0,0,.85-.49,4.85,4.85,0,0,1,.49-.29,5,5,0,0,0,1.09-.76l.23-.2a.84.84,0,0,0,.21,0l.25-.05c0,.09,0,.18,0,.27l-.15.85c-.06.33-.11.66-.19,1a3,3,0,0,1-.22.45,6.31,6.31,0,0,0-.55,1.26c-.07.25-.13.5-.2.75s-.18.68-.29,1a5,5,0,0,0-.22,1.73,2.26,2.26,0,0,1,0,.26c-.09.18-.22.4-.36.63s-.33.56-.47.84c-.25.48-.51,1-.81,1.45l-.25.17a5.16,5.16,0,0,0-1.15,1,5.07,5.07,0,0,0-.76,1.37l-.09.21a9.22,9.22,0,0,1-1.13.75,3.87,3.87,0,0,1-.75.2l-.59.14a2.13,2.13,0,0,0-1,.63l-1.54.48a2,2,0,0,0,.6,3.91,1.8,1.8,0,0,0,.6-.1l1.93-.59h0a2.08,2.08,0,0,0,.55-.07l.43-.1a6.47,6.47,0,0,0,2-.68l.1-.05c.46-.13.85-.23,1.09-.28a44.42,44.42,0,0,1,10-1c-.15.3-.29.57-.39.79a12,12,0,0,0-.45,8.46l-.29,0a6.85,6.85,0,0,0-1.19-.12,3.67,3.67,0,0,0-1.62.43h0l-.13,0a5.76,5.76,0,0,0-1.21-.1,4.73,4.73,0,0,1-.53,0c-.31,0-.63,0-1,0l-.46,0a6.81,6.81,0,0,0-1,0,6.67,6.67,0,0,0-1.09.18,2.21,2.21,0,0,1-.37.08,5.58,5.58,0,0,0-1.18.25,1.29,1.29,0,0,1-.28.08l-2.73.26-.12,0a4.14,4.14,0,0,0-1.5-.17,5.12,5.12,0,0,0-1.25.32l-.23.08-.77.1-.6.08c-.32,0-.63.09-1,.15a4,4,0,0,1-.48.09,4.64,4.64,0,0,1-.53,0c-.31,0-.61,0-.91,0s-.53.05-.8.09l-.63.07-.78.08-.49.06-.12,0a4.13,4.13,0,0,0-1.47-.21c-.48,0-.95,0-1.42,0l-.9,0a9.29,9.29,0,0,1-1.26-.13c-.33-.07-.67-.11-1-.15a6.15,6.15,0,0,1-1.33-.26l-.66-.22a9.88,9.88,0,0,1-1.57-.62,10.12,10.12,0,0,1-1.37-1l-.56-.43a17.37,17.37,0,0,1-1.76-1.61,14.62,14.62,0,0,1-1.1-1.36l-.4-.53a11.32,11.32,0,0,1-.71-1.19c-.16-.3-.33-.61-.51-.92-.5-.84-.93-1.6-1.3-2.34s-.8-1.58-1.16-2.42-.59-1.5-.88-2.31l-.08-.21a8.16,8.16,0,0,0-.85-1.62,4.69,4.69,0,0,1-.45-.81,12.43,12.43,0,0,1-.26-1.3c-.08-.47-.16-.93-.27-1.39a8.08,8.08,0,0,1-.17-1.24c-.05-.44-.1-.95-.2-1.47s-.22-.94-.35-1.41a10.93,10.93,0,0,1-.31-1.26c-.06-.42-.09-.9-.12-1.39s0-.9-.1-1.35c-.08-.7-.13-1.41-.18-2.11l-.08-1.12c-.06-.75-.11-1.51-.14-2.26,0-.6,0-1.2,0-1.79,0-.33,0-.65,0-1a9.73,9.73,0,0,0-.19-1.73,6.77,6.77,0,0,1-.13-1.05,6,6,0,0,1,.18-1,8.81,8.81,0,0,0,.3-1.77c0-.47,0-.94,0-1.41s0-.91,0-1.36,0-1,0-1.43,0-.91.06-1.36a7.28,7.28,0,0,1,.24-1.06,10.06,10.06,0,0,0,.38-1.67,6.91,6.91,0,0,0-.13-2.05,4.53,4.53,0,0,1-.08-.79,10.84,10.84,0,0,1,.26-1.18c.1-.42.21-.86.3-1.32s.19-.75.32-1.18.26-.86.37-1.31a4.92,4.92,0,0,1,.35-.84,10,10,0,0,0,.63-1.58,8.06,8.06,0,0,0,.24-1.71,4.1,4.1,0,0,1,.11-.91c.11-.35.28-.75.46-1.17s.35-.82.5-1.25l.33-1c.17-.49.33-1,.52-1.48s.36-.81.56-1.21.37-.76.54-1.16a8,8,0,0,0,.49-1.57,5,5,0,0,1,.29-.94c.17-.36.39-.74.63-1.14s.45-.75.65-1.14a4.28,4.28,0,0,1,.51-.61,6.91,6.91,0,0,0,1.14-1.45c.23-.39.42-.81.62-1.22a10,10,0,0,1,.55-1.09,2,2,0,0,0,.25-.61l.53-.76c.22-.3.43-.61.65-.92a13.51,13.51,0,0,0,.77-1.32,6.71,6.71,0,0,1,.6-1,4.2,4.2,0,0,1,.7-.64,8.38,8.38,0,0,0,1.29-1.21,9.21,9.21,0,0,0,.93-1.41,5.81,5.81,0,0,1,.57-.86c.33-.36.72-.72,1.13-1.1s.54-.5.8-.76.59-.61.87-.92a13.94,13.94,0,0,1,1-1c.66-.58,1.39-1.15,2.07-1.69l.74-.59c.47-.39.92-.75,1.37-1.06a4.11,4.11,0,0,1,.82-.32,7.91,7.91,0,0,0,1.68-.72c.44-.26.83-.56,1.18-.81a8,8,0,0,1,1-.69c.54-.28,1.12-.53,1.74-.8l.68-.29c.45-.2.95-.37,1.48-.55.34-.11.68-.22,1-.35a12.5,12.5,0,0,0,1.36-.61,7.23,7.23,0,0,1,1.08-.47,7.82,7.82,0,0,1,1.19-.21c.44-.06.93-.12,1.44-.24a10.67,10.67,0,0,0,1.34-.42,5.18,5.18,0,0,1,1.05-.32,12,12,0,0,1,1.44,0c.37,0,.74,0,1.11,0,.82,0,1.71.11,2.57.21.4,0,.81.06,1.22.08a11.16,11.16,0,0,1,1.39.13,4,4,0,0,1,.86.35,10.27,10.27,0,0,0,1.6.63,7.77,7.77,0,0,0,1.82.2,3.28,3.28,0,0,1,.85.07,7.51,7.51,0,0,1,1.12.51c.42.22.84.43,1.28.61.66.26,1.31.58,2,.91l.41.19c.37.18.74.33,1.12.49s.92.39,1.3.6a4.11,4.11,0,0,1,.72.6,9.4,9.4,0,0,0,1.35,1.1,11.54,11.54,0,0,0,1.33.7,8.29,8.29,0,0,1,1,.54,10.09,10.09,0,0,1,.88.81c.31.31.66.66,1.06,1s.58.45.87.67.83.64,1.18,1,.7.6,1.07.89a9.23,9.23,0,0,1,.95.81c.36.38.7.83,1.07,1.29l.58.74c.28.34.56.7.84,1.06-.14.21-.27.41-.38.6l-.36.57a6.12,6.12,0,0,1-.4.49,8.19,8.19,0,0,0-.87,1.15,10.65,10.65,0,0,0-.62,1.2c-.1.21-.2.42-.31.63-.33.59-.63,1.2-.93,1.8s-.59,1.22-.86,1.83l-.27.59a3.71,3.71,0,0,0-.5.13,9.47,9.47,0,0,0-1.08.46,4.31,4.31,0,0,1-.49.22l-.54.19c-.36.13-.72.26-1.06.41a4.47,4.47,0,0,0-1.33,1l-.15.15c-.32.17-.62.36-.92.55l-.45.29-.45.21a7.52,7.52,0,0,0-1.08.56l-.41.26c-.35.22-.7.44-1,.68a2.53,2.53,0,0,1-.36.2,6,6,0,0,0-1.13.71,10.42,10.42,0,0,0-.88.86,4,4,0,0,1-.34.37,9.26,9.26,0,0,0-.83.89,4.32,4.32,0,0,1-.34.39l-.17.1a4.32,4.32,0,0,0-1.24,1,5.07,5.07,0,0,0-.75,1.31l-.12.27c-.08.11-.2.24-.31.38a7.91,7.91,0,0,0-1.31,2l-.23.46c-.3.53-.57,1-.82,1.53,0,.07-.12.15-.18.23a4.92,4.92,0,0,0-.78,1.24,4.09,4.09,0,0,0-.24,1.81v.12a3.65,3.65,0,0,1-.14.35,7.57,7.57,0,0,0-.41,1.12c0,.13-.11.24-.16.37a5.33,5.33,0,0,0-.46,1.26,9.79,9.79,0,0,0-.15,1.27,3.44,3.44,0,0,1,0,.46c-.07.49-.11,1-.14,1.43l0,.63c0,.43-.07.92-.06,1.45a6.46,6.46,0,0,0,.2,1.33c0,.11.06.22.08.33s0,.13,0,.2a4.46,4.46,0,0,0,0,1.63,7.71,7.71,0,0,0,.36,1.21,3.89,3.89,0,0,1,.16.44l.07.3c.12.45.25.91.4,1.36l.15.45a.88.88,0,0,0,0,.15,3.32,3.32,0,0,0-.86.07,3.67,3.67,0,0,0-1.5.75l-.1.08-.43.06c-.32.05-.65.09-1,.17l-.53.15v-.39c0-.68,0-1.36-.09-2a5.4,5.4,0,0,0-.45-1.69,2.09,2.09,0,0,1-.13-.35c0-.17,0-.4,0-.63a9,9,0,0,0-.05-1.34c-.07-.53-.16-1-.25-1.53l-.08-.48q-.06-.36-.09-.72a10.11,10.11,0,0,0-.2-1.32,6.2,6.2,0,0,0-.57-1.5,3,3,0,0,1-.2-.45,11.52,11.52,0,0,0-.54-1.37,5.46,5.46,0,0,1-.27-.6,4.83,4.83,0,0,1-.1-.5,5.92,5.92,0,0,0-.44-1.59,5.74,5.74,0,0,0-1-1.4l-.26-.31a2.47,2.47,0,0,1-.06-.29,4.53,4.53,0,0,0-.64-1.86,8.58,8.58,0,0,0-1-1.2c-.15-.16-.29-.3-.42-.46l-.21-.27a16.94,16.94,0,0,0-1.21-1.42,3.79,3.79,0,0,1-.34-.45,6.73,6.73,0,0,0-1.14-1.28,4.22,4.22,0,0,0-2.1-.82l-.19,0-.15-.17a4.41,4.41,0,0,0-1.69-1.27,6.4,6.4,0,0,0-1.9-.37c-.17,0-.35,0-.51-.06a11.55,11.55,0,0,0-2.45-.19Zm-3.11,89.44a6.06,6.06,0,0,0-1.25-.05h-.3l-.1-.06a4.15,4.15,0,0,0-1.67-.72,4.89,4.89,0,0,0-1.5,0l-.27,0-.27-.12a5.43,5.43,0,0,0-1.36-.44c-.21,0-.42-.1-.62-.15a9.6,9.6,0,0,0-1.06-.25,4.73,4.73,0,0,0-1.53,0l-.31,0-.72-.14-.86-.17-.71-.12c-.33-.06-.65-.11-1-.18a3.35,3.35,0,0,1-.54-.16,8.92,8.92,0,0,0-1.11-.32l-.85-.15c-.28,0-.55-.09-.83-.15a5.14,5.14,0,0,0-1.49-.05,1.67,1.67,0,0,1-.32,0l-.67-.19-.89-.24A5.31,5.31,0,0,1,190,304c-.31-.1-.61-.19-.92-.27a3.72,3.72,0,0,1-.41-.18,6.74,6.74,0,0,0-1.17-.47c-.3-.08-.6-.14-.9-.21s-.5-.1-.74-.17-.57-.18-.85-.28l-.73-.25c-.28-.09-.55-.19-.82-.3l-.74-.28a5.45,5.45,0,0,0-1.42-.26,1.66,1.66,0,0,1-.32,0c-.23-.09-.53-.23-.82-.37l-.61-.28c-.31-.13-.61-.29-.9-.44l-.55-.28c-.07-.05-.15-.14-.24-.22a6,6,0,0,0-1-.8c-.46-.26-.89-.54-1.31-.83a5.1,5.1,0,0,0-1.21-.59l-.26-.1-.31-.25a9.52,9.52,0,0,1-.75-.65l-.27-.28a7.66,7.66,0,0,1-.65-.72,1.57,1.57,0,0,1-.08-.31,6.2,6.2,0,0,0-.35-1.06,7.27,7.27,0,0,1-.34-1.08l-.06-.24c-.08-.3-.19-.6-.3-.9a2.72,2.72,0,0,1-.15-.41,6.26,6.26,0,0,1,0-1.3s.1-.23.17-.37.26-.57.36-.86a8.25,8.25,0,0,1,.58-1.22c.12-.22.23-.45.33-.68a5,5,0,0,1,.31-.59,7.32,7.32,0,0,0,.52-.8,3.25,3.25,0,0,1,.31-.46,2.81,2.81,0,0,1,.44-.32c.27-.19.55-.38.81-.59l.25-.21a12,12,0,0,1,1-.77,7.42,7.42,0,0,1,.68-.39c.24-.12.47-.24.71-.38a6.13,6.13,0,0,0,1-.78,1.37,1.37,0,0,1,.29-.25l.54-.18a6.52,6.52,0,0,0,1-.33l.3,0a6.08,6.08,0,0,0,1.32-.26,4.53,4.53,0,0,0,1.45-.9l.13-.11c.46-.13.94-.24,1.41-.34a3.51,3.51,0,0,1,.65-.06c.32,0,.65,0,1-.08a8.33,8.33,0,0,0,1-.22c.23-.05.47-.11.6-.12h.28l.44.89c.42.83.89,1.68,1.44,2.6.16.26.3.52.43.77a13.82,13.82,0,0,0,1.08,1.75l.37.49a15.81,15.81,0,0,0,1.5,1.83l.34.35a4.16,4.16,0,0,0-.54,0h-.09c-.26-.08-.5-.18-.74-.27l-.33-.13c-.3-.11-.59-.24-.88-.38l-.31-.14a2.2,2.2,0,0,0-1.82,4l.28.14c.39.18.79.36,1.2.51l.3.11c.39.15.79.3,1.2.42a3.87,3.87,0,0,0,1.57.11,3.65,3.65,0,0,0,1.48.67,4.55,4.55,0,0,0,1.5,0l.17,0q.47.06.93.09l.38,0,.13.06a4.32,4.32,0,0,0,1.48.42,4,4,0,0,0,1.54-.24,4,4,0,0,0,1.49.34,4.8,4.8,0,0,0,1.34-.2,1.05,1.05,0,0,1,.24-.06,7.65,7.65,0,0,0,.89-.06l.52-.05H206l.36,0,.55,0H207a2.12,2.12,0,0,0,.57-.09h.88l.12,0a4.11,4.11,0,0,0,1.52.22l.87-.09.59-.06.86-.1.6-.07h.52c.31,0,.63,0,1,0s.65-.09,1-.15a2.7,2.7,0,0,1,.48-.09l.84-.11.59-.08a4.41,4.41,0,0,0,1.25-.32l.11,0h0a4.2,4.2,0,0,0,1.5.16l2.85-.26a5.91,5.91,0,0,0,1.17-.26l.27-.08a5.36,5.36,0,0,0,1-.18,2.21,2.21,0,0,1,.37-.08,3.62,3.62,0,0,1,.46,0,7.69,7.69,0,0,0,1,0H228c.28,0,.56,0,.83,0a1.6,1.6,0,0,1,.29.05,6.65,6.65,0,0,0,1.13.1,4,4,0,0,0,1.58-.43l.23,0a8.2,8.2,0,0,0,1,.11h.59c.28,0,.55,0,.82,0a1.27,1.27,0,0,1,.3.09,5.92,5.92,0,0,0,1.08.23,5.12,5.12,0,0,0,1.12,0h.23l.14.07a4.74,4.74,0,0,0,1.22.46,5.9,5.9,0,0,0,1.1.09c.11,0,.22,0,.32,0l.21.05c.37.09.73.18,1.08.29s.87.28,1.29.44a6.54,6.54,0,0,1,.6.28c.21.1.41.21.62.3l.68.28a5.83,5.83,0,0,1,.58.23c.21.12.43.22.65.32a3.88,3.88,0,0,1,.46.22l.09.11a4.52,4.52,0,0,0,1,.94,4,4,0,0,0,1.43.6h0a2.39,2.39,0,0,0,.39.76,7,7,0,0,0,.81.82,2.4,2.4,0,0,1,.28.27,7.9,7.9,0,0,0,.63.8,2.26,2.26,0,0,1,.29.36,12.83,12.83,0,0,1,.6,1.23v.26a4.88,4.88,0,0,0,.1,1.25,6.16,6.16,0,0,0,.33,1,2.79,2.79,0,0,1,.12.34,6.81,6.81,0,0,0,.1.79c0,.16.06.42.06.5s-.12.34-.19.51-.19.5-.27.75a7.58,7.58,0,0,1-.49,1.25l-.27.58a5.1,5.1,0,0,1-.34.67,4.91,4.91,0,0,1-.37.34,8.18,8.18,0,0,0-.68.64,6.92,6.92,0,0,0-.63.78,4.47,4.47,0,0,1-.29.38,8.16,8.16,0,0,1-.73.5l-.43.27-.24.07a5.26,5.26,0,0,0-1.3.46c-.2.11-.39.23-.58.35a3.85,3.85,0,0,1-.61.33,9.28,9.28,0,0,0-.85.39,4.78,4.78,0,0,1-.47.21l-.28.07c-.42.1-.82.2-1.19.25a4.08,4.08,0,0,1-.61,0c-.31,0-.62,0-.93,0l-.61,0a7.45,7.45,0,0,0-1-.07h-.7a8.81,8.81,0,0,1-.89,0,5.35,5.35,0,0,1-.68-.11l-.9-.14a5.73,5.73,0,0,0-1.36.05,2.09,2.09,0,0,1-.34,0L233,313l-.24,0-.18-.11a4.48,4.48,0,0,0-1.48-.64,6,6,0,0,0-1.27-.1h-.41a6.46,6.46,0,0,0-1.29-.13h-.4l-.48-.19a8.55,8.55,0,0,0-1.1-.39l-.54-.14-1.1-.27a6.39,6.39,0,0,0-1.23-.19l-.47-.06c-.23-.06-.46-.14-.69-.22s-.62-.21-.93-.29a3.86,3.86,0,0,1-.51-.2,7.29,7.29,0,0,0-1.11-.41c-.58-.15-1.13-.3-1.68-.43a5.06,5.06,0,0,0-1.47-.13,1.82,1.82,0,0,1-.33,0l-.56-.15c-.31-.08-.62-.17-.94-.24a.6.6,0,0,1-.13-.09,4.37,4.37,0,0,0-1.69-.77,5,5,0,0,0-1.5,0A1.23,1.23,0,0,1,210.89,307.75Zm-1.09,4.35a2.67,2.67,0,0,1,.4,0,5.47,5.47,0,0,0,1.52,0l.12,0,.08.05a4,4,0,0,0,1.57.74l.82.2.79.21a5.48,5.48,0,0,0,1.33.11,1.53,1.53,0,0,1,.37,0l1.6.41a4.78,4.78,0,0,1,.48.19,7,7,0,0,0,1.12.42l.67.21c.31.11.63.21,1,.3a7.28,7.28,0,0,0,1.23.19,3.83,3.83,0,0,1,.49.06l1.14.29.53.14a2.78,2.78,0,0,1,.48.18,8.09,8.09,0,0,0,1.16.41,6,6,0,0,0,1.37.13h.15l.24,0a5.74,5.74,0,0,0,1.35.12h.34l.16.1a4.71,4.71,0,0,0,1.56.65l.35.06,1.4.24a5.23,5.23,0,0,0,1.51,0,1,1,0,0,1,.33,0l.57.09a9,9,0,0,0,1.18.17c.42,0,.84,0,1.26,0,.19,0,.37,0,.56,0a4.91,4.91,0,0,1,.55,0,7.51,7.51,0,0,0,1.3.06,5,5,0,0,1,.55,0h.53a5.91,5.91,0,0,0,.82,0,15.6,15.6,0,0,0,1.63-.33l.27-.07a6.56,6.56,0,0,0,1.43-.56,3.62,3.62,0,0,1,.4-.19,7.3,7.3,0,0,0,1.38-.72l.39-.23.24-.05a4.55,4.55,0,0,0,1.58-.64l.41-.26a12.31,12.31,0,0,0,1.2-.85,6.36,6.36,0,0,0,1-1.16,2.48,2.48,0,0,1,.27-.35c.1-.11.22-.21.34-.32a6.13,6.13,0,0,0,1.08-1.12,8.41,8.41,0,0,0,.77-1.41c.06-.14.12-.28.19-.41a12.65,12.65,0,0,0,.77-1.94,2.86,2.86,0,0,1,.15-.41,6.58,6.58,0,0,0,.47-1.64,6.17,6.17,0,0,0-.08-1.66,3.87,3.87,0,0,1-.06-.46,5.28,5.28,0,0,0-.41-1.61A2.58,2.58,0,0,1,256,301s0-.12,0-.22a4.68,4.68,0,0,0-.27-1.81c-.06-.17-.13-.33-.2-.49a6.25,6.25,0,0,1,2.23.09,2.3,2.3,0,0,0,.51.1q.22.38.48.75c2.45,3.36,6.6,5.21,11.68,5.21a17.39,17.39,0,0,0,6.67-1.31l.21.18a6.37,6.37,0,0,1,.59.65c.2.24.38.47.58.67a5,5,0,0,0,1.5,1c.13.07.32.15.38.19a13.08,13.08,0,0,0,1.58,1.05l.21.13a3.13,3.13,0,0,1,.28.27,4.86,4.86,0,0,0,1.46,1.09l.11,0a17.69,17.69,0,0,0,1.93.75l.54.18a9.77,9.77,0,0,0,1.59.45,8.52,8.52,0,0,0,1.65.06h.57c.19,0,.38,0,.58,0s.67.06,1,.06l.63,0a4.64,4.64,0,0,0,1.8-.69,2.27,2.27,0,0,1,.34-.19l.5-.08a6.23,6.23,0,0,0,1.66-.44l.48-.2a8.14,8.14,0,0,0,1.58-.77,13.6,13.6,0,0,0,1.83-1.39,4.23,4.23,0,0,0,1-1.62,2.32,2.32,0,0,1,.16-.36l.27-.2a4.63,4.63,0,0,0,1.31-1.36,14.25,14.25,0,0,0,1-2,7.73,7.73,0,0,0,.38-1.66c0-.17,0-.33.07-.49s.1-.34.15-.5a6.06,6.06,0,0,0,.37-1.62l.35,0,.52,0a8.18,8.18,0,0,0,1,0h.45l1.45.06.44,0a7.2,7.2,0,0,0,1,.06,4.91,4.91,0,0,0,1.29-.23l.1,0,.09,0a4.44,4.44,0,0,0,1.33.23h3a6.48,6.48,0,0,0,1.25-.19,3.06,3.06,0,0,1,.4-.07l.42,0h.12a2.09,2.09,0,0,0,.79.15,2.59,2.59,0,0,0,.47-.05,49.6,49.6,0,0,1,6.73-.61,29.39,29.39,0,0,0,5.52-.52c1.38-.37,4.59-1.24,4.18-3.9s-5.69-3.52-9-3.73c.08-.31.16-.61.22-.89a.65.65,0,0,0,.09-.14,4.38,4.38,0,0,0,.5-1.57,4.19,4.19,0,0,0-.26-1.75,1.72,1.72,0,0,1-.07-.21c0-.37-.1-.79-.17-1.21v-.07a.5.5,0,0,0,0-.12,3.8,3.8,0,0,0,0-1.56,5.78,5.78,0,0,0-.44-1.18c0-.09-.09-.18-.12-.27a5.64,5.64,0,0,0-.52-1.14c0-.08-.09-.15-.12-.22a1,1,0,0,1,0-.16,4.27,4.27,0,0,0-.41-1.44c-.2-.37-.42-.74-.65-1.11l-.14-.22a6.77,6.77,0,0,0-.69-.89,3.22,3.22,0,0,1-.24-.28,3.3,3.3,0,0,1-.18-.32,7.37,7.37,0,0,0-.56-.93c-.17-.23-.37-.45-.57-.68s-.23-.26-.33-.4a3.89,3.89,0,0,0-1.17-1h0a4.37,4.37,0,0,0-.6-1.1,2.29,2.29,0,0,1-.14-.27,6.22,6.22,0,0,0-.54-.89,8.27,8.27,0,0,0-.72-.83,3.45,3.45,0,0,1-.26-.28,5.1,5.1,0,0,0-.92-.84.69.69,0,0,1-.18-.16s0-.06-.06-.11a4.4,4.4,0,0,0-.75-1.07,7,7,0,0,0-.81-.68,2.78,2.78,0,0,1-.27-.21,8.42,8.42,0,0,0-.73-.61l-.22-.17,0-.08a3.87,3.87,0,0,0-.75-1.12,4.74,4.74,0,0,0-.86-.68l-.15-.1c-.1-.13-.18-.27-.27-.41s-.19-.31-.29-.46a4.07,4.07,0,0,0-.66-.73,3.77,3.77,0,0,0-.16-1.12,4.58,4.58,0,0,0-.43-.93l-.08-.14v0l.28-.24a2.88,2.88,0,0,1,.33-.28,4.88,4.88,0,0,0,.81-.71l.48.14a3.66,3.66,0,0,0,1.77,0l.1,0,.42.18.7.28.14.11a4,4,0,0,0,1.33.88,5.22,5.22,0,0,0,1.24.25,2,2,0,0,1,.35.05l.63.23.83.31a2.77,2.77,0,0,1,.26.19,5.8,5.8,0,0,0,1.1.65,5.2,5.2,0,0,0,1.24.31l.32.06a.6.6,0,0,0,.15.16,4.78,4.78,0,0,0,1.07.77,4.87,4.87,0,0,0,1.23.39,3,3,0,0,1,.32.08,8.11,8.11,0,0,0,.95.4,4.34,4.34,0,0,1,.5.2l.15.17a4.44,4.44,0,0,0,1.1.88,5.74,5.74,0,0,0,1.15.45c.13,0,.32.09.38.12a2.76,2.76,0,0,1,.27.23,4.92,4.92,0,0,0,1.05.76,5.18,5.18,0,0,0,1.28.43l.32.07.75.47.57.36c.19.12.37.26.55.4s.51.38.77.55a9.16,9.16,0,0,0,.92.5,5.61,5.61,0,0,1,.54.29c.25.16.67.46,1.14.79.14.1.28.22.43.35s.46.39.7.56a4.57,4.57,0,0,1,.33.32,6.51,6.51,0,0,0,.75.68,4.83,4.83,0,0,0,1.1.63,1.09,1.09,0,0,1,.17.1,2,2,0,0,0,2.38-3.22,4.63,4.63,0,0,0-1-.57,1.06,1.06,0,0,1-.28-.17,1.81,1.81,0,0,1-.24-.24,5.51,5.51,0,0,0-.85-.76c-.16-.12-.31-.25-.46-.38s-.47-.39-.7-.56c-.53-.37-1-.7-1.28-.88a7.78,7.78,0,0,0-.94-.52,5.61,5.61,0,0,1-.54-.29,6,6,0,0,1-.51-.37,9.78,9.78,0,0,0-.87-.61l-.52-.33-1-.59a4.62,4.62,0,0,0-1.42-.49,2.81,2.81,0,0,1-.31-.08l-.23-.21a6.16,6.16,0,0,0-1-.74,6.52,6.52,0,0,0-1.14-.44,3.56,3.56,0,0,1-.38-.12l-.16-.17a4.44,4.44,0,0,0-1.1-.89,8.77,8.77,0,0,0-1-.44,3.56,3.56,0,0,1-.49-.19,4.51,4.51,0,0,0-1.29-.43c-.11,0-.22,0-.33-.08l-.18-.18a4,4,0,0,0-2.52-1.17,3,3,0,0,1-.32-.06,1.93,1.93,0,0,1-.27-.19,5.17,5.17,0,0,0-1.12-.66l-1-.36-.58-.21a5,5,0,0,0-1.32-.29l-.23,0-.11-.1a4,4,0,0,0-1.36-.88c-.21-.07-.4-.15-.6-.23l-.49-.19c.1-.11.2-.21.29-.32l.34-.38a10.78,10.78,0,0,0,.77-.9,7.4,7.4,0,0,0,.45-.69,5.45,5.45,0,0,0,1,0,1.6,1.6,0,0,1,.23,0l.62.17.83.23c.29.07.6.12.9.17a4.66,4.66,0,0,1,.65.12l.41.1.87.23.06.06a3.69,3.69,0,0,0,1.5,1,3.84,3.84,0,0,0,1.6.11h.17c.25.08.5.14.76.21s.4.09.6.16l.37.21a5.24,5.24,0,0,0,1,.55l.78.29.72.26.34.21a5.68,5.68,0,0,0,1.09.59l.54.21,1,.38.68.23c.27.09.54.18.8.29a4.84,4.84,0,0,0,1.34.31,3.06,3.06,0,0,1,.32,0l.48.22,1,.43a6.38,6.38,0,0,1,.57.32l.54.32a4.08,4.08,0,0,0,1.34,1.23,8.36,8.36,0,0,0,.85.38,4,4,0,0,1,.48.2l1.28.7a3.36,3.36,0,0,0,1.65.45,1.91,1.91,0,0,0,.78.16,2,2,0,0,0,1-3.75,3.14,3.14,0,0,0-1.56-.41l-1.21-.66a8.28,8.28,0,0,0-1-.43l-.32-.13a1.83,1.83,0,0,1-.13-.16,2.92,2.92,0,0,0-1.11-1,5.79,5.79,0,0,1-.54-.31,10.53,10.53,0,0,0-.93-.52l-1.06-.47-.5-.23a4.85,4.85,0,0,0-1.42-.35l-.33,0a10.37,10.37,0,0,0-1-.38l-.55-.2c-.32-.11-.63-.23-.93-.35l-.56-.21-.33-.21a6.16,6.16,0,0,0-1.08-.59l-.83-.3-.68-.25a3.17,3.17,0,0,1-.37-.21,6.41,6.41,0,0,0-1.09-.57c-.34-.12-.68-.21-1-.3-.19,0-.38-.09-.57-.15a3.73,3.73,0,0,0-1.63-.14,3.44,3.44,0,0,0-1.54-1l-1.2-.32-.39-.1c-.34-.09-.69-.14-1-.2a5.86,5.86,0,0,1-.58-.1l-.63-.17c-.27-.08-.54-.16-.81-.22a6.79,6.79,0,0,0,.3-1.12,2.05,2.05,0,0,1,.07-.34,3.17,3.17,0,0,1,.17-.38A6,6,0,0,0,322,243a2,2,0,0,1,.13-.31,5.4,5.4,0,0,0,.45-1.36,3.82,3.82,0,0,0-.23-1.89v0l0-.11a4.64,4.64,0,0,0,.24-1.52c0-.14,0-.27,0-.41a6,6,0,0,0,0-1.4c0-.29-.1-.57-.16-.83s-.08-.39-.1-.58,0-.39,0-.58c0-.37,0-.73-.06-1.1a4.31,4.31,0,0,0-.55-1.54c-.05-.09-.1-.17-.14-.26a7.75,7.75,0,0,0-.38-1.15c-.07-.16-.13-.33-.2-.52s-.07-.27-.11-.41a7.19,7.19,0,0,0-.37-1.2l-.15-.38c-.16-.39-.32-.78-.51-1.17a2.69,2.69,0,0,1-.12-.34,6.15,6.15,0,0,0-.52-1.24,7.24,7.24,0,0,0-.68-1l-.31-.41a8.45,8.45,0,0,0-.71-.92c-.1-.11-.2-.23-.29-.35a1.54,1.54,0,0,1-.08-.19,4.57,4.57,0,0,0-.77-1.38,4.88,4.88,0,0,0-1.12-.92,2.71,2.71,0,0,1-.25-.17c-.09-.09-.19-.22-.3-.35a10.22,10.22,0,0,0-.81-.86,8.1,8.1,0,0,0-.89-.71l-.43-.32-.18-.15c-.36-.3-.73-.61-1.13-.9l-.15-.19a5.78,5.78,0,0,0-1.06-1,3.85,3.85,0,0,0-1.65-.57l-.12,0a2.83,2.83,0,0,1-.28-.2,9.7,9.7,0,0,0-1-.62,2.92,2.92,0,0,1-.28-.21,5.77,5.77,0,0,0-1.11-.72,8.11,8.11,0,0,0-1.06-.41,4.75,4.75,0,0,1-.49-.17l-.49-.19h0c.08-.47.16-1,.23-1.46a8,8,0,0,0,.05-1.35c0-.21,0-.41,0-.61a3.86,3.86,0,0,1,.12-.59,7.05,7.05,0,0,0,.23-1.39,11.79,11.79,0,0,0-.08-1.56,5.43,5.43,0,0,1-.06-.55A15.51,15.51,0,0,0,304,202c0-.18-.05-.36-.07-.53a6.3,6.3,0,0,0-.5-2,5.26,5.26,0,0,0-2.09-2.17l-.27-.17a8.18,8.18,0,0,0-2.08-1.07,6.08,6.08,0,0,0-2.69-.1,8,8,0,0,0-2.39.71,11.87,11.87,0,0,0-1.92,1.07,17.35,17.35,0,0,0-1.66,1.27,3.32,3.32,0,0,1-.42.32,7.75,7.75,0,0,0-1.16,1c-.46.49-.88,1-1.28,1.52s-.75,1-1.1,1.51l-.35.5c-.28.4-.57.81-.83,1.23s-.45.84-.67,1.26l-.24.49c-.23.45-.44.92-.64,1.39a16.79,16.79,0,0,0-2.29-.22,21,21,0,0,0-2.26.06l-.24,0c.07-.23.14-.48.2-.77.14-.75.24-1.47.3-2.14a15.6,15.6,0,0,0,.07-2.25,8.77,8.77,0,0,0-.4-2.19l-.06-.22a6.62,6.62,0,0,0-1.31-2.46,5.66,5.66,0,0,0-2.37-1.84,7.32,7.32,0,0,0-2.63-.58,8.38,8.38,0,0,0-2.61.19,5.6,5.6,0,0,0-1.75.88l-.43.27-.25.13a11.11,11.11,0,0,0-1.7,1.09c-.17.13-.31.27-.46.4l-.49-.62-.53-.67c-.41-.53-.84-1.07-1.34-1.6a10.89,10.89,0,0,0-1.45-1.27c-.26-.21-.53-.41-.77-.64-.51-.47-1-.86-1.52-1.24l-.75-.58c-.26-.21-.49-.46-.73-.69a8.9,8.9,0,0,0-3.11-2.21,8.59,8.59,0,0,1-.87-.45,6,6,0,0,1-.69-.59,7.79,7.79,0,0,0-1.6-1.24,16.64,16.64,0,0,0-1.74-.81l-.92-.4-.4-.19c-.72-.34-1.47-.7-2.24-1-.32-.13-.63-.29-.93-.44a13.35,13.35,0,0,0-1.73-.78,7.09,7.09,0,0,0-2.15-.29,5.23,5.23,0,0,1-.8-.06,6.13,6.13,0,0,1-.84-.35,8.11,8.11,0,0,0-1.92-.7,15.23,15.23,0,0,0-2-.19c-.32,0-.64,0-.95-.07-1-.1-2-.21-3-.23-.31,0-.61,0-.92,0a13.41,13.41,0,0,0-2.11,0,8.41,8.41,0,0,0-2.18.57,7.16,7.16,0,0,1-.79.26,9,9,0,0,1-1,.16,12.32,12.32,0,0,0-1.88.36,10.48,10.48,0,0,0-1.8.76c-.33.16-.63.31-.9.41l-.9.31c-.6.2-1.23.41-1.86.69L217,185c-.66.28-1.35.58-2,.93A12,12,0,0,0,213.3,187a9.23,9.23,0,0,1-.82.57,4.8,4.8,0,0,1-.8.31,7.3,7.3,0,0,0-1.92.88c-.6.41-1.13.84-1.65,1.26-.23.19-.45.37-.68.54-.73.58-1.52,1.2-2.27,1.86a14,14,0,0,0-1.33,1.35c-.24.25-.47.51-.71.75s-.47.45-.71.67c-.46.43-.93.86-1.39,1.36a9.26,9.26,0,0,0-1.13,1.63,3.31,3.31,0,0,1-1.18,1.41,7.6,7.6,0,0,0-1.45,1.41,10.85,10.85,0,0,0-1,1.6c-.18.34-.35.65-.51.9s-.39.55-.59.82c-.37.51-.73,1-1.06,1.55a2.1,2.1,0,0,0-.31.84l-.38.78c-.14.31-.28.62-.45.92a5.35,5.35,0,0,1-.52.61,7.1,7.1,0,0,0-1.21,1.59c-.16.31-.35.61-.53.92a16.07,16.07,0,0,0-.82,1.49,8.36,8.36,0,0,0-.59,1.8,6.16,6.16,0,0,1-.25.86c-.14.33-.3.65-.46,1-.24.49-.48,1-.7,1.53s-.41,1.14-.6,1.71c-.1.3-.2.6-.31.89s-.26.68-.41,1-.42,1-.59,1.55a7.26,7.26,0,0,0-.31,2,4.55,4.55,0,0,1-.09.79,6.56,6.56,0,0,1-.37.89,8.9,8.9,0,0,0-.65,1.69c-.09.37-.19.72-.3,1.06a15.51,15.51,0,0,0-.43,1.63c-.07.37-.16.72-.25,1.07-.13.54-.27,1.1-.35,1.67a7,7,0,0,0,.1,2.09,3.63,3.63,0,0,1,.09.84,6,6,0,0,1-.23,1,10,10,0,0,0-.39,1.85c0,.56-.07,1.12-.08,1.69,0,.39,0,.79,0,1.19,0,.57,0,1.13,0,1.71,0,.39,0,.78,0,1.18a5.4,5.4,0,0,1-.18.94,9.64,9.64,0,0,0-.3,1.94,10.57,10.57,0,0,0,.19,1.88,6.2,6.2,0,0,1,.13,1c0,.31,0,.62,0,.93,0,.66,0,1.32,0,2,0,.81.09,1.62.15,2.43l.08,1.09c.06.76.11,1.52.2,2.29,0,.36.06.73.08,1.1a16.85,16.85,0,0,0,.16,1.81,15.45,15.45,0,0,0,.42,1.8c.1.35.2.7.27,1.05s.1.71.14,1.07a12.24,12.24,0,0,0,.28,1.85c.08.35.14.7.2,1.06a15,15,0,0,0,.39,1.85,7.74,7.74,0,0,0,.94,1.89,4.21,4.21,0,0,1,.43.77l.08.2.06.16-.22,0a3.25,3.25,0,0,1-.54.12,3.31,3.31,0,0,1-.55,0,9,9,0,0,0-1.35.15c-.61.13-1.24.29-1.85.46a4.22,4.22,0,0,0-1.64,1l-.11.1-.24,0a5.27,5.27,0,0,0-1.54.34,4,4,0,0,1-.52.17,7.9,7.9,0,0,0-1.28.47,5.43,5.43,0,0,0-1.28.93,3.22,3.22,0,0,1-.28.24l-.5.27a11.57,11.57,0,0,0-1.17.68c-.48.34-.91.7-1.29,1l-.23.2a3.93,3.93,0,0,1-.42.29,7.16,7.16,0,0,0-1.17.93,6.76,6.76,0,0,0-.92,1.27,3.89,3.89,0,0,1-.25.4,7.58,7.58,0,0,0-.79,1.39c-.06.14-.13.29-.2.42a12.46,12.46,0,0,0-.89,1.91,2.2,2.2,0,0,1-.17.39,5.87,5.87,0,0,0-.56,1.68c-.05.41-.07.82-.08,1.24a2.26,2.26,0,0,0-1.2-.49,7.19,7.19,0,0,0-2.53.26l-.12,0a23.23,23.23,0,0,1-2.67.3,2.25,2.25,0,0,0-1.86.86c-.35-.09-.72-.17-1.09-.23a3.59,3.59,0,0,0-1.16-.08,2.34,2.34,0,0,0-1.22.53l-.67.07a2.28,2.28,0,0,0-.87.28c-2.11,1.21-2,2.83-1.88,3.47.21.94.75,3.43,11.54,4.45.87.08,2.3.38,3.68.67a34.19,34.19,0,0,0,6,.91,2.12,2.12,0,0,0,.75-.14h0c.46.31,1,.66,1.56,1,.07.05.14.13.23.21a5.42,5.42,0,0,0,1.27.93l.48.24c.38.2.76.4,1.16.58.18.07.35.15.53.24.38.17.75.34,1.14.5a5.19,5.19,0,0,0,1.51.29,1.86,1.86,0,0,1,.34,0l.57.21c.35.14.7.28,1.07.39l.62.21c.35.13.71.25,1.07.36s.71.18,1.07.25l.66.15a3.73,3.73,0,0,1,.4.18A6.39,6.39,0,0,0,188,308c.21.05.43.12.64.19s.7.22,1.06.31l.67.18c.34.1.68.19,1,.27a5.12,5.12,0,0,0,1.53.06l.32,0c.26.06.59.12.92.17l.73.13a4.81,4.81,0,0,1,.54.16,7,7,0,0,0,1.15.33l1,.18.67.12c.26,0,.51.1.76.15s.63.13.95.18a5,5,0,0,0,1.56,0,1.54,1.54,0,0,1,.3,0l.54.14a10,10,0,0,0,1,.25,1.89,1.89,0,0,1,.31.13,5.2,5.2,0,0,0,1.35.44,5,5,0,0,0,1.52,0l.14,0,.07,0a4.45,4.45,0,0,0,1.63.71A6.23,6.23,0,0,0,209.8,312.1Z" style="fill: #1d1d1b"/>
  </g>
</svg>
