<svg xmlns="http://www.w3.org/2000/svg" viewBox="0 0 500 500">
  <title>circle</title>
  <g>
    <path d="M200.82,196.64c-.7.2-1.25.87-1.93,1.09l-2.06.65c-.69.23-1.4.38-2.08.62s-1.34.53-2,.77-1.46.22-2.14.48-1.24.79-1.91,1.06-1.45.28-2.11.55-1.2.89-1.85,1.18-1.34.55-2,.85-1.38.47-2,.78-1.21.8-1.85,1.13-1.43.39-2.06.73-1.23.78-1.85,1.13-1.18.85-1.8,1.21-1.37.54-2,.92-1.31.66-1.9,1.06-1,1.12-1.58,1.53l-1.76,1.26c-.58.43-1.4.55-2,1s-1,1-1.58,1.51-1.22.8-1.76,1.27-.87,1.21-1.4,1.69-1,1-1.52,1.53-1.21.84-1.71,1.36-1,1.08-1.44,1.61-1,1.08-1.43,1.64-.62,1.35-1.05,1.92-1,1-1.46,1.61-.7,1.27-1.08,1.88-.91,1.14-1.26,1.76-.45,1.4-.77,2-.78,1.22-1.06,1.88-.6,1.32-.84,2-.27,1.43-.48,2.12-.8,1.27-1,2,.08,1.49-.06,2.2-.59,1.36-.67,2.08-.19,1.44-.23,2.16,0,1.44,0,2.17.33,1.43.37,2.15.11,1.43.2,2.14-.18,1.49-.05,2.2.62,1.34.79,2,0,1.51.18,2.2.44,1.39.69,2.06.7,1.28,1,1.95.6,1.31.92,2,.87,1.16,1.22,1.8.58,1.32,1,1.94.78,1.2,1.19,1.8.87,1.14,1.31,1.72.78,1.21,1.23,1.78,1,1,1.48,1.59.89,1.13,1.39,1.66.93,1.1,1.44,1.61,1.06,1,1.59,1.48,1.09.94,1.64,1.42,1.07,1,1.63,1.42,1.16.86,1.73,1.31,1.19.81,1.78,1.24,1.23.74,1.83,1.15,1.08,1,1.68,1.38,1.31.62,1.93,1,1.26.7,1.88,1.07,1,1.07,1.67,1.43,1.26.71,1.9,1.05,1.34.55,2,.88,1.2.81,1.85,1.13l2,.95c.65.3,1.42.35,2.08.64s1.21.83,1.88,1.11,1.37.47,2,.74,1.36.48,2,.74,1.45.23,2.13.48,1.3.62,2,.86,1.33.57,2,.8,1.43.27,2.12.49,1.39.34,2.09.55,1.32.58,2,.78,1.35.51,2,.7l2.1.54c.7.18,1.36.51,2.07.67s1.47,0,2.18.19,1.44.16,2.15.3,1.36.51,2.08.65,1.39.38,2.1.51,1.41.37,2.12.49,1.44.15,2.16.26,1.44.13,2.15.23,1.47-.08,2.18,0,1.4.46,2.12.54,1.42.29,2.14.36,1.47-.19,2.19-.12,1.43.19,2.15.25l2.16.14,2.16.15c.72,0,1.43.38,2.15.41s1.44.12,2.17.14,1.46-.45,2.18-.44,1.44.26,2.16.27,1.45.22,2.17.22,1.45,0,2.17-.05,1.44-.22,2.16-.23,1.46.18,2.18.16,1.43-.48,2.14-.51,1.46.18,2.18.14,1.44-.15,2.16-.2,1.46.19,2.18.13,1.4-.61,2.11-.68,1.47.17,2.19.09,1.41-.4,2.12-.49,1.46,0,2.18-.05,1.42-.29,2.13-.39,1.47.06,2.18-.05,1.43-.21,2.14-.33,1.37-.55,2.08-.68,1.43-.24,2.13-.38,1.48,0,2.19-.12,1.38-.47,2.08-.63,1.45-.17,2.15-.34,1.3-.75,2-.92,1.42-.28,2.11-.47,1.42-.28,2.12-.48,1.34-.55,2-.75,1.52,0,2.21-.19,1.32-.64,2-.86,1.36-.5,2-.74,1.38-.44,2-.68,1.37-.48,2-.74,1.4-.42,2.06-.69,1.33-.59,2-.87,1.18-.92,1.84-1.21,1.48-.25,2.13-.55,1.18-.89,1.82-1.2,1.38-.48,2-.81,1.21-.8,1.84-1.14,1.39-.49,2-.84,1.19-.84,1.81-1.2,1.39-.5,2-.88,1-1.07,1.63-1.47,1.4-.53,2-.93,1.1-.95,1.68-1.38,1-1.1,1.55-1.54,1.33-.65,1.89-1.1.89-1.19,1.43-1.66,1.35-.66,1.88-1.14.89-1.18,1.4-1.68,1.16-.88,1.66-1.4.84-1.19,1.32-1.73,1-1.06,1.43-1.62,1-1,1.45-1.61.9-1.14,1.31-1.73.63-1.33,1-1.93.65-1.29,1-1.92.62-1.3.94-1.94,1.06-1.1,1.35-1.76.55-1.35.8-2,.24-1.45.45-2.14.43-1.38.6-2.08.31-1.41.44-2.11.14-1.44.23-2.15.32-1.42.37-2.14-.09-1.44-.09-2.16.05-1.45,0-2.17-.05-1.44-.14-2.16-.46-1.38-.59-2.09-.23-1.41-.41-2.12,0-1.48-.25-2.17-.72-1.28-1-2-.26-1.45-.55-2.11-.59-1.32-.91-2-.92-1.14-1.27-1.78-.68-1.26-1.07-1.88-.89-1.12-1.3-1.72-.74-1.23-1.17-1.81-.85-1.16-1.31-1.72-.81-1.2-1.29-1.74-1-1-1.49-1.57-1.09-.94-1.61-1.45-.89-1.15-1.42-1.65-.95-1.09-1.5-1.57-1.41-.56-2-1L335.84,215c-.57-.43-.94-1.13-1.53-1.56s-1.22-.77-1.82-1.18-1.32-.62-1.92-1-1-1.1-1.63-1.48-1.39-.47-2-.84-1.19-.82-1.82-1.17-1.23-.74-1.87-1.09-1.26-.7-1.91-1-1.23-.74-1.88-1.06-1.37-.48-2-.79-1.29-.63-2-.92-1.35-.51-2-.79-1.3-.61-2-.88-1.39-.39-2.06-.65-1.29-.66-2-.91-1.3-.63-2-.87-1.36-.49-2-.71-1.39-.4-2.08-.62l-2.07-.61c-.69-.2-1.4-.35-2.1-.55s-1.44-.19-2.14-.37-1.38-.38-2.09-.56-1.32-.67-2-.84-1.39-.38-2.1-.54-1.45-.13-2.16-.28-1.45-.06-2.17-.19-1.38-.44-2.09-.57-1.45-.11-2.16-.23-1.36-.6-2.08-.71-1.47.1-2.19,0-1.39-.45-2.11-.54-1.44-.1-2.16-.19-1.43-.13-2.15-.21-1.45,0-2.17-.09-1.43-.26-2.15-.32-1.43-.16-2.16-.21-1.44,0-2.16-.07-1.43-.25-2.16-.28-1.46.3-2.18.27-1.43-.42-2.15-.44l-2.18,0c-.72,0-1.44.22-2.17.22s-1.44.17-2.16.18-1.46-.47-2.18-.45-1.44.16-2.16.18-1.45.16-2.17.2-1.43.18-2.15.23-1.47-.21-2.18-.16-1.41.54-2.13.6-1.48-.31-2.2-.24-1.41.34-2.13.42-1.44.1-2.16.18-1.44.13-2.16.22-1.38.53-2.1.63-1.45.07-2.16.18-1.47-.06-2.18.06-1.42.33-2.12.46-1.43.23-2.14.37l-2.13.39c-.71.15-1.37.5-2.08.65s-1.44.18-2.14.35-1.42.27-2.12.44-1.41.34-2.1.53-1.39.39-2.08.59-1.34.57-2,.78" style="fill: #fff"/>
    <path d="M250.05,314.38a9.84,9.84,0,0,1-1.43-.13,5,5,0,0,0-.76-.09,7.82,7.82,0,0,1-1.47-.17,6.74,6.74,0,0,0-.72-.1l-.37.12a5.32,5.32,0,0,1-1.83.32c-.43,0-.85-.05-1.28-.08s-.61-.05-.92-.06a7.44,7.44,0,0,1-1.55-.28,5,5,0,0,0-.63-.14l-1.5-.1-1.51-.1-1.35-.09-1.26-.14-.92-.11a5.32,5.32,0,0,0-.6,0,6.87,6.87,0,0,1-1.62.07c-.44-.05-.87-.13-1.31-.21a8.13,8.13,0,0,0-.86-.15,8,8,0,0,1-1.5-.37,4.36,4.36,0,0,0-.64-.18c-.14,0-.41,0-.66,0a7.39,7.39,0,0,1-1.55,0l-.9-.1c-.43,0-.86-.07-1.28-.14s-.61-.07-.91-.1-.85-.09-1.27-.16-.87-.18-1.3-.29a8.08,8.08,0,0,0-.85-.2c-.43-.08-.86-.19-1.28-.31s-.57-.16-.85-.21a9.55,9.55,0,0,1-1.41-.42,6.2,6.2,0,0,0-.7-.23,7.53,7.53,0,0,0-.83-.11,11.05,11.05,0,0,1-1.35-.2,5.21,5.21,0,0,0-.65,0,7.17,7.17,0,0,1-1.56-.16,9.34,9.34,0,0,1-1.32-.42c-.26-.09-.51-.19-.77-.26-.72-.17-1.43-.36-2.13-.55a12.84,12.84,0,0,1-1.28-.42,8.46,8.46,0,0,0-.8-.28,9.56,9.56,0,0,1-1.33-.5,6.52,6.52,0,0,0-.73-.29c-.29-.09-.59-.16-.88-.23s-.83-.21-1.24-.33a6.79,6.79,0,0,0-.78-.18,9.38,9.38,0,0,1-1.36-.32c-.42-.14-.83-.31-1.24-.48s-.54-.24-.81-.33a10.83,10.83,0,0,1-1.26-.54c-.25-.12-.5-.24-.76-.34a6.28,6.28,0,0,0-.64-.12,7.15,7.15,0,0,1-1.53-.37c-.28-.11-.56-.2-.85-.3s-.82-.28-1.22-.45l-.84-.3c-.42-.14-.83-.28-1.23-.45a7.19,7.19,0,0,1-1.35-.78,4.67,4.67,0,0,0-.57-.35,6.25,6.25,0,0,0-.65-.19,7.24,7.24,0,0,1-1.47-.47l-1.65-.79-.34-.17a9.74,9.74,0,0,1-1.23-.74,7.48,7.48,0,0,0-.67-.41c-.24-.13-.51-.23-.77-.34a12.88,12.88,0,0,1-1.25-.56c-.66-.35-1.3-.71-1.94-1.07a6.4,6.4,0,0,1-1.35-1.11,5,5,0,0,0-.37-.35l-.76-.43c-.39-.21-.78-.43-1.15-.66a6.61,6.61,0,0,0-.7-.36,8.41,8.41,0,0,1-1.27-.68,9.83,9.83,0,0,1-1.15-.91,5.37,5.37,0,0,0-.58-.49c-.23-.16-.48-.3-.72-.45a11.6,11.6,0,0,1-1.16-.74l-.72-.49c-.37-.25-.74-.51-1.1-.78l-.68-.51c-.37-.27-.74-.55-1.1-.84s-.77-.66-1.15-1l-1.08-.94c-.39-.33-.77-.66-1.14-1l-.44-.39c-.4-.38-.81-.75-1.2-1.13s-.65-.69-1-1.05c-.18-.21-.36-.42-.55-.62s-.63-.72-.93-1.09c-.17-.21-.33-.43-.51-.63s-.38-.4-.57-.6-.66-.69-1-1.05a14,14,0,0,1-.84-1.19c-.14-.22-.29-.45-.45-.66s-.31-.41-.47-.61c-.31-.39-.62-.78-.9-1.19-.42-.62-.84-1.24-1.24-1.88a11.23,11.23,0,0,1-.68-1.33c-.11-.24-.21-.47-.34-.7a5.43,5.43,0,0,0-.41-.58,8.5,8.5,0,0,1-.86-1.31c-.34-.69-.67-1.37-1-2.06-.1-.23-.23-.45-.35-.67a9,9,0,0,1-.68-1.39c-.27-.72-.51-1.46-.73-2.18a5.8,5.8,0,0,1-.21-1.83,2.61,2.61,0,0,0,0-.5,3.23,3.23,0,0,0-.23-.53,6.47,6.47,0,0,1-.58-1.64,5.9,5.9,0,0,1,0-1.78,4.14,4.14,0,0,0,0-.54c-.1-.8-.17-1.54-.21-2.28a4.46,4.46,0,0,0-.13-.6A6.86,6.86,0,0,1,141,251v-.64c0-.56,0-1.12,0-1.66s.12-1.28.2-1.92l0-.38a6.2,6.2,0,0,1,.51-1.68c.07-.19.17-.43.19-.53a4.53,4.53,0,0,0,0-.5,5.36,5.36,0,0,1,.1-1.83,5.77,5.77,0,0,1,.75-1.65,3.74,3.74,0,0,0,.25-.45,6.8,6.8,0,0,0,.14-.68,7.72,7.72,0,0,1,.37-1.54c.2-.54.43-1.06.66-1.59l.23-.51a9,9,0,0,1,.73-1.33c.13-.22.27-.43.38-.66a5.2,5.2,0,0,0,.22-.62,7.48,7.48,0,0,1,.6-1.51,9.37,9.37,0,0,1,.87-1.25,7.41,7.41,0,0,0,.45-.61c.13-.22.26-.46.38-.69a13.91,13.91,0,0,1,.75-1.27,8.43,8.43,0,0,1,1-1.18,3.57,3.57,0,0,0,.48-.5,3.82,3.82,0,0,0,.25-.5,6.38,6.38,0,0,1,.86-1.49c.35-.43.72-.84,1.09-1.26l.67-.76c.4-.45.8-.91,1.22-1.35a6.78,6.78,0,0,1,1.21-1,4.36,4.36,0,0,0,.54-.41l.55-.56c.34-.35.67-.69,1-1a4,4,0,0,0,.36-.47,6.61,6.61,0,0,1,1.09-1.27,10.88,10.88,0,0,1,1.15-.85c.22-.15.45-.29.66-.46a6.88,6.88,0,0,0,.54-.54,12.11,12.11,0,0,1,1.08-1,6.28,6.28,0,0,1,1.55-.81,4.14,4.14,0,0,0,.48-.2l.12-.1,1.67-1.2a2.75,2.75,0,0,0,.36-.38,5.89,5.89,0,0,1,1.27-1.18,12.7,12.7,0,0,1,1.2-.68c.25-.13.5-.26.74-.41a9.68,9.68,0,0,1,1.36-.65A5.53,5.53,0,0,0,172,207a7.51,7.51,0,0,0,.68-.47,13.78,13.78,0,0,1,1.16-.76c.25-.15.5-.3.74-.46s.75-.48,1.15-.69a6.93,6.93,0,0,1,1.48-.56,4.84,4.84,0,0,0,.61-.2,5.92,5.92,0,0,0,.68-.42,9.6,9.6,0,0,1,1.22-.72,9.12,9.12,0,0,1,1.3-.51c.25-.09.51-.18.76-.29s.81-.36,1.22-.53l.81-.34a5.52,5.52,0,0,0,.47-.33,6.73,6.73,0,0,1,1.41-.86,7.34,7.34,0,0,1,1.52-.42,4.94,4.94,0,0,0,.63-.15,3.75,3.75,0,0,0,.56-.33,7.69,7.69,0,0,1,1.39-.75,7,7,0,0,1,1.54-.36,6,6,0,0,0,.63-.12l.83-.33c.41-.16.81-.32,1.22-.46s.82-.26,1.23-.37.59-.16.87-.26l1.84-.58.26-.08.34-.24a5.57,5.57,0,0,1,1.63-.86,2.1,2.1,0,0,1,.86-.08,9.55,9.55,0,0,1,1.26-.47l.69-.2,1.42-.4,1.42-.35.72-.18c.41-.1.83-.19,1.25-.27l.9-.19a12.66,12.66,0,0,1,1.33-.22,8.09,8.09,0,0,0,.84-.12,7.63,7.63,0,0,0,.73-.24,9.31,9.31,0,0,1,1.37-.42l1.3-.25.86-.15,1.27-.23.89-.15c.3-.05.6-.12.89-.19s.84-.2,1.26-.27a7,7,0,0,1,1.55-.06,3.44,3.44,0,0,0,.66,0c.48-.07.94-.09,1.34-.12a7.91,7.91,0,0,0,.85-.06,4.11,4.11,0,0,0,.56-.19,6.75,6.75,0,0,1,1.57-.44c.42-.06.84-.1,1.26-.13l.92-.1,1.26-.1.93-.08a5.7,5.7,0,0,0,.74-.15,8.75,8.75,0,0,1,1.42-.27,5.49,5.49,0,0,1,1.75.15c.17,0,.4.08.48.08h0l.42-.15a5.67,5.67,0,0,1,1.71-.44,7.3,7.3,0,0,1,1.55.09,5,5,0,0,0,.66.06c.29,0,.58-.06.87-.1.44-.06.87-.11,1.31-.13s.59-.05.89-.08.87-.1,1.3-.12.58,0,.87-.07c.44,0,.88-.1,1.32-.11a5.29,5.29,0,0,1,1.82.33,4.35,4.35,0,0,0,.43.13c.22,0,.49-.05.75-.08a11.21,11.21,0,0,1,1.39-.11,4.74,4.74,0,0,0,.74-.09,10.56,10.56,0,0,1,1.46-.13l2.2,0a6.14,6.14,0,0,1,1.66.31,3.24,3.24,0,0,0,.52.13,3.14,3.14,0,0,0,.56-.09,6.52,6.52,0,0,1,1.64-.18c.51,0,1,.11,1.38.17a7.74,7.74,0,0,0,.8.12l.92,0c.43,0,.85,0,1.28,0s.83.08,1.25.12l.93.1a12,12,0,0,1,1.32.19c.28.05.57.1.85.13s.59,0,.88,0,.88,0,1.32.06l.89.09,1.29.13.91.07c.43,0,.85.06,1.27.12a7.79,7.79,0,0,1,1.46.36,4.67,4.67,0,0,0,.68.18,3.48,3.48,0,0,0,.62,0,5.68,5.68,0,0,1,3.2.54,3.26,3.26,0,0,0,.51.2,8,8,0,0,0,.84.09,9.5,9.5,0,0,1,2.68.5c.26.08.52.16.78.22a6.79,6.79,0,0,0,.73,0,8.14,8.14,0,0,1,1.47.15,7,7,0,0,0,.8.09,11.46,11.46,0,0,1,1.39.19c.42.09.83.21,1.24.32l.89.23a6.57,6.57,0,0,1,1.51.61c.2.09.43.21.54.24l1.45.38.67.18c.2.05.47.09.76.13a9.36,9.36,0,0,1,1.41.25c.29.09.59.16.89.23l1.23.33.76.22,1.35.4.86.25c.42.12.83.24,1.24.38l1.37.47.71.25a12,12,0,0,1,1.27.55,8.15,8.15,0,0,0,.75.33,11,11,0,0,1,1.27.58,7,7,0,0,0,.73.35,7.92,7.92,0,0,0,.79.24,10.89,10.89,0,0,1,1.31.42c.41.16.81.34,1.21.53l.81.36.84.33c.41.15.81.3,1.21.48s.83.38,1.24.58l.75.36a7.15,7.15,0,0,0,.77.29,11,11,0,0,1,1.29.51c.4.2.79.43,1.18.65s.49.3.75.43c.43.22.85.45,1.26.68l.68.37c.4.22.79.45,1.18.68l.73.43c.39.22.77.47,1.14.72s.48.33.72.47a5,5,0,0,0,.57.22,6.8,6.8,0,0,1,1.5.65,6.11,6.11,0,0,1,1.28,1.13,4.35,4.35,0,0,0,.39.38,6.1,6.1,0,0,0,.64.33,7.88,7.88,0,0,1,1.32.71c.24.17.49.32.74.47s.77.48,1.13.74a7.25,7.25,0,0,1,1.18,1.17,4.84,4.84,0,0,0,.39.43c.59.46,1.17.92,1.74,1.39l.38.15a5.26,5.26,0,0,1,1.64.91,10.73,10.73,0,0,1,1,1c.18.2.35.4.54.58a8.2,8.2,0,0,1,1,1.13,6.33,6.33,0,0,0,.47.56c.2.19.41.37.62.54a12.78,12.78,0,0,1,1,1l.52.53c.35.36.7.72,1,1.09a12.77,12.77,0,0,1,.88,1.17c.15.22.3.44.46.64.37.45.71.91,1.05,1.37l.32.42a13.75,13.75,0,0,1,.79,1.21c.14.22.28.45.43.67s.33.43.49.64a9.89,9.89,0,0,1,.87,1.17c.29.47.56.95.82,1.43l.3.54a3.87,3.87,0,0,0,.39.51,7.45,7.45,0,0,1,.93,1.36c.34.68.66,1.38,1,2.07a7.73,7.73,0,0,1,.45,1.6,4.07,4.07,0,0,0,.14.63,4.71,4.71,0,0,0,.3.57,7,7,0,0,1,.71,1.5,6.41,6.41,0,0,1,.24,1.71,3.93,3.93,0,0,0,.05.59c.14.55.23,1.1.33,1.66l.1.58a4.37,4.37,0,0,0,.2.63,7.13,7.13,0,0,1,.41,1.6c.07.54.1,1.09.12,1.64l0,.65c0,.56,0,1.08,0,1.59,0,.23,0,.47,0,.71s0,.51,0,.76a9.45,9.45,0,0,1,0,1.53,9.07,9.07,0,0,1-.24,1.54c0,.25-.11.49-.14.74s-.05.49-.07.74c0,.47-.08,1-.18,1.54-.14.75-.28,1.49-.46,2.24s-.37,1.34-.58,2l-.06.2a5.35,5.35,0,0,0-.12.66,7.6,7.6,0,0,1-.37,1.59c-.26.71-.54,1.44-.84,2.14a5.08,5.08,0,0,1-1.12,1.55,3.47,3.47,0,0,0-.3.34c-.09.19-.2.42-.3.65-.21.45-.42.91-.67,1.36-.13.22-.24.46-.36.69a11.37,11.37,0,0,1-.7,1.31,5.61,5.61,0,0,0-.32.65,8.91,8.91,0,0,1-.74,1.36c-.28.42-.6.83-.91,1.23l-.45.58a12.17,12.17,0,0,1-1,1.09c-.19.19-.37.39-.54.59-.32.4-.66.77-1,1.15l-.48.54a6.26,6.26,0,0,0-.45.6,9.93,9.93,0,0,1-.93,1.18,8.48,8.48,0,0,1-1.12,1,7,7,0,0,0-.59.49,5.07,5.07,0,0,0-.43.54,7.81,7.81,0,0,1-1,1.18,5.79,5.79,0,0,1-1.48.95,4.28,4.28,0,0,0-.45.24,4.63,4.63,0,0,0-.36.45,6.78,6.78,0,0,1-1.12,1.25,7.19,7.19,0,0,1-1.38.84,4.12,4.12,0,0,0-.55.3,3.37,3.37,0,0,0-.43.46,8,8,0,0,1-1.17,1.12,7.81,7.81,0,0,0-.64.53,12.21,12.21,0,0,1-1.09.87,6.49,6.49,0,0,1-1.48.73,3.39,3.39,0,0,0-.55.24,4.52,4.52,0,0,0-.4.39,6.58,6.58,0,0,1-1.27,1.11,7.29,7.29,0,0,1-1.44.65,4.4,4.4,0,0,0-.61.25c-.24.14-.47.31-.7.47a10.44,10.44,0,0,1-1.15.75,7.64,7.64,0,0,1-1.37.59c-.27.1-.52.19-.68.27s-.45.28-.68.43a9.26,9.26,0,0,1-1.2.74,9.61,9.61,0,0,1-1.31.54,5.94,5.94,0,0,0-.74.28,4.6,4.6,0,0,0-.52.36,7.23,7.23,0,0,1-1.34.87,6.58,6.58,0,0,1-1.64.45,4.72,4.72,0,0,0-.53.11,4.25,4.25,0,0,0-.43.31,6,6,0,0,1-1.44.91l-.81.36c-.4.18-.8.36-1.22.53s-.83.3-1.25.43l-.84.27-1.35.49-.73.26c-.4.15-.82.29-1.24.42l-.84.28-.84.31-1.23.44a5.44,5.44,0,0,0-.7.31,8.88,8.88,0,0,1-1.33.56,5.39,5.39,0,0,1-1.81.2,2.17,2.17,0,0,0-.46,0,5.26,5.26,0,0,0-.74.28,13.58,13.58,0,0,1-1.3.47c-.42.12-.84.21-1.26.29s-.59.12-.88.2-.84.2-1.26.28l-.89.19a4.19,4.19,0,0,0-.41.23,5.87,5.87,0,0,1-1.62.7,10.5,10.5,0,0,1-1.33.22c-.28,0-.57.07-.84.13a6.27,6.27,0,0,0-.77.24,11.43,11.43,0,0,1-1.34.39,7.76,7.76,0,0,1-1.59.11,3.9,3.9,0,0,0-.63,0c-.44.09-.89.16-1.34.24l-.82.14a3.92,3.92,0,0,0-.58.21,6.82,6.82,0,0,1-1.52.48l-1.36.21-.81.12a7.4,7.4,0,0,1-1.53,0,5.07,5.07,0,0,0-.68,0l-.88.17c-.43.09-.85.17-1.28.23a9,9,0,0,1-1.44.05,4.67,4.67,0,0,0-.76,0,4.46,4.46,0,0,0-.68.17,8.12,8.12,0,0,1-1.47.32,8,8,0,0,1-1.58,0,4.2,4.2,0,0,0-.63-.05l-.36.16a5.31,5.31,0,0,1-1.78.52,7.57,7.57,0,0,1-1.56-.07c-.25,0-.5-.06-.65-.06l-.92.09q-.63.08-1.26.12a8.65,8.65,0,0,1-1.5-.08,5.46,5.46,0,0,0-.71-.06,4,4,0,0,0-.45.14,6.21,6.21,0,0,1-1.72.37,9.17,9.17,0,0,1-1.45-.1c-.28,0-.56-.06-.75-.06a4.94,4.94,0,0,0-.77.09,11.19,11.19,0,0,1-1.42.14l-.9,0Zm-4.37-4.89h.09a9.09,9.09,0,0,1,1.4.17,4.92,4.92,0,0,0,.74.1,10.31,10.31,0,0,1,1.35.13,8.78,8.78,0,0,0,1.94.06l1,0a7.12,7.12,0,0,0,.81-.09,9.87,9.87,0,0,1,1.34-.14,9.5,9.5,0,0,1,1.38.1c.29,0,.57.06.76.06s.31-.09.46-.14a5.92,5.92,0,0,1,1.66-.37,8,8,0,0,1,1.45.09c.28,0,.53.06.71.06.34,0,.68-.06,1-.1l1.09-.11a8.53,8.53,0,0,1,1.51.08,3.67,3.67,0,0,0,.65.06l.36-.16a5.55,5.55,0,0,1,1.73-.52,8.18,8.18,0,0,1,1.53.05,4.11,4.11,0,0,0,.63.05,5.18,5.18,0,0,0,.7-.18,7.77,7.77,0,0,1,1.39-.31,9.46,9.46,0,0,1,1.38,0,6.08,6.08,0,0,0,.77,0c.32,0,.64-.1,1-.17s.76-.16,1.15-.21a7.44,7.44,0,0,1,1.47,0,3.66,3.66,0,0,0,.68,0l.85-.13,1.27-.19a4,4,0,0,0,.59-.21,7.61,7.61,0,0,1,1.46-.47l.86-.15,1.24-.22a7.14,7.14,0,0,1,1.53-.1,3.8,3.8,0,0,0,.63,0,6.29,6.29,0,0,0,.81-.24,11.1,11.1,0,0,1,1.25-.38,12.33,12.33,0,0,1,1.24-.19,8.3,8.3,0,0,0,.87-.14,3.24,3.24,0,0,0,.42-.23,6.08,6.08,0,0,1,1.55-.69c.37-.09.73-.16,1.1-.23l1-.22c.37-.1.75-.18,1.12-.26s.65-.13,1-.22a6.08,6.08,0,0,0,.81-.3c.4-.16.79-.32,1.2-.44a5.46,5.46,0,0,1,1.75-.18,3.15,3.15,0,0,0,.46,0,5,5,0,0,0,.68-.31,12.72,12.72,0,0,1,1.25-.53l1.07-.38.94-.35.93-.31c.37-.11.73-.23,1.09-.36l.76-.27,1.25-.46c.36-.14.74-.26,1.12-.37s.61-.18.9-.3.7-.3,1.05-.46l.9-.4a3.59,3.59,0,0,0,.44-.32,5.47,5.47,0,0,1,2.94-1.3,2.84,2.84,0,0,0,.52-.11,3.08,3.08,0,0,0,.53-.37,7.66,7.66,0,0,1,1.26-.81,11.84,11.84,0,0,1,1.21-.49,6.36,6.36,0,0,0,.77-.29c.22-.12.47-.29.74-.47a10.44,10.44,0,0,1,1.06-.66,7.78,7.78,0,0,1,1.29-.54,5.47,5.47,0,0,0,.68-.28,7.89,7.89,0,0,0,.77-.51c.33-.23.65-.46,1-.66a7.69,7.69,0,0,1,1.36-.61,3.43,3.43,0,0,0,.61-.25,4.77,4.77,0,0,0,.41-.4,7.37,7.37,0,0,1,1.17-1,7.91,7.91,0,0,1,1.4-.67,3.33,3.33,0,0,0,.54-.23,8.38,8.38,0,0,0,.72-.59c.3-.26.61-.52.92-.75a4.16,4.16,0,0,0,.46-.47,7.26,7.26,0,0,1,1-1,7,7,0,0,1,1.29-.76,4,4,0,0,0,.55-.31,3,3,0,0,0,.37-.46,6.8,6.8,0,0,1,1-1.15,6,6,0,0,1,1.4-.87,4.9,4.9,0,0,0,.44-.24,4.68,4.68,0,0,0,.45-.56,8.64,8.64,0,0,1,.88-1.06,11.44,11.44,0,0,1,1-.84,3.41,3.41,0,0,0,1.12-1.18c.22-.3.46-.65.76-1s.35-.39.53-.59.57-.63.85-1a10.75,10.75,0,0,1,.78-.87,8.23,8.23,0,0,0,.61-.68c.16-.22.33-.43.49-.64s.53-.67.77-1a5.74,5.74,0,0,0,.36-.71,9.63,9.63,0,0,1,.59-1.14,10,10,0,0,0,.48-.92c.16-.3.31-.61.47-.9s.35-.69.51-1,.24-.54.38-.81a5.43,5.43,0,0,1,1-1.38c.11-.12.26-.27.3-.33.24-.57.49-1.22.73-1.85a5.41,5.41,0,0,0,.14-.72,8.5,8.5,0,0,1,.27-1.31l.06-.2c.18-.58.36-1.16.51-1.75s.28-1.33.4-2a8.07,8.07,0,0,0,.12-1.09l.09-.93c.05-.38.13-.75.21-1.12a6,6,0,0,0,.15-.88,6.24,6.24,0,0,0,0-.93c0-.37,0-.73,0-1.1s0-.55,0-.83,0-.8,0-1.2c0-.24,0-.48,0-.73,0-.43,0-.87-.08-1.3a4.82,4.82,0,0,0-.21-.68,8.29,8.29,0,0,1-.36-1.28l-.11-.63c-.08-.45-.16-.91-.27-1.36a6.3,6.3,0,0,1-.17-1.46,3.81,3.81,0,0,0-.05-.59,3.85,3.85,0,0,0-.31-.59,8.52,8.52,0,0,1-.63-1.25,8,8,0,0,1-.34-1.34,4.48,4.48,0,0,0-.15-.66c-.28-.63-.57-1.26-.87-1.87a3.84,3.84,0,0,0-.4-.53,7.82,7.82,0,0,1-.82-1.15l-.32-.58c-.22-.41-.45-.82-.69-1.21a8.72,8.72,0,0,0-.55-.73c-.24-.3-.48-.6-.7-.92s-.38-.57-.56-.86a9.9,9.9,0,0,0-.56-.87L346,228c-.3-.41-.6-.81-.93-1.21s-.46-.61-.68-.94a7.12,7.12,0,0,0-.55-.74c-.28-.31-.58-.62-.87-.92l-.57-.59a8.22,8.22,0,0,0-.69-.62c-.3-.25-.59-.5-.86-.77a10.07,10.07,0,0,1-.86-1,4.29,4.29,0,0,0-.52-.61c-.29-.28-.57-.58-.85-.9a6.18,6.18,0,0,0-.6-.63h0l-.35-.13a5.6,5.6,0,0,1-1.57-.85c-.54-.44-1.08-.87-1.64-1.3a6.77,6.77,0,0,1-1.07-1.09,3.08,3.08,0,0,0-.41-.44c-.27-.2-.56-.38-.84-.55s-.63-.39-.93-.6a5.58,5.58,0,0,0-.66-.34,8.18,8.18,0,0,1-1.22-.65,6.08,6.08,0,0,1-1.19-1.06c-.13-.13-.32-.34-.39-.39a5.52,5.52,0,0,0-.55-.21,6.77,6.77,0,0,1-1.43-.6c-.32-.19-.63-.4-.94-.61s-.55-.37-.84-.54-.55-.32-.82-.48-.67-.4-1-.58l-.72-.39c-.38-.21-.76-.42-1.15-.62s-.67-.37-1-.57-.56-.33-.85-.48a7.41,7.41,0,0,0-.79-.3,11.59,11.59,0,0,1-1.2-.46l-.81-.39c-.37-.18-.73-.36-1.11-.52s-.64-.26-1-.38l-1-.4-.94-.41c-.33-.16-.66-.31-1-.45a5.56,5.56,0,0,0-.82-.25,12.15,12.15,0,0,1-1.21-.38c-.44-.17-.83-.37-1.17-.54a5.69,5.69,0,0,0-.77-.36c-.39-.15-.77-.33-1.15-.51a5.7,5.7,0,0,0-.8-.35l-.74-.26-1.27-.44c-.36-.12-.71-.22-1.07-.32l-1-.29-1.25-.37-.8-.23-1.05-.28-1-.26a5.82,5.82,0,0,0-.77-.13,9.54,9.54,0,0,1-1.34-.24l-.69-.18c-.46-.12-.91-.25-1.37-.36a6.91,6.91,0,0,1-1.45-.59,4.51,4.51,0,0,0-.55-.25c-.34-.08-.69-.17-1-.27s-.69-.19-1-.26a5.25,5.25,0,0,0-.81-.1,12.48,12.48,0,0,1-1.32-.18,6.25,6.25,0,0,0-.73-.05,8.49,8.49,0,0,1-1.41-.14,8.87,8.87,0,0,1-1.24-.33,7.79,7.79,0,0,0-.83-.22,8.19,8.19,0,0,0-.88-.09c-.41,0-.83-.07-1.24-.14a6.17,6.17,0,0,1-1.54-.51c-.17-.07-.43-.18-.52-.2s-.39,0-.61,0a7.33,7.33,0,0,1-1.55,0,8.39,8.39,0,0,1-1.38-.35,5.46,5.46,0,0,0-.7-.19l-1-.09c-.37,0-.75,0-1.12-.09l-1.19-.12-.94-.09c-.31,0-.62,0-.93,0s-.81,0-1.22,0-.81-.11-1.21-.18a9.07,9.07,0,0,0-.91-.14l-1.06-.11c-.35,0-.71-.08-1.07-.1s-.68,0-1,0-.75,0-1.12,0a11,11,0,0,1-1.29-.17,7.8,7.8,0,0,0-.84-.11,3,3,0,0,0-.56.09,7.11,7.11,0,0,1-1.59.18,6.05,6.05,0,0,1-1.61-.31,3.6,3.6,0,0,0-.53-.13l-2.14,0a6.77,6.77,0,0,0-.75.09,9.41,9.41,0,0,1-1.4.13,7,7,0,0,0-.83.07,10,10,0,0,1-1.31.11,5.21,5.21,0,0,1-1.77-.33l-.43-.12c-.26,0-.57,0-.88.08s-.81.09-1.21.1-.64.05-1,.09-.79.09-1.18.1-.62.06-.93.1-.81.11-1.21.13a8.51,8.51,0,0,1-1.5-.09,4.7,4.7,0,0,0-.65-.06c-.06,0-.29.1-.45.16a6.35,6.35,0,0,1-1.65.43,5.81,5.81,0,0,1-1.71-.16c-.17,0-.4-.08-.48-.08a6.92,6.92,0,0,0-.75.16,10.29,10.29,0,0,1-1.34.26c-.36,0-.73.06-1.09.09s-.7,0-1,.08-.7.08-1.05.11-.72.06-1.08.11a3.07,3.07,0,0,0-.56.19,6.93,6.93,0,0,1-1.52.44c-.41.05-.83.08-1.25.1s-.59,0-.88.07a7.12,7.12,0,0,1-1.5,0,6.54,6.54,0,0,0-.66,0c-.33,0-.65.13-1,.21s-.74.17-1.11.24l-1,.17c-.38.06-.77.12-1.15.2l-.93.17-1.17.22a5.83,5.83,0,0,0-.76.24,10.42,10.42,0,0,1-1.29.4c-.41.09-.82.15-1.24.2a8.3,8.3,0,0,0-.87.14l-1.07.22c-.34.07-.69.13-1,.22l-.75.18-1.32.33-1.34.38-.72.2a7.35,7.35,0,0,0-.76.3,10.55,10.55,0,0,1-1.23.48,2.54,2.54,0,0,1-.54.09,5.43,5.43,0,0,1-1.43.75l-.27.08-1.77.56c-.35.12-.71.22-1.07.32s-.65.18-1,.29-.69.26-1,.39l-1,.37a7.06,7.06,0,0,1-1.47.34,3.21,3.21,0,0,0-.63.12,4.62,4.62,0,0,0-.57.34,8.08,8.08,0,0,1-1.3.71,7.94,7.94,0,0,1-1.45.39,4.55,4.55,0,0,0-.63.15,4.06,4.06,0,0,0-.5.34,6.55,6.55,0,0,1-1.32.82l-.89.38c-.36.15-.71.29-1.06.46s-.83.33-1.2.46a4.73,4.73,0,0,0-1.52.74,11.6,11.6,0,0,1-1.09.66,7.31,7.31,0,0,1-1.41.52,4.84,4.84,0,0,0-.61.2c-.29.16-.57.34-.85.52s-.63.41-1,.59-.5.33-.75.5a11.15,11.15,0,0,1-1,.68,7.93,7.93,0,0,1-1.27.6,4.76,4.76,0,0,0-.66.3c-.34.21-.7.4-1.05.58a8.69,8.69,0,0,0-.8.44,5,5,0,0,0-.37.39,6,6,0,0,1-1.17,1.12c-.54.37-1.06.76-1.58,1.14l-.13.09a6,6,0,0,1-1.47.75c-.17.07-.4.16-.47.2a6,6,0,0,0-.58.57,10.28,10.28,0,0,1-.94.89,12.09,12.09,0,0,1-1,.72,7,7,0,0,0-.71.51,5.79,5.79,0,0,0-.38.49,7.06,7.06,0,0,1-1,1.16c-.3.28-.58.57-.86.86l-.62.62a9.17,9.17,0,0,1-1.1.88,3.83,3.83,0,0,0-.55.42c-.38.4-.74.82-1.1,1.23l-.7.78c-.32.37-.65.74-1,1.12a3.9,3.9,0,0,0-.26.51,6.55,6.55,0,0,1-.74,1.34,8.36,8.36,0,0,1-.91,1,4.2,4.2,0,0,0-.49.53,9.12,9.12,0,0,0-.5.85c-.17.32-.34.64-.53,1s-.5.71-.72,1a6.13,6.13,0,0,0-.49.68,3.6,3.6,0,0,0-.23.65,8.13,8.13,0,0,1-.49,1.29,10.38,10.38,0,0,1-.59,1,6.1,6.1,0,0,0-.42.76l-.24.54c-.2.44-.39.88-.56,1.33a5.56,5.56,0,0,0-.17.76,8.47,8.47,0,0,1-.27,1.24,6,6,0,0,1-.69,1.43,3.74,3.74,0,0,0-.25.45s0,.3,0,.47a6.68,6.68,0,0,1-.05,1.58,7.18,7.18,0,0,1-.46,1.42,2.83,2.83,0,0,0-.2.53l0,.39c-.07.54-.13,1.09-.17,1.63s0,.88,0,1.33c0,.24,0,.47,0,.71a4.35,4.35,0,0,0,.12.62,7.06,7.06,0,0,1,.25,1.4c0,.67.1,1.33.18,2a6.38,6.38,0,0,1,0,1.53,4.14,4.14,0,0,0,0,.54,3.84,3.84,0,0,0,.23.53,7.84,7.84,0,0,1,.53,1.38,6.2,6.2,0,0,1,.13,1.59,3.55,3.55,0,0,0,0,.5c.19.63.41,1.29.64,1.93a7,7,0,0,0,.39.76,10.88,10.88,0,0,1,.56,1.07c.27.63.57,1.25.88,1.86a3.55,3.55,0,0,0,.42.61,10.79,10.79,0,0,1,.74,1.09c.19.33.35.68.51,1a7,7,0,0,0,.4.82c.37.58.75,1.15,1.14,1.72.23.33.47.64.72.95l.54.7c.22.29.42.6.62.91s.35.54.56.8a10.14,10.14,0,0,0,.71.76c.24.25.48.5.71.76s.44.52.65.79.44.56.68.81.47.52.7.79.45.53.7.77.71.68,1.08,1l.45.41c.33.3.67.59,1,.88l1.15,1c.33.29.67.59,1,.88s.6.46.91.69.52.38.77.58.58.41.88.61l.85.59a8.09,8.09,0,0,0,.79.5c.34.2.67.4,1,.62a10.45,10.45,0,0,1,1,.83,7.4,7.4,0,0,0,.63.52,7.76,7.76,0,0,0,.72.37,10.05,10.05,0,0,1,1.17.6c.3.2.62.37.94.54s.6.33.89.51a5.82,5.82,0,0,1,1.26,1.05c.13.13.31.31.38.36l1.85,1c.26.13.54.24.82.35s.76.31,1.13.5a12.69,12.69,0,0,1,1.1.67,6.38,6.38,0,0,0,.72.44l.35.18,1.56.75a4.89,4.89,0,0,0,.65.19,7.19,7.19,0,0,1,1.41.44,7.8,7.8,0,0,1,1.25.73,4.72,4.72,0,0,0,.59.37c.3.12.62.23.93.34s.72.24,1.07.38.67.25,1,.37l1,.35a4,4,0,0,0,.63.13,6.85,6.85,0,0,1,1.46.34c.39.14.77.32,1.15.5a7.32,7.32,0,0,0,.81.35c.37.13.73.28,1.09.44s.59.25.9.35a6.8,6.8,0,0,0,.79.18,9.41,9.41,0,0,1,1.29.3c.32.1.64.18,1,.26l1.08.28a12.81,12.81,0,0,1,1.23.47,5.22,5.22,0,0,0,.77.3,12,12,0,0,1,1.15.4c.29.1.57.21.87.29.69.19,1.37.36,2.07.54a11.75,11.75,0,0,1,1.22.39,6.41,6.41,0,0,0,.81.27,3.8,3.8,0,0,0,.65,0,7.16,7.16,0,0,1,1.5.15,8.24,8.24,0,0,0,.85.11c.43.05.86.09,1.27.18a8.28,8.28,0,0,1,1.32.41,5.92,5.92,0,0,0,.74.23c.39.08.77.18,1.16.28s.61.17.92.23.78.17,1.17.27.61.16.92.21.65.08,1,.12.77.07,1.15.13.66.08,1,.11l1.14.12a3.06,3.06,0,0,0,.67,0,7.53,7.53,0,0,1,1.49,0,7.43,7.43,0,0,1,1.43.36,4.8,4.8,0,0,0,.65.18c.4.05.8.12,1.2.2s.61.12.92.15a3.84,3.84,0,0,0,.59-.05,7,7,0,0,1,1.58-.07L234,309c.35,0,.71.09,1.06.12s.85.06,1.27.09l1.56.1,1.44.1a7,7,0,0,1,1.49.28,3.91,3.91,0,0,0,.63.13l1.06.07c.36,0,.72.06,1.08.07l.36-.12A5.85,5.85,0,0,1,245.68,309.49Z" style="fill: #1d1d1b"/>
  </g>
</svg>
