<svg xmlns="http://www.w3.org/2000/svg" viewBox="0 0 500 500">
  <title>circle-small</title>
  <g>
    <path d="M215.56,207.27c-.65.2-1.11.93-1.74,1.15l-1.9.64c-.63.23-1.29.37-1.91.61s-1.22.54-1.84.79-1.37.18-2,.45-1.09.85-1.7,1.13-1.36.26-2,.55-1,1-1.61,1.26-1.2.59-1.78.91-1.26.5-1.83.84-1,.87-1.6,1.22-1.32.44-1.87.82-1,.85-1.58,1.24-1,.94-1.49,1.35-1.23.62-1.74,1-1.13.77-1.62,1.21-.67,1.25-1.14,1.71-.93,1-1.38,1.45-1.25.68-1.68,1.19-.69,1.18-1.09,1.71-1,1-1.33,1.52-.43,1.33-.77,1.9-.62,1.17-.93,1.76-.89,1.06-1.16,1.66-.52,1.25-.75,1.87-.48,1.26-.67,1.89,0,1.39-.11,2-.55,1.25-.65,1.91,0,1.33-.07,2-.29,1.32-.29,2,.34,1.33.39,2-.08,1.35,0,2,.18,1.33.33,2,.57,1.23.77,1.88,0,1.43.2,2.06.93,1.06,1.22,1.68.2,1.39.52,2,.62,1.2,1,1.78.78,1.1,1.17,1.66,1.06.88,1.47,1.42.83,1,1.27,1.56.55,1.3,1,1.8,1.21.69,1.7,1.17.63,1.28,1.14,1.73,1,.91,1.52,1.34,1.18.68,1.72,1.1,1.07.81,1.62,1.2,1.25.55,1.81.93,1,.9,1.59,1.26,1.14.7,1.72,1.05,1.19.61,1.79.94,1.1.77,1.71,1.08,1.24.51,1.85.81,1.16.68,1.78,1,1.18.66,1.8.92,1.25.5,1.88.75,1.26.46,1.9.7,1.24.5,1.88.73,1.29.38,1.94.59,1.3.33,1.95.53,1.32.25,2,.44,1.23.58,1.88.75,1.36.12,2,.28,1.32.24,2,.38,1.21.75,1.88.88,1.32.27,2,.39,1.36.08,2,.19,1.3.42,2,.52,1.33.21,2,.3,1.38-.15,2.05-.07,1.31.46,2,.53,1.35,0,2,.07,1.34,0,2,.08,1.36-.27,2-.23,1.33.23,2,.25,1.34.16,2,.17,1.35-.19,2-.19,1.35-.1,2-.11,1.35.19,2,.17,1.36.11,2,.07l2-.11c.67,0,1.36.1,2,0s1.32-.46,2-.53,1.32-.32,2-.39,1.37.09,2,0,1.36-.05,2-.15,1.36-.08,2-.19,1.32-.33,2-.45,1.31-.35,2-.49,1.26-.6,1.91-.75,1.39,0,2-.14,1.35-.19,2-.36,1.2-.73,1.85-.91,1.31-.32,1.95-.51,1.28-.43,1.92-.64,1.28-.41,1.91-.63,1.4-.13,2-.37,1.29-.42,1.92-.67,1-1,1.64-1.32,1.34-.29,1.95-.57,1.33-.35,1.93-.65,1.2-.64,1.79-.95,1.09-.83,1.67-1.16,1.31-.44,1.89-.78.9-1.11,1.47-1.47,1.29-.48,1.85-.86,1.06-.83,1.61-1.22,1.29-.53,1.82-.94.7-1.29,1.21-1.72,1.26-.6,1.75-1.05.79-1.13,1.27-1.6,1.13-.78,1.58-1.27.83-1.07,1.26-1.58,1.11-.84,1.52-1.37.83-1.08,1.21-1.63.45-1.33.8-1.9.71-1.14,1-1.73.94-1.05,1.22-1.65.36-1.33.59-1.95.63-1.23.82-1.87-.11-1.42,0-2.07.37-1.29.47-1.95.27-1.32.32-2-.11-1.33-.11-2,.52-1.37.47-2-.37-1.33-.47-2-.27-1.32-.42-2-.28-1.32-.47-2-.39-1.29-.63-1.92-.37-1.31-.66-1.93-.63-1.19-.95-1.79-1-1-1.38-1.53-.34-1.38-.73-1.94-1.06-.88-1.47-1.42-.66-1.18-1.1-1.7-1-.88-1.48-1.38-.73-1.16-1.22-1.64-1.07-.81-1.57-1.27-.78-1.15-1.31-1.58-1.29-.53-1.83-.95-.83-1.13-1.38-1.53-1.19-.64-1.75-1-1.31-.45-1.88-.81-.95-1-1.54-1.36-1.35-.33-1.94-.66-1-1.06-1.56-1.37-1.32-.35-1.93-.65-1.11-.8-1.73-1.08-1.31-.35-1.93-.62-1.22-.57-1.85-.82-1.18-.66-1.82-.9-1.24-.52-1.88-.75-1.35-.2-2-.41-1.32-.29-2-.49-1.31-.3-2-.49-1.15-.9-1.8-1.07-1.31-.33-2-.49-1.38,0-2-.16-1.31-.32-2-.45-1.32-.24-2-.37-1.34-.13-2-.24-1.29-.41-2-.51-1.36,0-2-.11-1.32-.25-2-.33-1.33-.22-2-.28-1.36.18-2,.12-1.34-.16-2-.2-1.32-.47-2-.5-1.36.27-2,.25-1.33-.37-2-.38h-2c-.68,0-1.36.34-2,.35s-1.37,0-2,0-1.35.22-2,.26-1.37-.05-2.05,0-1.36.06-2,.12-1.37-.05-2.05,0-1.35.2-2,.27-1.34.32-2,.41-1.39-.05-2.06,0-1.38,0-2.05.13-1.25.8-1.92.92l-2,.39c-.67.14-1.42-.09-2.08.06s-1.31.42-2,.58-1.26.6-1.91.77-1.44,0-2.09.13-1.19.76-1.84,1" style="fill: #fff"/>
    <path d="M248,293.84h-.08a10.86,10.86,0,0,1-1.28-.1c-.26,0-.52-.06-.78-.07a9.66,9.66,0,0,1-1.34-.16,5.51,5.51,0,0,0-.71-.09,2.89,2.89,0,0,0-.48.07,5.76,5.76,0,0,1-1.59.15c-.28,0-.57,0-.85,0s-.81,0-1.21-.05l-.81,0c-.42,0-.84,0-1.26-.05a6.6,6.6,0,0,1-1.52-.38,4.43,4.43,0,0,0-.49-.16l-.52,0a6.14,6.14,0,0,1-1.57,0L232,292.8l-.56-.08a8.12,8.12,0,0,1-1.36-.35,4.36,4.36,0,0,0-.64-.18,6,6,0,0,0-.73-.06,11.66,11.66,0,0,1-1.33-.13l-2-.4a5.28,5.28,0,0,1-1.66-.72,2.79,2.79,0,0,0-.33-.19l-.75-.13c-.4-.08-.8-.15-1.2-.24a4.6,4.6,0,0,0-.65-.08,8.43,8.43,0,0,1-1.41-.22,7.54,7.54,0,0,1-1.34-.51,4.07,4.07,0,0,0-.59-.25c-.24-.07-.49-.11-.74-.16a11.33,11.33,0,0,1-1.28-.29c-.26-.08-.52-.14-.79-.21s-.81-.2-1.2-.33-.53-.16-.79-.24-.8-.23-1.19-.37-.79-.3-1.18-.45l-.74-.29-.77-.28c-.4-.14-.79-.28-1.18-.44l-.69-.27-1.24-.49c-.4-.18-.78-.38-1.16-.59l-.69-.36a12.64,12.64,0,0,1-1.15-.61,7.37,7.37,0,0,0-.68-.37,6.51,6.51,0,0,0-.72-.31c-.4-.17-.8-.33-1.18-.53a12.08,12.08,0,0,1-1.14-.71c-.21-.14-.41-.28-.62-.4s-.47-.25-.71-.37-.76-.39-1.13-.6c-.6-.36-1.2-.71-1.78-1.08a9.15,9.15,0,0,1-1.11-.86,6.67,6.67,0,0,0-.53-.43,4.32,4.32,0,0,0-.52-.25,6.51,6.51,0,0,1-1.35-.73l-.09-.06c-.54-.39-1.08-.78-1.6-1.18a3.88,3.88,0,0,0-.55-.34,8.55,8.55,0,0,1-1.22-.81c-.54-.46-1.07-.93-1.59-1.4a4.81,4.81,0,0,1-1.08-1.53,3.47,3.47,0,0,0-.18-.33s-.18-.08-.31-.15a4.57,4.57,0,0,1-2.34-2.58,1.69,1.69,0,0,0-.17-.36c-.43-.5-.87-1-1.3-1.6a2.46,2.46,0,0,0-.35-.3,5.7,5.7,0,0,1-1.19-1.21l-.4-.56c-.29-.39-.58-.79-.83-1.2s-.57-1-.83-1.5l-.21-.4a5.24,5.24,0,0,1-.52-1.73,1.67,1.67,0,0,0-.08-.4l-.21-.22a4.85,4.85,0,0,1-1-1.57,4.91,4.91,0,0,1-.27-1.88,1.7,1.7,0,0,0,0-.39c0-.06-.12-.25-.22-.46a6.62,6.62,0,0,1-.58-1.51c-.13-.59-.21-1.16-.29-1.7l-.06-.45a7.49,7.49,0,0,1,0-1.54,4.56,4.56,0,0,0,0-.64,4.27,4.27,0,0,0-.11-.49,5.79,5.79,0,0,1-.28-1.67,8,8,0,0,1,.19-1.55c0-.2.09-.4.11-.6s0-.45,0-.67a10.07,10.07,0,0,1,.08-1.5,5.86,5.86,0,0,1,.49-1.56,3.15,3.15,0,0,0,.18-.5,2.53,2.53,0,0,0,0-.38,5.25,5.25,0,0,1,.16-1.81c.17-.58.39-1.16.61-1.73l.16-.43c.23-.63.47-1.26.75-1.87a5.78,5.78,0,0,1,.91-1.38,3.39,3.39,0,0,0,.31-.41c.1-.18.19-.37.28-.55.23-.45.45-.89.72-1.32,0-.06.08-.26.13-.4a5.45,5.45,0,0,1,.7-1.6,8.66,8.66,0,0,1,1-1.12,4.23,4.23,0,0,0,.45-.5,3.46,3.46,0,0,0,.32-.52,8.12,8.12,0,0,1,.84-1.27,5,5,0,0,1,1.46-1.12,1.52,1.52,0,0,0,.33-.2c.43-.46.9-1,1.4-1.46a2.4,2.4,0,0,0,.15-.29,5,5,0,0,1,1.06-1.48A9,9,0,0,1,187,220a6.22,6.22,0,0,0,.58-.43,7.2,7.2,0,0,1,1.31-.82,4,4,0,0,0,.49-.27c.18-.15.34-.31.51-.47a8.3,8.3,0,0,1,1-.92c.2-.15.39-.31.58-.47a11.84,11.84,0,0,1,1.05-.82,6,6,0,0,1,1.49-.69,4,4,0,0,0,.44-.16,6.54,6.54,0,0,0,.51-.41,8.89,8.89,0,0,1,1.14-.85,9.21,9.21,0,0,1,1.26-.59,3.46,3.46,0,0,0,.62-.28c.38-.21.76-.4,1.15-.59l.69-.34.29-.27a4.79,4.79,0,0,1,2.9-1.49,3.33,3.33,0,0,0,.47-.11,2.54,2.54,0,0,0,.37-.28,6.24,6.24,0,0,1,1.37-.87,5.57,5.57,0,0,1,1.58-.39l.46-.08.72-.32c.38-.17.76-.34,1.16-.49s.79-.27,1.19-.39.51-.14.76-.23c.61-.22,1.22-.42,1.84-.63a1.3,1.3,0,0,0,.22-.19,4.58,4.58,0,0,1,1.66-1,2.17,2.17,0,0,1,1.07-.06,4.57,4.57,0,0,1,1-.42,5.32,5.32,0,0,1,1.74-.15c.15,0,.36,0,.43,0l.5-.23a6.92,6.92,0,0,1,1.41-.55c.26-.06.51-.15.77-.23.41-.13.82-.26,1.23-.35a5.93,5.93,0,0,1,1.68-.09,4.21,4.21,0,0,0,.46,0l1.93-.38.25-.16a4.57,4.57,0,0,1,1.8-.79,8.9,8.9,0,0,1,1.39-.1,6.81,6.81,0,0,0,.7,0,7.51,7.51,0,0,1,1.46-.06,4.49,4.49,0,0,0,.64,0,5.93,5.93,0,0,0,.73-.16,10.37,10.37,0,0,1,1.32-.25c.28,0,.55-.08.83-.12l1.23-.16a10.52,10.52,0,0,1,1.36,0c.24,0,.49,0,.73,0,.42,0,.84-.06,1.26-.08l.82,0c.43,0,.85,0,1.28,0,.27,0,.53,0,.8,0a5.83,5.83,0,0,0,.73-.1,9.74,9.74,0,0,1,1.35-.15c.4,0,.82,0,1.23,0s.56,0,.84,0a3.54,3.54,0,0,0,.49-.1,5.76,5.76,0,0,1,1.59-.25H252a6.37,6.37,0,0,1,1.57.27,2.65,2.65,0,0,0,.49.11h0c.08,0,.31-.05.48-.08a5.66,5.66,0,0,1,1.58-.17,5.86,5.86,0,0,1,1.65.37l.41.14c.38,0,.79.07,1.19.11s.55.07.83.09a4.34,4.34,0,0,0,.53,0,6.28,6.28,0,0,1,1.55-.07c.41,0,.81.1,1.22.16s.54.09.82.12.82.12,1.22.2.54.11.81.14a5.78,5.78,0,0,0,.72,0,7.33,7.33,0,0,1,2.7.42,5.6,5.6,0,0,0,.65.18,6.82,6.82,0,0,0,.79.09c.42,0,.84.08,1.25.16l.71.13,1.32.24,1.27.29.74.17a3.75,3.75,0,0,0,.54,0,5.91,5.91,0,0,1,1.54.15l.58.14c.48.11,1,.22,1.43.35a4.62,4.62,0,0,1,1.71.94l.23.18.69.16c.41.09.81.18,1.21.31.25.07.5.12.75.18a11.11,11.11,0,0,1,1.26.32,4.39,4.39,0,0,0,.6.11,7.09,7.09,0,0,1,1.43.32c.4.14.8.3,1.19.46s.49.21.74.3a10.16,10.16,0,0,1,1.23.59,4.67,4.67,0,0,0,.63.32c.4.16.79.34,1.18.52.24.11.48.23.72.33s.38.12.63.19a8.87,8.87,0,0,1,1.35.45,8.19,8.19,0,0,1,1.26.76,5.54,5.54,0,0,0,.51.34,3.67,3.67,0,0,0,.54.16,7.16,7.16,0,0,1,1.45.52,5.11,5.11,0,0,1,1.41,1.17,2.39,2.39,0,0,0,.22.23l.37.1a5.66,5.66,0,0,1,1.61.58,5.9,5.9,0,0,1,1.26,1.08,3,3,0,0,0,.33.32,2.88,2.88,0,0,0,.44.16,6,6,0,0,1,1.49.68c.2.14.42.25.63.37a10.36,10.36,0,0,1,1.18.7A5.65,5.65,0,0,1,310,218c.09.12.22.29.27.34l.35.14a5.26,5.26,0,0,1,1.53.84,6.09,6.09,0,0,1,1.08,1.25,3.76,3.76,0,0,0,.28.39c.18.16.38.31.57.45a9,9,0,0,1,1.07.89,6,6,0,0,1,1,1.24,4.23,4.23,0,0,0,.32.46c.16.17.34.31.51.46a9.34,9.34,0,0,1,1,1,8.54,8.54,0,0,1,.84,1.25,4.86,4.86,0,0,0,.33.54,3.38,3.38,0,0,0,.36.31,5.85,5.85,0,0,1,1.18,1.2,5.15,5.15,0,0,1,.71,1.7c0,.13.06.26.11.38a2.27,2.27,0,0,1,.25.21,5.17,5.17,0,0,1,1.18,1.39c.09.18.19.36.29.54.25.46.5.91.72,1.38a11.4,11.4,0,0,1,.5,1.4q.09.33.21.66c.25.66.45,1.32.64,1.95l0,.12c.17.57.29,1.12.4,1.65l.22.95c.12.52.25,1.06.34,1.65a4.25,4.25,0,0,0,.15.59,6.73,6.73,0,0,1,.33,1.57,4.73,4.73,0,0,1-.35,2,1.76,1.76,0,0,0-.1.3,5.65,5.65,0,0,0,0,.58,8.14,8.14,0,0,1,.06,1.52,11.43,11.43,0,0,1-.23,1.49c0,.22-.09.44-.12.66a12.4,12.4,0,0,1-.33,1.47c-.05.21-.11.42-.16.64a2.51,2.51,0,0,1,0,.29,4.88,4.88,0,0,1-.11,1.93,9.36,9.36,0,0,1-.59,1.4c-.09.2-.2.4-.28.61s-.12.42-.17.63a9.15,9.15,0,0,1-.48,1.46,5.67,5.67,0,0,1-1,1.41,4.47,4.47,0,0,0-.3.37c-.3.56-.63,1.1-1,1.65l-.12.19a3.11,3.11,0,0,0-.15.42,5.77,5.77,0,0,1-.72,1.58c-.35.52-.75,1-1.14,1.54l-.14.18a6,6,0,0,1-1.18,1.12,3.34,3.34,0,0,0-.41.34c-.15.18-.3.38-.44.57a12.36,12.36,0,0,1-.88,1.08,7.73,7.73,0,0,1-1.16,1,4.37,4.37,0,0,0-.49.37,4.78,4.78,0,0,0-.32.43,5.83,5.83,0,0,1-1,1.23,5.55,5.55,0,0,1-1.4.89l-.35.18-.12.23a4.5,4.5,0,0,1-1.22,1.57,6,6,0,0,1-1.43.79,2.22,2.22,0,0,0-.45.2l-.62.47c-.34.27-.69.55-1,.79a6.33,6.33,0,0,1-1.4.68,4,4,0,0,0-.51.22,1.4,1.4,0,0,1-.16.23,4.83,4.83,0,0,1-1.36,1.27,7,7,0,0,1-1.37.6,3.42,3.42,0,0,0-.57.22,3.47,3.47,0,0,0-.51.37,7.58,7.58,0,0,1-1.22.81l-.66.36c-.38.21-.77.42-1.17.62a8.18,8.18,0,0,1-1.38.48,5.49,5.49,0,0,0-.6.19,7,7,0,0,1-1.44.44l-.47.12-.18.19a4.71,4.71,0,0,1-1.6,1.18c-.39.15-.78.29-1.18.42l-.78.27a5.59,5.59,0,0,1-1.59.32l-.48.06-1.46.49-1.16.39-1.29.42c-.4.12-.8.22-1.2.32l-.8.2-.36.21a5.48,5.48,0,0,1-1.53.71,12.45,12.45,0,0,1-1.28.25,6.71,6.71,0,0,0-.76.13,6.55,6.55,0,0,1-1.57.14,3.87,3.87,0,0,0-.51,0,3.54,3.54,0,0,0-.45.2,6.3,6.3,0,0,1-1.49.56c-.27,0-.53.12-.79.19s-.81.22-1.22.3-.53.12-.78.18c-.41.11-.82.21-1.23.28s-.9.1-1.29.13a6.48,6.48,0,0,0-.77.06,10.39,10.39,0,0,1-1.29.1c-.26,0-.52,0-.77.06a7.35,7.35,0,0,1-1.48,0,4.44,4.44,0,0,0-.6,0,5.52,5.52,0,0,0-.68.15,10.07,10.07,0,0,1-1.34.25,3.86,3.86,0,0,0-.45.15,5.92,5.92,0,0,1-1.57.38,8.83,8.83,0,0,1-1.37,0,4.1,4.1,0,0,0-.7,0l-2.06.11a9.12,9.12,0,0,1-1.31,0,6.19,6.19,0,0,0-.75,0,8.44,8.44,0,0,1-1.4-.1c-.25,0-.49-.06-.65-.07l-.83,0c-.4,0-.81.06-1.23.06-.17,0-.41,0-.67.07A8.12,8.12,0,0,1,248,293.84ZM243.76,289H244a9.92,9.92,0,0,1,1.22.15,6.52,6.52,0,0,0,.75.1c.38,0,.77.06,1.15.1s.56.07.84.08l.67-.08c.62-.09,1.42-.11,2.21-.17.36,0,.72-.05,1.09-.06a9.89,9.89,0,0,1,1.32.11,3.62,3.62,0,0,0,.66.06c.4,0,.81,0,1.21,0a6.79,6.79,0,0,0,.78,0l2-.11a7.5,7.5,0,0,1,1.27,0,6.29,6.29,0,0,0,.72,0,3.86,3.86,0,0,0,.45-.15,6.28,6.28,0,0,1,1.5-.38,4.89,4.89,0,0,0,.71-.14,11.28,11.28,0,0,1,1.24-.25,7.24,7.24,0,0,1,1.4,0,4.48,4.48,0,0,0,.6,0,9.22,9.22,0,0,1,1.17-.09,7.18,7.18,0,0,0,.81-.06c.39-.06.78-.08,1.18-.11a5.54,5.54,0,0,0,.81-.07c.29,0,.57-.12.86-.2s.72-.18,1.08-.25.57-.13.86-.21.71-.19,1.07-.26a4.91,4.91,0,0,0,.45-.21,5.4,5.4,0,0,1,2.91-.65,3.41,3.41,0,0,0,.5,0c.38-.09.77-.15,1.16-.21a7,7,0,0,0,.8-.14l.36-.21a5.45,5.45,0,0,1,1.45-.69l1-.25c.32-.08.64-.15.95-.25l1.17-.38,1.2-.4,1.37-.46a6.16,6.16,0,0,1,1.52-.29,3.24,3.24,0,0,0,.47-.06l.92-.32c.27-.09.55-.18.82-.29a1.8,1.8,0,0,0,.19-.2,4.73,4.73,0,0,1,1.52-1.14,7,7,0,0,1,1.34-.4,4.07,4.07,0,0,0,.57-.15,8.28,8.28,0,0,1,1.27-.43,5.49,5.49,0,0,0,.6-.19c.34-.17.67-.35,1-.53l.74-.4a4.54,4.54,0,0,0,.55-.39,9,9,0,0,1,1.07-.74,7.44,7.44,0,0,1,1.28-.53l.5-.19a2.65,2.65,0,0,0,.21-.26,5.06,5.06,0,0,1,1.26-1.21A6.69,6.69,0,0,1,304,275a3.71,3.71,0,0,0,.49-.21c.28-.19.53-.39.79-.6s.51-.4.77-.58a6,6,0,0,1,1.33-.7l.35-.16.12-.21A4.45,4.45,0,0,1,309,271a6.19,6.19,0,0,1,1.3-.8l.4-.21a5.25,5.25,0,0,0,.32-.44,6.16,6.16,0,0,1,1.89-1.91,3.69,3.69,0,0,0,.49-.38,7.7,7.7,0,0,0,.57-.71c.21-.28.41-.54.62-.8a7.35,7.35,0,0,1,1.06-1,4.4,4.4,0,0,0,.4-.33l.13-.18c.35-.44.7-.89,1-1.35a3.86,3.86,0,0,0,.15-.43,6.2,6.2,0,0,1,.58-1.36l.12-.2c.29-.47.58-.94.84-1.42a6.22,6.22,0,0,1,.87-1.2,3.31,3.31,0,0,0,.3-.36,5.23,5.23,0,0,0,.2-.69,8.21,8.21,0,0,1,.33-1.1c.13-.34.28-.67.44-1a7,7,0,0,0,.3-.65c0-.1,0-.21,0-.32a5.12,5.12,0,0,1,.05-1.68c.06-.27.13-.54.2-.81a7.18,7.18,0,0,0,.23-1c0-.29.1-.57.16-.86s.13-.68.15-1a5.45,5.45,0,0,0,0-.75,10,10,0,0,1-.07-1.1,5,5,0,0,1,.36-1.72l.09-.26c0-.14-.09-.35-.14-.54a6.69,6.69,0,0,1-.29-1.19c-.07-.43-.17-.86-.27-1.29l-.24-1c-.09-.44-.19-.88-.32-1.31l0-.12c-.17-.56-.34-1.12-.54-1.66-.12-.31-.21-.62-.31-.94a6.31,6.31,0,0,0-.3-.85c-.16-.37-.36-.72-.56-1.08l-.33-.6-.24-.2a5.36,5.36,0,0,1-1.07-1.22,5.23,5.23,0,0,1-.59-1.51,2.4,2.4,0,0,0-.12-.38s-.17-.12-.3-.23a6.38,6.38,0,0,1-1.06-1,8,8,0,0,1-.66-1,4.5,4.5,0,0,0-.38-.58,6.9,6.9,0,0,0-.53-.5,7.85,7.85,0,0,1-.88-.81,7.21,7.21,0,0,1-.81-1.08,3.07,3.07,0,0,0-.34-.48,6.28,6.28,0,0,0-.62-.51,9.89,9.89,0,0,1-.89-.71,6.86,6.86,0,0,1-.95-1.13,3,3,0,0,0-.29-.4l-.33-.13a5.79,5.79,0,0,1-1.44-.76,5.86,5.86,0,0,1-1.07-1.16,3,3,0,0,0-.28-.34,5.27,5.27,0,0,0-.64-.37,11.37,11.37,0,0,1-1-.6l-.43-.16a6,6,0,0,1-1.4-.62,5.61,5.61,0,0,1-1.15-1c-.12-.12-.27-.28-.34-.33l-.36-.08a5.54,5.54,0,0,1-1.52-.53,5.27,5.27,0,0,1-1.31-1.12,3.57,3.57,0,0,0-.27-.28l-.45-.11a7,7,0,0,1-1.36-.46,7.64,7.64,0,0,1-1.13-.71,4.69,4.69,0,0,0-.54-.35,6.35,6.35,0,0,0-.64-.2,7.76,7.76,0,0,1-1.25-.4l-.83-.37c-.32-.15-.64-.3-1-.43s-.77-.37-1.09-.54a5.35,5.35,0,0,0-.68-.34l-.88-.35c-.32-.13-.63-.27-1-.38a4.11,4.11,0,0,0-.6-.11,8.72,8.72,0,0,1-1.35-.29,7.37,7.37,0,0,0-.81-.2c-.37-.08-.74-.17-1.11-.28s-.58-.15-.88-.22-.69-.15-1-.25a4.81,4.81,0,0,1-1.64-.92l-.23-.18-1.21-.29-.6-.15a4,4,0,0,0-.53,0,6.82,6.82,0,0,1-1.47-.14c-.27,0-.53-.12-.8-.18l-1.13-.26-1.2-.22-.75-.13a8.43,8.43,0,0,0-.86-.11c-.37,0-.74-.07-1.11-.13a9.65,9.65,0,0,1-1.24-.32,6.87,6.87,0,0,0-.68-.19c-.19,0-.46,0-.74,0a8,8,0,0,1-1.25-.07c-.36,0-.71-.11-1.06-.18s-.6-.11-.91-.15l-1-.14-1-.14a3.16,3.16,0,0,0-.52.06,6.79,6.79,0,0,1-1.48.07c-.33,0-.66-.06-1-.1l-1-.1a5.58,5.58,0,0,1-1.57-.37,3.11,3.11,0,0,0-.42-.13l-.44.09a7,7,0,0,1-1.53.17,6.36,6.36,0,0,1-1.49-.26l-.49-.12h-2a2.83,2.83,0,0,0-.49.11,6.63,6.63,0,0,1-1.52.24h-2a6.53,6.53,0,0,0-.77.1,10.35,10.35,0,0,1-1.23.15c-.39,0-.77,0-1.15,0a8.22,8.22,0,0,0-.86,0l-.91.05-1.1.06a10.54,10.54,0,0,1-1.25,0,6.37,6.37,0,0,0-.76,0l-1,.14-1,.13a7.2,7.2,0,0,0-.78.16,9.64,9.64,0,0,1-1.19.24,8.28,8.28,0,0,1-1.38,0,3.25,3.25,0,0,0-.64,0,10.23,10.23,0,0,1-1.29.08,5.66,5.66,0,0,0-.63,0c-.08,0-.16.1-.24.15A4.65,4.65,0,0,1,228,207c-.66.13-1.31.25-2,.39a6.08,6.08,0,0,1-1.61.07,4.21,4.21,0,0,0-.46,0c-.26.06-.54.16-.83.25s-.71.23-1.07.31a4.86,4.86,0,0,0-.55.24,6.45,6.45,0,0,1-1.32.53,5.38,5.38,0,0,1-1.67.13,2.94,2.94,0,0,0-.42,0,2.06,2.06,0,0,1-.31.21,5.51,5.51,0,0,1-1.44.72,2,2,0,0,1-.8.1,4.13,4.13,0,0,1-1.05.54l-.09,0-1.76.6c-.33.12-.67.22-1,.32a8.39,8.39,0,0,0-.85.27c-.32.12-.62.26-.93.4s-.58.26-.87.37a6,6,0,0,1-1.5.36l-.45.08a4.48,4.48,0,0,0-.37.28,6,6,0,0,1-1.26.82,6.09,6.09,0,0,1-1.46.43c-.16,0-.39.08-.46.11l-.28.27a5.65,5.65,0,0,1-1.27,1l-.78.4c-.32.15-.64.31-.95.48a7.83,7.83,0,0,1-1.13.52,5.29,5.29,0,0,0-.65.29c-.14.09-.34.26-.55.43a8.78,8.78,0,0,1-1,.76,5.85,5.85,0,0,1-1.4.62,3.73,3.73,0,0,0-.43.16,8.2,8.2,0,0,0-.68.55c-.27.22-.54.45-.82.65a5,5,0,0,0-.57.52,10.75,10.75,0,0,1-.87.78,6.73,6.73,0,0,1-1.19.72,3.06,3.06,0,0,0-.48.28,10.56,10.56,0,0,1-.93.68,6.58,6.58,0,0,0-.62.47l-.14.28a5.34,5.34,0,0,1-.94,1.37c-.46.45-.89.91-1.32,1.37a5,5,0,0,1-1.37,1l-.28.17c-.09.12-.21.33-.32.52a8.87,8.87,0,0,1-.66,1.06c-.24.31-.51.59-.78.88a5.19,5.19,0,0,0-.49.54s-.08.24-.12.39a5.77,5.77,0,0,1-.58,1.41c-.2.33-.37.67-.55,1s-.21.42-.32.63a6.6,6.6,0,0,1-.8,1.14c-.11.14-.26.33-.3.4-.24.52-.44,1.07-.64,1.6l-.17.44c-.18.48-.36,1-.51,1.44,0,.07,0,.21,0,.35a5.69,5.69,0,0,1-.09,1.54,7.52,7.52,0,0,1-.43,1.25,3.39,3.39,0,0,0-.19.5,7,7,0,0,0,0,.84c0,.33,0,.67,0,1a8.35,8.35,0,0,1-.18,1.16,4.54,4.54,0,0,0-.1.67,3.4,3.4,0,0,0,.12.5,6.77,6.77,0,0,1,.26,1.34,8.52,8.52,0,0,1,0,1.13,4.09,4.09,0,0,0,0,.72l.07.48a12.87,12.87,0,0,0,.23,1.36,4.45,4.45,0,0,0,.23.54,7.52,7.52,0,0,1,.49,1.18,5.11,5.11,0,0,1,.18,1.64v.27l.18.2a5.24,5.24,0,0,1,1,1.36,5.34,5.34,0,0,1,.4,1.5c0,.15.06.35.08.41l.21.38c.21.41.43.84.68,1.24s.41.61.63.91l.47.65a3.17,3.17,0,0,0,.33.28,6.42,6.42,0,0,1,1.08,1c.38.5.78,1,1.2,1.48a5.33,5.33,0,0,1,.82,1.41,1.46,1.46,0,0,0,.14.31,2.25,2.25,0,0,0,.32.19,6,6,0,0,1,1.29.91,5.22,5.22,0,0,1,1,1.42c.05.1.1.21.16.31.46.41.93.83,1.41,1.23a5.34,5.34,0,0,0,.57.36,8.72,8.72,0,0,1,1.08.69c.48.38,1,.73,1.48,1.09l.09.07a3.68,3.68,0,0,0,.52.25,7,7,0,0,1,1.23.64,10.53,10.53,0,0,1,1,.75,6,6,0,0,0,.58.47c.55.35,1.11.68,1.67,1,.28.17.57.31.86.46s.59.29.88.45.65.4,1,.62a7.91,7.91,0,0,0,.68.44c.26.13.53.24.8.35s.68.27,1,.43.64.34.95.52a8.4,8.4,0,0,0,.78.42c.33.15.65.33,1,.5a7.16,7.16,0,0,0,.78.4c.36.16.72.3,1.09.44l.74.29c.33.14.67.25,1,.37l.85.31.81.32c.34.13.68.27,1,.39s.62.2.94.29.63.18.95.29.59.17.89.24.68.17,1,.28.52.12.78.17a11.4,11.4,0,0,1,1.16.25,7.68,7.68,0,0,1,1.23.49,4.7,4.7,0,0,0,.62.25,4.08,4.08,0,0,0,.65.08,7.9,7.9,0,0,1,1.32.19c.3.07.61.13.92.18s.68.12,1,.2a5,5,0,0,1,1.58.7,3.72,3.72,0,0,0,.34.19l1.87.36a4.91,4.91,0,0,0,.74.06,9.93,9.93,0,0,1,1.24.12,8.82,8.82,0,0,1,1.26.33,6.71,6.71,0,0,0,.66.19l.58.08c.46.08.93.15,1.39.21a3.87,3.87,0,0,0,.51,0,5.32,5.32,0,0,1,2.95.34,4,4,0,0,0,.49.15,8.53,8.53,0,0,0,.88,0c.37,0,.74,0,1.11,0s.63,0,.94,0l1.05,0c.07,0,.3,0,.47-.07A6,6,0,0,1,243.76,289Z" style="fill: #1d1d1b"/>
  </g>
</svg>
