<svg xmlns="http://www.w3.org/2000/svg" viewBox="0 0 500 500">
  <title>flag-wave</title>
  <g>
    <path d="M216.5,314.32a5.14,5.14,0,0,0,6.15,3.85h0a5.14,5.14,0,0,0,3.95-6.08L201.11,196.66a5.12,5.12,0,0,0-6.14-3.84h0a5.11,5.11,0,0,0-3.95,6.07Z" style="fill: #fff"/>
    <path d="M217.5,271.4c2.06-1.25,11.47-7.74,17.38-10.95a36.33,36.33,0,0,1,21.34-4.07c10.61,1.5,17.59,3.31,28-.51,4.09-1.5,15.3-9,24.5-10.33l-16.2-70.82c-10.37,1-21,9.73-25.14,11.23-10.41,3.82-17.39,2-28,.51a36.32,36.32,0,0,0-21.34,4.07c-5.92,3.21-14.12,8.9-16.18,10.15Z" style="fill: #fff"/>
    <path d="M310.76,245.67a1.69,1.69,0,0,0-.12-.44,2.19,2.19,0,0,0,0-1,4.17,4.17,0,0,0-.91-1.81,1.14,1.14,0,0,1,0-.37,5.18,5.18,0,0,0-.15-1.48,2.81,2.81,0,0,1-.07-.58,7.45,7.45,0,0,0-.19-1.32c-.08-.37-.1-.56-.13-.75a11.38,11.38,0,0,0-.21-1.13,9.42,9.42,0,0,0-.32-1.15,5.38,5.38,0,0,1-.2-.69c-.12-.54-.19-.8-.27-1.06s-.12-.39-.21-.79-.18-.77-.25-1-.12-.41-.21-.82a5.34,5.34,0,0,0-.54-1.45,1,1,0,0,1-.13-.36,1.43,1.43,0,0,1-.06-.48,5.69,5.69,0,0,0-.16-1.43,3.58,3.58,0,0,1-.09-.61,7.74,7.74,0,0,0-.18-1.28c-.13-.55-.21-.82-.29-1.08a6.59,6.59,0,0,1-.2-.77,5.24,5.24,0,0,1-.14-.75,10.34,10.34,0,0,0-.21-1.12,4.2,4.2,0,0,0-.79-1.71l0-.08V220a4.33,4.33,0,0,0,0-1.82c-.11-.48-.17-.72-.23-1s-.11-.44-.21-.89a5.71,5.71,0,0,0-.53-1.43,1.09,1.09,0,0,1-.14-.37l-.42-1.86a2.94,2.94,0,0,1-.08-.57,6.36,6.36,0,0,0-.18-1.33,11.59,11.59,0,0,0-.31-1.13,5.69,5.69,0,0,1-.2-.72,1.46,1.46,0,0,1-.06-.48,6.16,6.16,0,0,0-.16-1.43,4.08,4.08,0,0,0-.83-1.73l0,0c-.11-.49-.17-.73-.23-1s-.1-.4-.19-.78a3.78,3.78,0,0,0,.1-2.1,4.27,4.27,0,0,0-.88-1.79.82.82,0,0,1,0-.35,5.13,5.13,0,0,0-.14-1.54,7,7,0,0,0-.35-1.19c-.05-.16-.11-.32-.19-.65s-.14-.67-.19-.89-.1-.5-.21-1a1.5,1.5,0,0,1,0-.41,4.94,4.94,0,0,0-.14-1.51,5.3,5.3,0,0,0-.53-1.44,1.24,1.24,0,0,1-.14-.37,1.88,1.88,0,0,1-.05-.5,6.74,6.74,0,0,0-.17-1.41,5.79,5.79,0,0,0-.48-1.38,1.4,1.4,0,0,1-.16-.44,3.11,3.11,0,0,1-.09-.64,9.39,9.39,0,0,0-.2-1.26,5.83,5.83,0,0,0-.5-1.41,1,1,0,0,1-.15-.4,4.59,4.59,0,0,1-.11-.66,7.33,7.33,0,0,0-.19-1.24.88.88,0,0,1,0-.36,5.25,5.25,0,0,0-.14-1.56,5.34,5.34,0,0,0-.51-1.42,1.18,1.18,0,0,1-.14-.4,8.12,8.12,0,0,0-.33-1.15c-.06-.18-.11-.35-.2-.71a.86.86,0,0,0-.07-.21.48.48,0,0,0,0-.12,2.19,2.19,0,0,0-2.4-2,8.88,8.88,0,0,0-1.38.27l-.51.13-.27,0a4.52,4.52,0,0,0-1.82,0c-.2,0-.41.08-.62.12a10.49,10.49,0,0,0-1.32.3,4.82,4.82,0,0,0-1.5.85l-.21.17a10.57,10.57,0,0,0-1.16.55c-.19.09-.38.2-.57.28s-.3.08-.48.13a5.81,5.81,0,0,0-1.36.43l-.45.13a5.63,5.63,0,0,0-1.38.47,11.12,11.12,0,0,0-1,.62c-.19.12-.38.25-.58.35a4.76,4.76,0,0,0-1.33,1.15c-.06.07-.11.14-.17.2l-1.51.87a1.45,1.45,0,0,1-.37.11,5.73,5.73,0,0,0-1.42.56,8.49,8.49,0,0,0-1,.78c-.16.14-.32.28-.38.32a2.54,2.54,0,0,1-.37.1,5.27,5.27,0,0,0-1.4.53c-.29.17-.58.31-.85.44s-.48.23-.69.35a7.07,7.07,0,0,0-1.16.82l-.18.15-.66.27c-.3.12-.59.24-.88.33a5.74,5.74,0,0,1-.69.13c-.35.06-.71.11-1.05.2a5.62,5.62,0,0,0-1.4.63l-.22.15a3.58,3.58,0,0,1-.62,0A9.93,9.93,0,0,0,260,186c-.32,0-.64.12-1,.19a5.33,5.33,0,0,1-.68.13,2.5,2.5,0,0,1-.26-.07,4.69,4.69,0,0,0-1.59-.25c-.59,0-1.16,0-1.75,0a5,5,0,0,0-1.53.25l-.21.06-.19-.08a4.72,4.72,0,0,0-1.6-.5,5.26,5.26,0,0,0-1.59.14,1.65,1.65,0,0,0-.26.07,5.23,5.23,0,0,1-.66-.15,10.48,10.48,0,0,0-1.14-.25,3.18,3.18,0,0,1-.56-.15,7.39,7.39,0,0,0-1.24-.32,8.93,8.93,0,0,0-1.2-.08,4.92,4.92,0,0,1-.67,0l-1-.13-.84-.1-.79-.14-1.07-.19-.57-.09c-.46-.08-.92-.15-1.38-.19a5.56,5.56,0,0,0-1.59.15,2.79,2.79,0,0,1-.38.07l-.63,0a10.84,10.84,0,0,0-1.31,0,4.89,4.89,0,0,1-.54,0,7,7,0,0,0-1.41,0c-.2,0-.4,0-.6,0a13.24,13.24,0,0,0-1.34.07,4.87,4.87,0,0,0-1.65.62c-.09.06-.18.11-.18.13l-.61.07a9,9,0,0,0-1.3.2,7.38,7.38,0,0,0-1.27.45L225,186c-.11,0-.22,0-.33,0a4.54,4.54,0,0,0-1.72.22,12.63,12.63,0,0,0-1.2.5l-.58.26a6.18,6.18,0,0,0-1.33.81c-.11.08-.21.18-.27.21a3.23,3.23,0,0,1-.33.06,4.44,4.44,0,0,0-1.64.49,4.19,4.19,0,0,0-1.36,1.25l-.09.12-.14,0a4.66,4.66,0,0,0-1.75.57,6.45,6.45,0,0,0-1.08.84,4.73,4.73,0,0,1-.44.36c-.33.21-.64.43-.95.66s-.41.31-.59.43a2.43,2.43,0,0,1-.38.13,5.41,5.41,0,0,0-1.44.62c-.31.21-.61.43-.91.65s-.42.31-.63.45a6.35,6.35,0,0,0-1.12,1,3.07,3.07,0,0,1-.3.31l-.76.48-.83.52a2.76,2.76,0,0,1-.46.18,8.44,8.44,0,0,0-.88.37c0-.11-.05-.23-.08-.38a2.29,2.29,0,0,0-.45-.91,1.93,1.93,0,0,0-.08-.58,7,7,0,0,0-6.4-5.45,6.92,6.92,0,0,0-6.72,4.49,9.45,9.45,0,0,0-.1,5.66c.09.46.18.93.25,1.41a2.29,2.29,0,0,0,.25.75,2.47,2.47,0,0,0,0,.54,4.5,4.5,0,0,0,.64,1.56l.08.17a3.42,3.42,0,0,1,.07.55,6.52,6.52,0,0,0,.17,1.28,4.06,4.06,0,0,1,.1.66,9.45,9.45,0,0,0,.19,1.17c.08.38.11.58.14.77s.08.53.2,1.05a9.91,9.91,0,0,0,.27,1,6.74,6.74,0,0,1,.19.74c.11.5.18.75.24,1s.11.4.2.81.17.72.23,1,.1.42.19.83a6.76,6.76,0,0,0,.41,1.27,2.69,2.69,0,0,1,.16.5,3.13,3.13,0,0,1,.08.58,7.45,7.45,0,0,0,.18,1.26,4.14,4.14,0,0,1,.1.67c0,.29.07.58.19,1.15s.18.76.25,1,.11.39.2.78.11.59.14.79.09.52.2,1a5.06,5.06,0,0,0,.57,1.48.7.7,0,0,1,.1.26.74.74,0,0,1,0,.33,5.26,5.26,0,0,0,.12,1.53c.1.47.15.7.21.93l.2.88a6.49,6.49,0,0,0,.4,1.26,2.58,2.58,0,0,1,.16.51l.39,1.8a4.31,4.31,0,0,1,.11.65,7.36,7.36,0,0,0,.18,1.18c.12.53.19.78.27,1s.11.37.19.75a3.22,3.22,0,0,1,.08.59,7.37,7.37,0,0,0,.18,1.25,4.79,4.79,0,0,0,.59,1.5.48.48,0,0,1,.09.24c.11.46.16.69.21.93s.11.43.21.88v.1a4.15,4.15,0,0,0,0,1.78,4.66,4.66,0,0,0,.61,1.53l.06.1a.81.81,0,0,1,0,.11,2.76,2.76,0,0,1,.06.51,6.5,6.5,0,0,0,.16,1.33c.12.55.21.81.29,1.08a6.4,6.4,0,0,1,.19.71c.1.43.14.65.18.87l.2.94a2.34,2.34,0,0,1,.07.53,5.9,5.9,0,0,0,.17,1.31,6.06,6.06,0,0,0,.4,1.26,2.58,2.58,0,0,1,.16.51,3.42,3.42,0,0,1,.08.6,9.16,9.16,0,0,0,.18,1.24,7.29,7.29,0,0,0,.37,1.21,2.92,2.92,0,0,1,.17.56,5.34,5.34,0,0,1,.12.7,9.54,9.54,0,0,0,.19,1.12,6.47,6.47,0,0,0,.39,1.25,2.1,2.1,0,0,1,.16.53c.08.35.1.53.13.71a9.46,9.46,0,0,0,.19,1.11,2.67,2.67,0,0,1,.06.5,6.58,6.58,0,0,0,.16,1.34,6.47,6.47,0,0,0,.39,1.25,2.15,2.15,0,0,1,.16.52c.12.53.2.79.27,1.05a6.17,6.17,0,0,1,.19.74.82.82,0,0,1,0,.35,5.79,5.79,0,0,0,.65,2.93.82.82,0,0,1,.12.33,6.43,6.43,0,0,1,.13.73c0,.27.07.55.19,1.09l.4,1.81c.08.37.11.56.14.75s.08.54.2,1.06a6.61,6.61,0,0,0,.36,1.21,2.83,2.83,0,0,1,.17.57l.4,1.81c.09.4.12.6.16.8s.08.51.2,1l.39,1.81c.09.39.12.6.16.79s.08.52.19,1a4.11,4.11,0,0,1,.11.65,7.36,7.36,0,0,0,.18,1.18c.09.39.12.58.15.78s.08.52.19,1a7.44,7.44,0,0,0,.38,1.23,2.59,2.59,0,0,1,.17.55c.08.36.1.54.13.73a9.3,9.3,0,0,0,.19,1.09,7.3,7.3,0,0,0,.35,1.2,3.71,3.71,0,0,1,.18.58c.08.39.11.59.15.78s.08.53.19,1.05.12.58.15.77.08.53.19,1l.39,1.81a8.85,8.85,0,0,0,.34,1.17,4.74,4.74,0,0,1,.18.62,2.94,2.94,0,0,1,.08.57,6.36,6.36,0,0,0,.17,1.27,5,5,0,0,0,.58,1.49.47.47,0,0,1,.1.26.65.65,0,0,1,0,.11.49.49,0,0,1,0,.12,4.87,4.87,0,0,0,.09,1.64c.09.43.13.64.17.85s.09.49.2,1,.14.65.18.87l.2.95a7.65,7.65,0,0,0,.38,1.24,2.59,2.59,0,0,1,.17.55,2.25,2.25,0,0,0,.08.24v.07a7.08,7.08,0,0,0,5.52,5.61,6.24,6.24,0,0,0,1.13.1,7.38,7.38,0,0,0,6.1-3.54c1.71-2.59.81-6.28.16-9l-.06-.23a2.14,2.14,0,0,0-.47-.91,2.31,2.31,0,0,0,0-.69,7.14,7.14,0,0,0-.55-1.59,2.28,2.28,0,0,1-.22-.63,8,8,0,0,1-.15-.92,10.69,10.69,0,0,0-.22-1.39c-.11-.49-.14-.73-.18-1s-.09-.66-.23-1.32-.16-.79-.21-1.06-.11-.61-.24-1.23-.22-.93-.3-1.23-.14-.52-.26-1-.2-.9-.28-1.19-.13-.54-.25-1.08-.2-.89-.27-1.18-.13-.55-.25-1.09a9.35,9.35,0,0,0-.39-1.38,6.23,6.23,0,0,1-.25-.87,8.87,8.87,0,0,1-.15-.94,12.64,12.64,0,0,0-.23-1.37,9.63,9.63,0,0,1-.18-1c-.05-.33-.1-.65-.24-1.3s-.21-.9-.28-1.2-.14-.54-.25-1.07-.17-.8-.22-1.07-.11-.61-.24-1.22a7.25,7.25,0,0,0-.5-1.53,3.35,3.35,0,0,1-.23-.7,3.69,3.69,0,0,1-.09-.77,7.76,7.76,0,0,0-.2-1.56c-.12-.59-.19-.88-.26-1.17l-.09-.44a2.15,2.15,0,0,0,1-.3c.44-.27,1.17-.72,2.07-1.32a8.6,8.6,0,0,0,1.06-.86,8.13,8.13,0,0,1,.77-.64,6.58,6.58,0,0,0,1.21-1.08,3.58,3.58,0,0,1,.54-.52c.27-.18.56-.35.86-.51s.78-.44,1.15-.68a3.72,3.72,0,0,1,.62-.25,7.52,7.52,0,0,0,1.55-.7,6.77,6.77,0,0,0,1.29-1.14,4.32,4.32,0,0,1,.46-.44,4.75,4.75,0,0,1,.76-.33,8.9,8.9,0,0,0,1.37-.62,9.6,9.6,0,0,1,1-.47,11,11,0,0,0,1.09-.52,10.24,10.24,0,0,0,1.14-.76,4.4,4.4,0,0,1,.75-.5,5.59,5.59,0,0,1,.92-.29,12.42,12.42,0,0,0,1.35-.41c.7-.26,1.37-.51,2.06-.72a7.52,7.52,0,0,0,1.36-.57,5.34,5.34,0,0,1,.77-.33c.82-.19,1.56-.33,2.25-.45l.89-.16c.48-.09.94-.18,1.37-.22a3.89,3.89,0,0,1,.81.08,9.33,9.33,0,0,0,1.48.12c.59,0,1.19,0,1.83.06l.41,0a8.62,8.62,0,0,0,1.37,0,4.57,4.57,0,0,1,.9,0l1.22.14,1.09.13a4.83,4.83,0,0,1,.69.24,8,8,0,0,0,1.57.47c.46.07.92.11,1.37.15s.66.06,1,.11a11.14,11.14,0,0,0,1.57.08,5.29,5.29,0,0,1,.82,0c.09,0,.34.13.51.2a5.7,5.7,0,0,0,1.85.55,5.48,5.48,0,0,0,2-.25,4.79,4.79,0,0,1,.49-.11,2.94,2.94,0,0,1,.61.14,6.45,6.45,0,0,0,1.86.28,7.39,7.39,0,0,0,1.72-.27,6.05,6.05,0,0,1,.74-.15,17.25,17.25,0,0,0,1.74-.26l.72-.13a3.06,3.06,0,0,1,.58,0,6.32,6.32,0,0,0,1.94-.1,10.29,10.29,0,0,0,1.54-.51c.27-.1.54-.21.82-.29s.52-.14.79-.2a12.79,12.79,0,0,0,1.6-.45,5.2,5.2,0,0,0,1.53-1,4.87,4.87,0,0,1,.71-.51c.24-.12.5-.23.78-.34.43-.18.93-.38,1.46-.66a8.37,8.37,0,0,1,.8-.34,10.89,10.89,0,0,0,1.41-.62c.32-.16.65-.32,1-.47s.77-.36,1.15-.56a7.6,7.6,0,0,0,1.29-.86,5.22,5.22,0,0,1,.68-.48c.38-.19.77-.35,1.16-.52l1-.44c.44-.2.88-.38,1.33-.57l.82-.34.83-.37c.43-.19.86-.38,1.3-.55s.76-.32,1.13-.5a10,10,0,0,1,1-.41,7.14,7.14,0,0,1,1-.21,11.56,11.56,0,0,0,1.2-.22,11.33,11.33,0,0,1,1.19-.17c.33,0,.66-.06,1-.11A2.2,2.2,0,0,0,310.76,245.67ZM220,293.92l.28,1.2c.07.27.14.54.26,1.07s.22.93.3,1.24.14.51.25,1,.16.79.21,1.06.11.62.24,1.23a8.42,8.42,0,0,1,.17,1c0,.33.1.67.24,1.32a8,8,0,0,1,.15.92,10.69,10.69,0,0,0,.22,1.39,7,7,0,0,0,.55,1.59,2.28,2.28,0,0,1,.22.63,2.22,2.22,0,0,0,.48,1,2.51,2.51,0,0,0,0,.72l.06.24c.36,1.46,1.1,4.52.45,5.51a2.86,2.86,0,0,1-2.79,1.53,2.72,2.72,0,0,1-2-2.27,1.52,1.52,0,0,0-.06-.2.15.15,0,0,1,0-.07,7.13,7.13,0,0,0-.38-1.23,2.79,2.79,0,0,1-.17-.55c-.1-.43-.14-.65-.18-.87l-.2-.95c-.09-.42-.14-.63-.18-.85s-.09-.48-.19-1a.28.28,0,0,1,0-.11.45.45,0,0,1,0-.12,4.67,4.67,0,0,0-.09-1.65,4.74,4.74,0,0,0-.58-1.49.7.7,0,0,1-.1-.26,2.94,2.94,0,0,1-.08-.57,8.52,8.52,0,0,0-.17-1.27,8.15,8.15,0,0,0-.34-1.16,5.29,5.29,0,0,1-.18-.62l-.39-1.81c-.08-.39-.11-.59-.15-.78s-.08-.52-.19-1-.12-.58-.15-.78-.08-.52-.19-1a8.65,8.65,0,0,0-.36-1.2,3,3,0,0,1-.17-.58,6.43,6.43,0,0,1-.13-.73c0-.28-.08-.55-.19-1.1a7.78,7.78,0,0,0-.38-1.23,2.67,2.67,0,0,1-.17-.54c-.08-.39-.11-.58-.14-.78s-.09-.52-.2-1.05a3.83,3.83,0,0,1-.1-.65,9.53,9.53,0,0,0-.19-1.18c-.09-.39-.12-.59-.15-.79s-.09-.52-.2-1l-.4-1.8c-.09-.4-.12-.6-.15-.81s-.09-.5-.2-1l-.4-1.81a7.41,7.41,0,0,0-.37-1.2,3.69,3.69,0,0,1-.17-.57c-.08-.38-.11-.57-.14-.76s-.08-.53-.19-1.06l-.4-1.8c-.08-.37-.1-.55-.13-.74s-.07-.55-.19-1.09a5,5,0,0,0-.53-1.43,1.12,1.12,0,0,1-.12-.32,1,1,0,0,1,0-.35,5.21,5.21,0,0,0-.13-1.51,10.26,10.26,0,0,0-.27-1c-.05-.19-.11-.37-.19-.75a6.55,6.55,0,0,0-.39-1.24,2.15,2.15,0,0,1-.16-.52,1.67,1.67,0,0,1-.06-.51,6.57,6.57,0,0,0-.16-1.33c-.08-.36-.1-.54-.13-.72a9.46,9.46,0,0,0-.19-1.11,6.55,6.55,0,0,0-.39-1.24,2.62,2.62,0,0,1-.16-.53,5.34,5.34,0,0,1-.12-.7A9.54,9.54,0,0,0,207,258a7.17,7.17,0,0,0-.37-1.22,2.92,2.92,0,0,1-.17-.56,4.88,4.88,0,0,1-.09-.6,6.77,6.77,0,0,0-.18-1.24,7.41,7.41,0,0,0-.39-1.26,2,2,0,0,1-.17-.51,2.2,2.2,0,0,1-.06-.53,7.41,7.41,0,0,0-.17-1.31c-.1-.43-.14-.65-.18-.86l-.2-1c-.12-.54-.21-.81-.29-1.08a6.09,6.09,0,0,1-.19-.7,2.18,2.18,0,0,1-.06-.52,6,6,0,0,0-.17-1.33,4.66,4.66,0,0,0-.61-1.53l-.06-.1,0-.11,0-.1a4.31,4.31,0,0,0,0-1.78c-.1-.47-.16-.7-.21-.93l-.2-.88a4.79,4.79,0,0,0-.59-1.5.48.48,0,0,1-.09-.24,3.27,3.27,0,0,1-.09-.59,6.88,6.88,0,0,0-.17-1.24c-.12-.53-.19-.79-.27-1s-.11-.37-.19-.75a4.06,4.06,0,0,1-.1-.66,9.45,9.45,0,0,0-.19-1.17l-.4-1.81a6.49,6.49,0,0,0-.4-1.26,2.58,2.58,0,0,1-.16-.51c-.1-.46-.15-.69-.21-.93l-.2-.87a.92.92,0,0,1,0-.33,5.26,5.26,0,0,0-.12-1.53,5,5,0,0,0-.57-1.48.82.82,0,0,1-.1-.27c-.09-.38-.12-.58-.15-.78s-.08-.52-.2-1-.18-.76-.25-1-.1-.39-.19-.78a6.86,6.86,0,0,1-.11-.68,8.25,8.25,0,0,0-.19-1.15,3,3,0,0,1-.08-.58,8,8,0,0,0-.17-1.25,7,7,0,0,0-.41-1.27,2.69,2.69,0,0,1-.16-.5c-.11-.49-.17-.73-.23-1s-.1-.41-.19-.83-.18-.75-.25-1-.1-.4-.19-.81-.2-.79-.27-1.05-.11-.37-.2-.74-.11-.58-.14-.77-.08-.53-.2-1a5.64,5.64,0,0,1-.1-.66,8.91,8.91,0,0,0-.18-1.17,2.78,2.78,0,0,1-.08-.55,6.5,6.5,0,0,0-.17-1.29,4.61,4.61,0,0,0-.64-1.56l-.05-.08,0-.09a2.22,2.22,0,0,0-.21-.56,2.55,2.55,0,0,0,0-.39c-.08-.58-.19-1.13-.3-1.67a5.59,5.59,0,0,1-.11-3.22,2.49,2.49,0,0,1,2.44-1.66c1.11,0,1.95.85,2.36,2.27a2.1,2.1,0,0,0,.4.77,1.7,1.7,0,0,0,.05.44c.1.49.14.74.17,1s.09.67.24,1.33.16.81.21,1.08.12.61.25,1.22l.5,2.29c.12.54.17.81.22,1.08s.11.61.25,1.22l.5,2.28a12.92,12.92,0,0,0,.36,1.34,9.35,9.35,0,0,1,.25.92c.11.52.16.79.21,1s.1.63.24,1.24l.5,2.29c.11.51.15.77.19,1s.11.64.25,1.27a7.94,7.94,0,0,0,.46,1.49,3.15,3.15,0,0,1,.24.75,3.84,3.84,0,0,1,.1.78,7.36,7.36,0,0,0,.2,1.55c.13.62.21.93.3,1.23s.13.52.25,1a11.21,11.21,0,0,0,.38,1.36,6.66,6.66,0,0,1,.25.9,5.81,5.81,0,0,1,.13.88,11.26,11.26,0,0,0,.22,1.43c.11.51.15.76.19,1s.11.64.24,1.28a11.21,11.21,0,0,0,.38,1.36,6.42,6.42,0,0,1,.25.89c.11.5.15.76.19,1s.1.65.24,1.29a12.92,12.92,0,0,0,.36,1.34,6.9,6.9,0,0,1,.25.91,7.35,7.35,0,0,1,.16,1c0,.34.09.69.23,1.36a13.6,13.6,0,0,0,.39,1.38,6.23,6.23,0,0,1,.25.87,8.17,8.17,0,0,1,.14.9,10.84,10.84,0,0,0,.22,1.41l.24,1.11c.06.3.12.59.25,1.17s.22.94.31,1.26.14.5.25,1a6.42,6.42,0,0,1,.14.89,10.92,10.92,0,0,0,.22,1.42,7,7,0,0,0,.52,1.56,2.47,2.47,0,0,1,.23.67,1.92,1.92,0,0,1,0,.61,6.18,6.18,0,0,0,.15,1.74l.51,2.28a7.18,7.18,0,0,0,.5,1.54,2.51,2.51,0,0,1,.23.69,9.14,9.14,0,0,1,.16.94,12.17,12.17,0,0,0,.23,1.36c.13.62.21.93.3,1.23s.13.52.25,1.05.14.73.17,1,.09.67.24,1.33l.49,2.28a13.21,13.21,0,0,0,.39,1.37,6.45,6.45,0,0,1,.25.88l.51,2.28a3.56,3.56,0,0,1,.09.77,7.85,7.85,0,0,0,.2,1.56,7.66,7.66,0,0,0,.49,1.52,3.11,3.11,0,0,1,.23.71c.12.53.17.8.21,1.06s.11.62.25,1.23.21.91.28,1.21.14.53.25,1.06a9.11,9.11,0,0,1,.18,1c.05.33.1.66.24,1.31.1.46.13.7.16.93a10.33,10.33,0,0,0,.23,1.38,10.17,10.17,0,0,0,.39,1.38,6.49,6.49,0,0,1,.24.87c.13.59.2.89.27,1.18S219.85,293.37,220,293.92Zm85.71-49.74c-.26.06-.54.1-.81.14a11.68,11.68,0,0,0-1.71.36,12.91,12.91,0,0,0-1.52.63c-.27.13-.53.26-.81.37-.52.19-1,.42-1.54.65l-.76.33-.76.32c-.51.21-1,.42-1.51.65-.29.14-.59.26-.88.39-.46.2-.92.4-1.36.62a7.76,7.76,0,0,0-1.42.94,5.39,5.39,0,0,1-.62.44l-1,.46c-.42.19-.82.38-1.21.59a9.33,9.33,0,0,1-.93.39c-.39.16-.84.33-1.29.56a10.3,10.3,0,0,1-1.06.48c-.39.16-.75.31-1.08.48a8,8,0,0,0-1.52,1,3.63,3.63,0,0,1-.34.27,9.61,9.61,0,0,1-1,.26c-.37.09-.73.17-1.08.28s-.75.26-1.12.4a7.44,7.44,0,0,1-1,.33,3.52,3.52,0,0,1-.64,0,6.54,6.54,0,0,0-1.58,0l-.81.14c-.48.09-.92.17-1.33.21a10.77,10.77,0,0,0-1.38.25,5,5,0,0,1-.79.16h0a4.87,4.87,0,0,1-.61-.14,7.19,7.19,0,0,0-1.59-.29,5.65,5.65,0,0,0-1.77.26l-.46.12c-.08,0-.33-.13-.49-.2a6.2,6.2,0,0,0-1.73-.54,11.51,11.51,0,0,0-1.4,0,6.13,6.13,0,0,1-.9,0l-1.22-.13c-.36,0-.73-.06-1.1-.12A4.41,4.41,0,0,1,261,255a7.73,7.73,0,0,0-1.63-.49l-1.3-.16-1.05-.12a8.28,8.28,0,0,0-1.86,0,7.51,7.51,0,0,1-.78,0l-.4,0c-.7,0-1.43-.09-2.19-.07a3.92,3.92,0,0,1-.76-.08,7.61,7.61,0,0,0-1.85-.1c-.64.06-1.22.17-1.79.28l-.78.14c-.78.13-1.61.3-2.53.51a8,8,0,0,0-1.72.67,4.46,4.46,0,0,1-.68.3c-.82.25-1.59.53-2.41.84-.28.1-.56.17-.84.24a10.85,10.85,0,0,0-1.62.53,8.49,8.49,0,0,0-1.58,1,6.91,6.91,0,0,1-.61.42c-.24.13-.5.24-.77.36a14,14,0,0,0-1.4.7,5.16,5.16,0,0,1-.7.29,8.59,8.59,0,0,0-1.51.7,6.76,6.76,0,0,0-1.35,1.17,3.7,3.7,0,0,1-.46.45,4.37,4.37,0,0,1-.64.26,7.21,7.21,0,0,0-1.56.71c-.29.19-.6.36-.89.52s-.79.45-1.16.69a7.55,7.55,0,0,0-1.32,1.19,4.19,4.19,0,0,1-.44.43,11.5,11.5,0,0,0-1.26,1,5.33,5.33,0,0,1-.56.47c-.7.47-1.28.83-1.7,1.08l-.22-1c-.1-.49-.14-.73-.17-1s-.09-.67-.23-1.32-.22-.93-.3-1.24-.14-.51-.25-1a7.19,7.19,0,0,1-.16-.93,11.89,11.89,0,0,0-.23-1.37,7.19,7.19,0,0,0-.51-1.55,2.66,2.66,0,0,1-.23-.68l-.5-2.28a1.69,1.69,0,0,1-.05-.61,6.56,6.56,0,0,0-.15-1.74,6.83,6.83,0,0,0-.53-1.57,2.3,2.3,0,0,1-.22-.66,5.18,5.18,0,0,1-.14-.89,10.92,10.92,0,0,0-.22-1.42c-.14-.64-.23-.95-.31-1.26s-.14-.5-.26-1-.18-.84-.23-1.12-.12-.58-.25-1.16a5.26,5.26,0,0,1-.14-.9,10.84,10.84,0,0,0-.22-1.41,12.48,12.48,0,0,0-.39-1.37,6.45,6.45,0,0,1-.25-.88c-.1-.47-.13-.71-.16-.95a11.81,11.81,0,0,0-.23-1.36,10.34,10.34,0,0,0-.37-1.34c-.07-.23-.14-.45-.25-.91s-.14-.76-.18-1-.1-.65-.24-1.29a11.21,11.21,0,0,0-.38-1.36,6.42,6.42,0,0,1-.25-.89c-.11-.51-.15-.76-.19-1s-.1-.65-.24-1.28a6,6,0,0,1-.13-.88,10.76,10.76,0,0,0-.22-1.43,11,11,0,0,0-.38-1.37,6.42,6.42,0,0,1-.25-.89c-.14-.62-.22-.93-.3-1.24s-.14-.51-.25-1a3.24,3.24,0,0,1-.1-.78,9.05,9.05,0,0,0-.2-1.55,8.28,8.28,0,0,0-.47-1.49,3.69,3.69,0,0,1-.24-.75c-.11-.52-.15-.78-.19-1s-.11-.63-.24-1.26l-.5-2.28c-.12-.53-.16-.79-.21-1s-.11-.63-.24-1.25a12.92,12.92,0,0,0-.36-1.34,6.71,6.71,0,0,1-.25-.92l-.51-2.28c-.11-.54-.16-.81-.21-1.08s-.12-.61-.25-1.22l-.4-1.81.35-.25c.22-.17.48-.37.74-.55l.32-.11a6.53,6.53,0,0,0,1.49-.69c.21-.15.44-.29.68-.43l.9-.57a6.26,6.26,0,0,0,1.05-.93c.12-.13.29-.3.35-.35.28-.18.56-.38.83-.59s.46-.34.66-.47a2.32,2.32,0,0,1,.37-.13,5.79,5.79,0,0,0,1.43-.61c.3-.19.58-.4.87-.62a7.59,7.59,0,0,1,.65-.46,6.73,6.73,0,0,0,1-.81l.36-.3.25,0a5,5,0,0,0,1.67-.53,4.77,4.77,0,0,0,1.33-1.25l.06-.08.12,0a5.13,5.13,0,0,0,1.51-.41,7.28,7.28,0,0,0,1.1-.7,3.86,3.86,0,0,1,.34-.25c.25-.1.5-.22.75-.33s.48-.23.74-.32h.26a4.83,4.83,0,0,0,1.59-.17,9.94,9.94,0,0,0,1-.37,4.47,4.47,0,0,1,.61-.23,4.39,4.39,0,0,1,.66-.09,9.27,9.27,0,0,0,1-.14,4.7,4.7,0,0,0,1.46-.59l.24-.12c.41,0,1.07,0,1.63-.06a3.25,3.25,0,0,1,.57,0,8,8,0,0,0,1.14,0,8.43,8.43,0,0,1,.87,0l.82,0a6.07,6.07,0,0,0,1.34-.16,1.88,1.88,0,0,1,.36-.07c.33,0,.66.08,1,.14l.67.11c.3,0,.6.1.89.15l.94.17,1,.13.83.1a9.79,9.79,0,0,0,1.25.09,4.29,4.29,0,0,1,.63,0,4,4,0,0,1,.58.16,7.81,7.81,0,0,0,1.27.32,4.72,4.72,0,0,1,.65.15,8.87,8.87,0,0,0,1.23.25,4.89,4.89,0,0,0,1.7-.12l.23-.06.22.1a4.57,4.57,0,0,0,1.72.5,4.79,4.79,0,0,0,1.7-.24l.28-.08c.63,0,1.26,0,1.9,0a2.86,2.86,0,0,1,.28.07,4.62,4.62,0,0,0,1.8.25,10.64,10.64,0,0,0,1.33-.24l.65-.13a4.87,4.87,0,0,1,.54,0,7.36,7.36,0,0,0,1.47-.12,5.21,5.21,0,0,0,1.56-.66,1.58,1.58,0,0,1,.3-.17,5,5,0,0,1,.58-.11,7.78,7.78,0,0,0,1.36-.29c.4-.13.8-.28,1.21-.45l.64-.25a4.43,4.43,0,0,0,1.37-.87,3.62,3.62,0,0,1,.42-.32l.53-.26c.37-.19.76-.38,1.09-.58a2.29,2.29,0,0,1,.31-.09,5.12,5.12,0,0,0,1.54-.59,7.57,7.57,0,0,0,1-.73c.18-.16.35-.3.42-.35l.34-.1a5.25,5.25,0,0,0,1.44-.56l1.54-.89a4.85,4.85,0,0,0,1.25-1.1l.18-.2.78-.48a7.23,7.23,0,0,1,.66-.4c.07,0,.28-.08.44-.12a6.68,6.68,0,0,0,1.27-.42,4.55,4.55,0,0,1,.47-.13,6.19,6.19,0,0,0,1.22-.36c.31-.13.6-.29.9-.44a5.72,5.72,0,0,1,.66-.32,5.29,5.29,0,0,0,1.33-.79c.08-.06.15-.13.23-.18s.43-.09.69-.14l.82-.16a2.3,2.3,0,0,1,.26,0,4.9,4.9,0,0,0,1.36,0c0,.1.06.22.1.37a5.24,5.24,0,0,0,.51,1.41,1.24,1.24,0,0,1,.14.41.92.92,0,0,1,0,.37,5.27,5.27,0,0,0,.14,1.56,3.91,3.91,0,0,1,.1.66,8.92,8.92,0,0,0,.2,1.23,5.11,5.11,0,0,0,.51,1.41,1.24,1.24,0,0,1,.14.41,4.06,4.06,0,0,1,.1.64,7.41,7.41,0,0,0,.19,1.25,5.79,5.79,0,0,0,.48,1.38,1.5,1.5,0,0,1,.16.44,2.49,2.49,0,0,1,.06.5,6,6,0,0,0,.16,1.41,5.41,5.41,0,0,0,.53,1.43,1.15,1.15,0,0,1,.14.38,1.39,1.39,0,0,1,0,.4,5,5,0,0,0,.14,1.52c.1.43.14.65.19.87s.1.5.21,1a8.55,8.55,0,0,0,.35,1.19,3.88,3.88,0,0,1,.19.65,1,1,0,0,1,0,.38,5.48,5.48,0,0,0,.14,1.54,4,4,0,0,0,.83,1.72,3.75,3.75,0,0,0-.07,2c.11.48.17.73.22,1s.11.44.22.89a4.14,4.14,0,0,0,.82,1.74l0,0a1.74,1.74,0,0,1,.05.48,5.8,5.8,0,0,0,.17,1.43,9.26,9.26,0,0,0,.31,1.13,5.42,5.42,0,0,1,.2.71,2.85,2.85,0,0,1,.08.57,6.44,6.44,0,0,0,.18,1.33l.42,1.86a5.34,5.34,0,0,0,.53,1.43,1.49,1.49,0,0,1,.14.37c.11.49.17.73.22,1l.23.92,0,.11a4.5,4.5,0,0,0,.05,1.81,4.2,4.2,0,0,0,.79,1.71l0,.06c.09.38.11.57.14.76s.08.56.2,1.12.21.81.29,1.08.12.37.21.76a3.31,3.31,0,0,1,.08.6,8,8,0,0,0,.19,1.29,1.7,1.7,0,0,1,.05.48,6.21,6.21,0,0,0,.16,1.43,5.25,5.25,0,0,0,.54,1.44,1.35,1.35,0,0,1,.14.37c.11.51.18.77.25,1s.12.41.21.83.2.8.28,1.06.11.39.2.79a8.31,8.31,0,0,0,.33,1.14,6.74,6.74,0,0,1,.19.7,7.23,7.23,0,0,1,.14.75c0,.28.08.57.2,1.13a2.34,2.34,0,0,1,.08.58,7.17,7.17,0,0,0,.18,1.32,1.36,1.36,0,0,1,.05.43,5.6,5.6,0,0,0,.15,1.49,3.91,3.91,0,0,0,.24.73Z" style="fill: #1d1d1b"/>
  </g>
</svg>
