<svg xmlns="http://www.w3.org/2000/svg" viewBox="0 0 500 500">
  <title>flag</title>
  <g>
    <path d="M171.4,338.77a5.13,5.13,0,0,0,5.19,5.06h0a5.12,5.12,0,0,0,5.14-5.1l-1.46-183.5a5.12,5.12,0,0,0-5.18-5.06h0a5.13,5.13,0,0,0-5.15,5.1Z" style="fill: #fff"/>
    <path d="M181.2,272.6c3.57-1.17,15.8-6.58,25.94-9.4,9.27-2.57,25.52-2.32,37.14,1.77,15.76,5.56,27.18,8.14,44.43,5.86,6.77-.9,26.45-8.85,41-7.94L328.44,154.2c-16.26-1.76-35.73,7.16-42.51,8.06-17.24,2.29-27.94-2.16-43.71-7.72-11.61-4.09-28-2.16-37.28.41-10.14,2.82-20.93,7.33-24.5,8.5Z" style="fill: #fff"/>
    <path d="M332.1,261.49l-.05-.11v-.11a2.4,2.4,0,0,1,.05-.64,6.73,6.73,0,0,0,.12-1.48,4.53,4.53,0,0,1,0-.75,8.76,8.76,0,0,0,.07-1.37c0-.45,0-.67,0-.9s0-.61,0-1.22,0-.93-.07-1.24,0-.44-.05-.87c0-.59,0-.88,0-1.18s0-.47,0-.94,0-.85,0-1.14,0-.49,0-1a6.59,6.59,0,0,0-.18-1.51,2,2,0,0,1-.07-.6,2.57,2.57,0,0,1,.05-.67,7.36,7.36,0,0,0,.11-1.45,4.88,4.88,0,0,1,0-.78,11.68,11.68,0,0,0,.07-1.34c0-.59,0-.89-.06-1.19s0-.46,0-.93,0-.68,0-.91,0-.6,0-1.21a4.9,4.9,0,0,0-.34-1.78.7.7,0,0,1-.06-.33.73.73,0,0,1,.06-.38,5.31,5.31,0,0,0,.25-1.74c0-.55,0-.82,0-1.09s0-.52,0-1a6.59,6.59,0,0,0-.18-1.51,2,2,0,0,1-.07-.6l0-2.12a4,4,0,0,1,0-.76,8.21,8.21,0,0,0,.08-1.36c0-.62,0-.93-.07-1.23a8.57,8.57,0,0,1,0-.89,2.61,2.61,0,0,1,.05-.68,7.24,7.24,0,0,0,.11-1.44,5.09,5.09,0,0,0-.36-1.82.56.56,0,0,1-.06-.29c0-.55,0-.83,0-1.1l0-1,.05-.12a4.23,4.23,0,0,0,.43-2,4.64,4.64,0,0,0-.38-1.85.69.69,0,0,1-.05-.13.53.53,0,0,1,0-.13,2.47,2.47,0,0,1,.06-.6,6.55,6.55,0,0,0,.14-1.53,10.62,10.62,0,0,0-.08-1.28,6.83,6.83,0,0,1,0-.83c0-.51,0-.77,0-1s0-.55,0-1.1a2.17,2.17,0,0,1,0-.61,6.42,6.42,0,0,0,.14-1.51,6.59,6.59,0,0,0-.18-1.51,2.5,2.5,0,0,1-.07-.61,4.07,4.07,0,0,1,0-.69,8.37,8.37,0,0,0,0-2.88,2.76,2.76,0,0,1-.07-.66,5.33,5.33,0,0,1,0-.81,10.13,10.13,0,0,0,.05-1.31,7.37,7.37,0,0,0-.16-1.48,2.62,2.62,0,0,1-.08-.63,7.24,7.24,0,0,1,0-.83,12.34,12.34,0,0,0,0-1.3,1.7,1.7,0,0,1,.06-.58,6.49,6.49,0,0,0,.15-1.54,6.63,6.63,0,0,0-.17-1.49,2.12,2.12,0,0,1-.07-.62c0-.63,0-.94-.07-1.25s0-.43-.05-.87a.89.89,0,0,1,.06-.4,5.33,5.33,0,0,0,.24-1.73,5.27,5.27,0,0,0-.29-1.72.87.87,0,0,1-.07-.39,6.41,6.41,0,0,1,0-.86,10.38,10.38,0,0,0,0-1.27l0-2.12c0-.44,0-.66,0-.88s0-.62,0-1.24A8.29,8.29,0,0,0,331,173a2.48,2.48,0,0,1-.07-.68l0-2.12c0-.47,0-.71,0-.94s0-.59,0-1.18l0-2.12c0-.47,0-.7,0-.93s0-.6,0-1.2a4,4,0,0,1,0-.76,8.21,8.21,0,0,0,.08-1.36c0-.46,0-.68,0-.91s0-.61,0-1.22a6.57,6.57,0,0,0-.16-1.47,3.4,3.4,0,0,1-.07-.66c0-.42,0-.64,0-.85a10.08,10.08,0,0,0,.05-1.28,1.81,1.81,0,0,0,0-.23,2,2,0,0,0,.14-.54,2.21,2.21,0,0,0-2-2.42c-.37,0-.74,0-1.11-.06-.21,0-.41,0-.62,0a2.44,2.44,0,0,1-.47-.09,7.46,7.46,0,0,0-1.25-.18,5.92,5.92,0,0,0-1.25.08,3.24,3.24,0,0,1-.46,0,2.21,2.21,0,0,1-.35-.08,5.54,5.54,0,0,0-1.39-.19h-.46c-.42,0-.84,0-1.26,0s-.72,0-1.08.08l-.64.06a8.1,8.1,0,0,0-1.18.19,4.54,4.54,0,0,1-.51.09,2.4,2.4,0,0,1-.37,0,5.83,5.83,0,0,0-1.36,0l-1.09.16-.61.09-1.07.17-.62.11-.63.09-1.05.16a5.45,5.45,0,0,0-1.34.46l-.24.11-.21,0a4.62,4.62,0,0,0-1.57,0,6,6,0,0,0-1.24.45l-.36.15a9.71,9.71,0,0,0-1,.31l-.49.16c-.1,0-.2,0-.3,0a4.9,4.9,0,0,0-1.51.11,7.51,7.51,0,0,0-1.09.39,5.1,5.1,0,0,1-.5.19,10.24,10.24,0,0,0-1.06.37,4.81,4.81,0,0,1-.53.2l-.44.06a6.59,6.59,0,0,0-1.23.21,8.09,8.09,0,0,0-1.1.44,2.62,2.62,0,0,1-.46.19l-.94.3-.66.2a10,10,0,0,0-1,.4l-.46.19h-.31a5.38,5.38,0,0,0-1.42.18,7.09,7.09,0,0,0-1.18.52,2.59,2.59,0,0,1-.33.17l-1.14.31-.42.11a2.26,2.26,0,0,1-.42,0,5.69,5.69,0,0,0-1.15.12,8.21,8.21,0,0,0-1,.32,2.87,2.87,0,0,1-.34.12c-.23,0-.47,0-.7.05s-.62,0-.92.06a5.23,5.23,0,0,0-1.37.37l-.22.09c-.54.06-1.08.1-1.6.14a3.15,3.15,0,0,1-.46,0,6.78,6.78,0,0,0-1.16-.06,3.76,3.76,0,0,1-.52,0,10.76,10.76,0,0,0-1.08-.06l-.63,0-1,0a7.12,7.12,0,0,0-1.15.11,1.85,1.85,0,0,1-.44.06c-.09,0-.29-.05-.47-.08a6.08,6.08,0,0,0-1.1-.17l-.73,0c-.29,0-.57,0-.85,0s-.46-.06-.69-.1a8.74,8.74,0,0,0-.87-.14c-.33,0-.65-.05-1-.06a6.08,6.08,0,0,1-.61,0,6.75,6.75,0,0,0-1.13-.07,3.15,3.15,0,0,1-.46,0l-.89-.13c-.23,0-.46,0-.61-.07l-.27-.14a5.15,5.15,0,0,0-1.29-.54c-.22-.06-.43-.13-.65-.21s-.58-.19-.88-.27a5.39,5.39,0,0,0-1.32-.16h-.3l-.89-.22a5.58,5.58,0,0,1-.68-.16c-.09,0-.27-.12-.44-.2a6.82,6.82,0,0,0-1.06-.46,3.63,3.63,0,0,1-.4-.2,7.52,7.52,0,0,0-1.08-.49c-.29-.1-.59-.18-.89-.26s-.45-.12-.68-.2a4.82,4.82,0,0,0-1.4-.24h-.25l-1.54-.55a2,2,0,0,1-.31-.19,6.61,6.61,0,0,0-1.17-.61c-.34-.12-.69-.2-1.05-.29-.19,0-.38-.08-.54-.13s-.19-.12-.29-.18a5.91,5.91,0,0,0-1.2-.64l-.54-.21c-.36-.14-.73-.28-1.1-.4a7,7,0,0,0-1.33-.23l-.41,0c-.36-.1-.73-.18-1.1-.26l-.59-.12a5.6,5.6,0,0,1-.54-.17,9.12,9.12,0,0,0-1.12-.32,5.48,5.48,0,0,0-1.42-.06,1.68,1.68,0,0,1-.31,0,3.18,3.18,0,0,1-.51-.13,9.46,9.46,0,0,0-1.16-.28c-.36-.05-.73-.07-1.09-.09l-.56,0a1.66,1.66,0,0,1-.29-.1,4.74,4.74,0,0,0-1.43-.4l-1.71-.13a5.28,5.28,0,0,0-1.42.12l-.23.06-.28-.09a5.07,5.07,0,0,0-1.47-.31,5,5,0,0,0-1.43.19l-.28.06c-.2,0-.4,0-.6,0a10,10,0,0,0-1.1-.07,2.5,2.5,0,0,1-.54,0,8.22,8.22,0,0,0-1.16-.06,10.61,10.61,0,0,0-1.12.11,5.54,5.54,0,0,1-.57.07l-1,.09-.65.05-.64,0-1,.07-.66.05c-.35,0-.7,0-1.05.08a6.49,6.49,0,0,0-1.28.31,2.78,2.78,0,0,1-.38.12l-.65.07c-.36,0-.7.07-1.05.12a5.11,5.11,0,0,1-.55.05,6.44,6.44,0,0,0-1.16.12c-.2,0-.4.06-.6.08a9.54,9.54,0,0,0-1.11.17,5.28,5.28,0,0,0-1.41.59l-.21.12a5.41,5.41,0,0,1-.58.12,9.18,9.18,0,0,0-1,.23,9.51,9.51,0,0,0-1,.36,4,4,0,0,1-.49.19,1.51,1.51,0,0,1-.3,0,5,5,0,0,0-1.42.19l-.92.32-.64.22a7,7,0,0,0-1.14.51l-.33.17a3.16,3.16,0,0,1-.32,0,5,5,0,0,0-1.37.23,4.69,4.69,0,0,0-1.36.76l-.1.08h-.15a4.44,4.44,0,0,0-1.5.21,8.27,8.27,0,0,0-1,.47,2.93,2.93,0,0,1-.44.21c-.32.11-.62.24-.91.36l-.61.24a1.49,1.49,0,0,1-.36.05,6.19,6.19,0,0,0-1.27.27l-.89.34c-.22.09-.42.18-.63.25a7.48,7.48,0,0,0-1.13.55,2.79,2.79,0,0,1-.33.19l-.75.25-.79.26a2.57,2.57,0,0,1-.43.08,5.41,5.41,0,0,0-1.17.24l-.39.15v-.21c0-.66,0-1-.05-1.31s0-.51,0-1a2.25,2.25,0,0,0-.07-.52,2.88,2.88,0,0,0,.05-.33c.19-4.68-2.52-7.22-5.11-8a7.94,7.94,0,0,0-9,3.45c-1.38,2.19-1.16,4.44-1,6.42a14.11,14.11,0,0,1,.11,2.47,2.13,2.13,0,0,0,.27,1.23,2,2,0,0,0,0,.43,4.69,4.69,0,0,0,.25,1.52l0,.19a2.93,2.93,0,0,1,0,.52,8.42,8.42,0,0,0-.08,1.18c0,.31,0,.47,0,.62a8.58,8.58,0,0,0-.06,1.09c0,.36,0,.55,0,.73s0,.49,0,1,0,.75,0,1,0,.36,0,.71,0,.71,0,.94,0,.39,0,.77,0,.68,0,.91,0,.4,0,.79a7,7,0,0,0,.1,1.22,2.19,2.19,0,0,1,0,.49,2.71,2.71,0,0,1,0,.56,7.89,7.89,0,0,0-.08,1.15,4.81,4.81,0,0,1,0,.64c0,.27-.05.54-.05,1.07s0,.72,0,1,0,.38,0,.75,0,.56,0,.74,0,.49,0,1a4.76,4.76,0,0,0,.2,1.43.73.73,0,0,1,0,.28,1.19,1.19,0,0,1,0,.33,5.1,5.1,0,0,0-.17,1.39c0,.44,0,.66,0,.88v.83a7.83,7.83,0,0,0,.1,1.2,2.3,2.3,0,0,1,.05.51v1.71a4.47,4.47,0,0,1,0,.62,8.58,8.58,0,0,0-.06,1.09c0,.5,0,.74,0,1s0,.36,0,.72,0,.42,0,.56a6.76,6.76,0,0,0-.08,1.15,4.85,4.85,0,0,0,.21,1.45.64.64,0,0,1,0,.26c0,.44,0,.66,0,.88v.83l0,.11a4.29,4.29,0,0,0-.28,1.6,4.61,4.61,0,0,0,.23,1.48l0,.1v.12a2.19,2.19,0,0,1,0,.49,6.32,6.32,0,0,0-.09,1.22c0,.51,0,.77,0,1s0,.34,0,.68,0,.62,0,.82v.89a2.39,2.39,0,0,1,0,.51,7.69,7.69,0,0,0,0,2.41,2.23,2.23,0,0,1,0,.5c0,.29,0,.43,0,.57a7.72,7.72,0,0,0-.08,1.14,9.31,9.31,0,0,0,.09,1.16,3.35,3.35,0,0,1,0,.55,5.25,5.25,0,0,1,0,.67c0,.26,0,.52,0,1a6.66,6.66,0,0,0,.1,1.19,2.93,2.93,0,0,1,0,.52,5.43,5.43,0,0,1,0,.68c0,.26,0,.52,0,1a2.25,2.25,0,0,1,0,.49,7.1,7.1,0,0,0-.1,1.23,6.66,6.66,0,0,0,.1,1.19,2.89,2.89,0,0,1,0,.51c0,.5,0,.75,0,1a6.09,6.09,0,0,1,0,.72,1.19,1.19,0,0,1,0,.33,5.15,5.15,0,0,0-.16,1.38,4.93,4.93,0,0,0,.17,1.37,1.22,1.22,0,0,1,0,.34c0,.34,0,.52,0,.69s0,.51,0,1v1.71c0,.36,0,.54,0,.72s0,.49,0,1a7.89,7.89,0,0,0,.08,1.15,3.4,3.4,0,0,1,0,.56v1.71c0,.38,0,.58,0,.77s0,.47,0,.95V241c0,.38,0,.57,0,.75s0,.48,0,1c0,.31,0,.47,0,.62a8.7,8.7,0,0,0-.06,1.09c0,.37,0,.56,0,.74s0,.49,0,1a6.75,6.75,0,0,0,.09,1.17,3.11,3.11,0,0,1,0,.54c0,.34,0,.52,0,.69s0,.51,0,1a7.72,7.72,0,0,0,.08,1.14,3.54,3.54,0,0,1,0,.57c0,.37,0,.55,0,.74s0,.49,0,1,0,.56,0,.74,0,.49,0,1v1.71a8.38,8.38,0,0,0,.07,1.11,5.86,5.86,0,0,1,0,.61,3.11,3.11,0,0,1,0,.54,7,7,0,0,0-.08,1.17,5,5,0,0,0,.2,1.45.64.64,0,0,1,0,.26v.12l0,.11a4.73,4.73,0,0,0-.22,1.49c0,.39,0,.59,0,.79s0,.46,0,.92,0,.61,0,.81,0,.45,0,.9a9.74,9.74,0,0,0,.09,1.18,3.11,3.11,0,0,1,0,.54,6,6,0,0,0,.17,1.37.93.93,0,0,1,.05.34,5.62,5.62,0,0,1,0,.69c0,.26,0,.51,0,1a1.19,1.19,0,0,1,0,.33,5.16,5.16,0,0,0-.17,1.39,5.21,5.21,0,0,0,.19,1.42.75.75,0,0,1,0,.29,1.47,1.47,0,0,1,0,.45,6.46,6.46,0,0,0-.11,1.27c0,.31,0,.47,0,.63a8.87,8.87,0,0,0-.05,1.08,6.32,6.32,0,0,0,.12,1.27,1.84,1.84,0,0,1,.05.44,3.16,3.16,0,0,1,0,.55,8.37,8.37,0,0,0-.08,1.17c0,.45,0,.67,0,.9s0,.4,0,.81a5.88,5.88,0,0,0,.14,1.32,1.18,1.18,0,0,1,.05.4v1.71c0,.5,0,.74,0,1s0,.36,0,.72a1.14,1.14,0,0,1,0,.39,5.91,5.91,0,0,0-.14,1.33c0,.39,0,.59,0,.78s0,.46,0,.93a6.17,6.17,0,0,0,.12,1.25,2,2,0,0,1,0,.46c0,.47,0,.71,0,.95s0,.38,0,.76a1.32,1.32,0,0,1,0,.36,5.47,5.47,0,0,0-.15,1.35c0,.5,0,.75,0,1s0,.36,0,.72a9.71,9.71,0,0,0,.09,1.17,3.61,3.61,0,0,1,0,.62l0,.1a4.59,4.59,0,0,0-.24,1.53,4.36,4.36,0,0,0,.27,1.57l0,.15a.8.8,0,0,1,0,.3,5.2,5.2,0,0,0-.18,1.41,6.2,6.2,0,0,0,.12,1.26,2,2,0,0,1,0,.46c0,.48,0,.73,0,1s0,.37,0,.74a1,1,0,0,1,0,.28,4.89,4.89,0,0,0-.2,1.44,8.7,8.7,0,0,0,.06,1.09,4.16,4.16,0,0,1,0,.63c0,.32,0,.48,0,.64a8.8,8.8,0,0,0-.05,1.07,4.89,4.89,0,0,0,.2,1.44.73.73,0,0,1,0,.28,5,5,0,0,1,0,.65c0,.27-.05.53-.05,1.07a4,4,0,0,1,0,.58,8.22,8.22,0,0,0-.07,1.13c0,.37,0,.56,0,.74s0,.49,0,1a5.75,5.75,0,0,0,.13,1.29,1.71,1.71,0,0,1,0,.42c0,.39,0,.58,0,.77s0,.48,0,.95,0,.59,0,.79,0,.46,0,.93,0,.7,0,.94,0,.39,0,.78a8.58,8.58,0,0,0,.06,1.09,4.21,4.21,0,0,1,0,.62,3.69,3.69,0,0,1,0,.58,8,8,0,0,0-.07,1.14,4.89,4.89,0,0,1,0,.65,8.87,8.87,0,0,0-.05,1.08,5.21,5.21,0,0,0,.19,1.42.75.75,0,0,1,0,.3.63.63,0,0,1,0,.23,4.83,4.83,0,0,0-.22,1.49,2.19,2.19,0,0,0,.23,1c.29,3.85,2.16,6.71,5.13,7.72a6.76,6.76,0,0,0,2.17.36,7.78,7.78,0,0,0,6-3.09c1.66-2.1,1.85-5.13,1.84-7.53,0-1.32-.09-2.41-.16-3.38,0-.71-.1-1.4-.12-2.14a1.69,1.69,0,0,0-.08-.5,2.18,2.18,0,0,0,.13-.72,5,5,0,0,0-.35-1.92.74.74,0,0,1-.08-.4,3.86,3.86,0,0,1,.06-.77,7.22,7.22,0,0,0,.13-1.54,6.18,6.18,0,0,1,.06-.89,10.34,10.34,0,0,0,.08-1.42c0-.51,0-.77,0-1s0-.65,0-1.3,0-1-.05-1.33,0-.49,0-1,0-.94,0-1.26,0-.53,0-1.05,0-.93,0-1.23,0-.55,0-1.09a7.75,7.75,0,0,0-.15-1.57,2.87,2.87,0,0,1-.08-.74,4.11,4.11,0,0,1,.07-.81,9,9,0,0,0,.11-1.5,8.2,8.2,0,0,1,.05-.91,10.1,10.1,0,0,0,.08-1.4c0-.64,0-1,0-1.28s0-.52,0-1,0-.76,0-1,0-.64,0-1.29a5.26,5.26,0,0,0-.29-1.81,1.38,1.38,0,0,1-.08-.5,1.55,1.55,0,0,1,.08-.55,5.71,5.71,0,0,0,.25-1.76c0-.6,0-.9,0-1.2s0-.56,0-1.12a7.63,7.63,0,0,0-.15-1.56,3.5,3.5,0,0,1-.08-.75v-2.32a6.47,6.47,0,0,1,0-.89,10,10,0,0,0,.09-1.43c0-.65,0-1,0-1.31s0-.5,0-1a4.29,4.29,0,0,1,.06-.82,8.07,8.07,0,0,0,.11-1.5,5.37,5.37,0,0,0-.3-1.84,1.09,1.09,0,0,1-.08-.47c0-.59,0-.89,0-1.19s0-.56,0-1.13a.55.55,0,0,1,.07-.31,4.85,4.85,0,0,0,.4-2,5.15,5.15,0,0,0-.18-1.41,2.21,2.21,0,0,0,.83-.13l.75-.26c.42-.14.92-.31,1.49-.52a7.91,7.91,0,0,0,1.27-.61,6.39,6.39,0,0,1,.88-.43,6.43,6.43,0,0,0,1.49-.82,3.7,3.7,0,0,1,.61-.38c.3-.1.61-.18.93-.26s.91-.23,1.36-.38a3.71,3.71,0,0,1,.59-.06,6.49,6.49,0,0,0,1.8-.29A5.88,5.88,0,0,0,197,269a5.1,5.1,0,0,1,.51-.33,4.76,4.76,0,0,1,.73-.11,8,8,0,0,0,1.63-.3c.26-.08.59-.15.93-.22a12.9,12.9,0,0,0,1.39-.32,8.84,8.84,0,0,0,1.5-.69,3.67,3.67,0,0,1,.67-.33,5.21,5.21,0,0,1,.86-.15,10.53,10.53,0,0,0,1.48-.28l1-.3,1.26-.37a7,7,0,0,0,1.39-.58,4,4,0,0,1,.66-.29c.7-.14,1.45-.28,2.2-.39.35-.05.7-.12,1.06-.19a11,11,0,0,1,1.17-.2,4.6,4.6,0,0,1,.63.07,7.55,7.55,0,0,0,1.66.12c.43,0,.86,0,1.3,0s.64,0,1,0a7.32,7.32,0,0,0,1.54-.24,4.74,4.74,0,0,1,.73-.13l1.09,0c.4,0,.8,0,1.2,0a5.61,5.61,0,0,1,.6.16,6.46,6.46,0,0,0,1.66.34c.39,0,.78,0,1.17,0s.74,0,1.11,0a8.8,8.8,0,0,0,1.46,0c.32,0,.63,0,.78,0a3.55,3.55,0,0,1,.45.22,5.61,5.61,0,0,0,1.79.65,5.39,5.39,0,0,0,2-.13l.42-.08a3.36,3.36,0,0,1,.47.23,6.08,6.08,0,0,0,1.63.65,7.61,7.61,0,0,0,1.55.15,4.44,4.44,0,0,1,.73.05c.34.09.68.16,1,.24s.78.17,1.15.28a3.7,3.7,0,0,1,.46.31,6.28,6.28,0,0,0,1.52.86,13.09,13.09,0,0,0,1.42.4c.32.07.63.14.87.22a8.36,8.36,0,0,1,.86.39,12.32,12.32,0,0,0,1.3.57,6.36,6.36,0,0,0,1.89.28,3.21,3.21,0,0,1,.51,0,8.36,8.36,0,0,1,.87.36,12.17,12.17,0,0,0,1.33.55,6.05,6.05,0,0,1,.79.34,10.11,10.11,0,0,0,1.42.6c.31.09.61.2.91.31.46.17.91.33,1.36.46a7.59,7.59,0,0,0,1.76.22,3,3,0,0,1,.67.05l.86.23c.49.14,1,.28,1.48.38l.81.19c.52.12,1,.24,1.56.33s1.06.15,1.59.2l.83.1a9.55,9.55,0,0,0,1.57.06,8.17,8.17,0,0,1,.86,0c.21,0,.49.08.78.14a8.86,8.86,0,0,0,1.62.26,8,8,0,0,1,.84.1,12,12,0,0,0,1.58.15h.05a6,6,0,0,0,1.81-.34l.52-.15c.08,0,.31.08.48.13a5.73,5.73,0,0,0,2,.31,6,6,0,0,0,1.8-.44,4.11,4.11,0,0,1,.56-.19c.75-.06,1.5-.14,2.28-.22h.07a3.7,3.7,0,0,1,.51.09,5.84,5.84,0,0,0,2,.15,11.07,11.07,0,0,0,1.56-.35c.3-.09.62-.18,1-.25a5.76,5.76,0,0,1,.74-.08,10.15,10.15,0,0,0,1.7-.24,6,6,0,0,0,1.63-.72,3.67,3.67,0,0,1,.6-.3c.23-.06.53-.1.86-.15a12.31,12.31,0,0,0,1.5-.27c.4-.11.81-.24,1.22-.37l1.06-.32a7.42,7.42,0,0,0,1.53-.64,5,5,0,0,1,.67-.31c.35-.09.7-.16,1.05-.23s.85-.16,1.27-.27a3.77,3.77,0,0,1,.62,0,6.39,6.39,0,0,0,1.78-.14,11.73,11.73,0,0,0,1.38-.46,5.59,5.59,0,0,1,.86-.3,4.25,4.25,0,0,1,.66,0,7.09,7.09,0,0,0,1.72-.11l2.3-.49a5.71,5.71,0,0,0,1.73-.71,4.19,4.19,0,0,1,.48-.24c.41-.08.82-.18,1.23-.29s.7-.18,1.06-.24a5,5,0,0,1,.8,0,8.24,8.24,0,0,0,1.55,0,5.83,5.83,0,0,1,.84,0,9.45,9.45,0,0,0,1.5,0c.42-.05.84-.13,1.25-.21a9.5,9.5,0,0,1,1-.16,6.54,6.54,0,0,0,1.72-.43,3.78,3.78,0,0,1,.55-.18c.33,0,.71,0,1.11.05s.79.06,1.18.06h0a2.08,2.08,0,0,0,.66-.12,2.19,2.19,0,0,0,1.1.31h0a2.19,2.19,0,0,0,2.17-2.23A4.54,4.54,0,0,0,332.1,261.49ZM178.66,340.21a3.13,3.13,0,0,1-3.34,1.3c-1.34-.46-2.16-2.12-2.2-4.44a1.89,1.89,0,0,0-.08-.53,4.25,4.25,0,0,0,.16-1.28,4.87,4.87,0,0,0-.19-1.43.78.78,0,0,1,0-.3,4.81,4.81,0,0,1,0-.64,8.87,8.87,0,0,0,.05-1.08,3.44,3.44,0,0,1,0-.57,8.26,8.26,0,0,0,.07-1.15,8.77,8.77,0,0,0-.06-1.1,4.1,4.1,0,0,1,0-.62c0-.47,0-.7,0-.94s0-.39,0-.78,0-.59,0-.79,0-.46,0-.92,0-.58,0-.77,0-.48,0-.95a5.75,5.75,0,0,0-.13-1.29,1.71,1.71,0,0,1,0-.42c0-.37,0-.55,0-.74s0-.49,0-1c0-.29,0-.43,0-.58a6,6,0,0,0,.07-1.14c0-.32,0-.49,0-.65a8.49,8.49,0,0,0,.05-1.06,5,5,0,0,0-.2-1.45.66.66,0,0,1,0-.27,4.81,4.81,0,0,1,0-.64c0-.27.05-.54.05-1.08a8.39,8.39,0,0,0-.06-1.08,4.37,4.37,0,0,1,0-.63.68.68,0,0,1,0-.28,4.62,4.62,0,0,0,.19-1.44c0-.49,0-.73,0-1s0-.37,0-.73a5.72,5.72,0,0,0-.12-1.27,1.87,1.87,0,0,1,0-.45.8.8,0,0,1,0-.3,5.28,5.28,0,0,0,.18-1.42,4.58,4.58,0,0,0-.29-1.63v-.16l0-.1a4.35,4.35,0,0,0,.24-1.53,8.11,8.11,0,0,0-.08-1.17,4.34,4.34,0,0,1-.05-.55c0-.49,0-.74,0-1s0-.36,0-.72a1.11,1.11,0,0,1,0-.37,5.38,5.38,0,0,0,.15-1.34c0-.48,0-.72,0-1s0-.38,0-.76a6,6,0,0,0-.13-1.25,2,2,0,0,1,0-.46c0-.39,0-.59,0-.78s0-.46,0-.93a1.56,1.56,0,0,1,0-.39,4.84,4.84,0,0,0,.14-1.32c0-.49,0-.74,0-1s0-.36,0-.72V285.5a5.78,5.78,0,0,0-.14-1.31,1.18,1.18,0,0,1-.05-.4c0-.45,0-.67,0-.9s0-.41,0-.82a3.35,3.35,0,0,1,0-.55,8.06,8.06,0,0,0,.08-1.16,6.18,6.18,0,0,0-.13-1.27,1.83,1.83,0,0,1,0-.44,4.81,4.81,0,0,1,0-.64c0-.27.05-.54.05-1.08a2,2,0,0,1,0-.45,6.28,6.28,0,0,0,.12-1.26,5.23,5.23,0,0,0-.2-1.43.73.73,0,0,1,0-.29,1.12,1.12,0,0,1,0-.32,5.16,5.16,0,0,0,.17-1.39c0-.34,0-.52,0-.69s0-.51,0-1a5.51,5.51,0,0,0-.17-1.38.94.94,0,0,1,0-.34,9.34,9.34,0,0,0-.09-1.17,4.33,4.33,0,0,1-.05-.54c0-.41,0-.61,0-.82s0-.45,0-.9,0-.59,0-.79,0-.46,0-.92a.41.41,0,0,1,0-.12l0-.1a4.59,4.59,0,0,0,.21-1.49,5,5,0,0,0-.2-1.45.64.64,0,0,1,0-.26,3.25,3.25,0,0,1,0-.55,8.11,8.11,0,0,0,.08-1.17,10.35,10.35,0,0,0-.07-1.1,4.05,4.05,0,0,1,0-.61v-1.72c0-.37,0-.55,0-.74s0-.48,0-1,0-.55,0-.73,0-.49,0-1a7.72,7.72,0,0,0-.08-1.14,3.65,3.65,0,0,1,0-.57c0-.35,0-.52,0-.69s0-.51,0-1a6.79,6.79,0,0,0-.09-1.18,3.11,3.11,0,0,1,0-.54c0-.36,0-.55,0-.73s0-.49,0-1c0-.31,0-.46,0-.62a8.45,8.45,0,0,0,.06-1.09c0-.38,0-.56,0-.75s0-.48,0-1v-1.72c0-.38,0-.57,0-.76s0-.47,0-.95v-1.71a8.19,8.19,0,0,0-.08-1.16,3.35,3.35,0,0,1,0-.55c0-.36,0-.54,0-.72s0-.5,0-1v-1.71a5.62,5.62,0,0,1,0-.69c0-.26,0-.51,0-1a5.35,5.35,0,0,0-.17-1.37.94.94,0,0,1,0-.34.88.88,0,0,1,0-.33,5.59,5.59,0,0,0,.16-1.38c0-.5,0-.74,0-1s0-.36,0-.72a6.66,6.66,0,0,0-.1-1.19,2.93,2.93,0,0,1,0-.52,2.15,2.15,0,0,1,0-.48,6.22,6.22,0,0,0,.1-1.23c0-.34,0-.51,0-.68s0-.52,0-1a6.56,6.56,0,0,0-.1-1.19,2.93,2.93,0,0,1,0-.52,5.25,5.25,0,0,1,0-.67c0-.26,0-.53,0-1.05a8.06,8.06,0,0,0-.08-1.16,3.35,3.35,0,0,1,0-.55,2.77,2.77,0,0,1,0-.57,8.09,8.09,0,0,0,.07-1.14,6.74,6.74,0,0,0-.1-1.21,2.29,2.29,0,0,1,0-.5,2.33,2.33,0,0,1,0-.51,7,7,0,0,0,.09-1.2v-.83c0-.22,0-.44,0-.88a8,8,0,0,0-.05-1c0-.17,0-.34,0-.68a1.72,1.72,0,0,1,0-.49,6.32,6.32,0,0,0,.09-1.22,4.73,4.73,0,0,0-.22-1.49l0-.1a.41.41,0,0,1,0-.12h-2.2l2.23-.12a4.33,4.33,0,0,0,.27-1.6v-1.7a5,5,0,0,0-.21-1.46.57.57,0,0,1,0-.25,3.4,3.4,0,0,1,0-.56,8.26,8.26,0,0,0,.07-1.15c0-.5,0-.74,0-1s0-.36,0-.72a3.35,3.35,0,0,1,0-.62,8.94,8.94,0,0,0,0-1.09v-1.71a8.13,8.13,0,0,0-.1-1.21,2.2,2.2,0,0,1,0-.5v-1.72a.88.88,0,0,1,0-.32,5.1,5.1,0,0,0,.17-1.39,4.86,4.86,0,0,0-.2-1.43.7.7,0,0,1,0-.28c0-.37,0-.56,0-.74s0-.49,0-1,0-.72,0-1,0-.37,0-.75,0-.48,0-.64a8.8,8.8,0,0,0,.05-1.07,3.4,3.4,0,0,1,0-.56,8.27,8.27,0,0,0,0-2.36,2.29,2.29,0,0,1,0-.5c0-.46,0-.69,0-.92s0-.39,0-.78,0-.71,0-.95,0-.38,0-.76,0-.75,0-1,0-.35,0-.71,0-.55,0-.73,0-.49,0-1c0-.31,0-.47,0-.62a8.58,8.58,0,0,0,.06-1.09,3.17,3.17,0,0,1,0-.53,8.11,8.11,0,0,0,.08-1.17,4.87,4.87,0,0,0-.24-1.53l0-.08a.31.31,0,0,1,0-.1,2.19,2.19,0,0,0-.28-1.05,2.21,2.21,0,0,0,0-.25,18,18,0,0,0-.12-3.25c-.17-1.69-.24-2.76.31-3.63a3.54,3.54,0,0,1,4-1.61c1.37.43,2.11,1.76,2,3.65a1.91,1.91,0,0,0,.07.59,2.31,2.31,0,0,0,0,.46c0,.65,0,1,0,1.31s0,.51,0,1v2.33a6.36,6.36,0,0,0,.21,1.69,1.92,1.92,0,0,1,.08.64c0,.6,0,.9,0,1.2s0,.56,0,1.12a4.24,4.24,0,0,1-.06.81,7.81,7.81,0,0,0-.12,1.51,7.13,7.13,0,0,0,.18,1.64,2.14,2.14,0,0,1,.08.68,6.53,6.53,0,0,1-.05.9,10.46,10.46,0,0,0-.08,1.42,2.61,2.61,0,0,1-.07.69,6.5,6.5,0,0,0-.18,1.63,5.8,5.8,0,0,0,.29,1.81,1.44,1.44,0,0,1,.08.51,1.61,1.61,0,0,1-.08.56,5.71,5.71,0,0,0-.25,1.76,6,6,0,0,1,0,1c0,.34-.05.68-.05,1.36a5.77,5.77,0,0,0,.25,1.75,1.6,1.6,0,0,1,.08.57,8.7,8.7,0,0,0,.13,1.52,3.33,3.33,0,0,1,.07.79c0,.56,0,.84,0,1.12s0,.6,0,1.2,0,.82,0,1.1,0,.61,0,1.22a1,1,0,0,1-.08.44,5.74,5.74,0,0,0,0,3.72,1.1,1.1,0,0,1,.08.48,4.06,4.06,0,0,1-.06.8,8,8,0,0,0-.12,1.52,8.83,8.83,0,0,0,.1,1.45,5.75,5.75,0,0,1,.06.87v1.12c0,.3,0,.6,0,1.19s0,.77,0,1,0,.65,0,1.3c0,.5,0,.76,0,1s0,.65,0,1.3a8.55,8.55,0,0,0,.12,1.49,4.34,4.34,0,0,1,.06.83c0,.48,0,.72,0,1s-.05.68-.05,1.36a7.8,7.8,0,0,0,.13,1.52,3.88,3.88,0,0,1,.07.79c0,.51,0,.77,0,1s0,.65,0,1.3a6.37,6.37,0,0,1-.05.89,10.2,10.2,0,0,0-.09,1.43c0,.52,0,.78,0,1s0,.64,0,1.28v2.32c0,.53,0,.79,0,1.05s0,.64,0,1.27v2.32a8.79,8.79,0,0,0,.12,1.5,4,4,0,0,1,.07.81c0,.5,0,.75,0,1s-.05.66-.05,1.32v2.32c0,.49,0,.73,0,1s0,.67,0,1.35a5.69,5.69,0,0,0,.25,1.75,1.61,1.61,0,0,1,.08.56,1.64,1.64,0,0,1-.08.57,6.16,6.16,0,0,0-.24,1.75c0,.66,0,1,.06,1.32s0,.5,0,1a7.4,7.4,0,0,0,.14,1.54,3.81,3.81,0,0,1,.07.77,2.8,2.8,0,0,1-.07.73,7.13,7.13,0,0,0-.16,1.59,7.44,7.44,0,0,1,0,1,13.27,13.27,0,0,0-.06,1.36,7.76,7.76,0,0,0,.14,1.54,3.24,3.24,0,0,1,.07.78,7,7,0,0,1,0,.93,12.72,12.72,0,0,0-.07,1.38,7.8,7.8,0,0,0,.13,1.52,3.92,3.92,0,0,1,.07.8,5.46,5.46,0,0,1-.06.83,8.78,8.78,0,0,0-.11,1.48,7.66,7.66,0,0,0,.15,1.57,2.92,2.92,0,0,1,.07.75,3.06,3.06,0,0,1-.07.76,7.66,7.66,0,0,0-.14,1.56v1.11c0,.3,0,.6,0,1.2a13.27,13.27,0,0,0,.06,1.36,7,7,0,0,1,.05,1,2.93,2.93,0,0,1-.07.74,7.79,7.79,0,0,0-.15,1.58,5.46,5.46,0,0,0,.33,1.87,1,1,0,0,1,.08.44.55.55,0,0,1-.07.31,4.75,4.75,0,0,0-.4,2c0,.59,0,.89,0,1.18s0,.57,0,1.13a5.37,5.37,0,0,0,.3,1.84,1.09,1.09,0,0,1,.08.47,3.6,3.6,0,0,1-.06.82,9,9,0,0,0-.11,1.5c0,.65,0,1,.05,1.31s0,.5,0,1a5,5,0,0,1-.06.89,10.52,10.52,0,0,0-.08,1.43v2.32a8.44,8.44,0,0,0,.15,1.56,3,3,0,0,1,.08.75c0,.59,0,.89,0,1.18s0,.57,0,1.14a1.5,1.5,0,0,1-.08.54,5.85,5.85,0,0,0-.25,1.77,5.33,5.33,0,0,0,.29,1.82,1.12,1.12,0,0,1,.08.49c0,.52,0,.77,0,1s0,.64,0,1.29,0,.95,0,1.27,0,.52,0,1a8.37,8.37,0,0,1,0,.91,10.1,10.1,0,0,0-.08,1.4,4.24,4.24,0,0,1-.06.81,8.69,8.69,0,0,0-.12,1.5,7.47,7.47,0,0,0,.16,1.57,3.6,3.6,0,0,1,.07.75c0,.61,0,.92,0,1.22s0,.55,0,1.09,0,.94,0,1.26,0,.52,0,1.06,0,1,.06,1.32,0,.49,0,1,0,.77,0,1,0,.65,0,1.3a6.47,6.47,0,0,1-.05.89,9.91,9.91,0,0,0-.09,1.42,3.9,3.9,0,0,1-.06.78,8,8,0,0,0-.13,1.54,5.21,5.21,0,0,0,.35,1.92.72.72,0,0,1,.08.39,2.34,2.34,0,0,0,.08.54,2.55,2.55,0,0,0-.13.78c0,.81.08,1.56.13,2.34.07,1,.14,1.93.15,3.11C179.56,337,179.48,339.17,178.66,340.21Zm147.4-79.29a6.07,6.07,0,0,0-1.85.43,3.68,3.68,0,0,1-.59.18,14.42,14.42,0,0,0-1.5.23c-.31.06-.61.12-.92.15a6.88,6.88,0,0,1-.79,0,7.9,7.9,0,0,0-1.67,0,4.7,4.7,0,0,1-.77,0,7.64,7.64,0,0,0-1.69.06c-.48.08-1,.2-1.43.32s-.63.16-1,.22a5.82,5.82,0,0,0-1.8.72,3.81,3.81,0,0,1-.48.25l-2.36.5a3.53,3.53,0,0,1-.67,0,7.09,7.09,0,0,0-1.77.13,10.53,10.53,0,0,0-1.47.49,7.55,7.55,0,0,1-.82.29,5.84,5.84,0,0,1-.65,0,6.8,6.8,0,0,0-1.78.14c-.35.09-.69.16-1,.23s-.88.17-1.3.28a7.63,7.63,0,0,0-1.6.67,5.1,5.1,0,0,1-.62.29c-.44.11-.86.25-1.28.38s-.67.22-1,.3a7.75,7.75,0,0,1-1,.17,11.61,11.61,0,0,0-1.38.25,6.71,6.71,0,0,0-1.69.75,5.19,5.19,0,0,1-.48.26,6.54,6.54,0,0,1-1,.12,9.75,9.75,0,0,0-1.32.17c-.43.09-.83.2-1.21.31s-.72.19-.92.22l-.54-.09a6,6,0,0,0-1.83-.16h-.1c-.74.08-1.46.16-2.18.22a6.21,6.21,0,0,0-1.74.44l-.47.18a5.35,5.35,0,0,1-.52-.14,5.77,5.77,0,0,0-1.81-.31,6.22,6.22,0,0,0-1.76.35l-.5.14a8,8,0,0,1-1-.1,10.86,10.86,0,0,0-1.25-.14,8,8,0,0,1-.88-.16,9.45,9.45,0,0,0-1.35-.23c-.43,0-.87,0-1.3,0a7.16,7.16,0,0,1-.95,0l-.93-.11c-.44,0-.87-.09-1.3-.17s-.89-.18-1.33-.28l-.88-.2c-.4-.09-.8-.2-1.2-.31l-1-.27a7,7,0,0,0-1.59-.18,4.31,4.31,0,0,1-.72-.06c-.35-.1-.69-.23-1-.35s-.75-.28-1.14-.39a7.44,7.44,0,0,1-.78-.34,9.11,9.11,0,0,0-1.35-.58,9,9,0,0,1-.86-.36c-.38-.17-.81-.37-1.28-.53a5.7,5.7,0,0,0-1.8-.26,3.71,3.71,0,0,1-.56,0,7,7,0,0,1-.84-.37,10.92,10.92,0,0,0-1.31-.57,10.65,10.65,0,0,0-1.35-.37,9,9,0,0,1-.91-.24c-.08,0-.3-.2-.44-.3a5.85,5.85,0,0,0-1.74-.94,15.35,15.35,0,0,0-1.52-.38l-.86-.2a7.59,7.59,0,0,0-1.73-.19,4.53,4.53,0,0,1-.71,0,5.67,5.67,0,0,1-.51-.25,5.87,5.87,0,0,0-1.79-.69,5.39,5.39,0,0,0-2.07.12,3.83,3.83,0,0,1-.42.08l-.39-.19a5.3,5.3,0,0,0-1.92-.68,8.85,8.85,0,0,0-1.63,0,7.64,7.64,0,0,1-.8,0c-.49,0-1-.05-1.48-.05-.31,0-.62,0-.93,0a4.75,4.75,0,0,1-.62-.16,6.37,6.37,0,0,0-1.77-.35c-.5,0-1,0-1.5,0-.31,0-.61,0-.92,0a7.29,7.29,0,0,0-1.71.25,5.63,5.63,0,0,1-.69.13l-.88,0c-.51,0-1,0-1.53,0a5.51,5.51,0,0,1-.68-.08,7,7,0,0,0-1.77-.1c-.57.06-1.1.17-1.57.26l-.85.16c-.83.12-1.65.27-2.42.43a6.69,6.69,0,0,0-1.78.68,4.88,4.88,0,0,1-.56.26c-.46.12-.92.26-1.38.4l-.94.28a6.16,6.16,0,0,1-.83.14,9.23,9.23,0,0,0-1.56.3,7.41,7.41,0,0,0-1.54.71,5.74,5.74,0,0,1-.67.33c-.3.09-.61.14-.92.21a10.42,10.42,0,0,0-1.43.34,4.89,4.89,0,0,1-.75.11,8,8,0,0,0-1.64.31,6.24,6.24,0,0,0-1.66.9,4.55,4.55,0,0,1-.47.31,4.14,4.14,0,0,1-.66.07,6.5,6.5,0,0,0-1.76.28c-.33.12-.67.2-1,.29a13.25,13.25,0,0,0-1.31.37,7,7,0,0,0-1.65.9,5.32,5.32,0,0,1-.47.3,10.13,10.13,0,0,0-1.54.74,5.06,5.06,0,0,1-.63.31c-.53.2-1,.36-1.41.49l-.24.08v-.1a7,7,0,0,1-.05-1c0-.56,0-.84,0-1.12v-1.2a3.6,3.6,0,0,1,.07-.75,7.13,7.13,0,0,0,.14-1.56,7.66,7.66,0,0,0-.15-1.57,3.45,3.45,0,0,1-.07-.75,4.41,4.41,0,0,1,.06-.83,8.83,8.83,0,0,0,.11-1.49,7.76,7.76,0,0,0-.13-1.51,3.92,3.92,0,0,1-.07-.8,6.51,6.51,0,0,1,.05-.93,11,11,0,0,0,.06-1.38,7.16,7.16,0,0,0-.14-1.55,3.74,3.74,0,0,1-.07-.77,9.51,9.51,0,0,1,0-.95,10.59,10.59,0,0,0,.07-1.37,2.5,2.5,0,0,1,.07-.73,7.82,7.82,0,0,0,.15-1.59,8.08,8.08,0,0,0-.14-1.54,3.24,3.24,0,0,1-.07-.78c0-.65,0-1-.06-1.32s0-.49,0-1a1.64,1.64,0,0,1,.08-.57,6.37,6.37,0,0,0,0-3.5,1.61,1.61,0,0,1-.08-.56c0-.49,0-.73,0-1s0-.67,0-1.34v-2.32c0-.5,0-.75,0-1s0-.66,0-1.32a8.69,8.69,0,0,0-.12-1.5,4.15,4.15,0,0,1-.07-.82v-2.31c0-.53,0-.79,0-1s0-.64,0-1.27v-2.32c0-.52,0-.78,0-1s0-.64,0-1.28a6.2,6.2,0,0,1,.05-.88,10.25,10.25,0,0,0,.09-1.44c0-.51,0-.76,0-1s0-.65,0-1.3a8.7,8.7,0,0,0-.13-1.52,3.33,3.33,0,0,1-.07-.79c0-.49,0-.73,0-1s.05-.68.05-1.35a8.83,8.83,0,0,0-.11-1.49,4.26,4.26,0,0,1-.07-.83c0-.51,0-.76,0-1s0-.65,0-1.3,0-.76,0-1,0-.65,0-1.29,0-.86,0-1.15v-1.17a10.15,10.15,0,0,0-.1-1.45,4.67,4.67,0,0,1-.06-.87,4.2,4.2,0,0,1,.06-.8,7.06,7.06,0,0,0,.12-1.51,5.37,5.37,0,0,0-.3-1.84,1.1,1.1,0,0,1-.08-.48,1,1,0,0,1,.08-.44,5.28,5.28,0,0,0,.32-1.88c0-.54,0-.82,0-1.09s0-.61,0-1.23,0-.83,0-1.11,0-.6,0-1.21a7.93,7.93,0,0,0-.13-1.53,3.88,3.88,0,0,1-.07-.79,5.77,5.77,0,0,0-.25-1.75,1.64,1.64,0,0,1-.08-.57c0-.48,0-.72,0-1a11.37,11.37,0,0,0,.05-1.36,1.52,1.52,0,0,1,.08-.55,5.85,5.85,0,0,0,.25-1.77,5.56,5.56,0,0,0-.28-1.81,1.36,1.36,0,0,1-.09-.51,2.56,2.56,0,0,1,.08-.69,7.33,7.33,0,0,0,.17-1.63,6.53,6.53,0,0,1,0-.9,10.46,10.46,0,0,0,.08-1.42,7.2,7.2,0,0,0-.18-1.64,2.14,2.14,0,0,1-.08-.68A4.24,4.24,0,0,1,183,168a8,8,0,0,0,.12-1.51c0-.61,0-.91,0-1.21s0-.51,0-1L184,164l.69-.27a1.54,1.54,0,0,1,.31-.05,6.89,6.89,0,0,0,1.35-.29l.66-.22.89-.3a6.41,6.41,0,0,0,1.05-.52,3.61,3.61,0,0,1,.4-.22c.27-.09.54-.2.81-.31l.68-.27a3.26,3.26,0,0,1,.33,0,5.4,5.4,0,0,0,1.3-.26c.29-.1.57-.22.85-.34l.66-.26a9.07,9.07,0,0,0,1-.45c.13-.07.26-.14.4-.2h.22a4.16,4.16,0,0,0,2.82-1l.14-.11h.21a5.14,5.14,0,0,0,1.36-.22,6.47,6.47,0,0,0,1.1-.49,3.31,3.31,0,0,1,.38-.19l.84-.29.63-.23h.3a5.62,5.62,0,0,0,1.39-.18c.32-.1.64-.22,1-.35a4.25,4.25,0,0,1,.56-.21c.2-.06.41-.09.61-.13s.65-.12,1-.2a5,5,0,0,0,1.19-.53l.25-.14c.2,0,.42-.06.63-.09s.63-.07.94-.13a3.19,3.19,0,0,1,.54-.05,8.93,8.93,0,0,0,1-.1c.25,0,.5-.06.75-.08l.84-.09a7.14,7.14,0,0,0,1.16-.3l.4-.12c.27,0,.54,0,.82-.06l.79-.06c.29,0,.58,0,.88-.06l.72,0,.76-.06c.28,0,.56-.06.85-.07s.66-.06,1-.11a4.2,4.2,0,0,1,.62-.07,2.59,2.59,0,0,1,.55,0c.35,0,.7.06,1.06.07s.42,0,.63,0,.65.06,1,.06a6,6,0,0,0,1.35-.18,1,1,0,0,1,.25-.06l.21.07a5,5,0,0,0,1.4.31,6.12,6.12,0,0,0,1.34-.13,1.92,1.92,0,0,1,.32,0l1.5.11.28.11a5.13,5.13,0,0,0,1.35.38c.3,0,.61.06.91.07s.46,0,.69.06a2.44,2.44,0,0,1,.53.14,8.92,8.92,0,0,0,1,.25,5.44,5.44,0,0,0,1.31,0h.3a4.14,4.14,0,0,1,.6.18c.31.1.61.2.93.27s.47.11.71.15l.83.19a6.65,6.65,0,0,0,1.18.19,2.45,2.45,0,0,1,.39,0q.4.14.81.3l.64.25a1.44,1.44,0,0,1,.31.19,6.58,6.58,0,0,0,1.17.62,8.87,8.87,0,0,0,1.08.29,4.58,4.58,0,0,1,.53.14,2.9,2.9,0,0,1,.33.2,6.08,6.08,0,0,0,1.15.59l1.56.56a5.36,5.36,0,0,0,1.46.26h.22a9.81,9.81,0,0,0,1,.29l.63.19c.09,0,.26.12.42.2a6.5,6.5,0,0,0,1.11.5c.16.06.31.14.46.21a6.34,6.34,0,0,0,1.09.47,10.05,10.05,0,0,0,1.05.26c.21,0,.41.09.6.15a5.43,5.43,0,0,0,1.42.18h.29l.59.19a10,10,0,0,0,1,.31,1.74,1.74,0,0,1,.27.14,5.09,5.09,0,0,0,1.38.56c.36.08.73.12,1.1.17a6,6,0,0,1,.61.08,6.53,6.53,0,0,0,1.26.08,2.43,2.43,0,0,1,.47,0,10,10,0,0,0,1.15.08,3.63,3.63,0,0,1,.57,0l.58.09a10.25,10.25,0,0,0,1.11.17c.37,0,.73,0,1.1,0l.62,0a2.24,2.24,0,0,1,.44.07,6.66,6.66,0,0,0,1.27.18h.1a6,6,0,0,0,1.14-.12,3.56,3.56,0,0,1,.47-.05l1.12,0,.58,0a2.59,2.59,0,0,1,.48,0,7.65,7.65,0,0,0,1.23.05l.42,0a6.38,6.38,0,0,0,1.28.05c.56,0,1.12-.08,1.7-.14a4.78,4.78,0,0,0,1.39-.37l.26-.1.62,0c.35,0,.71,0,1.07-.07a6,6,0,0,0,1.29-.35,3.11,3.11,0,0,1,.49-.16,1.83,1.83,0,0,1,.33,0,6,6,0,0,0,1.44-.18l.4-.11,1.25-.34a6.48,6.48,0,0,0,1.16-.5,1.58,1.58,0,0,0,.3-.18h.29a4.88,4.88,0,0,0,1.49-.19,7.91,7.91,0,0,0,1-.38,4.82,4.82,0,0,1,.57-.22l.68-.22.89-.28a6.9,6.9,0,0,0,1-.41,4.55,4.55,0,0,1,.51-.21,2.85,2.85,0,0,1,.41,0,6.5,6.5,0,0,0,1.22-.21,9.59,9.59,0,0,0,1-.35,3.78,3.78,0,0,1,.56-.21,7.4,7.4,0,0,0,1-.37c.16-.06.31-.13.47-.18a2.26,2.26,0,0,1,.25,0,4.94,4.94,0,0,0,1.47-.1c.32-.08.62-.18.93-.28s.42-.15.63-.2a5.6,5.6,0,0,0,1.17-.42l.31-.13.21,0a4.81,4.81,0,0,0,1.51,0,5.51,5.51,0,0,0,1.26-.44l.28-.13L312,157l.71-.11c.23,0,.47-.07.7-.12l.9-.14.68-.11.9-.12c.13,0,.24,0,.37,0a6.34,6.34,0,0,0,1.28.05,8.49,8.49,0,0,0,1.06-.19,4.51,4.51,0,0,1,.53-.09l.76-.07.84-.07,1.13,0h.45a1.87,1.87,0,0,1,.34.08,6.58,6.58,0,0,0,1.29.19,8.44,8.44,0,0,0,1.11-.09c.19,0,.39,0,.49-.05l.48.09a5.56,5.56,0,0,0,.56.11c0,.28,0,.59,0,1.14a7.25,7.25,0,0,0,.16,1.47,2.76,2.76,0,0,1,.07.66c0,.45,0,.68,0,.9s0,.61,0,1.22a4,4,0,0,1,0,.76,8.27,8.27,0,0,0-.08,1.37,7.91,7.91,0,0,1,0,.93c0,.3,0,.6,0,1.19l0,2.12c0,.47,0,.71,0,.94s0,.59,0,1.18l0,2.13a7.38,7.38,0,0,0,.14,1.44,3,3,0,0,1,.07.68c0,.44,0,.66,0,.88s0,.62,0,1.24l0,2.12a6.41,6.41,0,0,1,0,.86c0,.31,0,.63,0,1.26a5.21,5.21,0,0,0,.29,1.72.81.81,0,0,1,.07.4.8.8,0,0,1-.06.4,5.22,5.22,0,0,0-.24,1.72c0,.63,0,.94.07,1.25s0,.44.05.87a6.75,6.75,0,0,0,.17,1.5,3.13,3.13,0,0,1,.07.62,2.35,2.35,0,0,1-.06.58,6.05,6.05,0,0,0-.15,1.54c0,.42,0,.62,0,.83a11.54,11.54,0,0,0-.06,1.29A7.2,7.2,0,0,0,327,195a2.19,2.19,0,0,1,.07.63,5.67,5.67,0,0,1,0,.81,9.64,9.64,0,0,0-.06,1.31,7.2,7.2,0,0,0,.15,1.45,2.76,2.76,0,0,1,.07.66,2.61,2.61,0,0,1-.05.69A8.44,8.44,0,0,0,327,202a6.59,6.59,0,0,0,.18,1.51,2.09,2.09,0,0,1,.07.61,2.17,2.17,0,0,1-.05.61,6.42,6.42,0,0,0-.14,1.51c0,.51,0,.76,0,1s0,.55,0,1.1a8.91,8.91,0,0,0,.08,1.29,6.83,6.83,0,0,1,0,.83,2.1,2.1,0,0,1,0,.6,5.93,5.93,0,0,0-.15,1.52,4.69,4.69,0,0,0,.38,1.86.5.5,0,0,1,.05.13,1.13,1.13,0,0,1,0,.14l0,.12a4.24,4.24,0,0,0-.42,2c0,.54,0,.82,0,1.09s0,.51,0,1a4.86,4.86,0,0,0,.35,1.82.72.72,0,0,1,.07.3,4,4,0,0,1-.05.68,7.24,7.24,0,0,0-.11,1.44c0,.61,0,.92.06,1.23s0,.44,0,.88a5,5,0,0,1,0,.76,8.27,8.27,0,0,0-.08,1.37l0,2.11a6.52,6.52,0,0,0,.18,1.51,3.11,3.11,0,0,1,.07.61c0,.54,0,.82,0,1.09s0,.51,0,1a.86.86,0,0,1-.06.38,5.31,5.31,0,0,0-.25,1.74,4.93,4.93,0,0,0,.33,1.78.89.89,0,0,1,.07.33c0,.46,0,.69,0,.92s0,.6,0,1.2,0,.89.06,1.19,0,.47,0,.93a6.49,6.49,0,0,1,0,.78,8.32,8.32,0,0,0-.07,1.34,2.57,2.57,0,0,1-.05.67,7.36,7.36,0,0,0-.11,1.45,6.69,6.69,0,0,0,.18,1.52,1.94,1.94,0,0,1,.07.59c0,.57,0,.86,0,1.14s0,.49,0,1,0,.88,0,1.17,0,.47,0,.94c0,.63,0,.94.07,1.25a5.84,5.84,0,0,1,.05.87,7.42,7.42,0,0,1,0,.9c0,.31,0,.61,0,1.22a4,4,0,0,1,0,.76,8.53,8.53,0,0,0-.07,1.36,2.78,2.78,0,0,1-.06.64,7,7,0,0,0-.12,1.12A13.35,13.35,0,0,0,326.06,260.92Z" style="fill: #1d1d1b"/>
  </g>
</svg>
