<svg xmlns="http://www.w3.org/2000/svg" viewBox="0 0 500 500">
  <title>flower</title>
  <g>
    <path d="M288.11,279.55a.15.15,0,0,0-.07.19,8.58,8.58,0,0,1,.48,1.2,2,2,0,0,1,.09.55,2.48,2.48,0,0,1,.15.61,3.76,3.76,0,0,1-.16,1.58,4,4,0,0,1-2.39,2.23,3.07,3.07,0,0,1-2.34.07,3.72,3.72,0,0,1-.89-.52,7.51,7.51,0,0,1-1.93-2.73,1.57,1.57,0,0,1-.1-.28l-.1-.07a.12.12,0,0,0-.14,0l-.15.13a3.43,3.43,0,0,1-.83,2.13,4.51,4.51,0,0,1-2.87,1.18,3,3,0,0,1-2.34-.69h0c-1.76-1.4-2.19-4.44-2.24-4.78a11.72,11.72,0,0,1,.38-4,20.89,20.89,0,0,0,.41-2.64c.17-2.87-1.7-5-3.35-6.59a2,2,0,0,1-.56-1.94,2,2,0,0,1,1.41-1.44,2.14,2.14,0,0,1,1.76-1.52,5.17,5.17,0,0,1,.88,0l.94.05h.5a1.67,1.67,0,0,1,.31.05,1.94,1.94,0,0,1,.74.32,2.06,2.06,0,0,0,.61.31l.33.06.3.06a2.86,2.86,0,0,1,.66.14,3.06,3.06,0,0,0,.61.13l.1,0a2,2,0,0,1,.63.16l.64.31c.17.09.38.2.53.26a1.68,1.68,0,0,1,.3.15l.27.19.09.07.23.17a2.71,2.71,0,0,0,.46.3l1.35.59.6.26c.27.13.47.23.68.31s.48.22.68.32l.7.32a1.84,1.84,0,0,0,.76,0,3,3,0,0,1,.6,0h.1a3.4,3.4,0,0,1,.6.13,4.09,4.09,0,0,0,.86.17,3.21,3.21,0,0,0,.69-.05,3.4,3.4,0,0,1,.48,0,1.61,1.61,0,0,1,.31,0,4.94,4.94,0,0,1,.53.1l.11,0a4.66,4.66,0,0,0,.63.12,5.61,5.61,0,0,0,.7,0h.27a2,2,0,0,1,1.66.9c.09.09.14.08.15.07A2,2,0,0,1,296,269c.05.07.1.11.14.16l.12.1.22.16a2,2,0,0,1,.95,1.37c0,.18.07.35.1.58l.07.49a2.19,2.19,0,0,1-.44,1.73h0a1.51,1.51,0,0,1-.21.23l-.15.16-.11.12a4.23,4.23,0,0,1-.76.68l-.26.14-.42.21a2.15,2.15,0,0,1-2-.06,4.29,4.29,0,0,0-.5-.29.15.15,0,0,0-.14,0,.16.16,0,0,0-.09.07.13.13,0,0,0,0,.18,7.91,7.91,0,0,1,3.88,4.47,2.59,2.59,0,0,1-.37,2.28,3.58,3.58,0,0,1-2.56,1.7,6,6,0,0,1-4-1.48,2,2,0,0,1-.7-1,7.5,7.5,0,0,0-.52-1.3C288.26,279.56,288.19,279.51,288.11,279.55Zm-35.67-62.12c.22.49.48,1,.74,1.46l.11.21a12.67,12.67,0,0,1,1.74,4.73,11.86,11.86,0,0,1-1.23,5.87l-.1.27-.36.93a10.12,10.12,0,0,0-.45,4.19,2,2,0,0,0,1.38,1.73,2,2,0,0,0,2.13-.6.16.16,0,0,1,.2-.05s.11.11.09.14l-.18.24a2,2,0,0,0,.33,2.81,2,2,0,0,0,1.21.43,7.41,7.41,0,0,0,2.19-.28,19.33,19.33,0,0,0,3.22-1.39l.39-.2.46-.23a2.57,2.57,0,0,0,.55-.38,2.25,2.25,0,0,0,.62-.15,10.77,10.77,0,0,1,1.86-.61,12.09,12.09,0,0,1,5.64.27,5.85,5.85,0,0,0,4.48-1.15,2.93,2.93,0,0,0,1-2.58,2,2,0,0,0-.47-1.54,2,2,0,0,0-1.45-.7,9.17,9.17,0,0,0-1.72,0c-.07,0-.13,0-.2-.1a.15.15,0,0,1,.11-.19,9.3,9.3,0,0,1,1.91,0c2.54.1,3.6-.05,4.36-.63l.08-.07a4.39,4.39,0,0,0,1.16-5.69,4.92,4.92,0,0,0-3.32-2.22,7,7,0,0,0-5.25.62l-.3.16a.2.2,0,0,1-.17-.07.15.15,0,0,1,.06-.2,7,7,0,0,0,3.31-4.49,4.32,4.32,0,0,0-.7-3.69,3.85,3.85,0,0,0-2.75-1.64c-2-.18-4.19,1.36-5.63,2.69a.2.2,0,0,1-.21,0,.15.15,0,0,1,0-.19,2.06,2.06,0,0,0,.29-.55,6.81,6.81,0,0,0-.53-5.77,4,4,0,0,0-3.65-1.57,3.36,3.36,0,0,0-2.41,1.13c-1.32,1.45-1.68,4-1.59,5.86a.14.14,0,0,1-.12.15s-.16.06-.17-.13v0c0-.07,0-.17,0-.23a2,2,0,0,0-.08-.35l0-.14a3.06,3.06,0,0,0-1.06-1.67,3.14,3.14,0,0,0-.47-.31,4.24,4.24,0,0,0-3.5-.14,3,3,0,0,0-1.71,1.75A5.69,5.69,0,0,0,252.44,217.43Zm-28.53,87.09.05-.11,0-.05a15.27,15.27,0,0,0,.83-1.63c.06-.14.13-.27.21-.42l.05-.1.11-.24c.14-.32.27-.62.35-.84a7.56,7.56,0,0,0,.23-1l.15-.75c.12-.57.22-1.14.29-1.75a6.49,6.49,0,0,0,0-1v-.22c0-.19,0-.37,0-.52a16.34,16.34,0,0,0-.08-1.77,4,4,0,0,1,0-.6v-.09a4.3,4.3,0,0,0,0-1,.75.75,0,0,0,0-.16,5.55,5.55,0,0,0-.37-1c-.1-.22-.19-.43-.25-.59s-.14-.47-.2-.71l0-.12,0-.15a4.11,4.11,0,0,0-.28-.78,13.06,13.06,0,0,0-.83-1.47,4.65,4.65,0,0,0-.63-.78l-.25-.28c-.11-.12-.22-.24-.32-.37-.36-.44-.77-.85-1.19-1.27-.73-.72-1.34-1.19-1.84-1.67-.22-.22-.42-.41-.59-.55l-.22-.15a3,3,0,0,0-.72-.35l-.17-.07a7.71,7.71,0,0,1-.73-.32,6.93,6.93,0,0,1-.7-.46l-.12-.07a4.17,4.17,0,0,0-.7-.41,6.06,6.06,0,0,0-.78-.27l-.2-.06-.1,0c-.2,0-.4-.1-.63-.18l-.4-.14c-.45-.15-.9-.3-1.4-.45l-.44-.14-.25-.08c-.34-.12-.69-.24-1-.33l-.1,0c-.26-.05-.6-.09-1-.13l-.8-.1-.52-.1-.11,0a8.11,8.11,0,0,0-1.14-.2,11.14,11.14,0,0,0-1.25-.05h-.65l-.8,0a7.82,7.82,0,0,0-1.07,0,4.57,4.57,0,0,0-.85.16l-.16,0a6.57,6.57,0,0,1-.77.16l-.12,0c-.55.09-1.13.19-1.75.33s-1,.28-1.76.51l-.82.21-.22.06c-.27.07-.53.15-.76.23-.46.18-.91.39-1.37.61l-.21.1a2,2,0,0,0-.26.09h0a2.15,2.15,0,0,0-1.27.92,12,12,0,0,0-1.5,1.05,8.39,8.39,0,0,0-1.27,1.25,7.5,7.5,0,0,0-1,1.42l0,.09a4.74,4.74,0,0,0-.51,1.64,4,4,0,0,0,.14,1.59,1.59,1.59,0,0,0,.12.27,5.17,5.17,0,0,0,1.07,1.29c.11.1,0,.13,1.17.71a2.94,2.94,0,0,1,.44.22l.15.08a8.19,8.19,0,0,0,1.31.56c.45.14.93.27,1.42.39l.23.06c.26.06.53.15.87.25l.71.2c.33.09.63.2.9.3l.06,0a5.81,5.81,0,0,0,.61.22l.18.07a8.32,8.32,0,0,1,1.44.55l.19.09a5.21,5.21,0,0,1,1.12.66.64.64,0,0,1,.14.12,3.79,3.79,0,0,1,1,1.44,4.3,4.3,0,0,1,.23,1.89v.37a6.8,6.8,0,0,1-.13,1.51c-.13.54-.28,1.15-.51,1.85l-.24.71c-.09.32-.19.64-.31,1a5.31,5.31,0,0,1-.23.55l-.12.29a5.26,5.26,0,0,0-.32.83,6.75,6.75,0,0,0-.2,1.4l0,.4a13.67,13.67,0,0,0-.05,1.64l0,.26a5.16,5.16,0,0,0,.13,1.33,5.06,5.06,0,0,0,.69,1.44,4.52,4.52,0,0,0,1,1.13l.41.37a5.67,5.67,0,0,0,.46.42,2.52,2.52,0,0,0,.43.28,9.43,9.43,0,0,0,1.68.67,7.78,7.78,0,0,0,1.39.28l.89.13a7.11,7.11,0,0,0,1.35.13,11.79,11.79,0,0,0,1.21-.13L210,315a11.25,11.25,0,0,0,1.57-.39l.22-.07c.56-.18,1.12-.41,1.67-.65a18,18,0,0,0,1.64-.8c.46-.27.93-.57,1.53-1s.94-.69,1.4-1.07l.38-.3c.34-.27.7-.56,1-.85l.38-.35c.33-.3.66-.61.95-.92s.57-.66.82-1l.7-.84c.26-.31.52-.63.77-1S223.65,305,223.91,304.52Z" style="fill: #00a550"/>
    <path d="M317.18,320.3l-.12.12a6.07,6.07,0,0,0-.6.66,19.32,19.32,0,0,1-1.57,1.82,22.31,22.31,0,0,1-1.87,1.71,18.16,18.16,0,0,1-2.06,1.47c-.29.16-.49.3-.7.44l-.1.06a8.7,8.7,0,0,1-1.38.78,14.54,14.54,0,0,1-2.51.72,11.72,11.72,0,0,1-2.57.19,4.15,4.15,0,0,1-1.55-.55,6.52,6.52,0,0,0-.82-.35l-.78-.26a5.91,5.91,0,0,1-1.62-.71c-.06,0-.18-.12-.29-.21a7.57,7.57,0,0,1-1.24-1.33,1.92,1.92,0,0,1-.42-1.06l-.77-.22c-.28.41-.57.82-.86,1.2a12,12,0,0,1-1.09,1.15l-.72.71-.05.05a21.7,21.7,0,0,1-1.68,1.65c-.24.2-.48.44-.73.68l-.12.1a6.94,6.94,0,0,1-1.06.89,17.92,17.92,0,0,1-2.16,1.28l-.83.47-.17.1a7.77,7.77,0,0,1-1.22.62,12.49,12.49,0,0,1-1.65.4l-.7.14a6.12,6.12,0,0,1-1.34.07,5.64,5.64,0,0,0-.93,0,12.49,12.49,0,0,1-1.93,0l-.8-.06a12,12,0,0,1-1.87-.21,6.75,6.75,0,0,0-.92-.15,5.24,5.24,0,0,1-1.44-.32,7.31,7.31,0,0,1-1.3-.76l-.1-.06c-.24-.18-.41-.29-.58-.4s-.46-.25-.68-.36l-.16-.08a5.39,5.39,0,0,1-1-.61,1.13,1.13,0,0,1-.13-.1,13.69,13.69,0,0,1-1.6-1.78,5.46,5.46,0,0,1-.68-1.34l0-.11a7.77,7.77,0,0,0-.34-.77,12.28,12.28,0,0,1-.92-2.23,12.41,12.41,0,0,1-.53-2.35,10.73,10.73,0,0,1,0-1.88l0-.56c0-.29,0-.6,0-.93v-.17a5.58,5.58,0,0,1,0-1.29,22.79,22.79,0,0,1,.56-2.39l0-.14c.23-.76.44-1.49.72-2.2a5.89,5.89,0,0,1,.47-.94l.12-.2a9.21,9.21,0,0,0,.55-1c.12-.26.21-.49.31-.71l.11-.29c.08-.22.2-.46.31-.72l-.3-.19-.17-.13a2.56,2.56,0,0,1-.35.22,5.72,5.72,0,0,0-.65.31c-.44.28-.89.53-1.34.77a4.74,4.74,0,0,0-.63.45l-.12.09a2.94,2.94,0,0,1-.47.34l-.1,0a5.34,5.34,0,0,1-.7.27l-.14.05-.74.25a6.21,6.21,0,0,1-.78.23l-.27.07-.42.12a4.56,4.56,0,0,0-.65.27,6.07,6.07,0,0,1-.67.29l-.16,0c-.49.12-1,.2-1.51.28a6,6,0,0,1-.87.07h-.15l-.64,0-.34,0-.31,0a5.82,5.82,0,0,1-.94,0,11,11,0,0,1-1.33-.17h-.07a2.17,2.17,0,0,1-.35-.07,2.62,2.62,0,0,1-.52-.22l-.09,0a3.86,3.86,0,0,0-.68-.29c-.17,0-.38-.09-.6-.14l-.18,0a3.17,3.17,0,0,1-.78-.25l-.38-.15a5.6,5.6,0,0,1-1-.48,7.51,7.51,0,0,1-.82-.61l-.12-.1-.15-.13-.1-.07-.14-.12c-.14-.13-.32-.31-.49-.49a5.23,5.23,0,0,0-.43-.46c-.16-.15-.33-.29-.51-.43a5.93,5.93,0,0,1-.6-.5l-.09-.11c-.13-.15-.26-.35-.41-.56l-.11-.16c-.13-.21-.23-.36-.34-.51s-.27-.43-.41-.68l-.08-.15-.27-.49a5.62,5.62,0,0,0-.35-.5,2.87,2.87,0,0,1-.46-.64,3.73,3.73,0,0,1-.31-1c-.05-.18-.11-.4-.18-.62l-.14-.4a8.32,8.32,0,0,1-.32-1l0-.13a3.81,3.81,0,0,1,0-.59v-.15a5.61,5.61,0,0,0,0-.71,4,4,0,0,0-.16-.58v0c0-.13-.09-.22-.1-.26a2.09,2.09,0,0,1-.1-.75,7.75,7.75,0,0,1,.12-.79,5.86,5.86,0,0,0,.1-.58,9,9,0,0,1,.33-1.56c0-.16.05-.37.07-.6a3.52,3.52,0,0,1,0-.49,2.05,2.05,0,0,1,.28-.76,3.65,3.65,0,0,1,.29-.37l.07-.09a4.09,4.09,0,0,0,.37-.51,3.44,3.44,0,0,0,.26-.67l0-.1a1.94,1.94,0,0,1,.32-.72c.32-.44.65-.85.9-1.14a2.06,2.06,0,0,1,.26-.25,2.71,2.71,0,0,1,.53-.35,2.85,2.85,0,0,0,.59-.43,4.88,4.88,0,0,0,.49-.54,6.88,6.88,0,0,1,.48-.55l.09-.08.39-.33.12-.11.13-.11c.19-.16.38-.32.58-.46a4.72,4.72,0,0,1,.61-.35l.11-.06c.26-.13.45-.22.63-.33.38-.23.72-.41,1.06-.6l.33-.17a4.14,4.14,0,0,1,.89-.34c.15-.05.39-.13.57-.21a4.07,4.07,0,0,0,.68-.4l.16-.1a4.35,4.35,0,0,1,.39-.23,2,2,0,0,1,.34-.14,4.52,4.52,0,0,1,.62-.12,4,4,0,0,0,.72-.17,2.72,2.72,0,0,0,.71-.42l.25-.17a2,2,0,0,1,1.06-.31h.11a3.18,3.18,0,0,0,.77-.12,4.89,4.89,0,0,0,.68-.3l.15-.07a4.62,4.62,0,0,1,.57-.24c.46-.16.93-.32,1.39-.5a3.51,3.51,0,0,0,.75-.38,3.15,3.15,0,0,1,.63-.35l.12,0,.11,0c.16-.05.32-.11.48-.15s.51-.17.81-.29l.7-.34.62-.31a5.08,5.08,0,0,0,.62-.37l.35-.21.36-.21.1,0a3.47,3.47,0,0,1,.62-.22,2.91,2.91,0,0,0,.7-.28,2,2,0,0,1,2.06,0,2,2,0,0,1,.93,1.83,8.44,8.44,0,0,0,2.45,6.6,3.27,3.27,0,0,0,1.62.7,2,2,0,0,1,1.64,1.38,3.25,3.25,0,0,1,.43-.08v0a2,2,0,0,1,1-1.93,3.74,3.74,0,0,0,.53-.35,2,2,0,0,1,2.73.18,4,4,0,0,0,1.35.94,3.34,3.34,0,0,0,2.61-.06,4.87,4.87,0,0,0,1.88-1.29,2,2,0,0,1,3.39.63l.06.09h0a6.1,6.1,0,0,1,.77.75,1.76,1.76,0,0,1,.44-.26,2,2,0,0,1-.07-1,2,2,0,0,1,1.36-1.54,4.18,4.18,0,0,0,2.17-1.73,3,3,0,0,0,.38-2.5,5.59,5.59,0,0,0-.49-1.21,2,2,0,0,1,2.73-2.7l.21.13.13.07.21.11.18-.24-.22-.12-.17-.1-.11-.06-.19-.11a2,2,0,0,1-1.05-2.28,4.1,4.1,0,0,0-.06-1.25l0-.32a5,5,0,0,0-.25-1.11,2,2,0,0,1,1.45-2.66,4.74,4.74,0,0,1,.74-.1c.35,0,.67,0,1,0l.52,0h.15l.44.08.14,0a3.66,3.66,0,0,0,.67.12l.2,0,1.29.14.67.11.8.13a6.39,6.39,0,0,1,.92.21l.63.17a5.14,5.14,0,0,0,.7.09l.12,0h.11a3.68,3.68,0,0,1,.56.1l.11,0a4.32,4.32,0,0,1,.82.39l.61.27a6.12,6.12,0,0,0,.64.2l.2.06a6.24,6.24,0,0,1,.62.21c.29.14.53.29.76.42s.46.28.66.39a5.08,5.08,0,0,0,.61.26l.11.05.12.06a4.53,4.53,0,0,1,.59.28,5.16,5.16,0,0,1,.51.35l.1.08a7.71,7.71,0,0,0,.67.5,5.28,5.28,0,0,0,.67.36l.12.05.1.05a5.54,5.54,0,0,1,.5.29,2.6,2.6,0,0,1,.58.55,4.75,4.75,0,0,0,.53.55l.09.06a3.63,3.63,0,0,0,.64.39,3.66,3.66,0,0,1,.69.42c.23.18.45.38.66.58l.56.52a14.79,14.79,0,0,1,1.2,1,3.42,3.42,0,0,1,.47.64,4.65,4.65,0,0,0,.45.63c.17.2.35.37.53.55l.09.09a3.63,3.63,0,0,1,.47.49l.38.44.16.17c.15.17.33.36.5.58a6.4,6.4,0,0,1,.55.93,3.81,3.81,0,0,0,.28.47.41.41,0,0,0,.05.09,6.38,6.38,0,0,1,.37.74c.11.25.2.45.3.63.26.49.5,1,.72,1.44a4.37,4.37,0,0,0,.26.53l0,.09.07.12a7,7,0,0,1,.31.69c.08.24.17.44.25.64a6.68,6.68,0,0,1,.29.75,3.4,3.4,0,0,1,.07.34,2.81,2.81,0,0,1,0,.58v.12a3.33,3.33,0,0,0,0,.71,5.7,5.7,0,0,0,.21.75,3,3,0,0,1,.23.78,5.55,5.55,0,0,1,0,.69v.13a5.1,5.1,0,0,0-.06.82c0,.18,0,.32,0,.45s0,.09,0,.13a3.81,3.81,0,0,1,0,1,9.84,9.84,0,0,1-.26,1.36,5,5,0,0,1-.37,1c-.08.16-.13.28-.18.39l0,0c0,.06,0,.12-.07.19l-.05.13a6.3,6.3,0,0,1-.47,1.06,4.8,4.8,0,0,1-.66.85l-.23.28a4.94,4.94,0,0,0-.4.54,2,2,0,0,1-1.24,1l-.13,0a3,3,0,0,0-.55.2,5.14,5.14,0,0,0-.51.29,3.7,3.7,0,0,1-.43.25,2.72,2.72,0,0,1-.37.13,2.12,2.12,0,0,1-1.71,0,2,2,0,0,1-.48-.29,2.12,2.12,0,0,1-.47-.56,1.87,1.87,0,0,1-.2.51,7.75,7.75,0,0,1,.21.83,5,5,0,0,1,0,1.22V304a10.62,10.62,0,0,0,0,1.12c0,.33.1.68.17,1l0,.18a9.06,9.06,0,0,1,.14,1.18c0,.84-.07,1.61-.15,2.47a10.6,10.6,0,0,1-.29,1.6c-.06.26-.12.54-.17.81a6.75,6.75,0,0,0-.11,1,7.15,7.15,0,0,1-.21,1.41,9.79,9.79,0,0,1-.61,1.46c-.14.28-.26.52-.36.77l-.29.71-.1.23a11.23,11.23,0,0,1-.61,1.32A5.08,5.08,0,0,1,317.18,320.3Zm4.76-83.6.16-.26c.07-.09.13-.19.23-.33a14.91,14.91,0,0,0,1.06-1.91,9.2,9.2,0,0,0,.57-1.8l.2-.8a5.65,5.65,0,0,0,.24-1.49A7.28,7.28,0,0,0,324,228a8.62,8.62,0,0,0-.79-2,8.81,8.81,0,0,0-1.17-1.39l-.21-.21a5.66,5.66,0,0,1-.53-.68l0-.06-.22-.33a2,2,0,0,0-1.14-.8,4,4,0,0,0-.55-.09h-.09a4.06,4.06,0,0,1-.8-.19,5.8,5.8,0,0,1-.75-.38,4.46,4.46,0,0,0-.93-.48l-.23-.06a18.89,18.89,0,0,0-2-.32h-.24a5.7,5.7,0,0,0-.61.08l-.16,0-.14,0a4.44,4.44,0,0,1-.92.13c-.31,0-.6,0-.89,0a11.83,11.83,0,0,0-1.21,0,4.85,4.85,0,0,1-1.09-.1,4.46,4.46,0,0,0-1-.1c-.26,0-.52,0-.77.07l-.24,0a6.52,6.52,0,0,1-1.1.1,9,9,0,0,1-2.14-.17,2,2,0,0,0-1.28-.29c-.23,0-.46,0-.72.05H302c-.29,0-.57,0-.83.08a6.17,6.17,0,0,0-.94.24,6.06,6.06,0,0,1-1.24.26l-.79.09a13.76,13.76,0,0,1-1.43.11,4.17,4.17,0,0,1-1.26-.23,3.75,3.75,0,0,0-1-.19c-.57,0-1.14-.09-1.69-.16l-.47-.06-.1,0a.15.15,0,0,1-.06-.13.14.14,0,0,1,0-.11.24.24,0,0,1,.12,0l.54.06c.53.07,1.08.14,1.62.16a5.4,5.4,0,0,1,1.13.23l.11,0a3.86,3.86,0,0,0,1,.16,10.45,10.45,0,0,0,1.07-.07l.31,0,.8-.08a5.64,5.64,0,0,0,1.19-.26l.15,0a5.43,5.43,0,0,1,.84-.21,10.28,10.28,0,0,1,1-.08,8,8,0,0,0,1.24-.13,6.64,6.64,0,0,0,1.08-.45,7.66,7.66,0,0,1,.9-.39,6.84,6.84,0,0,1,1.06-.18,5,5,0,0,0,1-.17l.15-.05a8.08,8.08,0,0,0,1.13-.6l.19-.11.56-.31a6.53,6.53,0,0,0,1.15-.74l.72-.49a21.26,21.26,0,0,0,1.76-1.2l.63-.46a12.81,12.81,0,0,0,1.15-.9,18.35,18.35,0,0,0,1.46-1.61A7.15,7.15,0,0,1,317,212l.1-.09a4.68,4.68,0,0,0,.71-.81,10.33,10.33,0,0,0,.65-1.45l0-.15c.06-.14.11-.28.17-.41a10.94,10.94,0,0,0,.47-1.67l.11-.46c.05-.21.12-.42.21-.71l0-.12a7.62,7.62,0,0,0,.29-1.33,5.63,5.63,0,0,0-.1-1.31,5.93,5.93,0,0,1-.1-.87,8.82,8.82,0,0,1,0-1,4.46,4.46,0,0,0,0-1.21l-.07-.37a13,13,0,0,0-.42-1.83,1.43,1.43,0,0,0-.08-.22,3.82,3.82,0,0,0-.55-.79,5.57,5.57,0,0,1-.57-.83c-.13-.26-.23-.53-.35-.84a4.69,4.69,0,0,0-.55-1.15,4,4,0,0,0-.9-.88c-.24-.2-.49-.4-.69-.6a5.59,5.59,0,0,1-.62-.91,3.74,3.74,0,0,0-.57-.8l-.14-.12-.14-.12a16.13,16.13,0,0,0-1.65-1.12l-.11-.06a3.89,3.89,0,0,0-1.09-.34l-.12,0a5,5,0,0,1-.83-.24l-.58-.25-.1,0a5.23,5.23,0,0,0-1.29-.45,11.05,11.05,0,0,0-2.16-.22,5.22,5.22,0,0,0-1.2.22,8.44,8.44,0,0,1-.9.21,5.43,5.43,0,0,1-.9,0,3.55,3.55,0,0,0-1.28.08c-.71.2-1.38.42-2,.67s-1.34.56-2,.84a5.91,5.91,0,0,0-.91.54l-.13.1a6.58,6.58,0,0,1-.85.53,4.76,4.76,0,0,1-1,.36,4.3,4.3,0,0,0-1.07.4,6.34,6.34,0,0,0-.93.73,6.23,6.23,0,0,1-.79.64c-.4.27-.78.55-1.18.83l-.58.42a6.72,6.72,0,0,1-.8.46l-.1,0a5.08,5.08,0,0,0-1,.57c-.33.27-.67.56-1,.86l-.64.55c-.48.4-.95.83-1.4,1.23l-.24.22a3.86,3.86,0,0,0-.58.69l-.14.19a6.47,6.47,0,0,1-.65.8l-.35.33c-.41.38-.81.77-1.23,1.18a4.48,4.48,0,0,1-.75.6,2.32,2.32,0,0,0-.69.74,1.94,1.94,0,0,0-.77.59l-.14.16a2.5,2.5,0,0,0-.21.25l-.55.66a.15.15,0,0,1-.22,0h0a.16.16,0,0,1,0-.21c.18-.21.37-.42.57-.67l.79-.93.15-.13a2,2,0,0,0,.53-.86,7.16,7.16,0,0,1,.45-1.17A6.66,6.66,0,0,1,282,200a7.66,7.66,0,0,0,.66-1,4.4,4.4,0,0,0,.36-.93l0-.11a6.05,6.05,0,0,1,.42-1.05,4.13,4.13,0,0,1,.67-.8l.05-.06a4,4,0,0,0,.7-.78l.06-.1c.28-.49.55-1,.83-1.51l.21-.39a5.79,5.79,0,0,0,.45-1.13,8.17,8.17,0,0,1,.38-1,10.64,10.64,0,0,0,.51-1.19c.11-.31.24-.61.35-.87a4.57,4.57,0,0,1,.62-.93l.06-.09.11-.13a5.55,5.55,0,0,0,.39-.6,2.44,2.44,0,0,0,.1-.24,5.9,5.9,0,0,0,.23-1.13,7.9,7.9,0,0,1,.2-1c.21-.68.43-1.42.59-2.18a5.91,5.91,0,0,0,.06-1.23v-.25a5.56,5.56,0,0,1,0-.7,4.23,4.23,0,0,1,.26-1,4.42,4.42,0,0,0,.25-.85,2,2,0,0,0,0-.65,5,5,0,0,0-.31-1l-.08-.26c-.06-.17-.11-.34-.17-.56a12.09,12.09,0,0,0-.72-2.09c-.08-.17-.16-.34-.23-.52l-.06-.11a7.88,7.88,0,0,0-.69-1.32,2,2,0,0,0-.39-.42l-.58-.4a4.31,4.31,0,0,1-.82-.64c-.19-.18-.37-.39-.58-.63a5.33,5.33,0,0,0-.94-1l-.53-.41a8.17,8.17,0,0,0-1.17-.85l-.61-.35a12.51,12.51,0,0,0-1.37-.69,13.88,13.88,0,0,0-1.75-.49l-.32-.07a15.49,15.49,0,0,0-2.16-.39,15.28,15.28,0,0,0-2.14,0,1.27,1.27,0,0,0-.28,0,5.23,5.23,0,0,0-.88.3l-.11.05a8.05,8.05,0,0,1-.79.26,15.08,15.08,0,0,0-2,.59,9,9,0,0,1-.89.24,5.25,5.25,0,0,0-1.17.36,16.8,16.8,0,0,0-1.91,1.13,9,9,0,0,0-1,.82c-.2.2-.4.39-.61.57l-.49.4a10.08,10.08,0,0,0-1.16,1,8.36,8.36,0,0,0-.75,1l-.5.75a4.47,4.47,0,0,1-.75.76,4.79,4.79,0,0,0-.61.61,2.2,2.2,0,0,0-.17.25,15.58,15.58,0,0,0-.83,1.74l-.1.22a.3.3,0,0,0,0,.1,4.34,4.34,0,0,0-.22,1.07,5.74,5.74,0,0,1-.19,1c-.1.28-.22.56-.37.88a10,10,0,0,0-.44,1.21,8.64,8.64,0,0,0-.18,1.23c0,.3-.08.6-.14.95l-.07.45c-.1.57-.19,1.11-.25,1.68,0,.34,0,.72,0,1.13v.37c0,.22,0,.43,0,.65s0,.44,0,.7v.22c0,.42,0,.84,0,1.29a6.12,6.12,0,0,1-.1,1l0,.12a3.69,3.69,0,0,0-.07,1.05,1.59,1.59,0,0,0,.08.39,3.2,3.2,0,0,0,.17.39l.13.29a4.14,4.14,0,0,1,.37,1l.08.48c.08.56.17,1.11.3,1.69a4.44,4.44,0,0,1,.08,1.08,3.94,3.94,0,0,0,.05.93l.06.23c.13.38.31.82.52,1.28l.31.7a.17.17,0,0,1-.11.22h0c-.06,0-.11,0-.18-.11s-.17-.41-.3-.71a11.57,11.57,0,0,1-.53-1.31,3.79,3.79,0,0,1-.12-1.24,5,5,0,0,0-.07-1c-.14-.57-.23-1.16-.31-1.72l-.08-.46a2.42,2.42,0,0,0-.1-.36c0-.08-.16-.39-.25-.57a3.72,3.72,0,0,1-.4-1.16,4.72,4.72,0,0,1,.09-1.24,7,7,0,0,0,.1-.85.48.48,0,0,0,0-.17c0-.48,0-.94,0-1.56,0-.19,0-.38,0-.63a5,5,0,0,0,0-.55V187c0-.43,0-.92,0-1.37.06-.66.17-1.28.3-2.05l0-.12c0-.21.06-.41.09-.62l0-.26a9.56,9.56,0,0,1,.19-1.29,8.83,8.83,0,0,1,.48-1.26h0a2.17,2.17,0,0,0-.12-1.89,5.81,5.81,0,0,0-.28-2.1c-.07-.22-.13-.51-.18-.75,0,0,0-.11,0-.12a4.52,4.52,0,0,0-.42-1.29,6.47,6.47,0,0,0-.79-1l-.27-.3-.38-.45-.42-.55a9.82,9.82,0,0,0-1-1.12,13.83,13.83,0,0,0-1.78-1.31,4,4,0,0,0-1.25-.46c-.28-.08-.57-.16-.84-.26a9.23,9.23,0,0,0-2.08-.59,5.47,5.47,0,0,1-.73-.14,4,4,0,0,0-1.38-.13,7.94,7.94,0,0,0-1.43.38l-.63.22a8.18,8.18,0,0,0-1.22.65l-.12.08-.44.26a7.54,7.54,0,0,1-.83.37l-.12,0a4,4,0,0,0-1,.51,11.2,11.2,0,0,0-1.18,1.13l-.68.7a11.73,11.73,0,0,0-1.12,1.22,17.8,17.8,0,0,0-1.2,1.79,21.44,21.44,0,0,0-1,1.9,13.52,13.52,0,0,0-.56,1.58l-.12.41a14,14,0,0,0-.44,2.1c0,.31-.11.62-.17.91a9.24,9.24,0,0,0-.22,1.22c-.06.73-.1,1.47-.1,2.12a4,4,0,0,0,.17,1.18l0,.14a7.41,7.41,0,0,1,.16.9c0,.37,0,.7,0,1a4.73,4.73,0,0,0,.36,2.4,5.44,5.44,0,0,1,.29.86,6.14,6.14,0,0,1,.12,1,3.74,3.74,0,0,0,.14,1.09,4.94,4.94,0,0,0,.54,1.17,8.34,8.34,0,0,1,.43.83c.11.27.21.54.32.85l0,.1a6.76,6.76,0,0,0,.44,1.05,8.6,8.6,0,0,0,.77,1.23c.14.2.27.4.41.62l.34.56.08.14a9.5,9.5,0,0,0,.72,1.15l.4.53a14.26,14.26,0,0,0,.94,1.23,11.7,11.7,0,0,0,1,.91c.23.19.44.38.6.54l.61.64c.32.35.62.66.9.91a6.56,6.56,0,0,0,1,.72c.27.18.55.35.8.54l.09.07c.24.19.46.39.7.62l.14.12a6.92,6.92,0,0,0,.69.58,5.27,5.27,0,0,0,1,.5l.14,0a5.28,5.28,0,0,1,.91.42.12.12,0,0,1,0,.12s0,.07,0,.1h-.08a.39.39,0,0,1-.12,0,5.66,5.66,0,0,0-.92-.41,5.54,5.54,0,0,1-1.11-.53,7.67,7.67,0,0,1-.94-.79c-.19-.18-.38-.36-.58-.52l-.12-.09a7.51,7.51,0,0,0-.83-.56c-.29-.18-.6-.38-.89-.6l-.13-.12a12.15,12.15,0,0,1-.95-1l-.08-.08-.07-.07a2,2,0,0,0-3.29.33,4.51,4.51,0,0,0-.24.5,4.46,4.46,0,0,1-.19.43,5.91,5.91,0,0,0-.56,1.57,7.52,7.52,0,0,0,0,1.64l.05.82a3.12,3.12,0,0,0,0,.37,7.16,7.16,0,0,0,.12,1.55,19.46,19.46,0,0,0,.61,2.11,4.13,4.13,0,0,0,.64,1.08,5.79,5.79,0,0,1,.49.79,21.27,21.27,0,0,0,1.06,1.89,6.4,6.4,0,0,1,.38.79l0,.07a3.64,3.64,0,0,0,.58,1.13A18.53,18.53,0,0,0,244,222a6.57,6.57,0,0,0,.66.6c.17.13.35.27.46.34l.58.45.26.23.1.07c.54.45,1,.84,1.58,1.26.41.3.82.57,1.22.83l.75.47a18.47,18.47,0,0,0,1.75,1l.27.13a2,2,0,0,0,1.75.16,2,2,0,0,0,1.26-1.54,8.71,8.71,0,0,0,.09-2.19,13,13,0,0,0-1.75-4.67l-.08-.15c-.26-.48-.51-1-.74-1.44A6.05,6.05,0,0,1,252,213l.09-.19a2,2,0,0,0,.16-.79,2.14,2.14,0,0,0,.71-.35,3.25,3.25,0,0,1,.9-.52,4.69,4.69,0,0,1,3.3,0,2,2,0,0,0,2.59-1.15,5.59,5.59,0,0,1,1-1.75,3.67,3.67,0,0,1,1.9-1.13,3.49,3.49,0,0,1,.75-.1,4.33,4.33,0,0,1,3.91,1.74,5.52,5.52,0,0,1,.89,2.45,2,2,0,0,0,1,1.45,2,2,0,0,0,1.73.15,4.87,4.87,0,0,1,2.26-.38,4.13,4.13,0,0,1,3,1.74,4.65,4.65,0,0,1,.76,4c-.06.25-.16.55-.24.8a2,2,0,0,0,1.59,2.65c.27,0,.53.09.79.15a5.21,5.21,0,0,1,3.49,2.34,4.7,4.7,0,0,1-1.22,6.1,3.16,3.16,0,0,1-1.15.56,2,2,0,0,0-1.36,2.49v0a3.92,3.92,0,0,1,0,.59,2,2,0,0,0,.44,1.49,2,2,0,0,0-1.46.53l-.1.11h0a6.1,6.1,0,0,1-4.74,1.22,12,12,0,0,0-5.46-.28,2,2,0,0,0-.81,3.51l.61.49,0,0,.4.3a18.74,18.74,0,0,0,1.9,1.33c.6.36,1.23.66,1.8.94s1,.45,1.5.64l.43.17c.26.11.53.24.82.38a5.13,5.13,0,0,0,1.07.46c.82.24,1.44.4,2.05.53a11.63,11.63,0,0,0,1.24.14l.17,0,.59.06c.76.1,1.46.16,2.08.2.24,0,.49,0,.74.05a12.16,12.16,0,0,0,1.33.06c.61,0,1.23-.06,2-.14a4.12,4.12,0,0,0,.86-.16,2,2,0,0,0,1.43-1.6,2,2,0,0,0-.83-2c-.45-.31-.86-.62-1.25-.93l-.45-.38c-.19-.14-.38-.28-.63-.44a4.51,4.51,0,0,1-1-.78l-.54-.53c-.33-.33-.67-.68-1-1.06a4.89,4.89,0,0,1-.64-1.08,6.23,6.23,0,0,0-.44-.8l-.08-.14-.13-.15a2.43,2.43,0,0,0,.27,0,.18.18,0,0,1,.14.06,6.6,6.6,0,0,1,.5.87,6.3,6.3,0,0,0,.54,1l.08.09c.32.38.69.76,1.15,1.21l.39.39a3.23,3.23,0,0,0,.27.23,6.21,6.21,0,0,0,.51.37l.22.16a6.91,6.91,0,0,1,.62.44l.48.39h0c.43.34.87.68,1.38,1l.36.26.44.33c.33.24.65.47,1,.67a8.56,8.56,0,0,0,1.14.47l.84.3a5.49,5.49,0,0,1,.86.54,3.4,3.4,0,0,0,1,.64,17.21,17.21,0,0,0,1.7.48l.41.1a3.47,3.47,0,0,0,1,.07h.2a5.21,5.21,0,0,1,1,0l.61.12.22,0a10.54,10.54,0,0,0,1.31.21c.24,0,.54.06,1,.14l.2,0a5.16,5.16,0,0,0,1,.09,10.37,10.37,0,0,0,1.34-.14l.79-.1.88-.06a8.57,8.57,0,0,0,1.34-.13,5.86,5.86,0,0,0,1.24-.42,8.39,8.39,0,0,1,.84-.3c.25-.07.5-.11.75-.16l.29,0a7.15,7.15,0,0,0,1.06-.26,6.33,6.33,0,0,0,1-.5l.13-.08a9.32,9.32,0,0,1,.84-.46,5.69,5.69,0,0,1,1-.32,5.65,5.65,0,0,0,1.07-.39,3.91,3.91,0,0,0,.94-.74l.1-.09a5.7,5.7,0,0,1,.71-.59c.25-.16.51-.31.77-.46a9.44,9.44,0,0,0,1.1-.68,7.94,7.94,0,0,1,.76-.52,6.72,6.72,0,0,0,1.08-.76c.32-.31.63-.66.92-1l.53-.58A9.57,9.57,0,0,0,321.94,236.7Z" style="fill: #a1ceef"/>
    <path d="M273.63,303.42a4.09,4.09,0,0,0-.44.51,3.73,3.73,0,0,0-.26.73,7.43,7.43,0,0,1-.6,1.57,12.68,12.68,0,0,1-.72,1.18,7.75,7.75,0,0,0-.48.76,2.34,2.34,0,0,1-.25.56c-.1.22-.21.45-.3.69s-.28.69-.43,1a10,10,0,0,1-.65,1.19,8.88,8.88,0,0,0-.47.87c-.25.68-.47,1.39-.7,2.19a19.5,19.5,0,0,0-.51,2.17,5.09,5.09,0,0,0,0,.95,9.5,9.5,0,0,1,0,1.22l0,.54a10,10,0,0,0,0,1.54,12.49,12.49,0,0,0,.45,2,11.08,11.08,0,0,0,.78,1.89,11.72,11.72,0,0,1,.47,1.08,4,4,0,0,0,.42.88,12,12,0,0,0,1.36,1.51,4.09,4.09,0,0,0,.73.4c.31.16.67.33,1,.56.2.14.39.26.58.41a7.56,7.56,0,0,0,1.09.65,3.67,3.67,0,0,0,.88.16c.36.05.73.1,1.09.18a11.81,11.81,0,0,0,1.6.18l.82.05a9.62,9.62,0,0,0,1.58.05,7.62,7.62,0,0,1,1.17,0,4.77,4.77,0,0,0,.9,0l.73-.15a9.21,9.21,0,0,0,1.32-.31,7.71,7.71,0,0,0,1.08-.57l.93-.53a17.11,17.11,0,0,0,2-1.16,7.72,7.72,0,0,0,.88-.76c.27-.27.54-.53.84-.78a21.21,21.21,0,0,0,1.6-1.57l.71-.71a11.84,11.84,0,0,0,.93-1,22.37,22.37,0,0,0,1.32-1.91,9.33,9.33,0,0,1,.85-1.1,6.66,6.66,0,0,0,.59-.78,4.58,4.58,0,0,0,.11-.64,7.18,7.18,0,0,1,.42-1.71A5.7,5.7,0,0,1,298,316a4.85,4.85,0,0,0,.39-.59c.11-.37.2-.79.29-1.26s.13-.73.22-1.08.15-.59.23-.88c.14-.51.27-1,.35-1.47a3.32,3.32,0,0,0-.06-.7,7.49,7.49,0,0,1-.06-1.75,12.14,12.14,0,0,1,.22-1.23,4.78,4.78,0,0,0,.15-.93,16.72,16.72,0,0,0-.08-2l-.05-.78a12.22,12.22,0,0,0-.16-1.58c-.05-.34-.09-.68-.13-1a7.51,7.51,0,0,0-.18-1.12,4.12,4.12,0,0,0-.34-.59,7,7,0,0,1-.72-1.33,20.7,20.7,0,0,0-.87-2c-.16-.33-.32-.66-.45-1a6.37,6.37,0,0,0-.46-1,8.58,8.58,0,0,0-.73-.92c-.22-.25-.43-.51-.63-.77a10.25,10.25,0,0,1-.71-1,5.24,5.24,0,0,0-.52-.78,8.35,8.35,0,0,0-.85-.73l-.83-.71c-.29-.26-.56-.56-.84-.86a5.55,5.55,0,0,0-.72-.73h0a2.16,2.16,0,0,1-.67-1,6.9,6.9,0,0,1-2.63,1.82,5.36,5.36,0,0,1-4.16.05,6.08,6.08,0,0,1-1.41-.85,5.4,5.4,0,0,1-.61-.56,6,6,0,0,1-.81.54,2.81,2.81,0,0,1,0,.29c0,.23,0,.46-.05.69a10,10,0,0,1-.23,2.06c-.21.82-.48,1.68-.8,2.56a10,10,0,0,1-.72,1.54l-.4.8c-.12.28-.22.56-.34.84a15.07,15.07,0,0,1-.64,1.51c-.25.49-.53.93-.77,1.31s-.36.56-.52.85-.17.45-.27.74a7.38,7.38,0,0,1-.62,1.59A6.19,6.19,0,0,1,273.63,303.42Zm-1.33-38.65a2.1,2.1,0,0,1-1.2.88c1.88,1.78,4.19,4.44,4,8.18a26.4,26.4,0,0,1-.45,2.91,10.14,10.14,0,0,0-.35,3.34c.16,1.3,1,3.92,2.34,3.75,1.17-.15,1.53-.42,1.62-.53.38-.42.38-1,.31-2.26l.72-.07a2.09,2.09,0,0,1,.69-.46,2.16,2.16,0,0,1,2.08.25l.8,0c0,.38,0,.78,0,1.19a4.29,4.29,0,0,0,1.72,2.2,1,1,0,0,0,.86-.05,2.11,2.11,0,0,0,1.26-1,1.79,1.79,0,0,0,.05-.75,2.26,2.26,0,0,1-.15-.73,6.15,6.15,0,0,0-.36-.89,2.15,2.15,0,1,1,3.85-1.92,9.79,9.79,0,0,1,.65,1.62,4.06,4.06,0,0,0,2.53,1.08c.27,0,.67-.16,1.15-.87.06-.07.16-.23.05-.65a5.89,5.89,0,0,0-2.83-3.15,2.15,2.15,0,1,1,2-3.8,7.44,7.44,0,0,1,.66.38c.15-.07.32-.16.58-.27.05,0,.29-.29.44-.45s.2-.22.3-.31,0,0,0,0,0-.23-.05-.35l0-.31c0-.25-.07-.4-.09-.51h0a7.05,7.05,0,0,1-.61-.47,2.66,2.66,0,0,1-.43-.48,2.14,2.14,0,0,1-2.33-.91h-.22c-.31,0-.63,0-.95,0a6.64,6.64,0,0,1-.87-.16c-.15,0-.29-.07-.44-.09l-.27,0a6.19,6.19,0,0,1-1.14.07,7.8,7.8,0,0,1-1.21-.24,1,1,0,0,0-.58,0,3.66,3.66,0,0,1-1.72-.18c-.26-.11-.54-.24-.82-.38l-.53-.25c-.25-.1-.51-.22-.77-.35l-.57-.25-1.35-.59a6.29,6.29,0,0,1-1.11-.71c-.06,0-.12-.1-.18-.15a7,7,0,0,1-.71-.33l-.54-.26-.19,0a5.46,5.46,0,0,1-1-.21,1.67,1.67,0,0,0-.4-.08c-.25,0-.51-.09-.76-.15a3.85,3.85,0,0,1-1.24-.61h0a2.57,2.57,0,0,0-.4,0l-.53,0-.37,0a4.12,4.12,0,0,0-.68,0A1.83,1.83,0,0,1,272.3,264.77Zm9.47-23.94c-.43-.43-.89-.87-1.33-1.39a6.94,6.94,0,0,1-.9-1.47,5.08,5.08,0,0,0-.31-.59.67.67,0,0,1-.09-.14c-.05,0-.1.11-.17.16a8.09,8.09,0,0,1-6.48,1.66,10.13,10.13,0,0,0-4.59-.28l.61.49.36.28a16.68,16.68,0,0,0,1.75,1.22c.53.32,1.1.6,1.67.88s1,.43,1.52.64l.23.09c.34.13.68.3,1,.46a4.17,4.17,0,0,0,.73.32c.68.2,1.28.36,1.84.48a10.26,10.26,0,0,0,1.07.12c.27,0,.56.05.83.09.59.07,1.27.14,1.91.18l.83.06a10.65,10.65,0,0,0,1.09,0c.6,0,1.2-.06,1.93-.14a1.65,1.65,0,0,0,.43-.09c-.63-.43-1.19-.87-1.71-1.3a5.89,5.89,0,0,0-.57-.41c-.26-.17-.54-.36-.82-.58s-.34-.29-.51-.46Zm-36.59-31.05a5.37,5.37,0,0,0-.57-.5,5.31,5.31,0,0,0-.63-.42,11.32,11.32,0,0,1-1.09-.75l-.19-.16a12.89,12.89,0,0,1-1.11-1.11,2.28,2.28,0,0,1-.22-.22c-.05.1-.11.19-.15.29s-.14.34-.23.52a4.33,4.33,0,0,0-.38,1,5.63,5.63,0,0,0,0,1.21c0,.19,0,.37,0,.56s0,.5,0,.75a7.07,7.07,0,0,0,.08,1.12c.17.71.34,1.32.53,1.87a3.56,3.56,0,0,0,.36.56,8.58,8.58,0,0,1,.7,1.13,16.56,16.56,0,0,0,1,1.71,7.75,7.75,0,0,1,.58,1.23,3.32,3.32,0,0,0,.28.59,14.69,14.69,0,0,0,1.29,1.5,6.34,6.34,0,0,0,.89.74l.63.49.27.22c.54.45,1,.87,1.54,1.24s1,.64,1.41.94l.5.31a16,16,0,0,0,1.55.88l.38.19,0,0a7,7,0,0,0,.07-1.66,11.35,11.35,0,0,0-1.53-3.93c-.29-.56-.6-1.12-.86-1.69a8,8,0,0,1-.25-6.15c0-.11.11-.23.16-.34a2.15,2.15,0,0,1-1.78-.17,3.43,3.43,0,0,0-.61-.25,7.37,7.37,0,0,1-1.5-.74A9.74,9.74,0,0,1,245.18,209.78Zm2-3.93c.33.25.62.52.92.79a8.47,8.47,0,0,0,.64.56,4.37,4.37,0,0,0,.66.29,8.08,8.08,0,0,1,1.23.56,2.14,2.14,0,0,1,1.06,2,5.53,5.53,0,0,1,1.44-.83,6.7,6.7,0,0,1,4.73,0,7.59,7.59,0,0,1,1.43-2.38,5.52,5.52,0,0,1,2.89-1.72,6.13,6.13,0,0,1,1.15-.16,6.31,6.31,0,0,1,5.62,2.58,7.53,7.53,0,0,1,1.24,3.34,7,7,0,0,1,3.13-.51,6.1,6.1,0,0,1,4.39,2.52,6.58,6.58,0,0,1,1.12,5.61,8.34,8.34,0,0,1-.31,1.05c.33,0,.65.11,1,.19a7.1,7.1,0,0,1,4.78,3.34,6.66,6.66,0,0,1-1.69,8.57,5.11,5.11,0,0,1-1.89.95,1.61,1.61,0,0,1,.08.38,5.15,5.15,0,0,1,0,1,2.16,2.16,0,0,1,2,.88,9.92,9.92,0,0,1,.69,1.2,4.28,4.28,0,0,0,.31.59c.32.37.68.73,1.07,1.11l.35.35a7.32,7.32,0,0,0,.69.51,9.48,9.48,0,0,1,.94.69c.48.4,1,.8,1.59,1.21.22.15.44.32.67.49s.66.49,1,.66a6.14,6.14,0,0,0,.84.33c.34.12.69.25,1,.39a9,9,0,0,1,1.26.79,2.79,2.79,0,0,0,.46.32c.49.17,1,.3,1.61.44l.33.08a4,4,0,0,0,.62,0,6.2,6.2,0,0,1,1.4.05,9.79,9.79,0,0,1,1,.18,9.94,9.94,0,0,0,1,.18,8.82,8.82,0,0,1,1.15.15,7.47,7.47,0,0,0,.86.11,8.35,8.35,0,0,0,1.13-.13l.89-.12c.32,0,.64-.05,1-.06a7.5,7.5,0,0,0,1.05-.1,3.81,3.81,0,0,0,.76-.26,9.77,9.77,0,0,1,1.17-.42c.35-.09.71-.16,1.07-.22a6.59,6.59,0,0,0,.92-.22,5.48,5.48,0,0,0,.73-.39,10.17,10.17,0,0,1,1.06-.57,7.93,7.93,0,0,1,1.23-.43,3.83,3.83,0,0,0,.71-.24,2.81,2.81,0,0,0,.49-.43,8.14,8.14,0,0,1,1.08-.88c.3-.19.59-.37.89-.54s.62-.35.85-.51a10.69,10.69,0,0,1,1-.66,5.37,5.37,0,0,0,.73-.49c.26-.25.54-.57.84-.91l.54-.59a8,8,0,0,0,.7-1c.14-.21.27-.42.41-.61a12.57,12.57,0,0,0,.88-1.61,7.19,7.19,0,0,0,.45-1.44l.17-.69a5.7,5.7,0,0,0,.22-1.12,9.45,9.45,0,0,0-.91-3.07,7,7,0,0,0-.87-1l-.26-.26a10.35,10.35,0,0,1-.78-1c-.06-.1-.13-.22-.19-.3a1.76,1.76,0,0,0-.31,0,6.34,6.34,0,0,1-1.36-.33,8.42,8.42,0,0,1-1.09-.55,2.62,2.62,0,0,0-.47-.26,15.71,15.71,0,0,0-1.8-.3c-.09,0-.36.06-.54.08a5.86,5.86,0,0,1-1.38.18l-1,0c-.33,0-.66,0-1,0a6.78,6.78,0,0,1-1.52-.13c-.21,0-.47-.07-.56-.07-.27,0-.54.05-.79.08a8.47,8.47,0,0,1-1.39.12,11.61,11.61,0,0,1-2.49-.18,2.07,2.07,0,0,1-.7-.29l-.84.06a6.32,6.32,0,0,0-.76.06,5.78,5.78,0,0,0-.67.18,9,9,0,0,1-1.65.34c-.24,0-.48,0-.73.08a15.75,15.75,0,0,1-1.63.12,5.84,5.84,0,0,1-1.77-.29,3.34,3.34,0,0,0-.58-.13c-.63,0-1.25-.1-1.87-.18l-.46-.06a2.09,2.09,0,0,1-1.09-.45,2.14,2.14,0,0,1-.8-1.93,2.16,2.16,0,0,1,2.38-1.89l.48.06c.53.06,1.05.13,1.58.15a7.79,7.79,0,0,1,1.51.29,3.91,3.91,0,0,0,.57.13c.36,0,.76-.05,1.19-.09l.88-.1a4.13,4.13,0,0,0,.78-.18,8.15,8.15,0,0,1,1.25-.31,11.69,11.69,0,0,1,1.19-.09,6.32,6.32,0,0,0,.87-.08,5.87,5.87,0,0,0,.66-.29,8.13,8.13,0,0,1,1.24-.52,7.13,7.13,0,0,1,1.41-.25c.23,0,.52-.06.63-.09a8.39,8.39,0,0,0,.9-.49c.3-.17.58-.34.89-.49a5.14,5.14,0,0,0,.81-.54c.28-.2.56-.4.85-.58.65-.4,1.16-.76,1.63-1.11l.65-.48a8.93,8.93,0,0,0,.9-.7,14.62,14.62,0,0,0,1.31-1.43,8.62,8.62,0,0,1,.89-.91,5.15,5.15,0,0,0,.48-.49,8.33,8.33,0,0,0,.51-1.14q.12-.33.24-.63a8.73,8.73,0,0,0,.38-1.34l.11-.49c.07-.26.14-.52.22-.78a7.43,7.43,0,0,0,.26-1.07,4.92,4.92,0,0,0-.09-.82,10.27,10.27,0,0,1-.12-1.1,11.11,11.11,0,0,1,0-1.18,4.2,4.2,0,0,0,0-.77l-.07-.39a12,12,0,0,0-.35-1.56s-.18-.25-.29-.39a6.29,6.29,0,0,1-.8-1.19,8.44,8.44,0,0,1-.41-1,3.91,3.91,0,0,0-.34-.75,3.09,3.09,0,0,0-.51-.46,5.81,5.81,0,0,1-1.75-2,2.89,2.89,0,0,0-.3-.45,12.82,12.82,0,0,0-1.54-1.07,4.28,4.28,0,0,0-.61-.16,7.56,7.56,0,0,1-1.2-.33c-.26-.1-.51-.21-.75-.32a4.37,4.37,0,0,0-.9-.34,9.6,9.6,0,0,0-1.76-.18,4.14,4.14,0,0,0-.71.16c-.36.09-.73.19-1.11.25a7.72,7.72,0,0,1-1.32,0,3,3,0,0,0-.62,0c-.58.16-1.2.36-1.9.62s-1.17.49-1.81.78a6.79,6.79,0,0,0-.71.45,7.79,7.79,0,0,1-1.06.67,7.47,7.47,0,0,1-1.38.53,4.13,4.13,0,0,0-.59.19,5.45,5.45,0,0,0-.58.47,7.87,7.87,0,0,1-1.05.84l-1.48,1.05-.22.16a8.38,8.38,0,0,1-1.23.7,4.66,4.66,0,0,0-.62.34c-.31.24-.61.51-.92.77s-.45.4-.69.59c-.46.39-.91.8-1.36,1.2l-.22.19c-.09.09-.25.32-.4.52a8.5,8.5,0,0,1-.93,1.14l-.37.35c-.39.36-.78.73-1.15,1.11a6.43,6.43,0,0,1-1.08.86,2.1,2.1,0,0,1-1,.92c-.12.15-.27.31-.4.46s-.37.45-.55.67a2.16,2.16,0,0,1-3.26-2.82l.5-.58c.31-.38.62-.76,1-1.13.06-.06.12-.1.17-.16a9.8,9.8,0,0,1,.6-1.51,9.19,9.19,0,0,1,.82-1.24,4.56,4.56,0,0,0,.48-.68,3.2,3.2,0,0,0,.21-.59,8.77,8.77,0,0,1,.62-1.53,6.2,6.2,0,0,1,1.08-1.3,3.36,3.36,0,0,0,.39-.41c.31-.54.61-1.09.91-1.66l.14-.27a3.86,3.86,0,0,0,.28-.73,9.21,9.21,0,0,1,.51-1.31,8.65,8.65,0,0,0,.42-1c.12-.33.27-.67.41-1a6.21,6.21,0,0,1,.86-1.34c.11-.16.29-.39.34-.47a6.23,6.23,0,0,0,.14-.76,9.45,9.45,0,0,1,.27-1.3,20.05,20.05,0,0,0,.54-2,4.6,4.6,0,0,0,0-.86c0-.37,0-.74,0-1.1a6.14,6.14,0,0,1,.38-1.56,2.61,2.61,0,0,0,.15-.45,7.49,7.49,0,0,0-.24-.79c-.1-.31-.21-.61-.28-.93a9.91,9.91,0,0,0-.59-1.71c-.1-.2-.19-.4-.28-.62a6.78,6.78,0,0,0-.54-1.05l-.44-.3a7.1,7.1,0,0,1-1.09-.86,10.44,10.44,0,0,1-.71-.77,4,4,0,0,0-.62-.66l-.64-.5a7,7,0,0,0-.88-.64l-.48-.28a11.56,11.56,0,0,0-1.19-.62,13.68,13.68,0,0,0-1.49-.41l-.34-.08a16,16,0,0,0-1.84-.34,14.68,14.68,0,0,0-1.88,0,5,5,0,0,0-.52.2,9.08,9.08,0,0,1-1.27.41,13.79,13.79,0,0,0-1.77.53,10,10,0,0,1-1.07.29,4.59,4.59,0,0,0-.75.21,16.22,16.22,0,0,0-1.65,1,6.18,6.18,0,0,0-.69.6,9.59,9.59,0,0,1-.75.68l-.41.34a9.78,9.78,0,0,0-1,.9,7.1,7.1,0,0,0-.6.85c-.17.24-.33.49-.49.73a5.92,5.92,0,0,1-1,1.07c-.14.13-.33.3-.39.37-.29.51-.55,1.13-.83,1.77a4,4,0,0,0-.1.59,7.72,7.72,0,0,1-.29,1.45,10,10,0,0,1-.42,1c-.13.32-.26.63-.33.87a8.34,8.34,0,0,0-.15,1c0,.32-.09.65-.14,1l0,.19c-.11.63-.22,1.23-.28,1.83,0,.32,0,.69,0,1.09s0,.64,0,1,0,.47,0,.71c0,.45-.05.88,0,1.33a7.46,7.46,0,0,1-.13,1.44,3.8,3.8,0,0,0-.07.64s.12.25.18.4a6,6,0,0,1,.56,1.57l.07.48c.08.52.16,1,.27,1.53a6,6,0,0,1,.14,1.56,4.2,4.2,0,0,0,0,.53c.11.32.27.7.45,1.09s.22.52.34.77a2.16,2.16,0,0,1-1.19,2.8l-.28.1a2.21,2.21,0,0,1-1.88-.41,2.08,2.08,0,0,1-.64-.87c-.09-.21-.18-.43-.28-.65a13,13,0,0,1-.62-1.56,5.74,5.74,0,0,1-.21-1.84,4.11,4.11,0,0,0,0-.54c-.15-.63-.24-1.24-.33-1.84l-.08-.46-.19-.42a5.39,5.39,0,0,1-.59-1.83,7,7,0,0,1,.12-1.73c0-.24.07-.49.08-.63a13.23,13.23,0,0,1,0-1.68c0-.21,0-.44,0-.64s0-.52,0-.76c0-.47,0-1,0-1.58.07-.74.19-1.44.31-2.12l0-.2c0-.25.07-.49.11-.74a10.73,10.73,0,0,1,.25-1.58,9.2,9.2,0,0,1,.57-1.55h0a2.11,2.11,0,0,1-.3-1.14,4.07,4.07,0,0,0-.17-1.41,7.61,7.61,0,0,1-.25-1,4,4,0,0,0-.2-.76,7.1,7.1,0,0,0-.62-.74l-.62-.72c-.13-.17-.27-.34-.39-.51a9.82,9.82,0,0,0-.82-1,11.69,11.69,0,0,0-1.51-1.11,3,3,0,0,0-.71-.22c-.34-.1-.69-.2-1-.32a7.14,7.14,0,0,0-1.61-.47,8.93,8.93,0,0,1-.9-.17,4.14,4.14,0,0,0-.71-.11,7,7,0,0,0-1.16.34l-.44.15a6.53,6.53,0,0,0-.89.49,6.44,6.44,0,0,1-.63.36,6.58,6.58,0,0,1-1,.48,3.41,3.41,0,0,0-.63.3,10.4,10.4,0,0,0-1,.94l-.71.74a8.47,8.47,0,0,0-.93,1,14.8,14.8,0,0,0-1.06,1.58c-.39.66-.67,1.2-.9,1.68s-.35,1-.52,1.53l-.08.25a14.07,14.07,0,0,0-.37,1.81c0,.36-.12.71-.2,1.05a7.8,7.8,0,0,0-.18,1c-.05.64-.09,1.32-.1,2a3.2,3.2,0,0,0,.14.65,8.56,8.56,0,0,1,.23,1.35c0,.45,0,.86,0,1.21a5.62,5.62,0,0,0,0,.81,4.54,4.54,0,0,0,.24.76,8.37,8.37,0,0,1,.37,1.16,8.48,8.48,0,0,1,.16,1.38,3.06,3.06,0,0,0,.07.63,3.5,3.5,0,0,0,.36.74,7.38,7.38,0,0,1,.53,1.05c.13.3.25.62.36.93a7.83,7.83,0,0,0,.37.93,11.06,11.06,0,0,0,.64,1c.16.22.31.45.45.67l.47.79a10.47,10.47,0,0,0,.58.94l.43.57c.27.38.54.74.8,1s.47.46.76.72.5.43.73.66.44.45.65.68a9.54,9.54,0,0,0,.77.78,8.2,8.2,0,0,0,.76.52C246.58,205.42,246.91,205.63,247.2,205.85Zm71.31,70.7a3.93,3.93,0,0,0-.36-.21,6,6,0,0,1-.94-.57,5.16,5.16,0,0,1-.88-.86,2.61,2.61,0,0,0-.23-.24,4.19,4.19,0,0,0-.43-.23,6.72,6.72,0,0,1-.88-.47,8.69,8.69,0,0,1-.8-.58,2.61,2.61,0,0,0-.43-.31,3.47,3.47,0,0,0-.55-.26,7.59,7.59,0,0,1-.82-.37c-.24-.13-.48-.26-.72-.41s-.39-.24-.59-.34a4.58,4.58,0,0,0-.51-.16,6.89,6.89,0,0,1-.91-.29c-.27-.12-.54-.24-.81-.38a4.16,4.16,0,0,0-.52-.25l-.38,0a8.74,8.74,0,0,1-1.05-.16l-.39-.11c-.33-.08-.64-.18-1-.23l-.44-.07-.94-.15-1.39-.15a5.39,5.39,0,0,1-1-.19l-.34-.07-.54,0-.83,0a2.4,2.4,0,0,0-.36.06,7.25,7.25,0,0,1,.37,1.58l0,.23A6.64,6.64,0,0,1,300,273c0,.13,0,.25-.07.37.13.06.26.14.37.2s.51.29.78.42.53.22.81.32a10.38,10.38,0,0,1,1.67.72,6.58,6.58,0,0,1,1.51,1.26,3.83,3.83,0,0,0,.53.5c.77.51,1.5,1.07,2.13,1.54a4.9,4.9,0,0,0,.66.38,7.67,7.67,0,0,1,1.6,1c.7.61,1.34,1.26,1.91,1.83a6.42,6.42,0,0,1,1.11,1.52c.16.25.31.5.43.65l.51.56c.41.44.82.89,1.23,1.41a6.15,6.15,0,0,0,.59.67,13.57,13.57,0,0,1,1.09,1.35,17.07,17.07,0,0,1,.95,1.59c.13.23.26.46.4.69.37.64.69,1.28,1,1.9l.21.44c.13.26.28.51.42.76a15.7,15.7,0,0,1,.79,1.59c.26.61.44,1.19.62,1.76.08.25.15.5.24.74.3.9.53,1.8.71,2.53,0,.2.13.4.18.6a2.45,2.45,0,0,1,.45-.17A.79.79,0,0,0,323,300a7.73,7.73,0,0,1,.68-.38,6.75,6.75,0,0,1,.88-.33l.14,0,.1-.17a7.17,7.17,0,0,1,.52-.71c.09-.12.2-.24.29-.35a4.2,4.2,0,0,0,.44-.55,6,6,0,0,0,.3-.68c0-.14.11-.28.16-.42s.15-.36.24-.53a3.7,3.7,0,0,0,.23-.6,7.25,7.25,0,0,0,.23-1.2,3.51,3.51,0,0,0,0-.53,4.89,4.89,0,0,1,0-.66,6.45,6.45,0,0,1,0-1c0-.16,0-.37,0-.44a3.45,3.45,0,0,0-.13-.37,7.24,7.24,0,0,1-.28-1,4.81,4.81,0,0,1,0-1.29,1,1,0,0,0,0-.25,3.91,3.91,0,0,0-.21-.54c-.1-.25-.2-.49-.29-.74s-.16-.34-.27-.56-.26-.49-.37-.74c-.19-.44-.41-.87-.63-1.29-.13-.23-.24-.47-.35-.71a6.63,6.63,0,0,0-.29-.6c-.14-.22-.27-.45-.4-.68a3.7,3.7,0,0,0-.35-.61,3.63,3.63,0,0,0-.41-.47c-.19-.22-.4-.43-.58-.67a4,4,0,0,0-.41-.41c-.22-.22-.44-.44-.66-.68s-.42-.58-.58-.81a2.55,2.55,0,0,0-.25-.37,5.11,5.11,0,0,0-.55-.48c-.19-.15-.38-.32-.58-.49l-.4-.37C319,277,318.76,276.75,318.51,276.55Zm-1-6a6.66,6.66,0,0,1,1,.58,5.24,5.24,0,0,1,1,1c.08.08.14.17.22.24a2.91,2.91,0,0,0,.35.2,6.26,6.26,0,0,1,1.08.68c.32.26.63.54.92.81l.36.33.42.36a7.14,7.14,0,0,1,.87.77,6.13,6.13,0,0,1,.82,1.07,2.75,2.75,0,0,0,.23.33,4.64,4.64,0,0,0,.38.39,8.2,8.2,0,0,1,.79.84c.12.15.24.28.37.42a9.59,9.59,0,0,1,.76.9,9.37,9.37,0,0,1,.62,1c.09.16.17.32.26.47a8,8,0,0,1,.58,1.11,4.84,4.84,0,0,0,.21.47c.22.42.52,1,.79,1.58a4.66,4.66,0,0,0,.22.45,6.84,6.84,0,0,1,.53,1.17c.06.16.12.3.19.45a9.18,9.18,0,0,1,.44,1.23,4.45,4.45,0,0,1,.09,1.54c0,.1,0,.2,0,.3a1.52,1.52,0,0,0,.11.32,4.92,4.92,0,0,1,.3,2.66,3.55,3.55,0,0,0,0,.46l0,.39a6.08,6.08,0,0,1,0,1.44,13.31,13.31,0,0,1-.34,1.78,7.81,7.81,0,0,1-.5,1.32c-.05.12-.11.24-.16.37l-.13.34a8.84,8.84,0,0,1-.61,1.32,8.69,8.69,0,0,1-.9,1.2l-.24.26c-.07.09-.13.2-.19.29a5.07,5.07,0,0,1-1,1.23,4.46,4.46,0,0,1-1.59.77,1.12,1.12,0,0,0-.26.08l-.24.15a4.51,4.51,0,0,1-1.64.71,2,2,0,0,1-.74,0,4.84,4.84,0,0,0,0,.54,7.76,7.76,0,0,0,.13.82,10.41,10.41,0,0,1,.2,1.8,26.34,26.34,0,0,1-.15,2.64,13.17,13.17,0,0,1-.33,1.89c-.05.25-.11.5-.16.74s-.06.52-.09.79a7.56,7.56,0,0,1-.29,1.88,10.59,10.59,0,0,1-.75,1.78l-.33.71c-.09.21-.17.41-.25.63a14.84,14.84,0,0,1-.85,1.85,6.78,6.78,0,0,1-1.27,1.53c-.2.2-.39.4-.52.55a20.79,20.79,0,0,1-1.76,2,22.64,22.64,0,0,1-2.08,1.88,21.55,21.55,0,0,1-2.33,1.66c-.24.13-.46.28-.67.42a9.21,9.21,0,0,1-1.9,1,14.44,14.44,0,0,1-2.92.81,13.3,13.3,0,0,1-3.1.22,6.3,6.3,0,0,1-2.35-.76,6.05,6.05,0,0,0-.6-.26l-.52-.17a9,9,0,0,1-2.35-1c-.18-.12-.33-.23-.49-.36a7.36,7.36,0,0,1-.9-.85c-.16.17-.34.34-.49.48l-.55.55a27.21,27.21,0,0,1-2,1.91l-.64.58a9.8,9.8,0,0,1-1.46,1.25,22.88,22.88,0,0,1-2.41,1.42l-.72.41a9.85,9.85,0,0,1-1.78.89,13.06,13.06,0,0,1-2,.5l-.61.13a7.51,7.51,0,0,1-1.94.12c-.25,0-.49,0-.72,0a16.19,16.19,0,0,1-2.23-.05l-.78,0a12.87,12.87,0,0,1-2.28-.28,4.91,4.91,0,0,0-.67-.09,8.2,8.2,0,0,1-2-.46,10.36,10.36,0,0,1-1.87-1.1c-.16-.1-.32-.22-.49-.32a4.51,4.51,0,0,0-.58-.3,7.86,7.86,0,0,1-1.51-.9,3,3,0,0,1-.28-.24,16.57,16.57,0,0,1-1.86-2.07,7.45,7.45,0,0,1-1-1.89,4.59,4.59,0,0,0-.27-.63,16.34,16.34,0,0,1-1.69-5.38,11.86,11.86,0,0,1,0-2.3l0-.48a6.19,6.19,0,0,0,0-.74,7.77,7.77,0,0,1,0-2,26,26,0,0,1,.61-2.61c.11-.37.22-.71.32-1.05l-.29.1a8.59,8.59,0,0,1-1.18.36l-.5.13a2.64,2.64,0,0,0-.38.18,6.44,6.44,0,0,1-1.26.47,17.29,17.29,0,0,1-1.76.32,7.73,7.73,0,0,1-1.31.09h-.48l-.45,0a8.53,8.53,0,0,1-1.37.06,15.31,15.31,0,0,1-1.67-.2l-.17,0a5,5,0,0,1-1.45-.5,1.47,1.47,0,0,0-.31-.15l-.41-.09a6.51,6.51,0,0,1-1.39-.41l-.39-.17a9,9,0,0,1-1.32-.63c-.3-.19-.57-.4-.82-.59l-.27-.22-.32-.27a5.44,5.44,0,0,1-.94-.9l-.29-.33c-.1-.08-.22-.16-.33-.26a5.75,5.75,0,0,1-1-.88,8.31,8.31,0,0,1-.75-1l-.25-.38a8.39,8.39,0,0,1-.68-1.12c-.07-.13-.13-.26-.21-.38a1.37,1.37,0,0,0-.21-.28,5,5,0,0,1-.76-1.16,6.55,6.55,0,0,1-.4-1.25c0-.15-.07-.29-.11-.43l-.13-.36a8.69,8.69,0,0,1-.41-1.3,5.5,5.5,0,0,1-.12-1.37,2.26,2.26,0,0,0,0-.37c0-.09-.06-.19-.09-.28a5,5,0,0,1-.3-1.45,7.41,7.41,0,0,1,.16-1.47c0-.13.06-.26.08-.4a13.1,13.1,0,0,1,.35-1.82,1.24,1.24,0,0,0,0-.33,5.31,5.31,0,0,1,.31-1.53,4.7,4.7,0,0,1,.84-1.32c.06-.09.14-.17.2-.26s0-.18.09-.27a4.69,4.69,0,0,1,.66-1.41c.38-.52.75-1,1.13-1.43a4.94,4.94,0,0,1,1.2-.93l.26-.15.25-.3a6.21,6.21,0,0,1,.92-1,4.36,4.36,0,0,0,.4-.35c.27-.23.59-.5.95-.76a9.31,9.31,0,0,1,1.05-.61,3.21,3.21,0,0,0,.45-.24c.5-.3,1-.57,1.51-.82a5.34,5.34,0,0,1,1.18-.47,1.93,1.93,0,0,0,.4-.15,2.6,2.6,0,0,0,.36-.21,5.73,5.73,0,0,1,1.12-.63,5.83,5.83,0,0,1,1.26-.31,1.55,1.55,0,0,0,.31-.06l.17-.13a4.67,4.67,0,0,1,1.18-.66,4.93,4.93,0,0,1,1.39-.25l.25,0,.44-.21c.3-.13.59-.27.88-.37l1.42-.51a1.87,1.87,0,0,0,.31-.17,5,5,0,0,1,1-.53c.25-.1.52-.18.79-.28a5.66,5.66,0,0,0,.58-.2l.92-.45.37-.18c.19-.1.35-.21.53-.32s.47-.29.72-.42a5.12,5.12,0,0,1,1.1-.43,1.6,1.6,0,0,0,.31-.1l.59-.33c.24-.13.49-.27.73-.42.06,0,.13-.13.21-.2a5.45,5.45,0,0,1,1.07-.87l.28-.13c-.14-1.68-1.35-3.1-3.46-5a2.15,2.15,0,0,1-.69-1.88,2.36,2.36,0,0,1-.08-.88,4.59,4.59,0,0,1,.36-1.21l-.73-.39-.22-.13-.67-.33-.5-.23-.52-.27c-.21-.11-.41-.22-.63-.32l-.64-.26-.54-.22a5.84,5.84,0,0,1-.76-.36l-.39-.2-.6-.18c-.2-.06-.42-.12-.63-.2l-.7-.2-.53-.14c-.4-.12-.81-.22-1.22-.32s-.56-.16-.81-.25-.28-.11-.43-.15a3.57,3.57,0,0,0-.46,0c-.28,0-.54-.05-.81-.09s-.84-.14-1.26-.19l-.58-.09c-.22,0-.46-.07-.69-.09a5.72,5.72,0,0,0-.59,0l-.68,0-.77-.08a2.26,2.26,0,0,0-.51-.05,4.87,4.87,0,0,0-.54,0c-.24,0-.5,0-.75,0a7,7,0,0,1-.79,0,4.21,4.21,0,0,0-.5,0,4,4,0,0,0-.5,0,6.83,6.83,0,0,1-.79.11,7.09,7.09,0,0,1-.8,0,2.68,2.68,0,0,0-.49,0,3,3,0,0,0-.41.08c-.29.07-.58.14-.86.18s-.53.05-.79.08a2.92,2.92,0,0,0-.51,0l-.53.08L241,260l-.5.09-.79.15-.69.17-.59.15-.78.21-.93.24a7.55,7.55,0,0,0-.74.21,2.32,2.32,0,0,0-.36.16,8.34,8.34,0,0,1-.8.38L234,262a3.09,3.09,0,0,0-.46.14c-.26.1-.51.22-.75.34l-.46.21c-.39.18-.79.38-1.2.56-.16.09-.31.17-.46.27a8.06,8.06,0,0,1-.71.39c-.24.12-.49.23-.74.33a3.64,3.64,0,0,0-.49.22,3.35,3.35,0,0,0-.45.27c-.23.15-.46.29-.7.42l-.72.35a4.74,4.74,0,0,0-.51.24,3.21,3.21,0,0,0-.41.27,6.67,6.67,0,0,1-.72.45,5.75,5.75,0,0,1-.74.38,4.16,4.16,0,0,0-.47.24,5,5,0,0,0-.45.3c-.23.15-.45.3-.69.44l-.26.13s0,0,0,0l-.48.3a4.8,4.8,0,0,1-1,.52l-.08,0h0l-.11.06-.07.08a4.42,4.42,0,0,1-1,.9,4.61,4.61,0,0,1-1.23.52l-.18,0c-.37.24-.75.47-1.13.7a7.06,7.06,0,0,1-.82.43l-.31.15-.06.07a3.79,3.79,0,0,1-1.1,1l-.4.26c-.25.18-.5.35-.76.51l-.77.41-.46.26a5,5,0,0,1-1.16.43l-.24.07-.67.34-.52.25-.45.24c-.25.15-.51.28-.78.43a1.14,1.14,0,0,0-.25.18l-.3.21.32.07.58.12.64.07a11.48,11.48,0,0,1,1.36.2c.42.11.84.24,1.27.39l.62.2c.5.15,1,.32,1.5.48l.35.13.58.17a8.56,8.56,0,0,1,1.3.43,7.23,7.23,0,0,1,1.27.74,4,4,0,0,0,.43.28,4.31,4.31,0,0,0,.49.22,6.68,6.68,0,0,1,1.31.63,7.21,7.21,0,0,1,1.13,1,4.14,4.14,0,0,0,.38.35c.47.38.93.8,1.49,1.34a19.8,19.8,0,0,1,1.37,1.48c.12.14.24.27.38.41a10,10,0,0,1,.93,1.15,18.31,18.31,0,0,1,1,1.77,8.18,8.18,0,0,1,.5,1.46,4.05,4.05,0,0,0,.12.5c.06.17.14.33.21.48a8,8,0,0,1,.52,1.43,6.67,6.67,0,0,1,.13,1.52,4.47,4.47,0,0,0,0,.52,16.46,16.46,0,0,1,.1,2c0,.16,0,.33,0,.49a11.61,11.61,0,0,1,0,1.53,19.91,19.91,0,0,1-.34,2,4.94,4.94,0,0,0-.1.53,13.39,13.39,0,0,1-.34,1.45c-.18.51-.41,1-.6,1.38l-.21.44c-.29.64-.59,1.22-.9,1.78l-.06.1c-.29.51-.6,1.05-1,1.59a14.19,14.19,0,0,1-.91,1.16l-.64.76c-.3.39-.61.77-.94,1.12s-.72.72-1.1,1.06l-.32.31c-.38.35-.78.67-1.19,1l-.34.27c-.62.51-1.11.87-1.59,1.2s-1.1.74-1.71,1.09a19.78,19.78,0,0,1-1.83.89,19,19,0,0,1-1.93.75,16.92,16.92,0,0,1-2,.52l-.19,0a11.5,11.5,0,0,1-2,.22,9.84,9.84,0,0,1-1.79-.16l-.73-.11a9.7,9.7,0,0,1-1.8-.36,13.46,13.46,0,0,1-2-.81,4.32,4.32,0,0,1-.82-.54,7,7,0,0,1-.6-.53l-.26-.24a7.26,7.26,0,0,1-1.53-1.71,7.05,7.05,0,0,1-1-2.08,8.85,8.85,0,0,1-.21-1.82v-.29a16.3,16.3,0,0,1,.06-1.92l0-.35a8.24,8.24,0,0,1,.27-1.87,8.7,8.7,0,0,1,.48-1.24c.09-.2.18-.4.25-.6s.2-.6.29-.91.18-.56.26-.83a15,15,0,0,0,.44-1.6,3.85,3.85,0,0,0,.06-.95v-.44a2.93,2.93,0,0,0-.06-.94,1.64,1.64,0,0,0-.38-.61,5,5,0,0,0-.75-.42l-.18-.09a8.82,8.82,0,0,0-1.13-.42l-.15-.05-.68-.25a5,5,0,0,0-.77-.26c-.29-.07-.58-.17-.87-.26s-.49-.14-.73-.19c-.61-.15-1.18-.31-1.73-.48a10.57,10.57,0,0,1-1.81-.79l-.47-.23a6.91,6.91,0,0,1-1.65-1,6.7,6.7,0,0,1-1.68-2.16,5.92,5.92,0,0,1-.42-2.88,5.41,5.41,0,0,1,.23-1.12c-.21.09-.4.19-.61.27a2,2,0,0,0-.36.18,8.07,8.07,0,0,1-.89.43,5,5,0,0,1-1.15.26l-.27,0a6.83,6.83,0,0,1-.9.27l-.3.07s0,0-.08.06a4.09,4.09,0,0,1-1.24.77l-1.3.48a3.87,3.87,0,0,1-1.46.2h-.08a1.4,1.4,0,0,0-.17.09,6.13,6.13,0,0,1-1,.48,7.35,7.35,0,0,1-1,.24c-.09,0-.2,0-.3.06l-.12.09a4.29,4.29,0,0,1-1.18.66q-.27.09-.54.21l-.77.29a5.05,5.05,0,0,1-1.2.22l-.25,0a2.09,2.09,0,0,1-2-.35,2.27,2.27,0,0,1-.7-1,2.17,2.17,0,0,1,1.38-2.73,4.45,4.45,0,0,1,1.2-.23l.25,0,.51-.21.65-.25.13-.09a4.3,4.3,0,0,1,1.16-.65,6.42,6.42,0,0,1,1-.25,2,2,0,0,0,.37-.08,1.64,1.64,0,0,0,.29-.16,6.69,6.69,0,0,1,1-.46,4.06,4.06,0,0,1,1.46-.2H178l1-.37.1-.08a3.89,3.89,0,0,1,1.22-.76,7.4,7.4,0,0,1,.92-.26,2.75,2.75,0,0,0,.41-.11,5.21,5.21,0,0,1,1.15-.26,1.19,1.19,0,0,0,.26-.05,2.09,2.09,0,0,0,.33-.17c.29-.15.57-.3.87-.42a5.11,5.11,0,0,0,.47-.21,7.07,7.07,0,0,1,.79-.36,4.15,4.15,0,0,1,1.25-.26l.17,0a1.61,1.61,0,0,0,.26-.15,5.83,5.83,0,0,1,.91-.47,6.68,6.68,0,0,1,1-.29,2.11,2.11,0,0,0,.36-.09l.7-.27.5-.19.11-.1a4.09,4.09,0,0,1,2.36-1h.14l.11-.09a4.35,4.35,0,0,1,1.05-.66,4.07,4.07,0,0,1,1.26-.32l.17,0,.48-.23.7-.34c.25-.11.51-.2.77-.3l.5-.19,1.06-.48,0,0a3.63,3.63,0,0,1,1.24-1,4.13,4.13,0,0,1,1.39-.35h.11l.66-.27a3.32,3.32,0,0,0,.47-.2,1.65,1.65,0,0,0,.31-.2,6.7,6.7,0,0,1,.85-.53l.61-.29.62-.31a3.15,3.15,0,0,0,.27-.19,5.71,5.71,0,0,1,.87-.57l.74-.4.46-.24c.22-.13.44-.23.67-.34l.55-.28a5.09,5.09,0,0,1,1.14-.42,1.8,1.8,0,0,0,.22-.06l.44-.25.69-.38c.15-.08.29-.19.44-.28l.57-.39.06-.08a4.1,4.1,0,0,1,1.06-1,6.47,6.47,0,0,1,.78-.41,3,3,0,0,0,.43-.23c.4-.23.78-.47,1.16-.71a5.14,5.14,0,0,1,.82-.37s.09-.08.16-.12l.26-.21a4.94,4.94,0,0,1,.84-.63l.18-.1,0,0a3.2,3.2,0,0,1,.63-.33l.38-.2a7.16,7.16,0,0,1,.78-.42l.18-.09.42-.27.64-.41.52-.33a1.47,1.47,0,0,0,.15-.17,4.78,4.78,0,0,1,.85-.78l.4-.32a6.66,6.66,0,0,1,.66-.53,5.38,5.38,0,0,1,.95-.54,1.26,1.26,0,0,0,.26-.13l.51-.36c.2-.13.39-.29.6-.43a2.44,2.44,0,0,0,.22-.23,6.94,6.94,0,0,1,.77-.71l.39-.33c.22-.2.44-.38.67-.56a5.19,5.19,0,0,1,1-.56l.26-.13c.06-.06.12-.15.2-.22a6.15,6.15,0,0,1,.77-.73c.15-.12.28-.24.43-.35a8.27,8.27,0,0,1,.63-.55l.57-.42.53-.39a3.84,3.84,0,0,1,1.47-.66h0l.27-.24.49-.43.07-.1a3.84,3.84,0,0,1,.9-1.08,5.18,5.18,0,0,1,1-.6,1.16,1.16,0,0,0,.22-.13l.52-.4.53-.42a1.92,1.92,0,0,0,.16-.21,6.44,6.44,0,0,1,.75-.81,5.28,5.28,0,0,1,1-.62l.22-.12s0-.07.08-.14a5.12,5.12,0,0,1,.77-.88,5.71,5.71,0,0,1,1-.64,1.16,1.16,0,0,0,.22-.13,6.9,6.9,0,0,1,.71-.53c.12-.09.24-.16.34-.25l.09-.14a4.76,4.76,0,0,1,.77-.94,5.46,5.46,0,0,1,.87-.63l.25-.16.16-.23a5.55,5.55,0,0,1,.69-.82,5.36,5.36,0,0,1,1-.71l.15-.08.48-.48.42-.42c.15-.14.26-.28.39-.42a7.29,7.29,0,0,1,.53-.58c.22-.21.44-.41.68-.6l.33-.28c.32-.35.63-.67.93-1,.14-.15.27-.31.4-.47l0-.05c-1.7-1.88-1.34-6.3-.58-8.34,0-.08.07-.16.1-.25l-.63-.34-.34-.18a20.14,20.14,0,0,1-1.93-1.09l-.46-.29c-.5-.33-1.08-.68-1.67-1.13s-1.1-.85-1.71-1.35l-.26-.23-.49-.37-.53-.41a8,8,0,0,1-.89-.8,20.81,20.81,0,0,1-1.59-1.85,6.39,6.39,0,0,1-.85-1.59,5.2,5.2,0,0,0-.25-.58,19.17,19.17,0,0,1-1.17-2.09,5.24,5.24,0,0,0-.35-.54,6.13,6.13,0,0,1-.89-1.58,19.4,19.4,0,0,1-.68-2.4,10.26,10.26,0,0,1-.19-2c0-.2,0-.39,0-.58l0-.48a9.82,9.82,0,0,1,0-2.17,7.77,7.77,0,0,1,.74-2.2c.06-.13.12-.27.19-.4a9.69,9.69,0,0,1,1-1.9l-.38-.51a15.38,15.38,0,0,1-.88-1.36c-.11-.21-.24-.43-.37-.63l-.37-.57a16.25,16.25,0,0,1-.89-1.43,11.86,11.86,0,0,1-.63-1.5c-.08-.23-.15-.46-.25-.69s-.22-.41-.32-.61a7.84,7.84,0,0,1-.72-1.53,6.21,6.21,0,0,1-.26-1.73,4.5,4.5,0,0,0-.06-.64,5.81,5.81,0,0,0-.21-.63,7.42,7.42,0,0,1-.46-1.63,9.12,9.12,0,0,1,0-1.63,6,6,0,0,0,0-.73,3.23,3.23,0,0,0-.13-.59,7,7,0,0,1-.25-1.75c0-.82.06-1.61.12-2.34a10.52,10.52,0,0,1,.27-1.53c0-.25.1-.51.14-.77a17.42,17.42,0,0,1,.51-2.4l.08-.26a16,16,0,0,1,.71-2,22.65,22.65,0,0,1,1.12-2.13,19,19,0,0,1,1.34-2,14.69,14.69,0,0,1,1.3-1.45l.65-.66a14.77,14.77,0,0,1,1.44-1.36,6.8,6.8,0,0,1,1.68-.9,3.54,3.54,0,0,0,.53-.23l.48-.29a8.15,8.15,0,0,1,1.75-.88l.37-.14a9.39,9.39,0,0,1,2.14-.56,6.16,6.16,0,0,1,2.1.18,4.86,4.86,0,0,0,.55.11,11.25,11.25,0,0,1,2.58.71c.2.07.39.12.59.17a6.8,6.8,0,0,1,1.92.76,16.38,16.38,0,0,1,2.1,1.57,10.75,10.75,0,0,1,1.34,1.54c.11.14.22.29.33.42s.3.35.45.52a8,8,0,0,1,1.16,1.52h0l.28-.26a4.8,4.8,0,0,0,.38-.36c.13-.18.25-.37.37-.55a11,11,0,0,1,1.06-1.44,14.74,14.74,0,0,1,1.51-1.35l.36-.29c.18-.15.36-.31.52-.47a9.19,9.19,0,0,1,1.3-1.08,21.71,21.71,0,0,1,2.08-1.23,7.26,7.26,0,0,1,1.72-.56,3.77,3.77,0,0,0,.6-.16,19.07,19.07,0,0,1,2.33-.69,4,4,0,0,0,.54-.19,5.84,5.84,0,0,1,1.86-.49,14.55,14.55,0,0,1,5,.45l.31.07a14.12,14.12,0,0,1,2.1.6,13.9,13.9,0,0,1,1.77.9l.43.25a10.74,10.74,0,0,1,1.47,1c.17.13.34.26.5.4a7.52,7.52,0,0,1,1.36,1.34,6.2,6.2,0,0,0,.42.46,2.94,2.94,0,0,0,.5.37,6.09,6.09,0,0,1,1.5,1.32,9.81,9.81,0,0,1,1,1.89c.08.16.14.32.22.48a13.12,13.12,0,0,1,.87,2.51l.19.61a7.23,7.23,0,0,1,.46,2,5,5,0,0,1-.39,2.1,4.25,4.25,0,0,0-.14.46c0,.21,0,.44,0,.66a8,8,0,0,1-.12,1.82,20.37,20.37,0,0,1-.63,2.35,4.25,4.25,0,0,0-.12.68,8,8,0,0,1-.4,1.68,6.55,6.55,0,0,1-.94,1.55,3.45,3.45,0,0,0-.34.47c-.12.26-.22.52-.33.78a14.31,14.31,0,0,1-.57,1.36,4,4,0,0,0-.26.71c0,.08-.07.16-.1.25a5.08,5.08,0,0,0,.51-.28l.22-.16c.54-.38,1.07-.78,1.62-1.13.16-.12.36-.29.57-.47a8,8,0,0,1,1.22-1,6.67,6.67,0,0,1,1.62-.64l.55-.17c.21-.13.42-.27.61-.41a9.26,9.26,0,0,1,1.35-.82c.72-.33,1.42-.64,2.14-.91s1.56-.55,2.26-.74a6.18,6.18,0,0,1,1.88-.17h.55a6.45,6.45,0,0,0,.63-.16,7.33,7.33,0,0,1,1.8-.3,13.53,13.53,0,0,1,2.55.24,7.82,7.82,0,0,1,1.9.65l.55.24a4.8,4.8,0,0,0,.56.13,6.5,6.5,0,0,1,1.9.67,18.64,18.64,0,0,1,2.09,1.46,5.56,5.56,0,0,1,1.24,1.55c.1.17.23.39.29.47l.47.39a6.84,6.84,0,0,1,1.34,1.35,7.35,7.35,0,0,1,.82,1.68c.08.21.16.41.25.6s.2.28.31.43a5.25,5.25,0,0,1,1,1.79,15,15,0,0,1,.47,2.06l.06.37a7.22,7.22,0,0,1,.05,1.89,4.5,4.5,0,0,0,0,.63,5.28,5.28,0,0,0,.09.68,7.14,7.14,0,0,1,.1,1.85,9.5,9.5,0,0,1-.4,1.89c-.06.2-.12.39-.16.59l-.12.45a11.41,11.41,0,0,1-.59,2c-.07.16-.13.34-.21.51a9.89,9.89,0,0,1-.82,1.82,6.47,6.47,0,0,1-1.24,1.43,5.15,5.15,0,0,0-.46.44,18.13,18.13,0,0,1-1.67,1.83,11.62,11.62,0,0,1-1.39,1.11l-.53.39a23.72,23.72,0,0,1-2,1.36,1.56,1.56,0,0,1-.19.14h.16a2.72,2.72,0,0,0,.53-.08,6.06,6.06,0,0,1,1.74-.15,19.66,19.66,0,0,1,2.33.37,5.36,5.36,0,0,1,1.76.77c.18.1.36.21.46.25s.26,0,.4.06a4.8,4.8,0,0,1,2.07.68,5.16,5.16,0,0,1,1.41,1.53,5.15,5.15,0,0,0,.31.42l.23.25a10.71,10.71,0,0,1,1.47,1.77,10.37,10.37,0,0,1,1,2.53,9.87,9.87,0,0,1,.5,2.72,8.77,8.77,0,0,1-.36,2.26l-.15.6a11.12,11.12,0,0,1-.75,2.3,15,15,0,0,1-1.25,2.23q-.17.23-.33.48a11.38,11.38,0,0,1-1.14,1.53c-.16.17-.31.34-.46.52a14.65,14.65,0,0,1-1.17,1.23,8.83,8.83,0,0,1-1.35,1,6.25,6.25,0,0,0-.6.4,10.72,10.72,0,0,1-1.37.88,6.67,6.67,0,0,0-.64.37,3.53,3.53,0,0,0-.48.41,6.25,6.25,0,0,1-1.38,1.08,7.27,7.27,0,0,1-1.59.6c-.26.08-.5.14-.66.21s-.41.23-.63.36a9.55,9.55,0,0,1-1.47.74,10.45,10.45,0,0,1-1.59.39l-.73.15a6.93,6.93,0,0,0-.67.25,7.93,7.93,0,0,1-1.58.51,11.32,11.32,0,0,1-1.64.16l-.74.05c-.24,0-.47.06-.71.09a11.78,11.78,0,0,1-1.66.17,8.9,8.9,0,0,1-1.66-.16,4.57,4.57,0,0,0-.73-.1,11.69,11.69,0,0,1-1.62-.26c-.24,0-.48-.11-.72-.14a5.4,5.4,0,0,0-.6,0,6.55,6.55,0,0,1-1.81-.12l-.3-.08c-.66-.16-1.32-.32-2-.56a4.94,4.94,0,0,1-1.1-.57,2.21,2.21,0,0,1-1,.53,8.89,8.89,0,0,1-1.51.19c-.24,0-.47,0-.71.07a5,5,0,0,0-.64.16,8.33,8.33,0,0,1-1.53.33c-.71.07-1.46.14-2.24.16a15.44,15.44,0,0,1-1.56-.07l-.67-.05c-.79,0-1.57-.13-2.24-.21l-.66-.06a14.36,14.36,0,0,1-1.57-.2c-.67-.14-1.4-.32-2.19-.56a7.47,7.47,0,0,1-1.47-.62c-.2-.1-.4-.2-.61-.28l-.22-.09c-.6-.24-1.22-.47-1.86-.78s-1.32-.65-2-1.05a21,21,0,0,1-2.19-1.53l-.34-.28c-.2-.14-.4-.3-.59-.45A8.05,8.05,0,0,1,264,241l-.34-.43a18.39,18.39,0,0,1-2.83,1.15,8.73,8.73,0,0,1-6-.34c-.14.17-.29.35-.45.51-.31.34-.63.67-1,1a6.57,6.57,0,0,1-.68.61,3.79,3.79,0,0,0-.38.32c-.1.12-.21.23-.32.35a6.57,6.57,0,0,1-.62.68l-.37.37c-.2.2-.4.41-.62.61a4.32,4.32,0,0,1-1,.71,1.06,1.06,0,0,0-.2.12s0,.08-.1.16a6.15,6.15,0,0,1-.74.87,5.59,5.59,0,0,1-.87.64,1,1,0,0,0-.27.18s0,.06-.07.12a4.56,4.56,0,0,1-.81,1,7.17,7.17,0,0,1-.76.57l-.36.26a5.11,5.11,0,0,1-1,.65,1.41,1.41,0,0,0-.24.13s0,.07-.07.13a5.59,5.59,0,0,1-.81.92,5,5,0,0,1-1,.63L242,253a.78.78,0,0,1-.12.17,6.4,6.4,0,0,1-.79.85c-.21.15-.42.32-.62.48l-.47.38a5.4,5.4,0,0,1-1,.6.69.69,0,0,1-.15.07.14.14,0,0,1,0,.06c-.09.13-.19.29-.32.46l.3-.07q.47-.11.93-.18l.45-.08c.31-.07.63-.12.94-.16l.47-.08c.31,0,.63-.07.95-.09a3.27,3.27,0,0,0,.45,0,3.15,3.15,0,0,0,.42-.09,7.77,7.77,0,0,1,1-.19,8.28,8.28,0,0,1,1,0h.45a4.3,4.3,0,0,0,.46-.07c.31,0,.63-.09.95-.11s.67,0,1,0l.44,0,.48,0a7.7,7.7,0,0,1,1,0,7.93,7.93,0,0,1,1,.08l.44.06H252a7.42,7.42,0,0,1,1,0l1,.14c.15,0,.3.05.45.06l1.43.21a3.15,3.15,0,0,0,.43,0,8.45,8.45,0,0,1,1,.13,7,7,0,0,1,1,.3l.38.13c.49.11.94.23,1.4.36l.44.12c.32.09.63.17.94.27l.46.14c.31.1.61.18.91.29a7.47,7.47,0,0,1,.93.44c.13.06.24.13.37.18a4.13,4.13,0,0,0,.45.17l.88.37c.28.13.56.28.84.42a4.37,4.37,0,0,0,.43.22l.42.21.87.42.21.12,1,.56.41.19.08,0c.19-.09.39-.19.59-.27a8.31,8.31,0,0,1,1.83-.44,8.22,8.22,0,0,1,1.41,0l.3,0h.36a8.17,8.17,0,0,1,1.24.08,3.88,3.88,0,0,1,1.52.66l.07,0,.23,0a6.75,6.75,0,0,1,1.12.26l.26,0a5.43,5.43,0,0,1,1.23.33c.25.11.51.24.77.37l.54.26a5.3,5.3,0,0,1,1.09.69l.09.08.12.08,1.26.55c.23.09.46.2.69.3a6,6,0,0,0,.63.29l.74.35.28.13a5.29,5.29,0,0,1,1.2,0,6.48,6.48,0,0,1,.89.19,1.55,1.55,0,0,0,.4.09.68.68,0,0,0,.21,0,5,5,0,0,1,1.21-.05,6.4,6.4,0,0,1,1,.16l.45.09h.34A5.42,5.42,0,0,1,293,265a4.86,4.86,0,0,1,1.28.44c.09,0,.18.09.27.12l.21,0,.16-.05a4.85,4.85,0,0,1,1.41,0l.27,0,.44-.09a8.24,8.24,0,0,1,1.11-.16l.42-.08a8.67,8.67,0,0,1,1.19-.14c.37,0,.75,0,1.13,0l.48,0a5.92,5.92,0,0,1,1.2.19,1.45,1.45,0,0,0,.36.08c.52.05,1.05.1,1.58.17.37,0,.74.1,1.12.18l.42.06a12.74,12.74,0,0,1,1.38.32l.35.09c.12,0,.24,0,.35.05a5.19,5.19,0,0,1,1.38.26,6.73,6.73,0,0,1,1.1.47c.15.08.31.16.48.23a1.83,1.83,0,0,0,.45.14,7.48,7.48,0,0,1,1.16.41c.33.16.66.35,1,.54l.5.29a4.25,4.25,0,0,0,.49.21,10.67,10.67,0,0,1,1.05.5,7,7,0,0,1,1,.7c.14.1.26.2.39.28Zm-1.75,48.3a3.69,3.69,0,0,0,.57-.63,11.06,11.06,0,0,0,.57-1.27c.1-.25.2-.51.31-.75s.27-.6.41-.89a7,7,0,0,0,.49-1.14,5.31,5.31,0,0,0,.13-1,10.68,10.68,0,0,1,.14-1.27c.06-.3.13-.59.19-.88a9.29,9.29,0,0,0,.25-1.33c.07-.73.13-1.51.14-2.26a9.93,9.93,0,0,0-.14-1c-.07-.41-.15-.81-.19-1.23a10.57,10.57,0,0,1,0-1.38,4.67,4.67,0,0,0,0-.91,8.84,8.84,0,0,0-.31-1c-.13-.39-.26-.77-.36-1.16-.21-.84-.39-1.53-.61-2.2-.1-.27-.18-.56-.27-.84-.16-.5-.3-1-.48-1.38a9.92,9.92,0,0,0-.6-1.16c-.16-.31-.34-.61-.49-.93l-.22-.45c-.3-.58-.56-1.12-.86-1.64-.15-.25-.3-.5-.44-.77-.26-.45-.5-.89-.75-1.27a9.63,9.63,0,0,0-.72-.85,12.41,12.41,0,0,1-.82-.95c-.29-.37-.63-.75-1-1.14-.18-.21-.38-.41-.56-.62a7.51,7.51,0,0,1-.89-1.29,4.1,4.1,0,0,0-.47-.68c-.52-.52-1.11-1.12-1.7-1.64a5.22,5.22,0,0,0-.72-.41,7.91,7.91,0,0,1-1.33-.81c-.6-.45-1.24-.93-1.9-1.37a7.74,7.74,0,0,1-1.24-1.09,3.22,3.22,0,0,0-.53-.5,8.15,8.15,0,0,0-1-.44,9.51,9.51,0,0,1-1.15-.46c-.38-.17-.73-.38-1.1-.58l-.14-.08a7.14,7.14,0,0,1,.68,1.68A5,5,0,0,1,298,283a6.13,6.13,0,0,1-3.22,2.5s.06.07.1.1c.2.18.42.36.64.53a13.08,13.08,0,0,1,1.29,1.16,9.25,9.25,0,0,1,1.05,1.47,7.06,7.06,0,0,0,.42.64,7.17,7.17,0,0,0,.51.61,13.6,13.6,0,0,1,1.08,1.41,10.18,10.18,0,0,1,.81,1.62c.1.24.19.48.31.71.39.76.72,1.52,1,2.35a4.33,4.33,0,0,0,.33.57,6,6,0,0,1,.86,1.76,9.86,9.86,0,0,1,.31,1.8c0,.26.06.52.1.78.12.71.17,1.39.22,2l0,.74c.05.76.11,1.53.09,2.38a8.88,8.88,0,0,1-.25,1.75q-.09.38-.15.78a4.62,4.62,0,0,0,.06.75,6.69,6.69,0,0,1,0,2c-.12.66-.28,1.26-.44,1.85-.07.25-.14.51-.2.76s-.13.6-.18.89a13.82,13.82,0,0,1-.42,1.75,6.07,6.07,0,0,1-1,1.85,4.29,4.29,0,0,0-.35.52,4.23,4.23,0,0,0-.14.71,6.23,6.23,0,0,1-.54,2,8,8,0,0,1-1.14,1.6l-.26.31a5.12,5.12,0,0,0,1.12,1.15,5.77,5.77,0,0,0,1.27.5l.6.2a7.57,7.57,0,0,1,1.1.47,3.44,3.44,0,0,0,.83.34,9.76,9.76,0,0,0,2.09-.18,11,11,0,0,0,2.08-.61,6.35,6.35,0,0,0,1-.6c.27-.18.55-.36.84-.53a15.56,15.56,0,0,0,1.83-1.3,22.24,22.24,0,0,0,1.7-1.55,19.16,19.16,0,0,0,1.41-1.64A10.27,10.27,0,0,1,315.78,318.87ZM267.43,306c.2-.37.42-.69.61-1a7.56,7.56,0,0,0,.51-.79,4.61,4.61,0,0,0,.24-.74,7.92,7.92,0,0,1,.63-1.63,6.55,6.55,0,0,1,1.12-1.41,5.11,5.11,0,0,0,.45-.51,5.74,5.74,0,0,0,.28-.77,7.29,7.29,0,0,1,.58-1.52q.33-.58.69-1.14a10.6,10.6,0,0,0,.55-.92c.16-.33.32-.72.48-1.13s.26-.7.42-1,.33-.71.51-1a7.72,7.72,0,0,0,.49-1,19.64,19.64,0,0,0,.66-2.13,6.69,6.69,0,0,0,.11-1.1,5.26,5.26,0,0,1-2.6-1.12,9.78,9.78,0,0,1-3.15-6.32,9.31,9.31,0,0,1,0-2,5.56,5.56,0,0,1-1.21.48,2.14,2.14,0,0,0-.27.09c-.14.07-.3.18-.46.27s-.6.38-.91.53l-.34.17-1.11.54a9.29,9.29,0,0,1-1,.37l-.49.17a1.79,1.79,0,0,0-.32.19,5.22,5.22,0,0,1-1.09.56l-1.48.52-.47.21a9.88,9.88,0,0,1-.94.41,4.75,4.75,0,0,1-1.3.22h-.2s-.09.07-.15.1a4.81,4.81,0,0,1-1.19.68,6.79,6.79,0,0,1-1.11.27,2.46,2.46,0,0,0-.36.06l-.32.2a6,6,0,0,1-.94.55,5.85,5.85,0,0,1-.91.34,3.86,3.86,0,0,0-.46.16c-.43.23-.87.46-1.28.71-.23.14-.49.27-.75.4a4.54,4.54,0,0,0-.53.3,5.18,5.18,0,0,0-.58.47c-.17.15-.35.31-.53.45l-.26.32a7.09,7.09,0,0,1-.68.76,5.87,5.87,0,0,1-1,.71,1,1,0,0,0-.25.15c-.22.26-.51.63-.8,1,0,0,0,.13-.06.22a4.61,4.61,0,0,1-1.06,1.93l-.16.2a2.11,2.11,0,0,0,0,.25,6.63,6.63,0,0,1-.14,1.05,7.66,7.66,0,0,0-.27,1.25c0,.26-.08.53-.13.79a3,3,0,0,0-.08.49l.09.22a4.72,4.72,0,0,1,.3,2c0,.12,0,.25,0,.37s.17.54.27.82l.15.42c.09.26.16.54.23.81a2.18,2.18,0,0,0,.14.48,1,1,0,0,0,.21.27,6.35,6.35,0,0,1,.57.82l.25.47a7.66,7.66,0,0,0,.41.68c.12.17.24.34.35.52s.28.43.4.58a2.86,2.86,0,0,0,.36.28c.23.19.46.37.66.56a7.27,7.27,0,0,1,.54.57,4.25,4.25,0,0,0,.37.37l.14.11.27.23c.24.19.45.36.64.49a5.76,5.76,0,0,0,.67.3l.53.22a3.9,3.9,0,0,0,.49.12l.78.19a6.3,6.3,0,0,1,1,.41,2.71,2.71,0,0,0,.3.13l.13,0a11,11,0,0,0,1.15.15,4.31,4.31,0,0,0,.77,0l.61-.05h.67a7,7,0,0,0,.73-.05c.47-.07.95-.14,1.41-.25.07,0,.25-.11.39-.17a6.63,6.63,0,0,1,.94-.4l.75-.21a3.58,3.58,0,0,0,.64-.18c.26-.1.52-.18.77-.26A4.16,4.16,0,0,0,264,308c.09-.05.19-.14.29-.21a5.67,5.67,0,0,1,.91-.65c.43-.24.86-.47,1.27-.72A6.25,6.25,0,0,1,267.43,306Zm-46.65-.45a8.76,8.76,0,0,0,.66-.82c.27-.39.52-.82.77-1.27l.06-.11a13.24,13.24,0,0,0,.72-1.41c.08-.18.17-.35.26-.54a7.22,7.22,0,0,0,.39-.9,7.48,7.48,0,0,0,.18-.82c.05-.24.09-.48.14-.72.11-.49.2-1,.27-1.54,0-.25,0-.58,0-.92s0-.41,0-.62a15.11,15.11,0,0,0-.07-1.53c0-.32,0-.64,0-1a3.33,3.33,0,0,0,0-.57,3.85,3.85,0,0,0-.26-.63c-.12-.26-.23-.53-.33-.8s-.18-.59-.25-.89a3.3,3.3,0,0,0-.19-.6,12,12,0,0,0-.76-1.35,3.8,3.8,0,0,0-.46-.53c-.19-.22-.39-.43-.57-.65a15.39,15.39,0,0,0-1.06-1.13c-.45-.44-.8-.77-1.15-1.05a8,8,0,0,1-.69-.63,1.92,1.92,0,0,0-1-.66,8,8,0,0,1-.94-.43,6.5,6.5,0,0,1-.86-.54,3.9,3.9,0,0,0-.51-.32,7.54,7.54,0,0,0-.76-.25c-.27-.07-.53-.14-.79-.23l-.36-.12-1.33-.44c-.27-.07-.53-.16-.8-.25s-.58-.2-.88-.28-.49-.07-.79-.1l-.93-.12-.75-.14a8.12,8.12,0,0,0-.93-.17,10.78,10.78,0,0,0-1.14,0H205l-.84,0a6.56,6.56,0,0,0-.85,0c-.17,0-.41.09-.68.15a8.52,8.52,0,0,1-1,.2c-.54.09-1.09.18-1.68.32s-1,.26-1.63.47c-.28.09-.57.15-.87.22s-.58.15-.79.24c-.47.18-.93.4-1.4.62l-.2.09-.13,0,0,0a2,2,0,0,1-.33.09,2.08,2.08,0,0,1-.75.72,11.09,11.09,0,0,0-1.25.88,6.87,6.87,0,0,0-1,1,5.5,5.5,0,0,0-.77,1,3.38,3.38,0,0,0-.34.95,2.26,2.26,0,0,0,0,.8,3.41,3.41,0,0,0,.66.74,4.94,4.94,0,0,0,.67.37l.48.24a7.87,7.87,0,0,0,1.15.52c.47.15,1,.28,1.5.41.32.07.64.17.95.27l.69.19c.46.12.86.28,1.22.41a5,5,0,0,0,.5.18l.14.05a11.75,11.75,0,0,1,1.71.66l.17.08a8.21,8.21,0,0,1,1.51.9,2.46,2.46,0,0,1,.25.22,5.77,5.77,0,0,1,1.46,2.16,6.31,6.31,0,0,1,.37,2.65v.36a8.66,8.66,0,0,1-.17,1.92c-.14.58-.31,1.26-.54,2-.08.25-.16.49-.25.74s-.21.7-.33,1-.25.64-.38.94a5.15,5.15,0,0,0-.26.66,5.23,5.23,0,0,0-.14,1l0,.44a9.66,9.66,0,0,0-.05,1.37l0,.34a3.8,3.8,0,0,0,.06.84,3.5,3.5,0,0,0,.44.86,2.72,2.72,0,0,0,.65.71c.17.15.33.29.49.45a2.31,2.31,0,0,0,.42.36,8.63,8.63,0,0,0,1.39.54,5.88,5.88,0,0,0,1,.2l.85.12a6.38,6.38,0,0,0,1,.12,11.91,11.91,0,0,0,1.31-.16l.19,0a15.42,15.42,0,0,0,1.51-.39c.48-.16,1-.37,1.46-.57s1-.49,1.45-.71.86-.53,1.38-.88.78-.57,1.31-1l.38-.3c.31-.24.62-.49.91-.76l.38-.34c.29-.27.58-.54.84-.82s.5-.58.74-.87Zm55.37-71.39a.89.89,0,0,0,.35-.85,2.26,2.26,0,0,1,0-.45,11.48,11.48,0,0,0-1.3,0,2.17,2.17,0,0,1-1.75-.45,2.1,2.1,0,0,1-.77-1.25,2.12,2.12,0,0,1,1.66-2.5,10.25,10.25,0,0,1,2.41-.09c.79,0,2.64.1,3.07-.22a2.4,2.4,0,0,0,.66-3.27,3,3,0,0,0-2-1.18,5.07,5.07,0,0,0-3.72.38,2.1,2.1,0,0,1-.26.13l-.16.11a2.2,2.2,0,0,1-2.32-.24,2.11,2.11,0,0,1-.57-.71,2.15,2.15,0,0,1,.94-2.89,5,5,0,0,0,2.26-3.14,2.35,2.35,0,0,0-.33-2,1.86,1.86,0,0,0-1.35-.88c-1-.08-2.52.73-4.1,2.17a2.15,2.15,0,0,1-3.17-2.87,5,5,0,0,0-.25-3.94,2,2,0,0,0-1.95-.75,1.33,1.33,0,0,0-1,.47,6.72,6.72,0,0,0-1.07,4.4,2.15,2.15,0,0,1-4.29.25s0-.08,0-.11l-.06-.19a1.06,1.06,0,0,0-.57-.78,2.26,2.26,0,0,0-1.81,0,1,1,0,0,0-.58.63,3.71,3.71,0,0,0,.15,2.71c.24.51.5,1,.77,1.49a14.76,14.76,0,0,1,2,5.56,13.58,13.58,0,0,1-1.36,6.8c-.15.38-.3.76-.45,1.16a8.58,8.58,0,0,0-.33,3.31,2.15,2.15,0,0,1,3.38,2.65l-.18.23a5.32,5.32,0,0,0,1.57-.19,17.6,17.6,0,0,0,2.89-1.26l.85-.43a2.15,2.15,0,0,1,1.33-.6,13.25,13.25,0,0,1,2.18-.71,14.12,14.12,0,0,1,6.53.27A4,4,0,0,0,276.15,234.15Z" style="fill: #1d1d1b"/>
  </g>
</svg>
