<svg xmlns="http://www.w3.org/2000/svg" viewBox="0 0 500 500">
  <title>fruit</title>
  <g>
    <path d="M291.56,262a1.14,1.14,0,0,1-.17-.41c0-.2,0-.41,0-.69a5,5,0,0,0,0-.52,2,2,0,0,1,0-.56,1.11,1.11,0,0,0,0-.17v-.1a1.53,1.53,0,0,0,0-.37,2.57,2.57,0,0,1,0-.56v-.07a2,2,0,0,0,0-.24,1.51,1.51,0,0,0,0-.3l-.06-.39a6.86,6.86,0,0,0-.12-.68,4,4,0,0,0-.17-.61l-.06-.15,0-.1a2.07,2.07,0,0,0-.45-.82,1.33,1.33,0,0,1-.31-.49,1.08,1.08,0,0,1-.06-.39,2.11,2.11,0,0,0-.62-1.53,2,2,0,0,0-1.84-.82c-.19,0-.37.05-.54.09l-.34,0c-.22,0-.42,0-.59,0h-.86c-.29,0-.63,0-.79,0a2.67,2.67,0,0,0-1.72.34,2.13,2.13,0,0,1,.47-.24,3.28,3.28,0,0,1-.69.1h-.08a2.42,2.42,0,0,1-.76-.21l-.18-.07a2,2,0,0,0-.59-.14l-.48,0a5.9,5.9,0,0,1-.66-.05,2.16,2.16,0,0,0-.84,0,2.24,2.24,0,0,1-.73,0,3.39,3.39,0,0,1-.72-.31,3.06,3.06,0,0,0-1.25-.42h0a3.56,3.56,0,0,1-.73-.19,1.84,1.84,0,0,1-.62-.54l-.14-.16a2.19,2.19,0,0,0-.55-.41l-.1-.05a9.84,9.84,0,0,1-.9-.5l-.48-.29a6.3,6.3,0,0,1-.72-.45,4.59,4.59,0,0,0-.51-.35,6.41,6.41,0,0,1-.63-.46,2.72,2.72,0,0,1-.33-.38A2.11,2.11,0,0,0,268,247h0a4.16,4.16,0,0,0-.42.23l-.17.13a8.64,8.64,0,0,1-.72.51l-.33.23-.53.4a4.71,4.71,0,0,1-.66.48c-.31.19-.63.36-1,.54l-.19.1a4.6,4.6,0,0,0-.64.37,6.47,6.47,0,0,1-.69.38,4.51,4.51,0,0,1-.68.21l-.08,0-.46.12a1.82,1.82,0,0,0-.55.29.88.88,0,0,0-.15.12,2.54,2.54,0,0,1-.72.41l-.42.14c-.31.11-.63.21-.93.29a2.16,2.16,0,0,1-.8,0h-.1a2,2,0,0,0-.9.09l-.28.09a4.11,4.11,0,0,1-.75.21c-.29.05-.57.07-.83.1s-.38,0-.66.06a4.2,4.2,0,0,0-.59.14,6.08,6.08,0,0,1-.74.16l-.68.06-.76.06h-.11a3.11,3.11,0,0,1-.61-.07l-.44-.08-.3,0h-.51l-.56,0h-.21a2.69,2.69,0,0,0-.4,0,1.72,1.72,0,0,0-.39.1,2.85,2.85,0,0,1-.73.1h-.16c-.43,0-.85-.06-1.3-.12s-.61-.08-1-.15l-.39-.06-.48-.07-.15,0c-.29,0-.57-.07-.81-.12s-.58-.16-.9-.26l-.49-.15a5,5,0,0,1-.76-.3l-.13-.05-.46-.19a3.46,3.46,0,0,1-.74-.39l-.09-.06-.13-.07a2,2,0,0,0-.52-.22,3.17,3.17,0,0,0-.51-.07,2.55,2.55,0,0,1-.73-.14,5.24,5.24,0,0,1-.59-.32l-.17-.11a3.76,3.76,0,0,0-.56-.29l-.21-.1a2,2,0,0,0-2.11.3,3.35,3.35,0,0,0-.78-.23,2.27,2.27,0,0,0-.21-.88,2,2,0,0,0-1.52-1.11c-.13,0-.29,0-.42-.09l-.16,0c-.42-.14-.84-.27-1.28-.37a2,2,0,0,0-.81,0h0a3.08,3.08,0,0,1-.6,0,2.38,2.38,0,0,1-.66-.26l-.07,0a2.67,2.67,0,0,0-1.48-.25h-.58a1.55,1.55,0,0,0-.6.07l-.12,0a4.53,4.53,0,0,1-.69.11l-.93,0-.62,0a2.36,2.36,0,0,1-.67-.14h0l-.06,0h0a2.44,2.44,0,0,0-1.34,0,2.37,2.37,0,0,1-.69.15h-.11a3.73,3.73,0,0,1-.87-.14,3.46,3.46,0,0,0-.52-.11l-.44,0h-.19a3.39,3.39,0,0,1-.9-.08,4.63,4.63,0,0,1-1.2-.59l-.34-.22a3.29,3.29,0,0,1-1-.83,4.77,4.77,0,0,1-.64-1.41,4.09,4.09,0,0,1-.14-1.31l0-.6a5.45,5.45,0,0,1,.05-1.15,4.87,4.87,0,0,1,.34-.94,1.22,1.22,0,0,0,.07-.17c.06-.14.12-.28.15-.38a5.45,5.45,0,0,0,.15-.61,3.29,3.29,0,0,1,.23-.83,2.73,2.73,0,0,1,.56-.69,2.76,2.76,0,0,0,.29-.3,1.89,1.89,0,0,0,.28-.47,1.73,1.73,0,0,0,.11-.32,3.06,3.06,0,0,0,.33-.52c.1-.19.17-.38.26-.58l.3-.3-.11-.13c0-.06,0-.11.07-.17l.18.17.15-.15a2,2,0,0,0,.49-.82l0-.1a2.49,2.49,0,0,1,.36-.73l.94-1.18a6.44,6.44,0,0,1,.64-.64,4.68,4.68,0,0,0,.39-.38l.08-.09c.15-.2.3-.39.44-.6l.22-.31c0-.07.11-.14.16-.22a6.49,6.49,0,0,0,.36-.55l.2-.31a1.2,1.2,0,0,1,.15-.24l.06-.1.06-.09c.22-.34.44-.67.67-1l.37-.67.29-.56.4-.67a3.86,3.86,0,0,0,.32-.56,2.77,2.77,0,0,0,.19-.45,2,2,0,0,0-1-2.55,3.78,3.78,0,0,1-.87-.62l-.35-.28a2.06,2.06,0,0,0-1.44-.39l-.27,0h-.1a3.83,3.83,0,0,1-1,0c-.24,0-.48-.1-.73-.16l-.13,0a6.67,6.67,0,0,0-1.3-.21l-.65,0a7.56,7.56,0,0,0-1.51,0l-.48.06a12.12,12.12,0,0,0-1.72.27c-.33.08-.69.21-1.06.34l-.34.12-.55.2a14.68,14.68,0,0,0-1.41.54l-.53.22c-.53.22-1,.48-1.55.74l-.33.17a6.11,6.11,0,0,0-.88.63l-.13.11a5.58,5.58,0,0,1-.64.47c-.2.13-.42.24-.63.35l-.19.09a4.71,4.71,0,0,0-1,.55c-.21.16-.42.3-.71.48l-.16.12a9.31,9.31,0,0,0-.8.59c-.34.31-.68.67-1,1l-.18.2-.29.29c-.16.18-.33.35-.47.49a13.36,13.36,0,0,0-1,1,1.33,1.33,0,0,0-.14.19,3.65,3.65,0,0,0-.34.71,4.41,4.41,0,0,1-.49.94,5,5,0,0,1-.69.69,3.57,3.57,0,0,0-.81.77l-.78,1.17-.35.57a4.56,4.56,0,0,0-.45,1l0,.12a6.26,6.26,0,0,1-.34.79c-.33.61-.63,1.21-.9,1.81-.13.28-.27.56-.42.82a8.07,8.07,0,0,0-.54,1.06c-.11.29-.2.59-.29.89l-.08.28c-.07.26-.15.52-.25.82a7.14,7.14,0,0,1-.32.78.54.54,0,0,0,0,.11l0,.09a8.68,8.68,0,0,0-.34.83,2.16,2.16,0,0,0-.1.61s0,.33,0,.5a4.26,4.26,0,0,1,0,1.06c-.13.54-.23,1.08-.33,1.63l-.08.4a3.34,3.34,0,0,1-.46,1.07,2.58,2.58,0,0,0-.19.37,2,2,0,0,0-.16,1.09c0,.11.07.37.1.5a3.71,3.71,0,0,1,.1,1.06,5.55,5.55,0,0,1-.15.86v.06a5.22,5.22,0,0,0-.18,1.06,9.56,9.56,0,0,0,.05,1l0,.24c0,.28.06.57.08.81,0,.57.06,1.32.15,2.07a7.08,7.08,0,0,1,0,.92,5,5,0,0,0,.09,1.13,5.94,5.94,0,0,0,.34.95l.12.27a6.54,6.54,0,0,1,.32.79,9.53,9.53,0,0,1,.23.95l0,.12a6.56,6.56,0,0,0,.29,1.06,8,8,0,0,0,.54,1,8,8,0,0,1,.48.83c.12.25.23.5.36.82l.07.15a8.73,8.73,0,0,0,.5,1,7,7,0,0,0,.6.77l.12.14c.2.21.41.46.58.68l.48.72a8.07,8.07,0,0,0,.74,1,9.23,9.23,0,0,1,.56.8,4.88,4.88,0,0,0,.71,1,6.15,6.15,0,0,0,.77.6l.22.14a9.06,9.06,0,0,1,.76.55,11,11,0,0,0,1.12.79l.61.41a5.06,5.06,0,0,1,.73.66,3.77,3.77,0,0,0,.82.74l.16.09a3.91,3.91,0,0,0,.93.29l.13,0a5,5,0,0,1,.92.3l.2.1.28.12a7.86,7.86,0,0,0,1.27.55,13.48,13.48,0,0,0,1.8.42l.89.17a8.5,8.5,0,0,0,1.07.14,4.83,4.83,0,0,0,1.08-.11l.15,0c.25-.05.51-.09.76-.12a12.36,12.36,0,0,0,1.87-.31l.16,0,.32-.09a2,2,0,0,0,.29-.08,1.14,1.14,0,0,0,.25-.06,7.12,7.12,0,0,0,.92-.31.21.21,0,0,1,.19.13.17.17,0,0,1,0,.15,2,2,0,0,0,.61,2.45,16.79,16.79,0,0,0,8.73,2.66h.07a15.39,15.39,0,0,0,8.06-2.15l1,.08a2.86,2.86,0,0,0,1.62-.2h0c.13.2.28.4.42.59l.29.4.26.39a8.78,8.78,0,0,0,.55.78,11.53,11.53,0,0,0,.87,1l.1.12c.32.34.67.67,1.05,1s.71.63,1.05.9a4,4,0,0,0,.63.42l.12.07a6.23,6.23,0,0,1,.56.35,8.29,8.29,0,0,0,.75.44l.35.2.52.31.84.47a4.45,4.45,0,0,1,.55.33l.09.06.09.06a3.69,3.69,0,0,0,.57.3c.39.17.79.32,1.19.47l.17.06c.27.09.54.15.84.23l.51.12c.2.06.39.12.62.21l.1,0a5.46,5.46,0,0,0,.68.21c.39.08.78.13,1.21.18l.28,0,.3.05.16,0a5.65,5.65,0,0,0,.92.12H252a2.47,2.47,0,0,0,.72-.12,3.22,3.22,0,0,1,.72-.11,2.87,2.87,0,0,1,.51,0,4.94,4.94,0,0,0,.87,0l.51-.06a4,4,0,0,0,1-.14,7.6,7.6,0,0,0,.85-.31l.61-.25a11.11,11.11,0,0,0,1.16-.53,2.07,2.07,0,0,0,.64-.57,3.81,3.81,0,0,1,.46-.44,4.06,4.06,0,0,1,.57-.35,2.74,2.74,0,0,0,.55-.38,1.84,1.84,0,0,0,.53-.74l.17-.28a3,3,0,0,0,.17-.37,10.89,10.89,0,0,1,1.07.24h0l.43.12a2,2,0,0,0,.89,1.05l.53.29.15.08a2,2,0,0,0,.74.22,2.52,2.52,0,0,1,.45.14l.28.12.12.06a3.67,3.67,0,0,0,.61.24,3.1,3.1,0,0,1,.57.25l.28.13.28.09a3.59,3.59,0,0,1,.58.19,2,2,0,0,0,1.2.07c.33-.08.8-.07,1.17-.19a1.4,1.4,0,0,1,.51-.12h.1a1.44,1.44,0,0,1,.5.1,2.11,2.11,0,0,0,.76.17,3,3,0,0,1,.5.07h0a2,2,0,0,0,.8,0A2.49,2.49,0,0,0,275,289l.2-.05a2,2,0,0,0,.86-.42,1.22,1.22,0,0,1,.43-.25.77.77,0,0,1,.37,0,2,2,0,0,0,1.62-.4,1.83,1.83,0,0,1,.22-.13,2.09,2.09,0,0,1,.53-.14,2,2,0,0,0,1.14-.6,1.53,1.53,0,0,1,.4-.33c.21-.13.4-.26.58-.39l.29-.21.36-.22.11-.07.1-.07c.17-.11.34-.22.44-.3a2.27,2.27,0,0,1,.49-.25,2,2,0,0,0,1-.79,2.67,2.67,0,0,1,.32-.43c.29-.28.56-.54.84-.85a3.11,3.11,0,0,1,.38-.33l.08-.06.15-.13a2.34,2.34,0,0,0,.31-.32,1.45,1.45,0,0,1,.19-.17,2,2,0,0,0,.69-1.37.81.81,0,0,1,.13-.43,1.84,1.84,0,0,1,.47-.45,2.13,2.13,0,0,0,.48-.56l.16-.21.12-.16a3.76,3.76,0,0,0,.23-.36,3.21,3.21,0,0,0,.28-.67l0-.05c.05-.14.1-.28.16-.41a2.15,2.15,0,0,0,.15-.51s0-.07,0-.1a4,4,0,0,1,.14-.52,3.47,3.47,0,0,1,.22-.42,2,2,0,0,0,.3-1.29,1.25,1.25,0,0,1,0-.53,2.32,2.32,0,0,1,.36-.61,2.91,2.91,0,0,0,.17-.3l.08-.18c.07-.2.15-.37.21-.52a2.56,2.56,0,0,0,.19-.5c0-.17.1-.37.15-.53a4.58,4.58,0,0,0,.16-.56,1.77,1.77,0,0,0,0-.65v0c0-.11,0-.26,0-.44a2.23,2.23,0,0,0,0-.63,2,2,0,0,1-.05-.65,1.67,1.67,0,0,1,.17-.52,1.94,1.94,0,0,0,.25-.77l0-.26c0-.16,0-.31.05-.48a2.41,2.41,0,0,0-.1-.8,1.91,1.91,0,0,1-.13-.61,1.69,1.69,0,0,1,.15-.57,2,2,0,0,0,.17-.71c0-.11,0-.21,0-.39A2,2,0,0,0,291.56,262Z" style="fill: #f3acc8"/>
    <path d="M310.93,225.66s-.05-.18-.06-.23l-.16,0v-.1l.14,0a4,4,0,0,1-.1-.54c0-.18,0-.36,0-.62s0-.58,0-.69l0-.12-.05-.25a5.88,5.88,0,0,0-.25-1.08l-.09-.2a2.45,2.45,0,0,0-.35-.51c-.1-.14-.19-.28-.29-.45a6.88,6.88,0,0,0-.81-1,6.56,6.56,0,0,0-1-.92,10.27,10.27,0,0,0-1.17-.64,4.45,4.45,0,0,1-.53-.3,3,3,0,0,0-.4-.23,2.26,2.26,0,0,0-.33-.13,6.2,6.2,0,0,0-.72-.13l-.14,0a3.41,3.41,0,0,1-.51-.08c-.26,0-.53-.05-.81-.07l-.48,0c-.34,0-.7,0-1,0h-.39a2.41,2.41,0,0,1-.74-.17h0l-.08,0a2,2,0,0,0-1-.08l-.19,0-.13,0a3.43,3.43,0,0,1-.68.08,4.49,4.49,0,0,1-.71-.07l-.26,0a2,2,0,0,0-.73.06l-.22.07h-.06a5.51,5.51,0,0,1-1.3.18l-.6,0h-.22a3.09,3.09,0,0,1-.83-.2l-.3-.09a1.92,1.92,0,0,0-.79,0h-.07a2.6,2.6,0,0,1-.78,0,8.21,8.21,0,0,1-1-.26l-.38-.12a4,4,0,0,1-.8-.32l-.18-.08-.29-.13a11.1,11.1,0,0,1-1-.51l-.16-.09a3.19,3.19,0,0,1-.61-.45,4.09,4.09,0,0,0-.38-.33l-.19-.13-.42-.23a7,7,0,0,1-.65-.39,4.3,4.3,0,0,0-.59-.34,7.39,7.39,0,0,1-.64-.39l-.43-.32-.15-.11-.46-.33a5.74,5.74,0,0,1-.49-.4,3.92,3.92,0,0,0-.56-.46,10.45,10.45,0,0,0-.93-.51l-.25-.13a8.37,8.37,0,0,0-1.21-.55,4.66,4.66,0,0,0-.87-.23l-.57-.13c-.41-.11-.84-.19-1.25-.26l-.21,0a8,8,0,0,0-.9-.07l-.54,0c-.13,0-.26,0-.38,0H275a4.93,4.93,0,0,0-.74-.07,1.63,1.63,0,0,0-.31,0,3.5,3.5,0,0,0-.47.11l-.24.07-.54.14-.35.07c-.39.08-.74.15-1.1.26a10.32,10.32,0,0,0-1,.44l-.27.12a5.49,5.49,0,0,1-.57.2l-.13,0a3.27,3.27,0,0,0-.55.2l-.13.07c-.42.25-.79.49-1.1.71a2.16,2.16,0,0,0-.41.39,3.71,3.71,0,0,0-.23.32,2.88,2.88,0,0,1-.41.49,3.65,3.65,0,0,1-.6.4l-.12,0a2,2,0,0,0-.68.54c-.12.15-.25.33-.38.52l-.34.49a2.26,2.26,0,0,0-.16.26,4.61,4.61,0,0,0-.17.44.69.69,0,0,0-.05.13,3.89,3.89,0,0,1-.21.51,4.77,4.77,0,0,1-.4.62l-.12.17a1.65,1.65,0,0,0-.21.42.2.2,0,0,1-.05.09,2.2,2.2,0,0,0-.27.47c-.44,0-.88.07-1.31.12l-.12-.19a.75.75,0,0,0-.07-.12l-.24-.39c-.12-.21-.25-.41-.39-.61l-.15-.2-.3-.41a2.27,2.27,0,0,1-.26-.66,2,2,0,0,0-.67-1.13l-.18-.15a4.15,4.15,0,0,1-.51-.46c-.22-.23-.46-.45-.7-.67l-.67-.6c-.26-.22-.52-.45-.79-.65a5,5,0,0,0-.54-.35l-.21-.12-.48-.27a7.76,7.76,0,0,0-.77-.4l-.26-.13-.24-.12-.28-.15a10.4,10.4,0,0,0-1.06-.52l-.12,0a3.91,3.91,0,0,0-.61-.13c-.18,0-.4-.08-.67-.16-.45-.15-.88-.26-1.34-.39a1.88,1.88,0,0,1-.63-.32,2,2,0,0,0-1-.45l-.89-.12a2,2,0,0,0-.88.1l-.1,0h0a2.12,2.12,0,0,1-.72.16h-.32c-.37,0-.74,0-1.12,0h-.12a2.76,2.76,0,0,1-.53-.06l-.19,0-.26,0a2.06,2.06,0,0,0-1,.14l-.24.08a4.68,4.68,0,0,1-.61.16,3,3,0,0,1-.67,0h-.15a2.37,2.37,0,0,0-.8.07l-.42.15-.26.1a3.87,3.87,0,0,1-.55.19l-.48.15a5.5,5.5,0,0,0-.83.24,8.11,8.11,0,0,0-.74.34s-.09.05-.1.06l-.52.27a2.08,2.08,0,0,0-.59.43,3.73,3.73,0,0,1-.57.41l-.55.28-.11.06a6.47,6.47,0,0,0-.63.34,2.52,2.52,0,0,1-.66.27l-.21.08a2,2,0,0,0-.88.63,1.07,1.07,0,0,0-.14.16,4.29,4.29,0,0,1-.45.49,5.78,5.78,0,0,1-.54.41,6.89,6.89,0,0,0-.61.5,7.84,7.84,0,0,0-.69.77l-.21.23a2.09,2.09,0,0,0-.34.56l-.09.22a2.52,2.52,0,0,1-.29.57l-.32.43a6.36,6.36,0,0,0-.56.75,3,3,0,0,1-.48.53l-.09.09-.12.12a1.72,1.72,0,0,0-.34.46,4,4,0,0,0-.22.47l.23.09-.06.1-.22-.07a4,4,0,0,1-.21.51,4.12,4.12,0,0,0-.29.68l0,.11a3.3,3.3,0,0,1-.24.61,2.62,2.62,0,0,1-.41.56l-.12.13a1.9,1.9,0,0,0-.4.57c-.08.17-.15.34-.22.52a5.32,5.32,0,0,1-.28.67c-.12.25-.26.47-.39.69a6,6,0,0,0-.34.58l-.15.28c-.16.32-.32.62-.53,1s-.35.57-.54.86l-.21.32c-.09.13-.18.28-.31.49a6.45,6.45,0,0,1-.53.8l-.21.3-.07.1c-.16.23-.33.46-.48.65s-.36.36-.6.59a4.9,4.9,0,0,0-.51.51l-.76.95-.1.14a1.92,1.92,0,0,0-.29.5c0,.08-.07.18-.08.22a2.54,2.54,0,0,1-.36.74,4.06,4.06,0,0,1-.5.53l-.1.09a3.2,3.2,0,0,0-.43.5,1.36,1.36,0,0,0-.13.24,2.54,2.54,0,0,0-.17.46,3.54,3.54,0,0,1-.28.66,2.72,2.72,0,0,1-.47.56,2.93,2.93,0,0,0-.4.46,1.88,1.88,0,0,0-.22.45,2.77,2.77,0,0,0-.11.49,3.31,3.31,0,0,1-.15.62c-.07.2-.16.39-.26.61s-.21.51-.24.62a1.29,1.29,0,0,0,0,.19,5.49,5.49,0,0,0-.05,1.16l0,.54a3.66,3.66,0,0,0,.12,1.14,5.5,5.5,0,0,0,.48,1.18,2,2,0,0,0,.82.74h0l.51.31a4.58,4.58,0,0,0,1,.55,2,2,0,0,0,.84.09h.27l.4,0a5.47,5.47,0,0,1,.68.14,4.4,4.4,0,0,0,.47.1,2.22,2.22,0,0,0,.63,0l.38-.09a2.85,2.85,0,0,1,.79-.15,2.56,2.56,0,0,1,.7.14l0,0a1.93,1.93,0,0,0,.86.11l.37,0,.87,0h.15l.54-.09a2.59,2.59,0,0,1,.72-.11H226a5.54,5.54,0,0,1,.89,0,2,2,0,0,1,.75.29l.19.08.22.1a2,2,0,0,0,.64.1h.47a2.05,2.05,0,0,1,.55,0c.43.11.85.24,1.23.36l.15.05.15,0a4,4,0,0,0,.55.09,3.19,3.19,0,0,1,.77.15,1.94,1.94,0,0,1,.69.52,1.93,1.93,0,0,0,1.15.56l.1,0a4.37,4.37,0,0,1,.67.18l.53.24.47.21.3.14a4.56,4.56,0,0,1,.61.33l.4.24a2,2,0,0,0,.48.19,2.33,2.33,0,0,0,.51.07,2.63,2.63,0,0,1,.76.15,3.93,3.93,0,0,1,.52.29l.11.07a3.6,3.6,0,0,0,.37.22,1.48,1.48,0,0,0,.29.12,3.27,3.27,0,0,1,.41.17l.07,0a4.17,4.17,0,0,0,.77.29l.35.11.19.06c.24.09.48.16.72.23l.13,0,.54.08.18,0H244c.17,0,.34,0,.53.08l.46.07c.32.06.63.12.92.15l1.29.12h.16a2.34,2.34,0,0,0,.38,0l.26-.07a3.26,3.26,0,0,1,.74-.13c.31,0,.62,0,.85,0h.63a4,4,0,0,1,.58.07h.06l.45.08a2.17,2.17,0,0,0,.36,0l.84-.07.46-.06a3.22,3.22,0,0,0,.62-.11l.13,0a4.44,4.44,0,0,1,.7-.15,4.36,4.36,0,0,1,.52,0h.28l.59-.08a3.37,3.37,0,0,0,.66-.19l.65-.2a2.28,2.28,0,0,1,.69,0,2.12,2.12,0,0,0,1.06-.06l.94-.32a1.86,1.86,0,0,0,.58-.29l.16-.13a2.59,2.59,0,0,1,.59-.37,5.61,5.61,0,0,1,.67-.19l.14,0a2.54,2.54,0,0,0,.45-.13l.17-.07a4.76,4.76,0,0,0,.61-.35l.1-.06.46-.27.26-.14c.33-.16.65-.33,1-.52a4.66,4.66,0,0,0,.59-.43l.13-.1.41-.32.27-.18.09-.06a5.46,5.46,0,0,0,.75-.54,3.46,3.46,0,0,1,.59-.36,2,2,0,0,0,1-1.08H269c.34,0,.67,0,1,0a1.94,1.94,0,0,0,.45,1,2.14,2.14,0,0,1,.27.39s.08.13.12.18l.13.18a1.76,1.76,0,0,0,.37.4l.32.22.2.13.48.32a5.5,5.5,0,0,0,.5.34l.1.06.13.07c.13.07.25.14.45.27a8.72,8.72,0,0,0,.84.46l.32.16a2,2,0,0,1,.52.48,2.12,2.12,0,0,0,1.28.68h0a4,4,0,0,1,.66.16,3.1,3.1,0,0,1,.57.26,2,2,0,0,0,1.42.28,1.83,1.83,0,0,1,.71,0,4.46,4.46,0,0,0,.79.06c.19,0,.39,0,.6,0a2.52,2.52,0,0,1,.69.21l.14.05a2.06,2.06,0,0,0,.65.11,2.38,2.38,0,0,0,.58-.08,4,4,0,0,1,.65-.11h.55a8.6,8.6,0,0,0,.88,0h.88a3.54,3.54,0,0,0,.47,0l.59-.07.79-.11.16,0a2.15,2.15,0,0,0,1-.35s.06,0,.16,0a2,2,0,0,0,1.16,0L291,251a4.79,4.79,0,0,0,.54-.23l.11-.07a4.42,4.42,0,0,1,.56-.25l.22-.08c.36-.12.71-.24,1.12-.41.17-.07.36-.12.55-.18l.14,0a3.66,3.66,0,0,0,.44-.13,1,1,0,0,0,.21-.09c.24-.12.49-.27.74-.42l.44-.27a14.43,14.43,0,0,0,1.26-.75,5.48,5.48,0,0,0,.49-.39l.12-.1a4.62,4.62,0,0,1,.46-.41,10.46,10.46,0,0,0,.84-.65l.24-.2c.19-.15.38-.32.56-.49l.08-.08.42-.38a4.55,4.55,0,0,1,.56-.41l.11-.08a2.92,2.92,0,0,0,.44-.32,2.71,2.71,0,0,0,.35-.41,2.94,2.94,0,0,0,.17-.26,4.48,4.48,0,0,1,.41-.53l.24-.23.12-.12c.21-.2.42-.42.62-.64s.27-.33.4-.5l.11-.16.35-.45a3,3,0,0,1,.51-.47,4.32,4.32,0,0,0,.39-.34,2,2,0,0,0,.31-.4c.19-.24.37-.5.55-.75a2.34,2.34,0,0,0,.25-.47,3.75,3.75,0,0,0,.09-.39v0h0a2.38,2.38,0,0,1,.25-.69,2,2,0,0,1,.55-.54l.2-.18a2,2,0,0,0,.38-.49c.09-.16.16-.33.24-.51l0-.09a4.68,4.68,0,0,1,.19-.45,2.38,2.38,0,0,0,.18-.63l-.15,0,0-.09h.13a3,3,0,0,1,.17-.71,2.05,2.05,0,0,1,.16-.26,2.2,2.2,0,0,0,.39-1,3,3,0,0,1,.32-.65,2.25,2.25,0,0,0,.28-.55,2.81,2.81,0,0,0,.17-.8,5.48,5.48,0,0,1,.11-.65l.06-.23c.1-.38.19-.74.27-1.13a4.18,4.18,0,0,1,.19-.6v0a3.45,3.45,0,0,0,.14-.34,2.44,2.44,0,0,0,.12-.55c0-.18,0-.46,0-.75s0-.29,0-.43A2,2,0,0,0,310.93,225.66Z" style="fill: #00a550"/>
    <path d="M215.88,233.9a3.12,3.12,0,0,1-3.32,2.35,6.47,6.47,0,0,1-4,1.66,3.54,3.54,0,0,1-1.82-.4,2.81,2.81,0,0,1-2.14-3c.11-3.1,3.18-5.48,6-5.93a5,5,0,0,1,4.07,1.08,2.33,2.33,0,0,1,1,1.15,2,2,0,0,1,.06.23A4.1,4.1,0,0,1,215.88,233.9Zm30.51,18.59a4.37,4.37,0,0,0-.59-.08,2.43,2.43,0,0,0-.67-.4,3.22,3.22,0,0,0-3.95,1.47,13.08,13.08,0,0,0-1.86,5.51,5.24,5.24,0,0,0,.72,3.22,6,6,0,0,0,.43,1.07c1,1.93,4.29,2.19,5.39.34a1.11,1.11,0,0,0,.23-.1,2.61,2.61,0,0,0,.24-.23c2-1.67,1.86-5.27,2.55-7.72C249.34,253.91,247.72,252.82,246.39,252.49Z" style="fill: #fff"/>
    <path d="M218.21,248.75a1.84,1.84,0,0,0-.3-.07,2.32,2.32,0,0,0-.37,0,5.2,5.2,0,0,1-1.46-.16,6.81,6.81,0,0,1-1.73-.83l-.28-.18a5.28,5.28,0,0,1-1.62-1.36,6.47,6.47,0,0,1-.93-2,5.69,5.69,0,0,1-.24-1.85l0-.49a7.75,7.75,0,0,1,.09-1.74,6.19,6.19,0,0,1,.47-1.35c.05-.13.11-.25.15-.38a2.21,2.21,0,0,0,.07-.3,5.4,5.4,0,0,1,.41-1.38,4.36,4.36,0,0,1,1-1.24l.13-.13a1.42,1.42,0,0,0,.07-.22,5.34,5.34,0,0,1,.58-1.25,5.83,5.83,0,0,1,.87-1l.19-.18.06-.17a4.39,4.39,0,0,1,.67-1.31l1-1.21a7.72,7.72,0,0,1,.79-.81,4,4,0,0,0,.3-.28c.16-.2.3-.4.45-.61l.31-.44c.14-.18.25-.37.37-.56s.21-.36.33-.53l.1-.16q.32-.47.6-.93c.17-.29.31-.57.46-.85l.17-.32c.13-.24.27-.47.41-.7a4.62,4.62,0,0,0,.28-.48,2.52,2.52,0,0,0,.12-.29,5.91,5.91,0,0,1-1.32-.9l-.26-.22-.37,0a6.33,6.33,0,0,1-1.56,0c-.32,0-.64-.13-1-.21a5.34,5.34,0,0,0-.88-.17l-.8,0a6,6,0,0,0-1.12,0l-.49.06a12.25,12.25,0,0,0-1.47.23c-.32.08-.67.21-1,.34s-.53.2-.79.28a12.38,12.38,0,0,0-1.25.49l-.53.22c-.46.19-.93.43-1.42.68l-.28.14a5,5,0,0,0-.56.42,8.09,8.09,0,0,1-.95.71c-.31.2-.64.36-1,.53a4.33,4.33,0,0,0-.67.36c-.26.2-.52.38-.79.55a8.5,8.5,0,0,0-.76.55,11.84,11.84,0,0,0-.85.87c-.16.17-.31.34-.47.5l-.54.55a10.71,10.71,0,0,0-.81.84s-.1.23-.16.38a6.22,6.22,0,0,1-.75,1.39,6.62,6.62,0,0,1-1.07,1.06,2.8,2.8,0,0,0-.38.33c-.3.43-.59.88-.89,1.34l-.2.33a3.36,3.36,0,0,0-.27.61,9.3,9.3,0,0,1-.49,1.14c-.29.54-.57,1.1-.85,1.72-.15.32-.32.64-.5,1a7.25,7.25,0,0,0-.4.77c-.12.32-.21.65-.31,1s-.17.6-.27.9a8.47,8.47,0,0,1-.46,1.11c-.12.27-.24.53-.3.72,0,0,0,.25,0,.41a5.73,5.73,0,0,1-.1,1.6c-.15.64-.26,1.28-.38,1.92a4.92,4.92,0,0,1-.66,1.65c-.05.09-.1.17-.14.26s0,.23.07.35a5.87,5.87,0,0,1,.14,1.61,8.19,8.19,0,0,1-.21,1.27,3.6,3.6,0,0,0-.12.66,9.34,9.34,0,0,0,.06,1c0,.31.06.62.08.92,0,.66.07,1.3.14,1.89a8.52,8.52,0,0,1,.06,1.19,4.17,4.17,0,0,0,0,.69,5.13,5.13,0,0,0,.28.72,9,9,0,0,1,.46,1.14c.11.36.19.74.27,1.11a6.61,6.61,0,0,0,.21.83,5.87,5.87,0,0,0,.41.72c.2.33.4.66.57,1s.27.58.39.88.29.67.43.92a6.22,6.22,0,0,0,.5.61,11,11,0,0,1,.76.91l.5.75a7.46,7.46,0,0,0,.6.86,9.8,9.8,0,0,1,.72,1,3.49,3.49,0,0,0,.43.6,5.65,5.65,0,0,0,.64.47,9.35,9.35,0,0,1,1,.69,10.53,10.53,0,0,0,1,.67l.64.43a6.88,6.88,0,0,1,1.06.95,3.65,3.65,0,0,0,.41.4,3.86,3.86,0,0,0,.53.14,7.63,7.63,0,0,1,1.37.44l.53.25a6.53,6.53,0,0,0,1,.43,12.62,12.62,0,0,0,1.64.38l.57.11a9,9,0,0,0,1.11.16,4.16,4.16,0,0,0,.72-.1c.31-.06.63-.11,1-.14a11.14,11.14,0,0,0,1.6-.27l.17,0,.36-.1.14-.05a1.09,1.09,0,0,1,.26-.05,4.53,4.53,0,0,0,.59-.21,2.21,2.21,0,0,1,2.9,1.15,2.17,2.17,0,0,1,0,1.8,14.91,14.91,0,0,0,7.53,2.26h.07a13.21,13.21,0,0,0,7.09-1.9q-.31-.66-.6-1.35a8.58,8.58,0,0,1-.33-1,2.75,2.75,0,0,0-.11-.41,2,2,0,0,0-.15-.29,5.82,5.82,0,0,1-.49-1.1,4.94,4.94,0,0,1-.18-1.3c0-.08,0-.17,0-.25a.58.58,0,0,1-.09-.15,4.74,4.74,0,0,1-.46-1.22,7.08,7.08,0,0,1-.13-1.09,2.71,2.71,0,0,0,0-.41c0-.17-.06-.33-.09-.5s-.14-.65-.18-1a5.11,5.11,0,0,1,0-1.27,2.48,2.48,0,0,0,0-.27,3.63,3.63,0,0,0-.07-.39,8.34,8.34,0,0,1-.14-1.06c0-.16,0-.33,0-.49,0-.34-.07-.67-.07-1s0-.7.07-1.05c0-.17,0-.35.05-.52s0-.25,0-.37a7.31,7.31,0,0,1,0-1.19,5.85,5.85,0,0,1,.27-1.23,1.58,1.58,0,0,0,.09-.31,2.87,2.87,0,0,0,0-.42,7.45,7.45,0,0,1,.05-1.11,6.18,6.18,0,0,1,.31-1.16,2.13,2.13,0,0,0,.11-.33c0-.11,0-.22,0-.33a6.24,6.24,0,0,1,.09-1.22c0-.17.07-.35.1-.53.06-.33.12-.67.2-1s.24-.9.36-1.32l.05-.19a8,8,0,0,1,.43-1.12c0-.14.11-.26.16-.39a5,5,0,0,1,.36-.8,5.78,5.78,0,0,1-.8-.17l-.15,0c-.37-.12-.74-.24-1.12-.33l-.17,0a6.15,6.15,0,0,1-1.14-.07,4.39,4.39,0,0,1-1.27-.48l-.09-.05h-1.15l-.21,0a6.13,6.13,0,0,1-1.06.16l-.88,0-.54,0a4.05,4.05,0,0,1-1.52-.24l0,0-.09,0a4.1,4.1,0,0,1-1.4.24A5.6,5.6,0,0,1,218.21,248.75ZM299.68,219a6.38,6.38,0,0,1-1,.13,6.11,6.11,0,0,1-1-.08l-.26,0-.12,0a4.39,4.39,0,0,1-1.38.26h0l-.44,0a8.68,8.68,0,0,1-1,0,4.51,4.51,0,0,1-1.32-.28l-.22-.07-.19,0a4.65,4.65,0,0,1-1.32,0,10.55,10.55,0,0,1-1.21-.32l-.33-.1a6.6,6.6,0,0,1-1.14-.45l-.35-.16a15.5,15.5,0,0,1-1.41-.69,5.39,5.39,0,0,1-1-.75,1.9,1.9,0,0,0-.21-.19l-.38-.21c-.29-.16-.58-.33-.86-.52a2.27,2.27,0,0,0-.34-.19,6.75,6.75,0,0,1-.85-.52l-.48-.35c-.19-.14-.38-.29-.58-.42s-.47-.37-.7-.57a1.86,1.86,0,0,0-.26-.23c-.3-.19-.63-.35-.94-.51l-.1,0a7.47,7.47,0,0,0-1-.46,3.65,3.65,0,0,0-.57-.14l-.67-.15c-.4-.11-.83-.18-1.22-.25s-.61-.05-.95-.07h-.28c-.25,0-.49,0-.73-.06a3.83,3.83,0,0,0-.49,0l-.41.11a6.69,6.69,0,0,1-.77.2l-.15,0c-.4.08-.74.14-1,.23a9,9,0,0,0-.86.36l-.26.12a6.94,6.94,0,0,1-.87.31,2.55,2.55,0,0,0-.33.11c-.37.22-.7.43-1,.62a1,1,0,0,0-.11.17,5.85,5.85,0,0,1-.76.89,5.13,5.13,0,0,1-1.05.7l-.13.06c-.13.16-.26.36-.4.56l-.24.34c0,.08-.07.19-.11.29a5.66,5.66,0,0,1-.32.79,6.16,6.16,0,0,1-.58.9l-.06.09a2.3,2.3,0,0,1-.37.67,1.92,1.92,0,0,1,.12.25c.14.35.24.72.35,1.1l.06,0,.33.15a4.78,4.78,0,0,1,1.26.85l.19.17.25.09a5,5,0,0,1,1.28.65,6.25,6.25,0,0,1,1,.92l.27.29.32.27a9.48,9.48,0,0,1,.94.9l.29.3a8.09,8.09,0,0,1,.85,1,3.2,3.2,0,0,1,.31.57,6.52,6.52,0,0,1,1-.68l.14-.07a10.3,10.3,0,0,1,1.41-.61l.29-.11a8.27,8.27,0,0,1,1.34-.38,4.29,4.29,0,0,1,1.56,0l.21,0,.29,0a6.14,6.14,0,0,1,1.26-.05,7.35,7.35,0,0,1,1.13.19l.39.08.43,0a8.06,8.06,0,0,1,1.05.13c.31.07.62.17.93.27a3.24,3.24,0,0,0,.41.13,2.45,2.45,0,0,0,.38,0,7.84,7.84,0,0,1,1,.11,5.63,5.63,0,0,1,1,.34l.23.1c.17,0,.4,0,.63,0l.4,0,.16-.05a4.92,4.92,0,0,1,1.05-.18,7.69,7.69,0,0,0,1-.14,2.2,2.2,0,1,1,.87,4.31,10.52,10.52,0,0,1-1.65.22l-.18,0a4.34,4.34,0,0,1-1.45.18h-.39a10.83,10.83,0,0,1-1.18-.1,4.75,4.75,0,0,1-1.23-.37l-.23-.1-.34,0a6.78,6.78,0,0,1-1.05-.14,7,7,0,0,1-.86-.25,3.06,3.06,0,0,0-.43-.13,3.56,3.56,0,0,0-.47,0c-.27,0-.53,0-.79-.08l-.69-.14a3.71,3.71,0,0,0-.48-.1l-.39,0a5.83,5.83,0,0,1-.73.06,5.27,5.27,0,0,1-1.07-.09l-.12,0a5.56,5.56,0,0,0-.53.18l-.38.13a7.45,7.45,0,0,0-.82.37l-.15.08c-.09.05-.17.13-.27.2a7.74,7.74,0,0,1-.62.47c-.15.1-.32.23-.5.37.17.55.29,1.06.38,1.45a2.35,2.35,0,0,0,.11.35,6,6,0,0,1,.32,1.26c0,.13.05.26.08.39a6.58,6.58,0,0,1,.19,1.28,4.54,4.54,0,0,1-.29,1.55.69.69,0,0,0-.05.13l0,.17a4.85,4.85,0,0,1,0,1.51,5.91,5.91,0,0,1-.42,1.29,2,2,0,0,0-.13.31l0,.26a4.69,4.69,0,0,1-.29,1.43c0,.13-.1.26-.14.39a8.21,8.21,0,0,1-.5,1.21,4.19,4.19,0,0,1-1.1,1.26l0,0a4.48,4.48,0,0,1,.5.7l.14.21.32.21c.21.13.41.27.61.41a4.9,4.9,0,0,0,.48.31,6.16,6.16,0,0,1,.55.33c.23.14.48.27.72.39l.35.18a3.82,3.82,0,0,1,1.1.94h.06a6.35,6.35,0,0,1,1,.24,5.42,5.42,0,0,1,.89.4l.12.07a3.91,3.91,0,0,1,1.43,0,2.63,2.63,0,0,0,.49,0q.38,0,.75.06a4.48,4.48,0,0,1,1.23.35h0l.07,0a5.31,5.31,0,0,1,1.16-.17h.64a4.42,4.42,0,0,0,.63,0c.26,0,.53,0,.8,0a3.85,3.85,0,0,0,.48,0l.36,0c.31,0,.61-.07.91-.13l.32,0,0,0a2.22,2.22,0,0,1,1.78-.3l.41-.15a1.73,1.73,0,0,0,.31-.14,5.28,5.28,0,0,1,.88-.4l.23-.08c.32-.11.64-.22,1-.35a6.06,6.06,0,0,1,.92-.3l.33-.09c.24-.12.48-.27.73-.42l.38-.23c.38-.21.76-.43,1.12-.67.12-.08.22-.18.33-.27a6.14,6.14,0,0,1,.68-.58c.25-.18.49-.37.73-.57l.3-.25c.17-.13.33-.29.49-.44l.48-.44a6.73,6.73,0,0,1,.79-.58,3.21,3.21,0,0,0,.3-.21c0-.06.1-.14.15-.23a5.66,5.66,0,0,1,.65-.84l.44-.44c.17-.16.34-.33.49-.5s.27-.34.4-.51l.41-.54a5.44,5.44,0,0,1,.84-.8,1.56,1.56,0,0,0,.2-.16l.05-.09c.2-.26.4-.53.59-.8,0,0,0-.06,0-.1a4.29,4.29,0,0,1,.5-1.33,3.92,3.92,0,0,1,1.05-1.09l0,0a3.73,3.73,0,0,0,.16-.35c.08-.21.17-.41.26-.6l0-.19a4.87,4.87,0,0,1,.31-1.17,3.28,3.28,0,0,1,.39-.67,2.13,2.13,0,0,1,.11-.5,5.83,5.83,0,0,1,.49-1A1.34,1.34,0,0,0,308,231a2.39,2.39,0,0,0,.05-.36,8.52,8.52,0,0,1,.16-.88c.11-.43.22-.83.3-1.23a5.71,5.71,0,0,1,.33-1,2.44,2.44,0,0,0,.1-.24c0-.15,0-.38,0-.61s0-.36,0-.54,0-.14-.06-.24a6,6,0,0,1-.15-.93c0-.24,0-.47,0-.7s0-.35,0-.42l-.06-.3a4.71,4.71,0,0,0-.16-.72,1.87,1.87,0,0,0-.17-.23c-.14-.19-.27-.38-.39-.58a4.62,4.62,0,0,0-.57-.71,4.52,4.52,0,0,0-.69-.63,7.55,7.55,0,0,0-.88-.47,6.36,6.36,0,0,1-.71-.4l-.27-.16-.5-.08-.61-.09a6,6,0,0,0-.62,0l-.58,0a8.24,8.24,0,0,0-.87,0h-.37a4.15,4.15,0,0,1-1.37-.29l-.06,0Zm.25-4.46a4.08,4.08,0,0,1,1.48.3l.1,0h.19c.42,0,.83,0,1.23,0l.43,0a10.64,10.64,0,0,1,1.16.12l.42.07a6.78,6.78,0,0,1,1.2.23,5,5,0,0,1,1.31.64l.23.14a9.09,9.09,0,0,1,1.55.85,9.23,9.23,0,0,1,1.37,1.22,8.31,8.31,0,0,1,1.12,1.44,1.74,1.74,0,0,0,.19.26,5.38,5.38,0,0,1,.74,1.32,7.65,7.65,0,0,1,.36,1.45l.05.26a5.57,5.57,0,0,1,.08,1.3c0,.12,0,.25,0,.38s0,.17.05.26a5.09,5.09,0,0,1,.15,1.37c0,.13,0,.27,0,.4a10.4,10.4,0,0,1-.06,1.19,5.18,5.18,0,0,1-.37,1.26,1.39,1.39,0,0,0-.1.26c-.09.46-.22,1-.34,1.44a2.92,2.92,0,0,0-.07.39,6.62,6.62,0,0,1-.22,1.12,3.76,3.76,0,0,1-.24.57,2.09,2.09,0,0,1-.12.89,3.84,3.84,0,0,1-.88,1.36s0,0,0,0a.15.15,0,0,0,0,.07,4.79,4.79,0,0,1-.4,1.36c-.07.14-.13.28-.19.43a9.27,9.27,0,0,1-.45,1,3.75,3.75,0,0,1-1.06,1.17,3.84,3.84,0,0,1-.57,1.41c-.25.37-.52.73-.79,1.09l-.1.14a5.17,5.17,0,0,1-.92.91l-.2.17a4.43,4.43,0,0,0-.28.37c-.2.26-.41.53-.63.79s-.46.49-.7.73l-.35.35a2.07,2.07,0,0,0-.17.24,6.07,6.07,0,0,1-.77,1,5.93,5.93,0,0,1-.93.7,3.06,3.06,0,0,0-.29.21l-.36.33c-.25.24-.5.47-.76.69l-.29.22c-.3.25-.6.49-.91.72a4,4,0,0,0-.31.27,7.28,7.28,0,0,1-.88.71c-.43.28-.88.54-1.33.8l-.34.2c-.33.19-.67.39-1,.56a5.71,5.71,0,0,1-1.17.41,2.33,2.33,0,0,0-.32.1c-.41.17-.83.32-1.26.47l-.21.07a3,3,0,0,0-.31.15l-.18.09a3.56,3.56,0,0,1,.13,1,3.28,3.28,0,0,1,.63,1.2c0,.11.07.22.11.33a8.54,8.54,0,0,1,.27.9c.06.28.1.57.15.87l.06.38a4.09,4.09,0,0,1,0,1.15c0,.06,0,.12,0,.19a3.55,3.55,0,0,1-.05,1.16.36.36,0,0,1,0,.11c0,.25,0,.51,0,.76a3,3,0,0,1,.55,1.6,5.24,5.24,0,0,1-.07,1,2.66,2.66,0,0,0,0,.28,3.4,3.4,0,0,1-.24,1.21,3.25,3.25,0,0,1,.17,1.26c0,.28-.05.55-.08.83l0,.41a3.65,3.65,0,0,1-.36,1.19,3.6,3.6,0,0,1,0,1.26s0,.1,0,.17a5,5,0,0,1-.08,1.08,6.84,6.84,0,0,1-.23.86c0,.11-.07.23-.1.34a4.81,4.81,0,0,1-.35,1l-.09.22a3.66,3.66,0,0,1-.49,1,3,3,0,0,1-.14,1.37,4.74,4.74,0,0,1-.5,1l-.1.17a.9.9,0,0,1,0,.15,4.39,4.39,0,0,1-.31,1c-.05.11-.09.22-.13.33a7,7,0,0,1-.34.84,5.71,5.71,0,0,1-.57.87,2.43,2.43,0,0,0-.14.2,3.18,3.18,0,0,1-.68.84,3,3,0,0,1-.52,1.49,4.7,4.7,0,0,1-.89.87l-.14.11a4.57,4.57,0,0,1-.74.68l-.17.14c-.25.28-.53.56-.82.85l-.06.09a4,4,0,0,1-.82,1,3.85,3.85,0,0,1-1.22.68l-.07,0a7.57,7.57,0,0,1-.66.44l-.59.39c-.22.16-.45.32-.68.46l-.07.07a3.92,3.92,0,0,1-1.07.82,3.78,3.78,0,0,1-1.12.35,3.2,3.2,0,0,1-1.26.83,2.84,2.84,0,0,1-1.57.06,3.14,3.14,0,0,1-1.15.44l-.21.06a6.53,6.53,0,0,1-1.11.24h-.31a4,4,0,0,1-1-.13l-.13,0h0a3.49,3.49,0,0,1-1.18-.22,4.16,4.16,0,0,1-1.15.19l-.08,0a3.73,3.73,0,0,1-1.45.13,4.18,4.18,0,0,1-1.16-.33l-.19-.07a4.19,4.19,0,0,1-1.14-.43l-.16-.08a4.7,4.7,0,0,1-.95-.38,2.36,2.36,0,0,0-.28-.12l-.2-.05a4.76,4.76,0,0,1-1.16-.39l-.14-.08a9.16,9.16,0,0,1-1.13-.65,5.17,5.17,0,0,1-1,.69c-.09.06-.18.1-.26.16s-.13.14-.2.21a5.37,5.37,0,0,1-1.14,1,13.83,13.83,0,0,1-1.45.67l-.43.18a10.57,10.57,0,0,1-1.36.5,7,7,0,0,1-1.29.2l-.42,0a6.45,6.45,0,0,1-1.28.05h-.4l-.26.06a5.06,5.06,0,0,1-1.26.18h-.15a9.57,9.57,0,0,1-1.2-.15l-.44-.07-.24,0a13.33,13.33,0,0,1-1.39-.21,6.4,6.4,0,0,1-1.11-.33L247,292l-.45-.11a10.09,10.09,0,0,1-1.11-.31c-.5-.18-1-.37-1.51-.58a6.3,6.3,0,0,1-1-.58,3.48,3.48,0,0,0-.36-.22c-.41-.21-.8-.45-1.19-.68l-.2-.12-.41-.23c-.33-.18-.66-.37-1-.58-.13-.09-.26-.16-.4-.24a8.38,8.38,0,0,1-1-.64c-.43-.34-.84-.69-1.24-1.06s-.81-.75-1.17-1.14l-.09-.1c-.35-.38-.7-.75-1-1.15s-.44-.6-.64-.91L234,283l-.12-.17a18.18,18.18,0,0,1-9.28,2.44h-.08c-2.89,0-9.08-1.26-11.71-4.71a12.92,12.92,0,0,1-1.37.2l-.57.09a7.73,7.73,0,0,1-1.48.17h-.21a10.8,10.8,0,0,1-1.74-.23l-.48-.09a17.42,17.42,0,0,1-2.19-.5,10.91,10.91,0,0,1-1.66-.7l-.42-.2a3.5,3.5,0,0,0-.55-.16,6.23,6.23,0,0,1-1.7-.6,6.56,6.56,0,0,1-1.39-1.17,4.24,4.24,0,0,0-.4-.38l-.54-.37a11.79,11.79,0,0,1-1.37-1c-.18-.14-.37-.26-.56-.39a8.78,8.78,0,0,1-1.33-1,7.36,7.36,0,0,1-1-1.35,5.71,5.71,0,0,0-.38-.54,11.79,11.79,0,0,1-.94-1.33c-.13-.19-.25-.39-.39-.58a5.49,5.49,0,0,0-.44-.52,8,8,0,0,1-1-1.31,11.17,11.17,0,0,1-.7-1.45c-.09-.22-.19-.44-.29-.66s-.23-.4-.35-.59a8.83,8.83,0,0,1-.78-1.45,10.08,10.08,0,0,1-.42-1.55c-.05-.23-.09-.47-.16-.7s-.17-.41-.26-.62a8.06,8.06,0,0,1-.57-1.55,7.88,7.88,0,0,1-.15-1.65,4.85,4.85,0,0,0,0-.66c-.1-.74-.14-1.48-.18-2.23,0-.24,0-.47-.05-.7a11.89,11.89,0,0,1-.09-1.53,7.26,7.26,0,0,1,.23-1.55A5.58,5.58,0,0,0,187,251c0-.05-.05-.25-.08-.4a5.67,5.67,0,0,1-.13-1.83,4.79,4.79,0,0,1,.69-1.81,2.91,2.91,0,0,0,.18-.35c.11-.63.24-1.33.4-2a3.54,3.54,0,0,0,0-.44,5.75,5.75,0,0,1,.14-1.77,9.51,9.51,0,0,1,.55-1.4c.1-.21.2-.41.28-.63s.15-.48.21-.73c.14-.46.27-.92.44-1.36a9.83,9.83,0,0,1,.67-1.34c.11-.21.23-.41.32-.62.32-.7.64-1.35,1-2a4.78,4.78,0,0,0,.26-.62,8,8,0,0,1,.68-1.45l.21-.31c.32-.5.64-1,1-1.47a5.64,5.64,0,0,1,1.2-1.23,3.38,3.38,0,0,0,.36-.31l.19-.42a5.38,5.38,0,0,1,.86-1.53c.36-.42.74-.8,1.07-1.13l.46-.46c.14-.15.28-.29.41-.44.36-.39.73-.78,1.15-1.17a11.44,11.44,0,0,1,1.27-.94l.56-.38a8,8,0,0,1,1.39-.81c.19-.1.39-.19.58-.31a5.58,5.58,0,0,0,.48-.37,7.26,7.26,0,0,1,1.36-.95l.27-.14c.55-.28,1.13-.57,1.77-.84l.47-.19a17.19,17.19,0,0,1,1.62-.63c.21-.06.42-.14.63-.22a15.46,15.46,0,0,1,1.49-.48,15.76,15.76,0,0,1,2-.33l.43-.05a9.77,9.77,0,0,1,1.94,0l.59,0a8,8,0,0,1,1.9.3l.59.14a3.65,3.65,0,0,0,.53,0,5.41,5.41,0,0,1,2,.14,4.85,4.85,0,0,1,1.83,1.11,2,2,0,0,0,.32.26l.14,0a7,7,0,0,1,.46-1,4.65,4.65,0,0,1,.88-1,1.45,1.45,0,0,0,.18-.17c.18-.28.42-.59.66-.9l.26-.33s0-.07,0-.14a4.55,4.55,0,0,1,.74-1.29l.24-.29c.28-.32.55-.64.84-.93a7.43,7.43,0,0,1,.92-.75l.35-.26a2.52,2.52,0,0,0,.21-.25,5.39,5.39,0,0,1,.93-.93,4.27,4.27,0,0,1,1.38-.65l.17-.06a10.17,10.17,0,0,1,1-.51l.41-.21.2-.16a4.79,4.79,0,0,1,1.12-.76l.42-.22a8.32,8.32,0,0,1,1-.49,9.85,9.85,0,0,1,1.09-.34l.45-.13c.15,0,.3-.1.45-.15a8.52,8.52,0,0,1,1.08-.36,4.5,4.5,0,0,1,1.41-.09h.26a1.81,1.81,0,0,0,.29-.09,5.77,5.77,0,0,1,1.22-.29,5,5,0,0,1,1.34.06l.29,0c.45,0,.9,0,1.35,0h.07l.09,0a4.11,4.11,0,0,1,1.72-.26c.53,0,1.08.12,1.61.22a3.83,3.83,0,0,1,1.61.75l.07,0c.46.12.91.25,1.37.4l.32.07a4.89,4.89,0,0,1,1.26.34c.41.17.8.37,1.2.58l.26.14.4.2a10.86,10.86,0,0,1,1.05.55l.39.23a7.55,7.55,0,0,1,1,.64c.41.3.8.64,1.18,1l.17.16c.38.33.76.68,1.12,1a2.2,2.2,0,0,0,.28.24,6.93,6.93,0,0,1,.93.9,3.28,3.28,0,0,1,.51.92,4.19,4.19,0,0,1,.43-.75l.18-.27a10.93,10.93,0,0,1,.86-1.11,4.12,4.12,0,0,1,1.25-.91l.16-.08.09-.14a4.67,4.67,0,0,1,1-1.13c.42-.3.88-.61,1.44-.94a5.82,5.82,0,0,1,1.26-.51,2,2,0,0,0,.35-.11l.23-.11a13.19,13.19,0,0,1,1.36-.55,12,12,0,0,1,1.53-.36l.14,0a2.12,2.12,0,0,0,.36-.1,5.69,5.69,0,0,1,2.66-.22l.42.05h.25a10.11,10.11,0,0,1,1.47.12,15,15,0,0,1,1.67.34l.41.09a6.93,6.93,0,0,1,1.23.33,12,12,0,0,1,1.48.66l.09.05c.43.22.86.44,1.26.69a6.77,6.77,0,0,1,.89.69,1.86,1.86,0,0,0,.26.23c.24.17.48.34.71.52l.42.31a2.74,2.74,0,0,0,.34.19,8.21,8.21,0,0,1,.81.48,4.92,4.92,0,0,0,.43.26c.22.12.45.24.66.38a6.79,6.79,0,0,1,.75.59,1.81,1.81,0,0,0,.21.18,9.53,9.53,0,0,0,1,.48l.53.24a5.59,5.59,0,0,0,.52.22l.39.11a6.25,6.25,0,0,0,.74.21l.19,0a6.88,6.88,0,0,1,1,0,5.18,5.18,0,0,1,1.1.27l.19.06a3.62,3.62,0,0,0,.47,0l.62,0,.13,0a4.37,4.37,0,0,1,1.32-.26,7.16,7.16,0,0,1,1,.07,2,2,0,0,0,.35,0l.31-.05A5.81,5.81,0,0,1,299.93,214.52ZM248.6,254.8a4.93,4.93,0,0,1-1.21.18H247c-.47,0-.94-.06-1.39-.12s-.73-.1-1.08-.17l-.43-.07-.48-.06c-.36,0-.71-.09-1-.16s-.7-.19-1-.3l-.44-.14a6.9,6.9,0,0,1-1.07-.41l-.39-.16a5.23,5.23,0,0,1-1.17-.6l-.15-.09h-.12a4.4,4.4,0,0,1-1.43-.31,7.5,7.5,0,0,1-.92-.5,2.53,2.53,0,0,0-.36-.2l-.27-.13a2.91,2.91,0,0,0-.27.52c-.08.22-.17.44-.27.67a4.23,4.23,0,0,0-.23.57l0,.2c-.11.36-.22.74-.31,1.13-.06.24-.1.49-.15.74s-.07.42-.12.63,0,.2,0,.3a5.77,5.77,0,0,1-.07,1.12,6.57,6.57,0,0,1-.28,1,2.35,2.35,0,0,0-.11.35,3.3,3.3,0,0,0,0,.45,7.71,7.71,0,0,1,0,1,5.06,5.06,0,0,1-.26,1.11,1.67,1.67,0,0,0-.08.3,3.37,3.37,0,0,0,0,.36,7.56,7.56,0,0,1,.05,1c0,.27,0,.53-.07.79a5.87,5.87,0,0,0,0,.59,5.35,5.35,0,0,0,0,.55c0,.25.05.51.06.76a2.14,2.14,0,0,0,.07.43,8.66,8.66,0,0,1,.12.87,5.38,5.38,0,0,1,0,1.11,2.48,2.48,0,0,0,0,.27l.11.57c0,.23.1.45.14.68s.06.57.08.86a3.57,3.57,0,0,0,0,.46.65.65,0,0,1,.09.14,5.25,5.25,0,0,1,.43,1.08,4.73,4.73,0,0,1,.14,1.13,2.28,2.28,0,0,0,0,.26l.12.2a5.72,5.72,0,0,1,.43.92c.09.26.17.53.24.8a3,3,0,0,0,.13.45c.16.4.34.79.53,1.19l.15.19a5.38,5.38,0,0,1,.6.87,5.22,5.22,0,0,1,.42,1.13,1.16,1.16,0,0,0,0,.18c.12.18.25.36.38.53l.33.46.28.42a7.33,7.33,0,0,0,.45.64,10.17,10.17,0,0,0,.76.86l.09.1c.29.31.61.61.93.91s.65.57,1,.85a3.29,3.29,0,0,0,.44.28c.23.13.46.27.68.42s.38.23.58.34l.56.31.2.13c.31.18.62.37.94.53a8.12,8.12,0,0,1,.74.45,3.16,3.16,0,0,0,.4.23c.4.18.82.33,1.23.48.21.07.42.12.63.17l.65.16.72.24a4.51,4.51,0,0,0,.52.17c.34.07.69.11,1,.15l.26,0,.61.09a5,5,0,0,0,.66.09l.21-.06a5.23,5.23,0,0,1,1-.17,7.12,7.12,0,0,1,.8,0h.44l.71-.08a2.63,2.63,0,0,0,.51-.06,7.75,7.75,0,0,0,.81-.3l.47-.2a8.4,8.4,0,0,0,.93-.42.72.72,0,0,1,.12-.15,6.27,6.27,0,0,1,.73-.69,6.39,6.39,0,0,1,.75-.48,1.89,1.89,0,0,0,.28-.17.59.59,0,0,1,.09-.19l.2-.35a2.17,2.17,0,0,1,.95-1.49,2.31,2.31,0,0,1,.35-.18,4.61,4.61,0,0,1,.29-.83,2.2,2.2,0,1,1,4,1.85c0,.1-.06.2-.09.3s-.12.42-.21.66l.48.26.15.08s0,0,.11,0a5.61,5.61,0,0,1,.8.23c.2.07.4.17.6.26a1.6,1.6,0,0,0,.3.13,4.53,4.53,0,0,1,.91.38l.13.06a6.25,6.25,0,0,1,.83.27,3.81,3.81,0,0,1,.95-.13h0a3.34,3.34,0,0,1,1.29-.23,3.79,3.79,0,0,1,1.28.25l0,0a5.62,5.62,0,0,1,.91.12h0l.18-.05.41-.11a3.09,3.09,0,0,1,1.19-.64,2.77,2.77,0,0,1,1.27,0,3.17,3.17,0,0,1,.71-.42,4.37,4.37,0,0,1,1-.26,3.72,3.72,0,0,1,.84-.68,5.52,5.52,0,0,0,.47-.32l.38-.26.4-.25c.15-.1.31-.19.46-.31a4,4,0,0,1,1-.51,4.57,4.57,0,0,1,.62-.79c.26-.25.5-.49.73-.74a4.7,4.7,0,0,1,.67-.6l.17-.14a3.33,3.33,0,0,1,.46-.46,2.88,2.88,0,0,1,.44-1.36,3.8,3.8,0,0,1,.92-.95,5.22,5.22,0,0,1,.34-.48,2.43,2.43,0,0,0,.14-.2,2,2,0,0,0,.13-.35c.08-.21.16-.43.25-.63,0,0,0-.1,0-.17a5.89,5.89,0,0,1,.25-.88,4.67,4.67,0,0,1,.39-.75,3.28,3.28,0,0,1,.1-1.35,4.07,4.07,0,0,1,.63-1.17v0c.09-.24.18-.45.25-.61a1.45,1.45,0,0,0,.09-.22c0-.19.12-.42.19-.65s.08-.24.11-.37a.5.5,0,0,1,0-.15,4.83,4.83,0,0,1,0-.74v0a3.44,3.44,0,0,1,.32-2.52l0,0,0-.3c0-.12,0-.24,0-.37a3.84,3.84,0,0,1-.23-1.33,3.74,3.74,0,0,1,.31-1.31v0c0-.17,0-.33.05-.5a3,3,0,0,1-.5-1.43c0-.23,0-.46,0-.68s0-.27,0-.4a3.89,3.89,0,0,1,.06-1.14v-.1a5.2,5.2,0,0,1,0-.9c0-.05,0-.1,0-.14l-.06-.39c0-.2-.06-.4-.1-.59a4,4,0,0,0-.13-.41,2.81,2.81,0,0,1-.1-.31,3.31,3.31,0,0,1-.73-1.2,3.11,3.11,0,0,1-.16-1.1,2.47,2.47,0,0,1-.24-.29l-.53.08-.34,0a8.8,8.8,0,0,1-1.1,0h-.42a9.73,9.73,0,0,1-1.08,0H284l-.16.05a5.14,5.14,0,0,1-1.2.17h-.18a4.39,4.39,0,0,1-1.45-.37l-.14-.06-.35,0a7.27,7.27,0,0,1-1-.08l-.11,0a4,4,0,0,1-1.64,0,5.06,5.06,0,0,1-1.19-.5,1.66,1.66,0,0,0-.27-.13,1.16,1.16,0,0,0-.28-.05,5.39,5.39,0,0,1-1.27-.34,3.71,3.71,0,0,1-1.37-1.1l0-.05-.14-.07c-.36-.19-.72-.38-1.07-.6-.11-.08-.24-.15-.36-.22a8.24,8.24,0,0,1-1-.63,2.7,2.7,0,0,0-.33-.22,8.6,8.6,0,0,1-1-.71,4.87,4.87,0,0,1-.54-.62l-.16.09-.2.1c-.24.2-.56.42-.88.64l-.34.23a4.11,4.11,0,0,0-.35.27,9.08,9.08,0,0,1-.91.66c-.36.22-.73.41-1.11.6l-.27.14a2.77,2.77,0,0,0-.37.22,7.69,7.69,0,0,1-1,.54,6.53,6.53,0,0,1-1.13.36l-.27.06-.11.09a4.54,4.54,0,0,1-1.31.73l-.41.14-1.05.33a3.82,3.82,0,0,1-1.59.06h-.1l-.27.09a6.34,6.34,0,0,1-1.06.29c-.34.06-.68.09-1,.12l-.48,0-.36.09a7.53,7.53,0,0,1-1.12.23l-.32,0c-.39,0-.79.07-1.19.09a5,5,0,0,1-1.27-.11l-.26-.05h-.45c-.32,0-.63,0-.94,0Zm-1.11-4.26a4.88,4.88,0,0,1,1.32-.19c.26,0,.51,0,.77,0h.55a5.47,5.47,0,0,1,1.12.12l.26.05,1-.08.33,0a2.33,2.33,0,0,0,.36-.08,6.75,6.75,0,0,1,1.7-.28l.56-.06a2.92,2.92,0,0,0,.42-.13c.28-.09.56-.18.85-.25a4.21,4.21,0,0,1,1.45,0l.09,0,.62-.21.34-.11.11-.09a5,5,0,0,1,1.15-.68,7.4,7.4,0,0,1,.92-.26c.11,0,.23-.05.34-.09a3.58,3.58,0,0,0,.42-.25c.23-.14.45-.28.69-.4l.29-.15c.28-.14.56-.29.83-.45a4.2,4.2,0,0,0,.44-.33l.56-.43.43-.29a4.75,4.75,0,0,0,.58-.42,4.88,4.88,0,0,1,1-.6,3.93,3.93,0,0,1,.65-1.18l.18-.21c.19-.23.39-.45.56-.7a4.41,4.41,0,0,1,.92-.95l.07-.06c.06-.14.11-.3.17-.47l.21-.56a.55.55,0,0,1,0-.19,5.71,5.71,0,0,1,.17-1.06,6.8,6.8,0,0,1,.33-.88c0-.07.07-.15.1-.23l0-.16a5.52,5.52,0,0,1-.07-1.16,5,5,0,0,1,.28-1.23.76.76,0,0,0,0-.11c0-.1,0-.22-.06-.32-.07-.28-.12-.56-.16-.83a2.35,2.35,0,0,0-.11-.35,6.5,6.5,0,0,1-.25-.86c-.11-.5-.2-.86-.31-1.2a6.06,6.06,0,0,1-.19-.7,4.38,4.38,0,0,0-.14-.5c-.2-.46-.37-.81-.54-1.12a4.84,4.84,0,0,1-.43-1.13c0-.06,0-.11,0-.16l-.31-.32c-.17-.17-.33-.34-.49-.52a3.93,3.93,0,0,0-.45-.41l-.47-.42a7.67,7.67,0,0,1-.56-.58,3.06,3.06,0,0,0-.3-.31l-.21-.07a6.37,6.37,0,0,1-.93-.42,5.13,5.13,0,0,1-.89-.66l-.17-.15-.33-.15c-.19-.08-.37-.17-.54-.23h-.05a4,4,0,0,1-1.45,0,6.09,6.09,0,0,1-1-.3l-.17-.07-.1,0a5.48,5.48,0,0,1-1.23.18,2.26,2.26,0,0,1-.58-.09,6.86,6.86,0,0,1-.93-.17l-.2-.05c-.17,0-.34,0-.5.06l-.69.09c-.27,0-.53,0-.8,0a1.33,1.33,0,0,0-.2,0,1,1,0,0,0-.25,0l-.25.1a6.36,6.36,0,0,1-.94.32l-.69.14a4.51,4.51,0,0,0-.53.1l-.12,0c-.37.11-.72.22-1.07.36a1.27,1.27,0,0,0-.29.18c-.27.16-.53.32-.8.45a5.75,5.75,0,0,1-1,.34,2,2,0,0,0-.26.08,2.93,2.93,0,0,0-.27.21,7.81,7.81,0,0,1-.75.53l-.34.19-.79.49-.65.39c-.18.1-.35.19-.51.3s-.27.22-.4.33-.45.37-.69.53-.46.31-.69.46l-.49.32c-.27.19-.55.35-.82.51l-.43.26c-.11.07-.21.16-.32.24a6.1,6.1,0,0,1-.93.67l-.31.18c-.34.19-.71.41-1.14.6a2.2,2.2,0,1,1-1.74-4,7.16,7.16,0,0,0,.66-.36l.38-.22a2.17,2.17,0,0,0,.3-.23,7.51,7.51,0,0,1,.72-.54l.6-.36c.18-.11.36-.21.54-.33s.39-.26.59-.39l.57-.38c.13-.09.25-.2.37-.3s.49-.4.75-.58.52-.33.79-.48l.46-.28c.31-.2.63-.39,1-.58l.32-.18a2.77,2.77,0,0,0,.29-.22,7,7,0,0,1,1-.65,5.14,5.14,0,0,1,1.19-.43l.28-.07c.08,0,.17-.11.27-.17a5.44,5.44,0,0,1,1.07-.57c.44-.17.89-.32,1.35-.46l.12,0a9.52,9.52,0,0,1,1.09-.24l.43-.08.26-.11a5.68,5.68,0,0,1,1.25-.38,6.86,6.86,0,0,1,1.14-.07h.42l.42-.05a7.22,7.22,0,0,1,1.14-.11,5.09,5.09,0,0,1,1.33.19,1.83,1.83,0,0,0,.25.06l.21,0,.1,0a5.65,5.65,0,0,1,.81-.15l-.17-.28-.32-.52c-.11-.2-.25-.38-.38-.57l-.35-.48a4.12,4.12,0,0,1-.57-1.38h0l-.17-.14a6.57,6.57,0,0,1-.67-.61c-.27-.28-.57-.54-.85-.8l-.18-.16c-.29-.25-.58-.52-.89-.75-.16-.12-.34-.21-.52-.32l-.58-.33a5.65,5.65,0,0,0-.6-.31c-.18-.09-.37-.17-.55-.27l-.28-.15a8.55,8.55,0,0,0-.86-.42,2.44,2.44,0,0,0-.31-.06,7.11,7.11,0,0,1-1-.23c-.41-.13-.81-.24-1.23-.35a4.15,4.15,0,0,1-1.39-.7l0,0-.83-.11-.06,0a3.81,3.81,0,0,1-1.5.28h-.25c-.35,0-.69,0-1,0a5.49,5.49,0,0,1-1.07-.08l-.29,0-.27.1a6.76,6.76,0,0,1-.95.25,4.49,4.49,0,0,1-1.18.05h-.25l-.48.18c-.22.09-.45.17-.68.24l-.65.19a4.27,4.27,0,0,0-.61.18,4.77,4.77,0,0,0-.56.27l-.62.32-.16.15a5.91,5.91,0,0,1-.9.64l-.62.32a5.36,5.36,0,0,0-.53.28,4.43,4.43,0,0,1-1.19.52l-.11,0-.14.16a5.89,5.89,0,0,1-.71.76c-.2.17-.42.34-.65.5a4.22,4.22,0,0,0-.38.3c-.21.21-.41.44-.6.67l-.2.23-.06.16a5,5,0,0,1-.6,1.12l-.32.42a5.72,5.72,0,0,0-.46.61,5.12,5.12,0,0,1-.83.94l-.12.12a3.68,3.68,0,0,0-.15.35,7.54,7.54,0,0,1-.36.82,2,2,0,0,0-.13.34,5.63,5.63,0,0,1-.36.93,4.65,4.65,0,0,1-.8,1.09L226,224c-.06.13-.11.26-.16.39a8,8,0,0,1-.36.85c-.15.3-.31.57-.48.85s-.19.29-.27.44l-.15.29c-.18.35-.36.69-.57,1s-.47.75-.72,1.13l-.1.16-.24.38a10.33,10.33,0,0,1-.6.92l-.25.35c-.21.29-.43.6-.67.89a9.24,9.24,0,0,1-.7.7,4,4,0,0,0-.36.35c-.27.33-.55.69-.84,1.06l-.06.17a4.71,4.71,0,0,1-.62,1.23,5.31,5.31,0,0,1-.77.83,2.39,2.39,0,0,0-.22.23s0,.11-.06.21a5.8,5.8,0,0,1-.46,1.05,4.69,4.69,0,0,1-.84,1,.6.6,0,0,0-.08.08,1.3,1.3,0,0,0,0,.21,5.82,5.82,0,0,1-.24,1c-.09.24-.19.47-.29.69s-.14.33-.16.4a4.07,4.07,0,0,0,0,.72l0,.61a2.71,2.71,0,0,0,0,.55,4.44,4.44,0,0,0,.27.72l.37.22.34.21a3.78,3.78,0,0,0,.58.33,1,1,0,0,1,.27,0,5.81,5.81,0,0,1,.83,0,7.51,7.51,0,0,1,.92.18l.25.06.15,0a4.94,4.94,0,0,1,1.25-.24,4,4,0,0,1,1.47.24l.12,0,.36,0,1,0,.28-.05a4.75,4.75,0,0,1,1.32-.16h.47a7.64,7.64,0,0,1,1.15,0,3.93,3.93,0,0,1,1.51.52l.09,0h.16a4.93,4.93,0,0,1,1.36.11c.46.12.91.26,1.36.4l.15.05.28,0a5.58,5.58,0,0,1,1.25.26,3.84,3.84,0,0,1,1.4,1h0l.12,0A5.66,5.66,0,0,1,236,247l.77.35.56.25a7.17,7.17,0,0,1,.9.49l.27.16h.12a4.51,4.51,0,0,1,1.41.3,5.6,5.6,0,0,1,.9.49c.08.05.16.11.24.15a7.62,7.62,0,0,1,.71.29,2.58,2.58,0,0,0,.46.18l.68.21a5.22,5.22,0,0,0,.56.18l.63.09c.23,0,.45.05.68.09l.49.08c.27,0,.54.1.81.13s.8.08,1.2.11h0Z" style="fill: #1d1d1b"/>
  </g>
</svg>
