<svg xmlns="http://www.w3.org/2000/svg" viewBox="0 0 500 500">
  <title>ghost</title>
  <g>
    <path d="M342,274.64l0-.25,0-.32,0-.22a4.5,4.5,0,0,0-.1-.44l-.59-2,.06,0-.12-.19-.35-1.16-.24.25-.4-.63c-.16-.25-.32-.52-.44-.72a7.84,7.84,0,0,0-.88-1.38,9.81,9.81,0,0,0-.88-.82,10.93,10.93,0,0,1-1-.95,6.77,6.77,0,0,1-.67-1.12l-.09-.16a4.28,4.28,0,0,0-.52-.84A6.17,6.17,0,0,0,335,263a7.55,7.55,0,0,1-.89-.9,6.45,6.45,0,0,1-.56-1l-.06-.11a9.17,9.17,0,0,0-.55-1c-.17-.23-.41-.51-.7-.83a6.46,6.46,0,0,1-.78-.95c-.22-.34-.41-.71-.62-1.11l-.09-.17c-.15-.27-.29-.54-.43-.75s-.36-.64-.51-.95l-.09-.18c-.16-.32-.33-.64-.51-.95s-.42-.76-.63-1.15l-.52-.93a5.38,5.38,0,0,0-.67-.85,5.24,5.24,0,0,1-.76-1,11,11,0,0,1-.48-1.11c-.14-.35-.27-.71-.46-1.08l-.53-1q-.27-.51-.51-1a6.62,6.62,0,0,1-.38-1.06l0-.08a6.57,6.57,0,0,0-.37-1.11,5.15,5.15,0,0,0-.54-.87l-.07-.08a5.52,5.52,0,0,1-.65-1v-.1l.23-1-.69-.77a2.17,2.17,0,0,1-.38-.54,4.08,4.08,0,0,1-.21-1,4.67,4.67,0,0,0-.14-.67l-.08-.18a7.48,7.48,0,0,0-.37-.69,4,4,0,0,1-.4-.8l-.61-1.61a3.35,3.35,0,0,1-.13-.92v-.12a3.93,3.93,0,0,0-.06-.48l-.06-.25a3.17,3.17,0,0,0-.4-.79A3.79,3.79,0,0,1,319,231a7.4,7.4,0,0,1-.23-.93c-.05-.25-.11-.51-.17-.71a4,4,0,0,0-.4-.85,4.22,4.22,0,0,1-.39-.8,3.7,3.7,0,0,1-.16-.94,4.48,4.48,0,0,0-.08-.64l-.09-.27c-.09-.24-.21-.47-.32-.71a5.69,5.69,0,0,1-.35-.78,7.32,7.32,0,0,1-.22-.82l0-.13a5,5,0,0,0-.2-.72c-.18-.53-.37-1-.55-1.51l-.2-.44-.41-.41a2.62,2.62,0,0,1-.56-.7,4.79,4.79,0,0,1-.25-.85l0-.12a3.92,3.92,0,0,0-.13-.49l-.1-.26a6.56,6.56,0,0,1-.28-.71l-.08-.23a3.18,3.18,0,0,0-.28-.65l-.3-.59,0-.06a8.4,8.4,0,0,0-.45-.84l-.18-.27-.25-.2a3.5,3.5,0,0,0-.37-.26l-.06-.05a4,4,0,0,1-.53-.45,6.28,6.28,0,0,0-.82-.7,5.72,5.72,0,0,1-.46-.37,3.35,3.35,0,0,1-.58-.77l-.28-.47-.37-.25a11.92,11.92,0,0,0-1.32-.8,3.34,3.34,0,0,0-.76-.28l-.15,0a6.36,6.36,0,0,1-.71-.21,3.43,3.43,0,0,0-.93-.24,5.69,5.69,0,0,1-.72-.17,2.47,2.47,0,0,1-.76-.45l-.67-.52h-1a3.74,3.74,0,0,1-.85-.08c-.29-.06-.59-.11-.88-.15a6.42,6.42,0,0,1-.8-.14,3.47,3.47,0,0,1-.8-.3,4.72,4.72,0,0,0-.61-.27l-.22-.06c-.19,0-.41-.07-.64-.1a6.43,6.43,0,0,1-.95-.2,3.62,3.62,0,0,0-.59-.19,5,5,0,0,1-1-.41l-.14-.07a10.24,10.24,0,0,1-1.24-.82l-.44-.38a4.91,4.91,0,0,1-.84-.8,4.44,4.44,0,0,1-.52-.87,4.77,4.77,0,0,0-.3-.6l-.25-.41-.13-.18a7.07,7.07,0,0,1-.52-.9,2.52,2.52,0,0,1-.17-.86,2.91,2.91,0,0,0-.06-.59l-.14-.42a3.16,3.16,0,0,0-.16-.32l-.11-.2a6.27,6.27,0,0,1-.34-.77,8.57,8.57,0,0,1-.17-.86,4.13,4.13,0,0,0-.15-.85l-.11-.34-.24-.37a3.19,3.19,0,0,1-.35-.8,2.46,2.46,0,0,1,0-.86,3.89,3.89,0,0,0,0-.47v-.29l-.08-.27c-.05-.17-.12-.35-.19-.53l0-.08a7,7,0,0,1-.29-.85c-.07-.26-.11-.52-.17-.86l0-.16c0-.22-.08-.44-.14-.67a4.59,4.59,0,0,1-.11-.87,3.57,3.57,0,0,0-.11-.82,3.63,3.63,0,0,0-.24-.66l-.09-.22a5.1,5.1,0,0,1-.28-.74l-.15-.54-.27-.25a3.18,3.18,0,0,1-.38-.76,2.81,2.81,0,0,1,0-.83l.25-1-.72-.71a2.51,2.51,0,0,1-.41-.78l-.54-1.57a5.38,5.38,0,0,1-.15-.74v-.06a3.66,3.66,0,0,0-.16-.87,5.2,5.2,0,0,1-.18-.89l-.11-.92-.79-.74a1.43,1.43,0,0,1-.39-.54,3.83,3.83,0,0,1-.19-.85c0-.23-.1-.55-.13-.66l-.13-.35c-.05-.1-.24-.41-.37-.6a4.58,4.58,0,0,1-.4-.71,2.07,2.07,0,0,1-.11-.9l0-.94-.71-.61a2.49,2.49,0,0,1-.56-.63c-.11-.24-.22-.49-.34-.82l-.05-.13a6.7,6.7,0,0,0-.28-.65,2.36,2.36,0,0,1-.21-.87v-.7l-.49-.56c-.08-.1-.2-.23-.24-.27l-.08-.09a5.29,5.29,0,0,1-.45-.51,8.71,8.71,0,0,1-.44-.82l-.05-.09a5.06,5.06,0,0,0-.4-.68l-.22-.26a4.91,4.91,0,0,0-.43-.35,3.07,3.07,0,0,1-.66-.6c-.15-.19-.3-.36-.46-.54l-.24-.27c-.14-.15-.28-.3-.43-.48s-.32-.39-.46-.58l-.09-.12a6,6,0,0,0-.54-.66,5.27,5.27,0,0,1-.43-.51l-.12-.15a5.1,5.1,0,0,0-.55-.62,5.34,5.34,0,0,0-.74-.56l-.09-.07c-.2-.13-.4-.26-.58-.4l-.28-.22-.53-.16a4,4,0,0,1-.75-.34l-.52-.36a9,9,0,0,0-.92-.59,3.62,3.62,0,0,1-.65-.52,3.44,3.44,0,0,0-.53-.45l-.27-.15c-.45-.21-1-.42-1.52-.63l-.5-.21-.19-.09a8.11,8.11,0,0,0-1-.4,5.85,5.85,0,0,0-.84-.16h-.06l-.7-.14a4.48,4.48,0,0,1-.79-.32,4.25,4.25,0,0,0-.73-.31l-1.45-.3-.44.11a12.78,12.78,0,0,0-1.58-.11l-.89,0a5,5,0,0,1-1.16-.26,4.42,4.42,0,0,0-1.24-.24h-.23c-.74,0-1.52.08-2.38.17a7.16,7.16,0,0,0-1.35.33l-.14.05c-.29.09-.62.19-.91.26a6.86,6.86,0,0,0-1.37.42l-.24.09c-.26.09-.53.19-.82.27a5.73,5.73,0,0,1-1.14.17,3.85,3.85,0,0,0-1.4.21,6.43,6.43,0,0,0-1.16.64l-.21.13a8.74,8.74,0,0,1-.8.45,15,15,0,0,0-1.72,1l-.44.29a8.71,8.71,0,0,1-.91.48l-.05,0a5.72,5.72,0,0,0-1.28.71,10.84,10.84,0,0,0-1.11,1.05c-.23.24-.47.48-.71.7a9.77,9.77,0,0,0-1,1.07c-.23.28-.47.56-.75.85s-.72.83-1,1.23c-.18.22-.36.44-.57.68a13.64,13.64,0,0,0-.85,1.16l-.18.25c-.14.21-.28.41-.45.62a10.5,10.5,0,0,1-.74.88,12.51,12.51,0,0,0-.88,1.06,11.7,11.7,0,0,0-.7,1.23l-.52.93a6.53,6.53,0,0,1-.73.92,6.18,6.18,0,0,0-.83,1.07,10.24,10.24,0,0,0-.49,1.12l-.05.14c-.13.32-.26.69-.43,1s-.38.69-.62,1.09a10.81,10.81,0,0,0-.6,1.07,5.89,5.89,0,0,0-.38,1.21l0,.18a4.45,4.45,0,0,1-1,2.14l-.07.08a5,5,0,0,0-.63,1,10.6,10.6,0,0,0-.43,1.2c-.12.36-.25.77-.42,1.15s-.37.79-.56,1.16-.36.73-.53,1.12a9.06,9.06,0,0,1-.55,1l-.07.11a9.54,9.54,0,0,0-.62,1.11c-.14.34-.25.68-.38,1.07l-.07.21a9.09,9.09,0,0,1-.37,1,5.82,5.82,0,0,0-.4,1.28,5.17,5.17,0,0,1-.38,1.19,4.68,4.68,0,0,1-.85,1.1,5.34,5.34,0,0,0-.69.84l-.08.14a6.16,6.16,0,0,0-.37,1l0,.13a4.78,4.78,0,0,1-.46,1.13l-.06.1c-.42.65-.9,1.4-1.37,2a9.27,9.27,0,0,1-1.13,1.13c-.27.25-.53.49-.75.73a8.79,8.79,0,0,1-1.17,1,11.3,11.3,0,0,0-.89.72,3.8,3.8,0,0,0-.61.87l-.09.16a3.7,3.7,0,0,1-.83,1.09,7.42,7.42,0,0,1-1.37.82l-.18.1a7.4,7.4,0,0,0-.69.39,8.67,8.67,0,0,0-.84.62l-.12.09a7.82,7.82,0,0,1-1.21.86,4.15,4.15,0,0,1-1.52.41l-.16,0a4.79,4.79,0,0,0-.81.21l-.23.11a4.28,4.28,0,0,0-.91.76,5.21,5.21,0,0,1-.93.77c-.21.12-.41.23-.62.33l-.22.12a10.35,10.35,0,0,0-1.3.77,5.53,5.53,0,0,1-1.09.54,4.81,4.81,0,0,0-1,.46l-.29.24a8.72,8.72,0,0,0-.84,1.06l-.06.09a8,8,0,0,1-.55.77l-.53.61-.13.15a10,10,0,0,0-.92,1.19,4.38,4.38,0,0,0-.43,1L190,216a6.45,6.45,0,0,1-.42,1.11c-.23.41-.42.85-.62,1.28l-.07.17c-.12.26-.24.53-.36.78s-.32.64-.51,1l-.12.22c-.17.34-.35.67-.49,1s-.33.7-.52,1.06a7.39,7.39,0,0,0-.57,1.17,10.55,10.55,0,0,0-.41,1.28c-.11.37-.21.73-.37,1.15a7.57,7.57,0,0,0-.22,1.15v.11a7.55,7.55,0,0,1-.23,1.15c-.11.33-.24.66-.37,1l-.11.31c-.12.33-.24.65-.35,1a6.88,6.88,0,0,1-.53,1.14l-.06.11a6.66,6.66,0,0,0-.47,1c-.14.47-.28.93-.41,1.38l-.29,1c-.12.4-.26.79-.42,1.22l-.11.35c-.09.26-.18.52-.26.79a8.93,8.93,0,0,0-.25,1.05l-.06.32c-.07.34-.14.7-.24,1a7.35,7.35,0,0,1-.53,1.26l-.07.16a7.75,7.75,0,0,0-.39.93c-.14.49-.29,1-.45,1.42l-.12.4,0,.4-.38,1c0,.08-.07.17-.11.26l-.06.14-.08.18-.2.54c-.07.29-.17.61-.27,1l-.54,2c-.14.45-.19.72-.25,1a7.05,7.05,0,0,1-.33,1.14l-.09.16-.28.42a2.3,2.3,0,0,0-.25.34l-.12.12-.08.23-.17.3v.29l-.15.86-.22.55a3.85,3.85,0,0,1-.29.43l-.08.11a3.18,3.18,0,0,0-.36.51l-.17.27-.51,1.33a5.38,5.38,0,0,0-.23.62h-.53V260l-1.15,1.74v.15l-.36.75-.25.51c-.22.48-.44.95-.67,1.43l-.43.77-.09.16-.22.12-.47,1.78-.85,1.92c-.06.12-.16.25-.24.38l-.61.9-.93,1.7a6.18,6.18,0,0,0-.29.7l-.35.86-.33.32v.3l-2.5,4.09-.1.2L164,279l-.2.53c-.06.19-.12.38-.17.5l-1.06,2-.85,1.13-.52.83-.6,1.1-.24.35-.38.39-1.5,2.89a4.81,4.81,0,0,0-1,3.39,3.79,3.79,0,0,1,.2,1.16l0,.29,1.62,5.69.79.75.13.21,1.17,1.13.29.23.15.12h0l.16.1.24.14.4.24.54.42.16.16.92.86.56.27.47.21.49.22.94.61.65.55h.64l.22.05.42.09.54.19.36.16.17.08.41.17.33.13,6.8,1.59.2.32.12.19c.14.23.28.45.44.68l.92,1.33.46.53c.18.2.35.39.46.53l.48.64c.15.2.3.4.43.55.25.3.5.58.75.85l.65.74c.19.22.38.44.62.69l.22.22c.28.28.57.57.81.78a11.7,11.7,0,0,0,.94.8l.22.17a6.28,6.28,0,0,0,1.36.86,9.76,9.76,0,0,0,1.58.54l.37.11a9.74,9.74,0,0,0,1.18.3c.56.07,1.12.09,1.64.11a9.51,9.51,0,0,0,1.23-.1l.57-.06a4.71,4.71,0,0,0,1.07-.2,11.55,11.55,0,0,0,1.26-.56l.28-.15a9,9,0,0,0,.92-.5c.17-.11.35-.23.52-.36l.13-.1c.14-.1.27-.2.43-.3s.32-.21.48-.3l.32-.2.36-.22.28-.18a9,9,0,0,1,1-.6,8.6,8.6,0,0,1,1.07-.4l.61-.19a6.56,6.56,0,0,1,1.12-.29,6.91,6.91,0,0,1,1.23-.14h.2a5.3,5.3,0,0,1,1.14.16l.35.07a9.37,9.37,0,0,1,1.42.34,9.56,9.56,0,0,1,1.28.56l.2.12a8.74,8.74,0,0,1,1.12.66,5.76,5.76,0,0,1,.72.67l.08.08.28.28.33.3a9,9,0,0,1,.69.69l.13.16a12.38,12.38,0,0,1,.82,1l.16.22c.21.31.44.63.64,1a6.84,6.84,0,0,1,.38.82l.09.21.12.21c.12.23.26.46.4.69l.19.31c.08.14.17.3.24.44l.35.69.34.27.24.18a4.24,4.24,0,0,1,.41.32l.38.41a4.59,4.59,0,0,0,.37.39l1.41,1.22.35-.36.24.16.5.28h.62a3.85,3.85,0,0,1,.59.06,4.76,4.76,0,0,0,.66.07h.17a3,3,0,0,1,.43,0,2.86,2.86,0,0,1,.58.12,2.68,2.68,0,0,0,.35.1l.43.09.82-.18a4.7,4.7,0,0,1,.63-.13l.43-.06,1-.13a5.77,5.77,0,0,0,.6-.09h0a4.14,4.14,0,0,1,.69-.07h.17a2,2,0,0,1,.79.27l.4.2.17.07.37.1a3.5,3.5,0,0,1,1,.4l.41.23a5.81,5.81,0,0,1,.76.5l.4.3a4.56,4.56,0,0,1,.65.51,2.41,2.41,0,0,1,.41.65c.05.12.11.22.17.35l.37.48a7.3,7.3,0,0,1,.61.8,3,3,0,0,1,.34.66l.05.1a2.67,2.67,0,0,0,.22.45c.09.16.19.31.28.45s.31.47.44.71l.17.28.21.26a3.07,3.07,0,0,1,.4.63,8.11,8.11,0,0,1,.29.76l.17.49a3.76,3.76,0,0,1,.2.73c0,.18.09.35.15.57s.11.36.16.54l0,.13a4.9,4.9,0,0,0,.18.57,2.86,2.86,0,0,0,.32.58l.06.1a3.88,3.88,0,0,1,.29.49q.3.6.63,1.17a4.07,4.07,0,0,1,.23.48l0,.06a3.18,3.18,0,0,0,.29.62,5,5,0,0,0,.56.71c.06.08.13.16.19.25l.23.3.42.26a2.67,2.67,0,0,1,.49.38l.24.27.2.23.45.46a9,9,0,0,0,.78.6l.34.25a10.81,10.81,0,0,0,1,.66,2.92,2.92,0,0,1,.44.32l.69.46.35.07.36.05a4.51,4.51,0,0,1,.53.09,8.16,8.16,0,0,0,.85.15l.46.07a2.24,2.24,0,0,1,.6.18l.35.14h.41a2.31,2.31,0,0,0,.64-.1,3,3,0,0,1,.55-.11h.13a3.06,3.06,0,0,1,.47,0l.92.05.51-.26a3.93,3.93,0,0,1,.6-.24,4.73,4.73,0,0,0,.52-.24l.16-.08.46-.23a6.06,6.06,0,0,0,.57-.3l.28-.16.19-.12.12-.06a3.61,3.61,0,0,1,.44-.22l.09,0a2.94,2.94,0,0,0,.58-.3l.4-.24.1-.06a3.06,3.06,0,0,0,.66-.41l.57-.5,1-1v-.27l.13-.15.36-.36c.19-.18.38-.37.59-.59a4.45,4.45,0,0,1,.54-.48,2.19,2.19,0,0,0,.42-.38,7.87,7.87,0,0,0,.51-.63l.84-1,.34-.42c.14-.18.29-.34.45-.51l.18-.2c.08-.08.15-.17.22-.25L264,338l.19-.31.08-.14a2.54,2.54,0,0,1,.35-.55,5.58,5.58,0,0,1,.67-.63l.08-.07.24-.21a2.85,2.85,0,0,0,.39-.43,3.14,3.14,0,0,1,.51-.52,7.69,7.69,0,0,1,1.17-.72,3.31,3.31,0,0,1,.89-.27,3.72,3.72,0,0,0,.42-.1l.2-.05a4.18,4.18,0,0,1,1.09-.2h.13a6.53,6.53,0,0,1,1,.11l.21,0c.43.07.86.15,1.31.26a3.48,3.48,0,0,1,.6.23,3.61,3.61,0,0,0,.49.21l.42.1c.34.08.67.17,1,.22l1,.13.2-.19h.26a4.23,4.23,0,0,0,.65-.06l.88-.09a3.85,3.85,0,0,0,.91-.16l.26-.08a5.14,5.14,0,0,0,.93-.36,7.21,7.21,0,0,0,1-.72l.09-.06a3.2,3.2,0,0,0,.47-.53,4.72,4.72,0,0,1,.4-.46l.2-.18.11-.11a4.71,4.71,0,0,0,.6-.58,2.86,2.86,0,0,0,.37-.52l0-.1a3.6,3.6,0,0,1,.33-.51,2.3,2.3,0,0,1,.42-.4,2.72,2.72,0,0,0,.35-.3l.23-.27.26-.36.15-.2.26-.37.19-.31.09-.42a2.5,2.5,0,0,1,.23-.64,2,2,0,0,1,.43-.49l.17-.15.27-.28.16-.36c.05-.11.1-.24.15-.36s.17-.42.24-.56a5.76,5.76,0,0,1,.38-.56,4.11,4.11,0,0,0,.27-.35l.15-.23.09-.27a2.74,2.74,0,0,0,.09-.39,2.17,2.17,0,0,1,.22-.65,4.32,4.32,0,0,1,.43-.55l.34-.4c.17-.22.38-.53.59-.86l.14-.22.14-.4a2.1,2.1,0,0,1,.24-.59A4.16,4.16,0,0,0,291,319l.05-.1c.11-.18.21-.37.31-.53a2,2,0,0,1,.43-.48l.44-.4.15-.57a1.89,1.89,0,0,1,.24-.6c.12-.18.25-.35.43-.58l.07-.09.22-.3a3.11,3.11,0,0,1,.4-.46,2.6,2.6,0,0,0,.41-.44c.13-.17.29-.34.44-.52s.17-.19.24-.27l.21-.22.16-.47a1.83,1.83,0,0,1,.32-.55,3.74,3.74,0,0,1,.59-.49l.09-.08a2.11,2.11,0,0,0,.23-.19,2.91,2.91,0,0,0,.27-.24l.12-.12a7.31,7.31,0,0,1,.57-.51,3.3,3.3,0,0,1,.59-.36l.08,0a3.52,3.52,0,0,0,.4-.24c.26-.18.55-.33.84-.49l.64-.36a4.66,4.66,0,0,1,.72-.39,6.71,6.71,0,0,1,1.28-.33l.23,0a3.32,3.32,0,0,1,1.08-.07,2.12,2.12,0,0,1,.62.22,2.35,2.35,0,0,0,.35.18l.32.1.5.09.68.14.25.07h.49a2.59,2.59,0,0,1,.55,0,3.79,3.79,0,0,1,.5.18l.49.24.52,0c.23,0,.51,0,.75-.06l.16,0,.35,0,1-.05.55-.41a3.78,3.78,0,0,1,.47-.25,1.92,1.92,0,0,1,.31-.11l.16-.06a2.84,2.84,0,0,0,.49-.17l.66-.29.16-.34a2.55,2.55,0,0,1,.31-.24,3.3,3.3,0,0,1,.51-.29l.56-.23.33-.44a1.43,1.43,0,0,0,.14-.2,4.83,4.83,0,0,1,.4-.45,5.78,5.78,0,0,0,.44-.5l.36-.41a2.12,2.12,0,0,1,.45-.32l.45-.23.28-.35a2.13,2.13,0,0,0,.26-.41,3.65,3.65,0,0,1,.31-.41c.15-.18.29-.37.48-.61l.3-.37.19-.27.14-.25a2.8,2.8,0,0,1,.31-.5,1.79,1.79,0,0,1,.46-.38l.49-.3.32-.65v0a2.84,2.84,0,0,1,.22-.41c.09-.12.16-.26.24-.39l3,.9a7.88,7.88,0,0,0,1.34.31l.22,0,.21,0a7.42,7.42,0,0,0,.94-.19,6.09,6.09,0,0,1,.75-.17,8.33,8.33,0,0,0,2-.46l.42-.16a7.67,7.67,0,0,0,1.52-.74,11.92,11.92,0,0,0,1.63-1.3l.4-.38a14.88,14.88,0,0,0,1.12-1.22,6.28,6.28,0,0,0,.56-1l.07-.14c.13-.24.25-.49.39-.7a13.05,13.05,0,0,0,.64-1.22l.1-.22c.07-.13.13-.27.25-.47a4.75,4.75,0,0,1,.5-.76l.17-.22c.19-.26.37-.52.45-.66l.11-.25a6.69,6.69,0,0,0,.3-1,6.15,6.15,0,0,1,.26-.92c.17-.44.32-.88.46-1.32l.24-.73a6.52,6.52,0,0,1,.45-1,7.76,7.76,0,0,0,.41-1,4.65,4.65,0,0,0,.16-1,6.29,6.29,0,0,1,.17-1.09c.15-.55.28-1.14.41-1.74l.07-.29c.06-.26.13-.52.21-.81a10.38,10.38,0,0,0,.29-1.2c0-.27.11-.55.22-.95l0-.1a4.9,4.9,0,0,0,.19-1A8.37,8.37,0,0,0,342,274.64Zm-94.31-74.22,0,.47a8.42,8.42,0,0,1-.09,1.06l0,.31a3.65,3.65,0,0,1-.09.64,6.66,6.66,0,0,1-.22.74l-.07.2a4.51,4.51,0,0,1-.26.64l-.17.36a5.76,5.76,0,0,1-.4.78c-.07.12-.12.21-.19.35l-.07.13a2.13,2.13,0,0,1-.28.5,6,6,0,0,1-.58.7,3.86,3.86,0,0,1-.62.44l-.17.09a2.74,2.74,0,0,1-.79.34,1.79,1.79,0,0,1-.74-.1,2.11,2.11,0,0,1-.84-.37,2.91,2.91,0,0,1-.65-.72l-.09-.15a3.3,3.3,0,0,1-.34-.62,2.81,2.81,0,0,1-.1-.6,2.59,2.59,0,0,0-.06-.45l-.07-.36a3.36,3.36,0,0,1-.11-.58,10.16,10.16,0,0,1,0-1.13v-.44a4.1,4.1,0,0,1,0-.51,3.23,3.23,0,0,1,.15-.5l0-.12c0-.12.08-.24.11-.37s0-.26.08-.44l.1-.5a3.81,3.81,0,0,0,.14-.47,4.22,4.22,0,0,1,.2-.6,2.4,2.4,0,0,1,.26-.41l.07-.1a2.4,2.4,0,0,0,.2-.33,4,4,0,0,0,.21-.41,2.38,2.38,0,0,1,.25-.44,2.84,2.84,0,0,1,.39-.38l.22-.18.08-.08a4.7,4.7,0,0,1,.78-.61,2.18,2.18,0,0,1,.79-.37,1.62,1.62,0,0,1,.81.11,1.86,1.86,0,0,1,.72.4,2.52,2.52,0,0,1,.58.69,4.08,4.08,0,0,1,.37.81,4.78,4.78,0,0,0,.19.46,3.46,3.46,0,0,1,.18.47l0,.21a7.64,7.64,0,0,1,.12.9A3.67,3.67,0,0,1,247.72,200.42Zm6.75,16.67c-.05.24-.12.46-.17.65l-.1.29a5.7,5.7,0,0,1-.32.81,2.68,2.68,0,0,1-.42.55l-.11.13a2.25,2.25,0,0,1-.58.52,1.22,1.22,0,0,1-.65.2,1.38,1.38,0,0,1-.72-.2,2,2,0,0,1-.4-.48l-.1-.11a3.94,3.94,0,0,1-.45-.73,4.75,4.75,0,0,1-.28-.8l-.06-.27A4,4,0,0,1,250,217a2.1,2.1,0,0,1,0-.43,3.74,3.74,0,0,0,0-.41,8.11,8.11,0,0,1,.09-.93,5.89,5.89,0,0,1,.2-.9,4,4,0,0,1,.35-.81l.11-.23a3,3,0,0,1,.29-.49,2.27,2.27,0,0,1,.64-.55,1.25,1.25,0,0,1,.58-.11h.08a1.3,1.3,0,0,1,.67.22,2,2,0,0,1,.59.52,4.13,4.13,0,0,1,.41.75,4.25,4.25,0,0,1,.24.79,7,7,0,0,1,.16,1l0,.31a3.09,3.09,0,0,1,0,.55C254.5,216.59,254.5,216.89,254.47,217.09Zm8.59-13.31c0,.11-.06.21-.09.34l-.05.25a4.68,4.68,0,0,1-.18.87l-.1.34a2.78,2.78,0,0,1-.23.59,2.9,2.9,0,0,1-.55.61,2.54,2.54,0,0,1-.76.53,1.88,1.88,0,0,1-.85,0,2.83,2.83,0,0,1-.86-.23,3.85,3.85,0,0,1-.68-.53,6.6,6.6,0,0,1-.73-.75,2.62,2.62,0,0,1-.25-.44l-.07-.13c-.05-.1-.1-.2-.16-.3l-.23-.34a4.1,4.1,0,0,1-.3-.47l-.09-.2a7.16,7.16,0,0,1-.32-.74,2.07,2.07,0,0,1-.08-.43l0-.18c0-.13-.05-.25-.08-.37a4.74,4.74,0,0,0-.2-.57,3.49,3.49,0,0,1-.13-.39,3.09,3.09,0,0,1,0-.51v-.56a9,9,0,0,1,0-1v-.35a3.89,3.89,0,0,1,0-.62,7,7,0,0,1,.25-.91,3.85,3.85,0,0,1,.44-.91,2.89,2.89,0,0,1,.63-.75,2,2,0,0,1,.65-.48,1.77,1.77,0,0,1,.85-.08,3.09,3.09,0,0,1,.79.34,3.9,3.9,0,0,1,.79.55,1.94,1.94,0,0,1,.3.38l.48.63a5.52,5.52,0,0,1,.4.55l.14.22a5.35,5.35,0,0,1,.35.59,2.9,2.9,0,0,0,.13.27l.06.13a4.37,4.37,0,0,1,.26.54,3.59,3.59,0,0,1,.09.47,2.52,2.52,0,0,0,.06.48l.13.46a3.76,3.76,0,0,1,.15.6c.06.35.1.7.13,1l0,.39a3.84,3.84,0,0,1,0,.67A1.91,1.91,0,0,1,263.06,203.78Z" style="fill: #fff"/>
    <path d="M311.37,282.19a2,2,0,0,1-1.67,3.13,2,2,0,0,1-1.61-.84,6.73,6.73,0,0,1-.58-1.08c-.08-.17-.16-.35-.25-.53s-.15-.27-.23-.42c-.19-.32-.38-.67-.56-1-.08-.17-.17-.33-.25-.51s-.32-.61-.46-.94c-.08-.18-.18-.36-.27-.54s-.31-.59-.45-.91-.32-.75-.49-1.15l-.13-.31c-.11-.27-.22-.56-.32-.85s-.15-.41-.23-.62-.22-.55-.32-.84-.15-.42-.24-.63-.2-.48-.31-.71-.22-.49-.32-.73a6.09,6.09,0,0,0-.3-.63c-.12-.28-.25-.53-.36-.79l-.42-.95-.21-.47c-.08-.18-.17-.36-.26-.55s-.27-.55-.39-.83-.23-.61-.33-.92a4.68,4.68,0,0,0-.17-.53c-.08-.2-.17-.37-.25-.56s-.26-.56-.37-.84-.21-.57-.31-.86-.13-.39-.2-.59c-.18-.46-.36-.94-.54-1.42-.1-.29-.19-.58-.27-.88l-.18-.59-.19-.5-.33-.92a2.68,2.68,0,0,0-.19-.42,6.42,6.42,0,0,1-.44-1,6.2,6.2,0,0,1-.23-1.16,1.34,1.34,0,0,0-.05-.35,2.88,2.88,0,0,0-.19-.45,8.61,8.61,0,0,1-.39-1c-.09-.28-.17-.55-.25-.83s-.11-.42-.18-.63a7.09,7.09,0,0,1-.21-1,2.49,2.49,0,0,0-.09-.46,2.3,2.3,0,0,0-.18-.43,7.13,7.13,0,0,1-.38-1c-.08-.31-.14-.64-.2-1a4.13,4.13,0,0,0-.11-.53c-.06-.2-.12-.39-.19-.59s-.19-.57-.27-.86-.14-.56-.21-.85-.09-.42-.14-.63-.14-.56-.2-.85-.09-.42-.14-.63l-.37-1.47a3.61,3.61,0,0,0-.16-.42,6.25,6.25,0,0,1-.36-1c-.05-.21-.11-.42-.16-.63s-.16-.55-.23-.84a6.81,6.81,0,0,1-.14-1.08,2.28,2.28,0,0,0-.05-.44,2.35,2.35,0,0,0-.14-.37,6.93,6.93,0,0,1-.37-1.07,2,2,0,0,1,3.91-.87,2.35,2.35,0,0,0,.14.38,5.42,5.42,0,0,1,.36,1,6.83,6.83,0,0,1,.14,1,2.24,2.24,0,0,0,.05.46c0,.22.11.45.18.67s.14.52.2.77a3.75,3.75,0,0,0,.16.43,7.4,7.4,0,0,1,.35,1l.37,1.43.18.81c0,.22.09.44.14.66s.13.51.19.76.1.46.16.68.13.42.2.62.18.53.25.8a9.4,9.4,0,0,1,.2.92,5.17,5.17,0,0,0,.11.54,4.22,4.22,0,0,0,.18.45,6.36,6.36,0,0,1,.37.94,6.53,6.53,0,0,1,.2,1,3.4,3.4,0,0,0,.09.46l.21.72c.06.24.13.48.2.71a3.76,3.76,0,0,0,.2.46,8,8,0,0,1,.38.91,5.7,5.7,0,0,1,.22,1.13,2,2,0,0,0,0,.35,2.67,2.67,0,0,0,.2.42,6.41,6.41,0,0,1,.41.93c.1.29.21.58.31.86l.19.54c.1.27.18.54.26.81s.11.41.19.61c.17.45.34.93.52,1.38.09.25.17.49.25.73l.24.67c.09.22.18.42.28.63s.22.48.32.73.21.56.3.85a5.05,5.05,0,0,0,.18.55c.09.21.19.41.3.62s.23.47.33.71l.2.45.45,1c.08.2.18.39.27.58s.28.57.4.86.18.43.28.64.24.54.35.81.22.55.32.83.15.43.24.64.21.55.31.83.15.43.24.63l.13.3.47,1.13c.1.22.21.42.31.62s.27.5.39.77.25.52.37.77.21.4.3.59.29.55.43.8l.28.5c.14.27.25.52.36.77A4.5,4.5,0,0,0,311.37,282.19Zm-10.92,16.48c0,.07.05.13.07.19l.33.88a2,2,0,0,0,3.66-1.36l-.06-.16s-.12-.35-.36-1c0-.09-.06-.19-.1-.29l-.06-.16,0-.08v0l0-.08,0,0c-.1-.17-.21-.36-.32-.57s-.2-.34-.31-.53l-.38-.74-.22-.41-.16-.32-.12-.21c-.14-.25-.29-.51-.44-.79s-.28-.66-.43-1l-.11-.27v0l0-.12c-.06-.19-.13-.39-.19-.6l-.38-1.22c-.08-.23-.15-.47-.23-.71a5.5,5.5,0,0,0-.26-.65l-.27-.66-.19-.44-.16-.32a13.59,13.59,0,0,1-.55-1.26c-.1-.24-.19-.48-.29-.73l-.1-.26-.08-.18-.16-.37c-.09-.19-.18-.39-.26-.59l0-.08,0-.21-.09-.41-.12-.5-.06-.25v0l0-.11,0-.05-.05-.1-.31-.75-.15-.34-.11-.41-.24-.84c-.07-.26-.18-.56-.27-.84l-.14-.43-.07-.19,0-.11a16.49,16.49,0,0,0-.5-1.89l-.3-.88-.08-.22v0l0-.06-.05-.11a3,3,0,0,0-.15-.28l-.23-.39-.1-.17,0,0a.34.34,0,0,1,0-.09,0,0,0,0,1,0,0v-.5a4.4,4.4,0,0,0-.06-.58l-.06-.29,0-.08a1.85,1.85,0,0,0-.09-.24v0h0l0-.06-.11-.21-.21-.41a2.22,2.22,0,0,1-.29-.68l-.25-.95v0l0-.25c0-.13,0,0,0-.18l0-.33c0-.1,0-.32-.06-.49l-.06-.25v0l-.09-.27,0-.06-.1-.23a3.34,3.34,0,0,0-.19-.38l-.18-.31-.07-.13v0l0-.14-.08-.52-.1-.63v-.1a1,1,0,0,0-.05-.16l0-.12-.09-.24-.31-.84c-.08-.32-.15-.66-.22-1l-.42-2-.26-1-.07-.25,0-.07-.08-.25-.05-.12c0-.1,0-.13-.11-.28l-.23-.44-.13-.23-.05-.08v0s0,0,0,0l0-.06,0-.12-.31-1,0-.12v0l0-.13c0-.2,0,0,0-.18a4.23,4.23,0,0,0,0-.83l0-.28v-.09s0-.1-.08-.28l0-.06L290,255c0-.07-.15-.28-.22-.42l-.21-.34-.07-.1v0c0,.08,0,.05,0,0h0c0-.08,0-.19-.05-.25l-.1-.5-.07-.41v-.15l0-.27-.13-1.18-.18-1,0-.25,0-.12v-.1l-.08-.27a4,4,0,0,0-.28-.61,3.81,3.81,0,0,0-.25-.43l-.08-.12h0l-.11-.84c0-.19-.05-.4-.08-.57l-.13-.49-.13-.47-.06-.24,0-.11c-.06-.57-.12-1.52-.24-2.08l-.08-.48,0-.24,0-.13,0-.14,0-.06-.25-.89-.11-.41-.09-.46-.18-.94,0-.16v0l0-.06,0-.11-.07-.24-.13-.4-.11-.35h0a1.41,1.41,0,0,1,0-.2h0s0,0,0-.13a4.5,4.5,0,0,0,.05-.76c0-.15,0-.37,0-.46l-.06-.23-.1-.45c-.09-.34-.17-.69-.26-1l-.06-.21-.13-.35-.2-.45,0-.07h0a1.05,1.05,0,0,1,0-.18,0,0,0,0,0,0,0l0-.13a3.78,3.78,0,0,0,0-.66c0-.16,0-.29,0-.44s0-.15,0-.23l-.08-.42c-.06-.28-.11-.55-.17-.83s0-.47,0-.71l0-.46,0-.23v-.06l0-.18v0l0-.09a4.7,4.7,0,0,0-.14-.49l-.18-.46-.06-.14s0,0,0-.05,0,0,0,0v0l0-.79,0-.44v-.27a1.16,1.16,0,0,0,0-.16v0l0-.09c-.06-.24-.13-.46-.19-.69l-.08-.27,0-.14,0-.06c0-.48,0-1,0-1.42v-.15l0-.21h0l0-.15-.1-.32c-.05-.18-.11-.35-.16-.52l-.08-.23a3,3,0,0,1-.07-.35c0-.21-.08-.39-.12-.58s-.07-.34-.1-.51v-.08a2.08,2.08,0,0,1,0-.25s0,0,0,0l0-.21.06-.33c0-.17,0-.34,0-.52v-.22h0s0-.06,0-.12l0-.12-.05-.23c0-.16-.07-.3-.1-.45s-.13-.45-.16-.7-.06-.51-.09-.74-.07-.51-.1-.73-.08-.37-.11-.53a3.12,3.12,0,0,0-.14-.59,1.66,1.66,0,0,0-.05-.16l-.19-.55a1.34,1.34,0,0,0-1.4-.92,1.37,1.37,0,0,0-1.26,1.47l0,.33c0,.22.06.58.1.87s.05.3.07.47h0v.28l0,.34c0,.23,0,.48.07.75s.11.63.17,1l.09.45,0,.23v0h0l0,.16-.06.3c0,.17-.05.33-.07.49l0,.29v.14a.93.93,0,0,0,0,.22v.13c0,.21.07.41.11.63s.06.39.1.59,0,.25.05.25l.09.37.18.7.09.32v.12c0,.17,0,.35,0,.53l0,.69v0s0,.07,0,.21l0,0,0,.11.05.21.1.42.18.72v1.37c0,.07,0-.13,0,.17v0l.07.34a5.77,5.77,0,0,0,.17.56l.08.21,0,.07a.66.66,0,0,1,.08.28h0v.54l0,.42v.39l0,.14c0,.28.09.55.14.83l.07.42c0,.05,0,.17,0,.19h0a.75.75,0,0,0,0,.19l0,.3,0,.41v.37s0,.3,0,.28v.05l.1.41a2.74,2.74,0,0,0,.11.34l.15.37,0,.06.06.22,0,.08s0,0,0,0l0,.15.09.45.1.44.05.23c0,.05,0,0,0,0a.88.88,0,0,1,0,.16l0,.33c0,.15,0,.3,0,.45v.39s0,.19,0,.27l0,.06.14.55.14.49.07.23,0,.11v0l.16.87.08.47.13.53.25,1,.13.87a18.1,18.1,0,0,1,.15,1.82v.06a1.23,1.23,0,0,1,0,.18v0l0,.12.06.24.12.49.12.47c0,.18,0,.3.05.44l.1.93a1.55,1.55,0,0,0,0,.21l0,.08,0,.14.11.28.12.28.09.17.18.31a0,0,0,0,0,0,0c0-.08,0,0,.09.17h0V251l0,.25.16,1c0,.27,0,.46.05.83l0,.27v.15l0,.24v0l.09.52.08.5a2.74,2.74,0,0,0,.18.71,4.53,4.53,0,0,0,.22.52l.19.31.06.1s0-.07,0,0l0,.06v.15a6.09,6.09,0,0,0,0,.86l0,.25.05.25v0l0,.06,0,.13.3,1,.09.32c.06.17.13.35.2.51a3,3,0,0,0,.18.36l.13.22h0s.06.14.09.2l0,.05.06.24.26,1,.42,2c.08.34.14.65.23,1l.38,1.07.09.24v0h0v.06l0,.37.07.48,0,.24v.1c.05.19.05.23.06.23v0l.09.24c.06.15.14.35.19.45l.17.3.07.12s0,0,.05.05l0,.09v0h0v.17c0,.11,0,.62.06.8l0,.24v.07l.07.26,0,.12.25.95a5.5,5.5,0,0,0,.45,1.11l.22.47v0c0,.15,0,.44,0,.85,0,.15,0,.18,0,.27v.14a3,3,0,0,0,.08.34l0,.12a4.63,4.63,0,0,0,.39.78l.14.23,0,0s0,0,.07.12l0,.11,0,0,.25.78a13.67,13.67,0,0,1,.44,1.67l0,.11.07.23.07.21.14.44c.09.29.19.55.27.85l.24.86.12.42.19.46c.11.28.23.55.34.83l0,.09h0l0,.16.06.31.09.39,0,.2,0,.1,0,.05v0l.06.2c.13.28.25.56.37.84l.16.37.06.14a.11.11,0,0,0,0,0v0h0l0,.06c.09.25.18.49.28.73.15.44.45,1.08.65,1.51l.16.34,0,0s0,0,0,0v0l.06.13c.09.23.19.44.28.66s.21.45.26.63l.18.58c.14.43.28.84.42,1.25.06.18.13.38.19.58l.05.14.1.25.12.29c.17.37.28.67.47,1.06l.58,1,.12.21,0,.06h0l0,.05.22.41.41.77.43.77.33.54h0l0,0Zm-39.89-56.94c0,.07,0,.17,0,.26a5,5,0,0,0,0,1.26,5.58,5.58,0,0,0,.27,1.09,1.83,1.83,0,0,1,.11.33c0,.27.07.54.12.82s.07.41.09.55a1.17,1.17,0,0,1,0,.26,5,5,0,0,0-.08,1.3,6.81,6.81,0,0,0,.17,1,2.7,2.7,0,0,1,.09.48l.13,1.46c0,.29.08.6.13.9s.07.38.09.56,0,.43,0,.64,0,.56,0,.84a3.27,3.27,0,0,1,0,.44,7.17,7.17,0,0,0,0,1.05,8,8,0,0,0,.11.84c0,.21.06.41.08.63a4.34,4.34,0,0,1,0,.51,7.93,7.93,0,0,0,0,1,4.33,4.33,0,0,0,.34,1.29.53.53,0,0,0,.08.16c0,.2,0,.41,0,.61s0,.59,0,.87a3,3,0,0,1,0,.42,6.33,6.33,0,0,0,0,1.08,5.91,5.91,0,0,1,0,.6c0,.29,0,.59,0,.87a4.45,4.45,0,0,0,.33,1.26.51.51,0,0,0,.08.17,1.35,1.35,0,0,1,0,.29,5.2,5.2,0,0,0-.06,1.24c0,.29.07.57.12.86s.06.4.08.6a5.3,5.3,0,0,0,.29,1.19,1.35,1.35,0,0,1,.09.26l.15,1.47c0,.2,0,.4,0,.6s0,.59.05.89a5.79,5.79,0,0,1,0,.61q0,.42.06.87c0,.32.1.63.17.94a4.94,4.94,0,0,1,.1.53,2.16,2.16,0,0,1,0,.44,5.42,5.42,0,0,0,0,1,5.49,5.49,0,0,0,.31,1.18,2.43,2.43,0,0,1,.1.28,1.9,1.9,0,0,1,0,.34,4.8,4.8,0,0,0,0,1.18c0,.22.06.44.08.66s.07.55.11.82a6.22,6.22,0,0,0,.33,1.11,2.31,2.31,0,0,1,.1.28,1.62,1.62,0,0,1,0,.2,4.61,4.61,0,0,0,0,1.36,5.34,5.34,0,0,0,.36,1.16,1.53,1.53,0,0,1,.11.27c.05.28.11.55.17.82l.12.65c0,.18,0,.36.06.53a7.46,7.46,0,0,0,.11.95c.09.49.18,1,.27,1.46,0,.21.07.41.09.61s.08.59.14.89.14.59.23.89.11.36.15.56a3.42,3.42,0,0,1,0,.45,7.73,7.73,0,0,0,.13,1,9.46,9.46,0,0,0,.26.91c.05.18.11.36.15.54s.15.61.23.91l.15.55c.07.28.15.55.24.82a6.13,6.13,0,0,1,.18.61c.05.22.1.45.16.68s.12.52.17.78.06.42.08.63.06.59.11.88,0,.4.06.6,0,.61.1.93l.25,1.54a8.6,8.6,0,0,0,.25,1,4.75,4.75,0,0,1,.14.54c.06.33.15.64.23,1s.1.37.14.57.18.69.28,1c.06.18.12.36.16.53a2.22,2.22,0,0,1,.06.44,6.2,6.2,0,0,0,.21,1.2,2,2,0,0,0,1.92,1.43,2,2,0,0,0,1.91-2.58c0-.09,0-.28-.06-.45a6.31,6.31,0,0,0-.16-1c-.06-.25-.14-.5-.22-.75s-.14-.44-.19-.67-.11-.49-.18-.74-.12-.47-.17-.71a7.28,7.28,0,0,0-.23-.92c-.05-.2-.11-.37-.14-.56l-.25-1.52a3.68,3.68,0,0,1-.06-.58c0-.33-.06-.65-.11-1s-.05-.39-.07-.58-.07-.66-.13-1-.14-.65-.22-1-.09-.39-.13-.57a9.75,9.75,0,0,0-.29-1c-.05-.18-.11-.35-.16-.54l-.15-.59c-.07-.27-.14-.55-.2-.82s-.15-.55-.24-.82-.12-.38-.16-.58a3.44,3.44,0,0,1-.05-.45,7.18,7.18,0,0,0-.12-1c-.06-.28-.14-.56-.22-.84s-.11-.39-.15-.57-.07-.41-.09-.61-.08-.57-.13-.85l-.27-1.44c0-.17,0-.35-.06-.53a8.93,8.93,0,0,0-.1-.92c-.05-.24-.09-.47-.14-.7s-.09-.5-.14-.75a4.64,4.64,0,0,0-.35-1.12,1.63,1.63,0,0,1-.1-.25c0-.06,0-.12,0-.18a4.33,4.33,0,0,0,0-1.37,5.39,5.39,0,0,0-.32-1.08,2.42,2.42,0,0,1-.12-.35l-.09-.65c0-.27-.06-.54-.1-.79a1.51,1.51,0,0,1,0-.3,5.27,5.27,0,0,0,0-1.18,4.72,4.72,0,0,0-.3-1.08,2.13,2.13,0,0,1-.11-.33,2.8,2.8,0,0,1,0-.41,6.3,6.3,0,0,0,0-1c0-.3-.1-.59-.16-.88a5.22,5.22,0,0,1-.11-.57,4.12,4.12,0,0,1,0-.62c0-.27,0-.55-.07-.83a5.88,5.88,0,0,1,0-.6c0-.28,0-.57-.06-.87l-.15-1.45a5.38,5.38,0,0,0-.29-1.17c0-.09-.07-.19-.09-.26,0-.29-.07-.57-.11-.85s-.07-.41-.09-.58,0-.2,0-.3a4.93,4.93,0,0,0,.07-1.22,4.56,4.56,0,0,0-.33-1.25l-.08-.19c0-.2,0-.41,0-.61a8.12,8.12,0,0,0,0-.86,3,3,0,0,1,0-.42,7.27,7.27,0,0,0,0-1.07c0-.2,0-.41,0-.61s0-.58,0-.87a4.71,4.71,0,0,0-.35-1.3.57.57,0,0,0-.08-.15c0-.16,0-.34,0-.51a7.83,7.83,0,0,0,0-1,8.62,8.62,0,0,0-.11-.87c0-.2-.06-.4-.07-.6a2.36,2.36,0,0,1,0-.46,6.91,6.91,0,0,0,0-1c0-.22,0-.43,0-.65s0-.56,0-.83-.08-.62-.14-.92-.07-.37-.09-.55l-.13-1.47a9.17,9.17,0,0,0-.18-1,3.13,3.13,0,0,1-.09-.41,2.51,2.51,0,0,1,0-.27,4.36,4.36,0,0,0,.09-1.27c0-.32-.09-.62-.14-.92s-.07-.37-.09-.56a5.6,5.6,0,0,0-.29-1.19,1.77,1.77,0,0,1-.08-.25,1.09,1.09,0,0,1,0-.31,4.8,4.8,0,0,0,0-1.23,2.05,2.05,0,0,0-2.26-1.75A2,2,0,0,0,260.56,241.73Zm-34.45,22c0-.29.07-.58.09-.88a4.5,4.5,0,0,1,.08-.51,8.39,8.39,0,0,0,.13-1,2,2,0,1,0-4-.22,4.53,4.53,0,0,1-.08.49,8,8,0,0,0-.13,1c0,.23,0,.44-.07.67s-.06.54-.08.82a5.71,5.71,0,0,0,.05,1.14,3.39,3.39,0,0,1,0,.37c0,.07-.06.25-.09.39a6.54,6.54,0,0,0-.21,1.1c0,.26,0,.53,0,.8s0,.46,0,.69a6.47,6.47,0,0,0,0,1.09,2.28,2.28,0,0,1,0,.43l-.14,1.49c0,.22,0,.44-.09.67s-.08.54-.11.83-.05.45-.09.67-.08.54-.11.82,0,.57,0,.87,0,.42,0,.63a4.35,4.35,0,0,1-.1.52c-.07.32-.14.64-.18,1a7.8,7.8,0,0,0,0,1.06,2.36,2.36,0,0,1,0,.46,2.23,2.23,0,0,1-.1.43,7.1,7.1,0,0,0-.23,1c0,.24-.07.48-.1.72s-.08.51-.11.77a6.25,6.25,0,0,0,0,1,3.57,3.57,0,0,1,0,.47,2.81,2.81,0,0,1-.1.31,4.79,4.79,0,0,0-.32,1.16,5.89,5.89,0,0,0,0,1.08,3.08,3.08,0,0,1,0,.43l-.09.7c0,.26-.07.53-.11.79a5.79,5.79,0,0,1-.12.6c-.06.3-.12.58-.17.87l-.22,1.48c0,.23-.09.46-.13.68s-.11.52-.16.78-.07.57-.1.85-.05.42-.08.63a5.09,5.09,0,0,1-.14.56,7.22,7.22,0,0,0-.22.89c-.05.28-.09.56-.12.83s-.06.43-.1.64-.1.54-.15.83l-.12.67c-.06.29-.09.6-.13.9s0,.43-.09.64-.09.55-.14.83-.07.46-.11.7-.09.42-.14.63a8.63,8.63,0,0,0-.2.88c0,.2-.1.41-.15.62s-.15.58-.2.88l-.29,1.51q-.08.47-.12.93c0,.2,0,.4-.07.59s-.1.58-.14.86-.07.44-.11.66-.09.59-.13.87-.06.44-.1.64a4.74,4.74,0,0,1-.17.57,8.76,8.76,0,0,0-.25.9,2,2,0,0,0,1.57,2.36l.39,0a2,2,0,0,0,2-1.6,3.66,3.66,0,0,1,.13-.44,7.76,7.76,0,0,0,.3-1.06c.05-.27.09-.56.13-.86s.06-.44.1-.67.1-.55.14-.83.06-.46.11-.69.09-.61.12-.92,0-.41.08-.61l.28-1.53c0-.19.1-.4.15-.6s.15-.59.2-.9.09-.42.15-.63.14-.57.19-.87.09-.54.14-.81.07-.48.11-.7.1-.6.13-.9.05-.42.09-.63l.13-.72c.05-.28.09-.53.14-.78s.1-.59.14-.89.05-.41.08-.62a4.6,4.6,0,0,1,.13-.5,7.94,7.94,0,0,0,.24-1c0-.28.08-.58.12-.88s0-.42.07-.62l.12-.61c.06-.3.12-.6.17-.9l.23-1.49a5,5,0,0,1,.12-.58c.06-.3.13-.61.17-.92s.08-.56.11-.84l.09-.66a6,6,0,0,0,0-1.09,2.94,2.94,0,0,1,0-.42,1.63,1.63,0,0,1,.11-.31,5.34,5.34,0,0,0,.32-1.18,8.09,8.09,0,0,0,0-1.06,3.53,3.53,0,0,1,0-.46c0-.23.06-.45.09-.67s.09-.56.12-.84a3,3,0,0,1,.11-.43,7.13,7.13,0,0,0,.23-1.06,7.93,7.93,0,0,0,0-1.07,2.36,2.36,0,0,1,0-.46,5.27,5.27,0,0,1,.1-.52c.07-.32.14-.65.18-1s0-.61.06-.92,0-.4,0-.61.06-.43.09-.64.08-.58.11-.86.06-.43.09-.64.09-.58.11-.87l.15-1.51a5.78,5.78,0,0,0,0-1.12,3,3,0,0,1,0-.41c0-.3,0-.59.05-.89s0-.42,0-.63a1.87,1.87,0,0,1,.09-.41,6.6,6.6,0,0,0,.21-1.09,6.07,6.07,0,0,0-.06-1.19,2.26,2.26,0,0,1,0-.35C226.06,264.11,226.09,263.9,226.11,263.68Zm-11.58-19.39c0-.26.07-.53.1-.79l0-.31.05-.07a3.88,3.88,0,0,0,.47-1.2,6.6,6.6,0,0,0,.08-.91c0-.1,0-.21,0-.31s.08-.44.11-.65l.1-.56a5.55,5.55,0,0,0,.07-.94v-.15l0,0a3.71,3.71,0,0,0,.51-1.26,5,5,0,0,0,.06-1,1.13,1.13,0,0,1,0-.26c0-.27.06-.56.08-.85a2.17,2.17,0,0,1,0-.36,5.26,5.26,0,0,0,.07-.89,2,2,0,0,0,0-.25.56.56,0,0,0,0-.08,4,4,0,0,0,.42-1.17c0-.24.07-.48.09-.73s0-.33.07-.5.05-.15.08-.23a5.7,5.7,0,0,0,.26-.95c0-.27.06-.54.08-.82s0-.27,0-.41a3.91,3.91,0,0,0,0-1.14.33.33,0,0,0,0-.11,4.14,4.14,0,0,1,.09-.46c0-.25.11-.51.15-.79,0-.11.06-.22.09-.34a6.37,6.37,0,0,0,.22-.91c0-.13.06-.27.09-.4.07-.28.14-.56.19-.84a6.72,6.72,0,0,0,.05-1,2,2,0,0,1,0-.34l.19-1.24a1,1,0,0,1,.08-.25,5.49,5.49,0,0,0,.28-1c0-.26.06-.52.08-.79s0-.33.05-.49a4,4,0,0,0,0-1.22,1,1,0,0,1,0-.16c0-.13.06-.27.09-.41s.11-.53.15-.78.06-.51.09-.76l.06-.52.09-.57c0-.24.08-.48.11-.69a1.29,1.29,0,0,1,.08-.26,4,4,0,0,0,.29-1,5.83,5.83,0,0,0,0-1.37l0-.06a2,2,0,1,0-4-.15,4.3,4.3,0,0,0,0,.67c0,.16,0,.29,0,.4l-.06.14a5.53,5.53,0,0,0-.31,1.13c0,.19-.05.37-.09.58s-.07.44-.1.66-.05.44-.08.66,0,.41-.07.61-.06.31-.09.47-.12.51-.16.79a4.15,4.15,0,0,0,0,1.19l0,.16a5.53,5.53,0,0,0-.07.7c0,.17,0,.34-.05.5a2.5,2.5,0,0,1-.09.25,5.71,5.71,0,0,0-.28,1l-.18,1.25a6,6,0,0,0-.06,1,1.71,1.71,0,0,1,0,.32,3.13,3.13,0,0,1-.1.44,5.71,5.71,0,0,0-.17.8c0,.14-.07.27-.11.4a7.62,7.62,0,0,0-.2.83c0,.21-.07.39-.11.57s-.1.47-.14.7a3.85,3.85,0,0,0,0,1.14c0,.07,0,.13,0,.09,0,.27-.06.54-.08.82a2.69,2.69,0,0,1,0,.4c0,.07-.05.17-.08.25a5.06,5.06,0,0,0-.26.93c0,.24-.07.47-.09.71s0,.27-.05.39a1.17,1.17,0,0,1,0,.11,3.7,3.7,0,0,0-.42,1.16,5.26,5.26,0,0,0-.07.89c0,.11,0,.21,0,.32a6.11,6.11,0,0,0-.08.86c0,.12,0,.24,0,.35a6,6,0,0,0-.06,1v.15a3.66,3.66,0,0,0-.5,1.25,5.53,5.53,0,0,0-.08.92,1.38,1.38,0,0,1,0,.29c0,.21-.07.41-.1.62s-.07.39-.1.57a5.67,5.67,0,0,0-.09.92v.19a.16.16,0,0,1,0,.07,3.63,3.63,0,0,0-.47,1.18,6.93,6.93,0,0,0-.1.78c0,.14,0,.28-.05.43a5,5,0,0,0-.07,1c0,.07,0,.14,0,.14a1.19,1.19,0,0,1-.08.2,4.62,4.62,0,0,0-.34,1,4.54,4.54,0,0,0-.08,1,2,2,0,0,1,0,.25c0,.09-.06.17-.09.27a5.55,5.55,0,0,0-.28.89,4.85,4.85,0,0,0-.06,1.09.89.89,0,0,0,0,.13,1.89,1.89,0,0,1-.1.36,6.28,6.28,0,0,0-.23.82q-.07.34-.12.69c0,.15,0,.29-.07.42a.54.54,0,0,1-.07.13,3.83,3.83,0,0,0-.42,1.1,4,4,0,0,0-.07,1.1.89.89,0,0,0,0,.13c-.05.25-.08.5-.12.77,0,.12,0,.23,0,.35l-.06.1a4.07,4.07,0,0,0-.47,1.14,6.93,6.93,0,0,0-.1.89,3.11,3.11,0,0,1,0,.33l-.25,1.19a6.84,6.84,0,0,0-.12.79c0,.15,0,.29-.06.43s-.09.34-.13.51-.13.46-.18.69-.07.18-.11.27a6,6,0,0,0-.31.91c0,.23-.1.48-.14.72a4.8,4.8,0,0,1-.09.5c0,.12-.08.23-.12.35a5.78,5.78,0,0,0-.28.83,3.56,3.56,0,0,0-.06,1.27.41.41,0,0,0,0,.11l-.12.35c-.08.25-.16.49-.22.73,0,.08-.07.16-.11.25a5.78,5.78,0,0,0-.35.92c0,.14-.1.3-.15.46s-.16.48-.23.73a4.07,4.07,0,0,0-.1,1.23.13.13,0,0,0,0,.06l-.05.07a4.6,4.6,0,0,0-.47,1.05c-.07.24-.12.49-.17.73s-.06.33-.1.48a4.38,4.38,0,0,0-.14,1.14c0,.06,0,.11,0,.11l-.34,1.2c0,.15-.1.3-.15.45s-.18.48-.25.73-.11.31-.16.47-.17.47-.24.69a7.65,7.65,0,0,0-.18.83,2.83,2.83,0,0,1-.08.4,1.26,1.26,0,0,1-.13.26,5.63,5.63,0,0,0-.36.89,4.77,4.77,0,0,0-.17,1.1v.15a1,1,0,0,0-.08.14,3.91,3.91,0,0,0-.47,1c0,.17-.11.34-.17.51s-.16.45-.22.67a4.43,4.43,0,0,0-.18,1.05v.11l0,0a3.92,3.92,0,0,0-.62,1.14,5,5,0,0,0-.17,1.12c0,.07,0,.13,0,.13-.07.21-.13.42-.19.63s-.11.37-.17.57-.1.26-.15.38a6.77,6.77,0,0,0-.3.77l-.38,1.19a3.43,3.43,0,0,1-.16.45,5.44,5.44,0,0,0-.26.71c-.08.25-.14.51-.2.76s-.06.29-.1.43a1.66,1.66,0,0,1-.13.27,5.64,5.64,0,0,0-.37.86c-.08.25-.14.51-.2.77s-.06.28-.1.41-.13.43-.2.65l-.16.52c-.08.26-.14.53-.2.8s0,.26-.09.38-.14.45-.2.66-.09.35-.15.52a2.66,2.66,0,0,1-.16.39c-.11.25-.21.49-.3.74a3.08,3.08,0,0,1-.16.38c-.11.24-.22.49-.31.75l-.39,1.14a6.64,6.64,0,0,0-.22.85,3.38,3.38,0,0,1-.08.34c-.08.23-.15.47-.21.7s-.09.31-.14.46a5.62,5.62,0,0,0-.22.73c0,.16-.08.29-.12.42a1.2,1.2,0,0,1-.13.21,5,5,0,0,0-.44.87,2,2,0,0,0,1.17,2.59,1.93,1.93,0,0,0,.7.13,2,2,0,0,0,1.87-1.3,1.51,1.51,0,0,1,.12-.2,5.67,5.67,0,0,0,.47-.93c.08-.25.15-.5.22-.75s.08-.29.13-.43.15-.48.22-.72a4.19,4.19,0,0,1,.14-.47,7.38,7.38,0,0,0,.22-.84,2.33,2.33,0,0,1,.08-.36l.4-1.16a2.32,2.32,0,0,1,.16-.36c.11-.26.23-.52.32-.79s.1-.25.15-.37a6.2,6.2,0,0,0,.31-.77c.08-.23.14-.46.21-.69s.09-.33.14-.49.14-.53.2-.8a3.48,3.48,0,0,1,.1-.41l.18-.59.18-.58c.08-.25.14-.51.2-.77s.06-.29.1-.42a2.19,2.19,0,0,1,.13-.27,5.39,5.39,0,0,0,.37-.87c.08-.25.14-.51.2-.77s.06-.29.1-.42.11-.29.16-.44.19-.48.27-.73l.37-1.19c0-.12.1-.23.15-.35a7.14,7.14,0,0,0,.31-.81c.07-.21.13-.42.19-.64l.17-.55a4.92,4.92,0,0,0,.17-1.11v-.08s0,0,0,0a3.67,3.67,0,0,0,.63-1.17,4.73,4.73,0,0,0,.17-1c0-.08,0-.16,0-.21l.16-.49c.08-.23.16-.46.21-.63l.11-.19a4.7,4.7,0,0,0,.47-1,5,5,0,0,0,.16-1.08v-.17c0-.09.08-.17.12-.27a4.67,4.67,0,0,0,.38-.9c.07-.26.13-.54.18-.81a2.84,2.84,0,0,1,.08-.42c.05-.15.1-.3.16-.45s.17-.48.24-.73.1-.29.16-.44.18-.5.25-.75l.34-1.21a3.92,3.92,0,0,0,.13-1.14c0-.06,0-.12,0-.12.07-.25.12-.5.17-.76a3.8,3.8,0,0,0,.08-.38,1,1,0,0,1,.1-.17,4.54,4.54,0,0,0,.48-1.07,4.2,4.2,0,0,0,.1-1.25s0-.08,0-.12.08-.25.13-.37.16-.5.23-.74a1.45,1.45,0,0,1,.11-.26,4.68,4.68,0,0,0,.35-.94c0-.15.1-.3.15-.45s.16-.5.22-.75a3.55,3.55,0,0,0,.07-1.3.38.38,0,0,0,0-.1c0-.08.07-.16.1-.25a6.5,6.5,0,0,0,.28-.85c.06-.25.11-.52.15-.77s.05-.32.09-.47a1.72,1.72,0,0,1,.11-.29,6.12,6.12,0,0,0,.31-.92c0-.16.08-.32.13-.49s.13-.48.19-.73a7.9,7.9,0,0,0,.12-.83c0-.14,0-.28.06-.42l.26-1.2a5.47,5.47,0,0,0,.1-.9c0-.08,0-.16,0-.23a.41.41,0,0,1,0-.09,3.93,3.93,0,0,0,.46-1.14,6.83,6.83,0,0,0,.12-.77c0-.15,0-.3.07-.45a4.4,4.4,0,0,0,.07-1.09.45.45,0,0,1,0-.11s0,0,0-.08a4.12,4.12,0,0,0,.43-1.1c.05-.24.09-.48.12-.71s0-.33.08-.5.07-.23.11-.35a6.28,6.28,0,0,0,.23-.82,4.48,4.48,0,0,0,.07-1.1.3.3,0,0,0,0-.14,2,2,0,0,1,.1-.26,6.28,6.28,0,0,0,.27-.91,5.53,5.53,0,0,0,.09-1c0-.09,0-.17,0-.2a1.76,1.76,0,0,1,.09-.2,3.92,3.92,0,0,0,.4-2.06A1.05,1.05,0,0,1,214.53,244.29ZM204,226.76c0,.27,0,.54-.07.82s0,.43-.06.65-.08.45-.13.69l-.15.76a2.85,2.85,0,0,1-.13.48,7.48,7.48,0,0,0-.24,1c0,.26-.09.53-.12.8s-.06.45-.1.68a5.44,5.44,0,0,1-.15.54,8.46,8.46,0,0,0-.23.9,4.63,4.63,0,0,0-.06,1.25,1.21,1.21,0,0,1,0,.26c0,.21-.1.44-.15.65s-.15.53-.21.81a2.64,2.64,0,0,1-.15.45,7.79,7.79,0,0,0-.3,1c0,.21-.1.42-.16.63s-.15.55-.22.82a5,5,0,0,0-.09,1.22,2.8,2.8,0,0,1,0,.29,2.33,2.33,0,0,1-.14.33,5.37,5.37,0,0,0-.4,1.07c-.06.29-.11.56-.16.83s-.08.42-.13.65a5.1,5.1,0,0,0-.13,1.14,2.1,2.1,0,0,1,0,.36l-.35,1.45c-.06.22-.12.43-.19.63s-.17.54-.23.81-.12.43-.19.65-.17.55-.24.83-.13.6-.18.9-.07.41-.12.6a2.5,2.5,0,0,1-.18.48,10,10,0,0,0-.33,1,7.59,7.59,0,0,0-.16,1.11,3.13,3.13,0,0,1,0,.41c0,.07-.1.24-.16.37a6.83,6.83,0,0,0-.4,1.05c-.06.22-.13.46-.2.69s-.15.52-.22.78a6.37,6.37,0,0,0-.18,1.08,3.63,3.63,0,0,1,0,.39,1.35,1.35,0,0,1-.15.26,5,5,0,0,0-.52,1.17,6,6,0,0,0-.18,1.12c0,.14,0,.33,0,.38l-.19.69c-.07.26-.14.52-.22.78s-.13.38-.21.58-.21.55-.3.84c-.14.48-.29,1-.44,1.44-.07.22-.15.43-.23.65s-.19.5-.27.76-.17.58-.24.86a4.1,4.1,0,0,1-.14.53,4.48,4.48,0,0,1-.18.44,6.64,6.64,0,0,0-.36.89c-.09.29-.16.59-.23.87a3.81,3.81,0,0,1-.12.51c-.08.26-.16.55-.24.8l-.16.56c-.08.3-.15.59-.21.88a4,4,0,0,1-.11.5c-.08.25-.14.5-.2.75s-.11.4-.17.6-.13.37-.2.55-.2.5-.28.75-.13.35-.2.52a7.21,7.21,0,0,0-.3.77l-.52,1.51c-.1.29-.18.6-.26.91a6.43,6.43,0,0,1-.18.65c-.1.28-.18.57-.27.86s-.13.46-.21.68-.2.65-.29,1l-.18.59a1.4,1.4,0,0,1-.19.42,5.23,5.23,0,0,0-.48,1,2,2,0,0,0,1.23,2.55,1.91,1.91,0,0,0,.66.11,2,2,0,0,0,1.89-1.34,1,1,0,0,1,.13-.29,5.92,5.92,0,0,0,.54-1.18c.09-.25.17-.52.25-.81a7.67,7.67,0,0,1,.22-.74c.1-.28.18-.57.27-.86l.21-.69a8.19,8.19,0,0,0,.28-1c.05-.19.1-.38.16-.56l.53-1.54a4.78,4.78,0,0,1,.19-.48,9.14,9.14,0,0,0,.33-.87c.06-.16.12-.32.19-.49s.22-.56.31-.85l.21-.77c0-.2.1-.4.16-.61s.14-.54.2-.83.07-.36.13-.55l.17-.6c.07-.24.14-.49.22-.74s.14-.52.2-.78.08-.39.14-.58a3.29,3.29,0,0,1,.17-.39c.13-.3.27-.61.37-.91s.14-.52.21-.78a5.66,5.66,0,0,1,.15-.59c.06-.19.14-.38.21-.58s.22-.58.31-.88c.15-.48.31-1,.45-1.47.06-.19.13-.36.2-.54s.23-.61.32-.91l.24-.85.18-.65a6,6,0,0,0,.18-1.13c0-.14,0-.33,0-.36a2.2,2.2,0,0,1,.15-.26,5.52,5.52,0,0,0,.53-1.2,6.54,6.54,0,0,0,.18-1.08,2.12,2.12,0,0,1,0-.44c.06-.23.13-.43.19-.65l.24-.83a3.72,3.72,0,0,1,.16-.37,5.94,5.94,0,0,0,.4-1.06,5.69,5.69,0,0,0,.16-1.11,3.23,3.23,0,0,1,.05-.42,4.43,4.43,0,0,1,.17-.47,10,10,0,0,0,.34-1q.1-.45.18-.9a6,6,0,0,1,.12-.61c0-.21.12-.43.18-.64s.17-.56.24-.84.12-.39.18-.58.18-.58.25-.87l.36-1.47a5.26,5.26,0,0,0,.13-1.16,2.31,2.31,0,0,1,0-.37c.07-.28.12-.56.17-.85l.12-.62a2.33,2.33,0,0,1,.14-.33,5,5,0,0,0,.41-1.11,5.22,5.22,0,0,0,.1-1.24,2.8,2.8,0,0,1,0-.29,6.06,6.06,0,0,1,.16-.61c.08-.28.16-.57.22-.86a4,4,0,0,1,.15-.45,7,7,0,0,0,.31-1c0-.2.09-.4.15-.61s.15-.58.21-.87a4.92,4.92,0,0,0,.07-1.28c0-.1,0-.2,0-.26a4.26,4.26,0,0,1,.15-.54c.09-.32.18-.63.24-.94s.09-.6.13-.9l.09-.61a4.1,4.1,0,0,1,.14-.5,9,9,0,0,0,.25-1c0-.21.08-.42.12-.63s.12-.59.16-.88.08-.66.1-1a4.89,4.89,0,0,1,0-.55,2,2,0,0,0-4-.54Zm61.11-24.63c0-.39-.08-.8-.15-1.21a5.78,5.78,0,0,0-.21-.87l-.09-.29a2.66,2.66,0,0,1,0-.28,4,4,0,0,0-.19-.9,5.14,5.14,0,0,0-.38-.82l-.13-.27a7.63,7.63,0,0,0-.48-.84l-.13-.21a6.83,6.83,0,0,0-.6-.81l-.14-.17-.17-.24a3.79,3.79,0,0,0-.64-.78,5.88,5.88,0,0,0-1.17-.81,4.33,4.33,0,0,0-1.44-.56,3.83,3.83,0,0,0-1.73.14,3.63,3.63,0,0,0-1.44.93,4.77,4.77,0,0,0-1,1.2,5.92,5.92,0,0,0-.61,1.3,7.71,7.71,0,0,0-.32,1.19,5.49,5.49,0,0,0-.06,1v.29a10.33,10.33,0,0,0,0,1.24v.32a7.81,7.81,0,0,0,.06.9,4.52,4.52,0,0,0,.27.89,1.16,1.16,0,0,1,.1.28,2.47,2.47,0,0,1,.06.29,3.83,3.83,0,0,0,.19.87,10.07,10.07,0,0,0,.41.95l.07.15a5,5,0,0,0,.48.79l.16.24c0,.08.09.17.14.26a4.06,4.06,0,0,0,.49.81,8.17,8.17,0,0,0,.95,1,5.42,5.42,0,0,0,1.07.8,4.34,4.34,0,0,0,1.5.44,5.29,5.29,0,0,0,.79.08,3.28,3.28,0,0,0,.91-.13,4.12,4.12,0,0,0,1.53-1,4.51,4.51,0,0,0,1-1.1,4.84,4.84,0,0,0,.42-1.06l.08-.24a7.75,7.75,0,0,0,.27-1.27c0-.08,0-.17.07-.26a4,4,0,0,0,.17-1,5.72,5.72,0,0,0,0-.92Zm-8.88,11.77a6.21,6.21,0,0,0-.35-1.12,5.69,5.69,0,0,0-.65-1.16,3.92,3.92,0,0,0-1.12-1,3.27,3.27,0,0,0-1.66-.52h-.15a3.13,3.13,0,0,0-1.58.38,4.09,4.09,0,0,0-1.16,1,4.24,4.24,0,0,0-.57.93l-.1.2a6.62,6.62,0,0,0-.48,1.13,7.58,7.58,0,0,0-.26,1.15A10,10,0,0,0,248,216a2.13,2.13,0,0,1,0,.27,4.41,4.41,0,0,0,0,.9,6,6,0,0,0,.2,1l0,.13a7.35,7.35,0,0,0,.4,1.17,5.68,5.68,0,0,0,.69,1.12l.1.13a3.3,3.3,0,0,0,1,1,3.35,3.35,0,0,0,1.69.49h.09a3.23,3.23,0,0,0,1.61-.45,4.35,4.35,0,0,0,1.12-1l.11-.13a4.23,4.23,0,0,0,.68-.93,7.13,7.13,0,0,0,.45-1.14l.06-.17a9.24,9.24,0,0,0,.26-1,8.84,8.84,0,0,0,.08-1.17,4.81,4.81,0,0,0-.07-.91l0-.25A8.12,8.12,0,0,0,256.21,213.9Zm-7-16.45a1.22,1.22,0,0,1-.1-.24,6.36,6.36,0,0,0-.58-1.25,4.43,4.43,0,0,0-1-1.16,4.22,4.22,0,0,0-3.2-.93,4.11,4.11,0,0,0-1.43.62,6.19,6.19,0,0,0-1.1.86l-.19.16a4.66,4.66,0,0,0-.74.74,4.43,4.43,0,0,0-.47.8,2.59,2.59,0,0,1-.14.29c0,.08-.1.15-.15.23a3.93,3.93,0,0,0-.48.81,5.39,5.39,0,0,0-.28.83c0,.11,0,.21-.09.32a7.18,7.18,0,0,0-.19.83c0,.11,0,.22-.06.33s-.06.19-.09.29a4.56,4.56,0,0,0-.24.88c0,.31,0,.62-.05.92v.31c0,.42,0,.83,0,1.23a5.48,5.48,0,0,0,.17,1l.05.25c0,.1,0,.2,0,.3a4.4,4.4,0,0,0,.19,1,7.07,7.07,0,0,0,.58,1.11l.08.12a4.7,4.7,0,0,0,1,1.14,3.92,3.92,0,0,0,1.61.78,4.07,4.07,0,0,0,1.1.18,2.94,2.94,0,0,0,.51-.05,4.35,4.35,0,0,0,1.45-.59l.11-.05a5.66,5.66,0,0,0,1-.74,7.41,7.41,0,0,0,.84-1,4.21,4.21,0,0,0,.47-.82c.05-.09.09-.18.16-.3a9.23,9.23,0,0,0,.53-1l.12-.25a8,8,0,0,0,.35-.85l.08-.25a8.54,8.54,0,0,0,.27-.9,6.82,6.82,0,0,0,.13-.89l0-.31a10.2,10.2,0,0,0,.1-1.21l0-.33a5.38,5.38,0,0,0,0-.91,11.53,11.53,0,0,0-.18-1.26A4.92,4.92,0,0,0,249.21,197.45Zm52.62,109.09-.19,0A8.37,8.37,0,0,0,300,307a6.17,6.17,0,0,0-1.1.57l-.29.17-.24.13a9.4,9.4,0,0,0-1,.6l-.27.15a5,5,0,0,0-.94.59,8.72,8.72,0,0,0-.71.64c-.1.09-.19.19-.29.27s-.14.11-.21.17a5.93,5.93,0,0,0-.88.76,3.72,3.72,0,0,0-.71,1.21l0,.09-.17.19c-.2.22-.4.46-.57.68a.81.81,0,0,1-.16.16,5.51,5.51,0,0,0-.7.8c-.08.12-.17.23-.25.33s-.34.45-.49.68a3.67,3.67,0,0,0-.5,1.18,4,4,0,0,0-.78.89c-.14.23-.26.45-.38.67s-.13.26-.2.37a4.33,4.33,0,0,0-.48,1.11l0,.09c-.19.29-.37.55-.52.76l-.16.19a6.17,6.17,0,0,0-.72.93,4.09,4.09,0,0,0-.48,1.35.36.36,0,0,1,0,.1l-.14.18a7.23,7.23,0,0,0-.58.85c-.14.27-.26.55-.38.84,0,.09-.07.19-.11.28l-.08.07a4.33,4.33,0,0,0-.85,1,4.28,4.28,0,0,0-.44,1.18s0,.09,0,.14-.18.25-.27.38a5.74,5.74,0,0,0-.35.47l-.11.08a4.52,4.52,0,0,0-.86.85,5.7,5.7,0,0,0-.45.71,2.68,2.68,0,0,1-.18.28,4,4,0,0,1-.42.4l-.4.37a5.43,5.43,0,0,0-.59.68,1.12,1.12,0,0,1-.18.21,5.73,5.73,0,0,1-.74.52,4.57,4.57,0,0,1-.71.26l-.18.06a3.83,3.83,0,0,1-.53.07l-.78.08a2.7,2.7,0,0,1-.58,0,8.3,8.3,0,0,0-.87.05l-.19,0c-.29,0-.56-.12-.83-.18l-.28-.06a1.75,1.75,0,0,1-.24-.11,5.79,5.79,0,0,0-1-.37c-.49-.12-1-.21-1.45-.29l-.17,0a7.39,7.39,0,0,0-1.51-.14,6.31,6.31,0,0,0-1.61.28l-.18.05-.24.05a5.09,5.09,0,0,0-1.47.47,11.4,11.4,0,0,0-1.43.88,4.94,4.94,0,0,0-.86.85,1.86,1.86,0,0,1-.23.26l-.23.2a7.56,7.56,0,0,0-.9.86,4.55,4.55,0,0,0-.61.93c-.05.08-.09.17-.15.26s-.2.21-.3.34-.4.42-.58.65-.31.39-.47.59l-.35.42-.35.44c-.14.19-.29.38-.44.55a1.81,1.81,0,0,1-.21.18,5.32,5.32,0,0,0-.74.67c-.15.16-.31.32-.47.47l-.4.39a5,5,0,0,0-.66.88.41.41,0,0,0-.06.11l-.24.23c-.21.19-.42.39-.64.57a1.38,1.38,0,0,1-.34.18l-.66.41a2,2,0,0,1-.33.16,5.52,5.52,0,0,0-.69.34c-.14.07-.28.16-.41.24s-.35.21-.55.3l-.6.3-.37.18a5.45,5.45,0,0,0-.76.3l-.18.09h-.09a4,4,0,0,0-1.09-.07,5.7,5.7,0,0,0-1,.18l-.09,0h0a4.48,4.48,0,0,0-1.05-.3l-.37-.06a4.51,4.51,0,0,1-.72-.12,7,7,0,0,0-.8-.13l-.2,0-.14-.1a4.74,4.74,0,0,0-.77-.54c-.27-.15-.55-.36-.89-.59l-.11-.08c-.26-.19-.52-.37-.77-.59L243,343c-.11-.14-.23-.27-.35-.4a4.86,4.86,0,0,0-.86-.69l-.14-.09-.27-.34A4.11,4.11,0,0,1,241,341a1.45,1.45,0,0,1-.11-.26,6.6,6.6,0,0,0-.39-.84c-.2-.34-.39-.69-.56-1a7.74,7.74,0,0,0-.43-.73,1.92,1.92,0,0,1-.18-.31,3.37,3.37,0,0,1-.15-.48c-.06-.22-.12-.44-.19-.65s-.07-.25-.1-.38a6.38,6.38,0,0,0-.29-1l-.15-.41a9.61,9.61,0,0,0-.36-.94,4.94,4.94,0,0,0-.69-1.08l-.13-.16a10,10,0,0,0-.54-.89c-.08-.12-.16-.24-.23-.37a2.09,2.09,0,0,1-.14-.3,5.45,5.45,0,0,0-.54-1,11.12,11.12,0,0,0-.72-.94l-.17-.2-.1-.2a4.42,4.42,0,0,0-.79-1.2,7.33,7.33,0,0,0-1-.78l-.29-.21a7.2,7.2,0,0,0-1.06-.69l-.31-.18a5.37,5.37,0,0,0-1.59-.63l-.23-.06-.2-.1a3.86,3.86,0,0,0-1.68-.53,5.66,5.66,0,0,0-1.39.11c-.12,0-.24,0-.37.06l-1.07.14-.43.06a6.25,6.25,0,0,0-.84.17l-.34.08-.16-.05a5.6,5.6,0,0,0-1-.21l-.6,0a3.89,3.89,0,0,1-.49,0,4.58,4.58,0,0,0-.9-.09H220l-.15-.1a7.24,7.24,0,0,0-.71-.41c-.22-.1-.45-.18-.67-.27a.88.88,0,0,0-.19,0c-.08-.07-.15-.17-.22-.24l-.43-.47a7.45,7.45,0,0,0-.67-.53l-.14-.1-.16-.31-.3-.56-.19-.31c-.13-.21-.27-.44-.38-.66l-.07-.11,0-.07a8.26,8.26,0,0,0-.5-1.07,13.78,13.78,0,0,0-.76-1.16l-.16-.22a11.77,11.77,0,0,0-.93-1.16l-.11-.13a11.3,11.3,0,0,0-1-1l-.22-.2c-.1-.09-.19-.19-.29-.29a7.1,7.1,0,0,0-1-.87,10.08,10.08,0,0,0-1.38-.83l-.11-.07a11.84,11.84,0,0,0-1.62-.71,10.68,10.68,0,0,0-1.74-.43l-.33-.06a7.15,7.15,0,0,0-1.47-.2,8,8,0,0,0-1.8.16,8.81,8.81,0,0,0-1.48.39l-.51.16a7.76,7.76,0,0,0-1.37.52,9.83,9.83,0,0,0-1.22.72l-.25.16c-.13.09-.28.17-.43.26l-.75.47a6.75,6.75,0,0,0-.57.41,4.87,4.87,0,0,1-.47.32,7.67,7.67,0,0,1-.84.46l-.23.12a8.62,8.62,0,0,1-1,.44,3.54,3.54,0,0,1-.72.11l-.51.06a7.43,7.43,0,0,1-1,.08c-.45,0-.93,0-1.38-.09a6.89,6.89,0,0,1-.82-.22l-.48-.14a7.88,7.88,0,0,1-1.22-.41,4.06,4.06,0,0,1-.94-.58l-.28-.22a10,10,0,0,1-.79-.67c-.32-.28-.62-.59-.92-.89l-.08-.09c-.18-.18-.35-.38-.52-.58l-.41-.47-.26-.29c-.24-.26-.47-.51-.69-.78s-.33-.42-.49-.63l-.38-.51c-.18-.22-.37-.45-.57-.66s-.26-.29-.38-.44l-.51-.73-.33-.48c-.13-.19-.25-.39-.37-.58s-.27-.44-.42-.66l-.44-.67-.37-.57c-.17-.26-.36-.5-.55-.75s-.24-.3-.35-.46-.2-.34-.3-.51-.3-.54-.47-.79l-.49-.72-.37-.54c-.17-.27-.37-.52-.56-.77s-.25-.3-.36-.47l-.88-1.26s-.18-.28-.47-.76c-.15-.24-.34-.52-.55-.88l-.71-1.19-.88-1.44c-.33-.52-.65-1.07-1.07-1.64l-.61-.85-.69-.88a19.2,19.2,0,0,0-1.66-1.8c-.29-.26-.54-.45-.82-.67l-.4-.32-.05,0-.13-.11,0,0-.15-.09-.31-.19a6.64,6.64,0,0,0-2.6-.91,5.61,5.61,0,0,0-1.23-.06l.1-.15c.06-.06.07,0,.09-.07l.35-.38a7.24,7.24,0,0,0,.47-.66c.31-.54.57-1,.85-1.56l.06-.07.13-.18.28-.37.63-.84.89-1.61.14-.27.05-.1.1-.21c.1-.23.19-.48.27-.72l.12-.34.06-.14.91-1.5,1-1.57.47-.79.26-.43.13-.22,0,0h0c0-.06.07-.16.07-.17l.05-.1.33-.82c.1-.24.15-.44.29-.72l.41-.78.2-.4.07-.14.06-.07.51-.76a8.11,8.11,0,0,0,.56-.89l.36-.79.19-.39.09-.2,0-.1.1-.23v0l0-.05.07-.2a1,1,0,0,0,.09-.27l.1-.37.07-.31.07-.26s0,0,0,0c.27-.49.55-1,.81-1.46s.47-1,.7-1.5l.71-1.45.09-.17h0l.2-.29.46-.72.27-.42.12-.21,0,0a1.87,1.87,0,0,0,.08-.21s0,0,0,0v0l0-.09c.07-.24.15-.47.22-.71l.17-.56c.06-.21.17-.45.25-.66s.17-.45.26-.66l.13-.33v0l.06-.09c.15-.28.14-.17.2-.28a6.12,6.12,0,0,0,.57-.85l.16-.29,0,0a.08.08,0,0,1,0,0c0-.07.08-.2.08-.21v0l0-.08.1-.31.11-.53.06-.37c0-.07,0-.17,0-.2a.06.06,0,0,0,0,0,.88.88,0,0,1,.13-.22c.06-.05,0,0,.21-.27l.22-.34a3.38,3.38,0,0,0,.27-.5,21,21,0,0,0,.65-2.3c.16-.59.3-1.14.43-1.63s.29-1,.4-1.37l0-.12,0-.06c0-.08.07-.17.11-.25l.19-.44.39-1a2.11,2.11,0,0,0,.14-.92c.17-.5.33-1,.48-1.51a7.87,7.87,0,0,1,.35-.8,9.68,9.68,0,0,0,.63-1.5c.14-.49.23-1,.32-1.4s.13-.69.23-1,.24-.72.36-1.08.3-.84.43-1.26l.3-1c.13-.45.26-.9.4-1.35a6,6,0,0,1,.36-.75,7.52,7.52,0,0,0,.69-1.5c.14-.41.29-.82.44-1.25s.26-.69.38-1a9.51,9.51,0,0,0,.33-1.62,5,5,0,0,1,.14-.8c.15-.4.27-.82.39-1.25a11,11,0,0,1,.34-1.07,8,8,0,0,1,.48-1c.21-.39.41-.78.59-1.2s.36-.72.55-1.08.37-.69.54-1,.27-.59.4-.89.38-.85.6-1.25a8.11,8.11,0,0,0,.58-1.49,4.51,4.51,0,0,1,.28-.73,9.9,9.9,0,0,1,.89-1.13l.53-.61a11,11,0,0,0,.69-1,7.61,7.61,0,0,1,.65-.85c.09-.06.39-.18.59-.27a6.62,6.62,0,0,0,1.5-.76,7.13,7.13,0,0,1,1.14-.66l.83-.45a6.84,6.84,0,0,0,1.34-1.09,4.89,4.89,0,0,1,.48-.43c.1,0,.42-.09.62-.13a6,6,0,0,0,2.09-.62,9.57,9.57,0,0,0,1.51-1.07c.25-.19.49-.39.76-.56a7.68,7.68,0,0,1,.75-.42,9.75,9.75,0,0,0,1.67-1,5.5,5.5,0,0,0,1.35-1.71,4.36,4.36,0,0,1,.35-.56c.21-.19.44-.36.67-.53a10.36,10.36,0,0,0,1.45-1.25c.19-.21.41-.41.63-.61A12,12,0,0,0,214,198.8c.57-.72,1.09-1.54,1.55-2.26a6.66,6.66,0,0,0,.74-1.76,4.65,4.65,0,0,1,.25-.73,4.72,4.72,0,0,1,.43-.5,6.51,6.51,0,0,0,1.19-1.58,7.35,7.35,0,0,0,.55-1.69,3.9,3.9,0,0,1,.23-.78,14.76,14.76,0,0,0,.54-1.45c.1-.31.2-.63.33-.94a7.49,7.49,0,0,1,.47-.82,11.74,11.74,0,0,0,.76-1.39c.15-.35.31-.67.48-1s.42-.85.61-1.27a12.55,12.55,0,0,0,.49-1.35c.11-.34.22-.68.36-1a4.18,4.18,0,0,1,.43-.61,7.25,7.25,0,0,0,1-1.49,8.85,8.85,0,0,0,.5-1.58,4.07,4.07,0,0,1,.23-.81,10.22,10.22,0,0,1,.55-1c.23-.38.46-.76.66-1.15s.39-.9.54-1.29a9.22,9.22,0,0,1,.41-1,4.78,4.78,0,0,1,.54-.66,8.35,8.35,0,0,0,1-1.25c.2-.34.39-.69.57-1a10.9,10.9,0,0,1,.6-1.05,10.69,10.69,0,0,1,.7-.84,12,12,0,0,0,.86-1c.23-.31.44-.61.66-.92a12,12,0,0,1,.75-1l.58-.69c.31-.39.63-.78,1-1.15s.55-.61.81-.92a9,9,0,0,1,.78-.88c.27-.25.54-.52.8-.79a10.23,10.23,0,0,1,.91-.87,4.28,4.28,0,0,1,.87-.46,11.9,11.9,0,0,0,1.2-.64l.46-.3a12.73,12.73,0,0,1,1.48-.88c.45-.22.84-.47,1.19-.68a5.42,5.42,0,0,1,.86-.49,3.32,3.32,0,0,1,.74-.08,7.47,7.47,0,0,0,1.62-.24c.4-.11.79-.26,1.18-.4a7.06,7.06,0,0,1,1-.35,11.52,11.52,0,0,0,1.3-.35,5.79,5.79,0,0,1,1-.26c.76-.08,1.55-.14,2.35-.16a3,3,0,0,1,.75.17,6.62,6.62,0,0,0,1.56.31c.33,0,.66,0,1,0a11.14,11.14,0,0,1,1.28.09,2.09,2.09,0,0,0,.9,0l.42.09.34.06.4.19a6.39,6.39,0,0,0,1.14.46c.33.08.67.14,1,.2a4.39,4.39,0,0,1,.6.11,5.88,5.88,0,0,1,.78.33c.23.1.47.21.73.31.49.19,1,.39,1.39.58a1.86,1.86,0,0,1,.26.23,5.57,5.57,0,0,0,1.05.81c.3.17.58.37.88.57l.42.29a5.25,5.25,0,0,0,1.22.58l.24.07c.23.18.48.35.73.51a4.27,4.27,0,0,1,.56.42,3.35,3.35,0,0,1,.38.45,9.58,9.58,0,0,0,.66.77,5.19,5.19,0,0,1,.44.56c.17.23.35.47.55.7s.33.36.5.55.39.43.57.66a5.17,5.17,0,0,0,1,1c.09.07.19.13.23.17a4.88,4.88,0,0,1,.31.55c.15.31.32.61.5.91a7.18,7.18,0,0,0,.77.93l.2.22s0,.07,0,.11a4.19,4.19,0,0,0,.44,1.66c.09.18.16.38.24.58s.24.62.38.92a4.14,4.14,0,0,0,1.06,1.29,4.09,4.09,0,0,0,.26,1.71,6.69,6.69,0,0,0,.59,1.06c.09.12.21.32.24.37s.05.27.07.41a6.24,6.24,0,0,0,.29,1.25,4,4,0,0,0,1.12,1.52l0,0c0,.08,0,.17,0,.24a7.38,7.38,0,0,0,.26,1.23,3.15,3.15,0,0,1,.08.48,7.26,7.26,0,0,0,.24,1.18l.27.78.27.81a4.44,4.44,0,0,0,.74,1.39l.08.1s0,.07,0,.11a4.57,4.57,0,0,0,.09,1.64,5.22,5.22,0,0,0,.66,1.36,1,1,0,0,0,.13.18,7.93,7.93,0,0,0,.42,1.11,3,3,0,0,1,.19.49,2.37,2.37,0,0,1,.05.46,6.2,6.2,0,0,0,.17,1.23c.06.23.09.46.13.68s.11.67.19,1a9,9,0,0,0,.37,1.08c.06.16.13.31.17.45a1.94,1.94,0,0,1,0,.24,4.39,4.39,0,0,0,.06,1.59,5.07,5.07,0,0,0,.59,1.35c.06.08.11.17.13.2a3.2,3.2,0,0,1,.09.54,9.21,9.21,0,0,0,.23,1.17,7.53,7.53,0,0,0,.52,1.21c.07.14.15.27.19.36a1.51,1.51,0,0,1,0,.3,4.74,4.74,0,0,0,.35,1.58,8,8,0,0,0,.72,1.24c.09.14.18.27.26.41a3.17,3.17,0,0,1,.21.41,6.69,6.69,0,0,0,.79,1.33,7.92,7.92,0,0,0,1.2,1.15l.31.26a9.86,9.86,0,0,0,1.57,1.06l.16.09a6.42,6.42,0,0,0,1.45.58,3.22,3.22,0,0,1,.44.14,7.24,7.24,0,0,0,1.43.32l.46.07a2.11,2.11,0,0,1,.34.16,5.52,5.52,0,0,0,1.31.48c.31.06.62.12.94.16l.71.11a5.15,5.15,0,0,0,1.27.13h.29l.15.11a4.79,4.79,0,0,0,1.34.76,7.94,7.94,0,0,0,1,.24,2.61,2.61,0,0,1,.49.11,7.52,7.52,0,0,0,1.05.32,2.11,2.11,0,0,1,.41.12,11.79,11.79,0,0,1,1.15.7l.1.16a5,5,0,0,0,.92,1.17,7.87,7.87,0,0,0,.62.49,4.36,4.36,0,0,1,.52.44,6.46,6.46,0,0,0,.91.78l.27.18a6.44,6.44,0,0,1,.33.62c.13.26.26.52.4.78a3.41,3.41,0,0,1,.18.46,7.68,7.68,0,0,0,.4,1c0,.12.06.25.09.38a6.4,6.4,0,0,0,.36,1.22,4.55,4.55,0,0,0,1,1.34l.15.15c.18.47.36,1,.54,1.46a3.53,3.53,0,0,1,.14.56,7.15,7.15,0,0,0,.74,2.12,5.29,5.29,0,0,1,.25.54,2.58,2.58,0,0,1,0,.38,5.72,5.72,0,0,0,.25,1.37,5.83,5.83,0,0,0,.56,1.17,4.07,4.07,0,0,1,.21.41c.06.19.1.4.14.59a10,10,0,0,0,.28,1.11,6.44,6.44,0,0,0,.57,1.2c.08.13.19.32.2.35s0,.22,0,.34a5.12,5.12,0,0,0,.25,1.48c.12.34.25.67.37,1l.25.65a6.94,6.94,0,0,0,.58,1.16,4.34,4.34,0,0,1,.24.43,2.44,2.44,0,0,1,.07.39,5.43,5.43,0,0,0,.33,1.38,4,4,0,0,0,.74,1.13,2.11,2.11,0,0,0,.12,1.33,7.1,7.1,0,0,0,.89,1.46,4.88,4.88,0,0,1,.39.58,5.73,5.73,0,0,1,.25.79,9.82,9.82,0,0,0,.52,1.48c.22.46.46.92.69,1.37l.39.75a9.19,9.19,0,0,1,.36.86,12.26,12.26,0,0,0,.59,1.34,6.62,6.62,0,0,0,1,1.4,4.59,4.59,0,0,1,.42.51l.37.67c.26.48.51.95.78,1.41.16.27.3.55.44.83s.42.84.69,1.28c.17.26.31.54.46.81a12.56,12.56,0,0,0,.71,1.27,8.29,8.29,0,0,0,1,1.23,7.74,7.74,0,0,1,.53.63,7.39,7.39,0,0,1,.39.72,9.18,9.18,0,0,0,.79,1.38,8.14,8.14,0,0,0,1.18,1.22,5.23,5.23,0,0,1,.52.49,5.53,5.53,0,0,1,.37.65,7.84,7.84,0,0,0,.87,1.41,11,11,0,0,0,1.23,1.23,7.59,7.59,0,0,1,.69.64,5.94,5.94,0,0,1,.61,1c.17.29.34.58.52.85A9.87,9.87,0,0,0,337,272a18.71,18.71,0,0,0-1.56,1.64,46.38,46.38,0,0,0-2.83,3.74l-1.28,2-1.21,1.92c-.73,1.25-1.38,2.44-1.95,3.44l-1.1,2a2.16,2.16,0,0,0-.64.7,5.58,5.58,0,0,0-.37.87,1.57,1.57,0,0,1-.09.23,3.28,3.28,0,0,1-.2.31,6.15,6.15,0,0,0-.45.68,2.27,2.27,0,0,1-.18.25,6.27,6.27,0,0,0-.5.73l-.25.4c-.13.19-.26.39-.38.59a4.16,4.16,0,0,0-.42,1.09l0,.12c-.12.2-.22.41-.32.62a3.17,3.17,0,0,1-.16.32c0,.06-.1.12-.15.18a4.91,4.91,0,0,0-.6.76c-.12.19-.23.38-.34.58s-.11.21-.18.31l0,0a4,4,0,0,0-.87.91,5.24,5.24,0,0,0-.43.77,2.1,2.1,0,0,1-.13.26,5.53,5.53,0,0,0-.42.71,1.69,1.69,0,0,1-.17.29,5.35,5.35,0,0,0-.47.83l0,.06a3.83,3.83,0,0,0-1,.87,5.29,5.29,0,0,0-.49.77l-.12.22-.3.37-.46.57a7.4,7.4,0,0,0-.51.7.77.77,0,0,1-.1.18l-.05,0a4,4,0,0,0-1,.74l-.44.51c-.1.12-.2.24-.31.35a5.36,5.36,0,0,0-.64.74l-.08.12-.14.06a5.85,5.85,0,0,0-.83.47,5.54,5.54,0,0,0-.64.54l-.14.14a1.29,1.29,0,0,1-.28.08c-.23.09-.47.16-.69.25a7.28,7.28,0,0,0-.79.44l-.11.08-.34,0-.52.05h-.11l-.66.06-.07,0a4.62,4.62,0,0,0-.94-.32,4.36,4.36,0,0,0-.95-.09h-.23c-.27-.07-.56-.13-.86-.18L305,307l-.13-.07a3.89,3.89,0,0,0-1.37-.46A5.53,5.53,0,0,0,301.83,306.54Zm-145.29-18-.2.87-.17,1.15-.07.87s0,0,0,0a1.6,1.6,0,0,1-.11.29l-.1.28c0,.15-.1.29-.14.44a2.52,2.52,0,0,0-.11.58l0,.1v.06c0,.57,0,.18,0,.31v0l0,.31.09.62.05.29.06.22.1.41.25,1a7.33,7.33,0,0,0,.31.89l.14.39,0,.09v0l0,0,0,.07.07.13.15.26.3.51a4.07,4.07,0,0,0,.25.35,3.07,3.07,0,0,1,.6,1.12l.17.35.09.18.06.09.1.16.06.07,0,.05a1.33,1.33,0,0,0,.16.2l0,0,.71.67.59.5.14.13.26.2a3.6,3.6,0,0,0,.48.32l.37.21.22.11.29.18,0,0,.06.05.19.17.29.29c.13.11.3.28.41.36l.28.21,0,0,.15.1h0l.1.05.2.09.4.18c.29.14.47.2.67.29l.31.12.05,0,.12.08.52.32.54.31.13.07.06,0,0,0,.2.09.48.16c.18.06.29.06.41.1l.34.06a1.52,1.52,0,0,1,.39.07l.14,0h0l.22.09.49.2.48.18.23.09.12,0,.21.06h.09c.62.13,1.24.23,1.7.35a3.2,3.2,0,0,1,.49.17l.56.21a2.3,2.3,0,0,0,.36.09l.15,0h0l.19,0h.66l.39,0,.38.59c.11.16.22.33.32.5s.34.54.51.79l.3.43c.2.29.39.57.6.85a8.37,8.37,0,0,0,.66.79c.12.13.24.26.36.41s.22.29.32.44.42.55.64.81.53.62.8.91l.25.29c.12.12.23.25.34.38s.47.54.73.82l.08.08c.35.35.71.71,1.08,1.05s.65.56,1,.84l.26.21a8.89,8.89,0,0,0,1.82,1.13,12,12,0,0,0,1.9.66l.39.12A9.5,9.5,0,0,0,189,321a14.93,14.93,0,0,0,1.9.14,10.82,10.82,0,0,0,1.59-.11l.45-.05a7.33,7.33,0,0,0,1.69-.33,12.79,12.79,0,0,0,1.51-.67l.21-.11a12.74,12.74,0,0,0,1.15-.62c.28-.18.55-.37.81-.56a4.33,4.33,0,0,1,.37-.27c.19-.14.39-.24.57-.36a5.93,5.93,0,0,0,.56-.34l.28-.19c.27-.17.53-.33.74-.44a5.63,5.63,0,0,1,.77-.27l.58-.19a7,7,0,0,1,.8-.23,7.5,7.5,0,0,1,1.09-.1,3.71,3.71,0,0,1,.62.1l.45.09a6.69,6.69,0,0,1,1.06.25,7.44,7.44,0,0,1,1,.45l.13.07a8.05,8.05,0,0,1,.87.51,4.24,4.24,0,0,1,.4.38c.15.16.29.31.45.45l.25.22c.23.23.45.43.62.62l.12.13a10.44,10.44,0,0,1,.66.83l.17.24c.18.26.37.52.53.8a4.6,4.6,0,0,1,.25.55c.08.21.17.41.26.62a2.12,2.12,0,0,0,.35.53c.07.1.12.21.19.32l.16.27a2.85,2.85,0,0,1,.16.3,6.88,6.88,0,0,0,.62,1,4.37,4.37,0,0,0,1,.93,1.56,1.56,0,0,1,.19.14,1.8,1.8,0,0,1,.19.2,4.86,4.86,0,0,0,1,.94,5.12,5.12,0,0,0,1.19.56l.28.1.18.12a4.15,4.15,0,0,0,2.48.8,2.64,2.64,0,0,1,.28,0,9,9,0,0,0,1.05.11l.38,0,.24.05a4,4,0,0,0,1.58.23,6.17,6.17,0,0,0,1.15-.2l.4-.09.48-.07.85-.12a5.59,5.59,0,0,0,.7-.09l.27,0,0,0a5.56,5.56,0,0,0,.92.4l.48.13.34.1.5.29a4,4,0,0,1,.43.26c.17.14.36.28.54.41l.3.21.06.13a4.43,4.43,0,0,0,.58,1l.25.31c.17.2.33.39.48.6a2.71,2.71,0,0,1,.13.3,8.26,8.26,0,0,0,.39.79c.11.2.24.39.36.58a3.4,3.4,0,0,1,.28.45,4.61,4.61,0,0,0,.62.9,1.06,1.06,0,0,0,.11.13,6.56,6.56,0,0,1,.23.62c.06.19.13.37.2.56a3.39,3.39,0,0,1,.11.43c.06.26.13.53.21.78s.08.27.12.4a8.86,8.86,0,0,0,.32,1,6.26,6.26,0,0,0,.55,1,3,3,0,0,1,.18.3c.21.44.45.86.69,1.29.05.08.08.18.12.26a5.29,5.29,0,0,0,.53,1.08,9.9,9.9,0,0,0,.69.88l.25.3a4.2,4.2,0,0,0,1.05.91.41.41,0,0,0,.12.07l.25.27a6.67,6.67,0,0,0,.79.83c.38.34.77.61,1.11.86l.13.09a12.68,12.68,0,0,0,1.27.83c.07,0,.13.1.19.14a4.15,4.15,0,0,0,1.18.74,4.91,4.91,0,0,0,1.3.3l.29,0a9.1,9.1,0,0,0,1.2.22l.25,0,.2.07a4.42,4.42,0,0,0,1.37.33h.15a4.7,4.7,0,0,0,1.25-.19.47.47,0,0,1,.16,0,.44.44,0,0,1,.16,0,4,4,0,0,0,1.45,0,5,5,0,0,0,1.23-.42c.09,0,.18-.09.27-.12a5.77,5.77,0,0,0,1.1-.49l.31-.15a10.43,10.43,0,0,0,1-.56l.31-.18.31-.15a5.45,5.45,0,0,0,1-.54l.31-.18a5.91,5.91,0,0,0,.95-.61c.3-.24.59-.5.87-.76l.23-.21a4.66,4.66,0,0,0,.79-1,.57.57,0,0,0,.08-.16l.33-.3c.23-.22.46-.45.67-.68a2.2,2.2,0,0,1,.23-.2,5.26,5.26,0,0,0,.81-.75l.56-.7.62-.77.52-.65c.11-.14.24-.27.35-.4a7.43,7.43,0,0,0,.53-.59,5.54,5.54,0,0,0,.57-.88l.08-.17a4.29,4.29,0,0,1,.42-.38l.39-.34c.21-.2.41-.42.6-.64a1,1,0,0,0,.13-.17,6.63,6.63,0,0,1,.82-.5,1.4,1.4,0,0,1,.34-.08l.51-.11.21-.06a3.21,3.21,0,0,1,.56-.13,3.58,3.58,0,0,1,.73.08l.2,0c.36.06.73.13,1.07.21l.23.1a5.09,5.09,0,0,0,1.05.39l.27.06c.38.09.78.19,1.18.25a5.09,5.09,0,0,0,1.3,0l.28,0a7.13,7.13,0,0,0,1.28-.09l.6-.06a6.54,6.54,0,0,0,1.46-.26l.17-.05a9,9,0,0,0,1.45-.57,12,12,0,0,0,1.38-.94,4.61,4.61,0,0,0,.91-1A1.93,1.93,0,0,1,284,334l.27-.25a8.54,8.54,0,0,0,.82-.8,5.49,5.49,0,0,0,.63-.94c.05-.07.09-.15.15-.23a.52.52,0,0,1,.11-.1,4.07,4.07,0,0,0,1-1c.08-.13.18-.25.27-.38s.38-.52.55-.78a4,4,0,0,0,.48-1.25l0-.05,0,0a4,4,0,0,0,.87-1,7.83,7.83,0,0,0,.4-.89c.05-.11.09-.23.15-.34a2.1,2.1,0,0,1,.22-.3,7.55,7.55,0,0,0,.53-.77,4,4,0,0,0,.44-1.32s0,0,0,0l.19-.21.34-.42,0,0,0,0a.39.39,0,0,1,.08-.1l0-.08c.19-.26.4-.56.62-.91a3.71,3.71,0,0,0,.47-1.07c0-.05,0-.1,0-.1.12-.2.23-.4.35-.62s.11-.22.18-.33l.07-.07a4,4,0,0,0,.79-.89,3.94,3.94,0,0,0,.47-1.16.64.64,0,0,1,0-.07c.06-.09.13-.17.2-.26l.4-.53c0-.06.11-.11.16-.16a5.81,5.81,0,0,0,.63-.7,2.37,2.37,0,0,1,.32-.37l.4-.47a4.09,4.09,0,0,0,.59-1.08.64.64,0,0,1,.17-.13c.17-.13.33-.25.47-.38l.45-.42a3.33,3.33,0,0,1,.39-.36,1.48,1.48,0,0,1,.25-.14,5.65,5.65,0,0,0,.72-.42,6.34,6.34,0,0,1,.61-.35l.29-.16.44-.25a2.9,2.9,0,0,1,.37-.22,3.45,3.45,0,0,1,.78-.2l.28-.05.32,0h0a4.76,4.76,0,0,0,1.07.42l.69.13.49.1a5.5,5.5,0,0,0,1.26.14h.12a.61.61,0,0,1,.12.05,3.88,3.88,0,0,0,1.42.38,9.69,9.69,0,0,0,1.5-.08h.1l.32,0a6.76,6.76,0,0,0,1.27-.18,4.77,4.77,0,0,0,1.24-.6,1,1,0,0,1,.16-.1,2.14,2.14,0,0,1,.27-.09,4.42,4.42,0,0,0,2.08-1.2l.17-.17.2-.09a4.63,4.63,0,0,0,1.06-.64,5.3,5.3,0,0,0,.79-.88,1.56,1.56,0,0,1,.12-.17c.23-.22.44-.47.64-.7a2.11,2.11,0,0,0,.19-.23l.09,0a3.82,3.82,0,0,0,1.09-.83,5.4,5.4,0,0,0,.59-.81,2.4,2.4,0,0,1,.18-.26l.53-.66.27-.35a4.62,4.62,0,0,0,.54-.84.22.22,0,0,0,0-.08,3.78,3.78,0,0,0,1.07-.93c.21.05.42.13.63.19l.56.15a9.88,9.88,0,0,0,1.86.41h.4a6.54,6.54,0,0,0,1.73-.27,3.17,3.17,0,0,1,.49-.12,10.17,10.17,0,0,0,2.55-.62l.35-.14a9.19,9.19,0,0,0,2-1,13.92,13.92,0,0,0,2-1.58l.23-.22a17.24,17.24,0,0,0,1.44-1.56,8.05,8.05,0,0,0,.85-1.46,5,5,0,0,1,.33-.6,13.58,13.58,0,0,0,.76-1.45l.3-.6a3.71,3.71,0,0,1,.37-.51,6.07,6.07,0,0,0,1.36-2.93c.06-.22.1-.45.18-.66.2-.51.37-1,.53-1.52l.2-.6a4.77,4.77,0,0,1,.31-.68,7.94,7.94,0,0,0,.58-1.36,7,7,0,0,0,.24-1.39,5.79,5.79,0,0,1,.1-.74c.18-.68.35-1.39.51-2.12,0-.23.12-.46.18-.7a12.42,12.42,0,0,0,.34-1.45c0-.23.1-.44.16-.66a7.47,7.47,0,0,0,.31-1.59,9.35,9.35,0,0,0-.09-1.89c0-.18,0-.35-.05-.52a7.39,7.39,0,0,0-.55-2.14c0-.12-.09-.25-.14-.37a12,12,0,0,0-1.37-2.78c-.15-.22-.29-.47-.42-.71a8.07,8.07,0,0,0-2.23-2.78,8.88,8.88,0,0,1-.75-.72,4.8,4.8,0,0,1-.37-.65,7.26,7.26,0,0,0-.8-1.32,7.52,7.52,0,0,0-1.07-1.1,6,6,0,0,1-.55-.52,5.92,5.92,0,0,1-.4-.74,11.38,11.38,0,0,0-.71-1.27,10.7,10.7,0,0,0-.89-1.08,5.29,5.29,0,0,1-.58-.68c-.19-.29-.34-.6-.51-.92s-.38-.72-.61-1.08-.33-.61-.49-.92-.37-.75-.58-1.1-.48-.85-.72-1.29l-.39-.7a6.67,6.67,0,0,0-1-1.31,3.7,3.7,0,0,1-.43-.53c-.13-.24-.26-.57-.39-.89s-.32-.82-.52-1.22l-.41-.8c-.21-.41-.43-.82-.63-1.25a4.5,4.5,0,0,1-.25-.78,9.64,9.64,0,0,0-.49-1.42,8,8,0,0,0-.84-1.34l-.08-.12a2.11,2.11,0,0,0-.06-1.5,4.65,4.65,0,0,0-1-1.34l-.11-.12a2.5,2.5,0,0,1-.05-.29,5.93,5.93,0,0,0-.3-1.3,7,7,0,0,0-.56-1.1,2.94,2.94,0,0,1-.24-.44l-.27-.7c-.11-.3-.23-.6-.32-.86s0-.23,0-.35a5.37,5.37,0,0,0-.23-1.43,6.73,6.73,0,0,0-.57-1.17,3.24,3.24,0,0,1-.21-.4,5.44,5.44,0,0,1-.15-.61,8.12,8.12,0,0,0-.27-1.08,5.76,5.76,0,0,0-.57-1.19c-.07-.14-.18-.32-.2-.38s0-.26-.05-.4a5.8,5.8,0,0,0-.24-1.38,10.17,10.17,0,0,0-.48-1.08,4.13,4.13,0,0,1-.24-.53,4,4,0,0,1-.14-.57,7.85,7.85,0,0,0-.32-1.18c-.21-.56-.41-1.12-.63-1.66a4.24,4.24,0,0,0-1.05-1.48.57.57,0,0,1-.11-.11c0-.1-.06-.22-.08-.32a5.49,5.49,0,0,0-.43-1.36,2.6,2.6,0,0,1-.18-.49,6.93,6.93,0,0,0-.53-1.27c-.1-.16-.18-.34-.27-.51a9,9,0,0,0-.68-1.21,5.23,5.23,0,0,0-1.26-1.19l-.26-.19a8.05,8.05,0,0,0-1.09-1l-.31-.23a2.13,2.13,0,0,1-.16-.25,4.36,4.36,0,0,0-1.18-1.37c-.55-.37-1.13-.73-1.69-1a5.77,5.77,0,0,0-1.44-.5,2.77,2.77,0,0,1-.41-.12,7,7,0,0,0-1.37-.38,1.8,1.8,0,0,1-.38-.07,1.1,1.1,0,0,1-.18-.14,4.29,4.29,0,0,0-1.54-.8,5.83,5.83,0,0,0-1.4-.16,2.24,2.24,0,0,1-.4,0q-.51-.1-1.05-.18l-.64-.1a1.33,1.33,0,0,1-.32-.15,5.84,5.84,0,0,0-1.31-.49l-.78-.14a2.6,2.6,0,0,1-.52-.08l-.74-.24a3.51,3.51,0,0,1-.49-.16l-.17-.1a8.09,8.09,0,0,1-.91-.59l-.41-.34a7.11,7.11,0,0,1-.58-.52c-.05-.07-.17-.32-.25-.48s-.24-.51-.38-.74-.26-.42-.4-.62-.25-.38-.33-.53,0-.15,0-.23a4.59,4.59,0,0,0-.25-1.35,7.48,7.48,0,0,0-.43-1,2.72,2.72,0,0,1-.21-.45,3.33,3.33,0,0,1-.1-.55,9.3,9.3,0,0,0-.19-1,4.67,4.67,0,0,0-.58-1.28.85.85,0,0,0-.1-.17,1.11,1.11,0,0,1,0-.17,4.43,4.43,0,0,0-.07-1.63,8.34,8.34,0,0,0-.36-1.07,5.14,5.14,0,0,1-.2-.55c-.05-.21-.08-.42-.12-.64s-.12-.7-.21-1.05a3.52,3.52,0,0,1,0-.44,6.19,6.19,0,0,0-.18-1.28,6.58,6.58,0,0,0-.42-1.13,5,5,0,0,1-.2-.49,5.09,5.09,0,0,0-.65-1.38l-.11-.15s0-.1,0-.14a3.85,3.85,0,0,0-.86-3.11l-.14-.2-.3-.9c-.08-.22-.15-.44-.23-.67s-.05-.29-.08-.47a7.17,7.17,0,0,0-.26-1.25c0-.07-.05-.28-.07-.43a6.3,6.3,0,0,0-.28-1.29,3.79,3.79,0,0,0-1.14-1.58.1.1,0,0,0-.05,0l0-.23A6.55,6.55,0,0,0,284,173a7,7,0,0,0-.63-1.15l-.17-.25s0-.08,0-.12a3.94,3.94,0,0,0-.3-1.84,4.08,4.08,0,0,0-1.13-1.41l-.13-.11c-.06-.14-.11-.28-.16-.42a9,9,0,0,0-.4-1,1.23,1.23,0,0,1,0-.19,4.17,4.17,0,0,0-.49-1.74,5.43,5.43,0,0,0-.88-1.11l-.27-.31c-.11-.18-.2-.36-.3-.54a8.82,8.82,0,0,0-.61-1.07,5.08,5.08,0,0,0-1.14-1.11l-.22-.16a10.85,10.85,0,0,0-.83-1l-.39-.44c-.13-.15-.24-.31-.36-.47a10.45,10.45,0,0,0-.8-1c-.13-.15-.24-.28-.35-.43a7.55,7.55,0,0,0-.89-1,10.17,10.17,0,0,0-1.06-.8,5.33,5.33,0,0,1-.46-.32,4.81,4.81,0,0,0-1.44-.74,2,2,0,0,1-.28-.11L270,154c-.39-.26-.78-.53-1.17-.75a2.73,2.73,0,0,1-.25-.23,5,5,0,0,0-1.3-.94c-.56-.26-1.13-.49-1.74-.74-.19-.07-.36-.15-.54-.23-.35-.15-.75-.33-1.2-.48a7.86,7.86,0,0,0-1.26-.28,5,5,0,0,1-.56-.11,2.66,2.66,0,0,1-.37-.17,6.08,6.08,0,0,0-1.37-.51l-.33-.07c-.47-.11-1-.22-1.46-.3a2.07,2.07,0,0,0-1.08.09l-.88,0c-.27,0-.54,0-.81,0a4.59,4.59,0,0,1-.65-.16,6.66,6.66,0,0,0-2.06-.34c-.93,0-1.84.09-2.72.19a10.1,10.1,0,0,0-1.78.43c-.28.09-.57.18-.85.24a10.59,10.59,0,0,0-1.72.54c-.28.1-.56.21-.84.29a3.77,3.77,0,0,1-.69.07,6.68,6.68,0,0,0-2,.36,8.66,8.66,0,0,0-1.64.87,6.38,6.38,0,0,1-.75.44,16.22,16.22,0,0,0-2,1.16l-.42.27a7,7,0,0,1-.73.37,8.55,8.55,0,0,0-1.68,1,12.77,12.77,0,0,0-1.35,1.25c-.2.22-.41.43-.62.63a10.77,10.77,0,0,0-1.19,1.31c-.2.23-.39.47-.6.69-.44.46-.83.94-1.2,1.39l-.51.63c-.4.46-.73.95-1,1.37-.17.26-.34.51-.53.75s-.42.5-.63.74a11,11,0,0,0-1.05,1.29,14.2,14.2,0,0,0-.86,1.46c-.14.27-.29.55-.45.81a4.19,4.19,0,0,1-.49.6,7.7,7.7,0,0,0-1.11,1.48,11.46,11.46,0,0,0-.65,1.49c-.12.3-.23.6-.37.89s-.33.58-.5.86-.52.87-.76,1.38a7.83,7.83,0,0,0-.53,1.65,4.38,4.38,0,0,1-.23.8,3.51,3.51,0,0,1-.43.6,7.19,7.19,0,0,0-1,1.54c-.21.49-.37,1-.51,1.4a10.09,10.09,0,0,1-.34,1c-.16.34-.33.69-.5,1s-.41.81-.59,1.23a9,9,0,0,1-.49.86,12.25,12.25,0,0,0-.72,1.32,12.37,12.37,0,0,0-.51,1.37,7.84,7.84,0,0,1-.34,1,7.61,7.61,0,0,0-.51,1.62,5.09,5.09,0,0,1-.22.75,4.32,4.32,0,0,1-.47.56,6.56,6.56,0,0,0-1.06,1.36,8.36,8.36,0,0,0-.62,1.58,3.2,3.2,0,0,1-.23.67,20.76,20.76,0,0,1-1.3,1.89,7.38,7.38,0,0,1-.84.84c-.32.29-.64.58-.92.89a7.57,7.57,0,0,1-.86.71c-.32.25-.68.52-1,.83a6.53,6.53,0,0,0-1.16,1.58c-.1.17-.25.43-.28.47a6.74,6.74,0,0,1-1,.57,11.63,11.63,0,0,0-1.15.65c-.38.25-.73.52-1.08.8a10,10,0,0,1-.89.66,4.66,4.66,0,0,1-.68.14,6.15,6.15,0,0,0-1.77.47,6.06,6.06,0,0,0-1.69,1.27,3.9,3.9,0,0,1-.46.42l-.69.37a13.74,13.74,0,0,0-1.66,1,3.83,3.83,0,0,1-.59.27,5.93,5.93,0,0,0-1.89,1.09,9.25,9.25,0,0,0-1.28,1.58c-.15.22-.3.44-.47.65l-.44.51a12.73,12.73,0,0,0-1.32,1.69,7.46,7.46,0,0,0-.71,1.7,5.84,5.84,0,0,1-.28.75c-.27.5-.5,1-.74,1.54-.11.26-.23.53-.36.8s-.28.55-.43.83c-.25.45-.5.92-.73,1.45-.12.29-.27.57-.42.85a13.12,13.12,0,0,0-.7,1.45,13.65,13.65,0,0,0-.47,1.46c-.09.32-.18.65-.3,1a8,8,0,0,0-.36,1.71,5,5,0,0,1-.14.79c-.11.32-.22.64-.34,1s-.34.93-.49,1.41a5.34,5.34,0,0,1-.36.73,7.83,7.83,0,0,0-.71,1.56c-.15.46-.28.94-.42,1.41l-.29,1c-.1.36-.23.71-.36,1.06s-.3.85-.43,1.29-.24,1-.33,1.42-.13.67-.22,1a7.87,7.87,0,0,1-.37.85,9.62,9.62,0,0,0-.6,1.43c-.15.5-.31,1-.47,1.49l-.28.83a2.43,2.43,0,0,0-.09.79l-.16.38-.12.25,0,.07v0l-.06.14,0,.15c-.12.4-.26.85-.42,1.36s-.33,1.14-.52,1.79-.29,1.1-.46,1.71h0l-.11.14s-.3.41-.48.68-.11.2-.17.3l-.08.13v0l-.11.23v0l0,.13c-.05.18-.11.36-.16.55s0,.27-.08.4l-.05.25v.11l-.07.22a1.83,1.83,0,0,1-.18.24,8.25,8.25,0,0,0-.58.84l-.08.15,0,0-.11.2v0l0,.08-.13.31c-.08.23-.17.45-.26.67s-.19.43-.27.69-.18.56-.28.84-.15.48-.23.72l-.06.08-.16.23-.39.56-.21.33-.16.29,0,.09-.09.17-.71,1.42-.68,1.47-.82,1.46c-.09.21-.2.51-.29.76s-.09.37-.13.56l0,.12a.06.06,0,0,0,0,0s0,.06,0,.14l-.08.2,0,0h0a0,0,0,0,1,0,0l0,.1-.17.4-.36.79a4,4,0,0,1-.39.59l-.47.69-.06.11,0,0-.11.19,0,.05-.1.2-.2.4-.4.78c-.13.28-.27.65-.4,1l-.34.86-.79,1.34L163,276l-1,1.64c-.07.15-.23.48-.31.7l-.18.53a.66.66,0,0,0,0,.15l-.1.2,0,.11v0h0v.05h0l-.75,1.45-.47.62-.27.38-.13.17-.07.1,0,.05-.15.24-.82,1.59s0,0,0,.08l-.26.3c-.17.2-.37.43-.5.62l-.12.19-.06.1,0,.05-.12.22v0l-.38,1.06-.14.43-.07.21,0,.11,0,.05v0Zm3.35,4.17a5.06,5.06,0,0,0,.2-.83l0-.27s0-.07.07-.08a1.47,1.47,0,0,1,.61-.26,2.44,2.44,0,0,1,1,.08,3.81,3.81,0,0,1,1.1.52l.12.09h0l0,0,.39.34c.24.24.53.48.74.7.35.43.7.73,1.07,1.26l.55.74c.18.26.35.51.51.76.67,1,1.31,2,1.86,2.9.27.44.55.85.79,1.21s.46.68.65.95.18.23.25.34a2.41,2.41,0,0,0,.27.53l.84,1.2c.16.24.34.46.51.69s.26.33.38.5l.4.59,0,.05-1.2-.28-.76-.31-.49-.22-.25-.12-.38-.11a4.83,4.83,0,0,0-.72-.17l-.23-.05-.16,0H168l-.13-.08-.53-.33-.55-.36-.14-.1,0,0-.14-.07-.07,0-.3-.13-.55-.25-.22-.1-.11-.05,0,0-.22-.18c-.07-.06-.06-.08-.1-.11l-.2-.22c-.09-.09-.17-.18-.33-.32l-.21-.19-.1-.09-.17-.12-.3-.21-.7-.41a1,1,0,0,1-.13-.09l0,0-.15-.13-.55-.51-.34-.34h0l-.1-.17,0-.07h0s-.06-.18-.1-.28l-.07-.21-.16-.33a5.79,5.79,0,0,0-.54-.89c-.06-.1-.17-.24-.2-.31l-.11-.2-.06-.1,0-.06h0v0l-.12-.32-.13-.4a1.43,1.43,0,0,1-.08-.29l-.16-.67-.09-.42-.05-.2v-.13l0-.22v-.07c0-.13,0-.29.06-.21s0,0,0,0l.05-.11A4.71,4.71,0,0,0,159.89,292.68Zm180.06-16a9.21,9.21,0,0,0-.26,1.13,9.73,9.73,0,0,1-.24,1c-.09.3-.17.61-.24.92-.15.67-.29,1.32-.46,1.94a8.82,8.82,0,0,0-.23,1.42,4.44,4.44,0,0,1-.08.59c-.05.14-.17.39-.29.64a8.17,8.17,0,0,0-.56,1.25l-.21.65c-.14.43-.28.87-.45,1.31a7.67,7.67,0,0,0-.35,1.22,6.18,6.18,0,0,1-.21.75c-.06.11-.23.32-.38.53a8,8,0,0,0-.77,1.16c-.13.23-.24.47-.36.71a10,10,0,0,1-.54,1c-.2.32-.37.66-.54,1a5,5,0,0,1-.39.72,13.24,13.24,0,0,1-1.05,1.12l-.25.24a11.19,11.19,0,0,1-1.39,1.1,6.22,6.22,0,0,1-1.12.53l-.39.14a5.94,5.94,0,0,1-1.53.35,9,9,0,0,0-1,.22,1.82,1.82,0,0,1-1.61-.1,2.45,2.45,0,0,0,.26-.35c.14-.21.27-.44.39-.66s.15-.27.22-.38l.16-.18a5.09,5.09,0,0,0,.62-.8,6.65,6.65,0,0,0,.39-.75l.17-.35a4,4,0,0,0,.44-1.1l0-.12.21-.31.4-.64a2.27,2.27,0,0,1,.18-.25,7.61,7.61,0,0,0,.51-.75,3.37,3.37,0,0,1,.21-.31c.16-.23.31-.46.45-.7a5,5,0,0,0,.38-.88c0-.08.05-.16.08-.22a2,2,0,0,0,.2-.55c.34-.56.78-1.3,1.3-2.18s1.27-2.15,2-3.41l1.11-1.86,1.18-1.91c.79-1.27,1.62-2.52,2.4-3.62.4-.54.8-1.05,1.17-1.49l.45-.48a1.94,1.94,0,0,1,.05.2c0,.21,0,.43.06.65a6.69,6.69,0,0,1,.07,1.13A5,5,0,0,1,340,276.69Z" style="fill: #1d1d1b"/>
  </g>
</svg>
