<svg xmlns="http://www.w3.org/2000/svg" viewBox="0 0 500 500">
  <title>ghost-left</title>
  <g>
    <path d="M308.69,304.86a7.82,7.82,0,0,0-.25-1.31l-.08-.31A9.58,9.58,0,0,0,308,302l-.09-.22a2.1,2.1,0,0,0-.8-1c0-.14-.07-.33-.1-.5a9.07,9.07,0,0,0-.43-1.66c-.16-.42-.35-.8-.53-1.18a7.31,7.31,0,0,1-.46-1c-.12-.31-.2-.64-.3-1s-.24-.91-.4-1.36a8.07,8.07,0,0,0-.68-1.38,6.64,6.64,0,0,1-.4-.81,5.5,5.5,0,0,1-.1-.7,7.35,7.35,0,0,0-.33-1.72c-.14-.42-.32-.83-.51-1.26s-.28-.64-.4-1-.21-.7-.3-1.06-.24-.86-.38-1.28a7.08,7.08,0,0,1-.21-.92,12.86,12.86,0,0,0-.36-1.46,10.18,10.18,0,0,0-.53-1.31c-.15-.34-.28-.66-.38-1a8.17,8.17,0,0,0-.69-1.48,5.34,5.34,0,0,1-.36-.73,3,3,0,0,1-.08-.71,7.26,7.26,0,0,0-.27-1.75,6.82,6.82,0,0,0-.74-1.53,3.83,3.83,0,0,1-.34-.67l-.39-1.15c-.12-.39-.25-.78-.37-1.16a8.63,8.63,0,0,1-.22-1,11.53,11.53,0,0,0-.33-1.43c-.07-.26-.13-.58-.2-.93a11,11,0,0,0-.32-1.47,5.69,5.69,0,0,0-.91-1.69,2.29,2.29,0,0,1-.31-.46,4.88,4.88,0,0,1-.18-.91,12.43,12.43,0,0,0-.31-1.49,13.22,13.22,0,0,0-.55-1.38,6.77,6.77,0,0,1-.34-.88,3.84,3.84,0,0,1,0-.64,6.32,6.32,0,0,0-.2-1.84,6.42,6.42,0,0,0-.81-1.64,3.94,3.94,0,0,1-.32-.56c-.1-.34-.17-.7-.25-1.06s-.19-.88-.32-1.3a4.25,4.25,0,0,1,0-.68,6.7,6.7,0,0,0-.2-1.79,12.45,12.45,0,0,0-.55-1.42,8.73,8.73,0,0,1-.34-.84c-.1-.36-.16-.72-.24-1.08s-.18-.87-.29-1.3a8.3,8.3,0,0,0-.64-1.53,6.73,6.73,0,0,1-.31-.72c-.12-.42-.24-.83-.37-1.24s-.23-.72-.32-1.08-.16-.69-.23-1-.16-.84-.26-1.25-.13-.65-.19-1a12,12,0,0,0-.24-1.33c-.1-.41-.25-.83-.38-1.25s-.21-.64-.3-1a7.52,7.52,0,0,0-.55-1.49,6.3,6.3,0,0,1-.29-.71c-.09-.38-.17-.77-.24-1.16s-.15-.74-.24-1.12a3.92,3.92,0,0,1-.07-.78,7.51,7.51,0,0,0-.16-1.56l-.23-1c-.1-.42-.2-.84-.29-1.28s-.13-.7-.19-1.06-.13-.82-.22-1.24-.21-.85-.34-1.27-.2-.66-.27-1a6,6,0,0,1-.08-.85,11.45,11.45,0,0,0-.16-1.51c-.08-.37-.16-.77-.23-1.16s-.14-.76-.22-1.13a2.14,2.14,0,0,0-.2-.57,3.9,3.9,0,0,0-.68-2.49l-.08-.12c0-.1,0-.23,0-.34a4.71,4.71,0,0,0-.09-1.19,5.19,5.19,0,0,0-.43-1.27c0-.06-.06-.12-.08-.17l0-.12a3.92,3.92,0,0,0,.08-1.66,4.59,4.59,0,0,0-.59-1.45l-.1-.17c0-.23-.07-.45-.11-.65s-.08-.59-.14-.85a2,2,0,0,1,0-.43,3.66,3.66,0,0,0-.07-1.29c-.06-.27-.14-.53-.21-.8s-.14-.49-.2-.74a5.52,5.52,0,0,0-.48-1.21,1.53,1.53,0,0,1-.14-.29,7.2,7.2,0,0,0-.33-1,4.4,4.4,0,0,1-.18-.51c-.05-.23-.09-.46-.14-.7s-.12-.59-.18-.83v-.3a4.53,4.53,0,0,0-.1-1.41c0-.22-.1-.45-.15-.68s-.13-.61-.21-.91l-.13-.55c-.09-.34-.17-.69-.26-1a5.49,5.49,0,0,0-.5-1.2,2.89,2.89,0,0,1-.15-.31,5.81,5.81,0,0,0-.44-1.12c-.07-.15-.15-.33-.16-.34a2.71,2.71,0,0,1,0-.29,4.47,4.47,0,0,0-.16-1.45c0-.07,0-.27-.05-.41a6.75,6.75,0,0,0-.23-1.24c-.17-.52-.34-1-.52-1.57a4.64,4.64,0,0,0-.76-1.32,1,1,0,0,1-.13-.17,2.7,2.7,0,0,1-.07-.35,5.68,5.68,0,0,0-.32-1.24,6.92,6.92,0,0,0-.54-1.06,3.5,3.5,0,0,1-.24-.42c-.16-.38-.34-.77-.52-1.15l-.17-.35c0-.12-.06-.24-.09-.35a5,5,0,0,0-.43-1.31,6.44,6.44,0,0,0-.7-1,2.18,2.18,0,0,1-.26-.36,4.52,4.52,0,0,1-.25-.49,11.6,11.6,0,0,0-.54-1,7.86,7.86,0,0,0-.82-1c-.1-.12-.21-.22-.3-.35a2.84,2.84,0,0,1-.21-.4,5.62,5.62,0,0,0-.66-1.15,9.49,9.49,0,0,0-.82-.9c-.13-.14-.26-.26-.37-.4a4.34,4.34,0,0,1-.34-.44,9.85,9.85,0,0,0-.77-1c-.42-.43-.85-.86-1.29-1.26a4.66,4.66,0,0,0-1.39-.8l-.2-.06a2.33,2.33,0,0,1-.32-.31,5.84,5.84,0,0,0-1-.9c-.13-.09-.26-.21-.39-.31a6.81,6.81,0,0,0-1.05-.77l-.46-.29a11.28,11.28,0,0,0-1.09-.64,5.79,5.79,0,0,0-1.33-.39l-.39-.08a9.48,9.48,0,0,0-1.13-.35l-.5-.13a1.84,1.84,0,0,1-.25-.17,4.85,4.85,0,0,0-1.37-.67c-.55-.15-1.12-.29-1.69-.42A6.24,6.24,0,0,0,251,160a2.74,2.74,0,0,1-.5,0,5.26,5.26,0,0,0-1.21-.07h-.39l-.19-.07a4.3,4.3,0,0,0-1.48-.37,5.65,5.65,0,0,0-1.26.15,2.32,2.32,0,0,1-.38.07c-.36,0-.73.06-1.09.1l-.51.06a1.27,1.27,0,0,1-.33,0,5.6,5.6,0,0,0-1.3,0c-.42.07-.77.18-1.09.26a3.94,3.94,0,0,1-.49.14,7.64,7.64,0,0,0-1.07.33l-.46.16c-.35.09-.68.21-1,.32l-.49.17a9.25,9.25,0,0,0-1,.4,4,4,0,0,1-.48.2l-.44.13a5.34,5.34,0,0,0-1.09.34,7.41,7.41,0,0,0-1,.5,4.63,4.63,0,0,1-.43.24c-.1,0-.21.06-.31.09a4.6,4.6,0,0,0-1.32.47,7.66,7.66,0,0,0-1,.73c-.12.1-.24.21-.37.3l-.44.26a8.82,8.82,0,0,0-1,.63,4.72,4.72,0,0,0-.94,1l-.16.21a2,2,0,0,1-.25.13,4.48,4.48,0,0,0-1.24.8,9.27,9.27,0,0,0-.76.88,3.12,3.12,0,0,1-.33.41l-.39.39a8.29,8.29,0,0,0-.77.8,2.35,2.35,0,0,1-.33.3,7.08,7.08,0,0,0-.85.87,8.24,8.24,0,0,0-.63,1c-.08.15-.17.3-.26.44a4.56,4.56,0,0,0-.62,1.23,2,2,0,0,0-.09.25l-.18.15a4.18,4.18,0,0,0-1.06,1.18,4.37,4.37,0,0,0-.5,1.41c0,.1,0,.21-.07.28-.2.38-.37.79-.55,1.21l-.16.35a3.62,3.62,0,0,1-.24.43,8.46,8.46,0,0,0-.57,1.1,2.65,2.65,0,0,1-.21.41,6.63,6.63,0,0,0-.55,1.13,4.16,4.16,0,0,0-.16,1.71c0,.05,0,.11,0,.15a2.79,2.79,0,0,1-.15.3,6.43,6.43,0,0,0-.48,1.15,8,8,0,0,0-.21,1.16c0,.14,0,.27,0,.41l-.11.15a4.39,4.39,0,0,0-.73,1.46,4.48,4.48,0,0,0-.05,1.57,1.64,1.64,0,0,1,0,.22,4.28,4.28,0,0,1-.15.51,9.07,9.07,0,0,0-.26.93l-.12.19a4.43,4.43,0,0,0-.62,1.44,8.08,8.08,0,0,0-.11,1.19,3,3,0,0,1,0,.48,4.65,4.65,0,0,1-.15.59,9.51,9.51,0,0,0-.25,1,4.74,4.74,0,0,0-.06,1.32,2,2,0,0,1,0,.34c0,.31-.09.62-.13.94l-.09.7c0,.21-.1.42-.15.62s-.16.65-.22,1c0,.18-.09.37-.14.55-.1.35-.2.7-.27,1s-.07.67-.1,1,0,.42-.06.64a5.41,5.41,0,0,0,0,1.31,2.18,2.18,0,0,1,0,.35c0,.24-.08.48-.13.72s-.12.59-.17.88a3.62,3.62,0,0,1-.13.35,5.68,5.68,0,0,0-.39,1.24c0,.26-.08.52-.12.79s-.08.55-.13.83-.09.46-.15.69-.14.61-.19.92a8.54,8.54,0,0,0-.11,1c0,.19,0,.4-.06.6s-.08.27-.14.43a5.7,5.7,0,0,0-.34,1.15c-.05.26-.1.55-.16.82l-.15.78a2.23,2.23,0,0,0,.06,1,1.37,1.37,0,0,1,0,.19,7.43,7.43,0,0,1-.09.81,5.68,5.68,0,0,1-.18.71c-.1.39-.21.77-.28,1.16s-.1.74-.13,1.11,0,.54-.1.81a4.6,4.6,0,0,1-.18.48,5.94,5.94,0,0,0-.44,1.35,9.36,9.36,0,0,0-.13,1.19c0,.24,0,.5-.07.74s-.13.49-.2.74a8.73,8.73,0,0,0-.28,1.12,7,7,0,0,0-.1,1.38,2.91,2.91,0,0,1,0,.55c0,.07-.12.27-.18.4a6.05,6.05,0,0,0-.53,1.42c-.07.37-.12.76-.17,1.14a4.91,4.91,0,0,1-.1.77c-.06.28-.13.55-.21.82s-.19.69-.27,1.05c0,.17-.12.39-.2.63a7.22,7.22,0,0,0-.38,1.21,11.75,11.75,0,0,0-.18,1.18,6.09,6.09,0,0,1-.1.73,6.18,6.18,0,0,0-.12,1.41,3.13,3.13,0,0,1,0,.5,3.31,3.31,0,0,1-.19.38,5.19,5.19,0,0,0-.6,1.44,5.34,5.34,0,0,0-.12,1.48c0,.17,0,.4,0,.47-.08.3-.14.61-.21.92s-.14.64-.21,1c-.05.17-.13.4-.23.65a6.67,6.67,0,0,0-.39,1.17,4.47,4.47,0,0,1-.23.61,7.4,7.4,0,0,0-.42,1.21,5,5,0,0,0-.06,1.74c0,.11,0,.21,0,.32s-.12.33-.2.53a7.79,7.79,0,0,0-.46,1.23,10.77,10.77,0,0,0-.2,1.23c0,.26-.06.5-.08.61s-.13.21-.19.31a4.71,4.71,0,0,0-.75,1.51,6,6,0,0,0-.12,1.61c0,.14,0,.33,0,.36a6.75,6.75,0,0,1-.25.76c-.12.35-.25.71-.33,1a2.23,2.23,0,0,1-.2.33,5.76,5.76,0,0,0-.71,1.47,10,10,0,0,0-.22,1.27,4.08,4.08,0,0,1-.09.64c-.08.25-.17.49-.25.75s-.27.71-.37,1.09a6,6,0,0,0-.2,1.4,3.29,3.29,0,0,1,0,.53c-.09.34-.17.68-.25,1l-.21.87c-.08.26-.17.51-.27.76s-.24.71-.34,1.06a6,6,0,0,1-.26.71,10.63,10.63,0,0,0-.4,1.12,10.08,10.08,0,0,0-.24,1.09c-.06.27-.12.53-.19.8a7.35,7.35,0,0,0-.21,1.39,5.26,5.26,0,0,1-.05.55c-.09.29-.18.58-.28.87l-.3,1c0,.1-.14.31-.23.5a7.16,7.16,0,0,0-.56,1.28c-.08.31-.17.62-.26.93s-.17.62-.26.93a7.69,7.69,0,0,1-.27.81c-.12.34-.24.67-.34,1s-.18.76-.25,1.13-.1.51-.17.77a5.78,5.78,0,0,1-.26.57,8.41,8.41,0,0,0-.49,1.21c-.09.32-.19.63-.28.94s-.19.61-.29.91a3.12,3.12,0,0,0-.07.51c-2.24,7,2.6,13.05,8.76,16.27a2,2,0,0,0,0,.23l-.13.4a.66.66,0,0,1-.09.19,4.26,4.26,0,0,0-.52,1.28,9.11,9.11,0,0,0-.12,1.13c0,.13,0,.27,0,.39a4.64,4.64,0,0,0,.08,1.31c0,.08,0,.16,0,.22s0,.25,0,.37a11.39,11.39,0,0,0,0,1.17c0,.13,0,.25,0,.36a5.66,5.66,0,0,0,.12,1.21c0,.1,0,.21,0,.32a5.13,5.13,0,0,0,.24,1.27,3.88,3.88,0,0,0,.8,1.3l.1.11a11.31,11.31,0,0,0,.77,1.33l.18.28a5.31,5.31,0,0,0,.74,1,7.88,7.88,0,0,0,.84.77,2.25,2.25,0,0,1,.3.24,1.29,1.29,0,0,1,.19.21,5.28,5.28,0,0,0,.89.87,4.71,4.71,0,0,0,1,.56l.3.14.32.2a7,7,0,0,0,1,.56,5.45,5.45,0,0,0,1.1.35l.3.07a1.06,1.06,0,0,1,.21.11,3.89,3.89,0,0,0,1.15.51,13.09,13.09,0,0,0,1.41.31,5.53,5.53,0,0,0,1.09.08h.34l.27.08a4.85,4.85,0,0,0,1.14.21,3.62,3.62,0,0,0,1.32-.19l.16,0,1.32,0,.28,0a5,5,0,0,0,1,.05l.12,0a4.31,4.31,0,0,0,1.23.1,4.08,4.08,0,0,0,.94-.19l.26-.07a3.86,3.86,0,0,0,1-.23l.17-.06,1-.07h.18l.76,0h.34l.16,0a3.93,3.93,0,0,0,1.06.18c.29,0,.58,0,.84.06l.19,0,.62,0h.23a7.37,7.37,0,0,0,.82.18h.17l.12.05a5.9,5.9,0,0,1,.8.42.86.86,0,0,1,.13.14,4.77,4.77,0,0,0,.75.77c.19.14.37.32.56.49l.32.29a4.24,4.24,0,0,0,1,.65,4,4,0,0,0,.71,1.18,4.46,4.46,0,0,0,.82.69l.19.14a1.59,1.59,0,0,1,.18.27,6,6,0,0,0,.62.85,3.68,3.68,0,0,0,1.16.84l.07,0a.75.75,0,0,0,.07.12,3.89,3.89,0,0,0,.83,1,11.65,11.65,0,0,0,1.35,1,1.18,1.18,0,0,1,.25.19,6.16,6.16,0,0,0,.93.64,3.39,3.39,0,0,0,1.49.34h.08l.06,0c.37.16.75.31,1.12.44a1.53,1.53,0,0,1,.32.13,5.54,5.54,0,0,0,1,.36,1.8,1.8,0,0,1,.33.1,5.14,5.14,0,0,0,1.09.26,3.85,3.85,0,0,0,1.28-.07l.13,0,.19.05a4.24,4.24,0,0,0,1.1.17h.22a3.58,3.58,0,0,0,1.36-.42h0a3.53,3.53,0,0,0,1.41,0,4.22,4.22,0,0,0,1.13-.47.49.49,0,0,0,.11-.08l.19,0a3.69,3.69,0,0,0,1.47-.38c.47-.26.91-.53,1.31-.8a5.76,5.76,0,0,0,.86-.81,1.9,1.9,0,0,1,.19-.21,6.09,6.09,0,0,0,.72-.75c.08-.09.15-.19.21-.25l.18-.11a4.43,4.43,0,0,0,.93-.73l.29-.25a6,6,0,0,0,.7-.67c.21-.23.4-.46.61-.7l.25-.3a4.4,4.4,0,0,0,.64-1.05l.05-.11.1-.08a4,4,0,0,0,.87-.79c.15-.19.3-.4.45-.6l.32-.43a4.34,4.34,0,0,0,.58-1,.18.18,0,0,0,0-.09l.06,0a3.84,3.84,0,0,0,1-.83c.16-.21.31-.43.47-.65a3.47,3.47,0,0,1,.26-.37,5.38,5.38,0,0,0,.57-.91l.08-.15a4.67,4.67,0,0,1,.37-.39c.17-.16.33-.31.47-.46s.32-.32.48-.47l.36-.32a1.71,1.71,0,0,1,.32-.22c.18-.11.35-.22.51-.34a3.05,3.05,0,0,1,.6-.29,4.16,4.16,0,0,0,1-.59l0,0h.33l.52,0a4.31,4.31,0,0,1,.91.05c.19,0,.4,0,.6.06a1.72,1.72,0,0,1,.33,0,4.25,4.25,0,0,0,.57.17l.3.09,0,.05a25.91,25.91,0,0,1,3.17,1.56c.61.28,1.18.88,1.51.88,0,0,.06.29.1.29l.17,0a4.7,4.7,0,0,0,1.27.24,4.33,4.33,0,0,0,1.37-.18l.21,0a8.68,8.68,0,0,0,1.51-.47l.21,0a4.2,4.2,0,0,0,1.39-.43,3.68,3.68,0,0,0,1.13-1.08l.09-.1a2,2,0,0,1,.24-.16,5.6,5.6,0,0,0,.88-.63l.19-.1a4.17,4.17,0,0,0,1.1-.8,3.54,3.54,0,0,0,.77-1.31,3.86,3.86,0,0,0,1.11-.9,7.49,7.49,0,0,0,.45-.65c.09-.13.18-.27.28-.39.25-.3.52-.58.8-.86l.08-.08a10.27,10.27,0,0,1,.77-.71,6.5,6.5,0,0,1,.76-.54,7.55,7.55,0,0,1,.92-.45c.07,0,.27,0,.42-.06l.69-.09a4.8,4.8,0,0,0,1-.32l.19-.09c.12,0,.25,0,.38,0a6.12,6.12,0,0,0,1,0,4,4,0,0,0,1.28-.39l.15-.07.33,0a8.54,8.54,0,0,0,1-.17,6.61,6.61,0,0,0,1-.32l.32-.11.21,0a4.33,4.33,0,0,0,1.26-.29c.48-.21.93-.44,1.36-.68a4.43,4.43,0,0,0,1.06-.92s0,0,0-.05h0a3.13,3.13,0,0,0,1.54-.89,3.6,3.6,0,0,0,.79-1.53l0-.11.11-.15a4.43,4.43,0,0,0,.72-1.32,1.72,1.72,0,0,1,.1-.26,5.9,5.9,0,0,0,.38-1.45v-.15A8.73,8.73,0,0,0,308.69,304.86Z" style="fill: #fff"/>
    <path d="M236.83,197.68a5,5,0,0,1,0,.89c0,.11,0,.22,0,.33,0,.41-.05.81-.1,1.21a1.63,1.63,0,0,0,0,.31,7.13,7.13,0,0,1-.14.89,8.54,8.54,0,0,1-.27.9l-.08.23a8.19,8.19,0,0,1-.36.86l-.11.24a9.82,9.82,0,0,1-.54,1c-.07.12-.11.22-.16.31a4,4,0,0,1-.48.81,7.77,7.77,0,0,1-.84,1,5,5,0,0,1-1,.71l-.12.07a4.89,4.89,0,0,1-1.45.56,2.77,2.77,0,0,1-.49,0h0a4,4,0,0,1-1.09-.17l-.1,0a3.83,3.83,0,0,1-1.5-.72,5,5,0,0,1-1-1.12l-.08-.13a5.18,5.18,0,0,1-.59-1.09,4,4,0,0,1-.2-1,2.66,2.66,0,0,0,0-.28l-.06-.25a7.16,7.16,0,0,1-.16-1c0-.4,0-.81,0-1.22v-.3a7.19,7.19,0,0,1,.05-.92,4.09,4.09,0,0,1,.24-.88,2.29,2.29,0,0,0,.09-.28l.06-.32a5.9,5.9,0,0,1,.2-.83c0-.1,0-.2.08-.3a5,5,0,0,1,.29-.85,4.11,4.11,0,0,1,.48-.8,1.7,1.7,0,0,0,.15-.22,1.74,1.74,0,0,0,.14-.27,4.87,4.87,0,0,1,.48-.81,4.18,4.18,0,0,1,.75-.73l.19-.16a5.86,5.86,0,0,1,1.09-.83,4.33,4.33,0,0,1,1.42-.61,3.89,3.89,0,0,1,1.69.14,3.72,3.72,0,0,1,1.48.78,4.93,4.93,0,0,1,1,1.13,6.56,6.56,0,0,1,.58,1.24,1.22,1.22,0,0,0,.1.24,4.6,4.6,0,0,1,.34,1A9.46,9.46,0,0,1,236.83,197.68Zm13.95,4.85c0-.38,0-.76-.06-1.15s-.11-.67-.17-1l0-.16c0-.1,0-.21,0-.31a6.15,6.15,0,0,0-.17-.86c-.13-.39-.27-.77-.42-1.12a4.79,4.79,0,0,0-.49-.84l-.15-.22a1.47,1.47,0,0,1-.1-.22,3.23,3.23,0,0,0-.52-.91,3.66,3.66,0,0,0-.92-.74l-.22-.15a4.39,4.39,0,0,0-1.3-.72,3.92,3.92,0,0,0-1.69-.17,4,4,0,0,0-1.61.6,4.75,4.75,0,0,0-1.12,1.06,6.08,6.08,0,0,0-.74,1.17,9.23,9.23,0,0,0-.48,1.21,6.19,6.19,0,0,0-.19.91c0,.1,0,.21,0,.32l-.06.28a8.64,8.64,0,0,0-.15.91l0,.25a7.62,7.62,0,0,0,0,1,5.14,5.14,0,0,0,.11.88,2.88,2.88,0,0,1,.05.33,1.51,1.51,0,0,1,0,.3,4.81,4.81,0,0,0,.07.87,4.25,4.25,0,0,0,.32.89c0,.08.07.16.09.23l.08.25a7.74,7.74,0,0,0,.3.89,1.72,1.72,0,0,1,.11.29,4.64,4.64,0,0,0,.38.86,4.09,4.09,0,0,0,.69.82,1.17,1.17,0,0,1,.16.15l.16.21a3.39,3.39,0,0,0,.77.84,4.79,4.79,0,0,0,1.4.67,4.25,4.25,0,0,0,1.17.17,4.71,4.71,0,0,0,.53,0,4.09,4.09,0,0,0,1.6-.63,4.72,4.72,0,0,0,1.12-1.05,6.5,6.5,0,0,0,.73-1.16l.07-.15a8.16,8.16,0,0,0,.46-1,5.44,5.44,0,0,0,.17-.91c0-.11,0-.21,0-.33l.06-.27a9.28,9.28,0,0,0,.15-.92,5.16,5.16,0,0,0,0-.91A2.86,2.86,0,0,1,250.78,202.53Zm62,105.89,0,.15a6.22,6.22,0,0,1-.41,1.51c0,.09-.07.18-.1.27a4.58,4.58,0,0,1-.77,1.35l-.11.16a.56.56,0,0,0,0,.12,3.63,3.63,0,0,1-.83,1.59,3.48,3.48,0,0,1-1.65.92h0l0,.05a4.84,4.84,0,0,1-1.13.95,14.74,14.74,0,0,1-1.44.69,4.44,4.44,0,0,1-1.35.3l-.23,0-.34.12c-.35.12-.7.24-1.07.33a9.53,9.53,0,0,1-1.07.17l-.35.05-.15.07a4.36,4.36,0,0,1-1.37.39,6,6,0,0,1-1,0,2.54,2.54,0,0,0-.39,0l-.21.09a5.15,5.15,0,0,1-1.06.33,6.09,6.09,0,0,1-.73.1c-.16,0-.38,0-.45.06a6.94,6.94,0,0,0-1,.47,6.71,6.71,0,0,0-.82.56,9,9,0,0,0-.81.73l-.09.08c-.29.29-.58.58-.86.89a3.69,3.69,0,0,0-.29.4,8.22,8.22,0,0,1-.49.67,4,4,0,0,1-1.17.94,3.94,3.94,0,0,1-.82,1.36,4.13,4.13,0,0,1-1.17.81l-.21.12a6.88,6.88,0,0,1-.93.65l-.27.16a1,1,0,0,0-.08.11,3.84,3.84,0,0,1-1.22,1.1,4,4,0,0,1-1.48.45l-.22,0a9,9,0,0,1-1.6.48l-.24.06a4.79,4.79,0,0,1-1.46.19,5.34,5.34,0,0,1-1.35-.25l-.18-.05h-.11a3.73,3.73,0,0,1-1.6-.29,4.48,4.48,0,0,1-1.2-.86l-.16-.14a4.59,4.59,0,0,0-.52-.33c-.19-.11-.38-.22-.56-.34a4.54,4.54,0,0,1-.94-.87l-.05-.05-.31-.09c-.21-.06-.42-.11-.62-.18s-.77-.35-1-.38a11.19,11.19,0,0,0-1.87.28l0,0a4.74,4.74,0,0,1-1.09.61,3,3,0,0,0-.64.3c-.16.12-.35.23-.53.34a2.44,2.44,0,0,0-.36.24l-.37.33c-.17.15-.35.3-.52.47s-.32.33-.49.49a5,5,0,0,0-.41.39.74.74,0,0,1-.08.17,5.65,5.65,0,0,1-.6.94,3.47,3.47,0,0,0-.29.38,6.38,6.38,0,0,1-.49.67,4.51,4.51,0,0,1-1,.87l0,0-.05.09a5,5,0,0,1-.61,1l-.35.45-.48.61a5,5,0,0,1-.92.83l-.11.08-.06.11a4.79,4.79,0,0,1-.67,1.09l-.28.31c-.21.25-.42.49-.64.73s-.54.51-.75.69a1.87,1.87,0,0,0-.3.26,4.77,4.77,0,0,1-1,.74l-.2.13-.22.25a5.57,5.57,0,0,1-.77.78,2.19,2.19,0,0,0-.2.22,5.51,5.51,0,0,1-.91.84,14,14,0,0,1-1.4.82,4,4,0,0,1-1.57.4l-.19,0s-.06.05-.13.09a4.54,4.54,0,0,1-1.19.49,4,4,0,0,1-1.51,0h-.06a4,4,0,0,1-1.44.43h-.23a4.72,4.72,0,0,1-1.18-.17l-.21,0-.13,0a4.37,4.37,0,0,1-1.36.07,5.8,5.8,0,0,1-1.17-.27,2,2,0,0,0-.35-.1,6.44,6.44,0,0,1-1.11-.38l-.35-.14a12.65,12.65,0,0,1-1.2-.45l-.06,0h-.08a3.65,3.65,0,0,1-1.6-.36,5.08,5.08,0,0,1-1-.65,2.34,2.34,0,0,0-.27-.2,11.3,11.3,0,0,1-1.45-1,4.39,4.39,0,0,1-.89-1.07.75.75,0,0,0-.07-.12l-.06,0a4.18,4.18,0,0,1-1.25-.87,5.76,5.76,0,0,1-.65-.88,2,2,0,0,0-.19-.28s-.12-.08-.2-.14a5.84,5.84,0,0,1-.89-.72,4.14,4.14,0,0,1-.75-1.22,4.3,4.3,0,0,1-1.06-.67l-.34-.31c-.19-.17-.38-.35-.59-.51a5.11,5.11,0,0,1-.81-.79l-.12-.15c-.25-.14-.55-.28-.87-.43l-.12,0-.19,0a5.2,5.2,0,0,1-.87-.18h-.25l-.65,0-.21,0a8.15,8.15,0,0,0-.9-.06,4.44,4.44,0,0,1-1.13-.18l-.16-.05h-.37l-.8,0h-.19l-1.08.07-.17.06a4.8,4.8,0,0,1-1.1.24c-.09,0-.18,0-.28.07a6,6,0,0,1-1,.2,4.43,4.43,0,0,1-1.31-.11l-.13,0a6.59,6.59,0,0,1-1.06-.05l-.31,0-1.4,0-.16,0a3.86,3.86,0,0,1-1.42.2,5.21,5.21,0,0,1-1.2-.23l-.3-.07h-.36a6.16,6.16,0,0,1-1.16-.08c-.51-.09-1-.19-1.51-.32a4.56,4.56,0,0,1-1.22-.53l-.22-.12-.32-.08a5.32,5.32,0,0,1-1.17-.35,6.9,6.9,0,0,1-1-.58l-.34-.21-.32-.14a6,6,0,0,1-1.11-.58,5.24,5.24,0,0,1-.95-.9,2.2,2.2,0,0,0-.2-.23l-.31-.24a8.34,8.34,0,0,1-.91-.79,6.61,6.61,0,0,1-.78-1.07c-.07-.1-.13-.2-.2-.29a12.06,12.06,0,0,1-.81-1.37l-.11-.12a4.25,4.25,0,0,1-.86-1.35,5.48,5.48,0,0,1-.25-1.31,3.31,3.31,0,0,0,0-.33,6,6,0,0,1-.11-1.25c0-.12,0-.25,0-.37a7,7,0,0,1,0-1.21c0-.13,0-.26,0-.39s0-.14,0-.22a5.08,5.08,0,0,1-.07-1.36l0-.4a6.73,6.73,0,0,1,.13-1.17,4.13,4.13,0,0,1,.54-1.33l.11-.19c0-.13.09-.28.13-.42a1.94,1.94,0,0,1,0-.24c-6.57-3.33-11.73-9.61-9.34-16.83a2,2,0,0,1,.09-.53c.09-.31.19-.63.29-.94s.21-.65.31-1a8,8,0,0,1,.53-1.26,4.91,4.91,0,0,0,.26-.59,7.49,7.49,0,0,0,.18-.79,11.71,11.71,0,0,1,.28-1.17c.11-.36.23-.71.36-1.06s.2-.56.28-.84.19-.64.29-1,.18-.64.28-1a6.76,6.76,0,0,1,.58-1.33,3.84,3.84,0,0,0,.25-.52c.1-.33.21-.67.32-1s.2-.6.29-.9a4.62,4.62,0,0,0,.07-.57,6.56,6.56,0,0,1,.22-1.44c.08-.27.13-.54.19-.82s.16-.76.27-1.13a11.43,11.43,0,0,1,.42-1.16,6.39,6.39,0,0,0,.27-.73c.11-.37.24-.73.38-1.1s.19-.53.27-.79.16-.6.23-.9.17-.7.27-1a3.45,3.45,0,0,0,.05-.55,7.13,7.13,0,0,1,.21-1.45c.11-.39.25-.76.39-1.14a6.86,6.86,0,0,0,.27-.76,4.39,4.39,0,0,0,.11-.68,8.14,8.14,0,0,1,.23-1.3,5.37,5.37,0,0,1,.75-1.52,2.46,2.46,0,0,0,.22-.34,9.47,9.47,0,0,1,.35-1.07c.09-.26.19-.52.26-.78,0,0,0-.23,0-.38a5.09,5.09,0,0,1,.13-1.67,5.26,5.26,0,0,1,.78-1.56,1.6,1.6,0,0,0,.21-.32c0-.11,0-.36.09-.64a8.37,8.37,0,0,1,.22-1.26,8.48,8.48,0,0,1,.47-1.28c.09-.2.18-.39.23-.54a1.86,1.86,0,0,0,0-.33,4.86,4.86,0,0,1,.06-1.8,8.53,8.53,0,0,1,.45-1.25,5.43,5.43,0,0,0,.24-.63,9.55,9.55,0,0,1,.42-1.22,5.74,5.74,0,0,0,.24-.68c.09-.33.16-.66.24-1l.21-1a2.47,2.47,0,0,0,0-.49,6.33,6.33,0,0,1,.13-1.54,5.78,5.78,0,0,1,.64-1.48c.08-.14.18-.32.21-.39s0-.32,0-.52a6.74,6.74,0,0,1,.14-1.46,6.49,6.49,0,0,0,.11-.77,10.46,10.46,0,0,1,.18-1.21,10.29,10.29,0,0,1,.4-1.25,3.62,3.62,0,0,0,.22-.66c.09-.36.19-.73.29-1.09s.16-.55.23-.84.08-.53.11-.79a11.17,11.17,0,0,1,.17-1.18,6.29,6.29,0,0,1,.56-1.47,2.94,2.94,0,0,0,.2-.42,4.38,4.38,0,0,0,0-.57,6.21,6.21,0,0,1,.1-1.43c.08-.39.19-.77.3-1.15a6.9,6.9,0,0,0,.21-.78,6.31,6.31,0,0,0,.08-.76c0-.36.06-.78.14-1.22a6.71,6.71,0,0,1,.47-1.4c.07-.18.17-.41.19-.5a8,8,0,0,0,.1-.84c0-.39.08-.77.15-1.15a10.36,10.36,0,0,1,.3-1.19c.07-.25.14-.49.19-.74s.07-.56.1-.84a1.11,1.11,0,0,1,0-.19,2.14,2.14,0,0,1-.07-1c.05-.27.11-.54.16-.81s.12-.57.17-.85a7.11,7.11,0,0,1,.36-1.19,3.28,3.28,0,0,0,.15-.44,4.48,4.48,0,0,0,.06-.63c0-.36.06-.71.12-1.07s.13-.63.21-.94.11-.47.15-.71.1-.58.14-.87.09-.54.14-.81a5.88,5.88,0,0,1,.4-1.28,1.78,1.78,0,0,0,.14-.36c0-.3.12-.61.18-.91l.15-.75a2.3,2.3,0,0,0,0-.36,5.33,5.33,0,0,1,0-1.36q0-.33.06-.66c0-.35.06-.7.12-1a8.12,8.12,0,0,1,.27-1.08,3.8,3.8,0,0,0,.15-.58c.06-.34.15-.67.23-1s.12-.43.16-.65.07-.48.1-.72.09-.65.15-1c0-.1,0-.23,0-.35a5.57,5.57,0,0,1,.05-1.38c.07-.36.17-.71.27-1.06.06-.2.13-.4.17-.6s0-.3,0-.49a6.51,6.51,0,0,1,.12-1.23,4.34,4.34,0,0,1,.65-1.49,1.51,1.51,0,0,0,.12-.2c.08-.33.18-.65.28-1s.12-.35.17-.53l0-.24a4.32,4.32,0,0,1,.07-1.61,4.46,4.46,0,0,1,.77-1.52l.11-.15c0-.14,0-.28.06-.42a7.38,7.38,0,0,1,.22-1.2,6.48,6.48,0,0,1,.52-1.19l.15-.31c0-.06,0-.11,0-.16a4,4,0,0,1,.18-1.77,7.64,7.64,0,0,1,.58-1.18,3.42,3.42,0,0,0,.23-.42,6.84,6.84,0,0,1,.61-1.13c.08-.15.18-.29.25-.44l.17-.38c.19-.42.37-.84.59-1.24,0-.07,0-.18.06-.29a4.65,4.65,0,0,1,.54-1.46,4.59,4.59,0,0,1,1.13-1.23l.18-.14a2.77,2.77,0,0,0,.1-.26,5,5,0,0,1,.67-1.28c.1-.14.18-.3.27-.45a8.34,8.34,0,0,1,.67-1,6.93,6.93,0,0,1,.91-.9,2.66,2.66,0,0,0,.35-.32c.26-.29.54-.56.82-.82s.29-.27.42-.41.24-.28.36-.42a7.78,7.78,0,0,1,.8-.91,5,5,0,0,1,1.33-.83,2.1,2.1,0,0,0,.26-.13s.09-.13.17-.22a5.09,5.09,0,0,1,1-1.05,7.07,7.07,0,0,1,1.06-.65c.16-.09.32-.17.47-.27a3.9,3.9,0,0,0,.4-.31,6.52,6.52,0,0,1,1.05-.75,5.49,5.49,0,0,1,1.41-.5,1.59,1.59,0,0,0,.33-.08l.47-.25a8.2,8.2,0,0,1,1-.52,7.43,7.43,0,0,1,1.16-.36,4.21,4.21,0,0,0,.48-.12l.51-.21a9.58,9.58,0,0,1,1.07-.42l.53-.17c.36-.12.72-.24,1.09-.34a4,4,0,0,0,.49-.16,9,9,0,0,1,1.15-.34l.52-.14a7.51,7.51,0,0,1,1.15-.27,5.81,5.81,0,0,1,1.39,0,1.42,1.42,0,0,0,.35,0l.54-.06c.4-.05.78-.1,1.17-.11.14,0,.27,0,.41-.07a5.13,5.13,0,0,1,1.33-.15,4.42,4.42,0,0,1,1.58.37l.2.08h.43a6.68,6.68,0,0,1,1.28.08,4.58,4.58,0,0,0,.53,0,6.55,6.55,0,0,1,1.3.13c.6.13,1.21.27,1.79.43a5,5,0,0,1,1.46.7,2,2,0,0,0,.27.17l.53.14a8.91,8.91,0,0,1,1.21.36l.41.08a6.23,6.23,0,0,1,1.43.41,12,12,0,0,1,1.16.66c.16.1.32.2.49.29a8,8,0,0,1,1.11.8c.14.11.28.23.42.32a5.85,5.85,0,0,1,1.08.93,2.12,2.12,0,0,0,.34.33.86.86,0,0,1,.2.06,4.77,4.77,0,0,1,1.5.83c.46.41.92.85,1.36,1.3a9.28,9.28,0,0,1,.82,1c.12.16.23.32.36.47l.4.41a8,8,0,0,1,.88.93,6,6,0,0,1,.7,1.19c.08.16.17.34.22.42a2.76,2.76,0,0,0,.33.36,6.73,6.73,0,0,1,1.44,2.1c.09.17.17.35.26.51a3.27,3.27,0,0,0,.28.37,5.92,5.92,0,0,1,.75,1.08,5,5,0,0,1,.46,1.35,2.42,2.42,0,0,0,.1.36l.18.37c.19.39.38.79.56,1.19a3.62,3.62,0,0,0,.24.43,7.29,7.29,0,0,1,.59,1.1,6,6,0,0,1,.33,1.28c0,.11.05.27.07.36l.14.18a4.35,4.35,0,0,1,.81,1.36c.19.54.38,1.09.56,1.63a6.6,6.6,0,0,1,.24,1.27,2.55,2.55,0,0,0,.07.43,4.89,4.89,0,0,1,.17,1.51c0,.1,0,.2,0,.3l.17.34a6.19,6.19,0,0,1,.47,1.16,2.59,2.59,0,0,0,.17.33,5.64,5.64,0,0,1,.52,1.24c.1.36.19.72.28,1.07l.14.58c.08.31.15.63.22.94s.11.47.17.7a5.25,5.25,0,0,1,.11,1.46,1.63,1.63,0,0,0,0,.31c.06.25.13.56.19.86s.1.48.16.72a3.31,3.31,0,0,0,.18.53,7.32,7.32,0,0,1,.35,1.06c0,.09.1.19.15.3a5.17,5.17,0,0,1,.52,1.25c.06.26.13.51.21.76s.16.55.23.83a4.21,4.21,0,0,1,.07,1.34,3.43,3.43,0,0,0,0,.44c.06.27.11.56.16.88s.07.44.11.67l.11.17a5,5,0,0,1,.62,1.51,3.84,3.84,0,0,1-.08,1.71l0,.13a1.5,1.5,0,0,1,.09.18,5.77,5.77,0,0,1,.46,1.31,6.24,6.24,0,0,1,.09,1.23v.34l.09.14a4.5,4.5,0,0,1,.66,1.53,3.85,3.85,0,0,1,.06,1.05,2.27,2.27,0,0,1,.23.58c.08.39.15.78.23,1.17l.24,1.21a9.37,9.37,0,0,1,.17,1.56,6,6,0,0,0,.09.87c.07.35.18.69.28,1s.27.88.37,1.32.17.87.24,1.29.12.74.2,1.1.2.89.31,1.32l.24,1a7.51,7.51,0,0,1,.17,1.62,6.59,6.59,0,0,0,.07.8c.09.39.17.78.25,1.17s.17.8.27,1.2a4.53,4.53,0,0,0,.3.73,8.14,8.14,0,0,1,.6,1.53c.08.35.2.68.31,1s.29.85.41,1.29.19.9.26,1.36a8.73,8.73,0,0,0,.19,1c.12.42.2.85.29,1.29s.14.72.24,1.08.21.73.34,1.12.27.84.39,1.28a4.84,4.84,0,0,0,.34.74,9,9,0,0,1,.67,1.59c.13.43.22.88.31,1.34s.15.74.26,1.11a6.24,6.24,0,0,0,.36.87,11.16,11.16,0,0,1,.58,1.48,6.4,6.4,0,0,1,.21,1.85,4.23,4.23,0,0,0,0,.7c.13.44.24.89.34,1.35s.16.74.27,1.1a5.2,5.2,0,0,0,.34.58,6.33,6.33,0,0,1,.86,1.69,5.89,5.89,0,0,1,.21,1.91,4.11,4.11,0,0,0,0,.66,8.58,8.58,0,0,0,.38.91,11.51,11.51,0,0,1,.57,1.43,10.35,10.35,0,0,1,.33,1.53,7.94,7.94,0,0,0,.19.95,5.38,5.38,0,0,0,.33.48,5.75,5.75,0,0,1,1,1.75,11.48,11.48,0,0,1,.34,1.52,8.91,8.91,0,0,0,.2,1,10.78,10.78,0,0,1,.35,1.48,8.41,8.41,0,0,0,.23,1c.13.41.27.81.41,1.21s.27.79.4,1.19a4.65,4.65,0,0,0,.38.7,8,8,0,0,1,.78,1.58,6.83,6.83,0,0,1,.29,1.81,2.19,2.19,0,0,0,.47,1.49,8.39,8.39,0,0,1,.74,1.53,10.42,10.42,0,0,0,.41,1c.18.4.39.86.56,1.36a11.38,11.38,0,0,1,.37,1.51,7.82,7.82,0,0,0,.23.95c.15.44.28.89.4,1.33s.21.73.33,1.09a10.59,10.59,0,0,0,.43,1c.2.44.38.86.54,1.3a7.26,7.26,0,0,1,.34,1.78,4.41,4.41,0,0,0,.12.73,5.07,5.07,0,0,0,.43.82,8.78,8.78,0,0,1,.71,1.44c.18.47.31,1,.44,1.41s.18.68.3,1,.31.68.49,1,.4.78.58,1.22A9,9,0,0,1,311,302c0,.17.07.37.11.51a2.13,2.13,0,0,1,.86,1.05l.08.24a11.17,11.17,0,0,1,.44,1.31l.08.33a8.09,8.09,0,0,1,.26,1.35A8.53,8.53,0,0,1,312.78,308.42Zm-4.22-1.29a4.68,4.68,0,0,0-.14-.63l-.11-.4a5.89,5.89,0,0,0-.26-.78,2.17,2.17,0,0,1-.83-1,7.42,7.42,0,0,1-.43-1.57,5.38,5.38,0,0,0-.24-1,8.64,8.64,0,0,0-.39-.82,12.52,12.52,0,0,1-.69-1.5c-.17-.44-.3-.9-.43-1.37s-.19-.72-.32-1.08a7,7,0,0,0-.39-.73,8.71,8.71,0,0,1-.78-1.56,7.15,7.15,0,0,1-.33-1.73,5.56,5.56,0,0,0-.13-.8c-.11-.32-.26-.63-.4-.95s-.4-.89-.58-1.4-.27-.88-.4-1.33-.21-.74-.33-1.1A11.26,11.26,0,0,1,301,286a8.81,8.81,0,0,0-.24-1c-.11-.32-.25-.63-.39-.94a11.77,11.77,0,0,1-.58-1.41,5.86,5.86,0,0,0-.38-.74,7.82,7.82,0,0,1-.75-1.56,6.83,6.83,0,0,1-.29-1.81,3.9,3.9,0,0,0-.09-.74,3.71,3.71,0,0,0-.37-.69,7.55,7.55,0,0,1-.79-1.61c-.12-.36-.25-.73-.37-1.1s-.3-.86-.44-1.3a12.76,12.76,0,0,1-.36-1.49,9.28,9.28,0,0,0-.22-1,10.19,10.19,0,0,1-.35-1.52,8,8,0,0,0-.2-1c0-.08-.22-.32-.34-.49a5.62,5.62,0,0,1-1-1.75,12,12,0,0,1-.34-1.56,7.71,7.71,0,0,0-.18-.93,8.18,8.18,0,0,0-.39-.93,13.09,13.09,0,0,1-.57-1.42,6.5,6.5,0,0,1-.22-2,1.38,1.38,0,0,0-.37-1.24,6.18,6.18,0,0,1-.85-1.67c-.14-.47-.25-.94-.36-1.41s-.15-.71-.26-1.05a6.91,6.91,0,0,1-.22-1.91,4.11,4.11,0,0,0,0-.66,7.59,7.59,0,0,0-.37-.91,9.33,9.33,0,0,1-.57-1.45,14.76,14.76,0,0,1-.35-1.46c-.07-.34-.14-.68-.23-1a5.45,5.45,0,0,0-.37-.82,7.92,7.92,0,0,1-.65-1.54c-.11-.38-.23-.76-.35-1.13s-.28-.88-.39-1.3-.22-.92-.31-1.38-.13-.68-.22-1a13.11,13.11,0,0,1-.29-1.44,9.59,9.59,0,0,0-.18-1c-.08-.34-.2-.66-.31-1s-.3-.9-.41-1.35a6,6,0,0,0-.31-.73,8.06,8.06,0,0,1-.6-1.57c-.11-.44-.2-.88-.29-1.33s-.15-.71-.23-1.06a7.11,7.11,0,0,1-.18-1.63,5.45,5.45,0,0,0-.07-.82l-.24-1c-.1-.46-.21-.92-.32-1.39s-.17-.87-.24-1.32-.12-.72-.2-1.08-.17-.64-.27-1-.28-.89-.39-1.4a8.83,8.83,0,0,1-.17-1.53,7.16,7.16,0,0,0-.09-.92c-.08-.41-.17-.84-.25-1.27,0,0,0-.06,0-.09a2.14,2.14,0,0,1-.49-1,5.33,5.33,0,0,1,0-1.47,1.23,1.23,0,0,0,0-.19l-.08-.13A4.1,4.1,0,0,1,280,212a6.16,6.16,0,0,1-.1-1.28,2.67,2.67,0,0,0,0-.4,3.23,3.23,0,0,0-.15-.34,5.67,5.67,0,0,1-.44-1.24,4.34,4.34,0,0,1,.09-1.79h0l-.06-.1a4.43,4.43,0,0,1-.58-1.37c-.07-.34-.13-.66-.18-1s-.07-.45-.11-.66a5.34,5.34,0,0,1-.08-1.64s0-.09,0-.14l-.15-.52c-.09-.31-.18-.63-.26-.95,0-.07-.09-.17-.14-.27a5.27,5.27,0,0,1-.53-1.3,3.34,3.34,0,0,0-.18-.5,9.28,9.28,0,0,1-.36-1.09l-.18-.85c-.05-.26-.11-.52-.17-.77a5.38,5.38,0,0,1-.1-1.43c0-.11,0-.22,0-.32s-.11-.46-.17-.72-.12-.56-.2-.84l-.14-.59c-.09-.34-.17-.68-.26-1a2.48,2.48,0,0,0-.17-.32,5.86,5.86,0,0,1-.51-1.21c0-.08-.12-.27-.19-.42a7.53,7.53,0,0,1-.45-1.1,4.85,4.85,0,0,1-.16-1.46c0-.1,0-.2,0-.3a5.83,5.83,0,0,1-.21-1.11c0-.15,0-.36-.06-.43-.16-.49-.33-1-.5-1.47l-.14-.19a4.56,4.56,0,0,1-.79-1.29,7,7,0,0,1-.3-1.18A2.28,2.28,0,0,0,272,180a4.71,4.71,0,0,0-.25-.45,6.46,6.46,0,0,1-.53-1c-.16-.36-.32-.7-.49-1l-.2-.41a6.23,6.23,0,0,1-.39-1.22,3.58,3.58,0,0,0-.09-.35s-.17-.22-.28-.36a7.57,7.57,0,0,1-.65-.9c-.15-.26-.28-.53-.42-.8a4.14,4.14,0,0,0-.31-.59,3.47,3.47,0,0,0-.36-.41,8.46,8.46,0,0,1-.73-.84,6.54,6.54,0,0,1-.59-1.06c-.07-.14-.17-.33-.21-.39a4.62,4.62,0,0,0-.49-.5c-.22-.22-.44-.44-.64-.66s-.4-.5-.59-.75a4.5,4.5,0,0,0-.41-.52c-.36-.36-.72-.71-1.09-1l-.24-.09a5.17,5.17,0,0,1-1.29-.67,8,8,0,0,1-.82-.75,2.49,2.49,0,0,0-.34-.33c-.27-.18-.53-.38-.79-.59a4.52,4.52,0,0,0-.48-.37c-.24-.13-.47-.27-.7-.42s-.48-.3-.67-.39a2.14,2.14,0,0,0-.38-.07,6.45,6.45,0,0,1-1.2-.31,5.45,5.45,0,0,0-.69-.2c-.29-.07-.58-.14-.86-.23a5.33,5.33,0,0,1-1.25-.64c-.1-.06-.19-.13-.29-.18l-1.52-.36a3.54,3.54,0,0,0-.52,0,7.35,7.35,0,0,1-1.15-.1h-.48a7.57,7.57,0,0,1-1,0,4.69,4.69,0,0,1-1.32-.36l-.18-.07-.31.06a6,6,0,0,1-1.1.15c-.25,0-.51,0-.77.08l-.7.08a6.09,6.09,0,0,1-1.16,0,1.48,1.48,0,0,0-.36,0,4.71,4.71,0,0,0-.57.14c-.29.09-.58.17-.87.23a2.72,2.72,0,0,0-.53.17c-.29.1-.6.21-.9.29s-.51.15-.76.23l-.66.22a4.54,4.54,0,0,0-.61.24c-.26.11-.51.22-.78.32a9.41,9.41,0,0,1-.91.25c-.21.06-.41.1-.53.15s-.37.19-.56.29-.5.28-.76.41a5.92,5.92,0,0,1-1.19.38,1.67,1.67,0,0,0-.32.08l-.39.31a8.5,8.5,0,0,1-.77.57c-.24.16-.49.3-.75.44a5,5,0,0,0-.55.33c-.06.06-.12.15-.2.25a5.46,5.46,0,0,1-.83.9,5.15,5.15,0,0,1-1.18.7l-.23.11c-.12.13-.23.28-.35.42s-.39.49-.61.71-.38.37-.57.56a6.75,6.75,0,0,0-.54.53,6.5,6.5,0,0,1-.78.74,4.32,4.32,0,0,0-.36.34,3.81,3.81,0,0,0-.3.48,9.64,9.64,0,0,1-.55.86,2.07,2.07,0,0,0-.1.26,5.36,5.36,0,0,1-.59,1.18,5.18,5.18,0,0,1-1,1l-.16.13s0,.11,0,.19a5.52,5.52,0,0,1-.44,1.3c-.17.33-.32.67-.48,1l-.18.41a9.12,9.12,0,0,1-.51.91,4,4,0,0,0-.28.49,5.89,5.89,0,0,1-.51,1c-.06.12-.13.24-.18.33s0,.09,0,.13a4.27,4.27,0,0,1-.15,1.7,6,6,0,0,1-.47,1.06c-.08.16-.18.35-.21.44s-.05.3-.07.5a7.16,7.16,0,0,1-.21,1.12,4.37,4.37,0,0,1-.74,1.44l-.06.07s0,.07,0,.11a4.54,4.54,0,0,1-.05,1.58,8.53,8.53,0,0,1-.28,1c-.07.21-.14.43-.19.65a4.75,4.75,0,0,1-.64,1.44,1.74,1.74,0,0,0-.11.18c0,.11,0,.26,0,.4a6.24,6.24,0,0,1-.12,1.21,9,9,0,0,1-.26,1c-.06.21-.12.42-.17.64s0,.21,0,.33a5.49,5.49,0,0,1,0,1.37c-.05.24-.08.49-.11.74s-.08.62-.14.93-.14.65-.22,1-.12.44-.16.67a10.12,10.12,0,0,1-.27,1.05,4,4,0,0,0-.15.6c0,.21,0,.42-.07.64s-.06.7-.12,1a2.06,2.06,0,0,0,0,.34,5.86,5.86,0,0,1,0,1.37l-.18.9c-.05.26-.11.51-.15.77a5.68,5.68,0,0,1-.41,1.28,2.79,2.79,0,0,0-.14.37l-.12.75-.15.93c-.06.32-.13.64-.21,1s-.11.46-.16.7,0,.41-.06.62a7.76,7.76,0,0,1-.12,1.08,6.18,6.18,0,0,1-.36,1.2c-.06.17-.13.36-.15.45,0,.28-.11.56-.17.84a2,2,0,0,1,0,.85q-.06.4-.09.81c0,.4-.08.79-.14,1.18a10.29,10.29,0,0,1-.31,1.22,6.17,6.17,0,0,0-.19.74c0,.27-.07.54-.1.81s-.08.8-.15,1.2a7,7,0,0,1-.47,1.41,3.69,3.69,0,0,0-.2.51c0,.24-.05.48-.07.73a11.25,11.25,0,0,1-.15,1.28c-.08.39-.19.79-.31,1.18s-.15.51-.2.77a4.29,4.29,0,0,0,0,.56,7.28,7.28,0,0,1-.11,1.47,6.29,6.29,0,0,1-.56,1.47,3.54,3.54,0,0,0-.2.43c-.05.25-.08.51-.11.77a10,10,0,0,1-.18,1.22c-.08.38-.19.75-.3,1.12s-.15.55-.22.84a8,8,0,0,1-.4,1.25c-.09.25-.18.49-.23.67s-.07.48-.1.73a11.55,11.55,0,0,1-.19,1.27c0,.08,0,.34,0,.52a6.09,6.09,0,0,1-.14,1.51,5.33,5.33,0,0,1-.64,1.49c-.07.14-.18.32-.21.4v.44a5.67,5.67,0,0,1-.13,1.57c-.07.29-.14.58-.2.87s-.16.73-.26,1.1a7.88,7.88,0,0,1-.42,1.22,5.63,5.63,0,0,0-.24.69,9,9,0,0,1-.45,1.25,5.77,5.77,0,0,0-.23.58c0,.1,0,.2,0,.31a5,5,0,0,1-.06,1.83,8.14,8.14,0,0,1-.48,1.26c-.1.25-.2.47-.25.63s-.07.43-.1.69a9.31,9.31,0,0,1-.23,1.31,5.07,5.07,0,0,1-.78,1.55,2.75,2.75,0,0,0-.19.28c0,.11,0,.23,0,.35a5.28,5.28,0,0,1-.13,1.7c-.1.37-.24.74-.37,1.12s-.19.52-.27.78a5.16,5.16,0,0,1-.75,1.51,2.14,2.14,0,0,0-.21.36,5.6,5.6,0,0,0-.09.61,8.48,8.48,0,0,1-.24,1.34c-.11.38-.25.75-.39,1.13a7,7,0,0,0-.27.77,3.2,3.2,0,0,0-.05.54A6.81,6.81,0,0,1,199,272c-.08.29-.15.58-.22.87s-.17.72-.28,1.09-.23.73-.37,1.09-.2.54-.28.81a9.92,9.92,0,0,1-.42,1.15c-.1.25-.2.49-.28.74s-.12.53-.18.8a11.52,11.52,0,0,1-.28,1.16c0,.1,0,.35-.06.55a6.24,6.24,0,0,1-.22,1.47l-.33,1c-.1.29-.2.59-.29.88a6.34,6.34,0,0,1-.58,1.32,5,5,0,0,0-.26.53c-.09.3-.17.61-.26.91s-.19.68-.3,1-.23.71-.36,1.07-.2.55-.29.83-.12.51-.17.77a12.09,12.09,0,0,1-.28,1.19,7.45,7.45,0,0,1-.53,1.25c-.11.24-.22.46-.27.61-.1.34-.21.68-.32,1l-.19.61a2.72,2.72,0,0,1-.12.62c-1.73,4.65,1.77,8.95,6.38,11.53l0-.12c.05-.27.15-.76.23-1.09l.31-1.07c.24-.72.51-1.5.79-2.33.05-.21.11-.43.16-.66l.08-.34,0-.17s0,.21,0,.1v-.15c.08-.41.2-1.1.32-1.53s.24-1,.33-1.49l.08-.38,0-.1.05-.18v0l0-.05.07-.19.24-.63c.14-.44.19-1.08.35-1.58s.33-1.1.46-1.67c.19-.83.37-1.18.51-1.72.06-.29.13-.58.2-.87v-.23l0-.53,0-.33,0-.16v-.12c-.06.22.1-.35.09-.3a3.78,3.78,0,0,1,.29-.65l.16-.27,0-.39.07-.66c.07-.38.16-.65.24-1,.26-1.14.58-1.42.54-1.65l0-.58,0-.35,0-.17v0l.05-.2,0-.06.29-.83,0-.09h0v0l0-.25.09-.55a7.13,7.13,0,0,1,.23-1.07c.17-.67.36-1.34.52-2l.11-.52,0-.25v-.05l0-.48,0-.73c0-.28.06-.39.08-.59l.09-.53,0-.26v-.07c0,.05.13-.5.08-.28v0l.05-.13.18-.46a1.15,1.15,0,0,1,.12-.25v-.07c0-.1,0,0,0,0h0v-.22a2.79,2.79,0,0,1,0-.51l0-.33,0-.16v-.07l.07-.26.13-.53.06-.27.08-.3,0-.13.16-.5.12-.36.26-1.06,0-.08c0-.07,0-.17,0-.15a.08.08,0,0,0,0,.07l0-.39v-.29l0-.35,0-.17v-.09l0-.16,0-.13.14-.51.12-.41.08-.55.08-.54,0-.13c0-.08,0,.13,0-.19v0l0-.06.07-.26c.12-.41.18-.5.27-.89l.24-1.07.14-1.08c.05-.34.13-.71.19-1.06l0-.23v-.17l.06-.57,0-.33,0-.17v-.08c0,.17.06-.28.05-.24v0l.08-.26c.07-.18.14-.35.22-.52l.1-.22,0,0c0-.09,0-.22,0-.29l.07-.53v-.31l0-.58,0-.37V255c-.06.22.08-.35.07-.3v0l.19-.5a2.23,2.23,0,0,1,.13-.3l0-.07,0-.13,0-.26.08-.52,0-.26,0-.17v-.07l0-.12.13-.49,0-.21,0-.1h0l0-.4,0-.67v-.22a1.52,1.52,0,0,0,0-.19l0-.06.07-.25L211,249l.09-1.15v-.08c0-.11,0,.17,0-.24v0l0-.12.08-.24c.06-.18.1-.28.14-.38l.06-.15h0v0l0-.52,0-.66.06-.5.06-.49,0-.24v0c0-.1-.05.2.05-.24l0-.06,0-.12a5.79,5.79,0,0,1,.32-.76l0-.09v-.16l0-.53a8.21,8.21,0,0,1,.14-1l.07-.46,0-.12h0l0-.2c0-.35.05-.7.08-1v0c0,.2.07-.3.06-.26l0-.06,0-.1,0-.11.09-.21c.06-.15.14-.3.21-.45l.05-.08v-.24l.06-.92.09-.92,0-.24v0c0,.24,0,.05,0,.1v-.16l0-.42,0-.49,0-.24c.08-.4,0-.13,0-.22v-.08l0-.1c.51-1.37.28-.43.41-1.32l.05-.39,0-.19v-.07l0-.17,0-.09c.07-.23.13-.45.19-.67l.09-.27,0-.37.06-.66h0v-1.4c.09-.47.18-.93.26-1.37s.18-.72.26-1.06.16-.74.23-1.09v-.38l0-.55a7.49,7.49,0,0,1,.09-1l.06-.41,0-.19,0-.18v0l0,0,0-.1a9.45,9.45,0,0,0,.29-1.06c.07-.68.13-1,.13-1a1.53,1.53,0,0,1,3,.23v.14s0,.37,0,1a9.62,9.62,0,0,1-.27,1.39l0,.09h0V223c0,.13,0,.27,0,.41a6.38,6.38,0,0,0-.06.84v.85l0,.15h0v.07c-.06.35-.13.71-.2,1.09s-.17.83-.26,1.28-.12.77-.19,1.17a5.92,5.92,0,0,1,0,1.39c0,.23,0,.47,0,.71l0,.37-.1.45c-.06.26-.13.53-.19.8v0l0,.19,0,.39,0,.39a1.93,1.93,0,0,1,0,.25,3.17,3.17,0,0,1-.12.44,2.23,2.23,0,0,1-.12.33l-.1.24h0l0,.1v.51c0,.31,0,.62,0,.93s0,.53-.05.8v1.3s0,.32,0,.21l0,.13-.08.28-.09.27c0,.08,0,.11-.07.16l-.15.29s0,0,0,0,0,0,0,0l0,.11,0,.77v.23l-.05.37-.06.47a6,6,0,0,0-.09.86l0,.43,0,.24v.12c0-.1,0,.17,0,.17v.07l0,.15c-.05.18-.12.41-.17.53l-.15.32s0,0,0,0h0v0l0,.11v0l0,.23,0,.49c0,.15,0,.34,0,.47v.35l0,.48V247c0,.1,0-.17,0,.23l0,.08-.09.32-.17.58-.08.25h0v.38l0,.51v.12c0,.35,0,.12,0,.21v0l0,.08-.08.31-.15.55-.05.2h0V251c0,.13,0,.21,0,.37v.52c0,.11,0-.2,0,.26v0l0,.08,0,.15-.07.3-.13.53,0,.13v0h0l0,.26-.07.53a2.54,2.54,0,0,1-.11.57l-.23.71-.12.34v.94c0-.19,0,.3,0,.26v0l0,.27-.06.53,0,.27a1.87,1.87,0,0,1-.11.48l-.09.31a1.82,1.82,0,0,1-.08.19l-.12.27v0l0,.15v.34l0,.51v.2l0,.21,0,.26c-.06.37-.13.71-.18,1.09l-.12,1.08-.21,1.07c-.06.33-.24.92-.32,1.22l-.08.26h0v.11l-.07.54-.07.55-.17.64-.13.5v.09c0,.2,0,.41,0,.61a1.5,1.5,0,0,1,0,.33v.07l0,.29v0l0,.13-.25,1.06-.36,1.22,0,.13c0,.17,0-.19,0-.14v.1l-.07.26-.12.53-.06.23a.08.08,0,0,0,0,0l0,.32a4.61,4.61,0,0,1,0,.53v.23c0,.12,0-.21,0,.27l-.25.73-.2.54,0,.05,0,.21-.08.53a1.82,1.82,0,0,0-.05.47c0,.12,0,.19,0,.34l0,.53v0l0,.29v.07l0,.13-.05.26-.11.52c-.15.69-.34,1.37-.51,2a7.19,7.19,0,0,0-.2,1l-.07.47,0,.26v.09s0,.22,0,.14l0,.16-.34,1.06v.23l0,.42,0,.25v.1c-.08.48,0,.15,0,.27l-.06.17-.23.65-.18.46,0,.06h0l-.05.18c-.07.3-.18.66-.22.92v.31l-.05.47v.15l-.05.27,0,.15a4.49,4.49,0,0,1-.23.61l-.19.32a1.09,1.09,0,0,1-.06.11v0a.09.09,0,0,0,0-.05v0l0,.06v0h0v.21l0,.4,0,.23v.06a2.2,2.2,0,0,1-.05.29v0l0,.11-.21.9c-.16.64-.46,1.4-.51,1.73-.14.57-.3,1.14-.47,1.68s-.2,1.07-.39,1.68l-.32.89-.06.17v0l-.08.39c-.1.51-.22,1-.35,1.5s-.17.81-.29,1.32-.24,1-.36,1.45-.29.84-.43,1.24-.34,1-.41,1.13l-.32,1.06c-.09.36-.11.52-.19.88l-.05.23-.09.36c0,.14-.08.28-.11.42s-.15.54-.21.79l-.17.66a2.88,2.88,0,0,1-.2.61.69.69,0,0,1-.07.15,2.07,2.07,0,0,1-.11,1c-.15.39-.27.76-.39,1.14a4.32,4.32,0,0,1-.49,1.09l-.07.12c0,.15,0,.3,0,.45s0,.42-.05.63a1.82,1.82,0,0,1,.05.2,5.83,5.83,0,0,1,.09,1c0,.2,0,.38,0,.57a3.51,3.51,0,0,0,0,.56c0,.25,0,.49,0,.74s0,.33,0,.4a7,7,0,0,1,.12.82c0,.06,0,.12,0,.19l0,0a4.5,4.5,0,0,1,.69.95,6.62,6.62,0,0,0,.54.91c.11.16.21.32.31.48a1.75,1.75,0,0,0,.67.73l.51.41a6.28,6.28,0,0,1,.62.64,2.29,2.29,0,0,0,.21.23l.28.11a7.76,7.76,0,0,1,.77.37l.53.32a4.71,4.71,0,0,0,.48.29l.32.07a8,8,0,0,1,.84.22,6.17,6.17,0,0,1,.92.44l.24.13c.33.08.73.15,1.14.23a2.41,2.41,0,0,0,.38,0c.33,0,.58,0,.87,0a5.78,5.78,0,0,1,.95.2l.21.06.09,0a4.19,4.19,0,0,1,1.26-.21h.18l1.11,0a6.85,6.85,0,0,1,1,.06l.33,0a4.07,4.07,0,0,1,1.25.11l.12,0,.2-.05a5.37,5.37,0,0,1,1-.2l.17-.06a5,5,0,0,1,1.13-.25l1.15-.07h.19l1,0h.41a4.43,4.43,0,0,1,1.33.19l.15,0c.42,0,.81,0,1.18.08l.2,0,.37,0a4.57,4.57,0,0,1,1.37.19l.27,0a4.71,4.71,0,0,1,1.37.37l.12.06a11.86,11.86,0,0,1,1.37.7,4.46,4.46,0,0,1,1.08,1,1.29,1.29,0,0,0,.16.17c.27.21.56.47.85.73l.24.21.16.08a4.37,4.37,0,0,1,1.21.8,3.66,3.66,0,0,1,.85,1.36l0,0,.12.08a5.31,5.31,0,0,1,.91.75,6.32,6.32,0,0,1,.65.89l.11.17.1.05a4.07,4.07,0,0,1,1.11.75,4.9,4.9,0,0,1,.72.93l.09.14a7.4,7.4,0,0,0,.81.53,7.91,7.91,0,0,1,.75.54l.11.09a3.71,3.71,0,0,1,1.35.26l.23.09a8.53,8.53,0,0,0,.84.32c.25.08.49.18.72.27a2.29,2.29,0,0,0,.36.14,6.68,6.68,0,0,1,.73.21l.32.09.18,0a5.42,5.42,0,0,1,1-.1,4.71,4.71,0,0,1,1.09.17h0a4.41,4.41,0,0,1,1.18-.38,4.25,4.25,0,0,1,1.26,0h0l.06,0a4.83,4.83,0,0,1,1-.44,5.34,5.34,0,0,1,.95-.17H252a7,7,0,0,0,.83-.49l.13-.16a7.25,7.25,0,0,1,.68-.67,2,2,0,0,0,.24-.26,6.76,6.76,0,0,1,.58-.62,5,5,0,0,1,.86-.62l.21-.13a6.33,6.33,0,0,1,.58-.52,3,3,0,0,0,.33-.29c.19-.2.37-.41.55-.62l.25-.29.07-.15a4.13,4.13,0,0,1,1.53-1.83l.18-.13.31-.41c.14-.2.29-.39.45-.58l.06-.15a4.69,4.69,0,0,1,.61-1,4.23,4.23,0,0,1,1-.89l.1-.06.21-.29c.17-.25.34-.49.53-.72,0,0,.06-.12.11-.2a5.16,5.16,0,0,1,.64-1c.22-.24.46-.47.7-.69s.22-.2.31-.3c.26-.27.53-.52.8-.75l.28-.25a6.23,6.23,0,0,1,1.05-.75l.25-.16a6.09,6.09,0,0,1,1.61-.82l.13-.11a4.26,4.26,0,0,1,1.39-.69,6.29,6.29,0,0,1,1.44-.14h.32a8.88,8.88,0,0,1,1.82.08l.33,0A5.12,5.12,0,0,1,275,321l.33.09a6.14,6.14,0,0,1,1.32.48,3.93,3.93,0,0,1,1.19,1l.11.13a3.37,3.37,0,0,0,.32.19,9.92,9.92,0,0,1,.9.59,4.19,4.19,0,0,1,.52.44,3.73,3.73,0,0,1,.93.1l.44.12a1.87,1.87,0,0,0,.32.08l.27-.07.38-.08a8.27,8.27,0,0,0,1-.31,4.94,4.94,0,0,1,1-.25,4.43,4.43,0,0,1,.87-.87c.2-.14.41-.27.62-.4A3.58,3.58,0,0,0,286,322a4.37,4.37,0,0,1,1-.63h0a4.07,4.07,0,0,1,.67-1.18,4,4,0,0,1,1.14-.89l.1-.06.17-.25a8.31,8.31,0,0,1,.63-.84c.35-.39.71-.76,1.09-1.13l.08-.07a12.17,12.17,0,0,1,1.15-1,11.46,11.46,0,0,1,1.45-1,10.84,10.84,0,0,1,1.67-.76,6.68,6.68,0,0,1,1.34-.25l.39,0,.24-.1a5,5,0,0,1,1.33-.37,6,6,0,0,1,1.12,0,1.62,1.62,0,0,0,.31,0l.12-.06a4.71,4.71,0,0,1,1.15-.37l.54-.07c.21,0,.43-.05.64-.1a6.17,6.17,0,0,0,.61-.19l.51-.18a4.75,4.75,0,0,1,1.07-.19l.18,0c.3-.13.59-.27.86-.42l.12-.13a5.27,5.27,0,0,1,.71-.67,3.17,3.17,0,0,1,1-.5,3.9,3.9,0,0,1,.36-.8,5.93,5.93,0,0,1,.38-.54c.06-.08.12-.15.17-.23a3.45,3.45,0,0,1,.13-.37,3.79,3.79,0,0,0,.15-.43v-.17A4.94,4.94,0,0,0,308.56,307.13Zm-99.05-49.76v0C209.5,257.47,209.5,257.43,209.51,257.37ZM210.69,273l0,.07v0a.15.15,0,0,0,0-.07h0Zm.93-5h0s0,0,0,0Zm.57-25.06Zm2.22-13.19s0-.11,0,0Zm59.82,84.06v.15a2,2,0,0,1-3.91.07s0-.31,0-.91v-.33h0c0-.18-.09-.38-.14-.59-.11-.48-.24-1-.38-1.65,0-.15-.07-.3-.11-.45l0-.12v0h0s0,.05,0,.11l0-.06-.06-.24c-.1-.36-.2-.73-.3-1.12s-.14-.74-.21-1.13l-.05-.29,0-.15,0-.2v-.07l-.06-.62c0-.41-.08-.84-.12-1.28a8.84,8.84,0,0,0-.17-1.25l-.15-.7,0-.17,0-.09h0l0,.1v-.07l-.09-.36c-.1-.44-.29-1.14-.35-1.59,0-.26-.09-.51-.13-.77l0-.17v0l0-.1-.09-.39c-.07-.29-.13-.58-.2-.87l0-.12v0c-.05-.38,0-.12,0-.21v-1.29l-.18-.8a11.18,11.18,0,0,1-.27-1.81c-.06-.59-.17-1.17-.26-1.77-.1-.92-.05-1.18-.16-1.84l-.15-.92,0-.11v0l0-.11c-.05-.22-.06-.14-.07-.18l-.1-.22c0-.11-.08-.18-.13-.32s-.09-.32-.13-.48l0-.13V288c0,.24,0-.39,0-.34v-.36c0-.15,0-.34.06-.51l.08-.41-.07-.2-.17-.55-.18-.62-.11-1-.06-.5,0-.23v-.22a2,2,0,0,1,0-.33l0-.47,0-.2a.34.34,0,0,0,0-.09h0c0-.07-.05-.2-.06-.18l0,0-.1-.25a5.07,5.07,0,0,1-.26-.86l0-.12c0-.4,0-.13,0-.23v-.41c0-.37,0-.56,0-.83a16.31,16.31,0,0,1-.37-2c-.05-.68-.11-1.37-.17-2.05,0-.34-.06-.7-.11-1l-.06-.51,0-.26v-.09c0-.15-.08-.33-.09-.29h0l0-.07-.13-.33a5.39,5.39,0,0,1-.24-.94l-.09-.51-.08-.51,0-.25,0-.13v0c0,.19,0-.3,0-.26v-.32c0-.08,0-.3,0-.45l.08-.55v-.07c0-.11,0,0,0,0h0l0-.08-.14-.33a4.82,4.82,0,0,1-.25-1l-.05-1,0-.71,0-.51,0-.83,0-1v-.34l0-.16c0-.05,0-.06,0-.05h0l0-.06-.15-.32a4.46,4.46,0,0,1-.16-.46l-.06-.29,0-.15V261a1.23,1.23,0,0,1,0-.18v-1.37l-.06-.5-.14-1v0c0-.35,0-.12,0-.2v-.44l0-.45a16.37,16.37,0,0,0,0-1.82c0-.4-.21-1.27-.27-1.89l-.08-1v-.32l-.08-.46c-.07-.35-.13-.7-.2-1,0,.19,0-.3,0-.26v-.2a2.05,2.05,0,0,1,0-.28l.07-.42.07-.29c0-.06,0-.13,0-.16s0,0,0,0l0-.22-.12-.88,0-.22v-.05l0-.21a.63.63,0,0,0,0-.15,1.25,1.25,0,0,1-.09-.24,6,6,0,0,1-.17-.64l0-.2,0-.1v0c0,.16,0-.29,0-.25v-.22a4.3,4.3,0,0,1,.08-.62l.09-.44v-.06h0c-.06-.57-.12-1.12-.17-1.67,0-.26,0-.52,0-.78v-.56l0-.15a.33.33,0,0,0,0-.13l0-.06,0-.13a4.29,4.29,0,0,1-.25-1.25l0-.73,0-.57c-.09-.45-.18-.88-.27-1.3l0-.2v0c0,.16,0-.25,0-.21v-.13l0-.32c0-.19,0-.38.05-.56l0-.23v-.09c0-.2-.09-.39-.14-.58l-.15-.69,0-.17v-.06c0,.14,0,0,0,.06v-.07l0-.27c-.06-.38-.11-.75-.16-1.09v-.12c0,.18,0-.26,0-.22v-.12l0-.24a5.8,5.8,0,0,1,.14-.76l0-.15s0-.11,0-.09,0,0,0,0h0c-.06-.26-.1-.51-.15-.74s-.09-.51-.13-.73,0-.38-.05-.54c-.07-.64-.07-1-.07-1a1.43,1.43,0,0,1,2.82-.35v0s.07.33.16,1c0,.16.06.34.09.53s.09.35.14.54.11.46.16.72l0,.09v0c0,.24,0,.08,0,.14v.16c0,.14,0,.29,0,.43a2.06,2.06,0,0,1-.05.35l-.06.28c0,.14,0,.07-.05.14v.27c.05.31.11.63.18,1l0,.27,0,.07v.13l0,.11c.05.13.09.28.13.42s.11.38.16.58l0,.14v0c.06.37,0,.12,0,.2V235l0,.39,0,.71v.32l0,.11c0,.17.09.36.14.54l.08.34,0,.17,0,.08v0c0-.12,0,.2,0,.18v0c0,.52,0,1,0,1.59,0-.17,0,0,.09.19l.18.53c.07.24.06.28.1.44v.07l0,.18v.78c0,.26,0,.52,0,.78v.12l0,.2.06.4.05.41,0,.2a1.52,1.52,0,0,1,0,.28c0,.14,0,.29,0,.43l0,.21,0,.13-.07.4s0,0,0,.21v0h0a1,1,0,0,0,.06.2,5.55,5.55,0,0,1,.19.58,2.19,2.19,0,0,1,.08.27l0,.21.1.61c.05.29.09.59.14.88l0,.22v.48a5.11,5.11,0,0,1-.1.73l0,.16v0s0,.12,0,.18v0l.17.72.09.46,0,.11,0,.26,0,.24.1.93c.07.63.19,1,.29,1.89,0,.67.11,1.21.09,2.07v.89l.15.94.07.49,0,.58v.85h0l.06.13.18.42.1.24.06.18.06.24,0,.07.05.28v.41l.06,1c0,.36,0,.87,0,1.2v.57l0,.25.06,1s-.09-.25.25.51c.06.13.14.37.16.43l.06.25,0,.06c.09.5,0,.18.05.31v.34a3.63,3.63,0,0,1,0,.5,3.57,3.57,0,0,1-.07.45s0,0,0,.07v.18l0,.11.05.25.09.51.09.5c0,.1,0-.07,0,.05l.22.55a4.44,4.44,0,0,1,.2.65v0l.05.23v.2l0,.25.07.51c.05.35.08.67.11,1,.05.68.11,1.36.17,2a15.71,15.71,0,0,0,.37,2l0,1.19V280h0l0,.08.08.22.16.43a1.4,1.4,0,0,1,.09.3l0,.12v.06s.08.4.05.25v.06a4.52,4.52,0,0,1,0,.91l0,.29,0,0s0,.07,0,.16v.18l0,.35.12,1,.12.31.13.39.15.46c0,.12-.05-.23.06.27v.53a3.26,3.26,0,0,1,0,.53,3.12,3.12,0,0,1-.09.42s0,0,0,0v.11l.12.27a6.26,6.26,0,0,1,.26.71l0,.11v.09l0,.23,0,.24.16.92c.1.56.14,1.54.16,1.82.09.6.2,1.19.26,1.77a10.21,10.21,0,0,0,.24,1.64c.06.28.12.55.19.82v0c0,.21,0,.08,0,.13v.2l0,.26,0,.5,0,.42v.2c.06.24.11.47.16.71l.1.39.06.29,0,.2c0,.26.1.51.14.77.09.56.19.83.31,1.35l.09.36.09.47c0,.23.1.47.14.7a11,11,0,0,1,.19,1.46c0,.45.07.88.1,1.3,0,.21,0,.41,0,.62v.17l0,.3c.06.37.11.78.18,1.09s.17.61.24.89l.06.24,0,.06,0,.19,0,.12.09.45c.12.55.23,1.05.33,1.48l.14.63v0l0,.09h0v.3c0,.11,0,.22,0,.33C274.23,313.4,274.23,313.77,274.23,313.77Zm-11-81.95Zm0,.19h0Zm.29,36.44h0C263.57,268.4,263.55,268.46,263.56,268.45Zm1.86,13.5Zm.57,4.32v0C266,286.17,266,286.23,266,286.27Zm.28-25.78v0Zm.6,4.62v0h0Zm2.07,14.82Zm.71,30Zm-36-57.76a2,2,0,0,0-1.86-2.13,2,2,0,0,0-2.13,1.86c0,.32,0,.65,0,1a4.18,4.18,0,0,1,0,.51l-.11,1.48c0,.31,0,.61,0,.92s0,.39,0,.58,0,.44-.07.66-.06.56-.08.84a3.85,3.85,0,0,1-.08.47,6.12,6.12,0,0,0-.16,1c0,.28,0,.57,0,.85s0,.43,0,.64a5.07,5.07,0,0,1-.09.54c0,.31-.11.63-.13,1a4.87,4.87,0,0,0,.11,1.3c0,.09,0,.18.06.22,0,.21-.05.42-.08.64s-.08.56-.1.86a2.29,2.29,0,0,1-.09.44,9.41,9.41,0,0,0-.18,1.05c0,.21,0,.42-.07.63s-.08.57-.1.85a4.65,4.65,0,0,0,.1,1.26,1.49,1.49,0,0,0,0,.22,1.14,1.14,0,0,1-.09.3,5.58,5.58,0,0,0-.25,1.18c0,.27,0,.55,0,.83s0,.43,0,.64a5.22,5.22,0,0,0,.07,1.18c0,.11,0,.22,0,.32l-.12,1.48c0,.2,0,.4-.08.61a8.62,8.62,0,0,0-.11.87q0,.31-.09.63c0,.28-.08.56-.1.84s0,.61,0,.91a5.62,5.62,0,0,1,0,.58,3.58,3.58,0,0,1-.09.45,7.2,7.2,0,0,0-.19,1,5.77,5.77,0,0,0,0,1.13,1.5,1.5,0,0,1,0,.36,1.89,1.89,0,0,1-.09.34,5.67,5.67,0,0,0-.25,1.12c0,.23-.05.45-.08.67s-.08.54-.1.81a6.82,6.82,0,0,0,0,1.12,1.77,1.77,0,0,0,0,.31c0,.09-.07.17-.1.25a4.72,4.72,0,0,0-.36,1.28,6.09,6.09,0,0,0,0,1.16,2,2,0,0,1,0,.34c0,.26-.05.52-.07.78s-.05.47-.07.7a4.86,4.86,0,0,1-.1.55c-.06.31-.12.61-.15.92-.06.5-.12,1-.19,1.5,0,.23-.09.46-.14.69s-.11.53-.15.8-.07.57-.1.86,0,.45-.08.67a4.84,4.84,0,0,1-.14.51,8.45,8.45,0,0,0-.26,1c0,.31-.08.63-.11.94s-.05.42-.08.63l-.15,1-.09.61c-.05.33-.07.67-.09,1a5.67,5.67,0,0,1-.05.58c0,.31-.06.62-.09.93s0,.41,0,.63a5.86,5.86,0,0,1-.1.58c-.05.32-.11.63-.14.95s-.06.39-.09.58-.11.62-.14.94l-.14,1.51c0,.32,0,.64,0,1a5,5,0,0,1,0,.55c0,.27,0,.55-.05.82s0,.45,0,.69,0,.53-.06.81,0,.44-.05.67a2.5,2.5,0,0,1-.12.44,7.59,7.59,0,0,0-.24,1,2,2,0,0,0,1.67,2.29l.31,0a2,2,0,0,0,2-1.69,2.4,2.4,0,0,1,.12-.44,7.17,7.17,0,0,0,.26-1.1c0-.32.06-.65.08-1s0-.39,0-.58.05-.61.06-.92,0-.41,0-.63,0-.65,0-1a5,5,0,0,1,0-.55l.14-1.52c0-.19.06-.39.09-.59a9.07,9.07,0,0,0,.14-.91c0-.2.06-.41.1-.61s.1-.58.13-.86,0-.5.07-.76,0-.49.07-.73a8.09,8.09,0,0,0,.07-.86,4.62,4.62,0,0,1,.06-.65l.09-.64c0-.29.09-.59.14-.88s.08-.59.11-.89,0-.44.08-.66a4.77,4.77,0,0,1,.13-.51,6.7,6.7,0,0,0,.26-1c.06-.31.09-.63.12-.95s0-.42.07-.62.08-.41.12-.6.13-.65.18-1c.07-.53.14-1.07.2-1.61a5.3,5.3,0,0,1,.1-.55c.06-.3.12-.61.16-.92s0-.52.07-.78,0-.47.07-.72a6.09,6.09,0,0,0,0-1.16,2.6,2.6,0,0,0,0-.28l.1-.25a4.33,4.33,0,0,0,.35-1.27,5.22,5.22,0,0,0,0-1.13,3,3,0,0,1,0-.38c0-.23.05-.45.08-.68s.07-.54.1-.81a1.91,1.91,0,0,1,.1-.34,5.68,5.68,0,0,0,.24-1.13,4.69,4.69,0,0,0,0-1.15c0-.12,0-.24,0-.35a3.41,3.41,0,0,1,.1-.46,7.2,7.2,0,0,0,.19-1q0-.47,0-.93c0-.19,0-.38,0-.56s0-.42.08-.62.08-.58.11-.87,0-.41.08-.61a8.62,8.62,0,0,0,.11-.87l.13-1.49a5.33,5.33,0,0,0-.06-1.18,1.87,1.87,0,0,1,0-.32c0-.29,0-.58,0-.87s0-.41,0-.6a1.57,1.57,0,0,1,.08-.31,5,5,0,0,0,.26-1.17,4.61,4.61,0,0,0-.1-1.26,1.67,1.67,0,0,1,0-.24c0-.2,0-.41.07-.61s.08-.59.1-.88a3.12,3.12,0,0,1,.09-.44,6.5,6.5,0,0,0,.18-1.05c0-.21,0-.42.07-.62s.08-.59.1-.88a4.87,4.87,0,0,0-.11-1.3c0-.09,0-.19,0-.22a5,5,0,0,1,.08-.54,7.74,7.74,0,0,0,.13-.95c0-.29,0-.59,0-.88s0-.42,0-.62a4,4,0,0,1,.08-.48,7.41,7.41,0,0,0,.16-1c0-.22,0-.44.07-.66s.06-.56.08-.83,0-.62,0-.92,0-.39,0-.58l.11-1.5a8.36,8.36,0,0,0,0-1A4,4,0,0,1,233.64,252.13Zm55.78,43.28a5.54,5.54,0,0,0-.19-1.2c-.08-.28-.19-.57-.3-.86s-.14-.38-.2-.59-.18-.54-.29-.82-.15-.4-.21-.62a7,7,0,0,0-.36-.92c-.07-.16-.14-.32-.2-.49l-.42-1.45a4.52,4.52,0,0,1-.11-.53,8.3,8.3,0,0,0-.22-1c-.05-.18-.08-.36-.12-.55s-.12-.62-.21-.94-.16-.51-.25-.76-.15-.44-.21-.66-.2-.61-.32-.91a3.7,3.7,0,0,1-.2-.52c-.06-.24-.14-.48-.21-.72s-.15-.49-.22-.75-.18-.55-.28-.83-.14-.39-.2-.59a3.44,3.44,0,0,1-.05-.45,7.21,7.21,0,0,0-.16-1.06c-.08-.29-.17-.57-.27-.85s-.13-.39-.18-.6-.08-.41-.11-.61-.1-.59-.16-.88l-.34-1.48c0-.17-.05-.35-.07-.53a8,8,0,0,0-.14-1c-.05-.23-.1-.46-.16-.69l-.18-.8a5,5,0,0,0-.43-1.17,2.12,2.12,0,0,1-.11-.21l0-.16a4.41,4.41,0,0,0,0-1.46,5.24,5.24,0,0,0-.4-1.13,2.15,2.15,0,0,1-.13-.32c0-.22-.08-.45-.11-.67s-.09-.56-.14-.81a1.71,1.71,0,0,1,0-.32,5.16,5.16,0,0,0-.06-1.26,5,5,0,0,0-.42-1.17,2.24,2.24,0,0,1-.12-.29,2.86,2.86,0,0,1,0-.42,5.31,5.31,0,0,0-.1-1.12,8.74,8.74,0,0,0-.25-.94,3.63,3.63,0,0,1-.15-.54,6.17,6.17,0,0,1-.1-.62c0-.3-.08-.6-.14-.9s-.06-.4-.09-.6-.08-.62-.14-.92l-.31-1.51a5.12,5.12,0,0,0-.46-1.21,1.39,1.39,0,0,1-.12-.25c-.06-.29-.14-.58-.23-.87s-.12-.41-.15-.55,0-.17,0-.26a4.36,4.36,0,0,0,0-1.28,4.08,4.08,0,0,0-.52-1.26l-.09-.17c0-.17,0-.34-.06-.5s-.07-.59-.12-.87a2,2,0,0,1,0-.35,5,5,0,0,0-.07-1.11c0-.19,0-.38-.06-.57s-.06-.59-.11-.88a4.32,4.32,0,0,0-.51-1.32,1.09,1.09,0,0,1-.08-.15,2.36,2.36,0,0,1,0-.38,8.59,8.59,0,0,0-.08-1c0-.28-.11-.55-.18-.83s-.09-.39-.12-.59a2.54,2.54,0,0,1,0-.39,6,6,0,0,0-.06-1.08c0-.21,0-.41-.07-.62s-.06-.56-.1-.84a9.24,9.24,0,0,0-.21-.91c0-.18-.09-.35-.12-.52l-.23-1.45a6.26,6.26,0,0,0-.26-1c0-.12-.08-.23-.11-.36l0-.2a4.34,4.34,0,0,0,0-1.38c-.05-.27-.11-.54-.18-.82a6,6,0,0,1-.13-.61,4.69,4.69,0,0,0-.36-1.16,2.34,2.34,0,0,1-.09-.24,1.5,1.5,0,0,1,0-.2,4.61,4.61,0,0,0,0-1.32c0-.28-.1-.56-.15-.83s-.08-.42-.11-.63a4.36,4.36,0,0,1,0-.51,6.37,6.37,0,0,0-.06-1,5,5,0,0,0-.34-1.18c0-.1-.08-.19-.1-.25a3.38,3.38,0,0,1,0-.45,6.3,6.3,0,0,0,0-1,5.81,5.81,0,0,0-.28-1.13c0-.12-.08-.22-.1-.31a3.34,3.34,0,0,1,0-.41,4.34,4.34,0,0,0,0-1.09,4.23,4.23,0,0,0-.4-1.43h0a2,2,0,0,0-4,.5,3.59,3.59,0,0,0,.37,1.26.39.39,0,0,1,0,.13,2.46,2.46,0,0,1,0,.26,5.66,5.66,0,0,0,0,1.31,5.56,5.56,0,0,0,.25,1,2.17,2.17,0,0,1,.12.42,1.61,1.61,0,0,1,0,.38,6.34,6.34,0,0,0,0,1.12,4.48,4.48,0,0,0,.34,1.16c0,.1.08.2.1.29a3.93,3.93,0,0,1,0,.49,8.4,8.4,0,0,0,.07,1c0,.28.09.56.14.83s.09.42.11.58a2.6,2.6,0,0,1,0,.26,4.3,4.3,0,0,0,0,1.32,4.38,4.38,0,0,0,.37,1.2l.1.23c0,.32.12.64.19.95,0,.15.08.31.11.46l0,.21a4.45,4.45,0,0,0,0,1.35,6,6,0,0,0,.26,1,2.21,2.21,0,0,1,.12.42l.23,1.45c.05.31.13.62.21.92s.09.34.12.51,0,.41.07.62.06.56.1.85a2.64,2.64,0,0,1,0,.4,6,6,0,0,0,.06,1.07,8.57,8.57,0,0,0,.18.88c.05.19.09.38.12.56a2.42,2.42,0,0,1,0,.47,8.12,8.12,0,0,0,.08,1,4,4,0,0,0,.52,1.33c0,.06.06.11.08.16l.06.49a6.76,6.76,0,0,0,.11.89,1.45,1.45,0,0,1,0,.36,6,6,0,0,0,.08,1.13c0,.19,0,.38.07.57s.07.6.13.9a3.83,3.83,0,0,0,.52,1.29.54.54,0,0,0,.07.13c0,.06,0,.12,0,.18a4.63,4.63,0,0,0,.06,1.3c.06.29.14.59.22.88s.12.4.16.6a5,5,0,0,0,.46,1.22c.05.09.1.18.12.23l.31,1.5c0,.2.07.41.09.61s.08.61.14.9.07.43.1.64.08.59.13.88.16.63.26.94.11.36.15.53a2.13,2.13,0,0,1,0,.44,6.89,6.89,0,0,0,.1,1.11,5,5,0,0,0,.42,1.17,1.89,1.89,0,0,1,.12.27,1.74,1.74,0,0,1,0,.32,5.17,5.17,0,0,0,.07,1.25c0,.22.08.44.11.66s.09.57.15.85a5,5,0,0,0,.4,1.16,2.56,2.56,0,0,1,.11.24l0,.18a4.11,4.11,0,0,0,0,1.45,5.64,5.64,0,0,0,.45,1.21,1.8,1.8,0,0,1,.12.25c.06.29.13.58.2.87l.14.64a5,5,0,0,1,.07.54c0,.33.08.66.15,1l.34,1.51c0,.2.08.4.11.61s.1.62.17.91.18.64.29,1,.12.36.17.54a3.59,3.59,0,0,1,.05.46,7.31,7.31,0,0,0,.17,1.09,9.82,9.82,0,0,0,.32,1c.07.18.13.36.18.53l.24.82c.07.22.13.43.19.65a9.29,9.29,0,0,0,.33.93,4.6,4.6,0,0,1,.19.52c.09.29.18.57.28.85s.14.4.19.59.09.38.13.57a9,9,0,0,0,.21.93c.05.19.08.37.12.56a7,7,0,0,0,.21.93l.42,1.46a7.93,7.93,0,0,0,.37,1c.07.16.14.3.19.45.08.3.19.58.29.86l.2.57c.09.31.2.61.31.9a4.76,4.76,0,0,1,.19.53c0,.07,0,.26.05.41a5.32,5.32,0,0,0,.16,1.08,2,2,0,0,0,1.9,1.44,1.86,1.86,0,0,0,.52-.07,2,2,0,0,0,1.44-2.43A2,2,0,0,1,289.42,295.41Z" style="fill: #1d1d1b"/>
  </g>
</svg>
