<svg xmlns="http://www.w3.org/2000/svg" viewBox="0 0 500 500">
  <title>ghost-right</title>
  <g>
    <path d="M191.38,306.45v.15a5.9,5.9,0,0,0,.38,1.45,1.72,1.72,0,0,1,.1.26,4.43,4.43,0,0,0,.72,1.32l.11.15,0,.11a3.6,3.6,0,0,0,.79,1.53,3.13,3.13,0,0,0,1.54.89h0s0,0,0,.05a4.43,4.43,0,0,0,1.06.92c.43.24.88.47,1.36.68a4.33,4.33,0,0,0,1.26.29l.21,0,.32.11a6.61,6.61,0,0,0,1,.32,8.54,8.54,0,0,0,1,.17l.33,0,.15.07a4,4,0,0,0,1.28.39,6.12,6.12,0,0,0,1,0c.13,0,.26,0,.38,0l.19.09a4.8,4.8,0,0,0,1,.32l.69.09c.15,0,.35,0,.42.06a7.55,7.55,0,0,1,.92.45,6.5,6.5,0,0,1,.76.54,10.27,10.27,0,0,1,.77.71l.08.08c.28.28.55.56.8.86.1.12.19.26.28.39a7.49,7.49,0,0,0,.45.65,3.86,3.86,0,0,0,1.11.9,3.54,3.54,0,0,0,.77,1.31,4.17,4.17,0,0,0,1.1.8l.19.1a5.6,5.6,0,0,0,.88.63,2,2,0,0,1,.24.16l.09.1a3.68,3.68,0,0,0,1.13,1.08,4.2,4.2,0,0,0,1.39.43l.21,0a8.68,8.68,0,0,0,1.51.47l.21,0a4.33,4.33,0,0,0,1.37.18,4.7,4.7,0,0,0,1.27-.24l.17,0s.07-.29.1-.29c.33,0,.9-.6,1.51-.88a25.91,25.91,0,0,1,3.17-1.56l0-.05.3-.09a4.25,4.25,0,0,0,.57-.17,1.72,1.72,0,0,1,.33,0c.2,0,.41,0,.6-.06a4.31,4.31,0,0,1,.91-.05l.52,0h.33l0,0a4.16,4.16,0,0,0,1,.59,3.05,3.05,0,0,1,.6.29c.16.12.33.23.51.34a1.71,1.71,0,0,1,.32.22l.36.32c.16.15.32.29.48.47s.3.3.47.46a4.67,4.67,0,0,1,.37.39l.08.15a5.38,5.38,0,0,0,.57.91,3.47,3.47,0,0,1,.26.37c.16.22.31.44.47.65a3.84,3.84,0,0,0,1,.83l.06,0a.18.18,0,0,0,0,.09,4.34,4.34,0,0,0,.58,1l.32.43.45.6a4,4,0,0,0,.87.79l.1.08,0,.11a4.4,4.4,0,0,0,.64,1.05l.25.3c.21.24.4.47.61.7a6,6,0,0,0,.7.67l.29.25a4.43,4.43,0,0,0,.93.73l.18.11c.06.06.13.16.21.25a6.09,6.09,0,0,0,.72.75,1.9,1.9,0,0,1,.19.21,5.76,5.76,0,0,0,.86.81c.4.27.84.54,1.31.8a3.69,3.69,0,0,0,1.47.38l.19,0a.49.49,0,0,0,.11.08,4.22,4.22,0,0,0,1.13.47,3.53,3.53,0,0,0,1.41,0h0a3.58,3.58,0,0,0,1.36.42h.22a4.24,4.24,0,0,0,1.1-.17l.19-.05.13,0a3.85,3.85,0,0,0,1.28.07,5.14,5.14,0,0,0,1.09-.26,1.8,1.8,0,0,1,.33-.1,5.54,5.54,0,0,0,1.05-.36,1.53,1.53,0,0,1,.32-.13c.37-.13.75-.28,1.12-.44l.06,0h.08a3.39,3.39,0,0,0,1.49-.34,6.16,6.16,0,0,0,.93-.64A1.18,1.18,0,0,1,262,337a11.65,11.65,0,0,0,1.35-1,3.89,3.89,0,0,0,.83-1,.75.75,0,0,0,.07-.12l.07,0a3.68,3.68,0,0,0,1.16-.84,6,6,0,0,0,.62-.85,1.59,1.59,0,0,1,.18-.27l.19-.14a4.46,4.46,0,0,0,.82-.69,4,4,0,0,0,.71-1.18,4.24,4.24,0,0,0,1-.65l.32-.29c.19-.17.37-.35.56-.49a4.77,4.77,0,0,0,.75-.77.86.86,0,0,1,.13-.14,5.9,5.9,0,0,1,.8-.42l.12-.05h.17a7.37,7.37,0,0,0,.82-.18h.23l.62,0,.19,0c.26,0,.55-.05.84-.06a3.93,3.93,0,0,0,1.06-.18l.16,0h.34l.76,0h.18l1,.07.17.06a3.86,3.86,0,0,0,1,.23l.26.07a4.08,4.08,0,0,0,.94.19,4.31,4.31,0,0,0,1.23-.1l.12,0a5,5,0,0,0,1-.05l.28,0,1.32,0,.16,0a3.62,3.62,0,0,0,1.32.19A4.85,4.85,0,0,0,287,328l.27-.08h.34a5.53,5.53,0,0,0,1.09-.08,13.09,13.09,0,0,0,1.41-.31,3.89,3.89,0,0,0,1.15-.51,1.06,1.06,0,0,1,.21-.11l.3-.07a5.45,5.45,0,0,0,1.1-.35,7,7,0,0,0,1-.56l.32-.2.3-.14a4.71,4.71,0,0,0,1-.56,5.28,5.28,0,0,0,.89-.87,1.29,1.29,0,0,1,.19-.21,2.25,2.25,0,0,1,.3-.24,7.88,7.88,0,0,0,.84-.77,5.31,5.31,0,0,0,.74-1l.18-.28a11.31,11.31,0,0,0,.77-1.33l.1-.11a3.88,3.88,0,0,0,.8-1.3,5.13,5.13,0,0,0,.24-1.27c0-.11,0-.22,0-.32a5.66,5.66,0,0,0,.12-1.21c0-.11,0-.23,0-.36a11.39,11.39,0,0,0,0-1.17c0-.12,0-.25,0-.37s0-.14,0-.22a4.64,4.64,0,0,0,.08-1.31c0-.12,0-.26,0-.39a9.11,9.11,0,0,0-.12-1.13,4.26,4.26,0,0,0-.52-1.28.66.66,0,0,1-.09-.19l-.13-.4a2,2,0,0,0,0-.23c6.16-3.22,11-9.29,8.76-16.27a3.12,3.12,0,0,0-.07-.51c-.1-.3-.19-.61-.29-.91s-.19-.62-.28-.94a8.41,8.41,0,0,0-.49-1.21,5.78,5.78,0,0,1-.26-.57c-.07-.26-.12-.51-.17-.77s-.15-.76-.25-1.13-.22-.68-.34-1a7.69,7.69,0,0,1-.27-.81c-.09-.31-.18-.62-.26-.93s-.18-.62-.26-.93a7.16,7.16,0,0,0-.56-1.28c-.09-.19-.2-.4-.23-.5l-.3-1c-.1-.29-.19-.58-.28-.87a5.26,5.26,0,0,1,0-.55,7.35,7.35,0,0,0-.21-1.39c-.07-.27-.13-.53-.19-.8a10.08,10.08,0,0,0-.24-1.09,10.63,10.63,0,0,0-.4-1.12,6,6,0,0,1-.26-.71c-.1-.35-.22-.7-.34-1.06s-.19-.5-.27-.76l-.21-.87c-.08-.34-.16-.68-.25-1a3.29,3.29,0,0,1-.05-.53,6,6,0,0,0-.2-1.4c-.1-.38-.24-.74-.37-1.09s-.17-.5-.25-.75a4.08,4.08,0,0,1-.09-.64,10,10,0,0,0-.22-1.27,5.76,5.76,0,0,0-.71-1.47,2.23,2.23,0,0,1-.2-.33c-.08-.32-.21-.68-.33-1a6.75,6.75,0,0,1-.25-.76s0-.22,0-.36a6,6,0,0,0-.12-1.61,4.71,4.71,0,0,0-.75-1.51c-.06-.1-.14-.21-.19-.31s0-.35-.08-.61a10.77,10.77,0,0,0-.2-1.23,7.79,7.79,0,0,0-.46-1.23c-.08-.2-.16-.39-.2-.53s0-.21,0-.32a5,5,0,0,0-.06-1.74,7.4,7.4,0,0,0-.42-1.21,4.47,4.47,0,0,1-.23-.61,6.67,6.67,0,0,0-.39-1.17c-.1-.25-.18-.48-.23-.65-.07-.33-.15-.65-.21-1s-.13-.62-.21-.92c0-.07,0-.3,0-.47a5.34,5.34,0,0,0-.12-1.48,5.19,5.19,0,0,0-.6-1.44,3.31,3.31,0,0,1-.19-.38,3.13,3.13,0,0,1,0-.5,6.18,6.18,0,0,0-.12-1.41,6.09,6.09,0,0,1-.1-.73,11.75,11.75,0,0,0-.18-1.18,7.22,7.22,0,0,0-.38-1.21c-.08-.24-.16-.46-.2-.63-.08-.36-.17-.7-.27-1.05s-.15-.54-.21-.82a4.91,4.91,0,0,1-.1-.77c-.05-.38-.1-.77-.17-1.14a6.05,6.05,0,0,0-.53-1.42c-.06-.13-.16-.33-.18-.4a2.91,2.91,0,0,1,0-.55,7,7,0,0,0-.1-1.38,8.73,8.73,0,0,0-.28-1.12c-.07-.25-.15-.49-.2-.74s-.05-.5-.07-.74a9.36,9.36,0,0,0-.13-1.19,5.94,5.94,0,0,0-.44-1.35,4.6,4.6,0,0,1-.18-.48c-.05-.27-.07-.54-.1-.81s-.07-.75-.13-1.11-.18-.77-.28-1.16a5.68,5.68,0,0,1-.18-.71,7.43,7.43,0,0,1-.09-.81,1.37,1.37,0,0,1,0-.19,2.23,2.23,0,0,0,.06-1l-.15-.78c-.06-.27-.11-.56-.16-.82a5.7,5.7,0,0,0-.34-1.15c-.06-.16-.12-.35-.14-.43s0-.41-.06-.6a8.54,8.54,0,0,0-.11-1c-.05-.31-.12-.61-.19-.92s-.11-.46-.15-.69-.08-.56-.13-.83-.09-.53-.12-.79a5.68,5.68,0,0,0-.39-1.24,3.62,3.62,0,0,1-.13-.35c-.05-.29-.1-.58-.17-.88s-.09-.48-.13-.72a2.18,2.18,0,0,1,0-.35,5.41,5.41,0,0,0,0-1.31c0-.22,0-.43-.06-.64s-.06-.67-.1-1-.17-.69-.27-1c-.05-.18-.1-.37-.14-.55-.06-.34-.13-.66-.22-1s-.11-.41-.15-.62l-.09-.7c0-.32-.09-.63-.13-.94a2,2,0,0,1,0-.34,4.74,4.74,0,0,0-.06-1.32,9.51,9.51,0,0,0-.25-1,4.65,4.65,0,0,1-.15-.59,3,3,0,0,1,0-.48,8.08,8.08,0,0,0-.11-1.19,4.43,4.43,0,0,0-.62-1.44l-.12-.19a9.07,9.07,0,0,0-.26-.93,4.28,4.28,0,0,1-.15-.51,1.64,1.64,0,0,1,0-.22,4.48,4.48,0,0,0-.05-1.57,4.39,4.39,0,0,0-.73-1.46l-.11-.15c0-.14,0-.27-.05-.41a8,8,0,0,0-.21-1.16,6.43,6.43,0,0,0-.48-1.15,2.79,2.79,0,0,1-.15-.3s0-.1,0-.15a4.16,4.16,0,0,0-.16-1.71,6.63,6.63,0,0,0-.55-1.13,2.65,2.65,0,0,1-.21-.41,8.46,8.46,0,0,0-.57-1.1,3.62,3.62,0,0,1-.24-.43l-.16-.35c-.18-.42-.35-.83-.55-1.21,0-.07,0-.18-.07-.28a4.37,4.37,0,0,0-.5-1.41,4.18,4.18,0,0,0-1.06-1.18l-.18-.15a2,2,0,0,0-.09-.25,4.56,4.56,0,0,0-.62-1.23c-.09-.14-.18-.29-.26-.44a8.24,8.24,0,0,0-.63-1,7.08,7.08,0,0,0-.85-.87,2.35,2.35,0,0,1-.33-.3,8.29,8.29,0,0,0-.77-.8l-.39-.39a3.12,3.12,0,0,1-.33-.41,9.27,9.27,0,0,0-.76-.88,4.48,4.48,0,0,0-1.24-.8,2,2,0,0,1-.25-.13l-.16-.21a4.72,4.72,0,0,0-.94-1,8.82,8.82,0,0,0-1-.63l-.44-.26c-.13-.09-.25-.2-.37-.3a7.66,7.66,0,0,0-1-.73,4.6,4.6,0,0,0-1.32-.47c-.1,0-.21-.05-.31-.09a4.63,4.63,0,0,1-.43-.24,7.41,7.41,0,0,0-1-.5,5.34,5.34,0,0,0-1.09-.34l-.44-.13a4,4,0,0,1-.48-.2,9.25,9.25,0,0,0-1-.4l-.49-.17c-.35-.11-.68-.23-1-.32l-.46-.16a7.64,7.64,0,0,0-1.07-.33,3.94,3.94,0,0,1-.49-.14c-.32-.08-.67-.19-1.09-.26a5.6,5.6,0,0,0-1.3,0,1.27,1.27,0,0,1-.33,0l-.51-.06c-.36,0-.73-.09-1.09-.1a2.32,2.32,0,0,1-.38-.07,5.65,5.65,0,0,0-1.26-.15,4.3,4.3,0,0,0-1.48.37l-.19.07h-.39a5.26,5.26,0,0,0-1.21.07,2.74,2.74,0,0,1-.5,0,6.24,6.24,0,0,0-1.21.12c-.57.13-1.14.27-1.69.42a4.85,4.85,0,0,0-1.37.67,1.84,1.84,0,0,1-.25.17l-.5.13a9.48,9.48,0,0,0-1.13.35l-.39.08a5.79,5.79,0,0,0-1.33.39,11.28,11.28,0,0,0-1.09.64l-.46.29a6.81,6.81,0,0,0-1,.77c-.13.1-.26.22-.39.31a5.84,5.84,0,0,0-1,.9,2.33,2.33,0,0,1-.32.31l-.2.06a4.66,4.66,0,0,0-1.39.8c-.44.4-.87.83-1.29,1.26a9.85,9.85,0,0,0-.77,1,4.34,4.34,0,0,1-.34.44c-.11.14-.24.26-.37.4a9.49,9.49,0,0,0-.82.9,5.62,5.62,0,0,0-.66,1.15,2.84,2.84,0,0,1-.21.4c-.09.13-.2.23-.3.35a7.86,7.86,0,0,0-.82,1,11.6,11.6,0,0,0-.54,1,4.52,4.52,0,0,1-.25.49,2.18,2.18,0,0,1-.26.36,6.44,6.44,0,0,0-.7,1,5,5,0,0,0-.43,1.31c0,.11,0,.23-.09.35l-.17.35c-.18.38-.36.77-.52,1.15a3.5,3.5,0,0,1-.24.42,6.92,6.92,0,0,0-.54,1.06,5.68,5.68,0,0,0-.32,1.24,2.7,2.7,0,0,1-.07.35,1,1,0,0,1-.13.17,4.64,4.64,0,0,0-.76,1.32c-.18.53-.35,1.05-.52,1.57a6.75,6.75,0,0,0-.23,1.24c0,.14,0,.34,0,.41a4.47,4.47,0,0,0-.16,1.45,2.71,2.71,0,0,1,0,.29s-.09.19-.16.34a5.81,5.81,0,0,0-.44,1.12,2.89,2.89,0,0,1-.15.31,5.49,5.49,0,0,0-.5,1.2c-.09.35-.17.7-.26,1l-.13.55c-.08.3-.15.61-.21.91s-.11.46-.15.68a4.53,4.53,0,0,0-.1,1.41v.3c-.06.24-.12.54-.18.83s-.09.47-.14.7a4.4,4.4,0,0,1-.18.51,7.2,7.2,0,0,0-.33,1,1.53,1.53,0,0,1-.14.29,5.52,5.52,0,0,0-.48,1.21c-.06.25-.13.49-.2.74s-.15.53-.21.8a3.66,3.66,0,0,0-.07,1.29,2,2,0,0,1,0,.43c-.06.26-.09.55-.14.85s-.07.42-.11.65l-.1.17a4.59,4.59,0,0,0-.59,1.45,3.92,3.92,0,0,0,.08,1.66l0,.12s-.06.11-.08.17a5.19,5.19,0,0,0-.43,1.27,4.71,4.71,0,0,0-.09,1.19c0,.11,0,.24,0,.34l-.08.12a3.9,3.9,0,0,0-.68,2.49,2.14,2.14,0,0,0-.2.57c-.08.37-.15.75-.22,1.13s-.15.79-.23,1.16a11.45,11.45,0,0,0-.16,1.51,6,6,0,0,1-.08.85c-.07.33-.17.66-.27,1s-.25.84-.34,1.27-.16.84-.22,1.24-.12.72-.19,1.06-.19.86-.29,1.28l-.23,1a7.51,7.51,0,0,0-.16,1.56,3.92,3.92,0,0,1-.07.78c-.09.38-.16.75-.24,1.12s-.15.78-.24,1.16a6.3,6.3,0,0,1-.29.71,7.52,7.52,0,0,0-.55,1.49c-.09.33-.2.65-.3,1s-.28.84-.38,1.25a12,12,0,0,0-.24,1.33c-.06.32-.11.65-.19,1s-.19.82-.26,1.25-.14.69-.23,1-.2.72-.32,1.08-.25.82-.37,1.24a6.73,6.73,0,0,1-.31.72,8.3,8.3,0,0,0-.64,1.53c-.11.43-.21.86-.29,1.3s-.14.72-.24,1.08a8.73,8.73,0,0,1-.34.84,12.45,12.45,0,0,0-.55,1.42,6.7,6.7,0,0,0-.2,1.79,4.25,4.25,0,0,1,0,.68c-.13.42-.22.86-.32,1.3s-.15.72-.25,1.06a3.94,3.94,0,0,1-.32.56,6.42,6.42,0,0,0-.81,1.64,6.32,6.32,0,0,0-.2,1.84,3.84,3.84,0,0,1,0,.64,6.77,6.77,0,0,1-.34.88,13.22,13.22,0,0,0-.55,1.38,12.43,12.43,0,0,0-.31,1.49,4.88,4.88,0,0,1-.18.91,2.29,2.29,0,0,1-.31.46,5.69,5.69,0,0,0-.91,1.69,11,11,0,0,0-.32,1.47c-.07.35-.13.67-.2.93a11.53,11.53,0,0,0-.33,1.43,8.63,8.63,0,0,1-.22,1c-.12.38-.25.77-.37,1.16l-.39,1.15a3.83,3.83,0,0,1-.34.67,6.82,6.82,0,0,0-.74,1.53,7.26,7.26,0,0,0-.27,1.75,3,3,0,0,1-.08.71,5.34,5.34,0,0,1-.36.73,8.17,8.17,0,0,0-.69,1.48c-.1.29-.23.61-.38,1a10.18,10.18,0,0,0-.53,1.31,12.86,12.86,0,0,0-.36,1.46,7.08,7.08,0,0,1-.21.92c-.14.42-.26.86-.38,1.28s-.19.72-.3,1.06-.26.67-.4,1-.37.84-.51,1.26a7.35,7.35,0,0,0-.33,1.72,5.5,5.5,0,0,1-.1.7,6.64,6.64,0,0,1-.4.81,8.07,8.07,0,0,0-.68,1.38c-.16.45-.29.92-.4,1.36s-.18.66-.3,1a7.31,7.31,0,0,1-.46,1c-.18.38-.37.76-.53,1.18a9.07,9.07,0,0,0-.43,1.66c0,.17-.07.36-.1.5a2.1,2.1,0,0,0-.8,1L192,302a9.58,9.58,0,0,0-.4,1.28l-.08.31a7.82,7.82,0,0,0-.25,1.31A8.73,8.73,0,0,0,191.38,306.45Z" style="fill: #fff"/>
    <path d="M263.36,196.44a4.6,4.6,0,0,1,.34-1,1.22,1.22,0,0,0,.1-.24,6.56,6.56,0,0,1,.58-1.24,4.93,4.93,0,0,1,1-1.13,3.72,3.72,0,0,1,1.48-.78,3.89,3.89,0,0,1,1.69-.14,4.33,4.33,0,0,1,1.42.61,5.86,5.86,0,0,1,1.09.83l.19.16a4.18,4.18,0,0,1,.75.73,4.87,4.87,0,0,1,.48.81,1.74,1.74,0,0,0,.14.27,1.7,1.7,0,0,0,.15.22,4.11,4.11,0,0,1,.48.8,5,5,0,0,1,.29.85c0,.1.05.2.08.3a5.9,5.9,0,0,1,.2.83l.06.32a2.29,2.29,0,0,0,.09.28,4.09,4.09,0,0,1,.24.88,7.19,7.19,0,0,1,0,.92v.3c0,.41,0,.82,0,1.22a7.16,7.16,0,0,1-.16,1l-.06.25a2.66,2.66,0,0,0,0,.28,4,4,0,0,1-.2,1,5.18,5.18,0,0,1-.59,1.09l-.08.13a5,5,0,0,1-1,1.12,3.83,3.83,0,0,1-1.5.72l-.1,0a4,4,0,0,1-1.09.17h0a2.77,2.77,0,0,1-.49,0,4.89,4.89,0,0,1-1.45-.56l-.12-.07a5,5,0,0,1-1-.71,7.77,7.77,0,0,1-.84-1,4,4,0,0,1-.48-.81c-.05-.09-.09-.19-.16-.31a9.82,9.82,0,0,1-.54-1l-.11-.24a8.19,8.19,0,0,1-.36-.86l-.08-.23a8.54,8.54,0,0,1-.27-.9,7.13,7.13,0,0,1-.14-.89,1.63,1.63,0,0,0,0-.31c-.05-.4-.08-.8-.1-1.21,0-.11,0-.22,0-.33a5,5,0,0,1,0-.89A9.46,9.46,0,0,1,263.36,196.44Zm-14.17,6.44a5.16,5.16,0,0,0,0,.91,9.28,9.28,0,0,0,.15.92l.06.27c0,.12,0,.22,0,.33a5.44,5.44,0,0,0,.17.91,8.16,8.16,0,0,0,.46,1l.07.15a6.5,6.5,0,0,0,.73,1.16,4.72,4.72,0,0,0,1.12,1.05,4.09,4.09,0,0,0,1.6.63,4.71,4.71,0,0,0,.53,0,4.25,4.25,0,0,0,1.17-.17,4.79,4.79,0,0,0,1.4-.67,3.39,3.39,0,0,0,.77-.84l.16-.21a1.17,1.17,0,0,1,.16-.15,4.09,4.09,0,0,0,.69-.82,4.64,4.64,0,0,0,.38-.86,1.72,1.72,0,0,1,.11-.29,7.74,7.74,0,0,0,.3-.89l.08-.25c0-.07.06-.15.09-.23a4.25,4.25,0,0,0,.32-.89,4.81,4.81,0,0,0,.07-.87,1.51,1.51,0,0,1,0-.3,2.88,2.88,0,0,1,.05-.33,5.14,5.14,0,0,0,.11-.88,7.62,7.62,0,0,0-.05-1l0-.25a8.64,8.64,0,0,0-.15-.91l-.06-.28c0-.11,0-.22-.05-.32a6.19,6.19,0,0,0-.19-.91,9.23,9.23,0,0,0-.48-1.21,6.08,6.08,0,0,0-.74-1.17,4.75,4.75,0,0,0-1.12-1.06,4,4,0,0,0-1.61-.6,3.92,3.92,0,0,0-1.69.17,4.39,4.39,0,0,0-1.3.72l-.22.15a3.66,3.66,0,0,0-.92.74,3.23,3.23,0,0,0-.52.91,1.47,1.47,0,0,1-.1.22l-.15.22a4.79,4.79,0,0,0-.49.84c-.15.35-.29.73-.42,1.12a6.15,6.15,0,0,0-.17.86c0,.1,0,.21,0,.31l0,.16c-.06.33-.13.66-.17,1s-.05.77-.06,1.15A2.86,2.86,0,0,1,249.19,202.88Zm-62,103.89a8.09,8.09,0,0,1,.26-1.35l.08-.33a11.17,11.17,0,0,1,.44-1.31l.08-.24a2.13,2.13,0,0,1,.86-1.05c0-.14.07-.34.11-.51a9,9,0,0,1,.45-1.72c.18-.44.38-.84.58-1.22s.36-.71.49-1,.21-.66.3-1,.26-.94.44-1.41a8.78,8.78,0,0,1,.71-1.44,5.07,5.07,0,0,0,.43-.82,4.41,4.41,0,0,0,.12-.73,7.26,7.26,0,0,1,.34-1.78c.16-.44.34-.86.54-1.3a10.59,10.59,0,0,0,.43-1c.12-.36.22-.72.33-1.09s.25-.89.4-1.33a7.82,7.82,0,0,0,.23-.95,11.38,11.38,0,0,1,.37-1.51c.17-.5.38-1,.56-1.36a10.42,10.42,0,0,0,.41-1,8.39,8.39,0,0,1,.74-1.53,2.19,2.19,0,0,0,.47-1.49,6.83,6.83,0,0,1,.29-1.81,8,8,0,0,1,.78-1.58,4.65,4.65,0,0,0,.38-.7c.13-.4.26-.79.4-1.19s.28-.8.41-1.21a8.41,8.41,0,0,0,.23-1,10.78,10.78,0,0,1,.35-1.48,8.91,8.91,0,0,0,.2-1,11.48,11.48,0,0,1,.34-1.52,5.75,5.75,0,0,1,1-1.75,5.38,5.38,0,0,0,.33-.48,7.94,7.94,0,0,0,.19-.95,10.35,10.35,0,0,1,.33-1.53,11.51,11.51,0,0,1,.57-1.43,8.58,8.58,0,0,0,.38-.91,4.11,4.11,0,0,0,0-.66,5.89,5.89,0,0,1,.21-1.91,6.33,6.33,0,0,1,.86-1.69,5.2,5.2,0,0,0,.34-.58c.11-.36.19-.73.27-1.1s.21-.91.34-1.35a4.23,4.23,0,0,0,0-.7,6.4,6.4,0,0,1,.21-1.85,11.16,11.16,0,0,1,.58-1.48,6.24,6.24,0,0,0,.36-.87c.11-.37.18-.74.26-1.11s.18-.91.31-1.34a9,9,0,0,1,.67-1.59,4.84,4.84,0,0,0,.34-.74c.12-.44.26-.87.39-1.28s.25-.76.34-1.12.17-.72.24-1.08.17-.87.29-1.29a8.73,8.73,0,0,0,.19-1c.07-.46.15-.91.26-1.36s.26-.86.41-1.29.23-.67.31-1a8.14,8.14,0,0,1,.6-1.53,4.53,4.53,0,0,0,.3-.73c.1-.4.18-.8.27-1.2s.16-.78.25-1.17a6.59,6.59,0,0,0,.07-.8,7.51,7.51,0,0,1,.17-1.62l.24-1c.11-.43.21-.88.31-1.32s.14-.73.2-1.1.15-.86.24-1.29.23-.88.37-1.32.21-.67.28-1a6,6,0,0,0,.09-.87,9.37,9.37,0,0,1,.17-1.56l.24-1.21c.08-.39.15-.78.23-1.17a2.27,2.27,0,0,1,.23-.58,3.85,3.85,0,0,1,.06-1.05,4.5,4.5,0,0,1,.66-1.53l.09-.14v-.34a6.24,6.24,0,0,1,.09-1.23,5.77,5.77,0,0,1,.46-1.31,1.5,1.5,0,0,1,.09-.18l0-.13a3.84,3.84,0,0,1-.08-1.71,5,5,0,0,1,.62-1.51l.11-.17c0-.23.08-.46.11-.67s.1-.61.16-.88a3.43,3.43,0,0,0,0-.44,4.21,4.21,0,0,1,.07-1.34c.07-.28.15-.55.23-.83s.15-.5.21-.76a5.17,5.17,0,0,1,.52-1.25c0-.11.12-.21.15-.3a7.32,7.32,0,0,1,.35-1.06,3.31,3.31,0,0,0,.18-.53c.06-.24.11-.48.16-.72s.13-.61.19-.86a1.63,1.63,0,0,0,0-.31,5.25,5.25,0,0,1,.11-1.46c.06-.23.11-.46.17-.7s.14-.63.22-.94l.14-.58c.09-.35.18-.71.28-1.07a5.64,5.64,0,0,1,.52-1.24,2.59,2.59,0,0,0,.17-.33,6.19,6.19,0,0,1,.47-1.16c.07-.15.16-.33.17-.34s0-.2,0-.3a4.89,4.89,0,0,1,.17-1.51,2.55,2.55,0,0,0,.07-.43,6.6,6.6,0,0,1,.24-1.27c.18-.54.37-1.09.56-1.63a4.35,4.35,0,0,1,.81-1.36l.14-.18c0-.09.05-.25.07-.36a6,6,0,0,1,.33-1.28,7.29,7.29,0,0,1,.59-1.1,3.62,3.62,0,0,0,.24-.43c.18-.4.37-.8.56-1.19l.18-.37a2.42,2.42,0,0,0,.1-.36,5,5,0,0,1,.46-1.35,5.92,5.92,0,0,1,.75-1.08,3.27,3.27,0,0,0,.28-.37c.09-.16.17-.34.26-.51a6.73,6.73,0,0,1,1.44-2.1,2.76,2.76,0,0,0,.33-.36c.05-.08.14-.26.22-.42a6,6,0,0,1,.7-1.19,8,8,0,0,1,.88-.93l.4-.41c.13-.15.24-.31.36-.47a9.28,9.28,0,0,1,.82-1c.44-.45.9-.89,1.36-1.3a4.77,4.77,0,0,1,1.5-.83.86.86,0,0,1,.2-.06,2.12,2.12,0,0,0,.34-.33,5.85,5.85,0,0,1,1.08-.93c.14-.09.28-.21.42-.32a8,8,0,0,1,1.11-.8c.17-.09.33-.19.49-.29a12,12,0,0,1,1.16-.66,6.23,6.23,0,0,1,1.43-.41l.41-.08a8.91,8.91,0,0,1,1.21-.36l.53-.14a2,2,0,0,0,.27-.17,5,5,0,0,1,1.46-.7c.58-.16,1.19-.3,1.79-.43a6.55,6.55,0,0,1,1.3-.13,4.58,4.58,0,0,0,.53,0,6.68,6.68,0,0,1,1.28-.08h.43l.2-.08a4.42,4.42,0,0,1,1.58-.37,5.13,5.13,0,0,1,1.33.15c.14,0,.27.06.41.07.39,0,.77.06,1.17.11l.54.06a1.42,1.42,0,0,0,.35,0,5.81,5.81,0,0,1,1.39,0,7.51,7.51,0,0,1,1.15.27l.52.14a9,9,0,0,1,1.15.34,4,4,0,0,0,.49.16c.37.1.73.22,1.09.34l.53.17a9.58,9.58,0,0,1,1.07.42l.51.21a4.21,4.21,0,0,0,.48.12,7.43,7.43,0,0,1,1.16.36,8.2,8.2,0,0,1,1,.52l.47.25a1.59,1.59,0,0,0,.33.08,5.49,5.49,0,0,1,1.41.5,6.52,6.52,0,0,1,1.05.75,3.9,3.9,0,0,0,.4.31c.15.1.31.18.47.27a7.07,7.07,0,0,1,1.06.65,5.09,5.09,0,0,1,1,1.05c.08.09.14.19.17.22a2.1,2.1,0,0,0,.26.13,5,5,0,0,1,1.33.83,7.78,7.78,0,0,1,.8.91c.12.14.23.28.36.42s.28.27.42.41.56.53.82.82a2.66,2.66,0,0,0,.35.32,6.93,6.93,0,0,1,.91.9,8.34,8.34,0,0,1,.67,1c.09.15.17.31.27.45a5,5,0,0,1,.67,1.28,2.77,2.77,0,0,0,.1.26l.18.14a4.59,4.59,0,0,1,1.13,1.23,4.65,4.65,0,0,1,.54,1.46c0,.11,0,.22.06.29.22.4.4.82.59,1.24l.17.38c.07.15.17.29.25.44a6.84,6.84,0,0,1,.61,1.13,3.42,3.42,0,0,0,.23.42,7.64,7.64,0,0,1,.58,1.18,4,4,0,0,1,.18,1.77c0,.05,0,.1,0,.16l.15.31a6.48,6.48,0,0,1,.52,1.19,7.38,7.38,0,0,1,.22,1.2c0,.14,0,.28.06.42l.11.15a4.46,4.46,0,0,1,.77,1.52,4.32,4.32,0,0,1,.07,1.61l0,.24c.05.18.11.35.17.53s.2.63.28,1a1.51,1.51,0,0,0,.12.2,4.34,4.34,0,0,1,.65,1.49,6.51,6.51,0,0,1,.12,1.23c0,.19,0,.39,0,.49s.11.4.17.6c.1.35.2.7.27,1.06a5.57,5.57,0,0,1,.05,1.38c0,.12,0,.25,0,.35.06.32.1.64.15,1s.06.48.1.72.1.44.16.65.17.67.23,1a3.8,3.8,0,0,0,.15.58,8.12,8.12,0,0,1,.27,1.08c.06.34.09.69.12,1s0,.44.06.66a5.33,5.33,0,0,1,0,1.36,2.3,2.3,0,0,0,0,.36l.15.75c.06.3.13.61.18.91a1.78,1.78,0,0,0,.14.36,5.88,5.88,0,0,1,.4,1.28c.05.27.09.54.14.81s.09.58.14.87.1.47.15.71.15.63.21.94.09.71.12,1.07a4.48,4.48,0,0,0,.06.63,3.28,3.28,0,0,0,.15.44,7.11,7.11,0,0,1,.36,1.19c.05.28.11.57.17.85s.11.54.16.81a2.14,2.14,0,0,1-.07,1,1.11,1.11,0,0,1,0,.19c0,.28,0,.56.1.84s.12.49.19.74a10.36,10.36,0,0,1,.3,1.19c.07.38.11.76.15,1.15a8,8,0,0,0,.1.84c0,.09.12.32.19.5a6.71,6.71,0,0,1,.47,1.4c.08.44.11.86.14,1.22a6.31,6.31,0,0,0,.08.76,6.9,6.9,0,0,0,.21.78c.11.38.22.76.3,1.15a6.21,6.21,0,0,1,.1,1.43,4.38,4.38,0,0,0,0,.57,2.94,2.94,0,0,0,.2.42,6.29,6.29,0,0,1,.56,1.47,11.17,11.17,0,0,1,.17,1.18c0,.26.06.53.11.79s.15.56.23.84.2.73.29,1.09a3.62,3.62,0,0,0,.22.66,10.29,10.29,0,0,1,.4,1.25,10.46,10.46,0,0,1,.18,1.21,6.49,6.49,0,0,0,.11.77,6.74,6.74,0,0,1,.14,1.46c0,.2,0,.45,0,.52s.13.25.21.39a5.78,5.78,0,0,1,.64,1.48,6.33,6.33,0,0,1,.13,1.54,2.47,2.47,0,0,0,0,.49l.21,1c.08.33.15.66.24,1a5.74,5.74,0,0,0,.24.68,9.55,9.55,0,0,1,.42,1.22,5.43,5.43,0,0,0,.24.63,8.53,8.53,0,0,1,.45,1.25,4.86,4.86,0,0,1,.06,1.8,1.86,1.86,0,0,0,0,.33c.05.15.14.34.23.54a8.48,8.48,0,0,1,.47,1.28,8.37,8.37,0,0,1,.22,1.26c0,.28.07.53.09.64a1.6,1.6,0,0,0,.21.32,5.26,5.26,0,0,1,.78,1.56,5.09,5.09,0,0,1,.13,1.67c0,.15,0,.35,0,.38.07.26.17.52.26.78a9.47,9.47,0,0,1,.35,1.07,2.46,2.46,0,0,0,.22.34,5.37,5.37,0,0,1,.75,1.52,8.14,8.14,0,0,1,.23,1.3,4.39,4.39,0,0,0,.11.68,6.86,6.86,0,0,0,.27.76c.14.38.28.75.39,1.14a7.13,7.13,0,0,1,.21,1.45,3.45,3.45,0,0,0,0,.55c.1.35.18.7.27,1s.14.6.23.9.18.53.27.79.27.73.38,1.1a6.39,6.39,0,0,0,.27.73,11.43,11.43,0,0,1,.42,1.16c.11.37.19.75.27,1.13s.11.55.19.82a6.56,6.56,0,0,1,.22,1.44,4.62,4.62,0,0,0,.07.57c.09.3.19.6.29.9s.22.67.32,1a3.84,3.84,0,0,0,.25.52,6.76,6.76,0,0,1,.58,1.33c.1.32.19.64.28,1s.19.64.29,1,.18.56.28.84.25.7.36,1.06a11.71,11.71,0,0,1,.28,1.17,7.49,7.49,0,0,0,.18.79,4.91,4.91,0,0,0,.26.59,8,8,0,0,1,.53,1.26c.1.32.2.65.31,1s.2.63.29.94a2,2,0,0,1,.09.53c2.39,7.22-2.77,13.5-9.34,16.83a1.94,1.94,0,0,1,0,.24c0,.14.09.29.13.42l.11.19a4.13,4.13,0,0,1,.54,1.33,6.73,6.73,0,0,1,.13,1.17l0,.4a5.08,5.08,0,0,1-.07,1.36c0,.08,0,.16,0,.22s0,.26,0,.39a7,7,0,0,1,0,1.21c0,.12,0,.25,0,.37a6,6,0,0,1-.11,1.25,3.31,3.31,0,0,0,0,.33,5.48,5.48,0,0,1-.25,1.31,4.25,4.25,0,0,1-.86,1.35l-.11.12a12.06,12.06,0,0,1-.81,1.37c-.07.09-.13.19-.2.29a6.61,6.61,0,0,1-.78,1.07,8.34,8.34,0,0,1-.91.79l-.31.24a2.2,2.2,0,0,0-.2.23,5.24,5.24,0,0,1-1,.9,6,6,0,0,1-1.11.58l-.32.14-.34.21a6.9,6.9,0,0,1-1,.58,5.32,5.32,0,0,1-1.17.35l-.32.08-.22.12a4.56,4.56,0,0,1-1.22.53c-.49.13-1,.23-1.51.32a6.16,6.16,0,0,1-1.16.08h-.36l-.3.07a5.21,5.21,0,0,1-1.2.23,3.86,3.86,0,0,1-1.42-.2l-.16,0-1.4,0-.31,0a6.59,6.59,0,0,1-1.06.05l-.13,0a4.43,4.43,0,0,1-1.31.11,6,6,0,0,1-1-.2c-.1,0-.19-.06-.28-.07a4.8,4.8,0,0,1-1.1-.24l-.17-.06-1.08-.07h-.19l-.8,0h-.37l-.16.05a4.44,4.44,0,0,1-1.13.18,8.15,8.15,0,0,0-.9.06l-.21,0-.65,0h-.25a5.2,5.2,0,0,1-.87.18l-.19,0-.12,0c-.32.15-.62.29-.87.43l-.12.15a5.11,5.11,0,0,1-.81.79c-.21.16-.4.34-.59.51L270,333a4.3,4.3,0,0,1-1.06.67,4.14,4.14,0,0,1-.75,1.22,5.84,5.84,0,0,1-.89.72c-.08.06-.16.1-.2.14a2,2,0,0,0-.19.28,5.76,5.76,0,0,1-.65.88,4.18,4.18,0,0,1-1.25.87l-.06,0a.75.75,0,0,0-.07.12,4.39,4.39,0,0,1-.89,1.07,11.3,11.3,0,0,1-1.45,1,2.34,2.34,0,0,0-.27.2,5.08,5.08,0,0,1-1,.65,3.65,3.65,0,0,1-1.6.36h-.08l-.06,0a12.65,12.65,0,0,1-1.2.45l-.35.14a6.44,6.44,0,0,1-1.11.38,2,2,0,0,0-.35.1,5.8,5.8,0,0,1-1.17.27,4.37,4.37,0,0,1-1.36-.07l-.13,0-.21,0a4.72,4.72,0,0,1-1.18.17h-.23a4,4,0,0,1-1.44-.43h-.06a4,4,0,0,1-1.51,0,4.54,4.54,0,0,1-1.19-.49c-.07,0-.14-.08-.13-.09l-.19,0a4,4,0,0,1-1.57-.4,14,14,0,0,1-1.4-.82,5.51,5.51,0,0,1-.91-.84,2.19,2.19,0,0,0-.2-.22,5.57,5.57,0,0,1-.77-.78l-.22-.25-.2-.13a4.77,4.77,0,0,1-1-.74,1.87,1.87,0,0,0-.3-.26c-.21-.18-.48-.41-.75-.69s-.43-.48-.64-.73l-.28-.31a4.79,4.79,0,0,1-.67-1.09l-.06-.11-.11-.08a5,5,0,0,1-.92-.83l-.48-.61-.35-.45a5,5,0,0,1-.61-1l0-.09-.05,0a4.51,4.51,0,0,1-1-.87,6.38,6.38,0,0,1-.49-.67,3.47,3.47,0,0,0-.29-.38,5.65,5.65,0,0,1-.6-.94.74.74,0,0,1-.08-.17,5,5,0,0,0-.41-.39c-.17-.16-.34-.32-.49-.49s-.35-.32-.52-.47l-.37-.33a2.44,2.44,0,0,0-.36-.24c-.18-.11-.37-.22-.53-.34a3,3,0,0,0-.64-.3,4.74,4.74,0,0,1-1.09-.61l0,0a11.19,11.19,0,0,0-1.87-.28c-.21,0-.89.36-1,.38s-.41.12-.62.18l-.31.09s0,0-.05.05a4.54,4.54,0,0,1-.94.87c-.18.12-.37.23-.56.34a4.59,4.59,0,0,0-.52.33l-.16.14a4.48,4.48,0,0,1-1.2.86,3.73,3.73,0,0,1-1.6.29h-.11l-.18.05a5.34,5.34,0,0,1-1.35.25,4.79,4.79,0,0,1-1.46-.19l-.24-.06a9,9,0,0,1-1.6-.48l-.22,0a4,4,0,0,1-1.48-.45,3.84,3.84,0,0,1-1.22-1.1,1,1,0,0,0-.08-.11l-.27-.16a6.88,6.88,0,0,1-.93-.65l-.21-.12a4.13,4.13,0,0,1-1.17-.81,3.94,3.94,0,0,1-.82-1.36,4,4,0,0,1-1.17-.94,8.22,8.22,0,0,1-.49-.67,3.69,3.69,0,0,0-.29-.4c-.28-.31-.57-.6-.86-.89l-.09-.08a9,9,0,0,0-.81-.73,6.71,6.71,0,0,0-.82-.56,6.94,6.94,0,0,0-1-.47c-.07,0-.29,0-.45-.06a6.09,6.09,0,0,1-.73-.1,5.15,5.15,0,0,1-1.06-.33l-.21-.09a2.54,2.54,0,0,0-.39,0,6,6,0,0,1-1,0,4.36,4.36,0,0,1-1.37-.39l-.15-.07-.35-.05a9.53,9.53,0,0,1-1.07-.17c-.37-.09-.72-.21-1.07-.33l-.34-.12-.23,0a4.44,4.44,0,0,1-1.35-.3,14.74,14.74,0,0,1-1.44-.69,4.84,4.84,0,0,1-1.13-.95l0-.05h0a3.48,3.48,0,0,1-1.65-.92,3.63,3.63,0,0,1-.83-1.59.56.56,0,0,0,0-.12l-.11-.16a4.58,4.58,0,0,1-.77-1.35c0-.09-.06-.18-.1-.27a6.22,6.22,0,0,1-.41-1.51l0-.15A8.53,8.53,0,0,1,187.16,306.77Zm4.34,1.16v.17a3.79,3.79,0,0,0,.15.43,3.45,3.45,0,0,1,.13.37c.05.08.11.15.17.23a5.93,5.93,0,0,1,.38.54,3.9,3.9,0,0,1,.36.8,3.17,3.17,0,0,1,1,.5,5.27,5.27,0,0,1,.71.67l.12.13c.27.15.56.29.86.42l.18,0a4.75,4.75,0,0,1,1.07.19l.51.18a6.17,6.17,0,0,0,.61.19c.21.05.43.07.64.1l.54.07a4.71,4.71,0,0,1,1.15.37l.12.06a1.62,1.62,0,0,0,.31,0,6,6,0,0,1,1.12,0,5,5,0,0,1,1.33.37l.24.1.39,0a6.68,6.68,0,0,1,1.34.25,10.84,10.84,0,0,1,1.67.76,11.46,11.46,0,0,1,1.45,1,12.17,12.17,0,0,1,1.15,1l.08.07c.38.37.74.74,1.09,1.13a8.31,8.31,0,0,1,.63.84l.17.25.1.06a4,4,0,0,1,1.14.89,4.07,4.07,0,0,1,.67,1.18h0a4.37,4.37,0,0,1,1,.63,3.58,3.58,0,0,0,.38.25c.21.13.42.26.62.4a4.43,4.43,0,0,1,.87.87,4.94,4.94,0,0,1,1,.25,8.27,8.27,0,0,0,1,.31l.38.08.27.07a1.87,1.87,0,0,0,.32-.08l.44-.12a3.73,3.73,0,0,1,.93-.1,4.19,4.19,0,0,1,.52-.44,9.92,9.92,0,0,1,.9-.59,3.37,3.37,0,0,0,.32-.19l.11-.13a3.93,3.93,0,0,1,1.19-1,6.14,6.14,0,0,1,1.32-.48L225,321a5.12,5.12,0,0,1,1.48-.25l.33,0a8.88,8.88,0,0,1,1.82-.08h.32a6.29,6.29,0,0,1,1.44.14,4.26,4.26,0,0,1,1.39.69l.13.11a6.09,6.09,0,0,1,1.61.82l.25.16a6.23,6.23,0,0,1,1.05.75l.28.25c.27.23.54.48.8.75.09.1.2.2.31.3s.48.45.7.69a5.16,5.16,0,0,1,.64,1c.05.08.08.16.11.2.19.23.36.47.53.72l.21.29.1.06a4.23,4.23,0,0,1,1.05.89,4.69,4.69,0,0,1,.61,1l.06.15c.16.19.31.38.45.58l.31.41.18.13a4.13,4.13,0,0,1,1.53,1.83l.07.15.25.29c.18.21.36.42.55.62a3,3,0,0,0,.33.29,6.33,6.33,0,0,1,.58.52l.21.13a5,5,0,0,1,.86.62,6.76,6.76,0,0,1,.58.62,2,2,0,0,0,.24.26,7.25,7.25,0,0,1,.68.67l.13.16a7,7,0,0,0,.83.49h.13a5.34,5.34,0,0,1,.95.17,4.83,4.83,0,0,1,1,.44l.06,0h0a4.25,4.25,0,0,1,1.26,0,4.41,4.41,0,0,1,1.18.38h0a4.71,4.71,0,0,1,1.09-.17,5.42,5.42,0,0,1,1,.1l.18,0,.32-.09a6.68,6.68,0,0,1,.73-.21,2.29,2.29,0,0,0,.36-.14c.23-.09.47-.19.72-.27a8.53,8.53,0,0,0,.84-.32l.23-.09a3.71,3.71,0,0,1,1.35-.26l.11-.09a7.91,7.91,0,0,1,.75-.54,7.4,7.4,0,0,0,.81-.53l.09-.14a4.9,4.9,0,0,1,.72-.93A4.07,4.07,0,0,1,263,334l.1-.05.11-.17a6.32,6.32,0,0,1,.65-.89,5.31,5.31,0,0,1,.91-.75l.12-.08,0,0a3.66,3.66,0,0,1,.85-1.36,4.37,4.37,0,0,1,1.21-.8l.16-.08.24-.21c.29-.26.58-.52.85-.73a1.29,1.29,0,0,0,.16-.17,4.46,4.46,0,0,1,1.08-1,11.86,11.86,0,0,1,1.37-.7l.12-.06a4.71,4.71,0,0,1,1.37-.37l.27,0a4.57,4.57,0,0,1,1.37-.19l.37,0,.2,0c.37,0,.76-.07,1.18-.08l.15,0a4.43,4.43,0,0,1,1.33-.19h.41l1,0h.19l1.15.07a5,5,0,0,1,1.13.25l.17.06a5.37,5.37,0,0,1,1,.2l.2.05.12,0a4.07,4.07,0,0,1,1.25-.11l.33,0a6.85,6.85,0,0,1,1-.06l1.11,0h.18a4.19,4.19,0,0,1,1.26.21l.09,0,.21-.06a5.78,5.78,0,0,1,.95-.2c.29,0,.54,0,.87,0a2.41,2.41,0,0,0,.38,0c.41-.08.81-.15,1.14-.23l.24-.13a6.17,6.17,0,0,1,.92-.44,8,8,0,0,1,.84-.22l.32-.07a4.71,4.71,0,0,0,.48-.29l.53-.32a7.76,7.76,0,0,1,.77-.37l.28-.11a2.29,2.29,0,0,0,.21-.23,6.28,6.28,0,0,1,.62-.64l.51-.41a1.75,1.75,0,0,0,.67-.73c.1-.16.2-.32.31-.48a6.62,6.62,0,0,0,.54-.91,4.5,4.5,0,0,1,.69-.95l0,0c0-.07,0-.13,0-.19a7,7,0,0,1,.12-.82c0-.07,0-.26,0-.4s0-.49,0-.74a3.51,3.51,0,0,0,0-.56c0-.19,0-.37,0-.57a5.83,5.83,0,0,1,.09-1,1.82,1.82,0,0,1,.05-.2c0-.21,0-.42-.05-.63s0-.3,0-.45l-.07-.12a4.32,4.32,0,0,1-.49-1.09c-.12-.38-.24-.75-.39-1.14a2.07,2.07,0,0,1-.11-1,.69.69,0,0,1-.07-.15,2.88,2.88,0,0,1-.2-.61l-.17-.66c-.06-.25-.14-.51-.21-.79s-.07-.28-.11-.42l-.09-.36,0-.23c-.08-.36-.1-.52-.19-.88L297,305.8c-.07-.14-.26-.68-.41-1.13s-.29-.81-.43-1.24-.24-.95-.36-1.45-.14-.79-.29-1.32-.25-1-.35-1.5l-.08-.39v0l-.06-.17-.32-.89c-.19-.61-.2-1.1-.39-1.68s-.33-1.11-.47-1.68c-.05-.33-.35-1.09-.51-1.73l-.21-.9,0-.11v0a2.2,2.2,0,0,1-.05-.29v-.06l0-.23,0-.4v-.21h0v0l0-.06v0a.09.09,0,0,0,0,.05v0a1.09,1.09,0,0,1-.06-.11l-.19-.32a4.49,4.49,0,0,1-.23-.61l-.05-.15,0-.27v-.15l0-.47V288c0-.26-.15-.62-.22-.92l-.05-.18h0l0-.06-.18-.46-.23-.65-.06-.17c0-.12,0,.21-.05-.27v-.1l0-.25,0-.42v-.23l-.34-1.06-.05-.16c0,.08,0-.15,0-.14v-.09l0-.26-.07-.47a7.19,7.19,0,0,0-.2-1c-.17-.67-.36-1.35-.51-2l-.11-.52-.05-.26,0-.13v-.07l0-.29v0l0-.53c0-.15,0-.22,0-.34a1.82,1.82,0,0,0,0-.47l-.08-.53,0-.21,0-.05-.2-.54-.25-.73c-.07-.48,0-.15,0-.27v-.23a4.61,4.61,0,0,1,0-.53l0-.32a.08.08,0,0,0,0,0l-.06-.23-.12-.53-.07-.26v-.1c0-.05.07.31,0,.14l0-.13-.36-1.22-.25-1.06,0-.13v0l0-.29V269a1.5,1.5,0,0,1,0-.33c0-.2,0-.41,0-.61V268l-.13-.5-.17-.64-.07-.55-.07-.54v-.11h0l-.08-.26c-.08-.3-.26-.89-.32-1.22l-.21-1.07-.12-1.08c-.05-.38-.12-.72-.18-1.09l0-.26,0-.21v-.2l0-.51v-.34l0-.15v0l-.12-.27a1.82,1.82,0,0,1-.08-.19l-.09-.31a1.87,1.87,0,0,1-.11-.48l0-.27-.06-.53,0-.27v0s0-.45,0-.26v-.94l-.12-.34-.23-.71a2.54,2.54,0,0,1-.11-.57l-.07-.53,0-.26h0v0l0-.13-.13-.53-.07-.3,0-.15,0-.08v0c-.06-.46,0-.15,0-.26v-.52c0-.16,0-.24,0-.37v-.08h0l-.05-.2-.15-.55-.08-.31,0-.08v0c0-.09,0,.14,0-.21v-.12l0-.51v-.38h0l-.08-.25-.17-.58-.09-.32,0-.08c0-.4,0-.13,0-.23v-.15l0-.48V246c0-.13,0-.32,0-.47l-.05-.49,0-.23v0l0-.11v0h0s0,0,0,0l-.15-.32c-.05-.12-.12-.35-.17-.53l0-.15v-.07s0-.27,0-.17v-.12l0-.24,0-.43a6,6,0,0,0-.09-.86l-.06-.47-.05-.37v-.23l0-.77,0-.11s0,0,0,0,0,0,0,0l-.15-.29c0-.05,0-.08-.07-.16l-.09-.27-.08-.28,0-.13c0,.11,0-.24,0-.21v-1.3c0-.27,0-.54-.05-.8s0-.62-.05-.93V235l0-.1h0l-.1-.24a2.23,2.23,0,0,1-.12-.33,3.17,3.17,0,0,1-.12-.44,1.93,1.93,0,0,1,0-.25l0-.39,0-.39,0-.19v0c-.06-.27-.13-.54-.19-.8l-.1-.45,0-.37c0-.24,0-.48,0-.71a5.92,5.92,0,0,1,0-1.39c-.07-.4-.13-.79-.19-1.17s-.18-.87-.26-1.28-.14-.74-.2-1.09v-.07h0l0-.15v-.85a6.38,6.38,0,0,0-.06-.84c0-.14,0-.28-.05-.41v-.14h0l0-.09a9.62,9.62,0,0,1-.27-1.39c0-.68,0-1,0-1v-.14a1.53,1.53,0,0,1,3-.23s.06.36.13,1a9.45,9.45,0,0,0,.29,1.06l0,.1,0,0v0l0,.18,0,.19.06.41a7.49,7.49,0,0,1,.09,1l0,.55v.38c.07.35.15.71.23,1.09s.17.69.26,1.06.17.9.26,1.37v1.4h0l.06.66,0,.37.09.27c.06.22.12.44.19.67l0,.09,0,.17v.07l0,.19.05.39c.13.89-.1-.05.41,1.32l0,.1v.08c0,.09,0-.18.05.22l0,.24,0,.49,0,.42v.16c0-.05,0,.14,0-.1v0l0,.24.09.92.06.92V238l0,.08c.07.15.15.3.21.45l.09.21,0,.11,0,.1,0,.06s.1.46.06.26v0c0,.34,0,.69.08,1l0,.2h0l0,.12.07.46a8.21,8.21,0,0,1,.14,1l.05.53v.16l.05.09a5.79,5.79,0,0,1,.32.76l0,.12,0,.06c.1.44,0,.14,0,.24v0l0,.24.06.49.06.5,0,.66,0,.52v0h0l.06.15c0,.1.08.2.14.38l.08.24,0,.12v0c.09.41,0,.13.05.24v.08L289,249l.21.68.07.25,0,.06a1.52,1.52,0,0,0,0,.19v.22l0,.67,0,.4h0l0,.1.05.21.13.49,0,.12v.07l0,.17,0,.26.08.52,0,.26,0,.13,0,.07a2.23,2.23,0,0,1,.13.3l.19.5v0c0-.05.13.52.07.3v.27l0,.37,0,.58v.31l.07.53c0,.07,0,.2,0,.29l0,0,.1.22c.08.17.15.34.22.52l.08.26v0s.1.41,0,.24v.08l0,.17,0,.33.06.57V260l0,.23c.06.35.14.72.19,1.06l.14,1.08.24,1.07c.09.39.15.48.27.89l.07.26,0,.06v0c.07.32,0,.11,0,.19l0,.13.08.54.08.55.12.41.14.51,0,.13,0,.16v.09l0,.17,0,.35v.29l0,.39a.08.08,0,0,0,0-.07s0,.08,0,.15l0,.08.26,1.06.12.36.16.5,0,.13.08.3.06.27.13.53.07.26v.07l0,.16,0,.33a2.79,2.79,0,0,1,0,.51v.22h0s0-.09,0,0v.07a1.15,1.15,0,0,1,.12.25l.18.46,0,.13v0c-.05-.22.09.33.08.28v.07l0,.26.09.53c0,.2.06.31.08.59l0,.73,0,.48v.05l.05.25.11.52c.16.68.35,1.35.52,2a7.13,7.13,0,0,1,.23,1.07l.09.55,0,.25v0h0l0,.09.29.83,0,.06,0,.2v0l0,.17,0,.35.05.58c0,.23.28.51.54,1.65.08.33.17.6.24,1l.07.66,0,.39.16.27a3.78,3.78,0,0,1,.29.65c0-.05.15.52.09.3v.12l0,.16,0,.33.05.53v.23c.07.29.14.58.2.87.14.54.32.89.51,1.72.13.57.29,1.12.46,1.67s.21,1.14.35,1.58l.24.63.07.19,0,.05v0l.05.18,0,.1.08.38c.09.52.21,1,.33,1.49s.24,1.12.32,1.53v.15c0,.11,0-.13,0-.1l0,.17.08.34c.05.23.11.45.16.66.28.83.55,1.61.79,2.33l.31,1.07c.08.33.18.82.23,1.09l0,.12c4.61-2.58,8.11-6.88,6.38-11.53a2.72,2.72,0,0,1-.12-.62l-.19-.61c-.11-.35-.22-.69-.32-1-.05-.15-.16-.37-.27-.61a7.45,7.45,0,0,1-.53-1.25,12.09,12.09,0,0,1-.28-1.19c-.05-.26-.1-.52-.17-.77s-.19-.56-.29-.83-.26-.71-.36-1.07-.2-.68-.3-1-.17-.61-.26-.91a5,5,0,0,0-.26-.53,6.34,6.34,0,0,1-.58-1.32c-.09-.29-.19-.59-.29-.88l-.33-1a6.24,6.24,0,0,1-.22-1.47c0-.2,0-.45-.06-.55a11.52,11.52,0,0,1-.28-1.16c-.06-.27-.11-.54-.18-.8s-.18-.49-.28-.74a9.92,9.92,0,0,1-.42-1.15c-.08-.27-.18-.54-.28-.81s-.27-.73-.37-1.09-.19-.73-.28-1.09-.14-.58-.22-.87a6.81,6.81,0,0,1-.22-1.47,3.2,3.2,0,0,0-.05-.54,7,7,0,0,0-.27-.77c-.14-.38-.28-.75-.39-1.13a8.48,8.48,0,0,1-.24-1.34,5.6,5.6,0,0,0-.09-.61,2.14,2.14,0,0,0-.21-.36,5.16,5.16,0,0,1-.75-1.51q-.12-.39-.27-.78c-.13-.38-.27-.75-.37-1.12a5.28,5.28,0,0,1-.13-1.7c0-.12,0-.24,0-.35a2.75,2.75,0,0,0-.19-.28,5.07,5.07,0,0,1-.78-1.55,9.31,9.31,0,0,1-.23-1.31c0-.26-.06-.51-.1-.69s-.15-.38-.25-.63a8.14,8.14,0,0,1-.48-1.26,5,5,0,0,1-.06-1.83c0-.11,0-.21,0-.31a5.77,5.77,0,0,0-.23-.58,9,9,0,0,1-.45-1.25,5.63,5.63,0,0,0-.24-.69,7.88,7.88,0,0,1-.42-1.22c-.1-.37-.18-.74-.26-1.1s-.13-.58-.2-.87a5.67,5.67,0,0,1-.13-1.57v-.44c0-.08-.14-.26-.21-.4a5.33,5.33,0,0,1-.64-1.49,6.09,6.09,0,0,1-.14-1.51c0-.18,0-.44,0-.52a11.55,11.55,0,0,1-.19-1.27c0-.25-.05-.49-.1-.73s-.14-.42-.23-.67a8,8,0,0,1-.4-1.25c-.07-.29-.15-.56-.22-.84s-.22-.74-.3-1.12a10,10,0,0,1-.18-1.22c0-.26-.06-.52-.11-.77a3.54,3.54,0,0,0-.2-.43,6.29,6.29,0,0,1-.56-1.47,7.28,7.28,0,0,1-.11-1.47,4.29,4.29,0,0,0,0-.56c-.05-.26-.13-.52-.2-.77s-.23-.79-.31-1.18a11.25,11.25,0,0,1-.15-1.28c0-.25,0-.49-.07-.73a3.69,3.69,0,0,0-.2-.51,7,7,0,0,1-.47-1.41c-.07-.4-.11-.8-.15-1.2s-.05-.54-.1-.81a6.17,6.17,0,0,0-.19-.74,10.29,10.29,0,0,1-.31-1.22c-.06-.39-.1-.78-.14-1.18s-.05-.54-.09-.81a2,2,0,0,1,0-.85c-.06-.28-.12-.56-.17-.84,0-.09-.09-.28-.15-.45a6.18,6.18,0,0,1-.36-1.2,7.76,7.76,0,0,1-.12-1.08c0-.21,0-.42-.06-.62s-.1-.47-.16-.7-.15-.65-.21-1l-.15-.93-.12-.75a2.79,2.79,0,0,0-.14-.37,5.68,5.68,0,0,1-.41-1.28c0-.26-.1-.51-.15-.77l-.18-.9a5.86,5.86,0,0,1,0-1.37,2.06,2.06,0,0,0,0-.34c-.06-.35-.09-.7-.12-1s0-.43-.07-.64a4,4,0,0,0-.15-.6,10.12,10.12,0,0,1-.27-1.05c0-.23-.1-.45-.16-.67s-.16-.65-.22-1-.1-.62-.14-.93-.06-.5-.11-.74a5.49,5.49,0,0,1-.05-1.37c0-.12,0-.24,0-.33s-.11-.43-.17-.64a9,9,0,0,1-.26-1,6.24,6.24,0,0,1-.12-1.21c0-.14,0-.29,0-.4a1.74,1.74,0,0,0-.11-.18,4.75,4.75,0,0,1-.64-1.44c0-.22-.12-.44-.19-.65a8.53,8.53,0,0,1-.28-1,4.54,4.54,0,0,1-.05-1.58s0-.07,0-.11l-.06-.07a4.37,4.37,0,0,1-.74-1.44,7.16,7.16,0,0,1-.21-1.12c0-.2-.05-.4-.07-.5s-.13-.28-.21-.44a6,6,0,0,1-.47-1.06,4.27,4.27,0,0,1-.15-1.7s0-.09,0-.13-.12-.21-.18-.33a5.89,5.89,0,0,1-.51-1,4,4,0,0,0-.28-.49,9.12,9.12,0,0,1-.51-.91l-.18-.41c-.16-.35-.31-.69-.48-1a5.52,5.52,0,0,1-.44-1.3c0-.08,0-.15,0-.19l-.16-.13a5.18,5.18,0,0,1-1-1,5.36,5.36,0,0,1-.59-1.18,2.07,2.07,0,0,0-.1-.26,9.64,9.64,0,0,1-.55-.86,3.81,3.81,0,0,0-.3-.48,4.32,4.32,0,0,0-.36-.34,6.5,6.5,0,0,1-.78-.74,6.75,6.75,0,0,0-.54-.53c-.19-.19-.39-.37-.57-.56s-.41-.47-.61-.71-.23-.29-.35-.42l-.23-.11a5.15,5.15,0,0,1-1.18-.7,5.46,5.46,0,0,1-.83-.9c-.08-.1-.14-.19-.2-.25a5,5,0,0,0-.55-.33c-.26-.14-.51-.28-.75-.44a8.5,8.5,0,0,1-.77-.57l-.39-.31a1.67,1.67,0,0,0-.32-.08,5.92,5.92,0,0,1-1.19-.38c-.26-.13-.51-.27-.76-.41s-.37-.21-.56-.29-.32-.09-.53-.15a9.41,9.41,0,0,1-.91-.25c-.27-.1-.52-.21-.78-.32a4.54,4.54,0,0,0-.61-.24l-.66-.22c-.25-.08-.5-.17-.76-.23s-.61-.19-.9-.29a2.72,2.72,0,0,0-.53-.17c-.29-.06-.58-.14-.87-.23a4.71,4.71,0,0,0-.57-.14,1.48,1.48,0,0,0-.36,0,6.09,6.09,0,0,1-1.16,0l-.7-.08c-.26,0-.52-.07-.77-.08a6,6,0,0,1-1.1-.15l-.31-.06-.18.07a4.69,4.69,0,0,1-1.32.36,7.57,7.57,0,0,1-1,0h-.48a7.35,7.35,0,0,1-1.15.1,3.54,3.54,0,0,0-.52,0l-1.52.36c-.1.05-.19.12-.29.18a5.33,5.33,0,0,1-1.25.64c-.28.09-.57.16-.86.23a5.45,5.45,0,0,0-.69.2,6.45,6.45,0,0,1-1.2.31,2.14,2.14,0,0,0-.38.07c-.19.09-.42.24-.67.39s-.46.29-.7.42a4.52,4.52,0,0,0-.48.37c-.26.21-.52.41-.79.59a2.49,2.49,0,0,0-.34.33,8,8,0,0,1-.82.75,5.17,5.17,0,0,1-1.29.67l-.24.09c-.37.33-.73.68-1.09,1a4.5,4.5,0,0,0-.41.52c-.19.25-.38.51-.59.75s-.42.44-.64.66a4.62,4.62,0,0,0-.49.5c0,.06-.14.25-.21.39a6.54,6.54,0,0,1-.59,1.06,8.46,8.46,0,0,1-.73.84,3.47,3.47,0,0,0-.36.41,4.14,4.14,0,0,0-.31.59c-.14.27-.27.54-.42.8a7.57,7.57,0,0,1-.65.9c-.11.14-.25.31-.28.36a3.58,3.58,0,0,0-.09.35,6.23,6.23,0,0,1-.39,1.22l-.2.41c-.17.34-.33.68-.49,1a6.46,6.46,0,0,1-.53,1,4.71,4.71,0,0,0-.25.45,2.28,2.28,0,0,0-.08.41,7,7,0,0,1-.3,1.18,4.56,4.56,0,0,1-.79,1.29l-.14.19c-.17.49-.34,1-.5,1.47,0,.07,0,.28-.06.43a5.83,5.83,0,0,1-.21,1.11c0,.1,0,.2,0,.3a4.85,4.85,0,0,1-.16,1.46,7.53,7.53,0,0,1-.45,1.1c-.07.15-.16.34-.19.42a5.86,5.86,0,0,1-.51,1.21,2.48,2.48,0,0,0-.17.32c-.09.33-.17.67-.26,1l-.14.59c-.08.28-.14.56-.2.84s-.12.52-.17.72,0,.21,0,.32a5.38,5.38,0,0,1-.1,1.43c-.06.25-.12.51-.17.77l-.18.85a9.28,9.28,0,0,1-.36,1.09,3.34,3.34,0,0,0-.18.5,5.27,5.27,0,0,1-.53,1.3c0,.1-.11.2-.14.27-.08.32-.17.64-.26.95l-.15.52s0,.1,0,.14a5.34,5.34,0,0,1-.08,1.64c0,.21-.08.43-.11.66s-.11.63-.18,1a4.43,4.43,0,0,1-.58,1.37l-.06.1h0a4.34,4.34,0,0,1,.09,1.79,5.67,5.67,0,0,1-.44,1.24,3.23,3.23,0,0,0-.15.34,2.67,2.67,0,0,0,0,.4A6.16,6.16,0,0,1,220,212a4.1,4.1,0,0,1-.64,1.48l-.08.13a1.23,1.23,0,0,0,0,.19,5.33,5.33,0,0,1,0,1.47,2.14,2.14,0,0,1-.49,1s0,.06,0,.09c-.08.43-.17.86-.25,1.27a7.16,7.16,0,0,0-.09.92,8.83,8.83,0,0,1-.17,1.53c-.11.51-.26,1-.39,1.4s-.2.64-.27,1-.14.72-.2,1.08-.14.89-.24,1.32-.22.93-.32,1.39l-.24,1a5.45,5.45,0,0,0-.07.82,7.11,7.11,0,0,1-.18,1.63c-.08.35-.15.71-.23,1.06s-.18.89-.29,1.33a8.06,8.06,0,0,1-.6,1.57,6,6,0,0,0-.31.73c-.11.45-.26.9-.41,1.35s-.23.65-.31,1a9.59,9.59,0,0,0-.18,1,13.11,13.11,0,0,1-.29,1.44c-.09.34-.15.67-.22,1s-.18.92-.31,1.38-.25.86-.39,1.3-.24.75-.35,1.13a7.92,7.92,0,0,1-.65,1.54,5.45,5.45,0,0,0-.37.82c-.09.33-.16.67-.23,1a14.76,14.76,0,0,1-.35,1.46,9.33,9.33,0,0,1-.57,1.45,7.59,7.59,0,0,0-.37.91,4.11,4.11,0,0,0,0,.66,6.91,6.91,0,0,1-.22,1.91c-.11.34-.18.69-.26,1.05s-.22.94-.36,1.41a6.18,6.18,0,0,1-.85,1.67,1.38,1.38,0,0,0-.37,1.24,6.5,6.5,0,0,1-.22,2,13.09,13.09,0,0,1-.57,1.42,8.18,8.18,0,0,0-.39.93,7.71,7.71,0,0,0-.18.93,12,12,0,0,1-.34,1.56,5.62,5.62,0,0,1-1,1.75c-.12.17-.3.41-.34.49a8,8,0,0,0-.2,1,10.19,10.19,0,0,1-.35,1.52,9.28,9.28,0,0,0-.22,1,12.76,12.76,0,0,1-.36,1.49c-.14.44-.29.87-.44,1.3s-.25.74-.37,1.1a7.55,7.55,0,0,1-.79,1.61,3.71,3.71,0,0,0-.37.69,3.9,3.9,0,0,0-.09.74,6.83,6.83,0,0,1-.29,1.81,7.82,7.82,0,0,1-.75,1.56,5.86,5.86,0,0,0-.38.74,11.77,11.77,0,0,1-.58,1.41c-.14.31-.28.62-.39.94a8.81,8.81,0,0,0-.24,1,11.26,11.26,0,0,1-.37,1.5c-.12.36-.23.73-.33,1.1s-.25.9-.4,1.33-.39,1-.58,1.4-.29.63-.4.95a5.56,5.56,0,0,0-.13.8,7.15,7.15,0,0,1-.33,1.73,8.71,8.71,0,0,1-.78,1.56,7,7,0,0,0-.39.73c-.13.36-.22.73-.32,1.08s-.26.93-.43,1.37a12.52,12.52,0,0,1-.69,1.5,8.64,8.64,0,0,0-.39.82,5.38,5.38,0,0,0-.24,1,7.42,7.42,0,0,1-.43,1.57,2.17,2.17,0,0,1-.83,1,5.89,5.89,0,0,0-.26.78l-.11.4a4.68,4.68,0,0,0-.14.63A4.94,4.94,0,0,0,191.5,307.93Zm99-50.54v0C290.5,257.43,290.5,257.47,290.49,257.39ZM289.31,273h0a.15.15,0,0,0,0,.07v0l0-.07Zm-.93-5s0,0,0,0h0Zm-.57-25h0Zm-2.22-13.2c0-.11,0,0,0,0Zm-59.81,83c0-.11,0-.22,0-.33v-.3h0l0-.09v0l.14-.63c.1-.43.21-.93.33-1.48l.09-.45,0-.12,0-.19,0-.06.06-.24c.07-.28.15-.58.24-.89s.12-.72.18-1.09l.05-.3v-.17c0-.21,0-.41.05-.62,0-.42.07-.85.1-1.3a11,11,0,0,1,.19-1.46c0-.23.09-.47.14-.7l.09-.47.09-.36c.12-.52.22-.79.31-1.35,0-.26.09-.51.14-.77l0-.2.06-.29.1-.39c0-.24.1-.47.16-.71v-.2l0-.42,0-.5,0-.26v-.2c0-.05,0,.08,0-.13v0c.07-.27.13-.54.19-.82a10.21,10.21,0,0,0,.24-1.64c.06-.58.17-1.17.26-1.77,0-.28.06-1.26.16-1.82l.16-.92,0-.24.05-.23v-.09l0-.11a6.26,6.26,0,0,1,.26-.71l.12-.27v-.11s0,0,0,0a3.12,3.12,0,0,1-.09-.42,3.26,3.26,0,0,1,0-.53v-.53c.11-.5,0-.15.06-.27l.15-.46.13-.39.12-.31.12-1,0-.35v-.18c0-.09,0-.18,0-.16l0,0,0-.29a4.52,4.52,0,0,1,0-.91v-.06c0,.15,0-.28,0-.25v-.06l0-.12a1.4,1.4,0,0,1,.09-.3l.16-.43L231,280l0-.08h0v-.25l0-1.19a15.71,15.71,0,0,0,.37-2c.06-.67.12-1.35.17-2,0-.34.06-.66.11-1l.07-.51,0-.25v-.2l0-.23v0a4.44,4.44,0,0,1,.2-.65l.22-.55c0-.12,0,0,0-.05l.09-.5.09-.51.05-.25,0-.11v-.18c0-.1,0,0,0-.07a3.57,3.57,0,0,1-.07-.45,3.63,3.63,0,0,1,0-.5v-.34c0-.13,0,.19.05-.31l0-.06.06-.25c0-.06.1-.3.16-.43.34-.76.21-.49.25-.51l.06-1,0-.25v-.57c0-.33,0-.84,0-1.2l.06-1V262l.05-.28,0-.07.06-.24.06-.18.1-.24.18-.42.06-.13h0v-.85l0-.58.07-.49.15-.94v-.89c0-.86.05-1.4.09-2.07.1-.87.22-1.26.29-1.89l.1-.93,0-.24,0-.26,0-.11.09-.46.17-.72v0c0-.06,0-.2,0-.18v0l0-.16a5.11,5.11,0,0,1-.1-.73v-.48l0-.22c.05-.29.09-.59.14-.88l.1-.61,0-.21a2.19,2.19,0,0,1,.08-.27,5.55,5.55,0,0,1,.19-.58,1,1,0,0,0,.06-.2h0v0c0-.19,0-.19,0-.21l-.07-.4,0-.13,0-.21c0-.14,0-.29,0-.43a1.52,1.52,0,0,1,0-.28l0-.2.05-.41.06-.4,0-.2v-.12c0-.26,0-.52,0-.78v-.78l0-.18v-.07c0-.16,0-.2.1-.44l.18-.53c.08-.18.09-.36.09-.19,0-.54,0-1.07,0-1.59v0s.05-.3,0-.18v0l0-.08,0-.17L236,237c0-.18.1-.37.14-.54l0-.11v-.32l0-.71,0-.39v-.15c0-.08,0,.17,0-.2v0l0-.14c.05-.2.11-.39.16-.58s.08-.29.13-.42l0-.11v-.13l0-.07,0-.27c.07-.34.13-.66.18-1v-.27c0-.07,0,0-.05-.14l-.06-.28a2.06,2.06,0,0,1-.05-.35c0-.14,0-.29,0-.43v-.16c0-.06,0,.1,0-.14v0l0-.09c.05-.26.11-.5.16-.72s.1-.37.14-.54.06-.37.09-.53c.09-.64.16-1,.16-1v0a1.43,1.43,0,0,1,2.82.35s0,.34-.07,1c0,.16,0,.34,0,.54s-.08.46-.13.73-.09.48-.15.74h0s0,0,0,0,0,0,0,.09l0,.15a5.8,5.8,0,0,1,.14.76l0,.24v.12s0,.4,0,.22v.12c0,.34-.1.71-.16,1.09l0,.27v.07s0,.08,0-.06v.06l0,.17q-.08.33-.15.69c0,.19-.1.38-.14.58v.09l0,.23c0,.18,0,.37,0,.56l0,.32v.13s0,.37,0,.21v0l0,.2c-.09.42-.18.85-.27,1.3l0,.57,0,.73a4.29,4.29,0,0,1-.25,1.25l0,.13,0,.06a.33.33,0,0,0,0,.13l0,.15v.56c0,.26,0,.52,0,.78,0,.55-.11,1.1-.17,1.67h0v.06l.09.44a4.3,4.3,0,0,1,.08.62v.22s0,.41,0,.25v0l0,.1,0,.2a6,6,0,0,1-.17.64,1.25,1.25,0,0,1-.09.24.63.63,0,0,0,0,.15l0,.21v.05l0,.22-.12.88,0,.22s0,0,0,0,0,.1,0,.16l.07.29.07.42a2.05,2.05,0,0,1,0,.28v.2s0,.45,0,.26c-.07.34-.13.69-.2,1l-.08.46v.32l-.08,1c-.06.62-.24,1.49-.27,1.89a16.37,16.37,0,0,0,0,1.82l0,.45v.44c0,.08,0-.15,0,.2v0l-.14,1-.06.5v1.37a1.23,1.23,0,0,1,0,.18V261l0,.15-.06.29a4.46,4.46,0,0,1-.16.46l-.15.32s0,.05,0,.06h0s0,0,0,.05l0,.16v.34l0,1,0,.83,0,.51,0,.71,0,1a4.82,4.82,0,0,1-.25,1l-.14.33,0,.08h0s0-.07,0,0v.07l.08.55c0,.15,0,.37,0,.45v.32s0,.45,0,.26v0l0,.13,0,.25-.08.51-.09.51a5.39,5.39,0,0,1-.24.94l-.13.33,0,.07h0s0,.14-.09.29v.09l0,.26-.06.51c-.05.33-.09.69-.11,1-.06.68-.12,1.37-.17,2.05a16.31,16.31,0,0,1-.37,2c0,.27,0,.46,0,.83v.41c0,.1,0-.17,0,.23l0,.12a5.07,5.07,0,0,1-.26.86l-.1.25,0,0s0,.11-.06.18h0a.34.34,0,0,0,0,.09l0,.2,0,.47a2,2,0,0,1,0,.33v.22l0,.23-.06.5-.11,1-.18.62-.17.55-.07.2.08.41c0,.17,0,.36.06.51v.36c0-.05-.05.58,0,.34V288l0,.13c0,.16-.08.32-.13.48s-.09.21-.13.32l-.1.22s0,0-.07.18l0,.11v0l0,.11-.15.92c-.11.66-.06.92-.16,1.84-.09.6-.2,1.18-.26,1.77a11.18,11.18,0,0,1-.27,1.81l-.18.8V298c0,.09,0-.17,0,.21v0l0,.12c-.07.29-.13.58-.2.87l-.09.39,0,.1v0l0,.17c0,.26-.09.51-.13.77-.06.45-.25,1.15-.35,1.59l-.09.36v.07c0-.06,0-.09,0-.1h0l0,.09,0,.17-.15.7a8.84,8.84,0,0,0-.17,1.25c0,.44-.08.87-.12,1.28l-.06.62v.07l0,.2,0,.15-.05.29c-.07.39-.11.74-.21,1.13s-.2.76-.3,1.12l-.06.24,0,.06c0-.06,0-.09,0-.11h0v0l0,.12c0,.15-.07.3-.11.45-.14.62-.27,1.17-.38,1.65-.05.21-.1.41-.14.59h0v.33c0,.6,0,.91,0,.91a2,2,0,0,1-3.91-.07v-.15S225.77,313.4,225.78,312.71Zm11-80.89Zm0,.18h0Zm-.29,36.45h0S236.43,268.4,236.44,268.45ZM234.58,282Zm-.57,4.29v0S234,286.17,234,286.24Zm-.29-25.73v0Zm-.59,4.57h0v0Zm-2.07,14.85Zm-.71,30Zm36-57.27a8.36,8.36,0,0,0,0,1l.11,1.5c0,.19,0,.38,0,.58s0,.61,0,.92,0,.55.08.83.05.44.07.66a7.41,7.41,0,0,0,.16,1,4,4,0,0,1,.08.48c0,.2,0,.41,0,.62s0,.59,0,.88a7.74,7.74,0,0,0,.13.95,5,5,0,0,1,.08.54s0,.13-.05.22a4.87,4.87,0,0,0-.11,1.3c0,.29.06.58.1.88s.05.41.07.62a6.5,6.5,0,0,0,.18,1.05,3.12,3.12,0,0,1,.09.44c0,.29.06.58.1.88s.06.41.07.61a1.67,1.67,0,0,1,0,.24,4.61,4.61,0,0,0-.1,1.26,5,5,0,0,0,.26,1.17,1.57,1.57,0,0,1,.08.31c0,.19,0,.39,0,.6s0,.58,0,.87a1.87,1.87,0,0,1,0,.32,5.33,5.33,0,0,0-.06,1.18l.13,1.49a8.62,8.62,0,0,0,.11.87c0,.2.06.41.08.61s.07.58.11.87.06.41.08.62,0,.37,0,.56,0,.62,0,.93a7.2,7.2,0,0,0,.19,1,3.41,3.41,0,0,1,.1.46c0,.11,0,.23,0,.35a4.69,4.69,0,0,0,0,1.15,5.68,5.68,0,0,0,.24,1.13,1.91,1.91,0,0,1,.1.34c0,.27.06.54.1.81s.06.45.08.68a3,3,0,0,1,0,.38,5.22,5.22,0,0,0,0,1.13,4.33,4.33,0,0,0,.35,1.27l.1.25a2.6,2.6,0,0,0,0,.28,6.09,6.09,0,0,0,0,1.16c0,.25.05.48.07.72s0,.52.07.78.1.62.16.92a5.3,5.3,0,0,1,.1.55c.06.54.13,1.08.2,1.61.05.33.11.65.18,1s.09.39.12.6.05.41.07.62.06.64.12.95a6.7,6.7,0,0,0,.26,1,4.77,4.77,0,0,1,.13.51c0,.22.06.44.08.66s.06.59.11.89.1.59.14.88l.09.64a4.62,4.62,0,0,1,.06.65,8.09,8.09,0,0,0,.07.86c0,.24.05.49.07.73s0,.51.07.76.08.57.13.86.08.41.1.61a9.07,9.07,0,0,0,.14.91c0,.2.07.4.09.59l.14,1.52a5,5,0,0,1,0,.55c0,.33,0,.66,0,1s0,.42,0,.63,0,.62.06.92,0,.38,0,.58,0,.66.08,1a7.17,7.17,0,0,0,.26,1.1,2.4,2.4,0,0,1,.12.44,2,2,0,0,0,2,1.69l.31,0a2,2,0,0,0,1.67-2.29,7.59,7.59,0,0,0-.24-1,2.5,2.5,0,0,1-.12-.44c0-.23,0-.45,0-.67s0-.55-.06-.81,0-.46-.05-.69,0-.55-.05-.82a5,5,0,0,1,0-.55c0-.32,0-.64,0-1l-.14-1.51c0-.32-.08-.63-.14-.94s-.07-.39-.09-.58-.09-.63-.14-.95a5.86,5.86,0,0,1-.1-.58c0-.22,0-.42-.05-.63s-.05-.62-.09-.93a5.67,5.67,0,0,1,0-.58c0-.35,0-.69-.09-1l-.09-.61-.15-1c0-.21,0-.42-.08-.63s-.06-.63-.11-.94a8.45,8.45,0,0,0-.26-1,4.84,4.84,0,0,1-.14-.51c0-.22-.06-.44-.08-.67s-.06-.58-.1-.86-.1-.54-.15-.8-.1-.46-.14-.69c-.07-.51-.13-1-.19-1.5,0-.31-.09-.61-.15-.92a4.86,4.86,0,0,1-.1-.55c0-.23,0-.47-.07-.7s0-.52-.07-.78a2,2,0,0,1,0-.34,6.09,6.09,0,0,0,0-1.16,4.72,4.72,0,0,0-.36-1.28c0-.08-.07-.16-.1-.25a1.77,1.77,0,0,0,0-.31,6.82,6.82,0,0,0,0-1.12c0-.27-.06-.54-.1-.81s-.06-.44-.08-.67a5.67,5.67,0,0,0-.25-1.12,1.89,1.89,0,0,1-.09-.34,1.5,1.5,0,0,1,0-.36,5.77,5.77,0,0,0,0-1.13,7.2,7.2,0,0,0-.19-1,3.58,3.58,0,0,1-.09-.45,5.62,5.62,0,0,1,0-.58c0-.3,0-.61,0-.91s-.06-.56-.1-.84-.07-.42-.09-.63a8.62,8.62,0,0,0-.11-.87c0-.21-.06-.41-.08-.61l-.12-1.48c0-.1,0-.21,0-.32a5.22,5.22,0,0,0,.07-1.18c0-.21,0-.42,0-.64s0-.56,0-.83a5.58,5.58,0,0,0-.25-1.18,1.14,1.14,0,0,1-.09-.3,1.49,1.49,0,0,0,0-.22,4.65,4.65,0,0,0,.1-1.26c0-.28-.06-.57-.1-.85s-.06-.42-.07-.63a9.41,9.41,0,0,0-.18-1.05,2.29,2.29,0,0,1-.09-.44c0-.3-.06-.58-.1-.86s-.06-.43-.08-.64c0,0,0-.13.06-.22a4.87,4.87,0,0,0,.11-1.3c0-.32-.08-.64-.13-1a5.07,5.07,0,0,1-.09-.54c0-.21,0-.43,0-.64s0-.57,0-.85a6.12,6.12,0,0,0-.16-1,3.85,3.85,0,0,1-.08-.47c0-.28-.05-.56-.08-.84s0-.44-.07-.66,0-.39,0-.58,0-.61,0-.92l-.11-1.48a4.18,4.18,0,0,1,0-.51c0-.33,0-.66,0-1a2,2,0,0,0-2.13-1.86,2,2,0,0,0-1.86,2.13A4,4,0,0,1,266.35,252.62Zm-55.81,43.13a2,2,0,0,0,1.44,2.43,1.86,1.86,0,0,0,.52.07,2,2,0,0,0,1.9-1.44,5.32,5.32,0,0,0,.16-1.08c0-.15,0-.34.05-.41a4.76,4.76,0,0,1,.19-.53c.11-.29.22-.59.31-.9l.2-.57c.1-.28.21-.56.29-.86.05-.15.12-.29.19-.45a7.93,7.93,0,0,0,.37-1l.42-1.46a7,7,0,0,0,.21-.93c0-.19.07-.37.12-.56a9,9,0,0,0,.21-.93c0-.19.07-.38.13-.57s.12-.39.19-.59.19-.56.28-.85a4.6,4.6,0,0,1,.19-.52,9.29,9.29,0,0,0,.33-.93c.06-.22.12-.43.19-.65l.24-.82c.05-.17.11-.35.18-.53a9.82,9.82,0,0,0,.32-1,7.31,7.31,0,0,0,.17-1.09,3.59,3.59,0,0,1,0-.46c.05-.18.11-.36.17-.54s.21-.63.29-1,.12-.6.17-.91.07-.41.11-.61l.34-1.51c.07-.33.11-.66.15-1a5,5,0,0,1,.07-.54l.14-.64c.07-.29.14-.58.2-.87a1.8,1.8,0,0,1,.12-.25,5.64,5.64,0,0,0,.45-1.21,4.11,4.11,0,0,0,0-1.45l0-.18a2.56,2.56,0,0,1,.11-.24,5,5,0,0,0,.4-1.16c.06-.28.1-.56.15-.85s.07-.44.11-.66a5.17,5.17,0,0,0,.07-1.25,1.74,1.74,0,0,1,0-.32,1.89,1.89,0,0,1,.12-.27,5,5,0,0,0,.42-1.17,6.89,6.89,0,0,0,.1-1.11,2.13,2.13,0,0,1,0-.44c0-.17.1-.35.15-.53s.19-.62.26-.94.1-.59.13-.88.06-.43.1-.64.1-.59.14-.9,0-.41.09-.61l.31-1.5c0-.05.07-.14.12-.23a5,5,0,0,0,.46-1.22c0-.2.1-.4.16-.6s.16-.59.22-.88a4.63,4.63,0,0,0,.06-1.3c0-.06,0-.12,0-.18a.54.54,0,0,0,.07-.13,3.83,3.83,0,0,0,.52-1.29c.06-.3.1-.6.13-.9s0-.38.07-.57a6,6,0,0,0,.08-1.13,1.45,1.45,0,0,1,0-.36,6.76,6.76,0,0,0,.11-.89l.06-.49s.06-.1.08-.16a4,4,0,0,0,.52-1.33,8.12,8.12,0,0,0,.08-1,2.42,2.42,0,0,1,0-.47c0-.18.07-.37.12-.56a8.57,8.57,0,0,0,.18-.88,6,6,0,0,0,.06-1.07,2.64,2.64,0,0,1,0-.4c0-.29.07-.57.1-.85s0-.41.07-.62.08-.34.12-.51.16-.61.21-.92l.23-1.45a2.21,2.21,0,0,1,.12-.42,6,6,0,0,0,.26-1,4.45,4.45,0,0,0,0-1.35l0-.21c0-.15.07-.31.11-.46.07-.31.15-.63.19-.95l.1-.23a4.38,4.38,0,0,0,.37-1.2,4.3,4.3,0,0,0,0-1.32,2.6,2.6,0,0,1,0-.26c0-.16.07-.37.11-.58s.1-.55.14-.83a8.4,8.4,0,0,0,.07-1,3.93,3.93,0,0,1,0-.49c0-.09.07-.19.1-.29a4.48,4.48,0,0,0,.34-1.16,6.34,6.34,0,0,0,0-1.12,1.61,1.61,0,0,1,0-.38,2.17,2.17,0,0,1,.12-.42,5.56,5.56,0,0,0,.25-1,5.66,5.66,0,0,0,0-1.31,2.46,2.46,0,0,1,0-.26.39.39,0,0,1,0-.13,3.59,3.59,0,0,0,.37-1.26,2,2,0,0,0-4-.5h0a4.23,4.23,0,0,0-.4,1.43,4.34,4.34,0,0,0,0,1.09,3.34,3.34,0,0,1,0,.41c0,.09-.06.19-.1.31a5.81,5.81,0,0,0-.28,1.13,6.3,6.3,0,0,0,0,1,3.38,3.38,0,0,1,0,.45l-.1.25a5,5,0,0,0-.34,1.18,6.37,6.37,0,0,0-.06,1,4.36,4.36,0,0,1,0,.51c0,.21-.07.42-.11.63s-.11.55-.15.83a4.61,4.61,0,0,0,0,1.32,1.5,1.5,0,0,1,0,.2,2.34,2.34,0,0,1-.09.24,4.69,4.69,0,0,0-.36,1.16,6,6,0,0,1-.13.61c-.07.28-.13.55-.18.82a4.34,4.34,0,0,0,0,1.38l0,.2c0,.13-.07.24-.11.36a6.26,6.26,0,0,0-.26,1l-.23,1.45c0,.17-.08.34-.12.52a9.24,9.24,0,0,0-.21.91c0,.28-.07.56-.1.84s0,.41-.07.62a6,6,0,0,0-.06,1.08,2.54,2.54,0,0,1,0,.39c0,.2-.08.39-.12.59s-.13.55-.18.83a8.59,8.59,0,0,0-.08,1,2.36,2.36,0,0,1,0,.38,1.09,1.09,0,0,1-.08.15,4.32,4.32,0,0,0-.51,1.32c0,.29-.08.58-.11.88s0,.38-.06.57a5,5,0,0,0-.07,1.11,2,2,0,0,1,0,.35c0,.28-.08.57-.12.87s0,.33-.06.5l-.09.17a4.08,4.08,0,0,0-.52,1.26,4.36,4.36,0,0,0,0,1.28c0,.09,0,.17,0,.26s-.09.34-.15.55-.17.58-.23.87a1.39,1.39,0,0,1-.12.25,5.12,5.12,0,0,0-.46,1.21l-.31,1.51c-.06.3-.1.61-.14.92s-.05.4-.09.6-.1.6-.14.9a6.17,6.17,0,0,1-.1.62,3.63,3.63,0,0,1-.15.54,8.74,8.74,0,0,0-.25.94,5.31,5.31,0,0,0-.1,1.12,2.86,2.86,0,0,1,0,.42,2.24,2.24,0,0,1-.12.29,5,5,0,0,0-.42,1.17,5.16,5.16,0,0,0-.06,1.26,1.71,1.71,0,0,1,0,.32c0,.25-.09.53-.14.81s-.06.45-.11.67a2.15,2.15,0,0,1-.13.32,5.24,5.24,0,0,0-.4,1.13,4.41,4.41,0,0,0,0,1.46l0,.16a2.12,2.12,0,0,1-.11.21,5,5,0,0,0-.43,1.17l-.18.8c-.06.23-.11.46-.16.69a8,8,0,0,0-.14,1c0,.18,0,.36-.07.53l-.34,1.48c-.06.29-.11.58-.16.88s-.06.41-.11.61-.12.4-.18.6-.19.56-.27.85a7.21,7.21,0,0,0-.16,1.06,3.44,3.44,0,0,1,0,.45c-.06.2-.13.4-.2.59s-.2.55-.28.83-.15.51-.22.75-.15.48-.21.72a3.7,3.7,0,0,1-.2.52c-.12.3-.23.6-.32.91s-.14.44-.21.66-.18.51-.25.76-.15.63-.21.94-.07.37-.12.55a8.3,8.3,0,0,0-.22,1,4.52,4.52,0,0,1-.11.53l-.42,1.45c-.06.17-.13.33-.2.49a7,7,0,0,0-.36.92c-.06.22-.14.42-.21.62s-.2.55-.29.82-.13.41-.2.59-.22.58-.3.86a5.54,5.54,0,0,0-.19,1.2A2,2,0,0,1,210.54,295.75Z" style="fill: #1d1d1b"/>
  </g>
</svg>
