<svg xmlns="http://www.w3.org/2000/svg" viewBox="0 0 500 500">
  <title>instrument</title>
  <g>
    <path d="M368.94,226.93l-97.08-96.74a9.42,9.42,0,0,0-13.34,0l-12.89,12.88-.48-.18a10.1,10.1,0,0,0-1.36-.16,11.94,11.94,0,0,0-1.29-.39,10.18,10.18,0,0,0-1.35.07,8.79,8.79,0,0,0-1.31.29,9.68,9.68,0,0,0-1.29.31,11.26,11.26,0,0,0-1.27.45,10.48,10.48,0,0,0-1.17.68,11,11,0,0,0-.92,1,12.49,12.49,0,0,0-1,.9,10.45,10.45,0,0,0-.71,1.15,10.23,10.23,0,0,0-.56,1.21,9.72,9.72,0,0,0-.6,1.21,8.83,8.83,0,0,0,0,1.36c-.06.45-.38.88-.37,1.32a10.09,10.09,0,0,0,.21,1.34,10,10,0,0,0,.34,1.3,5.12,5.12,0,0,0,.41.85l-7.9,7.91-.23-.07a4.71,4.71,0,0,0-3.48-.7,9.06,9.06,0,0,0-1.79.18c-.59.14-1.32-.1-1.89.15s-.85,1-1.36,1.33-1.26.38-1.7.82a10.5,10.5,0,0,0-1.95,3.16,9.11,9.11,0,0,0-.36,1.8,8.41,8.41,0,0,0-.31,1.78,9.91,9.91,0,0,0-.16,1.87,9.59,9.59,0,0,0,.81,1.68l.12.29-7.59,7.6a4.42,4.42,0,0,0-.63-.27,8.37,8.37,0,0,0-1.26-.48,10.14,10.14,0,0,0-1.35,0,8.46,8.46,0,0,0-1.33,0,9.61,9.61,0,0,0-1.29.29,11.86,11.86,0,0,0-1.35.19,9.81,9.81,0,0,0-1.15.7,10.39,10.39,0,0,0-1.18.65c-.35.27-.53.73-.85,1a11.77,11.77,0,0,0-.91,1c-.27.36-.72.6-.94,1a10.28,10.28,0,0,0-.35,1.32,9,9,0,0,0-.59,1.21,8.72,8.72,0,0,0-.15,1.34,10.47,10.47,0,0,0-.2,1.35,9.72,9.72,0,0,0,.3,1.32,8.83,8.83,0,0,0,.22,1.35,3,3,0,0,0,.36.65l-7.59,7.59a2.39,2.39,0,0,0-.62-.36,11.43,11.43,0,0,0-1.32-.27,9.74,9.74,0,0,0-1.32-.31,8.8,8.8,0,0,0-1.34.18,8.8,8.8,0,0,0-1.36.09,8.53,8.53,0,0,0-1.23.57,9.58,9.58,0,0,0-1.21.58,11.3,11.3,0,0,0-1.19.63,10.92,10.92,0,0,0-.91,1,8.16,8.16,0,0,0-.86,1,9.05,9.05,0,0,0-.78,1.09,9.2,9.2,0,0,0-.72,1.15,8.35,8.35,0,0,0-.32,1.31,8.78,8.78,0,0,0-.22,1.33,10.35,10.35,0,0,0-.16,1.35,10.2,10.2,0,0,0,.19,1.35,8.67,8.67,0,0,0,.39,1.29,2.63,2.63,0,0,0,.36.63l-15,15c-.26.1-.52.21-.79.29-.51.17-1.1.14-1.61.35s-.92.6-1.41.84-1.11.24-1.58.51-.87.69-1.33,1-.88.63-1.32,1-.79.75-1.21,1.11-.84.68-1.23,1.07-.77.78-1.13,1.19-.73.81-1.06,1.24-.73.84-1,1.29-.44,1-.7,1.49-.76.84-1,1.33-.37,1-.58,1.55-.29,1.06-.46,1.57c-.1.31-.18.61-.26.92l-10.22,10.22a9.43,9.43,0,0,0,0,13.33l97.21,97.07a9.42,9.42,0,0,0,13.34,0l128-128.46A9.43,9.43,0,0,0,368.94,226.93Z" style="fill: #7e7d7e"/>
    <path d="M247.12,206.86a.28.28,0,0,1,0,.09,1.34,1.34,0,0,1,.29,1c0,.39-.07.76-.12,1.13a5.22,5.22,0,0,1-.74,2.94,1.11,1.11,0,0,1-.13.27c-.33.52-.6.93-.89,1.33a11.8,11.8,0,0,1-3.71,3.76c-4.69,2.91-9.65-.77-13.19-4.57a10.07,10.07,0,0,1-3.59-3.26,1.09,1.09,0,0,1-.17-.45,2.46,2.46,0,0,1-.25-.45,1.32,1.32,0,0,1,.5-1.62c1.8-1.06,4-.8,5.89-1.63,4-1.72,4.2-4.8,5.31-8.44a1.58,1.58,0,0,1,2.42-.91,7.86,7.86,0,0,1,.73.69,1.22,1.22,0,0,1,.66.43c.59.75,1.2,1.47,1.82,2.19a11.73,11.73,0,0,1,3.77,4.22,5.46,5.46,0,0,1,1.36,2.8C247.11,206.51,247.11,206.68,247.12,206.86ZM219.5,183.68a1.33,1.33,0,0,0,.17.45,10,10,0,0,0,3.6,3.25c.3.33.63.65.95,1h0c2.63-.31,5.59-.23,8,1.16a15.56,15.56,0,0,1,3.46,2.87,7.44,7.44,0,0,0,.79-.41,11.9,11.9,0,0,0,3.71-3.76c.28-.41.56-.82.89-1.33a1.66,1.66,0,0,0,.13-.27,5.69,5.69,0,0,0,.58-1.41c-3.54-2-5.82-6.57-4.11-10.43a10,10,0,0,0-1.08-.83c-.61-.72-1.23-1.44-1.82-2.18a1.23,1.23,0,0,0-.65-.43,6.8,6.8,0,0,0-.74-.69,1.56,1.56,0,0,0-2.41.9c-1.12,3.64-1.32,6.73-5.32,8.45-1.91.82-4.09.57-5.89,1.63a1.33,1.33,0,0,0-.5,1.61A4,4,0,0,0,219.5,183.68Zm20.13-20.38a1.09,1.09,0,0,0,.17.45,10.07,10.07,0,0,0,3.59,3.26c.4.42.82.85,1.25,1.26.31,0,.63,0,.94,0a9,9,0,0,1,3.09.46,7.55,7.55,0,0,1,2.79,1.06c.22.15.42.3.62.46a10.33,10.33,0,0,1,2.65,2.16,6.65,6.65,0,0,0,1.85-.81,11.8,11.8,0,0,0,3.71-3.76c.29-.4.56-.81.89-1.33a1.11,1.11,0,0,0,.13-.27,2.29,2.29,0,0,0,.16-.31c-3-2.54-4.31-7.3-3.45-11.31a10.14,10.14,0,0,0-1.31-1c-.62-.72-1.23-1.44-1.82-2.19a1.22,1.22,0,0,0-.66-.43,7.86,7.86,0,0,0-.73-.69,1.58,1.58,0,0,0-2.42.91c-1.11,3.64-1.32,6.72-5.31,8.44-1.92.83-4.09.57-5.89,1.63a1.32,1.32,0,0,0-.5,1.62A2.46,2.46,0,0,0,239.63,163.3ZM265,168.93a1.33,1.33,0,0,0,.17.45,10,10,0,0,0,3.6,3.25c3.53,3.81,8.49,7.48,13.19,4.58a11.9,11.9,0,0,0,3.71-3.76c.28-.41.56-.82.89-1.33a1.66,1.66,0,0,0,.13-.27,5.26,5.26,0,0,0,.73-2.95,9.79,9.79,0,0,0,.12-1.13,1.35,1.35,0,0,0-.28-1,.28.28,0,0,1,0-.09c0-.17,0-.35,0-.52a5.34,5.34,0,0,0-1.36-2.81,11.64,11.64,0,0,0-3.77-4.22c-.61-.72-1.23-1.44-1.82-2.18a1.23,1.23,0,0,0-.65-.43,6.8,6.8,0,0,0-.74-.69,1.56,1.56,0,0,0-2.41.9c-1.12,3.64-1.32,6.73-5.32,8.45-1.91.82-4.09.57-5.89,1.63a1.33,1.33,0,0,0-.5,1.61A4,4,0,0,0,265,168.93Zm-5.52,8a7.86,7.86,0,0,0-.73-.69,1.58,1.58,0,0,0-2.42.91c-1.11,3.64-1.32,6.72-5.31,8.44-1.92.83-4.09.57-5.89,1.63a1.32,1.32,0,0,0-.5,1.62,2.46,2.46,0,0,0,.25.45,1.09,1.09,0,0,0,.17.45,10.07,10.07,0,0,0,3.59,3.26c3.54,3.8,8.5,7.48,13.19,4.57a11.8,11.8,0,0,0,3.71-3.76c.29-.4.56-.81.89-1.33a1.11,1.11,0,0,0,.13-.27,5.22,5.22,0,0,0,.74-2.94c.05-.37.09-.74.12-1.13a1.34,1.34,0,0,0-.29-1,.28.28,0,0,0,0-.09c0-.18,0-.35,0-.53a5.46,5.46,0,0,0-1.36-2.8,11.73,11.73,0,0,0-3.77-4.22c-.62-.72-1.23-1.44-1.82-2.19A1.22,1.22,0,0,0,259.48,176.94ZM208.87,208a12.06,12.06,0,0,1,6.39,4.27,7.32,7.32,0,0,0,1.2-.58,11.9,11.9,0,0,0,3.71-3.76c.28-.41.56-.82.89-1.33a1.66,1.66,0,0,0,.13-.27c.1-.18.18-.35.26-.53a6.45,6.45,0,0,1-1.9-1.48,10,10,0,0,1-1.46-9.42,10.18,10.18,0,0,0-1.51-1.24c-.61-.72-1.23-1.44-1.82-2.18a1.23,1.23,0,0,0-.65-.43,6.8,6.8,0,0,0-.74-.69,1.56,1.56,0,0,0-2.41.9c-1.12,3.64-1.32,6.73-5.32,8.45-1.91.82-4.09.57-5.89,1.63a1.33,1.33,0,0,0-.5,1.61,4,4,0,0,0,.25.46,1.33,1.33,0,0,0,.17.45,10,10,0,0,0,3.6,3.25c.3.33.62.65.94,1A9,9,0,0,1,208.87,208Zm-18.2,46.69c-.06-.44-.23-.87-.32-1.31s0-.92-.15-1.35-.29-.86-.44-1.28-.36-.83-.54-1.24-.44-.78-.65-1.18-.44-.78-.68-1.16-.4-.81-.67-1.17-.5-.76-.79-1.1-.61-.68-.93-1l-2,2a2.4,2.4,0,0,1,.28,1.19c-.35,8.27-2.88,15.68-9.06,21.41-5,4.63-12.65,7.4-19.34,5.53l-2.08,2.08c.32.32.7.56,1,.86s.6.69,1,1,.82.4,1.2.64.68.62,1.08.83.84.36,1.25.54.85.27,1.28.42.87.22,1.3.34.86.28,1.3.37.88.11,1.33.17.87.29,1.32.33.91-.05,1.36-.05.89-.11,1.34-.14.92.17,1.36.11.86-.33,1.31-.41.86-.2,1.3-.3.88-.18,1.31-.32.9-.14,1.32-.3.84-.33,1.25-.51.79-.44,1.19-.65.79-.42,1.18-.64.73-.52,1.11-.77.87-.31,1.23-.58.73-.53,1.08-.82.72-.55,1.05-.86.66-.62,1-.94.61-.67.91-1,.49-.77.77-1.12.52-.73.78-1.1.5-.74.74-1.12.58-.7.81-1.09.4-.8.6-1.2.51-.76.68-1.17.15-.91.31-1.33.41-.81.54-1.24.29-.86.39-1.29.07-.91.15-1.35.15-.88.2-1.33.1-.89.12-1.33.2-.9.19-1.35-.2-.89-.23-1.34S190.73,255.16,190.67,254.71Zm174.72-31s.72,6-2,8.72S235.55,360.87,233.12,363.19s-11.35,1.07-5.52,5.53c4.47,3.43,9.65,3.69,13.34,0l128-128.46C372.62,236.58,372.87,228.41,365.39,223.76Zm-139.33,8.61a5.27,5.27,0,0,0,.74-3c0-.36.09-.74.12-1.13a1.34,1.34,0,0,0-.29-.95.28.28,0,0,0,0-.09c0-.18,0-.35,0-.53a5.5,5.5,0,0,0-1.36-2.8,11.73,11.73,0,0,0-3.77-4.22c-.62-.72-1.23-1.44-1.82-2.19a1.27,1.27,0,0,0-.66-.43,7.86,7.86,0,0,0-.73-.69,1.58,1.58,0,0,0-2.42.91c-1.11,3.64-1.32,6.72-5.31,8.44-1.92.83-4.09.57-5.89,1.64a1.3,1.3,0,0,0-.5,1.61,2.94,2.94,0,0,0,.25.46,1.05,1.05,0,0,0,.17.44,9.89,9.89,0,0,0,3.59,3.26c3.54,3.8,8.5,7.48,13.19,4.57A11.7,11.7,0,0,0,225,234c.29-.4.56-.81.89-1.33A1.26,1.26,0,0,0,226.06,232.37Zm-28.93-17a2.2,2.2,0,0,1,.13-.36,9.42,9.42,0,0,0-1.18-.9c-.61-.72-1.23-1.45-1.82-2.19a1.23,1.23,0,0,0-.65-.43,6.8,6.8,0,0,0-.74-.69,1.56,1.56,0,0,0-2.41.9c-1.12,3.64-1.32,6.73-5.32,8.45-1.91.82-4.09.57-5.89,1.63a1.33,1.33,0,0,0-.5,1.61,4,4,0,0,0,.25.46,1.33,1.33,0,0,0,.17.45,10,10,0,0,0,3.6,3.25c3.53,3.81,8.49,7.49,13.19,4.58a11.9,11.9,0,0,0,3.71-3.76c.28-.41.56-.82.89-1.33a1.66,1.66,0,0,0,.13-.27l.05-.11C197.61,225.09,196.25,219.09,197.13,215.34Z" style="fill: #c4c4c6"/>
    <rect x="201.9" y="281.99" width="171.38" height="8.21" transform="translate(-118.07 287.31) rotate(-45.02)" style="fill: #ffd400"/>
    <rect x="208.7" y="256.43" width="33.43" height="32.66" transform="translate(-126.84 239.28) rotate(-45)" style="fill: #ffd400"/>
    <rect x="232.83" y="232.14" width="33.43" height="32.66" transform="translate(-102.61 249.23) rotate(-45)" style="fill: #fff381"/>
    <rect x="234.94" y="278.72" width="33.43" height="41.34" transform="translate(-137.99 265.63) rotate(-45)" style="fill: #ee7d00"/>
    <rect x="183.43" y="281.24" width="33.43" height="32.66" transform="translate(-151.79 228.67) rotate(-45)" style="fill: #fff381"/>
    <rect x="259.67" y="253.83" width="33.43" height="41.2" transform="translate(-113.1 275.81) rotate(-45)" style="fill: #e20613"/>
    <rect x="280.78" y="230.79" width="33.43" height="32.66" transform="translate(-87.61 282.73) rotate(-45)" style="fill: #fff381"/>
    <rect x="305.12" y="206" width="33.43" height="32.66" transform="translate(-62.95 292.68) rotate(-45)" style="fill: #ffd400"/>
    <rect x="206.79" y="304.61" width="33.43" height="32.66" transform="translate(-161.47 252.04) rotate(-45)" style="fill: #fff381"/>
    <rect x="257.2" y="207.43" width="33.43" height="32.66" transform="translate(-77.99 259.22) rotate(-45)" style="fill: #ffd400"/>
    <rect x="281.33" y="183.14" width="33.43" height="32.66" transform="translate(-53.76 269.17) rotate(-45)" style="fill: #009f46"/>
    <path d="M230.4,352.51a1.5,1.5,0,0,0,.2-.24l3.2-3.2c.82-.82,1.25-1.21,1.68-1.6s.93-.85,1.82-1.74,1.3-1.33,1.72-1.78.8-.86,1.63-1.69,1.3-1.31,1.73-1.75.83-.85,1.67-1.68,1.29-1.31,1.72-1.76.81-.85,1.65-1.69,1.28-1.29,1.71-1.72l1.68-1.7c.82-.81,1.23-1.18,1.67-1.58s1-.84,1.84-1.73,1.28-1.3,1.71-1.73l1.68-1.7,1.71-1.72c.42-.43.83-.86,1.68-1.71l1.71-1.72,1.69-1.7c.82-.81,1.25-1.2,1.68-1.59s.93-.84,1.82-1.73a23.38,23.38,0,0,0,1.75-1.91c.37-.44.72-.86,1.5-1.65s1.27-1.25,1.7-1.67l1.74-1.72c.83-.83,1.25-1.23,1.68-1.64s.89-.85,1.76-1.72c.45-.44.77-.77,1-1.05a1.76,1.76,0,0,0,.3-.24,2.33,2.33,0,0,0,.28-.36l.1-.11c.41-.43.81-.86,1.65-1.69s1.26-1.24,1.68-1.64.9-.85,1.77-1.72,1.22-1.18,1.66-1.57.95-.85,1.84-1.74l3.41-3.41c.87-.86,1.29-1.3,1.72-1.74s.82-.86,1.66-1.7l3.42-3.4c.88-.88,1.3-1.35,1.73-1.81s.78-.86,1.6-1.67,1.24-1.27,1.64-1.7a2.2,2.2,0,0,0,.4-.3,1.88,1.88,0,0,0,.35-.5l.95-1a17.47,17.47,0,0,1,1.65-1.49,24.53,24.53,0,0,0,1.93-1.75,24.86,24.86,0,0,0,1.75-1.92,21.83,21.83,0,0,1,1.5-1.64c.81-.81,1.22-1.17,1.66-1.56s1-.84,1.86-1.73l3.41-3.41c.9-.9,1.32-1.38,1.74-1.84s.76-.86,1.57-1.67l1.7-1.68,1.73-1.71c.81-.81,1.22-1.18,1.66-1.57s.95-.84,1.84-1.73,1.33-1.39,1.74-1.86.75-.86,1.56-1.66l1.71-1.72,1.69-1.7c.8-.8,1.22-1.16,1.66-1.55s1-.84,1.86-1.74,1.3-1.34,1.72-1.8.79-.85,1.61-1.67,1.3-1.34,1.72-1.79.8-.86,1.63-1.68,1.28-1.27,1.71-1.7l1.71-1.69c.81-.81,1.23-1.18,1.67-1.57s.95-.84,1.84-1.73a2.17,2.17,0,0,0,0-3l-.3-.32c-.12-.14-.24-.28-.5-.54l-.46-.44-.37-.36a4.78,4.78,0,0,0-.68-.59l-.21-.17-.37-.38-.44-.46-.48-.46c-.09-.08-.19-.17-.36-.35a2.11,2.11,0,0,1-.23-.25,5.54,5.54,0,0,0-.55-.62l-.46-.45-.38-.36a2.91,2.91,0,0,0-.25-.25l0-.07-.1-.08,0,0-.39-.38c-.17-.17-.26-.27-.34-.36s-.23-.25-.47-.48l-.23-.26a4,4,0,0,0-.54-.61l-.83-.83a4.35,4.35,0,0,0-.82-.65l-.09-.07c-.17-.17-.25-.26-.33-.35s-.23-.25-.47-.49a1.76,1.76,0,0,1-.21-.24,4.85,4.85,0,0,0-.56-.63c-.22-.23-.33-.33-.45-.44l-.38-.37-.34-.36c-.11-.12-.22-.25-.46-.48l-.47-.45-.37-.36a4.85,4.85,0,0,0-.65-.57l-.23-.19c-.18-.18-.26-.27-.34-.36s-.23-.25-.46-.48-.22-.23-.29-.31-.24-.28-.5-.54-.4-.38-.54-.5-.17-.14-.32-.29a3.42,3.42,0,0,1-.25-.29,6.51,6.51,0,0,0-.53-.58l-.46-.45-.37-.36a5.58,5.58,0,0,0-.65-.57,1.12,1.12,0,0,1-.24-.2c-.14-.14-.2-.22-.27-.3s-.24-.29-.52-.57l-.46-.44-.37-.36a2.74,2.74,0,0,1-.22-.25,6.88,6.88,0,0,0-1.21-1.2,1.58,1.58,0,0,1-.23-.2c-.12-.12-.17-.18-.23-.25a5.08,5.08,0,0,0-.54-.62l-.44-.43-.4-.39c-.24-.25-.68-.63-.84-.79s-.24-.25-.31-.33-.24-.27-.49-.53-.28-.27-.37-.37l-.44-.46-.83-.82c-.22-.23-.34-.33-.45-.44l-.39-.38-.82-.84a7.91,7.91,0,0,0-.63-.55,1.72,1.72,0,0,1-.25-.21l-.13-.16a5.31,5.31,0,0,0-1.36-1.37.53.53,0,0,1-.16-.13c-.18-.17-.26-.27-.35-.36s-.22-.24-.46-.48-.16-.18-.22-.24a4.43,4.43,0,0,0-.55-.64c-.27-.27-.41-.39-.55-.51l-.31-.29c-.25-.25-.39-.36-.52-.48l-.34-.32a3.18,3.18,0,0,1-.29-.32c-.12-.14-.24-.27-.5-.53a5.4,5.4,0,0,0-.62-.55,3.31,3.31,0,0,1-.26-.23,1.73,1.73,0,0,1-.17-.21,7.45,7.45,0,0,0-.59-.69l-1.65-1.65-.36-.38-.45-.46a6.8,6.8,0,0,0-.59-.54,2.42,2.42,0,0,1-.28-.25l-.53-.49-.33-.31c-.14-.14-.2-.22-.27-.29a5.93,5.93,0,0,0-.51-.57,8.24,8.24,0,0,0-.62-.55,2,2,0,0,1-.26-.23l-.09-.11a4,4,0,0,0-.65-.81c-.25-.25-.39-.37-.53-.49l-.32-.3-.83-.84c-.16-.16-.23-.24-.31-.33s-.24-.27-.49-.52a4.29,4.29,0,0,0-.94-.73l-.08-.11a4.7,4.7,0,0,0-.65-.81,5.16,5.16,0,0,0-.55-.51l-.31-.28a3.83,3.83,0,0,1-.28-.32c-.13-.14-.25-.29-.51-.55s-.44-.41-.59-.54l-.29-.25c-.26-.26-.39-.38-.53-.5l-.33-.31c-.18-.18-.26-.27-.34-.36s-.23-.25-.48-.5l-.07-.06-.09-.1a2,2,0,0,0-2.83,0l-.52.53-.46.47-1,1a1.36,1.36,0,0,1-.27.22,5.32,5.32,0,0,0-.82.68,5.16,5.16,0,0,1-.41.38c-.16.14-.32.28-.62.58a5.91,5.91,0,0,0-.67.78,1.59,1.59,0,0,1-.25.3c-.22.22-.33.32-.44.42s-.3.27-.58.55-.34.33-.46.44l-.56.54a8.15,8.15,0,0,0-.61.68c-.08.1-.16.19-.33.37a1.1,1.1,0,0,1-.25.2,5.51,5.51,0,0,0-.85.7,4.1,4.1,0,0,0-.77,1l-.08.1-.12.09a4.26,4.26,0,0,0-1,.77,4.74,4.74,0,0,0-.84,1.15.88.88,0,0,1-.21.18,4.36,4.36,0,0,0-.89.71l-1,1a4.44,4.44,0,0,1-.38.35c-.17.14-.34.29-.66.6a4.68,4.68,0,0,0-.74,1,.4.4,0,0,1-.13.16l-1,1a2,2,0,0,1-.33.28,6.91,6.91,0,0,0-.73.64c-.28.28-.41.43-.55.58s-.2.22-.42.44-.41.41-.54.56l-.44.45a1.06,1.06,0,0,1-.24.19,5.49,5.49,0,0,0-.86.7c-.3.31-.44.47-.58.64s-.18.21-.37.4l-.53.53-.46.47a7.22,7.22,0,0,0-.64.74,2.74,2.74,0,0,1-.28.33,2,2,0,0,1-.33.28,6.78,6.78,0,0,0-.74.64c-.21.22-.32.32-.43.42l-.59.55a7.49,7.49,0,0,0-.57.62c-.1.11-.19.21-.39.41a2.65,2.65,0,0,1-.36.32,8.24,8.24,0,0,0-.69.62,4.24,4.24,0,0,0-.76,1l-.23.23a4.12,4.12,0,0,0-1,.75,5.27,5.27,0,0,0-.67.81,2.64,2.64,0,0,1-.23.28c-.29.28-.42.43-.56.58s-.2.22-.42.44-.41.41-.54.56-.21.23-.44.45l-.09.07a4,4,0,0,0-1.06.78,4,4,0,0,0-.74,1,.59.59,0,0,1-.13.17l-.54.56c-.11.11-.21.23-.44.45a.93.93,0,0,1-.25.21,5.72,5.72,0,0,0-1.53,1.52,1.77,1.77,0,0,1-.22.26,3.11,3.11,0,0,1-.37.34,7.93,7.93,0,0,0-.68.61c-.23.24-.35.35-.48.47l-.52.52c-.22.22-.34.32-.45.42l-.57.55a5.51,5.51,0,0,0-.7.85,1.1,1.1,0,0,1-.2.25l-1,1-.44.41c-.15.14-.3.27-.58.56l-.48.46-.52.52-1,1a3.11,3.11,0,0,1-.28.24,5.29,5.29,0,0,0-.8.67,4.75,4.75,0,0,0-.71.89,1.63,1.63,0,0,1-.17.22l-.46.43-.56.54c-.27.27-.4.41-.53.55s-.22.24-.45.46-.41.42-.54.56l-.44.46-.47.46-.54.52c-.19.19-.3.28-.4.37a7.81,7.81,0,0,0-.65.59,6.67,6.67,0,0,0-.63.72,3.53,3.53,0,0,1-.31.34c-.16.16-.25.23-.34.31a5.12,5.12,0,0,0-.71.63c-.29.28-.42.43-.56.58s-.2.22-.42.44a.48.48,0,0,1-.16.12,4.46,4.46,0,0,0-1,.75,4.22,4.22,0,0,0-.76,1l-.09.13a.65.65,0,0,1-.21.16,4.89,4.89,0,0,0-.9.72,5.47,5.47,0,0,1-.42.39c-.16.14-.32.28-.61.58s-.44.45-.58.61a4,4,0,0,1-.39.42l-1,1a4,4,0,0,0-.76,1l-.22.22a4,4,0,0,0-1,.76,6.81,6.81,0,0,0-.61.67,4.44,4.44,0,0,1-.35.38,5,5,0,0,0-.63.73c-.07.08-.14.17-.3.33a.58.58,0,0,1-.19.15,4.28,4.28,0,0,0-.93.73l-1,1a6.49,6.49,0,0,0-.65.75,2.58,2.58,0,0,1-.28.33,7,7,0,0,0-.63.71,3.13,3.13,0,0,1-.3.34,1.17,1.17,0,0,1-.27.23,5.32,5.32,0,0,0-.82.68,5.61,5.61,0,0,0-.69.83,1.77,1.77,0,0,1-.22.26l-1,1a1,1,0,0,1-.2.16,4.79,4.79,0,0,0-.91.72c-.27.27-.4.41-.53.55s-.22.24-.45.47l-.52.52-.47.48a4.82,4.82,0,0,0-.69.85.88.88,0,0,1-.2.24,3.51,3.51,0,0,1-.39.36c-.16.14-.33.28-.64.59l-.48.47c-.13.13-.27.25-.53.52a3.31,3.31,0,0,1-.4.36c-.16.14-.33.28-.64.59s-.43.46-.57.62-.19.21-.39.41a1.56,1.56,0,0,1-.28.24,4.9,4.9,0,0,0-.8.68,5.84,5.84,0,0,0-.65.74,2.58,2.58,0,0,1-.28.33l-.44.41c-.15.14-.3.27-.59.56a5.16,5.16,0,0,1-.41.38c-.16.14-.32.28-.63.58a4.25,4.25,0,0,0-.76,1l-.09.11-.08.06a4.17,4.17,0,0,0-1.08.78,7.4,7.4,0,0,0-.65.77,3.22,3.22,0,0,1-.26.31l-1,1a7.06,7.06,0,0,0-.64.72,2.79,2.79,0,0,1-.29.34c-.21.21-.32.3-.43.4s-.31.27-.6.57-.31.29-.42.39a7.81,7.81,0,0,0-.61.57c-.31.31-.45.47-.59.63s-.18.21-.37.41l-.16.12a4.24,4.24,0,0,0-1,.75,5.87,5.87,0,0,0-.67.79,1.7,1.7,0,0,1-.25.29l-.47.46-.54.53-1,1a8.15,8.15,0,0,0-.61.68,2.83,2.83,0,0,1-.33.37l-.44.42-.59.55c-.31.32-.45.49-.59.65a4.5,4.5,0,0,1-.36.4c-.28.27-.41.41-.54.56l-.45.46-.15.11a4.63,4.63,0,0,0-1,.75c-.28.28-.41.43-.54.57l-.44.45a6,6,0,0,0-.68.82,1.43,1.43,0,0,1-.23.27,1.91,1.91,0,0,1-.31.27,6.65,6.65,0,0,0-.76.66c-.29.28-.42.43-.56.58s-.21.23-.42.45-.45.47-.6.64a4.31,4.31,0,0,1-.36.4,1.55,1.55,0,0,1-.25.21,4.48,4.48,0,0,0-.85.69c-.21.21-.32.31-.44.41l-.59.57c-.3.29-.43.45-.57.6s-.19.22-.4.43a5,5,0,0,0-.69.83,2.37,2.37,0,0,1-.21.26.83.83,0,0,1-.18.13,4.41,4.41,0,0,0-.95.74L185,286c-.11.12-.23.25-.46.48a8.21,8.21,0,0,0-.61.67,4,4,0,0,1-.34.38l-2,2-.47.45-.56.54a5.29,5.29,0,0,0-.67.8,2.66,2.66,0,0,1-.24.29,1.4,1.4,0,0,1-.29.23,5.47,5.47,0,0,0-.8.68c-.3.3-.44.46-.58.62s-.19.22-.39.42a5.85,5.85,0,0,0-.66.77,3.84,3.84,0,0,1-.27.32,1,1,0,0,1-.23.18,4.48,4.48,0,0,0-.89.72,4.92,4.92,0,0,0-.73.92.83.83,0,0,1-.16.21,2,2,0,0,0-.4,2.24,2,2,0,0,0,.47.76,4.42,4.42,0,0,0,.93.72l.08.11a4.7,4.7,0,0,0,.65.81c.26.26.4.38.54.51a1.7,1.7,0,0,1,.31.28c.15.15.22.23.29.31s.24.29.5.55a6.47,6.47,0,0,0,.59.53,3.71,3.71,0,0,1,.28.25c.25.25.39.37.52.49l.33.31c.17.17.25.26.33.35s.23.25.47.49.25.26.33.35a6.22,6.22,0,0,0,.48.5l.36.38.45.46a5.11,5.11,0,0,0,.6.53l.27.25.34.36.46.48c.15.15.22.23.29.31s.24.28.5.54a4.53,4.53,0,0,0,.78.63.49.49,0,0,1,.13.1l.38.39.44.44.08.11a4.54,4.54,0,0,0,.64.81c.27.26.41.38.56.51l.3.27c.23.24.36.35.48.46l.36.34c.24.24.36.36.49.47l.35.33.33.35c.11.13.23.25.47.49l.82.83a2.68,2.68,0,0,1,.21.24,5.51,5.51,0,0,0,.56.64,6.75,6.75,0,0,0,.6.54l.27.23.34.36c.11.12.22.25.46.49a2.53,2.53,0,0,1,.3.32c.12.14.24.27.5.53a4.7,4.7,0,0,0,.81.65l.11.08c.23.24.35.35.47.46l.37.35,1.43,1.45a1.63,1.63,0,0,0,.36.51l.13.11a4.36,4.36,0,0,0,.44.51,6.84,6.84,0,0,0,.61.55,2,2,0,0,1,.26.23,5.51,5.51,0,0,0,.64.56,2.68,2.68,0,0,1,.24.21.8.8,0,0,1,.14.17,3.92,3.92,0,0,0,.61.73l.35.36a5.78,5.78,0,0,0,.46.48,4.26,4.26,0,0,0,.66.57,1.64,1.64,0,0,1,.22.2l.44.43.4.39.36.37c.11.12.22.24.45.47a2,2,0,0,1,.23.26,6.43,6.43,0,0,0,.55.62c.25.25.39.37.52.48l.33.31.82.82c.14.14.21.22.27.29a6.51,6.51,0,0,0,.53.58l.44.44.39.37.46.45.38.37a5.3,5.3,0,0,0,.68.58,1,1,0,0,1,.21.19,2.86,2.86,0,0,1,.27.29,6.41,6.41,0,0,0,.52.57l.34.35c.11.13.23.25.47.5s.41.38.55.51a2.81,2.81,0,0,1,.31.28,6.41,6.41,0,0,0,.57.52,2.72,2.72,0,0,1,.3.27,1.26,1.26,0,0,1,.18.21,5.3,5.3,0,0,0,.58.68c.24.24.36.35.49.46s.18.17.35.35l.5.47a4.78,4.78,0,0,1,.35.34,1.91,1.91,0,0,1,.22.24,6.44,6.44,0,0,0,.55.63,4.62,4.62,0,0,0,.7.59,1.83,1.83,0,0,1,.2.17l.32.34c.11.13.23.26.48.51l.44.44.4.38.24.27a4.55,4.55,0,0,0,.54.6c.18.18.26.28.35.37s.22.24.46.48a5.51,5.51,0,0,0,.64.56l0,0a.1.1,0,0,0,0,.05c.06.06.12.1.18.15a2.63,2.63,0,0,1,.2.23,5.51,5.51,0,0,0,.56.64,6.35,6.35,0,0,0,.61.54,3.37,3.37,0,0,1,.27.24,1.83,1.83,0,0,1,.22.25,6.44,6.44,0,0,0,.55.63c.27.26.41.39.56.51l.31.28a3.71,3.71,0,0,1,.25.28,4.55,4.55,0,0,0,.54.6l.83.84a7.91,7.91,0,0,0,.63.55,2.91,2.91,0,0,1,.23.2h0l0,0a2,2,0,0,0,2.82,0Zm43.21-48.95c-.44.43-.89.85-1.75,1.72L270.15,307l-1.72,1.7a25.21,25.21,0,0,0-1.75,1.91,20.12,20.12,0,0,1-1.51,1.65c-.81.82-1.24,1.2-1.67,1.59s-.94.84-1.83,1.73l-1.7,1.72-1.69,1.7c-.87.87-1.29,1.3-1.72,1.74l-1.67,1.69-1.31,1.32-.27-.24c-.4-.34-.78-.66-1.49-1.37l-1.58-1.59a6,6,0,0,1,.62-.55,10.22,10.22,0,0,0,1-.92,9.26,9.26,0,0,0,1-1.12,3.65,3.65,0,0,1,.54-.63c.38-.39.58-.58.78-.76s.43-.41.86-.84.63-.64.83-.85.38-.4.77-.79.62-.63.83-.85l.77-.79.79-.77c.21-.21.43-.41.84-.83s.55-.53.74-.7.48-.42.93-.87a11.53,11.53,0,0,0,.9-1,10.92,10.92,0,0,1,1.36-1.36,10.16,10.16,0,0,0,1-.9c.43-.42.64-.65.85-.87s.36-.39.75-.78a3.15,3.15,0,0,1,.6-.49,7.89,7.89,0,0,0,1.18-1,6.58,6.58,0,0,0,1-1.21,3,3,0,0,1,.47-.58,4.16,4.16,0,0,1,.63-.54,7.61,7.61,0,0,0,1.13-.95c.36-.36.55-.54.74-.71.37.35.76.71,1.48,1.44s1.13,1.14,1.5,1.53l.13.14C274.45,302.77,274,303.17,273.61,303.56Zm3-49.37c.75.75,1.11,1.13,1.47,1.52s.77.82,1.56,1.61,1.27,1.21,1.71,1.58.77.67,1.48,1.39l1.5,1.5,1.57,1.59c.72.72,1.05,1.09,1.4,1.49s.76.87,1.58,1.69,1.26,1.2,1.69,1.58.77.68,1.5,1.4,1.13,1.14,1.5,1.53l.18.19a18.38,18.38,0,0,0-1.22,1.39,16.23,16.23,0,0,1-2.62,2.62,17.15,17.15,0,0,0-1.74,1.54c-.76.76-1.13,1.15-1.5,1.53s-.7.74-1.41,1.45a13.94,13.94,0,0,0-1.57,1.84,9.2,9.2,0,0,1-1.15,1.35,7.75,7.75,0,0,1-1.33,1.1,11.67,11.67,0,0,0-1.89,1.57c-.76.75-1.13,1.14-1.49,1.52s-.71.74-1.43,1.46-1.13,1.15-1.5,1.55-.69.73-1.41,1.44a18.68,18.68,0,0,0-1.41,1.56l-.24-.25c-.38-.41-.76-.81-1.56-1.61s-1.2-1.17-1.6-1.56-.77-.73-1.52-1.48-1.05-1.09-1.39-1.49-.76-.88-1.58-1.7-1.2-1.17-1.61-1.55-.77-.72-1.52-1.47l-6.15-6.18c-.8-.79-1.22-1.18-1.63-1.56s-.77-.71-1.52-1.45l-.41-.42c.11-.1.24-.21.38-.35a5.76,5.76,0,0,0,.86-1.08,1.83,1.83,0,0,1,.3-.38,1.54,1.54,0,0,1,.38-.3,5.76,5.76,0,0,0,1.07-.86,5,5,0,0,0,.86-1.1,1.76,1.76,0,0,1,.28-.36,3.3,3.3,0,0,1,.46-.39,6.2,6.2,0,0,0,1-.81l1.3-1.3c.28-.28.43-.41.58-.54s.4-.35.77-.73a5.62,5.62,0,0,0,.84-1,2.6,2.6,0,0,1,.34-.41l1.31-1.31a5.51,5.51,0,0,1,.53-.48,9.75,9.75,0,0,0,.84-.76c.35-.35.52-.53.69-.71s.29-.31.6-.62l.68-.69c.15-.16.3-.32.61-.63a4.27,4.27,0,0,1,.46-.4,7.3,7.3,0,0,0,.95-.8c.37-.37.54-.57.71-.76s.27-.3.55-.59l.68-.68.62-.64a9.75,9.75,0,0,0,.76-.84,5.51,5.51,0,0,1,.48-.53,4.41,4.41,0,0,1,.53-.48,9.75,9.75,0,0,0,.84-.76l.46-.45.45.46c.8.79,1.21,1.18,1.62,1.56S275.84,253.44,276.58,254.19Zm-.73-6.3a7.46,7.46,0,0,0,.65-.61,5.44,5.44,0,0,0,.86-1.06,1.54,1.54,0,0,1,.3-.38,2.09,2.09,0,0,1,.4-.33,5.49,5.49,0,0,0,1-.84,9.52,9.52,0,0,0,.79-.89,3.53,3.53,0,0,1,.43-.5c.35-.35.52-.54.69-.72s.29-.31.59-.61.51-.52.68-.7l.6-.62a2.1,2.1,0,0,1,.37-.29,5.12,5.12,0,0,0,1.09-.86,5.19,5.19,0,0,0,.84-1,2.29,2.29,0,0,1,.34-.41c.35-.35.52-.53.69-.71l.6-.62a3.53,3.53,0,0,1,.48-.41,7.85,7.85,0,0,0,.93-.8,8.08,8.08,0,0,0,.79-.91,3.19,3.19,0,0,1,.41-.48c.28-.27.42-.4.57-.52s.41-.36.79-.74l.64-.62.68-.67c.3-.31.46-.45.62-.6l.71-.69a5.84,5.84,0,0,0,.8-.94,4.34,4.34,0,0,1,.41-.47l1.31-1.31c.3-.3.45-.45.61-.59l.72-.69.22-.23,3.62,3.61,1.54,1.55c.38.39.76.78,1.53,1.54s1.22,1.19,1.64,1.57.77.71,1.5,1.45,1.1,1.13,1.45,1.51.77.83,1.57,1.64l1.56,1.54c.39.37.78.74,1.54,1.51s1.21,1.18,1.63,1.56.77.71,1.51,1.46,1.08,1.12,1.43,1.51l.26.29-.62.59c-.73.74-1.1,1.1-1.47,1.46l-1.49,1.48-1.47,1.46c-.37.37-.75.73-1.49,1.48s-1.09,1.06-1.46,1.41-.78.74-1.54,1.49l-2.94,3a16,16,0,0,0-1.54,1.74,13.4,13.4,0,0,1-1.23,1.39c-.72.72-1.09,1.07-1.46,1.42s-.77.73-1.53,1.49l-1.46,1.44-1.5,1.48-.45.44-.22-.22c-.38-.4-.76-.8-1.55-1.58s-1.26-1.2-1.69-1.58-.76-.68-1.49-1.4-1.05-1.1-1.4-1.49-.76-.87-1.58-1.69L287.14,259c-.37-.38-.75-.77-1.51-1.52s-1.26-1.2-1.69-1.58-.78-.67-1.5-1.39-1.11-1.13-1.47-1.52-.76-.82-1.56-1.61-1.2-1.18-1.61-1.56-.77-.72-1.52-1.47Zm-23.8,30.83,6.15,6.17c.8.8,1.21,1.18,1.62,1.57s.77.72,1.51,1.46,1,1.1,1.39,1.49.76.88,1.58,1.7,1.19,1.17,1.6,1.56.77.73,1.52,1.48,1.11,1.13,1.48,1.52l.37.4c-.18.17-.4.37-.73.7a3.51,3.51,0,0,1-.63.53,8.59,8.59,0,0,0-1.13,1,7.22,7.22,0,0,0-1,1.22,3.18,3.18,0,0,1-.46.58,3.93,3.93,0,0,1-.6.49,6.7,6.7,0,0,0-1.18,1c-.43.44-.64.66-.85.89l-.74.76a8,8,0,0,1-.72.66,13.77,13.77,0,0,0-1.87,1.87,9.5,9.5,0,0,1-.65.71c-.37.36-.56.53-.75.7s-.48.42-.93.87-.58.58-.78.77l-.85.83-.84.87-.76.77c-.42.42-.62.64-.83.85s-.38.4-.77.79l-.78.76c-.22.21-.44.41-.86.84a7.17,7.17,0,0,0-.95,1.12,4.72,4.72,0,0,1-.54.63,6.59,6.59,0,0,1-.68.6,8.55,8.55,0,0,0-1,.87l-.23-.22-1.54-1.53c-.72-.72-1-1.09-1.38-1.49s-.76-.88-1.58-1.71-1.27-1.21-1.71-1.58-.77-.66-1.49-1.38-1.1-1.13-1.46-1.52-.77-.82-1.56-1.61-1.13-1.14-1.5-1.53-.77-.79-1.56-1.58-1.22-1.18-1.63-1.57-.77-.71-1.51-1.45-1.14-1.14-1.51-1.52-.77-.79-1.56-1.57l-.44-.44.11-.11a5.75,5.75,0,0,0,.81-1,3.25,3.25,0,0,1,.38-.45,1.68,1.68,0,0,1,.4-.32,6.07,6.07,0,0,0,1.05-.85l1.3-1.31a9.46,9.46,0,0,0,.75-.83c.12-.14.23-.28.49-.54l.59-.55c.19-.18.39-.35.76-.72l.62-.6.7-.69c.37-.37.54-.56.72-.76a7.7,7.7,0,0,1,.55-.58l.66-.68.63-.64c.37-.37.55-.56.72-.76a7.7,7.7,0,0,1,.55-.58c.34-.34.5-.51.67-.69l.62-.63.66-.67.63-.64,1.3-1.31a4,4,0,0,1,.49-.42,8.89,8.89,0,0,0,.91-.79c.28-.29.43-.42.59-.56s.38-.34.75-.71a9.45,9.45,0,0,0,.78-.88,5.5,5.5,0,0,1,.44-.51l.61-.58c.19-.17.37-.34.73-.7s.46-.46.62-.6l.11-.11.46.46c.79.79,1.21,1.18,1.63,1.56S251.31,278,252.05,278.72Zm47.11-.66c-.89.88-1.31,1.34-1.73,1.81s-.78.85-1.6,1.67l-3.42,3.4c-.86.87-1.29,1.31-1.71,1.75s-.83.85-1.67,1.69l-3.41,3.41c-.81.81-1.23,1.18-1.67,1.58s-.94.84-1.83,1.73l-1.69,1.65c-.45.42-.89.84-1.76,1.71l-.66.67,0,0c-.39-.41-.77-.81-1.56-1.6s-1.14-1.12-1.52-1.48c.05-.06.09-.12.14-.17a14.2,14.2,0,0,1,1.25-1.4c.76-.75,1.12-1.14,1.49-1.53s.7-.74,1.42-1.46,1.12-1.14,1.49-1.52.7-.74,1.42-1.46a8.05,8.05,0,0,1,1.33-1.1,11.63,11.63,0,0,0,1.9-1.57A12.4,12.4,0,0,0,286.9,284a9.88,9.88,0,0,1,1.15-1.35c.75-.75,1.12-1.13,1.48-1.51s.71-.74,1.44-1.47a13.7,13.7,0,0,1,1.38-1.23,17.15,17.15,0,0,0,1.74-1.54,17.34,17.34,0,0,0,1.54-1.73,12.53,12.53,0,0,1,.89-1l.06.06c.38.4.76.81,1.55,1.6s1.15,1.16,1.53,1.55l.11.11ZM323,254.19l-1.7,1.68-1.73,1.71c-.89.89-1.32,1.37-1.73,1.84s-.76.86-1.58,1.67l-3.4,3.41c-.81.8-1.22,1.16-1.67,1.55s-1,.84-1.86,1.74a24.76,24.76,0,0,0-1.74,1.91,21.94,21.94,0,0,1-1.51,1.65,21.19,21.19,0,0,1-1.64,1.49,23.4,23.4,0,0,0-1.9,1.71h0c-.39-.4-.78-.8-1.57-1.59s-1.11-1.13-1.47-1.52l-.06-.06.48-.47c.73-.73,1.09-1.09,1.46-1.44s.76-.74,1.5-1.49l1.45-1.41c.39-.37.78-.73,1.54-1.5a16.35,16.35,0,0,0,1.55-1.74,12.35,12.35,0,0,1,1.22-1.38l2.94-3c.72-.71,1.09-1.06,1.46-1.41s.78-.73,1.54-1.49l1.46-1.46c.38-.37.76-.73,1.5-1.48l1.47-1.46,1.49-1.48c.25-.25.45-.44.63-.6l.15.12c.39.35.77.69,1.5,1.42s1,1.09,1.37,1.49l.22.26C324,253.21,323.6,253.59,323,254.19Zm21-27.69c.68-.68,1-1,1.42-1.31l.18-.16h0a5.54,5.54,0,0,0,.55.62,5.78,5.78,0,0,0,.48.46l.36.35.37.38c.11.11.21.23.44.45a4.78,4.78,0,0,0,.68.59l.21.17.26.25-.32.29c-.47.41-.95.84-1.85,1.73L345.14,232l-1.74,1.73c-.88.88-1.31,1.33-1.73,1.79s-.79.85-1.62,1.68-1.3,1.34-1.72,1.8-.79.86-1.61,1.68-1.22,1.16-1.66,1.54-1,.84-1.86,1.74l-1.71,1.72-1.69,1.7c-.9.9-1.33,1.38-1.74,1.86-.23.27-.48.54-.8.89l-.07-.08c-.37-.44-.76-.9-1.59-1.73s-1.13-1.09-1.51-1.43c.5-.53.79-.91,1.06-1.25a9.5,9.5,0,0,1,1.2-1.38c.71-.71,1.08-1.06,1.45-1.41s.77-.74,1.53-1.5,1.13-1.14,1.5-1.52.7-.74,1.42-1.46,1.13-1.14,1.5-1.53.7-.73,1.43-1.45,1.09-1.09,1.46-1.44l1.51-1.49c.7-.7,1.07-1,1.44-1.37s.82-.73,1.59-1.51,1.17-1.22,1.53-1.64S343.34,227.19,344,226.5Zm-24.38-22.39L321,202.8a5.72,5.72,0,0,0,.85-1.06,2.33,2.33,0,0,1,.25-.32l.31.3.83.83.36.37c.11.12.22.24.45.46s.24.25.31.33.24.27.49.53.38.36.52.48l.33.31c.22.23.34.34.45.45s.2.18.38.37a1.83,1.83,0,0,1,.22.25,6.63,6.63,0,0,0,.55.62,5.47,5.47,0,0,0,.66.57,2.4,2.4,0,0,1,.23.2,2.68,2.68,0,0,1,.21.24,5.51,5.51,0,0,0,.56.64l.46.44.38.36.27.3a5.93,5.93,0,0,0,.51.57,8.61,8.61,0,0,0,.65.57,1.12,1.12,0,0,1,.24.2l.45.44.39.37.25.28a6.47,6.47,0,0,0,.53.59c.26.25.4.37.54.49a3.73,3.73,0,0,1,.31.3c.15.15.22.23.29.31s.24.28.5.54l.34.35c.12.13.23.25.46.48a5,5,0,0,0,.67.58l.22.19c.22.23.34.34.46.45s.19.17.37.36.26.26.35.36.22.24.45.47l.45.44.38.38a3,3,0,0,1,.21.23,5.51,5.51,0,0,0,.56.64c.17.17.25.26.33.35s.23.25.47.49a4,4,0,0,0,.83.65l.91.9a3.39,3.39,0,0,1,.23.25,4.74,4.74,0,0,0,.42.48c-.41.35-.84.73-1.61,1.5s-1.17,1.22-1.53,1.64-.63.74-1.32,1.43-1.07,1-1.43,1.36-.82.74-1.6,1.51-1.09,1.08-1.46,1.44l-1.51,1.49c-.75.75-1.12,1.13-1.49,1.51s-.71.74-1.43,1.47-1.12,1.13-1.49,1.51-.71.74-1.43,1.47L325,239.94c-.38.36-.77.73-1.53,1.48A16.72,16.72,0,0,0,322,243.2a10.5,10.5,0,0,1-.72.88l-.25-.27c-.38-.42-.76-.85-1.57-1.66s-1.21-1.18-1.63-1.57-.77-.71-1.51-1.45-1.19-1.17-1.59-1.56-.77-.74-1.52-1.49-1.09-1.13-1.44-1.51-.77-.84-1.57-1.64-1.21-1.18-1.63-1.56-.77-.71-1.51-1.45l-1.52-1.53L304,226.82l-3.58-3.57,0,0a9,9,0,0,0,.89-.78,6.77,6.77,0,0,0,.81-1,4.05,4.05,0,0,1,.39-.45l.62-.61c.18-.17.36-.33.71-.68l.68-.7c.15-.16.3-.32.61-.63s.51-.52.68-.69.3-.32.61-.63.48-.47.64-.62l.69-.68c.28-.28.43-.41.58-.55a9.58,9.58,0,0,0,.77-.72,9.72,9.72,0,0,0,.75-.82,6,6,0,0,1,.5-.55c.26-.26.4-.37.54-.49a9.66,9.66,0,0,0,.83-.75l.69-.72.59-.62a2.6,2.6,0,0,1,.42-.34,5.62,5.62,0,0,0,1-.84,5.44,5.44,0,0,0,.86-1.06,2,2,0,0,1,.31-.39,3,3,0,0,1,.45-.38,6.31,6.31,0,0,0,1-.82c.29-.29.44-.43.6-.57s.38-.35.74-.71.54-.55.71-.74S319.36,204.4,319.65,204.11Zm-42.44-4.53.53-.53c.11-.12.22-.24.46-.47s.44-.47.58-.64l.37-.4a1.28,1.28,0,0,1,.23-.19,5,5,0,0,0,.87-.7c.27-.27.4-.41.53-.55l.44-.46c.28-.28.42-.42.55-.57s.21-.23.43-.45a2,2,0,0,1,.33-.28,6.91,6.91,0,0,0,.73-.64l1-1a4.22,4.22,0,0,0,.75-1,.34.34,0,0,1,.12-.16c.19-.19.29-.27.39-.36a7.81,7.81,0,0,0,.65-.59l1-1a.66.66,0,0,1,.21-.17,4.88,4.88,0,0,0,.89-.72,4.35,4.35,0,0,0,.84-1.16l.12-.08a4.24,4.24,0,0,0,1-.76,4.11,4.11,0,0,0,.77-1.05l.08-.1a1.1,1.1,0,0,1,.25-.2,5.51,5.51,0,0,0,.85-.7,8.15,8.15,0,0,0,.61-.68c.08-.1.16-.19.33-.37l.45-.44c.15-.13.29-.26.57-.54s.33-.32.44-.42.3-.27.58-.55a6.52,6.52,0,0,0,.66-.78,2.4,2.4,0,0,1,.26-.3,5.51,5.51,0,0,1,.4-.38,8,8,0,0,0,.63-.58,1.77,1.77,0,0,1,.26-.22,4.88,4.88,0,0,0,.83-.68l.56-.57.08.08a2.82,2.82,0,0,1,.34.32,6,6,0,0,0,.59.52l.29.27c.15.15.21.23.28.31s.25.28.51.55.41.39.55.5l.31.29.09.11a4,4,0,0,0,.65.82,4.79,4.79,0,0,0,.93.72c.16.16.23.25.31.33s.24.28.49.53l.83.83a6,6,0,0,0,.53.49l.33.31.09.12a4.31,4.31,0,0,0,.64.8,6.43,6.43,0,0,0,.62.55,3.31,3.31,0,0,1,.26.23c.14.14.2.22.27.29a5.93,5.93,0,0,0,.51.57l.53.49.33.31a6.29,6.29,0,0,0,.59.53,3.71,3.71,0,0,1,.28.25l.36.37.45.48,1.65,1.65a1.26,1.26,0,0,1,.18.21,5.56,5.56,0,0,0,1.2,1.23,3.31,3.31,0,0,1,.26.23l.3.32a6.1,6.1,0,0,0,.5.54,4.74,4.74,0,0,0,.51.48l.34.32a5.16,5.16,0,0,0,.55.51l.31.29a2.68,2.68,0,0,1,.21.24,5.51,5.51,0,0,0,.56.64l.35.36c.11.12.22.25.46.48a4.5,4.5,0,0,0,.75.62.75.75,0,0,1,.15.13.6.6,0,0,1,.14.16l0,0a6,6,0,0,0-.79,1,2,2,0,0,1-.32.4l-1.32,1.31c-.36.36-.53.55-.71.75s-.28.3-.57.59-.44.43-.6.57-.38.35-.74.71a2.58,2.58,0,0,1-.45.38,7,7,0,0,0-1,.82,6.07,6.07,0,0,0-.85,1.06,1.7,1.7,0,0,1-.31.39,2.75,2.75,0,0,1-.42.35,5.21,5.21,0,0,0-1,.84c-.36.35-.53.53-.7.71s-.29.32-.59.62a4.51,4.51,0,0,1-.55.49c-.21.18-.42.36-.82.75s-.57.61-.75.83-.24.28-.5.54-.43.42-.58.55-.39.35-.77.72-.47.47-.63.62l-.69.68c-.35.34-.52.52-.68.7l-.62.63-.68.69c-.15.16-.3.32-.61.63l-.61.6c-.19.17-.37.34-.72.69a7,7,0,0,0-.82,1,3,3,0,0,1-.38.45,4.54,4.54,0,0,1-.5.44c-.12.09-.27.21-.44.36l-1.34-1.3c-.38-.37-.77-.73-1.52-1.48l-1.58-1.58-1.51-1.49c-.72-.73-1.05-1.1-1.4-1.5s-.77-.86-1.58-1.68-1.22-1.18-1.64-1.56-.77-.7-1.51-1.44l-1.57-1.55c-.39-.37-.77-.74-1.53-1.5s-1.13-1.15-1.5-1.53-.77-.79-1.55-1.57-1.09-1.12-1.44-1.51-.5-.55-.85-.92ZM253.1,223.69a1.12,1.12,0,0,1,.17-.21,1.54,1.54,0,0,1,.29-.24,6.74,6.74,0,0,0,.79-.67l1-1,.48-.48.52-.51c.21-.21.32-.31.44-.41l.58-.56,1-1a5.07,5.07,0,0,0,.7-.86,1.06,1.06,0,0,1,.2-.24c.21-.22.33-.32.44-.43s.29-.26.57-.54l.47-.46.54-.53a4,4,0,0,1,.38-.34,8.21,8.21,0,0,0,.67-.61,5,5,0,0,0,.69-.83,2.37,2.37,0,0,1,.21-.26,1.81,1.81,0,0,1,.25-.2,4.7,4.7,0,0,0,.85-.7c.28-.27.41-.42.54-.56l.44-.46a4.45,4.45,0,0,0,.75-1,.43.43,0,0,1,.12-.17l.09-.06a4,4,0,0,0,1.06-.78c.28-.27.41-.42.54-.56l.44-.46c.28-.28.42-.43.55-.57s.21-.23.42-.45a4.9,4.9,0,0,0,.68-.8,1.56,1.56,0,0,1,.24-.28l.13-.1a4.51,4.51,0,0,0,1-.76,4.22,4.22,0,0,0,.76-1l.09-.13a3.62,3.62,0,0,1,.36-.32,8.24,8.24,0,0,0,.69-.62c.3-.3.44-.46.58-.62a4.42,4.42,0,0,1,.33-.35c.31.32.53.57.75.81.38.42.77.84,1.57,1.65s1.13,1.14,1.51,1.53.76.79,1.54,1.57,1.18,1.16,1.58,1.55.77.74,1.53,1.5,1.22,1.19,1.64,1.57.77.7,1.5,1.43,1.06,1.1,1.41,1.5.76.86,1.57,1.68l1.53,1.51,1.56,1.55c.79.79,1.19,1.17,1.59,1.56s.68.64,1.24,1.2l-.22.23-.61.59c-.19.17-.37.34-.72.69L291.81,226a7,7,0,0,0-.8.94,3.55,3.55,0,0,1-.41.47l-.61.6c-.18.17-.37.34-.72.69l-.63.62L288,230c-.28.27-.42.4-.57.52s-.41.35-.79.74a6.39,6.39,0,0,0-.79.91,4.24,4.24,0,0,1-.42.48,3.62,3.62,0,0,1-.48.42,6.82,6.82,0,0,0-.93.79l-.68.7c-.15.16-.3.32-.61.63a5.78,5.78,0,0,0-.83,1,2.72,2.72,0,0,1-.34.42,2.1,2.1,0,0,1-.37.29,5.12,5.12,0,0,0-1.09.86l-.69.7c-.15.16-.29.32-.6.63s-.52.53-.69.71-.29.31-.59.61a7.69,7.69,0,0,0-.78.9,4.68,4.68,0,0,1-.44.49,1.72,1.72,0,0,1-.39.32,6.07,6.07,0,0,0-1.05.85,5.21,5.21,0,0,0-.84,1.06,1.69,1.69,0,0,1-.32.38,5.16,5.16,0,0,1-.55.51l0,0c-.66-.65-1-1-1.41-1.36s-.77-.74-1.52-1.49l-1.57-1.55-1.53-1.51L264,236c-.73-.72-1.05-1.1-1.4-1.49s-.76-.87-1.58-1.69-1.25-1.2-1.68-1.58-.77-.67-1.49-1.4l-1.59-1.56c-.38-.36-.76-.74-1.51-1.49s-1-1.08-1.36-1.47-.48-.56-.82-.93A4.44,4.44,0,0,0,253.1,223.69Zm-24.67,24.85a6.21,6.21,0,0,0,.69-.82.88.88,0,0,1,.22-.27,1.77,1.77,0,0,1,.26-.22,5,5,0,0,0,.83-.69,6.67,6.67,0,0,0,.63-.72,3.13,3.13,0,0,1,.3-.34,7.72,7.72,0,0,0,.65-.74,2.74,2.74,0,0,1,.28-.33l1-1a.67.67,0,0,1,.19-.14,4.66,4.66,0,0,0,.94-.74,5.69,5.69,0,0,0,.63-.72,3.13,3.13,0,0,1,.3-.34,7.91,7.91,0,0,0,.6-.66c.09-.1.17-.2.35-.39l.13-.09a4.52,4.52,0,0,0,1.77-1.77l1.1-1.12c.3-.3.44-.46.58-.62a5.28,5.28,0,0,1,.39-.42c.2-.2.31-.29.42-.39s.31-.27.61-.57a.74.74,0,0,1,.2-.16,5.24,5.24,0,0,0,.91-.72,4.24,4.24,0,0,0,.76-1l.09-.12a.7.7,0,0,1,.16-.13,4.68,4.68,0,0,0,1-.74c.28-.28.42-.43.55-.58s.21-.23.42-.44a3.21,3.21,0,0,1,.35-.31,5.12,5.12,0,0,0,.71-.63,7.06,7.06,0,0,0,.64-.72,3.13,3.13,0,0,1,.3-.34,4.56,4.56,0,0,1,.39-.36,8.41,8.41,0,0,0,.65-.6l.47-.45.55-.53.33-.34c.22.25.4.45.57.66.37.44.76.89,1.59,1.72l1.56,1.54c.39.37.77.75,1.54,1.51s1.25,1.21,1.68,1.58.77.68,1.5,1.4,1,1.09,1.39,1.49.76.87,1.58,1.69l3.07,3.08,1.57,1.55c.39.37.77.75,1.53,1.51l1.59,1.55c.35.33.71.68,1.32,1.29-.13.12-.29.27-.51.5a6.74,6.74,0,0,1-.54.48,11.34,11.34,0,0,0-1.6,1.6,6.74,6.74,0,0,1-.48.54c-.34.33-.51.51-.67.68l-.62.63c-.37.37-.55.57-.72.76s-.26.3-.55.59a3.35,3.35,0,0,1-.47.4,7.33,7.33,0,0,0-.94.8l-.68.7-.61.62c-.35.35-.52.53-.69.71s-.29.32-.59.62a5.17,5.17,0,0,1-.54.48,9.75,9.75,0,0,0-.84.76L257.87,260a5.45,5.45,0,0,0-.83,1,2.7,2.7,0,0,1-.34.41c-.28.28-.43.41-.58.54s-.4.35-.78.73L254,264a4.05,4.05,0,0,1-.45.39,5.75,5.75,0,0,0-1,.81,4.93,4.93,0,0,0-.87,1.11,1.23,1.23,0,0,1-.28.35,1.92,1.92,0,0,1-.38.31,5.63,5.63,0,0,0-1.07.85,5.76,5.76,0,0,0-.86,1.08,1.38,1.38,0,0,1-.3.38,3.34,3.34,0,0,1-.41.36c-.63-.63-1-1-1.32-1.35s-.77-.8-1.55-1.58l-3.08-3.08c-.78-.78-1.18-1.17-1.59-1.55s-.77-.74-1.52-1.49-1.05-1.1-1.39-1.49-.76-.88-1.58-1.7l-3.07-3.08c-.81-.81-1.24-1.19-1.67-1.57s-.77-.69-1.5-1.42-1.13-1.14-1.5-1.52l-.76-.77Zm-25,24.86,1-1c.23-.24.35-.35.47-.46l.54-.53a5.29,5.29,0,0,0,.67-.8,2.29,2.29,0,0,1,.25-.28.36.36,0,0,1,.15-.12,4.24,4.24,0,0,0,1-.75,8.1,8.1,0,0,0,.59-.64c.09-.1.18-.21.37-.4s.31-.29.42-.39.32-.28.62-.58l.42-.4a7.67,7.67,0,0,0,.6-.56,6,6,0,0,0,.64-.73,2.45,2.45,0,0,1,.3-.33l1-1a5.85,5.85,0,0,0,.66-.77,2.2,2.2,0,0,1,.34-.36,3.78,3.78,0,0,0,1.07-.78,4.07,4.07,0,0,0,.77-1l.08-.12a5.16,5.16,0,0,1,.41-.38c.16-.14.33-.28.63-.58l.44-.42c.15-.13.3-.27.59-.56a6.27,6.27,0,0,0,.64-.74,2.9,2.9,0,0,1,.29-.33,1.41,1.41,0,0,1,.28-.23,5.47,5.47,0,0,0,.8-.68c.3-.3.44-.46.58-.62s.18-.21.38-.41.29-.27.39-.36a7.81,7.81,0,0,0,.65-.59l.47-.47.54-.52a5,5,0,0,1,.38-.36,7.81,7.81,0,0,0,.65-.59,5.51,5.51,0,0,0,.7-.85,1.06,1.06,0,0,1,.19-.24l.53-.54.13-.13.81.82c.38.4.76.79,1.54,1.57s1.24,1.19,1.67,1.57.77.69,1.5,1.42l3.07,3.08c.72.72,1.05,1.09,1.39,1.49s.76.88,1.58,1.69,1.18,1.17,1.59,1.56.77.74,1.52,1.49l3.08,3.08c.76.75,1.13,1.14,1.5,1.52l1.34,1.38h0l-.7.68-.62.6-.71.69a8.3,8.3,0,0,0-.78.87,4.62,4.62,0,0,1-.45.51c-.28.29-.44.42-.59.56s-.38.34-.75.71a4,4,0,0,1-.49.42,8.89,8.89,0,0,0-.91.79l-1.3,1.31-.68.69c-.15.16-.3.32-.61.62s-.51.52-.67.69l-.62.63c-.37.37-.55.57-.72.76a7.7,7.7,0,0,1-.55.58l-.67.69-.62.63c-.37.37-.54.56-.72.76s-.26.3-.55.59l-.63.61-.69.67c-.28.29-.44.42-.59.56s-.39.34-.76.71-.57.61-.75.83a5.77,5.77,0,0,1-.49.54l-1.3,1.31a2,2,0,0,1-.4.32,5.71,5.71,0,0,0-1,.85,6.56,6.56,0,0,0-.82,1,2.26,2.26,0,0,1-.38.45l-.08.08c-.61-.61-.95-1-1.27-1.32s-.77-.82-1.56-1.62-1.28-1.21-1.71-1.58-.77-.67-1.49-1.38-1.13-1.15-1.5-1.53-.77-.79-1.55-1.57-1.17-1.16-1.56-1.54l-1.53-1.53c-.72-.72-1-1.09-1.39-1.49s-.76-.87-1.58-1.69-1.26-1.2-1.68-1.57-.77-.68-1.49-1.41-1.12-1.13-1.49-1.52l-.84-.86Zm-1.58,42.77c-.35.35-.52.53-.69.71s-.3.32-.6.61-.54.57-.71.76l-.36.39-.44-.44c-.23-.24-.35-.35-.47-.46s-.19-.17-.37-.36a3.85,3.85,0,0,0-.82-.64l-.11-.09a3.18,3.18,0,0,1-.29-.32c-.12-.14-.24-.27-.5-.53s-.25-.26-.33-.35-.23-.26-.48-.5a4.59,4.59,0,0,0-.61-.54c-.06-.06-.14-.11-.26-.23a2.5,2.5,0,0,1-.21-.25,6.7,6.7,0,0,0-.56-.63l-.81-.82-.34-.35c-.11-.13-.22-.26-.46-.5l-.5-.47-.35-.33-.48-.46-.35-.34c-.27-.26-.42-.39-.56-.51a2.72,2.72,0,0,1-.3-.27l-.09-.11a4.12,4.12,0,0,0-.64-.81l-.39-.39-.42-.44a4.37,4.37,0,0,0-.78-.62.49.49,0,0,1-.13-.1c-.15-.15-.21-.23-.28-.31a5.16,5.16,0,0,0-.51-.55l-.35-.36c-.11-.12-.22-.25-.45-.48a6.09,6.09,0,0,0-.6-.53l-.27-.25-.37-.37c-.11-.12-.22-.24-.44-.46s-.25-.26-.33-.35a6.22,6.22,0,0,0-.48-.5l-.33-.36c-.12-.12-.23-.25-.47-.49s-.39-.37-.52-.49a3.74,3.74,0,0,1-.33-.31,6,6,0,0,0-.59-.52l-.28-.26c-.15-.15-.21-.23-.28-.31s-.24-.28-.51-.55-.4-.38-.54-.5l-.31-.29-.09-.1a4.37,4.37,0,0,0-.26-.38,5,5,0,0,0,.63-.54,5.85,5.85,0,0,0,.66-.77,1.91,1.91,0,0,1,.27-.31c.3-.3.44-.46.58-.62a5.47,5.47,0,0,1,.39-.42,2,2,0,0,1,.28-.24,6,6,0,0,0,1.48-1.48,2.14,2.14,0,0,1,.24-.28c.23-.24.35-.35.47-.46l.55-.53,2-2a8.15,8.15,0,0,0,.61-.68c.08-.1.16-.19.34-.38s.4-.4.53-.54l.46-.47a.47.47,0,0,1,.17-.14,4,4,0,0,0,1-.74,5.32,5.32,0,0,0,.68-.82,1.73,1.73,0,0,1,.22-.27c.29-.29.43-.45.57-.6a4.36,4.36,0,0,1,.4-.42c.2-.21.31-.31.42-.41s.32-.28.61-.57a1.55,1.55,0,0,1,.25-.21,5.33,5.33,0,0,0,.85-.69,7.81,7.81,0,0,0,.59-.65l.37-.4c.28-.28.41-.43.55-.58l.43-.44a1.57,1.57,0,0,1,.31-.27,6.65,6.65,0,0,0,.76-.66,6.21,6.21,0,0,0,.69-.82,1.73,1.73,0,0,1,.22-.27c.28-.28.41-.42.55-.57s.21-.23.43-.45l.15-.11a4.63,4.63,0,0,0,1-.75l.54-.56c.11-.12.22-.24.44-.46l.07-.07.71.74c.38.4.77.8,1.55,1.58s1.25,1.2,1.67,1.57.77.68,1.5,1.41,1.05,1.1,1.4,1.5.76.87,1.57,1.68,1.17,1.16,1.56,1.54L212,288c.76.76,1.13,1.14,1.51,1.53s.77.79,1.55,1.57,1.26,1.2,1.7,1.58.77.66,1.49,1.38,1.1,1.13,1.46,1.51.71.77,1.37,1.43h0a5.5,5.5,0,0,0-1.11.87,4.9,4.9,0,0,0-.87,1.12,1.37,1.37,0,0,1-.27.35,4.32,4.32,0,0,1-.49.43,6.94,6.94,0,0,0-.9.78c-.29.29-.44.42-.59.56a9.75,9.75,0,0,0-.75.71l-.59.55c-.19.17-.38.34-.75.71a7.83,7.83,0,0,0-.78.89,4.54,4.54,0,0,1-.44.5L213,305c-.18.17-.36.33-.7.68a6.74,6.74,0,0,1-.54.48c-.22.18-.43.36-.83.75l-.7.73c-.14.16-.28.31-.58.61s-.5.5-.66.68l-.63.64c-.34.34-.5.51-.67.69l-.61.62c-.38.38-.56.58-.73.78s-.26.3-.54.58l-1.3,1.31a4.21,4.21,0,0,1-.5.43,9.52,9.52,0,0,0-.89.79,9.91,9.91,0,0,0-.75.82C202.2,315.77,202.08,315.91,201.83,316.17Zm22.88,24.18-.84.87c-.18.2-.36.4-.74.77l-.22.23h0a2.33,2.33,0,0,1-.24-.27,6.38,6.38,0,0,0-.54-.6l-.44-.44-.4-.38-.32-.34c-.11-.13-.23-.26-.47-.51a4.62,4.62,0,0,0-.7-.59l-.2-.16a2.5,2.5,0,0,1-.21-.25,4.85,4.85,0,0,0-.56-.63c-.24-.25-.37-.36-.5-.48l-.35-.33-.49-.47a4.78,4.78,0,0,1-.35-.34,1.26,1.26,0,0,1-.18-.21,4.78,4.78,0,0,0-.59-.68,6.41,6.41,0,0,0-.57-.52l-.3-.27a5.16,5.16,0,0,0-.55-.51,3.1,3.1,0,0,1-.3-.28,4.43,4.43,0,0,1-.34-.36c-.12-.12-.23-.25-.47-.49s-.21-.22-.27-.29-.25-.3-.52-.57a4.78,4.78,0,0,0-.68-.59,1.26,1.26,0,0,1-.21-.18l-.46-.44-.38-.37-.46-.46-.38-.36a3.78,3.78,0,0,1-.26-.29c-.13-.15-.25-.3-.53-.58l-.82-.82-.53-.49-.33-.3a1.77,1.77,0,0,1-.22-.26,6.63,6.63,0,0,0-.55-.62l-.36-.37c-.11-.12-.22-.24-.46-.47l-.43-.43-.4-.39a5.47,5.47,0,0,0-.66-.57,2.4,2.4,0,0,1-.23-.2l-.35-.36c-.11-.12-.22-.25-.45-.48a.81.81,0,0,1-.14-.16,4.91,4.91,0,0,0-.61-.74,5.51,5.51,0,0,0-.64-.56,2.68,2.68,0,0,1-.24-.21l0,0c.27-.28.42-.45.57-.62s.27-.3.56-.59l.68-.69c.15-.16.29-.32.61-.63a9.37,9.37,0,0,0,.74-.82c.12-.14.24-.28.5-.55a3.53,3.53,0,0,1,.5-.43,8.22,8.22,0,0,0,.89-.79l1.3-1.31a9.58,9.58,0,0,0,.72-.77c.13-.15.26-.3.54-.58s.52-.52.69-.7l.6-.62.69-.69.6-.62c.36-.36.53-.54.7-.73s.28-.31.58-.61a6.74,6.74,0,0,1,.54-.48,10,10,0,0,0,.83-.76l.62-.6.7-.68a7.83,7.83,0,0,0,.78-.89,4.39,4.39,0,0,1,.44-.5c.28-.29.43-.42.58-.56s.39-.34.76-.7.43-.43.58-.56.39-.35.75-.71a4.21,4.21,0,0,1,.5-.43,7.9,7.9,0,0,0,.9-.79,5.5,5.5,0,0,0,.87-1.11,1.18,1.18,0,0,1,.27-.35,1.34,1.34,0,0,1,.34-.27,4.63,4.63,0,0,0,.78-.56l.42.42c.77.77,1.14,1.15,1.52,1.54l1.54,1.55c.8.8,1.21,1.18,1.63,1.56s.77.72,1.51,1.46,1.14,1.15,1.51,1.53.77.8,1.55,1.58,1.1,1.12,1.46,1.51.77.82,1.56,1.62,1.28,1.21,1.72,1.59.77.66,1.48,1.37,1,1.09,1.38,1.49.76.88,1.59,1.71,1.16,1.16,1.55,1.54l.19.19-.45.46c-.38.38-.58.56-.78.74l-.87.85-1.62,1.62a9.27,9.27,0,0,0-.94,1.09,4.29,4.29,0,0,1-.56.65c-.37.38-.57.56-.76.74s-.45.42-.88.85l-.79.77-.84.83c-.35.35-.54.52-.73.68s-.49.42-.94.88a9.71,9.71,0,0,0-.94,1.07,5,5,0,0,1-.57.66,5.72,5.72,0,0,1-.65.56,8.37,8.37,0,0,0-1.09.94c-.42.42-.63.64-.83.86s-.37.39-.76.78a6.73,6.73,0,0,0-1,1.17,3.14,3.14,0,0,1-.49.59,2.39,2.39,0,0,1-.55.44,6.26,6.26,0,0,0-1.24,1c-.43.43-.63.64-.84.86S225.1,340,224.71,340.35Zm4,7.72-.25-.28a5.19,5.19,0,0,0-.54-.61,6,6,0,0,0-.55-.5l-.31-.29a2.74,2.74,0,0,1-.22-.25,5.44,5.44,0,0,0-.55-.63c-.24-.23-.38-.36-.52-.47l.22-.22.84-.87c.18-.2.36-.39.74-.77s.63-.64.84-.86.37-.39.76-.78a2.13,2.13,0,0,1,.55-.43,6.85,6.85,0,0,0,1.24-1,6.7,6.7,0,0,0,1-1.18,3.49,3.49,0,0,1,.49-.59c.42-.42.63-.64.83-.85s.38-.4.76-.78a5.09,5.09,0,0,1,.65-.57,8.37,8.37,0,0,0,1.09-.94,9.32,9.32,0,0,0,.93-1.06,4.06,4.06,0,0,1,.58-.67c.35-.35.53-.51.72-.67s.49-.42,1-.88l.8-.79.83-.81c.38-.39.58-.57.78-.76s.44-.41.86-.83a8.37,8.37,0,0,0,.94-1.09,5,5,0,0,1,.56-.65l1.62-1.62c.38-.38.57-.57.77-.75s.44-.41.87-.84l.46-.46,1.6,1.6a22.1,22.1,0,0,0,1.72,1.59l0,0c-.36.35-.64.6-.92.85-.47.41-.94.84-1.84,1.73l-1.71,1.73c-.41.42-.83.85-1.68,1.69s-1.29,1.31-1.71,1.76-.82.85-1.66,1.69l-1.7,1.72c-.42.43-.84.86-1.7,1.71s-1.3,1.34-1.72,1.79-.8.86-1.63,1.69-1.25,1.2-1.68,1.59-.93.85-1.82,1.74l-2.06,2.06ZM373.93,232.26l-.07-.45a12.19,12.19,0,0,0-1.11-3.84,12.48,12.48,0,0,0-2.27-3.35c-.67-.66-1.05-1-1.39-1.28a15,15,0,0,1-1.13-1c-.65-.65-1-1-1.34-1.26s-.59-.52-1.15-1.08a9,9,0,0,1-.92-1.07,15.8,15.8,0,0,0-2.82-2.84c-.19-.15-.37-.29-.6-.49a2.09,2.09,0,0,0-.39-.56c-.71-.71-1.06-1.08-1.4-1.45s-.75-.78-1.51-1.55a17.64,17.64,0,0,0-1.8-1.58,13.58,13.58,0,0,1-2.55-2.55,15.33,15.33,0,0,0-1.57-1.79l-1.46-1.46c-.37-.38-.74-.76-1.5-1.52s-1.23-1.17-1.65-1.53-.73-.63-1.41-1.32-1.2-1.15-1.62-1.52-.73-.66-1.43-1.35l-3-3a15.66,15.66,0,0,1-1.25-1.39,21.76,21.76,0,0,0-1.56-1.72,20.56,20.56,0,0,0-1.69-1.55,18.79,18.79,0,0,1-1.4-1.28,14.39,14.39,0,0,1-1.21-1.37,15.45,15.45,0,0,0-1.57-1.78c-.78-.79-1.21-1.17-1.63-1.53s-.73-.65-1.42-1.34L326.65,181c-.38-.36-.75-.73-1.48-1.47s-1.05-1.07-1.39-1.44-.74-.8-1.51-1.57-1.08-1.1-1.44-1.47l-1.49-1.52c-.73-.72-1.08-1.09-1.44-1.46s-.74-.78-1.5-1.53a16.76,16.76,0,0,0-1.74-1.56,12.67,12.67,0,0,1-1.38-1.23c-.69-.69-1-1-1.33-1.43s-.74-.84-1.54-1.64a19.33,19.33,0,0,0-1.72-1.55,14.61,14.61,0,0,1-1.39-1.26,13.46,13.46,0,0,1-1.22-1.37,19.18,19.18,0,0,0-1.57-1.77,17.13,17.13,0,0,0-1.78-1.56,13.25,13.25,0,0,1-1.37-1.21,15.18,15.18,0,0,1-1.24-1.39,21.43,21.43,0,0,0-1.56-1.73c-.73-.73-1.08-1.1-1.44-1.47s-.74-.77-1.5-1.53-1.23-1.17-1.66-1.54-.73-.63-1.41-1.31-1.19-1.15-1.59-1.52-.74-.67-1.44-1.37a10.64,10.64,0,0,1-1.19-1.37,17.64,17.64,0,0,0-1.58-1.8,19.18,19.18,0,0,0-1.77-1.57,11.88,11.88,0,0,1-1.38-1.21c-.69-.69-1-1-1.33-1.43s-.74-.84-1.53-1.63-1-1.06-1.35-1.44-.74-.84-1.53-1.63-1.22-1.17-1.64-1.54-.63-.55-1.13-1a1.4,1.4,0,0,0-.27-.33l-.19-.2a9.89,9.89,0,0,0-1-1,4.52,4.52,0,0,0-1.33-.68l-.17-.06a1.39,1.39,0,0,1-.19-.15,4.57,4.57,0,0,0-1.24-.81,13.31,13.31,0,0,0-1.6-.55,5.82,5.82,0,0,0-1.32-.18c-.12,0-.24,0-.36,0a7.21,7.21,0,0,0-1.3,0c-.65,0-1.3,0-2,.13h-.29a4.9,4.9,0,0,0-1.39.14,5.25,5.25,0,0,0-1.24.54l-.28.14-.23.06a4.48,4.48,0,0,0-1.39.49,6.63,6.63,0,0,0-1.06.79l-.29.25a13.52,13.52,0,0,0-1.24,1.11c-.17.17-.27.25-.36.33a6.73,6.73,0,0,0-.69.62l-.43.41c-.16.14-.31.27-.59.56l-.43.41c-.15.14-.31.28-.59.56a4.22,4.22,0,0,0-.79,1l-.07.09a1,1,0,0,1-.25.21,5.68,5.68,0,0,0-.83.7,4.61,4.61,0,0,0-.81,1.07l-.12.1a4.44,4.44,0,0,0-1.08.81,4.37,4.37,0,0,0-.84,1.15l-.11.09a4.37,4.37,0,0,0-1,.78c-.2.21-.31.31-.42.41a7.67,7.67,0,0,0-.6.56,5.68,5.68,0,0,0-.71.86,2.22,2.22,0,0,1-.19.23,6.57,6.57,0,0,0-.62.7,5.9,5.9,0,0,0-.66-.05h-.2l-.24-.09a4.41,4.41,0,0,0-1.34-.34,8.32,8.32,0,0,0-1.32,0l-.31,0a6.25,6.25,0,0,0-1.24.23l-.35.09-.27.06a7.1,7.1,0,0,0-1.29.34l-.34.1a6.92,6.92,0,0,0-1.18.45l-.14.08a10.45,10.45,0,0,0-1.27.75,4.54,4.54,0,0,0-.93.95,2,2,0,0,1-.18.23l-.28.22a6,6,0,0,0-.91.87,8.78,8.78,0,0,0-.7,1.08l-.16.29a8.61,8.61,0,0,0-.58,1.2l-.11.25a1.74,1.74,0,0,1-.14.27,4.17,4.17,0,0,0-.55,1.21,3.77,3.77,0,0,0-.07,1.5.49.49,0,0,1,0,.12.36.36,0,0,1,0,.11,3.89,3.89,0,0,0-.33,1.51,7,7,0,0,0,.17,1.27c0,.12.05.24.07.36a8.16,8.16,0,0,0,.31,1.25c-.2.2-.32.34-.44.47a2.73,2.73,0,0,1-.36.39c-.22.23-.34.34-.45.45s-.28.26-.56.54a8.54,8.54,0,0,0-.63.7c-.07.09-.15.18-.31.35l-.15.11a4.68,4.68,0,0,0-1,.77,4.37,4.37,0,0,0-.84,1.15l-.48.47-.52.52-.12.08-.14.09a4.42,4.42,0,0,0-1.08-.34,8.78,8.78,0,0,0-1.8-.06l-.4,0a12.49,12.49,0,0,0-2.22.23h-.68a3.75,3.75,0,0,0-1.53.29,4,4,0,0,0-1.52,1.29l-.18.22-.26.09a4.12,4.12,0,0,0-1.72,1,9.46,9.46,0,0,0-1.15,1.48l-.2.3a10.56,10.56,0,0,0-.94,1.82l-.08.17a5.85,5.85,0,0,0-.4,1.68c0,.16,0,.32-.07.48l-.07.3a8.85,8.85,0,0,0-.29,1.87c0,.15,0,.3-.06.46a5.1,5.1,0,0,0-.07,1.79,4.38,4.38,0,0,0,.4,1.16l-.09.1c-.1.11-.2.22-.41.43a6.1,6.1,0,0,0-.65.74,2.83,2.83,0,0,1-.28.32l-1,1a3.21,3.21,0,0,1-.3.25,7,7,0,0,0-.77.67,2.4,2.4,0,0,1-.3.26,6.08,6.08,0,0,0-.77.67,5.29,5.29,0,0,0-.72.86,1,1,0,0,1-.19.23l-.15.15a4.43,4.43,0,0,0-1-.31,5.2,5.2,0,0,0-1.32-.05,1.57,1.57,0,0,1-.32,0,10.8,10.8,0,0,0-1.61,0,6.93,6.93,0,0,0-1.24.25l-.31.09h-.24a4.41,4.41,0,0,0-1.39.26,5.27,5.27,0,0,0-1.11.63l-.29.19-.32.16a6.61,6.61,0,0,0-1.09.64,4,4,0,0,0-.93,1l-.13.18-.15.15a9.89,9.89,0,0,0-.91,1,1.29,1.29,0,0,1-.17.16,4,4,0,0,0-.94,1.08,3.82,3.82,0,0,0-.44,1.39.75.75,0,0,0,0,.17c0,.08-.09.16-.13.24a4.39,4.39,0,0,0-.55,1.24,7.32,7.32,0,0,0-.16,1.27l0,.35c0,.1,0,.21-.06.31a5.27,5.27,0,0,0-.15,1.32,5.57,5.57,0,0,0,.25,1.28l.09.33c0,.11,0,.22,0,.34s.06.47.11.75l-.11.15a1,1,0,0,1-.19.23.89.89,0,0,1-.15.12,4.57,4.57,0,0,0-1,.76,4.2,4.2,0,0,0-.83,1.14,4,4,0,0,0-1.2.84,4.21,4.21,0,0,0-.83,1.18,4.11,4.11,0,0,0-1.16.83c-.2.2-.32.32-.42.44l-.57-.1-.33-.06-.31-.09a4.86,4.86,0,0,0-1.3-.26h-.17a5.77,5.77,0,0,0-1.13.13c-.11,0-.22.05-.33.06h-.35a5.22,5.22,0,0,0-1.28.13,4.3,4.3,0,0,0-1.22.51l-.28.14a11.83,11.83,0,0,0-1.45.7c-.1.06-.2.1-.3.15a5,5,0,0,0-1.12.63,4.79,4.79,0,0,0-.9.92l-.22.26a11.54,11.54,0,0,0-1,1.22l-.12.15a9.11,9.11,0,0,0-.81,1.17c0,.09-.12.18-.18.27a4.86,4.86,0,0,0-.66,1.12,6.9,6.9,0,0,0-.34,1.24c0,.11,0,.23-.07.34a11.63,11.63,0,0,0-.26,1.6c0,.12,0,.24-.05.35a6,6,0,0,0-.12,1.29,11.41,11.41,0,0,0,.23,1.63,8.06,8.06,0,0,0,.23.91l-.12.11a8.41,8.41,0,0,0-.6.65l-.37.4a4.89,4.89,0,0,0-.72.87,1.24,1.24,0,0,1-.18.22,4.13,4.13,0,0,1-.32.28,5.49,5.49,0,0,0-.75.66,4.66,4.66,0,0,0-.74.92.9.9,0,0,1-.15.18,4.36,4.36,0,0,1-.42.4l-.61.57a2.45,2.45,0,0,1-.33.3,7.14,7.14,0,0,0-.73.65,6.88,6.88,0,0,0-.66.75,1.83,1.83,0,0,1-.26.31,3.13,3.13,0,0,1-.34.3,7.06,7.06,0,0,0-.72.64,8.74,8.74,0,0,0-.61.66,4.44,4.44,0,0,1-.35.38,5.47,5.47,0,0,1-.42.39l-.62.58c-.22.22-.33.33-.45.43l-.57.56a6.1,6.1,0,0,0-.68.79,2.2,2.2,0,0,1-.25.29,2.34,2.34,0,0,1-.29.25,6.8,6.8,0,0,0-.78.67,8.65,8.65,0,0,0-.61.69,2.34,2.34,0,0,1-.24.09,2.57,2.57,0,0,1-.4.07,5.35,5.35,0,0,0-1.34.32,5.94,5.94,0,0,0-1.17.66,3.75,3.75,0,0,1-.36.24,1.87,1.87,0,0,1-.34.08,5.09,5.09,0,0,0-1.38.5,8.18,8.18,0,0,0-1,.73,4.12,4.12,0,0,1-.41.32c-.49.33-1,.68-1.44,1a10.76,10.76,0,0,0-.9.8l-.41.39-.39.33a10.41,10.41,0,0,0-.93.83c-.42.42-.84.84-1.23,1.28l-.19.21c-.33.38-.65.75-1,1.14a4.82,4.82,0,0,1-.36.43c-.23.28-.5.59-.75,1a7.06,7.06,0,0,0-.58,1.18,2.8,2.8,0,0,1-.19.43,3.07,3.07,0,0,1-.24.29,5.63,5.63,0,0,0-.82,1.16,9.57,9.57,0,0,0-.44,1.16c-.06.18-.11.35-.18.52a9.19,9.19,0,0,0-.37,1.18c0,.18-.09.35-.14.52l-.06.2-.24.26c-.3.3-.44.46-.58.62s-.19.22-.39.42a1.77,1.77,0,0,1-.26.22,5.79,5.79,0,0,0-.83.7,5.27,5.27,0,0,0-.72.87,1.21,1.21,0,0,1-.19.23l-.54.55c-.11.12-.22.24-.45.47a2.27,2.27,0,0,1-.25.21,6.22,6.22,0,0,0-.84.7,4,4,0,0,1-.42.39c-.16.14-.32.29-.62.59a4.55,4.55,0,0,0-.79,1l-.08.12-.43.4c-.16.14-.32.28-.62.58a8.42,8.42,0,0,0-.61.67,4.44,4.44,0,0,1-.35.38,2.23,2.23,0,0,1-.24.19,5,5,0,0,0-1,.95,4.7,4.7,0,0,0-.67,1.33,2.07,2.07,0,0,1-.08.2,2.4,2.4,0,0,1-.19.29,5.55,5.55,0,0,0-.67,1.15l-.09.2a10.92,10.92,0,0,0-.5,1.38,14.46,14.46,0,0,0-.29,1.66l0,.16a11.19,11.19,0,0,0-.13,1.51v.2a10,10,0,0,0,.07,1.5,4.22,4.22,0,0,0,.44,1.38l.09.18c0,.08,0,.16,0,.23a4.38,4.38,0,0,0,.3,1.48,4.48,4.48,0,0,0,.84,1.25l.12.15.14.28a5.08,5.08,0,0,0,.66,1.2,6.25,6.25,0,0,0,.74.78,2.19,2.19,0,0,0,.36.5c.73.72,1.07,1.09,1.42,1.47s.75.79,1.52,1.56a14.48,14.48,0,0,0,1.83,1.59,11.22,11.22,0,0,1,1.37,1.18,12.31,12.31,0,0,1,1.18,1.36,13.72,13.72,0,0,0,1.59,1.84l1.47,1.49,1.5,1.51a22.6,22.6,0,0,0,1.69,1.55c.38.33.73.63,1.42,1.32s1.22,1.17,1.64,1.53.74.66,1.44,1.36l3,3a13.78,13.78,0,0,1,1.24,1.39,17.25,17.25,0,0,0,1.58,1.76,20.48,20.48,0,0,0,1.72,1.57,14.69,14.69,0,0,1,1.41,1.27,11.51,11.51,0,0,1,1.19,1.37,15.23,15.23,0,0,0,1.59,1.83c.8.8,1.24,1.18,1.66,1.55s.74.64,1.43,1.32l1.52,1.52,1.48,1.46c.71.71,1.05,1.08,1.39,1.46s.75.81,1.53,1.59,1.09,1.1,1.44,1.48.75.78,1.51,1.54,1.09,1.1,1.45,1.47.74.78,1.51,1.55a16.76,16.76,0,0,0,1.79,1.58,13,13,0,0,1,1.38,1.21c.68.69,1,1.05,1.32,1.43a21.37,21.37,0,0,0,1.55,1.67,18.41,18.41,0,0,0,1.76,1.58,11.88,11.88,0,0,1,1.39,1.24,11.18,11.18,0,0,1,1.21,1.37,16.68,16.68,0,0,0,1.59,1.81,15.16,15.16,0,0,0,1.82,1.58,15,15,0,0,1,2.61,2.59,17.57,17.57,0,0,0,1.57,1.77c.73.73,1.09,1.1,1.45,1.48s.74.78,1.5,1.54,1.26,1.19,1.7,1.56a19,19,0,0,1,1.42,1.3c.78.79,1.2,1.16,1.61,1.54s.74.67,1.45,1.38a9.59,9.59,0,0,1,1.17,1.36,15.48,15.48,0,0,0,1.6,1.85,16.54,16.54,0,0,0,1.82,1.59,10.64,10.64,0,0,1,1.37,1.19c.69.69,1,1.05,1.33,1.43s.75.87,1.55,1.67,1,1.05,1.33,1.43.75.86,1.55,1.67,1.25,1.18,1.68,1.55.74.64,1.42,1.32,1.21,1.17,1.63,1.54.74.67,1.45,1.37a11.88,11.88,0,0,1,1.21,1.38,16.68,16.68,0,0,0,1.59,1.81,18,18,0,0,0,1.78,1.58,15.18,15.18,0,0,1,1.39,1.24l0,0a12.27,12.27,0,0,0,3.22,2.26,12.57,12.57,0,0,0,3.77,1.25,15.66,15.66,0,0,0,2.36.2,10.68,10.68,0,0,0,1.63-.12,12.07,12.07,0,0,0,3.59-1.36L240,372a12.57,12.57,0,0,0,3.27-2.24,17.34,17.34,0,0,0,1.18-1.29,10.89,10.89,0,0,1,.93-1c.54-.55.82-.81,1.09-1.08l1.14-1.12a13.58,13.58,0,0,1,1-1c.33-.28.65-.56,1.26-1.16l1.12-1.14c.26-.27.53-.55,1.08-1.09a16.59,16.59,0,0,0,1.18-1.31c.24-.29.44-.53.92-1s.74-.69,1-.93a15.21,15.21,0,0,0,1.3-1.18l1.12-1.14c.26-.27.53-.55,1.07-1.09L261,352c.57-.56.85-.85,1.13-1.14s.53-.55,1.07-1.09.76-.73,1-1,.66-.56,1.27-1.16a12.17,12.17,0,0,0,1.21-1.39,7.82,7.82,0,0,1,.85-1,7.34,7.34,0,0,1,1-.86,13.64,13.64,0,0,0,1.36-1.21,13.49,13.49,0,0,0,1.19-1.33,11.44,11.44,0,0,1,.9-1c.51-.51.78-.75,1.05-1s.64-.56,1.24-1.16.78-.75,1.05-1,.64-.56,1.23-1.16l2.22-2.21,1.12-1.13c.27-.28.54-.56,1.08-1.1s.86-.89,1.14-1.19.5-.54,1-1.07.88-.91,1.16-1.23.48-.54,1-1.05l1.13-1.16c.26-.28.52-.55,1.06-1.09a12.64,12.64,0,0,1,1-.94,15.82,15.82,0,0,0,1.28-1.18,13.91,13.91,0,0,0,1.19-1.31,10.32,10.32,0,0,1,.92-1,7.75,7.75,0,0,1,1-.84,11.12,11.12,0,0,0,1.4-1.21,13.58,13.58,0,0,0,1.2-1.34,11.44,11.44,0,0,1,.9-1c.57-.57.85-.86,1.13-1.15l1.06-1.09a11.32,11.32,0,0,1,1-.91,17.53,17.53,0,0,0,1.31-1.19c.59-.58.87-.89,1.15-1.19s.5-.55,1-1.07l2.21-2.23a14,14,0,0,0,1.18-1.29c.24-.28.45-.53.95-1a9.33,9.33,0,0,1,1-.87,11.44,11.44,0,0,0,1.37-1.21c.59-.59.87-.9,1.16-1.21l.28-.32a2.18,2.18,0,0,0,.94-.54c.61-.61.92-.91,1.23-1.2s.68-.64,1.34-1.29a13,13,0,0,0,1.39-1.61,10.15,10.15,0,0,1,2.07-2.07,12.91,12.91,0,0,0,1.6-1.38l1.26-1.25,1.28-1.27a19.43,19.43,0,0,0,1.34-1.46c.28-.33.52-.61,1.09-1.18s1-1,1.32-1.41.55-.62,1.13-1.21l2.53-2.53a11.29,11.29,0,0,1,1.15-1,13,13,0,0,0,1.53-1.36,17.16,17.16,0,0,0,1.35-1.49,13.33,13.33,0,0,1,1.06-1.17,9,9,0,0,1,1.12-1A13,13,0,0,0,337.5,276c.69-.69,1-1.09,1.33-1.43s.53-.62,1.11-1.2l1.26-1.27,1.26-1.28c.6-.6.91-.88,1.23-1.17s.7-.64,1.37-1.31.93-.91,1.24-1.21.67-.64,1.32-1.29.93-.92,1.25-1.22l1.32-1.29a14,14,0,0,0,1.37-1.56,10.2,10.2,0,0,1,1-1.14c.57-.57.86-.82,1.19-1.1s.75-.64,1.44-1.33a13.77,13.77,0,0,0,1.36-1.54,12.31,12.31,0,0,1,1-1.15,9.43,9.43,0,0,1,1.13-1,13.23,13.23,0,0,0,1.57-1.38,12.45,12.45,0,0,0,1.39-1.59,8.89,8.89,0,0,1,1-1.13,12.06,12.06,0,0,1,1.15-1,15.1,15.1,0,0,0,1.54-1.36c.62-.62.94-.92,1.25-1.22s.67-.64,1.33-1.3a19.43,19.43,0,0,0,1.34-1.46c.28-.33.52-.62,1.09-1.19a12.36,12.36,0,0,0,2.27-3.27l.24-.46a10.39,10.39,0,0,0,1.26-3.28A10.94,10.94,0,0,0,373.93,232.26ZM234,152.31a3.88,3.88,0,0,0,.31-1.09,4.14,4.14,0,0,0,0-1.07.22.22,0,0,1,0-.08l.09-.15a5.17,5.17,0,0,0,.38-.74l.13-.3a5.38,5.38,0,0,1,.31-.67l.22-.38a4.84,4.84,0,0,1,.32-.53,3.53,3.53,0,0,1,.3-.25c.18-.14.36-.29.53-.45a6.09,6.09,0,0,0,.58-.66,1.76,1.76,0,0,0,.13-.18,8.23,8.23,0,0,1,.78-.45l.16-.08a2.44,2.44,0,0,1,.44-.15c.2-.06.39-.12.57-.19a4.52,4.52,0,0,1,.72-.17l.31-.07.54-.13a3.93,3.93,0,0,1,.5-.11l.39,0,.59,0,.25.09a4.63,4.63,0,0,0,.84.27,4.5,4.5,0,0,0,1,.09h.22a5.92,5.92,0,0,1,.83.35c.08.06.15.14.23.21a7.13,7.13,0,0,0,.58.53,5.21,5.21,0,0,0,.55.36s0,.05.06.07l.51.52a4.94,4.94,0,0,0,.32.55l.14.2a4.84,4.84,0,0,1,.43.67c.1.19.2.37.31.55a1.72,1.72,0,0,1,.31,1c0,.15,0,.3.07.44s.05.29.08.44a4.61,4.61,0,0,1,.09.62,7,7,0,0,1-.07.81l0,.26a3.81,3.81,0,0,1-.14.52c-.06.17-.11.34-.14.46s-.09.16-.14.24a6.72,6.72,0,0,0-.4.75,4.94,4.94,0,0,0-.28,1.06.2.2,0,0,1,0,.07l-.11.1a5.76,5.76,0,0,0-.59.62,5.46,5.46,0,0,1-.48.47l-.29.27a6.27,6.27,0,0,0-.49.53,1.9,1.9,0,0,1-.24.25c-.17.13-.34.26-.5.4a3.39,3.39,0,0,1-.35.27,7.55,7.55,0,0,1-1,.45,6.49,6.49,0,0,1-1.09.29h-.25a6.77,6.77,0,0,0-.78,0l-.62.07a3,3,0,0,1-.42.05h-.15a6.53,6.53,0,0,1-.85-.09l-.15-.09a4.31,4.31,0,0,0-.87-.45,5.48,5.48,0,0,0-.72-.22l-.29-.08a3.52,3.52,0,0,1-.31-.26l-.48-.42a2.46,2.46,0,0,1-.34-.36l-.36-.39a8.12,8.12,0,0,1-.65-.78l-.18-.26a4.68,4.68,0,0,1-.38-.59c-.09-.18-.19-.35-.28-.51a3.23,3.23,0,0,1-.21-.41,6.41,6.41,0,0,1-.27-1c0-.17-.07-.34-.1-.51s-.06-.29-.08-.41Zm17.81,3.61a2,2,0,0,1,.14-.25,4.43,4.43,0,0,0,.56-1.21l.11-.35a6.52,6.52,0,0,0,.3-1.23l0-.24s0-.06,0-.09l.63.64,1,1c.52.52.78.76,1,1l.42.4c0,.17-.07.35-.1.52l-.06.4a7.41,7.41,0,0,0-.15,1.57c0,.13,0,.26,0,.39a7.29,7.29,0,0,0,.13,1.62,6.77,6.77,0,0,0,.55,1.48l.18.4a10.27,10.27,0,0,0,.89,1.8l.14.21a9.2,9.2,0,0,0,1.05,1.42c.12.12.24.24.36.34a8.58,8.58,0,0,1-1.51,2.07,8.88,8.88,0,0,1-2.4,1.67l-.12-.13a1.88,1.88,0,0,0-.76-.46,7.39,7.39,0,0,0-.79-.62c-.12-.08-.23-.18-.34-.27a5.69,5.69,0,0,0-1.32-.86,7.14,7.14,0,0,0-1.54-.45l-.39-.08-.42-.12a6.36,6.36,0,0,0-1.53-.33,5.47,5.47,0,0,0-1.57.18c-.14,0-.27.07-.41.09h-.45l-1.58-1.57c-.51-.52-.78-.77-1-1l-.77-.73h.19a5.13,5.13,0,0,0,1.32-.08,11.79,11.79,0,0,0,1.57-.44,12.75,12.75,0,0,0,1.49-.67,5.87,5.87,0,0,0,1-.73L248,161a4.81,4.81,0,0,0,.91-.88c.08-.08.15-.17.24-.25l.23-.22a7,7,0,0,0,.89-.91,2.08,2.08,0,0,1,.21-.21,4.37,4.37,0,0,0,.87-1,4,4,0,0,0,.48-1.46C251.82,156,251.82,155.9,251.81,155.92Zm-3.95,33.15a7,7,0,0,0,1.52-.38l.4-.13a11.91,11.91,0,0,0,1.86-.67l.21-.1a10.52,10.52,0,0,0,1.53-.86,7.11,7.11,0,0,0,1.11-1.05l.31-.33a11.22,11.22,0,0,0,1.29-1.48,11.5,11.5,0,0,0,1-1.69,9.34,9.34,0,0,0,.53-1.53l.09-.34a11.86,11.86,0,0,0,.41-1.92l0-.3.83.82,1,.95c.48.48.71.73.95,1s.49.51,1,1l1.4,1.4a2.2,2.2,0,0,0,.3.4l.25.25a3.81,3.81,0,0,1,.54.58,6.35,6.35,0,0,1,.49,1l.08.19a6.21,6.21,0,0,1,.31.92c0,.17.06.34.1.51a3.91,3.91,0,0,1,.11.7,5.9,5.9,0,0,1-.12.9l-.06.34a5,5,0,0,1-.21.61c-.08.19-.15.37-.22.57l-.07.21a7.11,7.11,0,0,1-.38,1,5.42,5.42,0,0,1-.52.73l-.22.3a6.89,6.89,0,0,0-.46.73c-.08.13-.19.32-.23.37a9,9,0,0,1-.82.66l-.56.43a7,7,0,0,1-.63.45,1.76,1.76,0,0,1-.33.07,5.08,5.08,0,0,0-1,.22,8.24,8.24,0,0,0-.81.35c-.13.06-.3.15-.35.16a3,3,0,0,1-.49,0c-.25,0-.5,0-.74,0h0a5.86,5.86,0,0,0-.93.09l-.3,0a7.11,7.11,0,0,1-.92-.31l-.21-.09a4.06,4.06,0,0,1-.36-.26c-.19-.15-.39-.3-.59-.43l-.36-.23a3.8,3.8,0,0,1-.6-.42,2.11,2.11,0,0,0-.23-.19l-.52-.52-1-1c-.47-.47-.69-.71-.92-.95s-.49-.53-1-1.05-.79-.77-1.06-1l-.64-.6Zm-.46-4a4.22,4.22,0,0,1-.87,0l-.43,0a5,5,0,0,1-.84-.17l-.41-.11a7.24,7.24,0,0,1-1.19-.4l-.33-.15a4.48,4.48,0,0,1-.82-.4,8,8,0,0,1-1-.79,4.09,4.09,0,0,1-.31-.48c-.12-.2-.24-.41-.37-.6l-.14-.2a5.61,5.61,0,0,1-.53-.86l-.17-.37a4.26,4.26,0,0,1-.33-.8,4.32,4.32,0,0,1-.07-.8c0-.16,0-.33,0-.49a6.2,6.2,0,0,0-.08-.74,3.43,3.43,0,0,1,0-.56,9.06,9.06,0,0,1,.25-1.26c0-.06.14-.22.22-.34.17-.27.34-.53.48-.81s.18-.4.27-.61a3.91,3.91,0,0,1,.27-.57,8.4,8.4,0,0,1,.85-1l.36-.36a4.14,4.14,0,0,1,.57-.56,3.21,3.21,0,0,1,.41-.16,6.83,6.83,0,0,0,.83-.33,5.78,5.78,0,0,0,.8-.47l.31-.2h.75q.3,0,.6,0a6.35,6.35,0,0,0,.85-.16l.42-.09a3.86,3.86,0,0,1,.59.16l.67.19.55.12a4.49,4.49,0,0,1,.7.17c.07,0,.27.2.41.31s.39.32.6.46a7,7,0,0,1,.95.82,6.3,6.3,0,0,0,.68.58,3.84,3.84,0,0,1,.3.25,6.54,6.54,0,0,1,.65,1.09c0,.06,0,.27.06.41a6.6,6.6,0,0,0,.14.89c.05.2.11.4.16.6a3.28,3.28,0,0,1,.16.64,5.65,5.65,0,0,1-.07.83l-.06.45a7.18,7.18,0,0,1-.27,1.26l-.11.42a5.24,5.24,0,0,1-.27.82,8.94,8.94,0,0,1-.67,1.12,8.65,8.65,0,0,1-.87,1l-.45.48a3.42,3.42,0,0,1-.47.47,6.07,6.07,0,0,1-.93.51l-.23.11a8.32,8.32,0,0,1-1.23.43l-.56.18A4.11,4.11,0,0,1,247.4,185.1Zm-18.49-21.85a4.37,4.37,0,0,0,.84-1.15.56.56,0,0,1,.15-.12,4.57,4.57,0,0,0,1-.76,8.54,8.54,0,0,0,.63-.7,3.63,3.63,0,0,1,.32-.35c.22-.23.34-.34.46-.45l.51-.5a2.06,2.06,0,0,0,.43.68l1,1,1,1c.49.49.72.74,1,1l1,1,2,2c.52.52.79.77,1.06,1s.48.44.94.9l.17.17a4.83,4.83,0,0,0-.88.48,8,8,0,0,0-1.15,1.06l-.29.29a13.34,13.34,0,0,0-1.27,1.51,4.93,4.93,0,0,0-.34.56l-.16-.16c-.52-.52-.79-.77-1.07-1s-.48-.43-.93-.89-.73-.74-1-1-.48-.5-1-1-.78-.75-1-1l-1-.92c-.44-.45-.65-.68-.86-.92a13,13,0,0,0-.93-1,4.64,4.64,0,0,0-.6-.51Zm.35,16.84a13.17,13.17,0,0,0,2.58-3.66,8,8,0,0,0,.49-1.76c0-.14,0-.28.08-.42a4.3,4.3,0,0,0,0-1.63c.45.45.72.69,1,.92s.48.43.93.89.7.71.92.95l.34.36q-.09.47-.15.93a6.36,6.36,0,0,0,.07,1.56c0,.14,0,.29,0,.43s0,.25,0,.38a7.33,7.33,0,0,0,.17,1.6,8.11,8.11,0,0,0,.59,1.55l.14.32a9.25,9.25,0,0,0,.91,1.52l.12.18c.08.11.15.23.22.35a6.36,6.36,0,0,0,.77,1.1.48.48,0,0,0,.09.11l.21.21a9,9,0,0,1-1.55,2.11,8.51,8.51,0,0,1-2.13,1.56l-.2-.21-.11-.08a10.55,10.55,0,0,0-1.55-1.3,8.32,8.32,0,0,0-1.78-.84l-.27-.11a10.56,10.56,0,0,0-4.08-.78h-.3a10,10,0,0,0-1.78.25l-.38-.4c-.25-.27-.5-.54-1-1.06s-.76-.76-1-1l-.65-.63a9.61,9.61,0,0,0,.93-.28,3.07,3.07,0,0,1,.46-.15,3.41,3.41,0,0,1,.46-.05,5.44,5.44,0,0,0,1.75-.37,5.56,5.56,0,0,0,1.44-1,3.79,3.79,0,0,1,.39-.31,4.23,4.23,0,0,1,.42-.25A5.67,5.67,0,0,0,229.26,180.09Zm-.69,28.8.4-.1.18,0a10.13,10.13,0,0,0,2-.58,10.4,10.4,0,0,0,1.82-1.07L233,207a12.23,12.23,0,0,0,1.66-1.45l.31-.3a8.23,8.23,0,0,0,1.19-1.32,11.75,11.75,0,0,0,1.06-2,11.41,11.41,0,0,0,.63-2.12,10.91,10.91,0,0,0,.22-1.52l.83.82,1,.95,1,1c.25.26.49.51,1,1l2,2,.16.13a.75.75,0,0,0,.07.12l.32.52a5.14,5.14,0,0,1,.53.92,3.33,3.33,0,0,1,.12.64c0,.17,0,.35.09.52l0,.22a5.43,5.43,0,0,1,.12,1c0,.24,0,.49,0,.74a2.26,2.26,0,0,1,0,.5,2.22,2.22,0,0,1-.17.4c-.12.25-.23.51-.33.77s-.15.51-.21.78a2.88,2.88,0,0,1-.13.45,8,8,0,0,1-.66,1.08,3.5,3.5,0,0,1-.3.24,7,7,0,0,0-.72.61,11.69,11.69,0,0,1-1,.82c-.18.13-.34.26-.51.4a4.42,4.42,0,0,1-.5.38,5.28,5.28,0,0,1-.79.3l-.39.13a8,8,0,0,1-1.2.33c-.24,0-.47.1-.7.15a3.05,3.05,0,0,1-.52.11h0a3.83,3.83,0,0,1-.59-.11l-.61-.13a5.65,5.65,0,0,1-1.15-.29,5.57,5.57,0,0,1-1-.53l-.46-.28-.12-.07a1.58,1.58,0,0,0-.12-.15l-.94-.95-1-1c-.47-.46-.69-.7-.91-.94s-.5-.54-1-1.06-.79-.77-1.06-1-.39-.35-.69-.65C227.87,209.05,228.24,209,228.57,208.89Zm-1.9-3.7h-.19a6.81,6.81,0,0,1-1.27-.11,3.48,3.48,0,0,1-.71-.27l-.63-.27-.34-.13a6.13,6.13,0,0,1-1-.43,7.4,7.4,0,0,1-1.11-.9,6.43,6.43,0,0,1-.88-1.13,6.75,6.75,0,0,1-.69-1.25,7.28,7.28,0,0,1-.32-1.4l-.05-.28a6,6,0,0,1-.14-1.16,4.33,4.33,0,0,1,.18-.92l.12-.51a7.82,7.82,0,0,1,.45-1.37c.09-.19.16-.39.24-.59a4.25,4.25,0,0,1,.35-.76,4.67,4.67,0,0,1,.67-.71c.12-.12.24-.23.41-.41a8.3,8.3,0,0,1,1-.93,8.1,8.1,0,0,1,1.18-.59l.13-.06a8.72,8.72,0,0,1,1.46-.46,7.63,7.63,0,0,1,1.36-.22h.19a7.61,7.61,0,0,1,1.25.1,7.38,7.38,0,0,1,1.38.41l.3.11a5.37,5.37,0,0,1,1,.46,7.19,7.19,0,0,1,1.09,1,6.83,6.83,0,0,1,.88,1.12l.13.19a7.27,7.27,0,0,1,.61,1.05,8.25,8.25,0,0,1,.32,1.41,8.14,8.14,0,0,1,0,1.45A7.6,7.6,0,0,1,234,199a6.89,6.89,0,0,1-1.08,2.67,5.61,5.61,0,0,1-.65.69l-.38.37a8.28,8.28,0,0,1-1.09,1l-.09.06a8.66,8.66,0,0,1-1.16.71,8.35,8.35,0,0,1-1.22.34l-.19,0-.5.12A5.32,5.32,0,0,1,226.67,205.19Zm-12.84-32a6.67,6.67,0,0,0,.12-1,6.54,6.54,0,0,1,.18-1.08l.08-.32c.06-.28.1-.57.14-.86a3.53,3.53,0,0,1,.1-.58l.07-.17a8.34,8.34,0,0,1,.58-1.16l.24-.35a8.65,8.65,0,0,1,.57-.79,2.67,2.67,0,0,1,.26-.09,5,5,0,0,0,1.23-.57,5.22,5.22,0,0,0,1-1l.06-.08h.13a5.17,5.17,0,0,0,1.34-.08,6.5,6.5,0,0,1,1.4-.14l.51,0a4,4,0,0,1,.91,0,4.46,4.46,0,0,1,.52.23,7.6,7.6,0,0,0,.76.35,5.92,5.92,0,0,0,.91.27,3.65,3.65,0,0,1,.44.13l.55.33.44.28a1.13,1.13,0,0,0,.1.13c.4.4.61.63.8.84l.19.24c0,.1,0,.2,0,.3a5.57,5.57,0,0,0,.29,1.2,4.13,4.13,0,0,0,.86,1.29,4.28,4.28,0,0,0-.31,1.42,5.09,5.09,0,0,0,.09,1.1c0,.15,0,.35,0,.37,0,.17-.07.34-.11.52a4.65,4.65,0,0,1-.23.93,8.77,8.77,0,0,1-.77,1.29,8.18,8.18,0,0,1-1,1.14,3,3,0,0,1-.52.32c-.26.15-.52.29-.76.46a6.8,6.8,0,0,0-.73.57,3.38,3.38,0,0,1-.43.34,2.6,2.6,0,0,1-.49.06,7,7,0,0,0-1,.14,8.22,8.22,0,0,0-.93.28,4.43,4.43,0,0,1-.49.16h-.17a8.25,8.25,0,0,1-1.3-.11,4.52,4.52,0,0,1-.56-.25,7.59,7.59,0,0,0-.77-.35,7,7,0,0,0-.95-.28l-.31-.08-.08-.08-.06-.1a4.87,4.87,0,0,0-.81-1.14l-.49-.46a4,4,0,0,1-.51-.51,6.94,6.94,0,0,1-.61-1.26,5.78,5.78,0,0,0-.5-1,2.4,2.4,0,0,0-.19-.31A2.58,2.58,0,0,1,213.83,173.21Zm-5.07,9.84a2.4,2.4,0,0,1,.3-.26,6.72,6.72,0,0,0,.77-.67l.29-.25a7,7,0,0,0,.78-.67l1-1a6.8,6.8,0,0,0,.61-.68,1.84,1.84,0,0,0,.42.67,11.78,11.78,0,0,0,1,1,3.11,3.11,0,0,0,.72.67l0,0,.24.23c.46.46.67.7.89.93s.5.55,1,1.08l1,1c.24.22.48.45.94.92s.76.75,1,1l1,.94c.06.06.1.11.16.16a3.78,3.78,0,0,0-.43.26,11.1,11.1,0,0,0-1.65,1.46l-.3.29a8,8,0,0,0-1.2,1.34,2.92,2.92,0,0,0-.25.4l-.12-.11-1-1c-.24-.25-.49-.51-1-1l-1-1-1-1c-.49-.48-.72-.72-1-1l-1-1c-.46-.46-.68-.7-.9-.94l-.31-.32,0-.05-.66-.68a1.71,1.71,0,0,0-.26-.21l-.44-.37A1.42,1.42,0,0,1,208.76,183.05Zm-3.3,42.25-.5-.09a7.38,7.38,0,0,1-1.36-.39l-.55-.2a3.61,3.61,0,0,1-.79-.33,5.34,5.34,0,0,1-.74-.68l-.3-.31a7.38,7.38,0,0,1-.94-1.07,6.64,6.64,0,0,1-.64-1.28,7.9,7.9,0,0,1-.42-1.37,7.53,7.53,0,0,1-.09-1.45,4.56,4.56,0,0,1,.18-.95c0-.15.07-.31.11-.48s.08-.42.12-.63a4.3,4.3,0,0,1,.19-.8,8.51,8.51,0,0,1,.74-1.27,8.34,8.34,0,0,1,.95-1.12,7.61,7.61,0,0,1,1.15-.93l.24-.17a7.06,7.06,0,0,1,1-.62,7.38,7.38,0,0,1,2.87-.51h.2a7.29,7.29,0,0,1,1.23.1,7.77,7.77,0,0,1,1.4.33,7.27,7.27,0,0,1,1.28.63,5.08,5.08,0,0,1,.71.66l.33.33a8.17,8.17,0,0,1,.93,1.07,7.41,7.41,0,0,1,.71,1.24,6.81,6.81,0,0,1,.29,1.25l0,.15c0,.17.06.33.1.5a5.63,5.63,0,0,1,.13.94,8.11,8.11,0,0,1-.19,1.46,3.55,3.55,0,0,1-.3.68c-.11.22-.22.43-.31.66l-.16.37a6,6,0,0,1-.46.95,8.41,8.41,0,0,1-.94,1.13,8,8,0,0,1-1.15.93,8.32,8.32,0,0,1-1.26.74,7.72,7.72,0,0,1-1.41.39l-.28.07a6.48,6.48,0,0,1-1.15.2l0,2v-2A5.11,5.11,0,0,1,205.46,225.3Zm3,3.82.33-.07a11.43,11.43,0,0,0,2.06-.61,12.49,12.49,0,0,0,1.92-1.11,12.7,12.7,0,0,0,1.72-1.4,11.55,11.55,0,0,0,1.41-1.71,9.64,9.64,0,0,0,.85-1.65l.13-.33c.07-.15.14-.29.22-.44a6.92,6.92,0,0,0,.64-1.62,11.58,11.58,0,0,0,.21-1.42l.61.59.94.94.94,1,1,1,1.91,1.92a1.49,1.49,0,0,0,.14.12,5.92,5.92,0,0,1,.6.76,4.53,4.53,0,0,1,.39.87l.07.18a6,6,0,0,1,.29,1.13,6.67,6.67,0,0,1,.13,1.19c0,.24,0,.49,0,.74a2.17,2.17,0,0,1,0,.49l-.06.36a5.34,5.34,0,0,1-.18.89,3.47,3.47,0,0,1-.3.53l-.34.59a7.13,7.13,0,0,1-.61.89l-.16.22a8.64,8.64,0,0,1-.76.93c-.15.15-.3.31-.44.47a5.24,5.24,0,0,1-.46.47,8.68,8.68,0,0,1-.94.55l-.18.09a6.44,6.44,0,0,1-.88.35l-.31.1-.6.23a3.6,3.6,0,0,1-.59.21,3.09,3.09,0,0,1-.6,0l-.65,0h0a5.87,5.87,0,0,1-1-.13l-.19,0a5.88,5.88,0,0,1-1.13-.3l-.44-.16a3.55,3.55,0,0,1-.65-.27l-.62-.44a1.92,1.92,0,0,0-.26-.32l-.93-.94-1-1c-.45-.45-.67-.68-.89-.92s-.48-.52-1-1-.78-.76-1-1l-.61-.57C207.64,229.29,208.07,229.21,208.45,229.12Zm6.33-19.28a.46.46,0,0,0-.07-.07,2,2,0,0,0-.52-.37,7,7,0,0,0-1.21-1,10.56,10.56,0,0,0-2-1,11.41,11.41,0,0,0-2.17-.54,11.11,11.11,0,0,0-1.91-.16h-.38c-.43,0-.9,0-1.41.09l-.58-.57c-.25-.23-.49-.47-1-.94l-1-1-.88-.89a.71.71,0,0,1,.2,0h.4a4.91,4.91,0,0,0,1.2-.12,5,5,0,0,0,1.2-.49c.1-.05.19-.11.29-.15a2.63,2.63,0,0,1,.3-.09,5.14,5.14,0,0,0,1.2-.46l.31-.16a8.12,8.12,0,0,0,1.09-.66,6.88,6.88,0,0,0,.9-.86l.26-.28a6.65,6.65,0,0,0,.78-1c.07-.09.13-.19.16-.23l.17-.14a4,4,0,0,0,1-1.11,11.26,11.26,0,0,0,.7-1.48,3.67,3.67,0,0,0,.22-1.52v-.13c0-.05,0-.09.07-.14a4.13,4.13,0,0,0,.44-1.39h0l.63.64c.25.25.49.51,1,1l1,1,.48.5a7.63,7.63,0,0,0-.28,1.72,9,9,0,0,0,.2,2l.05.28a8.8,8.8,0,0,0,1.6,4.14,11.74,11.74,0,0,0,1,1.29,1.87,1.87,0,0,0,.32.42c.07.08.14.14.2.2a8.44,8.44,0,0,1-1.54,2.12A8.32,8.32,0,0,1,214.78,209.84Zm-21.12-17.32a5.39,5.39,0,0,0,.13-.77c0-.16,0-.32,0-.48s0-.45,0-.52a1.34,1.34,0,0,1,.13-.23,5.54,5.54,0,0,0,.4-.78,4.53,4.53,0,0,0,.25-1,.22.22,0,0,0,0-.08l.06,0a5.56,5.56,0,0,0,.71-.73,7,7,0,0,1,.56-.6l.16-.16a4.81,4.81,0,0,0,.61-.77l.1-.14c.09-.06.24-.13.37-.2a5.12,5.12,0,0,0,.52-.27,5.87,5.87,0,0,0,.59-.37l.27-.18h.18a4.8,4.8,0,0,0,1-.12l.45-.12a3.64,3.64,0,0,1,.57-.13,6,6,0,0,1,1,0H202l.54,0,.31,0,.35.15.63.26a5.6,5.6,0,0,1,.8.38l.13.07.5.24a2.79,2.79,0,0,1,.43.22,6.55,6.55,0,0,1,.81.65l.15.15.24.24.08.08c.08.08.15.17.21.24a.7.7,0,0,1,.06.19,5.77,5.77,0,0,0,.35.86,7.22,7.22,0,0,1,.4.93l.15.42a5.32,5.32,0,0,1,.19.56,8.77,8.77,0,0,1,.09,1,4.83,4.83,0,0,0,.13.9,1,1,0,0,0,0,.12s0,0,0,.08a5.23,5.23,0,0,0-.37,1,4.38,4.38,0,0,0-.1,1.12s0,.08,0,.12a7.34,7.34,0,0,1-.35.74l-.11.09a5,5,0,0,0-.77.77c-.11.14-.21.28-.31.43a3,3,0,0,1-.32.42l-.39.41a2.57,2.57,0,0,1-.36.37,3.18,3.18,0,0,1-.51.29l-.42.23a1.7,1.7,0,0,1-.32.1,5.19,5.19,0,0,0-.7.22c-.24.1-.47.22-.7.34l-.25.13a1.22,1.22,0,0,1-.27,0h-.15c-.22,0-.43,0-.65,0a6.39,6.39,0,0,0-.85.17l-.19.06h-.92a.75.75,0,0,1-.15,0l-.39-.15c-.2-.09-.41-.18-.61-.25a8.67,8.67,0,0,1-.84-.4l-.1-.06a6.73,6.73,0,0,1-.89-.53l-.24-.17-.61-.62a1.55,1.55,0,0,0-.24-.19c-.11-.18-.22-.36-.34-.53a7,7,0,0,1-.56-.87,6.79,6.79,0,0,0-.42-.67l-.15-.22a2.35,2.35,0,0,1,0-.38c0-.23-.05-.46-.1-.68a5.78,5.78,0,0,0-.17-.69c0-.12-.08-.24-.09-.32S193.64,192.63,193.66,192.52Zm-4.72,10.7a4.17,4.17,0,0,0,.82-1.16,4.07,4.07,0,0,0,1.19-.83,4.2,4.2,0,0,0,.83-1.17.61.61,0,0,1,.15-.11l.4-.27a3.82,3.82,0,0,0,.56.7,5.07,5.07,0,0,0,.8.66l.12.12c.24.27.49.54,1,1.05s.71.73,1,1l1,1c.53.53.81.78,1.09,1s.47.43.92.87l1,1c.25.26.49.51,1,1l.19.18-.38.25-.22.16a11.34,11.34,0,0,0-1.72,1.4,13.27,13.27,0,0,0-1.42,1.69l-.25.38-.25-.26c-.49-.49-.73-.73-1-1l-.95-.94-1-1-.93-.91c-.45-.45-.66-.68-.88-.91s-.48-.54-1-1-.68-.69-.9-.93l-1-1a2,2,0,0,0-.38-.29l-.21-.26A5.06,5.06,0,0,0,188.94,203.22Zm6.34,17a10.78,10.78,0,0,0,.64,2.16,10.23,10.23,0,0,0,1,2,8.21,8.21,0,0,0,1,1.22,1.75,1.75,0,0,0,.37.53l.15.15a8.33,8.33,0,0,1-1.54,2.12c-2.94,2.94-7.39,3.29-9.91.78h0l-1-1-.95-.94c-.49-.49-.75-.73-1-1l-.94-.92c-.47-.47-.7-.71-.93-.95l-.62-.63h.09a4.19,4.19,0,0,0,1.34-.4l.22-.09.33-.07a7,7,0,0,0,1.22-.34,11.25,11.25,0,0,0,1.43-.72l.3-.13a5.83,5.83,0,0,0,1.13-.63l.2-.15a9.65,9.65,0,0,0,1.06-.88,5,5,0,0,0,.77-1.08c.05-.08.1-.17.16-.25a2.18,2.18,0,0,1,.21-.22,5,5,0,0,0,.82-1,5.22,5.22,0,0,0,.47-1.22,2.8,2.8,0,0,1,.09-.31,2,2,0,0,1,.15-.29,5.26,5.26,0,0,0,.5-1.21,7.22,7.22,0,0,0,.15-1.26,2.06,2.06,0,0,1,0-.36.22.22,0,0,1,0-.08l.66.65c.24.23.48.46.94.93s.67.69.89.92.37.4.67.7a8.39,8.39,0,0,0-.27,1.71A11.61,11.61,0,0,0,195.28,220.25Zm-21.89-7.58c0-.22.07-.44.09-.66a8.24,8.24,0,0,1,.17-1c0-.16.07-.33.11-.5a4,4,0,0,1,.12-.53,2.22,2.22,0,0,1,.19-.27,5.54,5.54,0,0,0,.42-.65,8.13,8.13,0,0,1,.5-.69l.13-.17a6.92,6.92,0,0,1,.68-.81c.18-.18.34-.38.51-.58a2.73,2.73,0,0,1,.2-.25l.34-.17a6.09,6.09,0,0,0,.63-.3,6.91,6.91,0,0,1,1-.47,5.49,5.49,0,0,0,.73-.36l.24-.13h.38c.24,0,.47,0,.7,0l.71-.11.33-.07c.11,0,.21.06.32.09a6.21,6.21,0,0,0,.74.2l.46.08.51.08.21.16a6.44,6.44,0,0,0,.73.47,4.77,4.77,0,0,0,.92.35l.07,0,0,.05a6.3,6.3,0,0,0,.62.79,5.47,5.47,0,0,1,.52.64l.11.16c.15.19.31.37.47.55a2.12,2.12,0,0,1,.2.24,6.84,6.84,0,0,1,.43.94,5.58,5.58,0,0,0,.31.72c0,.1.1.19.12.26a7.86,7.86,0,0,1,.13,1.06c0,.12,0,.24-.06.36s-.09.48-.12.71l0,.6c0,.17,0,.39,0,.44a1.55,1.55,0,0,1-.14.29,6.82,6.82,0,0,0-.35.72c-.09.23-.16.47-.23.72s-.05.22-.07.27a1.45,1.45,0,0,1-.21.22,6.31,6.31,0,0,0-.54.62,5.34,5.34,0,0,0-.45.68,2.39,2.39,0,0,1-.13.24,6.34,6.34,0,0,1-.62.5l-.23.17a1.17,1.17,0,0,1-.32.15,6.54,6.54,0,0,0-.65.32,8.44,8.44,0,0,1-.94.48,4,4,0,0,1-.57.14l-.46.1a5.06,5.06,0,0,0-.88.32l-.16.07-.23,0c-.27,0-.53-.08-.8-.1h-.38a4,4,0,0,1-.66,0l-.31-.06-.64-.12c-.07,0-.13-.1-.2-.15a6.85,6.85,0,0,0-.74-.48l-.57-.27c-.13-.06-.31-.13-.37-.17s-.31-.22-.47-.33l-.18-.12-.21-.2-.13-.11c-.1-.12-.2-.25-.31-.41l-.19-.27a3.25,3.25,0,0,1-.18-.37,5.77,5.77,0,0,0-.27-.56,5,5,0,0,0-.47-.73l-.14-.18c-.12-.36-.24-.7-.3-1a8.7,8.7,0,0,1-.15-1.06A2.88,2.88,0,0,1,173.39,212.67Zm-31.71,39.48a4.75,4.75,0,0,1,.13-.69,7.25,7.25,0,0,0,.17-.78,7.44,7.44,0,0,1,.2-.78c.06-.22.13-.45.18-.67q.18-.72.42-1.44c.07-.24.14-.49.2-.73a5.79,5.79,0,0,1,.21-.71c.1-.24.18-.49.27-.74a4.28,4.28,0,0,1,.24-.66,1.63,1.63,0,0,1,.23-.29,5.21,5.21,0,0,0,.71-.94c.16-.29.29-.6.42-.9a2.91,2.91,0,0,1,.21-.48,5,5,0,0,1,.46-.57l.49-.6c.24-.32.51-.62.78-.92l.19-.22c.33-.38.69-.74,1-1.09s.44-.4.66-.58l.48-.41c.19-.16.37-.34.56-.52a6.39,6.39,0,0,1,.54-.5c.41-.3.8-.61,1.22-.88.25-.17.49-.36.73-.56a4,4,0,0,1,.45-.34,1.21,1.21,0,0,1,.34-.09,5.47,5.47,0,0,0,1.15-.38,6.88,6.88,0,0,0,.9-.54,4,4,0,0,1,.38-.25l.41-.07a5.91,5.91,0,0,0,1.08-.22c.25-.08.49-.18.73-.27a4.84,4.84,0,0,1,.67-.23,8.56,8.56,0,0,1,1-.19l.46-.07c.49-.09,1-.17,1.47-.22a5.88,5.88,0,0,0,1.05-.21,2.37,2.37,0,0,1,.45-.09,4.2,4.2,0,0,1,.61.06l.85.09a5.5,5.5,0,0,1,.65.11c.27,0,.54.11.82.15a5.36,5.36,0,0,0,1.2,0l.24,0,.14.1a4.71,4.71,0,0,0,1.26.65,6.32,6.32,0,0,0,1.13.19,3.27,3.27,0,0,1,.35,0c.33.13.65.29,1,.45l.35.17.31.25a5.75,5.75,0,0,0,.88.65l.31.19c.31.18.63.36.93.57a5,5,0,0,0,1.17.58l.25.09,0,0a2.09,2.09,0,0,0,.39.56l1.16,1.16a3.88,3.88,0,0,0,.33.44,3.32,3.32,0,0,1,.25.43,7.15,7.15,0,0,0,.5.84l.31.43a7.81,7.81,0,0,1,.53.75,5.92,5.92,0,0,0,.7.92,2.32,2.32,0,0,1,.22.25c.14.29.25.59.36.89l.18.49a2.57,2.57,0,0,1,.08.43,6.68,6.68,0,0,0,.21,1.08c.14.45.27.89.37,1.36l.05.25c.09.4.17.79.22,1.19s.11.59.17.88a2.68,2.68,0,0,1,.11.59,7.87,7.87,0,0,1,0,1v.51c0,.15-.05.37-.09.6a8.49,8.49,0,0,0-.14.88,4.65,4.65,0,0,0,.09,1.31.59.59,0,0,0,.06.21,8,8,0,0,1-.21.81c-.06.21-.12.43-.15.59a1.69,1.69,0,0,1-.17.29,5.33,5.33,0,0,0-.54,1.12c-.15.48-.34.93-.52,1.39a4.66,4.66,0,0,0-.28,1.33c0,.08,0,.16,0,.23l-.23.28a6.83,6.83,0,0,0-.65.9,8.2,8.2,0,0,0-.43.95c-.06.16-.14.37-.16.4a3,3,0,0,1-.26.23,5.35,5.35,0,0,0-.87.86,6,6,0,0,0-.57.94c-.07.13-.17.31-.21.37l-.09.1c-.3.34-.6.69-.93,1l-.32.32c-.25.25-.5.51-.76.74s-.46.36-.7.54-.34.24-.5.37-.25.12-.39.19a6,6,0,0,0-1,.5c-.29.19-.59.36-.89.52l-.4.23c-.23.13-.46.28-.68.42a4.43,4.43,0,0,1-.59.36c-.45.22-.9.43-1.36.62a4,4,0,0,0-.36.17,13.28,13.28,0,0,0-.37-1.31,10.62,10.62,0,0,1-.32-1.12,6.8,6.8,0,0,1-.08-1.05,6.42,6.42,0,0,0-1-3.82,2,2,0,0,0-2.84-.34,2,2,0,0,0-.32,2.78,7,7,0,0,1,.17,1.55,11.66,11.66,0,0,0,.16,1.69,14.25,14.25,0,0,0,.43,1.54c.11.35.21.66.29,1h-.07c-.28.05-.56.12-.84.19a3.75,3.75,0,0,1-.61.13,7.09,7.09,0,0,0-1,.2,2.93,2.93,0,0,1-.45.09,2.45,2.45,0,0,1-.42-.08,6.78,6.78,0,0,0-1.07-.16l-.47,0h-.6a2.75,2.75,0,0,1-.41,0,2.59,2.59,0,0,1-.5-.15c-.31-.1-.61-.2-.93-.27a9.26,9.26,0,0,0-.92-.13,4.27,4.27,0,0,1-.54-.07c-.47-.14-.95-.28-1.4-.46a2.32,2.32,0,0,1-.33-.22,7.11,7.11,0,0,0-.92-.57,4.85,4.85,0,0,0-1.27-.38,1.09,1.09,0,0,1-.26-.05c-.37-.22-.77-.51-1.16-.78a4.76,4.76,0,0,1-.44-.41,7.41,7.41,0,0,0-.64-.61c-.06-.06-.19-.23-.3-.37a7.61,7.61,0,0,0-.64-.76,8.17,8.17,0,0,0-.72-.62,4.46,4.46,0,0,1-.4-.34c-.16-.19-.34-.38-.51-.57a5,5,0,0,1-.47-.53,2.6,2.6,0,0,1-.17-.39,6.07,6.07,0,0,0-.45-.95l-.21-.35a10.27,10.27,0,0,1-.51-.92c-.13-.25-.26-.49-.4-.72a4.66,4.66,0,0,1-.3-.57c-.08-.2-.16-.4-.25-.59a7.54,7.54,0,0,1-.3-.79,4.49,4.49,0,0,1-.09-.58,8.67,8.67,0,0,0-.13-.89,5.2,5.2,0,0,1-.1-.78c0-.23,0-.45-.07-.68a8.46,8.46,0,0,0-.16-.85,5,5,0,0,1-.11-.61,6.58,6.58,0,0,0-.13-1,3.17,3.17,0,0,1-.07-.51C141.61,253.16,141.63,252.65,141.68,252.15Zm43.65,1c0-.1,0-.2,0-.26a4.5,4.5,0,0,1,.08-.51,8,8,0,0,0,.16-1.25v-.45c0-.45,0-.9,0-1.34a7.62,7.62,0,0,0-.21-1.27,4.26,4.26,0,0,1-.1-.49c-.05-.4-.13-.79-.21-1.18l.06.05.19.25q.16.25.33.48a2.38,2.38,0,0,1,.23.41c.12.22.23.44.36.64s.41.69.6,1c.1.18.2.36.31.53a5.21,5.21,0,0,1,.28.52l.2.44c.1.22.21.44.29.66l.13.36c.1.26.19.52.26.77,0,.1,0,.2,0,.3a4.84,4.84,0,0,0,.1.93,5.2,5.2,0,0,0,.17.68c0,.17.09.33.12.51a2.63,2.63,0,0,1,0,.38,7.85,7.85,0,0,0,0,.84,5.88,5.88,0,0,0,.17,1,1.09,1.09,0,0,1,.06.25,1.77,1.77,0,0,1,0,.32,5.58,5.58,0,0,0-.13.9c0,.41-.07.81-.11,1.22s-.12.8-.19,1.21a7.71,7.71,0,0,0-.09.84,3.27,3.27,0,0,1,0,.39c-.06.23-.13.46-.21.68s-.11.33-.15.49-.12.26-.18.39a6.31,6.31,0,0,0-.33.75,5.2,5.2,0,0,0-.24,1c0,.09,0,.17,0,.2a1.73,1.73,0,0,1-.21.34,7.74,7.74,0,0,0-.43.73c-.08.15-.15.31-.23.47s-.2.43-.32.64a2.7,2.7,0,0,1-.25.34,6.36,6.36,0,0,0-.5.66l-.16.25c-.17.27-.33.53-.52.78l-.3.44c-.13.19-.26.39-.41.57a5.9,5.9,0,0,0-.5.73,3.48,3.48,0,0,1-.2.31l-.25.28c-.2.22-.39.44-.6.65s-.59.59-.89.87l-.69.56-.28.23-.95.72-.24.09a5.37,5.37,0,0,0-1,.46c-.2.13-.38.27-.57.41s-.29.21-.44.3c-.36.21-.72.41-1.08.59a6.44,6.44,0,0,0-.63.36c-.16.08-.3.18-.46.25-.38.16-.77.33-1.15.47a2.32,2.32,0,0,1-.38.07,8.45,8.45,0,0,0-.84.19c-.22.07-.45.12-.68.17l-.5.11-.41.1a7,7,0,0,1-.79.18,5.77,5.77,0,0,0-1,.32l-.16.07-.17,0a4.68,4.68,0,0,0-1.08-.09c-.26,0-.52,0-.77.09a2.3,2.3,0,0,1-.45.05l-.71,0a4.35,4.35,0,0,1-.49,0,1.29,1.29,0,0,1-.28-.08,5.39,5.39,0,0,0-.94-.23l-.53-.06-.67-.09c-.23-.05-.45-.12-.67-.19l-.49-.14-.6-.15a4,4,0,0,1-.57-.15l-.61-.19c-.18-.06-.37-.11-.54-.18l-.53-.22c-.19-.08-.4-.16-.56-.24l-.23-.2a5.4,5.4,0,0,0-1.49-1,3.41,3.41,0,0,1-.33-.17,1.84,1.84,0,0,1-.23-.25l-.23-.23a5,5,0,0,0,.86.2,7.25,7.25,0,0,0,.93.05h.86a2.7,2.7,0,0,1,.41.08,5.69,5.69,0,0,0,1.29.17h.08a5.8,5.8,0,0,0,1.34-.21,3.34,3.34,0,0,1,.43-.1,7.25,7.25,0,0,0,1.23-.24,4.64,4.64,0,0,1,.51-.11h.29a5,5,0,0,0,1.52-.07l.51-.11a12.1,12.1,0,0,0,1.22-.31,5.15,5.15,0,0,0,1.27-.64,2.23,2.23,0,0,1,.33-.2c.54-.22,1.07-.47,1.61-.73a8.33,8.33,0,0,0,1-.62c.15-.1.3-.2.46-.29l.37-.2c.39-.22.77-.44,1.15-.69.12-.07.25-.12.38-.18a5.85,5.85,0,0,0,1.19-.66c.13-.11.27-.21.41-.31.34-.25.68-.5,1-.78s.66-.61,1-.94l.29-.3c.39-.39.75-.8,1.11-1.21l.09-.1a5.47,5.47,0,0,0,.74-1.15,2.91,2.91,0,0,1,.2-.35,3,3,0,0,1,.26-.23,4.87,4.87,0,0,0,1-1,6.15,6.15,0,0,0,.58-1.2,3.12,3.12,0,0,1,.18-.42,4.08,4.08,0,0,1,.25-.33,5,5,0,0,0,.78-1.13,4.4,4.4,0,0,0,.37-1.55c0-.1,0-.19,0-.22.22-.55.43-1.09.61-1.64a2.19,2.19,0,0,1,.17-.29,4.9,4.9,0,0,0,.61-1.35c0-.17.09-.35.13-.52a9.08,9.08,0,0,0,.3-1.22A4.29,4.29,0,0,0,185.33,253.17Zm40.92,109.6a8.94,8.94,0,0,1-2.62-.83.6.6,0,0,0-.11-.06c-.27-.32-.6-.7-1.09-1.19-.79-.79-1.21-1.16-1.62-1.54s-.75-.66-1.45-1.37-1.25-1.18-1.68-1.55-.74-.64-1.43-1.33-1-1-1.34-1.43-.74-.86-1.54-1.66-1-1.05-1.33-1.43-.74-.86-1.55-1.67a15.65,15.65,0,0,0-1.82-1.59,10.64,10.64,0,0,1-1.37-1.19,10.94,10.94,0,0,1-1.17-1.37,15.6,15.6,0,0,0-1.6-1.84c-.79-.79-1.2-1.16-1.61-1.54s-.74-.67-1.45-1.38-1.28-1.2-1.69-1.55-.74-.63-1.42-1.31-1.09-1.1-1.44-1.47-.75-.79-1.52-1.55a14.73,14.73,0,0,1-1.23-1.39,17.08,17.08,0,0,0-1.58-1.77,14.92,14.92,0,0,0-1.83-1.6A10.57,10.57,0,0,1,189.4,328a11.88,11.88,0,0,1-1.21-1.38,16.61,16.61,0,0,0-1.58-1.8,19.49,19.49,0,0,0-1.77-1.58,11.88,11.88,0,0,1-1.39-1.24c-.69-.69-1-1.05-1.32-1.43s-.75-.86-1.55-1.67a19,19,0,0,0-1.79-1.58,11.88,11.88,0,0,1-1.38-1.21c-.73-.73-1.09-1.1-1.44-1.48s-.75-.78-1.51-1.54-1.09-1.1-1.45-1.48-.74-.78-1.51-1.54-1.05-1.08-1.39-1.46-.75-.81-1.53-1.59l-1.5-1.49-1.5-1.49c-.8-.8-1.24-1.18-1.66-1.54s-.74-.64-1.43-1.33a10.64,10.64,0,0,1-1.19-1.37,15.53,15.53,0,0,0-1.59-1.83,18.27,18.27,0,0,0-1.73-1.56,18.79,18.79,0,0,1-1.4-1.28,15.66,15.66,0,0,1-1.25-1.39,16.83,16.83,0,0,0-1.57-1.76l-3-3c-.8-.8-1.23-1.18-1.64-1.55s-.74-.65-1.44-1.35-1.25-1.18-1.68-1.55-.74-.63-1.43-1.31-1.1-1.11-1.47-1.49l-1.5-1.51a9.82,9.82,0,0,1-1.18-1.36,16.73,16.73,0,0,0-3.43-3.43,10.57,10.57,0,0,1-1.36-1.18c-.72-.71-1.07-1.09-1.41-1.46s-.57-.61-1-1.08a2.23,2.23,0,0,0-.4-.58l-.45-.42-.35-.32a2.55,2.55,0,0,1-.13-.29,7.21,7.21,0,0,0-.36-.74,5.06,5.06,0,0,0-.63-.84l-.05,0v-.08a5.19,5.19,0,0,0-.15-1,6.43,6.43,0,0,0-.35-.92c0-.07-.07-.13-.09-.19,0-.24,0-.53,0-.83v-.22a7,7,0,0,1,.09-.93l0-.18a11,11,0,0,1,.19-1.09,7.75,7.75,0,0,1,.3-.81l.09-.21a2,2,0,0,1,.2-.3,7.49,7.49,0,0,0,.41-.63,5.16,5.16,0,0,0,.41-.92L132,260l.15-.12a6.42,6.42,0,0,0,.69-.58c.32-.32.46-.49.61-.66a3.41,3.41,0,0,1,.36-.39c.2-.21.31-.31.42-.41s.32-.28.62-.57a4.79,4.79,0,0,0,.79-1l.08-.11.41-.39a8,8,0,0,0,.63-.58,1.83,1.83,0,0,1,.25-.22,6.52,6.52,0,0,0,.68-.54c0,.18.05.36.08.51a3.54,3.54,0,0,1,.07.47,7,7,0,0,0,.2,1.25c0,.17.07.34.09.51s0,.34.06.51a9,9,0,0,0,.17,1.26c0,.16,0,.33.07.5a8,8,0,0,0,.22,1.28c.14.45.31.85.46,1.21.07.16.14.31.2.47a6.84,6.84,0,0,0,.58,1.15c.08.15.17.29.24.44.23.46.47.86.7,1.25l.19.31c.07.12.11.26.17.39a5.37,5.37,0,0,0,.63,1.24,8.49,8.49,0,0,0,.83,1l.36.39a5.35,5.35,0,0,0,.69.67,2,2,0,0,0,.44.66c.52.52.8.78,1.06,1l1,1c.53.53.8.78,1.07,1s.51.49,1,1l2.06,2.05,1,1,.59.63h0l.45.45a1.7,1.7,0,0,0,.55.38l.15.12a2.85,2.85,0,0,1,.23.26,6.6,6.6,0,0,0,.84.8,5.91,5.91,0,0,0,1,.56c.11.06.22.1.31.16l.24.2a5.43,5.43,0,0,0,1,.71c.32.17.65.3,1,.44l.39.16a9.28,9.28,0,0,0,1,.35,3.76,3.76,0,0,1,.4.13,9.22,9.22,0,0,0,1,.28l.42.1.39.12c.34.1.68.2,1,.28s.7.11,1.05.15l.42.05a1.72,1.72,0,0,1,.28.08,4.92,4.92,0,0,0,1.17.25h.38c.24,0,.47,0,.68,0l.41,0h0a6.79,6.79,0,0,0,1.07-.09l.36,0,.24,0a4.23,4.23,0,0,0,1.29.07,4.48,4.48,0,0,0,1.2-.34l.22-.09c.36-.06.71-.15,1.06-.24l.36-.09.42-.09c.33-.08.67-.15,1-.25a2.29,2.29,0,0,1,.36-.07,6.43,6.43,0,0,0,1.07-.27c.46-.17.91-.36,1.36-.55a9.5,9.5,0,0,0,.89-.48l.4-.22c.43-.22.85-.45,1.27-.7a6.81,6.81,0,0,0,.84-.56c.12-.09.24-.18.34-.24a.92.92,0,0,1,.23-.09,4.73,4.73,0,0,0,1.12-.57c.39-.28.78-.57,1.16-.88l.26-.21q.45-.35.87-.72c.36-.32.71-.67,1-1s.52-.54.76-.82l.23-.25a5.68,5.68,0,0,0,.64-.9,3.13,3.13,0,0,1,.2-.3c.21-.27.41-.55.6-.83l.24-.35c.23-.32.44-.65.65-1l.15-.24a3.92,3.92,0,0,1,.25-.32,7.41,7.41,0,0,0,.62-.87c.17-.3.31-.61.46-.91l.18-.39a2.2,2.2,0,0,1,.21-.32,6.59,6.59,0,0,0,.53-.95,4.67,4.67,0,0,0,.31-1.21c0-.08,0-.17,0-.22a3,3,0,0,1,.17-.36,6.91,6.91,0,0,0,.41-1l.13-.41c.11-.33.22-.66.3-1a6.35,6.35,0,0,0,.14-1.1,2.1,2.1,0,0,1,0-.36c.08-.49.16-1,.22-1.45s.1-1,.13-1.46a1.91,1.91,0,0,1,.06-.33,5,5,0,0,0,.13-1.14,4.61,4.61,0,0,0-.18-1.2c0-.09,0-.18-.06-.26a2.41,2.41,0,0,1,0-.38,6.15,6.15,0,0,0,0-1.11,7.58,7.58,0,0,0-.23-1c0-.14-.08-.27-.11-.42a2.83,2.83,0,0,1,0-.3,4.57,4.57,0,0,0-.16-1.17c-.1-.37-.23-.74-.36-1.1l-.12-.32c-.13-.35-.28-.68-.43-1l-.17-.37a9.45,9.45,0,0,0-.5-.94c-.07-.12-.15-.24-.22-.37-.23-.44-.48-.86-.75-1.29a3.9,3.9,0,0,1-.19-.35,6.23,6.23,0,0,0-.56-.94l-.24-.35a7.87,7.87,0,0,0-.65-.87c-.32-.38-.67-.74-1-1.1a2.16,2.16,0,0,0-.51-.36l-6.31-6.3a5.14,5.14,0,0,0-.82-1.11c-.42-.42-.86-.8-1.26-1.13l-.1-.09a4.3,4.3,0,0,0-1.4-.75l-.23-.08c-.43-.3-.84-.54-1.24-.77l-.29-.17a2.42,2.42,0,0,1-.31-.25,5.18,5.18,0,0,0-1.16-.8l-.32-.16c-.43-.21-.87-.43-1.31-.6a5.25,5.25,0,0,0-1.42-.29H170a1.82,1.82,0,0,1-.23-.15,4.17,4.17,0,0,0-1.51-.71,5.49,5.49,0,0,0-1.47,0l-.34,0a4.35,4.35,0,0,1-.52-.1,9.74,9.74,0,0,0-1.25-.19,4.78,4.78,0,0,1-.53-.06l-.4,0,.2-.2a8.41,8.41,0,0,0,.6-.65c.09-.1.17-.2.36-.39a3.06,3.06,0,0,1,.33-.29,7.14,7.14,0,0,0,.73-.65,6.65,6.65,0,0,0,.66-.76,2.72,2.72,0,0,1,.27-.3,2.45,2.45,0,0,1,.33-.3,7.06,7.06,0,0,0,.72-.64,5.6,5.6,0,0,1,.43-.4c.15-.14.31-.28.6-.57a5.21,5.21,0,0,0,.75-.93.62.62,0,0,1,.14-.18,2.07,2.07,0,0,1,.32-.28,7.05,7.05,0,0,0,.75-.66,5.22,5.22,0,0,0,.71-.87,1.24,1.24,0,0,1,.19-.22l.2-.2a6.8,6.8,0,0,0,.64.76,3.57,3.57,0,0,0,.37.31c.29.29.49.47.68.64s.47.42.91.86.69.7.91.93.49.51,1,1,.69.7.91.94l1,1,.94.94c.24.25.48.5,1,1l1,1,.94.92,1,1,.93.92s0,0,0,0a9.9,9.9,0,0,0,7.08,2.85,12.11,12.11,0,0,0,8.5-3.62,12.5,12.5,0,0,0,1.65-2.07l.78.76c.46.46.69.7.91.93l1,1c.51.52.78.76,1.05,1s.46.43.91.88.67.68.89.92.49.53,1,1l1,1,.57.57a2,2,0,0,0,.32.44,10.35,10.35,0,0,0,1.59,1.23,6.54,6.54,0,0,0,1.48.68l.33.13a9.82,9.82,0,0,0,1.88.51l.17,0a8.74,8.74,0,0,0,1.72.2l.43,0,.66,0a4.39,4.39,0,0,0,.86-.07,6.16,6.16,0,0,0,1.41-.45l.4-.15.27-.09a9.2,9.2,0,0,0,1.49-.61l.17-.08a11.32,11.32,0,0,0,1.46-.88,7,7,0,0,0,1-1l.31-.33a12,12,0,0,0,1.18-1.44l.11-.14a10.78,10.78,0,0,0,.94-1.41l.22-.38a6.28,6.28,0,0,0,.66-1.3,8.11,8.11,0,0,0,.36-1.57l.05-.3a5.63,5.63,0,0,0,0-1.52c0-.14,0-.27,0-.4a9.63,9.63,0,0,0-.19-1.91,10.09,10.09,0,0,0-.5-1.87l-.07-.18a8.29,8.29,0,0,0-.77-1.61,10.44,10.44,0,0,0-1.24-1.54,2,2,0,0,0-.23-.18l-1.7-1.72c-.48-.47-.71-.71-.94-.95l-1-1-1-1-.94-.93-.92-.93c-.25-.25-.49-.5-1-1l-.81-.81A12.53,12.53,0,0,0,220,211a12,12,0,0,0,1.66-2.07l.81.79c.48.48.71.72.94,1l1,1c.52.52.8.77,1.07,1s.48.43.94.89.68.71.9.95.5.53,1,1.05l1,1,.3.3a1.93,1.93,0,0,0,.37.54,6.58,6.58,0,0,0,1.32,1l.32.19a9.46,9.46,0,0,0,1.76.91,10.41,10.41,0,0,0,1.89.5l.4.08a6.2,6.2,0,0,0,1.51.22h0a5.89,5.89,0,0,0,1.47-.23c.14,0,.28-.07.42-.09a12.53,12.53,0,0,0,1.82-.49l.33-.11a8.25,8.25,0,0,0,1.42-.57,7.12,7.12,0,0,0,1.17-.83l.34-.27a13.05,13.05,0,0,0,1.41-1.2l.31-.25a5,5,0,0,0,1.08-1,12.87,12.87,0,0,0,1-1.61,5.17,5.17,0,0,0,.49-1.41c0-.13.06-.26.1-.39s.11-.25.17-.38a5.48,5.48,0,0,0,.49-1.41,5.62,5.62,0,0,0,0-1.52c0-.14,0-.27,0-.4a8.5,8.5,0,0,0-.19-1.71l0-.2-.06-.38a6.45,6.45,0,0,0-.35-1.53,9.62,9.62,0,0,0-1-1.73,3.21,3.21,0,0,1-.19-.31,6.53,6.53,0,0,0-1-1.31,1.86,1.86,0,0,0-.52-.36l-1.3-1.31c-.48-.48-.72-.72-.95-1l-1-1-1-1-1-1-1-1L238,192.59a12.16,12.16,0,0,0,2.09-1.67,12.39,12.39,0,0,0,1.66-2.06c.21.19.43.4.81.78s.71.72.94,1l1,1c.53.53.8.78,1.07,1s.48.44.93.89.69.7.91.94.5.54,1,1.06l1,1,1,1a2.28,2.28,0,0,0,.59.4l.54.35.28.18.32.23a5.26,5.26,0,0,0,1.35.83l.21.08a7.9,7.9,0,0,0,1.68.53,3,3,0,0,0,.65.06,7.69,7.69,0,0,0,.94-.08,2.23,2.23,0,0,1,.36-.05l.4,0a5.62,5.62,0,0,0,1.52,0,5,5,0,0,0,1.41-.5l.37-.17a3,3,0,0,1,.32-.06,4.48,4.48,0,0,0,1.51-.45,8.51,8.51,0,0,0,1.25-.86l.48-.36a10.23,10.23,0,0,0,1.28-1,6.24,6.24,0,0,0,.87-1.21,2.23,2.23,0,0,1,.2-.33l.19-.25a10,10,0,0,0,.87-1.29,10.32,10.32,0,0,0,.63-1.55l.07-.19c0-.13.1-.26.15-.39a7.6,7.6,0,0,0,.44-1.41l.05-.29a8.68,8.68,0,0,0,.19-1.62,6.81,6.81,0,0,0-.2-1.56c0-.12-.05-.25-.08-.38a8.11,8.11,0,0,0-.53-1.68l-.07-.18a9.25,9.25,0,0,0-.86-1.77,6.5,6.5,0,0,0-.75-.91,2.78,2.78,0,0,0-.3-.4l-2-2c-.48-.48-.72-.73-.95-1l-1-1-1-1-1-1-1-1L258,172.46a12.07,12.07,0,0,0,2.33-1.81,12.39,12.39,0,0,0,1.64-2.08c.21.19.44.41.83.8l.94.95c.25.26.49.52,1,1s.8.77,1.07,1,.48.44.93.89.69.7.91.94.5.54,1,1.06l1,1,.42.42a1.85,1.85,0,0,0,.3.39,5.39,5.39,0,0,0,1.32.92,2.59,2.59,0,0,1,.33.19l.33.23a5.48,5.48,0,0,0,1.36.81,7.45,7.45,0,0,0,1.56.38l.35,0a7.42,7.42,0,0,0,1.58.09h.34a1.82,1.82,0,0,1,.41,0c.2,0,.43,0,.68,0a4.86,4.86,0,0,0,.82-.07,12.08,12.08,0,0,0,1.85-.45,8.13,8.13,0,0,0,1.32-.64l.36-.21.34-.17a8.62,8.62,0,0,0,1.29-.75,7.69,7.69,0,0,0,1-1l.3-.31.11-.11a12,12,0,0,0,1.14-1.26l.28-.35a7.58,7.58,0,0,0,.83-1.17,6.17,6.17,0,0,0,.49-1.42c0-.13.06-.26.1-.38a12.75,12.75,0,0,0,.47-1.82c0-.14.05-.28.08-.41a6.75,6.75,0,0,0,.21-1.48,6.88,6.88,0,0,0-.21-1.53c0-.13-.06-.26-.08-.39s0-.26,0-.39a5.42,5.42,0,0,0-.31-1.55,6,6,0,0,0-.81-1.37,3.88,3.88,0,0,1-.23-.33,11.12,11.12,0,0,0-.93-1.19l-.1-.12-.11-.11-.1-.11-.06-.05-1.69-1.7-.95-1c-.25-.26-.49-.51-1-1l-1-1-1-1-1-1-2.91-2.93c-.46-.46-.68-.7-.9-.94l-.15-.16a3.64,3.64,0,0,0-.5-.67A11,11,0,0,0,274.1,148a7.42,7.42,0,0,0-1.42-.76l-.37-.16-.14-.07a9.2,9.2,0,0,0-1.72-.68,6.15,6.15,0,0,0-1.55-.18h-.43l-.42-.06a6.92,6.92,0,0,0-1.55-.08,11.44,11.44,0,0,0-2,.32,11.8,11.8,0,0,0-1.89.62,9,9,0,0,0-1.43.87L261,148a6.69,6.69,0,0,0-1.12,1l-.31.33c-.11.1-.23.19-.35.28a5.86,5.86,0,0,0-1.1,1,8.51,8.51,0,0,0-.55.83l-.12-.13-1-1c-.24-.25-.49-.5-1-1s-.8-.78-1.07-1-.48-.43-.93-.89-.69-.7-.92-.94-.5-.53-1-1-.67-.69-.88-.93l-.11-.12a4.05,4.05,0,0,0-.54-.74,4.62,4.62,0,0,0-.94-.73,4.61,4.61,0,0,0,.46-.6,2.4,2.4,0,0,1,.2-.23c.2-.21.31-.31.42-.41a7.67,7.67,0,0,0,.6-.56l.11-.08a4.77,4.77,0,0,0,1-.79,3.89,3.89,0,0,0,.81-1.12l.09-.08a4.36,4.36,0,0,0,1.09-.8,4.88,4.88,0,0,0,.77-1l.09-.12A2.37,2.37,0,0,1,255,137a6.44,6.44,0,0,0,.82-.7,4.59,4.59,0,0,0,.8-1.05l.06-.09.43-.41c.15-.13.3-.27.59-.56l.43-.41c.15-.13.3-.27.59-.56a2.65,2.65,0,0,1,.36-.32,8.74,8.74,0,0,0,.68-.62,8.89,8.89,0,0,1,.83-.75c.17-.13.34-.27.5-.42l.31-.26.19,0a4.94,4.94,0,0,0,.94-.28,7.05,7.05,0,0,0,.73-.36l.21-.13h.3a8.3,8.3,0,0,0,.87,0c.64-.08,1.15-.06,1.7-.09a4.33,4.33,0,0,1,.49,0c.23,0,.47,0,.71,0a3,3,0,0,1,.4,0,7.06,7.06,0,0,1,1,.33l.14.13a5.3,5.3,0,0,0,.82.6,5.66,5.66,0,0,0,.93.41l.18.06.42.4a2,2,0,0,0,.29.36c.8.8,1.23,1.18,1.65,1.54s.73.64,1.42,1.33,1,1.06,1.34,1.43.74.84,1.54,1.64,1,1,1.33,1.42.74.85,1.53,1.64a16.36,16.36,0,0,0,1.78,1.57,14.39,14.39,0,0,1,1.37,1.21,11.51,11.51,0,0,1,1.19,1.37,16.28,16.28,0,0,0,1.58,1.8c.77.77,1.17,1.14,1.58,1.51s.74.67,1.45,1.38,1.23,1.18,1.66,1.54.73.63,1.41,1.31l1.43,1.46c.37.39.74.78,1.51,1.54a15.18,15.18,0,0,1,1.24,1.39,21.43,21.43,0,0,0,1.56,1.73,16.36,16.36,0,0,0,1.78,1.57,11.18,11.18,0,0,1,1.37,1.21,11.46,11.46,0,0,1,1.22,1.37,18.12,18.12,0,0,0,1.57,1.76,16.93,16.93,0,0,0,1.73,1.56,14.51,14.51,0,0,1,1.38,1.25c.69.69,1,1,1.33,1.43s.74.84,1.53,1.64a17.68,17.68,0,0,0,1.75,1.56,13.7,13.7,0,0,1,1.38,1.23c.73.72,1.08,1.09,1.44,1.46s.74.78,1.5,1.53,1.08,1.1,1.43,1.47.74.76,1.5,1.52,1,1.08,1.38,1.44.74.81,1.51,1.57l1.51,1.5,1.47,1.45c.79.79,1.22,1.17,1.63,1.53s.74.65,1.43,1.34a11.81,11.81,0,0,1,1.2,1.37,16.36,16.36,0,0,0,1.57,1.78,21.46,21.46,0,0,0,1.69,1.54c.39.33.73.62,1.4,1.29a16.15,16.15,0,0,1,1.26,1.39,19.33,19.33,0,0,0,1.55,1.72l3,3c.78.78,1.2,1.15,1.61,1.52s.74.66,1.43,1.35,1.24,1.18,1.66,1.54.73.63,1.41,1.32,1.11,1.11,1.48,1.49l1.47,1.48a11.91,11.91,0,0,1,1.2,1.36,15.33,15.33,0,0,0,1.57,1.79,16.21,16.21,0,0,0,1.79,1.57,11.81,11.81,0,0,1,1.37,1.2c.71.72,1.06,1.09,1.41,1.46l1,1a2.27,2.27,0,0,0,.42.62,15.39,15.39,0,0,0,1.5,1.32,8.57,8.57,0,0,1,1.08.95,9.2,9.2,0,0,1,.93,1.06,11.71,11.71,0,0,0,1.1,1.3,8.55,8.55,0,0,1,.76,2l.13.46a7.27,7.27,0,0,1,.35,1.76,5.23,5.23,0,0,1-.32,1.41c-.08.27-.16.53-.23.8l-.11.41a7.51,7.51,0,0,1-.59,1.72,8.71,8.71,0,0,1-1.4,1.78,7.8,7.8,0,0,1-.81.72,11.15,11.15,0,0,0-1.16,1c-.48.48-.71.73-.94,1s-.44.46-.89.91a7.58,7.58,0,0,0-1.07,1.27,4.69,4.69,0,0,1-.63.74l-.93.95c-.22.23-.44.46-.9.92a7.8,7.8,0,0,1-.81.72,12.55,12.55,0,0,0-1.15,1,8.61,8.61,0,0,1-.83.76c-.26.22-.57.48-1.1,1s-.72.74-1,1-.42.45-.86.89a11.66,11.66,0,0,0-1,1.18,6.22,6.22,0,0,1-.69.79c-.44.44-.66.66-.89.87l-1,1a7.88,7.88,0,0,1-.82.73,13.29,13.29,0,0,0-1.13,1c-.48.47-.71.71-.94.95l-.9.91c-.47.48-.71.71-.94,1l-.89.9a13.88,13.88,0,0,0-1,1.07c-.19.22-.38.44-.79.85s-.67.66-.9.87l-1,.95c-.41.41-.64.6-.86.8s-.54.47-1.05,1a8.61,8.61,0,0,0-1.07,1.27,4.52,4.52,0,0,1-.62.74c-.43.43-.66.64-.88.85s-.51.47-1,1a6.65,6.65,0,0,1-.76.66,8.57,8.57,0,0,0-1.22,1.05l-.92.9-.94.93a7.91,7.91,0,0,0-1.07,1.29,4,4,0,0,1-.61.73,6.68,6.68,0,0,1-.8.71,14.35,14.35,0,0,0-1.15,1c-.53.54-.78.85-1,1.12a9.18,9.18,0,0,1-.74.82,6,6,0,0,1-.77.67,9.81,9.81,0,0,0-1.21,1,13,13,0,0,0-1,1.14,7.8,7.8,0,0,1-.72.81l-.94.95c-.22.23-.44.46-.89.9l-.94,1-.88.9c-.44.44-.66.65-.89.86s-.5.47-1,.95a7.8,7.8,0,0,1-.81.72,13.29,13.29,0,0,0-1.13,1l-.91.89c-.24.23-.48.46-1,.94s-.73.76-1,1-.4.45-.83.87l-1.54,1.56a2.1,2.1,0,0,0-.33.26c-.61.62-.91,1-1.17,1.29a10.23,10.23,0,0,1-.91,1c-.49.49-.76.72-1,.95s-.65.55-1.25,1.15a11.72,11.72,0,0,0-1.19,1.37,8,8,0,0,1-.85,1c-.51.51-.78.75-1,1s-.61.55-1.2,1.13-.8.8-1.07,1.06-.57.55-1.12,1.11-.85.87-1.13,1.17-.49.54-1,1l-1.1,1.11c-.27.28-.53.55-1.07,1.08a13.14,13.14,0,0,1-1,1c-.32.28-.64.56-1.24,1.15s-.87.91-1.14,1.22-.47.54-1,1l-1.1,1.11-1.07,1.08c-.53.53-.8.8-1.08,1.06l-1.12,1.1a12.23,12.23,0,0,1-1,.93c-.31.26-.65.56-1.26,1.16s-.9,1-1.16,1.26a10.64,10.64,0,0,1-.92,1c-.52.52-.79.77-1.06,1s-.59.55-1.16,1.12a7.89,7.89,0,0,1-1,.85,11.85,11.85,0,0,0-1.36,1.19c-.58.59-.86.9-1.13,1.21s-.48.53-1,1-.86.88-1.13,1.18-.49.54-1,1.05l-1.1,1.1c-.26.27-.53.55-1.07,1.08s-.87.92-1.15,1.24a13,13,0,0,1-.95,1,7.49,7.49,0,0,1-.95.83A10.85,10.85,0,0,0,259.8,334a16.5,16.5,0,0,0-1.17,1.3,9.74,9.74,0,0,1-.89,1,11.07,11.07,0,0,1-1,.88,11.81,11.81,0,0,0-1.32,1.17c-.58.58-.85.89-1.13,1.19s-.48.54-1,1.05-.8.79-1.07,1l-1.13,1.11-1.1,1.11L249,344.94a14.94,14.94,0,0,0-1.18,1.31,9.37,9.37,0,0,1-.88,1c-.5.49-.76.73-1,1s-.63.55-1.22,1.15-.77.73-1,1-.63.55-1.21,1.14a11.12,11.12,0,0,0-1.2,1.37,7.56,7.56,0,0,1-.83,1,5,5,0,0,1-.89.73,8.28,8.28,0,0,0-1.51,1.23,13,13,0,0,0-1.19,1.35,7.21,7.21,0,0,1-.85,1c-.52.53-.79.79-1.06,1.05s-.58.54-1.13,1.1a8.76,8.76,0,0,1-2.27,1.43,8.16,8.16,0,0,1-2.52.85l-.58.1A7.41,7.41,0,0,1,226.25,362.77ZM274.57,157.3c-.06.25-.12.5-.16.76s-.05.43-.06.65a3.47,3.47,0,0,1-.09.63,3,3,0,0,1-.24.4,6.73,6.73,0,0,0-.44.73,8.67,8.67,0,0,1-.7,1.07,6.06,6.06,0,0,0-.52.84,2.59,2.59,0,0,1-.17.3,8.92,8.92,0,0,1-1,.84c-.12,0-.24.07-.36.11a5.58,5.58,0,0,0-.95.32c-.21.1-.43.21-.64.33a4.53,4.53,0,0,1-.51.25,4.94,4.94,0,0,1-.77.08l-.53,0a7.82,7.82,0,0,1-1.28,0l-.49,0a3.9,3.9,0,0,1-.78-.08,8.07,8.07,0,0,1-1.2-.45,7.06,7.06,0,0,1-1.07-.68c-.17-.13-.36-.25-.55-.37l-.15-.09-.24-.25a2.09,2.09,0,0,0-.29-.23,6.86,6.86,0,0,1-.41-.6l-.16-.24a8.22,8.22,0,0,1-.55-1.15c-.07-.19-.16-.38-.25-.57a3.34,3.34,0,0,1-.26-.62,4.67,4.67,0,0,1,0-.81c0-.16,0-.33,0-.49a4.23,4.23,0,0,1,.09-.77c0-.17.06-.34.08-.51a8.34,8.34,0,0,1,.29-1.25c.05-.14.09-.29.14-.44a4.78,4.78,0,0,1,.27-.79,9.11,9.11,0,0,1,.67-1.13,3.89,3.89,0,0,1,.37-.31,8.18,8.18,0,0,0,.64-.53c.17-.16.32-.33.48-.5a5.47,5.47,0,0,1,.44-.43l.29-.2a7.83,7.83,0,0,1,.82-.51,8.72,8.72,0,0,1,1.25-.39,7.54,7.54,0,0,1,1.35-.21,3.68,3.68,0,0,1,.58.07l.64.07c.23,0,.47,0,.7,0a2.83,2.83,0,0,1,.58,0,6.34,6.34,0,0,1,1,.43l.14.07.53.23a4.84,4.84,0,0,1,.64.31l.42.32a1.93,1.93,0,0,0,.28.36l.42.43s0,0,0,.05a7.72,7.72,0,0,0,.44.83,7.14,7.14,0,0,0,.61.77c.07.08.14.15.2.23s0,.2,0,.29a5.83,5.83,0,0,0,.11,1,6.15,6.15,0,0,0,.27.9c0,.13.11.31.12.35S274.6,157.12,274.57,157.3Zm.38,8.28a5,5,0,0,0,.94-1.31,1.45,1.45,0,0,1,.18-.32,11.58,11.58,0,0,0,1.05-1.63c.07-.13.15-.25.23-.37a5.27,5.27,0,0,0,.72-1.37,6.51,6.51,0,0,0,.26-1.54c0-.14,0-.28.05-.42s.05-.29.08-.43l0-.12.78.77,1,.95,1,1,1,1,1.85,1.85a5,5,0,0,1,.62.79c.11.17.23.33.35.5a3.35,3.35,0,0,1,.31.46,3.2,3.2,0,0,1,.05.43c0,.26.05.52.09.77l.12.55a4.51,4.51,0,0,1,.11.64,4.19,4.19,0,0,1-.11.63c-.05.19-.09.39-.12.58a7.77,7.77,0,0,1-.31,1.2c-.09.26-.15.52-.22.78a2.48,2.48,0,0,1-.12.45,3.87,3.87,0,0,1-.39.51l-.4.51a7.67,7.67,0,0,1-.76.82l-.11.11-.4.42a5.81,5.81,0,0,1-.5.5,5.88,5.88,0,0,1-.7.39l-.42.21-.48.27a3.94,3.94,0,0,1-.64.33,7.76,7.76,0,0,1-1.22.29,3.4,3.4,0,0,1-.54,0c-.23,0-.46,0-.69,0h-.44a5.74,5.74,0,0,1-.76,0l-.45-.08a4.17,4.17,0,0,1-.72-.14l-.42-.29a6.42,6.42,0,0,0-.53-.38,6.5,6.5,0,0,0-.63-.37l-.16-.09-.92-.92-1-1c-.47-.46-.69-.7-.91-1s-.5-.53-1-1-.79-.77-1.06-1-.44-.41-.82-.79h.1l.39,0a7.48,7.48,0,0,0,1.57-.2,6.17,6.17,0,0,0,1.4-.61l.4-.2a2,2,0,0,1,.35-.1,5,5,0,0,0,1.5-.64A11.86,11.86,0,0,0,275,165.58Zm94.81,69.56a7,7,0,0,1-.8,1.92l-.27.51a8.23,8.23,0,0,1-1.46,2.16,19.06,19.06,0,0,0-1.34,1.47c-.28.33-.53.61-1.09,1.18s-.94.92-1.25,1.22-.67.64-1.33,1.3a9.57,9.57,0,0,1-1.15,1,15.36,15.36,0,0,0-1.54,1.37,13.7,13.7,0,0,0-1.38,1.6,8.41,8.41,0,0,1-1,1.12,8.59,8.59,0,0,1-1.13,1,13.23,13.23,0,0,0-1.57,1.38,16.83,16.83,0,0,0-1.37,1.53,10.65,10.65,0,0,1-1,1.16c-.57.57-.86.81-1.19,1.1s-.75.64-1.44,1.33a13,13,0,0,0-1.37,1.56,11.38,11.38,0,0,1-1,1.14l-1.25,1.22c-.34.32-.67.63-1.32,1.29s-.94.92-1.25,1.22L342,265.2c-.6.6-.91.89-1.23,1.17s-.7.64-1.37,1.31-1,1-1.29,1.31l-1.23,1.24c-.69.69-1,1.08-1.33,1.43s-.54.62-1.11,1.2a9,9,0,0,1-1.12,1,12.17,12.17,0,0,0-1.59,1.38,17.54,17.54,0,0,0-1.36,1.49,11.62,11.62,0,0,1-1.05,1.17,14,14,0,0,1-1.15,1,14.07,14.07,0,0,0-1.53,1.36l-2.53,2.53c-.68.69-1,1-1.32,1.41s-.55.62-1.13,1.21-1,1.1-1.34,1.45a14.67,14.67,0,0,1-1.09,1.18c-.62.63-.94.94-1.26,1.25l-1.28,1.28a8.5,8.5,0,0,1-1.11.95,15.13,15.13,0,0,0-3,3,8.11,8.11,0,0,1-1,1.11c-.6.61-.92.9-1.23,1.19s-.68.64-1.35,1.31a2.38,2.38,0,0,0-.39.55c-.29.3-.49.52-.69.74s-.49.54-1,1.06a8.58,8.58,0,0,1-1,.88,11.44,11.44,0,0,0-1.37,1.21,14,14,0,0,0-1.18,1.29,13.31,13.31,0,0,1-.95,1l-2.21,2.23c-.58.58-.86.88-1.14,1.18s-.51.55-1,1.08-.73.68-1,.92a13.91,13.91,0,0,0-1.31,1.19c-.57.56-.84.85-1.12,1.13s-.53.56-1.08,1.1a13.49,13.49,0,0,0-1.19,1.33,11,11,0,0,1-.9,1,6.77,6.77,0,0,1-1,.83,11.47,11.47,0,0,0-1.41,1.22,15,15,0,0,0-1.19,1.32,12.24,12.24,0,0,1-.92,1c-.49.49-.74.7-1,.94s-.67.57-1.29,1.18l-1.13,1.16c-.26.28-.52.55-1.06,1.09s-.88.91-1.16,1.23-.48.54-1,1.05-.86.89-1.14,1.19-.5.55-1,1.07L277,330.46c-.26.28-.53.55-1.08,1.1l-2.21,2.21c-.52.51-.79.75-1.06,1s-.63.56-1.23,1.16-.77.74-1,1-.64.56-1.24,1.16a14,14,0,0,0-1.2,1.33,8.75,8.75,0,0,1-.9,1,8,8,0,0,1-1,.86,13.45,13.45,0,0,0-1.37,1.21,10.33,10.33,0,0,0-1.2,1.38,9.1,9.1,0,0,1-.86,1c-.5.49-.76.72-1,.95s-.66.56-1.27,1.17-.84.86-1.12,1.14l-1.07,1.1-2.22,2.21c-.56.57-.84.85-1.11,1.14l-1.08,1.09a12.15,12.15,0,0,1-1,.93c-.32.27-.68.57-1.3,1.18a14.69,14.69,0,0,0-1.18,1.32c-.24.28-.44.53-.92,1l-1.12,1.13-1.08,1.1c-.5.5-.77.73-1,1s-.65.56-1.26,1.17l-1.09,1.08c-.29.28-.58.55-1.14,1.12a15.21,15.21,0,0,0-1.18,1.3c-.24.28-.44.53-.93,1a9,9,0,0,1-2.25,1.5l-.13.06a8.4,8.4,0,0,1-2.4,1,8.81,8.81,0,0,1-2.73-.07,9,9,0,0,1-2.59-.86,11.26,11.26,0,0,1-1.4-.85,2.06,2.06,0,0,0-.56-1l-.05-.05.69-.11.53-.09a12.36,12.36,0,0,0,3.79-1.27,12,12,0,0,0,3.21-2.13c.52-.53.79-.79,1.06-1.05s.58-.54,1.13-1.1a11.85,11.85,0,0,0,1.19-1.36,8.09,8.09,0,0,1,.85-1,4.61,4.61,0,0,1,.89-.73,9.27,9.27,0,0,0,1.51-1.23,11.45,11.45,0,0,0,1.19-1.38,9.48,9.48,0,0,1,.83-1c.5-.5.77-.73,1-1s.63-.55,1.22-1.14.76-.73,1-1,.63-.56,1.22-1.14a14.17,14.17,0,0,0,1.17-1.32,10,10,0,0,1,.89-1c.55-.55.82-.83,1.09-1.11l1.08-1.08,1.06-1.05,1.14-1.1c.58-.59.85-.89,1.13-1.2s.48-.53,1-1a9.29,9.29,0,0,1,1-.87,14.69,14.69,0,0,0,1.32-1.18,16.5,16.5,0,0,0,1.17-1.3,9.74,9.74,0,0,1,.89-1,9.61,9.61,0,0,1,.95-.83,10.07,10.07,0,0,0,1.38-1.19c.6-.6.87-.92,1.15-1.24s.46-.52.95-1,.82-.83,1.1-1.1.53-.55,1.07-1.08.85-.88,1.12-1.18.49-.53,1-1,.86-.9,1.13-1.21.48-.53,1-1a8,8,0,0,1,1-.85,12.78,12.78,0,0,0,1.36-1.19c.51-.52.78-.77,1.05-1s.59-.55,1.16-1.12a15.4,15.4,0,0,0,1.16-1.26c.23-.27.45-.53.93-1s.75-.71,1-.93.66-.56,1.26-1.16l1.07-1.05,1.13-1.11,1.1-1.12,1.07-1.08c.59-.59.87-.9,1.14-1.22s.47-.53,1-1,.76-.72,1-.95.64-.55,1.24-1.15l1.1-1.11,1.07-1.08c.57-.57.85-.87,1.12-1.17s.5-.54,1-1.05l1.08-1.07c.28-.27.57-.54,1.12-1.1s.78-.75,1.05-1,.61-.56,1.19-1.14a12.21,12.21,0,0,0,1.2-1.36,7,7,0,0,1,.84-1c.49-.49.76-.72,1-.95s.65-.55,1.25-1.15.91-1,1.17-1.29.34-.42.63-.72a1.86,1.86,0,0,0,.31-.26l1.84-1.85c.5-.5.74-.76,1-1s.41-.45.83-.87l.9-.89c.25-.23.49-.46,1-.94a9,9,0,0,1,.81-.72,13,13,0,0,0,1.14-1l.89-.87c.25-.23.5-.46,1-.94s.7-.71.93-.95.44-.46.89-.91l.92-.93.91-.92a11.52,11.52,0,0,0,1-1.14,7.8,7.8,0,0,1,.72-.81,6,6,0,0,1,.77-.67,9.11,9.11,0,0,0,1.21-1,11.63,11.63,0,0,0,1-1.12c.18-.21.35-.43.74-.82a6.48,6.48,0,0,1,.81-.71,13,13,0,0,0,1.14-1,7.91,7.91,0,0,0,1.07-1.29,5.05,5.05,0,0,1,.61-.73l.91-.9.94-.94a6.59,6.59,0,0,1,.77-.66,8.89,8.89,0,0,0,1.22-1c.44-.44.66-.65.89-.86l1-.95a8.37,8.37,0,0,0,1.06-1.27,5.31,5.31,0,0,1,.63-.74c.41-.41.63-.6.85-.8s.55-.47,1.06-1,.67-.66.9-.88l1-.94c.51-.52.75-.8,1-1.07s.38-.44.79-.85l.93-.95c.22-.23.44-.46.9-.91l.93-.94.91-.92a8.54,8.54,0,0,1,.81-.74,12.48,12.48,0,0,0,1.14-1c.44-.44.66-.66.89-.87l1-1a12.46,12.46,0,0,0,1-1.18,6.22,6.22,0,0,1,.69-.79c.48-.48.71-.73.94-1s.43-.45.88-.9.61-.57.83-.75a13.79,13.79,0,0,0,1.1-1,10.65,10.65,0,0,1,.81-.72,10.7,10.7,0,0,0,1.15-1c.48-.47.71-.71.94-1l.89-.91a7.58,7.58,0,0,0,1.07-1.27,4.69,4.69,0,0,1,.63-.74l.94-1c.22-.23.44-.46.89-.91a7.8,7.8,0,0,1,.81-.72,12.32,12.32,0,0,0,1.16-1,12.9,12.9,0,0,0,2-2.61,10.29,10.29,0,0,0,1-2.72l.1-.38c.06-.22.13-.43.19-.65a10,10,0,0,0,.46-2l0,0a8.54,8.54,0,0,1,1.46,2.22,8.43,8.43,0,0,1,.68,2.54l.09.48A7.68,7.68,0,0,1,369.76,235.14Z" style="fill: #1d1d1b"/>
  </g>
</svg>
