<svg xmlns="http://www.w3.org/2000/svg" viewBox="0 0 500 500">
  <title>leaf</title>
  <g>
    <path d="M194.13,221.43l.55-.56.47-.55a5.72,5.72,0,0,1,.92-1,3.87,3.87,0,0,1,.91-.51l.1,0,.1,0a4.44,4.44,0,0,0,.76-.37l.61-.38a7,7,0,0,1,1.14-.66,12.5,12.5,0,0,1,2-.63,4,4,0,0,1,1.22-.1,7.3,7.3,0,0,0,.81,0h.17l.15,0a12.27,12.27,0,0,1,1.73-.07c.25,0,.52,0,.86,0h.11a3.65,3.65,0,0,1,1.13.05,7.21,7.21,0,0,1,.93.31l.16.06a5,5,0,0,0,.68.26,6.34,6.34,0,0,0,.93.21l.12,0a3.12,3.12,0,0,1,.85.22,16.27,16.27,0,0,1,1.75.9,2.61,2.61,0,0,1,.27.19,3.36,3.36,0,0,1,.34.34l.18.2a6.45,6.45,0,0,0,.58.59l0,0a10.4,10.4,0,0,1,1,.84l.61.56.43.33.3.2a5,5,0,0,1,.71.58,8,8,0,0,0,.68.61l.24.2a4.14,4.14,0,0,1,.51.47c.22.25.44.54.64.82s.36.48.56.71l.13.17c.07.1.25.44.36.66a4.66,4.66,0,0,0,.5.84c.24.27.51.54.75.78s.44.44.63.66a3.5,3.5,0,0,0,.81.63l.12.07a3.76,3.76,0,0,1,.69.54l.5.56c.23.27.49.57.77.84a7.26,7.26,0,0,1,.58.65,6.32,6.32,0,0,0,.74.8l.41.38.22.19a8.72,8.72,0,0,0,.84.76c.15.11.32.21.49.32l.25.16c.29.18.59.37.88.58s.55.43.78.62l.78.62a7.63,7.63,0,0,0,.89.54,7,7,0,0,1,.75.45l.19.16c.13.12.35.34.53.54a19.13,19.13,0,0,0,1.63,1.47l.66.56a4.54,4.54,0,0,0,.59.41l.18.12c.29.19.55.37.73.51l.09.08a7,7,0,0,0,.76.53l.12.07a5.34,5.34,0,0,1,.7.51l.34.32c.37.35.74.69,1.15,1.1a3.75,3.75,0,0,1,.51.75,3.67,3.67,0,0,0,.55.8l.62.62.14.14c.21.2.4.4.59.61a4.83,4.83,0,0,1,.61.95c.12.2.23.41.35.6a2,2,0,0,1-2.35,3c-.24-.09-.49-.17-.72-.24a5.45,5.45,0,0,1-.74-.29l-.15-.07a4.92,4.92,0,0,0-1-.38c-.8-.15-1.44-.25-2-.32l-.64-.08-.13,0c-.41-.05-.82-.11-1.23-.13a4.78,4.78,0,0,0-1.05.1,7.21,7.21,0,0,1-1,.11c-.4,0-.8,0-1.29,0h-.68a4.81,4.81,0,0,1-1-.07,5.35,5.35,0,0,0-1.09-.07h-1c-.32,0-.66,0-1,0a4.86,4.86,0,0,0-1,.17,4.57,4.57,0,0,1-1,.18H224c-.24,0-.48,0-.75,0a9.41,9.41,0,0,1-1-.07l-.14,0a7.11,7.11,0,0,0-.91-.07,3.86,3.86,0,0,0-1,.17,3.73,3.73,0,0,1-.78.17,2.08,2.08,0,0,1-.66,0l-.4-.13-.16-.06a3.56,3.56,0,0,0-1-.25,4.8,4.8,0,0,0-1,.09l-.11,0a3.43,3.43,0,0,1-.9,0,5.19,5.19,0,0,1-.94-.21l-.12,0a5.7,5.7,0,0,0-.85-.19c-.4,0-.79-.13-1.12-.19l-.36-.07-.53-.09a4.67,4.67,0,0,0-1.06,0,3.92,3.92,0,0,1-.85,0l-.11,0a7,7,0,0,1-.88-.24l-.23-.08-.1,0c-.25-.1-.51-.17-.72-.24l-.83-.2c-.41-.1-.79-.19-1.12-.3l-.12,0a4.35,4.35,0,0,1-.82-.51,4.88,4.88,0,0,0-.81-.51l-.78-.31-.16-.07a7.57,7.57,0,0,1-.91-.4c-.25-.13-.51-.25-.8-.37a7.47,7.47,0,0,1-1-.51l-.65-.4c-.39-.24-.75-.46-1.07-.7l-.14-.1a5.74,5.74,0,0,1-.53-.55l-.16-.18a4.83,4.83,0,0,0-.63-.66l-.23-.21a16,16,0,0,1-1.21-1.13l-.14-.15a15.64,15.64,0,0,1-1.17-1.35,14.58,14.58,0,0,1-1.1-1.7,8.52,8.52,0,0,1-.55-1.24c-.08-.21-.16-.42-.2-.55l-.33-.68a1,1,0,0,1,0-.11,5.12,5.12,0,0,1-.45-1.09l-.18-.61-.07-.23a5.91,5.91,0,0,1-.25-1.14,3.68,3.68,0,0,1,.1-1.1,4.91,4.91,0,0,0,.12-.88,4.86,4.86,0,0,0-.08-.9,5.18,5.18,0,0,1-.1-.86,2.1,2.1,0,0,1,0-.43,4.07,4.07,0,0,1,.42-1,6.36,6.36,0,0,0,.38-.82,13,13,0,0,1,.79-1.85,4.15,4.15,0,0,0,.32-.87,3.61,3.61,0,0,1,.46-1.07A7.47,7.47,0,0,1,194.13,221.43Zm57.58,33a10.12,10.12,0,0,1,.76.82c.18.22.39.44.56.63a6.94,6.94,0,0,1,.61.73l.08.12c.19.26.38.53.59.77s.4.39.62.58l.09.07a6.23,6.23,0,0,1,.84.8,4.88,4.88,0,0,1,.42.69l.1.17a4.64,4.64,0,0,0,.54.88c.19.25.39.48.57.69s.51.59.7.85.45.53.72.82l.12.13a7.06,7.06,0,0,1,.55.64c.19.27.4.52.62.78s.44.52.66.82.41.59.57.86.36.55.6.87l.35.5.28.39c.18.24.34.48.56.76l.53.73a10.74,10.74,0,0,0,.68.91c.19.23.38.47.55.72l.12.16c.19.24.37.49.58.71.47.51.95,1,1.41,1.48s.77.77,1.16,1.15l.84.81c.3.3.61.59.89.86l.12.1a5.29,5.29,0,0,0,.78.52,3.8,3.8,0,0,1,.81.55,11,11,0,0,1,.78.84c.19.22.38.44.58.64a6.88,6.88,0,0,1,.7.82l.15.18a6.94,6.94,0,0,0,.48.56c.13.15.27.29.41.43l.15.15a8.37,8.37,0,0,1,.83.85,9.06,9.06,0,0,1,.71,1.1c.09.13.17.26.25.4l.11.17a17.23,17.23,0,0,1,1,1.76,15.55,15.55,0,0,1,.79,1.83c.23.63.42,1.34.58,2a5.23,5.23,0,0,0,.23.7l.09.24a5.54,5.54,0,0,1,.29.95.68.68,0,0,0,0,.14,5.64,5.64,0,0,1-.05,1.06l0,.25a4.12,4.12,0,0,0,0,.62v.34a11.47,11.47,0,0,1-.08,1.69l-.05.35a12.39,12.39,0,0,1-.35,1.71,5.27,5.27,0,0,1-.54,1.06,7.87,7.87,0,0,0-.38.69,5.56,5.56,0,0,0-.29.9l-1.95-.46L278,300a3.68,3.68,0,0,1-.24.75l-.12.21a8.32,8.32,0,0,1-.9,1.12l-.42.48a9.68,9.68,0,0,1-1.09,1l-.36.32a4.5,4.5,0,0,1-1.05.68c-.25.14-.5.28-.74.43a6.07,6.07,0,0,0-.64.52,4.06,4.06,0,0,1-1,.73,9.13,9.13,0,0,1-1.26.46l-.66.2a13.33,13.33,0,0,1-2,.49,11.34,11.34,0,0,1-1.83.06h-.19c-.3,0-.59,0-.84,0a4.44,4.44,0,0,1-1.15,0,9.86,9.86,0,0,1-1.49-.4l-.38-.13a3.22,3.22,0,0,1-1.06-.58,4.15,4.15,0,0,0-.66-.4l-.09,0a2,2,0,0,0-.3-.14l-.2-.09a7.45,7.45,0,0,1-1.23-.62c-.14-.1-.28-.18-.47-.29l-.22-.14a7.58,7.58,0,0,1-.84-.58l-.1-.08c-.3-.26-.61-.58-1-1l-.38-.39a5.71,5.71,0,0,0-.58-.51,7.33,7.33,0,0,1-.85-.81l-.15-.2a4.37,4.37,0,0,1-.33-.72l0-.1a3.7,3.7,0,0,0-.41-.82,4,4,0,0,0-.57-.67,4.14,4.14,0,0,1-.67-.82A9.58,9.58,0,0,1,251,297l0-.08c-.09-.2-.18-.4-.31-.66a7.46,7.46,0,0,0-.35-.69c-.2-.38-.38-.73-.52-1.06-.19-.54-.38-1.12-.59-1.82-.08-.23-.15-.46-.21-.64-.14-.43-.27-.86-.37-1.28a2.7,2.7,0,0,1,0-.28,3.4,3.4,0,0,1,0-.6l0-.21a4.18,4.18,0,0,0,0-.92,9,9,0,0,0-.21-.92,8.44,8.44,0,0,1-.23-1c0-.4-.05-.8-.06-1.22,0-.24,0-.48,0-.72s0-.56,0-.84v-.39c0-.25,0-.49,0-.73A6.57,6.57,0,0,0,248,282l0-.11a5.76,5.76,0,0,1-.12-.94,4.72,4.72,0,0,1,.09-.86l0-.19a6.62,6.62,0,0,0,.11-.92,4.78,4.78,0,0,0-.1-1,4.65,4.65,0,0,1-.11-.87V277c0-.26.06-.51.1-.77l0-.29a6.93,6.93,0,0,0,.13-.88c0-.38.07-.76.12-1.19,0-.17,0-.35,0-.53l0-.26a8.58,8.58,0,0,0,0-.92,7.49,7.49,0,0,1,0-.95,3.33,3.33,0,0,1,.22-.88l0-.14a4,4,0,0,0,.26-1,3.09,3.09,0,0,0-.09-1,3.4,3.4,0,0,1-.13-.8,1.31,1.31,0,0,1,0-.28,5.49,5.49,0,0,1,.14-.81l0-.18a5.67,5.67,0,0,0,.13-.88l0-.69c0-.44.05-.86.06-1.28a8.23,8.23,0,0,0-.08-1.16c0-.27-.06-.55-.07-.82a4.28,4.28,0,0,1,.09-.9,4,4,0,0,0,.07-1.08,5.19,5.19,0,0,0-.32-1.09,6.22,6.22,0,0,1-.28-.89,4.68,4.68,0,0,1-.11-.7l-.06-.35a2,2,0,0,1,.35-1.56,2,2,0,0,1,3-.27Zm6.16,48.16h0ZM245.27,248a2,2,0,0,0,.43,1l.07.1a2,2,0,0,0,3.32,0c.26-.38.5-.77.7-1.12a13.1,13.1,0,0,0,.81-1.84c.08-.2.18-.44.29-.68,0,0,0-.07,0-.11a2.12,2.12,0,0,0,.18-.71l.15-.37a2.83,2.83,0,0,0,.13-.5c.07-.54.11-1.06.13-1.53a2.86,2.86,0,0,0-.12-.87l0-.13s0-.12,0-.14a5.89,5.89,0,0,1-.15-.82c0-.27,0-.51,0-.74v-.19a9,9,0,0,0-.08-1.09c-.09-.66-.2-1.34-.32-2a5.32,5.32,0,0,1-.05-1,3.93,3.93,0,0,0,0-1.07,4.91,4.91,0,0,0-.3-.89,5.24,5.24,0,0,1-.35-1.06c-.08-.55-.15-1.14-.2-1.74l0-.31a9.09,9.09,0,0,1,0-1.28c0-.27,0-.49,0-.7a10.16,10.16,0,0,1,.13-1.63l.05-.36a11.64,11.64,0,0,1,.25-1.32l0-.24c0-.17.08-.35.11-.53s.08-.51.12-.8a11.47,11.47,0,0,1,.2-1.13,10.41,10.41,0,0,1,.33-1c.11-.31.2-.58.28-.85.18-.66.36-1.29.55-1.92a1.05,1.05,0,0,0,.06-.24,4.12,4.12,0,0,0,.05-.52v-.27a4,4,0,0,1,.12-1,5.31,5.31,0,0,1,.36-.89l.1-.22a7.14,7.14,0,0,0,.28-.68l0-.1a6.17,6.17,0,0,1,.19-.61l.14-.42a8,8,0,0,0,.27-.87,5.83,5.83,0,0,0,.12-1.07v-.18a6.88,6.88,0,0,1,.08-.72c0-.18.06-.34.09-.49l.09-.41c.07-.35.14-.71.18-1.08.07-.7.08-1.42.08-2,0-.23,0-.46,0-.7a7.39,7.39,0,0,0,0-1.33,6.23,6.23,0,0,0-.23-1l0-.17c-.09-.3-.15-.52-.21-.73a8.08,8.08,0,0,0-.4-1.13l-.15-.33L253,201a12.18,12.18,0,0,0-.84-1.81,5.15,5.15,0,0,1-.32-.62,6.45,6.45,0,0,0-.65-1.15,14.81,14.81,0,0,0-1.28-1.47,5.29,5.29,0,0,0-1.07-.83l-.18-.13-.38-.28a15.61,15.61,0,0,0-1.59-1.13,5.83,5.83,0,0,1-.71-.47,7,7,0,0,0-1-.6,15.65,15.65,0,0,0-1.84-.59l-.09,0a16.41,16.41,0,0,0-1.81-.35l-.16,0H241a4.59,4.59,0,0,0-1,0h-.1a7.35,7.35,0,0,1-.88,0c-.62,0-1.33,0-2,0-.31,0-.59,0-.88,0a4.8,4.8,0,0,0-1.15,0,17.06,17.06,0,0,0-2,.43c-.55.16-1.24.36-1.87.61a5.23,5.23,0,0,0-1,.6,6,6,0,0,1-.75.49,13.66,13.66,0,0,0-1.69,1,15.14,15.14,0,0,0-1.55,1.18,13.65,13.65,0,0,0-1.23,1.33l-.16.19c-.15.18-.31.34-.47.51a5.76,5.76,0,0,0-.84,1l-.16.25a11.56,11.56,0,0,0-.84,1.46,15.74,15.74,0,0,0-.72,1.78l0,.1a4.21,4.21,0,0,0-.11,1v.11a6.43,6.43,0,0,1-.05.79,13.15,13.15,0,0,0-.11,2c0,.14,0,.39,0,.64a6.33,6.33,0,0,0,0,1.3,15.74,15.74,0,0,0,.38,1.86,17.58,17.58,0,0,0,.58,1.87,4.85,4.85,0,0,0,.56,1l0,0a6.48,6.48,0,0,1,.42.7l.28.62,0,.08c.15.34.31.67.49,1a6.72,6.72,0,0,1,.39.84l.07.15a6.91,6.91,0,0,0,.38.77,4.58,4.58,0,0,0,.71.81,6,6,0,0,1,.63.7,5.16,5.16,0,0,1,.44.88l.07.17a2.76,2.76,0,0,0,.41.74,8.42,8.42,0,0,0,.67.7c.23.22.46.44.67.68a3.2,3.2,0,0,0,.49.48l.45.37a3.21,3.21,0,0,1,1,1.34l0,.09.07.11c.12.23.26.46.32.55l.11.13c.14.17.29.34.43.52l.39.48.45.56a7.44,7.44,0,0,0,.55.53l.12.11a5.49,5.49,0,0,1,.77.74c.44.52.86,1,1.28,1.55.23.29.41.56.6.83s.37.57.56.82.42.56.61.84l.09.13c.16.22.33.46.52.7s.28.35.44.53l.21.23c.22.25.43.49.61.74.4.57.79,1.13,1.16,1.69a10.71,10.71,0,0,1,.54,1l.16.3.24.44.06.09a7.85,7.85,0,0,0,.47.66,7.45,7.45,0,0,1,.67,1,7.45,7.45,0,0,0,.5.78,7,7,0,0,1,.57.92,5.32,5.32,0,0,1,.32,1.1,4.25,4.25,0,0,0,.22.84c.25.61.46,1.22.68,1.91.11.32.23.57.34.83a5.46,5.46,0,0,1,.4,1.07,9.53,9.53,0,0,1,.16,1.09Zm5.87,1.47a2.08,2.08,0,0,0-1.13,2.1,2,2,0,0,0,.72,1.3,1.88,1.88,0,0,0,.87.4,4.65,4.65,0,0,1,.76.2c.7.26,1.38.57,1.83.77a3.13,3.13,0,0,1,.71.48l.06.05a6.91,6.91,0,0,0,.73.58l.12.07a4.94,4.94,0,0,0,.57.26l.16.06.1,0a6.81,6.81,0,0,1,1,.45c.19.11.43.22.67.33l.12.05a6.24,6.24,0,0,1,1,.48,6.93,6.93,0,0,1,.61.45l.23.2c.27.22.5.41.75.58l.52.37c.37.25.73.51,1.1.78a4.53,4.53,0,0,0,.69.43l.1.06a10.61,10.61,0,0,1,.9.58c.31.24.56.46.82.68l.46.39.27.21c.22.19.48.45.72.69.74.75,1.49,1.31,2.2,1.92a6.39,6.39,0,0,0,.59.41l.16.11a7.07,7.07,0,0,1,.88.58c.3.26.54.5.79.74l.68.64a3.1,3.1,0,0,1,.63.82l.31.5.12.14a2.2,2.2,0,0,0,.27.26,3.54,3.54,0,0,0,.67.43,6.69,6.69,0,0,1,.76.5l.09.08.15.13c.13.11.3.23.47.35l.15.11a6.44,6.44,0,0,1,.71.51l.13.11a3.81,3.81,0,0,1,.6.79c.15.25.35.54.39.6a3.36,3.36,0,0,0,1.07.78,6.68,6.68,0,0,1,.9.57,7.68,7.68,0,0,1,.7.7,4.75,4.75,0,0,0,.79.77l.64.52a9.29,9.29,0,0,0,.89.7,3.7,3.7,0,0,0,.93.47,5.06,5.06,0,0,1,1,.47l.32.19c.44.27.89.54,1.35.78s1.18.58,1.84.85l.57.27.14.07a7.35,7.35,0,0,0,1.17.49,16.9,16.9,0,0,0,1.92.44,3.23,3.23,0,0,0,1,0l.29,0a6.28,6.28,0,0,1,.78,0h.14a13.42,13.42,0,0,0,1.79,0l.34,0a11.81,11.81,0,0,0,1.67-.25l.76-.15a5.4,5.4,0,0,0,1.22-.3,12.9,12.9,0,0,0,1.43-.74l.34-.21a15,15,0,0,0,3.23-2.43,4.34,4.34,0,0,0,.64-.94,6,6,0,0,1,.46-.75c.42-.56.79-1.06,1.13-1.62l.17-.3a14.24,14.24,0,0,0,.78-1.51,8,8,0,0,1,.4-.76,4.57,4.57,0,0,0,.5-1,19,19,0,0,0,.52-2,5.06,5.06,0,0,0,0-1.13,5.54,5.54,0,0,1,0-.89,11.9,11.9,0,0,0,0-1.58v-.43a11.72,11.72,0,0,0-.22-1.7l0-.3a4.53,4.53,0,0,1-.06-.82,4.54,4.54,0,0,0-.12-1.18l-.05-.2a14,14,0,0,0-.58-1.76,5.58,5.58,0,0,0-.66-1.06v0c-.14-.2-.27-.4-.39-.61-.34-.56-.7-1.09-1.12-1.65a6,6,0,0,1-.44-.63,6.26,6.26,0,0,0-.75-1c-.4-.39-.86-.84-1.35-1.24l-.15-.12a9.75,9.75,0,0,0-1-.64l-.11-.06-.54-.31a5.94,5.94,0,0,0-1.12-.52c-.25-.1-.47-.18-.67-.28a6.61,6.61,0,0,1-.64-.34,8.19,8.19,0,0,0-1.06-.5,15.49,15.49,0,0,0-1.92-.49l-.47-.1a14.05,14.05,0,0,0-1.43-.26,5.61,5.61,0,0,0-1.06.06,5.86,5.86,0,0,1-.88.08c-.28,0-.53,0-.79,0-.47,0-.85,0-1.14,0a6.58,6.58,0,0,1-.89,0l-.74-.05a2,2,0,0,0-.64.1,3,3,0,0,0-.55.24.31.31,0,0,0-.1.05,3.49,3.49,0,0,1-.91.35l-1.41.27-.49.1c-.34.07-.65.11-1,.15s-.62.08-.93.14-.71.2-1,.31-.58.19-.89.26-.59.12-.86.16l-.2,0c-.28,0-.6.09-.91.16s-.67.11-1,.15l-.83.11a8.14,8.14,0,0,1-1.16.14,7.74,7.74,0,0,0-.83.07c-.47.07-.89.1-1.32.13l-.61,0a7.18,7.18,0,0,0-.79.15l-.13,0a3.76,3.76,0,0,1-1.21.19,4.18,4.18,0,0,1-1.07-.26,4.69,4.69,0,0,0-1-.29c-.67-.09-1.34-.22-2-.36-.33-.06-.65-.16-1-.25l-.27-.08-.74-.19a3.29,3.29,0,0,0-.87,0h-.12a4.11,4.11,0,0,1-1.13-.05l-1.39-.25-.65-.1c-.3-.06-.62-.15-.88-.23l-.21-.06a5.13,5.13,0,0,0-.9-.2,19.52,19.52,0,0,0-2.07-.06,13,13,0,0,0-2,.16l-.65.08a7.54,7.54,0,0,0-1.38.24A9.46,9.46,0,0,0,251.14,249.5Zm.81-2.25.06.05a2,2,0,0,0,2.19.24c.27-.14.54-.26.81-.37l.67-.3a5.45,5.45,0,0,0,.76-.45,5.14,5.14,0,0,1,.93-.5,6.7,6.7,0,0,1,1-.35l.2-.06c.23-.07.46-.13.67-.21l.67-.25a10.9,10.9,0,0,1,1.1-.37,9.87,9.87,0,0,1,1-.26l.21,0c.19,0,.42-.09.65-.14a8,8,0,0,1,1-.15l.13,0a6,6,0,0,0,.82-.11c.29,0,.63-.09,1.06-.13l.85-.1.86-.17c.35-.07.69-.14,1-.19l1.19-.14.7-.07a6.86,6.86,0,0,0,1-.21h.06a6,6,0,0,1,.9-.18,5.35,5.35,0,0,1,1,0,5.73,5.73,0,0,0,.91,0l.22,0a3.43,3.43,0,0,0,.7-.24,3.93,3.93,0,0,1,1-.3c.3,0,.6-.05.91-.06h.29l.66-.06c.4-.06.71-.12,1-.19l1.05-.22c.55-.12,1.08-.27,1.59-.4l.37-.1a7.4,7.4,0,0,1,.94-.17,4.75,4.75,0,0,0,1-.19l.9-.29c.4-.14.77-.26,1.06-.39l.18-.1a3.61,3.61,0,0,0,.74-.58,4.25,4.25,0,0,1,.78-.62l.27-.15c.48-.28,1-.57,1.45-.91.17-.12.43-.27.7-.43a4.62,4.62,0,0,0,1-.68,17,17,0,0,0,1.41-1.41,4.59,4.59,0,0,0,.6-1,8.29,8.29,0,0,1,.41-.77l.1-.15a13.78,13.78,0,0,0,.93-1.58,8.3,8.3,0,0,1,.47-.77,3.9,3.9,0,0,0,.58-1,7.27,7.27,0,0,0,.28-1.16,7.76,7.76,0,0,1,.17-.84c.06-.23.13-.47.2-.72a6.73,6.73,0,0,0,.29-1.1.37.37,0,0,1,0-.11,12.39,12.39,0,0,0,0-1.36v-.18c0-.1,0-.21,0-.3a11.93,11.93,0,0,0-.17-1.67l0-.31a10.62,10.62,0,0,0-.26-1.22l-.19-.7c0-.12-.07-.28-.11-.45l-.05-.25a6.77,6.77,0,0,0-.3-1.15c-.09-.23-.15-.44-.22-.66l0-.12a7.7,7.7,0,0,0-.39-1,15.29,15.29,0,0,0-.86-1.42l-.27-.41c-.31-.47-.66-1-1-1.46s-.81-1-1.23-1.4a1.9,1.9,0,0,0-.39-.31l-.38-.21-.13-.06a5.1,5.1,0,0,1-.86-.5l-.1-.07c-.17-.15-.31-.31-.44-.44l-.12-.13a5,5,0,0,0-.51-.52,1.77,1.77,0,0,0-.22-.16,11,11,0,0,0-1.37-.69l-.4-.19a10.43,10.43,0,0,0-1.22-.44l-1-.3a9.2,9.2,0,0,0-1.56-.42,11.29,11.29,0,0,0-1.88-.19,12.32,12.32,0,0,0-1.91.09,4.85,4.85,0,0,0-1.16.3l-.7.2a5.54,5.54,0,0,1-.87.14,5.79,5.79,0,0,0-.86.14,1.07,1.07,0,0,0-.27.09,5.28,5.28,0,0,0-1,.61L274,209l-.38.25-.61.33a4.72,4.72,0,0,0-1.08.67,11.56,11.56,0,0,0-1.38,1.45l-.46.51a8.13,8.13,0,0,0-.77.91,1.74,1.74,0,0,0-.18.33,4.21,4.21,0,0,0-.17.53l0,.12a1,1,0,0,0,0,.17,4.46,4.46,0,0,1-.28.85,8.06,8.06,0,0,1-.43.72,7.75,7.75,0,0,0-.56,1c-.1.23-.2.46-.31.68l-.11.25c-.13.3-.26.59-.37.9s-.19.44-.28.65l-.19.44a7.19,7.19,0,0,0-.32.76c-.1.3-.18.6-.25.89a7.44,7.44,0,0,1-.29,1,6.9,6.9,0,0,0-.22.8l0,.11a6.21,6.21,0,0,1-.29,1c-.26.66-.51,1.28-.79,1.88s-.58,1.22-.91,1.83a4.55,4.55,0,0,1-.73.88,5,5,0,0,0-.59.67,9.66,9.66,0,0,0-.48.84,5.74,5.74,0,0,1-.58,1l-.32.4c-.35.46-.66.86-.95,1.18a6.7,6.7,0,0,0-.46.55l-.16.19q-.37.47-.75.87c-.23.24-.43.44-.65.64a9.51,9.51,0,0,0-.84.84c-.36.4-.72.87-1.11,1.38l-.17.21c-.34.46-.68,1-1,1.51l-.12.21a5.79,5.79,0,0,1-.54.65,4.3,4.3,0,0,0-.72,1l-.24.46c-.23.44-.46.9-.67,1.4-.11.24-.23.55-.36.87l-.06.14a2,2,0,0,0-.14.55,4.67,4.67,0,0,1-.17.55A2,2,0,0,0,252,247.25Z" style="fill: #00a550"/>
    <path d="M287.68,211.56a4.38,4.38,0,0,0-.36-.37,9.38,9.38,0,0,0-1.1-.55l-.42-.19a9,9,0,0,0-1.18-.41l-.75-.24a8.37,8.37,0,0,0-1.26-.35,10.38,10.38,0,0,0-1.64-.17,12.37,12.37,0,0,0-1.65.07,4.33,4.33,0,0,0-.73.21c-.28.09-.58.18-.87.25a7.39,7.39,0,0,1-1.15.19l-.55.08a4.24,4.24,0,0,0-.72.45c-.23.15-.45.31-.68.45l-.73.4a4.76,4.76,0,0,0-.7.4A10.9,10.9,0,0,0,272,213l-.51.57a7.21,7.21,0,0,0-.61.71c0,.06-.07.27-.11.42a6.6,6.6,0,0,1-.46,1.36c-.16.31-.34.61-.53.91a5.39,5.39,0,0,0-.4.69c-.1.26-.22.51-.34.76s-.29.65-.42,1-.28.67-.43,1-.24.53-.34.81-.14.49-.2.73a10.45,10.45,0,0,1-.35,1.21,5.33,5.33,0,0,0-.17.66,8.19,8.19,0,0,1-.39,1.34c-.26.65-.53,1.31-.83,2s-.64,1.35-1,1.94a6.27,6.27,0,0,1-1.07,1.34,3.61,3.61,0,0,0-.35.38,6.88,6.88,0,0,0-.36.64,8.19,8.19,0,0,1-.77,1.28l-.34.42c-.35.46-.7.91-1.06,1.3-.19.21-.37.44-.54.65s-.56.68-.85,1a8.62,8.62,0,0,1-.75.73c-.22.22-.46.44-.68.69s-.69.84-1.06,1.31l-.11.16a16.28,16.28,0,0,0-.91,1.37l-.1.17a7.43,7.43,0,0,1-.79,1,3.5,3.5,0,0,0-.41.5l-.16.3c-.22.45-.47.92-.69,1.43-.14.31-.27.65-.41,1a.34.34,0,0,1,0,.1,5.26,5.26,0,0,1-.29,1c.32-.17.64-.3,1-.44l.59-.26a6.16,6.16,0,0,0,.55-.33,6.42,6.42,0,0,1,1.26-.67,9.5,9.5,0,0,1,1.3-.44c.22-.07.44-.12.64-.2s.42-.14.64-.23c.43-.16.86-.32,1.3-.44s.9-.23,1.34-.33l.64-.14a10.5,10.5,0,0,1,1.33-.2c.23,0,.46-.05.67-.09a10.92,10.92,0,0,1,1.28-.16l.7-.08.75-.15c.41-.09.8-.17,1.2-.22l1.27-.15.69-.07A4.37,4.37,0,0,0,271,241a9.21,9.21,0,0,1,1.27-.25,7.44,7.44,0,0,1,1.33,0,3.15,3.15,0,0,0,.59,0,2.68,2.68,0,0,0,.4-.15,5.44,5.44,0,0,1,1.46-.41c.36-.05.71-.06,1.07-.08s.53,0,.78,0c.44-.07.86-.17,1.28-.25l.63-.14c.51-.11,1-.24,1.49-.37l.37-.1a10,10,0,0,1,1.23-.23,3.31,3.31,0,0,0,.64-.1l.68-.22c.41-.14.8-.26,1.08-.39a2.74,2.74,0,0,0,.37-.31,5.73,5.73,0,0,1,1.17-.9,17,17,0,0,0,1.5-.93c.3-.19.6-.38.92-.56a4.38,4.38,0,0,0,.61-.39,16.6,16.6,0,0,0,1.26-1.26,3.23,3.23,0,0,0,.3-.57,8.15,8.15,0,0,1,.56-1l.08-.13a15.06,15.06,0,0,0,.83-1.4,7.22,7.22,0,0,1,.62-1,3.19,3.19,0,0,0,.34-.55,5.54,5.54,0,0,0,.19-.87c.05-.31.12-.62.2-.94s.14-.54.22-.81a4.56,4.56,0,0,0,.22-.81,10,10,0,0,0,0-1.11c0-.19,0-.4,0-.59a9.84,9.84,0,0,0-.15-1.33l0-.35a9.27,9.27,0,0,0-.27-1.18l-.13-.47c-.07-.27-.12-.53-.19-.8a4.22,4.22,0,0,0-.21-.88,8.13,8.13,0,0,1-.26-.79,7.53,7.53,0,0,0-.32-.84,13.21,13.21,0,0,0-.74-1.21l-.17-.28c-.31-.46-.66-1-1-1.42s-.81-.95-1.12-1.27l-.38-.2a5.71,5.71,0,0,1-1.19-.7A7.7,7.7,0,0,1,287.68,211.56ZM266.86,276.1c-.4-.38-.8-.78-1.2-1.19s-1-1-1.46-1.53c-.29-.32-.56-.68-.84-1a7.36,7.36,0,0,0-.47-.63,12,12,0,0,1-.79-1c-.15-.22-.32-.44-.49-.68s-.47-.63-.72-1l-.5-.7c-.23-.31-.44-.62-.65-.95s-.32-.52-.5-.77-.37-.46-.56-.68A10.66,10.66,0,0,1,258,265c-.16-.21-.35-.4-.53-.6a10.18,10.18,0,0,1-.81-.93c-.19-.26-.41-.51-.62-.75s-.46-.53-.67-.81a7,7,0,0,1-.73-1.17,5.13,5.13,0,0,0-.32-.55,4,4,0,0,0-.54-.48,10.25,10.25,0,0,1-.92-.87,11,11,0,0,1-.72-.93,6.55,6.55,0,0,0-.48-.61c-.24-.25-.47-.5-.69-.76a6.51,6.51,0,0,0-.58-.63s0,0,0,0,0,.3.07.43a3.69,3.69,0,0,0,.09.58,2.93,2.93,0,0,0,.19.57,7.8,7.8,0,0,1,.43,1.54,6,6,0,0,1-.08,1.7,2.59,2.59,0,0,0-.06.47c0,.21,0,.44.06.66a10.38,10.38,0,0,1,.09,1.44c0,.49,0,1-.07,1.5l0,.55a9.22,9.22,0,0,1-.21,1.34,3.87,3.87,0,0,0-.11.62,1.34,1.34,0,0,0,.07.39,5.27,5.27,0,0,1,.14,1.69,5.44,5.44,0,0,1-.38,1.46,3.08,3.08,0,0,0-.14.46,4.54,4.54,0,0,0,0,.74,9.78,9.78,0,0,1,0,1.21c0,.28-.05.56-.09.84s-.08.72-.1,1.09a10.8,10.8,0,0,1-.16,1.1c0,.26-.09.53-.11.8a4.72,4.72,0,0,0,.07.49,7.28,7.28,0,0,1,.14,1.43,10,10,0,0,1-.13,1.2,5.71,5.71,0,0,0-.09.69,5,5,0,0,0,.09.63,9.35,9.35,0,0,1,.17,1.27c0,.31,0,.62,0,.94s0,.63,0,.94,0,.55.05.82,0,.72.06,1.09a5.66,5.66,0,0,0,.15.66,11,11,0,0,1,.27,1.2,6.57,6.57,0,0,1,0,1.43c0,.16,0,.37,0,.41.08.37.2.74.32,1.11l.21.63c.18.61.36,1.18.57,1.75a8.52,8.52,0,0,0,.4.81,7.16,7.16,0,0,1,.42.83c.11.21.21.44.31.67a8.89,8.89,0,0,0,.46,1,4.7,4.7,0,0,0,.36.4,6.94,6.94,0,0,1,.83,1,7.33,7.33,0,0,1,.61,1.23,2.71,2.71,0,0,0,.18.42c.23.28.88.75,1.32,1.2l.38.39c.3.31.58.61.86.85a7.37,7.37,0,0,0,.92.62l.52.33a6.13,6.13,0,0,0,.88.42c.21.1.43.19.63.3a5.6,5.6,0,0,1,1,.61,2.49,2.49,0,0,0,.42.27l.44.15a7.64,7.64,0,0,0,1.19.32,2.55,2.55,0,0,0,.65,0c.35,0,.69,0,1,0h.23a10.1,10.1,0,0,0,1.49,0,11,11,0,0,0,1.67-.42l.43-.13a8.16,8.16,0,0,0,1.22-.43,3,3,0,0,0,.5-.39,6.78,6.78,0,0,1,.88-.71c.29-.19.6-.36.9-.53a3.56,3.56,0,0,0,.63-.38l.42-.36a9.56,9.56,0,0,0,.9-.84l.37-.44a7.44,7.44,0,0,0,.76-.92,3.67,3.67,0,0,0,.13-.47,7.47,7.47,0,0,1,.43-1.29c.14-.3.31-.59.48-.88a4.61,4.61,0,0,0,.36-.67,10.47,10.47,0,0,0,.26-1.35l.06-.37a11.49,11.49,0,0,0,0-1.36v-.36a9.41,9.41,0,0,1,.07-1,3.63,3.63,0,0,0,0-.68,5.19,5.19,0,0,0-.23-.72,6.78,6.78,0,0,1-.35-1.05,17,17,0,0,0-.51-1.73,12.64,12.64,0,0,0-.7-1.63,16.55,16.55,0,0,0-.86-1.56c-.12-.19-.24-.39-.37-.58a7.44,7.44,0,0,0-.61-.95,5.32,5.32,0,0,0-.63-.63c-.23-.24-.46-.46-.68-.7s-.45-.53-.68-.8a4.35,4.35,0,0,0-.55-.66c-.25-.26-.49-.53-.74-.81a6.16,6.16,0,0,0-.6-.65h0a3,3,0,0,0-.43-.27,7.09,7.09,0,0,1-1.25-.88l-.95-.91ZM270.08,263c.1.08.32.21.53.34a7.39,7.39,0,0,1,1.14.79c.3.26.57.52.86.79l.6.57a5.31,5.31,0,0,1,1,1.32c.07.12.13.24.18.31a2.44,2.44,0,0,0,.49.32,6.48,6.48,0,0,1,1.17.82c.14.12.35.26.57.42a8.37,8.37,0,0,1,1,.76,5.93,5.93,0,0,1,1,1.26c.08.14.2.33.23.37s.32.19.52.3a7.82,7.82,0,0,1,1.16.76,9,9,0,0,1,.93.92,4.16,4.16,0,0,0,.46.47l.74.6c.26.22.51.43.78.62a3.48,3.48,0,0,0,.55.24,7.25,7.25,0,0,1,1.3.62c.51.31,1,.62,1.54.9s1,.51,1.68.78l.8.38a5.69,5.69,0,0,0,.86.37,17.08,17.08,0,0,0,1.75.4,4.67,4.67,0,0,0,.61,0,9.76,9.76,0,0,1,1.14-.05h.15a11.39,11.39,0,0,0,1.54,0l.31,0a9.76,9.76,0,0,0,1.37-.2l.87-.17a4.93,4.93,0,0,0,.83-.19,11.54,11.54,0,0,0,1.33-.7l.2-.12a12.77,12.77,0,0,0,1.46-1,11.5,11.5,0,0,0,1.34-1.14,3.75,3.75,0,0,0,.34-.54,7.74,7.74,0,0,1,.6-1c.41-.54.73-1,1-1.45a16.83,16.83,0,0,0,.82-1.56,7.06,7.06,0,0,1,.53-1,5.37,5.37,0,0,0,.32-.61,16.11,16.11,0,0,0,.44-1.76,3.41,3.41,0,0,0,0-.63,7.66,7.66,0,0,1,0-1.19,11.94,11.94,0,0,0,0-1.46v-.32a11.34,11.34,0,0,0-.18-1.41l-.06-.34a8,8,0,0,1-.08-1.14,3.44,3.44,0,0,0-.05-.64l-.05-.2a11.84,11.84,0,0,0-.49-1.49,4.27,4.27,0,0,0-.43-.69c-.18-.26-.36-.52-.52-.8a16.83,16.83,0,0,0-1-1.45c-.2-.25-.38-.52-.55-.78a4,4,0,0,0-.47-.67c-.4-.39-.86-.83-1.33-1.21a6.84,6.84,0,0,0-.81-.5c-.23-.13-.46-.25-.68-.39a5.54,5.54,0,0,0-.75-.34q-.42-.15-.81-.33c-.27-.13-.52-.26-.78-.41a6.84,6.84,0,0,0-.73-.36,16.77,16.77,0,0,0-1.66-.41l-.56-.12a9.38,9.38,0,0,0-1.12-.21c-.12,0-.38,0-.62,0a7.44,7.44,0,0,1-1.14.1c-.31,0-.62,0-.92,0a6.62,6.62,0,0,0-.87,0,9.76,9.76,0,0,1-1.24,0l-.55,0a3.82,3.82,0,0,0-.36.17,5.36,5.36,0,0,1-1.47.54c-.62.11-1.23.24-1.85.36-.36.08-.73.13-1.11.18a7.18,7.18,0,0,0-.79.12,4.71,4.71,0,0,0-.73.22,11.59,11.59,0,0,1-1.15.33c-.38.09-.77.15-1.16.22s-.53.08-.79.14c-.41.09-.83.14-1.25.19l-.75.1a8.58,8.58,0,0,1-1.34.15c-.23,0-.47,0-.7.06-.54.08-1.09.12-1.64.16l-.42,0c-.11,0-.33.07-.52.11a5.67,5.67,0,0,1-1.83.26,6.43,6.43,0,0,1-1.71-.4,4.23,4.23,0,0,0-.51-.17c-.72-.1-1.43-.23-2.16-.37-.41-.08-.82-.21-1.23-.33l-.8-.21a4.45,4.45,0,0,0-.52,0,5.78,5.78,0,0,1-1.56-.09c-.43-.09-.86-.16-1.29-.23l-.66-.11a10.31,10.31,0,0,1-1.16-.29,5.34,5.34,0,0,0-.72-.18,15.25,15.25,0,0,0-1.85-.05,12.59,12.59,0,0,0-1.78.14l-.56.07a7.75,7.75,0,0,0-1.15.18,9.56,9.56,0,0,0-1.15.51l-.09.05a6.1,6.1,0,0,1,1.12.28c.73.28,1.43.59,2,.83a4.81,4.81,0,0,1,1.08.71l.26.23c.13.1.32.26.39.3s.38.16.58.25a8.91,8.91,0,0,1,1.32.59,3.83,3.83,0,0,0,.58.27,9,9,0,0,1,1.27.65,8.49,8.49,0,0,1,1.05.81c.19.15.38.31.58.45.55.39,1.11.77,1.66,1.17a4.6,4.6,0,0,0,.6.37,10.53,10.53,0,0,1,1.12.73c.32.24.63.51.93.77s.41.35.62.51c.36.3.67.61.94.88C268.66,261.8,269.4,262.35,270.08,263Zm-45.3-36a5.33,5.33,0,0,1,1.17.91c.21.21.41.45.61.68a6.48,6.48,0,0,0,.62.67,11,11,0,0,1,.77.86,3,3,0,0,0,.45.51,8.68,8.68,0,0,1,.71.66,7.56,7.56,0,0,0,.65.57,5.46,5.46,0,0,0,.59.38l1.05.7.86.68.69.55c.12.08.32.2.53.31a8.84,8.84,0,0,1,1.18.74,7.17,7.17,0,0,1,1,.94c.17.18.35.35.47.46l1,.81.56.48.56.38c.21.13.45.29.68.46-.16-.25-.29-.52-.43-.79s-.27-.52-.43-.77c-.35-.54-.72-1.06-1.1-1.59a7.91,7.91,0,0,0-.52-.63,10.29,10.29,0,0,1-.74-.87l-.53-.73c-.2-.29-.4-.58-.62-.85s-.44-.62-.65-.93a8,8,0,0,0-.49-.7c-.41-.51-.84-1-1.26-1.52a3.47,3.47,0,0,0-.51-.49,8.53,8.53,0,0,1-.92-.9c-.22-.26-.43-.53-.66-.79s-.4-.5-.6-.75a6,6,0,0,1-.85-1.34,2.56,2.56,0,0,0-.21-.39,3.66,3.66,0,0,0-.43-.38,7.6,7.6,0,0,1-1.05-1,5.52,5.52,0,0,0-.48-.49,9.92,9.92,0,0,1-.93-1,5.72,5.72,0,0,1-.78-1.43,2.43,2.43,0,0,0-.18-.41,2.74,2.74,0,0,0-.39-.42,7.22,7.22,0,0,1-1-1.13,9.2,9.2,0,0,1-.67-1.33,4,4,0,0,0-.25-.56,14.73,14.73,0,0,1-.65-1.34,5.52,5.52,0,0,0-.26-.55c0-.11-.17-.28-.29-.47a6.14,6.14,0,0,1-.78-1.39,21.37,21.37,0,0,1-.65-2.09,20.24,20.24,0,0,1-.45-2.18,10.19,10.19,0,0,1-.05-1.72c0-.17,0-.35,0-.52a14,14,0,0,1,.13-2.25,3.14,3.14,0,0,0,0-.53,7.07,7.07,0,0,1,.23-1.75,18.75,18.75,0,0,1,.84-2.1,16.84,16.84,0,0,1,1.06-1.87l.11-.16a8.78,8.78,0,0,1,1.11-1.34l.39-.43.12-.14a15.76,15.76,0,0,1,1.44-1.55,18.05,18.05,0,0,1,1.81-1.4,19.18,19.18,0,0,1,1.93-1.15,5.54,5.54,0,0,0,.51-.33,7,7,0,0,1,1.44-.84,18,18,0,0,1,2.15-.71,21.39,21.39,0,0,1,2.2-.48,8.71,8.71,0,0,1,1.64-.07,3.12,3.12,0,0,0,.61,0,20.51,20.51,0,0,1,2.25,0,4,4,0,0,0,.59,0,8.58,8.58,0,0,1,1.67,0l.17,0a17.45,17.45,0,0,1,2.07.4l.18,0a17.38,17.38,0,0,1,2,.65,7.14,7.14,0,0,1,1.48.88,4.39,4.39,0,0,0,.5.34,16.52,16.52,0,0,1,1.88,1.32c.15.11.32.22.47.34a8,8,0,0,1,1.36,1.07A15.57,15.57,0,0,1,253,196a10.2,10.2,0,0,1,.85,1.46c.09.18.16.36.26.52a16.37,16.37,0,0,1,1,2.06c.06.17.13.33.2.48a12.46,12.46,0,0,1,.61,1.68,5.15,5.15,0,0,0,.16.56,10.14,10.14,0,0,1,.37,1.69,10.39,10.39,0,0,1,0,1.67l0,.6a21.26,21.26,0,0,1-.09,2.21c-.06.55-.17,1.05-.26,1.53-.05.19-.08.4-.12.6a4.76,4.76,0,0,0-.06.65,8.38,8.38,0,0,1-.18,1.47,12,12,0,0,1-.4,1.27c-.08.24-.17.48-.23.73a8.42,8.42,0,0,1-.52,1.29c-.1.24-.21.46-.25.6a2.13,2.13,0,0,0,0,.48,6.46,6.46,0,0,1-.21,1.56c-.19.63-.37,1.26-.54,1.9-.1.33-.22.66-.33,1a6.5,6.5,0,0,0-.28.85,7.31,7.31,0,0,0-.14.92c-.05.32-.09.64-.16,1s-.1.5-.16.75-.15.7-.2,1.06l-.06.45a8.85,8.85,0,0,0-.11,1.28c0,.27,0,.53,0,.8a7.06,7.06,0,0,0,0,1l0,.26c.06.55.11,1.09.19,1.62,0,.1.12.34.19.52a6.11,6.11,0,0,1,.45,1.37,6.63,6.63,0,0,1,.09,1.48,3.67,3.67,0,0,0,0,.58c.07.34.11.69.17,1,.15-.21.29-.43.45-.65l.11-.14c.4-.52.82-1.08,1.28-1.59.3-.33.62-.63.94-.93l.58-.57c.21-.23.41-.47.62-.73s.44-.54.68-.81.57-.68.86-1.07l.36-.44a6.74,6.74,0,0,0,.33-.6,9.26,9.26,0,0,1,.63-1.08,7.39,7.39,0,0,1,.84-1,2.38,2.38,0,0,0,.36-.4c.28-.49.55-1,.83-1.65s.5-1.16.73-1.75a4.85,4.85,0,0,0,.19-.7,10.29,10.29,0,0,1,.33-1.18,6.57,6.57,0,0,0,.21-.76c.1-.39.2-.77.33-1.15s.31-.76.48-1.14.22-.49.31-.74c.16-.43.35-.85.54-1.27.1-.21.2-.43.29-.65a8.75,8.75,0,0,1,.72-1.31,6.32,6.32,0,0,0,.33-.56c0-.07.08-.29.12-.44a5.3,5.3,0,0,1,.65-1.68,10.62,10.62,0,0,1,1.08-1.35l.39-.42a14.12,14.12,0,0,1,1.63-1.7,7.29,7.29,0,0,1,1.52-1c.17-.09.34-.18.5-.28l.45-.3a7.78,7.78,0,0,1,1.58-.9,5.8,5.8,0,0,1,1.66-.36,4,4,0,0,0,.59-.09c.19,0,.38-.11.56-.16a7.38,7.38,0,0,1,1.62-.4,16.48,16.48,0,0,1,2.25-.1,15.91,15.91,0,0,1,2.24.23,13.17,13.17,0,0,1,1.84.5l.69.21a13.22,13.22,0,0,1,1.73.63l.38.17a14.46,14.46,0,0,1,1.61.82,6,6,0,0,1,1.26,1.13,4,4,0,0,0,.36.36l.38.21a5.43,5.43,0,0,1,1.5,1,20,20,0,0,1,1.47,1.64c.48.61.91,1.26,1.26,1.8l.17.25a16.91,16.91,0,0,1,1,1.62,9.76,9.76,0,0,1,.58,1.48c.06.19.12.38.2.58a11.12,11.12,0,0,1,.41,1.54c0,.2.08.39.12.59l.12.41a15.9,15.9,0,0,1,.38,1.72l0,.33a11.88,11.88,0,0,1,.18,1.88c0,.16,0,.33,0,.49a12.94,12.94,0,0,1,0,1.75,9,9,0,0,1-.39,1.61c-.06.18-.11.37-.17.56s-.08.45-.12.68a9.66,9.66,0,0,1-.38,1.55,6.81,6.81,0,0,1-.85,1.54,2.88,2.88,0,0,0-.3.47,14.57,14.57,0,0,1-1.09,1.85l-.07.12a4.41,4.41,0,0,0-.28.52,6.09,6.09,0,0,1-.9,1.49,17.27,17.27,0,0,1-1.64,1.67,8.55,8.55,0,0,1-1.39,1l-.54.31a18.86,18.86,0,0,1-1.91,1.2,2.57,2.57,0,0,0-.36.3,5.3,5.3,0,0,1-1.49,1.06,13.79,13.79,0,0,1-1.54.56l-.58.19a7.06,7.06,0,0,1-1.56.33,4.17,4.17,0,0,0-.63.1l-.35.09c-.57.16-1.16.32-1.75.44l-.59.13c-.51.11-1,.22-1.54.29a12.24,12.24,0,0,1-1.25.11l-.72,0-.39.15a6.23,6.23,0,0,1-1.52.43,8.39,8.39,0,0,1-1.33,0,4.73,4.73,0,0,0-.62,0c-.16,0-.39.08-.64.15a10.4,10.4,0,0,1-1.24.25l-.73.08c-.38,0-.76.07-1.14.13a8.15,8.15,0,0,0-.86.16c-.33.07-.65.14-1,.19s-.65.09-1,.12a8.2,8.2,0,0,0-.85.1,8.68,8.68,0,0,1-1,.14,5.14,5.14,0,0,0-.78.12l-.75.16-.78.18c.42.08.84.14,1.26.23a4.45,4.45,0,0,0,.52,0,5.71,5.71,0,0,1,1.6.1c.37.08.72.19,1.09.29s.58.17.87.23c.64.13,1.28.25,1.92.34a6.4,6.4,0,0,1,1.34.37c.18,0,.41.14.48.15a4.3,4.3,0,0,0,.54-.11,6.61,6.61,0,0,1,1.25-.24l.45,0c.46,0,.9-.07,1.36-.14s.69-.07,1-.09a7.53,7.53,0,0,0,.83-.08c.33-.06.66-.11,1-.14s.6-.08.89-.14.68-.13,1-.18.6-.09.88-.16A6.75,6.75,0,0,0,281,247c.38-.13.77-.25,1.15-.34a10.13,10.13,0,0,1,1.21-.19,6.33,6.33,0,0,0,.76-.12c.66-.14,1.31-.26,1.93-.38a2.06,2.06,0,0,0,.37-.16,4.84,4.84,0,0,1,1.63-.56,7.23,7.23,0,0,1,1.54,0,4,4,0,0,0,.56,0,8.85,8.85,0,0,1,1.47,0l.65,0a3.73,3.73,0,0,0,.56-.07,7.2,7.2,0,0,1,1.6-.07,13.69,13.69,0,0,1,1.65.29l.49.11a18.12,18.12,0,0,1,2.14.54,7.27,7.27,0,0,1,1.45.68l.55.28.53.22a8.5,8.5,0,0,1,1.47.69l.5.29a10.45,10.45,0,0,1,1.37.87,21.67,21.67,0,0,1,1.71,1.55,9,9,0,0,1,1,1.37c.11.16.22.34.34.5a17.21,17.21,0,0,1,1.29,1.9,5.65,5.65,0,0,0,.34.51,8.93,8.93,0,0,1,.86,1.46,15.62,15.62,0,0,1,.66,2l.06.2a6.62,6.62,0,0,1,.21,1.71,5.44,5.44,0,0,0,0,.57l.05.32a17.93,17.93,0,0,1,.23,1.93l0,.31a18.29,18.29,0,0,1,0,2,3.75,3.75,0,0,0,0,.58,6.34,6.34,0,0,1-.06,1.71,20,20,0,0,1-.55,2.23,7.57,7.57,0,0,1-.72,1.53,3,3,0,0,0-.29.52,20.64,20.64,0,0,1-1,2,17.82,17.82,0,0,1-1.29,1.88c-.12.16-.21.33-.31.49a5.58,5.58,0,0,1-1,1.43,16.92,16.92,0,0,1-1.76,1.53,16.45,16.45,0,0,1-1.95,1.28l-.21.12a14.72,14.72,0,0,1-1.87,1,8.81,8.81,0,0,1-1.71.44l-.57.1a12.5,12.5,0,0,1-2,.31l-.29,0a13.26,13.26,0,0,1-2.18,0h-.15a5.21,5.21,0,0,0-.55,0,5.91,5.91,0,0,1-1.77,0,20.87,20.87,0,0,1-2.23-.52,9.29,9.29,0,0,1-1.47-.62l-.59-.28c-.75-.32-1.41-.62-2-.93s-1.22-.69-1.89-1.1c-.09-.05-.31-.14-.51-.22a6.62,6.62,0,0,1-1.45-.71,13,13,0,0,1-1.09-.87l-.58-.47a7.74,7.74,0,0,1-1.08-1,4.59,4.59,0,0,0-.43-.44c-.15-.08-.31-.21-.52-.32a6.73,6.73,0,0,1-1.27-.84,5.37,5.37,0,0,1-1.06-1.34,3.46,3.46,0,0,0-.22-.34,4.14,4.14,0,0,0-.53-.38,10.17,10.17,0,0,1-1.06-.8,3.59,3.59,0,0,0-.45-.29,7.63,7.63,0,0,1-1.18-.83,5.34,5.34,0,0,1-1-1.28c-.08-.13-.18-.3-.21-.33-.24-.23-.49-.45-.73-.69l-.71-.65a3.12,3.12,0,0,0-.52-.34,10.11,10.11,0,0,1-1.11-.76c-.77-.67-1.59-1.31-2.33-2.05a6,6,0,0,0-.57-.55c-.26-.19-.49-.4-.74-.61a8.94,8.94,0,0,0-.76-.62c-.16-.13-.39-.26-.64-.42a8.26,8.26,0,0,1-1-.62c-.53-.38-1.05-.75-1.58-1.11l-.41-.33c.27.32.53.63.78.95a5,5,0,0,0,.52.6,11.11,11.11,0,0,1,.84,1c.18.24.37.46.56.69s.51.61.74.91.45.67.66,1a7.12,7.12,0,0,0,.47.7l.55.77.63.87c.22.27.41.54.59.81s.38.53.57.77.43.53.63.8a8.29,8.29,0,0,0,.58.72c.44.5.9,1,1.34,1.43l1.12,1.09.84.81c.29.3.58.57.87.85l.47.3a5.51,5.51,0,0,1,1.22.86,11.75,11.75,0,0,1,.91,1c.17.19.33.38.51.56a12,12,0,0,1,.93,1.08,5.85,5.85,0,0,0,.45.54c.15.17.31.33.48.49a9.13,9.13,0,0,1,1,1.09,11,11,0,0,1,.92,1.38l.31.49a20,20,0,0,1,1.09,2,18.54,18.54,0,0,1,.9,2.06,21.81,21.81,0,0,1,.63,2.15,3,3,0,0,0,.19.55,7.48,7.48,0,0,1,.46,1.58,6.3,6.3,0,0,1,0,1.85,5.66,5.66,0,0,0,0,.57v.33a13.58,13.58,0,0,1-.11,2l0,.34a11.38,11.38,0,0,1-.41,2,7.48,7.48,0,0,1-.76,1.6,5.29,5.29,0,0,0-.29.52,3.26,3.26,0,0,0-.14.48,5.72,5.72,0,0,1-.68,1.76,14.62,14.62,0,0,1-1.17,1.46l-.33.38a13.23,13.23,0,0,1-1.35,1.29l-.37.32a6.85,6.85,0,0,1-1.46,1c-.18.1-.36.19-.53.3a5,5,0,0,0-.43.37,6.71,6.71,0,0,1-1.47,1,13.3,13.3,0,0,1-1.88.69l-.38.11a16.07,16.07,0,0,1-2.32.57,12.87,12.87,0,0,1-2.2.08h-.21c-.19,0-.4,0-.59,0a6.61,6.61,0,0,1-1.72,0,12.89,12.89,0,0,1-1.84-.48l-.39-.13a6,6,0,0,1-1.59-.84,2.74,2.74,0,0,0-.41-.28l-.5-.22a8.63,8.63,0,0,1-1.51-.77c-.15-.09-.29-.19-.44-.27a11.28,11.28,0,0,1-1.39-1l0,0a15.73,15.73,0,0,1-1.23-1.2l-.34-.35a3.42,3.42,0,0,0-.4-.36,8.39,8.39,0,0,1-1.19-1.15,5.72,5.72,0,0,1-.82-1.51,4.35,4.35,0,0,0-.18-.43,3.66,3.66,0,0,0-.36-.4,6.14,6.14,0,0,1-1-1.28c-.27-.48-.47-1-.66-1.38l-.25-.57c-.09-.2-.21-.4-.31-.6a10.15,10.15,0,0,1-.64-1.32c-.26-.68-.47-1.35-.67-2l-.18-.56c-.15-.48-.31-1-.43-1.51a5.53,5.53,0,0,1,0-1.8,1.89,1.89,0,0,0,0-.38,6.38,6.38,0,0,0-.15-.66A8.88,8.88,0,0,1,246,287c0-.45-.07-.89-.08-1.34,0-.24,0-.47,0-.7,0-.44,0-.88,0-1.31,0-.24,0-.49,0-.73s-.06-.39-.1-.64a7.58,7.58,0,0,1-.15-1.39,7.74,7.74,0,0,1,.13-1.39,4.48,4.48,0,0,0,.08-.64,3.51,3.51,0,0,0-.07-.53,6.54,6.54,0,0,1-.14-1.5c0-.48.11-.91.17-1.29s.09-.47.11-.71c0-.41.08-.82.12-1.21s.05-.53.08-.78a6.4,6.4,0,0,0,0-.76,10.47,10.47,0,0,1,0-1.22,6.37,6.37,0,0,1,.38-1.51c.06-.15.13-.35.15-.38a4,4,0,0,0-.09-.4,5.72,5.72,0,0,1-.14-1.6,7.49,7.49,0,0,1,.2-1.2,4.29,4.29,0,0,0,.11-.68l0-.6c0-.42.06-.84.06-1.26a6.36,6.36,0,0,0-.07-.92c0-.3-.06-.59-.08-.9a6.77,6.77,0,0,1,.11-1.37c0-.18.06-.39.06-.45a4,4,0,0,0-.2-.64,10.68,10.68,0,0,1-.34-1.05c-.08-.33-.12-.67-.17-1a4.4,4.4,0,0,0-.13-.74c-.07-.2-.18-.41-.29-.65a8.22,8.22,0,0,1-.94.47,7.34,7.34,0,0,1-1.28.33,3.82,3.82,0,0,0-.54.12,4.24,4.24,0,0,0-.48.33,9.87,9.87,0,0,1-1.07.72l-.16.07c-.48.26-1,.52-1.46.81l-.19.11c-.46.27-.93.55-1.38.85a8.05,8.05,0,0,1-1,.58,4.22,4.22,0,0,0-.6.33,7.3,7.3,0,0,0-.61.57c-.24.23-.48.47-.74.69s-.42.41-.63.63-.43.47-.67.69c-.44.42-.85.86-1.29,1.32a6.76,6.76,0,0,1-.87.79,4.19,4.19,0,0,0-.51.47,5.11,5.11,0,0,0-.45.65c-.19.3-.39.61-.61.9a8.06,8.06,0,0,0-.47.72c-.17.29-.35.58-.54.86s-.55.71-.84,1.07c-.18.2-.36.41-.52.62-.43.57-.86,1.14-1.34,1.71l-.46.6c-.29.38-.56.74-.88,1.09a12.91,12.91,0,0,1-1,1c-.19.18-.39.35-.57.54l-.51.59a14.1,14.1,0,0,1-1,1c-.37.35-.77.7-1.18,1l-.46.4a9.61,9.61,0,0,1-1.26.87,6.39,6.39,0,0,0-.58.36l-.52.43c-.38.31-.79.64-1.24.94l-.56.4a11.73,11.73,0,0,1-1.3.87,19.93,19.93,0,0,1-2.07,1.05,2.15,2.15,0,0,1-2.21-.33,2.09,2.09,0,0,1-.6-.8,2.16,2.16,0,0,1,1.13-2.83,17,17,0,0,0,1.65-.84,7.84,7.84,0,0,0,.84-.57l.73-.53c.31-.2.61-.45.91-.69l.61-.5a9.34,9.34,0,0,1,1-.65,5.62,5.62,0,0,0,.65-.43l.5-.43c.34-.29.68-.57,1-.87a8.17,8.17,0,0,0,.62-.7c.24-.27.46-.54.71-.79s.5-.5.75-.74a8.36,8.36,0,0,0,.67-.66c.26-.28.47-.57.69-.85s.37-.49.56-.72c.43-.52.83-1.06,1.23-1.58.22-.29.44-.55.67-.82s.41-.49.58-.73.28-.42.4-.63a11.65,11.65,0,0,1,.73-1.12,5.08,5.08,0,0,0,.4-.59,9,9,0,0,1,.79-1.12,9.56,9.56,0,0,1,1.07-1,3.57,3.57,0,0,0,.46-.4c.48-.52,1-1,1.46-1.49l.5-.51a9.69,9.69,0,0,1,1-1c.19-.16.35-.33.52-.49a12.29,12.29,0,0,1,1-.93,7.49,7.49,0,0,1,1.31-.77,4.3,4.3,0,0,0,.52-.28c.52-.35,1.06-.67,1.59-1l.18-.11c.57-.34,1.12-.64,1.68-.93l.15-.08a2.94,2.94,0,0,0,.49-.34c.22-.16.5-.35.8-.53l-.21-.07a8,8,0,0,1-1.11-.44,4.51,4.51,0,0,0-.58-.23,17.84,17.84,0,0,0-1.81-.29l-.73-.09a8.84,8.84,0,0,0-1.14-.13,4.31,4.31,0,0,0-.59.07,7.86,7.86,0,0,1-1.32.14c-.38,0-.75,0-1.12,0l-.82,0a11.88,11.88,0,0,1-1.3-.09,3.82,3.82,0,0,0-.68-.06c-.35,0-.7,0-1.06,0s-.62,0-.95,0a3.34,3.34,0,0,0-.53.11,7,7,0,0,1-1.47.24,11.81,11.81,0,0,1-1.19,0h-.84a10.56,10.56,0,0,1-1.33-.08c-.24,0-.48-.06-.7-.07a3,3,0,0,0-.42.1,5.71,5.71,0,0,1-1.67.25,5.17,5.17,0,0,1-1.64-.37l-.41-.12a4.13,4.13,0,0,0-.5,0,6,6,0,0,1-1.59.1,8.19,8.19,0,0,1-1.4-.29l-.63-.16c-.43-.05-.86-.13-1.28-.21l-.77-.14a4.72,4.72,0,0,0-.49,0,6.49,6.49,0,0,1-1.62-.05,10.51,10.51,0,0,1-1.45-.43l-.68-.22-.65-.15a10.88,10.88,0,0,1-1.46-.41,5.92,5.92,0,0,1-1.46-.83,3,3,0,0,0-.45-.29c-.2-.1-.42-.18-.63-.26a12.5,12.5,0,0,1-1.37-.6,5.67,5.67,0,0,0-.61-.28,12.42,12.42,0,0,1-1.35-.69l-.49-.3c-.44-.27-.9-.54-1.36-.88l-.19-.16a8.85,8.85,0,0,1-1-1,3.54,3.54,0,0,0-.41-.45l-.27-.25a14.62,14.62,0,0,1-1.38-1.29,20.29,20.29,0,0,1-1.46-1.67,19.24,19.24,0,0,1-1.23-1.91,10.78,10.78,0,0,1-.7-1.57c-.08-.18-.14-.36-.22-.54s-.16-.35-.25-.53a8.05,8.05,0,0,1-.65-1.6c0-.17-.1-.33-.15-.5a10,10,0,0,1-.41-1.78,5.88,5.88,0,0,1,.12-1.8,3.71,3.71,0,0,0,.08-.54,3.16,3.16,0,0,0-.06-.52,5.6,5.6,0,0,1-.05-1.91,5.71,5.71,0,0,1,.67-1.75,1.94,1.94,0,0,0,.22-.49,15.65,15.65,0,0,1,.94-2.17,3.34,3.34,0,0,0,.17-.51,6.23,6.23,0,0,1,.77-1.71,11.48,11.48,0,0,1,1.26-1.44l.32-.35c.15-.15.28-.31.42-.47a8.17,8.17,0,0,1,1.24-1.28,6,6,0,0,1,1.59-.88,5.12,5.12,0,0,0,.53-.25l.48-.31a10.85,10.85,0,0,1,1.58-.89,14.5,14.5,0,0,1,2.28-.72,6.79,6.79,0,0,1,1.81-.18,5.61,5.61,0,0,0,.58,0l.14,0a13.46,13.46,0,0,1,2.25-.1,3.33,3.33,0,0,0,.55,0,6.12,6.12,0,0,1,1.88.07,8.75,8.75,0,0,1,1.5.5c.18.08.37.15.55.21a5,5,0,0,0,.56.11,6,6,0,0,1,1.58.43,18.23,18.23,0,0,1,2,1,5.13,5.13,0,0,1,1.33,1.18l.29.31a11.6,11.6,0,0,1,1.18,1l.42.38a4,4,0,0,0,.48.36,8,8,0,0,1,1.17.95c.15.15.31.28.48.42a7.47,7.47,0,0,1,1,1,11.6,11.6,0,0,1,.75.95c.16.21.31.42.48.62a5.81,5.81,0,0,1,.78,1.25c.08.16.19.37.23.43.19.21.4.42.59.62a10.15,10.15,0,0,1,.73.74A3,3,0,0,0,224.78,227Zm-4.95,1.19a6.24,6.24,0,0,1-.8-1.29c-.07-.15-.18-.35-.22-.42-.23-.26-.44-.54-.65-.83s-.34-.46-.52-.66a4.65,4.65,0,0,0-.54-.47,11.39,11.39,0,0,1-.85-.77,3.25,3.25,0,0,0-.55-.41c-.26-.2-.58-.41-.89-.69l-.5-.47a9.44,9.44,0,0,0-.78-.7,5.72,5.72,0,0,1-1-.93c-.11-.11-.25-.28-.29-.31a17.16,17.16,0,0,0-1.54-.8c-.08,0-.34-.07-.52-.11A7.4,7.4,0,0,1,209,219c-.27-.09-.56-.2-.84-.32a6.48,6.48,0,0,0-.8-.28,2.9,2.9,0,0,0-.64,0,8,8,0,0,1-1.11,0,11,11,0,0,0-1.56.09l-.15,0a9,9,0,0,1-1,0,3.35,3.35,0,0,0-.7,0,9.91,9.91,0,0,0-1.69.52,8,8,0,0,0-.91.53c-.2.14-.41.26-.61.39a6.76,6.76,0,0,1-1.09.53,3.7,3.7,0,0,0-.56.27,5.2,5.2,0,0,0-.64.7l-.56.65-.4.4a8.53,8.53,0,0,0-.8.91,3,3,0,0,0-.19.5,6.81,6.81,0,0,1-.46,1.22,11.23,11.23,0,0,0-.68,1.58,9.1,9.1,0,0,1-.49,1.1c-.09.17-.23.43-.25.5a3.23,3.23,0,0,0,.07.5,6.82,6.82,0,0,1,.11,1.29,6.59,6.59,0,0,1-.16,1.23,3.39,3.39,0,0,0-.07.5,8.08,8.08,0,0,0,.25,1c.07.22.14.42.19.62a6.08,6.08,0,0,0,.35.83c.13.24.24.49.36.75s.19.46.27.7a7.75,7.75,0,0,0,.41.94,14.18,14.18,0,0,0,1,1.46,16.23,16.23,0,0,0,1.18,1.36,12.55,12.55,0,0,0,1,1l.28.26a8.15,8.15,0,0,1,.83.86,3.22,3.22,0,0,0,.47.49c.3.22.65.44,1,.66l.56.35a6.92,6.92,0,0,0,.77.38c.31.13.63.27.92.42s.56.25.89.39.57.22.84.34a6.52,6.52,0,0,1,1.21.74,3.94,3.94,0,0,0,.41.27,7.89,7.89,0,0,0,.94.25c.3.06.59.14.87.22s.61.18.89.29.64.21.89.26a5,5,0,0,0,.53,0,5.91,5.91,0,0,1,1.44,0c.3,0,.6.11.89.16s.67.13,1,.17a9.29,9.29,0,0,1,1.27.28,3.84,3.84,0,0,0,.62.15,4.41,4.41,0,0,0,.54-.06,6,6,0,0,1,1.41-.1,5.35,5.35,0,0,1,1.58.36,2.92,2.92,0,0,0,.33.12l.44-.1a5.66,5.66,0,0,1,1.52-.25,8.74,8.74,0,0,1,1.23.1c.28,0,.54.06.73.06.35,0,.7,0,1,0h.93a3.14,3.14,0,0,0,.58-.12,7,7,0,0,1,1.4-.23c.37,0,.74,0,1.11,0h.89a8.54,8.54,0,0,1,1.42.09,4,4,0,0,0,.63,0l.74,0c.44,0,.88,0,1.32,0a3.22,3.22,0,0,0,.59-.08,7.49,7.49,0,0,1,1.52-.13c.5,0,1,.1,1.52.17l.62.08c.7.07,1.43.2,2.17.34a6.68,6.68,0,0,1,1.54.55,3.6,3.6,0,0,0,.54.22l.84.28c-.14-.22-.26-.44-.39-.66a3.92,3.92,0,0,0-.39-.63c-.2-.23-.42-.44-.64-.66l-.66-.66a5.81,5.81,0,0,1-.82-1.16,3.37,3.37,0,0,0-.26-.41c-.43-.44-.91-.87-1.38-1.31-.1-.09-.32-.22-.53-.36a8.16,8.16,0,0,1-1-.74,6.39,6.39,0,0,0-.59-.41,8.35,8.35,0,0,1-1-.7l-.6-.51-.87-.73a11.86,11.86,0,0,1-.94-.9c-.16-.19-.34-.36-.44-.46a6.15,6.15,0,0,0-.59-.35,7.19,7.19,0,0,1-1.06-.66c-.28-.21-.54-.43-.8-.63s-.48-.4-.73-.57a8.26,8.26,0,0,0-.76-.5c-.3-.2-.6-.38-.86-.57a8.86,8.86,0,0,1-1.09-1c-.16-.15-.31-.3-.48-.44a8.23,8.23,0,0,1-1-1.09,5.56,5.56,0,0,0-.39-.44c-.36-.35-.67-.71-.93-1s-.3-.35-.46-.51a2.67,2.67,0,0,0-.37-.26,5.38,5.38,0,0,1-1.25-1c-.17-.19-.36-.39-.54-.57S220.09,228.45,219.83,228.16Zm5.17-28a12.52,12.52,0,0,0-.76,1.32,15.74,15.74,0,0,0-.64,1.56,4.64,4.64,0,0,0,0,.65,8.45,8.45,0,0,1-.07,1,11.61,11.61,0,0,0-.09,1.63c0,.21,0,.44,0,.66a5.56,5.56,0,0,0,0,1,13.64,13.64,0,0,0,.34,1.66,16.06,16.06,0,0,0,.51,1.65,2.93,2.93,0,0,0,.3.48,8.49,8.49,0,0,1,.64,1c.09.22.19.45.29.66s.28.64.46,1a8.59,8.59,0,0,1,.49,1,4.55,4.55,0,0,0,.3.62,3.67,3.67,0,0,0,.41.44,7.69,7.69,0,0,1,.84,1,6.35,6.35,0,0,1,.68,1.31c.06.14.14.35.17.39a6,6,0,0,0,.51.52c.29.28.57.55.82.84a4,4,0,0,0,.45.41,6.25,6.25,0,0,1,1,.88,5.76,5.76,0,0,1,.83,1.32c.08.14.19.37.24.43.25.28.48.58.72.87s.37.47.57.7a6,6,0,0,0,.49.46,7.92,7.92,0,0,1,1,1c.43.51.86,1,1.29,1.58.27.33.51.67.75,1s.28.44.44.65.5.67.74,1l.47.64c.15.2.32.38.48.57a9.15,9.15,0,0,1,.84,1c.4.56.8,1.13,1.18,1.71a11.24,11.24,0,0,1,.66,1.18c.12.22.23.43.36.65s.27.38.4.56a8.19,8.19,0,0,1,.8,1.17,6.66,6.66,0,0,0,.39.59,8.92,8.92,0,0,1,.74,1.22,6.54,6.54,0,0,1,.47,1.56,3.88,3.88,0,0,0,.13.52c.25.62.49,1.27.73,2a6,6,0,0,0,.25.58,7.82,7.82,0,0,1,.54,1.5,13.4,13.4,0,0,1,.2,1.44,2,2,0,0,1,.18.25c.24-.34.44-.68.62-1a10.4,10.4,0,0,0,.67-1.54c.1-.26.22-.53.34-.8a.31.31,0,0,1,.05-.12,1.94,1.94,0,0,1,.12-.57l.17-.45c.06-.44.1-.9.12-1.34a4.57,4.57,0,0,0-.1-.53,5.75,5.75,0,0,1-.22-1.25c0-.27,0-.52,0-.77s0-.76-.07-1.08c-.09-.64-.19-1.28-.31-1.91a7.64,7.64,0,0,1-.08-1.45,2.75,2.75,0,0,0,0-.58,3.43,3.43,0,0,0-.2-.52,7.44,7.44,0,0,1-.46-1.48c-.1-.62-.16-1.24-.23-1.88l0-.26a12.38,12.38,0,0,1,0-1.6c0-.21,0-.43,0-.63a13.35,13.35,0,0,1,.14-1.88l.06-.4a14.45,14.45,0,0,1,.28-1.48c.05-.22.1-.42.13-.64s.08-.46.11-.7c.05-.41.13-.88.24-1.37s.25-.83.4-1.24c.08-.24.16-.49.23-.73.18-.65.37-1.3.57-2,0-.08,0-.3,0-.47a5.78,5.78,0,0,1,.2-1.55,7.54,7.54,0,0,1,.49-1.22c.11-.24.21-.46.26-.61.09-.35.21-.68.32-1a6.18,6.18,0,0,0,.27-.83,5.58,5.58,0,0,0,.08-.73,8.66,8.66,0,0,1,.11-1.16c0-.24.1-.48.15-.71s.15-.74.19-1.12a17.28,17.28,0,0,0,.07-1.79c0-.27,0-.54,0-.82a5,5,0,0,0,0-.95,5.66,5.66,0,0,0-.22-.92c-.08-.25-.14-.5-.21-.75a7.87,7.87,0,0,0-.38-1l-.25-.57a10.57,10.57,0,0,0-.71-1.54,7.16,7.16,0,0,1-.4-.78,5.48,5.48,0,0,0-.42-.76,14.11,14.11,0,0,0-1.15-1.32.8.8,0,0,0-.13-.13,6.13,6.13,0,0,0-.57-.4c-.23-.17-.47-.33-.7-.51a13.51,13.51,0,0,0-1.4-1,8.22,8.22,0,0,1-.87-.58,4.18,4.18,0,0,0-.6-.39,11.75,11.75,0,0,0-1.51-.47l-.18-.06c-.46-.12-1-.21-1.57-.3h-.18a4,4,0,0,0-.68,0,6.79,6.79,0,0,1-1.1,0,17.07,17.07,0,0,0-1.78,0c-.35,0-.71,0-1.07,0a3.52,3.52,0,0,0-.73,0,13,13,0,0,0-1.76.38,16.59,16.59,0,0,0-1.72.55,3.68,3.68,0,0,0-.59.38c-.3.21-.61.41-.92.59a12.71,12.71,0,0,0-1.52.9,13.19,13.19,0,0,0-1.4,1.06c-.34.32-.68.72-1,1.13l-.12.15a8.37,8.37,0,0,1-.57.62,5.9,5.9,0,0,0-.58.68Zm39.65,83.2a5.5,5.5,0,0,1,.85,3.39v.18a2,2,0,0,1-2,2,2,2,0,0,1-1.26-.46,1.93,1.93,0,0,1-.73-1.53v-.19a2.07,2.07,0,0,0-.37-1.48,2,2,0,0,1,3.52-1.91Zm6.65,4a5.29,5.29,0,0,1,.12,4.71,1.26,1.26,0,0,0,0,.61,2,2,0,0,1-3.22,2,2,2,0,0,1-.66-1,5.17,5.17,0,0,1,.32-3.35c.08-.18.22-.45-.17-1.32a2,2,0,1,1,3.64-1.65Z" style="fill: #1d1d1b"/>
  </g>
</svg>
