<svg xmlns="http://www.w3.org/2000/svg" viewBox="0 0 500 500">
  <title>leaf2</title>
  <g>
    <path d="M294.5,230.65c-.05-.31-.1-.6-.12-.91a4.08,4.08,0,0,0-.4-1.24c-.12-.29-.26-.62-.34-.88l-.13-.6a10.7,10.7,0,0,0-.51-1.66.47.47,0,0,0-.05-.1,1.15,1.15,0,0,1-.06-.17,2,2,0,0,0-1.35-1.33h0a2,2,0,0,0-1.21-1.46,2,2,0,0,0-.29-1,1.85,1.85,0,0,0-.35-.45,4.71,4.71,0,0,0-1-1l-.51-.35-.11-.07a8.28,8.28,0,0,0-1.42-.81,4.68,4.68,0,0,0-1.35-.26h-.12a7.5,7.5,0,0,1-.88-.13c-.27-.06-.54-.13-.9-.24a7.3,7.3,0,0,0-1.45-.3,20,20,0,0,0-2.38,0,4.25,4.25,0,0,0-.95.23l-.29.09a6.59,6.59,0,0,1-1.07.32c-.77.15-1.52.32-2.27.54a11.92,11.92,0,0,0-1.19.41l-1,.41a6.73,6.73,0,0,1-1,.24h-.06a5.5,5.5,0,0,0-1.21.29l-.09,0a1,1,0,0,0-.22.09l-.41.19a16.31,16.31,0,0,1-1.55.69l-.58.24-.3.14a11.17,11.17,0,0,1-1.31.52,5.49,5.49,0,0,1-1.37.14h-.16a4.75,4.75,0,0,0-.92.1,5.92,5.92,0,0,0-.75.25l-.22.09a4.58,4.58,0,0,1-1.21.38,5.82,5.82,0,0,1-1.39,0h-.15a6.48,6.48,0,0,0-.86,0,6.12,6.12,0,0,0-.86.1l-.18,0a14.43,14.43,0,0,1-2.12.15c-.51,0-1,0-1.57,0a4.72,4.72,0,0,1-1.19-.22l-.11,0a5.72,5.72,0,0,0-1-.19c-.38,0-.73,0-1.08,0h-.29c-.31,0-.63,0-1,0s-.76-.08-1.13-.13a11.06,11.06,0,0,0-1.12-.13,6,6,0,0,0-1.31.07,7,7,0,0,1-1,.09h-.08l-1-.07h-.2c-.33,0-.67,0-1,0h-.13l-1,0h-.22c-.42,0-.83,0-1.12,0l-.73.06a16.46,16.46,0,0,0-1.65.2,6.32,6.32,0,0,0-1.12.35l-.15.05c-.31.12-.63.25-.91.33-.83.23-1.53.44-2.23.71a14.71,14.71,0,0,0-2,1,10.42,10.42,0,0,0-1.79,1.37,7.29,7.29,0,0,0-1.29,1.65l-.17.27a6.7,6.7,0,0,0-.95,1.83,7,7,0,0,0-.31,2.22,3.68,3.68,0,0,0,.51,1.47l.12.24c.06.13.13.26.16.34a7.49,7.49,0,0,1,.28.78,3.57,3.57,0,0,0,.69,1.35,3.61,3.61,0,0,0,1.12.82l.24.15.47.29a9.88,9.88,0,0,0,1.94,1c.26.1.53.24.81.38l.1,0a4.19,4.19,0,0,0,1.19.48,11.22,11.22,0,0,0,1.64.13,2.9,2.9,0,0,0,.66-.07s0,0,.07.08.07.13.09.15l-.05.1a2.13,2.13,0,0,0-.33.4,3.73,3.73,0,0,1-.88,1l-.15.13a6.47,6.47,0,0,1-1.38.91,12.92,12.92,0,0,1-1.69.55l-.07,0a17.79,17.79,0,0,1-1.78.44c-.72.13-1.31.22-1.82.28a3.86,3.86,0,0,1-1.05-.1l-.16,0-.42-.07a2.41,2.41,0,0,0-.38,0,4.47,4.47,0,0,0-.53.09l-.24.05a6.6,6.6,0,0,1-2,.09h-.12l-.58-.05-.54,0c-.38,0-.75-.05-1.07-.05h-.28a12.83,12.83,0,0,0-1.42.18l-.39.06a12.45,12.45,0,0,0-1.79.4,10.46,10.46,0,0,0-1.7.61l-.69.27-.16.06a4.18,4.18,0,0,0-.82.39,3.26,3.26,0,0,0-.72.65l-.15.16a4.58,4.58,0,0,1-.47.51l-.34.28-.14.12a5.07,5.07,0,0,0-.91.86,6.26,6.26,0,0,0-.57,1c-.09.19-.18.38-.29.59a7.19,7.19,0,0,0-.7,1.56,4.44,4.44,0,0,0-.15,1.06v.16c0,.14,0,.28,0,.46a3.24,3.24,0,0,1-.15.72.61.61,0,0,0,0,.13,2.08,2.08,0,0,0-.11.54,2.33,2.33,0,0,0,0,.59,5.91,5.91,0,0,0,.28.88l.08.23a2.92,2.92,0,0,1,.11.32,8.31,8.31,0,0,0,.67,1.41l.1.17a5.51,5.51,0,0,0,.88,1.05l.21.23c.14.14.27.29.44.49l.11.12a8,8,0,0,0,.65.65c.18.14.35.29.48.41a4.92,4.92,0,0,0,.85.69,10.53,10.53,0,0,0,1.6.75,10,10,0,0,0,1.69.5,1.86,1.86,0,0,0,.78,0h.21a3.57,3.57,0,0,1,.79,0c.25,0,.49.06.78.11a4,4,0,0,0,1,.09l.47,0a9.84,9.84,0,0,0,1.29-.1l.4-.05.21,0a10.22,10.22,0,0,0,1.06-.13c.3-.06.6-.14.9-.23l.9-.25c.16-.05.33-.08.49-.12l.44-.1.79-.19a.14.14,0,0,1,.14.1.15.15,0,0,1-.08.18h0a2.11,2.11,0,0,0-1,.52l-.8.09a7.71,7.71,0,0,0-1,.13,6.45,6.45,0,0,0-.91.31c-.25.1-.5.19-.76.27a3.76,3.76,0,0,1-.87.11H223l-.45,0a2,2,0,0,0-.93.4l-.17.12a5,5,0,0,1-.76.44c-.24.1-.47.17-.72.25l-.1,0a6.84,6.84,0,0,0-.88.32c-.2.1-.41.19-.62.27l-.09,0-.18.08a5.27,5.27,0,0,0-.66.3,5.07,5.07,0,0,0-.75.48l-.11.08a6.69,6.69,0,0,1-.65.44,3.89,3.89,0,0,1-.9.34,2.56,2.56,0,0,0-.65.23,1.27,1.27,0,0,0-.22.13,4.33,4.33,0,0,0-.66.59,5.4,5.4,0,0,1-.61.56,8.52,8.52,0,0,0-.73.64l-.27.26-.31.28a5.63,5.63,0,0,1-.67.46,3.54,3.54,0,0,0-.77.54,6.48,6.48,0,0,0-.58.64l-.15.19c-.15.19-.29.37-.42.51l-.47.5a10.19,10.19,0,0,0-.75.83,6.73,6.73,0,0,0-.53.75l-.13.19L207,275c-.08.14-.17.27-.26.41a6,6,0,0,0-.47.91,8.2,8.2,0,0,1-.36.74,6,6,0,0,0-.38.9c-.09.24-.19.48-.25.63s-.19.4-.32.65a6.72,6.72,0,0,0-.43,1,12.79,12.79,0,0,0-.46,1.7,5.06,5.06,0,0,1-.2.59l0,.13a3.77,3.77,0,0,0-.29.94,2.26,2.26,0,0,0,0,.26c0,.07,0,.31,0,.55v.11a.68.68,0,0,1,0,.14,4.63,4.63,0,0,1,.09.7,3.29,3.29,0,0,1-.19.88.36.36,0,0,0,0,.1l0,.16a2,2,0,0,0,0,.91,6.79,6.79,0,0,0,.21.8c.07.22.13.45.18.64l.08.42a13.11,13.11,0,0,0,.36,1.36l.07.19c.18.52.34,1,.53,1.43a2.06,2.06,0,0,0,.63.8,2.7,2.7,0,0,1,.47.57,8.25,8.25,0,0,0,.55.68l.52.56a3,3,0,0,1,.4.76l.05.14a1.94,1.94,0,0,0,.6.81c.29.24.66.5,1,.73l.11.08a2,2,0,0,0,.47.26l.34.11.2.06a3.57,3.57,0,0,1,.62.26,11.79,11.79,0,0,0,1.18.49l.34.13a4.09,4.09,0,0,1,.7.39l.09.06c.13.08.26.16.4.23a2.32,2.32,0,0,0,.44.16,11.08,11.08,0,0,0,1.22.16l.24,0,.25,0a2.1,2.1,0,0,0,.43-.05l.37-.1a3,3,0,0,1,.73-.11h.12a5.67,5.67,0,0,1,.58.05c.22,0,.49,0,.67,0h.27l.28-.05c.12,0,.44-.14.67-.23s.47-.17.72-.24l.6-.12a7.59,7.59,0,0,0,1-.25l.23-.08a8.57,8.57,0,0,0,1.47-.65l.36-.22a7.07,7.07,0,0,0,1.13-.74,4.39,4.39,0,0,0,.6-.63l.15-.18a6.38,6.38,0,0,1,.48-.56,5.54,5.54,0,0,0,.52-.69l.07-.11a7,7,0,0,1,.41-.6l.5-.62c.21-.26.42-.52.63-.82s.43-.68.62-1l.28-.49c.22-.34.42-.7.61-1.05l.3-.54a3,3,0,0,1,.59-.67l.31-.28a2,2,0,0,0,.51-.87,3.79,3.79,0,0,0,.1-.47,4,4,0,0,1,.24-.85c.15-.28.31-.55.47-.81s.3-.5.43-.77.33-.58.53-.91l.07-.11c.12-.2.24-.4.31-.54s.24-.48.38-.77.31-.65.43-.86c.44-.72.75-1.18,1-1.55a7,7,0,0,1,1.26-1.33,2.07,2.07,0,0,1,.81-.41,2.12,2.12,0,0,0,.84-.47.15.15,0,0,1,.11-.05,2.21,2.21,0,0,1,1.73.85,2.76,2.76,0,0,1,.48,1.87,3.94,3.94,0,0,1-.32,1l0,.09a5.07,5.07,0,0,0-.24.65,4.78,4.78,0,0,0-.12.57l0,.15,0,.13a5.77,5.77,0,0,1-.2,1,5.12,5.12,0,0,1-.35.82l-.05.1a6.59,6.59,0,0,0-.27.71.35.35,0,0,0,0,.13c0,.15-.06.49-.08.79v.12a5.4,5.4,0,0,1-.07.8c0,.17-.06.34-.1.52l0,.17a5.94,5.94,0,0,0-.16,1v.12a6.1,6.1,0,0,0,.24,1.49l.07.26c0,.1.05.2.07.3l0,.17,0,.16a4,4,0,0,0,.22.69,1.6,1.6,0,0,0,.23.4,4.56,4.56,0,0,0,.61.64l.17.16.35.34a4.2,4.2,0,0,0,.9.64l.46.3.3.21a6.56,6.56,0,0,0,1.1.68,6.55,6.55,0,0,1,.64.33l.1.06a3.15,3.15,0,0,0,.78.34l.2,0,.41,0h.45c.21,0,.42,0,.64,0l.68.09a5.84,5.84,0,0,0,.81.09l.3,0a2.3,2.3,0,0,0,.28-.06,4,4,0,0,0,.54-.22,4.2,4.2,0,0,1,.73-.26,3.26,3.26,0,0,1,.69-.09,3.42,3.42,0,0,0,.76-.08L252,296c.47-.19,1-.42,1.58-.72a8.81,8.81,0,0,0,.81-.52l.16-.11.45-.32a16.24,16.24,0,0,0,1.44-1.06l.3-.26a10.56,10.56,0,0,0,1-.9l.09-.1a8,8,0,0,0,.52-.82,3.82,3.82,0,0,1,.32-.55l.38-.52.07-.09a8,8,0,0,0,.55-.84c.13-.23.28-.45.44-.7a7.63,7.63,0,0,0,.44-.7,2.72,2.72,0,0,0,.18-.55c0-.07.05-.32.07-.51v-.11a3.35,3.35,0,0,1,.15-.74c.16-.55.31-1.09.43-1.66a5.59,5.59,0,0,0,.14-1c0-.27.05-.54.08-.77.07-.42.11-.83.16-1.26l0-.5c0-.25.06-.5.09-.71a8,8,0,0,0,.15-1,7.66,7.66,0,0,0,0-.83V278c0-.27,0-.54,0-.78a5.08,5.08,0,0,1,.15-.91l0-.14a3.39,3.39,0,0,0,.1-.74,3.59,3.59,0,0,0-.11-.84l0-.16a4.36,4.36,0,0,1-.1-.73c0-.3,0-.61,0-.87a7.55,7.55,0,0,0,0-.93c0-.3,0-.6,0-.95v-.24c0-.2,0-.4,0-.6a7.59,7.59,0,0,0-.08-.87c0-.12,0-.23,0-.34l0-.25,0-.19,0-.11c0-.07,0-.15,0-.18a6.31,6.31,0,0,1,.05-1.37l0-.26a6.2,6.2,0,0,0,.07-.83c0-.26.3-.16.3.05a2.25,2.25,0,0,0,.17.8,4.52,4.52,0,0,1-.15.95,3.23,3.23,0,0,0-.11.77,1.9,1.9,0,0,0,0,.41,8.47,8.47,0,0,0,.23.84,8.35,8.35,0,0,1,.27,1c.06.32.1.64.14,1a8.93,8.93,0,0,0,.26,1.42,7.63,7.63,0,0,0,.62,1.32c.16.28.32.57.44.83l.08.18.24.57a11,11,0,0,0,.71,1.48,6.53,6.53,0,0,0,1,1.13l.13.12c.15.15.31.29.49.5l.32.34a7.85,7.85,0,0,0,1.39,1.31c.18.12.36.26.61.45l.09.07a5,5,0,0,0,1.3.79,5.32,5.32,0,0,0,1.6.19h1a10.08,10.08,0,0,0,2.09-.29,6.16,6.16,0,0,1,.94-.1,4.43,4.43,0,0,0,1.52-.25,4.23,4.23,0,0,0,1.18-.81l-1.31-1.51,1.41,1.42a9.37,9.37,0,0,1,.75-.6l.5-.32a9.91,9.91,0,0,0,1.53-1.13,14.78,14.78,0,0,0,1.65-1.85l.27-.35a12.66,12.66,0,0,0,1.14-1.67,7,7,0,0,0,.56-1.5c.08-.3.17-.6.27-.87a18.3,18.3,0,0,0,.7-2.43l0-.17a16.75,16.75,0,0,0,.38-2.23,19.16,19.16,0,0,0,0-2.53c0-.23,0-.45,0-.71v-.23c0-.49-.06-.94-.11-1.3s-.07-.76-.09-1.14v-.18a7.16,7.16,0,0,0-.09-1c-.08-.41-.13-.82-.18-1.26s-.08-.68-.14-1a7.09,7.09,0,0,0-.22-.91l0-.11a6.2,6.2,0,0,1-.27-1.28,9,9,0,0,1,.06-1.72l.05-.53a.49.49,0,0,0,0-.12l0-.66a5.46,5.46,0,0,1,.2-1.59,11.55,11.55,0,0,1,.87-1.92l.11-.19a14.07,14.07,0,0,1,1-1.54l.31-.4c.53-.74.95-1.35,1.34-1.95.13-.23.28-.53.43-.85l.14-.32a8.5,8.5,0,0,1,.43-.92,9,9,0,0,1,.6-.92l.09-.14a5.87,5.87,0,0,0,.57-1,3.19,3.19,0,0,0,.23-1l0-.23a4.45,4.45,0,0,1,.21-1.11,5.13,5.13,0,0,1,.62-1l.06-.09a3.52,3.52,0,0,0,.52-1l0-.14c.18-.64.4-1.4.54-2.14a21.11,21.11,0,0,0,.33-2.33A6.59,6.59,0,0,0,294.5,230.65Z" style="fill: #fff381"/>
    <path d="M242.53,220.32c.57,0,1.1,0,1.6.07.29,0,.57.05.86.06a6.1,6.1,0,0,0,.76-.07,7.94,7.94,0,0,1,1.67-.09c.45,0,.91.09,1.36.16s.66.09,1,.12.69,0,1,0,.86,0,1.29,0a8.17,8.17,0,0,1,1.48.27,4.77,4.77,0,0,0,.79.16c.47,0,1,0,1.43,0a11.18,11.18,0,0,0,1.8-.12c.42-.06.84-.12,1.26-.15a8.5,8.5,0,0,1,1.37.05,4.32,4.32,0,0,0,.85,0,3.28,3.28,0,0,0,.66-.23,8.35,8.35,0,0,1,1.44-.48,7.68,7.68,0,0,1,1.44-.13,3.09,3.09,0,0,0,.76-.06,8.15,8.15,0,0,0,1-.4c.33-.15.67-.3,1-.43s.88-.38,1.37-.61l.62-.3a2.45,2.45,0,0,1,.43-.15,8.62,8.62,0,0,1,1.41-.34,4.78,4.78,0,0,0,.67-.14l.73-.29a14,14,0,0,1,1.66-.59,24.62,24.62,0,0,1,2.5-.59,7,7,0,0,0,.73-.22,6.7,6.7,0,0,1,1.84-.45,20.65,20.65,0,0,1,2.68,0,9.1,9.1,0,0,1,2,.41c.22.06.44.13.66.17a4.57,4.57,0,0,0,.73.1,7.23,7.23,0,0,1,2,.42,9.9,9.9,0,0,1,2,1.13l.46.31a7.15,7.15,0,0,1,1.56,1.45c.22-.28.43-.58.66-.9l.24-.36a13.91,13.91,0,0,0,1-1.74c.13-.27.28-.53.43-.78a6.56,6.56,0,0,0,.5-1,3.5,3.5,0,0,0,.05-.72,8.27,8.27,0,0,1,.08-1.26,10.78,10.78,0,0,0,.2-1.9,11.49,11.49,0,0,0-.2-1.9l-.09-.47A7.89,7.89,0,0,0,294,207a10.55,10.55,0,0,0-.81-1.61l-.06-.11c-.18-.31-.33-.65-.48-1a4.5,4.5,0,0,0-.41-.78,3.48,3.48,0,0,0-.63-.48,11.62,11.62,0,0,1-.94-.71l-.62-.59a5.85,5.85,0,0,0-.82-.71,2.15,2.15,0,0,1,2.25-3.66,8.46,8.46,0,0,1,1.57,1.29c.15.15.3.3.46.44s.35.26.53.39a6.62,6.62,0,0,1,1.54,1.32,7.63,7.63,0,0,1,1,1.73,5.71,5.71,0,0,0,.29.61l.07.11a15.35,15.35,0,0,1,1.11,2.26,11.79,11.79,0,0,1,.52,2.16l.08.43a16,16,0,0,1,.27,2.63,14.76,14.76,0,0,1-.26,2.64,5.26,5.26,0,0,0,0,.61,6.42,6.42,0,0,1-.27,2,10.3,10.3,0,0,1-.85,1.76c-.12.2-.23.4-.34.61a18.26,18.26,0,0,1-1.31,2.24l-.23.33a15.93,15.93,0,0,1-1.19,1.58,8,8,0,0,1,.43,1.24,4.76,4.76,0,0,0,.2.63,11.24,11.24,0,0,1,.66,2.11l.12.49a5.65,5.65,0,0,0,.23.58,6,6,0,0,1,.58,2c0,.23.06.46.09.7a8.67,8.67,0,0,1,.15,2,23.78,23.78,0,0,1-.36,2.61c-.16.82-.38,1.6-.6,2.35l0,.15a5.63,5.63,0,0,1-.93,1.77,3.66,3.66,0,0,0-.31.48,4.53,4.53,0,0,0-.1.61,6.39,6.39,0,0,1-.46,1.88,9.52,9.52,0,0,1-.89,1.47,6.77,6.77,0,0,0-.43.66c-.14.25-.25.52-.37.78a11.1,11.1,0,0,1-.73,1.47c-.41.63-.86,1.29-1.42,2.07l-.3.39a9.76,9.76,0,0,0-.84,1.25l-.09.17a9.43,9.43,0,0,0-.73,1.55,4.72,4.72,0,0,0-.11,1c0,.27,0,.54,0,.8l-.05.49a9.45,9.45,0,0,0-.07,1.45,5.92,5.92,0,0,0,.2.82,8.84,8.84,0,0,1,.3,1.25c.07.37.11.76.16,1.15s.09.74.16,1.12a14.38,14.38,0,0,1,.14,1.51,7,7,0,0,0,.07.9c.08.61.11,1.21.13,1.79l0,.68a20.09,20.09,0,0,1,0,2.8,17.74,17.74,0,0,1-.43,2.56l0,.2a18.88,18.88,0,0,1-.77,2.68c-.08.24-.15.49-.23.73a9.43,9.43,0,0,1-.72,1.93,15.09,15.09,0,0,1-1.38,2l-.24.31a17.7,17.7,0,0,1-1.9,2.14,13.93,13.93,0,0,1-2,1.48l-.33.21a7,7,0,0,0-.55.45,6.62,6.62,0,0,1-1.87,1.26,6.79,6.79,0,0,1-2.23.42,3.83,3.83,0,0,0-.6,0,13.33,13.33,0,0,1-2.61.35h-.89a7.7,7.7,0,0,1-2.47-.32,7.19,7.19,0,0,1-2.1-1.24l-.49-.36a10.46,10.46,0,0,1-1.83-1.7l-.27-.29c-.15-.17-.31-.32-.48-.48l-.47-.45c0,.23-.07.46-.1.66s-.07.42-.1.63l0,.46c-.05.47-.09.93-.17,1.4q0,.3-.06.6a12,12,0,0,1-.18,1.29c-.13.57-.29,1.16-.5,1.86a4.28,4.28,0,0,0-.07.43,5.5,5.5,0,0,1-.34,1.51,7.73,7.73,0,0,1-.74,1.31,4,4,0,0,0-.28.43,9.49,9.49,0,0,1-.83,1.26l-.3.4c-.09.14-.17.29-.25.43a6.8,6.8,0,0,1-.87,1.29,13,13,0,0,1-1.25,1.16l-.27.23a18.65,18.65,0,0,1-1.63,1.22l-.41.28a8.37,8.37,0,0,1-1.3.83c-.43.21-1.09.54-1.83.82a5,5,0,0,1-1.59.29,2.33,2.33,0,0,0-.38,0,2.67,2.67,0,0,0-.36.14,5,5,0,0,1-1.58.46l-.42,0a6.51,6.51,0,0,1-1.18-.12l-.45-.06a3.42,3.42,0,0,0-.45,0,6.42,6.42,0,0,1-1.63-.11,5.83,5.83,0,0,1-1.55-.67l-.38-.2a8.36,8.36,0,0,1-1.51-.91l-.27-.19-.36-.23a6.45,6.45,0,0,1-1.35-1c-.09-.1-.2-.19-.3-.29a7.61,7.61,0,0,1-1.13-1.22,5.61,5.61,0,0,1-.81-2.09c0-.11,0-.22-.07-.33l0-.1a8.62,8.62,0,0,1-.35-2.23,8.09,8.09,0,0,1,.23-1.62,4.91,4.91,0,0,0,.1-.5,4.38,4.38,0,0,0,0-.51,6.15,6.15,0,0,1,.17-1.5,7.41,7.41,0,0,1,.5-1.29,3.32,3.32,0,0,0,.21-.47,5.94,5.94,0,0,0,.14-.71,8,8,0,0,1,.2-1,8.36,8.36,0,0,1,.39-1.09.42.42,0,0,0,0-.1.58.58,0,0,0-.17,0,6.28,6.28,0,0,0-.82.9,14.09,14.09,0,0,0-.87,1.33c-.13.22-.24.47-.36.72s-.26.54-.4.81-.31.54-.48.82-.29.46-.41.71-.33.61-.51.91-.27.44-.39.67c0,.07,0,.19-.06.31a5.56,5.56,0,0,1-.47,1.49,4.59,4.59,0,0,1-1.11,1.31c-.07.07-.14.12-.2.19l-.16.28c-.24.44-.48.87-.74,1.3l-.28.47c-.23.39-.46.79-.71,1.16s-.57.77-.87,1.13l-.33.41a4.87,4.87,0,0,0-.32.47,8.08,8.08,0,0,1-.87,1.15c-.12.13-.24.28-.35.42a7.51,7.51,0,0,1-1,1.11,11,11,0,0,1-1.49,1l-.31.18a10.43,10.43,0,0,1-1.82.81l-.19.07a9.11,9.11,0,0,1-1.39.37l-.47.1c-.16,0-.31.1-.46.15a5.89,5.89,0,0,1-1.4.4,6.25,6.25,0,0,1-1.51,0l-.44,0-.29.07a5.44,5.44,0,0,1-1.3.19l-.39,0-.3,0a13.79,13.79,0,0,1-1.66-.26,4.65,4.65,0,0,1-1.53-.72l-.28-.17-.15-.05a13.78,13.78,0,0,1-1.63-.7,2,2,0,0,0-.37-.13,5.42,5.42,0,0,1-1.45-.66l-.11-.08a13.66,13.66,0,0,1-1.47-1.12,4.08,4.08,0,0,1-1.05-1.63,1.34,1.34,0,0,0-.07-.18L205,296a8.85,8.85,0,0,1-.95-1.18c-.07-.09-.16-.17-.24-.26a4.63,4.63,0,0,1-1-1.35c-.27-.59-.47-1.18-.65-1.69l-.06-.19a14.07,14.07,0,0,1-.43-1.62l-.07-.35c0-.17-.1-.35-.15-.52a7.88,7.88,0,0,1-.33-1.46,4.39,4.39,0,0,1,.24-1.84c0-.1.06-.19.08-.29s0-.2-.06-.34a5.3,5.3,0,0,1-.08-1.6,6.1,6.1,0,0,1,.41-1.49,3.89,3.89,0,0,0,.16-.44,16.17,16.17,0,0,1,.52-1.92,9.91,9.91,0,0,1,.57-1.29c.09-.16.17-.32.25-.49s.14-.35.2-.52a9.61,9.61,0,0,1,.57-1.28,4.37,4.37,0,0,0,.23-.49,8,8,0,0,1,.65-1.26l.3-.45a12.87,12.87,0,0,1,.8-1.16,13.29,13.29,0,0,1,.9-1l.41-.42c.13-.15.25-.3.37-.46a10.53,10.53,0,0,1,.88-1,6.8,6.8,0,0,1,1.17-.85,2.79,2.79,0,0,0,.4-.26l.45-.41a10.88,10.88,0,0,1,1-.86,3.26,3.26,0,0,0,.39-.36,7,7,0,0,1,1-.9,4.88,4.88,0,0,1,1.52-.64,3,3,0,0,0,.32-.09c.13-.08.29-.2.45-.32l0,0a12.93,12.93,0,0,1-1.81-.86,7.15,7.15,0,0,1-1.25-1l-.39-.35a7.56,7.56,0,0,1-1.06-1.06l-.36-.4-.12-.11a8.46,8.46,0,0,1-1.31-1.63,9.46,9.46,0,0,1-1-2l-.15-.41a6.87,6.87,0,0,1-.46-1.72,4.7,4.7,0,0,1,.22-1.84,2.14,2.14,0,0,0,.09-.34l0-.4a7.2,7.2,0,0,1,.26-1.75,10,10,0,0,1,.89-2c.08-.14.15-.3.23-.45a7.44,7.44,0,0,1,.85-1.46,7.56,7.56,0,0,1,1.22-1.16l.4-.33a3.49,3.49,0,0,0,.32-.35,6.22,6.22,0,0,1,1.28-1.18,7.17,7.17,0,0,1,1.5-.71c.17-.07.34-.13.5-.21a16.81,16.81,0,0,1,2-.72,15.9,15.9,0,0,1,2.07-.46l.35-.06a11.79,11.79,0,0,1,3.3-.16l.49,0,.65,0c.32,0,.68.06,1.06.06.06,0,.27,0,.42-.08a6,6,0,0,1,1.29-.21,5.32,5.32,0,0,1,1.35.13l.4.06c.52-.06,1.09-.15,1.64-.25s.9-.2,1.37-.33a12.33,12.33,0,0,1-2.42-1.27c-.17-.12-.35-.22-.53-.33a6.4,6.4,0,0,1-1.78-1.37,6.11,6.11,0,0,1-1.1-2.13c-.06-.18-.11-.35-.18-.51s-.15-.32-.23-.48a6,6,0,0,1-.76-2.34,8.89,8.89,0,0,1,.39-3,8.44,8.44,0,0,1,1.22-2.46l.19-.3a10.36,10.36,0,0,1,1.65-2.08,14,14,0,0,1,2.16-1.65,16.21,16.21,0,0,1,2.37-1.14,22.23,22.23,0,0,1,2.36-.77c.34-.1.58-.2.82-.29a9.72,9.72,0,0,1,1.72-.53,19.19,19.19,0,0,1,2-.23l.49,0a12,12,0,0,1,1.69,0Zm-24.42,77.16a3.72,3.72,0,0,0,.53,0l.46-.16c.3-.11.6-.22.91-.3s.47-.11.7-.15a5.36,5.36,0,0,0,.72-.18l.2-.07a7.12,7.12,0,0,0,1.11-.47l.36-.22a5.86,5.86,0,0,0,.9-.58,4.08,4.08,0,0,0,.45-.5,7.32,7.32,0,0,1,.58-.67,5.27,5.27,0,0,0,.37-.52,8.72,8.72,0,0,1,.55-.8l.39-.48c.21-.26.43-.52.63-.81s.38-.61.56-.92l.31-.53c.23-.37.44-.76.65-1.14l.2-.36a4.79,4.79,0,0,1,1.07-1.25l.17-.15c0-.07,0-.17,0-.27a5.62,5.62,0,0,1,.44-1.42c.17-.33.35-.64.54-.95s.25-.42.36-.63.38-.69.59-1,.24-.39.34-.59.21-.41.31-.62a11.1,11.1,0,0,1,.55-1.09c.41-.67.77-1.23,1.12-1.7a9.47,9.47,0,0,1,1.62-1.71,4.24,4.24,0,0,1,1.53-.77,2.16,2.16,0,0,1,1.59-.58,4.15,4.15,0,0,1,3.25,1.69,4.73,4.73,0,0,1,.83,3.25,5.3,5.3,0,0,1-.46,1.54,4.65,4.65,0,0,0-.2.52c0,.18-.07.38-.11.58a7.87,7.87,0,0,1-.26,1.26,6.1,6.1,0,0,1-.45,1.1,5.16,5.16,0,0,0-.22.52c0,.1,0,.35,0,.55a7.59,7.59,0,0,1-.09,1.09c0,.24-.09.47-.14.71a6.51,6.51,0,0,0-.13.74,5.14,5.14,0,0,0,.21,1.11l0,.1c0,.17.08.33.11.5s.11.47.15.56a5.77,5.77,0,0,0,.5.5c.16.14.31.29.45.43a3,3,0,0,0,.51.34l.58.37.33.23a4.75,4.75,0,0,0,.73.47c.27.12.53.26.78.4a3.56,3.56,0,0,0,.42.22h.5a8,8,0,0,1,.85,0,8.62,8.62,0,0,1,.87.11,3.19,3.19,0,0,0,.51.06c.07,0,.18-.08.3-.13a5.49,5.49,0,0,1,2.14-.52,1.71,1.71,0,0,0,.39,0c.38-.15.83-.35,1.39-.63a7.46,7.46,0,0,0,.72-.48l.54-.38a11.61,11.61,0,0,0,1.21-.89l.3-.26a9.06,9.06,0,0,0,.82-.74,5.17,5.17,0,0,0,.32-.52,8.69,8.69,0,0,1,.46-.77l.39-.53a5.94,5.94,0,0,0,.48-.71c.16-.29.34-.56.53-.84s.26-.39.31-.49,0-.27.06-.42a6,6,0,0,1,.22-1.16c.15-.51.3-1,.41-1.55a4.54,4.54,0,0,0,.09-.73c0-.3.06-.6.1-.89s.1-.76.14-1.15l.05-.49c0-.31.08-.61.13-.92a6,6,0,0,0,.11-.74,5.77,5.77,0,0,0,0-.72c0-.33,0-.66,0-1a6.84,6.84,0,0,1,.19-1.27,3.87,3.87,0,0,0,.08-.44,3.23,3.23,0,0,0-.08-.49,7.68,7.68,0,0,1-.16-1.24c0-.34,0-.69,0-1a5.7,5.7,0,0,0,0-.71c0-.34,0-.68,0-1s0-.51,0-.76,0-.47-.07-.69,0-.45-.06-.67-.06-.3-.08-.46a8.77,8.77,0,0,1,.07-1.89,7.28,7.28,0,0,0,.07-.78,2.15,2.15,0,0,1,4.3,0v0a2.16,2.16,0,0,1,.17.8,5.55,5.55,0,0,1-.19,1.35,2.32,2.32,0,0,0-.07.37c0,.19.1.4.17.62a10.06,10.06,0,0,1,.34,1.22c.07.37.12.75.16,1.13a7.3,7.3,0,0,0,.18,1,5.64,5.64,0,0,0,.47,1c.18.33.36.66.51,1s.22.49.32.74a10.6,10.6,0,0,0,.56,1.2,5.14,5.14,0,0,0,.74.78c.24.23.48.45.69.69l.3.32a7.25,7.25,0,0,0,1.06,1q.36.24.69.51a4.82,4.82,0,0,0,.86.57,5,5,0,0,0,1.13.09h.74A8.22,8.22,0,0,0,275,280a9,9,0,0,1,1.25-.14,3.43,3.43,0,0,0,.84-.1,3.84,3.84,0,0,0,.67-.52,9.25,9.25,0,0,1,1-.81l.36-.23a10.15,10.15,0,0,0,1.37-1,12.94,12.94,0,0,0,1.43-1.6l.25-.33a11.36,11.36,0,0,0,1-1.46,5.69,5.69,0,0,0,.38-1.09c.1-.34.2-.68.32-1a16.4,16.4,0,0,0,.61-2.12l0-.2a16,16,0,0,0,.34-2,16.29,16.29,0,0,0,0-2.21c0-.25,0-.5,0-.75,0-.51-.05-1-.11-1.41s-.08-.86-.1-1.27a8.44,8.44,0,0,0-.08-1c-.08-.46-.14-.91-.19-1.36s-.08-.64-.13-1a5.88,5.88,0,0,0-.19-.75,8.27,8.27,0,0,1-.35-1.68,12.06,12.06,0,0,1,.07-2.21l.05-.44,0-.58a7.9,7.9,0,0,1,.29-2.16,13.51,13.51,0,0,1,1-2.31l.09-.16a15.45,15.45,0,0,1,1.19-1.79l.28-.37c.5-.69.9-1.27,1.25-1.82.14-.23.28-.56.44-.9a11.21,11.21,0,0,1,.52-1.11,11.07,11.07,0,0,1,.69-1.07,6.21,6.21,0,0,0,.5-.81,4.16,4.16,0,0,0,.1-.59,5.34,5.34,0,0,1,1.17-3.06,3.66,3.66,0,0,0,.31-.48l0-.14c.2-.69.38-1.34.5-1.95a20.38,20.38,0,0,0,.3-2.12,5.19,5.19,0,0,0-.1-1c-.06-.36-.11-.7-.14-1a3.85,3.85,0,0,0-.24-.64,9.33,9.33,0,0,1-.45-1.22l-.13-.56a8.86,8.86,0,0,0-.4-1.35,3,3,0,0,1-.18-.47,4.87,4.87,0,0,1-.42.35,7.53,7.53,0,0,1-1.58.85,5.88,5.88,0,0,0-.62.29l-.67.43a15.16,15.16,0,0,1-1.38.85l-.41.21c-.56.29-1.12.57-1.69.84A11.94,11.94,0,0,1,283,230c-.3.11-.61.22-.9.36a4.65,4.65,0,0,0-.59.41,7.89,7.89,0,0,1-1.28.84,7,7,0,0,1-1.45.5,2.87,2.87,0,0,0-.64.2,8,8,0,0,0-.8.56c-.31.24-.63.48-1,.7-.51.33-1,.7-1.55,1.09l-.21.15-.51.36a10.19,10.19,0,0,0-1,.77,3.18,3.18,0,0,0-.35.5,8.26,8.26,0,0,1-.82,1.12,10.6,10.6,0,0,1-.88.82,6.94,6.94,0,0,0-.6.57,7,7,0,0,0-.47.7,10.1,10.1,0,0,1-.68,1c-.23.3-.47.58-.71.86s-.43.5-.62.76a10.86,10.86,0,0,1-.89,1c-.18.2-.37.39-.52.59a15.92,15.92,0,0,1-1.67,2,18.82,18.82,0,0,1-2,1.6l-.48.36a15.79,15.79,0,0,1-1.54,1.07,8.31,8.31,0,0,1-1.59.66,4.83,4.83,0,0,0-.67.24c-.7.33-1.41.63-2.19.93-.63.25-1.23.45-1.78.63a1.82,1.82,0,0,1-.43.19,17.91,17.91,0,0,0-1.72.67l-.37.17a11.6,11.6,0,0,0-1.27.61,3,3,0,0,1-.22.29,6.45,6.45,0,0,1-1,1.06,9.65,9.65,0,0,1-.81.56,3.91,3.91,0,0,0-.65.48,13.83,13.83,0,0,0-1,1.15l-.2.25a9.6,9.6,0,0,0-.6.91l-.4.64a8.27,8.27,0,0,1-.7.91,3.57,3.57,0,0,0-.46.6,3.85,3.85,0,0,0-.25.68c-.11.33-.24.72-.42,1.13a7.7,7.7,0,0,1-.71,1.15,3,3,0,0,0-.33.52c-.06.15-.11.3-.17.46a7.73,7.73,0,0,1-.73,1.66,13.83,13.83,0,0,1-1.33,1.86,8,8,0,0,1-1.23,1.1l-.45.36c-.05,0-.17.21-.26.33a5.23,5.23,0,0,1-1.24,1.28,4.78,4.78,0,0,1-1.68.69,2,2,0,0,0-.37.1,5.12,5.12,0,0,0-.46.33,8.81,8.81,0,0,1-1.25.79l-.41.2c-.47.24-.94.47-1.44.69a12.13,12.13,0,0,1-1.24.42c-.23.07-.46.13-.68.22a3.87,3.87,0,0,0-.35.23,5.28,5.28,0,0,1-1.42.78,7.35,7.35,0,0,1-1.23.29,2.87,2.87,0,0,0-.59.12,3.55,3.55,0,0,0-.56.32,10.43,10.43,0,0,1-1,.55l-.63.28a7.67,7.67,0,0,0-.9.43c-.26.16-.54.3-.82.44a4.48,4.48,0,0,0-.65.36,8.8,8.8,0,0,0-.82.81l-.36.37a15.41,15.41,0,0,0-1.11,1.26,6.79,6.79,0,0,0-.46.77l-.41.7a7,7,0,0,1-.74,1,3.13,3.13,0,0,0-.35.44c-.27.53-.52,1.08-.75,1.63s-.45,1.1-.65,1.69a2.15,2.15,0,1,1-4.07-1.39c.24-.68.5-1.33.75-1.94s.56-1.29.87-1.92a6.29,6.29,0,0,1,1-1.36l.3-.36c.11-.18.21-.36.31-.54a10,10,0,0,1,.81-1.29,19.47,19.47,0,0,1,1.44-1.65l.31-.32a13.47,13.47,0,0,1,1.27-1.22,7.3,7.3,0,0,1,1.43-.85c.16-.08.33-.16.48-.25a10.15,10.15,0,0,1,1.44-.72l.49-.22a3.5,3.5,0,0,0,.53-.31,8.27,8.27,0,0,1,1.31-.69,7.55,7.55,0,0,1,1.43-.35,4.65,4.65,0,0,0,.53-.1l.35-.24a6.3,6.3,0,0,1,1.29-.73c.33-.12.66-.22,1-.32a7,7,0,0,0,.77-.26c.42-.18.82-.38,1.21-.57l.44-.22a4.52,4.52,0,0,0,.58-.39,10.18,10.18,0,0,1,.9-.61,5.42,5.42,0,0,1,1.46-.54l.28-.07.23-.29a5.72,5.72,0,0,1,.87-1c.21-.18.44-.36.66-.53a4.42,4.42,0,0,0,.6-.51,9.35,9.35,0,0,0,.92-1.29,5.5,5.5,0,0,0,.33-.82c.07-.2.14-.4.22-.61a6.7,6.7,0,0,1,.84-1.46,4.56,4.56,0,0,0,.29-.44c.1-.22.17-.45.25-.67a7.82,7.82,0,0,1,.55-1.39,7.52,7.52,0,0,1,1-1.34c.13-.16.26-.31.37-.47s.23-.36.34-.54a12.57,12.57,0,0,1,.9-1.34l.19-.25a19.54,19.54,0,0,1,1.29-1.51,8.09,8.09,0,0,1,1.37-1.06A4.07,4.07,0,0,0,247,251a2.66,2.66,0,0,0,.32-.37,5.38,5.38,0,0,1,1.37-1.29,14.37,14.37,0,0,1,1.77-.87l.34-.15c.61-.27,1.15-.48,1.67-.66a2,2,0,0,1,.46-.22c.6-.19,1.3-.42,2-.69s1.31-.53,1.91-.81a11.6,11.6,0,0,1,1.16-.44,4.12,4.12,0,0,0,.78-.3,11.54,11.54,0,0,0,1.09-.76l.55-.42a14.25,14.25,0,0,0,1.52-1.23,11.88,11.88,0,0,0,1.2-1.44,12,12,0,0,1,.82-.94c.2-.22.4-.43.58-.67s.52-.65.8-1,.39-.46.58-.7a7,7,0,0,0,.41-.64,11.42,11.42,0,0,1,.83-1.2,9,9,0,0,1,1.09-1.07c.19-.16.37-.32.54-.49s.22-.32.35-.52a6.77,6.77,0,0,1,1.05-1.34,14.4,14.4,0,0,1,1.47-1.14l.44-.31.21-.15c.6-.44,1.18-.86,1.76-1.24.24-.16.47-.33.7-.51a11.21,11.21,0,0,1,1.27-.87,6.84,6.84,0,0,1,1.71-.63,3.69,3.69,0,0,0,.57-.17,3.92,3.92,0,0,0,.62-.43,8.3,8.3,0,0,1,1.35-.87c.42-.19.84-.35,1.27-.51a9,9,0,0,0,.86-.33c.52-.25,1-.52,1.54-.78l.42-.22c.3-.15.62-.37,1-.59s.55-.37.83-.54a9.14,9.14,0,0,1,1.14-.56,4.2,4.2,0,0,0,.74-.37,2.76,2.76,0,0,0,.27-.23.69.69,0,0,0-.11-.13,4.28,4.28,0,0,0-.61-.64l-.56-.37a7.16,7.16,0,0,0-1.16-.69,4.13,4.13,0,0,0-.83-.13c-.36,0-.77-.08-1.2-.17s-.64-.16-1-.26a6,6,0,0,0-1.06-.24,17.87,17.87,0,0,0-2.13,0,5.92,5.92,0,0,0-.71.21,8.87,8.87,0,0,1-1.38.4c-.64.12-1.34.28-2.11.5-.37.1-.78.27-1.22.44l-.84.33A8.26,8.26,0,0,1,272,222a4.08,4.08,0,0,0-.79.18l-.18.06-.38.18a16.85,16.85,0,0,1-1.72.76c-.26.1-.51.22-.77.33a11.33,11.33,0,0,1-1.58.62,6.85,6.85,0,0,1-1.85.22,5.77,5.77,0,0,0-.68,0c-.16,0-.4.14-.66.24a6.55,6.55,0,0,1-1.76.53,7.91,7.91,0,0,1-1.77,0,5,5,0,0,0-.74,0,7.89,7.89,0,0,0-.85.1,17.24,17.24,0,0,1-2.4.17c-.56,0-1.12,0-1.67,0a7.15,7.15,0,0,1-1.64-.28,5.17,5.17,0,0,0-.75-.15c-.34,0-.67,0-1,0s-.91,0-1.36-.05-.85-.09-1.27-.15-.7-.1-1-.12a4.17,4.17,0,0,0-.8.06,8.46,8.46,0,0,1-1.49.11l-1-.07a11.85,11.85,0,0,0-1.19-.06c-.36,0-.71,0-1.06,0a10.8,10.8,0,0,0-1.14,0l-.52,0c-.58.05-1.13.09-1.63.18a7.18,7.18,0,0,0-.93.31c-.36.14-.73.28-1.1.39a20,20,0,0,0-2,.64,12.39,12.39,0,0,0-1.77.85,8.67,8.67,0,0,0-1.47,1.13,5.93,5.93,0,0,0-.94,1.23l-.2.32a5.24,5.24,0,0,0-.68,1.23,5.43,5.43,0,0,0-.25,1.56,3.48,3.48,0,0,0,.32.76c.11.23.23.46.33.69s.21.55.3.83a3.24,3.24,0,0,0,.3.72,4,4,0,0,0,.68.45l.79.49a8,8,0,0,0,1.57.82,10.63,10.63,0,0,1,1,.46,3.52,3.52,0,0,0,.76.34,8.28,8.28,0,0,0,1.3.09,2.15,2.15,0,0,1,1.6.19,2.22,2.22,0,0,1,.76.73,2.12,2.12,0,0,1-.29,2.83,5.76,5.76,0,0,1-1.28,1.45l-.17.14a8.46,8.46,0,0,1-1.81,1.17,13.4,13.4,0,0,1-1.94.65l-.1,0c-.63.18-1.3.36-2,.49s-1.4.23-2,.29a5.59,5.59,0,0,1-1.62-.12l-.37-.06-.51.1a5.86,5.86,0,0,1-1.39.2c-.51,0-1,0-1.43-.07l-.51,0-.55,0a10.78,10.78,0,0,0-1.09,0,11.71,11.71,0,0,0-1.22.16l-.39.06a11.42,11.42,0,0,0-1.54.34,9.48,9.48,0,0,0-1.45.52l-.74.29a4.74,4.74,0,0,0-.68.3,3.79,3.79,0,0,0-.39.4,6.46,6.46,0,0,1-.67.71l-.58.49a3.76,3.76,0,0,0-.56.5,4.47,4.47,0,0,0-.35.65c-.11.23-.23.46-.35.69a5.45,5.45,0,0,0-.53,1.16,4.42,4.42,0,0,0-.08.76c0,.18,0,.36,0,.54a5.67,5.67,0,0,1-.23,1.11c0,.1-.06.19-.07.29a5.3,5.3,0,0,0,.2.61c.07.2.15.4.21.6a7.14,7.14,0,0,0,.57,1.15,5.27,5.27,0,0,0,.68.78l.12.13c.18.18.35.37.51.56a7,7,0,0,0,.5.53c.22.17.43.36.63.54a4.1,4.1,0,0,0,.48.41,8.62,8.62,0,0,0,1.31.62,9.27,9.27,0,0,0,1.39.41l.36,0a6.61,6.61,0,0,1,1.13,0c.32,0,.63.07.95.12a2.94,2.94,0,0,0,.57.08l.3,0c.42,0,.85,0,1.28-.09l.75-.09a6.41,6.41,0,0,0,.88-.11,7.62,7.62,0,0,0,.82-.22l.81-.22.67-.16,1-.24a2.15,2.15,0,1,1,1.16,4.14l-.14,0a2.09,2.09,0,0,1-1.07.53c-.32.05-.63.08-.95.11a5.5,5.5,0,0,0-.69.08,4.67,4.67,0,0,0-.64.23c-.31.12-.61.23-.92.32a5.5,5.5,0,0,1-1.33.19l-.38,0-.3.21a6.29,6.29,0,0,1-1.12.63c-.3.12-.6.22-.91.31a6,6,0,0,0-.67.24c-.25.12-.51.23-.77.33s-.51.21-.75.34a5.09,5.09,0,0,0-.57.38,8.26,8.26,0,0,1-.81.55,5.29,5.29,0,0,1-1.36.54,1.7,1.7,0,0,0-.32.1l-.35.34a7.78,7.78,0,0,1-.82.74,6.09,6.09,0,0,0-.6.54c-.21.19-.41.39-.62.57a7.05,7.05,0,0,1-1,.68,2.31,2.31,0,0,0-.4.26,6.37,6.37,0,0,0-.49.57c-.19.24-.37.47-.57.69l-.51.54c-.21.21-.42.43-.61.66s-.37.53-.55.8-.23.37-.35.55a3.36,3.36,0,0,0-.28.57,9,9,0,0,1-.43.88,5.47,5.47,0,0,0-.28.68c-.1.26-.2.52-.31.78s-.22.46-.34.68a6.08,6.08,0,0,0-.33.73,13.17,13.17,0,0,0-.4,1.48,8.21,8.21,0,0,1-.33,1,2.55,2.55,0,0,0-.16.46c0,.05,0,.25,0,.4a6.88,6.88,0,0,1,.12,1.14,5,5,0,0,1-.27,1.43l-.06.22a4.86,4.86,0,0,0,.16.59c.08.27.16.54.22.81l.08.39a11.54,11.54,0,0,0,.29,1.13l.07.2c.16.46.31.89.48,1.28a.84.84,0,0,1,.19.16,5.65,5.65,0,0,1,.74.9,7.12,7.12,0,0,0,.52.62l.39.42a4.49,4.49,0,0,1,.75,1.33s0,.09.05.14c.26.21.59.44.92.67l.11.08.33.1a6.11,6.11,0,0,1,1,.42,11.62,11.62,0,0,0,1.14.47l.18.07a5.8,5.8,0,0,1,1.07.57c.1.06.19.13.29.18a10.2,10.2,0,0,0,1,.13l.24,0,.26-.07a5.09,5.09,0,0,1,1.27-.19A6.94,6.94,0,0,1,218.11,297.48Z" style="fill: #1d1d1b"/>
  </g>
</svg>
