<svg xmlns="http://www.w3.org/2000/svg" viewBox="0 0 500 500">
  <title>moon</title>
  <g>
    <g>
      <path d="M309.09,302.83c0-.41,0-.82-.07-1.22s0-.83-.1-1.22a11.69,11.69,0,0,0-.3-1.2c-.14-.38-.53-.66-.71-1a9.06,9.06,0,0,0-.5-1.1,9.91,9.91,0,0,0-.75-1,11.31,11.31,0,0,0-.73-1,10.27,10.27,0,0,0-.9-.84,12.23,12.23,0,0,0-1-.64,11.28,11.28,0,0,0-1.13-.61,11.42,11.42,0,0,0-1.23-.36,9.62,9.62,0,0,0-1.19-.53,8.05,8.05,0,0,0-1.29-.08,10.67,10.67,0,0,0-1.28.2,11.29,11.29,0,0,0-1.3,0,10.3,10.3,0,0,0-1.23.38,9.89,9.89,0,0,0-1.23.42c-.16.07-1.55.78-1.69.89a25.51,25.51,0,0,0,5.2-21.25s2.68-19.62-6.85-26.81c0,0-4.13-13-15-17,0,0-7.6-11.91-31.11-10.66A43.24,43.24,0,0,0,211,231.82s-11.25,6.37-14.25,19.87c0,0-6.38,7.08-4.75,16.25,0,0-1.79,19.05,4.16,26.74,0,0,7.34,20.51,19.34,24.39,0,0,17.52,8.74,30.25,8.75,9.76,0,14.15-2.93,14.15-2.93,10.26-1.62,15.18-5.9,21.5-12.94,0,.21.94-1.88,2.09-1.64.39.09.05.81.07,1.22s-.05.83,0,1.23a9.94,9.94,0,0,0,.4,1.16c.11.39.1.83.25,1.21a10.28,10.28,0,0,0,.58,1.08,9.38,9.38,0,0,0,.69,1,20.63,20.63,0,0,0,1.74,1.68,9.26,9.26,0,0,0,1,.79,10.23,10.23,0,0,0,1.1.65,10.13,10.13,0,0,0,1.21.41,10.57,10.57,0,0,0,1.25.23,10.79,10.79,0,0,0,1.26.14,9,9,0,0,0,1.27,0,10.75,10.75,0,0,0,1.27,0c.42-.06.82-.2,1.23-.3s.83-.16,1.23-.3.79-.3,1.19-.48.8-.29,1.17-.5.72-.46,1.07-.71.56-.64.89-.92.78-.35,1.07-.64.46-.7.73-1,.56-.59.81-.92.64-.54.87-.88.31-.78.52-1.12.53-.65.72-1,.3-.77.47-1.14.37-.73.52-1.11.34-.76.46-1.15.23-.79.32-1.19,0-.84.06-1.24.07-.81.11-1.21.27-.81.28-1.21S309.11,303.23,309.09,302.83Z" style="fill: #fff381"/>
      <path d="M281.22,299.61c-.2.21-.27.55-.48.73s-.5.3-.74.46a7.71,7.71,0,0,1-.8.3c-.26.14-.42.45-.69.56s-.6,0-.87.07a5,5,0,0,1-.81.25,8,8,0,0,1-.84.1,8,8,0,0,1-1.69,0,6.17,6.17,0,0,1-.84-.15,6.59,6.59,0,0,1-.78-.34,6,6,0,0,1-.83-.23,8.17,8.17,0,0,1-.68-.52c-.23-.17-.56-.22-.77-.41a4.55,4.55,0,0,1-.58-.65,2.69,2.69,0,0,1-.86-1.49,7,7,0,0,1-.34-.79c-.1-.26-.32-.5-.4-.78s.13-.61.09-.89-.27-.55-.28-.84.11-.57.13-.86a8.41,8.41,0,0,1,.21-.83,8.27,8.27,0,0,1,.26-.8,7.64,7.64,0,0,1,.29-.8,6,6,0,0,1,.4-.75,6.33,6.33,0,0,1,.48-.71,6.54,6.54,0,0,1,.49-.72c.2-.2.47-.32.68-.5s.47-.29.7-.45.45-.32.7-.45a8.09,8.09,0,0,1,.76-.31c.26-.1.48-.36.74-.43a8.19,8.19,0,0,1,.86,0,7.34,7.34,0,0,1,.82-.08,8,8,0,0,1,.84-.09,8.3,8.3,0,0,1,.83.12,8.19,8.19,0,0,1,.79.27c.26.09.54.15.79.26a6.49,6.49,0,0,1,.7.46c.24.13.58.13.81.29a8.06,8.06,0,0,1,.66.53c.22.2.26.58.45.8s.52.35.68.6a5.52,5.52,0,0,1,.33.83,7.4,7.4,0,0,1,.39.8c.09.28.16.56.23.85a8.82,8.82,0,0,1,0,.89,7,7,0,0,1,.16.87,11.32,11.32,0,0,0-.21,1.76,5.34,5.34,0,0,1-.38.83,8,8,0,0,1-.29.87,7.21,7.21,0,0,1-.5.77A4.3,4.3,0,0,1,281.22,299.61Z" style="fill: #fff"/>
      <path d="M219.37,239.9a2,2,0,0,1,0-.55,4.28,4.28,0,0,1,.14-.68,6.64,6.64,0,0,1,.36-1.06l.18-.42a3.14,3.14,0,0,1,.24-.5l.35-.59.09-.15,0,0h0l.08-.11h0l0,0,0,0,.16-.22c.12-.15.22-.29.36-.45s.36-.36.55-.54l.14-.13.07-.06,0,0,.09-.07.23-.18.46-.36a10,10,0,0,1,1.38-.76l.53-.23.7-.22.34-.11.09,0h0l.13,0h0l.13,0,.52-.06a10.26,10.26,0,0,1,1.14-.07h.51l.39,0c.21,0,.5.06.72.09l.67.14a1.36,1.36,0,0,1,1,1.66,1.39,1.39,0,0,1-.87.95l-.36.12-.41.11-.52.13-.37.08-.21.05-.12,0-.33.1a3.19,3.19,0,0,0-.41.12l-.5.16-.12,0h0l.11,0h0l0,0-.17.08-.36.16-.52.26c-.26.12-.42.28-.65.4l-.81.59a3.88,3.88,0,0,1-.33.23c-.13.1-.27.24-.41.36l-.21.18-.05,0,0,0h0c.16-.19,0-.05.08-.09h0l-.07.06a3.2,3.2,0,0,1-.27.25,1.41,1.41,0,0,0-.29.33l-.28.36c-.09.06-.19.3-.28.42a2.23,2.23,0,0,0-.24.49,2.36,2.36,0,0,1-.24.49,1.45,1.45,0,0,1-2.63-.72Zm-5.71,61.48a1.63,1.63,0,0,1-1.22,2.55h0l-.17,0-.43-.15-.32-.12-.42-.21-.5-.24-.51-.36-.89-.62-.12-.08-.06,0,0,0-.23-.23-.21-.21-.44-.43-.45-.46-.11-.11-.29-.37L207,300l-.39-.53-.2-.27-.11-.13-.05-.07,0,0v0h0l-.15-.28c-.2-.4-.4-.8-.59-1.2l-.14-.29,0-.08v0h0l-.11-.29v0l0-.15c-.05-.21-.11-.42-.16-.62s-.1-.4-.16-.6l-.06-.29-.08-.35v-.07l0-.15c0-.38-.11-.74-.16-1.07l0-.24,0-.12V293l0-.27h0v0c0-.15,0-.3,0-.43s0-.51.05-.7c0-.4.05-.62.05-.62v-.11a2,2,0,0,1,3.9.12s0,.22,0,.61c0,.2,0,.44,0,.71v.4c0,.07,0,.15.05.24,0,.33.11.68.18,1.06v.09l0,.21.15.59.15.62,0,.09.11.24.48,1.13.07.11.17.28.35.56.17.28,0,.07,0,0h0l-.13-.16.07.08.38.52.37.49.17.24v0h0l-.2-.19,0,0,.06.05.1.11.77.76.18.17.08.09,0,0h0l.18.13.23.18.27.16a4.19,4.19,0,0,1,.39.24C213.62,301.33,213.65,301.39,213.66,301.38Zm-4.89-7.15Zm0,0Zm58-50.72a7,7,0,0,1-.57-.42l-.27-.22-.14-.11-.13-.11-.08-.08L265,242a7.52,7.52,0,0,1-1-1.16l-.05-.07,0,0-.1-.14h0l0-.06-.12-.2a3.55,3.55,0,0,1-.21-.44,4.79,4.79,0,0,1-.34-1,4.09,4.09,0,0,1,0-1.32,4.94,4.94,0,0,1,.13-.52l.1-.24c0-.05,0-.05,0-.08l.08-.13.11-.19v0l0,0,.07-.08.13-.15a3.2,3.2,0,0,1,2.26-1l.51,0h.28l.16,0,.3,0,.54.11.33.11a3.65,3.65,0,0,1,.6.25h0a1.43,1.43,0,0,1,.51,2,1.46,1.46,0,0,1-1.15.7,2.6,2.6,0,0,1-.65-.06l-.34,0-.16,0,.05.07.06.07a8.43,8.43,0,0,0,.86.94l.35.35.05,0h0l-.05,0,0,0,.13.12.26.23c.17.13.36.32.5.43l.42.32.2.17.05,0h0l-.12-.07h0l0,0,.13.08.52.34c.34.21.66.43,1,.63l.11.08h.05l-.19-.09.05,0,.22.11.4.22.35.18.23.11.45.24.26.15a1.37,1.37,0,0,1-.77,2.54s-.28,0-.8-.07l-.43-.06c-.14,0-.26-.06-.4-.09l-.45-.1-.24-.06h-.06l-.27-.12-.12,0-1.05-.44c-.18-.09-.37-.17-.57-.25l-.14-.07h0l-.16-.1-.08-.05-.33-.21Zm4.62-1.46Zm-4.92-3.76,0,0-.29,0c0,.05,0,.06.05.07a.06.06,0,0,0,.07,0S266.48,238.38,266.51,238.32Zm-2.43,68.43a1.42,1.42,0,0,1,.38,1.18v0a2.51,2.51,0,0,1-.16.53,3.77,3.77,0,0,1-.29.65l-.24.45-.14.25-.21.28-.27.38-.14.2-.22.24-.48.5-.13.13h0l-.11.08h0l0,0-.05,0-.21.17c-.16.12-.27.23-.47.36s-.46.26-.69.39l-.18.09-.09.05-.05,0-.11.05-.27.11-.56.22a9.39,9.39,0,0,1-1.62.34l-.57.05h-.76l-.37,0h-.29l-.13,0-.51-.11a10.4,10.4,0,0,1-1.09-.31l-.13,0-.18-.06-.05,0-.19-.08,0,0-.3.34a4.53,4.53,0,0,1-.65.56l-.41.33-.52.29-.36.21a1.71,1.71,0,0,1-.46.2l-.64.18-.33.08-.17,0h-.33c-.3,0-.6,0-.93,0s-.9-.14-1.34-.23l-.08,0-.17,0-.1,0-.22-.08-.41-.16a9.32,9.32,0,0,1-1-.5c-.17-.11-.27-.15-.5-.31l-.28-.24c-.18-.16-.32-.27-.49-.45s-.31-.33-.43-.46a4.9,4.9,0,0,1-.33-.41,1.38,1.38,0,0,1,.29-1.94,1.42,1.42,0,0,1,1.16-.23l.32.09a3.12,3.12,0,0,1,.34.1l.36.14.58.22.34.14s.14,0,.2,0,.27.08.54.15l.43.1.23,0,.11,0h0s-.2-.05-.1,0h0a2.64,2.64,0,0,1,.49.08c.29,0,.61,0,.91,0h.07l.23,0c.06,0,.22,0,.36,0l.41-.08.19,0,.1,0h0l-.15.06h0l.19-.06a1.33,1.33,0,0,0,.41-.14l.3-.19a1.46,1.46,0,0,1,.16-.44,1.41,1.41,0,0,1,1.24-.69h.06s.21,0,.56,0l.63.06.39.05.21,0h.05l-.12,0h.13l.79.05h.64l.18,0,.36,0,.57-.1a6.91,6.91,0,0,0,.68-.16l.92-.34a2.42,2.42,0,0,1,.35-.12c.13-.05.32-.17.48-.25l.25-.12.06,0,0,0h0c.1-.07-.14.09-.11.08h0l.08-.05.31-.17.16-.08.19-.16.36-.3.09-.07,0,0h0a.37.37,0,0,1-.06.08h0l.09-.1.18-.19a1.86,1.86,0,0,0,.33-.42,2.18,2.18,0,0,1,.33-.44A1.45,1.45,0,0,1,264.08,306.75Zm-3,1.11Zm-42.16-58.25-.55.76-.21.32a2.31,2.31,0,0,0-.21.37c-.13.26-.24.51-.35.74s-.16.37-.22.53a4.12,4.12,0,0,0-.15.55c0,.17-.07.29-.1.38s-.08.13-.07.13a1.72,1.72,0,0,1-2.42.16,1.69,1.69,0,0,1-.4-.53.37.37,0,0,1,0-.14,2.48,2.48,0,0,1,0-.39,5.51,5.51,0,0,1,0-.64c.05-.29.1-.62.16-1s.15-.65.24-1a3.13,3.13,0,0,1,.18-.55c.08-.21.17-.42.25-.64l.07-.16,0-.08.08-.15.13-.24.27-.49c.21-.36.54-.8.82-1.19l.48-.51a4.15,4.15,0,0,1,.42-.43l.57-.48.28-.23.08-.06.17-.11.12-.08.44-.27.22-.14.3-.14.61-.27.29-.13.07,0h0l.16-.06.11,0c.27-.08.52-.15.75-.2s.59-.1.8-.13l.75-.08a1.92,1.92,0,0,1,2,1.82,1.9,1.9,0,0,1-1.21,1.88l-.52.2a1.62,1.62,0,0,1-.29.09,2.6,2.6,0,0,0-.38.08l-.74.24h0l-.12.06-.27.12a.66.66,0,0,0-.15.07l-.22.13-.45.28-.09,0-.14.11c-.1.07-.2.15-.3.21a3.91,3.91,0,0,0-.4.36l-.2.19-.11.1-.05.05,0,0h0C219.25,249.24,219.1,249.38,218.92,249.61Zm3.07-2.33ZM219.48,249Zm56.4-7.9A1.52,1.52,0,0,1,277,238.6h0a1.17,1.17,0,0,1,.4.07l.44.12.7.29.41.18,0,0h0l.12.09h0l.08,0,.16.09.67.41.34.23.17.12.08.06,0,0h0l.26.25,0,0c.2.2.38.43.57.64s.34.46.52.68l0,0,.16.22v0l.06.09.1.18.19.36a9.88,9.88,0,0,1,.4.91l.09.23,0,.11.05.13v.06l.06.34c0,.22.06.39.08.61a5.1,5.1,0,0,1,0,.64,4.51,4.51,0,0,1,0,.54,1.35,1.35,0,0,1-1.46,1.22,1.4,1.4,0,0,1-.9-.46l-.36-.42-.17-.23a2.72,2.72,0,0,1-.16-.25c-.07-.11-.2-.31-.3-.49s-.11-.2-.17-.3l0,0v0h0l0,.1h0l0-.05-.08-.09c-.12-.15-.16-.23-.33-.46l-.25-.32-.09-.11,0,0-.57-.64c-.17-.23-.36-.45-.52-.68l0-.05h0l.07.07-.1-.09-.28-.31q-.26-.32-.51-.6l-.11-.15L277,242h0l.12.09h0l0,0-.17-.17c-.11-.11-.19-.21-.31-.31l-.38-.25A1.31,1.31,0,0,1,275.88,241.09Zm2.31,2.31h0Zm33.21,60.71v.06l0,.26a4.13,4.13,0,0,1-.08.47l-.09.31c-.05.21,0,.05-.06.17l0,.2v.12l0,.42c0,.29-.07.54-.07.87v.33l0,.42v.19l-.07.38-.06.2-.11.42-.11.41,0,.1v0l0,.16,0,.05-.08.19-.32.8-.09.22-.05.1-.09.19-.18.39-.18.39-.19.46-.17.4-.08.2,0,.1,0,.05-.07.14,0,0c-.22.34-.49.74-.63.93l-.13.17h0l0,0-.13.31-.18.38-.09.19,0,.05s-.27.44-.16.25l0,0-.11.13-.46.48-.32.32-.16.14.07-.08h0l0,0,0,0-.08.08-.29.32-.29.33-.07.08-.08.09,0,0-.1.14c-.12.18-.3.41-.48.64l0,0,0,0s-.32.36-.2.21l-.23.19a4.1,4.1,0,0,1-.45.31c-.18.09-.51.26-.41.19s0,0,0,0l-.1.06,0,.05-.13.14c-.15.17-.38.38-.58.58l0,0-.31.24,0,0-.09.05-.18.12-.36.23-.35.23-.05,0-.11.07,0,0-.13.06-.27.12c-.39.19-.6.26-.87.37l-.83.32-.38.15-.29.1-.1,0-.2.05-.81.19-1,.23-.4.09-.1,0h-.05l-.12,0h-.92l-.4,0c-.27,0-.57,0-.82,0h-.67c.18,0-.27,0-.23,0l-.1,0-.78-.1a13.51,13.51,0,0,1-1.71-.3l-.09,0-.27-.08h-.07l-.17-.07-.36-.13-.35-.13-.18-.06,0,0-.14-.05,0,0-.12-.06a9.18,9.18,0,0,1-.81-.48c-.21-.14-.38-.25-.69-.48l-.39-.3-.27-.24-.13-.11-.21-.19-.25-.24-.5-.48-.63-.62-.22-.25-.11-.13,0,0,0,0-.18-.24,0-.07-.37-.54-.18-.27,0-.07,0,0v0l-.12-.21-.07-.14c-.1-.19-.19-.38-.29-.56l-.14-.28,0-.07-.06-.13,0-.06-.06-.22a6.43,6.43,0,0,1-.17-.79l-.05-.29v-.11l0-.06-.15-.43-.1.07h0l0,0-.36.16c-.24.1-.46.2-.77.31s-.5.19-.88.3l-.15,0a1.9,1.9,0,0,1-.29.67l-.31.47a13.36,13.36,0,0,1-.95,1.32c-.43.49-.87.91-1.29,1.31l-.24.23c-.43.41-.87.75-1.29,1.09l-.36.28-.44.36a14.41,14.41,0,0,1-1.24,1l-.24.17c-.49.33-1,.67-1.55,1s-.94.48-1.39.69c-.18.08-.35.15-.52.24l-.57.28a12.84,12.84,0,0,1-1.34.63c-.51.2-1,.33-1.45.46l-.59.16-.2.06c-.6.19-1.21.38-1.86.52-.47.1-.91.19-1.35.26l0,0a6.42,6.42,0,0,1-.74.52l-.25.14-.06,0h-.05l-.09,0h0l-.09,0-.42.17c-.28.12-.63.23-1,.36l-.28.09-.37.11-.57.15-.61.16-.32.07-.08,0h0l-.16.06a23.35,23.35,0,0,1-2.94.85l-.75.18-.93.1-.78.06h-.3l-.41.08c-.26.06-.54.12-.88.17l-.49.09-.13,0H249c-.28,0-.58,0-.85,0l-.84,0-1.75.09h-1.87c-.57,0-1.15,0-1.85-.06l-.25,0h-.25l-.44-.06-.87-.11-.48-.06-.43-.08-.84-.18-.88-.19-.82-.19-3.24-.72-.73-.16-.36-.09-.24-.06-.18-.05-1.31-.42-.71-.23-.58-.2-.56-.21-.26-.09-.16-.07h-.05l-.06,0-.12-.06c-.32-.18-.61-.33-.89-.5l-.39-.24-.44-.25-.19-.11-.46,0c-.27,0-.5-.05-.85-.11l-.49-.08h-.08l-.18-.05h0l-.1,0-.21-.07-.75-.29-.11,0h-.12l-.46-.06-.61-.1-.32-.06h-.09L221,324h0l-.11-.06-.8-.39-3.93-1.37a7.29,7.29,0,0,1-1.17-.51l-.49-.25-.25-.13-.06,0,0,0-.18-.1-.11-.08c-.32-.2-.63-.4-.9-.59l-.55-.38-.46-.32-.45-.33-.49-.3-.49-.3-.44-.26c-.29-.18-.71-.43-1.11-.7l-1-.7-.21-.17h0l0,0-.06,0-.12-.09-.49-.34-.56-.42-.17-.16h0l0,0,0-.05-.1-.11-.19-.21-.32-.37-.13-.16-.06,0-.11-.09c-.27-.21-.65-.53-1-.83l-.78-.86-.82-.87-.38-.4-.17-.21,0-.05-.08-.11-.17-.22c-.24-.31-.34-.5-.63-.84l-.68-.82,0,0,0,0-.18-.18c-.06,0,.07.08-.22-.15-.11-.1-.16-.12-.32-.28a5.92,5.92,0,0,1-.41-.45l0-.06c.15.25-.24-.37-.2-.31v0l0-.05-.06-.12-.05-.11-.1-.27q-.1-.3-.18-.6l0-.08,0,0h0s0,0,0,0l-.25-.24-.12-.13-.17-.21a3.5,3.5,0,0,1-.32-.45l-.22-.42c-.15-.27-.29-.54-.43-.81l-.14-.28v0l0-.05,0-.11c0-.08,0-.1-.1-.28s-.18-.69-.18-.69l0-.08,0,0c-.05-.08-.06-.07-.06-.07h0l-.33-.41-.24-.39-.1-.19-.06-.1v0l-.09-.24v0c0-.13-.06-.25-.1-.37s-.11-.44-.15-.62l0-.13,0-.07h0l-.12-.27c-.11-.22-.2-.44-.3-.65l-.15-.35,0-.08,0-.08v0l0-.13c-.05-.18-.09-.36-.14-.52-.09-.38-.18-.72-.26-1l-.1-.45a4.12,4.12,0,0,1-.57-.82c-.1-.19-.2-.41-.31-.64s-.1-.23-.15-.35l-.15-.35-.08-.21c-.12-.29-.22-.56-.32-.83l0-.06-.13-.22-.14-.23-.18-.32c-.09-.19-.2-.38-.3-.57s-.17-.36-.26-.54l-.3-.68-.07-.2v-.06l0-.07,0-.15-.08-.31c0-.17-.07-.34-.11-.51l-.05-.09-.15-.3c-.1-.2-.25-.54-.37-.81l-.05-.11v0l-.06-.23V288l0-.17-.05-.34c0-.23-.05-.35-.07-.53s-.15-.45-.22-.67l-.12-.34-.05-.17,0-.09,0,0,0-.15-.19-.7c-.13-.49-.23-.87-.37-1.46l-.1-.47c0-.1,0-.11-.06-.28l0-.18-.07-.74,0-.37,0-.26v-1l0-.83,0-.7c0-.52,0-1,0-1.46s0-1,0-1.46v-.43l0-.34.06-.67c0-.47.07-.93.11-1.38l0-.31v0l0-.22v0l0-.07,0-.15c0-.2.11-.41.16-.57a5.1,5.1,0,0,0,.16-.56c0-.19.07-.38.1-.56l.09-.53,0-.13v-.07l0-.12h0v0l.08-.24.32-.91,0-.1,0-.16v0h0c-.06-.13-.11-.25-.17-.4l-.21-.65-.09-.33v0h0l0-.12v-.1l0-.13c0-.35-.08-.67-.09-1.07l0-.58v-.66c0-.34,0-.71.08-1.11l0-.29v-.23l0-.52,0-.27,0-.34.09-.68v-.12l0-.15,0-.13.06-.25.12-.51.13-.51.06-.25,0-.12.12-.29v0l0-.06c.16-.32.28-.62.47-.95l.27-.5.06-.11v0l0-.05.1-.24.22-.48c.07-.16.2-.4.3-.59l.16-.3.09-.15,0-.08.15-.19.33-.4c.21-.27.46-.53.71-.8.46-.46.44-.5.89-.91l.09-.08.18-1.25.06-.39.07-.4c0-.25.11-.57.19-.9l.11-.49v-.06l0-.13,0-.09.06-.2.27-.77.13-.39.07-.19.08-.23.05-.09.35-.74.35-.74,0-.09.08-.17,0,0,.1-.18.19-.36.85-1.54.39-.72.19-.36.27-.46.41-.7.21-.36.1-.17,0-.09,0-.05v0l.08-.11,1-1.33,1.06-1.4.25-.32,0,0,.15-.17,0,0,.07-.07.15-.15.59-.56.29-.27.15-.14.19-.19.57-.59.56-.59.08-.07.12-.12h0l0,0,.16-.13.33-.25.64-.5.47-.36.33-.23.67-.47.34-.23.08-.06,0,0,.23-.15.18-.09.73-.39.55-.26a5.87,5.87,0,0,1,.58-.51c.07-.06.15-.11.21-.17s0,0,0-.12a4.65,4.65,0,0,1,.76-1.14,3.5,3.5,0,0,0,.24-.3,7.13,7.13,0,0,1,.73-.85,4.52,4.52,0,0,1,1.07-.73l.16-.09.06-.1a4.68,4.68,0,0,1,.94-1.08,4.19,4.19,0,0,1,1.24-.64l.17-.07c.08-.06.16-.14.25-.22a7.46,7.46,0,0,1,.83-.67l.36-.27a8.08,8.08,0,0,1,.81-.6l.22-.19a5.28,5.28,0,0,1,.93-.73l.92-.53.33-.19a6.67,6.67,0,0,1,1-.42,2.28,2.28,0,0,0,.36-.15,7.58,7.58,0,0,1,.95-.4c.12-.05.26-.09.38-.15l.43-.25c.29-.17.58-.34.88-.48a2.8,2.8,0,0,0,.32-.2,6.12,6.12,0,0,1,1-.55l.41-.18c.32-.15.64-.29,1-.41l.39-.19a8.41,8.41,0,0,1,1-.45,5.19,5.19,0,0,1,1.28-.23l.26,0a3.05,3.05,0,0,0,.35-.15,6.79,6.79,0,0,1,1-.37,8.53,8.53,0,0,1,1-.19,3.5,3.5,0,0,0,.45-.07c.48-.11,1-.21,1.46-.3a4,4,0,0,1,1.15-.09,1.9,1.9,0,0,0,.34,0l.47-.08c.28-.05.56-.1.84-.13l.11-.06a4,4,0,0,1,1.47-.48,3.32,3.32,0,0,1,1.65.29,4.16,4.16,0,0,1,1.33-.3c.33,0,.65,0,1,0a4.43,4.43,0,0,0,.51,0h0a3.92,3.92,0,0,1,1.47.32,3.82,3.82,0,0,1,1.48-.24,5,5,0,0,1,1.3.29l.23.08c.07,0,.18,0,.31,0a5.83,5.83,0,0,1,1.1,0,8.56,8.56,0,0,1,1,.19,3.77,3.77,0,0,0,.43.1,6.52,6.52,0,0,1,1.05.25c.13,0,.26.08.4.1.46.08.89.17,1.31.26l.12,0a3.83,3.83,0,0,1,1.57,0,5,5,0,0,0,.5.11,7.92,7.92,0,0,1,1,.25,3.08,3.08,0,0,1,.77.39h.09a12.68,12.68,0,0,1,1.49.09q.31,0,.63.06a11.37,11.37,0,0,1,1.49.21c.21,0,.41.08.62.1s.45.05.67.07a9.2,9.2,0,0,1,1.46.18l.56.11c.49.1,1,.21,1.54.37a11.5,11.5,0,0,1,1.46.61c.18.08.36.17.54.24s.42.16.62.23a8.58,8.58,0,0,1,1.41.56,9.52,9.52,0,0,1,1.33.9c.16.12.31.24.47.34l.39.26c.47.31.95.62,1.41,1l.21.18c.49.4,1,.81,1.45,1.26.15.16.31.31.46.46a13,13,0,0,1,1.08,1.14,6,6,0,0,1,.74,1.14l.71.33.5.23a14.27,14.27,0,0,1,1.37.72l.47.27.22.11c.52.28,1.06.57,1.59.92l.48.31a14.49,14.49,0,0,1,1.26.84c.65.51,1.16.94,1.6,1.35.13.13.27.25.41.37.36.33.74.67,1.11,1.07a10.35,10.35,0,0,1,.9,1.19c.12.17.23.34.35.49l.33.42c.31.39.63.79.93,1.25s.56,1,.79,1.41l.22.41c.32.61.62,1.24.9,1.88a13,13,0,0,1,.5,1.43c0,.18.11.36.17.54.18.56.33,1,.45,1.45.19.18.4.4.68.72a13.81,13.81,0,0,1,.91,1.19l.4.55a14.38,14.38,0,0,1,.79,1.25l.35.58c.1.17.22.33.34.5a12.45,12.45,0,0,1,.83,1.33l.24.45c.24.45.49.92.71,1.44a10.64,10.64,0,0,1,.47,1.37c.06.21.12.42.19.63s.16.41.25.62a11.29,11.29,0,0,1,.49,1.34,10.41,10.41,0,0,1,.26,1.39c0,.23.06.45.11.67l.12.57c.11.49.22,1,.29,1.47l.07.47c.08.53.16,1.06.21,1.59,0,.22.05.44.07.66.05.43.11.91.13,1.42,0,.7,0,1.41,0,2.09,0,.51-.08,1-.14,1.51,0,.19,0,.39-.07.59,0,.55-.16,1.08-.24,1.55l-.13.66c-.11.63-.22,1.29-.39,1.95l-.12.48-.12.46c0,.12.07.24.11.38l.09.32,0,.16,0,.09v0l0,.12c.05.4.12.86.19,1.36l.06.38v.56c0,.27,0,.55.05.84,0,.14,0,.29,0,.44v.61l0,.93,0,1c0,.38-.05.76-.08,1.15s-.06.66-.08,1v0l0,.18v0l0,.06,0,.12,0,.25-.11.49c-.17.71-.33,1.42-.49,2.11l-.11.48-.06.24,0,.12,0,.06-.06.19v0c-.12.31-.24.6-.36.89s-.24.58-.36.86-.28.66-.42,1c-.05.1-.09.2-.13.29h0l.07,0a9.88,9.88,0,0,1,1.13-.18h.73l.3,0,.62,0a4.06,4.06,0,0,1,1.35.42l.2.11a.63.63,0,0,0,.21.1h0l.15,0,.35.09c.24.06.43.13.65.2l.08,0,.33.15h0l0,0,.15.08.3.16.73.39.67.4.3.19.08.05,0,0h0l.24.18.13.12.54.5.13.12.07.07h0l.11.11,0,.06.37.45.18.23.11.15.22.31.48.62.24.3.06.08.08.12,0,0,0,.07.14.26c.08.16.19.37.25.51l.15.35v0h0l.09.1.29.39a2.52,2.52,0,0,1,.21.35l.09.17,0,0c-.13-.32.18.46.15.39v.05l0,.1.19.77.05.2v.05l0,.14v0l0,.16.07.63.09,1.64v.25c0-.08,0,.15,0,.12h0v0h0l0,.11.09.36a3.94,3.94,0,0,1,.09.45l0,.21v.34ZM307,304h0v0h0C307,303.92,307,304,307,304Zm-.57-4v0c-.05-.1,0,0,0,0s0,0,0,.06Zm-10.87-17.85h0v0Zm.29-1.92h0C295.85,280.17,295.84,280.19,295.84,280.23ZM293.32,296Zm-99.93-34.67h0Zm-2.06-4.84Zm3.27,30.72s0,0,0,0Zm.87,2.38h0Zm0,10.86h0S195.43,300.44,195.43,300.43Zm1.2,2.6v0a.06.06,0,0,0,0,0Zm2.08,3.77v0S198.71,306.78,198.71,306.8Zm1.8,2.73Zm0,0Zm2.45-3.69,0,0h0l0,0Zm13.08,11.75h0S216,317.57,216.05,317.6Zm64.09-7.08h0S280.22,310.47,280.14,310.52Zm6.17,4.9h0S286.3,315.42,286.31,315.42Zm2,2Zm0,0ZM302,315.61l-.05,0ZM307,304a.09.09,0,0,0,0,0l-.08-.26c0-.09-.06-.3-.08-.45l0-.24v0h0l0-.21c0-.54-.06-1.08-.1-1.62a1.08,1.08,0,0,1,0-.18v-.05h0c.06.22,0,0,0,.09V301l-.05-.19-.18-.7-.15-.19-.08-.1-.13-.18a4.19,4.19,0,0,1-.37-.68l-.15-.36-.09-.19,0-.09h0v0l-.23-.3-.45-.58-.22-.31-.1-.15-.05-.06a1,1,0,0,1-.09-.13v0c-.08-.08.11.1.09.07h0l-.07-.07-.13-.12-.53-.5-.06-.05h0l-.3-.2-.55-.31c.22.13.05,0,.1.05h0l0,0-.08,0-.15-.08-.3-.17-.3-.16-.06,0c-.19-.06-.39-.14-.56-.18l-.29-.07-.14,0h0l-.18-.07h0l-.08,0-.38-.18-.32-.17-.48,0-.27,0c-.35,0-.7.08-1,.15l-.07,0h-.37a2.14,2.14,0,0,1-.34,0l-.4,0h0l-.46.13-.83.25c-.33.09-.42.14-.55.18l-.1.06-.32.23-.3.24-.15.11,0,0-.11.07-.08,0-.5.27-.12.07,0,0h0l-.19.2c-.35.39-.52.6-.52.6a2.09,2.09,0,0,1-3.33-2.51l.29-.38s.18-.25.54-.66l.31-.34h0l.18-.16,0,0,0,0,.08-.06.17-.11.36-.24.19-.11a.59.59,0,0,1,.06-.14l.07-.12.46-.81.25-.41c0-.08.09-.16.14-.24l.07-.13,0-.06,0,0h0s-.19.3-.1.15h0v0l.63-1.23.18-.34v0h0l.08-.19.33-.77c.21-.49.43-1,.65-1.52l.39-.88c.06-.26.13-.53.2-.8l.47-1.79.14-.48.07-.24,0-.13,0-.06h0c0-.29.09-.58.13-.87l.07-.49,0-.25,0-.12v0c0-.3.05-.6.07-.89,0-.57.08-1.13.12-1.66,0-.29.05-.57.07-.84v-.23h0c0-.14,0,.18,0,.15v-.55c0-.14,0-.27,0-.41a2.19,2.19,0,0,1-1.31-2.81,10.92,10.92,0,0,0,.32-1.15l.14-.53c.12-.49.22-1,.32-1.61l.13-.73a11,11,0,0,0,.2-1.17c0-.23.05-.46.08-.69s.09-.74.1-1.12c0-.59,0-1.2,0-1.81,0-.34-.06-.68-.1-1s-.06-.54-.08-.81c0-.43-.11-.86-.18-1.3l-.07-.5c-.06-.39-.15-.77-.23-1.15-.05-.21-.1-.43-.14-.64s-.11-.63-.16-.95A7.33,7.33,0,0,0,295,257a8,8,0,0,0-.31-.8c-.12-.29-.24-.59-.35-.89s-.17-.54-.25-.81a8.6,8.6,0,0,0-.3-.9c-.16-.37-.35-.73-.54-1.08L293,252a7.53,7.53,0,0,0-.53-.83c-.16-.23-.32-.46-.46-.69s-.28-.46-.41-.69A9.16,9.16,0,0,0,291,249l-.44-.61c-.22-.31-.43-.61-.63-.84a2.5,2.5,0,0,0-.52-.51c-.18-.13-.39-.28-.75-.59a2.22,2.22,0,0,1-.66-2.35c0-.07,0-.14-.07-.22s-.15-.45-.21-.68a9.42,9.42,0,0,0-.33-.95c-.23-.53-.48-1.05-.75-1.55l-.24-.47c-.18-.35-.36-.71-.58-1.05a10.77,10.77,0,0,0-.67-.88l-.38-.48c-.17-.23-.34-.47-.5-.71a6.76,6.76,0,0,0-.51-.7c-.22-.23-.5-.49-.8-.75l-.46-.43c-.35-.32-.77-.67-1.32-1.1a9.87,9.87,0,0,0-.86-.57l-.58-.37c-.38-.25-.81-.48-1.27-.73l-.22-.12c-.2-.1-.38-.21-.57-.32-.34-.19-.65-.37-1-.5l-.61-.28a8.71,8.71,0,0,0-.93-.41,2,2,0,0,1-.75-.45,3.79,3.79,0,0,1-1.09-1.48,1.52,1.52,0,0,0-.24-.38c-.15-.18-.41-.43-.69-.7s-.36-.34-.54-.53a13.06,13.06,0,0,0-1.1-.95l-.22-.18a11.67,11.67,0,0,0-1-.71l-.42-.28c-.24-.16-.48-.34-.72-.52a5.58,5.58,0,0,0-.71-.5,6.23,6.23,0,0,0-.74-.28c-.31-.1-.61-.21-.92-.33l-.74-.34a7.54,7.54,0,0,0-.88-.38c-.31-.09-.7-.17-1.1-.25l-.64-.14a7.37,7.37,0,0,0-.81-.08c-.32,0-.65-.05-1-.1s-.55-.08-.83-.14-.67-.12-1-.14-.53,0-.8-.07l-.47,0a2.12,2.12,0,0,1-1.66.11c-.23,0-.47.08-.71.1a2.18,2.18,0,0,1-2.07-1.12,3.61,3.61,0,0,1-1-.06c-.41-.09-.84-.18-1.29-.26a8.41,8.41,0,0,1-.83-.21c-.15,0-.31-.09-.47-.12s-.53-.1-.81-.17a4,4,0,0,0-.5-.1,2.17,2.17,0,0,0-.36,0,8.12,8.12,0,0,1-1,0,4.65,4.65,0,0,1-1.18-.28l-.08,0h0a3.9,3.9,0,0,1-1.41.24,4,4,0,0,1-1.4-.32l-.1,0-.59,0-.48,0-.12,0a4.11,4.11,0,0,1-1.34.34,3.32,3.32,0,0,1-1.48-.27,3.61,3.61,0,0,1-1.2.38l-.8.13-.53.09a10,10,0,0,1-1,.06,1.93,1.93,0,0,0-.34,0l-1.31.27a7.94,7.94,0,0,1-.85.15,4,4,0,0,0-.48.07c-.14,0-.27.11-.4.16a5.64,5.64,0,0,1-.86.33,4.71,4.71,0,0,1-1.15.19l-.26,0a2.08,2.08,0,0,0-.32.17,9.1,9.1,0,0,1-.84.39l-.77.33-.45.2a2.23,2.23,0,0,0-.33.2,8.37,8.37,0,0,1-.82.48,4.54,4.54,0,0,0-.53.3l-.63.35a7.14,7.14,0,0,1-.92.4,1.81,1.81,0,0,0-.35.13,8.24,8.24,0,0,1-1,.41,3,3,0,0,0-.32.12l-.35.2-.83.48a2.05,2.05,0,0,0-.23.2,5.85,5.85,0,0,1-.83.66,4,4,0,0,0-.41.31c-.22.17-.43.34-.65.49a2.45,2.45,0,0,0-.35.29,7.1,7.1,0,0,1-.67.56,4.48,4.48,0,0,1-1.15.57l0,0,0,0a4.36,4.36,0,0,1-.82,1,5.2,5.2,0,0,1-.95.62l-.21.12-.2.27a7.64,7.64,0,0,1-.51.62l-.08.17a4.93,4.93,0,0,1-.65,1,5.92,5.92,0,0,1-.8.72c-.07.06-.15.11-.21.17a6.55,6.55,0,0,1-.68.7l-.15.13v.05a4.08,4.08,0,0,1-.57,1.31,2.14,2.14,0,0,1-1.77.93,2.17,2.17,0,0,1-1-.29l-.24.21-.32.26-.16.13,0,0-.56.59-.56.6-.56.52-.58.58-.15.14h0l-.24.31-.49.66-.41.56-.91,1.26v0l0,0-.05.09-.11.18-.21.35-.42.7-.75,1.31-.74,1.32-.2.36-.1.17,0,.05v0l.06-.12h0l0,.09-.36.74-.36.73,0,.07-.07.18-.14.38-.29.77-.07.19,0,.08v0l-.08.31c-.05.2-.11.4-.17.69l-.08.4-.05.24,0,.18-.25,1.45,0,.17a1.62,1.62,0,0,1-.25.62c-.16.23-.32.46-.5.69s-.27.27-.41.4l-.1.09h0l0,0c-.09,0-.55.54-.6.55a9.78,9.78,0,0,0-.72.72l-.32.34,0,.07-.09.15a3.08,3.08,0,0,0-.18.33l-.24.46-.12.23,0,.06-.05.09v0l-.07.1-.26.4c-.17.26-.34.6-.5.89v0l-.07.21-.16.5-.15.5-.08.25,0,0h0v0l0,.35,0,.18,0,.25-.06.52v.29l0,.23a8.05,8.05,0,0,0-.14,1l0,.26v.1h0v.4a1.56,1.56,0,0,1,1.32,1.94,2.69,2.69,0,0,1-.11.3c-.09.18-.22.44-.37.76l0,.07,0,.17c0,.11-.07.23-.11.36s-.08.25-.12.39l-.06.2v.08h0l0-.13v0l0,.1q-.12.45-.24.93l-.06.21v.2c0,.17,0,.35-.05.54s0,.37,0,.57-.08.39-.12.58l-.12.62,0,.11v.31c0,.4,0,.82,0,1.24v1.1h0v.17c0,.45.07.9.11,1.36s.09,1,.08,1.43v1.1h0v.29l0,.76v.2l0,.37.09.73,0,.19c0-.05,0,.05,0,.08l.06.24q.19.71.39,1.38l.2.7v0h0s0-.1,0-.09v0l0,.09.06.17.13.33c.07.23.17.45.23.67l.15.86.07.34V287h0a3.54,3.54,0,0,1,.21.4l.15.3.07.15,0,0v0l.09.22,0,.09.18.74.07.31,0,.15v0c.05.12.11.25.17.37l.24.53.09.21.05.07.09.15c.08.13.16.26.23.39l.13.23,0,.05v0l.09.18v0l0,.13c.12.34.23.67.33,1l.08.21h0c-.15-.33,0-.09-.07-.16h0v0l0,.05.05.11c.05.14.11.27.16.4l.14.33a2,2,0,0,1,.66.86l.07.09a2.09,2.09,0,0,1,.4,1.72c0,.14.08.28.13.43a15.25,15.25,0,0,0,.88,2.18c.07.25.15.51.23.78a1,1,0,0,0,0,.14l.12.14.24.3.19.26.11.17,0,.05.11.2v0l0,.05.08.21c.06.15.11.29.16.44l.06.28c.07.28.05.15,0,.16s0,.07,0,.14l0,.1h0c.12.21.24.43.35.65l.18.33h0l0,.08,0-.07,0,0,.4.4.16.16.08.11.08.09,0,.05,0,0,.14.19c.11.19.21.4.3.6s.09.23.11.3l.05.18.07.25c.12.1.37.3.53.45l.18.19,0,.05.16.18.09.1c.22.28.45.55.68.83s.46.65.67.91l.16.23.08.11,0,0,.31.34.7.78.73.82.76.62.28.24.23.26.44.5.19.21.1.11h0l.31.22.44.32.29.21.22.18.88.68.83.53,1,.66.48.31.45.35.83.62.94.68.1.06.23.14.48.27a3.57,3.57,0,0,0,.8.39l2,.82c.28.12.51.19.79.3l.48.16.12.05.09,0,0,0,.07,0,.26.15.93.51h0l.14,0,.32.05.45.08.11,0h.09l.2,0,.24.1.88.38.19.08,0,0,.31.06.75.14.25,0h.13l.27,0,.68.05h.13l.16,0h0l.18.06.35.1.63.18.15,0,.07,0h0s-.27-.05-.14,0h0l.3.07.55.12.47.1.08,0h.06a1.48,1.48,0,0,0,.36,0,4.7,4.7,0,0,1,.72-.07,1.53,1.53,0,0,1,1.66,1.39,1.41,1.41,0,0,1,0,.46h.08l.74.12c.85.13,2.1.28,3,.48l.83.15.78.14.85.15.42.07.38,0,.87.1.43.05h.38l1.69,0,1.67,0,1.76-.05,1.76.09h.26l.35,0,.76-.1.41-.05.21,0h1.89l.66-.1a19.74,19.74,0,0,0,2.61-.52l.16,0,.08,0h.14l.31-.05.4-.07a2.21,2.21,0,0,1,0-.37,2,2,0,0,1,2-2,12.36,12.36,0,0,0,1.49-.13l.24,0a17.51,17.51,0,0,0,1.76-.32c.48-.11,1-.27,1.55-.43l.2-.06.69-.2c.38-.11.74-.2,1.06-.33a9.51,9.51,0,0,0,1-.46l.67-.34.59-.27a10.4,10.4,0,0,0,1.06-.52c.44-.25.86-.53,1.28-.82l.25-.17a10.62,10.62,0,0,0,.92-.72l.5-.41.39-.31a12.37,12.37,0,0,0,1-.83l.26-.24a13.29,13.29,0,0,0,1-1,1.36,1.36,0,0,1,.93-2.42h.51c.1,0,0-.05,0,0l.2-.09.47-.14a9,9,0,0,0,.85-.32l.62-.27.45-.23a7,7,0,0,0,.61-.34l.24-.14.05-.05.16-.12c.35-.3.72-.6,1.1-.91l.46-.41v-.31h0v0l0-.13.15-.53a2.74,2.74,0,0,1,.13-.38,2.44,2.44,0,0,1,.1-.28c.11-.29.22-.58.32-.81l.25-.49c0-.07,0-.07.08-.21a5.06,5.06,0,0,1,.34-.84l.11-.19a1.53,1.53,0,0,1,2.74,1.34v0l-.08.2c-.07.21.07-.09-.05.33a4.33,4.33,0,0,1-.2.64l-.22.5a2.67,2.67,0,0,1-.14.36l-.12.38a2.37,2.37,0,0,0-.09.32l-.06.23v.17c0,.28,0,.58,0,.88v.09s0-.15,0-.07h0v.35c0,.16,0,.32,0,.49s0,.67,0,1a2.26,2.26,0,0,1,0,.26l0,.1.09.27c.06.17.14.35.21.54l0,.07,0,0v0c0,.05,0-.1,0,.12l0,.14.06.29c0,.24.06.26.08.38v.06l0,0,.15.27c.1.19.2.37.31.55l.06.13-.08-.17v0l0,0,.05.07.19.26.29.42,0,0,.12.12.23.24.88.78.26.23,0,0,0,0,.14.11.28.23.18.13.52.34c.24.15.32.17.47.26h0l.16.06.36.11.36.12.06,0h0a10.8,10.8,0,0,0,1.35.19l.72.07h.24l.4,0c.28,0,.51,0,.79,0h.62a10.91,10.91,0,0,0,1.2-.28l.8-.21.2-.05h0l.38-.15.73-.31c.25-.1.56-.23.67-.29l.12-.06.06,0h0l.35-.23.35-.24.1-.07c.18-.19.36-.36.57-.6l.16-.18.08-.09,0,0,.2-.15.05,0,.18-.13a3.07,3.07,0,0,1,.35-.2l.2-.1.43-.6.15-.2,0-.06s-.08.09,0,0v0l.07-.08.29-.32.28-.33.23-.26.15-.16.3-.29.14-.14h0l0-.07.19-.41.22-.48,0-.06v0l.09-.14.06-.09.13-.17c.2-.28.25-.36.36-.49l0-.07.09-.2.16-.4.13-.34.18-.4.18-.39.09-.19.05-.1c0-.12-.05.13,0,.1v0l0-.05.32-.8.08-.2v-.07l.11-.41.11-.41h0v-.06l.05-.94c0-.24,0-.55,0-.82l0-.42V305l0-.13v-.05l0-.2C306.86,304.47,306.94,304.16,307,304Zm-20.66,11.42ZM307,303.87s0,0,0,0Zm2.68-6.78,0,0h0Zm0,0c.05.11,0,0,0,0Zm-78,8.66s-.26-.06-.71-.2c-.23-.07-.51-.16-.82-.28a4.6,4.6,0,0,1-.89-.42c-.28-.16-.59-.33-.91-.53l-.06,0,0,0h0l-.13-.1-.14-.12-.28-.23c-.2-.16-.38-.34-.57-.51a5.34,5.34,0,0,1-.48-.49l-.42-.48a12,12,0,0,1-1-1.55,4.18,4.18,0,0,1-.29-.66c-.08-.2-.14-.4-.21-.6l-.09-.28,0-.12,0-.24c0-.15,0-.31,0-.47a5.52,5.52,0,0,1,0-1,2.6,2.6,0,0,1,0-.26l.1-.33a4.88,4.88,0,0,1,.23-.64c.05-.09.1-.22.14-.27l.09-.11.17-.22.26-.34.19-.18a2.76,2.76,0,0,1,.41-.31,3.29,3.29,0,0,1,.83-.4,4,4,0,0,1,1.38-.22,6.31,6.31,0,0,1,1,.1,2.2,2.2,0,0,1,.49.13.49.49,0,0,1,.14.07h.06s.32,0,.88.13l.46.09.41.12.45.14.13,0,.06,0,.18.09.3.15a10.22,10.22,0,0,1,1.21.69l.27.18.13.09.07,0,0,0,.1.09c.22.18.43.38.65.58s.48.42.63.59l.47.55a9.82,9.82,0,0,1,1,1.48,10.19,10.19,0,0,1,.46,1c.06.16.08.24.12.37l0,.18,0,0,0,.14v0l0,.13a5,5,0,0,1,.1,1.1,4.45,4.45,0,0,1-.2,1.28,5.84,5.84,0,0,1-.29.73,3.6,3.6,0,0,1-.21.3l-.09.14,0,.06-.17.23h0l0,0-.06.05c-.16.15-.32.28-.48.41a4.58,4.58,0,0,1-1,.5l-.55.13a2.48,2.48,0,0,1-.44,0h-.61l-.09,0-.7-.1c-.2,0-.43-.07-.58-.11l-.33-.13a3.33,3.33,0,0,1-.62-.27h0l0,0Zm2.69-3.52Zm-5.93-4c0-.05,0,.06,0,0Zm2.82,3.79a4.87,4.87,0,0,0,.61.52c.16.11.29.22.41.31l.32.29a3.08,3.08,0,0,1,.59.08l.35.06c.1,0,.17,0,.25,0l.19,0h0l.13,0,.26-.06c.13,0,.12,0,.12-.06s0,0,0,0,0-.07,0-.1v0l-.15.21h0l0-.08.08-.14a1.45,1.45,0,0,0,.12-.28.18.18,0,0,0-.11.07c0,.13-.05-.06-.06-.11s-.07-.21-.08-.32h0l-.06-.16c0-.1-.09-.25-.12-.31s-.07-.15-.19-.34a5.82,5.82,0,0,0-.6-.94c-.15-.19-.3-.38-.43-.58a5.13,5.13,0,0,0-.36-.39c-.11-.13-.23-.24-.33-.37h0l.06.05h0l0,0-.06-.05-.13-.11-.23-.22c-.35-.32-.56-.47-.76-.64l-.16-.13,0,0h0l.11,0h0l-.06,0-.11-.06-.4-.26-.36-.22-.22-.11c-.19-.1-.32-.18-.38-.22H229l-.39.06a.89.89,0,0,0-.34.17.11.11,0,0,0,0,.1s0,0,0,0h0l.15-.21h0l0,0,0,.07-.11.26-.06.13s0,0,0,0a.1.1,0,0,0,.08-.06l0-.05a.11.11,0,0,0,0,.05c0,.08,0,.13.05.23a.88.88,0,0,1,0,.15v0c.08.18.17.37.24.56a2,2,0,0,0,.24.51c.15.19.28.48.39.63s.26.33.38.5a3.06,3.06,0,0,0,.34.43,4,4,0,0,1,.28.32l.14.17.06.08h0l-.11-.09h0l0,0,.06.05Zm-13.82-19.79v.37l0,.22c0,.14,0,.29,0,.44-.08.31-.1.56-.23.94a5.49,5.49,0,0,1-.39.91l-.08.15,0,.08-.1.17,0,.05-.32.42a4.77,4.77,0,0,1-.75.74,6.06,6.06,0,0,1-1.06.63,2.53,2.53,0,0,1-.33.11l-.49.15a5.69,5.69,0,0,1-1,.09,5.44,5.44,0,0,1-1-.11l-.47-.13a2.26,2.26,0,0,1-.26-.11l-.23-.1h0l-.12-.05h0l0,0-.09-.05-.16-.09-.57-.38a3.43,3.43,0,0,1-.44-.34l-.22-.24a5.09,5.09,0,0,1-.41-.49,1.64,1.64,0,0,1-.19-.55l0,0a5,5,0,0,1-.53-.61,6,6,0,0,1-.6-1c-.1-.19-.14-.29-.22-.45l-.11-.23,0-.06,0,0v0l0-.12-.05-.17a15,15,0,0,1-.32-1.51l0-.58,0-.29v-.49a7.22,7.22,0,0,1,.32-1.63l.19-.48.1-.23.07-.13.14-.26,0-.07.08-.13,0,0,0,0,.14-.19a4.43,4.43,0,0,1,.62-.68,4,4,0,0,1,.8-.59,3.32,3.32,0,0,1,.82-.37l.26-.07.06,0h0l.19-.07h.06l.21,0a4.21,4.21,0,0,1,1.56.06,6.17,6.17,0,0,1,.65.16l.58.27.48.27.24.18a2.49,2.49,0,0,1,.41.39h0a1.31,1.31,0,0,1,.2.39l.24.18.35.29.28.28.31.32,0,0h0l.08.13h0l0,.07.1.14.18.3c.12.2.28.46.37.64l.23.52a7.17,7.17,0,0,1,.45,1.7,4,4,0,0,1,.08.75C217.46,281.84,217.47,282.07,217.47,282.29Zm-6.76-3.58h0Zm1,5.57h0Zm1.83-3.2c-.06-.23,0-.47-.07-.7s-.1-.38-.14-.56-.08-.21-.11-.32l0-.14,0-.07v0h0l.08.12h0v0c-.08-.13-.15-.26-.22-.39s-.13-.24-.19-.34a1.59,1.59,0,0,0-.11-.18,3.41,3.41,0,0,1-.19-.34l-.06-.16-.22-.1h-.3a.69.69,0,0,0-.2,0,.65.65,0,0,0-.37.12l.1,0h0l-.06,0-.24.13c-.23.11-.16.16-.16.17s0,.08-.08.15a1.07,1.07,0,0,0-.13.21l0,0v0l-.13.27-.07.13v.06a.29.29,0,0,1,0,.09,3.64,3.64,0,0,0-.17.72V280l0,.3c0,.19,0,.38,0,.57a2.94,2.94,0,0,1,.05.64v.08h0s-.06-.18,0-.1v.11l.06.25c0,.14.07.35.09.43s.06.34.14.52.1.34.16.45a4.37,4.37,0,0,1,.16.41l.1.3.19.13c.11.09.15,0,.22.07l.18,0h0l.24.05a1.48,1.48,0,0,0,.24,0l.07,0,.18-.06c.08,0,.13-.09.2-.1l-.15.05h0l.07,0,.14-.07a2.34,2.34,0,0,0,.25-.15c0-.07,0,0,0-.1s.12-.12.16-.22l.06-.09v0l.08-.15a.71.71,0,0,0,.13-.35c0-.05.07-.26.11-.38s0-.15,0-.23l0-.12v-.09c0-.18,0-.36,0-.54A1.77,1.77,0,0,0,213.54,281.08Zm32.69-54.93a2.21,2.21,0,0,1,.05-.25v0a.44.44,0,0,1,.06-.1,2.75,2.75,0,0,1,.23-.21l.36-.29a6.25,6.25,0,0,1,.67-.42l.41-.24.48-.2a6.13,6.13,0,0,1,.8-.31l.56-.13.29-.06.15,0h.28l.88-.06c.41,0,.84.07,1.25.12h.08l.18,0,.11,0,.21,0,.4.1a2.31,2.31,0,0,1,.51.17l.55.23.27.12.12.06h0l.14.08h0l0,0,.28.19a4.36,4.36,0,0,1,.53.38l.52.48c.29.28.43.44.43.44a1.87,1.87,0,0,1-2.12,3l-.75-.31a1.06,1.06,0,0,1-.17-.1l-.16-.14c-.08-.06-.31-.18-.48-.29l-.24-.15h0l-.08,0-.17-.07a.66.66,0,0,0-.25-.11l-.41-.11-.21-.05-.1,0h0l-.42-.1-.88-.06h-.4a5.82,5.82,0,0,0-.75.09l-.18,0h-.11l.11,0h0l-.21,0a2.38,2.38,0,0,0-.42.11l-.43.19-.28.12h-.12A1.86,1.86,0,0,1,246.23,226.15Zm6.85,2.1h0Zm-2.37-.52Zm-7.6,88.7a2.17,2.17,0,0,0-.51.14,5.69,5.69,0,0,1-.54.18l-.55.09h-.07l.08,0h-.32l-.48,0a7,7,0,0,1-.83,0h-.09l-.27,0-.56,0c-.2,0-.28-.06-.43-.07l-.2,0h-.13c-.35-.07-.8-.12-1.07-.19s-.49-.09-.65-.16l-.49-.19-.24-.08-.15-.07a1.39,1.39,0,0,0-.28-.12l-.14-.06h-.05l.1.09h0l-.09-.07-.65-.43-.37-.26-.33-.21-.32-.18a1.39,1.39,0,0,0-1.27,0,1.37,1.37,0,0,0-.61,1.83s.11.22.34.6c.11.17.27.44.42.64s.31.39.5.6l.07.09.22.18.24.2.53.38.28.19.22.13.46.25a8.6,8.6,0,0,0,1.43.55c.45.12.76.17,1.15.25l.26,0,.18,0,.36,0a4.41,4.41,0,0,0,.7,0c.18,0,.37,0,.55,0l.28,0h.27l.17,0a8.42,8.42,0,0,0,1.21-.28l1-.35.91-.44c.26-.13.38-.24.54-.33a2.59,2.59,0,0,0,.43-.32v0a1.46,1.46,0,0,0-1.22-2.44Zm-39-56.35a1.32,1.32,0,0,1,0,1l-.21.51s0,.1-.12.25a2,2,0,0,1-.14.23c-.06.1-.18.29-.29.45l-.18.26,0,0v0l.07-.08h0l0,0,0,.09-.08.18a1.66,1.66,0,0,0-.13.23c-.05.12-.1.23-.16.35l-.08.18,0,.09,0,0h0l.05-.08h0v0a2.3,2.3,0,0,1-.17.39c-.08.26-.14.52-.23.77l0,0h0s0,0,0-.09l0,.09-.09.19a.89.89,0,0,0-.07.31c0,.12,0,.24-.05.36l0,.17,0,.08v0a1,1,0,0,1,0-.14h0v0a1,1,0,0,0,0,.17c0,.12-.06.19,0,.36s.06.3.08.42a1,1,0,0,1,0,.37,1.55,1.55,0,0,1-1.71,1.36,1.65,1.65,0,0,1-.84-.37h0a1.2,1.2,0,0,1-.22-.31l-.22-.37a4.85,4.85,0,0,1-.29-.71c-.05-.14-.1-.29-.16-.44v-.06h0c0-.07,0,.14,0-.15v0l0-.09,0-.17c0-.11,0-.23-.08-.35a2,2,0,0,1-.05-.43c0-.19,0-.38,0-.57a2.81,2.81,0,0,1,0-.29v-.21l0-.17V264c0-.26.12-.52.18-.78s.31-.72.48-1.07l0-.06.08-.14,0-.09.11-.16.22-.31a3.22,3.22,0,0,1,.29-.38l.35-.39.17-.18.08-.08.1-.1h0l0,0,.26-.18a5.29,5.29,0,0,1,.5-.32,5.36,5.36,0,0,1,.53-.27c.3-.14.47-.2.47-.2A1.35,1.35,0,0,1,204.14,260.08Zm-1.85,4.84h0S202.3,264.87,202.29,264.92Zm22.4,4c-.19,0-.41,0-.61,0a3.36,3.36,0,0,1-.65-.07c-.25,0-.5-.1-.74-.16s-.27-.11-.41-.16a5.32,5.32,0,0,1-2-1.39,3.57,3.57,0,0,1-.26-.33l-.17-.21-.15-.23c-.19-.31-.36-.62-.51-.91s-.15-.42-.23-.63l-.09-.27-.09-.28,0-.18a10.15,10.15,0,0,1-.19-1.17,4.7,4.7,0,0,1,0-.81l0-.11h0s0-.34-.09-.95a7.22,7.22,0,0,1,0-.93,2.26,2.26,0,0,1,0-.26v-.14l0-.26c.05-.24.1-.48.15-.74s0-.26.08-.39l.09-.31.21-.65.21-.5.2-.43a5.9,5.9,0,0,1,.42-.8c.13-.22.27-.44.41-.66l.11-.17v0l.11-.14,0-.05.09-.1.37-.4a10.59,10.59,0,0,1,.75-.75l.63-.5.17-.13,0,0,.14-.1h0l0,0,.13-.07.54-.28a8.79,8.79,0,0,1,1.06-.45c.26-.06.52-.13.78-.18l.19,0,.1,0,.21-.05h.12l.53,0a7.31,7.31,0,0,1,1.05.06,5.8,5.8,0,0,1,.6.13,3.74,3.74,0,0,1,.5.16l.32.15.08,0,.21.09.16.09.39.23v0l0-.08,0-.05h0l.05-.09,0,0,.28-.45c.2-.28.42-.62.61-.84l.51-.57.14-.13h0l.15-.13,0,0,.05,0,.1-.08.41-.31a8.73,8.73,0,0,1,1-.52c.17-.07.43-.18.54-.21l.37-.11h0l.16,0h0l.15,0,.3,0a4.09,4.09,0,0,1,.61,0l.63,0a6.87,6.87,0,0,1,.75.19,3.85,3.85,0,0,1,.49.19l.18.08.08,0,.18.1h0l0,0,.06.05a6.18,6.18,0,0,1,1,.8,9.39,9.39,0,0,1,.71,1,11.81,11.81,0,0,1,.49,1.08,12.32,12.32,0,0,1,.24,1.21.57.57,0,0,1,0,.13v0c0,.28,0,.55-.07.83a2.08,2.08,0,0,1,0,.23v-.2a9.77,9.77,0,0,1-.07,1.07,2.88,2.88,0,0,1-.16.74l-.09.3,0,.14-.05.17v0l0,.05,0,.1-.34.77a5.58,5.58,0,0,1-.32.56l-.15.26,0,0-.07.12h0v0l-.07.09-.14.18c-.19.23-.38.45-.58.67a3.31,3.31,0,0,1-.52.47l-.48.38h0l-.12.1h0l0,0-.09.06-.17.1c-.12.07-.23.15-.35.21s-.47.24-.77.35a6,6,0,0,1-.82.24l-.3.05-.1,0h-.21l-.22,0a3.93,3.93,0,0,1-.9,0,1.64,1.64,0,0,1-.34,0c0,.12-.05.23-.09.36a6.4,6.4,0,0,1-.2.62c0,.11-.06.21-.1.32l-.19.45-.4.85c-.15.32-.27.47-.41.72l-.22.34-.05.09,0,0v0h0l-.09.12-.19.21c-.24.28-.5.56-.77.84l-.2.21-.17.14-.34.27-.34.27,0,0-.17.12-.14.08-.29.16c-.38.21-.78.4-1.18.58s-.58.16-.87.24l-.21.05-.11,0-.23.05h-.11Zm1.45-4.49h0Zm1.48-1.17v0l0,0Zm7.92-6.39h0S235.52,256.93,235.54,256.89Zm.25-4.21Zm-2,.2h0Zm-7.36,2.41h0C226.36,255.31,226.39,255.3,226.44,255.29Zm-4,3.43h0S222.48,258.69,222.47,258.72Zm-.71,1.5Zm0,3.15Zm2.69,1.64.24,0h0l.21-.06c.27-.08.59-.16.83-.24a2.14,2.14,0,0,1,.38-.23l.11,0,0,0,.32-.24.35-.26.18-.12.09-.1.39-.38.11-.08c0-.06,0,0,0,0h0l.06-.08.25-.32a4.94,4.94,0,0,0,.44-.58c.09-.16.18-.31.28-.46a1.45,1.45,0,0,1,.13-.18c.06-.1.11-.2.16-.3l.49-.93c.12-.25.18-.46.27-.64.09-.38.17-.61.17-.61l.09-.28a1.36,1.36,0,0,1,1.72-.86,1.32,1.32,0,0,1,.78.7l.15.05c.07,0,.23.1.22.06s0,0,.18,0a1.29,1.29,0,0,0,.33,0l.08,0h0l.28-.09a1.25,1.25,0,0,0,.34-.17c.08,0,.21-.14.32-.21l.15-.13,0,0h0l.42-.45c.13-.14.31-.31.32-.4a1.87,1.87,0,0,1,.17-.31l0-.07.11-.25a3.27,3.27,0,0,0,.23-.53l.09-.36c0,.06,0,.11,0,0h0l0-.15.06-.3c0-.19.12-.46.07-.45a.3.3,0,0,1,0-.16v-.2c0-.26,0-.51.07-.77,0,0,0-.05,0-.08a.55.55,0,0,1-.06-.22,2.88,2.88,0,0,1-.13-.31c-.05-.09-.14-.17-.19-.27s-.14-.1-.19-.18v0h0l-.09,0c-.1-.05-.23-.12-.21-.09l-.11,0a.22.22,0,0,0-.14,0H235l.12,0H235l-.37.08c-.13,0-.11,0-.17.05a1.81,1.81,0,0,0-.38.15l-.21.12-.06,0,0,0h0l0,0-.58.48c-.15.14-.2.24-.32.36l-.16.16h0l0-.07h0l0,0,0,.08-.11.16-.2.31-.11.2a2.56,2.56,0,0,0-.24.47.3.3,0,0,0,0,.1c.05.23.05.33.07.45a1,1,0,0,1,0,.2v0a1.45,1.45,0,0,1-2.66.63.82.82,0,0,1-.08-.18,3.48,3.48,0,0,0-.18-.43c0-.11-.14-.25-.19-.25h0l.08.08h0l0,0,0,0-.22-.16c-.07,0,0,0-.21-.05l-.49-.17-.14-.05c.27.11.07,0,.13.06h-.08l-.08,0-.34-.08c-.15,0-.13,0-.19,0h-.12c-.15,0-.28,0-.44,0l-.11,0-.09,0-.18.06-.76.25c-.22.09-.25.18-.39.25l-.19.09,0,0-.1.08-.66.49a4.7,4.7,0,0,0-.39.4l-.18.18,0,0,0,0h0s.16-.21.08-.11l0,0-.12.16c-.15.21-.31.41-.47.62a4.09,4.09,0,0,0-.31.5l-.14.22-.07.11,0,.05v0h0s0,0,0-.07l-.29.62-.15.29-.08.21-.16.39,0,.05v0h0c0-.07,0-.09,0-.1h0l0,.13c0,.09-.05.17-.07.25-.08.32-.19.63-.2.77a5.29,5.29,0,0,1-.14.55h0c0,.12.09.35.15.68a2.93,2.93,0,0,0,.23.63v0l0,.06.14.26a5.25,5.25,0,0,0,.29.53,1.48,1.48,0,0,1,.26.24h0l0,0,0,0,.07.06c.08.07.21.21.25.21a2.51,2.51,0,0,0,.68.28c.12,0,.29.08.38.09l.1,0,.2,0A2.35,2.35,0,0,0,224.42,265Zm60.2,28.88a3.62,3.62,0,0,1,.12.86,4.19,4.19,0,0,1-.11.84.78.78,0,0,0,0,.21,1.48,1.48,0,0,0,0,.21,3.72,3.72,0,0,1-.1.86,3.24,3.24,0,0,1-.33.81,1.24,1.24,0,0,0-.11.23s0,.1-.05.15a3.4,3.4,0,0,1-.29.82,5.82,5.82,0,0,1-.44.7l-.14.21a3.36,3.36,0,0,1-.69.74.27.27,0,0,1-.08.07l0,0a2.55,2.55,0,0,1-.63.83,3.88,3.88,0,0,1-.66.45,1.18,1.18,0,0,0-.19.11,2.83,2.83,0,0,1-.89.38h0a2.63,2.63,0,0,1-.87.63,2.4,2.4,0,0,1-.9.16H278l-.12.05a3.89,3.89,0,0,1-.74.21,8.73,8.73,0,0,1-1,.11,7.86,7.86,0,0,1-.79,0H275a6.8,6.8,0,0,1-.89-.07l-.17,0a7.6,7.6,0,0,1-.83-.16,3.5,3.5,0,0,1-.76-.31l-.19-.09H272a2.86,2.86,0,0,1-.9-.29,3.89,3.89,0,0,1-.68-.49l-.15-.13h-.06a3.07,3.07,0,0,1-.85-.5,6.63,6.63,0,0,1-.64-.69l-.21-.25a6,6,0,0,1-.54-.68,3,3,0,0,1-.36-.85c0-.05,0-.1,0-.14a8.76,8.76,0,0,1-.4-.92s0,0-.06-.08a3.12,3.12,0,0,1-.38-.85,2.3,2.3,0,0,1,0-1.09,2.48,2.48,0,0,1-.25-1,3.57,3.57,0,0,1,.11-.84,1.48,1.48,0,0,0,0-.19,4.43,4.43,0,0,1,.17-.8,1.66,1.66,0,0,0,.06-.21,6,6,0,0,1,.25-.79l.13-.39a7.87,7.87,0,0,1,.29-.76l.08-.15a6.83,6.83,0,0,1,.4-.75,7.86,7.86,0,0,1,.58-.83l.08-.14a3.43,3.43,0,0,1,.5-.69,3.16,3.16,0,0,1,.65-.51.71.71,0,0,0,.14-.1,4.57,4.57,0,0,1,.65-.43l.18-.11.16-.11c.23-.16.45-.3.68-.43a7.6,7.6,0,0,1,.73-.31l.19-.09a2.64,2.64,0,0,1,.9-.46,3.16,3.16,0,0,1,1-.06h.11a7.54,7.54,0,0,1,.92-.09l.15,0a3.59,3.59,0,0,1,.65-.07h.21a8.42,8.42,0,0,1,1,.14,4,4,0,0,1,.76.24l.2.07.21.06a6.49,6.49,0,0,1,.74.26,3.35,3.35,0,0,1,.69.42l.09.07h.05a2.75,2.75,0,0,1,.95.41c.26.19.53.4.78.62a2.36,2.36,0,0,1,.63,1,2.78,2.78,0,0,1,.77.75,3.42,3.42,0,0,1,.36.82,1.15,1.15,0,0,0,.06.17l.11.22a5,5,0,0,1,.34.74,9.6,9.6,0,0,1,.27,1,3.52,3.52,0,0,1,.07.86.6.6,0,0,0,0,.19A.58.58,0,0,0,284.62,293.89Zm-2.88.84a.68.68,0,0,1,0-.13,3.82,3.82,0,0,1-.11-.57,3.6,3.6,0,0,1,0-.57v-.18c-.05-.21-.11-.44-.18-.67a2.39,2.39,0,0,0-.16-.32l-.16-.32a4.15,4.15,0,0,1-.2-.53.14.14,0,0,1,0-.06,3.06,3.06,0,0,1-.59-.51,2.55,2.55,0,0,1-.43-.77l-.3-.23h0a3,3,0,0,1-1.18-.58l-.14-.1a2.17,2.17,0,0,0-.33-.1l-.29-.09-.42-.15-.22-.08a6.57,6.57,0,0,0-.66-.09l-.1,0a3.57,3.57,0,0,1-.56.07,4.78,4.78,0,0,0-.65.07,3,3,0,0,1-.67,0,2.66,2.66,0,0,1-.6.34l-.24.09c-.13.05-.26.09-.38.15a2.82,2.82,0,0,0-.36.24l-.2.13a3.13,3.13,0,0,1-.36.22,1.48,1.48,0,0,0-.21.13,4.73,4.73,0,0,1-.43.31l-.15.1-.06.12a4,4,0,0,1-.32.48,5.5,5.5,0,0,0-.34.5,4.85,4.85,0,0,0-.28.51l-.08.17a1.45,1.45,0,0,0-.12.35l-.19.53a2.84,2.84,0,0,0-.13.38c0,.15-.07.29-.11.43a1.55,1.55,0,0,0-.06.23,5.34,5.34,0,0,1-.09.53v0a2.8,2.8,0,0,1,.24.77,2.67,2.67,0,0,1,0,.83,4.2,4.2,0,0,1,.26.52,6.36,6.36,0,0,0,.28.65,3,3,0,0,1,.23.62l0,.1c.08.11.17.2.25.3l.26.3a3.88,3.88,0,0,0,.26.31l.07,0,.25.12a4.91,4.91,0,0,1-.42-3.41,4.69,4.69,0,0,1,5.69-3.51,4.8,4.8,0,0,1,3.4,5.83c0,.07-.05.13-.07.2l.21-.2a1.07,1.07,0,0,0,.16-.14l.19-.28a2.37,2.37,0,0,0,.22-.33,1.55,1.55,0,0,0,.07-.23,3.66,3.66,0,0,1,.17-.53,4,4,0,0,1,.28-.58.66.66,0,0,0,0-.23,4.36,4.36,0,0,1,0-.51,4.63,4.63,0,0,1,.09-.49C281.71,294.88,281.73,294.81,281.74,294.73Z" style="fill: #1d1d1b"/>
    </g>
    <g>
      <path d="M324.75,221c0,.47.25.47.26.94s-.2.47-.19.93,0,.47,0,.93.22.64.22.95.06.64.06.95,0,.64,0,1-.19.65-.17,1,.19.62.21.93-.09.65-.06,1,.3.61.33.91-.25.68-.2,1,.44.57.49.88-.19.69-.13,1,.26.6.33.9.17.62.26.91.37.55.47.83,0,.68.16,1,.4.52.54.79a8.13,8.13,0,0,0,.45.82c.17.27.21.63.39.88a9.2,9.2,0,0,0,.57.78c.21.23.63.26.86.47s.43.47.68.65a8.5,8.5,0,0,0,.77.57c.27.15.54.34.82.47s.66.06,1,.16.55.35.86.44l.92.22c.31.06.65-.06,1,0s.62.05.94.07.6.33.92.35.64-.1,1-.09c-.44,0-.44.09-.87.12s-.45-.13-.89-.09-.64,0-.94.12-.58.28-.87.38-.58.22-.86.34-.64.13-.91.27-.5.4-.76.56-.46.42-.71.61a8,8,0,0,0-.73.57c-.23.21-.53.34-.75.57s-.47.42-.66.66-.28.57-.46.83-.41.48-.57.75-.14.62-.29.9-.37.51-.5.8-.23.57-.34.86-.11.62-.2.92-.17.59-.26.89-.27.57-.34.88.09.65,0,1-.46.54-.51.85-.07.62-.11.93.2.65.17,1,0,.61-.06.93-.24.6-.27.91,0,.62,0,.93.07.62.06.93-.08.62-.08.93,0,.62,0,.93-.08.62-.07.94,0,.62,0,.93.11.62.12.93c0-.45-.11-.45-.13-.9s-.06-.45-.07-.91.08-.45.07-.9.11-.63.1-.94,0-.63,0-.94-.18-.61-.21-.92-.14-.61-.18-.91.15-.65.1-1-.26-.59-.32-.89-.11-.61-.18-.92-.17-.59-.25-.89-.22-.58-.31-.88-.08-.63-.18-.92-.37-.52-.48-.81-.21-.58-.34-.86,0-.69-.1-1-.33-.54-.47-.81-.52-.42-.68-.69,0-.71-.2-1-.55-.37-.73-.62-.34-.53-.53-.76-.44-.45-.65-.67-.29-.6-.51-.81-.54-.34-.78-.53-.63-.19-.88-.36-.47-.42-.74-.56a6.34,6.34,0,0,0-.83-.4,5.78,5.78,0,0,0-.89-.22c-.3-.08-.57-.35-.88-.39a7.61,7.61,0,0,0-.94.08c-.54,0-.54,0-1.08,0s-.54,0-1.08,0c.31,0,.63-.25.94-.25s.62.33.93.32.61-.21.91-.24.59-.19.89-.24a9.09,9.09,0,0,0,.91-.15c.29-.08.62-.08.91-.19s.48-.42.75-.56a8.49,8.49,0,0,0,.89-.31,6.63,6.63,0,0,0,.72-.59,9.18,9.18,0,0,0,.74-.57c.21-.21.3-.54.51-.78s.52-.38.7-.64.25-.56.41-.84.44-.46.59-.74,0-.68.1-1,.35-.51.46-.81.22-.57.32-.87.2-.58.28-.88.24-.57.31-.88.07-.61.14-.92.16-.59.22-.9.15-.6.2-.91,0-.62,0-.94.1-.6.14-.91.08-.61.11-.92,0-.62.06-.93.27-.59.3-.91l.06-.93c0-.31,0-.62,0-.93s-.19-.63-.18-.94,0-.61,0-.93,0-.61,0-.92.21-.62.21-.93-.09-.62-.09-.93C324.92,220.57,324.76,220.57,324.75,221ZM192.66,171.45c0,.32.05.63.05.93s-.08.62-.09.93.11.62.1.92-.08.63-.09.93-.14.62-.16.92,0,.63-.06.93,0,.63,0,.93.06.64,0,.94-.19.61-.23.91,0,.62-.09.92,0,.64,0,.94-.19.6-.24.89-.24.59-.3.89-.07.62-.13.91,0,.64-.1.93-.43.53-.51.82-.16.6-.26.89-.05.64-.16.92-.25.58-.38.85-.41.49-.55.75-.14.64-.3.9-.39.49-.57.73-.44.45-.65.67a7.93,7.93,0,0,1-.71.59c-.23.2-.31.6-.56.78s-.56.3-.82.45-.62.13-.91.26-.56.2-.86.3a9,9,0,0,1-.85.36c-.3.07-.63-.08-.94,0s-.59.24-.9.25-.61,0-.93,0-.61-.22-.92-.24c.52,0,.52.31,1,.31s.52-.33,1-.33c.31,0,.6.35.91.39s.65-.12.95,0a7.49,7.49,0,0,1,.84.44,9.32,9.32,0,0,1,.9.27c.27.14.43.48.69.66s.46.38.71.58.49.36.71.58.59.29.81.52.4.47.6.72.22.61.4.86.54.38.71.65.37.51.52.78.09.65.23.94.39.5.52.78,0,.66.15,1,.39.51.49.8,0,.64.12.94.23.58.31.88.28.56.35.87,0,.63.1.93.2.59.26.9,0,.62.09.93,0,.62,0,.93.33.6.35.91-.09.63-.08.94.05.63.05.94,0,.43,0,.87,0,.44,0,.88.11.43.12.87c0-.32-.07-.62-.08-.93s.09-.63.08-.93-.29-.63-.29-.93.13-.63.13-.93-.1-.63-.09-.94.14-.62.16-.92,0-.62.05-.93.21-.61.24-.91-.07-.63,0-.94-.09-.64,0-.94.15-.61.21-.92.33-.57.4-.86,0-.64.08-.94.2-.59.29-.88,0-.67.08-1,.3-.55.41-.84.39-.51.51-.79.19-.6.34-.87.27-.57.43-.82.35-.53.54-.77.44-.45.64-.68.45-.43.67-.64.5-.36.74-.55.42-.48.68-.65.49-.41.76-.55.56-.28.85-.4.63-.08.93-.18.6-.12.9-.2.57-.27.88-.33.43,0,.85-.05.41-.07.83-.11c-.32,0-.61-.08-.92-.1s-.65.12-1,.09-.63-.07-.94-.12a8.63,8.63,0,0,1-.9-.3c-.32-.06-.69.12-1,0s-.51-.46-.8-.57-.71,0-1-.09-.42-.55-.69-.72a7.89,7.89,0,0,1-.77-.51c-.25-.19-.54-.31-.78-.53s-.39-.48-.6-.72-.43-.44-.62-.71-.39-.48-.55-.76-.29-.55-.43-.84-.36-.53-.48-.83-.14-.61-.24-.92-.33-.56-.41-.87,0-.64-.1-1-.24-.59-.31-.91.06-.64,0-1-.28-.59-.32-.91.13-.65.09-1,0-.62-.07-.94-.12-.62-.14-.94.08-.63.07-.95-.18-.62-.19-.94,0-.63,0-1,0-.63,0-.95,0-.45,0-.9-.09-.44-.09-.89-.18-.46-.17-.91S192.67,171.9,192.66,171.45Zm-20.13,37.63c0,.32-.11.64-.12.95s-.07.64-.08,1,.18.64.17.95-.17.64-.18.95,0,.64,0,1,.13.66.11,1-.3.61-.33.92,0,.64-.06,1,.1.66.05,1-.39.59-.44.9,0,.66,0,1,0,.65-.11,1-.3.59-.39.89-.07.65-.17.94-.39.54-.51.83-.3.56-.44.84-.18.62-.34.89a64.68,64.68,0,0,0-1.13,1.53,7.27,7.27,0,0,1-.65.7c-.25.2-.59.27-.85.45s-.51.38-.79.52a7.31,7.31,0,0,1-.9.3,9.36,9.36,0,0,1-.91.24c-.31.06-.61.11-.93.15s-.61.26-.93.27-.64,0-1,0c.51,0,.51-.27,1-.26s.51.1,1,.11a5.23,5.23,0,0,1,1,0,5.77,5.77,0,0,1,.87.42,7.23,7.23,0,0,1,.84.41,7.49,7.49,0,0,1,.84.44c.24.18.45.42.69.64s.43.45.64.68.41.47.6.72.49.42.67.68.33.54.5.81.24.58.39.87.36.52.49.81,0,.67.13,1,.26.56.36.86.24.58.33.89.19.59.27.9.18.6.24.91.17.61.22.93,0,.63.05.94.06.63.08.94,0,.63,0,.95.23.62.23.94-.16.46-.17.92.08.47.07.93.09.47.07.93c0-.32-.16-.64-.16-.95s0-.64,0-1-.08-.63-.07-.95,0-.63,0-.94,0-.64,0-1,.14-.63.17-.94,0-.64.07-.94,0-.65,0-.95.31-.6.35-.91-.11-.67-.06-1,.31-.59.38-.89,0-.65.1-.95.14-.63.23-.92.21-.61.33-.9.21-.61.35-.88.55-.43.71-.69.19-.64.37-.89.46-.44.67-.67a9.11,9.11,0,0,1,.56-.78,6.9,6.9,0,0,1,.85-.45,8.21,8.21,0,0,1,.81-.48,7.34,7.34,0,0,1,.85-.39,8.52,8.52,0,0,1,.83-.48,9.41,9.41,0,0,1,.95-.23c.57-.05.58,0,1.16-.06s.59.16,1.16.14c-.31,0-.63-.07-.94-.08s-.62,0-.93-.05-.62-.08-.92-.13-.65,0-.94-.1a6.76,6.76,0,0,1-.89-.33,7.23,7.23,0,0,1-.84-.41,6.65,6.65,0,0,1-.84-.43c-.25-.17-.47-.41-.71-.61s-.44-.43-.66-.66-.4-.47-.6-.72-.26-.55-.43-.82-.55-.4-.69-.69-.16-.61-.29-.9-.31-.54-.42-.85-.06-.63-.15-.93-.29-.57-.36-.88-.08-.61-.15-.93-.16-.6-.21-.91.06-.63,0-.95-.24-.59-.27-.91,0-.62,0-.94,0-.62,0-.94-.11-.61-.12-.93-.15-.62-.16-.94.27-.62.27-.94,0-.39,0-.78,0-.39,0-.79S172.5,209.47,172.53,209.08Z" style="fill: #fff381"/>
      <path d="M325.71,268.46a2,2,0,0,1-2-1.92s0,0,0-.06a4.51,4.51,0,0,1-.12-.86,1.25,1.25,0,0,0,0-.24,6.41,6.41,0,0,1-.05-.66,3.88,3.88,0,0,1,.06-.87s0-.09,0-.1a4.24,4.24,0,0,1,.08-.81l0-.14v-.34c0-.13,0-.26,0-.39l0-.1a4.68,4.68,0,0,1-.18-.82,1.42,1.42,0,0,0,0-.22c-.05-.21-.09-.43-.12-.64a2.88,2.88,0,0,1,0-1,4,4,0,0,1-.25-.76l-.06-.33c0-.18-.06-.35-.1-.52s-.07-.28-.11-.42l-.12-.41a2,2,0,0,0-.09-.26,4.05,4.05,0,0,1-.2-.55,3.74,3.74,0,0,1-.15-.74v0a3.45,3.45,0,0,1-.46-.82c-.11-.29-.2-.54-.31-.78a3,3,0,0,1-.21-1.14l-.15-.25a3.24,3.24,0,0,1-.77-.85,2.49,2.49,0,0,1-.32-.91,3,3,0,0,1-.5-.51l-.28-.41-.18-.27-.27-.27-.3-.3A3.58,3.58,0,0,1,318,248l0,0-.31-.2a3.29,3.29,0,0,1-.95-.41,4.17,4.17,0,0,1-.53-.41l-.11-.1c-.17-.07-.36-.18-.56-.26l-.23-.05-.44-.1a3.35,3.35,0,0,1-.72-.29,4.12,4.12,0,0,1-.7,0,4.07,4.07,0,0,0-.44,0l-.68,0c-.55,0-.54,0-1.08,0a2,2,0,0,1-.09-4,3.07,3.07,0,0,1,1.17-.26,2.92,2.92,0,0,1,1,.22,3.6,3.6,0,0,1,.58-.13l.09,0c.21-.07.43-.13.64-.18l.54-.07.21,0a6,6,0,0,1,.61-.13,3,3,0,0,1,.68-.48,3.31,3.31,0,0,1,.83-.29l.13-.12.29-.25.43-.32.1-.06h0a4.11,4.11,0,0,1,.45-.7,3.5,3.5,0,0,1,.63-.58h0a5,5,0,0,1,.3-.62,3.84,3.84,0,0,1,.36-.5,2.67,2.67,0,0,1,.22-1,3.66,3.66,0,0,1,.38-.68l.08-.12c.06-.19.16-.44.25-.71l.09-.27c.06-.17.12-.35.17-.53a5.71,5.71,0,0,1,.21-.58,2.09,2.09,0,0,0,.08-.23,1.52,1.52,0,0,0,0-.21c0-.22.05-.44.09-.65l.12-.46c0-.13.07-.26.09-.4s.08-.35.12-.53a2,2,0,0,0,.07-.26v-.08a4.39,4.39,0,0,1,0-.87l.06-.41c0-.15.06-.31.08-.47V229c0-.25.07-.5.09-.75a2.17,2.17,0,0,0,0-.36l0-.53a3.24,3.24,0,0,1,.32-1.09c0-.23,0-.47.05-.7s0-.48,0-.72a3,3,0,0,1-.17-1.11l0-1.35c0-.15,0-.3,0-.45a2.13,2.13,0,0,1,0-.27,2.73,2.73,0,0,1-.06-.67,3.23,3.23,0,0,1,.16-1,2,2,0,0,1,2-1.93,2,2,0,0,1,2,2v0a1.11,1.11,0,0,0,0,.17,5.14,5.14,0,0,1,.07.78,2.81,2.81,0,0,1,0,.43,3.3,3.3,0,0,1,0,.47,2.77,2.77,0,0,1-.19,1.11v.6a3.47,3.47,0,0,1,.22,1.11l0,.36c0,.19,0,.38,0,.56a5.76,5.76,0,0,1,0,.59c0,.11,0,.22,0,.33a3.34,3.34,0,0,1-.12,1,4.12,4.12,0,0,1,.17.83,4,4,0,0,1,0,.82,3.1,3.1,0,0,1,.3,1,2.59,2.59,0,0,1,0,.9,2.43,2.43,0,0,1,.32.85,2.63,2.63,0,0,1,0,1.14,4.76,4.76,0,0,1,.21.6c.06.24.12.47.19.69v0a3.33,3.33,0,0,1,.47.85,2.85,2.85,0,0,1,.18.89,3.33,3.33,0,0,1,.41.62l.06.11c.1.2.2.39.31.57a4,4,0,0,1,.38.82v0l.18.27,0,0a2.82,2.82,0,0,1,.85.52l.39.37a.75.75,0,0,0,.15.16l.35.27a1.84,1.84,0,0,0,.22.17l.34.21.17.1a3.09,3.09,0,0,1,.95.18,3.92,3.92,0,0,1,.77.38l.05,0,.55.14h0a4.4,4.4,0,0,1,1,0c.13,0,.26,0,.4,0l.44,0a2.86,2.86,0,0,1,1,.31,3.57,3.57,0,0,1,.65-.06,2,2,0,0,1,2,1.89,2,2,0,0,1-1.77,2.1l-.23,0a5.11,5.11,0,0,1-.73.1h-.22a2.92,2.92,0,0,1-.7-.08l-.37,0h-.14l-.1,0a4.11,4.11,0,0,1-.65.28,5.89,5.89,0,0,0-.58.24l-.14.06a6,6,0,0,1-.77.23h0l0,0a4.3,4.3,0,0,1-.56.42l-.1.1a4.51,4.51,0,0,1-.47.4c-.25.19-.43.32-.59.47a4.15,4.15,0,0,1-.58.43l-.12.08-.29.29-.17.15a.3.3,0,0,1,0,.1,5.13,5.13,0,0,1-.36.65,5.19,5.19,0,0,1-.36.46l-.07.08a3.3,3.3,0,0,1-.29.88,6,6,0,0,1-.39.63l-.09.12c-.08.19-.18.45-.28.71h0s0,.05,0,.1a4.52,4.52,0,0,1-.16.73c-.07.22-.13.44-.19.67l0,.14a4.43,4.43,0,0,1-.26.69,3.4,3.4,0,0,1,0,1,2.82,2.82,0,0,1-.54,1.14.17.17,0,0,1,0,.07v.16a3,3,0,0,1,.13,1.21c0,.13,0,.25,0,.37l0,.52a3.39,3.39,0,0,1-.26,1h0c0,.07,0,.13,0,.2s0,.37,0,.56a1.25,1.25,0,0,0,0,.15,4.71,4.71,0,0,1,0,.75c0,.2,0,.4-.05.61a2.66,2.66,0,0,0,0,.28c0,.17,0,.33,0,.5s0,.27,0,.41,0,.44-.05.66a1.94,1.94,0,0,0,0,.24c0,.18,0,.37,0,.55s0,.24,0,.36a1.15,1.15,0,0,0,0,.16,3.35,3.35,0,0,1,.1.77,2,2,0,0,1-1.94,2Zm-1.78-19a2.85,2.85,0,0,1,.58.74,2.39,2.39,0,0,0,.13.21,6.38,6.38,0,0,1,.38.67,2.64,2.64,0,0,1,.21.66,3.29,3.29,0,0,1,.19-.73c.12-.32.24-.65.38-1a4.07,4.07,0,0,1,.48-.8l0-.05h0a3.67,3.67,0,0,1,.38-1.05,5.59,5.59,0,0,1,.51-.7,1.15,1.15,0,0,0,.14-.17.8.8,0,0,1,.05-.11,4.32,4.32,0,0,1,.5-.84,5.67,5.67,0,0,1,.59-.61l.18-.18a3.8,3.8,0,0,1,.77-.61l.12-.09c.23-.21.5-.41.77-.61l.2-.17.11-.11-.35-.21-.22-.13a5.47,5.47,0,0,1-.75-.54l-.2-.15a5.64,5.64,0,0,1-.69-.62l0,0a3,3,0,0,1-1.13-.74,6.4,6.4,0,0,1-.55-.71,1.7,1.7,0,0,0-.15-.22,3.68,3.68,0,0,1-.5-1l0-.09c-.15-.24-.29-.5-.43-.77l-.1-.15a3.75,3.75,0,0,1-.55-.88,2.62,2.62,0,0,1-.22-.84c-.05.13-.11.27-.16.41a3.66,3.66,0,0,1-.39.75,2.68,2.68,0,0,1-.27,1.24,3.62,3.62,0,0,1-.63.87l0,0,0,.1a3.82,3.82,0,0,1-.43.81,3.39,3.39,0,0,1-.81.81h0a3.26,3.26,0,0,1-.61.88,4.78,4.78,0,0,1-.72.58,1.09,1.09,0,0,0-.17.13l-.18.16a6.14,6.14,0,0,1-.71.55l-.08.05a2.41,2.41,0,0,1,.41.27l.14.09a4,4,0,0,1,.75.55,3.06,3.06,0,0,1,.7,1h0l.1.1a7.15,7.15,0,0,1,.53.57,6.49,6.49,0,0,1,.45.62l.05.07a3.11,3.11,0,0,1,.91.88A2.54,2.54,0,0,1,323.93,249.46ZM193.51,218.18a2,2,0,0,1-2-1.93v0a4.11,4.11,0,0,1-.12-.86,5.66,5.66,0,0,1,0-.66,1.16,1.16,0,0,0,0-.21.41.41,0,0,0,0-.12,2.94,2.94,0,0,1-.19-1,5.08,5.08,0,0,1,.1-.83,2.35,2.35,0,0,1,0-.26c0-.15-.05-.33-.06-.54a2.66,2.66,0,0,1-.21-.79c0-.22,0-.43,0-.65a1.62,1.62,0,0,0,0-.22c0-.17,0-.34,0-.51s0-.23,0-.35l0-.16a3.93,3.93,0,0,1-.19-.67,4.9,4.9,0,0,1-.08-.76.28.28,0,0,0,0-.09l0-.07a4.28,4.28,0,0,1-.3-.76,1.57,1.57,0,0,0-.1-.28c-.07-.18-.13-.35-.19-.52a2.44,2.44,0,0,0-.56-1.6,2.83,2.83,0,0,1-.2-1,3.82,3.82,0,0,1-.39-.61,3,3,0,0,1-.3-1l-.08-.11-.15-.21a3.48,3.48,0,0,1-.79-.76,3.87,3.87,0,0,1-.44-.92l-.28-.33a3.46,3.46,0,0,1-.83-.56,3.07,3.07,0,0,0-.29-.24l-.31-.24-.31-.26a1.71,1.71,0,0,0-.25-.22,3.09,3.09,0,0,1-.61-.54,3.58,3.58,0,0,1-1.15-.46,3.3,3.3,0,0,1-.77,0,2.38,2.38,0,0,1-.57-.15l-.2,0h-.2a2.81,2.81,0,0,1-.71.08,2.91,2.91,0,0,1-1.36-.33,2,2,0,0,1,.26-4h.22a3.11,3.11,0,0,1,.86.17,3,3,0,0,1,1.36-.18l.11,0a3.92,3.92,0,0,1,.84,0,4.75,4.75,0,0,1,.61-.25c.24-.08.46-.14.68-.23a3.86,3.86,0,0,1,.82-.24h0l.24-.12.05,0a3.33,3.33,0,0,1,.61-.76c.13-.12.27-.22.41-.33l.16-.13.33-.32a1.84,1.84,0,0,0,.19-.2l.25-.31.13-.15a3.43,3.43,0,0,1,.32-.91,3.63,3.63,0,0,1,.51-.7l0-.05c.08-.16.16-.34.23-.51v0a3.38,3.38,0,0,1,.19-.93l.09-.35.14-.47a2.52,2.52,0,0,1,.48-.9,4.17,4.17,0,0,1,.09-.71,1.75,1.75,0,0,0,0-.24,6,6,0,0,1,.09-.61,4.56,4.56,0,0,1,.26-.81l0-.1c.05-.21.11-.41.17-.61l.06-.19s0,0,0-.08a4.15,4.15,0,0,1,0-.79c0-.15,0-.3,0-.45s0-.29,0-.44a4.53,4.53,0,0,1,.2-.84l0-.06a.22.22,0,0,0,0-.08,5.09,5.09,0,0,1,0-.8,1.11,1.11,0,0,0,0-.17,6,6,0,0,1,0-.73l0-.43c0-.16,0-.32,0-.48a4.28,4.28,0,0,1,.12-.79c0-.06,0-.11,0-.16a4.27,4.27,0,0,1,.05-.56c0-.07,0-.14,0-.28v-.12a3.12,3.12,0,0,1-.08-.67,3,3,0,0,1,.06-2.17,2,2,0,0,1,2-1.78h0a2,2,0,0,1,2,2h0v0h0a2.45,2.45,0,0,0,0,.27q0,.35,0,.66a6,6,0,0,1-.06.74l0,.22h0s0,0,0,.09a4.66,4.66,0,0,1,.07.85,5.09,5.09,0,0,1,0,.55,1,1,0,0,0,0,.19v.43c0,.17,0,.35,0,.52s0,.44,0,.66a1.23,1.23,0,0,0,0,.19l0,.07a3.58,3.58,0,0,1,.16.92,3.75,3.75,0,0,1-.05.81c0,.06,0,.11,0,.16a1.63,1.63,0,0,0,0,.18,5,5,0,0,1,.09.66l0,.39c0,.17,0,.34,0,.5a3,3,0,0,1-.05.94,2.9,2.9,0,0,1,.26.83,4,4,0,0,1,0,1l0,.06a4.56,4.56,0,0,1,.24.71,3.71,3.71,0,0,1,.09.85l0,0a4.29,4.29,0,0,1,.35.76c.06.2.11.41.16.63a1.17,1.17,0,0,0,0,.2s0,0,.05.06a5.06,5.06,0,0,1,.37.62c.11.24.23.48.35.7l.18.25.29.37a1.81,1.81,0,0,0,.18.21l.32.34.26.33a1.5,1.5,0,0,0,.2.24l.11.06a5.5,5.5,0,0,1,.5.34c.19.14.38.26.58.38a2.72,2.72,0,0,1,.59.48,3.11,3.11,0,0,1,.76.16,2.5,2.5,0,0,1,.71.41,2.57,2.57,0,0,1,.79,0,3.66,3.66,0,0,1,.77.25l.09,0,.67.08h0a4.57,4.57,0,0,1,.78-.08h.17a5.6,5.6,0,0,1,.59.07,2.3,2.3,0,0,0,.26,0,2,2,0,0,1,.18,4l-.23,0a3.75,3.75,0,0,1-.7.09l-.45,0h-.12l0,0a4.22,4.22,0,0,1-.72.27,5.78,5.78,0,0,1-.57.12l-.21,0a3.5,3.5,0,0,1-.85.17h0c-.2.09-.4.18-.58.28l-.12.1c-.13.1-.27.21-.41.3l-.06.07a4.73,4.73,0,0,1-.56.54c-.12.1-.26.19-.39.28l-.22.15-.17.17a4.12,4.12,0,0,0-.37.35c-.11.13-.24.25-.36.37l-.18.18c-.16.21-.31.43-.45.65a1.84,1.84,0,0,0-.15.28l-.21.42a.62.62,0,0,1,0,.11,5.12,5.12,0,0,1-.25.65,3.94,3.94,0,0,1-.46.72l-.05.07c-.07.16-.16.33-.25.49v0a3.58,3.58,0,0,1-.12,1c-.05.17-.1.32-.16.47l-.09.27v.11a3.92,3.92,0,0,1-.08.82,3.12,3.12,0,0,1-.43,1,2.37,2.37,0,0,1-.09.36c0,.05,0,.11,0,.17v0a3.89,3.89,0,0,1,0,.89v.11a4.52,4.52,0,0,1,0,.86,3.79,3.79,0,0,1-.22.9l0,.07c0,.15,0,.3,0,.45l0,.34a3.17,3.17,0,0,1-.07.5,2,2,0,0,1,.05.35,3.36,3.36,0,0,1-.05.82v.11a3,3,0,0,1,0,.31v.07c0,.2,0,.4,0,.61a2.44,2.44,0,0,1,.14.81,4.74,4.74,0,0,1-.06.75,1.1,1.1,0,0,1,0,.18c0,.08,0,.18,0,.28s0,.23,0,.35a2.13,2.13,0,0,1,0,.27,2,2,0,0,1-1.94,2.06Zm-1-17.13a4.4,4.4,0,0,1,.35.51,6.19,6.19,0,0,1,.32-.67c0-.06.07-.11.09-.16a3.38,3.38,0,0,1,.54-.89l0-.05a.49.49,0,0,0,0-.11,4.16,4.16,0,0,1,.34-.83l.12-.24a6,6,0,0,1,.39-.7c.2-.31.4-.61.62-.89a5,5,0,0,1,.58-.64l.17-.16a7.6,7.6,0,0,1,.64-.63l.15-.14a5,5,0,0,1,.68-.53l.19-.14,0-.06a2.28,2.28,0,0,1,.22-.23,3.2,3.2,0,0,1-.81-.79c-.25-.16-.49-.32-.73-.5l-.15-.1a4.3,4.3,0,0,1-.78-.57,7.68,7.68,0,0,1-.6-.68l-.15-.2-.16-.17a4.51,4.51,0,0,1-.58-.69l-.15-.19a6.53,6.53,0,0,1-.5-.72c-.17-.3-.33-.63-.5-1l-.07-.11a4.9,4.9,0,0,1-.4-.69,3.33,3.33,0,0,1-.15.53c-.14.34-.28.66-.43,1a3.2,3.2,0,0,1-.57.84,3.07,3.07,0,0,1-.41,1,5.63,5.63,0,0,1-.51.67l-.16.2a6,6,0,0,1-.59.64l-.17.16a4.3,4.3,0,0,1-.69.61l0,0a2.86,2.86,0,0,1-.86,1l-.28.19.14.12.39.32c.18.13.35.27.52.42a3.42,3.42,0,0,1,1,.73c.23.26.46.53.68.82a3.07,3.07,0,0,1,.49.88,3,3,0,0,1,.76.81l.16.23c.14.2.28.41.41.63A2.84,2.84,0,0,1,192.49,201.05ZM173,249.38h0a2,2,0,0,1-2-1.89l0-.11a3.53,3.53,0,0,1-.14-.94c0-.2,0-.41,0-.61v-.45s0-.09,0-.14a4.85,4.85,0,0,1-.05-.76v-.55a1.21,1.21,0,0,1,0-.19c0-.21,0-.42,0-.63s0-.16,0-.24v-.14c0-.24,0-.48-.07-.71a5.23,5.23,0,0,1,0-.68,1.27,1.27,0,0,0,0-.2c0-.1-.05-.21-.07-.32s-.09-.34-.13-.52-.07-.26-.1-.39a4.16,4.16,0,0,1-.12-.44c0-.16-.09-.31-.14-.47l-.11-.35a2.08,2.08,0,0,0-.12-.32c-.06-.16-.13-.32-.18-.49s-.09-.2-.13-.3l-.21-.47a3.24,3.24,0,0,1-.19-1,4.65,4.65,0,0,1-.34-.56q-.13-.27-.24-.54a1.6,1.6,0,0,0-.1-.23c-.13-.21-.25-.43-.38-.63l-.07-.06a5.27,5.27,0,0,1-.57-.58c-.16-.21-.33-.41-.5-.6l-.14-.16a4.59,4.59,0,0,0-.37-.39l-.32-.31a2,2,0,0,0-.21-.2l-.14-.06c-.17-.08-.33-.15-.49-.24a5.08,5.08,0,0,0-.56-.29,4.37,4.37,0,0,1-.65-.32h-.09c-.21,0-.43,0-.61,0a2.93,2.93,0,0,1-.77.14c-.28,0-.57,0-.86,0h-.24a2,2,0,0,1-.22-4,2.88,2.88,0,0,1,1.27-.28l.43,0,.21,0c.25,0,.5-.07.74-.12l.13,0c.2-.05.39-.09.57-.15l.39-.12a2.46,2.46,0,0,0,.29-.09l.19-.14.38-.27a4.67,4.67,0,0,1,.67-.34l0,0,.16-.18.25-.29a1.73,1.73,0,0,0,.15-.2c.09-.14.17-.27.27-.4s.15-.19.22-.28.14-.17.2-.26l0-.08a3.79,3.79,0,0,1,.28-.73,2.93,2.93,0,0,1,.21-.39,3.41,3.41,0,0,0,.17-.33,3.92,3.92,0,0,1,.45-.77,4.86,4.86,0,0,1,.16-.8,3.77,3.77,0,0,1,.32-.76l0-.06s0-.07,0-.1a4.64,4.64,0,0,1,.07-.64v-.08a3.9,3.9,0,0,1,0-.93,2.65,2.65,0,0,1,.38-1,2.92,2.92,0,0,1,0-.79,1.88,1.88,0,0,0,0-.34c0-.19,0-.38,0-.57a3.17,3.17,0,0,1,.27-1,3.61,3.61,0,0,1-.06-.86,2.8,2.8,0,0,0,0-.29c0-.16,0-.32,0-.48a3.12,3.12,0,0,1-.05-.55,2.84,2.84,0,0,1,.12-.82,3.93,3.93,0,0,1,0-.63c0-.22,0-.44.06-.65a2.83,2.83,0,0,0,0-.29,5.33,5.33,0,0,1,.09-.78l0-.13a1,1,0,0,1,0-.17,2,2,0,0,1,2.07-1.84,2,2,0,0,1,1.92,2,1.85,1.85,0,0,1,0,.23c0,.2,0,.36,0,.66a2,2,0,0,0,0,.21,4.89,4.89,0,0,1,0,.55v.16a5.15,5.15,0,0,1,0,.6,2.53,2.53,0,0,1,0,.38.66.66,0,0,1,0,.14,3.29,3.29,0,0,1-.12.79,2.82,2.82,0,0,1,0,.43,1.2,1.2,0,0,0,0,.2,5.43,5.43,0,0,1,.09.69c0,.21,0,.42,0,.62a2.61,2.61,0,0,0,0,.28,5.77,5.77,0,0,1,0,.72.28.28,0,0,0,0,.09v0a3.82,3.82,0,0,1,.25.91,4.06,4.06,0,0,1,0,.93v.05c0,.1.05.19.07.27s.08.32.11.48a5.58,5.58,0,0,1,.09.59,1.87,1.87,0,0,0,0,.25s0,0,0,.06a4.16,4.16,0,0,1,.3.73,3.75,3.75,0,0,1,.14.87v0l.06.1c.1.19.2.37.28.55a4,4,0,0,1,.2.62,3,3,0,0,1,.64.71c.11.19.21.39.31.6l.06.14c.11.13.26.32.43.5a5.9,5.9,0,0,0,.5.5l.31.28a2.09,2.09,0,0,0,.22.2c.08.05.16.08.24.12l.4.19.15.08c.16.08.32.17.49.24l.28.11a1.93,1.93,0,0,0,.4.15s0,0,.07,0a5.38,5.38,0,0,1,.69.07c.28,0,.52.09.76.11h0l.6,0a3.45,3.45,0,0,1,1,.13h.2a2,2,0,0,1,0,4h-.2a4,4,0,0,1-.55,0l-.13,0-.19,0c-.26,0-.51,0-.76,0l-.31,0a4.37,4.37,0,0,0-.52.12h0a3.66,3.66,0,0,1-.78.45,6.06,6.06,0,0,0-1.27.66,4,4,0,0,1-.63.34,4.06,4.06,0,0,1-.43.58c-.13.15-.27.27-.4.4l-.06.05a3.18,3.18,0,0,1-.35.8,2.77,2.77,0,0,1-.73.8.56.56,0,0,0,0,.12c-.05.13-.1.26-.16.39s-.13.36-.19.54l-.08.24a3.37,3.37,0,0,0-.09.34c0,.13-.06.26-.1.39v.08a3.86,3.86,0,0,1-.09.87,3.64,3.64,0,0,1-.3.77,3,3,0,0,1,0,.95,3.35,3.35,0,0,1-.35,1v.08q0,.33,0,.66c0,.17,0,.36,0,.54l0,.36a6.17,6.17,0,0,1-.12.73,1.06,1.06,0,0,0,0,.19c0,.23,0,.49,0,.75a3.39,3.39,0,0,1,.2,1.07,3.1,3.1,0,0,1-.17,1v0a4.54,4.54,0,0,1,.07.84,4.41,4.41,0,0,1,.07,1A2,2,0,0,1,173,249.38Zm-4.25-20.48.26.26.18.17c.22.2.43.43.65.67l.12.14c.24.26.47.54.7.84l0,0a3.56,3.56,0,0,1,.7.76c.2.29.38.6.56.92a4.46,4.46,0,0,1,.35.73c0,.07.06.15.1.23l.09.14a2.33,2.33,0,0,1,.11-.28l.1-.27c.1-.26.2-.51.32-.75a2.72,2.72,0,0,1,.8-1,3,3,0,0,1,.46-.92,4,4,0,0,1,.65-.69l.14-.14v0a3.54,3.54,0,0,1,.72-.9,2.54,2.54,0,0,1,.47-.33,6.51,6.51,0,0,1-.69-.58c-.06-.05-.11-.11-.18-.16a10.32,10.32,0,0,1-.81-.81,10.48,10.48,0,0,1-.73-.87,4.37,4.37,0,0,1-.47-.83,3,3,0,0,1-.84-1,3.17,3.17,0,0,1-.2-.49.47.47,0,0,0-.09.12l-.05.06c-.1.22-.21.43-.32.64a1.71,1.71,0,0,0-.13.23.43.43,0,0,1,0,.1,3.8,3.8,0,0,1-.39.93,8,8,0,0,1-.53.73l-.15.19-.14.21a6.32,6.32,0,0,1-.55.73l-.17.18a6,6,0,0,1-.67.68A3.35,3.35,0,0,1,168.77,228.9Z" style="fill: #1d1d1b"/>
    </g>
  </g>
</svg>
