<svg xmlns="http://www.w3.org/2000/svg" viewBox="0 0 500 500">
  <title>notes</title>
  <path d="M244.59,244.54c0-.35.06-.73.11-1.13a15.74,15.74,0,0,0,.17-2,11.42,11.42,0,0,0-.13-1.79,9,9,0,0,1-.11-1.31v-1.63c0-.48,0-1,0-1.46s0-.88.09-1.32.1-1.14.11-1.76c0-1,0-2.07,0-3.09,0-.57,0-1.14-.05-1.7s-.05-.93-.05-1.38,0-1.17,0-1.74,0-.91,0-1.34a2.15,2.15,0,0,0-2.15-2.14h0l-.55-.07c-.37-.05-.73-.09-1.1-.16a5.81,5.81,0,0,1-.78-.23c-.34-.11-.68-.22-1-.31s-.67-.13-1-.19-.61-.1-.84-.16-.61-.21-.91-.33-.57-.22-.87-.32c-.59-.2-1.18-.43-1.78-.66-.32-.13-.66-.23-1-.33a7.16,7.16,0,0,1-.82-.27,6.7,6.7,0,0,1-.7-.37c-.33-.19-.66-.37-1-.53-.16-.08-.38-.22-.61-.36a9,9,0,0,0-1.06-.63,7.49,7.49,0,0,0-1.24-.44,4.61,4.61,0,0,1-.61-.21l-1.11-.58-.62-.34a6.88,6.88,0,0,1-.58-.41c-.26-.2-.55-.42-.86-.62-.14-.1-.34-.28-.55-.46a11,11,0,0,0-.89-.75,8.33,8.33,0,0,0-1.13-.66,3.14,3.14,0,0,1-.54-.29l-.43-.35c-.36-.28-.72-.56-1.06-.85l-.3-.27c-.39-.32-.76-.65-1.1-1a2.65,2.65,0,0,1-.34-.5,6.75,6.75,0,0,0-.71-1,7.62,7.62,0,0,0-1-.9,3.45,3.45,0,0,1-.28-.23,2.17,2.17,0,0,0-2.89-.66,4,4,0,0,0-1.26,2.69l.07.86c0,.66.12,1.39.17,2.19,0,.41.05.83.09,1.27s.08,1.17.12,1.79c0,.39,0,.84,0,1.32a17,17,0,0,0,0,1.76c0,.45,0,.91.08,1.37l.09,1.69c0,.47,0,.93.07,1.39s0,1.13.07,1.69.09,1.14.15,1.7q0,.27.06.51a2.1,2.1,0,0,0,.08,1.5c0,.84,0,1.65.05,2.41,0,.56,0,1.12-.08,1.67s-.08,1.12-.08,1.65c0,.71,0,1.37,0,2,0,.45,0,.89,0,1.32,0,.64,0,1.25,0,1.87s0,.95,0,1.43a5.42,5.42,0,0,0,0,.57l-.23-.14c-.19-.12-.3-.17-.45-.26l-.21-.11-.11-.06-.05,0h0l-.86-.57-.79-.44-.05,0,0,0h0l-.32-.14-.1,0-.21-.07-.4-.13-.77-.26-.19-.06-.09,0-.23-.07-.49-.08a13.88,13.88,0,0,0-1.54-.2l-.29,0h-.16l-.3,0-.56,0-.51,0h-.48l-.22,0-.7,0-.59,0-.36.06-.45,0-.73.06-.21,0-.38.07-.49.11-.52.12-.28.06-.07,0-.31.09-.14,0-1.18.4-.08,0,0,0-.16.06h0l-.21.1-.4.2-.39.2-.29.19-.29.18-.22.15-.07.06-.13.1-.55.43-.54.43-.15.12h0l0,0-.06.06-.12.13-.24.25-.46.49-.11.12-.06.07,0,0-.12.11-.27.33a8.8,8.8,0,0,0-.8,1.14l0,.06-.07.1v0l0,.05-.1.18c-.06.12-.12.24-.17.36a4,4,0,0,0-.27.61c0,.17-.1.32-.15.47l0,.12,0,.13v0l0,.07-.06.3a3.76,3.76,0,0,0-.15.92,1.9,1.9,0,0,0,0,.47.41.41,0,0,0,0,.17,1.4,1.4,0,0,0,.09.17s0,.08,0,.12v.05s0,.2,0,.59c0,.19,0,.43,0,.7,0,.07,0,.14,0,.22v.14l0,.16v.07l.12.6c0,.1,0,.21.07.33s.05.18.08.27,0,.2.08.29l.05.16v0l0,.14,0,.09.29.76c.11.25.21.44.32.67l.09.17h0l.16.24v0l0,0,.06.08.23.31.49.66.12.17,0,0,0,0,.11.14.11.09.44.4c.34.29.54.42.79.61.53.37,1.08.76,1.66,1.15l.12.08h.06l.07,0,.14.07.29.13c.19.09.41.19.55.24l.48.19.58.22a16.73,16.73,0,0,0,4.66,1.11l.28,0,.49,0,.58,0h1.15l.19,0,.76-.11.6-.13,1.23-.25.59-.12.15,0,.07,0h0l.24-.08h0l.29-.09,1.16-.37.15,0h0l.26-.11,0,0,.06,0,.27-.15.54-.29.53-.3.43-.25.31-.19a11.87,11.87,0,0,0,1.06-.75l.15-.12v0l0,0,.08-.08.15-.16.29-.33.28-.32.18-.25.84-1.11a5.07,5.07,0,0,0,.36-.55l.16-.26.08-.13.12-.22v0l0-.06.05-.13a5.31,5.31,0,0,0,.32-1.37,2.09,2.09,0,0,0,.12-.67V250l.13-.71c.05-.25.05-.41.08-.61l0-.29v-.08h0V248l0-.21-.09-.84s0,0,0-.08,0-.25,0-.41v-1.6c0-.74,0-1.45,0-2s0-1.37-.06-2-.06-.93-.05-1.39l0-1.37c0-.65,0-1.3.05-2,0-.41,0-.83,0-1.26,0-.67,0-1.36,0-2.09,0-.42,0-.86.07-1.32,0-.15,0-.33,0-.5l.21.17.48.38a9.89,9.89,0,0,0,.9.7l.24.17c.42.28.82.56,1.22.81s.82.46,1.2.66l.39.2.86.43c.21.1.43.2.63.31l.61.33q.44.26.87.48c.32.17.65.32,1,.47l.56.26.5.29a9.41,9.41,0,0,0,1,.55c.53.24,1.06.46,1.62.68a7.1,7.1,0,0,0,1.17.33,4.94,4.94,0,0,1,.52.13c.17.06.35.13.52.21a9.75,9.75,0,0,0,1.11.41l.53.19a9.79,9.79,0,0,0,1.12.37c.34.09.7.15,1.07.22q.32,0,.63.12c.54.12,1.1.24,1.68.35l.59.14c.36.08.72.17,1.09.23s.69.1,1,.15l.64.09.28,0a4.7,4.7,0,0,1,0,.51c0,.5-.07,1-.13,1.51a15.24,15.24,0,0,0-.15,1.53c0,.4,0,.82-.09,1.26-.06.61-.12,1.29-.14,2a14,14,0,0,0,.13,1.87,10.2,10.2,0,0,1,.1,1.39c0,.45-.06.94-.12,1.45a17.18,17.18,0,0,0-.15,1.82c0,.66,0,1.27,0,1.86v.05l-.24-.2a10.37,10.37,0,0,0-1.13-.85,4,4,0,0,0-1.45-.52l-.18,0a1.12,1.12,0,0,1-.22-.16,4.88,4.88,0,0,0-1.25-.69c-.55-.19-1.09-.34-1.59-.46a4.55,4.55,0,0,0-1.32-.09h-.32a10.83,10.83,0,0,0-2-.1H230a9.48,9.48,0,0,0-1.36,0,3,3,0,0,0-.43.1h0c-.31,0-.62,0-.93.1-.46.08-.93.15-1.38.26l-.34.07a7.89,7.89,0,0,0-1.09.27,9.87,9.87,0,0,0-1.24.52l-.18.09a8.89,8.89,0,0,0-1.42.79l-.32.22c-.27.18-.58.38-.89.62s-.84.68-1.21,1a6.74,6.74,0,0,0-.83,1c-.08.1-.16.21-.25.31a9.89,9.89,0,0,0-1,1.43,8.25,8.25,0,0,0-.72,1.74,8.77,8.77,0,0,0-.25,1,2.18,2.18,0,0,0-.21.92,8.15,8.15,0,0,0,.18,1.3l.06.34a5.86,5.86,0,0,0,.38,1.27,3.11,3.11,0,0,1,.12.3,1.9,1.9,0,0,1,0,.25,4.23,4.23,0,0,0,.38,1.43,9.92,9.92,0,0,0,.9,1.45,3.85,3.85,0,0,0,1.17,1,.53.53,0,0,0,.13.06,11.91,11.91,0,0,0,1.19,1.11l.15.11a9.11,9.11,0,0,0,1.17.82l.32.21a8.17,8.17,0,0,0,1.06.6l.33.18a6.38,6.38,0,0,0,1.1.51,14.29,14.29,0,0,0,1.5.44,4.79,4.79,0,0,0,1.3.09,1.24,1.24,0,0,1,.27,0l.3,0c.43.07.87.13,1.31.16h.26a8.25,8.25,0,0,0,.95-.07l.41,0c.51,0,1,0,1.63-.06.14,0,.29,0,.44,0a7.8,7.8,0,0,0,1.26-.15c.5-.11,1-.22,1.54-.39l.42-.12a8.23,8.23,0,0,0,1.18-.4,4.54,4.54,0,0,0,1.18-.8,1.68,1.68,0,0,1,.21-.18l.3-.17a11.11,11.11,0,0,0,1.15-.75,3.81,3.81,0,0,1,.32-.24,5.91,5.91,0,0,0,1.9-2.09l.17-.29a2.12,2.12,0,0,0,1.05-1.63l0-.28a6.48,6.48,0,0,0,.18-1.16c0-.11,0-.23,0-.34a3.37,3.37,0,0,1,.1-.34,4.32,4.32,0,0,0,.3-1.47,3.33,3.33,0,0,0-.16-1.06l.06-.4a16.94,16.94,0,0,0,.25-1.87c0-.49,0-1.06,0-1.69s0-1,0-1.61,0-1.18,0-1.75-.06-1-.05-1.53.06-.91.12-1.42a17.57,17.57,0,0,0,.15-1.84,13.34,13.34,0,0,0-.13-2,9.08,9.08,0,0,1-.1-1.29c0-.59.07-1.17.12-1.71S244.57,245,244.59,244.54ZM216,213.16c.39.34.8.66,1.2,1l.41.32a7,7,0,0,0,1.32.8,3.88,3.88,0,0,1,.48.26,7.12,7.12,0,0,1,.58.49,9.29,9.29,0,0,0,1,.83c.24.16.45.32.65.48a9.78,9.78,0,0,0,1.16.78l.61.32,1.18.63a8.5,8.5,0,0,0,1.37.51,3.21,3.21,0,0,1,.55.18,4.83,4.83,0,0,1,.62.37,10.68,10.68,0,0,0,1.15.66,6.19,6.19,0,0,1,.67.36c.34.19.72.4,1.15.59a11.22,11.22,0,0,0,1.27.43l.69.22c.65.25,1.3.5,1.94.72.24.08.46.17.69.26.42.16.84.32,1.27.45a12.24,12.24,0,0,0,1.36.28l.69.12c.23.06.45.13.67.21a9.48,9.48,0,0,0,1.34.37l.34.05c0,.39,0,.78,0,1.18s0,1.06,0,1.59c0,.27,0,.53,0,.8l-.48-.07a6.87,6.87,0,0,1-.75-.21c-.34-.11-.69-.21-1-.29a9.56,9.56,0,0,0-1.05-.17c-.27,0-.53-.07-.79-.13s-.58-.18-.87-.28l-.9-.29c-.56-.16-1.11-.34-1.65-.51l-.12,0c-.34-.11-.68-.19-1-.28s-.52-.12-.76-.2-.5-.22-.74-.34-.63-.32-.94-.44a6.26,6.26,0,0,1-.66-.35,10.11,10.11,0,0,0-1-.52,9.19,9.19,0,0,0-1.22-.41,3.15,3.15,0,0,1-.53-.16c-.57-.28-1.1-.58-1.59-.86a5.12,5.12,0,0,1-.46-.33c-.28-.21-.6-.44-.94-.66a3.68,3.68,0,0,1-.47-.36c-.29-.23-.58-.47-.9-.68a6.9,6.9,0,0,0-1.13-.56,3.25,3.25,0,0,1-.43-.19l-.45-.32q-.48-.31-.93-.66l-.28-.21c-.36-.27-.71-.54-1-.81a2.62,2.62,0,0,1-.26-.36,5.19,5.19,0,0,0-1.48-1.59c0-.16,0-.31,0-.47a16.36,16.36,0,0,0,0-1.72c0-.39-.05-.75-.07-1.12l.1.09Zm24.16,23.32-.9-.13c-.26,0-.5-.1-.74-.16s-.56-.14-.83-.2c-.54-.1-1.06-.21-1.56-.32l-.82-.16c-.25,0-.5-.08-.74-.14s-.46-.15-.68-.24-.53-.19-.8-.27-.47-.18-.69-.27-.51-.21-.77-.3a7.17,7.17,0,0,0-1-.27,3.67,3.67,0,0,1-.51-.13c-.49-.19-1-.39-1.44-.61a3.81,3.81,0,0,1-.56-.31c-.27-.16-.55-.32-.83-.46l-.65-.31c-.27-.12-.54-.24-.8-.38l-.76-.41-.67-.37-.81-.4-.68-.34-.46-.24c-.28-.14-.58-.29-.89-.48l-1.05-.71-.24-.16c-.21-.15-.41-.31-.61-.47l-.63-.51c-.25-.18-.47-.38-.7-.58l-.51-.43c-.26-.21-.53-.39-.8-.57l-.46-.33-.15-.14-.24-.22c0-.29-.05-.57-.09-.85,0-.45-.1-.91-.12-1.37,0-.28,0-.57,0-.85l.16.12c.35.27.72.53,1.1.78l.42.3a6.18,6.18,0,0,0,1.28.65l.39.17a5.53,5.53,0,0,1,.52.41,7.82,7.82,0,0,0,.95.7q.35.22.63.45c.31.23.61.44.89.61.56.32,1.16.65,1.8,1a6.63,6.63,0,0,0,1.35.47,5.14,5.14,0,0,1,.58.18,5,5,0,0,1,.55.3,9.32,9.32,0,0,0,1.23.63c.2.08.41.19.61.29a9.26,9.26,0,0,0,1.21.54,10.57,10.57,0,0,0,1.22.35c.24.05.48.11.71.18l.12,0c.59.19,1.18.38,1.79.56.23.06.46.14.69.22.4.14.8.27,1.21.37a9.83,9.83,0,0,0,1.27.23c.23,0,.47.06.7.11s.44.12.66.19a9.08,9.08,0,0,0,1.28.34c.41.08.82.13,1.23.18,0,.26,0,.52-.06.8-.05.54-.1,1.1-.11,1.68v1.28Zm-.53,49.15a2.06,2.06,0,0,1,.76.15c.59.24.87.37,1.16.5s.51.24,1,.45a5.1,5.1,0,0,0,.87.29,10.64,10.64,0,0,1,1.38.47,6.87,6.87,0,0,1,1.4.76,3.33,3.33,0,0,0,.7.38.79.79,0,0,0,.42.07,4.79,4.79,0,0,1,1.95.39c.5.21.76.31,1,.4l1.18.46a4.47,4.47,0,0,1,1.7,1.22.6.6,0,0,0,.27.21,4.45,4.45,0,0,0,.82.27,9,9,0,0,1,1.43.46,12.91,12.91,0,0,1,1.25.6,7.6,7.6,0,0,0,.89.43,3.31,3.31,0,0,0,.77.23,7.45,7.45,0,0,1,1.5.46l1.06.43,1.13.45a5.82,5.82,0,0,1,1.5.89,1.73,1.73,0,0,0,.56.33c.5.21.75.3,1,.4s.6.22,1.19.46a.93.93,0,0,0,.45.09,4.66,4.66,0,0,1,1.91.39l1.06.43c.28.11.57.22,1.13.46s.87.38,1.16.51.5.24,1,.45.71.27.95.35a13.06,13.06,0,0,1,1.27.46,10.5,10.5,0,0,1,1.25.61c.22.11.43.23.88.42a2,2,0,1,1-1.54,3.69c-.64-.27-1-.45-1.26-.6a7,7,0,0,0-.87-.43,9.22,9.22,0,0,0-1-.34c-.32-.11-.64-.21-1.27-.47s-.87-.38-1.16-.52-.5-.23-1-.44l-1.06-.43c-.28-.11-.57-.22-1.13-.46a.83.83,0,0,0-.45-.08,4.7,4.7,0,0,1-1.91-.4c-.51-.21-.76-.3-1-.4s-.6-.21-1.18-.46a5.57,5.57,0,0,1-1.5-.88,1.84,1.84,0,0,0-.56-.33c-.51-.22-.78-.32-1-.42l-1.15-.47a3.45,3.45,0,0,0-.77-.23,7.09,7.09,0,0,1-1.5-.46,12.91,12.91,0,0,1-1.25-.6,7.13,7.13,0,0,0-.89-.42,4.45,4.45,0,0,0-.82-.27,8.33,8.33,0,0,1-1.43-.47,4.37,4.37,0,0,1-1.7-1.22c-.14-.15-.14-.15-.27-.2-.5-.21-.76-.31-1-.4s-.6-.22-1.18-.47a1,1,0,0,0-.43-.08,4.53,4.53,0,0,1-1.94-.38,6.87,6.87,0,0,1-1.4-.76,3.33,3.33,0,0,0-.7-.38,6.16,6.16,0,0,0-.86-.29,9.28,9.28,0,0,1-1.39-.47l-1.14-.5-1-.45a2,2,0,0,1,.77-3.84Zm53,14.11a2.06,2.06,0,0,1-.95-.24l-1.09-.61c-.24-.14-.48-.28-1-.55a6.73,6.73,0,0,0-.84-.39,8.62,8.62,0,0,1-1.32-.6,7.19,7.19,0,0,1-1.3-.87,3.45,3.45,0,0,0-.68-.45.84.84,0,0,0-.44-.13,5,5,0,0,1-1.86-.58c-.49-.27-.73-.39-1-.51l-1.13-.57a4.45,4.45,0,0,1-1.55-1.34c-.14-.18-.14-.18-.28-.25a4.83,4.83,0,0,0-.8-.36,8.2,8.2,0,0,1-1.36-.6A12.48,12.48,0,0,1,276,291c-.21-.13-.41-.27-.85-.51a4.07,4.07,0,0,0-.76-.32,7.65,7.65,0,0,1-1.43-.6c-.49-.27-.75-.4-1-.53l-1.09-.57a5.75,5.75,0,0,1-1.39-1,2.11,2.11,0,0,0-.55-.4c-.48-.26-.72-.38-1-.5s-.57-.27-1.13-.57a.92.92,0,0,0-.46-.14,4.87,4.87,0,0,1-1.83-.59l-1-.53-1.08-.57c-.56-.3-.83-.46-1.11-.62a10.52,10.52,0,0,0-.95-.54,8.85,8.85,0,0,0-.92-.45c-.31-.14-.62-.27-1.21-.59s-.91-.53-1.18-.71a7.33,7.33,0,0,0-.84-.51,2,2,0,0,1,1.9-3.53c.6.33.91.54,1.18.72a7.33,7.33,0,0,0,.84.51,9.39,9.39,0,0,0,.92.44c.31.14.61.27,1.2.59s.83.46,1.11.63.47.28.95.54l1,.54c.27.13.54.27,1.07.56a1,1,0,0,0,.47.14,5,5,0,0,1,1.82.58l1,.5c.29.14.57.28,1.13.58a6.19,6.19,0,0,1,1.39,1,1.89,1.89,0,0,0,.54.4l1,.53,1.08.56a3,3,0,0,0,.75.32,7.34,7.34,0,0,1,1.43.61,13.55,13.55,0,0,1,1.19.71,7.33,7.33,0,0,0,.84.51,5.25,5.25,0,0,0,.81.36,8.58,8.58,0,0,1,1.36.6,4.45,4.45,0,0,1,1.55,1.34c.14.18.14.18.28.25.48.26.73.38,1,.5s.57.28,1.13.58a.88.88,0,0,0,.44.14,4.64,4.64,0,0,1,1.86.58,7.19,7.19,0,0,1,1.3.87,3.45,3.45,0,0,0,.68.45,6.13,6.13,0,0,0,.84.39,9.77,9.77,0,0,1,1.32.6c.55.29.82.45,1.09.61s.48.28,1,.54a2,2,0,0,1-.95,3.77Zm-36.82-43.62a2,2,0,0,1,1.26.45,5,5,0,0,1,1.24,1.43,1,1,0,0,0,.33.39c.51.41.76.64,1,.86s.38.36.79.69a7.16,7.16,0,0,0,.77.55,11.49,11.49,0,0,1,1.16.83l.95.79c.21.19.42.37.85.72a6.62,6.62,0,0,0,.75.52,9.7,9.7,0,0,1,1.19.83,6.86,6.86,0,0,1,1.13,1.12,3.24,3.24,0,0,0,.56.55.75.75,0,0,0,.39.19A4.68,4.68,0,0,1,270,267l.87.67c.25.19.51.37,1,.77a4.4,4.4,0,0,1,1.28,1.63c.09.19.09.19.2.28a4.18,4.18,0,0,0,.72.49,7.67,7.67,0,0,1,1.23.84,10.66,10.66,0,0,1,1,.92,7.23,7.23,0,0,0,.73.65,2.89,2.89,0,0,0,.67.44,7.5,7.5,0,0,1,1.3.87l.89.7c.25.18.49.37,1,.75a6.14,6.14,0,0,1,1.18,1.26,1.92,1.92,0,0,0,.44.48c.43.34.65.5.87.66s.51.38,1,.78a.89.89,0,0,0,.41.21,4.7,4.7,0,0,1,1.71.91l.9.71.95.75c.49.4.72.61,1,.82s.41.36.84.7a8.72,8.72,0,0,0,.81.6c.28.19.56.38,1.08.8a10.42,10.42,0,0,1,1,.93,7.05,7.05,0,0,0,.72.64,2,2,0,0,1-2.51,3.12,11.89,11.89,0,0,1-1-.93c-.17-.17-.35-.34-.72-.65s-.61-.46-.81-.6-.56-.38-1.09-.8-.73-.61-1-.82-.4-.36-.83-.7l-.89-.71-.95-.75a.89.89,0,0,0-.41-.21,4.7,4.7,0,0,1-1.71-.91l-.86-.66c-.26-.19-.52-.38-1-.78a5.65,5.65,0,0,1-1.18-1.26,1.94,1.94,0,0,0-.45-.47l-.88-.7-1-.76a3.24,3.24,0,0,0-.66-.44,6.94,6.94,0,0,1-1.31-.86,12.45,12.45,0,0,1-1-.93c-.17-.17-.35-.34-.72-.65a5.13,5.13,0,0,0-.72-.49,7.67,7.67,0,0,1-1.23-.84,4.36,4.36,0,0,1-1.29-1.64.54.54,0,0,0-.2-.27c-.42-.34-.64-.5-.86-.67s-.51-.37-1-.77a.81.81,0,0,0-.39-.2,4.66,4.66,0,0,1-1.75-.91,7.17,7.17,0,0,1-1.12-1.11,3.25,3.25,0,0,0-.56-.55,5.17,5.17,0,0,0-.75-.53,9,9,0,0,1-1.19-.83c-.48-.39-.72-.6-1-.8s-.42-.36-.86-.71a7.57,7.57,0,0,0-.77-.56,9,9,0,0,1-1.15-.82c-.52-.41-.76-.64-1-.86s-.39-.36-.79-.69a4.84,4.84,0,0,1-1.24-1.43,1.13,1.13,0,0,0-.33-.39,2,2,0,0,1,1.25-3.56Zm53.48,32.95a2,2,0,0,1-1.4-.57c-.45-.44-.66-.66-.88-.89l-.79-.8a8.41,8.41,0,0,0-.74-.65,12.26,12.26,0,0,1-1.05-.93,8.38,8.38,0,0,1-1-1.13,4,4,0,0,0-.57-.66,1.52,1.52,0,0,0-.48-.34A5.26,5.26,0,0,1,301,282l-.81-.77c-.23-.21-.46-.42-.9-.86a4.9,4.9,0,0,1-1.1-1.55,1.1,1.1,0,0,0-.29-.42,6.61,6.61,0,0,0-.71-.61,11.78,11.78,0,0,1-1.08-.94c-.47-.47-.69-.73-.91-1s-.34-.39-.71-.75a4.42,4.42,0,0,0-.67-.57,8.45,8.45,0,0,1-1.13-1l-.82-.79c-.23-.21-.44-.42-.88-.85a6.73,6.73,0,0,1-1-1.25,3,3,0,0,0-.48-.59c-.4-.39-.6-.58-.81-.76l-.91-.87a1.66,1.66,0,0,0-.49-.35,5.38,5.38,0,0,1-1.44-1.05l-.83-.8-.87-.84c-.44-.44-.66-.67-.87-.9l-.78-.79c-.38-.37-.58-.54-.78-.71s-.49-.43-1-.89-.7-.73-.92-1-.33-.38-.69-.74a2,2,0,1,1,2.8-2.85c.48.47.7.73.92,1a9.15,9.15,0,0,0,.7.75c.37.36.57.54.77.71s.49.43,1,.89.66.66.88.89.38.4.78.79l.83.81.86.84a1.43,1.43,0,0,0,.5.35,6,6,0,0,1,1.44,1.05l.81.77c.23.21.46.42.9.86a6.24,6.24,0,0,1,1,1.25,2.85,2.85,0,0,0,.49.59l.82.8.87.84a4.94,4.94,0,0,0,.68.57,9.31,9.31,0,0,1,1.13,1c.48.47.7.73.92,1s.34.39.7.75a8.25,8.25,0,0,0,.71.62,9.93,9.93,0,0,1,1.08.93,5,5,0,0,1,1.09,1.55,1.1,1.1,0,0,0,.29.42l.81.77c.23.21.46.42.91.86a1.33,1.33,0,0,0,.48.34,5.4,5.4,0,0,1,1.46,1.06,7.94,7.94,0,0,1,1,1.13,4,4,0,0,0,.57.66,8.66,8.66,0,0,0,.73.65,10.88,10.88,0,0,1,1,.93c.44.43.66.66.87.88l.8.81a2,2,0,0,1-1.4,3.42Zm-15-73.54v.71q0,.18-.06.39a3.15,3.15,0,0,1-1.17,2.51l-.8.52-.95-.23a2.16,2.16,0,0,1-1.53-2.63,1.4,1.4,0,0,1,.13-.36c0-.14,0-.3.07-.46a6.32,6.32,0,0,1,.33-1.44,7.25,7.25,0,0,0-1.14-6.53,18.14,18.14,0,0,0-2-1.78c0,.44,0,.87,0,1.31s0,1,0,1.51,0,1,0,1.55,0,1,0,1.49.05.93.09,1.38.1,1.11.1,1.65l0,3c0,.75,0,1.44-.09,2.05,0,.45-.06.89-.06,1.31,0,.74,0,1.43,0,2.09,0,.44,0,.86,0,1.27,0,.68,0,1.34,0,2,0,.46,0,.91,0,1.36s0,.92.05,1.39.07,1.25.06,2,0,1.35,0,2.09v1.15c0,.93,0,1.39-.05,1.82s0,.7,0,1.46a2.11,2.11,0,0,1-.36,1.23v0c-.33,4.33-3.84,6.36-5.57,7.36l-.67.4c-2,1.32-4.32,1.49-6.55,1.65l-.36,0h-.14a1.63,1.63,0,0,1-.45-.06,3.58,3.58,0,0,1-.92.13h-.05a11.57,11.57,0,0,1-2-.21,6,6,0,0,1-1.57-.56,4.25,4.25,0,0,0-.49-.21l-.53-.16a8.54,8.54,0,0,1-1.58-.55l-.32-.15a11,11,0,0,1-1.68-.93,5.91,5.91,0,0,1-1.15-1.15,2.92,2.92,0,0,0-.28-.32,2.72,2.72,0,0,0-.38-.29,4.5,4.5,0,0,1-2-2.7,3.71,3.71,0,0,0-.15-.4c-.06-.13-.13-.26-.2-.39a5.9,5.9,0,0,1-.67-1.66,9.83,9.83,0,0,1-.21-2.22,10.84,10.84,0,0,1,.32-2.14l.06-.28a8.26,8.26,0,0,1,.58-1.87,4.88,4.88,0,0,1,1.12-1.41,2,2,0,0,0,.29-.29c.1-.12.18-.24.27-.36a6.7,6.7,0,0,1,1.1-1.29,12.75,12.75,0,0,1,1.69-1.13c.19-.11.33-.21.46-.3a7.42,7.42,0,0,1,1.37-.78,15.13,15.13,0,0,1,1.92-.66,8.43,8.43,0,0,1,1.46-.23c.18,0,.36,0,.53-.06l.23,0a17.28,17.28,0,0,1,1.74-.18,5.59,5.59,0,0,1,1.51.21,2.36,2.36,0,0,0,.46.1l.52,0a9.84,9.84,0,0,1,1.44.13l.5.08a9,9,0,0,1,1.37.28l.14,0a17.13,17.13,0,0,1,1.69.59,15,15,0,0,1,1.73.94,6.18,6.18,0,0,1,1.18,1l.27.26c0-.48-.05-1,0-1.42s0-.95,0-1.42c0-.62,0-1.24,0-1.89,0-.42,0-.86,0-1.32,0-.63,0-1.29,0-2,0-.53,0-1.08.08-1.65s.08-1.12.07-1.68l0-3c0-.43,0-.87-.08-1.31s-.11-1.13-.11-1.74,0-1,0-1.43,0-1.08,0-1.62,0-1,0-1.46,0-1.06,0-1.59,0-1.2.1-1.76a11.22,11.22,0,0,0,.07-1.28c0-.5,0-1,0-1.47s0-1.07,0-1.58v-3a1.72,1.72,0,0,1,.91-2.5,2.16,2.16,0,0,1,2.91.91c.09.19.16.38.24.57a1.39,1.39,0,0,1,.12.28,12.62,12.62,0,0,1,.56,2.55,6.77,6.77,0,0,0,.58,2.26,10.77,10.77,0,0,0,1.73,2,15.88,15.88,0,0,1,2.18,2.54C294.49,208.88,295.47,211.75,294.34,215.53Z" style="fill: #1d1d1b"/>
</svg>
