<svg xmlns="http://www.w3.org/2000/svg" viewBox="0 0 500 500">
  <title>ok</title>
  <g>
    <path d="M320.71,251.61a15.8,15.8,0,0,0-.27-2c-.13-.62-.28-1.16-.45-1.81l-.08-.27a4.55,4.55,0,0,1-.11-1.1v-.13a3.81,3.81,0,0,0-.1-1c-.06-.23-.14-.46-.22-.7l0-.14a6.87,6.87,0,0,1-.35-1.27,8.1,8.1,0,0,0-.18-.79l0-.11a7.46,7.46,0,0,1-.21-1.09c0-.3,0-.6,0-.87v-.11a10.53,10.53,0,0,0,0-1.12,12,12,0,0,0-.24-1.42c0-.21-.08-.41-.12-.68a14.68,14.68,0,0,0-.49-2.06,4.45,4.45,0,0,0-.77-1.47l-.07-.08a4.17,4.17,0,0,0-1.38-1l-.45-.25-.14-.08a2.5,2.5,0,0,0-2.24-.17l-.22.1-.15.07-.3.14a4.17,4.17,0,0,0-1.55,1,6.07,6.07,0,0,0-1,1.39,2.67,2.67,0,0,0-.27,1V236c0,.22,0,.44-.06.61a3.9,3.9,0,0,1-.25.72,5.85,5.85,0,0,0-.26.68,2.62,2.62,0,0,0-.09.56,8,8,0,0,0,0,1c0,.3,0,.61,0,1v.63a6.51,6.51,0,0,1,0,1.17.51.51,0,0,0,0,.13c0,.1,0,.21,0,.43,0,0,0,.11,0,.13a4.62,4.62,0,0,1-.15,1.19,3.58,3.58,0,0,1-.35.71.41.41,0,0,0-.05.09l-.07.13c-.14.25-.26.5-.31.61s-.06.18-.08.26c-.08.34-.15.68-.22,1.08,0,.25-.09.51-.15.74l-.14.55c-.11.45-.23.9-.31,1.37a10.41,10.41,0,0,0-.12,1.55v.43a3.68,3.68,0,0,1-.06.57v.13a5.84,5.84,0,0,0-.09.87,2.52,2.52,0,0,0,.38,1.33,11.45,11.45,0,0,0,.75,1.08,2.53,2.53,0,0,0,.94.75l.08.05.13.07a4.94,4.94,0,0,1,.53.32l.2.16a5,5,0,0,0,1.33.83l.17.06.08,0a1.58,1.58,0,0,0,.37.11l.63.18.5.14-.31.11-.28.1-.29.1-.41.11a5.09,5.09,0,0,0-.88.26,2.56,2.56,0,0,0-.68.44,8,8,0,0,0-1.15,1.35,10.27,10.27,0,0,0-.76,1.43l-.14.3c-.1.2-.21.41-.32.6a9,9,0,0,0-.56,1.12,6.07,6.07,0,0,0-.23.84l0,.16a7.71,7.71,0,0,1-.21.83,5.53,5.53,0,0,1-.33.71l-.07.14a4.64,4.64,0,0,0-.38.84c-.07.22-.13.44-.17.63a3.34,3.34,0,0,1-.37,1.05c-.08.13-.16.26-.23.4l-.06.09-.06.12a4.71,4.71,0,0,1-.6.92,2.63,2.63,0,0,1-.64.46l-.31.16a2.45,2.45,0,0,0-1,1.05,2.56,2.56,0,0,0-.11.24l-.05.1a2.87,2.87,0,0,1-.35.64,5.18,5.18,0,0,1-.54.51,3.75,3.75,0,0,0-.79.83,10.77,10.77,0,0,0-.56,1,2.51,2.51,0,0,0,.11,2.22l.05.1c.07.15.16.32.24.53l.06.21a2,2,0,0,0,.07.23l.07.21a2.57,2.57,0,0,0,.9,1.23,4.91,4.91,0,0,1,.48.41l.09.08.13.11c.17.15.34.29.49.4a6.07,6.07,0,0,1,.65.59l.09.08a4,4,0,0,0,.64.54l.45.34.09.07.15.11c.27.2.53.38.74.51a2.63,2.63,0,0,0,1.15.36h0l-.19,0,.27,0h0a5.12,5.12,0,0,1,.62.15,4.13,4.13,0,0,1,.53.24l.4.18.05,0a2.39,2.39,0,0,0,1,.22l.39,0a7.2,7.2,0,0,0,.88-.23l.35-.11.28-.08a4.76,4.76,0,0,0,.95-.54l.12-.09.33-.21a4.37,4.37,0,0,1,.57-.29l.38-.18a2.46,2.46,0,0,0,1.27-1.5c0-.13.09-.32.14-.51s.15-.51.25-.78a8.67,8.67,0,0,0,.3-1.26c0-.24.08-.49.12-.64s.16-.55.23-.81l.31-1.12a7.44,7.44,0,0,0,.22-1,7.31,7.31,0,0,1,.19-.88l.23-.82c.07-.31.16-.61.26-.92a2.51,2.51,0,0,1,.43-.69l.13-.16a2.5,2.5,0,0,0,.52-1.53c0-.12,0-.23,0-.34a2.1,2.1,0,0,1,.07-.76,4.11,4.11,0,0,1,.34-.71l.07-.12a4.65,4.65,0,0,0,.39-.89,4.6,4.6,0,0,0,.14-1,5.93,5.93,0,0,1,.06-.68l.1-.48a8.3,8.3,0,0,0,.2-1.47,5,5,0,0,1,.05-.53,5,5,0,0,0,0-1.06,2.51,2.51,0,0,0-1.16-1.9h0a2,2,0,0,1,.53.45,3.3,3.3,0,0,1-.27-.42l-.07-.12,0-.06a4,4,0,0,0-1.07-1.36,4.54,4.54,0,0,0-1.56-.74,9.32,9.32,0,0,0,1.22-.35l.11,0a6.67,6.67,0,0,0,1.69-1,6,6,0,0,0,1.36-1.65,5.14,5.14,0,0,0,.57-1.8l0-.19A8.62,8.62,0,0,0,320.71,251.61Zm-2.7,9.22h0a2.83,2.83,0,0,0-.57-.23A2.51,2.51,0,0,1,318,260.83Zm-11.63,27.61-.16-.46a5,5,0,0,1-.16-.62,4.23,4.23,0,0,0-.28-.89,5.36,5.36,0,0,0-.5-.87l-.28-.47,0-.06-.1-.18a6.24,6.24,0,0,0-.82-1.19,3.53,3.53,0,0,0-.9-.63L303,283l-.27-.15a6.65,6.65,0,0,0-1.57-.64l-.25-.07-.14-.05a4.81,4.81,0,0,0-.93-.26,5.75,5.75,0,0,0-1.88.12,7.38,7.38,0,0,0-1.64.53l-.33.14a7.08,7.08,0,0,0-1.12.49,5.12,5.12,0,0,0-.66.48l-.16.13a4.19,4.19,0,0,1-.5.39l-.34.22-.15.09-.16.11c-.19.12-.38.25-.62.43s-.55.47-.78.68l-.44.37c-.25.22-.51.43-.84.7l-.4.34a7,7,0,0,1-.66.48l-.62.46-.29.23a6.26,6.26,0,0,1-.95.66l-.09.05L287,289a10,10,0,0,1-1.12.52,3.3,3.3,0,0,1-.78.14l-.12,0a3.41,3.41,0,0,0-.73.13l-.51.17-.13.05-.12.05-.69.24-.45.11-.35.08a2.52,2.52,0,0,0-.78.32l-.57.09a7.13,7.13,0,0,0-1,.18l-.48.13-.12,0a5.82,5.82,0,0,0-1,.33l-.12.06a4.39,4.39,0,0,0-.76.51c-.16.12-.3.23-.4.29l-.1.06-.09.06a5,5,0,0,0-1.2,1,4.64,4.64,0,0,0-.9,1.44,4.49,4.49,0,0,0-.18,1.17l-.05.45c0,.16,0,.32,0,.41a5.26,5.26,0,0,0-.1,1.05c-.13-.16-.25-.33-.4-.5a5.08,5.08,0,0,0-1.37-1.08,6.42,6.42,0,0,0-1.69-.59,9.77,9.77,0,0,0-1.43-.22,6.75,6.75,0,0,0,1.35-.85l.09-.06.27-.2a3.72,3.72,0,0,0,.9-.84,5.77,5.77,0,0,0,.79-1.59,2.07,2.07,0,0,0,.1-.43,4.16,4.16,0,0,0,0-.68c0-.19,0-.37,0-.56l.05-.4a5.48,5.48,0,0,0,.07-1.27c0-.2,0-.4,0-.61v-.1a4.82,4.82,0,0,0-.05-.92,7.72,7.72,0,0,0-.16-.78c-.06-.24-.12-.49-.16-.74l-.25-1.55c0-.26-.05-.53-.06-.77v-.12a5.24,5.24,0,0,0-.05-.7l-.08-.61c-.05-.28-.09-.57-.12-.88v-.1c0-.21-.07-.43-.1-.65a6.8,6.8,0,0,1-.11-.88c0-.5-.05-1-.07-1.52a4.9,4.9,0,0,1,.05-.77V277a5.81,5.81,0,0,0,.05-.76v-.56c0-.32,0-.63,0-.95a2,2,0,0,0,0-.35c0-.14-.05-.31-.09-.54a3.51,3.51,0,0,1-.07-.72,4,4,0,0,1,.1-.61v-.09a4.59,4.59,0,0,0,.14-.78,2.19,2.19,0,0,0,.14-.56V271c.07-.38.13-.74.16-1.08s0-.75,0-1.17v-.22s0-.08,0-.12v-.11a10.54,10.54,0,0,0-.23-1.71,7.78,7.78,0,0,0-.57-1.66,3.62,3.62,0,0,0-.75-.95c-.11-.11-.22-.22-.31-.33a6.87,6.87,0,0,0-1.31-1.16,6,6,0,0,0-1.16-.62,2.83,2.83,0,0,0,.41-.14,6.1,6.1,0,0,0,1.67-1.08,5.32,5.32,0,0,0,1-1.34,3.7,3.7,0,0,0,.31-1.08,2.12,2.12,0,0,0,.06-.29,7.58,7.58,0,0,0,.25-1.62c0-.16,0-.32.06-.49,0,0,0-.09,0-.1a3.55,3.55,0,0,0,0-.9,12.25,12.25,0,0,0-.15-1.5c-.06-.35-.09-.69-.12-1l-.05-.49c0-.23-.06-.47-.1-.71l0-.15a6.9,6.9,0,0,1-.11-.78v-.31c0-.47,0-.93,0-1.33a5.79,5.79,0,0,1,.11-.79l0-.12a7.2,7.2,0,0,0,.12-.72c.07-.54.14-1.08.24-1.65,0-.28.07-.54.08-.74a7.89,7.89,0,0,1,.11-.84c.1-.45.24-1,.39-1.58.1-.3.22-.6.34-.89s.18-.45.26-.68.21-.53.33-.79.22-.46.31-.7a.49.49,0,0,0,0-.11,8.8,8.8,0,0,0,.25-.86l0-.13c.06-.22.12-.43.17-.59l.09-.28c.16-.45.31-.89.43-1.35a11.89,11.89,0,0,0,.25-1.22l.07-.43c0-.17.06-.33.1-.51a4.4,4.4,0,0,0,.16-1.07,5.6,5.6,0,0,0-.3-1.59,2,2,0,0,0-.08-.22,4.51,4.51,0,0,0-.61-1l-.21-.31a2.82,2.82,0,0,1-.21-.38l-.08-.14c-.06-.11-.13-.23-.21-.35a2.51,2.51,0,0,0-.52-.56,5.22,5.22,0,0,0-.45-.33l.73,0h1.14a5.24,5.24,0,0,0,.53,0,1.59,1.59,0,0,0,.3-.06,7.33,7.33,0,0,0,1.56-.61,7.62,7.62,0,0,0,1.44-.91,5.21,5.21,0,0,0,.53-.5A3.82,3.82,0,0,1,279,225a3.61,3.61,0,0,1,.56-.31l.12-.06a4,4,0,0,0,.62-.35l1.2-.78.43-.28.15-.11c.22-.15.44-.31.66-.44l.61-.38c.21-.14.42-.28.66-.42s.74-.43,1.19-.65l.35-.16.25-.1a6.68,6.68,0,0,0,.76-.33,8.28,8.28,0,0,0,.94-.53l.36-.22a8.14,8.14,0,0,0,1.19-.81l.41-.33.18-.13.12-.12c0,.17.05.36.09.59a5.21,5.21,0,0,0,.6,1.8,5.83,5.83,0,0,0,1.17,1.45,5.93,5.93,0,0,0,1.61,1l.33.16a4.54,4.54,0,0,0,1.3.48.83.83,0,0,0,.22,0l.29,0a4.23,4.23,0,0,1,1.27.23,5.2,5.2,0,0,1,1.21.73l.16.12c.27.19.53.4.8.6l.55.43a14.91,14.91,0,0,0,1.41.92,3.75,3.75,0,0,1,.36.24l.27.18a6.51,6.51,0,0,0,.84.51c.34.16.73.3,1.12.44l.42.14.27.1.09,0a6,6,0,0,0,1.28.41,7.07,7.07,0,0,0,1.33.12h.34a4.87,4.87,0,0,0,1.73-.39,4.4,4.4,0,0,0,1.49-1l.07-.08a3.43,3.43,0,0,0,.68-1.48,3.82,3.82,0,0,0,.12-1.7s0-.07,0-.1a6.49,6.49,0,0,0-.57-1.58,11.38,11.38,0,0,0-.85-1.46c-.23-.31-.52-.64-.82-1l-.26-.29c-.11-.12-.2-.25-.3-.38l-.15-.19c-.18-.23-.35-.44-.6-.71a7.62,7.62,0,0,0-.72-.6c-.19-.15-.37-.29-.52-.43s-.51-.53-.75-.79l-.08-.1-.26-.28-.27-.28c-.3-.31-.57-.58-.8-.86a10.15,10.15,0,0,1-.74-1l-.14-.21c-.14-.22-.28-.44-.44-.75l-.07-.13c-.09-.15-.18-.31-.29-.47a5,5,0,0,0-.35-.49l-.07-.1c-.16-.2-.32-.42-.45-.61a4.5,4.5,0,0,0-1.34-1.34,4.91,4.91,0,0,0-1.74-.82,6.1,6.1,0,0,0-3.67.47,6.19,6.19,0,0,0-1.54,1.11,3.16,3.16,0,0,0-.45.37,10.22,10.22,0,0,0-.77.9l-.09.12a14.42,14.42,0,0,0-.9,1.28c-.07.12-.14.26-.21.4a4.46,4.46,0,0,0-.06-1.07,8.83,8.83,0,0,0-.48-1.46,12,12,0,0,0-.62-1.37,7,7,0,0,0-.57-.91c-.09-.13-.18-.26-.28-.42a2.64,2.64,0,0,0-.55-1c-.05-.06-.11-.12-.16-.19l-.08-.09-.14-.16a5.72,5.72,0,0,0-1.18-1,5.14,5.14,0,0,0-1.37-.63,2.58,2.58,0,0,0-1.14,0l-.23.06-.39.06c-.19,0-.4,0-.59,0a5.54,5.54,0,0,0-.56.05,2.21,2.21,0,0,0-.56.15,5.65,5.65,0,0,0-.85.45l-.41.22a13.29,13.29,0,0,0-1.29.78c-.15.09-.31.19-.49.32a5.65,5.65,0,0,0-.86.58,4.14,4.14,0,0,0-.5.47l-.07.08a4.25,4.25,0,0,1-.61.57,4.63,4.63,0,0,1-.61.41c-.19.11-.37.23-.6.38a1,1,0,0,0-.17.12l-.43.32a5.58,5.58,0,0,1-.78.57,11.28,11.28,0,0,1-1.1.56l-.33.15a6.78,6.78,0,0,1-1,.34l-.43.13-.13.05a12.18,12.18,0,0,1-1.46.42c-.5.09-1,.19-1.5.32a10,10,0,0,0-1.45.55l-.27.12a4,4,0,0,0-.87.43l-.23.17a5.24,5.24,0,0,0-1.05,1.23,8.58,8.58,0,0,0-.72,1.42,5.32,5.32,0,0,0-.29,1.33l0,.22a5,5,0,0,0,0,1.17v.14l0,.18,0,.09a5.77,5.77,0,0,0,.37,1.47,7.28,7.28,0,0,0,.65,1.39,8.23,8.23,0,0,0,.94,1.19l.08.07a9.26,9.26,0,0,0,1.23.93l.06,0,.69.44a3.38,3.38,0,0,0-1.11-.09H266a5.23,5.23,0,0,0-1,0l-.18,0a6.41,6.41,0,0,0-1.57.66,6.31,6.31,0,0,0-1.39,1l-.24.25A5.7,5.7,0,0,0,260,230.9a5.94,5.94,0,0,0-.25,1.47l0,.25s0,.07,0,.11a12.69,12.69,0,0,0,0,1.75c0,.2,0,.41,0,.61v.29a5.34,5.34,0,0,0,0,.8v.3a10.25,10.25,0,0,1,0,1.34,3.41,3.41,0,0,0,0,.78s0,.09,0,.14a3.48,3.48,0,0,1,0,.78,5.9,5.9,0,0,1-.16.76,4.81,4.81,0,0,0-.21.9,5.83,5.83,0,0,1-.18.82,8.85,8.85,0,0,0-.18.87,3.53,3.53,0,0,0,0,.64v.12a.57.57,0,0,0,0,.13,4.35,4.35,0,0,1,0,.74,5.76,5.76,0,0,1-.26.82l-.06.17q-.1.3-.18.6a4.63,4.63,0,0,0-.1.65l0,.1s0,.14,0,.17a5.55,5.55,0,0,1-.13.8l0,.13-.12.51,0,.15c-.07.27-.14.53-.22.79a3.54,3.54,0,0,1-.29.63l-.1.18a4.74,4.74,0,0,0-.3.63c-.17.48-.35,1-.52,1.5a14.63,14.63,0,0,0-.48,1.62,6.75,6.75,0,0,0-.14,1.4l0,.26a5.35,5.35,0,0,0,.17,1.61l.06.23a1.05,1.05,0,0,0,.05.19,4.41,4.41,0,0,0,.3.83,3.21,3.21,0,0,0,.29.46,6.33,6.33,0,0,0,1.17,1,8.83,8.83,0,0,0,1.4.75,5.12,5.12,0,0,0,1,.33l.16,0,.32.09.53.17,1,.28h.06l-.08,0a5.62,5.62,0,0,1-.57.13,3.76,3.76,0,0,0-.79.22,2.47,2.47,0,0,0-1.05.83l-.13.15c-.11.11-.2.23-.31.33a6.27,6.27,0,0,0-1.06,1.38l-.25.39-.06.1a4,4,0,0,0-.39.75,2.51,2.51,0,0,0-.13,1.24v.1c0,.16,0,.36,0,.52s-.08.43-.13.66a6.68,6.68,0,0,0-.13.66,2.19,2.19,0,0,0,0,.36v.87c0,.24,0,.49,0,.73,0,.43,0,.91.08,1.46v.12a3.26,3.26,0,0,0,.13.74c0,.06,0,.12,0,.18a4.6,4.6,0,0,1,.15.63c0,.27,0,.53.05.83v.17c0,.19,0,.38,0,.58,0,0,0,.09,0,.14a5.09,5.09,0,0,1,0,.56v.13c0,.26,0,.52.05.85s.08.76.12,1.15l0,.36a3.86,3.86,0,0,0,.15.85,4,4,0,0,1,.1.78,5,5,0,0,1-.08,1c0,.19,0,.37-.05.54a7.85,7.85,0,0,1-.21,1.13l-.08.38a5.16,5.16,0,0,0-.09.52l0,.15s0,.07,0,.1a6.71,6.71,0,0,1-.11.69l-.07.34c-.09.36-.17.73-.25,1.09a.5.5,0,0,1,0,.12c0,.14,0,.28-.07.36-.08.34-.14.66-.19,1a.13.13,0,0,0,0-.06l-.16-.47c-.14-.38-.27-.77-.39-1.18a5.35,5.35,0,0,1-.16-.76l0-.09a8,8,0,0,0-.17-.88c-.07-.26-.15-.52-.23-.73l-.06-.16a4.73,4.73,0,0,1-.21-.72l0-.13-.07-.3c-.09-.43-.18-.87-.26-1.35a7.37,7.37,0,0,1-.07-.92c0-.24,0-.49-.06-.82a5.92,5.92,0,0,1,0-.83,6.84,6.84,0,0,0,0-.91c0-.5-.05-1-.07-1.43a3.36,3.36,0,0,0-.09-.76.6.6,0,0,1,0-.12,3.15,3.15,0,0,1-.11-.71c0-.26,0-.51,0-.81s0-.5,0-.75a5.29,5.29,0,0,0-.06-.8c0-.25-.05-.49-.05-.73a3.51,3.51,0,0,1,.07-.66s0-.07,0-.1l0-.11c0-.26.05-.51.05-.63v-.27c0-.44,0-.88,0-1.31,0,0,0-.08,0-.13a7.78,7.78,0,0,0-.15-.8c0-.2-.09-.4-.12-.67a5.61,5.61,0,0,1,0-.58v-.13a3.11,3.11,0,0,0,0-.53,2.1,2.1,0,0,0-.1-.51,6,6,0,0,0-.56-1.17l-.13-.24a6.13,6.13,0,0,0-1-1.31,4.52,4.52,0,0,0-1.08-.74l-.11-.06-.55-.29a4.77,4.77,0,0,0-1-.52l-.16-.05-.42-.08a8.46,8.46,0,0,0,1.28-.59l.55-.27.64-.35a3.68,3.68,0,0,0,.38-.31,5.34,5.34,0,0,0,.9-1.34l.06-.11a5.93,5.93,0,0,0,.59-1.62,2.18,2.18,0,0,0,0-.44A6.34,6.34,0,0,0,254,255c0-.19,0-.37,0-.57l0-.36a8,8,0,0,0-.15-1.36,6.79,6.79,0,0,1-.11-.75.5.5,0,0,0,0-.12l0-.16a5.43,5.43,0,0,0-.09-.56c-.06-.3-.1-.6-.15-.93l-.09-.64a6.14,6.14,0,0,0-.18-.74l0-.15a5.58,5.58,0,0,1-.16-.69c0-.33-.09-.65-.12-.93l-.07-.62s0-.08,0-.12c-.05-.3-.08-.6-.11-1l-.15-1.31c-.05-.3-.08-.58-.11-.89s0-.39-.08-.58l0-.26c0-.26-.07-.52-.1-.78s0-.52,0-.79,0-.58,0-.81,0-.53,0-.8,0-.6,0-.85a4.69,4.69,0,0,0-.16-.88,3.48,3.48,0,0,1-.13-.73,3.38,3.38,0,0,1,.05-.76,4.87,4.87,0,0,0,0-.93,4.45,4.45,0,0,0-.14-.8,5.4,5.4,0,0,1-.13-.7,2.42,2.42,0,0,0,.1-1.28c0-.05,0-.09,0-.14l-.06-.29a6.87,6.87,0,0,0-.47-1.63,5.52,5.52,0,0,0-.89-1.18l-.08-.09a6.64,6.64,0,0,0-1.23-1.11,6.4,6.4,0,0,0-1.38-.73,6.76,6.76,0,0,0,1.38-.93l.26-.2a4.47,4.47,0,0,0,1.64-2,4.87,4.87,0,0,0,.18-1.66v-.39c0-.1,0-.2,0-.36v-.48a9.43,9.43,0,0,0-.05-1.93,6.6,6.6,0,0,0-.17-.77l-.05-.19a5.83,5.83,0,0,1-.24-1.28,9.85,9.85,0,0,1,.13-1.56l.09-.67a.45.45,0,0,0,0-.11,4.73,4.73,0,0,1,.28-1.09l0-.07a9.83,9.83,0,0,0,.31-1.05,8.31,8.31,0,0,0,.11-1.14,7.33,7.33,0,0,1,.13-1.13c.07-.25.13-.49.19-.76a15.37,15.37,0,0,1,.42-1.57,4.46,4.46,0,0,1,.57-1,5.61,5.61,0,0,0,.6-1c0-.08.06-.15.08-.22a5.52,5.52,0,0,0,.19-1.09v-.13a4.8,4.8,0,0,1,.18-1.06l.21-.59,0-.13a9.91,9.91,0,0,0,.48-1.54,6.5,6.5,0,0,0,.06-2.77,5.53,5.53,0,0,0-1.18-2.52,4.72,4.72,0,0,0-1.51-1,5.65,5.65,0,0,0,.71.05,3.24,3.24,0,0,0,.55,0l.33,0a4.67,4.67,0,0,0,2-.6,5.71,5.71,0,0,0,1.62-1.83,4.75,4.75,0,0,0,.63-1.51l.05-.17c.05-.18.11-.38.18-.59a20.63,20.63,0,0,1,.79-2,5.32,5.32,0,0,1,.68-1l.08-.11a4.68,4.68,0,0,0,.49-.69,9.65,9.65,0,0,0,.48-1.1,4.19,4.19,0,0,1,1.38-2l.1-.1.16-.15a2.46,2.46,0,0,0,.39-.51l.27-.47a8.55,8.55,0,0,1,1.09-1.65c.23-.26.49-.52.76-.77a7,7,0,0,0,1.26-1.42,4.91,4.91,0,0,0,.57-3l0-.3c0-.19,0-.35-.05-.53a5,5,0,0,0,.84.92,4.49,4.49,0,0,0,1.4.91,2.54,2.54,0,0,0,.85.15,2.59,2.59,0,0,0,.63-.08l.25,0,.48-.09a4.65,4.65,0,0,0,1.25-.32l.15-.08a11.15,11.15,0,0,0,1.13-.76l.16-.12.1-.08a15.77,15.77,0,0,0,1.19-1.06,11.34,11.34,0,0,1,1.06-.94,12.43,12.43,0,0,1,1.25-.84c.41-.25.82-.49,1.21-.7.21-.11.41-.21.63-.3s.48-.23.76-.38a6.07,6.07,0,0,0,.73-.47l.07,0,.5-.32.32-.18q.56-.31,1-.63a5.68,5.68,0,0,0,.83-.76l.43-.41a10.66,10.66,0,0,0,1.16-1.19,7.63,7.63,0,0,0,.93-1.5l.07-.15a4.78,4.78,0,0,0,.46-1.33c0-.05,0-.09,0-.14a3.88,3.88,0,0,0-.23-1.75,4.57,4.57,0,0,0-.81-1.38l-.13-.17-.09-.12-.25-.3a2.57,2.57,0,0,0-1.92-.86h-.62a7.14,7.14,0,0,0-1.55.07l-.37.07c-.43.09-.84.17-1.16.27l-.58.17-.91.28-.4.15-.26.09c-.28.11-.55.2-.85.29l-.23.07-.52.16-.25.08-.34.1-.1,0-.46.14-.6.18-.33.1a3.8,3.8,0,0,0-.51.15l-.14,0c-.26.09-.52.17-.81.24a8.87,8.87,0,0,1-.9.14h-.1l-.43.06c-.34,0-.68.07-1,.09l-.42,0h-.11a7.06,7.06,0,0,0-1.8.42,6.64,6.64,0,0,0-1.67.84,5,5,0,0,0-1.16,1.29l-.1.13a4.24,4.24,0,0,0-.79,1.66,4,4,0,0,0,0,1.34,2.31,2.31,0,0,0,.18.62c.1.37.21.72.32,1l.17.5c.08.26.17.51.26.75l-.16-.13c-.49-.35-1-.68-1.51-1a2.54,2.54,0,0,0-1-.32,6.2,6.2,0,0,0-2.14-.36h-.65a6.13,6.13,0,0,0-2,.32l-.11,0a7,7,0,0,0-2.1,1,1.8,1.8,0,0,0-.2.19,4.25,4.25,0,0,0-.77,1.1,7.68,7.68,0,0,1-.45.71l-.1.14a9.77,9.77,0,0,0-1.09,1.81c-.12.28-.27.55-.42.85l-.12.22c-.18.36-.38.74-.57,1.16a23.05,23.05,0,0,1-1.13,2.12,16.37,16.37,0,0,1-1.37,1.85c-.19.23-.33.42-.46.61l-.1.14a6.31,6.31,0,0,1-1,1.18,9.9,9.9,0,0,0-1.54,1.71l0,0c-.18.23-.37.44-.53.62a4.57,4.57,0,0,0-.87,1.13c0,.1-.09.2-.13.3a4.84,4.84,0,0,0-.16,2v.45a5.14,5.14,0,0,0,.86,2.48l.26.4a6.28,6.28,0,0,0,1.41,1.72,4.16,4.16,0,0,0,.76.44,4,4,0,0,0-.53-.08l-.62,0a5.32,5.32,0,0,0-1.75.1l-.13,0a4.06,4.06,0,0,0-1.9,1.47,7.35,7.35,0,0,0-1.08,2.25,2.37,2.37,0,0,0-.09.65c0,.07,0,.45.06.78,0,0,0,.07,0,.11a4.12,4.12,0,0,1,0,.93,4.74,4.74,0,0,1-.25,1.05,4.31,4.31,0,0,0-.28,1.28l0,.61c0,.57,0,1.15-.09,1.74,0,.3,0,.62,0,.92a6,6,0,0,1-.1,1.35,22.58,22.58,0,0,1-.65,2.17,9.54,9.54,0,0,1-.54,1.15c-.18.32-.34.63-.51,1s-.24.6-.37,1-.31.81-.48,1.18a6.84,6.84,0,0,1-.52.89l-.07.12-.1.16a8,8,0,0,0-.49.82,3,3,0,0,0-.2.66c0,.09-.06.51-.08.83a4.39,4.39,0,0,1-.1.84,8.86,8.86,0,0,0-.38,2.31,2.78,2.78,0,0,1-.16.78.83.83,0,0,1,0,.15c0,.09-.05.18-.07.27a2.51,2.51,0,0,0,.61,2.25,6.15,6.15,0,0,0,.67.61c.2.17.39.33.56.49l.43.43a6.84,6.84,0,0,0,1.63,1.38,10.47,10.47,0,0,0,2.32.8l.72.18a3.89,3.89,0,0,0-.84.34,4,4,0,0,1-.47.22l-.48.16a3.58,3.58,0,0,0-.78.25,1.9,1.9,0,0,0-.39.23,6.09,6.09,0,0,0-1.17,1,5.24,5.24,0,0,0-1,1.63,5.55,5.55,0,0,0-.28,1.39l0,.36a3.88,3.88,0,0,0,.05,1.13c0,.19,0,.38,0,.55v.42c0,.43,0,.87.08,1.31a5.65,5.65,0,0,1,0,.83v.1a6.78,6.78,0,0,0,0,.76,5.82,5.82,0,0,0,.22.88,4.56,4.56,0,0,1,.16.69,7.13,7.13,0,0,1,0,.81c0,.23,0,.46,0,.69a.61.61,0,0,0,0,.14,8,8,0,0,1,0,.88v.17c0,.18,0,.36,0,.53s.05.46.09.68l0,.15a4.94,4.94,0,0,1,.12.77,8.53,8.53,0,0,1,0,.87c0,.24,0,.47,0,.74,0,.56,0,1.08,0,1.59a4.56,4.56,0,0,0,0,.64v.17a5.34,5.34,0,0,1,0,.81l-.05.66c0,.31-.06.62-.08,1s0,.49,0,.73l0,.87a4.76,4.76,0,0,1-.06.65,7.06,7.06,0,0,0-.08,1c0,.45,0,1.05.13,1.6a5.53,5.53,0,0,0,.33,1.15.5.5,0,0,0,.05.13c0,.11.08.22.13.38a3.87,3.87,0,0,0,.89,1.38l.22.26a3.75,3.75,0,0,0,.91.91c.35.23.72.42,1.07.61l.28.14a7.77,7.77,0,0,0,1,.4,3.81,3.81,0,0,1,.44.15,2.53,2.53,0,0,1,.52.26l.16.08a4,4,0,0,0,.46.23,2.91,2.91,0,0,0,.58.15,6,6,0,0,0-1,.4l-.09.06a7.05,7.05,0,0,0-1.22.8l-.13.12a3.68,3.68,0,0,0-.53.72l-.16.25a1.4,1.4,0,0,1-.12.18,4.63,4.63,0,0,0-.68,1.41,8.34,8.34,0,0,0-.31,1.59,10.12,10.12,0,0,0,0,1.65,9,9,0,0,0,.18,1.14c0,.14.06.28.08.42a.5.5,0,0,0,0,.12c0,.13,0,.26.05.4v.15a7.24,7.24,0,0,0,.14.95l.12.68s0,.07,0,.1l0,.19c0,.19.07.4.12.61a4.25,4.25,0,0,0,.3.83h0a4.05,4.05,0,0,1,.21.61,2.9,2.9,0,0,1,0,.73v.12c0,.18,0,.36,0,.53a3.45,3.45,0,0,0,.11.54c0,.08.11.32.18.5a3.48,3.48,0,0,1,.21.71c.1.5.18,1,.25,1.49a4.24,4.24,0,0,1,0,.79,3.19,3.19,0,0,0,0,.8c0,.22.06.45.09.65s.08.56.1.89a7.42,7.42,0,0,1,0,.91,4.71,4.71,0,0,0,0,.65,6,6,0,0,0,.09.73,4.36,4.36,0,0,1,.08.74,8.62,8.62,0,0,1-.11.87s0,.07,0,.11l-.08.58c0,.34-.05.69-.07,1.05l0,.62a6.86,6.86,0,0,0,0,1h0l0-.07c-.09-.17-.18-.34-.26-.53-.23-.6-.44-1.13-.67-1.59-.13-.25-.24-.51-.34-.73s-.2-.5-.31-.73l0-.1-.27-.48-.08-.13c-.14-.24-.29-.48-.4-.72a5.35,5.35,0,0,1-.27-.75,5.49,5.49,0,0,0-.26-.78c-.14-.35-.26-.71-.39-1.08l-.12-.37a3.83,3.83,0,0,0-.35-.79,4.25,4.25,0,0,1-.32-.77,3.3,3.3,0,0,1-.09-.68v-.06a3.73,3.73,0,0,0-.09-.84,5.47,5.47,0,0,0-.13-.55l-.06-.23a6.6,6.6,0,0,1-.21-.85c-.09-.55-.18-1.07-.25-1.59a6.13,6.13,0,0,1,0-.89,4.18,4.18,0,0,0-.05-.81,5.42,5.42,0,0,0-.14-.7l-.08-.37a4.88,4.88,0,0,1-.12-.55,6.67,6.67,0,0,1-.08-.71c0-.3-.05-.59-.1-.89a.36.36,0,0,1,0-.1c-.06-.26-.12-.52-.19-.78l-.21-.83a2.3,2.3,0,0,0-.18-.5l-.2-.35-.06-.1-.05-.09a2.23,2.23,0,0,1-.22-.39l-.14-.31a6.13,6.13,0,0,0-.62-1.16,5.16,5.16,0,0,0-1.23-1.1l-.36-.29a.58.58,0,0,1-.12-.1,4.32,4.32,0,0,0-.85-.53l-.17-.06a4.6,4.6,0,0,0-1.19-.2l-.35,0a6.45,6.45,0,0,0-1.25,0,5.82,5.82,0,0,0,.69-.6l.15-.15.13-.12a1.7,1.7,0,0,1,.19-.19L231,262l.11-.11a5.17,5.17,0,0,0,.91-1.05l.1-.17a3.67,3.67,0,0,0,.31-1.06l.09-.36v-.09c0-.06,0-.13.07-.2l0-.12a3.9,3.9,0,0,0,.25-1.38,6.73,6.73,0,0,0-.24-1.67l-.12-.47a6.49,6.49,0,0,0-.43-1.33,5.07,5.07,0,0,0-.34-.54l-.08-.13a4.09,4.09,0,0,1-.38-.6c-.14-.35-.29-.7-.42-1l-.19-.49c-.11-.27-.2-.54-.28-.8l0-.1c-.07-.2-.13-.4-.2-.59s-.19-.57-.29-.91l-.2-.64a6.21,6.21,0,0,0-.31-.7l-.06-.12a5.66,5.66,0,0,1-.3-.7,5.5,5.5,0,0,1-.16-.67l0-.12a4.16,4.16,0,0,0-.17-.73,4.9,4.9,0,0,0-.3-.7l-.06-.13a3.62,3.62,0,0,1-.31-.69,4.31,4.31,0,0,1-.14-.81,4.28,4.28,0,0,0-.14-.76,4.93,4.93,0,0,0-.24-.64l-.08-.17c-.09-.21-.19-.46-.27-.7a6.38,6.38,0,0,1-.13-.69,4.32,4.32,0,0,0-.16-.89l-.43-1.52c-.06-.22-.14-.44-.22-.66l-.08-.21c-.08-.2-.17-.42-.25-.69a2.59,2.59,0,0,0-.1-.62,7.63,7.63,0,0,0-.41-1.08,4.69,4.69,0,0,0-.91-1.28l-.16-.19a5.63,5.63,0,0,0-1.34-1.16,6.43,6.43,0,0,0-1.62-.77l-.5-.13-.08,0a5,5,0,0,0,.57-.34,5.52,5.52,0,0,0,1.38-1.4,4.38,4.38,0,0,0,.71-1.75l0-.1a5.51,5.51,0,0,0,.14-1.66,8.93,8.93,0,0,0-.4-1.75,1,1,0,0,0,0-.1,7.83,7.83,0,0,0-.5-1.12l-.11-.21-.11-.24a4.09,4.09,0,0,1-.24-.75,4.21,4.21,0,0,0-.19-.71l-.16-.43,0-.1a6.42,6.42,0,0,1-.3-.87c-.05-.18-.1-.35-.18-.61a6.75,6.75,0,0,1-.24-.89c-.09-.5-.16-1-.22-1.49a4.57,4.57,0,0,1,0-.74v-.11a5.45,5.45,0,0,0,0-.69c0-.2,0-.41-.06-.62s-.05-.62-.06-1c0-.22,0-.43-.05-.63a5.77,5.77,0,0,1-.05-.81c0-.3,0-.6.07-.89s.06-.47.08-.71.06-.51.11-.79.07-.5.09-.74.07-.51.11-.79l0-.11c0-.23.07-.47.09-.69a5,5,0,0,0-.05-.89l0-.16a4.47,4.47,0,0,1,0-.6c0-.51,0-1,0-1.56a7.63,7.63,0,0,0-.26-1.73l0-.1a5.42,5.42,0,0,0-.88-1.52,4.94,4.94,0,0,0-1.24-1.25,3.14,3.14,0,0,0-.31-.18,7.27,7.27,0,0,0,1.07-.3l.28-.1a4.56,4.56,0,0,0,1.29-.62,5.58,5.58,0,0,0,1.12-1.29l.07-.09a7.52,7.52,0,0,0,.64-1.39l.07-.21a5.81,5.81,0,0,0,.23-1.1l.09-.55a4.72,4.72,0,0,1,.23-.83l0-.05a6.57,6.57,0,0,0,.23-.72c.06-.23.11-.45.17-.71a7.78,7.78,0,0,1,.24-1c.2-.63.39-1.15.58-1.62.1-.26.19-.51.28-.77l0-.09.28-.74a8.54,8.54,0,0,1,.56-1,3.61,3.61,0,0,0,.29-.48l.06-.13a10.29,10.29,0,0,1,.75-1.4,6.82,6.82,0,0,0,.42-.76c.13-.24.26-.48.38-.67a2.92,2.92,0,0,1,.24-.37l.09-.14a5.78,5.78,0,0,0,.58-1,7.63,7.63,0,0,0,.53-1.7,4.22,4.22,0,0,0,.1-1.67,1.05,1.05,0,0,0,0-.19,1.83,1.83,0,0,0-.08-.25,1.92,1.92,0,0,0,.22.18c.17.11.42.24.66.37l.3.15A3.57,3.57,0,0,0,232,178l.36,0h0a4,4,0,0,0,1.34-.25l.5-.17a3.52,3.52,0,0,0,1.07-.52l.36-.25a6.31,6.31,0,0,0,1-.78,13.31,13.31,0,0,0,1-1.3,4,4,0,0,0,.39-.7,1.86,1.86,0,0,1,.35-.55,8.77,8.77,0,0,1,.84-.75l.26-.22a3.35,3.35,0,0,1,.54-.33l.16-.08a3.69,3.69,0,0,0,.54-.34l.66-.5.55-.43.49-.38.7-.55.34-.27.09-.07a8.94,8.94,0,0,0,.83-.71,3.32,3.32,0,0,0,.48-.64l.06-.09A1,1,0,0,0,245,168a5.37,5.37,0,0,1,.34-.53l.34-.41a5.24,5.24,0,0,0,.72-.94,3.53,3.53,0,0,0,.39-1.12l.12-.48a4.76,4.76,0,0,0,.22-1.73v-.17a5,5,0,0,0-.12-1,2.7,2.7,0,0,0-.27-.66,5.08,5.08,0,0,0-1-1.16,3.78,3.78,0,0,0-1.41-.85,3.89,3.89,0,0,0-1.74-.09c-.14,0-.29,0-.44,0H242a3.66,3.66,0,0,0-.84.11l-.33.1c-.37.14-.88.33-1.37.57l-.19.1a4.93,4.93,0,0,0-.58.42,4.21,4.21,0,0,1-.57.4,5.92,5.92,0,0,0-.6.36,8,8,0,0,1-.73.4,4.85,4.85,0,0,1-.65.26l-.19.07-.53.23-.61.25-.28.11-.49.21-.61.29c-.23.11-.47.23-.8.36a5.27,5.27,0,0,0-.58.32,3,3,0,0,1-.66.34,7.31,7.31,0,0,1-.78.18l-.13,0-.53.12a4.54,4.54,0,0,0-1.24.57l-.4.23a4.61,4.61,0,0,1-.51.22l-.11,0-.46.19a2.4,2.4,0,0,0-.7.53l-.09.09a7.05,7.05,0,0,0-.74.87,2.52,2.52,0,0,0-.42,1.39c0,.16,0,.38,0,.47s0,.3,0,.45a1.7,1.7,0,0,1,0,.22,2.56,2.56,0,0,0,.3,1.51l.05.1c.13.27.27.52.4.76l.1.19.25.45a4.08,4.08,0,0,1,.23.67,1.24,1.24,0,0,0,0,.16l-.3-.18-.17-.11-.15-.09a6.18,6.18,0,0,0-1.09-.6c-.22-.08-.44-.14-.77-.23l-.15,0-.15,0a3,3,0,0,0-.54-.09,5.93,5.93,0,0,0-3.44,0,6.26,6.26,0,0,0-1.57.75,6.47,6.47,0,0,0-1.17,1l-.15.16-.35.33-.09.08a5.66,5.66,0,0,0-.75.82,4.69,4.69,0,0,0-.45.94l-.08.22-.16.39a3.54,3.54,0,0,1-.16.34l-.09.19c-.09.18-.18.38-.27.59a4.44,4.44,0,0,0-.36-1l-.07-.13a4.82,4.82,0,0,0-.81-1.2,3.42,3.42,0,0,0-1.61-.83h0c-.22-.07-.53-.14-.76-.19a2.37,2.37,0,0,0-.88,0,7.09,7.09,0,0,0-1.45.39,15.36,15.36,0,0,0-1.58.62c-.49.23-1,.46-1.35.66a8.68,8.68,0,0,0-.76.44,4.19,4.19,0,0,1-.61.34l-.73.36-.26.13-.39.18a3.69,3.69,0,0,1-.59.2l0,0a4.42,4.42,0,0,0-.81.25l-.32.15c-.32.14-.64.28-1,.43l-.32.13-.12.06-.11,0a5.91,5.91,0,0,1-.81.32c-.44.14-.9.28-1.45.4l-.13,0a6.67,6.67,0,0,0-1.5.45l-.09.05a7.26,7.26,0,0,0-1.5,1.1,5.67,5.67,0,0,0-1.06,1.56,4.17,4.17,0,0,0-.51,1.84,4.27,4.27,0,0,0,.45,1.76,2.19,2.19,0,0,0,.15.43l.5,1a11.3,11.3,0,0,0,.59,1l.23.4c.17.28.34.54.49.76-.13-.08-.27-.15-.37-.22a4.14,4.14,0,0,0-1.39-.66c-.41-.09-.9-.18-1.38-.25a2,2,0,0,0-.65,0h-.07a6.86,6.86,0,0,0-2,.2,2.53,2.53,0,0,0-1.14.64l-.06.06a3.72,3.72,0,0,1-.47.34l-.1.07-.24.14-.18.09a3.94,3.94,0,0,0-1.1.74l-.1.11-.17.19a6.44,6.44,0,0,0-1.05,1.42l0,.1a4.49,4.49,0,0,0-.31,1.24c0,.21-.07.44-.13.68l-.08.34a8.47,8.47,0,0,0-.29,1.59l-.12,1.84a7.11,7.11,0,0,0,0,.91,6.4,6.4,0,0,1,0,1.13,15.68,15.68,0,0,1-.31,1.86,3.53,3.53,0,0,1-.4.83,4.61,4.61,0,0,0-.51.93,3.54,3.54,0,0,0-.19.75.36.36,0,0,0,0,.11,2.79,2.79,0,0,1-.32,1,2.54,2.54,0,0,1-.35.49,1.34,1.34,0,0,0-.11.14,4,4,0,0,0-.43.66,2.49,2.49,0,0,0-.27,1.15c0,.08,0,.16,0,.25a4.22,4.22,0,0,1-.06.59,6.16,6.16,0,0,1-.18.71,4.6,4.6,0,0,0-.13.5,3.42,3.42,0,0,0,0,.45v.11c0,.08,0,.16,0,.24l0,.16a4.59,4.59,0,0,0,.37,1.66,4.2,4.2,0,0,0,1.06,1.25l.29.27a5.46,5.46,0,0,0,1.33.75c.11.05.22.09.39.18a3.81,3.81,0,0,1,.52.29l.12.07.09,0,.23.13a2.7,2.7,0,0,1-.41.16,5.27,5.27,0,0,0-1.66.88,4,4,0,0,1-.47.29,4,4,0,0,0-.54.31,2.63,2.63,0,0,0-.64.65,8.3,8.3,0,0,0-.59,1.14l-.06.13-.07.16a2.44,2.44,0,0,0-.18.93,4.21,4.21,0,0,0,0,.51,2.8,2.8,0,0,1,0,.47c0,.16,0,.33-.05.48s0,.09,0,.13v.15a3.72,3.72,0,0,0,0,.95,3,3,0,0,0,.11.5l.18.44.1.2a5.58,5.58,0,0,1,.28.74,5.48,5.48,0,0,1,.15,1v.05a6.77,6.77,0,0,0,.08.7,9.07,9.07,0,0,1,.06,1.29v.6a7.47,7.47,0,0,1-.1,1.2c0,.23-.07.44-.1.69s0,.57,0,.79v.13a5.94,5.94,0,0,1-.07,1,4.55,4.55,0,0,0-.09.73l0,.13a.41.41,0,0,1,0,.11,4.94,4.94,0,0,1-.11.92c-.07.29-.16.59-.24.89s-.19.63-.29,1-.14.92-.19,1.41c0,0,0,.16,0,.19v.12a12,12,0,0,0,0,1.7,2.46,2.46,0,0,1-.11.62A2.56,2.56,0,0,0,180,243a2.77,2.77,0,0,1,.32.39,5.18,5.18,0,0,0,1.26,1.49l.19.13,0,0a7.1,7.1,0,0,0,1.54.93,8.33,8.33,0,0,0,1.54.4l.35.07a11.17,11.17,0,0,0,1.88.2h.09l.82,0c-.31.2-.6.41-.86.61l-.18.13a9,9,0,0,0-1.19,1.2,6.71,6.71,0,0,0-.95,1.38,5.18,5.18,0,0,0-.48,1.62,4.85,4.85,0,0,0,0,1.61c0,.19,0,.38.06.57a3.42,3.42,0,0,0,.14.93,2.33,2.33,0,0,0,.11.28,11.19,11.19,0,0,0,.72,1.36,1.91,1.91,0,0,0,.24.32c.09.11.19.21.3.32l.11.1a2.88,2.88,0,0,1,.41.45l.94,1.26a7.92,7.92,0,0,1,.49.74c.15.23.3.46.51.76l.5.62c.2.23.4.47.55.67a8.08,8.08,0,0,1,.44.72,5.26,5.26,0,0,0,.45.77l.32.5a1,1,0,0,1,.08.11c.21.28.4.58.56.82s.4.71.61,1.11l.48.88c.2.36.4.71.6,1.13a5,5,0,0,0,.42.7,5.52,5.52,0,0,1,.33.54l.26.47c.15.28.3.55.48.82s.19.35.31.6.27.51.34.61l.08.12a5.44,5.44,0,0,0,.67.72l.13.13.18.2.08.09.26.3a9.41,9.41,0,0,0,.77.81,5,5,0,0,0,1.53.9,3.86,3.86,0,0,0,1.06.2l.59.07a9.77,9.77,0,0,0,1.13.09,4.58,4.58,0,0,0,.53,0l.38,0a5.67,5.67,0,0,0,1.14-.14,2.65,2.65,0,0,0-.36,1l0,.23a7,7,0,0,1-.15.71c-.09.24-.19.48-.29.74a4.79,4.79,0,0,0-.42,1.5,6.52,6.52,0,0,0,.28,2.35,9,9,0,0,0,1,2.16,9.28,9.28,0,0,0,.91,1.07l.15.17c.14.14.27.28.45.49a5,5,0,0,0,.51.49l.14.11.08.07a5.57,5.57,0,0,1,.69.63c.11.15.23.29.36.44l.34.4c.19.23.39.46.61.77s.52.74.76,1.11l.34.52a4.63,4.63,0,0,1,.44.95,1.47,1.47,0,0,1,.06.14,5.9,5.9,0,0,0,.33.7,5.32,5.32,0,0,1,.4,1l.05.12,0,.13a6.22,6.22,0,0,0,.24.6,4.58,4.58,0,0,0,.37.69l.09.16a3.89,3.89,0,0,1,.46.91c.1.29.17.59.25.89l0,.17c.07.28.15.56.23.81.26.74.47,1.33.67,1.81l.22.54a11.06,11.06,0,0,0,.58,1.31,1.64,1.64,0,0,0,.14.22,3.22,3.22,0,0,0,.55.6l.18.18c.18.16.36.34.53.52l.1.12.06.09.09.1a5.33,5.33,0,0,0,1.24,1.16,2.43,2.43,0,0,0,.87.34,3.43,3.43,0,0,0,.64,0h1.18c.24,0,.48.08.73.13a4.33,4.33,0,0,0,1.21.2,2.73,2.73,0,0,0,.5-.05c.28-.06.6-.14.94-.24a5,5,0,0,0-.39.68,8.52,8.52,0,0,0-.59,2.17,12.85,12.85,0,0,0-.15,2.33,8.78,8.78,0,0,0,.3,1.62c0,.19.08.4.14.67.18.82.38,1.57.61,2.28s.57,1.53.86,2.19c.08.18.15.36.22.54l.08.17a7.37,7.37,0,0,0,.69,1.51,7.87,7.87,0,0,0,1.55,1.89,7.42,7.42,0,0,0,1.66,1l.41.2a9.29,9.29,0,0,0,1.92.66l.32.08.77.24.11,0c.24.08.49.15.74.21-.23.06-.44.1-.71.15a4.79,4.79,0,0,0-1.31.34l-.27.14a7.27,7.27,0,0,0-1.85,1.74,6,6,0,0,0-1.1,2.29,10.59,10.59,0,0,0-.16,2.54,9,9,0,0,0,.49,2.46,7.34,7.34,0,0,0,1.27,2.23A7.45,7.45,0,0,0,230,336a8.45,8.45,0,0,0,1.55.7l.61.23c.67.26,1.38.53,2.15.77a8.27,8.27,0,0,1,1.1.47l.1,0a8.91,8.91,0,0,0,.85.38,13.38,13.38,0,0,1,2,.85,7.44,7.44,0,0,0,1.94.7l.69.19a5.74,5.74,0,0,0,1.53.26h.15a7.8,7.8,0,0,0,2.2-.41l.11,0a7.64,7.64,0,0,0,1.92-.84,2.42,2.42,0,0,0,.55-.51c0-.05.17-.22.3-.41l.17-.25a5.47,5.47,0,0,1,.36-.52l.49-.56a5,5,0,0,0,.89-1.23c.07-.14.14-.28.22-.42l.05-.09.08-.16a6.23,6.23,0,0,0,.55-1.37c0-.1,0-.2.05-.29a8.72,8.72,0,0,0,.61,1.4,5.9,5.9,0,0,0,1,1.39,5.58,5.58,0,0,0,1.53,1.06,6.53,6.53,0,0,0,1.72.54A8.05,8.05,0,0,0,257,338h.36a6.32,6.32,0,0,0,1.1-.18l1-.22a7.86,7.86,0,0,0,1.37-.35,8.78,8.78,0,0,0,1.44-.78l.09-.06c.25-.15.52-.28.75-.4l.09,0a7.05,7.05,0,0,0,.65-.35c.24-.15.46-.31.69-.48l.08-.06.56-.4.69-.45c.24-.16.49-.32.71-.49.45-.34.85-.72,1.23-1.07a11.24,11.24,0,0,0,1-1.18,1.47,1.47,0,0,0,.1-.13l0,0c.08-.1.16-.19.24-.3a5.78,5.78,0,0,0,.75-1.06,9.09,9.09,0,0,0,.59-1.58l0-.11,0-.16a7.84,7.84,0,0,0,.29-1.43,1.62,1.62,0,0,0,0-.22,3.63,3.63,0,0,0-.1-.78l-.21-1.13a6.3,6.3,0,0,0-.23-1.12,7.52,7.52,0,0,0-.51-1.14l-.26-.52a5.89,5.89,0,0,0-.82-1.35,5.41,5.41,0,0,0-1.32-1.05l-.13-.07a3.21,3.21,0,0,0-.57-.22c.15,0,.3,0,.47-.08a7.51,7.51,0,0,0,1.67-.62,7.37,7.37,0,0,0,1.42-.86l.42-.3a5.88,5.88,0,0,0,1-.84,10.21,10.21,0,0,0,1-1.4,12.89,12.89,0,0,0,.86-1.54,10,10,0,0,0,.41-1.25l.13-.43a6.86,6.86,0,0,0,.2-1.1l0-.23a1.66,1.66,0,0,1,0-.22l0-.16c0-.19.08-.39.11-.52a4.78,4.78,0,0,0,.2-1.1,5,5,0,0,0,0-.55v-.24a7.91,7.91,0,0,1,0-1l0-.52c0-.37,0-.76.1-1.16,0-.23.1-.45.16-.69,0,0,0-.11,0-.12,0-.17.09-.34.12-.51.07.18.14.37.22.55a5.44,5.44,0,0,0,.67,1l.29.37a6.25,6.25,0,0,0,1.08,1.05l0,0a.63.63,0,0,0,.12.11,5.07,5.07,0,0,0,1.23.79,6.43,6.43,0,0,0,1.58.43l.68,0a4.71,4.71,0,0,0,1.15-.13,4.79,4.79,0,0,0,1.35-.59l.27-.15a6.77,6.77,0,0,0,1-.67l.41-.33.37-.27.09-.06.11-.08a8.85,8.85,0,0,0,.8-.65c.18-.16.35-.34.51-.51l.09-.1a8.07,8.07,0,0,1,.58-.59,7.08,7.08,0,0,1,.72-.54l.09-.06a5.36,5.36,0,0,0,.44-.34,7,7,0,0,1,.7-.43l.55-.33c.21-.14.4-.29.61-.45a5.81,5.81,0,0,1,.66-.48l.13-.09a4.67,4.67,0,0,0,.42-.29l.17-.12c.2-.13.39-.27.57-.37a5.12,5.12,0,0,1,.78-.3,4,4,0,0,0,.68-.25c.2-.1.4-.21.64-.36s.48-.29.73-.41a4.79,4.79,0,0,0,.6-.3l.18-.09c.19-.09.39-.2.65-.3L298,298l.6-.23c.26-.1.53-.18.85-.28l.16-.05.47-.15a7.07,7.07,0,0,0,.8-.33c.23-.11.46-.21.67-.29l.24-.09a12.89,12.89,0,0,0,1.27-.5c.16-.08.34-.14.51-.21a4.36,4.36,0,0,0,.87-.36,2.2,2.2,0,0,0,.25-.17,4.21,4.21,0,0,0,.78-.8l.07-.08.07-.09.17-.23a3.86,3.86,0,0,0,.75-1.33c0-.05,0-.1,0-.14a6.54,6.54,0,0,0,.27-1.59,7.55,7.55,0,0,0-.15-1.69A5.23,5.23,0,0,0,306.38,288.44ZM180.57,208.89a2.42,2.42,0,0,0,.22.69,2.7,2.7,0,0,1-.22-.69Zm.25.75a2.49,2.49,0,0,0,.42.6A2.43,2.43,0,0,1,180.82,209.64Zm76.7,109.87A9,9,0,0,0,258,318a8,8,0,0,0,.22-1.27l.08-.63c0-.27.07-.56.09-.85l0,.05a5.45,5.45,0,0,0,.62,1,5.91,5.91,0,0,0,1.07,1l.3.24a7.1,7.1,0,0,0,1.52.95l.26.11a10.79,10.79,0,0,0-1.43.24,15,15,0,0,0-1.63.5c-.46.17-.94.37-1.54.65l-.5.29A7.81,7.81,0,0,0,257.52,319.51Zm-1.17-23.39a1.21,1.21,0,0,1,.16-.16l.21-.21.32-.33a2.77,2.77,0,0,0,.48-.83,9.41,9.41,0,0,0,.33-1.38l0-.21a1.1,1.1,0,0,0,0-.18.6.6,0,0,0,.06.11,3.9,3.9,0,0,0,.79,1l.07.08.11.09.26.25a7.46,7.46,0,0,0,1.35,1.16l.09.06.2.12a6.07,6.07,0,0,0,1.49.69c.12,0,.24.05.36.08l-.6.15a6.54,6.54,0,0,0-1.14.6l-.3.19a6.7,6.7,0,0,0-1.31,1l-.07.08a7.68,7.68,0,0,0-.93,1.37,10.42,10.42,0,0,0-.64,1.56,12.13,12.13,0,0,0-.43,1.59,7.16,7.16,0,0,0-.11.93V304c0,.19,0,.39-.06.63s-.06.63-.08.9l-.05.68a5.94,5.94,0,0,1-.13.76,7.84,7.84,0,0,0-.16.86,6.72,6.72,0,0,0,0,1.27l0,.48c0,.17,0,.35.05.53a4.94,4.94,0,0,1-.51-1.14,6,6,0,0,1-.27-1.44v-.38a4.35,4.35,0,0,1,0-1.13l0-.21a7.1,7.1,0,0,0,.1-1.36s0-.08,0-.12a7,7,0,0,0-.37-1.68,5.25,5.25,0,0,0-.64-1.17l-.36-.52a5.37,5.37,0,0,0-1-1.21,7.52,7.52,0,0,0-1.42-1,3.05,3.05,0,0,0-.53-.2h.07a9.78,9.78,0,0,0,1.41-.43l.12,0a2,2,0,0,0,.34-.14,4.37,4.37,0,0,0,.71-.47l.49-.34.09-.06A6.3,6.3,0,0,0,256.35,296.12ZM242,297.5a6.09,6.09,0,0,0,1.08-1.61,4.92,4.92,0,0,0,.31-1l.2.36c.13.23.22.4.3.58l0,.11a4,4,0,0,0,.34.61,2.11,2.11,0,0,0,.19.23,5.62,5.62,0,0,0,1,.89,2.5,2.5,0,0,0,.86.4l.3.06.12,0,.39.08a1.84,1.84,0,0,0,.25.05l-.11,0a10.46,10.46,0,0,0-1.74.49,7.41,7.41,0,0,0-1.55.82,6.14,6.14,0,0,0-1.35,1.27,6.54,6.54,0,0,0-1,1.52A7.93,7.93,0,0,0,241,304a.06.06,0,0,1,0,0,5.72,5.72,0,0,0-1-2.13,4.65,4.65,0,0,0-1.94-1.47l-.48-.24-.42-.2a6.77,6.77,0,0,0,.76-.25l.15-.06a4.76,4.76,0,0,1,.63-.22l.44-.13a6.41,6.41,0,0,0,1.36-.49A5.6,5.6,0,0,0,242,297.5Zm-.82,16.34-.06-.1a3.39,3.39,0,0,1-.46-.86,5.38,5.38,0,0,1-.18-2.2c0-.11,0-.23,0-.37V310a12.84,12.84,0,0,1,.11-1.57,4.27,4.27,0,0,1,.2-.7l.09.34,0,.16c.05.17.09.34.12.49s.09.54.11.78.05.48.1.78a8.78,8.78,0,0,1,.09,1l.06.82a11.09,11.09,0,0,1,0,1.16v.52a.76.76,0,0,0,0,.15v.32C241.35,314.17,241.26,314,241.15,313.84Zm-12.73-15.18a4.48,4.48,0,0,0,.28-1.69,5.91,5.91,0,0,0,.7,1.12,4.49,4.49,0,0,0,1.18,1.08l.34.22.14.1,0,0c-.6.1-1.19.23-1.77.36l-.24.05a10.82,10.82,0,0,0-1.29.47c-.22.1-.44.19-.67.27h0l.09-.1A7.9,7.9,0,0,0,228.42,298.66ZM213.29,182.45a2.57,2.57,0,0,0-.17.41c-.18.44-.39.9-.67,1.46a12.69,12.69,0,0,1-.77,1.36,12.47,12.47,0,0,1-1,1.22,5.57,5.57,0,0,0-.68,1l-.12.2c-.05.09-.09.17-.17.29A8.35,8.35,0,0,0,209,190l-.08.19a6,6,0,0,0-.44,1.56,5.79,5.79,0,0,0,.06,1.78,4.33,4.33,0,0,0,.67,1.55,5.32,5.32,0,0,0,1,1.26,7.21,7.21,0,0,0,1.22,1,9.66,9.66,0,0,0,1.22.64l-.17,0c-.23.06-.47.13-.65.16l-.45.08a7.32,7.32,0,0,0-1.28.33,4.48,4.48,0,0,0-1.4.89l-.19.16-.11.09-.34.31a2.42,2.42,0,0,0-.57.9,6,6,0,0,0-.36,1.52,2.44,2.44,0,0,0,0,.47,4.27,4.27,0,0,0,.09.57c0,.21.08.42.1.61a5.38,5.38,0,0,1,0,.55,4,4,0,0,0,0,.94.43.43,0,0,0,0,.11,6,6,0,0,0,.17.67l0,.16,0,.1c.06.19.12.37.16.55s.09.47.14.76a7.85,7.85,0,0,0,.15.81,3.62,3.62,0,0,0,.3.77,3.06,3.06,0,0,1,.23.66,7.63,7.63,0,0,1,.08,1s0,.07,0,.11l0,.5a8.17,8.17,0,0,1,0,1l0,.51a.61.61,0,0,0,0,.14c0,.57,0,1.09,0,1.5a4.55,4.55,0,0,0,0,.88,4.85,4.85,0,0,1,0,.85,4.43,4.43,0,0,1-.19.78l0,.19a4.69,4.69,0,0,0-.15.64c0,.27-.06.54-.08.89a5.58,5.58,0,0,1-.06.76c0,.29-.08.58-.11.87l0,.23c0,.18,0,.35-.08.58s-.06.33-.1.52l0,.16a8.8,8.8,0,0,0-.14,1v.17a10.34,10.34,0,0,0,0,1.57,8.12,8.12,0,0,0,.4,1.65l.19.67a4.09,4.09,0,0,0,.41,1,2,2,0,0,0,.24.33,4.51,4.51,0,0,0,.7.64l.3.24a7.35,7.35,0,0,0,1.37.87,6.43,6.43,0,0,0,1.29.4l.26.07.53.16a5.4,5.4,0,0,0,1.12.28c.22,0,.47,0,.73,0-.22.1-.44.2-.65.32a7.85,7.85,0,0,0-1.33,1.09l-.18.16a5.33,5.33,0,0,0-1,1.22,5,5,0,0,0-.5,1.66,6.84,6.84,0,0,0-.11,1.83,5.05,5.05,0,0,0,.21,1l.18.63c0,.22.08.43.13.66l0,.11a5.83,5.83,0,0,0,.21.88c.08.24.16.47.25.7l.32.9c.09.22.19.44.29.67l.1.2c.09.19.18.39.28.64a5,5,0,0,1,.22.65s0,.1,0,.14l.06.17c.06.18.12.36.21.58a4.64,4.64,0,0,0,.44.79,5.61,5.61,0,0,1,.34.63l.16.39c.15.38.31.76.44,1.12a8.52,8.52,0,0,1,.26.86,6.81,6.81,0,0,0,.2.73,6.1,6.1,0,0,1,.17.92,5.54,5.54,0,0,0,.12.69c0,.21.1.41.15.55a8.45,8.45,0,0,1,.22.91,7.46,7.46,0,0,0,.16.88,5.81,5.81,0,0,1,.17.85l0,.11c.07.52.14,1.07.23,1.55.11.69.21,1.22.33,1.73,0,.15.06.31.09.47l0,.15a5.38,5.38,0,0,0,.22,1.07,9.79,9.79,0,0,0,.73,1.63,6.59,6.59,0,0,0,1.16,1.39,4.56,4.56,0,0,0,1.33.86l.21.11.1.05a6.3,6.3,0,0,0,1.67.53l.17,0,.24.05a4.65,4.65,0,0,0,1.18.17h.19l.5,0a2.27,2.27,0,0,0-.25.18,4.32,4.32,0,0,0-.67.69l-.15.18-.26.32-.21.22-.17.17a3.52,3.52,0,0,0-.54.63,1.35,1.35,0,0,0-.15.26,5.08,5.08,0,0,0-.5,1.57,3.39,3.39,0,0,0,0,1l0,.18c0,.11,0,.21.05.31a.53.53,0,0,0,0,.13,4,4,0,0,1,0,.49v.13a3.9,3.9,0,0,0,.05.76.94.94,0,0,0,0,.16,5.68,5.68,0,0,0,.36.94l.08.16.17.38c.17.41.36.82.56,1.22l0,.06.08.18c.1.19.2.36.3.53l.06.1a6.29,6.29,0,0,1,.37.67,4.82,4.82,0,0,1,.21.67l.06.23c0,.18.09.36.15.53a5.89,5.89,0,0,0,.24.58l.07.16c.1.25.21.5.29.73s.19.51.3.75.22.51.29.71a3.34,3.34,0,0,1,.12.76c0,.06,0,.12,0,.18a4.83,4.83,0,0,0,.1.61c.05.18.11.36.17.53l.08.24c.09.26.18.51.25.77a4.71,4.71,0,0,0,.26.78,5.62,5.62,0,0,1,.25.76,2.55,2.55,0,0,1,0,.72,1.15,1.15,0,0,0,0,.19c0,.17,0,.35,0,.52s0,.11,0,.17a3.75,3.75,0,0,0,.16.64,1,1,0,0,0,.05.16,3.69,3.69,0,0,1,.18.73c0,.5.08,1,.09,1.53l0,.68c0,.31,0,.64,0,1l.06.86a3.38,3.38,0,0,0-.35-.72,5,5,0,0,0-1-1,4.51,4.51,0,0,1-.67-.62c-.28-.34-.56-.66-.84-1l-.71-.78a9.83,9.83,0,0,1-.68-.89l-.09-.13c-.19-.27-.38-.53-.6-.79s-.68-.82-1-1.25l-.41-.53c-.15-.19-.3-.37-.47-.55l-.21-.23a6.88,6.88,0,0,1-.76-1,17.82,17.82,0,0,1-1-1.95,3.63,3.63,0,0,1-.22-1,5.18,5.18,0,0,0-.28-1.21l-.38-.9c-.16-.37-.31-.73-.41-1a5.28,5.28,0,0,0-.64-1.23,4.76,4.76,0,0,1-.45-.82,6.39,6.39,0,0,0-1.09-1.75c-.16-.22-.29-.4-.41-.59l-.09-.13-.06-.09a4,4,0,0,0-.5-.63,2.32,2.32,0,0,0-.6-.44,6,6,0,0,0-2.11-.65h0l-.35,0a4.35,4.35,0,0,0-1.27.22l-.25.07-.32.07-.12,0a5,5,0,0,1-.56.08h-.12l-.7.08a7.84,7.84,0,0,0,.89-1.53,6,6,0,0,0,.54-1.77,4.93,4.93,0,0,0-.16-1.84,6,6,0,0,0-.78-1.72,8.43,8.43,0,0,0-1.21-1.35l-.45-.43c-.27-.24-.52-.48-.7-.65l-.6-.68-.52-.6c-.37-.39-.72-.77-1-1.16l-.08-.08a4.44,4.44,0,0,0-.44-.43l-.12-.11a5.35,5.35,0,0,1-.57-.59,5.81,5.81,0,0,1-.39-.57l-.06-.11c-.13-.21-.26-.42-.41-.62a4.7,4.7,0,0,0-.34-.44l-.07-.09-.1-.12a5.64,5.64,0,0,1-.51-.66,3.89,3.89,0,0,1-.33-.65,1.54,1.54,0,0,1-.08-.19,4.25,4.25,0,0,0-.31-.6,6.06,6.06,0,0,0-.35-.53l-.07-.11a7.87,7.87,0,0,1-.45-.67c-.13-.26-.26-.53-.41-.87l-.07-.16-.22-.47q-.16-.33-.36-.66l-.12-.22c-.09-.17-.18-.34-.29-.58s-.25-.53-.36-.79l-.28-.63,0-.1a6.43,6.43,0,0,0-.91-1.38,5.07,5.07,0,0,0-1.34-1.08l-.09-.06a2.07,2.07,0,0,1-.25-.15,6.37,6.37,0,0,0-.77-.44,2.68,2.68,0,0,0-.89-.2c-.17,0-.39,0-.61,0a5.63,5.63,0,0,0,.38-.51,8.58,8.58,0,0,1,.53-.7l.35-.39a3.77,3.77,0,0,0,.77-1.12,2.63,2.63,0,0,0,.17-.92v-.64a3.11,3.11,0,0,1,0-.61,11.49,11.49,0,0,0,0-2,4.94,4.94,0,0,0-.45-1.35l-.17-.39a1.83,1.83,0,0,1,0-.72s0-.09,0-.13a2.51,2.51,0,0,0-.14-1.21,3.45,3.45,0,0,0-.2-.43,4.12,4.12,0,0,1-.3-.77c0-.17-.06-.34-.09-.51l0-.13a6.76,6.76,0,0,1-.18-1.11,5.26,5.26,0,0,0-.09-.7,7.42,7.42,0,0,1-.09-1,6.3,6.3,0,0,1,.2-1.19l0-.14c.06-.24.11-.47.15-.71a4.9,4.9,0,0,1,.26-.94,5.16,5.16,0,0,0,.3-1,19.16,19.16,0,0,0,.24-2.11,10.25,10.25,0,0,0-.11-2.17,2.5,2.5,0,0,0-.48-1.12l-.15-.21a2.8,2.8,0,0,1-.36-.61c-.07-.15-.12-.32-.18-.48l-.06-.21c-.08-.22-.16-.45-.21-.57a2.68,2.68,0,0,0-.46-.69,5.91,5.91,0,0,0-1.58-1.23l-.12-.06c.12-.05.25-.1.34-.15l.11,0,.5-.24.31-.11.28-.09a3.85,3.85,0,0,0,1-.42,2.44,2.44,0,0,0,.69-.63c0-.05.19-.3.36-.61l.34-.65a5.46,5.46,0,0,1,.32-.5,3.82,3.82,0,0,0,.55-1,2.38,2.38,0,0,0,.13-.79c0-.06,0-.26,0-.52l0-.31c0-.23-.05-.47-.06-.73a10.27,10.27,0,0,1,.07-1.47s0-.1,0-.12l.08-1.21a13,13,0,0,1,.14-1.51c.05-.38.08-.75.09-1.06a6.77,6.77,0,0,1,.11-1,5.47,5.47,0,0,1,.55-1.37l0-.07a1,1,0,0,0,.09-.18,2.27,2.27,0,0,0,.2-.57,11.49,11.49,0,0,1,.56-1.86,6.66,6.66,0,0,1,.38-.77l.07-.14a6.38,6.38,0,0,0,.47-1.05A1.42,1.42,0,0,0,198,197a3.41,3.41,0,0,0,0-1.06s0-.13,0-.16a3.56,3.56,0,0,1,0-.66v-.11a3.69,3.69,0,0,0-.34-2c-.07-.13-.12-.26-.18-.39l.25.16a4.7,4.7,0,0,0,1.36.61,2.1,2.1,0,0,0,.56.07,4.54,4.54,0,0,0,1.44-.3,6,6,0,0,0,1.44-.72,9.32,9.32,0,0,0,1.27-1.08,11.22,11.22,0,0,0,.79-1l.08-.11.14-.19a5.26,5.26,0,0,1,.62-.63l.19-.16.26-.26.26-.26A7.14,7.14,0,0,1,207,188l.22-.19c.3-.24.6-.49.86-.68s.37-.25.55-.36l.15-.08c.19-.13.39-.25.56-.38s.41-.32.62-.49l.77-.64c.35-.29.71-.58,1.07-.93s.76-.83,1.13-1.27A6.18,6.18,0,0,0,213.29,182.45ZM251.7,325.31a.41.41,0,0,0,0,.09,15.63,15.63,0,0,0-.71,1.42,6.84,6.84,0,0,0-.34,1.13l-.11.4-.1.35a1.05,1.05,0,0,0,0,.19,0,0,0,0,1,0,0,4.8,4.8,0,0,0-.42-.7l-.15-.22a6.19,6.19,0,0,1-.38-.58c-.11-.23-.22-.46-.32-.69a.42.42,0,0,0,0-.1,4.71,4.71,0,0,0-.58-1.1l-.1-.11a3.94,3.94,0,0,0-1.42-.95l-.54-.29a4.5,4.5,0,0,1-.45-.31l-.2-.14a6.05,6.05,0,0,0-.52-.33A2.45,2.45,0,0,0,244,323l-.51,0h-.11a3.63,3.63,0,0,1-1.05,0l-.7-.07-.33,0c-.33,0-.66-.06-1-.12a4.16,4.16,0,0,1-.86-.27,4.76,4.76,0,0,0-.83-.3,1.59,1.59,0,0,0-.3-.06l-.3,0a5.46,5.46,0,0,0,1.23-.54,2.48,2.48,0,0,0,.26-.19,5.92,5.92,0,0,0,1.18-1.45l.06-.1a2.58,2.58,0,0,1,.2-.3l.19-.27a.41.41,0,0,0,0-.09l.19-.27.09-.14.06-.09a4.91,4.91,0,0,0,1.47,2.86,5.88,5.88,0,0,0,1.4,1.1,6.15,6.15,0,0,0,1.64.64l.1,0,.37.09.34.09a4.8,4.8,0,0,0,.75.17,6.33,6.33,0,0,0,1,.08h1.24c.35,0,.68,0,1,0l.35,0a7.67,7.67,0,0,0,1.32-.2l.16,0,.37-.1-.15.22-.26.36-.28.38A7.35,7.35,0,0,0,251.7,325.31Z" style="fill: #f4f5f8"/>
    <path d="M322.5,251.49a18,18,0,0,0-.29-2.21c-.15-.74-.33-1.38-.49-1.95l-.08-.3a3.12,3.12,0,0,1,0-.6,6.8,6.8,0,0,0-.18-1.57c-.08-.29-.17-.59-.28-.89a6.87,6.87,0,0,1-.28-1c-.06-.33-.14-.66-.22-1a5.21,5.21,0,0,1-.19-.9c0-.26,0-.52,0-.79a11.54,11.54,0,0,0,0-1.3,12.36,12.36,0,0,0-.25-1.52c0-.23-.09-.46-.12-.68a18,18,0,0,0-.56-2.34,6.37,6.37,0,0,0-1.19-2.18,6.17,6.17,0,0,0-2-1.48,2.09,2.09,0,0,1-.29-.16,5,5,0,0,0-2-.73,4.42,4.42,0,0,0-2.4.56c-.09,0-.17.09-.26.12a6.1,6.1,0,0,0-1.89,1.14c-.09.08-.17.17-.26.26a7.68,7.68,0,0,0-1.38,1.87,5.14,5.14,0,0,0-.47,2,2.67,2.67,0,0,1,0,.42,3.07,3.07,0,0,1-.14.34,4.8,4.8,0,0,0-.48,1.83,11.73,11.73,0,0,0,0,1.19,6,6,0,0,1,0,.73v.77a4.28,4.28,0,0,1,0,.83,7.67,7.67,0,0,0-.07.9,4.54,4.54,0,0,1-.08.76,2,2,0,0,1-.19.35,6,6,0,0,0-.66,1.45,9.73,9.73,0,0,0-.27,1.24c-.05.24-.09.48-.15.72l-.13.5c-.12.49-.25,1-.34,1.54a13.35,13.35,0,0,0-.14,1.79v.39a3.19,3.19,0,0,1-.06.53,5.6,5.6,0,0,0,0,1.93,7,7,0,0,0,1.4,2.69,5.06,5.06,0,0,0,1.69,1.33,3.48,3.48,0,0,1,.38.23l.08.06a8.58,8.58,0,0,0-1.24,1.46,11.81,11.81,0,0,0-.9,1.66l-.14.3c-.08.16-.17.33-.27.5a10.07,10.07,0,0,0-.65,1.35,9.11,9.11,0,0,0-.35,1.24c-.05.22-.1.45-.17.66a4.72,4.72,0,0,1-.23.49,7.32,7.32,0,0,0-.57,1.27c-.07.24-.13.48-.18.71s-.11.43-.14.49c-.14.23-.27.46-.41.71l-.28.52a1.78,1.78,0,0,1-.3.17,4.32,4.32,0,0,0-2.17,2.34l-.1.25c-.1.11-.22.2-.33.3a5.28,5.28,0,0,0-1.17,1.3,5.91,5.91,0,0,0-1,2.72,4.28,4.28,0,0,0,.57,2.32c.05.1.1.2.14.3l.08.25c0,.12.07.24.11.36-.27,0-.54.06-.84.12a8.52,8.52,0,0,0-1.95.6l-.44.18a11.32,11.32,0,0,0-1.21.54,6.78,6.78,0,0,0-1.13.82l-.32.26a5.08,5.08,0,0,1-.43.27c-.31.2-.67.43-1,.71l-.85.73-.39.35-.79.66-.41.33a7.21,7.21,0,0,1-.6.45l-.61.44-.36.28a5.54,5.54,0,0,1-.65.48l-.15.07a7.83,7.83,0,0,1-1.08.51c-.06,0-.25,0-.39.06a5.73,5.73,0,0,0-1.08.19,8,8,0,0,0-.9.31,5.66,5.66,0,0,1-.58.2l-1.61.4a2,2,0,0,0-.46.18,7.31,7.31,0,0,0-1.06.21l-.46.12a9.41,9.41,0,0,0-1.3.4,6,6,0,0,0-1.38.84,3.55,3.55,0,0,1-.31.23l-.1.07a8.16,8.16,0,0,0-1.15.83c0-.3,0-.58,0-.83a3.17,3.17,0,0,1,0-.43c0-.12,0-.24,0-.35a8,8,0,0,0,.07-1.61c0-.16,0-.32,0-.49a9.52,9.52,0,0,0-.06-1.24c-.05-.32-.12-.64-.2-1s-.1-.4-.14-.61c-.07-.49-.15-1-.24-1.54,0-.19,0-.39,0-.59s0-.61-.08-.93-.05-.39-.08-.59-.08-.59-.11-.9-.07-.53-.11-.8a5.14,5.14,0,0,1-.09-.7c0-.48-.06-1-.07-1.51a2.89,2.89,0,0,1,0-.5c0-.33.07-.67.07-1s0-.41,0-.62,0-.59,0-.9a5.57,5.57,0,0,0-.12-1.18,2.25,2.25,0,0,1-.06-.36,2.46,2.46,0,0,1,.09-.44c0-.15.06-.32.09-.5a1.61,1.61,0,0,0,.1-.36l.08-.43a9.59,9.59,0,0,0,.16-3.13v-.2a11.31,11.31,0,0,0-.28-2,9.39,9.39,0,0,0-.68-2,5.46,5.46,0,0,0-1.1-1.45l-.24-.25A5,5,0,0,0,271,262a6.91,6.91,0,0,0,1.28-1.64,5.38,5.38,0,0,0,.55-1.63c0-.11,0-.21.07-.32a10.64,10.64,0,0,0,.28-1.84c0-.13,0-.26.05-.4a5.82,5.82,0,0,0,.09-1.4c0-.55-.08-1.12-.17-1.68-.07-.38-.1-.76-.14-1.13l0-.33a9.27,9.27,0,0,0-.14-.92,4.09,4.09,0,0,1-.09-.55v-.28c0-.41,0-.82,0-1.22a5,5,0,0,1,.1-.66c.05-.28.1-.56.14-.84.06-.51.13-1,.22-1.52,0-.29.08-.59.11-.9a5,5,0,0,1,.08-.65c.09-.44.21-1,.36-1.46a7,7,0,0,1,.27-.72c.1-.25.21-.51.3-.76a6.57,6.57,0,0,1,.26-.61c.14-.3.28-.61.39-.92s.22-.7.31-1.05.11-.41.18-.61l.1-.28c.16-.48.32-1,.45-1.44a15.71,15.71,0,0,0,.31-1.55l.05-.3.09-.42a6.31,6.31,0,0,0,.19-1.55,8,8,0,0,0-.41-2.09,4.48,4.48,0,0,0-.54-1.14,10.6,10.6,0,0,0,1.53-.61,9.42,9.42,0,0,0,1.77-1.12,7.07,7.07,0,0,0,.69-.65l.31-.3.36-.19a6.41,6.41,0,0,0,.87-.47l.38-.26c.27-.18.53-.36.8-.52s.45-.3.66-.45.35-.24.54-.35l.65-.42c.19-.12.38-.25.58-.36s.7-.41,1.12-.62l.5-.21c.29-.12.58-.24.87-.38s.73-.4,1.08-.61l.29-.17c0,.1.08.22.14.32a7.93,7.93,0,0,0,1.55,1.91,7.81,7.81,0,0,0,2.06,1.31l.25.12a6,6,0,0,0,2.17.69l.28,0a4.94,4.94,0,0,1,.76.09,4.59,4.59,0,0,1,.88.56l.13.09c.33.24.65.49,1,.76l.31.24a18.14,18.14,0,0,0,1.62,1.06l.36.24a8.61,8.61,0,0,0,1.19.73,9.16,9.16,0,0,0,1.34.52l.77.28a8.3,8.3,0,0,0,1.5.47,8.39,8.39,0,0,0,1.7.16h.43a6,6,0,0,0,2-.39,3,3,0,0,0,.39-.14,5.83,5.83,0,0,0,2.12-1.42,5.33,5.33,0,0,0,1.16-2.31,5.5,5.5,0,0,0,.13-2.58,7.41,7.41,0,0,0-.74-2.09,13.07,13.07,0,0,0-1-1.69c-.34-.46-.69-.86-1-1.25L310,219a4.82,4.82,0,0,1-.35-.44,9.59,9.59,0,0,0-.77-.91,9.15,9.15,0,0,0-.91-.78,3,3,0,0,1-.38-.31,8.8,8.8,0,0,1-.61-.65l-.44-.47-.26-.27c-.27-.28-.5-.52-.71-.76a9.57,9.57,0,0,1-.64-.89l-.12-.17-.35-.6c-.12-.21-.24-.43-.38-.66a7.16,7.16,0,0,0-.56-.78c-.12-.16-.25-.33-.38-.53a6.43,6.43,0,0,0-1.86-1.85,6.7,6.7,0,0,0-2.33-1.06,7.08,7.08,0,0,0-2.49-.08,7.22,7.22,0,0,0-3.82,1.63,2.24,2.24,0,0,0-.63.48l-.25.27-.06.05c-.12-.27-.25-.53-.38-.78s-.33-.54-.51-.81a2.29,2.29,0,0,0-.24-.59,8.75,8.75,0,0,0-1.11-1.46l-.07-.09a7.21,7.21,0,0,0-1.65-1.36,6.31,6.31,0,0,0-2.1-.89,5,5,0,0,0-1.85.05l-.32.05h-.31a5.2,5.2,0,0,0-1.64.26,7.39,7.39,0,0,0-1.29.62l-.36.19c-.53.28-1,.6-1.48.9l-.37.23c-.34.22-.69.44-1,.69a6,6,0,0,0-.81.76,2.73,2.73,0,0,1-.38.38c-.16.12-.34.23-.52.34s-.51.31-.76.48l-.58.45a5.34,5.34,0,0,1-.58.43,9.52,9.52,0,0,1-1,.5l-.26.12a5.78,5.78,0,0,1-.75.26l-.62.19a8.75,8.75,0,0,1-1.25.36c-.56.11-1.08.21-1.55.34a10.53,10.53,0,0,0-1.72.64l-.27.12a5.45,5.45,0,0,0-1.58.9,7.43,7.43,0,0,0-1.37,1.61,9.92,9.92,0,0,0-.86,1.69,7.17,7.17,0,0,0-.43,1.87v.12a6.63,6.63,0,0,0,.05,1.87l0,.15a7.82,7.82,0,0,0,.49,1.93,8,8,0,0,0,.85,1.76c.06.09.14.19.2.29-.3.13-.59.28-.87.43a7.47,7.47,0,0,0-1.82,1.38l-.23.22a8.26,8.26,0,0,0-1.21,1.42,9.28,9.28,0,0,0-1,2.07,9,9,0,0,0-.34,2l0,.22a14.65,14.65,0,0,0,0,2c0,.22,0,.43,0,.65a8.22,8.22,0,0,0,0,1.11v.29a9.21,9.21,0,0,1,0,1.13,5.71,5.71,0,0,0,.05,1.21c0,.14,0,.34,0,.41a4.55,4.55,0,0,1-.12.53,6.73,6.73,0,0,0-.23,1.06,4.58,4.58,0,0,1-.15.64c-.08.32-.15.63-.2,1a6.24,6.24,0,0,0-.06,1.25,1.69,1.69,0,0,1,0,.39,3.24,3.24,0,0,1-.17.55,6.4,6.4,0,0,0-.31,1,9.17,9.17,0,0,0-.16,1,3.43,3.43,0,0,1-.08.56c-.06.24-.12.49-.17.72s-.13.56-.21.8a1.94,1.94,0,0,1-.18.35,8.86,8.86,0,0,0-.48,1c-.06.15-.11.32-.17.48-.05-.25-.08-.51-.12-.76s-.07-.49-.11-.73a8.6,8.6,0,0,0-.25-1,5.36,5.36,0,0,1-.14-.54c0-.3-.08-.6-.11-.9s-.05-.45-.08-.68-.07-.63-.1-.94l-.07-.64-.09-.7c0-.3-.07-.59-.1-.89s-.08-.59-.12-.89-.08-.46-.1-.7,0-.42,0-.64,0-.65,0-1,0-.45,0-.68,0-.63,0-.94a7,7,0,0,0-.19-1.12,3.77,3.77,0,0,1-.1-.48c0-.07,0-.27,0-.42a6.54,6.54,0,0,0,0-1.22,5.55,5.55,0,0,0-.13-.9,2.64,2.64,0,0,0,.08-.49,7.69,7.69,0,0,0-.18-1.8l-.05-.24a8.09,8.09,0,0,0-.6-2.07,7.15,7.15,0,0,0-1.21-1.68l-.08-.08a7.13,7.13,0,0,0-.72-.73,5.75,5.75,0,0,0,1.73-2.33,6.66,6.66,0,0,0,.32-2.55c0-.18,0-.35,0-.51V221a11.71,11.71,0,0,0-.08-2.28,10.66,10.66,0,0,0-.25-1.12,5.24,5.24,0,0,1-.18-.9,8.46,8.46,0,0,1,.11-1.24c0-.28.08-.57.11-.85a3.53,3.53,0,0,1,.22-.78,9.67,9.67,0,0,0,.37-1.29,11.68,11.68,0,0,0,.14-1.32,4.18,4.18,0,0,1,.09-.88l.18-.75a11.64,11.64,0,0,1,.37-1.39,3.84,3.84,0,0,1,.35-.57,6.82,6.82,0,0,0,.83-1.49,6.74,6.74,0,0,0,.36-1.79,4.15,4.15,0,0,1,.1-.69c.07-.23.15-.45.24-.68a13.57,13.57,0,0,0,.56-1.82,8.55,8.55,0,0,0,0-3.45,8.24,8.24,0,0,0-.64-1.91,4.69,4.69,0,0,0,.83-.43,7.93,7.93,0,0,0,2.13-2.36,7.16,7.16,0,0,0,.87-2.11c.05-.18.11-.37.17-.57a19.19,19.19,0,0,1,.73-1.85,3.51,3.51,0,0,1,.43-.6,7.37,7.37,0,0,0,.74-1.07,10.83,10.83,0,0,0,.57-1.27,6.49,6.49,0,0,1,.27-.63,4.24,4.24,0,0,1,.68-.73,4.64,4.64,0,0,0,.83-.92l.42-.71a7.52,7.52,0,0,1,.9-1.39c.19-.21.4-.41.61-.61a8.12,8.12,0,0,0,1.56-1.78,5.59,5.59,0,0,0,.55-1.25l.29.11a4,4,0,0,0,1.14.16,7.59,7.59,0,0,0,1.29-.14l.35-.06a6.34,6.34,0,0,0,2-.57,10.09,10.09,0,0,0,1.67-1.14,14.84,14.84,0,0,0,1.4-1.23,8.41,8.41,0,0,1,.89-.78c.39-.29.72-.52,1-.72s.78-.46,1.18-.68l.54-.26c.27-.12.55-.25.81-.39a8.87,8.87,0,0,0,.92-.58c.14-.1.28-.2.43-.29l.35-.2a14,14,0,0,0,1.21-.76,8.61,8.61,0,0,0,1-.92l.36-.35a12.11,12.11,0,0,0,1.36-1.4,9.51,9.51,0,0,0,1.15-1.86,6.24,6.24,0,0,0,.7-2.22,6.15,6.15,0,0,0-.32-2.51,6.37,6.37,0,0,0-1.13-1.93l-.1-.13a4.81,4.81,0,0,0-1.79-1.59,5.12,5.12,0,0,0-2.12-.39h-.24a9.1,9.1,0,0,0-2,.09l-.15,0a14.29,14.29,0,0,0-1.6.36l-.28.08c-.44.13-.88.26-1.29.41l-.62.22-.73.25-.85.26-.61.19-.55.16-.85.25-.71.22c-.21.07-.41.14-.62.19s-.49.08-.74.11l-.6.08c-.28,0-.57,0-.86.07l-.49,0a9.25,9.25,0,0,0-2.28.51,8.77,8.77,0,0,0-2.1,1.06,6.88,6.88,0,0,0-1.68,1.84,5.94,5.94,0,0,0-1.13,2.46,6.52,6.52,0,0,0-.06,1.09h-.17a10.31,10.31,0,0,0-1.79-.19h-.21a8.27,8.27,0,0,0-3.09.41,8.73,8.73,0,0,0-2.75,1.36,5.94,5.94,0,0,0-1.41,1.79,4.45,4.45,0,0,1-.33.55,12.31,12.31,0,0,0-1.43,2.35c-.12.28-.27.57-.43.88s-.44.83-.65,1.29a18.63,18.63,0,0,1-1.05,1.95,15,15,0,0,1-1.25,1.68c-.19.24-.38.49-.56.75a5.36,5.36,0,0,1-.71.87,12,12,0,0,0-1.86,2c-.14.18-.29.34-.43.5a5.77,5.77,0,0,0-1.3,1.91,6.54,6.54,0,0,0-.3,2.79l0,.35a6.6,6.6,0,0,0,1.14,3.43l0,0a5.66,5.66,0,0,0-2.48,2,8.94,8.94,0,0,0-1.37,2.84,5.25,5.25,0,0,0,0,2.15,5.86,5.86,0,0,1,0,.61,4.8,4.8,0,0,1-.18.65,6.58,6.58,0,0,0-.36,1.79l0,.59c0,.56,0,1.1-.08,1.6s0,.76,0,1.14a4.54,4.54,0,0,1,0,.9,19.51,19.51,0,0,1-.62,2,5.91,5.91,0,0,1-.43.89c-.19.36-.38.72-.54,1.09s-.28.7-.41,1-.27.72-.43,1.06a5.92,5.92,0,0,1-.45.75,9,9,0,0,0-.74,1.29,5.29,5.29,0,0,0-.43,2,3.15,3.15,0,0,1-.06.55,11.1,11.1,0,0,0-.43,2.68,2.13,2.13,0,0,1-.1.42,4.6,4.6,0,0,0-.14,2.57,5.1,5.1,0,0,0,1.91,2.55c.15.13.31.26.45.4l.38.39a11.14,11.14,0,0,0,1.4,1.27,7.32,7.32,0,0,0-.94.89,7.58,7.58,0,0,0-1.28,2.07,7.51,7.51,0,0,0-.41,1.94l0,.26a6,6,0,0,0,0,1.56c0,.16,0,.31,0,.46v.38c0,.49,0,1,.08,1.47a2.61,2.61,0,0,1,0,.56,7.81,7.81,0,0,0,.05,1.15,6.21,6.21,0,0,0,.26,1.12,3.53,3.53,0,0,1,.11.45,3.62,3.62,0,0,1,0,.57,8.7,8.7,0,0,0,0,1q0,.36,0,.72c0,.28,0,.56,0,.84s.09.65.15,1a3.94,3.94,0,0,1,.07,1.23c0,.29,0,.58,0,.93s0,1,0,1.46c0,.31,0,.64,0,1a3.76,3.76,0,0,1,0,.55c0,.53-.08,1.08-.12,1.63,0,.39,0,.79,0,1.18v.53a3.56,3.56,0,0,1,0,.47,7.09,7.09,0,0,0-.09,1.3,16.88,16.88,0,0,0,.16,1.86,8,8,0,0,0,.42,1.47l.15.39a5.55,5.55,0,0,0,1.25,2l.21.25a6.2,6.2,0,0,0,1.18,1.17,12.3,12.3,0,0,0,1.45.83l.14.07.1,0a6.06,6.06,0,0,0-.53.89l-.17.27a6.55,6.55,0,0,0-.94,1.95,11.19,11.19,0,0,0-.37,1.93,11.86,11.86,0,0,0,0,1.89,7.74,7.74,0,0,0,.12.91c.13.92-.28.87-.44.08-.13-.56-.34-1.38-.34-1.38a5.52,5.52,0,0,0-.49-1.52,1.74,1.74,0,0,1-.15-.26l-.11-.25a6.12,6.12,0,0,0-2.47-3l-.28-.22a6.09,6.09,0,0,0-1.23-.8l.1-.15a5.18,5.18,0,0,0,.66-1.8c0-.12,0-.24.09-.36l.08-.29a5.88,5.88,0,0,0,.34-1.94,9.28,9.28,0,0,0-.31-2.15l-.08-.3a8.35,8.35,0,0,0-.52-1.66,6.62,6.62,0,0,0-.62-1A3.05,3.05,0,0,1,233,252l-.39-1-.19-.49c-.09-.22-.16-.45-.23-.67s-.18-.55-.28-.82-.15-.44-.21-.66-.17-.56-.27-.84a7.72,7.72,0,0,0-.41-.93c-.08-.17-.17-.34-.23-.51a4.64,4.64,0,0,1-.11-.51,7.88,7.88,0,0,0-.24-1,7,7,0,0,0-.46-1,2.69,2.69,0,0,1-.19-.42,2.9,2.9,0,0,1-.07-.44,8,8,0,0,0-.22-1.14,8.78,8.78,0,0,0-.37-1,3.08,3.08,0,0,1-.21-.53,3.55,3.55,0,0,1-.08-.47,7.2,7.2,0,0,0-.22-1.11l-.43-1.56a8.86,8.86,0,0,0-.34-.94l-.09-.23a.78.78,0,0,0,0-.14,8.82,8.82,0,0,0-.69-2.14,6.46,6.46,0,0,0-1.22-1.75l-.14-.16a7.53,7.53,0,0,0-1.61-1.42l.11-.15a6.21,6.21,0,0,0,1-2.41,7.84,7.84,0,0,0,.2-2.4,10.7,10.7,0,0,0-.5-2.11,8.58,8.58,0,0,0-.62-1.43c-.07-.14-.14-.27-.2-.4a3.06,3.06,0,0,1-.13-.46,7.59,7.59,0,0,0-.24-.85c-.06-.19-.14-.37-.21-.55a6.28,6.28,0,0,1-.25-.73c-.06-.22-.13-.44-.2-.66a5.09,5.09,0,0,1-.18-.67c-.09-.46-.15-.93-.2-1.4a3.67,3.67,0,0,1,0-.45,8.18,8.18,0,0,0,0-1c0-.23,0-.46-.06-.68s-.05-.52-.05-.78,0-.56-.06-.83a4.26,4.26,0,0,1,0-.61c0-.26,0-.53.07-.79s.05-.48.07-.71,0-.43.08-.64.1-.61.12-.92.06-.37.09-.56c.06-.35.11-.7.14-1a6.92,6.92,0,0,0-.07-1.27,2.09,2.09,0,0,1,0-.43c0-.64,0-1.21-.05-1.75a8.52,8.52,0,0,0-.37-2.21,6.66,6.66,0,0,0-.88-1.71,3.46,3.46,0,0,0,.53-.35,7.6,7.6,0,0,0,1.52-1.76,8.85,8.85,0,0,0,.92-2,8.51,8.51,0,0,0,.35-1.66l.05-.32a4,4,0,0,1,.18-.59c.11-.3.21-.6.29-.91l.15-.67a7.38,7.38,0,0,1,.21-.87c.18-.54.36-1.06.54-1.53.11-.27.2-.53.29-.78s.19-.53.29-.76a6.22,6.22,0,0,1,.43-.76,5.55,5.55,0,0,0,.45-.8,7.33,7.33,0,0,1,.62-1.16c.18-.28.34-.58.5-.89l.34-.62.28-.42a8.63,8.63,0,0,0,.73-1.2,8.07,8.07,0,0,0,.57-1.77,8.85,8.85,0,0,0,1,.15,4.1,4.1,0,0,0,.49,0,5.83,5.83,0,0,0,1.95-.38l.23-.07a5.82,5.82,0,0,0,1.78-.86l.32-.22a7.42,7.42,0,0,0,1.26-1,18.51,18.51,0,0,0,1.16-1.46,6.48,6.48,0,0,0,.52-.9l.11-.22a7.72,7.72,0,0,1,.61-.53l.3-.25a2.91,2.91,0,0,1,.3-.17,6.26,6.26,0,0,0,.9-.54l.64-.5.54-.42.24-.18c.33-.26.68-.52,1-.8l.34-.27a10.88,10.88,0,0,0,1.06-.91,5.88,5.88,0,0,0,.85-1.14c.08-.13.16-.26.25-.38l.28-.33a7.86,7.86,0,0,0,.92-1.23,5.92,5.92,0,0,0,.6-1.66,2.58,2.58,0,0,1,.09-.35,6.45,6.45,0,0,0,.27-2.34v-.18a5.15,5.15,0,0,0-.57-2.27,6.33,6.33,0,0,0-1.44-1.72,5.3,5.3,0,0,0-2.2-1.27,6.12,6.12,0,0,0-2.36-.12c-.11,0-.23,0-.35,0a5.36,5.36,0,0,0-1.66.28,14.37,14.37,0,0,0-1.67.68,5.26,5.26,0,0,0-1.09.72c-.1.07-.18.15-.28.21-.26.14-.51.29-.75.44a5.21,5.21,0,0,1-.49.29c-.18.09-.37.15-.55.22a7.33,7.33,0,0,0-.86.34l-.63.27-.72.3-.54.25a7.67,7.67,0,0,1-.72.33,6,6,0,0,0-.93.49,1.64,1.64,0,0,1-.28.16,3.76,3.76,0,0,1-.62.14l-.71.16a6.37,6.37,0,0,0-1.75.77l-.31.19a2.13,2.13,0,0,1-.35.14,4.69,4.69,0,0,0-1.69,1,7.38,7.38,0,0,0-1.55,2,4.68,4.68,0,0,0-.36,2.36c0,.12,0,.23,0,.34s0,.19,0,.29,0,.35,0,.55h-.19a8.8,8.8,0,0,0-1.61-.18,8,8,0,0,0-2.21.34,8.21,8.21,0,0,0-2,.94,7.57,7.57,0,0,0-1.51,1.26l-.14.14-.27.26a7.09,7.09,0,0,0-1,1.11,5.44,5.44,0,0,0-2.14-1.09l-.1,0a5.55,5.55,0,0,0-2.25-.27,9.29,9.29,0,0,0-1.95.5,16.89,16.89,0,0,0-1.66.66c-.51.23-1,.47-1.47.71-.29.15-.56.32-.82.48a2.39,2.39,0,0,1-.43.25l-.78.38-.58.29a3.52,3.52,0,0,1-.43.13,9,9,0,0,0-1,.32l-.25.12-1,.43c-.22.08-.44.18-.67.28a3.36,3.36,0,0,1-.58.24c-.41.13-.84.26-1.3.36l-.18,0a7.63,7.63,0,0,0-2,.68,8.69,8.69,0,0,0-1.9,1.37,7.44,7.44,0,0,0-1.41,2,6,6,0,0,0-.72,2.6,5.91,5.91,0,0,0,.46,2.23,2,2,0,0,0,.09.26,2.25,2.25,0,0,0-.78.08,9.08,9.08,0,0,0-1.85.24,5.07,5.07,0,0,0-1.93,1.05,2.51,2.51,0,0,1-.32.25l-.38.21a5.44,5.44,0,0,0-1.72,1.25l-.18.2a8.47,8.47,0,0,0-1.31,1.83,6.33,6.33,0,0,0-.51,1.81,4.71,4.71,0,0,1-.09.52l-.07.27a10.05,10.05,0,0,0-.36,2l-.12,1.94c0,.31,0,.63,0,1a7.46,7.46,0,0,1,0,.85,15.54,15.54,0,0,1-.28,1.66,3.82,3.82,0,0,1-.22.37,7.84,7.84,0,0,0-.61,1.14,6.53,6.53,0,0,0-.31,1.21c0,.15-.06.37-.07.4a3.27,3.27,0,0,1-.28.37,5.37,5.37,0,0,0-.85,1.39,5.2,5.2,0,0,0-.32,1.78,2.17,2.17,0,0,1,0,.36c0,.14-.08.28-.12.41a4.86,4.86,0,0,0-.27,1.84l0,.18a7.43,7.43,0,0,0,.42,2.23,5.8,5.8,0,0,0,1.59,2.07l.2.19.23.18a3.87,3.87,0,0,0-1.28,1.1,9.78,9.78,0,0,0-1,1.79l-.07.18a4.3,4.3,0,0,0-.28,2.28c0,.09,0,.18,0,.24s0,.27,0,.4a5.81,5.81,0,0,0,0,1.92,6.26,6.26,0,0,0,.48,1.36,2.27,2.27,0,0,1,.18.44,4.69,4.69,0,0,1,.12.81c0,.24.05.48.08.72a8,8,0,0,1,.05,1.14v.5a6.75,6.75,0,0,1-.11,1c0,.22-.06.44-.08.66a8.88,8.88,0,0,0-.05,1,6.78,6.78,0,0,1,0,.73,8.61,8.61,0,0,0-.14,1.14,5.43,5.43,0,0,1-.08.71c-.06.26-.13.51-.21.77s-.21.73-.3,1.1a13.17,13.17,0,0,0-.25,1.83v.14a14.46,14.46,0,0,0,0,1.89c0,.07,0,.14-.05.21a3.82,3.82,0,0,0-.14,2.09,4.38,4.38,0,0,0,1.09,1.84l.19.21a6.74,6.74,0,0,0,1.77,2l.1.07a9,9,0,0,0,2,1.17A7.75,7.75,0,0,0,184,248a8.14,8.14,0,0,0-.72,1.12,6.87,6.87,0,0,0-.64,2.16,6.55,6.55,0,0,0,0,2.21l0,.35a4.94,4.94,0,0,0,.35,1.71,11.11,11.11,0,0,0,.89,1.69,5.72,5.72,0,0,0,.89,1.06,3,3,0,0,1,.25.26l1,1.28c.15.19.27.39.4.59s.36.57.56.85.39.49.6.73.33.39.47.59a5.08,5.08,0,0,1,.35.59,9.42,9.42,0,0,0,.51.87c.12.19.25.38.38.56s.38.54.55.81.35.64.53,1l.51.94c.18.32.36.64.52,1a7.73,7.73,0,0,0,.57,1c.09.13.18.26.26.4l.19.36c.19.35.38.71.6,1.05.07.12.13.24.19.36a5.81,5.81,0,0,0,.63,1.08,8.3,8.3,0,0,0,.81.9c.11.11.22.21.32.33l.26.3a10.75,10.75,0,0,0,.89.95,6.74,6.74,0,0,0,2.06,1.23,5.57,5.57,0,0,0,1.72.36l.39,0c.34.05.65.07,1,.09a.08.08,0,0,0,0,.05,6.33,6.33,0,0,0-.57,2.09,8.65,8.65,0,0,0,.38,3,11,11,0,0,0,1.2,2.58,11.34,11.34,0,0,0,1.13,1.35c.17.17.34.35.49.53a7.87,7.87,0,0,0,1,.91,3.62,3.62,0,0,1,.47.42l.53.63c.24.28.48.56.7.86s.48.69.71,1.05l.35.54a4.63,4.63,0,0,1,.28.61,8.51,8.51,0,0,0,.5,1.1,5.88,5.88,0,0,1,.27.69,9.48,9.48,0,0,0,.38,1,9,9,0,0,0,.53,1,3.83,3.83,0,0,1,.31.58c.08.24.14.49.2.74s.2.78.33,1.15c.26.78.49,1.4.73,2,.06.16.12.32.19.48a10,10,0,0,0,.7,1.57,6,6,0,0,0,1.19,1.38,4.31,4.31,0,0,1,.37.37l.13.16a6.67,6.67,0,0,0,2.32,2,4.62,4.62,0,0,0,1.94.36h1a4.91,4.91,0,0,1,.5.1l.38.08-.12.63a14.4,14.4,0,0,0-.16,2.53,10.07,10.07,0,0,0,.34,2.11l.14.63a25.28,25.28,0,0,0,.65,2.47c.28.85.62,1.65.94,2.39q.15.33.27.66a10.4,10.4,0,0,0,.84,1.77,9.8,9.8,0,0,0,1.93,2.32,9,9,0,0,0,2,1.23l.27.13a10.24,10.24,0,0,0-.81.92,7.67,7.67,0,0,0-1.44,3.05,12.15,12.15,0,0,0-.19,3,10.19,10.19,0,0,0,.6,3,9.32,9.32,0,0,0,1.57,2.76,9.05,9.05,0,0,0,2.45,1.92,11,11,0,0,0,2,.88l.44.16c.73.28,1.47.56,2.23.8.26.09.56.23.88.38s.74.35,1.12.49a11.46,11.46,0,0,1,1.73.74,9.48,9.48,0,0,0,2.37.87l.44.12a8.48,8.48,0,0,0,2.28.38h.1a11.46,11.46,0,0,0,5.24-1.6,5.48,5.48,0,0,0,1.46-1.61,4.73,4.73,0,0,1,.32-.46c.1-.11.2-.23.31-.34a11.15,11.15,0,0,0,.8-1l.22.22a7.44,7.44,0,0,0,2,1.36,8.46,8.46,0,0,0,2.19.69,9.63,9.63,0,0,0,1.68.13h.5a8,8,0,0,0,1.7-.27l.73-.15a8.35,8.35,0,0,0,3.43-1.39l.1-.07c.18-.11.37-.2.55-.29a9.67,9.67,0,0,0,.9-.48c.31-.19.6-.41.89-.63l.5-.35.4-.26c.37-.24.73-.47,1.08-.73.51-.39,1-.81,1.4-1.23a11,11,0,0,0,1.2-1.37l.32-.4a7.83,7.83,0,0,0,1-1.38,10.87,10.87,0,0,0,.73-1.94l0-.11a11,11,0,0,0,.39-1.86,5.7,5.7,0,0,0-.18-1.84l-.07-.37c0-.13-.05-.26-.07-.4a8.18,8.18,0,0,0-.31-1.46,9.23,9.23,0,0,0-.62-1.39l-.17-.33a10.49,10.49,0,0,0-.84-1.49,10,10,0,0,0,1-.68l.31-.23a7.71,7.71,0,0,0,1.29-1.12,12.81,12.81,0,0,0,1.18-1.66,13.57,13.57,0,0,0,.95-1.74,10.66,10.66,0,0,0,.52-1.53l.1-.32a8.61,8.61,0,0,0,.28-1.48c0-.15,0-.29.07-.43a4,4,0,0,1,.11-.5,6.35,6.35,0,0,0,.24-1.46v-.24a6.64,6.64,0,0,0,1.63,1,7.45,7.45,0,0,0,2.09.55,8.38,8.38,0,0,0,.86,0,6.9,6.9,0,0,0,1.53-.16,7,7,0,0,0,1.83-.77l.25-.14a9.19,9.19,0,0,0,1.4-1l.26-.21.42-.31c.32-.23.68-.5,1-.81a10.44,10.44,0,0,0,.73-.76,6,6,0,0,1,.43-.44,6.28,6.28,0,0,1,.56-.42l.6-.44a3.21,3.21,0,0,1,.46-.28,7.77,7.77,0,0,0,.78-.48c.21-.14.41-.3.61-.46s.36-.28.55-.4l.65-.43a4.35,4.35,0,0,1,.57-.38l.37-.13a6.46,6.46,0,0,0,1-.39c.26-.13.51-.28.76-.43a4,4,0,0,1,.53-.3l.7-.35c.21-.11.42-.22.64-.31l.83-.31.59-.21a7.71,7.71,0,0,1,.77-.26l.67-.21a10.2,10.2,0,0,0,1-.41l.55-.23.15-.06c.51-.18,1-.37,1.5-.59a2.9,2.9,0,0,1,.41-.16,5.18,5.18,0,0,0,2.77-2l.16-.2a5.72,5.72,0,0,0,1.16-2.2,8.71,8.71,0,0,0,.33-2,10.56,10.56,0,0,0-.16-1.95,7.46,7.46,0,0,0-.42-1.41c0-.12-.09-.24-.13-.37s-.07-.27-.11-.41l0-.15a3.57,3.57,0,0,0,.84.17h.29a6.1,6.1,0,0,0,1.86-.35l.35-.11a5.85,5.85,0,0,0,1.77-.9l.33-.22c.12-.07.25-.12.38-.18a4.45,4.45,0,0,0,2-1.52,5.94,5.94,0,0,0,.77-1.87,4,4,0,0,1,.15-.52,9.54,9.54,0,0,0,.4-1.57,6.18,6.18,0,0,1,.12-.62c.11-.39.21-.77.32-1.13l.22-.8c.1-.35.16-.7.23-1.05a5.83,5.83,0,0,1,.15-.7c.07-.27.15-.53.22-.8s.15-.55.23-.82l.15-.19a4.47,4.47,0,0,0,.86-1.48,4.58,4.58,0,0,0,.17-1.64,2.43,2.43,0,0,1,0-.27c0-.1.13-.25.2-.39a7.63,7.63,0,0,0,.55-1.2,6.44,6.44,0,0,0,.25-1.54,4.93,4.93,0,0,1,0-.54l.07-.37a9.14,9.14,0,0,0,.24-1.72c0-.16,0-.32.05-.47a6,6,0,0,0,0-1.8,4.75,4.75,0,0,0-.89-1.94l-.2-.31-.05-.09a9.05,9.05,0,0,0-.56-.91c.16-.12.33-.24.49-.38a7.69,7.69,0,0,0,1.75-2.07,7.19,7.19,0,0,0,.85-2.6A9.9,9.9,0,0,0,322.5,251.49Zm-30.13-34.28c.06-.13.12-.28.18-.42l.26-.59a6.75,6.75,0,0,1,.47-1,11.48,11.48,0,0,1,.75-1.06l.13-.18a6.93,6.93,0,0,1,.56-.64,2.31,2.31,0,0,0,.39-.31,3.68,3.68,0,0,1,.87-.65,3.45,3.45,0,0,1,1-.29,3.2,3.2,0,0,1,1,0,2.77,2.77,0,0,1,.85.44,2,2,0,0,1,.62.59c.21.32.42.6.62.85a3.81,3.81,0,0,1,.27.37c.12.18.21.36.31.53s.34.6.53.88l.11.17a12.13,12.13,0,0,0,.93,1.28c.26.31.57.63.92,1l.25.26.31.34c.25.28.53.59.85.9a9.06,9.06,0,0,0,.73.61,4.54,4.54,0,0,1,.48.39c.15.16.28.33.42.51s.34.45.53.67l.15.16c.28.32.56.63.77.92a7.87,7.87,0,0,1,.64,1.11,3.78,3.78,0,0,1,.35.93,1.49,1.49,0,0,1-.06.67,2.44,2.44,0,0,1-.18.53,2.2,2.2,0,0,1-.64.37,2.34,2.34,0,0,1-.83.19,4.42,4.42,0,0,1-1.13-.08,3.73,3.73,0,0,1-.78-.26l-.46-.17-.48-.16a8.66,8.66,0,0,1-.83-.32,6,6,0,0,1-.61-.39c-.21-.14-.4-.28-.67-.44a12.18,12.18,0,0,1-1.15-.75l-.3-.23c-.38-.29-.74-.57-1.11-.84l-.12-.09a8,8,0,0,0-1.78-1.06,6.51,6.51,0,0,0-2.06-.4l-.24,0a4.39,4.39,0,0,1-.66-.28l-.31-.15a3.89,3.89,0,0,1-1-.58,3.54,3.54,0,0,1-.72-.87,2.9,2.9,0,0,1-.31-1,5.77,5.77,0,0,1-.09-.83C292.27,217.62,292.32,217.41,292.37,217.21Zm-26.52-51a3.25,3.25,0,0,1,.41-.7,4.09,4.09,0,0,1,.64-.78,4.36,4.36,0,0,1,1.06-.52,4.67,4.67,0,0,1,1.17-.28l.42,0c.42,0,.83-.06,1.23-.12l.48-.06a11,11,0,0,0,1.15-.19,8.14,8.14,0,0,0,1-.3c.16-.05.33-.11.5-.15l.95-.28.52-.16.69-.21.75-.23c.32-.09.67-.21,1-.35l.53-.19c.35-.12.73-.23,1.12-.35l.28-.08c.33-.1.73-.17,1.14-.25l.16,0a5.93,5.93,0,0,1,1.07,0h.67l.24.3.13.17a2.52,2.52,0,0,1,.44.68,1.64,1.64,0,0,1,.1.72,5,5,0,0,1-.33.8,4.65,4.65,0,0,1-.59,1,8.66,8.66,0,0,1-.91.93l-.5.48a4.37,4.37,0,0,1-.52.49c-.24.17-.51.33-.81.5l-.43.25-.66.43a4.32,4.32,0,0,1-.5.33l-.58.28q-.37.16-.75.36c-.47.25-.93.52-1.38.8a15.56,15.56,0,0,0-1.43,1,13.76,13.76,0,0,0-1.33,1.17c-.31.31-.67.62-1,.9a10.42,10.42,0,0,1-1,.7,4.22,4.22,0,0,1-.67.14l-.42.07-.47.09a3.59,3.59,0,0,1-.63-.46,4.93,4.93,0,0,1-.67-.79l-.38-.48-.13-.16a2.18,2.18,0,0,0-.09-.23c-.11-.22-.24-.46-.39-.73s-.17-.49-.27-.74c-.17-.42-.34-.88-.5-1.37l-.17-.51c-.1-.29-.2-.6-.29-.92a1.63,1.63,0,0,0-.11-.31A1.63,1.63,0,0,1,265.85,166.25Zm-37.54,1.43c.1-.05.2-.08.3-.12a6.18,6.18,0,0,0,.87-.38l.43-.25a3.45,3.45,0,0,1,.59-.31l.51-.11a8.29,8.29,0,0,0,1.11-.26,5.58,5.58,0,0,0,1.2-.59,2.79,2.79,0,0,1,.28-.16c.35-.14.67-.3,1-.46l.45-.21c.17-.08.34-.14.51-.21s.61-.24.91-.38c.15-.08.32-.13.49-.2a8.69,8.69,0,0,0,.91-.37,9.37,9.37,0,0,0,.91-.51l.52-.31a6.18,6.18,0,0,0,.91-.63,2.86,2.86,0,0,1,.3-.22c.41-.2.88-.37,1.23-.5a4.38,4.38,0,0,1,.46,0c.23,0,.45,0,.67-.05a1.76,1.76,0,0,1,.7,0,1.17,1.17,0,0,1,.42.29,3.22,3.22,0,0,1,.56.59,4.38,4.38,0,0,1,0,.5l0,.23a2.31,2.31,0,0,1-.12.8c-.05.18-.1.38-.15.57a3.14,3.14,0,0,1-.14.51,4,4,0,0,1-.44.55l-.39.47a7.46,7.46,0,0,0-.54.8c-.09.13-.2.32-.25.37a7.75,7.75,0,0,1-.65.55l-.47.37c-.27.23-.56.44-.83.65l-.26.2-.6.47-.56.43a2.29,2.29,0,0,1-.31.18,5.64,5.64,0,0,0-1.06.67l-.26.22a11.63,11.63,0,0,0-1,.92,4.62,4.62,0,0,0-.83,1.25,1.45,1.45,0,0,1-.17.32,11,11,0,0,1-.8,1,4.45,4.45,0,0,1-.54.4l-.45.32a3.83,3.83,0,0,1-.58.23l-.28.09a1.51,1.51,0,0,1-.67.13,2,2,0,0,1-.62-.11l-.46-.24c-.14-.07-.32-.16-.43-.23a1.5,1.5,0,0,1-.09-.18,5.86,5.86,0,0,0-.6-1,5.24,5.24,0,0,0-.71-.75l-.25-.24-.06-.23a5.71,5.71,0,0,0-.43-1.2l-.29-.53c-.13-.24-.28-.5-.41-.78,0-.09-.09-.18-.14-.27a4.36,4.36,0,0,0,0-.51c0-.19,0-.38,0-.58s0-.24,0-.34A6,6,0,0,1,228.31,167.68ZM266,219.24a4.21,4.21,0,0,1,.15-.81,6,6,0,0,1,.5-1,2.84,2.84,0,0,1,.55-.66,3.68,3.68,0,0,1,.42-.19l.39-.17a7.12,7.12,0,0,1,1-.4c.39-.11.82-.19,1.31-.28a13.81,13.81,0,0,0,1.82-.52l.43-.13a9.13,9.13,0,0,0,1.34-.48l.25-.11c.46-.22.93-.44,1.4-.72a9.16,9.16,0,0,0,1.06-.76l.39-.3.51-.32a8,8,0,0,0,.93-.63,6.42,6.42,0,0,0,.87-.82,4,4,0,0,1,.29-.29,6.15,6.15,0,0,1,.68-.45l.45-.29c.36-.24.75-.49,1.11-.68l.48-.26a5.88,5.88,0,0,1,.55-.3c.13,0,.25,0,.38,0a5.69,5.69,0,0,0,.72,0l.51-.08.32-.07a3.1,3.1,0,0,1,.68.34,3.22,3.22,0,0,1,.67.55l.08.09.25.29a2,2,0,0,0,.28.63q.18.28.36.54a4.89,4.89,0,0,1,.38.59,8.86,8.86,0,0,1,.52,1.14,7,7,0,0,1,.37,1.08,3.56,3.56,0,0,1,0,.66l0,.35a4.42,4.42,0,0,1-.09,1,.94.94,0,0,0,0,.16,6.57,6.57,0,0,0-.23.79l-.16.12-.43.34a6.08,6.08,0,0,1-.89.61l-.38.23a7.63,7.63,0,0,1-.73.42,5,5,0,0,1-.59.25l-.74.32c-.58.28-1.09.58-1.45.79l-.74.47-.53.33c-.26.16-.52.34-.78.52s-.31.22-.48.32l-.92.6-.36.24a2.47,2.47,0,0,1-.36.19,6.8,6.8,0,0,0-1,.57,6.1,6.1,0,0,0-.89.8,2.47,2.47,0,0,1-.28.28,5.24,5.24,0,0,1-1,.61,6.14,6.14,0,0,1-1.08.44h-1.2a7.07,7.07,0,0,1-1.22-.08l-.48-.06a4.21,4.21,0,0,1-.77-.13,8.43,8.43,0,0,1-1.19-.48,9.88,9.88,0,0,1-1.1-.67l-.09-.06a8,8,0,0,1-.93-.7,5.56,5.56,0,0,1-.63-.81,4.93,4.93,0,0,1-.4-.9,3.45,3.45,0,0,1-.23-.92l0-.17a4.71,4.71,0,0,1,0-.77Zm-7.51,36.27a6,6,0,0,1,.09-1c.11-.46.26-.93.4-1.34s.34-1,.51-1.46c.06-.15.15-.29.22-.43a5.63,5.63,0,0,0,.51-1.12c.11-.35.2-.73.3-1.13,0-.2.09-.4.14-.61a8,8,0,0,0,.19-1.16,5.81,5.81,0,0,1,.09-.58,4.42,4.42,0,0,1,.15-.48,7.56,7.56,0,0,0,.36-1.2,5.83,5.83,0,0,0,.07-1.34c0-.15,0-.35,0-.42s.08-.39.13-.58a8.59,8.59,0,0,0,.24-1.12A3,3,0,0,1,262,241a7.6,7.6,0,0,0,.25-1.2,6,6,0,0,0-.05-1.38,2.56,2.56,0,0,1,0-.39,12.06,12.06,0,0,0,0-1.72V236a4.58,4.58,0,0,1,0-.64c0-.35,0-.7,0-1a10.91,10.91,0,0,1,0-1.42l0-.25a4,4,0,0,1,.63-2.08,5.67,5.67,0,0,1,.63-.7l.25-.25a3.35,3.35,0,0,1,.8-.6,4.61,4.61,0,0,1,.95-.43l.31,0h.91a1.78,1.78,0,0,1,.63.08l.75.11a2.19,2.19,0,0,0,.68,0h0l.69.23a5,5,0,0,1,.8.3,6.11,6.11,0,0,1,.86.57c.06.09.1.18.15.26a5.57,5.57,0,0,0,.39.67l.25.36a2.59,2.59,0,0,1,.29.47,3.79,3.79,0,0,1,.2.88,3.36,3.36,0,0,1-.09.5c0,.2-.09.41-.13.63l0,.32c-.07.41-.13.79-.22,1.12s-.24.79-.38,1.19l-.1.29c-.09.28-.17.58-.25.87s-.12.47-.2.7-.17.39-.26.58-.29.65-.41,1-.14.38-.22.57c-.15.36-.29.72-.41,1.09-.19.66-.34,1.31-.45,1.8a10,10,0,0,0-.16,1.18,5.32,5.32,0,0,1-.06.56c-.1.58-.18,1.16-.25,1.74a5.12,5.12,0,0,1-.1.54,11.81,11.81,0,0,0-.17,1.23c0,.51,0,1,0,1.54v.26a7.35,7.35,0,0,0,.17,1.31,4.17,4.17,0,0,1,.08.49l0,.31c.05.49.09,1,.18,1.49a12.31,12.31,0,0,1,.12,1.26,2.73,2.73,0,0,1-.05.42,6.9,6.9,0,0,0-.09.78,5.42,5.42,0,0,1-.16,1.05c0,.17-.08.35-.11.52a3.42,3.42,0,0,1-.09.39,2.45,2.45,0,0,1-.47.63,3.32,3.32,0,0,1-.93.61,2.83,2.83,0,0,1-.72.06l-.38,0h0l-.38-.06a6.13,6.13,0,0,0-1.69-.14l-.09,0-.86-.18c-.33-.08-.67-.19-1-.3l-.28-.09-.65-.18a3,3,0,0,1-.58-.17,6.68,6.68,0,0,1-1-.52,4,4,0,0,1-.67-.56,5.05,5.05,0,0,1-.16-.5l-.07-.28a2.87,2.87,0,0,1-.08-.9Zm11.71,35.86a3.28,3.28,0,0,1-.44.9,3.65,3.65,0,0,1-.45.36l-.32.23a4.84,4.84,0,0,1-.91.58,6.52,6.52,0,0,1-1.17.33l-.32.07-.1,0c-.41,0-.83.05-1.26.11-.23,0-.47.09-.71.14h-.3a5.4,5.4,0,0,1-1.24-.2,5.14,5.14,0,0,1-1-.49l-.12-.08a4.8,4.8,0,0,1-.9-.79l-.39-.37a4.37,4.37,0,0,1-.45-.48,3.63,3.63,0,0,1-.42-1,5.84,5.84,0,0,1,0-.64c0-.18,0-.36,0-.54l0-.53a5.36,5.36,0,0,1,0-.68,6.68,6.68,0,0,1,.14-.73c0-.18.08-.37.11-.56s.15-.69.23-1l.08-.35c.06-.31.11-.62.15-.94s.05-.37.09-.56l.08-.36a8.77,8.77,0,0,0,.26-1.49c0-.16,0-.31.05-.47a7.39,7.39,0,0,0,.09-1.32,6.63,6.63,0,0,0-.17-1.25,2.39,2.39,0,0,1-.09-.45c-.05-.55-.09-1.1-.16-1.65,0-.21,0-.41,0-.61s0-.67-.08-1,0-.41,0-.62,0-.63,0-.95a7,7,0,0,0-.23-1.07c0-.15-.09-.34-.09-.4v-.14c0-.44-.07-.88-.07-1.29s0-.55,0-.82,0-.52,0-.78c0-.07.05-.28.09-.43a8.53,8.53,0,0,0,.18-1,7.79,7.79,0,0,0,0-1c0-.12,0-.24,0-.28a4.85,4.85,0,0,1,.25-.43c.11-.17.22-.34.31-.51a3.91,3.91,0,0,1,.63-.78c.15-.15.29-.31.44-.48a3.28,3.28,0,0,0,.24-.29,2.46,2.46,0,0,1,.39-.09,6.66,6.66,0,0,0,.77-.19,6.39,6.39,0,0,0,.73-.27l.09,0a10.71,10.71,0,0,0,1.61.12h.05a4.86,4.86,0,0,1,.84.26,4.07,4.07,0,0,1,.93.48,4,4,0,0,1,.78.68c.15.18.31.34.48.51a3,3,0,0,1,.28.3,5.63,5.63,0,0,1,.38,1.13,8.35,8.35,0,0,1,.16,1.26l0,.21a11.15,11.15,0,0,1,0,1.13c0,.24-.08.56-.14.9v0a2.06,2.06,0,0,0-.16.66,2.65,2.65,0,0,1-.09.49A7.55,7.55,0,0,0,269,273a5.57,5.57,0,0,0,.12,1.34c0,.11,0,.22.05.31,0,.37,0,.73,0,1.09v.54a4.93,4.93,0,0,1-.05.54,9,9,0,0,0-.06,1.1c0,.58,0,1.12.08,1.65a9.73,9.73,0,0,0,.13,1.1c0,.18.06.36.08.53,0,.39.08.76.14,1.11l.07.52c0,.21,0,.42,0,.62s0,.68.09,1c.09.55.17,1.08.25,1.58,0,.31.12.61.19.91s.1.39.13.59a4.56,4.56,0,0,1,0,.64c0,.27,0,.53,0,.8a3.39,3.39,0,0,1-.05.74l-.06.51c0,.27,0,.53,0,.79S270.2,291.3,270.19,291.37Zm-16.5-30.93a6.49,6.49,0,0,0,1.09-1.5,4.46,4.46,0,0,0,.56,1,7.36,7.36,0,0,0,1.61,1.49,7.59,7.59,0,0,0,1.28.72,7.65,7.65,0,0,0-1.24,1.61,3.45,3.45,0,0,1-.2.32c-.12.2-.26.42-.39.67a7.44,7.44,0,0,0-.79-1.73l-.08-.15a8.2,8.2,0,0,0-1.33-1.74,5.11,5.11,0,0,0-.66-.53Zm4.18,36.85a7.52,7.52,0,0,0-1.12,1.69,8.9,8.9,0,0,0-.47,1l0,0a9.33,9.33,0,0,0-.75-1l.09-.06.32-.23a7.09,7.09,0,0,0,1.53-1.31C257.52,297.29,257.74,297.14,257.87,297.29Zm-6-32.16a5.26,5.26,0,0,1,.38.74c0,.11,0,.23,0,.35a6.24,6.24,0,0,0,0,1,7.89,7.89,0,0,0,.17.95c0,.18.08.37.09.47,0,.41,0,.83,0,1.25v.21c0,.08,0,.27-.05.43a6.39,6.39,0,0,0-.1,1.07,8.74,8.74,0,0,0,.07,1,4.38,4.38,0,0,1,0,.51c0,.21,0,.42,0,.63s0,.62,0,.93a5.77,5.77,0,0,0,.16,1.24,2.33,2.33,0,0,1,.06.35c0,.55,0,1.08.07,1.62a3.87,3.87,0,0,1,0,.59,8.13,8.13,0,0,0,0,1.28c0,.21,0,.42,0,.62a8.23,8.23,0,0,0,.11,1.24c.09.56.21,1.12.32,1.66l0,.16a8.82,8.82,0,0,0,.36,1.21c.07.19.13.37.18.56s.09.41.12.61a9.22,9.22,0,0,0,.25,1.2c.13.44.28.88.43,1.3l.15.44a7.81,7.81,0,0,1,.27,1.06l.16.7a5.5,5.5,0,0,1,.16.85c0,.17,0,.33,0,.49a4.5,4.5,0,0,1,0,.74l0,.15a7.5,7.5,0,0,1-.25,1.06c-.06.07-.18.18-.26.26l-.38.38a5,5,0,0,1-.85.6c-.21.13-.42.28-.63.43a4.28,4.28,0,0,1-.38.27l-.12,0a8,8,0,0,1-1.1.35,4.41,4.41,0,0,1-.76,0,6.52,6.52,0,0,1-1.06-.08,6.45,6.45,0,0,0-.73-.11l-.21,0a4.1,4.1,0,0,1-.85-.11c-.22-.06-.45-.11-.68-.15l-.26-.05a3.64,3.64,0,0,1-.58-.52,2.55,2.55,0,0,1-.17-.33c-.11-.24-.23-.47-.4-.77a5.1,5.1,0,0,1-.47-.94,1,1,0,0,0,0-.17c0-.11,0-.23,0-.34,0-.27,0-.55,0-.83a9,9,0,0,1-.23-1.17v-.27c0-.31,0-.63-.05-.95a4.39,4.39,0,0,1,0-.58l0-.66c0-.33-.36-.65-.33-1s.05-.36.07-.54a10.71,10.71,0,0,0-.07-1.13,6,6,0,0,0-.11-1.29,2.6,2.6,0,0,1-.05-.39c0-.17.11-.35.12-.52a8.53,8.53,0,0,0,0-1.14c0-.37-.07-.73-.12-1.1,0-.18-.06-.36-.08-.54a2.06,2.06,0,0,1,0-.35,5.68,5.68,0,0,0,0-1.3c-.07-.53-.26-1.06-.36-1.6a6.69,6.69,0,0,0-.14-1.16c0-.13-.11-.31-.13-.37s0-.23,0-.35a5.76,5.76,0,0,0-.08-1.25,8.5,8.5,0,0,0-.2-1.2,1.69,1.69,0,0,1-.15-.37c0-.22.12-.45.08-.67s-.09-.58-.15-.86a5,5,0,0,1-.09-.66c0-.27.05-.53,0-.79s0-.41,0-.62a5.1,5.1,0,0,1-.12-.72,7.63,7.63,0,0,1,0-1.26,6.29,6.29,0,0,1,.23-1.17,2.31,2.31,0,0,1,.35-.68c.09-.13.17-.27.25-.4a4.3,4.3,0,0,1,.26-.39,6,6,0,0,1,.9-.57,4.74,4.74,0,0,1,.61-.23l.45-.15a5.8,5.8,0,0,1,.8-.17H247l.46-.06a4.14,4.14,0,0,1,.74-.06l.39,0a4,4,0,0,1,.79.08,4.1,4.1,0,0,1,.52.28l.43.24.27.14a3.45,3.45,0,0,1,.58.35,3.74,3.74,0,0,1,.61.78Zm-5.74-78.8a4,4,0,0,1,.45-.53c.23-.25.46-.51.68-.79l.06-.08a7.61,7.61,0,0,1,1.14-1.29,8.74,8.74,0,0,0,1.45-1.67c.13-.18.25-.36.44-.59a17.09,17.09,0,0,0,1.59-2.17,26.17,26.17,0,0,0,1.26-2.36c.17-.37.35-.72.52-1s.41-.79.58-1.16a8.24,8.24,0,0,1,1-1.55,9.7,9.7,0,0,0,.58-.93,4.64,4.64,0,0,1,.36-.56,5.35,5.35,0,0,1,1.46-.66,3.71,3.71,0,0,1,1.22-.19h.26l.23,0a4.46,4.46,0,0,1,1.37.18,2,2,0,0,0,.63.16c.48.28.92.57,1.31.85a3,3,0,0,1,.62.62,6.64,6.64,0,0,0,.28.62,3,3,0,0,0,.21.35,10.2,10.2,0,0,1,.15,1.21l0,.36a2.37,2.37,0,0,1-.24,1.42,5.55,5.55,0,0,1-.81.86c-.32.3-.63.6-.91.91a11.33,11.33,0,0,0-1.43,2.14l-.23.4-.16.15a7.57,7.57,0,0,0-1.4,1.59,6.75,6.75,0,0,0-.65,1.37,7.07,7.07,0,0,1-.34.77,5,5,0,0,1-.35.47,7.41,7.41,0,0,0-1,1.52,22.63,22.63,0,0,0-.89,2.28c-.08.24-.15.48-.21.7a4.53,4.53,0,0,1-.33.93,5.07,5.07,0,0,1-.91,1.14,3.57,3.57,0,0,1-1,.22l-.35,0a5,5,0,0,1-1.42-.16l-.11,0a7.23,7.23,0,0,1-1.67-.53c-.3-.13-.61-.25-.93-.37a4.64,4.64,0,0,1-1-.44,4.75,4.75,0,0,1-.83-1.11l-.24-.37a2.44,2.44,0,0,1-.46-1.24l0-.44A3.58,3.58,0,0,1,246.14,186.33ZM239,222c-.22-.21-.47-.42-.72-.63a4.28,4.28,0,0,1-.45-.4c0-.09,0-.19.07-.27a5.65,5.65,0,0,0,.26-1.39,6.27,6.27,0,0,1,.27-1.67,7.21,7.21,0,0,0,.21-1.46c0-.19,0-.46,0-.52a8.31,8.31,0,0,1,.44-.73,10,10,0,0,0,.75-1.29c.2-.44.38-.9.55-1.36.11-.29.22-.58.34-.87s.24-.49.38-.74a12.29,12.29,0,0,0,.7-1.49,25,25,0,0,0,.74-2.46,8.17,8.17,0,0,0,.17-1.94c0-.23,0-.47,0-.7.06-.63.08-1.28.1-1.91l0-.57a3.64,3.64,0,0,1,.17-.64,7.34,7.34,0,0,0,.35-1.57,6.39,6.39,0,0,0-.07-1.5c0-.19-.05-.48-.05-.53a4.81,4.81,0,0,1,.72-1.46,1.53,1.53,0,0,1,.68-.55,5.21,5.21,0,0,1,1,0l.46,0a3.9,3.9,0,0,1,.77.18,8.73,8.73,0,0,0,1.21.27,1.62,1.62,0,0,0,.38,0,7.13,7.13,0,0,1,1.39.51l.46.22a3.84,3.84,0,0,1,1.1.63,3.07,3.07,0,0,1,.59,1.37,4.17,4.17,0,0,1-.05,1.71,8.15,8.15,0,0,1-.38,1.2c-.1.28-.2.55-.29.83a7,7,0,0,0-.29,1.6,5.5,5.5,0,0,1-.1.7,4.72,4.72,0,0,1-.36.58,6.7,6.7,0,0,0-.86,1.57,18.38,18.38,0,0,0-.5,1.84c0,.22-.1.44-.16.66a8.53,8.53,0,0,0-.22,1.69,5.35,5.35,0,0,1-.07.77,6.37,6.37,0,0,1-.21.7,7.43,7.43,0,0,0-.43,1.76l-.09.68a12.37,12.37,0,0,0-.15,1.92,8.35,8.35,0,0,0,.32,1.88c.06.24.13.47.17.72a8.64,8.64,0,0,1,0,1.47v.49c0,.22,0,.45,0,.68a4.53,4.53,0,0,1-.05,1c0,.13-.23.37-.84.86l-.22.17a4.89,4.89,0,0,1-1,.69.2.2,0,0,1-.11,0l-.14,0a3.13,3.13,0,0,0-.43,0l-.27,0c-.26-.05-.52-.1-.77-.13a19,19,0,0,1-1.9-.42l-.47-.12a8.36,8.36,0,0,1-1.77-.59,5,5,0,0,1-1-.89Zm1.57,33.82a5.71,5.71,0,0,0-.21-.58,4,4,0,0,1-.2-.64,13.12,13.12,0,0,1-.11-1.37,4.47,4.47,0,0,1,0-.54c0-.31.08-.61.09-.92v-.59c0-.31,0-.62,0-.93,0-.55.09-1.08.13-1.59a7,7,0,0,0,0-1.23,4.35,4.35,0,0,1,0-.51c0-.55,0-1.1,0-1.71,0-.19,0-.38,0-.57a10.65,10.65,0,0,0,0-1.13,7.11,7.11,0,0,0-.16-1.14,4.51,4.51,0,0,1-.08-.53c0-.2,0-.41,0-.62s0-.69-.06-1c0-.18,0-.37,0-.55a8.86,8.86,0,0,0-.05-1.11,6.6,6.6,0,0,0-.26-1.15,2.5,2.5,0,0,1-.12-.45,4.64,4.64,0,0,1,0-.53,7.31,7.31,0,0,0,0-1.12c0-.36-.05-.73-.06-1.09v-.41c0-.28,0-.55-.07-.82a3,3,0,0,1-.05-.53l0-.31a4.27,4.27,0,0,1,.14-.83,2.86,2.86,0,0,1,.53-.85,4,4,0,0,1,.72-.62,2,2,0,0,1,.37-.11c.25-.07.5-.15.74-.24a7.4,7.4,0,0,0,.71-.32A2.54,2.54,0,0,1,243,229a5.25,5.25,0,0,1,.74,0h.8a5.79,5.79,0,0,1,.59,0c.15,0,.3,0,.46.06a5,5,0,0,1,.94.26,4.53,4.53,0,0,1,1,.51,3.94,3.94,0,0,1,.74.68l.08.09a4,4,0,0,1,.53.65,4.89,4.89,0,0,1,.25,1l.06.31a.5.5,0,0,0,0,.12,2.12,2.12,0,0,0-.14.91,7.38,7.38,0,0,0,.19,1.16,2.34,2.34,0,0,1,.09.46,2.83,2.83,0,0,1,0,.45,6.12,6.12,0,0,0-.06,1.19,6.54,6.54,0,0,0,.2,1.18,2.46,2.46,0,0,1,.09.44c0,.23,0,.46,0,.68s0,.65,0,1,0,.43,0,.65,0,.67,0,1,.08.67.13,1,.07.42.09.63.07.67.12,1l.14,1.23c0,.36.07.71.12,1.06s0,.41.07.62.08.69.13,1a8.31,8.31,0,0,0,.26,1.11,4.58,4.58,0,0,1,.14.53l.09.61c0,.35.1.69.17,1,0,.2.06.4.09.6a9.69,9.69,0,0,0,.16,1.06,6.57,6.57,0,0,1,.1,1.05v.22c0,.26,0,.51.07.76s0,.36,0,.39a3.88,3.88,0,0,1-.37.94,4.19,4.19,0,0,1-.49.8l-.4.21-.57.28a6,6,0,0,1-1,.48,5.05,5.05,0,0,0-.55.18,5.17,5.17,0,0,1-.66.19,3.38,3.38,0,0,1-.48,0,7.77,7.77,0,0,0-.83-.08H246c-.2,0-.41,0-.64,0s-.31,0-.28,0-.19-.1-.29-.15a5.65,5.65,0,0,0-.92-.45l-.59-.2a5.4,5.4,0,0,1-.61-.23l-.15-.08a8.38,8.38,0,0,1-.93-.52,2.19,2.19,0,0,1-.33-.37q-.18-.23-.36-.42A1.69,1.69,0,0,1,240.6,255.81Zm-9.62,10a4.49,4.49,0,0,1,.65.08,3.24,3.24,0,0,1,.37.27l.45.35a3.31,3.31,0,0,1,.72.61,4.91,4.91,0,0,1,.32.65l.13.3a5.46,5.46,0,0,0,.41.74l.18.31.1.39c.09.38.39.76.47,1.13s.06.45.08.68.15.6.2.9.13.52.2.83.21.53.24.76a4,4,0,0,1,0,.6,8.33,8.33,0,0,0,.06,1.16c.08.56.47,1.11.57,1.68a8.17,8.17,0,0,0,.16,1c.05.2.31.4.35.6a2.38,2.38,0,0,1,0,.46,6.55,6.55,0,0,0,.19,1.31,6.91,6.91,0,0,0,.41,1.24,2.18,2.18,0,0,1,.18.38l.14.42c.14.41.08.82.24,1.22a4.51,4.51,0,0,1,.17.52,11.15,11.15,0,0,0,.5,1.11,10.16,10.16,0,0,0,.33,1.07c.1.17.2.33.29.5s.17.39.25.59.17.62.32.92.07.74.28,1.28a9.76,9.76,0,0,0,.44.91,2.75,2.75,0,0,1,.23.45,6.36,6.36,0,0,1,.17,1l.06.42c0,.16,0,.34.06.53a1.55,1.55,0,0,0,0,.21,5.28,5.28,0,0,1,0,.56,2.87,2.87,0,0,1-.23,1,3.47,3.47,0,0,1-.65.94,3.19,3.19,0,0,1-.85.69,5.81,5.81,0,0,1-.89.29l-.39.11a8.46,8.46,0,0,0-.92.33,3.71,3.71,0,0,1-.61.21l-.49.09-.32.05a16.79,16.79,0,0,0-2.08-.09l-.86,0c-.1-.05-.24-.15-.35-.22l-.41-.27a2.08,2.08,0,0,1-.56-.52,3.43,3.43,0,0,1-.52-.84l-.14-.34a4.67,4.67,0,0,1-.29-.79,3.6,3.6,0,0,1,0-.49c0-.3,0-.6,0-.9,0-.5-.08-1-.1-1.49s0-.73,0-1.07l0-.61c0-.56-.05-1.13-.1-1.68a5.9,5.9,0,0,0-.3-1.28,3.45,3.45,0,0,1-.11-.4c0-.12,0-.24,0-.36a5.23,5.23,0,0,0-.08-1.37,7.82,7.82,0,0,0-.37-1.15,2.8,2.8,0,0,1-.16-.46c-.09-.35-.21-.69-.33-1s-.13-.37-.18-.56,0-.24-.05-.37a5.92,5.92,0,0,0-.22-1.28c-.11-.33-.25-.66-.39-1s-.16-.36-.22-.54-.24-.63-.37-.93-.17-.38-.24-.58-.08-.29-.12-.44a7.4,7.4,0,0,0-.39-1.19,8.32,8.32,0,0,0-.5-.93c-.09-.15-.18-.29-.26-.45l-.06-.15c-.19-.38-.37-.76-.53-1.15-.08-.19-.16-.37-.25-.55a5,5,0,0,1-.25-.59,2,2,0,0,1,0-.35,5.89,5.89,0,0,0,0-.84,5.54,5.54,0,0,0-.07-.57,3.43,3.43,0,0,1,0-.47,2.54,2.54,0,0,1,.25-.75,3.91,3.91,0,0,1,.3-.31c.14-.15.29-.3.42-.45l.35-.42a4.36,4.36,0,0,1,.41-.46,6.42,6.42,0,0,1,.83-.51l.19-.1c.23-.13.45-.28.67-.42l.18,0a8.57,8.57,0,0,1,1.25-.14,6.2,6.2,0,0,1,1.13,0Zm-19.86,0a7.43,7.43,0,0,0-1-2.22,9.75,9.75,0,0,0-1.46-1.68l-.44-.41-.71-.68c-.19-.19-.35-.39-.52-.58s-.34-.4-.52-.59c-.36-.39-.71-.77-1-1.16a9.9,9.9,0,0,0-.73-.72,4.23,4.23,0,0,1-.37-.37,4.17,4.17,0,0,1-.37-.56c-.15-.25-.31-.49-.48-.73s-.37-.47-.56-.7a6.25,6.25,0,0,1-.4-.5,4.46,4.46,0,0,1-.23-.48,7.69,7.69,0,0,0-.45-.91c-.15-.26-.32-.5-.49-.75a6.61,6.61,0,0,1-.37-.55c-.11-.21-.21-.43-.31-.65s-.23-.52-.35-.77l-.36-.67c-.14-.25-.27-.49-.39-.74s-.23-.51-.35-.77l-.31-.7a8,8,0,0,0-1.21-1.84,6.83,6.83,0,0,0-1.8-1.47,2.61,2.61,0,0,1-.28-.17l-.14-.09a4.32,4.32,0,0,0,.72-1.37,5.55,5.55,0,0,0,.18-1.91c0-.17,0-.33,0-.49a13.27,13.27,0,0,0,0-2.27,6.37,6.37,0,0,0-.62-2l0-.09s0-.08,0-.11a4.34,4.34,0,0,0-.09-1.68,6.12,6.12,0,0,0-.4-1c-.06-.14-.15-.33-.17-.4s-.08-.4-.12-.61a5.36,5.36,0,0,1-.14-.87c0-.27-.06-.55-.1-.84a5.68,5.68,0,0,1-.08-.71,5.45,5.45,0,0,1,.15-.78,7.39,7.39,0,0,0,.21-1,4.27,4.27,0,0,1,.19-.59,7.63,7.63,0,0,0,.38-1.39,20.72,20.72,0,0,0,.26-2.29,12.37,12.37,0,0,0-.13-2.55,4.92,4.92,0,0,0-.93-2c-.06-.09-.13-.18-.17-.25s-.12-.34-.18-.5a5.88,5.88,0,0,0-.7-1.54,5.24,5.24,0,0,0,.59-.41,5.91,5.91,0,0,0,1.4-1.94l.16-.29a2.8,2.8,0,0,1,.2-.32A5.3,5.3,0,0,0,197,212a6.33,6.33,0,0,0,0-1.85c0-.18,0-.38-.05-.57a12.45,12.45,0,0,1,.07-1.32c0-.21,0-.42.05-.63s0-.45,0-.68c0-.47.06-.92.11-1.3a11.73,11.73,0,0,0,.12-1.28,6.11,6.11,0,0,1,.08-.77,4.26,4.26,0,0,1,.38-.92,4.18,4.18,0,0,0,.46-1.14,9.35,9.35,0,0,1,.48-1.65,5.59,5.59,0,0,1,.3-.6,9,9,0,0,0,.66-1.45,5.29,5.29,0,0,0,.17-2.13c0-.17,0-.39,0-.47s0,0,0,0a6.28,6.28,0,0,0,1.8-.37,7.05,7.05,0,0,0,2-1,11.14,11.14,0,0,0,1.51-1.29,11.81,11.81,0,0,0,1-1.2l.18-.24a2.26,2.26,0,0,1,.38-.36l.19-.18a5.62,5.62,0,0,0-.2,1,8,8,0,0,0,.1,2.39,6.33,6.33,0,0,0,.89,2.07,7.53,7.53,0,0,0,.95,1.3,7.69,7.69,0,0,0-1.13.82l-.14.12a4.57,4.57,0,0,0-1.54,2,7.72,7.72,0,0,0-.48,2.08,5.21,5.21,0,0,0,.13,1.52c0,.13.05.26.07.39a2.41,2.41,0,0,1,0,.38,5.77,5.77,0,0,0,.06,1.4,10.29,10.29,0,0,0,.29,1.09c.05.18.1.35.14.52s.08.4.11.6a9,9,0,0,0,.18.93,6.55,6.55,0,0,0,.39,1.1,2.63,2.63,0,0,1,.12.24,5.82,5.82,0,0,1,.06.8q0,.32,0,.63a7.3,7.3,0,0,1,0,.81c0,.22,0,.44,0,.66,0,.5,0,1-.07,1.51,0,.33,0,.66,0,1a3.51,3.51,0,0,1,0,.58,3.1,3.1,0,0,1-.13.5,8.61,8.61,0,0,0-.25,1,7.44,7.44,0,0,0-.09,1.05,5.67,5.67,0,0,1-.05.58c0,.33-.09.66-.12,1s-.05.46-.08.68l-.09.48a8.85,8.85,0,0,0-.2,1.41,12.55,12.55,0,0,0,0,2,10.31,10.31,0,0,0,.48,2.07c0,.12.07.24.11.36a6.32,6.32,0,0,0,.67,1.7,5.87,5.87,0,0,0,1.5,1.55l.15.11a7.93,7.93,0,0,0,1.77,1.12,3.63,3.63,0,0,0,.6.22,5.36,5.36,0,0,0-.72,1,6.63,6.63,0,0,0-.7,2.28,8.19,8.19,0,0,0-.13,2.2,7.79,7.79,0,0,0,.33,1.55c0,.13.07.27.11.41s.07.34.1.51a8.41,8.41,0,0,0,.31,1.28c.12.35.24.69.37,1l.2.58c.13.35.29.69.45,1,.08.18.17.36.24.54s.13.38.19.57c.11.34.22.69.35,1a6.71,6.71,0,0,0,.55,1,3.44,3.44,0,0,1,.24.42c.2.48.4,1,.59,1.46.08.22.13.45.19.67s.14.55.22.81a3.81,3.81,0,0,1,.09.53,7.08,7.08,0,0,0,.16.92c.05.22.11.44.17.66a6.16,6.16,0,0,1,.18.71,9.71,9.71,0,0,0,.19,1c0,.22.11.44.14.67.07.57.16,1.16.26,1.75s.2,1.22.35,1.81c0,.17.06.34.09.51a7.24,7.24,0,0,0,.31,1.39,12.88,12.88,0,0,0,.86,1.93,8.91,8.91,0,0,0,1.5,1.8,6.75,6.75,0,0,0,1.76,1.15l.23.12a8.06,8.06,0,0,0,1.13.45,4.19,4.19,0,0,0-.29.47,6.67,6.67,0,0,0-.7,2.18,5.82,5.82,0,0,0,.06,1.67c0,.11,0,.22,0,.33s0,.24,0,.36a5.18,5.18,0,0,0,.15,1.57,9.9,9.9,0,0,0,.5,1.27,3.39,3.39,0,0,1,.18.39c.19.45.4.89.61,1.34l.07.13a8.28,8.28,0,0,0,.45.83,5.46,5.46,0,0,1,.27.48,5.08,5.08,0,0,1,.14.5c.07.27.14.54.23.79s.23.58.35.87a6.32,6.32,0,0,1,.25.6,8.31,8.31,0,0,0,.35.87c.08.2.17.39.23.58a2.21,2.21,0,0,1,0,.37,6.05,6.05,0,0,0,.2,1.18c.08.25.16.5.25.75s.16.46.22.7a8.16,8.16,0,0,0,.32.95,4.26,4.26,0,0,1,.17.46c0,.12,0,.24,0,.35a6.68,6.68,0,0,0,0,1.07l-.4-.55a11.32,11.32,0,0,0-.82-1.06c-.38-.45-.77-.95-1.17-1.48l-.16-.2a9.17,9.17,0,0,0-.71-.83,6.9,6.9,0,0,1-.65-.79,14.44,14.44,0,0,1-.87-1.71c0-.09-.07-.36-.1-.54a7.06,7.06,0,0,0-.35-1.54c-.13-.33-.28-.66-.42-1s-.28-.67-.41-1a7.69,7.69,0,0,0-.78-1.5c-.1-.17-.25-.4-.29-.49a8.62,8.62,0,0,0-1.43-2.34c-.11-.14-.2-.28-.3-.43a5,5,0,0,0-1.73-1.76,7.85,7.85,0,0,0-2.9-.91,4.17,4.17,0,0,0-.79,0c.05-.23.1-.47.13-.72A6.76,6.76,0,0,0,211.12,265.81Zm7.11-53.26c0,.17,0,.33,0,.5,0,.36,0,.72.07,1.07,0,.19,0,.37,0,.55a3.39,3.39,0,0,1,0,.45,7,7,0,0,0,0,1.22c.07.56.15,1.12.25,1.67a9.28,9.28,0,0,0,.31,1.19c0,.16.1.31.14.47a8.82,8.82,0,0,0,.41,1.2l.16.43a2.75,2.75,0,0,1,.11.41,6.13,6.13,0,0,0,.41,1.27c.08.18.18.36.27.55a5.76,5.76,0,0,1,.36.78,7.2,7.2,0,0,1,.31,1.28,4.13,4.13,0,0,1-.13,1,1.94,1.94,0,0,1-.27.75,3.45,3.45,0,0,1-.73.79,3.9,3.9,0,0,1-.91.46,7.67,7.67,0,0,0-1.11.17,3.29,3.29,0,0,1-.43.09l-.38.08h-1.4a8.52,8.52,0,0,1-1.14,0,3.26,3.26,0,0,1-.58-.16l-.66-.2-.32-.08a4.52,4.52,0,0,1-.84-.25,4.25,4.25,0,0,1-.88-.57l-.18-.14c-.16-.13-.4-.32-.46-.39a4.13,4.13,0,0,1-.2-.6l-.15-.54a6.26,6.26,0,0,1-.31-1.2,10.21,10.21,0,0,1,0-1.35,6.47,6.47,0,0,1,.13-.82c0-.2.08-.41.11-.62s.08-.6.12-.91,0-.48.08-.72a8,8,0,0,0,.1-1.1,5.48,5.48,0,0,1,.05-.57,3.89,3.89,0,0,1,.12-.49,7.23,7.23,0,0,0,.28-1.19,7.7,7.7,0,0,0,0-1.24,3,3,0,0,1,0-.52c.05-.6.07-1.19.07-1.79l0-.51a9.81,9.81,0,0,0,0-1.33c0-.16,0-.32,0-.47a9.25,9.25,0,0,0-.12-1.41,5.15,5.15,0,0,0-.42-1.26,2,2,0,0,1-.14-.34,5.4,5.4,0,0,1-.11-.58c0-.31-.1-.63-.17-.94s-.14-.51-.22-.76-.13-.43-.17-.64a3,3,0,0,1,0-.41,7.65,7.65,0,0,0,0-1c0-.28-.08-.56-.13-.83a3.21,3.21,0,0,1-.07-.36,3.66,3.66,0,0,1,.22-.89l.28-.24.19-.16A2.44,2.44,0,0,1,211,201a6.61,6.61,0,0,1,1-.22l.29,0c.3-.06.61-.14.9-.22h0a2.24,2.24,0,0,0,.45,0l.42,0,.5,0c.48.09.94.16,1.35.2H216l.26.07.19.06a2,2,0,0,1,1.52,1,3.1,3.1,0,0,1,.5.83,6.21,6.21,0,0,1,.15,1.16c0,.46,0,.92,0,1.39a7.31,7.31,0,0,0,.07,1,3,3,0,0,1,0,.45c0,.2-.05.41-.08.61s-.1.61-.13.92-.05.41-.08.62-.1.64-.13,1a5.51,5.51,0,0,1-.06.57q-.06.54-.09,1.08A7.79,7.79,0,0,0,218.23,212.55Zm3.45,21.1a3.3,3.3,0,0,1,.75.68l.18.2a3,3,0,0,1,.48.62,5.49,5.49,0,0,1,.3.77,2.06,2.06,0,0,0,.09.59,10.09,10.09,0,0,0,.34,1c.07.19.15.37.2.56l.44,1.56a2.75,2.75,0,0,1,.09.5,7,7,0,0,0,.21,1.1,8.8,8.8,0,0,0,.39,1,5.21,5.21,0,0,1,.2.5,3.65,3.65,0,0,1,.07.46,6.2,6.2,0,0,0,.23,1.16,5.85,5.85,0,0,0,.48,1.11,3.39,3.39,0,0,1,.18.39,3.1,3.1,0,0,1,.11.51,7.58,7.58,0,0,0,.27,1.1,8,8,0,0,0,.44,1,4.37,4.37,0,0,1,.23.49l.18.59c.1.33.2.66.32,1s.13.39.19.58c.11.34.22.67.35,1l.18.46c.14.36.29.73.44,1.09a6.14,6.14,0,0,0,.65,1.09c.08.12.19.28.22.34a5.16,5.16,0,0,1,.26.88l.09.38a4.63,4.63,0,0,1,.18,1.15,2.44,2.44,0,0,1-.14.6c-.05.14-.09.28-.13.41s-.1.39-.14.59a3.14,3.14,0,0,1-.1.43,4.22,4.22,0,0,1-.57.6l-.23.21c-.12.11-.24.23-.35.35a6.56,6.56,0,0,1-.54.5l-.39.12a5.7,5.7,0,0,0-.91.3c-.26.11-.52.24-.77.37a3.88,3.88,0,0,1-.45.23,6.85,6.85,0,0,1-1.32.19,2.6,2.6,0,0,1-.68-.11l-.5-.1a4,4,0,0,1-1-.32l-.26-.14a3.56,3.56,0,0,1-.69-.39,4.83,4.83,0,0,1-.77-.88,7.7,7.7,0,0,1-.53-1.21,3.77,3.77,0,0,1-.11-.58c-.05-.29-.09-.58-.16-.87-.12-.5-.21-1-.29-1.52s-.17-1.09-.24-1.61-.13-.73-.21-1.08a4.28,4.28,0,0,1-.12-.58,9.45,9.45,0,0,0-.3-1.33c0-.16-.09-.31-.13-.47a4,4,0,0,1-.07-.48,7.19,7.19,0,0,0-.27-1.3c0-.17-.1-.35-.14-.54-.09-.34-.19-.73-.34-1.14s-.42-1.06-.63-1.58a8.23,8.23,0,0,0-.56-1.05,2.44,2.44,0,0,1-.24-.41c-.08-.2-.14-.41-.21-.61a8.85,8.85,0,0,0-.31-.91c-.1-.26-.22-.52-.34-.77s-.21-.43-.29-.65l-.22-.61c-.11-.31-.23-.61-.33-.93a4.74,4.74,0,0,1-.15-.66c-.05-.27-.1-.53-.16-.8l-.15-.52a6.08,6.08,0,0,1-.18-.76,4.77,4.77,0,0,1,.09-1.15,3.11,3.11,0,0,1,.22-.86,3.73,3.73,0,0,1,.58-.63l.16-.15a5.48,5.48,0,0,1,.92-.77,7.07,7.07,0,0,1,1.19-.49c.22-.08.45-.14.68-.2l.35,0a12.07,12.07,0,0,0,1.71-.32c.23,0,.48.1.77.17l.25.07A4.62,4.62,0,0,1,221.68,233.65Zm-9.09-45.11a14.14,14.14,0,0,0,1.17-1.48,14.93,14.93,0,0,0,.92-1.62c.32-.63.56-1.16.76-1.67a4.31,4.31,0,0,1,.22-.49,9.53,9.53,0,0,0,.46-1.17,9.37,9.37,0,0,0,.26-1.17c0-.18.06-.35.1-.51s.14-.59.2-.87.1-.47.15-.69a4,4,0,0,1,.27-.61c.1-.21.2-.41.29-.61s.15-.37.22-.56a4.68,4.68,0,0,1,.27-.63,5.1,5.1,0,0,1,.47-.47l.4-.38.16-.16a3.75,3.75,0,0,1,1.65-1.09,4.23,4.23,0,0,1,1.09-.18h0a5.66,5.66,0,0,1,1.15.2,2.6,2.6,0,0,0,.39.05l.32.08c.19.05.36.09.52.15a4.22,4.22,0,0,1,.62.36c.18.11.34.22.51.31a3.16,3.16,0,0,1,.75.54,3.35,3.35,0,0,1,.42.76c0,.13.12.27.18.4a5.16,5.16,0,0,1,.31.74,2.28,2.28,0,0,1-.09.68,5.33,5.33,0,0,1-.33,1.13,4.33,4.33,0,0,1-.38.61c-.14.21-.28.41-.41.62s-.33.58-.48.86a6.5,6.5,0,0,1-.32.59,12.18,12.18,0,0,0-.92,1.71,2.29,2.29,0,0,1-.15.24,11.48,11.48,0,0,0-.73,1.31c-.14.33-.27.69-.41,1.07-.07.22-.15.44-.24.67-.22.54-.43,1.14-.63,1.76a12.11,12.11,0,0,0-.32,1.29c0,.19-.08.37-.13.56a4.5,4.5,0,0,1-.16.48,7.41,7.41,0,0,0-.38,1.39l-.06.37a6.48,6.48,0,0,1-.15.85,6.33,6.33,0,0,1-.44,1,4.1,4.1,0,0,1-.62.77,2.76,2.76,0,0,1-.57.23l-.35.13a4.16,4.16,0,0,1-1,.26,4.88,4.88,0,0,1-.81,0,8.64,8.64,0,0,0-1.38-.24,2.57,2.57,0,0,0-.39,0l-.57-.13a4.09,4.09,0,0,1-.56-.14,7.16,7.16,0,0,1-1.08-.56,5.38,5.38,0,0,1-.85-.7,3.33,3.33,0,0,1-.55-.73,2.8,2.8,0,0,1-.35-.69,3.54,3.54,0,0,1,0-1.08,4.4,4.4,0,0,1,.29-.92l.08-.21a6.2,6.2,0,0,1,.55-1.18c.11-.17.21-.36.32-.55A3.89,3.89,0,0,1,212.59,188.54Zm-17.27-4.77a3.79,3.79,0,0,1,.53-.86,4.65,4.65,0,0,1,1-.71,5.11,5.11,0,0,1,.95-.27l.2-.05c.57-.13,1.09-.28,1.6-.44a9.19,9.19,0,0,0,1.09-.43l.44-.19c.41-.15.81-.33,1.22-.51l.24-.11a2.22,2.22,0,0,1,.39-.11,7.11,7.11,0,0,0,1.08-.38l.7-.33.65-.32a7.33,7.33,0,0,0,.94-.53c.16-.1.32-.2.5-.29.41-.22.86-.43,1.31-.64a11.43,11.43,0,0,1,1.3-.51,5.93,5.93,0,0,1,1-.28c.09,0,.39.08.59.14l.11,0a1.71,1.71,0,0,1,.48.18,5.46,5.46,0,0,1,.43.72,1.67,1.67,0,0,1,.2.66,2.39,2.39,0,0,1-.16.81,4.77,4.77,0,0,1-.46,1.09,9.73,9.73,0,0,1-.67,1c-.26.31-.6.71-.93,1s-.67.59-1,.86l-.5.42c-.22.18-.44.37-.66.53s-.33.22-.49.32a8.9,8.9,0,0,0-.76.49l-1,.77-.26.22a11,11,0,0,0-1,.92l-.26.27-.28.26a6.68,6.68,0,0,0-1,1l-.19.27a9.48,9.48,0,0,1-.64.79,6.37,6.37,0,0,1-.91.77,3.21,3.21,0,0,1-.83.4,5.61,5.61,0,0,1-.6.16,4.17,4.17,0,0,1-.66-.34,4.08,4.08,0,0,1-.81-.58l0,0-.11-.12c-.19-.21-.39-.48-.67-.86s-.49-.68-.77-1.15l-.23-.39a8.61,8.61,0,0,1-.49-.85l-.49-1a1.63,1.63,0,0,0-.13-.37,2.06,2.06,0,0,1-.23-.75A1.89,1.89,0,0,1,195.32,183.77ZM182.62,211c0-.11.06-.22.09-.33a7.89,7.89,0,0,0,.23-.93,8.65,8.65,0,0,0,.09-.89c0-.16,0-.38,0-.38a2.35,2.35,0,0,1,.23-.32,5.77,5.77,0,0,0,.62-.88,5,5,0,0,0,.59-1.8,2.23,2.23,0,0,1,.09-.39,2.48,2.48,0,0,1,.24-.42,5.64,5.64,0,0,0,.75-1.61,18.48,18.48,0,0,0,.37-2.16,8.88,8.88,0,0,0,.06-1.5,4,4,0,0,1,0-.6l.12-1.93a7.06,7.06,0,0,1,.24-1.22l.07-.3c.07-.28.12-.58.17-.87a3.92,3.92,0,0,1,.12-.6,4.72,4.72,0,0,1,.67-.86l.2-.23a3,3,0,0,1,.48-.27c.21-.12.43-.23.63-.36a6.66,6.66,0,0,0,.76-.55l.26-.23a4.86,4.86,0,0,1,1.37-.12,2.68,2.68,0,0,0,.4,0c.42.06.84.13,1.2.21a2.37,2.37,0,0,1,.54.3,8.26,8.26,0,0,0,.74.43l.24.12a3.45,3.45,0,0,1,.59.32l.05.06c0,.09.14.32.21.5s.23.56.37.86a1.33,1.33,0,0,1,.12.8,5.73,5.73,0,0,0,0,1.18c0,.17,0,.44,0,.49a5.45,5.45,0,0,1-.36.76,8.81,8.81,0,0,0-.5,1,13.65,13.65,0,0,0-.66,2.22c0,.06-.07.12-.1.19a8,8,0,0,0-.77,2,9.63,9.63,0,0,0-.17,1.46,8.54,8.54,0,0,1-.07.86,15,15,0,0,0-.16,1.74l-.08,1.15a13.72,13.72,0,0,0-.08,1.87c0,.3,0,.59.07.88s.06.52.06.57a3.34,3.34,0,0,1-.28.46,7.29,7.29,0,0,0-.42.67l-.19.36c-.12.22-.29.56-.32.6a3.17,3.17,0,0,1-.5.17c-.24.08-.49.15-.72.24s-.54.25-.82.39l-.15.07a7,7,0,0,0-.79-.18,9.14,9.14,0,0,0-2.09,0l-.36,0H186l-.18,0-.36-.21a7.55,7.55,0,0,0-.78-.43l-.49-.22a4.45,4.45,0,0,1-.63-.32l-.25-.23a3.54,3.54,0,0,1-.52-.53,4.82,4.82,0,0,1-.13-.94Zm3.13,33-.37-.08a3.56,3.56,0,0,1-2.14-.93l-.11-.07a2.72,2.72,0,0,1-.63-.79,5.45,5.45,0,0,0-.64-.81,4.3,4.3,0,0,0,.19-1.4,10.29,10.29,0,0,1,0-1.38v-.15c.05-.49.09-.91.16-1.25s.15-.57.23-.84.2-.68.28-1a8.44,8.44,0,0,0,.18-1.38c0-.21,0-.42.07-.63a8.5,8.5,0,0,0,.12-1.5c0-.2,0-.4,0-.6s0-.35.07-.53a10,10,0,0,0,.14-1.65v-.43a11.45,11.45,0,0,0-.09-1.79,4.87,4.87,0,0,1-.06-.55,9.7,9.7,0,0,0-.24-1.45,6.87,6.87,0,0,0-.43-1.14c-.06-.14-.15-.33-.17-.39a5.2,5.2,0,0,1,0-.55c0-.2.05-.41.07-.62a5.11,5.11,0,0,0,0-1,1.79,1.79,0,0,1,0-.23l0,0a7.16,7.16,0,0,1,.46-.92,1.83,1.83,0,0,1,.24-.13,6.1,6.1,0,0,0,.85-.52,2.73,2.73,0,0,1,.84-.47,5.52,5.52,0,0,0,.79-.3l.13-.05,1,.06.5,0,.52.06a10.52,10.52,0,0,0,1.21.09l.31.15a3,3,0,0,1,.89.71c0,.09.1.28.15.43s.18.56.3.83a5.61,5.61,0,0,0,.6,1l.21.29a7.9,7.9,0,0,1,.08,1.65,17.83,17.83,0,0,1-.21,1.84,4,4,0,0,1-.18.58,7.23,7.23,0,0,0-.39,1.44c0,.21-.09.41-.14.62a8.19,8.19,0,0,0-.27,1.69,8.43,8.43,0,0,0,.12,1.44,4.1,4.1,0,0,1,.06.49,10.59,10.59,0,0,0,.23,1.47c0,.15.07.3.09.45a5.92,5.92,0,0,0,.52,1.52c0,.08.09.16.12.24s0,.12,0,.18a4,4,0,0,0,.19,1.92l.2.47a3,3,0,0,1,.27.72,9.3,9.3,0,0,1,0,1.49,7.06,7.06,0,0,0,0,.92c0,.18,0,.44,0,.48a3.51,3.51,0,0,1-.41.49l-.25.28a10,10,0,0,0-.7.91c-.09.13-.2.3-.28.39l-.39.1-.41.07-.63.1a11.49,11.49,0,0,1-1.82.11A8.1,8.1,0,0,1,185.75,244Zm19,27.19a8.11,8.11,0,0,1-.77.67,3.83,3.83,0,0,1-.89.5,4.21,4.21,0,0,1-.64.06l-.48,0a4.5,4.5,0,0,1-1.13-.05l-.54-.06a4,4,0,0,1-.55-.07,2.52,2.52,0,0,1-.75-.42,7.29,7.29,0,0,1-.53-.58l-.32-.36c-.15-.18-.32-.34-.48-.51a3.48,3.48,0,0,1-.42-.44c0-.06-.13-.24-.2-.38a7.52,7.52,0,0,0-.43-.79c-.16-.25-.29-.5-.43-.76l-.22-.4c-.13-.24-.28-.47-.43-.7a4.21,4.21,0,0,1-.28-.45c-.2-.42-.42-.82-.65-1.23l-.47-.86c-.21-.4-.42-.79-.65-1.18s-.45-.69-.69-1l-.33-.5a4.07,4.07,0,0,1-.31-.53,10,10,0,0,0-.62-1c-.22-.3-.46-.59-.7-.87l-.43-.53c-.13-.18-.25-.37-.37-.56s-.39-.62-.61-.91l-.92-1.23a5.65,5.65,0,0,0-.7-.78l-.25-.25a8.72,8.72,0,0,1-.56-1.05,1.72,1.72,0,0,1,0-.39c0-.24,0-.47-.07-.7a2.31,2.31,0,0,1,0-.83,3.31,3.31,0,0,1,.23-.92,4.69,4.69,0,0,1,.64-.92,7.07,7.07,0,0,1,.86-.87,8.72,8.72,0,0,1,1-.72,7.69,7.69,0,0,1,1.14-.47l.24-.06.52-.12a3.35,3.35,0,0,1,.44-.07c.25,0,.49-.05.74-.05h.2a4.49,4.49,0,0,1,.41.24c.14.09.28.18.43.26a2.58,2.58,0,0,1,.69.54,4.06,4.06,0,0,1,.58.86l.28.63c.13.3.27.6.41.89s.32.63.48.94.21.37.3.55.18.39.27.58.29.64.45,1a10.75,10.75,0,0,0,.63,1c.11.16.22.31.31.47a3.74,3.74,0,0,1,.22.45,6.3,6.3,0,0,0,.56,1.09,7.91,7.91,0,0,0,.73.94c.11.14.24.28.34.43a4.66,4.66,0,0,1,.3.47,9.07,9.07,0,0,0,.67,1,7.07,7.07,0,0,0,.84.87c.13.12.26.23.38.36.36.43.74.85,1.15,1.28.13.14.26.29.38.44s.49.57.75.84.54.52.83.78l.4.38a6.92,6.92,0,0,1,.86,1,3.51,3.51,0,0,1,.44,1,2.49,2.49,0,0,1,.08.93,3.87,3.87,0,0,1-.34,1,5.22,5.22,0,0,1-.64,1.09,4.24,4.24,0,0,1-.51.46c-.18.15-.37.3-.54.46Zm17.61,30.31,0,0a7,7,0,0,1-1.27.36,3.21,3.21,0,0,1-.61-.12,9.93,9.93,0,0,0-1-.19l-.69,0h-1a4.6,4.6,0,0,1-.74-.77l-.15-.19c-.23-.26-.49-.51-.75-.75s-.33-.31-.38-.38a7.77,7.77,0,0,1-.42-1l-.24-.59c-.19-.46-.39-1-.62-1.68-.09-.26-.15-.53-.22-.8s-.18-.7-.29-1a6.37,6.37,0,0,0-.73-1.48,5.29,5.29,0,0,1-.29-.52c-.09-.19-.15-.39-.22-.58a7.8,7.8,0,0,0-.6-1.46,4.6,4.6,0,0,1-.25-.55,7.24,7.24,0,0,0-.69-1.41l-.32-.5c-.28-.43-.56-.86-.87-1.27s-.58-.73-.88-1.09c-.15-.18-.31-.36-.45-.54a7.32,7.32,0,0,0-1.09-1c-.17-.15-.35-.29-.44-.39s-.41-.46-.62-.69a7,7,0,0,1-.69-.79,6.26,6.26,0,0,1-.68-1.52,3.93,3.93,0,0,1-.17-1.43,4.22,4.22,0,0,1,.25-.73c.11-.27.22-.54.32-.82a8.17,8.17,0,0,0,.26-1.1,4.29,4.29,0,0,0,.07-.45,4.55,4.55,0,0,1,.73-.62l.57-.45.38-.32a5.91,5.91,0,0,1,.94-.73,5.57,5.57,0,0,1,.63-.08,8.39,8.39,0,0,0,1-.15l.64-.15a2.27,2.27,0,0,1,.82-.16,3.4,3.4,0,0,1,1.2.37,4.43,4.43,0,0,1,.3.41c.15.24.32.48.53.76a4.43,4.43,0,0,1,.76,1.16,7.12,7.12,0,0,0,.66,1.24,3.51,3.51,0,0,1,.38.68c.15.41.32.82.5,1.23s.24.57.35.85a3,3,0,0,1,.12.6,5.91,5.91,0,0,0,.43,1.69,19,19,0,0,0,1.15,2.24A10.67,10.67,0,0,0,219,286c.16.18.32.35.46.53l.15.2c.46.59.88,1.15,1.36,1.7.2.23.37.48.55.73a10.74,10.74,0,0,0,.87,1.12l.43.48c.33.37.68.74,1,1.15a7,7,0,0,0,1.07,1,3.68,3.68,0,0,1,.51.45,3.91,3.91,0,0,1,.22.7,7.65,7.65,0,0,0,.27.95,4,4,0,0,1,.26,1.43,4.34,4.34,0,0,1-.09,1.25,5.25,5.25,0,0,1-.85,1.26c-.15.19-.31.38-.47.56a5.64,5.64,0,0,0-.69.36A7.71,7.71,0,0,0,222.32,301.49Zm5.07,16.76a5.46,5.46,0,0,1-1.52-2.36c-.11-.27-.22-.55-.34-.83a19.67,19.67,0,0,1-.78-2,20.23,20.23,0,0,1-.55-2c0-.25-.1-.48-.15-.7a9,9,0,0,1-.23-1.18,9.72,9.72,0,0,1,.11-1.78,6.74,6.74,0,0,1,.4-1.56,4.24,4.24,0,0,1,.68-.9,11.22,11.22,0,0,0,1.21-.91c.16-.13.32-.27.49-.39s.32-.3.49-.46a2.24,2.24,0,0,0,.57-.08c.36-.11.71-.26,1.07-.41a6.78,6.78,0,0,1,.86-.32c.66-.15,1.34-.31,2-.4l.77-.08a8,8,0,0,0,.81,0h.36c.15,0,.29,0,.43,0a8.77,8.77,0,0,0,.95.06l.47,0,.15,0a5.52,5.52,0,0,1,.79.34l.53.26a2.55,2.55,0,0,1,1,.64,3.33,3.33,0,0,1,.59,1.22,7.77,7.77,0,0,1,.17,1.76,2.88,2.88,0,0,1-.18.59,6.16,6.16,0,0,0-.38,1.36A15.57,15.57,0,0,0,238,310c0,.2,0,.37,0,.52a7.8,7.8,0,0,0,.31,3.16,5.93,5.93,0,0,0,.74,1.45,4,4,0,0,1,.3.54l.06.19a4.27,4.27,0,0,0-.06.82,4.91,4.91,0,0,0,.08.79l-.32.47-.19.27a5.66,5.66,0,0,0-.31.48,4,4,0,0,1-.68.89,5.5,5.5,0,0,1-1.37.48,11.05,11.05,0,0,1-1.57.17h0a2.5,2.5,0,0,0-.75-.15,3.94,3.94,0,0,0-1.09.16l-.47,0a6.84,6.84,0,0,1-1-.27l-.84-.26-.34-.09a7,7,0,0,1-1.42-.46l-.45-.22A5.3,5.3,0,0,1,227.39,318.25Zm20.73,14.94a5.56,5.56,0,0,1-.43,1c-.1.18-.19.36-.28.54a3.64,3.64,0,0,1-.59.75l-.42.48a9.45,9.45,0,0,0-.59.82l-.31.45a6.26,6.26,0,0,1-1.41.57,5.18,5.18,0,0,1-1.49.28,4,4,0,0,1-1.17-.23l-.48-.13a5.59,5.59,0,0,1-1.35-.46,16.38,16.38,0,0,0-2.37-1,8,8,0,0,1-.74-.33,10.51,10.51,0,0,0-1.41-.59c-.69-.22-1.36-.47-2-.72l-.51-.19a7.3,7.3,0,0,1-1.24-.54,6.22,6.22,0,0,1-1.34-1,4.83,4.83,0,0,1-.83-1.47,6.49,6.49,0,0,1-.36-1.76,8,8,0,0,1,.12-1.9,3.36,3.36,0,0,1,.64-1.29,4.68,4.68,0,0,1,1.17-1.12,4.89,4.89,0,0,1,.72-.15,8.94,8.94,0,0,0,1.08-.24c.34-.1.66-.21,1-.32l.14-.05h.2l.14,0c.27,0,.56,0,.86.06s.72,0,1.11.08a7.66,7.66,0,0,0,1.35,0,5.37,5.37,0,0,1,.68,0,3.84,3.84,0,0,1,.47.18,6.17,6.17,0,0,0,1.51.45c.4.06.79.1,1.18.13s.58,0,.86.09a6.79,6.79,0,0,0,1.63,0l.4,0c.11.06.28.19.4.27a6.76,6.76,0,0,0,.74.49c.22.13.45.25.68.36a3.47,3.47,0,0,1,.62.35,4.47,4.47,0,0,1,.29.61c.12.29.25.58.39.86a8.85,8.85,0,0,0,.57.89c.11.17.29.42.33.51a7.78,7.78,0,0,1,.16,1.66A7.52,7.52,0,0,1,248.12,333.19Zm3.76-12a7,7,0,0,1-1.09.15h-.14a11.1,11.1,0,0,1-1.3,0h-.53a7,7,0,0,1-.84-.05,5.74,5.74,0,0,1-.66-.16c-.23-.06-.47-.13-.71-.18a4,4,0,0,1-1-.4,3.25,3.25,0,0,1-.78-.61,4.15,4.15,0,0,1-.64-.86,5.46,5.46,0,0,1-.29-1.09l0-.1,0-.15,0-.15a6.09,6.09,0,0,0-.1-1.83c0-.18.09-.37.11-.54a7.49,7.49,0,0,0,0-1.38c0-.14,0-.27,0-.4a15.05,15.05,0,0,0,0-1.57l0-.23,0-.47a10.15,10.15,0,0,0-.12-1.29c0-.2,0-.4-.07-.6s-.08-.67-.14-1-.11-.49-.18-.73a4,4,0,0,1-.13-.58l-.06-.46a4,4,0,0,1-.05-.72,7.34,7.34,0,0,1,.22-1l.05-.18a6.41,6.41,0,0,1,.51-1.22,4.51,4.51,0,0,1,.66-1,4,4,0,0,1,.81-.79,5,5,0,0,1,1.07-.57,7.66,7.66,0,0,1,1.29-.37,10.83,10.83,0,0,1,1.47-.15,4.74,4.74,0,0,1,.73.13l.29.07.54.11a3.19,3.19,0,0,1,.54.12,5,5,0,0,1,.9.66,3.81,3.81,0,0,1,.52.69l.31.45a4.25,4.25,0,0,1,.42.7,4.55,4.55,0,0,1,.24,1.1,5.76,5.76,0,0,1-.08.89l0,.27a7.22,7.22,0,0,0,0,1.59v.29a8,8,0,0,0,.37,2.05,7.21,7.21,0,0,0,.86,1.89c.24.39.46.77.69,1.18.08.3.16.61.27.93h0c0,.14.07.29.11.44a2.36,2.36,0,0,1,.12.59,8,8,0,0,1-.09,1l-.06.5a8.31,8.31,0,0,1-.17,1.07,7.26,7.26,0,0,1-.38,1.14,5.32,5.32,0,0,1-.62.95,3.42,3.42,0,0,1-.57.51l-.24.19c-.16.13-.3.27-.45.41l-.4.33a5.57,5.57,0,0,1-.91.28Zm16.27,6.33,0,.13a6.69,6.69,0,0,1-.42,1.14,3.57,3.57,0,0,1-.45.6l-.3.37-.09.13a9.15,9.15,0,0,1-.81.93,12.62,12.62,0,0,1-1,.88c-.25.19-.53.36-.8.54l-.45.29c-.23.15-.46.32-.69.49s-.39.3-.6.43-.36.19-.54.28-.62.32-.92.5l-.1.06a6.39,6.39,0,0,1-1.06.59,6,6,0,0,1-.93.23l-.87.19a6.61,6.61,0,0,1-.87.16,6.93,6.93,0,0,1-1.29-.07,4.42,4.42,0,0,1-1.12-.35,3.5,3.5,0,0,1-.88-.63,4.59,4.59,0,0,1-.55-.81,6.15,6.15,0,0,1-.46-1.09,5.52,5.52,0,0,0-.18-.53,4.8,4.8,0,0,1-.19-.6,6.43,6.43,0,0,1,0-1.16,4.65,4.65,0,0,1,.19-.79l.11-.39c.05-.16.09-.31.13-.47a5.32,5.32,0,0,1,.22-.77c.16-.37.36-.75.6-1.19a7,7,0,0,1,.49-.67l.3-.4.29-.41a5.28,5.28,0,0,1,.48-.63l.28-.28.26-.22a2,2,0,0,0,.52-.31l.19-.15a9.16,9.16,0,0,1,.88-.68c.38-.24.79-.47,1.21-.68s.89-.4,1.29-.55,1-.32,1.33-.41a10.48,10.48,0,0,1,1.35-.21,9.31,9.31,0,0,1,1.31-.08,4.48,4.48,0,0,1,.67.15l.5.14.25.05a4.77,4.77,0,0,1,.77.22,2.83,2.83,0,0,1,.7.56,6.22,6.22,0,0,1,.49.89l.21.42a5.65,5.65,0,0,1,.36.78,4.23,4.23,0,0,1,.14.71l.09.58.1.46c0,.21.1.48.1.52A6.65,6.65,0,0,1,268.15,327.51Zm4.61-24.7-.06.31c0,.16-.08.31-.12.46a9,9,0,0,0-.22,1,13.35,13.35,0,0,0-.13,1.42l0,.48c0,.4,0,.8,0,1.2,0,.21,0,.43,0,.64a3,3,0,0,1-.11.51,8.39,8.39,0,0,0-.18.84c0,.19-.06.39-.09.59a6.73,6.73,0,0,1-.14.81l-.11.36a7.71,7.71,0,0,1-.32,1,11.45,11.45,0,0,1-.68,1.21,8.53,8.53,0,0,1-.77,1.1,5.15,5.15,0,0,1-.59.48l-.41.3a5.58,5.58,0,0,1-1,.61,5.25,5.25,0,0,1-1.09.41,5.91,5.91,0,0,1-1.2.14h-.11a8.08,8.08,0,0,1-1.2-.06,5.41,5.41,0,0,1-1.17-.42,4.77,4.77,0,0,1-1-.65l-.29-.23a4.46,4.46,0,0,1-.68-.57,6,6,0,0,1-.46-.78l-.19-.37a9.08,9.08,0,0,1-.54-1.13,7.65,7.65,0,0,0-.28-1c0-.17-.08-.34-.11-.52a9.54,9.54,0,0,1-.19-1.43c0-.17,0-.35,0-.52a5.93,5.93,0,0,1,0-.89,4.76,4.76,0,0,1,.1-.52,9,9,0,0,0,.19-1.09c0-.23,0-.47.05-.7s0-.57.07-.85.05-.48.07-.72a6.31,6.31,0,0,1,.08-.76,10.84,10.84,0,0,1,.36-1.33,7.59,7.59,0,0,1,.47-1.14,5.18,5.18,0,0,1,.6-.9,4.59,4.59,0,0,1,.82-.6l.29-.18a4.37,4.37,0,0,1,.67-.37,8.69,8.69,0,0,1,1.24-.23,1.9,1.9,0,0,0,.78-.26l.2-.05h0l.38,0,.39,0a8.92,8.92,0,0,0,1.11-.17l.3,0a10.32,10.32,0,0,1,1.1,0h.34a7.48,7.48,0,0,1,1.25.19,4.37,4.37,0,0,1,1,.33,2.93,2.93,0,0,1,.74.58,3.49,3.49,0,0,1,.6.89,7.5,7.5,0,0,0,.32,1.08,2.6,2.6,0,0,1,.13.36,2.48,2.48,0,0,1,0,.27c0,.06,0,.12,0,.17C272.88,302.23,272.82,302.51,272.76,302.81ZM304.14,292a1.52,1.52,0,0,1-.33.56l-.21.28a4.69,4.69,0,0,1-.41.47,3.15,3.15,0,0,1-.44.17c-.25.09-.51.19-.75.3s-.78.32-1.17.46l-.16.06c-.29.11-.57.23-.85.36a4.62,4.62,0,0,1-.57.24l-.57.18c-.36.11-.71.22-1,.35l-.52.19c-.34.12-.68.24-1,.38s-.65.3-1,.46c-.17.09-.34.18-.51.25-.34.16-.66.35-1,.54a4.17,4.17,0,0,1-.46.26,2,2,0,0,1-.37.13,6.57,6.57,0,0,0-1.19.48c-.32.18-.63.4-.94.61l-.45.31a8.77,8.77,0,0,0-.93.67c-.14.11-.28.22-.43.32s-.27.17-.41.25a6.74,6.74,0,0,0-1,.65c-.13.11-.28.21-.42.31a9.14,9.14,0,0,0-.93.71c-.26.23-.51.5-.76.77a6.2,6.2,0,0,1-.44.45,7,7,0,0,1-.68.54l-.53.39-.29.23a6.87,6.87,0,0,1-.77.55l-.3.17a3.42,3.42,0,0,1-.69.33,3,3,0,0,1-1,0,3.42,3.42,0,0,1-.88-.25,3.67,3.67,0,0,1-.64-.45l-.09-.08a4,4,0,0,1-.72-.68l-.27-.34a3.83,3.83,0,0,1-.4-.55,8.33,8.33,0,0,1-.4-1.11c0-.07,0-.26-.05-.41a.5.5,0,0,0,0-.12,7.67,7.67,0,0,0-.11-.8.13.13,0,0,1,0-.06s0,0,0,0,0-.21-.06-.32a10.7,10.7,0,0,0-.39-1.24c0-.22,0-.44,0-.69V298a3,3,0,0,1,.07-.58c0-.2.06-.4.08-.6s0-.34.05-.52a3.27,3.27,0,0,1,.06-.55,2.58,2.58,0,0,1,.43-.62,3.75,3.75,0,0,1,.67-.49l.1-.06c.22-.14.42-.29.63-.45a4.46,4.46,0,0,1,.37-.27,5,5,0,0,1,.72-.21l.62-.16a4.54,4.54,0,0,1,.58-.1c.31,0,.6-.09.89-.15a2,2,0,0,0,.68-.3l.8-.19a10.83,10.83,0,0,0,1.1-.37l.51-.18a2.7,2.7,0,0,1,.41-.06,5.53,5.53,0,0,0,1.38-.28,16.09,16.09,0,0,0,1.6-.74l.14-.08a8.34,8.34,0,0,0,1.35-.92l.29-.23.48-.35a9.84,9.84,0,0,0,.87-.65l.39-.33.86-.71.44-.38c.23-.21.46-.42.7-.61s.41-.28.62-.42a6.65,6.65,0,0,0,.56-.36,6.9,6.9,0,0,0,.68-.53,4.41,4.41,0,0,1,.41-.32,5.27,5.27,0,0,1,.76-.33l.52-.22a5,5,0,0,1,1-.33,5.88,5.88,0,0,1,1.07-.1,3.44,3.44,0,0,1,.45.14l.57.18a3.82,3.82,0,0,1,.92.36l.39.22a3.76,3.76,0,0,1,.46.27,5.3,5.3,0,0,1,.46.73l.06.12c.12.21.25.42.38.63a3.92,3.92,0,0,1,.33.56,3.25,3.25,0,0,1,.13.47c.06.27.13.53.21.79l.18.51a4.16,4.16,0,0,1,.21.63,5.62,5.62,0,0,1,.1,1.11A4.54,4.54,0,0,1,304.14,292Zm12.59-28.46a7,7,0,0,0-.06.8,6.48,6.48,0,0,1-.16,1l-.09.44a9,9,0,0,0-.11,1,3.93,3.93,0,0,1-.05.5,3.89,3.89,0,0,1-.23.47,6.05,6.05,0,0,0-.55,1.19,4.75,4.75,0,0,0-.18,1.66,1.09,1.09,0,0,1,0,.18l-.1.12a4.65,4.65,0,0,0-.87,1.52c-.11.35-.21.7-.3,1.06s-.13.48-.2.72a10.84,10.84,0,0,0-.25,1.13,5.67,5.67,0,0,1-.15.69l-.21.75c-.11.39-.22.8-.34,1.21s-.14.63-.19.95a6.35,6.35,0,0,1-.19.82c-.11.3-.2.61-.29.92,0,.15-.09.34-.13.47l-.26.12a7.28,7.28,0,0,0-.91.47l-.44.29a5.1,5.1,0,0,1-.51.32l-.48.14a4.88,4.88,0,0,1-.53.15l-.33-.15a6.58,6.58,0,0,0-.82-.36,7.41,7.41,0,0,0-1.05-.27l-.37-.06c-.2-.12-.45-.31-.71-.5s-.4-.31-.6-.45a4.11,4.11,0,0,1-.44-.39,7.58,7.58,0,0,0-.86-.77c-.18-.13-.35-.29-.52-.43a8.42,8.42,0,0,0-.69-.58c0-.12-.07-.24-.11-.34l-.08-.28a7.09,7.09,0,0,0-.39-.89,1.24,1.24,0,0,0-.1-.2,6.46,6.46,0,0,1,.38-.69,2.53,2.53,0,0,1,.32-.29,8.24,8.24,0,0,0,.76-.73,5.12,5.12,0,0,0,.77-1.29l.11-.24.23-.12a4.76,4.76,0,0,0,1.35-1,6.9,6.9,0,0,0,.93-1.4c.09-.15.16-.3.25-.44a5.73,5.73,0,0,0,.7-1.81,3.39,3.39,0,0,1,.11-.43,4.16,4.16,0,0,1,.26-.54,7.92,7.92,0,0,0,.52-1.15c.11-.35.2-.71.28-1.07a6.41,6.41,0,0,1,.17-.67,6.94,6.94,0,0,1,.39-.76c.14-.25.28-.51.4-.76l.15-.32a7.85,7.85,0,0,1,.55-1.06,5.47,5.47,0,0,1,.77-.92,4.23,4.23,0,0,1,.46-.13c.21,0,.42-.1.63-.17l.49-.17a1.81,1.81,0,0,1,.59-.17,6,6,0,0,1,1,.2l.41.11a2.23,2.23,0,0,1,.87.39,2.53,2.53,0,0,1,.37.58l.06.1a6.79,6.79,0,0,0,.42.67,1.22,1.22,0,0,0,.2.26A4.31,4.31,0,0,1,316.73,263.58Zm1.43-10.39,0,.1a2.81,2.81,0,0,1-1,2,4.19,4.19,0,0,1-1.06.66,4.49,4.49,0,0,1-1.19.3,4.4,4.4,0,0,1-.87-.12c-.24-.05-.47-.1-.71-.13a4,4,0,0,1-.57-.15c-.23-.07-.5-.15-.8-.22l-.29-.09a4.47,4.47,0,0,1-.68-.47l-.19-.15a7,7,0,0,0-.9-.56,2.78,2.78,0,0,0-.35-.19,7.21,7.21,0,0,1-.61-.89,4.75,4.75,0,0,1,.06-.51c0-.32.09-.65.1-1v-.45a8.57,8.57,0,0,1,.08-1.19c.07-.39.17-.78.27-1.17l.14-.55c.08-.32.14-.65.2-1s.1-.57.17-.84c0-.08.16-.3.24-.45a5.46,5.46,0,0,0,.6-1.3A7.11,7.11,0,0,0,311,243c0-.13,0-.25,0-.34a8.53,8.53,0,0,0,.08-1.63v-.58a11.34,11.34,0,0,0,0-1.16,5.23,5.23,0,0,1,0-.68,1.79,1.79,0,0,1,.13-.32,5.87,5.87,0,0,0,.43-1.34c0-.28.07-.56.09-.85s0-.4,0-.41a4.4,4.4,0,0,1,.67-.84,1.92,1.92,0,0,1,.65-.36c.16-.07.34-.15.51-.24l.15-.07.16.1.59.32a1.79,1.79,0,0,1,.62.42,1.86,1.86,0,0,1,.34.66,12,12,0,0,1,.41,1.71c0,.29.1.57.16.86a9.56,9.56,0,0,1,.18,1.07,7.12,7.12,0,0,1,0,.8c0,.39,0,.83,0,1.29a9.84,9.84,0,0,0,.29,1.54c.06.23.12.45.16.67a9.64,9.64,0,0,0,.45,1.67c.07.21.14.41.19.61a4.34,4.34,0,0,1,0,.6,6.78,6.78,0,0,0,.19,1.62l.09.32c.15.55.29,1.06.41,1.64a13.15,13.15,0,0,1,.22,1.67A5.77,5.77,0,0,1,318.16,253.19Z" style="fill: #1d1d1b"/>
  </g>
</svg>
