<svg xmlns="http://www.w3.org/2000/svg" viewBox="0 0 500 500">
  <title>planet-star</title>
  <g>
    <g>
      <path d="M304.33,243.79v-.12c0-.2,0-.41,0-.69s0-.71,0-1.08v-.31a4.5,4.5,0,0,0-.09-.87,5.79,5.79,0,0,1-.07-.6.49.49,0,0,0,0-.12c0-.23-.05-.47-.08-.71v-.11c0-.19,0-.37-.07-.6s0-.4,0-.6a8.13,8.13,0,0,0,0-.84c0-.22,0-.43-.05-.64,0,0,0-.15,0-.17a4.13,4.13,0,0,0-.07-.68c-.08-.49-.18-1-.29-1.42a3.88,3.88,0,0,0-.3-.83,4.53,4.53,0,0,1-.22-.59,6.93,6.93,0,0,0-.26-.72l-.05-.13c-.08-.18-.14-.37-.21-.57a6.55,6.55,0,0,0-.35-.77l-.11-.23c-.06-.11-.11-.23-.14-.29a3.35,3.35,0,0,1-.17-.62,2.71,2.71,0,0,0-.17-.67,1.89,1.89,0,0,0-.24-.47A2.39,2.39,0,0,0,301,228l-.06-.08a3.92,3.92,0,0,1-.37-.51,4.53,4.53,0,0,1-.19-.45,4.94,4.94,0,0,0-.19-.49,2.24,2.24,0,0,0-.22-.4,5.17,5.17,0,0,0-.42-.51c-.11-.14-.23-.28-.33-.43a2.17,2.17,0,0,0-.48-.52l0,0a3.57,3.57,0,0,1-.43-.44,3.43,3.43,0,0,1-.32-.58l-.08-.14a2.75,2.75,0,0,0-.17-.29l-.07-.12a2.11,2.11,0,0,0-.59-.64,2.3,2.3,0,0,0-.93-1.18.83.83,0,0,1-.21-.2,2.29,2.29,0,0,0,0-1.78c0-.08-.07-.15-.1-.25s0-.11-.07-.17-.11-.26-.16-.39l-.14-.37a8.39,8.39,0,0,0-.43-.94c-.32-.61-.63-1.13-.93-1.6l-.26-.42c-.23-.37-.49-.78-.78-1.16a12.75,12.75,0,0,0-.86-1c-.14-.14-.26-.28-.41-.44l-.44-.55-.07-.09a8.84,8.84,0,0,0-.71-.8,9.93,9.93,0,0,0-.76-.65l-.25-.21c-.16-.11-.31-.23-.43-.33-.41-.34-.86-.67-1.54-1.14-.25-.17-.56-.34-.88-.52l-.24-.12-.5-.28a13.67,13.67,0,0,0-1.27-.62l-1.09-.5a8.72,8.72,0,0,0-1-.42,1.39,1.39,0,0,1-.53-.62,3.05,3.05,0,0,0-.55-.79c-.4-.43-.85-.89-1.3-1.31a8.16,8.16,0,0,0-.84-.67c-.2-.15-.41-.3-.61-.47s-.66-.49-1.06-.77l-.41-.29a10.37,10.37,0,0,0-1-.65l-.48-.29c-.22-.14-.43-.3-.73-.51l-.17-.12a5.69,5.69,0,0,0-.71-.46,6.6,6.6,0,0,0-.89-.34l-.1,0c-.22-.08-.44-.16-.71-.28s-.42-.19-.6-.28a6.28,6.28,0,0,0-1-.48,9.18,9.18,0,0,0-1.09-.31l-.66-.18a6.79,6.79,0,0,0-1.1-.19c-.22,0-.46-.05-.69-.1l-.1,0-.58-.14-.46-.12a2.07,2.07,0,0,0-1.91.44,2,2,0,0,0-.94-.24h-.12a5,5,0,0,1-1-.21,2.75,2.75,0,0,1-.81-.57l-.17-.15a2.2,2.2,0,0,0-1.77-.53h-.16a4.36,4.36,0,0,1-1,0c-.54-.11-1.09-.2-1.63-.28l-.38,0a8.23,8.23,0,0,1-.89-.22,7.81,7.81,0,0,0-1.14-.24c-.8-.09-1.47-.14-2.06-.17a8.47,8.47,0,0,1-.85-.09h-.11a10.58,10.58,0,0,0-1.06-.09h-.17a7.61,7.61,0,0,0-.79,0l-.27,0a8.69,8.69,0,0,1-.94.08,9.08,9.08,0,0,1-1-.08l-.12,0a8.25,8.25,0,0,0-.9-.06,7,7,0,0,0-1,.15l-.23,0c-.31.07-.63.13-.92.17-.48.06-1,.14-1.52.23l-.47.09a6.91,6.91,0,0,0-1.15.29,7.47,7.47,0,0,1-.89.26c-.33.07-.66.16-1,.26l-.57.17-.42.12c-.29.07-.59.12-.92.17a9.45,9.45,0,0,0-1.06.21l-.1,0a5.58,5.58,0,0,1-.89.2l-.12,0a6.17,6.17,0,0,0-1,.26c-.64.22-1.29.46-1.92.72a5.18,5.18,0,0,0-.87.47l-.22.14a5.14,5.14,0,0,1-.7.4l-.1,0c-.32.16-.63.35-1,.55l-.74.42a7.12,7.12,0,0,0-.8.49l-.21.14a8.57,8.57,0,0,1-.74.47,4.81,4.81,0,0,1-.86.33c-.26.07-.63.2-.75.25a2,2,0,0,0-.29.15,3,3,0,0,0-.67.58l-.1.09-.08.09a3.12,3.12,0,0,1-.63.58,5.4,5.4,0,0,1-.9.46l-.13.06a4.28,4.28,0,0,0-.7.37l-.1.08a8.85,8.85,0,0,0-.82.76c-.2.21-.4.41-.59.58a4.12,4.12,0,0,0-.76.93,4.11,4.11,0,0,1-.48.64,8.11,8.11,0,0,1-.69.58,5.4,5.4,0,0,0-.82.72c-.19.23-.4.44-.56.6a6,6,0,0,0-.56.58,2.46,2.46,0,0,0-.34.56,2.36,2.36,0,0,0-.31.78s0,0,0,.06a3.87,3.87,0,0,1-.24.7,2.3,2.3,0,0,0-2.29.24l-2,1.3a1.93,1.93,0,0,0-.28.22l-1.15,1.1-.1.1-.08.08,0,0-.08.08-1.19,1.27-.09.11-.15.19-.83,1.18a2.9,2.9,0,0,0-.19.29l-1.2,1.86c-.18.26-.36.56-.5.81l-.17.29a1.32,1.32,0,0,0-.12.2l-.06.11c-.27.48-.53,1-.79,1.51l-.09.21-.64,1.69a1.82,1.82,0,0,0-.07.25l-.82,3.65a.5.5,0,0,0,0,.12l-.29,1.82a1.42,1.42,0,0,1-.29.31l-.1.06-.21.09-.19.08a2.93,2.93,0,0,0-.64.47,3.38,3.38,0,0,0-.38.51l-.14.22a.86.86,0,0,0-.1.16l-.45.8-.41.52-.13.19-.47.76-.11.2c0,.08-.07.16-.11.25l-.16.44-.06.15-.28.91c0,.1,0,.2-.07.3l0,.23a1.72,1.72,0,0,1,0,.24c0,.09,0,.18,0,.28l-.1.89h0a.36.36,0,0,0,0,.1l-.15.62a.8.8,0,0,0,0,.15l-.15.85s0,.22,0,.27l-.07.59a2.21,2.21,0,0,0,1.56,2.38,2.34,2.34,0,0,0-.24.31,11.47,11.47,0,0,0-.65,1.24c-.21.49-.41,1.1-.61,1.71l-.17.55c-.13.42-.26.83-.34,1.19,0,.18-.09.37-.15.63l0,.12c-.09.37-.17.74-.22,1.08-.1.59-.17,1.21-.24,1.84a10.76,10.76,0,0,0,0,1.14c0,.24,0,.49,0,.7,0,.38,0,.76,0,1.14l0,.75c0,.34,0,.67.07,1l.07.78c0,.27,0,.52,0,.86v.18a7.52,7.52,0,0,0,0,.86,8,8,0,0,0,.27,1.07c.07.25.14.51.18.68s.09.43.14.73a11.27,11.27,0,0,0,.26,1.13,12.2,12.2,0,0,0,.51,1.3l.18.44a11.53,11.53,0,0,0,.57,1.1l.15.28.22.42c.12.23.22.45.35.74l.11.23a6.87,6.87,0,0,0,.43.83l.35.61a.41.41,0,0,0,.05.09l.22.37a2.31,2.31,0,0,0,1.61,1.06,3.82,3.82,0,0,0,.09.63,3.52,3.52,0,0,0,.13.43,2.25,2.25,0,0,0,.08.52,1.23,1.23,0,0,0,0,.16,4.4,4.4,0,0,1,0,.8,3.89,3.89,0,0,0,.06,1.13,4.91,4.91,0,0,0,.3.89l.06.13c.11.26.22.52.28.72.2.67.42,1.28.62,1.82q.12.3.21.6l0,.13c.11.31.22.64.38,1,.26.56.54,1.12.82,1.66.1.18.2.37.31.59l.07.14c.16.3.32.62.5.92a10.24,10.24,0,0,0,.66.95l.41.57c.15.22.29.46.45.74l.09.14a4.55,4.55,0,0,0,.48.73c.19.25.39.48.59.71l.19.21.44.49c.41.48.82.93,1.22,1.36a8.16,8.16,0,0,0,.74.71l.09.08c.19.18.37.34.56.53s.48.46.73.68l.69.61c.16.14.31.3.49.47a10.29,10.29,0,0,0,.79.74c.22.18.42.37.63.56s.53.47.82.69c.51.4,1,.78,1.51,1.11a8.49,8.49,0,0,0,1,.58l.32.18.37.21a12.64,12.64,0,0,0,1.12.63l.56.31c.34.18.68.34,1,.49l.13.05.33.15.22.11c.28.14.54.29.78.43l.1.06a6.33,6.33,0,0,0,.87.46,8.11,8.11,0,0,0,1,.29l.24.06.51.14.89.38.17.07a6.49,6.49,0,0,0,.7.26,10.89,10.89,0,0,0,1.06.26l.41.08.48.11c.3.06.67.11,1.16.16a6.26,6.26,0,0,1,.73.08c.19,0,.37.08.55.12l.33.07a7.86,7.86,0,0,0,.9.17c.29,0,.57.07.92.13l.21,0c.29,0,.55.08.78.09a7.75,7.75,0,0,0,1.51-.1l.26,0a2.26,2.26,0,0,0,.21,1.74,2.3,2.3,0,0,0,1.4,1.1,4.19,4.19,0,0,0,.84.16l.43,0,.83.1,1.23.18.31,0h.31l1.39,0,.52,0c.34,0,.68,0,1,.08l2.7.36.17,0h.25l1.33,0h.19l.4,0,2.73-.38.35-.07.11,0L254,304l.13,0,.1,0,.91,0,.31,0a2.32,2.32,0,0,0,1-.23l.28-.13.31-.13h0l1.47-.24a2.59,2.59,0,0,0,.55-.13l.44-.17.12,0,.38-.15.4-.16.28-.13.92-.51h0l.06,0,.53-.15.54-.16a2,2,0,0,0,.31-.08l.21-.07.36-.13.15-.05.51-.2a2.19,2.19,0,0,0,.9-.58l.05-.05.32-.31.18-.15h0a2.35,2.35,0,0,0,1.33.21l1.16-.17.1,0,.83-.16.32-.08,1.64-.51.15-.06.1,0,1.57-.56a1,1,0,0,0,.22-.09l1.54-.69.08,0,.09,0,.22-.11,3-1.54h0l.11-.05.23-.14h0L280,295a2.52,2.52,0,0,0,.33-.24l1.24-.94.13-.1a1.22,1.22,0,0,0,.17-.15l1.17-1.14.11-.1.12-.14,1.14-1.3a4.08,4.08,0,0,0,.25-.33l0,0,.92-1.36a1.94,1.94,0,0,1,.34-.21h0a3.23,3.23,0,0,0,1.09-.31l.34-.18.16-.1.31-.2.11-.07.67-.48.32-.19.43-.27.64-.43.08-.05a2.22,2.22,0,0,0,.44-.37l1-.93a2.27,2.27,0,0,0,.27-.33l.21-.24c.06-.06.11-.13.16-.19l.91-1.25.1-.14.32-.49a2.31,2.31,0,0,0,0-2.57,3.47,3.47,0,0,1,.29-.25l.24-.2a6.06,6.06,0,0,0,.54-.47,5.27,5.27,0,0,0,.49-.57l.09-.11c.11-.14.23-.29.36-.43a6.4,6.4,0,0,1,.51-.46l.15-.12c.12-.09.23-.19.34-.29l.17-.19c.13-.17.24-.34.36-.51l.1-.15c.12-.18.23-.36.36-.53s.47-.66.68-1l.19-.28a5.36,5.36,0,0,0,.34-.62l.06-.12a3.54,3.54,0,0,1,.26-.47c0-.05.05-.09.07-.13l.25-.46.13-.25a.89.89,0,0,0,.08-.17l.15-.3,0-.06.36-.59.06-.09a4.16,4.16,0,0,0,.36-.63c.09-.18.19-.35.29-.53a.83.83,0,0,0,.09-.16,3.19,3.19,0,0,0,.31-.61c.19-.47.38-.95.51-1.35a3.7,3.7,0,0,0,.18-.75s0-.1,0-.12c0-.22.08-.44.13-.62a5.85,5.85,0,0,0,.16-.75l0-.15c0-.2.06-.39.09-.5a6.52,6.52,0,0,0,.14-.91c0-.21.05-.43.08-.65a3.81,3.81,0,0,1,.16-.53l0-.07a3.33,3.33,0,0,0,.2-.61,2.24,2.24,0,0,0,0-1v0a4.49,4.49,0,0,1,0-.62,5.67,5.67,0,0,1,.11-.66,4.78,4.78,0,0,0,.13-.76,4.92,4.92,0,0,0,0-.83v-.1c0-.21,0-.43-.05-.65,0-.06,0-.11,0-.17a4,4,0,0,0-.14-.64,4.13,4.13,0,0,1-.11-.66,4,4,0,0,1,0-.5v-.23a3.48,3.48,0,0,0,0-.73c0-.2,0-.4,0-.6a2.07,2.07,0,0,0-.29-1.09,2.21,2.21,0,0,0-.15-.88,1.68,1.68,0,0,1-.07-.24,2.31,2.31,0,0,0,1.1-1.35l0-.08c0-.06,0-.12.05-.17.1-.46.2-.94.31-1.5,0-.17.07-.34.11-.52l0-.13a8.08,8.08,0,0,0,.16-.8c0-.17,0-.36,0-.55v-.26q0-.31,0-.63a4.37,4.37,0,0,1,.15-.7,3.64,3.64,0,0,0,.15-.78A5.72,5.72,0,0,0,304.33,243.79Z" style="fill: #c6c5c6"/>
      <path d="M217.54,278h0l.4.3.86.65.1.07,0,0,.07,0,.27.15.26.15.3.11a2.43,2.43,0,0,1,.41.18l.14.09a1.64,1.64,0,0,1-.06,2.32,1.55,1.55,0,0,1-.73.4h-.18l-.45-.07a5.42,5.42,0,0,1-.75-.2l-.52-.16-.27-.1-.36-.17-1-.48-.52-.26-.13-.07-.34-.23-.25-.18c-.17-.12-.33-.22-.52-.37s-.39-.34-.59-.52a3.74,3.74,0,0,1-.33-.3l-.24-.23-.47-.46a13.14,13.14,0,0,1-1-1.35l-.34-.54c-.13-.24-.26-.48-.38-.72l-.18-.36,0-.09,0,0-.06-.15-.05-.14-.18-.56a4.68,4.68,0,0,1-.17-.61c-.05-.23-.1-.44-.14-.65a2.79,2.79,0,0,1-.07-.34c0-.08,0-.16,0-.23s0-.29-.05-.43,0-.57-.07-.82c0-.5,0-.79,0-.79a1.93,1.93,0,0,1,3.82-.4l.09.4s0,.15.06.42a4.19,4.19,0,0,0,.09.55c0,.13,0,.27.08.42a1.43,1.43,0,0,1,0,.22.68.68,0,0,1,0,.13c0,.11,0,.23.08.36a3.38,3.38,0,0,0,.12.44c.07.18.13.36.2.55l0,.07h0l0,0,.09.19.18.4.33.55a8.56,8.56,0,0,0,.51.77l.42.5.22.25.13.15a4.17,4.17,0,0,1,.34.38c.12.13.29.28.44.42l.22.21.06,0v0Zm21-51.75h0l.08,0,.34-.11.33-.1.24-.06.23-.06.11,0,.06,0h0l.58-.11.29-.06H241l.31-.05h0l-.08,0h.14l.24,0h.22a.44.44,0,0,1,.19,0,4,4,0,0,1,.4.1,1.37,1.37,0,1,0,1.65-2.18l-.18-.17a3.33,3.33,0,0,0-.58-.43,4.55,4.55,0,0,0-1.06-.49l-.22-.08-.12,0h0l-.11,0h-.11l-.77-.08-.4,0h-.92l-.9.1c-.14,0-.3,0-.42.06l-.34.08-.34.07-.18,0h0l-.14,0,0,0-.11,0c-.29.11-.59.23-.88.36l-.68.33-.16.09-.15.08-.1.06-.42.27a10.88,10.88,0,0,0-1.33,1.07c-.22.21-.45.42-.65.64s-.31.38-.47.57a8.71,8.71,0,0,0-1,1.53,2.58,2.58,0,0,0-.28.65c-.07.19-.13.37-.19.55l0,.13a.71.71,0,0,0-.06.14h0v.06l0,.09c0,.11,0,.23-.07.34a4.74,4.74,0,0,0-.09.61,8.26,8.26,0,0,0,0,.94,3.33,3.33,0,0,0,0,.53.85.85,0,0,0,0,.18,1.37,1.37,0,0,0,2.74.14,3.63,3.63,0,0,0,.13-.65,3.89,3.89,0,0,1,.14-.62,1.39,1.39,0,0,1,.12-.32l0-.12.07-.11c.09-.16.19-.33.3-.5l.15-.27a1.25,1.25,0,0,1,.17-.16c.23-.19.36-.43.62-.62s.36-.35.51-.46a4.23,4.23,0,0,0,.42-.32c.25-.17.8-.65,1-.74l.2-.15,0,0h0l.16-.08c.21-.12.45-.26.63-.35a3.1,3.1,0,0,0,.45-.21l.06,0h-.06Zm-3.47,12.13-.5-.2a1.88,1.88,0,0,1-.36-.16,1.84,1.84,0,0,0-.44-.22l-.58-.19a1.32,1.32,0,0,0-1.23.26,1.3,1.3,0,0,0-.15,1.84,10.28,10.28,0,0,0,.88.87,4.28,4.28,0,0,0,.41.32l.44.3.13.08.16.08.05,0,.1,0,.41.17.45.17a2.65,2.65,0,0,0,.41.13l.71.17.1,0h.23l.25,0,.53,0a5,5,0,0,0,.52,0h.94l.17,0,.15,0,.29-.07.6-.14.29-.08.21-.07.43-.15.22-.08.17-.06.14-.06c.35-.16.74-.33,1.06-.49l.41-.22.2-.12.1-.06.06,0,.16-.1,1-.77c.25-.22.45-.43.67-.66a9.17,9.17,0,0,0,.79-.94,4.07,4.07,0,0,0,.29-.43l.23-.38a11.61,11.61,0,0,0,.94-1.74l.15-.37.07-.18.07-.15v-.05l0-.12c.09-.29.17-.58.25-.86a5,5,0,0,0,.15-.7l.06-.31,0-.24v-.17c0-.45,0-.84.05-1.17a5.54,5.54,0,0,0-.07-.86v-.06a1.39,1.39,0,0,0-2.72-.09,6,6,0,0,0-.13.86c0,.22-.09.49-.15.79v.06h0v.06l0,.05c0,.1-.07.2-.1.3a5.6,5.6,0,0,1-.23.59l-.26.51h0l0,0-.1.16-.21.34a3.82,3.82,0,0,1-.41.58l-.2.26,0,0h0l0,.05-.14.17-.28.34a1.29,1.29,0,0,1-.26.29c-.15.13-.3.34-.41.43l-.68.61-.49.37h0l-.1.06-.2.12-.4.24-.63.29,0,0h-.08l-.21.08-.42.18-.21.09-.14,0-.26.08-.13.05-.07,0-.37.05-.41.06a1.49,1.49,0,0,1-.3,0h-.42l.08,0h-.12l-.73-.06a.6.6,0,0,1-.25,0l-.18,0-.19,0h-.07l.06,0Zm3.15,0h0ZM260.43,290l0,0h0l-.14.05-.29.12a10.68,10.68,0,0,1-1.21.4l-1.34.32a15,15,0,0,0-1.51.28c-.27,0-.57.13-.77.15l-.33.05-.16,0-.08,0h0l-1.61.12-.42,0h-.18l-.8-.06c-.52-.06-.89-.12-1.43-.15l-.71-.05c-.23,0-.36,0-.53-.07l-.24,0h-.17L248,291a7.15,7.15,0,0,1-.81-.26l-.64-.22a2,2,0,0,0-1.44,3.63l0,0,.8.35c.27.12.55.22.88.33l.52.19h0l.16,0h0l.09,0,.18,0,.38.06c.25,0,.55.08.79.1l.7.07c.43,0,1.07.13,1.61.16l.81,0h.65l.41-.05,1.68-.17.14,0h0l.06,0,.13,0,.25-.06.5-.11c.36-.08.6-.16.88-.24l1.67-.49.74-.27.36-.13.14,0,0,0,.1,0,.19-.08a14.69,14.69,0,0,0,1.32-.66l.62-.35.55-.41L263,292c.14-.11.22-.2.32-.29s.32-.3.41-.4a.7.7,0,0,0,.12-.17l0,0a1.55,1.55,0,0,0-1.79-2.19.72.72,0,0,0-.19.09,4.9,4.9,0,0,0-.48.32l-.33.23-.32.18c-.1.05-.2.12-.31.19Zm-53-44.08,0-.09.06-.18.12-.35a.69.69,0,0,1,.21-.39c.06-.07.08-.18.12-.23l.18-.26.09-.1a2,2,0,0,1,.29-.33l.13-.14.38-.52a1.91,1.91,0,0,0-2.45-2.8s-.16.09-.43.27a2.58,2.58,0,0,0-.47.35,3.45,3.45,0,0,0-.57.54l-.29.35c-.06.08-.13.16-.19.25a5.85,5.85,0,0,0-.54,1,4.16,4.16,0,0,0-.37.92c-.07.31-.14.62-.22.92s-.05.75-.05,1.12a2.6,2.6,0,0,0,.09.83l.06.35,0,.16h0l0,.16v0l0,.06,0,.11c.1.3.21.58.32.83s.1.25.15.35l.13.2.22.34a.62.62,0,0,0,.24.27h0a2.19,2.19,0,0,0,.43.15,1.79,1.79,0,0,0,2.16-1.32.7.7,0,0,0,0-.36l-.1-.39c0-.07-.05-.15-.07-.23s0-.12,0-.18a1.93,1.93,0,0,0,0-.34v-.05a.89.89,0,0,1,0,.11v-.17l0-.35a1.51,1.51,0,0,1,.08-.6l.06-.19v0h0Zm15.75-29.2a.84.84,0,0,1,.28-.06.28.28,0,0,0,.13,0l.12,0,.92-.62a1.77,1.77,0,0,0,.79-1.42,1.8,1.8,0,0,0-1.73-1.87,4.9,4.9,0,0,0-.51,0l-.58,0a2.89,2.89,0,0,0-.63.11l-.53.15-.07,0h0l-.19.07h0l-.24.12c-.17.08-.33.18-.49.27a4,4,0,0,0-.8.59l-.65.66c-.21.31-.4.63-.58.94a2.59,2.59,0,0,0-.29.74c0,.1-.06.2-.08.3l0,.15h0l-.06.16h0v.08l0,.1q0,.42-.09.78a2.7,2.7,0,0,0,0,.56q0,.21,0,.36a.48.48,0,0,0,.07.32v0a2.11,2.11,0,0,0,.19.23,1.86,1.86,0,0,0,2.63.06.47.47,0,0,0,.14-.3c0-.09.06-.21.1-.35a.87.87,0,0,1,.14-.36l.17-.3,0,0v0a.43.43,0,0,1,0,.11l.08-.11c.05-.09.11-.18.17-.27s.25-.43.32-.43l.08-.06,0,.05h0l0,0,.06,0,.14-.11.26-.22c.11-.11.16-.14.2-.13h.09a.09.09,0,0,0,.06,0l0,0,.05,0Zm-2.27,11.82.14-.24.28-.48a2.24,2.24,0,0,1,.26-.36l.19-.25c.23-.28.5-.64.7-.84s.34-.36.47-.45l.41-.32.19-.16a.7.7,0,0,1,.14-.08l.24-.14.11-.08,0,0h0l.69-.3a2.48,2.48,0,0,1,.38-.12,1.46,1.46,0,0,0,.3-.11l.41-.19a1.93,1.93,0,0,0-1.12-3.65s-.26,0-.71.14c-.21,0-.55.12-.78.2s-.47.16-.73.27l-.1,0-.18.08h0l-.07,0-.28.16-.57.36-.29.18-.2.16-.41.33a10.26,10.26,0,0,0-1.08,1.11c-.29.36-.46.63-.7.95l-.05.08h0v0l0,0-.05.08-.09.16-.19.31c-.1.21-.26.45-.32.61l-.22.52-.1.25-.08.17,0,.08-.05.16a9.12,9.12,0,0,0-.32,1.2c0,.16-.05.32-.07.47l0,.23,0,.22v.14c0,.37,0,.71,0,1s0,.45,0,.63a1.69,1.69,0,0,0,.05.39.28.28,0,0,0,.06.13v0a1.83,1.83,0,0,0,.46.46,1.71,1.71,0,0,0,2.38-.45,1.36,1.36,0,0,0,0-.14,2.31,2.31,0,0,0,.06-.39,3.73,3.73,0,0,1,.07-.56c0-.15.1-.33.15-.52h0V230h0l.08-.21c0-.15.11-.3.17-.45a1.59,1.59,0,0,1,.18-.39l.18-.35,0,0v0Zm15.52,44.55a1.48,1.48,0,0,1,.24-.26c.08-.07.1-.11.2-.19l.24-.12.12-.06,0,0h0l.17-.06.2-.11c.11,0,.24,0,.34,0a3,3,0,0,0,.65-.09,3.2,3.2,0,0,0,.35.16,5.92,5.92,0,0,1,.67.34l.23.13.12.06.06,0,0,0-.08,0a3.11,3.11,0,0,0,.28.23,6.76,6.76,0,0,1,.87.78l0,0h0l0,0s0,0,0,0l0,.05.12.18c.09.15.18.16.32.43l.33.59a0,0,0,0,1,0,0s0,0,0,0v.08l0,.1.09.19a2.53,2.53,0,0,1,.18.66l.07.34h0v.07l0,.15a3.52,3.52,0,0,1,0,.52.66.66,0,0,0,0,.13l-.06.4c0,.08-.17.56-.2.64a2,2,0,0,1-.19.29l-.12.15a1.93,1.93,0,0,1-.27.3l-.15.14-.11.08s0,.07-.14.11l-.3.11-.14.06-.07,0h0l-.11,0a1.15,1.15,0,0,1-.36.07c-.26.05-.41,0-.56.06a3.8,3.8,0,0,1-.52,0h-.11s-.17-.12-.45-.28-.29-.24-.48-.36-.3-.3-.49-.44-.26-.27-.39-.42l-.11-.11,0,0h0L237,278a3.24,3.24,0,0,0-.24-.31c-.08-.12-.22-.37-.33-.55l-.14-.24h0l0,0h0l0-.09a2.63,2.63,0,0,0-.15-.35,4.93,4.93,0,0,1-.16-.66l-.06-.24v-.12a1.14,1.14,0,0,0-.06-.3c0-.24.07-.48.1-.72l0-.18v-.09a.24.24,0,0,0,0-.08c0-.13.08-.28.1-.36a.67.67,0,0,1,.16-.33l.1-.13,0-.06Zm10,3.28,0-.26,0-.13v0l0-.18v-.05l-.1-.4a5.83,5.83,0,0,0-.28-.92l-.23-.55-.13-.28-.06-.13,0-.07,0,0-.08-.14h0l-.45-.65a5.32,5.32,0,0,0-.63-.75l-.36-.38-.09-.09-.05,0-.12-.12h0l-.15-.1a7.71,7.71,0,0,0-1.28-.82l-.73-.36-.15-.06h-.05l-.07,0-.13,0-.25-.07a5.27,5.27,0,0,0-1-.21c-.68-.08-1.06-.09-1.06-.09l-.17,0a3.5,3.5,0,0,0-.63-.1l-.36,0-.62.06c-.23,0-.47.06-.72.1l-.63.18a7.52,7.52,0,0,0-.8.35,7.71,7.71,0,0,0-.75.47l-.37.3-.33.33a5.83,5.83,0,0,0-.61.79,7.23,7.23,0,0,0-.48.91c-.06.15-.12.31-.17.47l0,.06h0l0,.21v0l0,.09,0,.17c-.05.24-.1.48-.14.72a11.41,11.41,0,0,0,0,1.17l0,.29v.21l0,.2v0l.09.36c.08.25.1.43.22.74s.27.66.42,1l.11.23,0,.06,0,0,.09.15h0l.06.07.2.28a4.89,4.89,0,0,0,.44.57l.62.65.31.3.09.08h0l0,0,.06,0,.12.09.47.33a8.12,8.12,0,0,0,1.2.65,7.67,7.67,0,0,0,.92.31c.52.12.82.16.82.16h0l.07,0a.82.82,0,0,0,.18.08,2.78,2.78,0,0,0,.59.17,6.75,6.75,0,0,0,1.18.13,3.3,3.3,0,0,0,.7,0l.39,0,.42-.09a5.12,5.12,0,0,0,1.74-.65,4.51,4.51,0,0,0,.87-.6l.1-.09.06-.05,0,0,.09-.1.14-.14a2.29,2.29,0,0,0,.29-.31,6.68,6.68,0,0,0,.69-1,2.61,2.61,0,0,0,.24-.54l.1-.29,0-.14.06-.24.09-.4c0-.21.05-.46.07-.69a5.77,5.77,0,0,0,0-.59A3.24,3.24,0,0,0,246.44,276.34Zm35.2-28.17s0,0,0,0Zm-10.94,8.56h0c0,.1-.08.2-.11.3l-.09.31c-.05.12-.13.28-.2.42l-.18.38h0l0,.06-.08.11a2.77,2.77,0,0,1-.41.57l-.31.35h0l-.07.08,0,0h0l.09-.1h0l-.09.06a1.07,1.07,0,0,0-.16.14l-.07.08-.21.11-.42.22-.06,0h0l-.06,0a.84.84,0,0,1-.24.06l-.15,0s0,0-.17,0l-.2,0h0a2,2,0,0,1-.4-.16.15.15,0,0,0-.07,0,.41.41,0,0,1-.12-.07l-.19-.14-.06,0h0a2.9,2.9,0,0,0-.34-.36,2.45,2.45,0,0,0-.24-.38l-.35-1.07-.07-.19a1,1,0,0,0-.12-.29c-.06,0-.1-.36-.14-.6l-.06-.38,0-.13v0l0-.5a7.19,7.19,0,0,1,.06-.72l0-.38v-.07l0-.13c0-.19,0-.34.08-.56l.22-.74,0-.07,0-.05.1-.21.09-.23.22-.31.23-.31.09-.12,0,0a2.85,2.85,0,0,0,.27-.32,4.75,4.75,0,0,1,.6-.41l.16-.1,0,0,.16-.07a3.18,3.18,0,0,1,.39-.11s.34,0,.59,0h.06a1.32,1.32,0,0,0,.43-.12,1.35,1.35,0,0,0,1.25.93,1.36,1.36,0,0,0,1.41-1.31v-.24s0-.29,0-.76c0-.14,0-.34,0-.53s0-.19,0-.28v0l0-.08c.09-.44.2-.94.31-1.49,0-.13.06-.27.08-.41h0a.34.34,0,0,0,0,.09v0l0-.08.06-.16c.08-.23.12-.42.23-.69l.38-.9.33-.64a5.45,5.45,0,0,1,.5-.81l.22-.34.24-.27a3.93,3.93,0,0,1,.59-.63l.42-.36.1-.09.13-.08a2.2,2.2,0,0,0,.25-.17c.11-.06.1-.13.31-.2l.51-.21.25-.11.12-.06h0l.67-.18a1.48,1.48,0,0,1,.62-.06,3.29,3.29,0,0,1,1.13.24,2.9,2.9,0,0,1,.38.2l.1,0,0,0h0l.07,0a3.23,3.23,0,0,0,.43.29,7.31,7.31,0,0,1,.51.57l.24.28.05.07h0l0,0,.25.39a1.74,1.74,0,0,1,.23.39c.16.39.29.65.36.79v0s0,.28,0,.75c0,.19,0,.6,0,1V246h0l0,.06-.06.57a2.91,2.91,0,0,0,0,.31c0,.13-.05.26-.08.4s-.1.5-.15.76a.11.11,0,0,1,0,0v0l0,.08-.05.16-.11.34a6.32,6.32,0,0,1-.29.8L281,250l0,.06,0,.05a.06.06,0,0,0,0,0l0,0-.08.16-.34.68-.55.86-.05.05-.11.13-.22.27a4.57,4.57,0,0,1-.63.65l-.32.29h0l-.06,0-.11.08a1.24,1.24,0,0,0-.22.18l-.11.09a1.34,1.34,0,0,1-.21.11l-.87.41h0l-.16.06c-.1,0-.2.05-.3.08s-.33.06-.47.11h-.7l-.68-.09a1.53,1.53,0,0,0-.35,0l-.31-.14-.08,0h0a1,1,0,0,1-.33-.31,3,3,0,0,1-.1-.32,1.37,1.37,0,0,0-1.34-1,1.34,1.34,0,0,0-.68.22,1.41,1.41,0,0,0-.84,1.59h0a2,2,0,0,0,.08.23,4.59,4.59,0,0,0,.18.45,4.86,4.86,0,0,1,0,.68l0,.33c0,.12-.06.3-.09.45l0,.23,0,.12,0,0A.06.06,0,0,0,270.7,256.73ZM285.31,246l0-.3,0-.17-.06-.32a7,7,0,0,0-.25-1.12c-.18-.61-.31-1-.33-1a.76.76,0,0,1,0-.15,7.52,7.52,0,0,0-.26-1,10.28,10.28,0,0,0-.56-1.3l-.09-.2-.18-.28-.2-.3c-.15-.22-.25-.42-.46-.69s-.54-.58-.84-.87l-.23-.23-.25-.19c-.14-.1-.2-.17-.42-.31a6.21,6.21,0,0,0-2.63-1,5.68,5.68,0,0,0-1.48,0,7.66,7.66,0,0,0-1.38.26h0l-.2.07-.06,0-.13.05-.26.1-.51.2a3.72,3.72,0,0,0-.64.34l-.68.43-.34.22-.12.1v0l0,0-.06,0-.1.09-.4.37a8.47,8.47,0,0,0-.9,1l-.45.56-.09.13,0,0,0,.06-.06.12-.14.23a7.75,7.75,0,0,0-.53,1,11.47,11.47,0,0,0-.52,1.22c-.1.32-.2.63-.29.93s-.18.75-.25,1.1l0,.27,0,.13,0,.25,0,.42c0,.56-.06,1.06-.08,1.51a3,3,0,0,0-.69-.05,5.15,5.15,0,0,0-1.12.15l-.51.15-.06,0h-.05l-.16.08-.08,0-.17.08c-.24.13-.44.2-.72.38s-.6.45-.89.69l-.1.1-.06,0,0,0-.1.11-.13.14-.26.29-.26.28-.3.44-.29.44-.14.23,0,.06h0l-.07.15v0l0,.09-.3.7c-.1.27-.2.62-.28.93l-.07.25,0,.12,0,.18-.08.38c0,.27-.1.46-.14.79l-.06,1.05v.21h0v.37l0,.38a4,4,0,0,0,.15.91c.11.39.24.78.38,1.16l-.08-.19.14.47.23.74v0a.77.77,0,0,0,.07.16c.22.4.46.79.72,1.18a13.33,13.33,0,0,0,1,1l0,0,0,0h0l.1.07.05,0,.1.06.2.14.28.17.35.19a5.83,5.83,0,0,0,1.38.49l.18.05.21,0H267l.24,0a5.61,5.61,0,0,0,.78,0,3.78,3.78,0,0,0,.78-.14,4.75,4.75,0,0,0,.67-.21l.16-.06.08,0,0,0h0l.2-.1.2-.12.41-.25.21-.12.28-.23c.19-.16.38-.32.56-.49l.27-.25.07-.07h0l.11-.13,0,0,.07-.1.28-.38a7.2,7.2,0,0,0,.63-1l.15-.29.08-.15.08-.18,0-.06.15-.45.15-.46.14-.62.11-.56.82.24.22.06.33.06.44.08a7.38,7.38,0,0,0,1.33,0,5.63,5.63,0,0,0,.61-.08l.31-.07.15,0h.12l.17-.06h0l.92-.31a1.86,1.86,0,0,0,.24-.09l.32-.18.62-.36.31-.19.15-.1.08-.05h0l.12-.1,0,0,.38-.34a6.64,6.64,0,0,0,.8-.8l.44-.52.21-.26.1-.14.1-.14v0l0-.05c.17-.29.34-.58.52-.87s.36-.75.52-1.12l.12-.28,0-.07.05-.13v0l0-.11.14-.46a6.34,6.34,0,0,0,.27-1l.12-.56.12-.63.06-.85c0-.14,0-.27,0-.41v-.47C285.34,246.59,285.33,246.29,285.31,246Zm-4.87-25.36v-.17a.16.16,0,0,0,0-.09c0-.11,0,0-.06,0s-.05,0,0,0l.1-.11.21-.22a.64.64,0,0,0-.1.06h0s0-.05,0-.06a.25.25,0,0,0,.09-.09s0-.08.2-.07h.43c.07,0,.1,0,.21,0l.29.11a3.21,3.21,0,0,0,.47.16,3.62,3.62,0,0,0,.22.29c.08.09.16.25.27.38s.16.31.27.46.34.58.37.67a2.52,2.52,0,0,0,.23.57c.09.27.17.62.28.94v.05l0,.1,0,.19,0,.36a.83.83,0,0,0,0,.2l0,.29v.13a1.89,1.89,0,0,0,0,.32l.06,0s.11,0,0,.08l-.17.19-.09.09,0,0,.14-.11h0a.47.47,0,0,1-.16.19,1.06,1.06,0,0,1-.33.1h-.32s-.25-.05-.32-.05h-.12a2.66,2.66,0,0,0-.22-.24l-.15-.13-.25-.27-.3-.31,0,0,.06,0,0-.06-.08-.12-.18-.25c-.09-.15-.18-.31-.28-.46l-.13-.24v0l0-.09a1.83,1.83,0,0,0-.14-.32l-.08-.16c0-.08-.06-.19-.09-.29s-.12-.4-.19-.6l-.07-.35c0-.15,0-.29-.05-.42a.28.28,0,0,0,0-.09s0-.05,0-.18v-.29Zm7.49,2.36-.09-.36,0-.18,0-.09v0l-.05-.18c-.14-.36-.27-.67-.44-1a14.29,14.29,0,0,0-.74-1.23,6,6,0,0,0-.73-.8,5.56,5.56,0,0,0-.79-.68,5.72,5.72,0,0,0-.63-.4c-.38-.19-.6-.28-.6-.28l-.08,0s0,0,0-.05h0a2.63,2.63,0,0,0-.48-.35l-.26-.18a4.2,4.2,0,0,0-.49-.21l-.63-.22-.17,0h-.26l-.23-.05a3,3,0,0,0-.81,0,4.19,4.19,0,0,0-.95.16,3.56,3.56,0,0,0-.47.19l-.23.11-.12.06-.23.17-.25.16-.12.09-.22.22a4.2,4.2,0,0,0-.73,1,3.69,3.69,0,0,0-.38,1l-.07.25,0,.12v0l0,.17v0l0,.32c0,.07,0,.26,0,.46l0,.55c0,.3.08.58.14.85l.1.4.05.19.05.18,0,0,0,.07c.07.2.15.4.23.59l.12.29.21.38c.14.24.28.49.43.72l.1.17,0,0,.08.11h0l.05,0,.18.21.36.41.52.47.25.22.12.1h0l.11.1h0l0,0,.05,0,.37.21.33.18.39.17a7.3,7.3,0,0,0,.79.29h.06a.43.43,0,0,0,.11.09,1.53,1.53,0,0,0,.4.2,5.14,5.14,0,0,0,.86.27,4.45,4.45,0,0,0,1.21.09,4,4,0,0,0,1.55-.44l.64-.41a3.88,3.88,0,0,0,.34-.32c.13-.14.26-.29.38-.44a4.77,4.77,0,0,0,.75-1.67l0-.11v0h0l0-.14v0l0-.14,0-.28c0-.27,0-.63,0-.93Zm-6.33,48h0Zm-1.11.5-.17,0-.31.1-.52.17-.44.18-.06,0a1.4,1.4,0,0,0-.82,1,1.42,1.42,0,0,0,1.14,1.65,4,4,0,0,0,.47.07l.53.05.33,0h.18l.35,0a7.82,7.82,0,0,0,1-.12l.44-.08.11,0h0l.14-.05h0l.08,0,.31-.13.64-.28.42-.24a6.9,6.9,0,0,0,1.21-.95l.33-.38.17-.19.09-.11,0,0,.06-.07.1-.16c.13-.2.27-.4.39-.61l.2-.45.08-.22,0-.06v0l.07-.14v0l.05-.16c.06-.2.11-.41.15-.6a2.24,2.24,0,0,0,.08-.48c0-.14,0-.27,0-.4v-.13l0-.12h0v0c0-.09,0-.17,0-.24s0-.31,0-.45a3,3,0,0,0,0-.35l.42-.14h0l.15-.06.07,0,.15-.07.31-.17c.2-.1.44-.23.62-.34l.47-.32a10.86,10.86,0,0,0,1.27-1c.15-.15.31-.3.46-.46l.11-.11,0,0,.11-.12v0l0,0,.07-.09.28-.39a10,10,0,0,0,.78-1.33l.06-.1v0l0-.06.05-.11.08-.23.16-.45a4.2,4.2,0,0,0,.2-.74l.08-.33.05-.24,0-.21c0-.28.08-.56.11-.83s0-.43,0-.64V258l-.06-.7c0-.21-.07-.36-.09-.54s-.08-.39-.11-.58-.11-.36-.16-.53-.1-.32-.15-.46-.09-.22-.12-.32-.14-.33-.19-.42a1,1,0,0,0-.11-.14l0,0a1.57,1.57,0,0,0-.77-.39,1.62,1.62,0,0,0-1.92,1.26.74.74,0,0,0,0,.17,2.25,2.25,0,0,0,.09.46,2.84,2.84,0,0,1,.06.31c0,.09,0,.18,0,.29s0,.17,0,.25h0v.44c0,.16,0,.36,0,.51s0,.28-.05.43c-.06.32-.12.66-.18,1s-.21.62-.31.94a3.18,3.18,0,0,1-.2.55l-.09.17-.05.09v0h0a0,0,0,0,0,0,0,5,5,0,0,1-.59.88l-.12.15v0l0,0,0,0h0c-.16.16-.31.31-.47.45s-.4.32-.66.5l-.46.32c-.13.09-.21.11-.3.17l-.14.07-.06,0,0,0h0l-.32.13-.36.15-.25.07L285,264l-.18.07a1.94,1.94,0,0,0-.39,3.43s0,.08,0,.1a1.18,1.18,0,0,0-.07.2v0l0,.08v0l0,.08-.15.37a1.07,1.07,0,0,1-.17.31c-.06.08-.12.15-.17.23l0,0,0-.1h0l0,.05-.14.19c-.08.12-.18.28-.26.38a1,1,0,0,0-.19.17h0l0,0h0l-.11.12-.34.36c-.14.08-.16.19-.35.29l-.4.28-.22.14-.11.06,0,0h.05l-.08,0-.4.17c-.28.12-.39.15-.58.24l-.06,0h.05Zm.05,0h0S280.59,271.46,280.54,271.47Zm-64.79-8.76h0A0,0,0,0,1,215.75,262.71Zm.05,0,0-.2c0-.14-.07-.28-.11-.42a3.53,3.53,0,0,1-.1-.54c0-.21-.06-.42-.1-.62s0-.5,0-.74a1.61,1.61,0,0,1,0-.56c0-.21,0-.41,0-.61h0l0-.16c0-.12.05-.14.06-.23v0l0,0a.19.19,0,0,1-.11,0s-.06,0,0,0l.12-.09.22-.18.05,0-.19.09h0s0,0,0,0a.13.13,0,0,1,.08-.06.42.42,0,0,1,.17,0,.82.82,0,0,1,.21,0,2.55,2.55,0,0,1,.37.13c.08,0,.27.15.34.17l.14.06.22.36c.05.06.09.13.14.2l.2.35.24.4.09.16,0,0h0v0l0,0,0,.1c.1.27.21.43.36.87l.21.59h0l0,.07s0,0,0-.05v0l0,.12.07.24c0,.16.09.32.13.49s.08.46.13.69l.06.27v.13l0,.14c0,.2,0,.38,0,.55s0,.22,0,.34,0,.22,0,.32v.12c0,.08,0,.21-.06.24a.31.31,0,0,0,0,.1s0-.05.08-.05H219s.06,0,0,.05l-.27.19-.05,0,.09,0-.1.07a.9.9,0,0,0-.19.08l-.05,0s0,0,0,0h-.13l-.27,0h-.11a.67.67,0,0,1-.19-.05c-.18-.05-.27-.1-.36-.13s-.12-.08-.18-.12l-.17-.13-.09-.05c0-.06-.07-.21-.16-.42s-.12-.29-.21-.46a5.2,5.2,0,0,1-.3-.74c-.11-.31-.23-.63-.36-1Zm7,.61-.08-.51-.09-.34c0-.23-.11-.46-.17-.68s-.19-.54-.29-.8l-.15-.39-.07-.2-.08-.17,0-.07-.3-.56a10.64,10.64,0,0,0-.75-1.15l-.27-.37-.17-.18-.34-.33a4.11,4.11,0,0,0-.3-.29l-.36-.29c-.44-.34-.7-.5-.7-.5s0,0,0,0a1,1,0,0,0-.1-.13,1.94,1.94,0,0,0-.37-.33,5.68,5.68,0,0,0-.81-.54A4,4,0,0,0,216,255a3.08,3.08,0,0,0-.92,0,3,3,0,0,0-.51.08l-.26.07-.38.18-.26.12-.13.06a2.23,2.23,0,0,0-.25.17,5.34,5.34,0,0,0-.5.46l-.24.25-.15.2a5.05,5.05,0,0,0-.49.87c-.06.14-.12.29-.17.44l-.08.23,0,.11-.06.29c0,.21-.07.42-.09.64a3.56,3.56,0,0,0-.05.72,13.06,13.06,0,0,0,.16,1.83,6,6,0,0,0,.15.61,5.44,5.44,0,0,0,.19.66c.09.25.17.49.26.72l.14.34.07.17.08.15v0l0,0,0,.06c.19.32.38.61.56.88a4.63,4.63,0,0,0,.59.79c.22.25.43.46.6.63.33.34.53.52.53.52l.05,0s0,0,0,0a1,1,0,0,0,.1.15,2,2,0,0,0,.36.41,5.57,5.57,0,0,0,.9.68,3.74,3.74,0,0,0,.6.31l.17.08.26.08.25.08.13,0a1.33,1.33,0,0,0,.24,0l.52.07a5.36,5.36,0,0,0,1,0l.51-.12.12,0,.07,0h0l.23-.12.15-.07.29-.14a.83.83,0,0,0,.24-.16l.3-.24a3.93,3.93,0,0,0,.54-.54c.12-.16.23-.33.34-.5a4,4,0,0,0,.46-1.05l0-.14,0-.06,0-.19,0-.18a3,3,0,0,0,0-.38,8.51,8.51,0,0,0,0-1.1C222.88,263.91,222.85,263.61,222.8,263.34Zm-23.47-23.89.11-.44.05-.22,0-.11v-.18l.11-.95c.05-.21.07-.39.11-.63l.28-.91.12-.31.06-.16,0,0,.47-.76.26-.34.13-.17.07-.09,0,0,.07-.12.47-.83.15-.22.07-.11,0-.06h0l0,0h0l.32-.13a3.17,3.17,0,0,0,.61-.39,3.79,3.79,0,0,0,.75-.83,1.57,1.57,0,0,0,.3-.7l0-.12.24-1.5.06-.38.07-.33.17-.78L205,226l.15-.65.06-.24.14-.38.49-1.3c.24-.48.48-1,.73-1.39l.09-.17,0-.06.2-.34c.13-.23.27-.46.41-.66l.79-1.23.43-.67.06-.09v0h0l0,0h0l.08-.12.22-.33.23-.33.18-.24.17-.24,0,0,0,0,0,0,.1-.11,1.06-1.13h0l0,0h0l.06-.06,0,0,.06-.06.29-.27.57-.56.28-.26.12-.08.67-.44.69-.43.55-.4a2.11,2.11,0,0,0,1,.24,2.2,2.2,0,0,0,1.91-1.1,5.39,5.39,0,0,0,.54-1.41l0-.14a2,2,0,0,0,.17-.32,4.09,4.09,0,0,1,.36-.37c.26-.26.52-.52.76-.81a4.46,4.46,0,0,1,.45-.37,8.94,8.94,0,0,0,.92-.78,6.29,6.29,0,0,0,.79-1,3.18,3.18,0,0,1,.32-.43c.24-.21.48-.45.72-.69a6.53,6.53,0,0,1,.62-.59c.07-.05.31-.15.48-.23a7.42,7.42,0,0,0,1.2-.63,5.65,5.65,0,0,0,1.06-1c.12-.12.29-.31.34-.34l.43-.14a6.43,6.43,0,0,0,1.41-.55,10.2,10.2,0,0,0,.92-.59,7.32,7.32,0,0,1,.72-.45c.3-.16.59-.33.89-.51s.54-.32.82-.46a8.46,8.46,0,0,0,1.1-.62,5.17,5.17,0,0,1,.62-.36c.61-.25,1.24-.48,1.85-.69a5.11,5.11,0,0,1,.79-.19,8.6,8.6,0,0,0,1.14-.27c.22-.06.51-.11.82-.16s.75-.12,1.11-.21l.88-.25c.34-.1.68-.21,1-.28s.76-.2,1.14-.32a5.64,5.64,0,0,1,.76-.21l.53-.09c.48-.08,1-.16,1.42-.22s.75-.12,1.12-.2a6.65,6.65,0,0,1,.84-.14,4.58,4.58,0,0,1,.64.06,8.87,8.87,0,0,0,1.35.1,10.77,10.77,0,0,0,1.13-.1,6.62,6.62,0,0,1,.84-.06,8.52,8.52,0,0,1,.94.08c.35,0,.69.09,1,.11.66,0,1.32.09,2,.16a5.08,5.08,0,0,1,.78.17,9.41,9.41,0,0,0,1.14.27l.4.06c.52.07,1,.15,1.51.25a5.91,5.91,0,0,0,1.64.07l.28,0,.2.18a4.73,4.73,0,0,0,1.48.95,7.33,7.33,0,0,0,1.48.33l.32,0a2.21,2.21,0,0,0,2.38-.27l.39.1c.27.07.53.14.81.19s.63.11.94.15a4.7,4.7,0,0,1,.7.11l.67.18a8.59,8.59,0,0,1,.94.26,5,5,0,0,1,.72.34c.27.14.53.27.79.38s.63.25.94.36a5.22,5.22,0,0,1,.63.23c.17.09.37.25.6.41s.52.38.78.55l.59.35a8.55,8.55,0,0,1,.84.52l.46.32c.32.22.63.43.91.66s.47.37.7.54a5.5,5.5,0,0,1,.63.49c.46.43.86.84,1.18,1.19a.93.93,0,0,1,.18.24,3.62,3.62,0,0,0,1.21,1.45,2.05,2.05,0,0,0,.64.33c.3.1.63.26,1,.42l.52.24.12.05c.5.23,1,.43,1.39.67l.57.31c.33.18.65.34.9.51.57.4,1,.71,1.36,1l.5.39c.28.23.57.45.82.69a6.2,6.2,0,0,1,.54.63c.19.24.37.47.57.69l.43.47a10.69,10.69,0,0,1,.7.81,11.35,11.35,0,0,1,.66,1l.28.44c.3.47.58,1,.85,1.46.14.26.26.58.4.92s.16.43.25.63.1.26.15.38a2.18,2.18,0,0,0,.3,2.29,3.43,3.43,0,0,0,.79.73,2.23,2.23,0,0,0,.78,1l.1.16.14.25a6.07,6.07,0,0,0,.52.9,5.11,5.11,0,0,0,.76.81l.14.12c.16.24.34.46.52.68a2.38,2.38,0,0,1,.26.31c0,.09.07.18.1.27a5.49,5.49,0,0,0,.38.87,5.56,5.56,0,0,0,.65.91c.05.06.11.12.15.18a1.11,1.11,0,0,1,.05.25,6.67,6.67,0,0,0,.3,1.07c.1.24.22.47.33.71a3.91,3.91,0,0,1,.24.51c.08.23.16.45.25.67a6.37,6.37,0,0,1,.23.61,7,7,0,0,0,.32.87,2.31,2.31,0,0,1,.16.41c.11.45.2.9.28,1.34a4.38,4.38,0,0,1,0,.51,8.47,8.47,0,0,0,.07.88,4.61,4.61,0,0,1,0,.53,8.06,8.06,0,0,0,0,.85c0,.22.05.44.08.66s.06.48.08.71a6.88,6.88,0,0,0,.1.9,2.63,2.63,0,0,1,.06.49V242c0,.34,0,.68,0,1a8,8,0,0,0,0,.85,5,5,0,0,1,0,.54,2.37,2.37,0,0,1-.09.36,6.67,6.67,0,0,0-.2,1,8.44,8.44,0,0,0,0,.87c0,.18,0,.36,0,.52a5.82,5.82,0,0,1-.14.63c-.06.25-.12.49-.16.73-.09.47-.18.92-.28,1.34,0,0,0,.08,0,.12a2.2,2.2,0,0,0-1.18,2.36,4.14,4.14,0,0,0,.2.72,2.21,2.21,0,0,0,.29,1.15,8.33,8.33,0,0,0,0,.86,3.13,3.13,0,0,1,0,.39,7.93,7.93,0,0,0,0,1,5.38,5.38,0,0,0,.18,1.07,2.11,2.11,0,0,1,.07.3c0,.28,0,.56.06.83a3.48,3.48,0,0,1,0,.55,2.17,2.17,0,0,1-.07.35,7.33,7.33,0,0,0-.16,1,6.24,6.24,0,0,0,.05,1.12,1.09,1.09,0,0,0,0,.22,1.57,1.57,0,0,1-.1.28,6,6,0,0,0-.31,1.08c0,.25-.07.51-.1.76a3.68,3.68,0,0,1-.08.58c-.05.23-.09.46-.13.69s-.07.44-.13.65a8.43,8.43,0,0,0-.19.9,3.65,3.65,0,0,1-.09.44c-.14.43-.31.86-.48,1.28a3.88,3.88,0,0,1-.24.45,7.83,7.83,0,0,0-.41.75,4.48,4.48,0,0,1-.28.47c-.15.23-.29.46-.43.7s-.18.35-.26.53-.23.45-.36.68a6.44,6.44,0,0,0-.4.73,4.23,4.23,0,0,1-.25.47l-.16.23c-.2.3-.4.6-.62.89s-.31.44-.46.67-.21.32-.33.47-.18.15-.27.23a6.51,6.51,0,0,0-.78.7,7.49,7.49,0,0,0-.51.61,5.32,5.32,0,0,1-.38.45,6.08,6.08,0,0,1-.47.39c-.2.17-.4.33-.59.51a2.19,2.19,0,0,0-.27,2.95l-.32.49-.46.6-.51.73-.2.23-.1.12,0,.06,0,0-.6.58-.32.3-.13.14,0,0h0l-.7.47-.75.46-.72.51-.27.17-.13.09-.07,0-.39.15s0,0,.07-.05l-.37.09a2.35,2.35,0,0,0-.53.18,7.19,7.19,0,0,0-.83.52,1.48,1.48,0,0,0-.32.34l-.15.21-.72,1.06-.17.26,0,.07h0l-.1.11-.48.55-.49.56-.11.13-.05.05h0l-.19.18-1,1-.05,0L280,292l-.29.23-.59.44-.3.23h0l-.16.09-.63.39-.64.38-.07,0,0,0-.05,0h0l-.33.17-1.31.68-1.21.6-.33.16,0,0h-.07l-.1,0-.67.31-.68.31-.17.07h-.05l-.35.13-.7.24-.35.13-.17.06-.09,0,0,0h0l-1.28.4-.36.11-.06,0-.11,0-.73.14-1.16.17a2.12,2.12,0,0,0-2.4.24l-.34.28-.27.26-.15.15,0,0a0,0,0,0,0,0,0L263,299l-.46.16-.12,0,.06,0-.24.07-1.13.33-.16,0h0l-.19.09h0l-.07,0-.27.14-.45.25-.17.1-.09,0-.23.09-.62.25-.42.16h0l-.18,0-.36.05-.85.12-.11,0-.27.08-.18.06c-.08,0-.36.14-.54.22l-.33.15h-.05l-.4,0-1,0H254l-.1,0-.1,0-.2.05-.41.08-.31.07-.26.06-.83.11-1.67.23-.27,0h-.35l-.86,0h-.46l-.21,0-.89-.11-1.63-.22c-.53-.07-1.11-.09-1.65-.13-.69,0-1.16-.05-1.57-.06h-.16l-.16,0-.4,0-.77-.12c-.56-.08-1.08-.13-1.44-.18a1.36,1.36,0,0,1-.41-.08,2.62,2.62,0,0,0,.12-.62,2.19,2.19,0,0,0-2.12-2.28,3.64,3.64,0,0,0-.82.06,5.43,5.43,0,0,1-1,.07c-.25,0-.51-.06-.81-.1l-.93-.13c-.25,0-.5-.09-.77-.15s-.62-.15-.95-.2a9.3,9.3,0,0,0-.94-.11,7.6,7.6,0,0,1-.81-.11l-.72-.15a9.82,9.82,0,0,1-1-.24,7.28,7.28,0,0,1-.73-.28l-.91-.38c-.32-.11-.65-.19-1-.28a6.9,6.9,0,0,1-.73-.21,5.33,5.33,0,0,1-.62-.35c-.31-.18-.62-.36-.94-.52l-.67-.31c-.31-.14-.63-.28-.94-.45l-.57-.31c-.33-.17-.66-.34-1-.55l-.77-.44a6.92,6.92,0,0,1-.78-.46c-.48-.33-1-.69-1.45-1.06-.23-.18-.45-.37-.67-.57l-.67-.6c-.23-.19-.45-.4-.67-.62s-.4-.4-.62-.59l-.45-.4c-.29-.26-.58-.51-.85-.78s-.42-.4-.64-.6-.45-.4-.67-.64c-.39-.42-.78-.84-1.16-1.29-.17-.2-.35-.4-.53-.59s-.43-.48-.63-.74a6.19,6.19,0,0,1-.42-.66c-.16-.28-.33-.56-.51-.83l-.45-.62c-.19-.26-.39-.53-.56-.81s-.34-.62-.5-.93l-.31-.6c-.27-.51-.53-1-.77-1.55-.12-.28-.22-.58-.32-.87s-.16-.5-.26-.75c-.2-.53-.39-1.06-.55-1.61a10.48,10.48,0,0,0-.39-1,5.26,5.26,0,0,1-.22-.59,2.52,2.52,0,0,1,0-.48,7.76,7.76,0,0,0,0-1.24,3.78,3.78,0,0,0-.1-.46,2.05,2.05,0,0,0-.17-.8,2.43,2.43,0,0,1-.06-.4,2.2,2.2,0,0,0-1.94-2.06l-.24-.4-.35-.61a9.62,9.62,0,0,1-.46-.91c-.11-.25-.23-.51-.36-.77l-.41-.76a10.23,10.23,0,0,1-.48-.92l-.17-.41a11.57,11.57,0,0,1-.44-1.11c-.07-.23-.13-.54-.19-.86s-.09-.51-.14-.76-.15-.58-.23-.86a5.52,5.52,0,0,1-.2-.77c0-.22,0-.5,0-.79s0-.61,0-.92l-.06-.58c0-.37-.07-.74-.08-1.12V255c0-.41,0-.81,0-1.21s0-.55,0-.82a8.92,8.92,0,0,1,0-.9c.06-.59.13-1.16.22-1.71a10.39,10.39,0,0,1,.22-1c.06-.22.11-.43.16-.64s.2-.73.32-1.11l.15-.48c.17-.53.35-1.08.52-1.47a7.15,7.15,0,0,1,.47-.91,2.21,2.21,0,0,0,.06-3.12,2.3,2.3,0,0,0-1-.59l0-.3,0-.22v-.17Zm107.08,3.62c0-.39,0-.79,0-1.2v-.36a8,8,0,0,0-.11-1.09c0-.15,0-.31-.06-.47,0-.34-.07-.69-.11-1,0-.17-.05-.35-.06-.52a3.7,3.7,0,0,1,0-.47,7.54,7.54,0,0,0-.07-1.1c0-.15,0-.3,0-.46a7,7,0,0,0-.11-1.11c-.09-.51-.2-1-.32-1.56a7.33,7.33,0,0,0-.38-1.1,3.2,3.2,0,0,1-.16-.39,9.58,9.58,0,0,0-.37-1l-.18-.47a10.12,10.12,0,0,0-.44-1l-.2-.42a2.8,2.8,0,0,1-.06-.28,4.62,4.62,0,0,0-1.15-2.39l-.17-.2-.09-.23a4.91,4.91,0,0,0-.52-1.13,7.69,7.69,0,0,0-.61-.8,4.19,4.19,0,0,1-.26-.33,4.9,4.9,0,0,0-.81-.89l-.15-.14a1.64,1.64,0,0,1-.16-.29,5.5,5.5,0,0,0-.54-.91,3.6,3.6,0,0,1-.22-.37,5.63,5.63,0,0,0-.33-.54c0-.09-.08-.2-.11-.29a4.87,4.87,0,0,1-.21-.53,19.44,19.44,0,0,0-.73-2l-.2-.51a11.47,11.47,0,0,0-.61-1.4c-.32-.61-.67-1.21-1-1.78l-.25-.39a15.41,15.41,0,0,0-.89-1.33,14.5,14.5,0,0,0-1-1.13l-.37-.41c-.14-.15-.26-.31-.39-.48a12.25,12.25,0,0,0-.95-1.08,13.46,13.46,0,0,0-1.16-1c-.14-.11-.29-.22-.42-.34-.6-.48-1.2-.91-1.67-1.22a13.7,13.7,0,0,0-1.32-.78l-.47-.26c-.6-.33-1.19-.59-1.76-.85l-.57-.25c-.26-.13-.55-.26-.86-.39a4.82,4.82,0,0,0-.79-1.07c-.49-.53-.94-1-1.4-1.41a11.94,11.94,0,0,0-1-.81l-.54-.41c-.36-.3-.76-.58-1.18-.87l-.42-.29c-.36-.26-.76-.49-1.17-.73l-.51-.3-.46-.33a7.8,7.8,0,0,0-1.18-.77,7,7,0,0,0-1.27-.51c-.19-.07-.38-.13-.57-.22s-.35-.17-.53-.26a10.27,10.27,0,0,0-1.27-.58,13.86,13.86,0,0,0-1.34-.38l-.57-.15a9.8,9.8,0,0,0-1.34-.24,6,6,0,0,1-.61-.09l-.57-.14a12.3,12.3,0,0,0-1.36-.29l-.58-.09a12.25,12.25,0,0,0-1.38-.18,7.46,7.46,0,0,0-1.3.06,4.3,4.3,0,0,0-1.51-.81,5.32,5.32,0,0,0-1.77-.12,4.16,4.16,0,0,1-.48,0c-.56-.11-1.15-.2-1.76-.29l-.38-.06c-.22,0-.43-.1-.65-.16a9.06,9.06,0,0,0-1.48-.31c-.7-.07-1.43-.14-2.16-.18-.24,0-.49,0-.73-.07a11.85,11.85,0,0,0-1.43-.13c-.51,0-1,.05-1.42.1a6.34,6.34,0,0,1-.75.07,1.89,1.89,0,0,1-.59-.06,7.15,7.15,0,0,0-1.6-.09,12,12,0,0,0-1.39.22c-.25,0-.5.11-.76.14-.54.07-1.08.16-1.63.25l-.51.09a9,9,0,0,0-1.39.36,5.64,5.64,0,0,1-.7.21,13,13,0,0,0-1.36.36l-.72.21-.71.13a8.63,8.63,0,0,0-1.42.3,7,7,0,0,1-.69.15,9.65,9.65,0,0,0-1.43.36c-.67.24-1.36.49-2,.77a8.77,8.77,0,0,0-1.31.71,3.53,3.53,0,0,1-.59.35,13.59,13.59,0,0,0-1.23.68c-.22.13-.44.26-.67.38a10.69,10.69,0,0,0-1.16.72,5.94,5.94,0,0,1-.59.38,3.51,3.51,0,0,1-.49.16,6,6,0,0,0-1.46.6,5.73,5.73,0,0,0-1.29,1.1,2.08,2.08,0,0,1-.3.3,3.82,3.82,0,0,1-.54.27,6.51,6.51,0,0,0-1.33.74,8.86,8.86,0,0,0-1.12,1l-.45.44a5.73,5.73,0,0,0-1.1,1.31,3.29,3.29,0,0,1-.27.37,5.45,5.45,0,0,1-.46.38,7.27,7.27,0,0,0-1.17,1.06,4.78,4.78,0,0,1-.44.46,7.31,7.31,0,0,0-1,1.17l0,.06-.75.38L213,209l-.09,0,0,0-.12.07h0l-.33.23-.66.45-.33.22-.16.12-.08,0-.1.07,0,0-.68.39c-.23.13-.45.28-.68.42l-.17.11,0,0,0,0h0l-.23.18-.07.07-.29.27L207.5,213l-1.1,1.15-.14.15-.1.11,0,.05-.08.1-.31.39-.3.4-.23.33L205,216l-.25.39-.42.68-.92,1.47c-.16.24-.29.47-.42.7l-.2.35-.26.47c-.26.49-.5,1-.72,1.45l0,.05-.1.24,0,.09-.06.19-.14.37-.27.76-.14.37v.05l0,.1v0l0,.11-.06.24c-.07.3-.16.66-.2.91l-.29,1.56-.14.78-.08.45,0,.41-.12.9a2.42,2.42,0,0,0-.45.31,4.27,4.27,0,0,0-.52.5l-.12.14-.05.07-.1.15-.18.29-.35.59-.43.85-.52.8-.45.84v0l-.1.19v0l0,.07,0,.15-.1.29-.17.59-.22.93c-.06.38-.12.83-.16,1.24l-.05,1-.15.91-.1.94-.05,1.15,0,1.08c0,.25.09.51.14.75l.08.24c-.1.19-.19.38-.28.59a16.23,16.23,0,0,0-.73,2l-.13.41c-.15.45-.31,1-.44,1.53,0,.17-.08.35-.13.52-.11.46-.23.93-.3,1.42s-.19,1.29-.25,2c0,.43-.05.87-.05,1.31,0,.22,0,.44,0,.66,0,.49,0,1,0,1.5v.47c0,.48.06,1,.1,1.45l0,.52c0,.2,0,.41,0,.61a10,10,0,0,0,.09,1.38,10.13,10.13,0,0,0,.32,1.36,5.69,5.69,0,0,1,.16.59c0,.19.08.38.11.58a13.61,13.61,0,0,0,.32,1.4,15.3,15.3,0,0,0,.6,1.53l.16.38a11.76,11.76,0,0,0,.7,1.38c.1.19.21.37.3.55s.21.45.31.66c.2.43.41.88.66,1.31l.33.56c.28.48.54.93.84,1.35a6.75,6.75,0,0,0,1.12,1.29c0,.1,0,.24,0,.37a6.38,6.38,0,0,0,.1,1.57,8,8,0,0,0,.48,1.39,3.44,3.44,0,0,1,.21.53c.19.62.4,1.21.66,1.9l.2.59a12,12,0,0,0,.49,1.3c.28.61.57,1.21.89,1.8l.27.52c.21.42.42.84.67,1.24s.5.75.76,1.11c.13.17.25.34.37.52a6.53,6.53,0,0,1,.35.56,10.27,10.27,0,0,0,.72,1.11c.27.35.56.68.86,1l.43.48c.42.5.86,1,1.31,1.46.3.32.61.61.93.89l.5.47c.33.33.68.63,1,.94l.42.37.5.48c.3.29.61.59.93.86l.52.46c.32.29.63.57,1,.82.54.41,1.08.81,1.62,1.18a13.25,13.25,0,0,0,1.16.7l.57.32c.42.26.84.49,1.26.71l.5.27c.42.22.84.42,1.25.6l.57.26c.2.1.39.22.58.33a9.25,9.25,0,0,0,1.19.64,11.12,11.12,0,0,0,1.34.42,5.08,5.08,0,0,1,.59.16l.64.26a11.51,11.51,0,0,0,1.24.48c.47.13.93.23,1.39.32l.58.12a9.65,9.65,0,0,0,1.41.21c.2,0,.4,0,.59.06l.71.15a11,11,0,0,0,1.22.23l.07.05.21.14.33.19c.32.18.66.39,1,.56l.26.14.07,0,.12.05h.06l.18.06.72.25c1,.21,1.13.61,2.69,1l1.54.3.76.16.39.08.23.05.24,0,1.68.18c.55.08,1.08.1,1.67.21l.78.14.93.16.8.13.22,0,.1,0h.08l.21,0,.43,0,.85,0h.51l.57-.05.28,0,.22,0,.42-.05.77-.1.83-.1.57-.09.5-.09.4-.08.2,0h.11c.22,0,.4,0,.65,0h.67l.3,0h0l.2,0a5.85,5.85,0,0,0,.68-.23l.37-.17c.06,0,0,0,.17-.08l.13-.05h0l.62-.08.36-.06.18,0h.16l.23-.05h0l.82-.31.65-.26.68-.33.39-.19.27-.15.26-.15h0l.06,0c.33-.09.65-.2,1-.32l.24-.08.41-.16.42-.17.76-.32.18-.09,0,0,.05,0,.08-.06.16-.11.24-.18,2.53-.28.74-.11.18,0h.05l.23-.05.09,0,.36-.1,1.42-.42,1.54-.52.35-.12.09,0,.17-.06,0,0,.17-.08.68-.3.68-.3.16-.07.3-.14.33-.17,1.45-.73,1.31-.7.33-.18.08,0,.21-.13.16-.1.63-.39.63-.39.15-.1,0,0,.18-.13.07-.05.29-.23,1.32-1,1-1.07.25-.26.07-.07.18-.2,0,0,.12-.15.47-.57.46-.58.12-.14,0,0,.08-.1h0v0l.06-.08.23-.36.56-.9a4.27,4.27,0,0,0,1-.38h0l.2-.1h0l.06,0,.12-.09.23-.16.47-.34.69-.56.75-.52.7-.55h0l.19-.17h0l0-.05.07-.08.15-.16.3-.34.6-.66,0,0,.08-.09h0l0-.06.09-.12.17-.24.34-.48.47-.76.55-.86.42-.79.07-.14h0v0l0-.06.05-.12.1-.25.21-.49.19-.61c.19-.16.38-.31.54-.47a9.54,9.54,0,0,0,.73-.84,3.79,3.79,0,0,1,.31-.37,1.61,1.61,0,0,1,.28-.24,5.59,5.59,0,0,0,.89-.84,8.47,8.47,0,0,0,.66-.9,3.51,3.51,0,0,1,.27-.4c.27-.36.52-.73.77-1.09l.14-.22a7.06,7.06,0,0,0,.56-1l.21-.4c.2-.32.37-.66.54-1l.21-.41.25-.41a9.28,9.28,0,0,0,.56-1,4,4,0,0,1,.23-.41,8,8,0,0,0,.52-1c.2-.5.4-1,.57-1.51a6.29,6.29,0,0,0,.26-1.15c0-.14,0-.28.08-.41a10,10,0,0,0,.23-1.09c0-.16.06-.32.1-.48a10,10,0,0,0,.16-1.1c0-.16,0-.32.05-.46s.07-.19.1-.29a5,5,0,0,0,.34-1.26,5.13,5.13,0,0,0,0-1.33c0-.1,0-.19,0-.27a1.53,1.53,0,0,1,.07-.36,6.17,6.17,0,0,0,.17-1.21,9,9,0,0,0-.06-1.1,3.89,3.89,0,0,1,0-.47,5.9,5.9,0,0,0-.19-1.25,2,2,0,0,1-.07-.31c0-.13,0-.27,0-.4a6.39,6.39,0,0,0,0-1.17,3.2,3.2,0,0,1,0-.44,7.73,7.73,0,0,0-.06-1.12l0-.12c.06-.18.11-.35.17-.54A3,3,0,0,1,305,252a7.17,7.17,0,0,0,.4-1.17c.12-.48.23-1,.33-1.54,0-.16.07-.31.1-.47a7.53,7.53,0,0,0,.3-2.12,4.61,4.61,0,0,1,0-.52,2,2,0,0,1,.08-.33,6.44,6.44,0,0,0,.22-1.21,9.42,9.42,0,0,0,0-1.06A4.34,4.34,0,0,1,306.41,243.07Zm-19.9,47.61s-.06,0,0,0l.12,0-.05,0Zm-23,8.18,0,0h0Z" style="fill: #1d1d1b"/>
    </g>
    <g>
      <path d="M163.35,177.1a4.62,4.62,0,0,0,.65,0,3,3,0,0,0,1,.3,3.4,3.4,0,0,0,.45,0l.4,0a3.78,3.78,0,0,0,.95,0h0l.55.13,0,0a4.17,4.17,0,0,0,.77.39,3.9,3.9,0,0,0,1,.18l.16.1.34.2c.08.05.15.12.22.17a4.39,4.39,0,0,0,.36.28l.15.15c.12.13.25.26.38.38a3.08,3.08,0,0,0,.86.52l0,.05.18.27,0,0a3.6,3.6,0,0,0,.37.81c.11.19.21.38.31.57l.06.11a3.68,3.68,0,0,0,.41.62,3.65,3.65,0,0,0,.18.9,3.73,3.73,0,0,0,.47.85l0,0,.18.69a4.84,4.84,0,0,0,.22.6,2.77,2.77,0,0,0,0,1.14,2.65,2.65,0,0,0,.32.85,2.88,2.88,0,0,0-.05.9,3.08,3.08,0,0,0,.3,1,3.43,3.43,0,0,0,0,.82,3.17,3.17,0,0,0,.17.83,2.94,2.94,0,0,0-.13,1c0,.11,0,.22,0,.33s0,.39,0,.6,0,.37,0,.55,0,.25,0,.37a3.45,3.45,0,0,0,.23,1.11v.59a2.95,2.95,0,0,0-.14,1.59,2.72,2.72,0,0,0,0,.42,5.39,5.39,0,0,0,.07.79l0,.16v0a2,2,0,0,0,2,2,2,2,0,0,0,2-1.92,3.67,3.67,0,0,0,.16-1,3.18,3.18,0,0,0-.07-.66,2.45,2.45,0,0,0,0-.27c0-.15,0-.31,0-.46l.05-1.35a3.28,3.28,0,0,0-.17-1.11c0-.24,0-.47,0-.71s0-.48,0-.71a3.27,3.27,0,0,0,.31-1.08c0-.18,0-.36,0-.53s0-.24,0-.36l.09-.76,0-.13c0-.16,0-.32.07-.48l.06-.4a4.4,4.4,0,0,0,0-.87v-.09a2.44,2.44,0,0,1,.06-.26,4.54,4.54,0,0,0,.12-.53c0-.13.06-.27.1-.4s.07-.29.11-.45.07-.43.1-.65a1.49,1.49,0,0,1,0-.21,1.57,1.57,0,0,1,.09-.23,5.1,5.1,0,0,0,.2-.59l.18-.53.09-.27c.08-.26.18-.52.24-.71l.08-.11a4.79,4.79,0,0,0,.39-.68,2.69,2.69,0,0,0,.21-1,2.49,2.49,0,0,0,.36-.49,5.25,5.25,0,0,0,.31-.63h0a3.16,3.16,0,0,0,.63-.58,3.73,3.73,0,0,0,.45-.69h0l.1-.07c.14-.1.29-.2.42-.31l.29-.26.13-.11a3.77,3.77,0,0,0,.83-.29,3.4,3.4,0,0,0,.68-.49,5.49,5.49,0,0,0,.61-.12,1.52,1.52,0,0,1,.21,0,5,5,0,0,0,.54-.08,4.67,4.67,0,0,0,.64-.18s.1,0,.09,0a2.92,2.92,0,0,0,.59-.12,2.83,2.83,0,0,0,1,.22,2.92,2.92,0,0,0,1.17-.27,2,2,0,0,0-.09-4c-.54-.05-.54,0-1.09-.05l-.68,0-.43,0a3.4,3.4,0,0,0-.71,0,3.22,3.22,0,0,0-.71-.3l-.45-.1-.22,0a5.92,5.92,0,0,1-.56-.27l-.11-.09a5.56,5.56,0,0,0-.54-.42,3.13,3.13,0,0,0-.95-.4l-.31-.21h0a3.23,3.23,0,0,0-.53-.77l-.3-.3a3.45,3.45,0,0,1-.26-.28,2.48,2.48,0,0,1-.19-.26,3.32,3.32,0,0,0-.28-.41,2.73,2.73,0,0,0-.49-.52,2.9,2.9,0,0,0-.33-.91,3,3,0,0,0-.76-.84l-.16-.25a3,3,0,0,0-.21-1.14c-.11-.25-.2-.5-.31-.79a3.56,3.56,0,0,0-.46-.81v-.05a6.31,6.31,0,0,0-.15-.73c-.06-.19-.13-.37-.2-.55s-.07-.17-.1-.27-.07-.27-.11-.41a2.77,2.77,0,0,1-.12-.41c0-.17-.07-.35-.1-.52l-.06-.34a3.28,3.28,0,0,0-.25-.75,2.91,2.91,0,0,0,0-1,4.52,4.52,0,0,0-.12-.64,1.74,1.74,0,0,1-.05-.22,3.37,3.37,0,0,0-.18-.82l0-.11v-.72a.77.77,0,0,1,0-.15,3.94,3.94,0,0,0,.09-.8v-.1a3.82,3.82,0,0,0,.07-.87,5.57,5.57,0,0,0-.06-.66,1.29,1.29,0,0,1,0-.25,3.23,3.23,0,0,0-.12-.85.17.17,0,0,0,0-.07,2,2,0,0,0-2-1.92H176a2,2,0,0,0-1.93,2.05,3.3,3.3,0,0,0,.09.77c0,.06,0,.12,0,.16s0,.24,0,.36a5.09,5.09,0,0,0,0,.55c0,.08,0,.16,0,.24a5.16,5.16,0,0,0,0,.67c0,.13,0,.27,0,.41s0,.33,0,.49l0,.29q0,.3-.06.6a6.3,6.3,0,0,0,0,.75c0,.06,0,.12,0,.16s0,.37,0,.56v.19h0a3.38,3.38,0,0,0-.26,1c0,.17,0,.34,0,.51s0,.25,0,.37a3,3,0,0,0,.14,1.21l0,.16s0,0,0,.08a2.63,2.63,0,0,0-.53,1.14,2.83,2.83,0,0,0,0,1,4.37,4.37,0,0,0-.27.68l0,.14-.2.68a5.77,5.77,0,0,0-.16.72s0,.11,0,.11h0c-.1.26-.2.51-.28.7a.6.6,0,0,1-.09.13,5.83,5.83,0,0,0-.39.62,4,4,0,0,0-.29.88l-.07.08c-.13.16-.25.31-.35.46a5.32,5.32,0,0,0-.37.66l0,.09-.17.16-.28.28-.13.09a4.83,4.83,0,0,0-.58.43c-.16.14-.34.27-.59.46a5.72,5.72,0,0,0-.46.4l-.11.1a5.34,5.34,0,0,0-.55.42l0,0h0a3.94,3.94,0,0,0-.78.23l-.13.06-.59.23a5.37,5.37,0,0,0-.65.29l-.1.05h-.14l-.36,0a3.09,3.09,0,0,0-.71-.08h-.22a3.9,3.9,0,0,0-.72.09l-.24,0a2,2,0,0,0-1.77,2.09A2,2,0,0,0,163.35,177.1Z" style="fill: #1d1d1b"/>
      <path d="M177.79,169.11a2.78,2.78,0,0,1-.57-.74l-.14-.22a7.08,7.08,0,0,1-.38-.66,2.86,2.86,0,0,1-.2-.66,4.58,4.58,0,0,1-.19.72q-.18.49-.39,1a4.24,4.24,0,0,1-.47.81l0,0v0a3.39,3.39,0,0,1-.38,1.05,5.16,5.16,0,0,1-.51.69l-.13.17,0,.11a4,4,0,0,1-.5.84c-.18.22-.39.42-.59.62a1.49,1.49,0,0,0-.18.17,4.23,4.23,0,0,1-.77.62l-.13.08c-.23.21-.5.42-.77.62-.11.08-.15.13-.2.17l-.11.1.36.22.22.13a7.16,7.16,0,0,1,.75.53,1.39,1.39,0,0,0,.19.15,5,5,0,0,1,.69.63l0,0a3,3,0,0,1,1.13.75,5.52,5.52,0,0,1,.54.71l.15.21a3.21,3.21,0,0,1,.5,1l0,.08c.15.25.29.51.43.77l.1.16a4.08,4.08,0,0,1,.56.88,3.18,3.18,0,0,1,.22.84l.15-.41a3.66,3.66,0,0,1,.39-.75,2.66,2.66,0,0,1,.27-1.24,3.42,3.42,0,0,1,.64-.87l0,0a.69.69,0,0,0,0-.1,4.39,4.39,0,0,1,.43-.82,3.32,3.32,0,0,1,.82-.8h0a3.78,3.78,0,0,1,.61-.87,5.73,5.73,0,0,1,.72-.59l.17-.12.19-.16a6.36,6.36,0,0,1,.7-.56l.08-.05a2.27,2.27,0,0,1-.4-.26l-.15-.09a5.16,5.16,0,0,1-.75-.55,3.23,3.23,0,0,1-.7-1h0l-.1-.11c-.18-.18-.36-.36-.53-.56a7.17,7.17,0,0,1-.45-.63l0-.07a3,3,0,0,1-.9-.87A2.77,2.77,0,0,1,177.79,169.11Z" style="fill: #fff381"/>
    </g>
  </g>
</svg>
