<svg xmlns="http://www.w3.org/2000/svg" viewBox="0 0 500 500">
  <title>saturn-stars</title>
  <g>
    <g>
      <circle cx="250.23" cy="248.45" r="47.75" style="fill: #4e7fc0"/>
      <path d="M339.32,210.05l.1-.53c.07-.41.12-.78.14-1.07a2.12,2.12,0,0,0-.07-.66,4.53,4.53,0,0,0-.21-.55,3.7,3.7,0,0,1-.21-.61l-.13-.66c0-.17-.08-.33-.12-.47a1.92,1.92,0,0,0-.24-.5l-.29-.67,0-.11a4.06,4.06,0,0,0-.41-.81,1.74,1.74,0,0,0-.18-.22,5.91,5.91,0,0,0-1.3-1L336,202a6.07,6.07,0,0,0-1.14-.57l-.74-.3a5.78,5.78,0,0,0-.9-.25l-.22,0q-.42-.08-.81-.18c-.72-.2-1.34-.34-2-.46-.26,0-.52-.12-.81-.2l-.17,0a6.61,6.61,0,0,0-1-.21c-.29,0-.59-.08-.85-.13a9,9,0,0,0-1.16-.17c-.38,0-.75,0-1.13,0H325c-.25,0-.5,0-.83,0s-.62.05-1,.1-.65.08-1,.09-.85,0-1.28.07l-.84,0q-.41,0-.81.12l-.2,0a8,8,0,0,1-1,.14,6.44,6.44,0,0,1-1,0,5.6,5.6,0,0,0-1.08,0,9.23,9.23,0,0,0-1,.2,7.24,7.24,0,0,1-1,.19c-.32,0-.65.06-1,.09a10.27,10.27,0,0,0-1.09.1l-.64.11c-.46.07-.93.14-1.35.22a6.74,6.74,0,0,1-1.05.1h-.11a5.82,5.82,0,0,0-.89.1l-.84.17-.46.1-.72.16-.3.08a5.55,5.55,0,0,0-.62.3,4.07,4.07,0,0,1-1,.42,3,3,0,0,1-1.08,0l-.39-.06a2,2,0,0,0-1,.15l-.3.14-.13.06-.12.06a4.61,4.61,0,0,1-1,.42c-.31.08-.61.14-.95.21s-.7.14-1.07.24a3.86,3.86,0,0,1-1,.08h0a4.19,4.19,0,0,0-1,.05,1.81,1.81,0,0,0-.31.09c-.08,0-.32.15-.56.28l-.2.11a4.55,4.55,0,0,1-.92.44,6.33,6.33,0,0,1-1,.16,6.91,6.91,0,0,0-.89.11l-.19,0c-.24.08-.47.17-.7.27l-.23.1a8.5,8.5,0,0,1-1,.37c-.3.09-.62.17-1,.25l-.26.06-.7.19c-.26.08-.53.14-.79.2l-.47.12c-.24.05-.48.11-.77.2l-1.84.61a3.49,3.49,0,0,0-.95.52,4.47,4.47,0,0,1-.94.54c-.28.09-.54.2-.81.31l-.16.07c-.32.13-.64.27-1,.38a3.33,3.33,0,0,1-1.05.15h-.15c-.2,0-.41,0-.55.06a2.48,2.48,0,0,0-.64.24,4.69,4.69,0,0,0-.52.39,3.54,3.54,0,0,1-1,.61c-.22.08-.46.15-.69.21l-.33.09a8.46,8.46,0,0,0-.89.29,6.11,6.11,0,0,1-1.1.24l-.15,0a4.49,4.49,0,0,0-.79.19c-.32.12-.63.21-1,.32l-.23.07-.64.22a2.1,2.1,0,0,0-.53.29l-.27.23-.12.11a3,3,0,0,1-.89.62,7,7,0,0,1-.88.26l-.2,0a6.45,6.45,0,0,0-.92.28c-.31.13-.62.27-.93.43s-.61.3-.92.43a5.71,5.71,0,0,1-.95.27,5.16,5.16,0,0,0-1.07.29c-.3.13-.6.24-.85.32s-.7.24-1.07.4-.49.23-.72.36l-.18.1a7.82,7.82,0,0,1-.9.47l-.1,0c-.61.26-1.22.52-1.75.77a4.8,4.8,0,0,0-.91.51l-.1.06a5.21,5.21,0,0,1-.83.47,3.59,3.59,0,0,1-1.11.23,4.58,4.58,0,0,0-.62.08,2.19,2.19,0,0,0-.49.17c-.2.1-.46.25-.79.44s-.61.33-1,.5a3.9,3.9,0,0,0-.8.58,4.41,4.41,0,0,1-.85.58,3.89,3.89,0,0,1-1,.25,2.84,2.84,0,0,0-1,.23,9.68,9.68,0,0,0-1,.52l-.83.42a8.69,8.69,0,0,1-1.06.4,6.43,6.43,0,0,0-.92.35l-.15.09a6.24,6.24,0,0,0-.63.48,4.49,4.49,0,0,1-.88.64,6.15,6.15,0,0,1-1,.35l-.16,0a6,6,0,0,0-.82.29,5.31,5.31,0,0,0-.76.51l-.08.06a7.8,7.8,0,0,1-.73.51.78.78,0,0,0-.15.1,6.32,6.32,0,0,1-1.11.38l-.12,0a4.44,4.44,0,0,0-.92.33c-.34.18-.65.38-.95.57s-.64.39-.93.54-.68.38-1,.58-.63.38-1,.56a10.51,10.51,0,0,0-.93.61,8.28,8.28,0,0,1-.93.6l-2,1.06a8.18,8.18,0,0,1-.95.44,8.38,8.38,0,0,0-1.05.47,10.29,10.29,0,0,1-1.05.49l-.17.08a6.25,6.25,0,0,0-.77.37c-.28.15-.54.31-.81.48l-.21.12q-.47.3-.93.57a11.12,11.12,0,0,0-1,.63c-.3.22-.61.43-.91.61s-.72.42-1,.62l-.93.54c-.31.19-.6.4-.9.61s-.59.42-.91.61a6.83,6.83,0,0,1-1.06.48,6.51,6.51,0,0,0-1,.45,6.15,6.15,0,0,0-.68.45l-.25.18c-.29.21-.59.43-.92.63s-.65.37-1,.55-.66.34-.95.52l-1.92,1.18a8.56,8.56,0,0,1-1,.53,6.35,6.35,0,0,0-.95.51l-.71.46-.32.21-.91.6a4.15,4.15,0,0,0-.59.53l-.1.12-.08.07a4.45,4.45,0,0,1-.84.78,3.55,3.55,0,0,1-1.1.41,4.73,4.73,0,0,0-.72.21,1.92,1.92,0,0,0-.35.18,2.76,2.76,0,0,0-.57.5l-.17.18-.08.08a5.16,5.16,0,0,1-.81.74l-.52.34-.37.24c-.34.2-.68.41-1,.64a4.66,4.66,0,0,1-1,.47l-.14.06a3.86,3.86,0,0,0-.91.43l-.09.07a5.62,5.62,0,0,0-.65.65l-.06.08a4.66,4.66,0,0,1-.81.79,6,6,0,0,1-1,.54l-.11,0-.19.11a4.21,4.21,0,0,0-.68.4,8,8,0,0,0-.85.71c-.28.26-.57.51-.87.74s-.6.42-1,.66-.59.38-.88.6-.6.42-.94.64l-.21.14a8,8,0,0,0-.67.48c-.5.37-1,.76-1.46,1.14l-.34.27a4.73,4.73,0,0,0-.7.81,4.39,4.39,0,0,1-.76.87c-.29.24-.58.51-.89.81s-.5.48-.75.69a5,5,0,0,1-1,.59,5.49,5.49,0,0,0-.8.43,1.8,1.8,0,0,0-.38.35,4.75,4.75,0,0,0-.35.51l-.08.14a4.11,4.11,0,0,1-.72.95c-.26.23-.54.44-.84.67l-.13.1c-.26.2-.52.41-.74.61a7.57,7.57,0,0,1-1,.69l-.11.07a4,4,0,0,0-.77.57c-.21.2-.42.37-.63.55l-.17.14a11,11,0,0,0-.88.77,2,2,0,0,0-.43.61l-.17.34a3.59,3.59,0,0,1-.61,1,8.64,8.64,0,0,1-.83.73,7.65,7.65,0,0,0-.84.74c-.26.28-.51.59-.77.92l-.22.27a6.57,6.57,0,0,1-.43.52,6.45,6.45,0,0,1-.86.79l-.08.06a5.57,5.57,0,0,0-.69.68l-.66.74-.09.11c-.25.28-.49.55-.69.81a6.66,6.66,0,0,0-.61.92l-.1.17c-.16.27-.32.55-.51.81-.44.63-.85,1.25-1.2,1.81a5.28,5.28,0,0,0-.5,1.05l-.06.15a7.34,7.34,0,0,1-.39.86,3.69,3.69,0,0,1-.71.91,7.07,7.07,0,0,0-.5.6,1.72,1.72,0,0,0-.2.38,11.67,11.67,0,0,0-.41,1.36l0,.09c0,.2-.11.39-.16.58l0,.11a4.58,4.58,0,0,0,0,1.25,4.53,4.53,0,0,1,0,.82,6.5,6.5,0,0,1-.22,1l0,.13c0,.14-.07.28-.09.37a2,2,0,0,0,0,.78,6,6,0,0,0,.43,1.32,1.88,1.88,0,0,0,.37.56h0l.06.13c0,.07.11.22.24.54a1.78,1.78,0,0,0,.12.29,2,2,0,0,0,.43.58l.36.35.12.11c.16.13.28.22.44.33l.05,0h0l.22.15.19.13a4.41,4.41,0,0,0,.62.37,1.54,1.54,0,0,0,.34.17l.12.05.43.19.44.16.2.07.1,0,.07,0,1.51.54.84.3.11,0,.12,0,1.22.32a2,2,0,0,0,.48.1l.45,0,.48,0,.17,0,.34,0,2.74.06h.27l1.33-.08h.13l.2,0,.49,0c.3,0,.54.05.72.05h.21l.7-.07.65-.07,1.34,0h.11l1.1-.09.93-.06.77,0a1,1,0,0,0,.24,0L185,299l.34-.08.14,0a2.37,2.37,0,0,0,.5-.2l.09,0a2.33,2.33,0,0,1,.65-.14h.19a5.17,5.17,0,0,1,.55.07,2.1,2.1,0,0,0,1.11-.1l1.1-.34,1.12-.17.17,0,.13,0,.47,0h.15a2,2,0,0,0,1-.09l1.34-.47h.09c.21,0,.4,0,.56-.05a5.71,5.71,0,0,0,1-.12l.6-.18a7.93,7.93,0,0,1,.83-.22l1.55-.28.49-.09c.39-.07.77-.14,1.09-.23l1.38-.36c.1,0,.28-.11.37-.15l.23-.14.19-.1.3-.12,1.51-.48h0l.15,0h0l1-.07a2,2,0,0,0,.71-.15,2.84,2.84,0,0,0,.55-.31l.08-.05.19-.11.35-.14,1.26-.29.1,0,.14,0h0l.93-.14a4.92,4.92,0,0,0,.66-.12l1.1-.26.13,0,.32-.12.13-.06a2.23,2.23,0,0,0,.51-.33l.16-.11.31-.14h0l.48-.11.29-.05a5.53,5.53,0,0,0,1-.27l1.12-.4H216l.21-.05a4.83,4.83,0,0,0,.5-.1l.42-.07.14,0L218,291l.8-.22.16,0,.74-.29c.3-.13.63-.26.89-.35l.74-.25a2,2,0,0,0,.65-3.51c-.22-.16-.42-.34-.64-.52l-.48-.41c-.22-.18-.44-.38-.67-.6a4.22,4.22,0,0,0-.49-.45,3.38,3.38,0,0,0-.57-.35,3.32,3.32,0,0,1-.65-.42,6.39,6.39,0,0,0-.59-.48c-.21-.16-.43-.34-.6-.5a2.8,2.8,0,0,1-.48-.73l-.07-.13a2,2,0,0,0-.49-.62,2.21,2.21,0,0,0-.32-.23l-.08-.06a2.52,2.52,0,0,1-.6-.44c-.15-.17-.32-.35-.45-.48l-.39-.43A2,2,0,0,0,212,279a4.27,4.27,0,0,1-.65.24,5.24,5.24,0,0,1-.86.12c-.26,0-.5.06-.74.11l-.15,0-.56.21-.2.09a4.26,4.26,0,0,1-.79.29,8.66,8.66,0,0,1-1,.13l-.14,0a4.17,4.17,0,0,0-.55.08,6.39,6.39,0,0,0-.63.13l-.18,0-.91.18a3.86,3.86,0,0,1-1,0l-.46,0a1.84,1.84,0,0,0-.47.06,4.61,4.61,0,0,0-.62.19,5.73,5.73,0,0,1-.77.21,5.61,5.61,0,0,0-.59.06l-.21,0c-.34.05-.67.09-1,.11a3.3,3.3,0,0,1-1-.14,4.82,4.82,0,0,0-.52-.11h-.21a5.21,5.21,0,0,0-.76,0,6.41,6.41,0,0,1-1,0,10.57,10.57,0,0,1-1.66-.32l-.24-.07a5,5,0,0,1-.6-.17,3.42,3.42,0,0,1-.76-.34,3.22,3.22,0,0,1-1.14-1.28,3,3,0,0,1-.14-1.59,5.91,5.91,0,0,1,.35-1.78,5.23,5.23,0,0,1,.58-1l.09-.15c.07-.11.14-.21.21-.33l.09-.17a2.7,2.7,0,0,0,.16-.46l0-.11a3.1,3.1,0,0,1,.41-.92c.17-.23.36-.45.56-.68l.16-.18c.14-.15.28-.31.41-.47a6,6,0,0,1,.68-.64l.11-.09a6.47,6.47,0,0,0,.5-.47,8.8,8.8,0,0,1,.69-.67c.2-.19.39-.37.58-.57l.08-.09a3.37,3.37,0,0,0,.39-.58,3.65,3.65,0,0,1,.57-.76,4,4,0,0,1,.77-.52,3.73,3.73,0,0,0,.63-.44,8,8,0,0,0,.59-.55c.23-.23.47-.47.72-.69a4.58,4.58,0,0,0,.59-.68,3.6,3.6,0,0,1,.58-.65c.44-.37.89-.74,1.37-1.12a6.08,6.08,0,0,1,.75-.54l.15-.11.53-.38a7.74,7.74,0,0,1,.7-.51l.71-.5c.23-.18.45-.37.65-.56a8.47,8.47,0,0,1,.67-.57,6.46,6.46,0,0,1,.78-.47,4.57,4.57,0,0,0,.73-.43,4.22,4.22,0,0,0,.68-.63,4.25,4.25,0,0,1,.66-.6,4,4,0,0,1,.73-.39,3.31,3.31,0,0,0,.83-.43l.54-.35.18-.12.72-.46a4.11,4.11,0,0,0,.64-.55l.09-.09a5.3,5.3,0,0,1,.63-.54,3.36,3.36,0,0,1,.81-.33l.11,0a2.6,2.6,0,0,0,.55-.21,1.2,1.2,0,0,0,.27-.16c.07,0,.35-.3.57-.52a4.61,4.61,0,0,1,.69-.59l.62-.41.83-.53a7.61,7.61,0,0,1,.83-.45l.17-.09.56-.31c.48-.31,1-.61,1.53-.94a7,7,0,0,1,.7-.4c.25-.12.5-.26.82-.44l.42-.29.26-.18c.25-.17.5-.35.75-.5a6.25,6.25,0,0,1,.76-.36.31.31,0,0,0,.1-.05l.13,0a4.62,4.62,0,0,0,.59-.29l.56-.36.18-.12c.26-.18.52-.35.75-.49l.68-.39.72-.43.08,0a5.79,5.79,0,0,0,.67-.42l.13-.09a7.77,7.77,0,0,1,.68-.44c.26-.14.51-.29.78-.45s.54-.33.77-.47.54-.26.82-.4l.18-.08.6-.28c.25-.14.52-.26.81-.39s.52-.23.75-.35l1.59-.84a5.84,5.84,0,0,0,.53-.33l.3-.19a5.16,5.16,0,0,1,.67-.41l.73-.42.77-.44c.26-.13.5-.28.73-.42l.8-.45a3.5,3.5,0,0,1,.71-.28,1.71,1.71,0,0,0,.65-.38l1.15-.41.47-.15.22-.08a2.34,2.34,0,0,0,.61-.31l.05,0c.34-.23.73-.5,1.17-.78l.88-.49.51-.27L249,235l.44-.17.12,0,.47-.12a5.16,5.16,0,0,0,.66-.2l.22-.09.1-.06.41-.23c.33-.19.67-.4,1-.57l1.27-.61c.44-.19.86-.41,1.28-.63a14.54,14.54,0,0,1,1.38-.67l.56-.23c.28-.12.56-.24.88-.35l.41-.15,1.25-.42.24-.1c.46-.22.93-.45,1.4-.66s.83-.32,1.25-.46l.6-.2.27-.12.15-.09.24-.15.34-.25a3.3,3.3,0,0,1,.39-.26l.14-.08a.3.3,0,0,0,.11-.06l1.43-.54c.31-.12.95-.31,1.42-.45l.71-.2a1.39,1.39,0,0,0,.38-.12l1.22-.41.49-.18.24-.13a1.3,1.3,0,0,0,.21-.12l.48-.31.28-.18.28-.13,1.84-.43.24-.07.15-.05,1.4-.56a5.83,5.83,0,0,0,.74-.35l.22-.12.85-.42.14-.06h0l3.75-1.14.63-.17a13.18,13.18,0,0,0,1.48-.44l1.26-.44h0l1.6-.31a1.71,1.71,0,0,0,.61-.15l1.43-.57,1.87-.22.16,0,1.48-.28a2.76,2.76,0,0,0,.5-.12l1.62-.5h0l.48,0h.41a1.94,1.94,0,0,0,.54,0h.36a1.85,1.85,0,0,0,.46-.08l1.52-.4h0l1.63-.16a15.66,15.66,0,0,1,1.81,0l2.08.09a6.46,6.46,0,0,1,.73.1l.32,0,.43.09.37.09c.36.09.74.19,1.15.32.13,0,.22.09.33.13l.36.16h0l.34.24a1.29,1.29,0,0,1,.16.17l.16.17.1.15.26.46a3.23,3.23,0,0,1,.31.84,2.31,2.31,0,0,1,0,.49l0,.35h0l-.19.81c-.05.15-.09.25-.13.35s-.09.22-.13.32l-.12.29-.06.12-.2.46a5.66,5.66,0,0,1-.34.62l-.24.44,0,.06-.1.14c-.16.23-.34.47-.45.64l-.23.32-.06.08-.1.15h0l0,0-.49.54-.53.54-.48.47c-.58.53-1.14,1-1.66,1.53l-.86.8-.45.45-.8.77-.08.09-.32.28c-.14.12-.29.24-.42.37l-.68.59-1.28,1.06-.1.08-.18.12a2,2,0,0,0-1,2.17l0,.16a2.29,2.29,0,0,1,.07.34c0,.23.07.45.12.67.11.49.21,1,.3,1.45a5.58,5.58,0,0,1,.09.81s0,.13,0,.14c0,.17,0,.34.06.51a2.12,2.12,0,0,0,.1.36,2.54,2.54,0,0,0,.17.38,2.72,2.72,0,0,1,.24.73,2.28,2.28,0,0,1-.05.78l-.06.28a2.06,2.06,0,0,0,0,.7l.1.62c0,.21.06.43.08.72a4.25,4.25,0,0,0,.12.6,4.11,4.11,0,0,1,.13.84,1.38,1.38,0,0,1,0,.35,2,2,0,0,0,3.15,2l.14-.11.54-.39a6.73,6.73,0,0,0,.64-.52l.1-.09c.2-.16.39-.33.59-.47l1.46-1c.26-.18.52-.34.77-.49s.52-.3.79-.49.44-.3.73-.48l.1-.06c.23-.14.46-.28.64-.41l.46-.36.37-.29.59-.46c.2-.14.38-.31.56-.46l.21-.19c.2-.17.39-.34.55-.46l.65-.5.82-.63.51-.44.19-.17c.2-.18.4-.36.64-.54a6,6,0,0,1,.77-.51l.09,0a4.13,4.13,0,0,0,.65-.44c.23-.18.45-.38.67-.59s.42-.39.63-.56l.54-.41.31-.22c.21-.16.42-.31.56-.44.48-.39.94-.77,1.36-1.13.24-.19.48-.37.74-.55l.09-.06a6.73,6.73,0,0,0,.63-.49l1.32-1.17.09-.08c.07-.08.26-.3.41-.51L322,233a3.75,3.75,0,0,1,.6-.69,3.07,3.07,0,0,1,.83-.51,3.15,3.15,0,0,0,.51-.28,1.87,1.87,0,0,0,.46-.43l.31-.44a5,5,0,0,1,.59-.68,5.89,5.89,0,0,1,.45-.42l.1-.1c.25-.22.48-.44.69-.64a5.12,5.12,0,0,1,.73-.56l.16-.1a3.86,3.86,0,0,0,.58-.47,3.51,3.51,0,0,0,.4-.53l.08-.12.06-.08a3.32,3.32,0,0,1,.49-.68,8.29,8.29,0,0,1,.7-.63l.08-.07a3.58,3.58,0,0,0,.52-.47,5.75,5.75,0,0,0,.55-.67l.09-.12.48-.63.56-.6c.22-.23.43-.46.66-.73a4.71,4.71,0,0,1,.35-.41l.16-.18c.22-.23.43-.47.66-.75.36-.48.72-1,1.08-1.48a4,4,0,0,0,.38-.78,4.27,4.27,0,0,1,.35-.74,9.09,9.09,0,0,0,.55-.94l.34-.62a4.48,4.48,0,0,1,.57-.73,3.63,3.63,0,0,0,.45-.57,2.11,2.11,0,0,0,.2-.43,3.58,3.58,0,0,0,.13-.6,3.13,3.13,0,0,1,.2-.8l.24-.54a9.53,9.53,0,0,0,.42-1.05c.08-.25.18-.49.31-.81l.05-.12A3.79,3.79,0,0,0,339.32,210.05ZM287,219.91a2.29,2.29,0,0,0,.93.14A2.08,2.08,0,0,1,287,219.91Z" style="fill: #a1ceef"/>
      <path d="M341.6,210.37l0-.27a9.88,9.88,0,0,0,.22-1.87,4.54,4.54,0,0,0-.44-1.9c0-.1-.08-.2-.11-.29l-.06-.34a6.79,6.79,0,0,0-.57-1.86,3.18,3.18,0,0,0-.17-.27.77.77,0,0,1-.07-.16,6,6,0,0,0-1.13-1.93,9,9,0,0,0-1.79-1.36l-.29-.19a12,12,0,0,0-1.81-.88l-.4-.16a9.52,9.52,0,0,0-1.6-.44,5,5,0,0,1-.65-.14c-.77-.21-1.47-.37-2.17-.5-.21,0-.42-.1-.64-.16a10.4,10.4,0,0,0-1.52-.31c-.23,0-.45-.08-.68-.12a11.55,11.55,0,0,0-1.48-.2c-.46,0-.93,0-1.39,0h-.77a11.2,11.2,0,0,0-1.38.11,5.94,5.94,0,0,1-.75.08l-1.52.08-.59.05a11.42,11.42,0,0,0-1.33.17c-.25,0-.51.09-.77.12a4.73,4.73,0,0,1-.62,0,7.48,7.48,0,0,0-1.5,0,10.71,10.71,0,0,0-1.29.23c-.25.06-.51.12-.78.16l-.79.07a12.1,12.1,0,0,0-1.31.13l-2.06.34a5.67,5.67,0,0,1-.72.06,13.24,13.24,0,0,0-1.37.15l-1.23.26-.81.18a5.56,5.56,0,0,0-1.54.6l-.36.19-.3,0a5.25,5.25,0,0,0-1.9,0,6.28,6.28,0,0,0-1.47.6c-.16.07-.39.2-.47.22l-.85.19c-.4.08-.79.16-1.18.26h-.47a5.06,5.06,0,0,0-3.12.84l-.44.23a5.21,5.21,0,0,1-.6.08,6.69,6.69,0,0,0-1.46.24,10,10,0,0,0-1.23.46c-.24.1-.48.21-.72.29a8.09,8.09,0,0,1-.82.19c-.4.1-.81.19-1.19.32s-.54.14-.8.2a12.32,12.32,0,0,0-1.23.32c-.63.2-1.27.41-2,.65a5.31,5.31,0,0,0-1.48.79,4.13,4.13,0,0,1-.37.24c-.38.13-.75.29-1.13.45a8.09,8.09,0,0,1-.76.31,3.52,3.52,0,0,1-.44,0,5.44,5.44,0,0,0-1.51.23,5.45,5.45,0,0,0-.61-.5,5.35,5.35,0,0,0-1.22-.57.6.6,0,0,0-.18-.05c-.07,0-.13-.13-.2-.19a4.83,4.83,0,0,0-1-.85,5.81,5.81,0,0,0-1.11-.48l-.07,0a.63.63,0,0,1-.25-.1,2.27,2.27,0,0,1-.25-.18,5.22,5.22,0,0,0-1.06-.73c-.46-.23-.94-.47-1.42-.68a6,6,0,0,0-1.08-.37,2.33,2.33,0,0,1-.42-.11,6.41,6.41,0,0,0-1-.33c-.15-.05-.31-.08-.47-.14a1.32,1.32,0,0,1-.33-.18c-.4-.21-1-.44-1.6-.69-.32-.13-.65-.26-1-.36l-1.3-.35-.22-.06a6.57,6.57,0,0,0-1.25-.17,1,1,0,0,1-.35,0,1.58,1.58,0,0,1-.34-.13,6.63,6.63,0,0,0-1.16-.37l-1.05-.17-.53-.08a5.15,5.15,0,0,0-1.21-.05h-.36a1.43,1.43,0,0,1-.27-.09,5.6,5.6,0,0,0-1.3-.32,9,9,0,0,0-1,0l-.55,0a8.42,8.42,0,0,0-1.19.06c-.13,0-.26,0-.4,0l-.55,0c-.34,0-.68,0-1,0h-.55c-.34,0-.69,0-1,0l-.52,0c-.36,0-.72,0-1.08,0a5.3,5.3,0,0,1-.57,0c-.34,0-.68,0-1,.05a5.51,5.51,0,0,0-1.3.34l-.25.09-.52,0c-.35,0-.7,0-1,.09l-.36.06c-.41.07-.81.13-1.2.22a6.14,6.14,0,0,0-1.07.3,3.5,3.5,0,0,1-.46.14,7.71,7.71,0,0,0-1,.33l-.43.16h-.28a5.21,5.21,0,0,0-1.35.17l-1,.35a4.6,4.6,0,0,1-.52.19,2.23,2.23,0,0,1-.43.1,7.62,7.62,0,0,0-1.12.3,6.24,6.24,0,0,0-1.15.63l-.24.15c-.16.08-.33.12-.5.19-.33.11-.66.22-1,.36s-.62.32-.93.48l-.47.26c-.44.22-.88.44-1.31.67l-.09,0-.29.09a5.9,5.9,0,0,0-1.21.48,5.19,5.19,0,0,0-1.1.88l-.13.16-.47.24c-.31.17-.62.32-.92.51a2.55,2.55,0,0,1-.29.13,6,6,0,0,0-1.14.59,4.85,4.85,0,0,0-1,1,.76.76,0,0,1-.11.14l-.16.07a4.81,4.81,0,0,0-1.26.68,7.45,7.45,0,0,0-.77.71l-.41.37-.22.19c-.33.28-.66.56-1,.85l-.8.77-.34.34c-.25.25-.51.5-.75.77l-.34.36c-.24.26-.48.52-.7.78l-.36.42c-.11.12-.25.23-.37.35s-.52.49-.76.76a6.29,6.29,0,0,0-.68,1.05,1.78,1.78,0,0,1-.17.3,3.68,3.68,0,0,1-.33.35,9.93,9.93,0,0,0-.74.84,5.6,5.6,0,0,0-.61,1.13c0,.09-.08.2-.12.28l-.32.43c-.2.28-.41.56-.59.86a8.7,8.7,0,0,0-.53.89l-.27.47a1.94,1.94,0,0,1-.23.27,6.17,6.17,0,0,0-.73,1c-.26.45-.5.92-.75,1.39a5.83,5.83,0,0,0-.43,1.16c0,.09,0,.18-.07.26l-.11.1a4.6,4.6,0,0,0-.91,1.28,4.92,4.92,0,0,0-.33,1.38c0,.09,0,.17,0,.19a3.11,3.11,0,0,1-.2.41,11.08,11.08,0,0,0-.49,1,3.78,3.78,0,0,1-.2.48,9.24,9.24,0,0,0-.41,1c-.06.18-.12.37-.19.55s-.23.65-.33,1-.18.67-.25,1c0,.18-.08.37-.13.55-.08.34-.16.7-.23,1.05,0,.18-.08.36-.11.53-.08.36-.15.73-.21,1.08l-.09.5a6.51,6.51,0,0,0-.11,1.16c0,.15,0,.3,0,.45l-.12.49a7.5,7.5,0,0,0-.24,1.09,5.07,5.07,0,0,1-.09.54,9.19,9.19,0,0,0-.17,1c0,.36,0,.7,0,1.05l0,.56a3,3,0,0,1,0,.31l-.36.21a6.72,6.72,0,0,0-1.22,1.09,5.45,5.45,0,0,1-.46.44c-.27.19-.55.36-.83.54s-.72.45-1.06.68a4.64,4.64,0,0,1-.56.25,6.32,6.32,0,0,0-1.51.74,7.13,7.13,0,0,0-1.21,1.15,5,5,0,0,1-.41.44,5.54,5.54,0,0,1-.67.36,7.72,7.72,0,0,0-1.32.76,13.27,13.27,0,0,0-1.07.89,6,6,0,0,1-.66.57c-.25.19-.52.37-.78.53s-.73.48-1.08.74-.51.36-.76.53-.75.49-1.1.75l-1.77,1.4a6.8,6.8,0,0,0-1.18,1.3,4.18,4.18,0,0,1-.33.43,12.42,12.42,0,0,0-1,.91c-.23.2-.45.42-.68.6a4.13,4.13,0,0,1-.49.26,6.52,6.52,0,0,0-1.5.9,5.57,5.57,0,0,0-1.15,1.46c-.09.14-.21.34-.25.38-.22.2-.47.39-.71.58s-.71.55-1,.86c-.14.11-.36.26-.6.41a7.67,7.67,0,0,0-1.26.92c-.22.21-.47.41-.7.6s-.7.58-1,.9a5.47,5.47,0,0,0-1.07,1.61l-.17.36a7.84,7.84,0,0,1-.63.54,8.59,8.59,0,0,0-1.09,1c-.33.34-.63.72-.92,1.08s-.35.46-.53.67-.35.33-.57.52a6.8,6.8,0,0,0-1.12,1.06l-.58.66c-.33.37-.65.73-.93,1.1a12.35,12.35,0,0,0-.85,1.29,7.48,7.48,0,0,1-.41.67c-.47.66-.91,1.31-1.31,2a10.14,10.14,0,0,0-.72,1.52c-.08.22-.17.44-.26.63a5,5,0,0,1-.36.41,5.71,5.71,0,0,0-1.12,1.59,13.39,13.39,0,0,0-.58,1.86c0,.19-.09.37-.14.54a6,6,0,0,0-.16,2.11,3.23,3.23,0,0,1,0,.51c0,.12-.08.33-.13.55a5.12,5.12,0,0,0-.24,2.21,9.51,9.51,0,0,0,1,2.78,2.07,2.07,0,0,0,.48.62c0,.13.11.26.18.4s.17.29.27.44l.15.22.15.16,0,0,0,.05.41.41c.16.16.39.35.62.54l.17.15.27.19a3.3,3.3,0,0,0,.3.22,7.14,7.14,0,0,0,.8.5l.11.07.06,0,.21.11h0l.2.09.39.18,1,.4,1.94.75.65.22.56.17.57.16.73.17.23.05h.14l.31,0,.6.07.31,0,.35,0h1.39l.68,0,.67,0h.49l.33,0,.67,0,.31,0h.18a13.21,13.21,0,0,0,1.74.09l1.39-.14,1.5-.05,1.4-.13.74,0,.91-.05,1.53-.22.26-.05h.06l.1,0,.18,0a5.69,5.69,0,0,0,.69-.25l.19-.07H187s0,0,0,0l.55.08a5.91,5.91,0,0,0,.94,0,13.48,13.48,0,0,0,1.55-.5l1.3-.21.82,0,.54,0,.26,0H193l.26-.07h0l.08,0c.49-.18,1-.41,1.07-.45a13.4,13.4,0,0,0,1.86-.28c.53-.16.88-.32,1.41-.44l1.53-.31c.51-.13,1-.2,1.52-.35l.74-.21.36-.1.3-.09.09,0,.17-.07.26-.12.3-.16.33-.18.06,0,.24-.09.7-.24.36-.12.08,0h.09l.15,0h.08l.24,0h.24a1.69,1.69,0,0,0,.36-.06l.37-.06h0l.29-.11h0l.08,0a4.47,4.47,0,0,0,.43-.22l.31-.18.19-.11a.45.45,0,0,1,.14-.1s-.05,0,0,0,0,0,0,0l1.33-.36,1.3-.26c.29-.06.51-.13.71-.19l.64-.18.32-.08.07,0h0l.24-.09,0,0,.14-.08a6.36,6.36,0,0,0,.84-.53l.15-.12.06,0,.3-.07c.37-.11.93-.22,1.28-.37l1.07-.43.09,0,0,0,.27-.06c.19-.06.38-.1.57-.14l.61-.16.5-.16.94-.31c.79-.32,1.12-.51,1.66-.73l.74-.28.34-.13.09,0,0,0,.13-.05h0l.15-.08,1-.51,0,0h0l.19,0a5.65,5.65,0,0,0,.92.28l.16,0,.28.21a6.6,6.6,0,0,0,.94.65l.42.24,1,.53a6.57,6.57,0,0,0,1.12.43,2,2,0,0,1,.37.12,6.74,6.74,0,0,0,1.1.39l.3.09a.53.53,0,0,1,.11.09,4.47,4.47,0,0,0,1.31.89,8.32,8.32,0,0,0,1,.32l.5.15a2.91,2.91,0,0,1,.3.17,5.67,5.67,0,0,0,1.13.55,4.73,4.73,0,0,0,1.5.19h.19c.13,0,.26.1.38.15a9.32,9.32,0,0,0,1,.36,9.82,9.82,0,0,0,1.1.19l.48.07,1.2.25.28.05.18.09a4.34,4.34,0,0,0,1.39.5,3.78,3.78,0,0,0,1.61-.1l.14,0,.32.08a6.45,6.45,0,0,0,1,.19l.24.09a4.52,4.52,0,0,0,1.42.35,3.81,3.81,0,0,0,1.59-.26,4.25,4.25,0,0,0,1.59.38,7,7,0,0,0,1.1-.1,4,4,0,0,1,.49,0l.38,0c.4,0,.81,0,1.22,0s.69-.06,1-.1l.53-.06c.34,0,.68-.08,1-.14l.56-.08c.34,0,.67-.12,1-.18l.56-.12.43,0a7.6,7.6,0,0,0,1.15-.11,5,5,0,0,0,1.32-.51l.17-.09a2.58,2.58,0,0,1,.39,0,6.76,6.76,0,0,0,1.19-.18,4.52,4.52,0,0,0,1.34-.64.69.69,0,0,1,.17-.1l.46-.13a9.17,9.17,0,0,0,1-.28c.33-.11.64-.24,1-.38l.45-.19.26,0a5.1,5.1,0,0,0,1.36-.32c.49-.19,1-.4,1.45-.61a5,5,0,0,0,1.17-.77l0,0a3.78,3.78,0,0,0,1.75-.37,4.06,4.06,0,0,0,1.26-1.1l.05-.07.22-.08a6.09,6.09,0,0,0,1.12-.5,3.23,3.23,0,0,1,.42-.2,10.1,10.1,0,0,0,1-.53c.15-.11.32-.19.48-.29a10,10,0,0,0,.88-.55c.29-.2.55-.43.83-.65a4.47,4.47,0,0,1,.41-.35c.28-.21.54-.43.8-.65a4.82,4.82,0,0,1,.43-.36c.27-.21.52-.45.79-.68l.4-.36a5.41,5.41,0,0,0,.86-.95,1.64,1.64,0,0,1,.19-.25,3.62,3.62,0,0,1,.32-.22,5.9,5.9,0,0,0,.95-.74c.12-.11.25-.2.38-.31a6.92,6.92,0,0,0,.83-.72c.24-.25.47-.52.69-.79a4.64,4.64,0,0,1,.36-.4,2.86,2.86,0,0,1,.38-.4c.24-.25.49-.5.71-.76a4.22,4.22,0,0,0,.74-1.36l0-.08.08-.06a4.63,4.63,0,0,0,1.11-1c.25-.34.49-.69.73-1l.18-.27a6.37,6.37,0,0,0,.58-1.12c.05-.11.08-.21.13-.3.28-.45.57-.9.84-1.35a3.32,3.32,0,0,1,.26-.36,7.5,7.5,0,0,0,.66-.94c.16-.3.31-.62.44-.93s.16-.34.24-.5a3.62,3.62,0,0,1,.22-.32,6.49,6.49,0,0,0,.63-1,4.56,4.56,0,0,0,.37-1.54c0-.05,0-.11,0-.16.16-.36.3-.72.44-1.09l0-.08.06-.05a4,4,0,0,0,1-1.45,4.4,4.4,0,0,0,.21-1.6.34.34,0,0,1,0-.1,1.45,1.45,0,0,1,.1-.18,5.58,5.58,0,0,0,.52-1.16,9.18,9.18,0,0,0,.23-1,4.26,4.26,0,0,1,.1-.49l.12-.43c.08-.36.18-.71.27-1.07a1.11,1.11,0,0,1,.12-.3,5.77,5.77,0,0,0,.4-1.2,5.22,5.22,0,0,0,.08-1.25,1.6,1.6,0,0,1,0-.31c0-.13.07-.25.1-.39a5.27,5.27,0,0,0,.28-1.14,6.15,6.15,0,0,0,0-1.2.56.56,0,0,1,0-.13,5,5,0,0,0,.66-.38c.31-.2.59-.42.88-.64a6.07,6.07,0,0,1,.57-.43c.3-.2.57-.41.85-.62s.39-.31.6-.45.6-.46.9-.71a4.84,4.84,0,0,1,.5-.42l.53-.36c.32-.22.64-.44.95-.67l.59-.36a10,10,0,0,0,.94-.6l.6-.38c.31-.19.62-.38.91-.59l.82-.64c.2-.15.4-.32.61-.47s.57-.46.85-.71.35-.31.53-.45l.83-.64.59-.46c.29-.23.56-.46.83-.71s.36-.32.54-.46a3.36,3.36,0,0,1,.51-.32,10.26,10.26,0,0,0,1-.67c.28-.23.55-.47.82-.72a5.76,5.76,0,0,1,.53-.47c.19-.16.39-.3.58-.44s.59-.42.86-.64c.47-.4.93-.77,1.38-1.16.18-.15.37-.28.55-.41a10.34,10.34,0,0,0,.89-.67l.84-.75.51-.46a5.82,5.82,0,0,0,.91-1c.09-.13.22-.29.24-.31a2.25,2.25,0,0,1,.31-.16,5.36,5.36,0,0,0,1.29-.84,7.33,7.33,0,0,0,.87-1l.29-.38.56-.5.78-.73.38-.27a6.92,6.92,0,0,0,1.07-.84,6.35,6.35,0,0,0,.84-1.11,3.27,3.27,0,0,1,.25-.37,5.56,5.56,0,0,1,.44-.39,8.39,8.39,0,0,0,.93-.84c.26-.29.5-.61.73-.92s.26-.36.39-.52l.48-.51c.27-.28.52-.57.76-.85s.31-.35.46-.52.52-.58.75-.88c.39-.49.76-1,1.11-1.5a5.69,5.69,0,0,0,.68-1.31c.06-.13.09-.26.16-.38a9.71,9.71,0,0,0,.65-1.11l.29-.52c0-.06.18-.22.28-.34a5.16,5.16,0,0,0,.87-1.19,5.86,5.86,0,0,0,.48-1.57c0-.12,0-.23.05-.32s.16-.33.22-.49a9.85,9.85,0,0,0,.53-1.34c.06-.17.14-.33.2-.49A6.33,6.33,0,0,0,341.6,210.37ZM208.13,232.2a7,7,0,0,0,.43-.87,4.31,4.31,0,0,0,.29-1.28.44.44,0,0,0,0-.1l0-.06a4.36,4.36,0,0,0,.86-1.17,5.33,5.33,0,0,0,.36-1,2.72,2.72,0,0,1,.11-.34c.21-.42.45-.85.68-1.26a3.11,3.11,0,0,1,.23-.28,7.7,7.7,0,0,0,.66-.88c.12-.2.24-.4.35-.61s.23-.43.36-.64l.45-.63a6.55,6.55,0,0,0,.39-.53,6.32,6.32,0,0,0,.55-1c0-.1.08-.2.11-.26s.23-.25.35-.37a8,8,0,0,0,.62-.7,5.13,5.13,0,0,0,.6-.94,1.85,1.85,0,0,1,.17-.29,3.68,3.68,0,0,1,.39-.4,7.56,7.56,0,0,0,.64-.62c.15-.16.29-.34.44-.5l.52-.59.39-.41.6-.63.38-.37.66-.64.87-.75.24-.19c.2-.18.4-.37.59-.57l.41-.38.2-.08a4.76,4.76,0,0,0,1.18-.61,4.88,4.88,0,0,0,.91-.94,1.58,1.58,0,0,0,.12-.15,1.22,1.22,0,0,1,.24-.1,5.57,5.57,0,0,0,1-.52l.51-.28a6.93,6.93,0,0,0,.76-.41,5.35,5.35,0,0,0,1-.82l.14-.15.25-.08a4.7,4.7,0,0,0,1.09-.41l.11,0,1.17-.61c.25-.12.5-.26.74-.4s.35-.2.54-.28a4.37,4.37,0,0,1,.57-.21c.27-.08.54-.18.79-.28a5.9,5.9,0,0,0,1-.59c.09-.05.16-.12.21-.14a2.46,2.46,0,0,1,.45-.11,8.28,8.28,0,0,0,1-.25l.7-.25.59-.23h.28a5.09,5.09,0,0,0,1.23-.15,6.21,6.21,0,0,0,.86-.29,5.16,5.16,0,0,1,.52-.16c.3-.07.6-.17.9-.27a2.67,2.67,0,0,1,.48-.15c.35-.07.69-.13,1-.18l.38-.07.57,0a8.69,8.69,0,0,0,.88-.07,4.57,4.57,0,0,0,1.18-.33l.23-.08c.22,0,.46,0,.69,0l.75,0a3.49,3.49,0,0,1,.56,0l.89,0c.26,0,.52,0,.78,0h.77l-.18.07-1.25.48-1.31.49-1.14.46s0,0,0,0h0l-.24,0a6.82,6.82,0,0,0-.74.09l-.17.05-.09,0a2.13,2.13,0,0,0-.32.11h0c-.51.26-1.18.65-1.28.71l-.59.18-.34.12-.18.05-.05,0-.22.1h0l-.08.05c-.45.22-.86.48-1.34.69l-.66.3-.33.16a4.37,4.37,0,0,0-.79.54c-.17.15-.27.26-.41.4s0,0,0,0l-.14.11-.26.12-.65.3-.18.08-.2.12h0l-.05.05-.11.08-.4.34-.56.49,0,0-.14.06-.27.12-.35.18-.18.08-.09,0-.22.15h0l0,0-.65.46-.31.22-.08.06-.06,0,0,0-.14.08-.62.37-.17.1-.08.06-.05,0-.15.11,0,0-.35.31-.63.56-1.17,1-1.17,1.12-.58.53-.29.27c-.14.13-.22.23-.34.35L227,217l-.11.11v0l-.09.05-.41.26-.29.19-.14.12-.08.07,0,0a2.38,2.38,0,0,0-.19.17l-.05,0-.27.34-.13.18-.06.11-.14.23c-.05.11-.05.09,0,.1v0s0,.06-.06.11l-.13.05c-.23.13-.52.29-.67.4l-.16.12,0,0h0v0l-.23.21,0,.05-.55.72-.46.63-.22.31-.12.22-.11.2h0a0,0,0,0,0,0,0l0,0a3.39,3.39,0,0,0-.41.15l-.36.17-.15.1-.08.05,0,0-.27.21h0a0,0,0,0,0,0,0h0l-.1.11-.49.53c-.17.18-.3.31-.51.55l-.5.59L219,225l-.11.08-.49.38-.27.21a2.75,2.75,0,0,0-.34.32l-.51.55-.22.25h0l-.06.05-.46.32c-.19.13-.32.21-.56.39l-.5.38c-.32.26-.62.49-1,.84l-.45.41-.11.1h0l-.19.12-.91.59-.83.44-.22.11-.09.06h0l0,0-.06.05-.11.1-.47.38-.36.31-.05,0-.12.05-.71.3-.19.07-.15.08h0l-.07,0-.27.09c-.23.1-.45.17-.65.25s-.3.15-.43.22A3.86,3.86,0,0,1,208.13,232.2Zm-1.37,4.15a2.38,2.38,0,0,1,.52,0,3,3,0,0,0,.63-.1l.23-.08.1,0,.07,0h0l.16-.09.22-.13a2.38,2.38,0,0,0,.35-.27l.29-.23.11-.09.73-.25.45-.17.12,0v0h0l.19-.07.4-.15.51-.21.26-.11h0l.19-.11,0,0,.09-.08c.13-.09.25-.19.37-.29l.3-.24.08-.06,0,0h0l.19-.09,1-.52,1-.58.24-.14,0,0,.18-.13,0,0,.11-.09.44-.37a6.58,6.58,0,0,1,.88-.7l.51-.37.5-.31.6-.4.16-.1,0,0h0l.16-.13,0,0,.06-.05.24-.24.4-.41a1.24,1.24,0,0,1,.13-.15l.29-.2.61-.44.16-.12.08-.06,0,0,.15-.14,0,0,.25-.26.4-.47.47-.49.5-.5.05,0,.14-.09h0l0,0-.06,0h.05l.13,0a2.52,2.52,0,0,0,.69-.3,3.72,3.72,0,0,0,.45-.33l.1-.08.17-.19.06-.07.11-.15a1.58,1.58,0,0,0,.18-.27l.26-.43.06-.11s0,0,0,0l.45-.58.33-.44.13-.08s0,0,0,0l.45-.23a4.28,4.28,0,0,0,.38-.26l.19-.14.09-.08,0,0,.15-.18c.09-.11.13-.15.26-.33l.2-.32.14-.24.05-.08.11-.08s0,0,0,0h0l.22-.13.24-.14.31-.23.15-.13,0,0,.09-.1,0,0,.13-.15.49-.52.21-.21.3-.27.59-.51,1.14-1,1.22-1,.55-.49.22-.2.05,0,.17-.1.74-.44.2-.12,0,0h0l.08,0,.33-.23.58-.41h0l.18-.09.35-.17.44-.21.22-.11.11-.06h0l.2-.15,0,0,.55-.48.18-.17,0,0h0l.06,0,.75-.35.42-.19h0l.19-.13,0,0,.07-.06.15-.12a6.51,6.51,0,0,0,.54-.51l.09-.09.24-.11.73-.32c.43-.2.88-.47,1.31-.69l1.31-.43a12.17,12.17,0,0,0,1.19-.66l.13,0s0,0,0,0l.42,0a4.43,4.43,0,0,0,.75-.16c.54-.2.89-.36,1.34-.54l1.2-.45,1.19-.47.11-.05h0l.29,0,.66-.13.34-.06h.07l.23-.07.07,0,.14-.06.51-.22a1.88,1.88,0,0,0,.29-.16l.57-.12.55-.13.49-.09.91-.18h.06c.09,0,.2,0,.13,0a.14.14,0,0,1-.09,0l.31.06a4.26,4.26,0,0,0,1.05,0h.06l.11,0h.07l.12,0,.22-.06.74-.17c.2,0,.52-.07.76-.11l.36,0,.19,0,.08,0h0l.28-.05h0a2.56,2.56,0,0,1,.34-.1,6.22,6.22,0,0,0,.64-.29h0a3.5,3.5,0,0,0,.87.2,4.38,4.38,0,0,0,.54,0l.15,0c.24.09.48.19.72.26l.36.19a6.31,6.31,0,0,0,.93.44l.84.26a3.28,3.28,0,0,1,.51.15,7.21,7.21,0,0,0,.93.3,2.77,2.77,0,0,1,.41.12c.43.19.86.4,1.26.6l.24.19a5.79,5.79,0,0,0,.92.66,6.77,6.77,0,0,0,1,.4l.06,0,.23.08.19.19.25.24a4.83,4.83,0,0,0-.9.24c-.26.1-.53.17-.79.25s-.8.25-1.19.39a5.06,5.06,0,0,0-1.53,1,2.19,2.19,0,0,0-.22.22,6.37,6.37,0,0,1-.69.19,8.76,8.76,0,0,0-1.3.39c-.38.15-.74.33-1.11.51l-.77.37c-.14,0-.37.09-.61.15a6.26,6.26,0,0,0-1.4.41c-.27.11-.55.19-.82.29s-.76.27-1.12.42a12.18,12.18,0,0,0-1.15.59c-.22.13-.46.26-.69.37l-1.91.82a8.42,8.42,0,0,0-1.22.69,4.66,4.66,0,0,1-.52.32,1.84,1.84,0,0,1-.41,0,5.59,5.59,0,0,0-1.74.4c-.37.18-.73.37-1.1.58l-.73.39a5.93,5.93,0,0,0-1.36.9c-.12.11-.31.25-.34.28a2.58,2.58,0,0,1-.42.07,5.61,5.61,0,0,0-1.67.44c-.35.17-.71.34-1.05.54l-.79.41c-.23.1-.46.17-.7.25a10.22,10.22,0,0,0-1.26.48,6.43,6.43,0,0,0-1.32.93,3.92,3.92,0,0,1-.38.3,5.45,5.45,0,0,1-.62.21,7.35,7.35,0,0,0-1.36.49,6.72,6.72,0,0,0-1.23.82,3.13,3.13,0,0,1-.51.35s0,0,0,0a5.12,5.12,0,0,1-.63.21,7.05,7.05,0,0,0-1.47.54,9.67,9.67,0,0,0-1.16.67c-.25.15-.52.32-.79.46s-.75.43-1.11.65-.55.33-.84.48a10.67,10.67,0,0,0-1.19.77c-.26.17-.49.34-.69.45l-.81.42c-.39.22-.79.41-1.17.63a8.5,8.5,0,0,1-.82.36,12,12,0,0,0-1.24.58c-.26.14-.54.25-.81.37s-.8.35-1.22.58-.73.43-1.09.66-.55.35-.83.5a12.32,12.32,0,0,0-1.16.76,5.71,5.71,0,0,1-.72.49l-1.09.65-.84.49c-.39.23-.75.49-1.12.75s-.49.35-.75.5a4.35,4.35,0,0,1-.7.31,10.54,10.54,0,0,0-1.35.63c-.39.24-.76.49-1.12.75a6.61,6.61,0,0,1-.74.53l-.83.44c-.38.2-.77.41-1.14.63l-1.91,1.19a7.94,7.94,0,0,1-.77.39,11.65,11.65,0,0,0-1.23.66l-.63.42v0a2.8,2.8,0,0,1,.12-.5c.08-.31.16-.62.21-.93s.06-.67.08-1a1.75,1.75,0,0,1,0-.46l.1-.54c0-.3.1-.61.17-.91s.08-.41.13-.6.11-.57.19-.83.06-.29.1-.44A.26.26,0,0,0,206.76,236.35ZM234,286.49l-.18.1-.12,0-.61.19-.41.14-.35.11-.63.25-.07,0h0l-.15,0-.3.08-.57.15-.1,0-.28.11a2,2,0,0,0-.44.22l-.26.17h0s0,0-.1.06h-.12c-.25-.13-.51-.27-.76-.42l-.46-.26c-.13-.08-.25-.18-.37-.27a7.29,7.29,0,0,0-.8-.57,4.48,4.48,0,0,0-1.36-.51l-.15,0c-.14-.1-.27-.21-.4-.32a7.37,7.37,0,0,0-.66-.48c-.12-.1-.23-.21-.34-.32a9.19,9.19,0,0,0-.75-.65,5.47,5.47,0,0,1-.54-.44l-.57-.48a5.74,5.74,0,0,1-.45-.41c-.2-.19-.4-.39-.61-.56a5.5,5.5,0,0,0-1-.65,1.7,1.7,0,0,1-.24-.14c-.21-.18-.43-.36-.66-.53l-.38-.3c0-.05,0-.1-.07-.15a4.74,4.74,0,0,0-.55-.9l.07-.05c.24-.2.53-.41.82-.64l.45-.36.54-.39.55-.4.29-.21.07-.05,0,0h0l.07-.06.14-.12c.38-.3.78-.62,1.2-1l1.33-1.11c.44-.4.9-.81,1.38-1.22s.88-.9,1.35-1.38l1.47-1.44.68-.73.31-.34.13-.16.2-.18.76-.71.35-.33.41-.34c1.15-1,2-1.59,3.24-2.5l.83-.6.88-.62.22-.15.11-.08.11-.08.05-.05.41-.33.73-.59.14-.1.23-.15.45-.27.81-.51,0,0,.12,0,.23-.11.46-.22c.3-.13.63-.26.9-.4s.61-.3.83-.39l-.38.46-.47.48c-.33.35-.6.74-.88,1.07s-.58.74-.83,1.08a9.49,9.49,0,0,0-.73,1.14l-.08.14,0,.08-.07.14-.09.2c0,.07-.05.13-.07.2l-.11.33a5.11,5.11,0,0,0-.21,1.09,6.2,6.2,0,0,0,0,.93,8.66,8.66,0,0,1,.62,1.23,2.47,2.47,0,0,0,.48.62,2.77,2.77,0,0,0,1.76.71h.22a1.39,1.39,0,0,0,.26,0h0l.14,0a1.89,1.89,0,0,0,.37-.1,5.28,5.28,0,0,0,.6-.27l.29-.14a2.69,2.69,0,0,1,.43-.19c.25-.07.47-.13.78-.24l.5-.19.27-.1.06,0,.15-.09.1-.05.8-.44.88-.49,1-.58.95-.61.48-.3.05-.05,0,0h0l.12-.1.11-.1.21-.2.79-.74,1-.72.26-.18,0,0h0l.14-.13h0l.06-.06.11-.11a5.18,5.18,0,0,0,.59-.69l.16-.19a.08.08,0,0,0,0,0h0l.06-.05.13-.1.27-.2.54-.41.18-.15h0l0,0,.08,0,.14-.1,1.22-.79c.41-.28.81-.57,1.22-.87l1.17-.89c.38-.29.76-.6,1.16-.9l.29-.23,0,0h0s0,0,0,0,.08-.07.2-.2l.06-.07.13-.13c0-.06.23-.29.36-.49l.25-.42,0-.06s0,0,0,0v0h0l.57-.49.29-.24.15-.12,0,0,.26-.16h.08a4.85,4.85,0,0,0,1-.55l.15-.09A2,2,0,0,1,263,256v0l0,0,.14-.13.27-.28L264,255l.61-.57.51-.46.09-.09.17-.1.08,0h0l.1,0c.17-.07.29-.11.5-.21l.37-.2.17-.11.08-.05h0a1.18,1.18,0,0,1,.18-.16l0,0,.28-.27q.24-.28.45-.57l.15-.19.06,0,.08,0,0,0s0,0,0,0l.34-.11.26-.1.37-.19.18-.09.07,0,.19-.14,0,0,.15-.12.16-.13.23-.22.32-.34.09-.09,0,0s0,0,.11-.08c.42-.27.9-.6,1.25-.8l.68-.36.33-.17.18-.09.08,0h0l.09-.07.05,0,1.05-.71.14-.05c.09,0,.06,0,.05,0v0a2.57,2.57,0,0,1,.33,0l.28-.05a2.8,2.8,0,0,0,.41-.13l.2-.07.1,0h.06s0,0,0,0l.19-.11.15-.1.31-.2.48-.32c.05,0,.14-.11.17-.12l.35-.13.67-.24.33-.12.05,0h0l.16-.07.08,0,.16-.09.56-.32.39-.22.66-.22.64-.23.05,0h.08l.33-.07c.39-.1,1-.17,1.33-.27l1.17-.33h.08l.15,0v0h.06l.39,0a4.41,4.41,0,0,0,.61,0h.16l.09,0h.05l.14,0,.15,0,.56-.15L287,244l.1,0,.05,0h0l.14,0,.28,0,.93-.21c.5-.09,1.38-.2,1.84-.23l.93,0h.37l.2,0,.89.11.45,0h.28l.18,0,1.06-.1.23,0a3,3,0,0,0,0,.6,7.5,7.5,0,0,0,.11.81c0,.2.06.4.08.6a5.86,5.86,0,0,0,.18,1.1c0,.1.07.22.08.27s0,.2-.06.31a6.21,6.21,0,0,0-.15,1.15,3.48,3.48,0,0,1,0,.55c0,.29-.07.57-.09.87a6.71,6.71,0,0,0,.08,1.1l0,.19a2.2,2.2,0,0,0-.14,1.08c0,.15-.06.31-.07.46a6.33,6.33,0,0,0,0,1.07,1.47,1.47,0,0,1,0,.36,2.26,2.26,0,0,1-.11.37,9.72,9.72,0,0,0-.26,1,5.79,5.79,0,0,0-.05,1.14c0,.11,0,.22,0,.28a2.68,2.68,0,0,1-.12.3c-.05.1-.1.22-.15.34l-.46-.06-.21,0h-.47l-.47,0a6.37,6.37,0,0,0-1.16.11l-.68.14-.27.07h-.17l-1.31.2c-.21,0-.42,0-.64.08l-.33,0H288l-.11,0-.17,0-1.46.3-.7.16-.18,0h-.05l-.12,0h0l-.1,0-.34.14c-.8.35-2.18.77-3,1.16l-.18.08-.16.07-.08,0-.36.17-.7.36c-.6.35-1.22.82-1.38.9-.92.44-1.94,1.13-2.74,1.48l-.34.18-.45.23-.67.37-.33.17-.4.31-.65.53-.14.11h0l-.31.2c-.21.12-.41.25-.61.38l-1.22.68-.83.56a.77.77,0,0,1,0-.15c0-.15,0-.28,0-.51a2.86,2.86,0,0,0-.14-.81,2.44,2.44,0,0,0-1.21-1.41,2.25,2.25,0,0,0-.51-.2l-.19-.06-.2,0-.12,0a7.53,7.53,0,0,0-1-.07l-.63,0h0l-.27,0-.06,0-.11,0-.24.08-.48.15-.63.23c-.22,0-.44.08-.7.16l-.39.1-.1,0h0l-.2.07,0,0-.06,0-.26.15-.52.31-.37.24,0,0-.15,0a7.68,7.68,0,0,0-.8.22l-.2.08-.22.11,0,0-.07,0-.11.08-.23.17a4,4,0,0,0-.65.61c-.13.14.05,0-.1.14l-.13,0a2.12,2.12,0,0,0-.35.15l-.23.1-.12.06-.06,0h0l-.24.15,0,0-.5.4-.41.35-.09.08h0l-.2.12-.42.27-.22.15-.11.07-.21.15-.88.63c-.29.22-.6.43-.9.66a1.29,1.29,0,0,0-.33.27,4.36,4.36,0,0,0-.48.55l-.21.34,0,0h0l0,0,0,0-.21.09-.27.15-.14.07-.06,0-.12.08-.06,0-.21.16,0,0-.44.37-.43.37a5.24,5.24,0,0,0-.55.59l-.4.48-.08.09-.15.13-.43.4-.22.19-.2.13-.42.32-.23.17-.06,0-.15.13-.11.1c-.29.24-.59.52-.87.73l-.38.29-.23.17-.11.09-.07,0-.12.11,0,0-.88.91-.8.66c-.6.48-1.18.94-1.73,1.45l-.21.18-.12.12-.22.22-.2.23-.12.17a2,2,0,0,0-.14.23s0,0,0,0l-.09.11,0,0-.33.27-.81.68-.4.34-.21.17,0,0,0,0-.08.05-1.58,1-.22.13a2.86,2.86,0,0,0-.51.42c-.15.14-.15.17-.24.26l-.06.08s.08,0,0,0l-.17.14,0,0-.2.11c-.25.14-.58.35-.75.42l-.7.31-.2.08-.11,0,0,0-.09,0-.37.2Zm-39-13c.17-.22.36-.44.57-.67s.32-.38.49-.56a3.26,3.26,0,0,1,.41-.38,8.91,8.91,0,0,0,.8-.76c.18-.19.39-.38.59-.56l.63-.6a5.39,5.39,0,0,0,.77-1.06,2.92,2.92,0,0,1,.22-.34l.36-.23a5.73,5.73,0,0,0,1.06-.74l.63-.59a8.21,8.21,0,0,1,.6-.58,6.34,6.34,0,0,0,.85-.95,3.51,3.51,0,0,1,.3-.36l.29-.24a5.1,5.1,0,0,0,.36.5l0,0v.06a4.52,4.52,0,0,0,.28,1.52,5.25,5.25,0,0,0,.7,1.16,2,2,0,0,1,.13.18,1,1,0,0,1,0,.17,4.57,4.57,0,0,0,.4,1.41l.16.35c.17.36.35.72.54,1.07a5.73,5.73,0,0,0,.71,1,1.37,1.37,0,0,1,.22.27,7.62,7.62,0,0,0,.66.93,3.19,3.19,0,0,1,.25.33,1.28,1.28,0,0,1,.11.27,5.31,5.31,0,0,0,.55,1.21,3.42,3.42,0,0,1,.23.42,8.64,8.64,0,0,0,.56,1c.13.19.28.38.43.58a4.83,4.83,0,0,0-.87.13,6.37,6.37,0,0,0-1.16.42c-.15.07-.34.16-.41.18a4.29,4.29,0,0,1-.71.08c-.32,0-.64.07-1,.14l-.79.17c-.28.07-.56.12-.82.17a3.56,3.56,0,0,1-.43,0,6.48,6.48,0,0,0-1.25,0,5.76,5.76,0,0,0-1.18.3,2,2,0,0,1-.42.12l-.81.11-.78.09a2.23,2.23,0,0,1-.39-.08,4.34,4.34,0,0,0-1.2-.18c-.31,0-.61,0-.91,0a3.13,3.13,0,0,1-.59,0,8.26,8.26,0,0,1-1.36-.25l-.2-.06a4.45,4.45,0,0,1-.87-.28,1.24,1.24,0,0,1-.39-.41,2.94,2.94,0,0,1,0-.63v-.1a3.36,3.36,0,0,1,.22-1.1c.05-.13.21-.36.34-.59s.27-.4.4-.61a6.6,6.6,0,0,0,.46-1.11A2.28,2.28,0,0,1,195.07,273.46Zm15.3-3.95c-.07-.09-.15-.17-.21-.26l-.45-.94-.14-.27a1.52,1.52,0,0,1,0-.21,4.85,4.85,0,0,0-.35-1.31,5.52,5.52,0,0,0-.65-1l-.1-.12v-.1a4.6,4.6,0,0,0-.25-1.42,4.7,4.7,0,0,0-.75-1.25l0,0a.49.49,0,0,1,0-.12c0-.1,0-.23,0-.37s.08-.05.11-.09c.27-.2.52-.42.77-.64a5,5,0,0,1,.56-.47,4.33,4.33,0,0,1,.51-.31,7.33,7.33,0,0,0,1-.59,7,7,0,0,0,.91-.83,4.25,4.25,0,0,1,.37-.37,3.71,3.71,0,0,1,.43-.2,6.46,6.46,0,0,0,1.12-.59c.22-.16.46-.31.7-.46s.51-.32.75-.5a6,6,0,0,0,.93-.79l.36-.33a2.3,2.3,0,0,1,.34-.12,4.83,4.83,0,0,0,1.33-.58,5.61,5.61,0,0,0,1-.82,2.3,2.3,0,0,1,.36-.32l.64-.43.81-.53c.2-.12.4-.22.61-.33a9.31,9.31,0,0,0,.93-.5l1.48-.92c.21-.13.44-.25.67-.37s.57-.3.85-.47.56-.36.83-.55.4-.29.63-.42a3.47,3.47,0,0,1,.55-.26,9.31,9.31,0,0,0,1-.49c.29-.17.56-.35.84-.55s.41-.28.64-.41l.67-.4.83-.48c.29-.17.58-.36.86-.55s.4-.28.61-.4.52-.3.78-.47l.72-.41a5,5,0,0,1,.66-.32l.92-.45c.2-.11.43-.2.65-.3s.63-.28.93-.44l1.55-.83c.3-.16.6-.36.9-.55s.38-.26.58-.37l.83-.47c.24-.14.46-.27.7-.39s.57-.32.86-.49a7.08,7.08,0,0,1,.66-.38,3.83,3.83,0,0,1,.52-.2,6.06,6.06,0,0,0,1.13-.43,1.7,1.7,0,0,0,.5-.38l.15,0,.52-.17.31-.1h.06l.19-.08h0l.09-.06.17-.1,1.48-.94.69-.36.46-.25.24-.12c.07,0,.15-.09.17-.08s0,0,.23-.07l.66-.16a7.26,7.26,0,0,0,.7-.21l.07,0,.19-.08h0l0,0,.15-.09.31-.16,1.19-.67,1.16-.52c.85-.35,1.74-.93,2.68-1.31.47-.18,1-.43,1.45-.58l1.48-.5.13-.05,0,0h.05l.09-.06.19-.08L261,232l.79-.37c.51-.22,1-.35,1.56-.56l.22-.08.1,0,.12,0h0l0,0,.09-.05a5.52,5.52,0,0,0,.66-.38l.42-.3.14-.12.2-.11.09-.05.37-.13.89-.33c.66-.25,1-.29,1.68-.51l.46-.13.58-.2.93-.32.48-.17c.25-.12.53-.26.73-.38l.48-.31a1.85,1.85,0,0,1,.19-.13l.22-.11h.05l.39-.07.9-.2.24,0,.07,0,.2-.06h0l.12,0,.47-.18.95-.38c.29-.12.71-.33,1.06-.5l.94-.48,1.74-.58,2-.55c.66-.2,1.34-.33,2-.58l1-.37.25-.08.08,0h0l.06,0,.43-.07,1-.2.13,0h.06l.15,0h0l.29-.11h0c.1.16.2.33.31.49a4.37,4.37,0,0,1,.32.55l.4.68a5.45,5.45,0,0,0,.64.82,3.5,3.5,0,0,1,.24.3c.1.17.17.34.25.51s.23.52.37.78a6.24,6.24,0,0,0,.61.88,1.76,1.76,0,0,1,.21.29l.08.16h-.43a9,9,0,0,0-1.07.19l-.44.09-.58.08c-.4,0-.88.11-1.29.12l-.34,0h-.35l-.16,0-.86.23-.38.1-.1,0h0l-.21,0-.84.16c-.34.08-.52.08-.81.14l-.46.08-.11,0h0l-.14,0h0l-.12.06a3.48,3.48,0,0,0-.48.21l-.31.18-.13.09,0,0,0,0-.16.08-.11,0-.25.07-.48.12a18.64,18.64,0,0,0-2,.7l-1,.43-.42.12-.51.14-.13,0h0l-.18.08h0l-.07,0-.29.16-.55.31-.24.13-.08.05h0l-.07,0-.51.22a5.49,5.49,0,0,1-.95.37c-.11,0-.33.11-.49.18l-.14,0-.07,0-.26.12,0,0a5.12,5.12,0,0,0-.55.4c-.23.2-.48.45-.38.38h0l-.13.09h0l0,0-.42.18-.53.23-1.12.58-.13.08-.06,0-.14.08h0l0,0-.28.22-.51.4-.93.77-.22.19-.12.09,0,.05h0l-.44.3c-.66.39-1.27,1-1.86,1.37l-.43.29-.23.16-.12.07-.06,0-.1.07h0l0,0-.5.45-.41.4-.07.08-.06,0-.22.17-.45.33c-.32.25-.52.35-.78.53l-.45.3h0l-.15.12,0,0-.06.06-.11.12-.24.26-.39.43-.15.17-.07,0-.77.56-.05.05h0c-.05,0-.09.06-.1.08h0l0,0-.1.11-.21.21-.38.38-.17.18-.08.08,0,0-.38.31-.74.57-1.41,1.11-.34.26-.12.09-.15.14-.62.53-.15.13,0,0,0,0-.32.2-.58.39h0l-.06,0-.21.15c-.13.11-.28.26-.35.33l-.15.2c0,.05-.07.1-.08.13h0s0,0,0,.06l-.07.06-.17.06-.39.15c-.11,0-.22.1-.33.15a.14.14,0,0,0-.1.06,2.09,2.09,0,0,1-.36.09l-.14,0c0-.11,0-.21.07-.33l0-.06a1.15,1.15,0,0,0,0-.16l0-.29a3.56,3.56,0,0,0,0-.57,4.87,4.87,0,0,0-.12-.52c0-.11-.08-.22-.11-.32a5.71,5.71,0,0,0-.63-1.13l-.24-.25-.12-.14-.24-.2-.07-.07-.4-.3a4.64,4.64,0,0,0-.74-.37l-.19-.06-.05,0h0l-.18,0h0l-.17,0c-.23,0-.47,0-.71,0-.4,0-.47,0-1,.08l-.87.06-1,.11-.45.07h0l-.2.06h0l-.12.05-.26.11-.24.11-.15.1-.28.18,0,0-.14.08,0,0h0c-.32.09-.64.18-1,.29l-.25.08-.37.15-.49.19-.48.21h0l-.11.06-.05,0-.12.05-.24.13c-.32.16-.61.37-1,.51s-.6.24-1,.39h0l-.16.09h0l0,0-.07,0-.14.1-.28.2-.49.36-.11.09,0,0h0l-.25.15-.48.3c-.17.09-.32.21-.5.29l-.4.18-.51.27H232l-.17.11-.14.11-.25.24a3.85,3.85,0,0,0-.35.4c-.28.34-.07.11-.18.25l-.08.08-.17.09-.44.27-.25.15-.13.08-.2.15-.06,0-.91.64c-.55.48-.76.72-1.05,1l-.83.89-.2.21,0,0-.11.09-.46.39a8.42,8.42,0,0,0-.87.81,6.74,6.74,0,0,1-.82.75l-.44.36-.1.09-.06.05-.11.09,0,0-.24.26-.43.48-.18.21-.06.08-.06,0-.84.75c-.26.21-.51.4-.77.59l-.11.08,0,0-.15.12v0l0,0-.21.28-.4.51-.17.21,0,.06-.33.26-.41.32-.1.09-.1.09,0,0,0,0,0,.06-.2.22-.38.41-.17.2-.06.06,0,0c-1.05.89-2,1.63-2.88,2.32l-.66.58-.29.26-.33.25-.63.46-.09.06-.14.13-.3.3a3.67,3.67,0,0,0-.31.42s0,0,0,.07l-.16.15,0,0-.1.05-.2.11-.52.27-.07,0-.18.1,0,0-.12.07a1.43,1.43,0,0,1-.22.15c-.08.07-.15.11-.23.17A.28.28,0,0,0,210.37,269.51Zm96.15-47.44a2.4,2.4,0,0,0,0,.24,5.38,5.38,0,0,1-.26.77l0,.11,0,.09h0v0l-.14.32a5,5,0,0,1-.34.71l-.18.36-.11.17-.44.66-.39.58c-.14.16-.29.32-.42.48l-.49.53-.28.29-.22.22c-.67.66-1.3,1.28-1.91,1.86-.14.15-.29.29-.45.44s-.26.29-.4.43l-.8.84-.05,0,0,0h0l0,0h0l-.18.17-.39.36-.71.65c-.35.31-.66.57-.94.83,0-.11-.06-.22-.1-.33a5.26,5.26,0,0,1-.15-.53c-.1-.32-.18-.64-.3-.95-.17-.49-.36-1-.55-1.46-.07-.17-.13-.35-.19-.52a9.56,9.56,0,0,0-.35-.94,2.35,2.35,0,0,1-.13-.43c-.1-.29-.21-.66-.38-1.06-.08-.16-.14-.33-.22-.49a8.07,8.07,0,0,0-.41-.94,5.51,5.51,0,0,0-.68-1l-.21-.28c-.08-.15-.14-.31-.22-.46a8.38,8.38,0,0,0-.47-.95,5.71,5.71,0,0,0-.71-1,3.5,3.5,0,0,1-.24-.3c-.09-.14-.17-.29-.26-.44l.41-.09.24-.06.28-.08,1.06-.36.43-.13h.06l1.13.06.26,0,.12,0h.07l.21,0h0l.55-.15,1-.29.24-.07h0l.49-.06,1-.12a17.28,17.28,0,0,1,1.78,0l1.91,0c.14,0,.44.06.66.08s.6.12.89.19.42.1.63.13a6,6,0,0,1,.79.29h0s0,.06.09.09.06.07.1.11l0,0,.05.1.11.2a1.84,1.84,0,0,1,.17.37c0,.06,0,0,0,0a.29.29,0,0,1,0,.16v.22h0v0Zm-53.11,29.22s0,0,0,0h0Zm-.07.05h0Zm-3.85-1.07-.12-.05h0v0a0,0,0,0,0,0,0S249.47,250.23,249.49,250.27Zm-15.24,3.62h0S234.27,253.85,234.25,253.89ZM212.77,271.6l0,0,0,0Zm-.39.22.24-.14.07,0-.05,0,.06,0,.56-.25.37-.18.19-.1.1,0,0,0h0l.15-.11a3,3,0,0,1,.26-.24c.15-.16.31-.36.43-.51l.1-.12h0s0,0,0,0l0,0,.67-.43.35-.22.35-.28.69-.53c1-.71,2.15-1.5,3.23-2.3l0,0h0l.09-.1h0l.09-.09.19-.18.34-.35.16-.16,0,0,.07,0,.43-.31.52-.4.07-.05h0s.06-.05.13-.14l0,0,.08-.11.18-.2.29-.36.11-.13.09-.07.49-.34.57-.41c.29-.25.59-.48.89-.72l.05-.05,0,0s.12-.12.11-.1l.1-.11.19-.2.35-.38.15-.18,0,0,.11-.1.47-.37a7.74,7.74,0,0,0,.93-.82,7.78,7.78,0,0,1,.85-.78l.47-.38.11-.09.06,0h0l.11-.1,0,0,.21-.22.36-.38.16-.17,0,0,0,0,.11-.1.09-.1a6.86,6.86,0,0,0,.63-.67l1-.71.08-.07,0,0h0l.22-.13.57-.35.29-.19h0s0,0,0,0,.06,0,.16-.15l0,0,0,0,0-.06.11-.1c.14-.14.53-.67.53-.67l.35-.19.62-.33c.18-.09.33-.21.5-.31a9.7,9.7,0,0,0,1.58-1.17l1.07-.48a6.31,6.31,0,0,0,.93-.55l.23-.13.12-.08h0l0,0h0l.45-.22.47-.23.12-.05.05,0,.16-.06,1-.34h0l.18-.07.06,0,.11-.06a2.65,2.65,0,0,0,.28-.16l.37-.25L243,249l0,0,.25-.05.47-.08.17,0h.17l1.55-.21a.2.2,0,0,0,.1,0l0,0h.1v0l.12.08.07,0,0,0c.08.07.16.16.24.24h0l.1.25s0,0,0,0h0v0h0a3.92,3.92,0,0,1-.07.51,3.24,3.24,0,0,0,0,.77l0,.22v0l.05.17h0v0l0,0a1.89,1.89,0,0,0,.06.18,2.37,2.37,0,0,0,.43.72,2.81,2.81,0,0,0,.6.53l.2.14a1.43,1.43,0,0,0,.7.21l.37.11a3.65,3.65,0,0,0,1.19,0c.15,0,.23,0,.46-.09s.48-.15.73-.25l0,0,0,0,0,0,.06,0,.12,0,.14,0a2.64,2.64,0,0,0,.85-.33l.08,0h0l0,0h0a1.45,1.45,0,0,0,.18-.13l0-.05.12-.11a1.31,1.31,0,0,0,.19-.18l.21-.25.09-.11h0l.63-.36.34-.18.08-.05h0l.12-.08,0,0,.16-.11c.21-.17.42-.34.65-.51l.16-.12.23-.16.35-.24c.49-.33,1-.67,1.52-1l.8-.54.4-.28.05,0,0,0,.1-.08.09-.09.18-.16.35-.32.15-.15.06-.05h0l.93-.61L261,246l.07,0h0l.14-.13h0l0,0,.18-.19.33-.34.13-.14L262,245l.41-.25c.36-.22.79-.47,1.06-.66l.46-.31.23-.16.06,0,0,0h0l.1-.08.11-.09.41-.37.33-.3.89-.58c.68-.45,1.18-.95,1.87-1.35l.48-.31L269,240l.36-.29.08-.07.21-.16.23-.18.39-.32.17-.14h0l.11-.06.53-.29.29-.15.06,0h.05l1.15-.54.08,0,0,0,.2-.12v0l.12-.09.11-.08.21-.19.35-.36h0l.57-.23a9.12,9.12,0,0,0,1.12-.48l.51-.24.2-.1.12-.08.23-.14.41-.25.19-.12h0l.06,0,1.14-.38c.3-.13.62-.31.94-.47a14.52,14.52,0,0,1,1.8-.74l.47-.15.24-.07.11,0h0l.17-.09h0l.05,0,.22-.11.39-.25.23-.16.09-.07.39-.09.93-.22.83-.2.19-.06.16,0,.1,0,.37-.14c.22-.07.41-.15.62-.23l.59-.1c.55-.08.94-.16,1.35-.25l.56-.12.12,0h0l.07,0,.13,0,.25-.09c.31-.08.49-.16.69-.21l.66-.1.49-.07c.06.15.12.29.16.43s.17.47.26.7c.17.44.34.88.5,1.32.08.22.14.45.2.67s.13.46.2.7c.15.45.3.89.42,1.35a7,7,0,0,0,.4,1,2.33,2.33,0,0,1,.14.33c.05.2.08.4.11.6s.09.54.15.8.15.72.21,1.07l-1,.07h-.25l-.28-.05-.29,0-.39-.06-.2,0-.11,0h-1.73c-.79.05-1.25.1-2.14.22l-.66.12-.55.12-.21,0h0l-.07,0-.18,0-.68.15a5.62,5.62,0,0,1-.55.15h0l-.2,0-.24,0-.32,0h-.7l-.3.06h-.06l-1.24.34c-.51.15-.78.14-1.26.25l-.33.07-.16,0-.23.06h-.05l-.07,0-.65.23-.65.23a7.53,7.53,0,0,0-.86.4l-.67.36-.16.08h0l-.33.14-.68.25-.33.12a2.4,2.4,0,0,0-.45.25c-.28.16-.59.37-.76.49l-.28.18-.39.06-.39.07-.3.08-.18.07-.09,0,0,0-.28.12h0l-.77.51-.62.43-1.27.68c-.53.32-.88.57-1.33.86a5.61,5.61,0,0,0-1,.79l-.17.18-.05.05,0,0L267,248l0,0s0,0,0,0h0l-.05,0-.41.14-.35.15-.18.08-.08.05-.17.09-.08,0,0,0a.85.85,0,0,0-.2.14h0a0,0,0,0,0,0,0l-.08.08a6.31,6.31,0,0,0-.58.58l-.29.39a.11.11,0,0,0,0,.06l-.15.15-.16.07-.26.12-.33.15-.16.08-.08.05-.17.1-.09.06h0l-.21.14,0,0h0l-.17.16-.62.58c-.16.17-.43.4-.51.51l-.63.64-.27.28-.08.08-.31.15c-.22.1-.45.21-.63.31l-.32.21-.2.16h0l0,0-.07.06-.14.14-.29.24-.57.5s-.33.33-.49.52a3.29,3.29,0,0,0-.37.53l-.12.22h0s.07,0-.06.13l-.1.12-.25.2-1.14.93-1.11.9-1.07.81L252,260l-.14.1-.07.05-.18.13-.26.22-.52.43-.25.21-.13.11-.06.05-.11.11a3.32,3.32,0,0,0-.41.43l-.25.33c-.17.2,0,.09-.22.31l-.11.11v0l-.22.17-1,.76-.92.9-.21.21-.06.06,0,0c-.16.12-.31.23-.47.33s-.63.46-.86.6l-.79.5c-.28.17-.56.33-.82.5s-.54.31-.79.47l0,0h0l-.15,0-.27.12c-.2.09-.49.17-.71.25l-.18.07a1.19,1.19,0,0,1,.1-.19,5.79,5.79,0,0,1,.4-.58c.09-.12.2-.24.29-.37L243,266c.29-.32.55-.7.91-1,.19-.19.4-.4.58-.6s.34-.39.51-.6v0l.13-.19,0,0,0-.07.08-.15.17-.32a3.71,3.71,0,0,0,.24-.63,7.52,7.52,0,0,0,.26-1.16,5.94,5.94,0,0,0,0-1.36,2.84,2.84,0,0,0-.06-.44,2.62,2.62,0,0,0-.14-.53,2.7,2.7,0,0,0-.31-.61,2.65,2.65,0,0,0-.67-.71,4.14,4.14,0,0,0-3.53-.4,8.68,8.68,0,0,0-1.26.46c-.39.17-.61.3-.94.46l-1,.43-.46.23-.23.11-.12.06-.06,0-.21.12-.88.56-.44.29-.23.14c-.16.1-.18.14-.29.21l-.93.74-.4.34h0l-.11.08-.22.16-.87.63-.91.67c-1.05.82-2.46,2-3.42,2.86l-.39.35-.41.41-.74.73-.18.19-.2.22-.37.44c-.23.26-.45.53-.67.79L224,270.27c-.43.46-.85,1-1.24,1.4l-1.25,1.23-1.18,1.1-1.14,1-.09.08h0l0,0-.08.06-.27.21-.53.43-.46.37c-.15.14-.3.28-.45.4-.28.27-.55.48-.79.69l-.09.08-.16.09a2.46,2.46,0,0,1-.27.17s0,0,0,0l-.12-.25a5.24,5.24,0,0,0-.64-1.07,4.7,4.7,0,0,0-1-.89.61.61,0,0,0-.14-.09l-.23-.29-.64-.87a4.79,4.79,0,0,1-.25-.45,6.37,6.37,0,0,0-.44-.78,1.69,1.69,0,0,1-.1-.27,6.27,6.27,0,0,0-.28-.69Zm61.73-28h0ZM264.28,250h0Zm20.33,27.37a.58.58,0,0,1-.05.14c-.12.14-.26.28-.39.41l-.54.55-.48.56a6,6,0,0,1-.46.53,3.06,3.06,0,0,1-.39.34q-.37.28-.72.6a1.44,1.44,0,0,1-.32.23,6.28,6.28,0,0,0-.85.64,6,6,0,0,0-.75.87l-.18.23-.49.42c-.2.19-.4.36-.62.54l-.54.45a6.36,6.36,0,0,1-.57.46l-.64.54c-.16.13-.31.27-.49.39s-.37.23-.56.34l-.67.41a2.44,2.44,0,0,1-.43.21,6.37,6.37,0,0,0-.86.45l-.33.12a7.28,7.28,0,0,0-1,.44,4,4,0,0,0-1.06.93,3.4,3.4,0,0,0-1.52.33,5,5,0,0,0-1.06.71l-.14.14c-.43.19-.87.38-1.25.53a1.17,1.17,0,0,1-.26,0,5.69,5.69,0,0,0-1.25.26l-.73.31c-.2.08-.4.18-.6.25l-.66.18-.73.19a5.22,5.22,0,0,0-1.23.6.56.56,0,0,1-.15.1,3,3,0,0,1-.31,0,6.63,6.63,0,0,0-1.05.14,4.9,4.9,0,0,0-1.21.48l-.14.09a2.22,2.22,0,0,1-.44,0c-.35,0-.69,0-1,.08s-.49.09-.73.15l-.69.12-.67.1c-.26.05-.51.08-.76.11s-.41.05-.62.06-.55.07-.82.09l-.48,0,.08-.05.11-.06.05,0h0s.06,0,.12-.08h0l.32-.27c.17-.14.35-.29.53-.46l.07,0,.09-.06h0l.3-.12.15-.07.22-.13a2.9,2.9,0,0,0,.41-.27l.36-.29,1.49-1.27c.31-.26.51-.46.76-.71l.31-.29.41-.3.49-.38.13-.09,0,0,.14-.15h0l0-.05.17-.2c.28-.3.33-.42.59-.68.53-.48,1.07-1,1.61-1.46l.08-.07.18-.13a0,0,0,0,1,0,.05l.28-.14a3.33,3.33,0,0,0,.49-.29l.26-.21.1-.1.4-.38.41-.39.4-.34.44-.37.11-.08.15-.15h0l0,0,.05-.06a2.23,2.23,0,0,0,.26-.29l.28-.37.2-.06.19-.07a1.82,1.82,0,0,0,.32-.15,1.91,1.91,0,0,0,.32-.16l.08-.05.23-.18h0l0,0,.1-.1.15-.16c.13-.14.29-.33.39-.46h0l.15-.07.59-.25c.31-.13.65-.38,1-.55l.22-.14h0c.06,0,.08,0,.09,0h0l.16,0,.42-.1.28-.09.13,0h0l.25-.11h0l0,0,.24-.15a5.25,5.25,0,0,0,.49-.37l.13-.11.06,0,1-.21,1-.19h.38l.6,0,.3,0,.24,0,.51-.09.46-.08h.41a10.33,10.33,0,0,0,1.13,0l1-.12h.09l.27-.05.12,0,.28-.09.45-.2.19-.09.05,0h.26l.87-.08.89-.06.54,0,.38-.09.75-.16.66-.13C284.73,277.07,284.66,277.23,284.61,277.35Zm7.1-12.43-.11.28c-.14.35-.27.7-.43,1.05a4.15,4.15,0,0,0-.32,1.43v.12l-.16.24a5.5,5.5,0,0,0-.58.89c-.12.23-.24.48-.35.73a5.86,5.86,0,0,1-.26.57,2.24,2.24,0,0,1-.29.38c-.2.26-.39.53-.56.8s-.5.82-.76,1.22a2.12,2.12,0,0,0-.11.21l-.47.06-.83.18-.25.06a2,2,0,0,0-.35.08,4.41,4.41,0,0,0-.84.38v0l-.17.05h0l-.08,0-.17,0-.34,0-.69.1c-.24.05-.5.08-.75.12l-.39.07h-2.55a4.21,4.21,0,0,0-.87.26l-.15.06-.07,0h0s-.08,0-.14,0h0l-1,.07c-.34,0-.52,0-.87,0h-.66l-.51.07-.52.06-.27,0h-.22a3.57,3.57,0,0,0-.47,0h-.47l-.28,0h0l-1.06.16c-.46.09-.77.13-1.14.21l-.28.06h-.1l-.15,0h0l-.05,0c-.12,0-.25.11-.37.16l-.35.21-.19.14-.17.13-.07.07a0,0,0,0,1,.05,0l-.07,0-.1,0-.38.06-.47.12-.14,0-.07,0-.25.12h0l0,0-.25.13a9,9,0,0,1-1,.53l-.47.18-.27.11-.13.06-.07,0-.2.12s0,0,0,0l0,0-.08.05a4,4,0,0,0-.55.49l-.3.35c-.17.06-.64.22-.81.31l-.13.08-.06,0h0l-.25.16,0,0c-.18.16-.35.33-.52.51s-.17.22-.26.34l0,.06h0l-.12.13,0,0,0,0-.44.37-.47.38-.41.39-.42.39,0,0h0l0,0h0l-.22.1a4.4,4.4,0,0,0-.52.3l-.23.15,0,0-.22.17-.05,0-.1.1-1.64,1.45c-.25.23-.65.69-.83.9l-.15.17-.07,0-.34.26-.4.31-.05.05-.08.05h0l0,0-.1.08-.18.18c-.23.22-.5.5-.7.67-.48.42-1,.83-1.42,1.21l-.3.26h0l0,0,0,0h0l-.51.23-.18.09-.1,0-.09.06,0,0h0l-.18.13-.71.59-.24.2h0l-.06,0-.13.06-.59.33-.09,0-.1.07,0,0-.14.1-.3.2-.53.35,0,0-.07,0-.14.07-.27.14-.52.26c-.1.06-.34.25-.49.36l-.42.31a1,1,0,0,0-.15.11l-.39.13-.53.18a2.32,2.32,0,0,0-.36.16c-.23-.05-.46-.11-.7-.14a4.2,4.2,0,0,0-1.51.12h0l-.05,0a4.56,4.56,0,0,0-1.28-.49l-.35-.07c-.35-.06-.71-.13-1.06-.21a7.15,7.15,0,0,0-.91-.14,4.71,4.71,0,0,1-.52-.09,3.23,3.23,0,0,1-.49-.18,7.55,7.55,0,0,0-.87-.31,4.41,4.41,0,0,0-1.38-.16H236l-.22-.13a5.71,5.71,0,0,0-1-.5,7.41,7.41,0,0,0-.8-.25l-.46-.15h0l.34-.11h.11l.19,0,.87-.25a1.24,1.24,0,0,0,.26-.1l.19-.08.37-.17.39-.18.13-.07.21-.07.43-.16.52-.21c.38-.17.57-.29.88-.44l.21-.11.11-.05h0l.21-.13,0,0,.19-.13a2.7,2.7,0,0,0,.34-.3l.27-.28,0,0,.14-.07c.15-.09.28-.15.48-.28l.28-.16.14-.08h0l0,0,.42-.24.56-.35.14-.08.09-.06,0,0,.2-.16.42-.34.88-.68.42-.34.19-.17,0,0,0-.05.1-.09c.08-.09.22-.27.32-.41l.17-.23v0h0l0-.05.22-.18c.56-.49,1.19-.95,1.79-1.4l.46-.35.23-.17.11-.09.06,0,.15-.13.73-.74.92-.66c.35-.26.62-.48.93-.74l.08-.06.05,0h0l.23-.17.51-.38.28-.2.22-.19.43-.38.22-.19.06-.05.21-.21,0,0,.1-.11.33-.4a2.26,2.26,0,0,1,.21-.28l.44-.37.36-.29h0l.12-.08,0,0h0v0h0l.19-.09.19-.08.28-.16.28-.19.07-.05.22-.2v0l0-.05.1-.11,0,0,.09-.13a6.19,6.19,0,0,0,.36-.52v0s0,0,0,0l.88-.62.89-.62.82-.53.24-.16,0,0h0l.1-.08.05,0,.1-.08L260,271l.22-.2.05,0,.23-.11.55-.26.3-.14,0,0h0l.22-.16h0l.05,0,.09-.08c.07-.06.45-.48.52-.57h0s0,0,0,0l.05,0a3.24,3.24,0,0,0,.67-.18l.22-.08.1,0,.05,0h0l.19-.11.19-.11.35-.25.2-.13.09-.08.36-.1.81-.21h0l.09,0h0l.09,0h0a2.44,2.44,0,0,0-.29.49l-.08.18c-.05.12-.09.24-.13.36s-.06.31-.08.46a2,2,0,0,0,0,.35,1.81,1.81,0,0,0,.08.43,1.9,1.9,0,0,0,.7,1,1.93,1.93,0,0,0,.52.26,2,2,0,0,0,.23.06h.09l.19,0h.34a3.65,3.65,0,0,0,.59-.08,7.67,7.67,0,0,0,1.31-.47l1-.46.58-.24.67-.31,1.16-.65,1.27-.61.63-.35.32-.17.09,0,0,0v0l.18-.11.15-.11.53-.39.2-.16.35-.16.7-.33.07,0h0l0,0h0l.1,0,.35-.16c1.12-.47,1.87-1,2.87-1.42a12,12,0,0,0,1.27-.81l.71-.35.36-.16,0,0h0l.05,0,.18-.08c1.06-.44,1.67-.55,2.68-1l.35-.14,0,0h0l.18,0q.36-.06.72-.15l1.27-.28.09,0h.07s0,0,0,0h.08l.33-.05.64-.08,1.15-.19a9.89,9.89,0,0,1,2-.34,2,2,0,0,1,.24,0,5,5,0,0,0-.38.86,4.17,4.17,0,0,0-.19,1.42A3.77,3.77,0,0,0,291.71,264.92Zm45.37-54.82c-.13.3-.25.6-.35.91a6.16,6.16,0,0,1-.34.84c-.08.19-.17.38-.26.58a5.77,5.77,0,0,0-.33,1.24,1.8,1.8,0,0,1-.06.33,2.27,2.27,0,0,1-.25.31,6.26,6.26,0,0,0-.79,1c-.12.22-.23.43-.36.65a8.32,8.32,0,0,1-.46.81,6.53,6.53,0,0,0-.56,1.13,2.26,2.26,0,0,1-.18.4c-.32.46-.66.92-1,1.38-.16.2-.35.41-.53.6s-.41.45-.61.7-.35.4-.54.6-.41.44-.61.67a9.29,9.29,0,0,0-.6.77,6.75,6.75,0,0,1-.47.59c-.09.1-.26.23-.43.38a8.22,8.22,0,0,0-.87.78,5.46,5.46,0,0,0-.76,1,3.67,3.67,0,0,1-.28.4,2.87,2.87,0,0,1-.36.26,6.78,6.78,0,0,0-1,.8c-.2.2-.41.39-.64.59l-.64.6a7,7,0,0,0-.81,1l-.25.36a3,3,0,0,1-.31.15,5,5,0,0,0-1.26.81,5.66,5.66,0,0,0-.87,1,3.79,3.79,0,0,1-.28.35l-.55.49c-.25.23-.5.46-.76.68a6.28,6.28,0,0,1-.56.42c-.28.2-.57.41-.85.63-.44.38-.89.75-1.35,1.13-.19.16-.41.31-.61.47s-.53.38-.79.59-.51.43-.76.67a6.55,6.55,0,0,1-.56.49,3.32,3.32,0,0,1-.5.33,7.37,7.37,0,0,0-1,.64,9.72,9.72,0,0,0-.76.66l-.58.49-.63.49c-.26.2-.5.4-.76.59s-.54.44-.81.68-.35.31-.55.46l-.72.57-.67.51c-.19.14-.4.27-.61.4a9.9,9.9,0,0,0-.87.56c-.2.14-.4.26-.61.38s-.61.36-.91.57l-.9.63-.54.37c-.3.21-.58.45-.86.69s-.34.3-.52.43l-.7.51a3.66,3.66,0,0,0,.07-.84,5.49,5.49,0,0,0-.19-1.23,1.83,1.83,0,0,1-.07-.32c0-.34-.08-.68-.12-1,0-.15-.05-.31-.08-.45a1.46,1.46,0,0,1,.05-.2,4.92,4.92,0,0,0,.08-1.46,4.72,4.72,0,0,0-.44-1.4.71.71,0,0,1-.08-.18,3,3,0,0,1-.05-.43,8.94,8.94,0,0,0-.12-1c-.1-.51-.2-1-.32-1.53,0-.17-.06-.35-.09-.53s-.08-.4-.12-.61a3.42,3.42,0,0,0,.6-.42l1.29-1.07.73-.63.39-.35.21-.17.18-.16.09-.11c.27-.25.54-.51.82-.79l.44-.43.46-.43,2-1.89c.18-.17.36-.34.53-.52s.35-.37.54-.55l.59-.64,0,0,.07-.07,0-.05.06-.07.11-.17.23-.31c.14-.22.3-.44.45-.65l.12-.17.06-.08.14-.22,0,0,.19-.36a6.09,6.09,0,0,0,.4-.77l.2-.43.06-.11.09-.21.07-.2c.11-.29.21-.48.32-.85l.14-.61.07-.3,0-.08v0s0,0,0-.17v-.12l0-.21a2,2,0,0,0,0-.29,5.45,5.45,0,0,0-.11-.86,5.08,5.08,0,0,0-.48-1.28l-.1-.21-.05-.1-.1-.16a4.15,4.15,0,0,0-.45-.61,4.08,4.08,0,0,0-.55-.55l-.34-.24-.16-.11-.24-.12h-.06a7,7,0,0,0-.9-.36c-.39-.12-.8-.24-1.2-.34s-.58-.15-1-.21-.74-.14-1.25-.17l-2-.08a17.72,17.72,0,0,0-2.19,0l-1,.09-.51.06h-.12l-.27,0H297l-.26.07-.92.24-.41.12H295a.63.63,0,0,0-.23,0l-.68,0-.46,0-.23,0h0l-.24,0-.06,0-.49.15-.9.28-.22.07a1.47,1.47,0,0,1-.27.06l-.51.1-1,.19-.89.1-.63.07-.32.05-.15,0h-.08l-.22.06h0l-1,.37-.41.17-.2.08h0l-.13,0-1.09.2L284,219h-.1l-.12,0-.13,0-.25.08-.95.34c-.63.25-1.34.38-2,.58l-2,.57-1,.33-.5.16-.23.08-.13.05h0l-.24.09-.05,0-.89.45c-.28.13-.45.26-.8.4l-.94.37-.47.19-.09,0-.22,0-1.07.23-.6.14-.07,0h0l-.2.09-.11.05-.22.11c-.17.08-.45.26-.66.39l-.36.24c-.08.05-.1,0-.15.08s-.29.1-.44.15l-.92.33-.24.07-.11,0h0l-.05,0h0l-.37.1c-.54.16-1.48.42-2,.62l-.89.32-.43.16-.21.1h0l-.05,0-.1.06-.2.1a7.49,7.49,0,0,0-.63.41l-.31.24c-.1.07-.09,0-.12.07h0l-.22.08c-.53.18-1.22.39-1.78.64l-1.46.69-1.67.57c-.59.21-1,.42-1.53.62-1,.4-1.82.93-2.72,1.33-.47.21-.94.44-1.38.65s-.75.43-1.1.64l-.25.14-.12.07h0a2.11,2.11,0,0,1-.41.13l-.14,0-.35.09a5.17,5.17,0,0,0-.85.28,2.28,2.28,0,0,0-.31.15l-.23.12-.46.25-1,.56-1.25.84-.12.09h0l-.22.08-.53.17-1.14.41a2,2,0,0,0-.6.36,5.84,5.84,0,0,0-1,.4c-.3.16-.61.33-.9.51s-.42.25-.63.36-.59.33-.89.51-.44.26-.65.37-.64.38-.95.58-.37.25-.56.36l-1.57.83a6.22,6.22,0,0,1-.64.29,10.66,10.66,0,0,0-1,.47l-.65.3c-.32.14-.64.29-1,.46l-.85.51-.68.4a8.6,8.6,0,0,0-.9.58c-.19.12-.38.26-.58.37L228,244l-.64.37c-.3.18-.6.37-.89.57s-.39.27-.6.39a5.77,5.77,0,0,1-.56.27,7.46,7.46,0,0,0-1,.5c-.3.18-.59.38-.88.58l-.59.41-.66.35a9.76,9.76,0,0,0-.89.51c-.51.3-1,.61-1.5.92-.2.12-.41.22-.62.34a9.7,9.7,0,0,0-.95.51l-.87.57-.61.4a5.64,5.64,0,0,0-1,.85l-.32.3c-.12.06-.24.08-.36.13a4.71,4.71,0,0,0-1.33.58,7.39,7.39,0,0,0-1,.83,2.6,2.6,0,0,1-.38.34l-.65.42c-.28.18-.56.35-.83.55a3.76,3.76,0,0,1-.44.21,6.15,6.15,0,0,0-1.14.61,6.07,6.07,0,0,0-1,.88,3.37,3.37,0,0,1-.36.34,3.1,3.1,0,0,1-.52.31,7.75,7.75,0,0,0-1,.61,9.68,9.68,0,0,0-.85.71c-.17.16-.33.3-.51.44s-.4.29-.61.42-.57.4-.84.62l-.59.43a7.5,7.5,0,0,0-.86.62c-.47.38-.94.75-1.39,1.13a5.77,5.77,0,0,0-.91,1c-.1.12-.22.29-.28.34-.28.25-.55.51-.81.77s-.32.32-.5.47-.24.16-.38.25a5,5,0,0,0-1.1.79,4.9,4.9,0,0,0-.9,1.17,2.1,2.1,0,0,1-.19.31c-.16.17-.33.32-.5.48s-.56.52-.81.79a5.6,5.6,0,0,1-.45.4,8.91,8.91,0,0,0-.91.87c-.12.17-.27.32-.4.47a11.75,11.75,0,0,0-.81,1,5.11,5.11,0,0,0-.7,1.49,2.82,2.82,0,0,1-.09.3c-.1.16-.2.3-.29.45a7.12,7.12,0,0,0-.73,1.32,8.1,8.1,0,0,0-.49,2.34,4.81,4.81,0,0,0,.36,2.66,5.13,5.13,0,0,0,1.85,2.06,5,5,0,0,0,1.2.56l.76.22.19.05a12.32,12.32,0,0,0,2,.37,7.32,7.32,0,0,0,1.32,0,3.57,3.57,0,0,1,.56,0l.33.07a5.62,5.62,0,0,0,1.53.2c.38,0,.76-.08,1.16-.14.21,0,.42-.06.63-.07a6.79,6.79,0,0,0,1.29-.31l.45-.14c.13,0,.26,0,.38,0a5.76,5.76,0,0,0,1.42,0c.35,0,.7-.13,1-.21l.68-.14c.19,0,.4-.06.61-.09a9.19,9.19,0,0,0,1.14-.16,6,6,0,0,0,1.19-.43l.46-.18a5,5,0,0,1,.56-.08,7,7,0,0,0,1.17-.18,6.4,6.4,0,0,0,1-.35c.15.18.3.35.46.51s.26.27.37.4a4.74,4.74,0,0,0,1.07.85l.16.1.06.13a4.75,4.75,0,0,0,.87,1.25,8.58,8.58,0,0,0,.81.68c.14.11.29.22.41.33a5.57,5.57,0,0,0,1.09.73,1.83,1.83,0,0,1,.25.15,4.38,4.38,0,0,1,.39.36c.25.24.51.48.79.7l.42.36c.23.2.47.4.72.59l-.08,0c-.25.09-.5.16-.76.26-.5.17-1.25.5-1.65.64l-.95.27-.49.13-.41.08-.49.1-.28.06h-.12l-.15,0-.13,0-1.08.4a8.47,8.47,0,0,1-1,.24l-.29.07-.16,0-.07,0c-.23.06-.09,0-.15.05h0l-.08,0c-.21.08-.42.19-.62.29l-.35.24-.09.06h0s0,0,0,0l-.15.07h-.07l-.32.08-.64.15a3.51,3.51,0,0,1-.6.12l-.55.09-.33,0-.18,0h-.06l-.18.05-.09,0-1.37.31a6.6,6.6,0,0,0-.68.28l-.46.27-.1.06h0s0,0-.13.07h-.56l-.33,0-.21,0-.18,0h0l-.21.05h0l-.1,0-.35.11-.71.23-.47.15a6.16,6.16,0,0,0-.62.26l-.34.18h0v0l-.08,0-.16,0-.36.09-.75.19c-.46.12-1,.19-1.5.29l-1.51.27c-.49.09-1.12.32-1.58.44-.24.06-.69.06-1.24.12h-.15l-.21,0h0l-.24.08-.48.16-.78.29c.13-.07-.53,0-1,0h-.07l-.27,0-.1,0-.19,0-.39.06-.77.12c-.45.13-1.18.35-1.38.43h-.08a8.09,8.09,0,0,0-.83-.09h-.39a4.26,4.26,0,0,0-1.52.4s0,0,0,0l-.18,0-.08,0-1.37.18-1.35,0-1.57.13-1.42,0-1.45.14c-.22,0-.56,0-1.06-.08l-.17,0h-.34l-.37,0-.69,0h-.51l-.66,0-.61,0h-.68l-.62,0h-.17l-.25,0-.61-.06-.3,0h-.13l-.06,0-.42-.11-.53-.14-.32-.09-.18-.07-.38-.12c-.66-.24-1.28-.47-1.87-.67h0l-.09,0h0l-.19-.08a2.7,2.7,0,0,1-.4-.14l-.4-.17-.18-.07c-.18-.11-.31-.16-.53-.31s-.21-.14-.31-.21l-.07-.05,0,0h0c-.13-.1-.24-.17-.37-.28l-.37-.37a.37.37,0,0,1-.05-.11c-.23-.58-.33-.74-.33-.76a2.11,2.11,0,0,0-.39-.58,4.23,4.23,0,0,1-.28-.85l.12-.44a8.3,8.3,0,0,0,.27-1.31,8,8,0,0,0,0-1.2,3.52,3.52,0,0,1,0-.64c.06-.21.12-.44.17-.66a11.48,11.48,0,0,1,.35-1.17c0-.06.19-.23.3-.35a5.73,5.73,0,0,0,1-1.35,8.9,8.9,0,0,0,.48-1.09,5.74,5.74,0,0,1,.36-.8c.36-.58.75-1.17,1.17-1.76.22-.3.41-.64.61-1a7.69,7.69,0,0,1,.53-.84c.22-.28.47-.56.72-.84s.47-.51.69-.79a6.13,6.13,0,0,1,.55-.5,8.24,8.24,0,0,0,1-1c.25-.28.47-.57.7-.86s.44-.56.68-.81a6.11,6.11,0,0,1,.62-.55,9.66,9.66,0,0,0,1-.89,5.49,5.49,0,0,0,1-1.52l.19-.39a9.45,9.45,0,0,1,.75-.65c.31-.25.62-.51.92-.79a3.79,3.79,0,0,1,.57-.4,9.59,9.59,0,0,0,1.22-.88,9.06,9.06,0,0,1,.76-.63c.32-.24.65-.49.95-.76a5.56,5.56,0,0,0,1.09-1.4c.09-.14.21-.36.25-.4a4.31,4.31,0,0,1,.49-.25,6.06,6.06,0,0,0,1.46-.86c.31-.26.6-.53.88-.81s.49-.47.75-.68a6.16,6.16,0,0,0,1.12-1.25,3.15,3.15,0,0,1,.36-.44c.57-.45,1.14-.92,1.73-1.37.25-.2.52-.36.79-.55s.7-.45,1-.71.53-.37.8-.54.7-.46,1-.7a11.51,11.51,0,0,0,1-.85,7.8,7.8,0,0,1,.7-.59,6.12,6.12,0,0,1,.64-.36,7.49,7.49,0,0,0,1.3-.72,6.36,6.36,0,0,0,1.17-1.13,3.9,3.9,0,0,1,.43-.45,3.14,3.14,0,0,1,.55-.23,6.78,6.78,0,0,0,1.48-.74c.29-.2.59-.38.89-.57s.65-.4,1-.62a7,7,0,0,0,1.18-1.06c.18-.18.36-.39.42-.43s.28-.08.43-.12a5.14,5.14,0,0,0,1.76-.69,6.23,6.23,0,0,0,1.23-1.11c.14-.14.34-.36.42-.42l.88-.58,1-.63a6.35,6.35,0,0,1,.77-.41,8.88,8.88,0,0,0,1.2-.64l1.89-1.16a8.68,8.68,0,0,1,.85-.46c.37-.2.74-.39,1.09-.61s.72-.47,1.06-.72a8.23,8.23,0,0,1,.78-.53,4,4,0,0,1,.7-.31,8.12,8.12,0,0,0,1.33-.62,12.39,12.39,0,0,0,1.07-.71c.25-.18.5-.36.77-.52l.9-.53c.33-.21.67-.41,1-.6s.74-.47,1.09-.73.5-.36.76-.51.67-.4,1-.6.6-.38.9-.54.54-.26.82-.39a12.9,12.9,0,0,0,1.19-.56,8.33,8.33,0,0,1,.81-.36,10.61,10.61,0,0,0,1.21-.56l1.15-.6.81-.44a9.76,9.76,0,0,0,1.16-.74,7.17,7.17,0,0,1,.72-.47c.36-.19.71-.4,1.07-.62s.55-.34.85-.49.74-.41,1.1-.64.53-.34.81-.49a6.3,6.3,0,0,1,.66-.22,7.41,7.41,0,0,0,1.46-.52,3,3,0,0,0,.26-.16,9.84,9.84,0,0,0,1-.66,4.87,4.87,0,0,1,.49-.35c.14-.06.37-.13.62-.21a7.48,7.48,0,0,0,1.34-.47,6.51,6.51,0,0,0,1.3-.92c.13-.12.32-.26.38-.31a6.12,6.12,0,0,1,.71-.26,11.27,11.27,0,0,0,1.22-.46l1-.51c.27-.15.54-.31.79-.42a2.4,2.4,0,0,1,.42-.07,5.62,5.62,0,0,0,1.65-.42,6.25,6.25,0,0,0,1.33-.9c.14-.11.31-.26.37-.29.37-.17.71-.36,1.07-.56l.69-.38a2.71,2.71,0,0,1,.4,0,5.6,5.6,0,0,0,1.72-.39,7.77,7.77,0,0,0,1.2-.68,3.19,3.19,0,0,1,.59-.34l1.87-.82a11.87,11.87,0,0,0,1.12-.58c.23-.12.46-.26.71-.37s.56-.22.86-.31.7-.25,1.05-.4a3.67,3.67,0,0,1,.63-.15,8.21,8.21,0,0,0,1.36-.4c.35-.14.7-.31,1.06-.49s.52-.26.79-.37a6,6,0,0,1,.71-.2,8.62,8.62,0,0,0,1.26-.37,5,5,0,0,0,1.53-1l.25-.22.78-.25c.37-.11.74-.21,1.11-.35a5.05,5.05,0,0,1,.59-.13,6.47,6.47,0,0,0,1.42-.33,8.16,8.16,0,0,1,.84-.26c.37-.11.75-.2,1.12-.35a5.31,5.31,0,0,0,1.51-.92l.27-.21.4,0a5.68,5.68,0,0,0,1.63-.26c.37-.13.74-.29,1.1-.44s.52-.23.8-.32a6.08,6.08,0,0,0,1.46-.8,1.36,1.36,0,0,1,.41-.24l1.87-.63c.28-.09.56-.14.84-.21s.77-.18,1.15-.29.57-.15.86-.22.75-.17,1.11-.28a10.92,10.92,0,0,0,1.18-.45c.25-.1.48-.21.73-.29a5.66,5.66,0,0,1,.62-.08,6.83,6.83,0,0,0,1.42-.23,6.73,6.73,0,0,0,1.44-.66,3.65,3.65,0,0,1,.41-.22,2.31,2.31,0,0,1,.49,0,5.78,5.78,0,0,0,1.57-.15c.33-.09.64-.15,1-.21l1-.23a6.39,6.39,0,0,0,1.44-.59l.4-.2.31,0a5.12,5.12,0,0,0,1.84,0,5.65,5.65,0,0,0,1.51-.6l.39-.2.86-.19,1.12-.23A7.55,7.55,0,0,1,309,203a8.09,8.09,0,0,0,1.23-.12l2-.33c.3,0,.6-.06.9-.08s.73-.05,1.1-.1a10.62,10.62,0,0,0,1.15-.22,4.94,4.94,0,0,1,.82-.16,3.15,3.15,0,0,1,.67,0,8.56,8.56,0,0,0,1.35,0,9.12,9.12,0,0,0,1.15-.17c.27,0,.54-.09.82-.12l.63,0,1.34-.08a9.39,9.39,0,0,0,1.18-.1,6.79,6.79,0,0,1,.79-.08c.3,0,.6,0,.9,0s.71,0,1.06,0,.56.08.89.14.69.12,1,.16a5.68,5.68,0,0,1,.85.2c.34.09.66.17,1,.23a18.19,18.19,0,0,1,1.79.42c.34.09.67.16,1,.22a5,5,0,0,1,.7.16l.47.19a7.86,7.86,0,0,1,1.07.5l.34.22a5.75,5.75,0,0,1,.93.65,5.13,5.13,0,0,1,.24.54c.11.27.22.54.35.79a1.28,1.28,0,0,0,.1.17c.05.16.08.34.13.54l.08.42a6.06,6.06,0,0,0,.34,1,1.72,1.72,0,0,1,.11.29c0,.27-.08.64-.14,1l-.06.31C337.25,209.69,337.15,209.93,337.08,210.1Z" style="fill: #1d1d1b"/>
    </g>
    <g>
      <path d="M192.66,143.45c0,.32.05.63.05.93s-.08.62-.09.93.11.62.1.92-.08.63-.09.93-.14.62-.16.92,0,.63-.06.93,0,.63,0,.93.06.64,0,.94-.19.61-.23.91,0,.62-.09.92,0,.64,0,.94-.19.6-.24.89-.24.59-.3.89-.07.62-.13.91,0,.64-.1.93-.43.53-.51.82-.16.6-.26.89-.05.64-.16.92-.25.58-.38.85-.41.49-.55.75-.14.64-.3.9-.39.49-.57.73-.44.45-.65.67a7.93,7.93,0,0,1-.71.59c-.23.2-.31.6-.56.78s-.56.3-.82.45-.62.13-.91.26-.56.2-.86.3a9,9,0,0,1-.85.36c-.3.07-.63-.08-.94,0s-.59.24-.9.25-.61,0-.93,0-.61-.22-.92-.24c.52,0,.52.31,1,.31s.52-.33,1-.33c.31,0,.6.35.91.39s.65-.12.95,0a7.49,7.49,0,0,1,.84.44,9.32,9.32,0,0,1,.9.27c.27.14.43.48.69.66s.46.38.71.58.49.36.71.58.59.29.81.52.4.47.6.72.22.61.4.86.54.38.71.65.37.51.52.78.09.65.23.94.39.5.52.78,0,.66.15,1,.39.51.49.8,0,.64.12.94.23.58.31.88.28.56.35.87,0,.63.1.93.2.59.26.9,0,.62.09.93,0,.62,0,.93.33.6.35.91-.09.63-.08.94.05.63.05.94,0,.43,0,.87,0,.44,0,.88.11.43.12.87c0-.32-.07-.62-.08-.93s.09-.63.08-.93-.29-.63-.29-.93.13-.63.13-.93-.1-.63-.09-.94.14-.62.16-.92,0-.62.05-.93.21-.61.24-.91-.07-.63,0-.94-.09-.64,0-.94.15-.61.21-.92.33-.57.4-.86,0-.64.08-.94.2-.59.29-.88,0-.67.08-1,.3-.55.41-.84.39-.51.51-.79.19-.6.34-.87.27-.57.43-.82.35-.53.54-.77.44-.45.64-.68.45-.43.67-.64.5-.36.74-.55.42-.48.68-.65.49-.41.76-.55.56-.28.85-.4.63-.08.93-.18.6-.12.9-.2.57-.27.88-.33.43,0,.85-.05.41-.07.83-.11c-.32,0-.61-.08-.92-.1s-.65.12-1,.09-.63-.07-.94-.12a8.63,8.63,0,0,1-.9-.3c-.32-.06-.69.12-1,0s-.51-.46-.8-.57-.71,0-1-.09-.42-.55-.69-.72a7.89,7.89,0,0,1-.77-.51c-.25-.19-.54-.31-.78-.53s-.39-.48-.6-.72-.43-.44-.62-.71-.39-.48-.55-.76-.29-.55-.43-.84-.36-.53-.48-.83-.14-.61-.24-.92-.33-.56-.41-.87,0-.64-.1-1-.24-.59-.31-.91.06-.64,0-1-.28-.59-.32-.91.13-.65.09-1,0-.62-.07-.94-.12-.62-.14-.94.08-.63.07-.95-.18-.62-.19-.94,0-.63,0-1,0-.63,0-.95,0-.45,0-.9-.09-.44-.09-.89-.18-.46-.17-.91S192.67,143.9,192.66,143.45Zm-29.13,38.63c0,.32-.11.64-.12.95s-.07.64-.08,1,.18.64.17.95-.17.64-.18.95,0,.64,0,1,.13.66.11,1-.3.61-.33.92,0,.64-.06,1,.1.66.05,1-.39.59-.44.9,0,.66,0,1,0,.65-.11,1-.3.59-.39.89-.07.65-.17.94-.39.54-.51.83-.3.56-.44.84-.18.62-.34.89a64.68,64.68,0,0,0-1.13,1.53,7.27,7.27,0,0,1-.65.7c-.25.2-.59.27-.85.45s-.51.38-.79.52a7.31,7.31,0,0,1-.9.3,9.36,9.36,0,0,1-.91.24c-.31.06-.61.11-.93.15s-.61.26-.93.27-.64,0-1,0c.51,0,.51-.27,1-.26s.51.1,1,.11a5.23,5.23,0,0,1,1,0,5.77,5.77,0,0,1,.87.42,7.23,7.23,0,0,1,.84.41,7.49,7.49,0,0,1,.84.44c.24.18.45.42.69.64s.43.45.64.68.41.47.6.72.49.42.67.68.33.54.5.81.24.58.39.87.36.52.49.81,0,.67.13,1,.26.56.36.86.24.58.33.89.19.59.27.9.18.6.24.91.17.61.22.93,0,.63.05.94.06.63.08.94,0,.63,0,.95.23.62.23.94-.16.46-.17.92.08.47.07.93.09.47.07.93c0-.32-.16-.64-.16-.95s0-.64,0-1-.08-.63-.07-.95,0-.63,0-.94,0-.64,0-1,.14-.63.17-.94,0-.64.07-.94,0-.65,0-.95.31-.6.35-.91-.11-.67-.06-1,.31-.59.38-.89,0-.65.1-.95.14-.63.23-.92.21-.61.33-.9.21-.61.35-.88.55-.43.71-.69.19-.64.37-.89.46-.44.67-.67a9.11,9.11,0,0,1,.56-.78,6.9,6.9,0,0,1,.85-.45,8.21,8.21,0,0,1,.81-.48,7.34,7.34,0,0,1,.85-.39,8.52,8.52,0,0,1,.83-.48,9.41,9.41,0,0,1,.95-.23c.57-.05.58,0,1.16-.06s.59.16,1.16.14c-.31,0-.63-.07-.94-.08s-.62,0-.93-.05-.62-.08-.92-.13-.65,0-.94-.1a6.76,6.76,0,0,1-.89-.33,7.23,7.23,0,0,1-.84-.41,6.65,6.65,0,0,1-.84-.43c-.25-.17-.47-.41-.71-.61s-.44-.43-.66-.66-.4-.47-.6-.72-.26-.55-.43-.82-.55-.4-.69-.69-.16-.61-.29-.9-.31-.54-.42-.85-.06-.63-.15-.93-.29-.57-.36-.88-.08-.61-.15-.93-.16-.6-.21-.91.06-.63,0-.95-.24-.59-.27-.91,0-.62,0-.94,0-.62,0-.94-.11-.61-.12-.93-.15-.62-.16-.94.27-.62.27-.94,0-.39,0-.78,0-.39,0-.79S163.5,182.47,163.53,182.08Z" style="fill: #fff381"/>
      <path d="M193.51,190.18a2,2,0,0,1-2-1.93v0a4.11,4.11,0,0,1-.12-.86,5.66,5.66,0,0,1,0-.66,1.16,1.16,0,0,0,0-.21.41.41,0,0,0,0-.12,2.94,2.94,0,0,1-.19-1,5.08,5.08,0,0,1,.1-.83,2.35,2.35,0,0,1,0-.26c0-.15-.05-.33-.06-.54a2.66,2.66,0,0,1-.21-.79c0-.22,0-.43,0-.65a1.62,1.62,0,0,0,0-.22c0-.17,0-.34,0-.51s0-.23,0-.35l0-.16a3.93,3.93,0,0,1-.19-.67,4.9,4.9,0,0,1-.08-.76.28.28,0,0,0,0-.09l0-.07a4.28,4.28,0,0,1-.3-.76,1.57,1.57,0,0,0-.1-.28c-.07-.18-.13-.35-.19-.52a3.46,3.46,0,0,1-.14-.86,3.47,3.47,0,0,1-.42-.74,2.83,2.83,0,0,1-.2-1,3.82,3.82,0,0,1-.39-.61,3,3,0,0,1-.3-1l-.08-.11-.15-.21a3.48,3.48,0,0,1-.79-.76,3.87,3.87,0,0,1-.44-.92l-.28-.33a3.46,3.46,0,0,1-.83-.56,3.07,3.07,0,0,0-.29-.24l-.31-.24-.31-.26a1.71,1.71,0,0,0-.25-.22,3.09,3.09,0,0,1-.61-.54,3.58,3.58,0,0,1-1.15-.46,3.3,3.3,0,0,1-.77,0,2.38,2.38,0,0,1-.57-.15l-.2,0h-.2a2.81,2.81,0,0,1-.71.08,2.91,2.91,0,0,1-1.36-.33,2,2,0,0,1,.26-4h.22a3.11,3.11,0,0,1,.86.17,3,3,0,0,1,1.36-.18l.11,0a3.92,3.92,0,0,1,.84,0,4.75,4.75,0,0,1,.61-.25c.24-.08.46-.14.68-.23a3.86,3.86,0,0,1,.82-.24h0l.24-.12.05,0a3.33,3.33,0,0,1,.61-.76c.13-.12.27-.22.41-.33l.16-.13.33-.32a1.84,1.84,0,0,0,.19-.2l.25-.31.13-.15a3.43,3.43,0,0,1,.32-.91,3.63,3.63,0,0,1,.51-.7l0-.05c.08-.16.16-.34.23-.51v0a3.38,3.38,0,0,1,.19-.93l.09-.35.14-.47a2.52,2.52,0,0,1,.48-.9,4.17,4.17,0,0,1,.09-.71,1.75,1.75,0,0,0,0-.24,6,6,0,0,1,.09-.61,4.56,4.56,0,0,1,.26-.81l0-.1c.05-.21.11-.41.17-.61l.06-.19s0,0,0-.08a4.15,4.15,0,0,1,0-.79c0-.15,0-.3,0-.45s0-.29,0-.44a4.53,4.53,0,0,1,.2-.84l0-.06a.22.22,0,0,0,0-.08,5.09,5.09,0,0,1,0-.8,1.11,1.11,0,0,0,0-.17,6,6,0,0,1,0-.73l0-.43c0-.16,0-.32,0-.48a4.28,4.28,0,0,1,.12-.79c0-.06,0-.11,0-.16a4.27,4.27,0,0,1,.05-.56c0-.07,0-.14,0-.28v-.12a3.12,3.12,0,0,1-.08-.67,3,3,0,0,1,.06-2.17,2,2,0,0,1,2-1.78h0a2,2,0,0,1,2,2h0v0h0a2.45,2.45,0,0,0,0,.27q0,.35,0,.66a6,6,0,0,1-.06.74l0,.22h0s0,0,0,.09a4.66,4.66,0,0,1,.07.85,5.09,5.09,0,0,1,0,.55,1,1,0,0,0,0,.19v.43c0,.17,0,.35,0,.52s0,.44,0,.66a1.23,1.23,0,0,0,0,.19l0,.07a3.58,3.58,0,0,1,.16.92,3.75,3.75,0,0,1-.05.81c0,.06,0,.11,0,.16a1.63,1.63,0,0,0,0,.18,5,5,0,0,1,.09.66l0,.39c0,.17,0,.34,0,.5a3,3,0,0,1-.05.94,2.9,2.9,0,0,1,.26.83,4,4,0,0,1,0,1l0,.06a4.56,4.56,0,0,1,.24.71,3.71,3.71,0,0,1,.09.85l0,0a4.29,4.29,0,0,1,.35.76c.06.2.11.41.16.63a1.17,1.17,0,0,0,0,.2s0,0,.05.06a5.06,5.06,0,0,1,.37.62c.11.24.23.48.35.7l.18.25.29.37a1.81,1.81,0,0,0,.18.21l.32.34.26.33a1.5,1.5,0,0,0,.2.24l.11.06a5.5,5.5,0,0,1,.5.34c.19.14.38.26.58.38a2.72,2.72,0,0,1,.59.48,3.11,3.11,0,0,1,.76.16,2.5,2.5,0,0,1,.71.41,2.57,2.57,0,0,1,.79,0,3.66,3.66,0,0,1,.77.25l.09,0,.67.08h0a4.57,4.57,0,0,1,.78-.08h.17a5.6,5.6,0,0,1,.59.07,2.3,2.3,0,0,0,.26,0,2,2,0,0,1,.18,4l-.23,0a3.75,3.75,0,0,1-.7.09l-.45,0h-.12l0,0a4.22,4.22,0,0,1-.72.27,5.78,5.78,0,0,1-.57.12l-.21,0a3.5,3.5,0,0,1-.85.17h0c-.2.09-.4.18-.58.28l-.12.1c-.13.1-.27.21-.41.3l-.06.07a4.73,4.73,0,0,1-.56.54c-.12.1-.26.19-.39.28l-.22.15-.17.17a4.12,4.12,0,0,0-.37.35c-.11.13-.24.25-.36.37l-.18.18c-.16.21-.31.43-.45.65a1.84,1.84,0,0,0-.15.28l-.21.42a.62.62,0,0,1,0,.11,5.12,5.12,0,0,1-.25.65,3.94,3.94,0,0,1-.46.72l-.05.07c-.07.16-.16.33-.25.49v0a3.58,3.58,0,0,1-.12,1c-.05.17-.1.32-.16.47l-.09.27v.11a3.92,3.92,0,0,1-.08.82,3.12,3.12,0,0,1-.43,1,2.37,2.37,0,0,1-.09.36c0,.05,0,.11,0,.17v0a3.89,3.89,0,0,1,0,.89v.11a4.52,4.52,0,0,1,0,.86,3.79,3.79,0,0,1-.22.9l0,.07c0,.15,0,.3,0,.45l0,.34a3.17,3.17,0,0,1-.07.5,2,2,0,0,1,.05.35,3.36,3.36,0,0,1-.05.82v.11a3,3,0,0,1,0,.31v.07c0,.2,0,.4,0,.61a2.44,2.44,0,0,1,.14.81,4.74,4.74,0,0,1-.06.75,1.1,1.1,0,0,1,0,.18c0,.08,0,.18,0,.28s0,.23,0,.35a2.13,2.13,0,0,1,0,.27,2,2,0,0,1-1.94,2.06Zm-1-17.13a4.4,4.4,0,0,1,.35.51,6.19,6.19,0,0,1,.32-.67c0-.06.07-.11.09-.16a3.38,3.38,0,0,1,.54-.89l0-.05a.49.49,0,0,0,0-.11,4.16,4.16,0,0,1,.34-.83l.12-.24a6,6,0,0,1,.39-.7c.2-.31.4-.61.62-.89a5,5,0,0,1,.58-.64l.17-.16a7.6,7.6,0,0,1,.64-.63l.15-.14a5,5,0,0,1,.68-.53l.19-.14,0-.06a2.28,2.28,0,0,1,.22-.23,3.2,3.2,0,0,1-.81-.79c-.25-.16-.49-.32-.73-.5l-.15-.1a4.3,4.3,0,0,1-.78-.57,7.68,7.68,0,0,1-.6-.68l-.15-.2-.16-.17a4.51,4.51,0,0,1-.58-.69l-.15-.19a6.53,6.53,0,0,1-.5-.72c-.17-.3-.33-.63-.5-1l-.07-.11a4.9,4.9,0,0,1-.4-.69,3.33,3.33,0,0,1-.15.53c-.14.34-.28.66-.43,1a3.2,3.2,0,0,1-.57.84,3.07,3.07,0,0,1-.41,1,5.63,5.63,0,0,1-.51.67l-.16.2a6,6,0,0,1-.59.64l-.17.16a4.3,4.3,0,0,1-.69.61l0,0a2.86,2.86,0,0,1-.86,1l-.28.19.14.12.39.32c.18.13.35.27.52.42a3.42,3.42,0,0,1,1,.73c.23.26.46.53.68.82a3.07,3.07,0,0,1,.49.88,3,3,0,0,1,.76.81l.16.23c.14.2.28.41.41.63A2.84,2.84,0,0,1,192.49,173.05ZM164,222.38h0a2,2,0,0,1-2-1.89l0-.11a3.53,3.53,0,0,1-.14-.94c0-.2,0-.41,0-.61v-.45s0-.09,0-.14a4.85,4.85,0,0,1-.05-.76v-.55a1.21,1.21,0,0,1,0-.19c0-.21,0-.42,0-.63s0-.16,0-.24v-.14c0-.24,0-.48-.07-.71a5.23,5.23,0,0,1,0-.68,1.27,1.27,0,0,0,0-.2c0-.1-.05-.21-.07-.32s-.09-.34-.13-.52-.07-.26-.1-.39a4.16,4.16,0,0,1-.12-.44c0-.16-.09-.31-.14-.47l-.11-.35a2.08,2.08,0,0,0-.12-.32c-.06-.16-.13-.32-.18-.49s-.09-.2-.13-.3l-.21-.47a3.24,3.24,0,0,1-.19-1,4.65,4.65,0,0,1-.34-.56q-.13-.27-.24-.54a1.6,1.6,0,0,0-.1-.23c-.13-.21-.25-.43-.38-.63l-.07-.06a5.27,5.27,0,0,1-.57-.58c-.16-.21-.33-.41-.5-.6l-.14-.16a4.59,4.59,0,0,0-.37-.39l-.32-.31a2,2,0,0,0-.21-.2l-.14-.06c-.17-.08-.33-.15-.49-.24a5.08,5.08,0,0,0-.56-.29,4.37,4.37,0,0,1-.65-.32h-.09c-.21,0-.43,0-.61,0a2.93,2.93,0,0,1-.77.14c-.28,0-.57,0-.86,0h-.24a2,2,0,0,1-.22-4,2.88,2.88,0,0,1,1.27-.28l.43,0,.21,0c.25,0,.5-.07.74-.12l.13,0c.2-.05.39-.09.57-.15l.39-.12a2.46,2.46,0,0,0,.29-.09l.19-.14.38-.27a4.67,4.67,0,0,1,.67-.34l0,0,.16-.18.25-.29a1.73,1.73,0,0,0,.15-.2c.09-.14.17-.27.27-.4s.15-.19.22-.28.14-.17.2-.26l0-.08a3.79,3.79,0,0,1,.28-.73,2.93,2.93,0,0,1,.21-.39,3.41,3.41,0,0,0,.17-.33,3.92,3.92,0,0,1,.45-.77,4.86,4.86,0,0,1,.16-.8,3.77,3.77,0,0,1,.32-.76l0-.06s0-.07,0-.1a4.64,4.64,0,0,1,.07-.64v-.08a3.9,3.9,0,0,1,0-.93,2.65,2.65,0,0,1,.38-1,2.92,2.92,0,0,1,0-.79,1.88,1.88,0,0,0,0-.34c0-.19,0-.38,0-.57a3.17,3.17,0,0,1,.27-1,3.61,3.61,0,0,1-.06-.86,2.8,2.8,0,0,0,0-.29c0-.16,0-.32,0-.48a3.12,3.12,0,0,1-.05-.55,2.84,2.84,0,0,1,.12-.82,3.93,3.93,0,0,1,0-.63c0-.22,0-.44.06-.65a2.83,2.83,0,0,0,0-.29,5.33,5.33,0,0,1,.09-.78l0-.13a1,1,0,0,1,0-.17,2,2,0,0,1,2.07-1.84,2,2,0,0,1,1.92,2,1.85,1.85,0,0,1,0,.23c0,.2,0,.36,0,.66a2,2,0,0,0,0,.21,4.89,4.89,0,0,1,0,.55v.16a5.15,5.15,0,0,1,0,.6,2.53,2.53,0,0,1,0,.38.66.66,0,0,1,0,.14,3.29,3.29,0,0,1-.12.79,2.82,2.82,0,0,1,0,.43,1.2,1.2,0,0,0,0,.2,5.43,5.43,0,0,1,.09.69c0,.21,0,.42,0,.62a2.61,2.61,0,0,0,0,.28,5.77,5.77,0,0,1,0,.72.28.28,0,0,0,0,.09v0a3.82,3.82,0,0,1,.25.91,4.06,4.06,0,0,1,0,.93v.05c0,.1.05.19.07.27s.08.32.11.48a5.58,5.58,0,0,1,.09.59,1.87,1.87,0,0,0,0,.25s0,0,0,.06a4.16,4.16,0,0,1,.3.73,3.75,3.75,0,0,1,.14.87v0l.06.1c.1.19.2.37.28.55a4,4,0,0,1,.2.62,3,3,0,0,1,.64.71c.11.19.21.39.31.6l.06.14c.11.13.26.32.43.5a5.9,5.9,0,0,0,.5.5l.31.28a2.09,2.09,0,0,0,.22.2c.08.05.16.08.24.12l.4.19.15.08c.16.08.32.17.49.24l.28.11a1.93,1.93,0,0,0,.4.15s0,0,.07,0a5.38,5.38,0,0,1,.69.07c.28,0,.52.09.76.11h0l.6,0a3.45,3.45,0,0,1,1,.13h.2a2,2,0,0,1,0,4h-.2a4,4,0,0,1-.55,0l-.13,0-.19,0c-.26,0-.51,0-.76,0l-.31,0a4.37,4.37,0,0,0-.52.12h0a3.66,3.66,0,0,1-.78.45,6.06,6.06,0,0,0-1.27.66,4,4,0,0,1-.63.34,4.06,4.06,0,0,1-.43.58c-.13.15-.27.27-.4.4l-.06.05a3.18,3.18,0,0,1-.35.8,2.77,2.77,0,0,1-.73.8.56.56,0,0,0,0,.12c-.05.13-.1.26-.16.39s-.13.36-.19.54l-.08.24a3.37,3.37,0,0,0-.09.34c0,.13-.06.26-.1.39v.08a3.86,3.86,0,0,1-.09.87,3.64,3.64,0,0,1-.3.77,3,3,0,0,1,0,.95,3.35,3.35,0,0,1-.35,1v.08q0,.33,0,.66c0,.17,0,.36,0,.54l0,.36a6.17,6.17,0,0,1-.12.73,1.06,1.06,0,0,0,0,.19c0,.23,0,.49,0,.75a3.39,3.39,0,0,1,.2,1.07,3.1,3.1,0,0,1-.17,1v0a4.54,4.54,0,0,1,.07.84,4.41,4.41,0,0,1,.07,1A2,2,0,0,1,164,222.38Zm-4.25-20.48.26.26.18.17c.22.2.43.43.65.67l.12.14c.24.26.47.54.7.84l0,0a3.56,3.56,0,0,1,.7.76c.2.29.38.6.56.92a4.46,4.46,0,0,1,.35.73c0,.07.06.15.1.23l.09.14a2.33,2.33,0,0,1,.11-.28l.1-.27c.1-.26.2-.51.32-.75a2.72,2.72,0,0,1,.8-1,3,3,0,0,1,.46-.92,4,4,0,0,1,.65-.69l.14-.14v0a3.54,3.54,0,0,1,.72-.9,2.54,2.54,0,0,1,.47-.33,6.51,6.51,0,0,1-.69-.58c-.06-.05-.11-.11-.18-.16a10.32,10.32,0,0,1-.81-.81,10.48,10.48,0,0,1-.73-.87,4.37,4.37,0,0,1-.47-.83,3,3,0,0,1-.84-1,3.17,3.17,0,0,1-.2-.49.47.47,0,0,0-.09.12l-.05.06c-.1.22-.21.43-.32.64a1.71,1.71,0,0,0-.13.23.43.43,0,0,1,0,.1,3.8,3.8,0,0,1-.39.93,8,8,0,0,1-.53.73l-.15.19-.14.21a6.32,6.32,0,0,1-.55.73l-.17.18a6,6,0,0,1-.67.68A3.35,3.35,0,0,1,159.77,201.9Z" style="fill: #1d1d1b"/>
    </g>
    <g>
      <path d="M318.35,292.1a4.62,4.62,0,0,0,.65-.05,3,3,0,0,0,1,.3l.45,0,.4,0a3.78,3.78,0,0,0,.95,0h0l.55.13.05,0a4.17,4.17,0,0,0,.77.39,3.9,3.9,0,0,0,1,.18l.16.1.34.2c.08.05.15.12.22.17a4.39,4.39,0,0,0,.36.28l.15.15c.12.13.25.26.38.38a3.08,3.08,0,0,0,.86.52l0,.05.18.27,0,0a3.6,3.6,0,0,0,.37.81c.11.19.21.38.31.57l.06.11a2.16,2.16,0,0,1,.59,1.52,3.73,3.73,0,0,0,.47.85l0,0,.18.69a4.84,4.84,0,0,0,.22.6,2.77,2.77,0,0,0-.05,1.14,2.65,2.65,0,0,0,.32.85,2.88,2.88,0,0,0-.05.9,3.08,3.08,0,0,0,.3,1,3.43,3.43,0,0,0,0,.82,3.17,3.17,0,0,0,.17.83,2.94,2.94,0,0,0-.13,1c0,.11,0,.22,0,.33s0,.39,0,.6,0,.37,0,.55,0,.25,0,.37a3.45,3.45,0,0,0,.23,1.11v.59a2.95,2.95,0,0,0-.14,1.59,2.72,2.72,0,0,0,0,.42,5.39,5.39,0,0,0,.07.79l0,.16v0a2,2,0,0,0,2,1.95,2,2,0,0,0,2-1.92,3.67,3.67,0,0,0,.16-1,3.18,3.18,0,0,0-.07-.66,2.45,2.45,0,0,0,0-.27c0-.15,0-.31,0-.46l.05-1.35a3.28,3.28,0,0,0-.17-1.11c0-.24,0-.47,0-.71s0-.48.05-.71a3.27,3.27,0,0,0,.31-1.08c0-.18,0-.36,0-.53s0-.24,0-.36l.09-.76,0-.13c0-.16,0-.32.07-.48l.06-.4a4.4,4.4,0,0,0,0-.87v-.09a2.44,2.44,0,0,1,.06-.26,4.54,4.54,0,0,0,.12-.53c0-.13.06-.27.1-.4s.07-.29.11-.45.07-.43.1-.65a1.49,1.49,0,0,1,0-.21,1.57,1.57,0,0,1,.09-.23,5.1,5.1,0,0,0,.2-.59l.18-.53.09-.27c.08-.26.18-.52.24-.71l.08-.11a4.79,4.79,0,0,0,.39-.68,2.69,2.69,0,0,0,.21-1,2.49,2.49,0,0,0,.36-.49,5.25,5.25,0,0,0,.31-.63h0a3.16,3.16,0,0,0,.63-.58,3.73,3.73,0,0,0,.45-.69h0l.1-.07c.14-.1.29-.2.42-.31l.29-.26.13-.11a3.77,3.77,0,0,0,.83-.29,3.4,3.4,0,0,0,.68-.49,5.49,5.49,0,0,0,.61-.12,1.52,1.52,0,0,1,.21,0,5,5,0,0,0,.54-.08,4.67,4.67,0,0,0,.64-.18c.05,0,.1,0,.09,0a2.92,2.92,0,0,0,.59-.12,2.83,2.83,0,0,0,1,.22,2.92,2.92,0,0,0,1.17-.27,2,2,0,0,0-.09-4c-.54-.05-.54,0-1.09-.05l-.68,0-.43,0a3.4,3.4,0,0,0-.71.05,3.22,3.22,0,0,0-.71-.3l-.45-.1-.22,0a5.92,5.92,0,0,1-.56-.27l-.11-.09a5.56,5.56,0,0,0-.54-.42,3.13,3.13,0,0,0-1-.4l-.31-.21h0a3.23,3.23,0,0,0-.53-.77l-.3-.3a3.45,3.45,0,0,1-.26-.28,2.48,2.48,0,0,1-.19-.26,3.32,3.32,0,0,0-.28-.41,2.73,2.73,0,0,0-.49-.52,2.9,2.9,0,0,0-.33-.91,3,3,0,0,0-.76-.84l-.16-.25a3,3,0,0,0-.21-1.14c-.11-.25-.2-.5-.31-.79a3.56,3.56,0,0,0-.46-.81v0a6.31,6.31,0,0,0-.15-.73c-.06-.19-.13-.37-.2-.55s-.07-.17-.1-.27-.07-.27-.11-.41a2.77,2.77,0,0,1-.12-.41c0-.17-.07-.35-.1-.52l-.06-.34a3.28,3.28,0,0,0-.25-.75,2.91,2.91,0,0,0,0-1,4.52,4.52,0,0,0-.12-.64,1.74,1.74,0,0,1-.05-.22,3.37,3.37,0,0,0-.18-.82l0-.11v-.72a.77.77,0,0,1,0-.15,3.94,3.94,0,0,0,.09-.8v-.1a3.82,3.82,0,0,0,.07-.87,5.57,5.57,0,0,0-.06-.66,1.29,1.29,0,0,1,0-.25,3.23,3.23,0,0,0-.12-.85.17.17,0,0,0,0-.07,2,2,0,0,0-2-1.92H331a2,2,0,0,0-1.93,2,3.3,3.3,0,0,0,.09.77c0,.06,0,.12,0,.16s0,.24,0,.36a5.09,5.09,0,0,0,0,.55c0,.08,0,.16,0,.24a5.16,5.16,0,0,0-.05.67c0,.13,0,.27,0,.41s0,.33,0,.49l0,.29q0,.3-.06.6a6.3,6.3,0,0,0,.05.75c0,.06,0,.12,0,.16s0,.37,0,.56v.19h0a3.38,3.38,0,0,0-.26,1c0,.17,0,.34,0,.51s0,.25,0,.37a3,3,0,0,0,.14,1.21l0,.16s0,.05,0,.08a2.63,2.63,0,0,0-.53,1.14,2.83,2.83,0,0,0,0,1,4.37,4.37,0,0,0-.27.68l0,.14-.2.68a5.77,5.77,0,0,0-.16.72c0,.05,0,.11,0,.11h0c-.1.26-.2.51-.28.7a.6.6,0,0,1-.09.13,5.83,5.83,0,0,0-.39.62,4,4,0,0,0-.29.88l-.07.08c-.13.16-.25.31-.35.46a5.32,5.32,0,0,0-.37.66l0,.09-.17.16a3.57,3.57,0,0,0-.28.28l-.13.09a4.83,4.83,0,0,0-.58.43c-.16.14-.34.27-.59.46a5.72,5.72,0,0,0-.46.4l-.11.1a5.34,5.34,0,0,0-.55.42l0,0h0a3.94,3.94,0,0,0-.78.23l-.13.06-.59.23a5.37,5.37,0,0,0-.65.29l-.1,0h-.14l-.36,0a3.09,3.09,0,0,0-.71-.08h-.22a3.9,3.9,0,0,0-.72.09l-.24,0a2,2,0,0,0-1.77,2.09A2,2,0,0,0,318.35,292.1Z" style="fill: #1d1d1b"/>
      <path d="M332.79,284.11a2.78,2.78,0,0,1-.57-.74l-.14-.22a7.08,7.08,0,0,1-.38-.66,2.86,2.86,0,0,1-.2-.66,4.58,4.58,0,0,1-.19.72q-.18.49-.39,1a4.24,4.24,0,0,1-.47.81l0,0v0a3.39,3.39,0,0,1-.38,1.05,5.16,5.16,0,0,1-.51.69l-.13.17-.05.11a4,4,0,0,1-.5.84c-.18.22-.39.42-.59.62a1.49,1.49,0,0,0-.18.17,4.23,4.23,0,0,1-.77.62l-.13.08c-.23.21-.5.42-.77.62-.11.08-.15.13-.2.17l-.11.1.36.22.22.13a7.16,7.16,0,0,1,.75.53,1.39,1.39,0,0,0,.19.15,5,5,0,0,1,.69.63l0,0a3,3,0,0,1,1.13.75,5.52,5.52,0,0,1,.54.71l.15.21a3.21,3.21,0,0,1,.5,1l0,.08c.15.25.29.51.43.77l.1.16a4.08,4.08,0,0,1,.56.88,3.18,3.18,0,0,1,.22.84l.15-.41a3.66,3.66,0,0,1,.39-.75,2.66,2.66,0,0,1,.27-1.24,3.42,3.42,0,0,1,.64-.87l0,0,0-.1a4.39,4.39,0,0,1,.43-.82,3.32,3.32,0,0,1,.82-.8h0a3.78,3.78,0,0,1,.61-.87,5.73,5.73,0,0,1,.72-.59l.17-.12.19-.16a6.36,6.36,0,0,1,.7-.56l.08-.05a2.27,2.27,0,0,1-.4-.26l-.15-.09a5.16,5.16,0,0,1-.75-.55,3.23,3.23,0,0,1-.7-1h0l-.1-.11c-.18-.18-.36-.36-.53-.56a7.17,7.17,0,0,1-.45-.63l-.05-.07a3,3,0,0,1-.9-.87A2.77,2.77,0,0,1,332.79,284.11Z" style="fill: #fff381"/>
    </g>
  </g>
</svg>
