<svg xmlns="http://www.w3.org/2000/svg" viewBox="0 0 500 500">
  <title>shrooms</title>
  <g>
    <path d="M250.49,283a6.87,6.87,0,0,0-.18-.75l0-.13a5.06,5.06,0,0,1-.18-.77c0-.17,0-.33-.07-.54v-.12a7.28,7.28,0,0,0-.23-1.29,8.33,8.33,0,0,1-.17-.84,4.43,4.43,0,0,0-.27-1.16l-.06-.12a4.1,4.1,0,0,0-.58-.79,5.67,5.67,0,0,1-.57-.75,4.9,4.9,0,0,1-.39-.88l-.05-.11a4.39,4.39,0,0,0-.38-.82l-.08-.1a8.72,8.72,0,0,0-.69-.82l-.24-.28c-.13-.14-.25-.29-.38-.45l-1.72-2.18c-.3-.35-.58-.72-.87-1.1l-.25-.34c-.33-.43-.66-.87-.94-1.32l-.17-.26a15.58,15.58,0,0,1-.92-1.54,8.42,8.42,0,0,1-.53-1.46l-.16-.52c-.08-.22-.16-.43-.25-.65l0-.07a1.63,1.63,0,0,0-.11-.23l-.5-1-1.12-.09-.76-.09a5.46,5.46,0,0,0-1.06-.13h-.18a8,8,0,0,0-.79.09,5.61,5.61,0,0,1-.91.09h-.89l-.47,0h-.76c-.37,0-.71-.07-1-.11a8.19,8.19,0,0,0-1.08-.11c-.29,0-.57,0-.9,0l-1.11,0a5.49,5.49,0,0,0-1,.13,11.36,11.36,0,0,1-1.85.16h-.39l-.84,0h-.22c-.59,0-1.18,0-1.79.05a7.32,7.32,0,0,1-1,0h-1a9.45,9.45,0,0,0-1.06.16c-.32.06-.63.12-1,.15l-.64.08c-.46,0-.92.1-1.37.18-.29,0-.59.07-.92.1s-.79.08-1.09.14l-.11,0a5.76,5.76,0,0,0-.94.38,4.41,4.41,0,0,1-.88.36,2.72,2.72,0,0,1-.81,0l-2.7-.25.55,2.65a5.36,5.36,0,0,1,.07,1.54l0,.45a5,5,0,0,0,0,.64,3.4,3.4,0,0,1-.07,1.28,9.06,9.06,0,0,1-.9,1.79,7.42,7.42,0,0,1-.8,1c-.16.18-.32.36-.44.52a9.25,9.25,0,0,1-.77.79c-.2.19-.4.38-.62.62a5.53,5.53,0,0,0-.53.7l-.08.11a5.11,5.11,0,0,1-.57.75,6,6,0,0,1-.65.58,4.1,4.1,0,0,0-.82.74,3.4,3.4,0,0,0-.5.8,4.82,4.82,0,0,1-.5.83,8.68,8.68,0,0,1-.65.7l-.08.07a4.29,4.29,0,0,0-.63.74,5,5,0,0,0-.45,1.22l-.07.27c0,.13-.07.26-.14.44s-.15.41-.23.61l-.07.17a5.63,5.63,0,0,0-.3.92l0,.24a6.66,6.66,0,0,0,.19,2.06,5.68,5.68,0,0,0,.75,1.47l.16.26a5.94,5.94,0,0,0,1,1.13l.4.37.27.27.13.13a5.2,5.2,0,0,0,1.08,1l.3.19a11.1,11.1,0,0,0,1.48.83,15.42,15.42,0,0,0,1.91.61,4.66,4.66,0,0,0,1,.11h.16c.28,0,.56,0,.88,0s.52.09.85.17a6.82,6.82,0,0,0,1.34.17h1.8a5.89,5.89,0,0,0,1.06-.09,8.65,8.65,0,0,1,1-.1,6.6,6.6,0,0,1,1,.13,4.37,4.37,0,0,0,1,.14c.36,0,.7,0,1,0,.7,0,1.44,0,2-.13l.16,0a5.38,5.38,0,0,1,.84-.07,9.13,9.13,0,0,1,1.05,0h1l1,0h.23c.27,0,.53,0,.79,0s.67,0,1,.06h.16a8.14,8.14,0,0,0,.85,0l1,0h.95a5.07,5.07,0,0,0,1.06-.15,3.75,3.75,0,0,1,1-.14h.12c.3,0,.59,0,1,.05l.93,0h2c.34,0,.66-.05,1-.09s.65-.06.93-.07a8.63,8.63,0,0,0,1.22-.11h.11l.67-.09a7.29,7.29,0,0,1,1,0h.12l.42,0h.34l.17,0a12.82,12.82,0,0,0,1.36-.36l.5-.15c.22-.07.46-.13.78-.2a6.33,6.33,0,0,0,1.14-.37,3.74,3.74,0,0,0,1-.75l.14-.12c.15-.13.3-.27.41-.35l.25-.18a7.88,7.88,0,0,0,1.31-1.14,8,8,0,0,0,.93-1.59l0-.07a7.6,7.6,0,0,0,.63-1.83c.06-.22.12-.44.19-.66l0-.06a4.12,4.12,0,0,0,.28-1.3Z" style="fill: #f4f5f8"/>
    <path d="M259.7,242.69a7.43,7.43,0,0,0-.33-1.19l-.12-.37c-.05-.13-.09-.26-.13-.38a4.49,4.49,0,0,0-.51-1.07,6.72,6.72,0,0,1-.4-.75,6.4,6.4,0,0,1-.27-.84,5.34,5.34,0,0,0-.32-.92l-.1-.18-.15-.26-.2-.37a9.85,9.85,0,0,0-.64-1,7.79,7.79,0,0,0-.71-.79l-.23-.23-.43-.45a16,16,0,0,0-1.19-1.1l-.47-.41a16.53,16.53,0,0,0-1.34-1.13l-.57-.45-.19-.14a10.41,10.41,0,0,0-.86-.62,3.79,3.79,0,0,0-.91-.4l-.1,0a6.56,6.56,0,0,1-.85-.35,8.77,8.77,0,0,1-.75-.54l-.15-.12c-.25-.2-.49-.39-.73-.55a4.94,4.94,0,0,1-.88-.8,3.49,3.49,0,0,0-.66-.61c-.35-.25-.69-.52-1-.77l-.57-.45a5.73,5.73,0,0,0-.87-.51,3.64,3.64,0,0,1-.87-.54,7.44,7.44,0,0,1-.82-.85l-.08-.09a5.1,5.1,0,0,0-.5-.53A8.27,8.27,0,0,1,240,222l-.09-.11a5.14,5.14,0,0,0-1.15-1.17,5.17,5.17,0,0,1-.85-.78c-.18-.21-.38-.42-.57-.61s-.52-.53-.77-.83a8.55,8.55,0,0,1-.52-.84l-.07-.14a4.38,4.38,0,0,0-1.14-1.45,6,6,0,0,1-.75-.82,5,5,0,0,1-.46-.85,7.26,7.26,0,0,0-.41-.75l-.09-.13c-.18-.23-.38-.44-.57-.65l-.15-.17c-.19-.2-.38-.4-.53-.59a9.74,9.74,0,0,0-.7-.74l-.15-.15-.51-.51a5.43,5.43,0,0,0-.88-.75c-.2-.15-.4-.31-.6-.49-.52-.46-1-.85-1.48-1.21-.2-.14-.38-.29-.56-.43l-.11-.1a6.29,6.29,0,0,0-.85-.61c-.19-.11-.38-.21-.55-.32a8.53,8.53,0,0,0-1.13-.62,11.2,11.2,0,0,0-1.56-.48l-.29-.07a6.39,6.39,0,0,0-1.22-.18l-.71-.08c-.56-.08-1.12-.11-1.9-.15h-.2a8.65,8.65,0,0,0-.88,0l-.3,0-.54,0h-.17c-.21,0-.41,0-.6,0a6,6,0,0,0-1.19,0l-.27,0-.58.08a4.58,4.58,0,0,0-1.05.15A17.93,17.93,0,0,0,211,206c-.74.26-1.32.49-1.86.74a14.76,14.76,0,0,0-1.76.95,15.18,15.18,0,0,0-1.62,1.16,12.21,12.21,0,0,0-1.18,1.2l-.25.29a3.24,3.24,0,0,0-.53.91,4.07,4.07,0,0,1-.4.71l-.06.09a6.75,6.75,0,0,0-.49,1c-.11.24-.22.48-.35.73a3.36,3.36,0,0,1-.64.74l-.07.07-.28.28-.2.24-.13.29c-.08.19-.17.37-.26.57l-.05.11a11.36,11.36,0,0,0-.47,1.1,5.45,5.45,0,0,0-.18,1,4.83,4.83,0,0,1-.15.9,4.33,4.33,0,0,0-.16.83l0,.24a5.88,5.88,0,0,1-.15.94,4.26,4.26,0,0,1-.48,1l-.06.11a4.9,4.9,0,0,0-.23.45l-.16.37v.9a3.52,3.52,0,0,1-.08,1.06l-.18.89c-.06.33-.12.67-.2,1a3.29,3.29,0,0,1-.42.9,5.3,5.3,0,0,0-.39.68l-.1.31c-.13.53-.29,1.09-.44,1.66l-.05.18a4.31,4.31,0,0,0-.13,1,4.46,4.46,0,0,1-.13,1,6.37,6.37,0,0,0-.21.78l-.09.34a8.61,8.61,0,0,1-.25.89,5.92,5.92,0,0,1-.44.87l0,.07a5.77,5.77,0,0,0-.42.8,8.22,8.22,0,0,1-.54,1l-.08.13a5.37,5.37,0,0,0-.34.63c-.15.33-.32.62-.47.88l-.07.13c-.13.24-.27.48-.4.73l-.13.33a3.27,3.27,0,0,0-.11.56,3.52,3.52,0,0,1-.34,1.07,3.68,3.68,0,0,1-.73.85l-.08.08a3.33,3.33,0,0,0-.49.56l-.12.21s-.1.24-.18.45l-.07.24a3.48,3.48,0,0,1-.43,1l-.13.19c-.35.48-.7,1-1,1.4-.2.25-.42.48-.58.67a5.46,5.46,0,0,0-.79.92,18.17,18.17,0,0,0-.94,1.75,4.5,4.5,0,0,0-.34,1.22,5.69,5.69,0,0,1-.18.77c-.07.24-.15.47-.24.71l0,.09a5.28,5.28,0,0,0-.33,1.12l0,.23a10.66,10.66,0,0,0-.2,1.78c0,.21,0,.43,0,.62a6.21,6.21,0,0,0,0,1.46,10.76,10.76,0,0,0,.59,1.93,9.39,9.39,0,0,0,1,1.79,8.4,8.4,0,0,0,1.37,1.5,12,12,0,0,0,1.6,1.27,10.74,10.74,0,0,0,1.79,1,5.19,5.19,0,0,0,1.38.29l.61.09.4.09a10.18,10.18,0,0,0,1.67.23h.25l.36-.07.51-.1a6.37,6.37,0,0,1,.87-.17c.33,0,.61,0,.91,0a4.13,4.13,0,0,0,1.18,0,3.87,3.87,0,0,0,1-.35,4.91,4.91,0,0,1,.95-.36,3.62,3.62,0,0,1,1,0,4.55,4.55,0,0,0,.9,0l1.72-.24v-.59a2.09,2.09,0,0,1,.35-.13l1-.32c.31-.11.63-.22,1-.31s.55-.18.83-.29l.11,0c.35-.13.7-.25,1-.34a3.13,3.13,0,0,1,1.14,0l.13,0,.26,0,.49,0,.46-.18.58-.27a4.33,4.33,0,0,1,1-.4,11.32,11.32,0,0,1,1.14-.15c.29,0,.59,0,.93-.1s1-.14,1.42-.19l.63-.07c.3,0,.6-.09.86-.14l.19,0c.28-.05.58-.1.94-.13a8,8,0,0,1,1,0h.06a7.75,7.75,0,0,0,1,0c.58,0,1.16,0,1.81-.05l1.06,0a14.27,14.27,0,0,0,2-.14l.4-.07a3.1,3.1,0,0,1,.7-.1h.12l1.09,0c.31,0,.62,0,1,.06a9.15,9.15,0,0,1,1,.1c.32.05.64.09,1,.11h.8l.45,0h.91a3.81,3.81,0,0,0,.74-.08l.19,0a5.13,5.13,0,0,1,.86-.09h.12a7,7,0,0,1,1,.11,5.56,5.56,0,0,0,1.05.13,8.42,8.42,0,0,1,1,.08c.37,0,.7,0,1,.06s.81,0,1.3-.09l.73-.06a4.78,4.78,0,0,0,1.08-.23,6.45,6.45,0,0,1,.9-.21c.27,0,.54,0,.89-.05h.16a5.89,5.89,0,0,0,.91-.1,5.58,5.58,0,0,1,1-.07h.27a4,4,0,0,0,.68-.07l.11,0a3.53,3.53,0,0,0,1-.52l.16-.09a4.58,4.58,0,0,1,.63-.34,14.34,14.34,0,0,0,1.79-.92,13.43,13.43,0,0,0,1.65-1.18l.21-.17.31-.25a7.42,7.42,0,0,0,1-.88,13.69,13.69,0,0,0,1-1.28l.27-.4a19.9,19.9,0,0,0,1.09-1.76l.06-.13a4.91,4.91,0,0,0,.28-1,5.79,5.79,0,0,1,.23-.85,4.46,4.46,0,0,1,.58-.93,3.46,3.46,0,0,0,.41-.62l.15-.3,0-.34c0-.09,0-.42,0-.87a7.39,7.39,0,0,1,.06-.85,13.71,13.71,0,0,0,.15-2.07c0-.2,0-.4,0-.64v-.16A4.87,4.87,0,0,0,259.7,242.69Z" style="fill: #e20613"/>
    <path d="M314.39,262l0-.21c0-.28-.06-.56-.07-.86s0-.32,0-.47v-.29a9.74,9.74,0,0,0,0-1.21c0-.29,0-.57,0-.88a8.21,8.21,0,0,0-.08-1.07l-.1-.73c-.06-.44-.13-.89-.21-1.3a4.4,4.4,0,0,0-.35-.93l-.08-.17a5.43,5.43,0,0,1-.35-.87,9.64,9.64,0,0,0-.36-1l-.12-.33c-.06-.16-.13-.32-.19-.5s-.16-.58-.21-.8a4.91,4.91,0,0,0-.29-1.12c-.16-.43-.35-.84-.54-1.24-.09-.18-.17-.36-.28-.6a4.6,4.6,0,0,1-.27-1c-.07-.29-.16-.63-.21-.76a.72.72,0,0,0-.09-.2,6.24,6.24,0,0,0-.63-1c-.16-.24-.33-.48-.45-.69a8,8,0,0,0-.56-.81l-.17-.24c-.17-.21-.33-.42-.44-.57a6,6,0,0,0-.78-.92,8.31,8.31,0,0,1-.57-.63,3.36,3.36,0,0,1-.43-.79,5.54,5.54,0,0,0-.39-.75,2.13,2.13,0,0,0-.28-.33,7.1,7.1,0,0,0-.8-.67,7.21,7.21,0,0,1-.63-.52c-.45-.42-.95-.84-1.42-1.22l-.12-.1a8.65,8.65,0,0,0-.94-.6,7.48,7.48,0,0,1-.67-.41,4.88,4.88,0,0,1-.67-.63l-.08-.09-.07-.08a3.08,3.08,0,0,0-.59-.52l-.12-.08c-.29-.17-.69-.36-1.11-.55-.21-.09-.42-.2-.64-.31a4.11,4.11,0,0,0-.81-.28l-.24-.07a6.37,6.37,0,0,1-.84-.26,5.39,5.39,0,0,1-.78-.41,5.29,5.29,0,0,0-.89-.45,4.51,4.51,0,0,0-1.06-.23l-.13,0c-.3,0-.59-.08-.86-.14a6.17,6.17,0,0,1-.61-.19l-.16,0a6.66,6.66,0,0,0-1.1-.32,5.18,5.18,0,0,0-1.2,0,4.66,4.66,0,0,1-.85,0,7.2,7.2,0,0,1-.78-.09l-.21,0a10.12,10.12,0,0,0-2.42,0l-.49,0a4.31,4.31,0,0,1-.85,0c-.23,0-.58-.05-.75-.05l-.31,0h-.12a4.7,4.7,0,0,0-1,.35,6,6,0,0,1-.8.29,11.31,11.31,0,0,0-1.31.41l-.48.18-.1,0a4.53,4.53,0,0,1-.9.16,4.15,4.15,0,0,0-1,.21,6.42,6.42,0,0,0-1,.52l-.08.06c-.25.15-.5.3-.71.41-.63.32-1.24.65-1.76,1a8.32,8.32,0,0,0-1,.76l-.21.17-.39.3-.59.43a12,12,0,0,0-1,.78c-.22.2-.46.37-.73.57a6.55,6.55,0,0,0-.9.73,12.73,12.73,0,0,0-.87,1l-.44.53c-.17.2-.36.39-.58.62a9,9,0,0,0-.77.87,1.85,1.85,0,0,0-.21.33c0,.08-.15.35-.24.6,0,0,0,.11-.05.13a3.6,3.6,0,0,1-.36.83l-.4.61-.09.13a11,11,0,0,0-.6,1,6.19,6.19,0,0,1-.62.9,7.51,7.51,0,0,0-.58.8c-.19.31-.41.61-.74,1l-.14.19c-.1.14-.21.28-.3.43a4.19,4.19,0,0,0-.4.79l0,.12a4.85,4.85,0,0,1-.47.94,5.09,5.09,0,0,1-.7.69l-.11.1-.13.12a5.2,5.2,0,0,0-.53.54c-.17.21-.32.44-.48.66l-.23.32c-.16.23-.32.46-.5.68l-.09.11a5.43,5.43,0,0,0-.47.85l0,.08a5.26,5.26,0,0,1-.47.77c-.42.55-.84,1.09-1.24,1.63l-.26.35a9.67,9.67,0,0,0-.88,1.31.36.36,0,0,0,0,.09l-.05.09a9.26,9.26,0,0,0-.74,1.69,7.25,7.25,0,0,0-.28,1.6l0,.42c0,.22-.06.43-.11.73a5.15,5.15,0,0,0-.09,1.35,3.66,3.66,0,0,0,.41,1.29l.07.18c.05.14.11.28.16.43s0,.07,0,.11a5.47,5.47,0,0,1,.17.65A2.27,2.27,0,0,0,256,268.3a2.22,2.22,0,0,0,1.86-.83,4.36,4.36,0,0,0,0,1.69,1.46,1.46,0,0,0,.1.34,4.87,4.87,0,0,0,.73,1.18l.22.29.05.09a2.24,2.24,0,0,0,1.48,1.19l.12,0a4,4,0,0,1,.39.11,18.38,18.38,0,0,0,2,.5l.69.18a10.39,10.39,0,0,0,1.33.29c.67.09,1.36.15,2.09.2.2,0,.41,0,.61,0a2.32,2.32,0,0,0,1.45-.31,1.48,1.48,0,0,0-.13.21,4.11,4.11,0,0,0-.29.3c-.13.17-.28.34-.46.54l-.15.18-.36.44c-.2.23-.41.45-.66.71l-.09.09c-.21.23-.43.46-.57.64a8.44,8.44,0,0,0-.61.83l-.2.29c-.11.15-.21.31-.35.49-.34.44-.64.91-1,1.44l-.65,1a6.82,6.82,0,0,0-.61,1,7.41,7.41,0,0,0-.49,1.62c0,.17-.07.33-.1.45a8.25,8.25,0,0,0-.31,2.1,7.27,7.27,0,0,0,.31,2.11,6.7,6.7,0,0,0,1,1.93,7,7,0,0,0,1.57,1.38,8.12,8.12,0,0,0,1.89,1,10.67,10.67,0,0,0,2,.54c.62.1,1.28.18,2,.26l.75.08c.41,0,.83.09,1.25.11l.86.08c.36,0,.73.07,1.14.09l.68,0c.46,0,.9,0,1.29,0h.17c.25,0,.52,0,.78,0l.35,0,.8,0h.66c.44,0,.89,0,1.38,0s.82-.09,1.14-.13l1.41-.16c.5-.06,1-.11,1.39-.18a10.12,10.12,0,0,0,1.93-.51,7.12,7.12,0,0,0,1.69-.95,6.9,6.9,0,0,0,1.37-1.49,7.55,7.55,0,0,0,1-1.68,5.29,5.29,0,0,0,.24-1.29l.08-.68c0-.19.06-.37.11-.63a5.6,5.6,0,0,0,.14-1.29,15.35,15.35,0,0,0-.2-2l-.05-.25c-.1-.62-.21-1.2-.31-1.75-.07-.37-.16-.73-.25-1.08s-.17-.66-.23-.95a8.61,8.61,0,0,0-.23-.94c0-.13-.07-.26-.1-.38a2.28,2.28,0,0,0,1.48.95l.62.11c.25,0,.48.06.82.13a10.5,10.5,0,0,0,1.15.1l.77,0a6.12,6.12,0,0,0,1.23,0,5.85,5.85,0,0,1,.85,0,5,5,0,0,1,.9.19,6.88,6.88,0,0,0,.89.2,3.45,3.45,0,0,0,1.42-.2,7.08,7.08,0,0,1,.77-.17h.49a2.78,2.78,0,0,0,.76-.1l.09,0a7.24,7.24,0,0,0,1.88-.91,6.33,6.33,0,0,0,1.34-1.46l.16-.22a5.53,5.53,0,0,0,.88-1.52,1.86,1.86,0,0,0,.1-.39h0a2.25,2.25,0,0,0,3.77.5c.32-.38.66-.84,1-1.31l.28-.39.08-.11a11.33,11.33,0,0,0,.79-1.29,3.23,3.23,0,0,0,.32-1.13,4.91,4.91,0,0,1,.21-.82,12.3,12.3,0,0,0,.37-1.22l.09-.36c0-.11.06-.22.11-.38a7,7,0,0,1,.28-.79l.05-.13a5.11,5.11,0,0,0,.29-1c.1-.62.16-1.27.21-2A7.12,7.12,0,0,0,314.39,262Z" style="fill: #a7723c"/>
    <path d="M206.49,225.14a9.53,9.53,0,0,1-.91,4.46,5.57,5.57,0,0,1-2.64,2.61,3.46,3.46,0,0,1-4.48-4.86c.14-.38.3-.75.45-1.13,0-.06.06-.15.09-.25s.07-.34,0-.09c.1-.3.19-.57,0,.17a3.44,3.44,0,0,1,.3-.71,2.81,2.81,0,0,1,1.79-3.19C203.39,221.18,206.46,222.37,206.49,225.14ZM212,214.91a3.22,3.22,0,0,0-2.24,3,3.32,3.32,0,0,0-.38,2,2,2,0,0,0,1.27,1.64,3.43,3.43,0,0,0,3.65.84,3.67,3.67,0,0,0,2.2-2.88C217,216.83,214.89,214,212,214.91Zm20.19,19.86a4.22,4.22,0,0,0-.12-1.2,6.27,6.27,0,0,0-1.37-2.78,4,4,0,0,0-3.86-1.22l0,0a3.74,3.74,0,0,0-4.78,1.22,4.86,4.86,0,0,0-1.7,2.81,3.63,3.63,0,0,0,1.57,3.61,4.35,4.35,0,0,0,.24,1,5.08,5.08,0,0,0,4,3,4.86,4.86,0,0,0,4.34-1.33,3.7,3.7,0,0,0,2.1-4A5,5,0,0,0,232.17,234.77Zm4.78-14a3,3,0,0,0-1.28-1.34c-.06-.2-.12-.41-.2-.62a2.61,2.61,0,0,0-1.89-1.52,3.66,3.66,0,0,0-3.8.07,2.71,2.71,0,0,0-1.27,2.34,2.17,2.17,0,0,0,.21,1.26,6,6,0,0,0,.69,1,4.25,4.25,0,0,0,.49.79,1.59,1.59,0,0,0,.13.13,3.75,3.75,0,0,0,1.67,2.67,3.26,3.26,0,0,0,1.76.54c2,.72,4.65-.43,4.49-2.83A4.78,4.78,0,0,0,237,220.8Z" style="fill: #fff"/>
    <path d="M213.81,278c2.38,0,2,3,2,3l.05-.06-.06.1a4.31,4.31,0,0,1-2,3.06,2,2,0,1,1-2.27-3.29c.27-.18.27-.25.28-.31C212,279.19,212.31,278,213.81,278Zm-.91-37.71-.22.07a9.59,9.59,0,0,0-4.34,2.4,2,2,0,0,0,1.46,3.37,2,2,0,0,0,1.46-.63,6.19,6.19,0,0,1,2.68-1.34l.22-.08a2,2,0,0,0-1.26-3.79Zm-8.39-1.74a5.56,5.56,0,0,0-3.49,3.52,1.44,1.44,0,0,1-.48.6,2,2,0,0,0-.63,2.73,2,2,0,0,0,2.76.65,5.32,5.32,0,0,0,2.16-2.78c.1-.31.27-.64,1.21-1a2,2,0,0,0-1.53-3.69Zm55,50.42c-.36,0-.73,0-1.11,0a7.78,7.78,0,0,1-.9-.13,11.56,11.56,0,0,0-1.59-.19h-.22a11,11,0,0,0-1.37.11c-.32,0-.61.06-.93.07s-.68-.05-1-.09-.75-.09-1.16-.11l.2-.39.05-.12a10.32,10.32,0,0,0,.81-2.35c0-.17.1-.34.15-.5a6.35,6.35,0,0,0,.39-1.89,5.51,5.51,0,0,0-.31-1.82,3.3,3.3,0,0,1-.13-.52l-.06-.5a10.73,10.73,0,0,0-.31-1.76,5.22,5.22,0,0,1-.11-.57,6.89,6.89,0,0,0-.41-1.66,5.85,5.85,0,0,0-1-1.56,3.52,3.52,0,0,1-.36-.44c0-.09-.13-.31-.21-.5a6,6,0,0,0-.79-1.56c-.26-.36-.56-.7-.86-1s-.35-.4-.52-.61L246,268.72c-.28-.35-.56-.69-.82-1l-.26-.35c-.3-.4-.6-.8-.87-1.21l-.16-.26a13.91,13.91,0,0,1-.79-1.32,5.45,5.45,0,0,1-.36-1h0a7.17,7.17,0,0,0,1.55-.31,5.14,5.14,0,0,1,.57-.14c.23,0,.47,0,.7,0a9,9,0,0,0,1.47-.15,4.2,4.2,0,0,1,.55,0,6.18,6.18,0,0,0,1.7-.21,6.29,6.29,0,0,0,1.58-.76l.24-.14c0,.1,0,.2,0,.3A7,7,0,0,0,251,264a5.94,5.94,0,0,0,.56,1.9c.07.17.14.33.2.5s.08.32.12.48a6.17,6.17,0,0,0,.71,1.9,11.83,11.83,0,0,0,1.52,2,6.7,6.7,0,0,0,1.52,1.09,5.24,5.24,0,0,1,.51.3l.32.31a5.54,5.54,0,0,0,1.57,1.2,6.49,6.49,0,0,0,1.65.48,4.61,4.61,0,0,1,.62.14,20.8,20.8,0,0,0,2.19.56l.6.16a14.51,14.51,0,0,0,1.48.32c-.2.26-.4.53-.58.8s-.28.41-.43.6c-.37.49-.71,1-1,1.52l-.15.23L262,279a7.82,7.82,0,0,0-1.55,3.51c0,.15-.06.29-.1.44a10.66,10.66,0,0,0-.36,2.59,9.09,9.09,0,0,0,.41,2.72c.08.25.16.48.25.71C260.28,289,259.9,289,259.51,289Zm18.28-33.42h-.31c-.54,0-1.08.06-1.62.11l-.49,0c-.49,0-1,.12-1.45.19l-.64.1-.62.08c-.49.06-1,.12-1.47.21l-.72.12a11.19,11.19,0,0,0-1.36.24l-.65.13a11,11,0,0,0-1.6.4,6.31,6.31,0,0,0-1.5.82,1.77,1.77,0,0,1-1,.44,5.66,5.66,0,0,0-1.71.58,8.45,8.45,0,0,0-1.35,1c-.17.14-.33.29-.5.41A18.16,18.16,0,0,0,259,262a5.6,5.6,0,0,1-.45.4,7.35,7.35,0,0,0-1.36,1.41,8.53,8.53,0,0,0-1.06,2.23l0-.14a7.19,7.19,0,0,0-.24-.86c-.09-.29-.21-.56-.32-.84a3.05,3.05,0,0,1-.23-.61,4.3,4.3,0,0,1,.08-.85c0-.24.08-.49.11-.74l0-.44a5.66,5.66,0,0,1,.18-1.16,8,8,0,0,1,.6-1.34l.08-.17a8.75,8.75,0,0,1,.74-1.08l.21-.28c.4-.54.81-1.07,1.22-1.6a7.58,7.58,0,0,0,.75-1.24,4,4,0,0,1,.29-.54c.25-.31.48-.64.71-1s.34-.49.52-.72.26-.25.43-.41a6.94,6.94,0,0,0,1.07-1.09,6.63,6.63,0,0,0,.75-1.43,3.56,3.56,0,0,1,.23-.5c.13-.2.28-.39.42-.59a13.63,13.63,0,0,0,.82-1.17,5.39,5.39,0,0,1,.4-.54,8.89,8.89,0,0,0,.86-1.26c.17-.32.38-.62.58-.92l.43-.65a6.3,6.3,0,0,0,.59-1.31c.06-.16.14-.38.17-.44a8.16,8.16,0,0,1,.6-.67c.23-.23.46-.47.67-.72l.45-.54c.24-.3.49-.61.76-.89a5.85,5.85,0,0,1,.63-.49c.29-.21.57-.42.84-.65a11.67,11.67,0,0,1,1-.79l.45-.33.65-.5a7.15,7.15,0,0,1,.81-.61c.51-.32,1.05-.62,1.61-.9.3-.16.59-.33.88-.51a5.32,5.32,0,0,1,.69-.39,3.32,3.32,0,0,1,.49-.08,6.35,6.35,0,0,0,1.33-.25l.7-.25a9.44,9.44,0,0,1,1-.32,8.16,8.16,0,0,0,1.16-.4,3.45,3.45,0,0,1,.56-.21,3.88,3.88,0,0,1,.52,0,6.7,6.7,0,0,0,1.3,0l.49,0c.43,0,.86-.08,1.29-.08a8.12,8.12,0,0,1,.89.09c.3.05.6.09.9.11a8,8,0,0,0,1.21,0,3.27,3.27,0,0,1,.6,0,4.75,4.75,0,0,1,.74.22c.33.11.66.23,1,.31s.71.13,1.07.18a4.15,4.15,0,0,1,.71.13,4.39,4.39,0,0,1,.56.29,7.39,7.39,0,0,0,1.06.55,9.25,9.25,0,0,0,1.11.35,5.38,5.38,0,0,1,.62.19l.73.35c.33.15.65.3.89.44.06,0,.21.21.32.32a6.24,6.24,0,0,0,1,1c.27.19.56.36.86.53a6.88,6.88,0,0,1,.68.43c.45.37.94.77,1.38,1.18a8.73,8.73,0,0,0,.81.67,6.3,6.3,0,0,1,.56.46,3.3,3.3,0,0,1,.19.38,5.62,5.62,0,0,0,.73,1.29c.22.28.47.54.72.8a4.06,4.06,0,0,1,.51.58c.18.26.37.51.57.76a8.23,8.23,0,0,1,.53.75c.17.29.37.58.57.87a5.5,5.5,0,0,1,.46.7c0,.08.08.31.12.49a6.38,6.38,0,0,0,.41,1.37l.3.65c.17.35.33.7.47,1.07a3.82,3.82,0,0,1,.18.71,10.21,10.21,0,0,0,.29,1.12c.1.31.22.6.33.9a9.25,9.25,0,0,1,.32.88,7.12,7.12,0,0,0,.49,1.24,3.83,3.83,0,0,1,.23.52c.08.38.14.77.19,1.15s.07.48.1.72a7.13,7.13,0,0,1,.06.87c0,.34,0,.67,0,1a7.85,7.85,0,0,1,0,1c0,.29,0,.58,0,.87s0,.7.09,1a6.28,6.28,0,0,1,.06.77c0,.68-.1,1.26-.18,1.79a5.44,5.44,0,0,1-.23.68,9.18,9.18,0,0,0-.34,1c-.07.23-.12.45-.18.67a10.56,10.56,0,0,1-.32,1.09,7.26,7.26,0,0,0-.33,1.27,3.11,3.11,0,0,1-.11.49,10.75,10.75,0,0,1-.69,1.09l-.28.39c-.28.41-.58.82-.88,1.18,0-.14,0-.27,0-.39s0-.31,0-.46,0-.31,0-.47a5,5,0,0,0-.25-2.31,7.47,7.47,0,0,0-1.6-2.45,6,6,0,0,0-1.51-1.06c-.16-.09-.32-.17-.47-.27l-.45-.34a9.06,9.06,0,0,0-1.39-1c-.41-.23-.86-.44-1.32-.64l-.6-.28c-.22-.1-.44-.22-.66-.34-.38-.21-.76-.42-1.17-.6l-1.83-.81a9.38,9.38,0,0,0-.9-.35,7,7,0,0,1-.86-.34l-.59-.3-1.17-.59a5.12,5.12,0,0,1-.51-.36,6.63,6.63,0,0,0-1.19-.77,7.39,7.39,0,0,0-1.5-.51,3.86,3.86,0,0,1-.52-.15l-.32-.14a14.54,14.54,0,0,0-1.79-.68c-.51-.14-1-.25-1.55-.35l-.52-.11-.69-.17c-.42-.11-.89-.23-1.39-.31-.23,0-.47-.09-.7-.14a11.46,11.46,0,0,0-1.4-.25,10.13,10.13,0,0,0-1.46,0c-.22,0-.45,0-.67,0C279,255.56,278.39,255.58,277.79,255.59Zm3.55,4.25a7.6,7.6,0,0,1,.86.17c.33.07.66.14,1,.19s.64.14,1,.22l.86.21.58.12c.41.09.83.17,1.26.29a9.66,9.66,0,0,1,1.21.47l.34.15a7.12,7.12,0,0,0,1.18.37,4.1,4.1,0,0,1,.63.19,3.86,3.86,0,0,1,.51.36,9.25,9.25,0,0,0,1.13.74l1.2.61.58.3a9.45,9.45,0,0,0,1.4.56c.19.07.38.13.55.21l1.84.82c.29.13.57.28.84.43s.6.33.9.47l.69.32c.35.15.69.3,1,.47a8,8,0,0,1,.82.58c.19.16.39.31.59.45a6.88,6.88,0,0,0,.92.56,3.51,3.51,0,0,1,.49.29,3.12,3.12,0,0,1,.65,1,4.19,4.19,0,0,1,0,.48c0,.3,0,.61,0,.9s0,.52.06.78a3.72,3.72,0,0,1,.05.57,4.71,4.71,0,0,1-.57.91l-.16.22a4.32,4.32,0,0,1-.86,1,4.76,4.76,0,0,1-1.22.58l-.07,0c-.23,0-.48,0-.75,0a7.68,7.68,0,0,0-1.2.24,3.62,3.62,0,0,1-.59.13,4.21,4.21,0,0,1-.49-.12,7.05,7.05,0,0,0-1.37-.27,8.68,8.68,0,0,0-1.15,0,3.72,3.72,0,0,1-.75,0c-.34,0-.69-.06-1-.08a6.81,6.81,0,0,1-.87-.07c-.29-.06-.58-.1-.88-.14l-.53-.09c-.06-.5-.08-1-.11-1.59a7.82,7.82,0,0,1,.09-.95c0-.29.07-.57.1-.87s0-.57,0-.86a5,5,0,0,1,.07-1,8.17,8.17,0,0,1,.25-.92c.1-.3.2-.61.28-.94a2.15,2.15,0,1,0-4.15-1.1c-.07.26-.15.5-.23.74a13.3,13.3,0,0,0-.38,1.42,10,10,0,0,0-.14,1.7c0,.2,0,.4,0,.59s0,.44-.07.66a9.68,9.68,0,0,0-.12,1.71,22.45,22.45,0,0,0,.16,2.25,11.23,11.23,0,0,0,.3,1.37c.07.25.14.5.19.77s.16.73.26,1.11.16.61.22.93c.1.53.2,1.1.3,1.7l.06.31a11.69,11.69,0,0,1,.16,1.66,4.3,4.3,0,0,1-.11.84c0,.25-.09.49-.12.73s0,.43-.08.65a4.13,4.13,0,0,1-.12.81,5.55,5.55,0,0,1-.7,1.17,4.67,4.67,0,0,1-.87,1,5.21,5.21,0,0,1-1.21.68,7.68,7.68,0,0,1-1.45.37c-.46.08-1,.13-1.5.19l-.34,0-.82.1c-.35.05-.71.1-1.08.13s-.75,0-1.13,0h-.81l-1,.05c-.32,0-.67.06-1,.05s-.83,0-1.25,0l-.7,0-1.05-.08-.89-.08c-.49,0-1-.09-1.44-.14l-.48-.05c-.66-.07-1.29-.15-1.87-.24a8.7,8.7,0,0,1-1.62-.43,6.29,6.29,0,0,1-1.37-.7,5.09,5.09,0,0,1-1.08-.92,4.27,4.27,0,0,1-.59-1.23,4.71,4.71,0,0,1-.21-1.43,6.44,6.44,0,0,1,.24-1.55q.06-.25.12-.54a5.36,5.36,0,0,1,.32-1.1,6.32,6.32,0,0,1,.54-.85l.45-.65.15-.24c.28-.43.56-.86.87-1.27.19-.24.36-.5.54-.76s.36-.53.56-.77a8.24,8.24,0,0,1,.56-.62c.26-.27.52-.54.76-.83s.33-.39.5-.59.34-.39.5-.59a2.12,2.12,0,0,0,.51-.64c.22-.3.43-.61.6-.89l.37-.56.25-.34c.32-.46.65-.92,1-1.46a14.8,14.8,0,0,0,.76-1.66l.28-.69a11.68,11.68,0,0,0,.65-1.85,9.87,9.87,0,0,0,.24-1.92l0-.38a2.15,2.15,0,1,0-4.28-.3l0,.42a7.18,7.18,0,0,1-.13,1.18,10.35,10.35,0,0,1-.43,1.19l-.32.76a8.65,8.65,0,0,1-.5,1.13c-.2.34-.45.7-.72,1.08l-.27.38c-.16.23-.31.46-.46.7h0c-.26,0-.53-.05-.78-.06-.63,0-1.27-.1-1.89-.18a7.54,7.54,0,0,1-1-.23l-.81-.2c-.55-.12-1.18-.26-1.76-.45-.24-.08-.47-.13-.68-.18a3.72,3.72,0,0,0-.19-.34l-.28-.38a7,7,0,0,1-.44-.64,2.65,2.65,0,0,1,.09-1.15,4.73,4.73,0,0,1,.58-1.3,4.28,4.28,0,0,1,.6-.56c.22-.19.43-.37.64-.57a11.63,11.63,0,0,1,1.38-1.14c.27-.2.54-.43.8-.66a5.76,5.76,0,0,1,.65-.51,4.13,4.13,0,0,1,.49-.13,6.35,6.35,0,0,0,1.39-.41,8.17,8.17,0,0,0,1.14-.68,4.36,4.36,0,0,1,.51-.32,7.7,7.7,0,0,1,1-.22c.3-.06.6-.11.89-.19a9.28,9.28,0,0,1,.92-.15c.31,0,.63-.09.94-.15s.77-.12,1.16-.17l.7-.09.74-.11c.36-.06.73-.12,1.11-.15l.52-.05c.44,0,.89-.08,1.35-.09h.31c.52,0,1,0,1.56,0,.35,0,.71,0,1.06,0A5.9,5.9,0,0,1,281.34,259.84Zm-66-56.91a1.91,1.91,0,0,0-.86,0c-.23.05-.47.06-.7.09a9.15,9.15,0,0,0-1.43.21c-.8.21-1.49.42-2.09.63a21.31,21.31,0,0,0-2.07.84,17.77,17.77,0,0,0-3.86,2.41,13.23,13.23,0,0,0-1.4,1.41l-.21.24a5.76,5.76,0,0,0-.95,1.5,3.62,3.62,0,0,1-.23.45,7.77,7.77,0,0,0-.75,1.4c-.09.19-.17.38-.23.5a3.19,3.19,0,0,1-.26.26,4.74,4.74,0,0,0-1.15,1.54l-.27.58c-.19.41-.41.87-.6,1.38a7,7,0,0,0-.3,1.51,2.83,2.83,0,0,1-.09.56,7.94,7.94,0,0,0-.24,1.42,4.16,4.16,0,0,1-.09.59,2.39,2.39,0,0,1-.2.37,5.3,5.3,0,0,0-.67,1.52,5.67,5.67,0,0,0-.13,1.57,3.29,3.29,0,0,1,0,.45q-.12.51-.21,1c-.06.29-.11.59-.17.84a3.12,3.12,0,0,1-.2.35,5.32,5.32,0,0,0-.7,1.49c-.16.62-.33,1.24-.5,1.87a6.88,6.88,0,0,0-.21,1.41,3,3,0,0,1-.05.52c-.1.33-.18.66-.26,1a8.6,8.6,0,0,1-.24.87,3.28,3.28,0,0,1-.29.53,7.57,7.57,0,0,0-.6,1.18c-.07.15-.2.37-.34.6a9.24,9.24,0,0,0-.57,1.06,8.67,8.67,0,0,1-.43.79c-.16.28-.32.57-.47.86a5.63,5.63,0,0,0-.45,1.48,2,2,0,0,0,0,.35l-.31.31a5.81,5.81,0,0,0-1,1.14,5.58,5.58,0,0,0-.59,1.39c0,.14-.11.35-.13.38-.35.51-.72,1-1.11,1.53a5,5,0,0,1-.44.48,7.65,7.65,0,0,0-1,1.26,19.74,19.74,0,0,0-1.1,2,6.73,6.73,0,0,0-.49,1.71c0,.18-.07.36-.12.54s-.14.39-.21.57a9.22,9.22,0,0,0-.49,1.67l0,.23a13.11,13.11,0,0,0-.23,2.15c0,.19,0,.38,0,.56a7.83,7.83,0,0,0,.09,1.9,12,12,0,0,0,.72,2.41,11.83,11.83,0,0,0,1.23,2.23,10.9,10.9,0,0,0,1.72,1.9,14.34,14.34,0,0,0,1.91,1.5,12.59,12.59,0,0,0,2.18,1.19,7.17,7.17,0,0,0,1.87.43,5.39,5.39,0,0,1,.56.08l.25.05a12.73,12.73,0,0,0,2.12.3h.15a6.71,6.71,0,0,0,1.58-.23,3.73,3.73,0,0,1,.58-.12c.12,0,.34,0,.56,0a5.36,5.36,0,0,0,3.22-.57,4.9,4.9,0,0,1,.49-.21,2.71,2.71,0,0,1,.4,0,5,5,0,0,0,1.83-.12,5.77,5.77,0,0,0,1.47-.69l.43-.24.29-.09a4.79,4.79,0,0,1,0,.76l0,.4a7.87,7.87,0,0,0,0,1,2.41,2.41,0,0,0,0,.37h0a7.8,7.8,0,0,1-.67,1.32,8.4,8.4,0,0,1-.59.71c-.16.19-.33.37-.49.57a7.76,7.76,0,0,1-.57.58c-.24.23-.49.46-.72.72a9.43,9.43,0,0,0-.76,1,3.54,3.54,0,0,1-.41.56,5.07,5.07,0,0,1-.43.37,7.56,7.56,0,0,0-1.07,1,5.88,5.88,0,0,0-.82,1.28,4.13,4.13,0,0,1-.28.48,4.78,4.78,0,0,1-.44.46,6.25,6.25,0,0,0-1.1,1.34,7.32,7.32,0,0,0-.71,1.86c-.05.16-.09.32-.14.47s-.13.35-.2.52a6.25,6.25,0,0,0-.54,2,9.16,9.16,0,0,0,.24,2.74,7.31,7.31,0,0,0,1,2.17l.17.27,0,0-.47,0c-.49,0-1,.11-1.47.19-.34.05-.68.11-1,.14s-.95.13-1.42.21-.71.12-1.07.16-.64,0-1,.05a14.68,14.68,0,0,0-1.55.09,2.29,2.29,0,0,0-2.09,2.35c.07,2.28,2.51,2.43,4.47,2.54.38,0,.79,0,1.25,0l1.27,0c.41,0,.84,0,1.28,0l1.23,0,1.32.05,1.18,0c.33,0,.66,0,1,0h1.5c.36,0,.73,0,1.1.07s.92.07,1.4.08.71.05,1.06.08,1,.09,1.43.11l1.14.06,1.36.07H211c.42,0,.84,0,1.26-.07s.61-.05.91-.05h.11a8.85,8.85,0,0,1,1,.1c.44.05.95.11,1.48.13H216c.37,0,.75,0,1.13,0l.91,0h.51l1.06,0,.9,0h.21a7.57,7.57,0,0,1,.86.13,8.46,8.46,0,0,0,1.64.22h.17c.44,0,.87,0,1.3-.07s.63-.05,1,0H226l1.15,0,1,0h.14l1.17,0,1.34,0H231l1.19,0c.34,0,.68,0,1.11,0h2.51a5.79,5.79,0,0,1,.89.12,9.59,9.59,0,0,0,1.61.17h0a10.05,10.05,0,0,0,1.66-.16,8.27,8.27,0,0,1,.89-.11c.37,0,.73,0,1.08.06s.9.06,1.34.06h.11c.51,0,1-.05,1.51-.09s.71-.07,1.06-.07h2.75c.33,0,.66,0,1,0l1.12,0h.29a14.37,14.37,0,0,0,1.61-.16c.32,0,.65-.09,1-.1h2.57l.47,0c.73,0,1.44,0,2.11-.09l1.2,0c.48,0,.94,0,1.39,0,.6,0,1.15-.12,1.64-.18.27,0,.53-.08.78-.1l1.12,0,.9,0c.47,0,.95,0,1.43,0l1.17,0,1.12,0,1.47.06,1.16.05,1.44.05,1.11,0,1.48,0h.06c.45,0,.9,0,1.35,0a19.81,19.81,0,0,1,2.18,0c.42,0,.85,0,1.27,0h.1c.47,0,.94,0,1.41,0l1.07,0c.47,0,.94,0,1.41-.05l1.07,0h.12c.31,0,.63,0,.93,0s.79.05,1.17.05h.26c.51,0,1-.06,1.49-.1s.67-.06,1-.07c.57,0,1.12-.07,1.64-.11l.86-.06c1-.06,1.9-.12,2.57-.19,1.11-.13,3.19-.37,3.19-2.45s-2.1-2.35-3.12-2.47c-.64-.08-1.49-.14-2.57-.21-.38,0-.74-.09-1.09-.14l-.28,0a8,8,0,0,0,.44-.93,7.49,7.49,0,0,0,.37-1.89c0-.16,0-.33.05-.49s0-.32.08-.49a7.28,7.28,0,0,0,.19-1.81,15.27,15.27,0,0,0-.23-2.23l-.05-.32c-.09-.52-.18-1-.27-1.49.38.05.74.08,1.06.1s.48,0,.71.05a7.83,7.83,0,0,0,1.52,0c.21,0,.42,0,.63,0a4.46,4.46,0,0,1,.52.12,5.55,5.55,0,0,0,1.62.28h0a6.69,6.69,0,0,0,1.67-.27,5,5,0,0,1,.52-.12c.12,0,.33,0,.54,0a5.78,5.78,0,0,0,1.74-.05,13.81,13.81,0,0,0,2-.61l.2-.07a6.71,6.71,0,0,0,1.57-.84c.16-.1.32-.21.49-.3a3.75,3.75,0,0,1,.5-.21,6.48,6.48,0,0,0,1.63-.86,15.92,15.92,0,0,0,1.79-1.59,15.33,15.33,0,0,0,1.44-1.87l.24-.35a11.8,11.8,0,0,0,1-1.61,6,6,0,0,0,.5-1.63,4.8,4.8,0,0,1,.13-.56,15.32,15.32,0,0,0,.46-1.53c.05-.19.1-.39.16-.59a5.62,5.62,0,0,1,.19-.53,7.28,7.28,0,0,0,.49-1.62c.1-.66.17-1.38.22-2.2a8.88,8.88,0,0,0-.08-1.51,4.91,4.91,0,0,1-.06-.66c0-.22,0-.44,0-.66a12.71,12.71,0,0,0,0-1.49c0-.22,0-.45,0-.68a11.32,11.32,0,0,0-.11-1.46l-.09-.63c-.07-.49-.14-1-.25-1.47a7,7,0,0,0-.55-1.47,3.35,3.35,0,0,1-.23-.52,10.27,10.27,0,0,0-.46-1.3c-.08-.23-.17-.45-.25-.68s-.11-.43-.16-.65a7.51,7.51,0,0,0-.38-1.39c-.17-.46-.38-.9-.59-1.34l-.27-.58c0-.08-.08-.32-.12-.5a5.75,5.75,0,0,0-.5-1.55,9.56,9.56,0,0,0-.77-1.22c-.13-.19-.27-.38-.38-.58a10.21,10.21,0,0,0-.84-1.19c-.14-.18-.28-.36-.4-.55a8.93,8.93,0,0,0-1-1.16,4.48,4.48,0,0,1-.42-.46,2.24,2.24,0,0,1-.2-.41,5.2,5.2,0,0,0-.93-1.5,9.14,9.14,0,0,0-1.11-1c-.18-.14-.35-.27-.51-.42-.55-.5-1.1-1-1.61-1.37a9.93,9.93,0,0,0-1.23-.81c-.18-.11-.37-.21-.55-.34a3.48,3.48,0,0,1-.32-.33,5.66,5.66,0,0,0-1.28-1.11,11.76,11.76,0,0,0-1.32-.67l-.59-.28a7.55,7.55,0,0,0-1.46-.51,2.91,2.91,0,0,1-1.09-.45,6.54,6.54,0,0,0-1.4-.67,7.32,7.32,0,0,0-1.48-.3,4.46,4.46,0,0,1-1.23-.29,8.15,8.15,0,0,0-1.45-.4,6.54,6.54,0,0,0-1.58,0,5.43,5.43,0,0,1-.57,0l-.65-.08a12.05,12.05,0,0,0-1.47-.14c-.59,0-1.15,0-1.68.1l-.46,0-.51,0a6.47,6.47,0,0,0-1.65,0,6.36,6.36,0,0,0-1.52.47,3.83,3.83,0,0,1-.54.2,13.6,13.6,0,0,0-1.44.46l-.58.2a3.37,3.37,0,0,1-.48.07,5.52,5.52,0,0,0-1.64.38,8.25,8.25,0,0,0-1.3.69c-.19.12-.38.24-.58.34-.66.34-1.31.7-1.92,1.08a12.71,12.71,0,0,0-1.25.92l-.51.4-.41.3c-.43.31-.88.63-1.33,1a5.47,5.47,0,0,1-.54.41,8.58,8.58,0,0,0-1.18,1,15.3,15.3,0,0,0-1,1.19l-.39.47-.47.51a9.37,9.37,0,0,0-1,1.12,5.44,5.44,0,0,0-.75,1.55c-.06.16-.14.38-.18.45l-.36.54c-.25.37-.5.76-.74,1.19a6.49,6.49,0,0,0-.1-1.13,11,11,0,0,0-.45-1.6c-.07-.19-.13-.37-.19-.56a6.83,6.83,0,0,0-.72-1.55q-.15-.24-.27-.48c-.07-.19-.12-.38-.18-.57a6.14,6.14,0,0,0-.61-1.56l-.27-.49a12.15,12.15,0,0,0-.9-1.47,12.86,12.86,0,0,0-1.12-1.24l-.41-.41c-.45-.48-.91-.88-1.35-1.27l-.5-.43c-.45-.41-.92-.82-1.45-1.22L253,229c-.4-.31-.8-.62-1.22-.89a6.18,6.18,0,0,0-1.47-.67,3.55,3.55,0,0,1-.49-.18,6.25,6.25,0,0,1-.65-.48,9.59,9.59,0,0,0-.92-.69,3.43,3.43,0,0,1-.4-.39,6.06,6.06,0,0,0-1-.94c-.42-.3-.8-.6-1.19-.91l-.32-.25a7.39,7.39,0,0,0-1.19-.72,4.52,4.52,0,0,1-.47-.25,6.06,6.06,0,0,1-.57-.62c-.24-.27-.47-.53-.73-.78a7.42,7.42,0,0,1-.48-.59,10.36,10.36,0,0,0-.72-.89,8.39,8.39,0,0,0-.93-.84,4.38,4.38,0,0,1-.51-.44c-.23-.26-.47-.51-.71-.76s-.42-.43-.61-.67a3.92,3.92,0,0,1-.36-.59,8.21,8.21,0,0,0-.68-1.09,6.77,6.77,0,0,0-.91-1,4.81,4.81,0,0,1-.46-.47,5.38,5.38,0,0,1-.27-.51,6.21,6.21,0,0,0-.72-1.26,10.28,10.28,0,0,0-.88-1c-.16-.18-.32-.35-.47-.53a12.6,12.6,0,0,0-1-1l-.45-.46a9.39,9.39,0,0,0-1.14-1,5.71,5.71,0,0,1-.48-.38,21.37,21.37,0,0,0-1.66-1.36l-.45-.36a10.16,10.16,0,0,0-1.31-.93l-.47-.28a10.46,10.46,0,0,0-1.47-.79,14.55,14.55,0,0,0-1.83-.56l-.29-.08a8.73,8.73,0,0,0-1.56-.24l-.6-.07c-.75-.1-1.5-.14-2.14-.17a9.59,9.59,0,0,0-1.46.07l-.66.05a3.57,3.57,0,0,1-.56,0C215.91,203,215.63,202.93,215.32,202.93Zm4.85,56.37a11.62,11.62,0,0,0-1.32.19c-.25.05-.5.1-.75.13l-.33,0c-.61.07-1.22.13-1.83.24-.25,0-.5.06-.74.08a11.23,11.23,0,0,0-1.41.19,6.38,6.38,0,0,0-1.48.56l-.46.21-.33,0a4.72,4.72,0,0,0-1.92.07c-.39.12-.78.25-1.16.39s-.55.2-.82.28-.7.22-1.05.34l-.9.29a6.47,6.47,0,0,0-1.44.68c-.14.09-.34.21-.34.22a2.31,2.31,0,0,1-.43,0,5.15,5.15,0,0,0-1.66.09,6.43,6.43,0,0,0-1.32.49,3,3,0,0,1-.5.2,2.79,2.79,0,0,1-.64,0,8.41,8.41,0,0,0-1.24,0,8,8,0,0,0-1.19.22l-.58.11a8.88,8.88,0,0,1-1.42-.21l-.27-.06-.84-.13a4,4,0,0,1-.82-.15,9.12,9.12,0,0,1-1.46-.82,10.49,10.49,0,0,1-1.35-1.07,6.82,6.82,0,0,1-1.07-1.16,7.47,7.47,0,0,1-.78-1.41,8.73,8.73,0,0,1-.48-1.57,4.81,4.81,0,0,1,0-.95c0-.24,0-.49,0-.73a9.28,9.28,0,0,1,.17-1.44l0-.25a4.87,4.87,0,0,1,.27-.83c.1-.26.19-.53.28-.8a7.28,7.28,0,0,0,.24-1.05,2.91,2.91,0,0,1,.17-.67,15.88,15.88,0,0,1,.85-1.59,4.14,4.14,0,0,1,.49-.55c.24-.26.49-.53.72-.81.43-.56.84-1.14,1.24-1.7a5.27,5.27,0,0,0,.71-1.58c0-.14.11-.34.13-.38a4.38,4.38,0,0,1,.32-.33,5.58,5.58,0,0,0,1.06-1.28,5.48,5.48,0,0,0,.55-1.67,3.06,3.06,0,0,1,.07-.37c.11-.22.23-.43.35-.64a12.89,12.89,0,0,0,.63-1.19,6.38,6.38,0,0,1,.32-.57,8.63,8.63,0,0,0,.66-1.26,4.32,4.32,0,0,1,.29-.53,7.16,7.16,0,0,0,.66-1.33c.15-.42.25-.85.36-1.27.06-.25.11-.49.19-.72a6.53,6.53,0,0,0,.24-1.55,2.77,2.77,0,0,1,.05-.5c.18-.66.36-1.31.51-1.92a3.17,3.17,0,0,1,.21-.36,5.22,5.22,0,0,0,.7-1.53c.09-.37.16-.74.23-1.11s.11-.56.17-.84a5.67,5.67,0,0,0,.12-1.58c0-.15,0-.36,0-.39s.14-.26.21-.39a5.55,5.55,0,0,0,.65-1.42,7.14,7.14,0,0,0,.21-1.29,4.54,4.54,0,0,1,.09-.61,7,7,0,0,0,.24-1.33,3.92,3.92,0,0,1,.09-.55c.12-.34.28-.67.43-1s.2-.42.29-.63l.23-.23a5,5,0,0,0,1-1.24c.15-.28.28-.56.41-.84a5.88,5.88,0,0,1,.35-.71,6.59,6.59,0,0,0,.6-1.06,3.09,3.09,0,0,1,.24-.46l.22-.25a10.21,10.21,0,0,1,1-1,13.53,13.53,0,0,1,3-1.83c.43-.2.95-.41,1.66-.66a15.68,15.68,0,0,1,1.74-.52,4,4,0,0,1,.74-.1l.44-.05a2.18,2.18,0,0,0,.51,0,3.55,3.55,0,0,1,.7,0,9.38,9.38,0,0,0,1.09,0c.3,0,.59,0,.88-.06a5.64,5.64,0,0,1,.86,0c.69,0,1.21.06,1.71.13l.83.09a5.41,5.41,0,0,1,.85.12l.31.08a9.52,9.52,0,0,1,1.29.39,6,6,0,0,1,.83.46l.63.37a5.39,5.39,0,0,1,.69.52c.21.17.42.34.64.5a16.33,16.33,0,0,1,1.32,1.08,8.82,8.82,0,0,0,.76.61,4.93,4.93,0,0,1,.6.5l.56.57a9.61,9.61,0,0,1,.7.73c.2.24.42.48.64.71s.41.44.6.68a5.33,5.33,0,0,1,.26.5,6.85,6.85,0,0,0,.66,1.17,7.42,7.42,0,0,0,1,1.1,5.45,5.45,0,0,1,.42.42,5.29,5.29,0,0,1,.36.6,8.6,8.6,0,0,0,.74,1.18c.31.38.63.71.91,1s.35.36.51.54a7.14,7.14,0,0,0,1.1,1,3.51,3.51,0,0,1,.47.41,5.52,5.52,0,0,1,.43.53,8.55,8.55,0,0,0,.93,1.11c.17.16.32.34.47.51a9.54,9.54,0,0,0,1,1,6.26,6.26,0,0,0,1.35.85,3.81,3.81,0,0,1,.49.27l.3.24c.45.35.9.71,1.38,1a2.83,2.83,0,0,1,.35.35A6.52,6.52,0,0,0,246,229.7a5.12,5.12,0,0,1,.54.41,11.16,11.16,0,0,0,1.17.84,7.35,7.35,0,0,0,1.3.55,3.37,3.37,0,0,1,.49.19c.32.2.61.44.91.67s.39.31.59.46a14.61,14.61,0,0,1,1.18,1l.52.45c.38.33.74.64,1,1s.34.36.52.53a9.33,9.33,0,0,1,.71.77,8.49,8.49,0,0,1,.57.95c.11.19.21.39.33.58a4.94,4.94,0,0,1,.19.58,7.67,7.67,0,0,0,.36,1.09,8.19,8.19,0,0,0,.51,1,3.47,3.47,0,0,1,.31.6c.07.24.16.48.24.72a7.14,7.14,0,0,1,.29,1,5.24,5.24,0,0,1,0,1c0,.23,0,.46,0,.69a11.3,11.3,0,0,1-.13,1.76,10.17,10.17,0,0,0-.08,1.11c0,.29,0,.59,0,.67s-.16.23-.25.35a6,6,0,0,0-.8,1.33,8.07,8.07,0,0,0-.35,1.25,4.51,4.51,0,0,1-.14.56,16.2,16.2,0,0,1-1,1.57l-.2.3a11.51,11.51,0,0,1-.86,1.17,7.75,7.75,0,0,1-.87.77l-.44.35a11.46,11.46,0,0,1-1.39,1,11.58,11.58,0,0,1-1.53.79,8.55,8.55,0,0,0-1,.55,3.05,3.05,0,0,1-.56.31c-.09,0-.34,0-.53,0a7.38,7.38,0,0,0-1.33.1,6.15,6.15,0,0,1-.85.08c-.34,0-.67,0-1,.07a7.15,7.15,0,0,0-1.24.28,4,4,0,0,1-.64.15c-.27,0-.55,0-.84.07s-.73.06-1.1.07c-.21,0-.47,0-.76-.05a9.85,9.85,0,0,0-1.21-.09,4.15,4.15,0,0,1-.67-.09,8.15,8.15,0,0,0-1.32-.15,7,7,0,0,0-1.38.12,2.91,2.91,0,0,1-.64.08c-.38,0-.76,0-1.15,0s-.58,0-.88,0a6.39,6.39,0,0,1-.75-.09,11.37,11.37,0,0,0-1.29-.12l-.87,0-1.18-.05a5.56,5.56,0,0,0-1.47.18,5.07,5.07,0,0,1-.59.09c-.43,0-.85,0-1.28,0l-.8,0h-.25c-.6,0-1.21,0-1.82.05a5.77,5.77,0,0,1-.72,0A10.44,10.44,0,0,0,220.17,259.3Zm1.24,31.44a8.25,8.25,0,0,0-1.28.11,5.65,5.65,0,0,1-.75.07c-.36,0-.72,0-1.09,0s-.59,0-.9,0a3.54,3.54,0,0,1-.59-.09,7.72,7.72,0,0,0-1.44-.18,11.6,11.6,0,0,0-1.29.12,5.3,5.3,0,0,1-.7.07h-1.85a5.24,5.24,0,0,1-1-.13,9.23,9.23,0,0,0-1-.19,9.77,9.77,0,0,0-1.07-.07,4.44,4.44,0,0,1-.73-.05,14,14,0,0,1-1.68-.54,8.1,8.1,0,0,1-1.14-.65l-.34-.21a4,4,0,0,1-.66-.62c-.17-.17-.33-.34-.5-.5l-.23-.21a5.42,5.42,0,0,1-.8-.86l-.2-.31a3,3,0,0,1-.62-2.33,6.73,6.73,0,0,1,.23-.65q.16-.37.3-.78c.08-.22.14-.46.21-.71a4.1,4.1,0,0,1,.28-.84,4.39,4.39,0,0,1,.39-.41,8.09,8.09,0,0,0,.82-.88,7.19,7.19,0,0,0,.7-1.14,3.58,3.58,0,0,1,.25-.44,3.25,3.25,0,0,1,.49-.42,7.53,7.53,0,0,0,.93-.83,9.71,9.71,0,0,0,.81-1.06,5,5,0,0,1,.37-.51c.17-.18.34-.34.52-.51a10.75,10.75,0,0,0,.92-1c.12-.15.25-.3.38-.44a10.19,10.19,0,0,0,1-1.29,11,11,0,0,0,1.1-2.21,5.19,5.19,0,0,0,.17-2.11,3.59,3.59,0,0,1,0-.47l0-.32a7.72,7.72,0,0,0-.11-2.08,4.32,4.32,0,0,0,1.49-.09,6.61,6.61,0,0,0,1.31-.52,4.74,4.74,0,0,1,.54-.23,8.55,8.55,0,0,1,.87-.11c.36,0,.72-.06,1.07-.12.52-.09,1-.14,1.58-.2l.33,0c.37,0,.73-.1,1.1-.17a6.1,6.1,0,0,1,.84-.13,7.16,7.16,0,0,1,.79,0,9.3,9.3,0,0,0,1.18,0c.58,0,1.15,0,1.72-.05h.26l.89,0c.36,0,.72,0,1.09,0a6.93,6.93,0,0,0,1.42-.18,5.2,5.2,0,0,1,.57-.09l1,0c.34,0,.68,0,1,0a6.9,6.9,0,0,1,.78.09c.36,0,.78.11,1.23.13s.79,0,1.18,0,.57,0,.86,0a7.6,7.6,0,0,0,1.44-.12c.23,0,.48-.06.61-.07a4.12,4.12,0,0,1,.68.09c.29.05.62.09,1,.12,0,.06,0,.13.08.19s.14.34.2.52l.15.47a10.46,10.46,0,0,0,.65,1.77,18.82,18.82,0,0,0,1,1.73l.16.25c.32.5.68,1,1,1.46l.25.33c.3.4.61.8.93,1.18l1.68,2.13c.21.27.44.52.66.78s.44.49.63.74a4.88,4.88,0,0,1,.24.56,6.76,6.76,0,0,0,.55,1.19,7.42,7.42,0,0,0,.75,1,4.18,4.18,0,0,1,.32.4,3.58,3.58,0,0,1,.14.69,9.66,9.66,0,0,0,.22,1.07,7.43,7.43,0,0,1,.18,1.1c0,.2,0,.39.07.59a8.18,8.18,0,0,0,.27,1.15c.05.18.12.42.13.49a3.24,3.24,0,0,1-.18.67c-.09.3-.18.59-.25.88a5.83,5.83,0,0,1-.48,1.41l-.06.13a6.16,6.16,0,0,1-.66,1.15,6.63,6.63,0,0,1-1,.86l-.14.1c-.24.18-.47.39-.71.6a2.53,2.53,0,0,1-.54.44,4.54,4.54,0,0,1-.82.25c-.27.06-.55.13-.82.21l-.38.12a10.5,10.5,0,0,1-1.33.35,3.39,3.39,0,0,1-.52,0,7.79,7.79,0,0,0-1.31,0l-.88.11a6.87,6.87,0,0,1-1,.09c-.4,0-.79.05-1.2.09s-.53.06-.81.07h-1c-.35,0-.7,0-1,0s-.53,0-.8,0-.8-.06-1.21-.05a6,6,0,0,0-1.4.19,3.69,3.69,0,0,1-.6.1c-.29,0-.58,0-.88,0s-.75,0-1.13,0a5.49,5.49,0,0,1-.81,0c-.39,0-.78-.06-1.2-.06s-.6,0-.91,0l-1.09,0c-.29,0-.59,0-.89,0S221.78,290.74,221.41,290.74Z" style="fill: #1d1d1b"/>
  </g>
</svg>
