<svg xmlns="http://www.w3.org/2000/svg" viewBox="0 0 500 500">
  <title>shroom</title>
  <g>
    <path d="M281.35,292.35a8.18,8.18,0,0,0-.26-1.87,5.51,5.51,0,0,1-.11-.61.59.59,0,0,1,0-.13,5.55,5.55,0,0,0-.28-1.08,5.72,5.72,0,0,0-.61-1,7.56,7.56,0,0,1-.44-.66c-.33-.54-.68-1-1.05-1.55-.17-.22-.32-.44-.46-.65a8.57,8.57,0,0,0-.65-.89c-.2-.23-.37-.47-.57-.74l-.11-.16c-.18-.24-.34-.45-.48-.61a2.12,2.12,0,0,0-.86-.55,3.08,3.08,0,0,1-.81-.51,5.25,5.25,0,0,1-.66-.78l-.08-.1a4.35,4.35,0,0,0-.45-.54.6.6,0,0,0-.08-.08c-.24-.22-.46-.45-.71-.72l-.12-.13c-.16-.17-.31-.34-.53-.54l-.54-.47c-.29-.25-.56-.5-.82-.76l-.46-.45-.12-.12a6.48,6.48,0,0,1-.81-.84,6.56,6.56,0,0,1-.78-1.35l-.15-.33c-.07-.13-.15-.27-.28-.48l-.14-.22-.1-.15a2,2,0,0,0-1.73-.89h-1.29a3.94,3.94,0,0,0-.71.07c-.25,0-.53.06-.79.07a4.33,4.33,0,0,1-.7-.09l-.07,0h0a2,2,0,0,0-1.23,0l-.15.05a2.3,2.3,0,0,1-.72.14c-.46,0-.92,0-1.45-.05a1.63,1.63,0,0,1-.67-.21,2.07,2.07,0,0,0-1.27-.24l-.22,0a4.26,4.26,0,0,1-.7.07h-.17a5,5,0,0,1-.6,0h-.11l-.43,0h-.3a4.2,4.2,0,0,0-.47.08l-.15,0a3.29,3.29,0,0,1-.66.12,8.34,8.34,0,0,0-.85.07l-.6,0h-.11a3.35,3.35,0,0,1-.61-.08l-.22,0-.2,0a1.69,1.69,0,0,0-.55,0l-1.09.14a2,2,0,0,0-.68.19l-.13.07a2,2,0,0,1-.78.26l-1.42.16-.7.06-.74.05-.52.08-.2,0-.69.12c-.27,0-.55,0-.85,0a5.92,5.92,0,0,0-.63,0,3.62,3.62,0,0,1-.66,0h-.07a4.49,4.49,0,0,0-.74,0,2.58,2.58,0,0,1-.7-.06l-.17,0a2,2,0,0,0-1.2.2,1.9,1.9,0,0,1-.77.26h-.12a4.68,4.68,0,0,1-.61-.05,4.69,4.69,0,0,0-.54-.06h-.38l-1,0h-.2a2,2,0,0,0-2,1.47,2.61,2.61,0,0,1-.12.37,6.31,6.31,0,0,1-.79,1.37l-.26.41a7.94,7.94,0,0,0-.41.73,8.13,8.13,0,0,1-.62,1c-.14.18-.27.37-.4.56l-.29.43c-.16.24-.32.48-.5.72a3.74,3.74,0,0,1-.75.7,4.59,4.59,0,0,0-.69.6l-.07.1a4.59,4.59,0,0,0-.56,1.05,7.45,7.45,0,0,1-.4.8,15.47,15.47,0,0,0-1,1.78c-.14.28-.27.54-.41.78s-.31.57-.45.88a8.46,8.46,0,0,0-.37,1.05l-.05.14c0,.16-.1.32-.17.54a7.59,7.59,0,0,1-.36.79l0,.1a3.42,3.42,0,0,0-.3.77,1.73,1.73,0,0,0-.05.45s0,.15,0,.3l0,.22s0,.09,0,.13a4.9,4.9,0,0,1,.05.77l0,.64a9.84,9.84,0,0,0,0,1.22l0,.39a7.89,7.89,0,0,0,.23,1.65,5.19,5.19,0,0,0,.54,1.22l.08.15.07.12c.06.1.13.2.22.37a8.17,8.17,0,0,0,1.21,1.62,6.46,6.46,0,0,0,1.22.91l.49.33a11.83,11.83,0,0,0,1.66.94,5.33,5.33,0,0,1,.79.43,4.27,4.27,0,0,0,1.07.51c.41.11.89.2,1.4.29l.67.11.45.08.45.09a11.29,11.29,0,0,0,1.14.19,8.21,8.21,0,0,0,1.14,0,6.87,6.87,0,0,1,.9,0,5.9,5.9,0,0,0,1.15-.1,6.15,6.15,0,0,1,.81-.08h.16a4.46,4.46,0,0,1,1.1.22l.12,0a5.67,5.67,0,0,0,.59.13l.27,0h.1c.21,0,.43,0,.65-.07l.19,0c.31,0,.66-.07,1-.1s.67,0,1-.08a7.68,7.68,0,0,1,2.13,0l.17,0a7.91,7.91,0,0,0,.81.07l.73,0,.46,0a12.59,12.59,0,0,0,1.84,0,17.72,17.72,0,0,1,2,0c.71,0,1.39,0,2.15,0,.32,0,.63,0,.94,0h.13l1.09,0,.78,0a7.55,7.55,0,0,0,1.08-.09c.34,0,.68-.07,1-.09a8.49,8.49,0,0,1,.9,0c.37,0,.73,0,1.12,0s.5,0,.75,0h.19a10.29,10.29,0,0,0,1.1,0,6.35,6.35,0,0,1,.76,0c.42,0,.81,0,1.24,0a5.33,5.33,0,0,0,1.06-.27,7.24,7.24,0,0,1,.92-.24,4.85,4.85,0,0,0,1-.3L269,303a5.7,5.7,0,0,1,.8-.25,6.25,6.25,0,0,1,1-.11,5.24,5.24,0,0,0,1-.14,5.67,5.67,0,0,1,.69-.15l.3-.06a4.7,4.7,0,0,0,1-.22,8.64,8.64,0,0,0,1.24-.57c.16-.09.33-.16.49-.24a1.35,1.35,0,0,0,.26-.15c.09-.06.34-.27.54-.45l.1-.09A6.1,6.1,0,0,1,277,300a3.78,3.78,0,0,1,.79-.35h0a4.29,4.29,0,0,0,.43-.16,2,2,0,0,0,.77-.6,3.78,3.78,0,0,0,.34-.53l.06-.12c.13-.22.26-.45.39-.64l.32-.4.06-.09a5,5,0,0,0,.69-1.05,4.54,4.54,0,0,0,.3-1.28s0-.07,0-.1a4.29,4.29,0,0,1,.07-.5A8.21,8.21,0,0,0,281.35,292.35Zm-32.16-9.58a2,2,0,0,0,1.7.8,2,2,0,0,0,1.61-1,6.72,6.72,0,0,1,.39-.59,5.37,5.37,0,0,1,.44-.51,6.61,6.61,0,0,1,1.17-.82,6,6,0,0,1,1.33-.6,6.33,6.33,0,0,1,1.32-.25h.13a5.59,5.59,0,0,1,1.36.2,5.33,5.33,0,0,1,1.35.46,7.22,7.22,0,0,1,2,2.05,5.32,5.32,0,0,1,.61,1.34,5.17,5.17,0,0,1,.2,1.42,6,6,0,0,1-.24,1.44,6.44,6.44,0,0,1-.54,1.35,5.52,5.52,0,0,1-.9,1.18,5.9,5.9,0,0,1-1.16.86,6,6,0,0,1-1.38.55,4.11,4.11,0,0,1-.85.1h-.64a5.66,5.66,0,0,1-1.42-.14,6.19,6.19,0,0,1-1.39-.59,6.33,6.33,0,0,1-1.11-.86,4.07,4.07,0,0,1-.43-.49,2,2,0,0,0-3.3.17,5.44,5.44,0,0,1-.43.63,3.56,3.56,0,0,1-.36.42,5.85,5.85,0,0,1-1.19.89,6,6,0,0,1-1.38.54,4.06,4.06,0,0,1-.82.1h-.66a5.76,5.76,0,0,1-1.45-.15,5.84,5.84,0,0,1-1.35-.56,5.72,5.72,0,0,1-1.13-.9,4.24,4.24,0,0,1-.78-1,3.16,3.16,0,0,1-.4-.91l-.08-.26a5.32,5.32,0,0,1-.17-1.46,5.6,5.6,0,0,1,.17-1.45,5.43,5.43,0,0,1,.52-1.39,5,5,0,0,1,.89-1.18,6,6,0,0,1,1.2-.83,5.25,5.25,0,0,1,1.3-.59,6.21,6.21,0,0,1,1.32-.25h.12a5.71,5.71,0,0,1,1.36.2,5.11,5.11,0,0,1,1.38.49,6.27,6.27,0,0,1,1.1.91A5,5,0,0,1,249.19,282.77Z" style="fill: #f4f5f8"/>
    <path d="M223.51,267.09a37,37,0,0,0-4.66,1.75,27.78,27.78,0,0,1-5.46,1.91c-1.9.4-3.75.69-5.59.93l.32-.36.83-.91c.26-.27.52-.55.77-.84a8.64,8.64,0,0,0,.69-.88l.4-.51a9.72,9.72,0,0,0,.65-.82c.14-.19.29-.37.43-.55a2.69,2.69,0,0,1,.32-.27,7.81,7.81,0,0,0,1-.91l.3-.33c.28-.32.55-.64.83-.95a5,5,0,0,0,.9-1.62.11.11,0,0,1,.06,0,6,6,0,0,0,1.2-.9,5.37,5.37,0,0,0,.91-1.24,4.45,4.45,0,0,0,1.48-.71,6.36,6.36,0,0,0,1-1l.06-.07.33-.07.65-.12.13,0c.14,0,.31-.08.45-.1l.34.24.14.1c.07.08.23.34.41.63s.24.33.36.5a3,3,0,0,0,.23.33,2.42,2.42,0,0,1,.05.47c0,.29,0,.58.1.87a7.05,7.05,0,0,0,.33,1.19,2.5,2.5,0,0,0,.09.25,1.42,1.42,0,0,0,0,.2,6.36,6.36,0,0,0-.15,1.46,4.93,4.93,0,0,0,.39,1.64C223.67,266.57,223.58,266.82,223.51,267.09Zm105.68-19.47,0-.75a10.83,10.83,0,0,0-.14-1.41l-.08-.5c0-.22,0-.44-.06-.69a8.33,8.33,0,0,0-.17-1.22,6.13,6.13,0,0,0-.36-1,7.68,7.68,0,0,1-.31-.79c-.08-.25-.14-.56-.19-.8a5.35,5.35,0,0,0-.27-1l-.19-.47c-.15-.39-.33-.85-.55-1.3,0-.05,0-.09-.07-.13a4.65,4.65,0,0,0-.38-.5l-.13-.15a4.16,4.16,0,0,1-.57-.74,7.48,7.48,0,0,1-.39-.8,6.38,6.38,0,0,0-.51-1,4.41,4.41,0,0,0-.47-.54l-.15-.16a5.17,5.17,0,0,1-.61-.69,4.41,4.41,0,0,1-.47-.84l0-.11a3.33,3.33,0,0,0-.42-.7c-.41-.49-.84-1-1.22-1.37a3.34,3.34,0,0,0-.65-.56l-.17-.13a7.23,7.23,0,0,1-.72-.55c-.2-.2-.39-.42-.6-.67l-.14-.14a5,5,0,0,0-.54-.57l-.26-.23c-.4-.36-.8-.71-1.24-1.06a8.1,8.1,0,0,0-.85-.54,7.72,7.72,0,0,1-.73-.44,6.58,6.58,0,0,1-.65-.59,4.57,4.57,0,0,0-.76-.7c-.55-.36-1.09-.69-1.64-1s-1-.57-1.52-.85l-.16-.08a9.11,9.11,0,0,0-.95-.4c-.29-.1-.56-.21-.78-.31a4.53,4.53,0,0,1-.81-.5,4.75,4.75,0,0,0-.8-.5l-.09,0a6.35,6.35,0,0,0-.93-.27l-.21-.06c-.22-.06-.45-.12-.62-.18-.51-.2-1-.37-1.56-.54l-.25-.08a8,8,0,0,1-.89-.39l-.11,0a5.94,5.94,0,0,0-.79-.32c-.41-.11-.83-.21-1.22-.29l-2.47-.56a4,4,0,0,0-.87-.12l-.18,0a4.38,4.38,0,0,1-.94-.11l-.61-.15-1.22-.3a6.38,6.38,0,0,1-.93-.34l-.11-.05-.12,0a5.76,5.76,0,0,0-.69-.24l-.93-.21-.93-.2a8.19,8.19,0,0,0-1-.17,5.83,5.83,0,0,1-.9-.15l-1.88-.48c-.34-.09-.67-.2-1-.31l-.19-.06-.69-.22a7.12,7.12,0,0,0-.87-.16,7,7,0,0,1-1-.22,4.41,4.41,0,0,1-.87-.39,4.08,4.08,0,0,0-.85-.4l-.84-.24-1-.28a5.17,5.17,0,0,0-1-.17,5.23,5.23,0,0,1-1-.17c-.25-.08-.49-.18-.75-.29l-.09,0c-.3-.13-.61-.26-.95-.37a9.22,9.22,0,0,1-1-.44c-.26-.13-.52-.25-.82-.37l-.69-.24-.22-.08c-.3-.1-.61-.2-.88-.32s-.69-.35-1-.52a6.58,6.58,0,0,0-.74-.38,6.13,6.13,0,0,0-.84-.34l-.1,0a8.27,8.27,0,0,1-.91-.38,7.93,7.93,0,0,1-.89-.56c-.25-.17-.51-.34-.74-.47a6.4,6.4,0,0,0-.9-.43,6.73,6.73,0,0,1-.89-.42,9.4,9.4,0,0,1-.86-.63,4.86,4.86,0,0,0-.69-.54,4.72,4.72,0,0,0-.93-.46,5.44,5.44,0,0,1-.91-.44c-.29-.19-.56-.4-.81-.6a7.18,7.18,0,0,0-.74-.54c-.3-.21-.56-.42-.79-.61a6.51,6.51,0,0,0-.76-.6q-.47-.31-.87-.54c-.27-.16-.55-.33-.83-.53l-.58-.35-.24-.14c-.25-.14-.51-.29-.76-.46s-.58-.39-.92-.6L254,199c-.25-.16-.5-.31-.77-.46l-.14-.08c-.23-.13-.46-.25-.67-.38s-.43-.28-.68-.46a8,8,0,0,0-.91-.57,11.27,11.27,0,0,0-1.16-.52l-1-.44c-.43-.19-.85-.37-1.31-.53-.3-.09-.67-.17-1.07-.25l-.71-.14a4.88,4.88,0,0,1-.82-.27l-.1,0a3.08,3.08,0,0,0-.81-.24,2.22,2.22,0,0,0-.63,0l-.3.08-.14,0a5.47,5.47,0,0,1-.86.16h-.16a5,5,0,0,1-.6,0,4.67,4.67,0,0,0-1.08,0c-.3.05-.63.11-1,.19a2.65,2.65,0,0,0-.9.46,6.64,6.64,0,0,0-1.47.47l-.29.11c-.23.08-.49.14-.74.2a4,4,0,0,0-1.14.36,16.48,16.48,0,0,0-1.66,1.06,5.25,5.25,0,0,0-.76.71,7.49,7.49,0,0,1-.63.63,5.06,5.06,0,0,1-.75.48,5.72,5.72,0,0,0-.86.53.6.6,0,0,1-.08.08c-.21.2-.4.42-.6.65l-.19.23c-.16.19-.32.38-.52.58a6.17,6.17,0,0,1-.6.51l-.1.08a6.4,6.4,0,0,0-.79.69,1.93,1.93,0,0,0-.37.57l-.13.26a3.89,3.89,0,0,1-.52.85,6.32,6.32,0,0,1-.77.7l-.09.07a4.67,4.67,0,0,0-.6.57l-1.34,1.51a8.43,8.43,0,0,1-.66.71l-.14.14-.48.52c-.27.31-.49.62-.64.82s-.39.53-.55.72a5.52,5.52,0,0,0-.53.72l-.08.13a4.53,4.53,0,0,1-.58.82l-.3.34-.23.26c-.26.3-.52.6-.76.85-.42.43-.85.82-1.19,1.11l-.27.24a6.65,6.65,0,0,1-.88.62,6.55,6.55,0,0,0-.81.56,6.51,6.51,0,0,1-.92.59,6.9,6.9,0,0,0-.8.52,5,5,0,0,0-.75.66l-.1.1a5.79,5.79,0,0,1-.72.62c-.3.21-.61.4-1,.61l-.79.5-1.41.94-.29.19c-.3.2-.6.37-1,.58l-.26.15a6,6,0,0,0-.52.31,4.8,4.8,0,0,0-.81.65,7.36,7.36,0,0,1-.82.66,6.75,6.75,0,0,1-.94.45,6.9,6.9,0,0,0-.92.43L203,224a2.84,2.84,0,0,0-.54.49l-.1.1-.08.08a4,4,0,0,1-.74.66,4.94,4.94,0,0,1-1,.4,6,6,0,0,0-.86.31l-.14.08c-.25.15-.52.29-.78.43l-.13.07c-.29.15-.58.3-.92.5s-.57.4-.83.59a9.89,9.89,0,0,1-.83.59c-.3.18-.59.38-.91.6s-.55.39-.81.55l-.8.48c-.32.18-.64.38-.95.57a9.28,9.28,0,0,0-.78.58l-.09.07c-.26.21-.51.42-.78.6l-.64.42c-.38.25-.74.48-1.08.73a4.75,4.75,0,0,1-1,.48l-.11,0a3.2,3.2,0,0,0-.76.42,3.43,3.43,0,0,0-.64.69,4.65,4.65,0,0,1-.72.76c-.35.27-.69.55-1,.81l-.52.43q-.37.28-.78.54l-.08.06c-.3.2-.58.4-.81.59l-.34.29-.18.15-1,.84a7.39,7.39,0,0,0-.67.76,8.67,8.67,0,0,1-.64.72l-.08.08c-.45.44-.9.88-1.32,1.33a4.79,4.79,0,0,1-.82.65,4.25,4.25,0,0,0-.69.53l-.09.1c-.21.24-.4.5-.6.76l-.25.33c-.11.17-.23.32-.36.49s-.46.62-.67.93l-.5.73c-.07.12-.16.23-.24.35l-.26.35c-.22.3-.44.61-.6.88a4.63,4.63,0,0,0-.43,1l0,.11a6,6,0,0,1-.3.76,10.85,10.85,0,0,0-.4,1l-.29.81a11.13,11.13,0,0,0-.38,1.41c0,.15-.07.3-.12.51a3.2,3.2,0,0,1-.4.86l1.73,1-1.78-.93c-.07.13-.14.26-.2.39a1.9,1.9,0,0,0-.17.71,7.33,7.33,0,0,0,0,.77l0,.2a.41.41,0,0,1,0,.11c0,.24.06.49.07.77a14.62,14.62,0,0,0,.25,1.93,15,15,0,0,0,.5,1.93,9.84,9.84,0,0,0,.62,1.29c.09.15.17.3.26.48a10.49,10.49,0,0,0,.69,1.09l.52.73c.14.21.28.42.42.61a2.33,2.33,0,0,0,.81.69,6.3,6.3,0,0,0,1,.94,2,2,0,0,1,.43.62,2,2,0,0,0,.78.84,7.47,7.47,0,0,0,.75.38,2,2,0,0,0,1,.17,2,2,0,0,1,.85.07l.26.1c.35.13.7.26,1.08.37a4.33,4.33,0,0,1,.66.31l.3.17a2.19,2.19,0,0,0,.66.2h.49a4.05,4.05,0,0,1,.71,0,3.13,3.13,0,0,1,.84.34l.25.11a1.91,1.91,0,0,0,.47.12,3.31,3.31,0,0,0,.69,0l.68,0c.23,0,.45.07.68.11a5.69,5.69,0,0,0,.78.12c.26,0,.54,0,.71,0a5.61,5.61,0,0,1,.71,0,2.13,2.13,0,0,0,.8-.11,3.14,3.14,0,0,1,.66-.08h0a5.59,5.59,0,0,1,.7.09l.12,0,.12,0,.48.06a2.13,2.13,0,0,1,.78.24,2.07,2.07,0,0,0,1.41.12,3.5,3.5,0,0,1,.65-.08,5.75,5.75,0,0,1,.7.09l.16,0a1.75,1.75,0,0,0,.56.08c.27,0,.6,0,.75,0h.58a1.86,1.86,0,0,0,.52-.07,1.14,1.14,0,0,0,.26-.09h.05a2.26,2.26,0,0,1,.73-.19l.68,0c.26,0,.51,0,.81,0a2.56,2.56,0,0,1,.67.14l.09,0a2.2,2.2,0,0,0,1.11,0,3,3,0,0,0,.38-.15l.15-.06.18-.08a1.84,1.84,0,0,0,.57-.34l.08-.06.11-.09a4,4,0,0,1,.48-.37,2.48,2.48,0,0,1,.6-.24l.19-.05a2.06,2.06,0,0,0,.78-.49,3,3,0,0,0,.26-.28l.13-.13.34-.36c.14-.13.29-.25.47-.39s.39-.32.62-.54l.6-.66.71-.78.56-.61a7.42,7.42,0,0,0,.49-.62c.13-.19.27-.36.41-.53a6.65,6.65,0,0,0,.46-.59c.14-.18.28-.36.43-.53a4.6,4.6,0,0,1,.55-.51,3,3,0,0,0,.5-.45l.26-.3c.18-.22.37-.42.56-.63a2,2,0,0,0,.41-.72l0-.09a2,2,0,0,1,.35-.65,2.61,2.61,0,0,1,.61-.45l.2-.11a2.21,2.21,0,0,0,.78-.88,2.45,2.45,0,0,1,.44-.6,2,2,0,0,1,.77-.37,2.77,2.77,0,0,0,.43-.18,2,2,0,0,0,.57-.47l.06-.07a2.31,2.31,0,0,1,.61-.54,3.24,3.24,0,0,1,1-.3l.1,0,.23,0,.17,0a2.25,2.25,0,0,1,2.49.47l.17.13a3.31,3.31,0,0,1,.84,1l.07.11c.09.14.17.24.23.33h0a3.56,3.56,0,0,1,.48.84,4.48,4.48,0,0,1,.14.91c0,.17,0,.36.06.49a2.42,2.42,0,0,0,.19.66,3.55,3.55,0,0,1,.18.75,3,3,0,0,1-.07.75,2.14,2.14,0,0,0-.06.53,2.29,2.29,0,0,0,.16.81h0a2.13,2.13,0,0,1,.21.74,1.85,1.85,0,0,1-.17.72,2,2,0,0,0,0,1.47l0,0a.9.9,0,0,0,0,.16l0-.07a2,2,0,0,0,.28,1.16l.09.16a2.62,2.62,0,0,1,.24.42,3.15,3.15,0,0,0,.41.7l.07.1.08.1a2.6,2.6,0,0,1,.2.28,2.13,2.13,0,0,1,.23.5,2,2,0,0,0,1.18,1.26,3.41,3.41,0,0,1,.51.25,9.52,9.52,0,0,0,1.09.56,2.77,2.77,0,0,0,.41.12,4.57,4.57,0,0,0,.5,0,3.9,3.9,0,0,1,.65.07,1.69,1.69,0,0,1,.54.3,2.15,2.15,0,0,0,1.58.38,4.18,4.18,0,0,1,.63,0h.25c.38,0,.75,0,1.13,0H236a2.86,2.86,0,0,1,.54.06l.13,0h0a1.73,1.73,0,0,0,.32,0,1.91,1.91,0,0,0,.78-.16l.19-.08a1.76,1.76,0,0,1,.7-.26,3.32,3.32,0,0,1,.85.08l.25,0a2.68,2.68,0,0,0,.49,0h.18a.73.73,0,0,1,.33,0h0a4.72,4.72,0,0,0,.76,0c.25,0,.5,0,.85,0h.15l.45,0,.56-.08.21,0a4.83,4.83,0,0,1,.68-.11c.23,0,.45,0,.69,0h.11l1.34-.13.58-.07a2,2,0,0,0,.69-.19l.18-.09a1.9,1.9,0,0,1,.74-.24l.65-.08c.24,0,.49-.07.8-.09a2.59,2.59,0,0,1,.71.07,2.6,2.6,0,0,0,.81.07h.1l.46,0,.44,0a2.4,2.4,0,0,0,1.82.83,26,26,0,0,0,6.05-.25,3.29,3.29,0,0,0,1.42-.67l.51.09a3.62,3.62,0,0,0,1.48,0l.66-.06h1.48l.59-.09.15,0a6,6,0,0,1,.63-.11l.66,0h.13l.64,0a1.83,1.83,0,0,1,.68,0,2,2,0,0,0,1.61-.41,1.38,1.38,0,0,1,.52-.29l.2,0,.27-.06c.32-.06.61-.12,1-.22a2.23,2.23,0,0,1,.8,0,2,2,0,0,0,1.14-.24l.35-.21.16-.08.18-.1a1.89,1.89,0,0,0,.7-.55l.05-.06a4.28,4.28,0,0,1,.46-.42,4.34,4.34,0,0,1,.57-.29l.15-.07a2,2,0,0,0,.94-1,2.33,2.33,0,0,1,.32-.55,2.26,2.26,0,0,1,.54-.41,1.94,1.94,0,0,0,.86-1,.47.47,0,0,0,0-.16c.07-.18.13-.37.2-.54a2,2,0,0,0,.15-.84c0-.15,0-.29.06-.43a9.29,9.29,0,0,0,.22-1.35,5,5,0,0,1,.2-.91.49.49,0,0,0,0-.11l.06-.24,0-.11a3.35,3.35,0,0,1,.66-1.35,1.52,1.52,0,0,1,.78-.4,2.58,2.58,0,0,0,.57-.25,2.21,2.21,0,0,1,1.13-.42h.18a3.29,3.29,0,0,1,1.37.41,2.82,2.82,0,0,1,.62.57l.12.14.31.3a1.77,1.77,0,0,0,.6.37,2.39,2.39,0,0,1,.63.44,2.52,2.52,0,0,1,.39.61,2.91,2.91,0,0,0,.18.35,1.76,1.76,0,0,0,.25.34c.13.14.26.29.38.44l.13.14a.7.7,0,0,0,.08.1,2,2,0,0,0,1,.63,1.87,1.87,0,0,1,.7.28,3.18,3.18,0,0,1,.41.41,2,2,0,0,0,1.61.67h.36a1.63,1.63,0,0,1,.68.26,3,3,0,0,0,1.65.25h.24a2,2,0,0,0,.78-.2l.14-.07a2,2,0,0,1,.73-.24,2.33,2.33,0,0,1,.61,0l.19,0a3.1,3.1,0,0,0,.61,0l.19,0,.37,0c.26,0,.52-.06.78-.11a1.61,1.61,0,0,0,.36-.1l.18-.08.19-.09a2.84,2.84,0,0,1,.65-.26,1.79,1.79,0,0,1,.75,0,2,2,0,0,0,.94,0l1.1-.26.54-.14.26-.07.11,0a3.94,3.94,0,0,1,.49-.14,2.24,2.24,0,0,0,.75-.35,2.77,2.77,0,0,1,.61-.27,2,2,0,0,1,.76,0,2,2,0,0,0,1.13-.21,1.18,1.18,0,0,0,.19-.11,3.17,3.17,0,0,1,.68-.36l.57-.18.77-.26a2.19,2.19,0,0,1,.69-.07h.25a2,2,0,0,0,.73-.14l.41-.17.3-.12.35-.14c.21-.06.43-.14.63-.22l.13,0,.53-.2a1.88,1.88,0,0,0,.65-.39l.06-.05a2.41,2.41,0,0,1,.64-.41l.52-.17.14-.05.66-.24a2.43,2.43,0,0,1,.81-.09h.11a2,2,0,0,0,.86-.2,2.16,2.16,0,0,0,.93-.75,4.91,4.91,0,0,1,.72-.21,4.09,4.09,0,0,0,1-.34,7,7,0,0,0,1.15-.81l.14-.11.29-.23a6.29,6.29,0,0,0,.93-.93l.35-.39a10,10,0,0,0,1.13-1.45l.26-.4a8.08,8.08,0,0,0,.71-1.23,10.76,10.76,0,0,0,.57-1.73,7.89,7.89,0,0,1,.26-.78,4.18,4.18,0,0,0,.3-1.07A10.3,10.3,0,0,0,329.19,247.62Z" style="fill: #a75e33"/>
    <path d="M257.15,279.63a6.52,6.52,0,0,0-6.33,4.31,6.31,6.31,0,0,0-5.88-3.79,6,6,0,1,0,0,11.92,6.28,6.28,0,0,0,6.07-4.32,6.59,6.59,0,0,0,6.14,3.8c3.64,0,6.59-2.66,6.59-6S260.79,279.63,257.15,279.63Z" style="fill: #fff"/>
    <path d="M298,243a2,2,0,0,1-.25,2.82,2,2,0,0,1-2.81-.25,5,5,0,0,0-.67-.66,4.78,4.78,0,0,1-1.64-2.86,2,2,0,1,1,3.84-1.11,5.14,5.14,0,0,0,.29.85.3.3,0,0,1,.1.07A9,9,0,0,1,298,243Zm-5.12,4.71a4.56,4.56,0,0,1-.59-.62,2,2,0,0,0-3.13,2.49,8.5,8.5,0,0,0,1,1.1l.07.05a4.68,4.68,0,0,1,.15.57,2,2,0,0,0,3.91-.84A4.34,4.34,0,0,0,292.86,247.75Zm-46.62,47.32-.08.13a.52.52,0,0,0-.11.1,1.49,1.49,0,0,0,.17,2.11,4.87,4.87,0,0,0,1.2.71l.28.13a7.07,7.07,0,0,0,1.54.6,2.55,2.55,0,0,0,.59.07,4.72,4.72,0,0,0,1,.16h.44a6.27,6.27,0,0,0,1.2-.1,8,8,0,0,0,1.59-.43,2.6,2.6,0,0,0,.75-.47,4.82,4.82,0,0,0,.69-.39,6.46,6.46,0,0,0,1.3-1.16,1.49,1.49,0,0,0-.21-2.11l-.12-.08a.43.43,0,0,0-.1-.09,1.49,1.49,0,0,0-2.11.22,3.13,3.13,0,0,1-.62.59,3.67,3.67,0,0,0-.53.48l-.24.09a1.94,1.94,0,0,1-.47.08l-.51.07a4.76,4.76,0,0,1-1,.06c-.25,0-.48,0-.73,0h-.08l-.18,0a2.93,2.93,0,0,1-.43-.22l-.42-.23a4,4,0,0,1-.75-.51A1.5,1.5,0,0,0,246.24,295.07ZM254,282.12a5.6,5.6,0,0,1,1-.72,4.84,4.84,0,0,1,1.11-.49,4.62,4.62,0,0,1,1.11-.22h.12a5,5,0,0,1,1.09.17,5.5,5.5,0,0,1,1.11.38,5.81,5.81,0,0,1,.92.77,4.54,4.54,0,0,1,.78,1,4.15,4.15,0,0,1,.51,1.09,4.24,4.24,0,0,1,.17,1.21,4.68,4.68,0,0,1-.2,1.24,5.37,5.37,0,0,1-.48,1.18c0,.05-.06.08-.08.13a1.46,1.46,0,0,1,.05-.2,3.81,3.81,0,0,0-.24-1.9,3.6,3.6,0,0,0-1.08-1.55,3.7,3.7,0,0,0-1.73-.82,3.63,3.63,0,0,0-1.92.19,3.69,3.69,0,0,0-1.56,1.14,3.67,3.67,0,0,0-.12,4.49,6.52,6.52,0,0,1-.73-.61,3.51,3.51,0,0,1-.61-.81,2.7,2.7,0,0,1-.34-.78l-.07-.25a4.19,4.19,0,0,1-.14-1.21,5.65,5.65,0,0,1,.15-1.26,4.89,4.89,0,0,1,.44-1.19A3.85,3.85,0,0,1,254,282.12Zm-11.48,0a4.64,4.64,0,0,1,1.1-.5,5.06,5.06,0,0,1,1.17-.22h0a4.76,4.76,0,0,1,1.1.18,4,4,0,0,1,1.11.38,4.86,4.86,0,0,1,.93.76,5.17,5.17,0,0,1,.78,1,4.47,4.47,0,0,1,.51,1.09,4.57,4.57,0,0,1,.17,1.21,5.1,5.1,0,0,1-.21,1.24,4.92,4.92,0,0,1-.47,1.18,4.63,4.63,0,0,1-.73,1l-.08.07a3.65,3.65,0,0,0,.33-1,3.78,3.78,0,0,0-.24-1.89,3.63,3.63,0,0,0-1.08-1.56,3.78,3.78,0,0,0-1.73-.81,3.67,3.67,0,0,0-3.48,1.33,3.86,3.86,0,0,0-.78,1.75,3.77,3.77,0,0,0,.16,1.75,3.33,3.33,0,0,1-.39-.56,3.27,3.27,0,0,1-.34-.79l-.08-.25a5,5,0,0,1-.14-1.21,5.67,5.67,0,0,1,.59-2.44,3.88,3.88,0,0,1,.74-1A5.55,5.55,0,0,1,242.5,282.09Zm-4.91,6.39a5.21,5.21,0,0,0,.56,1.31,6.25,6.25,0,0,0,1.14,1.51,7.25,7.25,0,0,0,3.36,2,7.63,7.63,0,0,0,2,.22h.78a6,6,0,0,0,1.19-.16,7.91,7.91,0,0,0,1.86-.73A8.19,8.19,0,0,0,250,291.4a6.55,6.55,0,0,0,.59-.67,7.46,7.46,0,0,0,.54-.8,6.82,6.82,0,0,0,.61.69,7.94,7.94,0,0,0,1.54,1.19,7.66,7.66,0,0,0,1.82.77,7.34,7.34,0,0,0,2,.22h.78a6.11,6.11,0,0,0,1.2-.16,8.11,8.11,0,0,0,1.85-.73,7.8,7.8,0,0,0,1.59-1.18,7.45,7.45,0,0,0,1.24-1.62,7.8,7.8,0,0,0,.74-1.82,7.5,7.5,0,0,0,.31-1.94,7,7,0,0,0-.27-2,7.4,7.4,0,0,0-.82-1.83,8,8,0,0,0-1.24-1.54,7.81,7.81,0,0,0-1.5-1.21,7.36,7.36,0,0,0-1.85-.67,7.44,7.44,0,0,0-1.86-.26h-.18a7.74,7.74,0,0,0-1.85.34,8,8,0,0,0-1.76.78,8.51,8.51,0,0,0-1.54,1.11,7,7,0,0,0-.62.7,9.31,9.31,0,0,0-.54.8,6.86,6.86,0,0,0-.8-.91,7.32,7.32,0,0,0-1.5-1.2,7,7,0,0,0-1.85-.68,7.65,7.65,0,0,0-1.86-.26h-.18a7.75,7.75,0,0,0-1.84.34,7.44,7.44,0,0,0-1.76.79,7.91,7.91,0,0,0-1.54,1.1,7,7,0,0,0-1.25,1.64,7.67,7.67,0,0,0-.71,1.85,8.24,8.24,0,0,0-.24,1.94,7.08,7.08,0,0,0,.25,2Zm-12,4.55a6.72,6.72,0,0,0-.06-1.16c0-.16,0-.37,0-.4a4.16,4.16,0,0,1,.21-.48,8.21,8.21,0,0,0,.43-1c.07-.21.14-.42.2-.62a9.67,9.67,0,0,1,.33-1c.11-.24.24-.48.37-.71s.31-.58.46-.89a14.72,14.72,0,0,1,.85-1.59,8.35,8.35,0,0,0,.54-1.08,4,4,0,0,1,.32-.63,3.32,3.32,0,0,1,.36-.3,5.92,5.92,0,0,0,1.14-1.08c.26-.34.48-.68.71-1s.31-.47.48-.69a10,10,0,0,0,.81-1.35c.1-.19.2-.38.31-.55l.27-.42a8.18,8.18,0,0,0,1-1.75,5.6,5.6,0,0,0,.17-.54h.2c.42,0,.85,0,1.28,0l.36,0a6.23,6.23,0,0,0,.94.08h.24a3.83,3.83,0,0,0,1.57-.48h.09a4.36,4.36,0,0,0,1.26.08,3.12,3.12,0,0,1,.43,0,7.33,7.33,0,0,0,1,0,4,4,0,0,1,.49,0c.34,0,.66,0,1,0l.9-.15.54-.09.64,0,.81-.07.69-.07.74-.09a4,4,0,0,0,1.44-.46l.11-.06.6-.07.58-.08.25,0a4.55,4.55,0,0,0,1.27.12l.65,0,.76-.06a5.49,5.49,0,0,0,1.08-.18l.32-.06a4.78,4.78,0,0,1,.53,0,6.34,6.34,0,0,0,.88,0,6.86,6.86,0,0,0,1-.09l.2,0h0a3.81,3.81,0,0,0,1.57.46l.64,0c.25,0,.49,0,.73,0a4,4,0,0,0,1.55-.24l.1,0,.18.05a6,6,0,0,0,1.23.16c.43,0,.76-.05,1.06-.09a3.29,3.29,0,0,1,.44,0h1.36c.06.09.11.18.17.26s.16.25.22.37l.13.28a8.37,8.37,0,0,0,1,1.76,9.33,9.33,0,0,0,1.05,1.1,6.2,6.2,0,0,1,.45.44c.3.3.62.59.95.88l.54.47c.18.17.35.36.52.54a10.94,10.94,0,0,0,.83.84c.08.08.22.27.35.44a7.88,7.88,0,0,0,.86,1,5.11,5.11,0,0,0,1.31.86,2.06,2.06,0,0,0,.29.13c.13.14.28.36.45.59s.42.58.65.85a6.76,6.76,0,0,1,.51.7c.17.25.34.5.52.74.35.47.66.93.95,1.4.16.27.34.53.52.78a4.8,4.8,0,0,1,.39.61,4.65,4.65,0,0,1,.16.7,7.52,7.52,0,0,0,.16.85,6.85,6.85,0,0,1,.2,1.46,6.15,6.15,0,0,1-.05,1.41c0,.22-.07.44-.09.67a3.77,3.77,0,0,1-.14.73,4.2,4.2,0,0,1-.48.7l-.37.48a9,9,0,0,0-.53.86,4.48,4.48,0,0,1-.23.39l-.23.08a5.79,5.79,0,0,0-1.33.61,7.26,7.26,0,0,0-.89.73c-.12.11-.31.29-.37.33l-.57.28a7.3,7.3,0,0,1-1,.45,4.49,4.49,0,0,1-.76.16c-.36.07-.73.13-1.09.23a4.38,4.38,0,0,1-.67.08,7.58,7.58,0,0,0-1.23.15,8.33,8.33,0,0,0-1.18.36,3.49,3.49,0,0,1-.67.21,9.21,9.21,0,0,0-1.21.31,4.12,4.12,0,0,1-.69.19,7.86,7.86,0,0,1-.84,0,10.86,10.86,0,0,0-1.14,0,7.3,7.3,0,0,1-.81,0,11.42,11.42,0,0,0-1.17,0c-.32,0-.64,0-1,0s-.68,0-1,0-.75.06-1.12.1a6.4,6.4,0,0,1-.87.08l-.85,0-1.15,0c-.35,0-.7,0-1.05,0-.66,0-1.32,0-2,0l-1,0c-.39,0-.79,0-1.18.05s-.56,0-.85,0-.6,0-.9-.05-.75,0-1.13,0-.49-.05-.74-.08a8.21,8.21,0,0,0-1.29-.12,11.71,11.71,0,0,0-1.29.08c-.8.08-1.55.1-2.15.19-.22,0-.45.07-.65.08s-.31-.08-.46-.12a5.65,5.65,0,0,0-1.59-.29,6.89,6.89,0,0,0-1.35.11,3.8,3.8,0,0,1-.67.07,10.63,10.63,0,0,0-1.13,0,8,8,0,0,1-.85,0c-.35,0-.72-.12-1.12-.2l-.8-.15-.45-.07c-.51-.09-1-.17-1.41-.28a3.58,3.58,0,0,1-.56-.3,7.78,7.78,0,0,0-1.05-.56,9.46,9.46,0,0,1-1.34-.77l-.41-.27a5.48,5.48,0,0,1-.94-.68,6,6,0,0,1-.91-1.2c-.08-.16-.18-.32-.28-.48a5.13,5.13,0,0,1-.45-.93,6.71,6.71,0,0,1-.16-1.26l0-.44a8.39,8.39,0,0,1,0-1.11Zm-29.75-19a5.81,5.81,0,0,0,1.07.14c.3,0,.6,0,.9,0h.6a4.14,4.14,0,0,0,1.46-.31l.11-.05.4,0,.82,0,.14.05a4.49,4.49,0,0,0,1.46.23,3.83,3.83,0,0,0,1.08-.22l.27,0A58.33,58.33,0,0,0,216,272.7a27.18,27.18,0,0,0,5.26-1.82,29.64,29.64,0,0,1,2.94-1.14.52.52,0,0,0,.07.11,5.78,5.78,0,0,0,.78,1.31,1.09,1.09,0,0,1,.13.17.93.93,0,0,0,0,.13,3.56,3.56,0,0,0,.93,1.67,4.2,4.2,0,0,0,1.5.87l.19.06a9.43,9.43,0,0,0,1.61.82,3.73,3.73,0,0,0,.67.18c-.11.19-.26.43-.42.67l-.33.48c-.17.28-.33.58-.5.89a5.24,5.24,0,0,1-.45.77c-.21.29-.41.59-.62.9s-.34.53-.53.77a3.67,3.67,0,0,1-.36.29,5.91,5.91,0,0,0-1.22,1.2,7.43,7.43,0,0,0-.75,1.39,5.23,5.23,0,0,1-.29.58,20.07,20.07,0,0,0-1.08,2c-.1.22-.22.44-.33.65s-.38.69-.54,1.05a13.16,13.16,0,0,0-.49,1.4l-.17.51a4,4,0,0,1-.2.42,6.47,6.47,0,0,0-.59,1.58,5.35,5.35,0,0,0,0,1.69,2.69,2.69,0,0,1,0,.49l0,.38a11.21,11.21,0,0,0,0,1.75l0,.4a10.25,10.25,0,0,0,.3,2.06,4.76,4.76,0,0,0,.19.57c-.2,0-.4,0-.6,0a8.77,8.77,0,0,0-1.61-.06c-.53,0-1,.09-1.56.15l-.91.09c-.61.06-1.22.13-1.82.21l-.65.08c-.32,0-.64.06-1,.08-.5,0-1,.07-1.51.14a9.6,9.6,0,0,0-1.59.42,6.8,6.8,0,0,1-.81.24c-.31.05-.62.08-.93.11s-1,.1-1.53.21c-.31.06-.63.11-.95.15-.49.07-1,.14-1.49.25a2.33,2.33,0,0,0-1.89,2.44c.15,2.26,2.87,2.48,4.33,2.6.39,0,.82,0,1.28,0l1.22,0c.41,0,.84,0,1.29.05l1.19,0c.42,0,.86,0,1.32.06l1.15,0c.31,0,.62,0,.95,0h.74c.26,0,.51,0,.78,0s.7.05,1,.08.93.09,1.41.11.66.06,1,.1a14.35,14.35,0,0,0,1.47.15c.36,0,.72,0,1.09.07s.91.08,1.37.09h.24a10.46,10.46,0,0,0,1.33-.1l.91-.07c.25,0,.57.07.91.12a11,11,0,0,0,1.54.19c.48,0,1,0,1.45,0,.29,0,.58,0,.87,0H232a4,4,0,0,0,.49,0l.34.06.66.13c.46.09,1,.2,1.55.26a9.82,9.82,0,0,0,1.43,0c.26,0,.51,0,.77,0a7.54,7.54,0,0,0,1.49-.1,4.6,4.6,0,0,1,.63-.07h0l.44.11a5.54,5.54,0,0,0,1.66.3h.06a8.9,8.9,0,0,0,1.26-.13,5.89,5.89,0,0,1,.74-.08c.4,0,.8,0,1.2-.08a6.83,6.83,0,0,1,.79-.06c.23,0,.46,0,.75.08a11.37,11.37,0,0,0,1.29.12c.3,0,.59,0,.88,0s.77.05,1.16.06a9.65,9.65,0,0,0,1.08-.05,4.77,4.77,0,0,0,1,.12h.07a6.89,6.89,0,0,0,1.27-.13c.6,0,1.21,0,1.81,0l.65,0a10.48,10.48,0,0,0,1.2.08,12.73,12.73,0,0,0,1.46-.1c.31,0,.63-.06.95-.06s.77,0,1.15,0c.76,0,1.54,0,2.32.09a13.25,13.25,0,0,0,1.44.09,10.06,10.06,0,0,0,1.58-.17,6.26,6.26,0,0,1,.95-.1c.33,0,.66,0,1,0s.79,0,1.19,0h1.11l1.51,0h.24l.86,0,1,0h.39a12.82,12.82,0,0,0,1.49-.14,9.33,9.33,0,0,1,1-.1,7.9,7.9,0,0,1,.85.07,12.65,12.65,0,0,0,1.31.09h.22l2.2-.09h.24c.46,0,.92-.05,1.36-.08l1.09-.07c.36,0,.72,0,1.07,0s.92,0,1.38,0,.95-.07,1.42-.13.68-.09,1-.11a8.19,8.19,0,0,1,1,0,11.91,11.91,0,0,0,1.46,0,12.24,12.24,0,0,0,1.52-.2,7.44,7.44,0,0,1,.91-.14,11.89,11.89,0,0,0,1.48-.19c.32-.05.63-.1.94-.13h.11a5.83,5.83,0,0,1,.73.06,7.78,7.78,0,0,0,1.63.07,8,8,0,0,0,1.72-.36,4.21,4.21,0,0,1,.69-.17,8,8,0,0,1,1,0,12.15,12.15,0,0,0,1.48,0c.36,0,.72,0,1.07-.05a12.31,12.31,0,0,0,1.38-.06,8.75,8.75,0,0,0,1.77-.41,5.66,5.66,0,0,1,.63-.18c.42,0,.81-.07,1.17-.09s.92-.05,1.32-.1c2.11-.32,4.11-.61,4.18-2.67a2.31,2.31,0,0,0-1.87-2.33,8.83,8.83,0,0,0-1.47-.14c-.35,0-.74,0-1.17-.08a7.47,7.47,0,0,1-.74-.15,13.9,13.9,0,0,0-1.73-.32c-.3,0-.61-.07-.93-.11-.48-.07-1-.14-1.53-.18a9.4,9.4,0,0,0-1.58.06,6.32,6.32,0,0,1-.76.06h-.14a7.84,7.84,0,0,1-.78-.15,9.35,9.35,0,0,0-1.66-.28l-1-.07c-.47,0-.94-.07-1.43-.09a12,12,0,0,0-1.46,0c-.26,0-.53,0-.8,0h-.2c-.45,0-.9,0-1.35,0s-.74,0-1.11,0-.65-.05-1-.09-1-.11-1.46-.13l-1.08,0c-.45,0-.91-.06-1.37-.07l-1.09-.05-1.36-.05h-.19c-.42,0-.84,0-1.27.08a6.12,6.12,0,0,1-1,.05h-.2A2.34,2.34,0,0,0,283,297a6.51,6.51,0,0,0,.45-1.91c0-.16,0-.31.07-.46a10.53,10.53,0,0,0,.11-2.38,12.15,12.15,0,0,0-.33-2.3,3.7,3.7,0,0,1-.09-.48,6.89,6.89,0,0,0-.46-1.73,7.76,7.76,0,0,0-.82-1.36c-.12-.17-.24-.33-.35-.51a18.5,18.5,0,0,0-1.2-1.78c-.13-.17-.25-.36-.38-.54a10.42,10.42,0,0,0-.83-1.13c-.15-.17-.28-.36-.41-.54a9.37,9.37,0,0,0-.86-1.07,4.9,4.9,0,0,0-1.44-1l-.27-.13a3.62,3.62,0,0,1-.38-.47,7.62,7.62,0,0,0-.89-1,8.42,8.42,0,0,1-.59-.61c-.25-.26-.49-.51-.74-.75l-.63-.56c-.24-.22-.49-.43-.71-.66l-.6-.58a5.61,5.61,0,0,1-.6-.6l-.16-.25a3.55,3.55,0,0,0,1.65-.83l0,0,.19,0c.31-.06.62-.13.92-.21h.11a3.61,3.61,0,0,0,1.73-.17,8.49,8.49,0,0,0,1.13-.56l.36-.2a4.44,4.44,0,0,0,1.25-1,.83.83,0,0,0,.09-.11l.26-.13a4.52,4.52,0,0,0,1.29-.81,4,4,0,0,0,.9-1.34,3.56,3.56,0,0,0,1.28-1.1,5,5,0,0,0,.63-1.4,1.55,1.55,0,0,1,.07-.23,4.46,4.46,0,0,0,.36-1.55,1.09,1.09,0,0,1,0-.19,12,12,0,0,0,.26-1.59,2.9,2.9,0,0,1,.14-.57c.05-.18.1-.36.14-.52a.74.74,0,0,1,0-.14,4,4,0,0,0,.9-.41l.12-.07.16,0,.15.17a6,6,0,0,0,.62.62,4.84,4.84,0,0,0,1,.64l.09.05,0,0a4.43,4.43,0,0,0,.78,1.2c.12.12.23.25.34.38a9.78,9.78,0,0,0,.68.75,3.6,3.6,0,0,0,1.65.85l0,0a4,4,0,0,0,1.24,1.07,15.17,15.17,0,0,1,3.79.86c.46,0,1,0,1.45,0h.11a3.74,3.74,0,0,0,1.56-.47l0,0h.12a4.87,4.87,0,0,0,1.28,0l.5-.05,1-.13a4.36,4.36,0,0,0,1.3-.47l0,0a3.61,3.61,0,0,0,1.6,0l1.42-.34.86-.23.56-.15a4.67,4.67,0,0,0,1.17-.51l.07-.05a3.81,3.81,0,0,0,1.61-.08,4.32,4.32,0,0,0,1.2-.59l.11-.09.81-.26.47-.16h.14a4.26,4.26,0,0,0,1.43-.18l.83-.32.51-.2.79-.29.58-.21a3.87,3.87,0,0,0,1.28-.78l.09-.08.45-.15.64-.22h.12a4.12,4.12,0,0,0,1.5-.22c.27-.1.54-.22.81-.34l.53-.23a2.12,2.12,0,0,0,.8-.55,5.57,5.57,0,0,0,1.17-.45,9.62,9.62,0,0,0,1.47-1l.35-.28a8.18,8.18,0,0,0,1.29-1.26l.3-.34a14.1,14.1,0,0,0,1.4-1.77l.17-.27a10.49,10.49,0,0,0,.95-1.69,14,14,0,0,0,.72-2.12,4.66,4.66,0,0,1,.16-.49,6.44,6.44,0,0,0,.44-1.65,12,12,0,0,0,0-1.69c0-.16,0-.33,0-.5a13.38,13.38,0,0,0-.16-1.65l-.07-.48c0-.19,0-.38-.06-.58a10.5,10.5,0,0,0-.21-1.53,8,8,0,0,0-.49-1.39,5.83,5.83,0,0,1-.23-.58,5.07,5.07,0,0,1-.13-.56,8.24,8.24,0,0,0-.39-1.46l-.18-.44c-.19-.49-.39-1-.63-1.47a5.8,5.8,0,0,0-.92-1.29,3.33,3.33,0,0,1-.31-.37c-.1-.18-.18-.37-.27-.56a7.71,7.71,0,0,0-.66-1.26,6.54,6.54,0,0,0-.94-1.11,4.07,4.07,0,0,1-.4-.43c-.05-.07-.14-.27-.22-.42a5.85,5.85,0,0,0-.8-1.35c-.43-.51-.88-1-1.35-1.52a6,6,0,0,0-1.14-.94c-.17-.12-.35-.25-.44-.33a5.12,5.12,0,0,1-.44-.49,11.92,11.92,0,0,0-.94-1l-.23-.21c-.42-.37-.85-.75-1.3-1.11a8.57,8.57,0,0,0-1.15-.75c-.19-.11-.38-.21-.55-.33s-.24-.22-.39-.37a6.25,6.25,0,0,0-1.12-1c-.55-.37-1.13-.72-1.71-1.07s-1.07-.6-1.62-.9l-.14-.07a8.85,8.85,0,0,0-1.24-.53,5.53,5.53,0,0,1-.61-.24,4.85,4.85,0,0,1-.46-.3,6.87,6.87,0,0,0-1.27-.75,8.67,8.67,0,0,0-1.3-.41,6.52,6.52,0,0,1-.63-.18c-.62-.23-1.25-.44-1.89-.65-.19-.06-.37-.16-.56-.24a6.58,6.58,0,0,0-1.31-.53c-.44-.13-.9-.23-1.35-.33l-.6-.14-1-.22-.88-.2a7.51,7.51,0,0,0-1.35-.18,3.28,3.28,0,0,1-.56-.06c-.34-.07-.66-.15-1-.23l-.89-.22a6.36,6.36,0,0,1-.61-.23,6.28,6.28,0,0,0-1.21-.44l-1-.22-.88-.2a11.76,11.76,0,0,0-1.23-.21,4.55,4.55,0,0,1-.66-.1l-.35-.09-1.49-.38c-.29-.08-.57-.18-.85-.27s-.64-.21-1-.3a11.17,11.17,0,0,0-1.15-.24,5.57,5.57,0,0,1-.71-.14,3.54,3.54,0,0,1-.44-.22,6.57,6.57,0,0,0-1.29-.58l-.88-.25-.95-.27a6.59,6.59,0,0,0-1.3-.24,4.69,4.69,0,0,1-.59-.09q-.35-.12-.69-.27c-.35-.15-.72-.29-1.1-.41-.19-.07-.44-.19-.7-.32s-.65-.31-1-.44l-.82-.29a8,8,0,0,1-.93-.34,6.59,6.59,0,0,1-.79-.41c-.29-.16-.57-.31-.87-.45a10,10,0,0,0-1.07-.43,4.36,4.36,0,0,1-.68-.27,6.2,6.2,0,0,1-.69-.44c-.3-.2-.6-.4-.92-.58a10.25,10.25,0,0,0-1.06-.5,6.13,6.13,0,0,1-.67-.32,4.28,4.28,0,0,1-.54-.41,7.73,7.73,0,0,0-1-.75,8.73,8.73,0,0,0-1.2-.59,3.29,3.29,0,0,1-.55-.25,8.22,8.22,0,0,1-.67-.49c-.3-.23-.59-.46-.89-.66a5.66,5.66,0,0,1-.6-.47,9,9,0,0,0-.94-.72c-.31-.22-.63-.41-.95-.6l-.71-.44c-.28-.19-.57-.36-.87-.53l-.72-.43c-.3-.21-.62-.42-.94-.62l-.67-.42c-.34-.23-.7-.44-1.07-.64l-.62-.35c-.18-.12-.36-.24-.53-.37a12.27,12.27,0,0,0-1.15-.72,14.66,14.66,0,0,0-1.37-.62l-.9-.4a14.78,14.78,0,0,0-1.51-.61,11.43,11.43,0,0,0-1.6-.38l-.47-.09-.42-.15a5.72,5.72,0,0,0-1.67-.45,5.08,5.08,0,0,0-1.74.22,2.69,2.69,0,0,1-.42.09,3.93,3.93,0,0,1-.48,0,6.07,6.07,0,0,0-1.69,0,18.75,18.75,0,0,0-2.1.5,2.18,2.18,0,0,0-.75.41l-.87.32-.29.12a2.71,2.71,0,0,1-.43.1,5.68,5.68,0,0,0-1.75.6,20.65,20.65,0,0,0-1.85,1.18,7.25,7.25,0,0,0-1.09,1,5,5,0,0,1-.46.46,4.11,4.11,0,0,1-.42.24,6.08,6.08,0,0,0-1.33.91,11.13,11.13,0,0,0-.9,1,6.3,6.3,0,0,1-.48.55c-.15.15-.33.28-.5.42a8.88,8.88,0,0,0-1,.91,5.06,5.06,0,0,0-.88,1.38l-.19.36c-.11.11-.29.26-.48.42a8.3,8.3,0,0,0-1,.93l-.5.57c-.27.31-.54.61-.8.92s-.39.42-.59.62-.52.53-.76.81-.48.6-.7.91-.32.44-.49.63a9,9,0,0,0-.77,1.08,3.24,3.24,0,0,1-.34.5l-.57.65c-.23.27-.45.53-.68.77s-.73.68-1.07,1l-.27.24a4.75,4.75,0,0,1-.58.39,11.43,11.43,0,0,0-1,.71,4.21,4.21,0,0,1-.64.41c-.31.19-.66.39-1,.66a10.17,10.17,0,0,0-.93.82,4.69,4.69,0,0,1-.57.51,8.48,8.48,0,0,1-.81.51c-.3.19-.6.37-.89.57l-1.69,1.12c-.26.16-.53.31-.8.46s-.64.37-1,.57a6.68,6.68,0,0,0-1.08.86,6,6,0,0,1-.52.43,5.69,5.69,0,0,1-.63.29,8.38,8.38,0,0,0-1.22.59,5.78,5.78,0,0,0-1.22,1.05,3.54,3.54,0,0,1-.34.34c-.08,0-.33.12-.49.17a6.39,6.39,0,0,0-1.45.6c-.26.16-.53.29-.79.43s-.7.37-1,.57a12.18,12.18,0,0,0-1,.73c-.22.16-.43.32-.65.46s-.69.45-1,.68-.47.33-.71.48l-.77.46c-.35.2-.69.4-1,.61a12.12,12.12,0,0,0-1.08.81c-.2.16-.39.32-.59.46l-.46.3c-.45.29-.89.58-1.3.87a3.88,3.88,0,0,1-.48.22,6.82,6.82,0,0,0-1.36.73,6.25,6.25,0,0,0-1.12,1.14,2.81,2.81,0,0,1-.31.37c-.37.28-.73.58-1.09.88l-.5.41a6.19,6.19,0,0,1-.59.41,11.67,11.67,0,0,0-1.09.79l-.53.45c-.35.3-.7.59-1,.9a9.26,9.26,0,0,0-.93,1c-.15.18-.29.37-.45.53l-.08.07c-.47.46-.94.92-1.39,1.4a4,4,0,0,1-.41.3,5.79,5.79,0,0,0-1.24,1c-.31.36-.6.75-.89,1.13-.13.19-.26.37-.4.55-.35.44-.66.9-1,1.35l-.26.39c-.13.18-.25.36-.38.53a13.63,13.63,0,0,0-.85,1.25,7.43,7.43,0,0,0-.62,1.47,4.08,4.08,0,0,1-.21.56c-.26.55-.44,1.08-.61,1.55a5.17,5.17,0,0,1-.18.51,15.25,15.25,0,0,0-.46,1.67l-.09.44a2.27,2.27,0,0,1-.19.34,4.52,4.52,0,0,0-.69,1.87,8.19,8.19,0,0,0,.05,1.75c0,.2,0,.4.06.59a15.24,15.24,0,0,0,.29,2.32,16.28,16.28,0,0,0,.58,2.25,12.78,12.78,0,0,0,.76,1.61c.09.15.17.3.25.45a10.9,10.9,0,0,0,.93,1.47l.36.51a17.37,17.37,0,0,0,1.25,1.7,2.14,2.14,0,0,0,.92.63l.38.34s0,0,0,.05a3.58,3.58,0,0,0,1.32,1.56c.44.26,1,.53,1.53.8a3.51,3.51,0,0,0,1.88.26h.06l.07,0c.41.16.81.31,1.19.42a2.53,2.53,0,0,1,.23.12,4.8,4.8,0,0,0,1.29.56,5.32,5.32,0,0,0,1.3.11h.24l.17.09a4.44,4.44,0,0,0,1.38.49,9.42,9.42,0,0,0,1.11.07,3.54,3.54,0,0,1,.46,0l.53.08a8,8,0,0,0,1,.15c.33,0,.65,0,1,0a3.89,3.89,0,0,1,.48,0,5,5,0,0,0,1.35-.14l.18,0,.44.07c.26,0,.51.08.76.1l.12.05a3.69,3.69,0,0,0,1.47.42,4.61,4.61,0,0,0,1.29-.13l.19,0A2.63,2.63,0,0,1,195.81,274.06Zm-1.44-4.23-.1,0a4,4,0,0,0-1.5-.43c-.16,0-.31,0-.47-.06a7.48,7.48,0,0,0-1-.13,4.64,4.64,0,0,0-1.3.14l-.16.05c-.3,0-.61,0-.92,0a4.64,4.64,0,0,1-.53,0,3.67,3.67,0,0,1-.53-.09c-.27,0-.55-.1-.84-.13l-.84,0a3.77,3.77,0,0,1-.47,0l-.15-.07a4.76,4.76,0,0,0-1.27-.48,5.77,5.77,0,0,0-1.11-.08H183l-.18-.1a5.5,5.5,0,0,0-1.1-.5c-.33-.1-.63-.21-.94-.33l-.31-.11a3.65,3.65,0,0,0-1.68-.18,5.85,5.85,0,0,1-.56-.29,3.72,3.72,0,0,0-1-1.27,5.26,5.26,0,0,1-.75-.71,2.23,2.23,0,0,0-.69-.54l-.45-.65-.07-.1-.34-.48a9.41,9.41,0,0,1-.62-1c-.09-.18-.19-.36-.29-.54a7.23,7.23,0,0,1-.48-1,12,12,0,0,1-.42-1.64,12.86,12.86,0,0,1-.22-1.66c0-.3,0-.61-.08-.92a6.89,6.89,0,0,1,0-.72c0-.09.1-.18.15-.27a5.28,5.28,0,0,0,.62-1.42c.05-.19.09-.37.13-.56a8.56,8.56,0,0,1,.3-1.12l.21-.6c.14-.39.26-.76.41-1.08a8.37,8.37,0,0,0,.42-1.07,3.71,3.71,0,0,1,.25-.65,10.77,10.77,0,0,1,.61-.89c.15-.21.31-.42.45-.63l.28-.42c.26-.37.52-.76.8-1.12.16-.2.31-.41.47-.63s.44-.6.68-.88a4.27,4.27,0,0,1,.41-.29,6.68,6.68,0,0,0,1.12-.91c.41-.44.84-.86,1.27-1.28l.07-.07a11,11,0,0,0,.79-.88,5.35,5.35,0,0,1,.49-.57c.29-.26.6-.52.9-.77l.58-.49a6.58,6.58,0,0,1,.63-.45,10.78,10.78,0,0,0,.95-.67l.54-.44,1-.79a6.18,6.18,0,0,0,1-1.09,2.46,2.46,0,0,1,.3-.35,3.75,3.75,0,0,1,.49-.24,6,6,0,0,0,1.27-.66c.38-.27.78-.53,1.19-.8l.47-.31c.32-.21.63-.46.94-.71a6.57,6.57,0,0,1,.67-.51c.29-.18.58-.36.88-.53l.87-.52c.3-.19.6-.4.9-.61s.52-.36.8-.53.67-.45,1-.7.44-.34.68-.49l.79-.43c.34-.18.69-.36,1-.56a3.77,3.77,0,0,1,.49-.17,6.84,6.84,0,0,0,1.46-.6A6.15,6.15,0,0,0,203.8,226c.12-.12.28-.3.34-.34a4.85,4.85,0,0,1,.63-.29,8.88,8.88,0,0,0,1.25-.61,7.18,7.18,0,0,0,1.13-.9,4.36,4.36,0,0,1,.5-.41c.25-.16.51-.3.76-.45s.7-.39,1-.61l1.74-1.16.72-.45c.36-.21.72-.43,1.06-.67a9.88,9.88,0,0,0,1.09-.94,3.59,3.59,0,0,1,.5-.46,6.05,6.05,0,0,1,.63-.4,9.35,9.35,0,0,0,1.17-.77,4.7,4.7,0,0,1,.59-.4,8.06,8.06,0,0,0,1.19-.85l.26-.23c.42-.37.86-.77,1.29-1.21.28-.29.56-.61.85-.94l.5-.58a6.45,6.45,0,0,0,.8-1.1,4.44,4.44,0,0,1,.37-.54c.25-.29.48-.6.72-.92a6,6,0,0,1,.49-.64c.18-.21.38-.41.58-.62s.52-.53.76-.82l.77-.87.52-.59a4.53,4.53,0,0,1,.48-.43,8.27,8.27,0,0,0,1-.88,5.61,5.61,0,0,0,.84-1.33c.07-.13.16-.31.17-.34a4.86,4.86,0,0,1,.55-.47A8.47,8.47,0,0,0,230,203c.25-.25.48-.53.71-.8a7.9,7.9,0,0,1,.54-.6,3.3,3.3,0,0,1,.46-.27,6.83,6.83,0,0,0,1.13-.73,10.54,10.54,0,0,0,.82-.81,4.81,4.81,0,0,1,.47-.46,17.36,17.36,0,0,1,1.47-.93,2.72,2.72,0,0,1,.5-.13,8.07,8.07,0,0,0,1.1-.3l.31-.12a5.26,5.26,0,0,1,1-.35,2.06,2.06,0,0,0,1.11-.5c.27-.07.54-.12.78-.16a2.75,2.75,0,0,1,.55,0,7,7,0,0,0,1.06,0,6.31,6.31,0,0,0,1.27-.23l.32-.09a3.67,3.67,0,0,1,.45.16,6.43,6.43,0,0,0,1.12.36l.54.1c.39.08.76.15,1,.24s.71.28,1.09.45l.45.21.57.24c.34.14.68.28,1,.45a6.54,6.54,0,0,1,.71.45c.25.18.5.35.76.51l.75.43c.28.16.55.31.8.47s.5.33.75.48.54.34.8.52.67.42,1,.61l.63.38c.28.19.59.38.89.56s.51.3.77.48a4.71,4.71,0,0,1,.56.44c.29.24.61.51,1,.77a7,7,0,0,1,.62.45c.32.25.64.5,1,.72a7.57,7.57,0,0,0,1.25.62,3.36,3.36,0,0,1,.56.26,3.9,3.9,0,0,1,.51.4,10.17,10.17,0,0,0,1.1.81,8.94,8.94,0,0,0,1.18.57,4.68,4.68,0,0,1,.64.3c.21.12.41.25.61.39a11.77,11.77,0,0,0,1.1.68,9.56,9.56,0,0,0,1.26.53,4.32,4.32,0,0,1,.63.24c.22.1.44.22.65.34.38.21.77.42,1.17.6s.84.32,1.27.47l.66.23c.21.08.41.18.61.28a10,10,0,0,0,1.29.55c.27.09.52.19.77.3s.69.28,1,.39a7.36,7.36,0,0,0,1.41.26,3.44,3.44,0,0,1,.51.08l1.08.31.78.22a3.88,3.88,0,0,1,.46.23,6.11,6.11,0,0,0,1.32.58,9.36,9.36,0,0,0,1.2.26,5.89,5.89,0,0,1,.71.13l.73.24c.37.12.74.24,1.12.34l1.53.4.35.09a8.56,8.56,0,0,0,1.18.2,6.33,6.33,0,0,1,.74.12l1,.22.88.2c.11,0,.32.12.52.2a8.27,8.27,0,0,0,1.3.47l.85.21,1,.25a7.09,7.09,0,0,0,1.28.16,4.44,4.44,0,0,1,.64.07l2.54.58c.38.08.76.17,1.12.27a5,5,0,0,1,.61.26,9.47,9.47,0,0,0,1.08.46c.58.19,1.16.37,1.72.59.35.13.72.22,1.08.32a4.87,4.87,0,0,1,.67.19,4.1,4.1,0,0,1,.48.31,7.27,7.27,0,0,0,1.08.67c.33.15.66.28,1,.4a6.2,6.2,0,0,1,.68.28l.15.08c.49.26,1,.52,1.44.8s1,.62,1.55,1a3.36,3.36,0,0,1,.41.39,7.29,7.29,0,0,0,.93.84,9.51,9.51,0,0,0,1,.59,5.64,5.64,0,0,1,.58.36c.39.31.76.64,1.13,1l.24.22a6.37,6.37,0,0,1,.55.58c.22.25.44.5.67.73a7.42,7.42,0,0,0,1,.79,4.51,4.51,0,0,1,.43.33c.41.44.82.89,1.2,1.35a4.07,4.07,0,0,1,.23.44,6,6,0,0,0,.65,1.14,7.53,7.53,0,0,0,.8.9,5.92,5.92,0,0,1,.4.44,5.48,5.48,0,0,1,.33.65,10.4,10.4,0,0,0,.46,1,6.44,6.44,0,0,0,.82,1.08c.1.12.25.29.28.34.19.38.34.77.49,1.16l.19.47a4.26,4.26,0,0,1,.16.66,8.48,8.48,0,0,0,.26,1,8.63,8.63,0,0,0,.37,1,4.94,4.94,0,0,1,.25.67,7.08,7.08,0,0,1,.12.93c0,.26,0,.51.07.76l.08.55a8.42,8.42,0,0,1,.12,1.12l0,.6a9.51,9.51,0,0,1,0,1.07,3.86,3.86,0,0,1-.19.6,8.6,8.6,0,0,0-.31.94,9.38,9.38,0,0,1-.49,1.47,6.8,6.8,0,0,1-.6,1l-.19.29a8.14,8.14,0,0,1-.93,1.18l-.39.44a4.2,4.2,0,0,1-.66.67l-.44.35a5.27,5.27,0,0,1-.82.6,3.31,3.31,0,0,1-.53.15,7.67,7.67,0,0,0-1,.31,2.13,2.13,0,0,0-1,.79l-.06,0h-.11a4.18,4.18,0,0,0-1.48.21l-.67.24-.66.22a4.17,4.17,0,0,0-1.27.78l-.09.08-.5.18c-.22.08-.45.17-.68.24s-.52.2-.78.3l-.43.18h-.14a4.47,4.47,0,0,0-1.39.16l-.63.21-.7.23a4.77,4.77,0,0,0-1.18.59h0a3.82,3.82,0,0,0-1.51.07,5,5,0,0,0-1.14.5.55.55,0,0,0-.14.1c-.22,0-.43.11-.65.18l-.78.21-1.06.25-.08,0a4.15,4.15,0,0,0-1.54,0,4.8,4.8,0,0,0-1.23.47l-.15.07c-.21,0-.42.06-.63.08l-.58.07-.28,0a4.35,4.35,0,0,0-1.11,0,4.09,4.09,0,0,0-1.46.47l-.05,0-.8,0h0a3.57,3.57,0,0,0-1.5-.52,4.83,4.83,0,0,0-.65,0,5.49,5.49,0,0,0-.64-.63,3.8,3.8,0,0,0-1.44-.66c-.06-.07-.12-.15-.19-.22s-.3-.36-.45-.52a1,1,0,0,1-.07-.15,4.2,4.2,0,0,0-.8-1.2,4.52,4.52,0,0,0-1.18-.83l-.14-.06c-.09-.08-.16-.17-.24-.25a4.61,4.61,0,0,0-1.08-1,5.23,5.23,0,0,0-2.21-.7,3.89,3.89,0,0,0-2.57.69,1.8,1.8,0,0,1-.21.08,3.21,3.21,0,0,0-1.65,1,5.36,5.36,0,0,0-1,2.14q0,.15-.09.33a6.38,6.38,0,0,0-.29,1.32,7.9,7.9,0,0,1-.17,1.08,5,5,0,0,0-.11.79.39.39,0,0,0,0,.16c-.09.21-.17.45-.25.69l0,.1a3.56,3.56,0,0,0-1.68,1.89l-.07,0a6,6,0,0,0-.85.45,5.2,5.2,0,0,0-.85.75l-.12.14c-.17.08-.33.18-.5.27l-.31.18h0a3.88,3.88,0,0,0-1.54.1c-.25.07-.49.12-.75.17l-.53.11a3.42,3.42,0,0,0-1.34.68,4.2,4.2,0,0,0-1.27-.06c-.21,0-.42,0-.63,0l-.73,0c-.29,0-.59.08-.88.14a4.2,4.2,0,0,1-.47.08c-.47,0-.93,0-1.38,0s-.64.05-.95.09a2,2,0,0,1-.41.05h0a1.65,1.65,0,0,1-.32-.06,6.46,6.46,0,0,0-1.06-.16,4.19,4.19,0,0,0-1.51.26l-.08,0-.78,0h-.32l-.06,0a3.7,3.7,0,0,0-1.64-.46,5,5,0,0,0-1.11.1,2.71,2.71,0,0,1-.4,0,4.35,4.35,0,0,1-.51,0,8.19,8.19,0,0,0-1,0,5,5,0,0,0-1.16.18l-.33.06-.9.07-.51,0a1,1,0,0,1-.24,0,4.68,4.68,0,0,0-1.32-.1c-.3,0-.59.06-.88.1l-.59.07a4,4,0,0,0-1.47.46l-.11.06-.67.08-.63.07-.62.05c-.28,0-.55,0-.83.06a8.49,8.49,0,0,0-.88.14c-.18,0-.37.07-.56.09a4,4,0,0,1-.49,0c-.31,0-.64,0-.95,0a3.09,3.09,0,0,1-.43,0,5.94,5.94,0,0,0-.94,0l-.24,0a5.21,5.21,0,0,0-1.26-.08,3.71,3.71,0,0,0-1.48.48h0l-.19,0a4.75,4.75,0,0,0-1-.08c-.34,0-.67,0-1,0h-.3a5.32,5.32,0,0,0-1.06.08,3.39,3.39,0,0,0-1.32-.66,5,5,0,0,0-1-.12h-.18a6.71,6.71,0,0,1-.83-.43,4.87,4.87,0,0,0-.81-.39,3.88,3.88,0,0,0-.47-1c-.09-.14-.19-.27-.3-.41a2.77,2.77,0,0,1-.27-.41,4.7,4.7,0,0,0-.42-.76.41.41,0,0,0-.05-.09,1.78,1.78,0,0,0,0-.46,2.05,2.05,0,0,0-.14-.5,3.66,3.66,0,0,0,.32-1.57,4.17,4.17,0,0,0-.35-1.4.14.14,0,0,1,0-.06.5.5,0,0,1,0-.12,4.91,4.91,0,0,0,.11-1.31,5.15,5.15,0,0,0-.31-1.31,1.27,1.27,0,0,1-.08-.23c0-.12,0-.25,0-.37a5.87,5.87,0,0,0-.23-1.34,5.55,5.55,0,0,0-.79-1.46,3.3,3.3,0,0,1-.21-.3,5.25,5.25,0,0,0-1.35-1.56l-.1-.08a4.85,4.85,0,0,0-2-1,5,5,0,0,0-2.24.16l-.09,0-.27,0a5.15,5.15,0,0,0-1.64.52,4,4,0,0,0-1.16,1l-.08.09h0a4,4,0,0,0-1.53.8,4.31,4.31,0,0,0-.86,1.13l-.07.13-.13.07a4.65,4.65,0,0,0-1.1.84,3.85,3.85,0,0,0-.78,1.37l0,.1c-.21.23-.41.46-.61.7l-.23.26a1.78,1.78,0,0,1-.26.22,6,6,0,0,0-.81.76c-.18.21-.35.43-.52.65a5.19,5.19,0,0,1-.36.46c-.18.22-.36.44-.53.68a4.35,4.35,0,0,1-.33.42c-.18.21-.36.4-.54.59l-.74.82-.57.62a4.47,4.47,0,0,1-.41.35c-.21.17-.41.33-.6.51s-.37.38-.55.57l-.22.24-.08,0a4.19,4.19,0,0,0-1.18.5,6.08,6.08,0,0,0-.68.52l-.17.14-.37.16-.19.08h0a4.14,4.14,0,0,0-1.37-.23c-.21,0-.41,0-.61,0l-.78,0a4.28,4.28,0,0,0-1.45.32l-.11,0h-.58c-.22,0-.44,0-.65,0a2.5,2.5,0,0,1-.38-.06,7.8,7.8,0,0,0-1-.14A5.69,5.69,0,0,0,194.37,269.83Zm25.19-2.9a23,23,0,0,1-4.45,1.56c-1.55.32-3.06.56-4.56.75.09-.1.18-.19.26-.29l.68-.74.63-.69a8,8,0,0,0,.56-.71c.11-.14.21-.28.33-.42s.36-.44.53-.67l.35-.45a2.75,2.75,0,0,1,.26-.22,5.76,5.76,0,0,0,.79-.74l.24-.27c.23-.26.45-.52.68-.77a4,4,0,0,0,.73-1.32l0,0a4.72,4.72,0,0,0,1-.73,4.33,4.33,0,0,0,.74-1,3.74,3.74,0,0,0,1.21-.58,5.24,5.24,0,0,0,.82-.78l.05-.06.27-.06.53-.1.11,0,.36-.08.28.2.11.08a4.72,4.72,0,0,1,.34.51c.09.14.19.27.29.41s.18.26.19.27a2.33,2.33,0,0,1,0,.38c0,.24,0,.47.08.71a6.2,6.2,0,0,0,.27,1c0,.07.05.13.07.2l0,.17a4.85,4.85,0,0,0-.12,1.19,3.87,3.87,0,0,0,.32,1.33c-.06.16-.13.36-.19.58A30.29,30.29,0,0,0,219.56,266.93Z" style="fill: #1d1d1b"/>
  </g>
</svg>
