<svg xmlns="http://www.w3.org/2000/svg" viewBox="0 0 500 500">
  <title>snail2</title>
  <g>
    <path d="M300.66,286.09a64.65,64.65,0,0,0-16.6-4.77s-17.81,7-30.35,7.75S227,285.14,225,284.42c-5-1.75-9.45-1.79-11.74-2.14-4.06-.63-8.08.2-12.12.54-4.35-.3-5-1.23-8.83-2.59-.13-.16-3.24-2-3.37-2.27-2.26-4.53-.21-8.38,1.58-12.32a14,14,0,0,0,2.53-3.32,9.42,9.42,0,0,0,1.87-3.33,11.21,11.21,0,0,0,.52-7.44c-.11-2.05-1.18-6.21-3.49-8.11a14.65,14.65,0,0,0-5.73-5.67,1.75,1.75,0,0,0-.39-.3,13.69,13.69,0,0,0-2.56-1.23,2.23,2.23,0,0,0-.93-.13A14.3,14.3,0,0,0,174.6,234a26.14,26.14,0,0,0-12.06,2.75,1.92,1.92,0,0,0-1.12,1.32,15.34,15.34,0,0,0-6.86,13,.82.82,0,0,1-.56-.25,11.67,11.67,0,0,0-5.58-6.64c-1.81-1.44-6.82-2.27-8,0a12.43,12.43,0,0,0-1.24.66c-5.83,3.57-4.71,13.63-2.39,18.83,2.6,5.84,12.15,7.05,16.54,2.76a8.78,8.78,0,0,0,2.3-3.41c.32-.85.57-1.73.91-2.59-.56,1.42.25,3,.43,4.45A22.34,22.34,0,0,0,159.3,272c1.81,3.76-.15,6.6-1.56,9.91l-.06,0a82.37,82.37,0,0,1-5.73,7.44c-4.94,5.81-3.91,10.64.23,12.08,2.56.88,5.64.31,8.12-.33,3.32-.87,6.73-1.8,10.19-1.48,2.71.24,5,1.42,7.45,2.62a14.46,14.46,0,0,0,7,1.58c3.21-.08,6.92-.64,10.1-1,1.74-.2,3.62-.36,6.54-.55,1.7-.11,3.39-.18,5.46-.25l-.33-.14.7,0-.37.1a79.33,79.33,0,0,1,8.84,1.54,46.43,46.43,0,0,0,9.71.65c4,0,10.15,1,15.11.58s8.08.67,13.66.09c4.2-.43,8.51-.81,12.73-1s9.36.2,13.69-.32c4.13-.49,7.78,0,11.92.25s11.87-1.21,16.08-2c2.72-.5,4.11-1.85,4.11-5.56C312.89,291.71,305.06,288.06,300.66,286.09Z" style="fill: #fff381"/>
    <path d="M122.78,222.52a7.45,7.45,0,0,1,0-2.06,8.37,8.37,0,0,1,.39-2,7.63,7.63,0,0,1,1-1.82,7.16,7.16,0,0,1,1.32-1.58,8.68,8.68,0,0,1,2-1.29,7.94,7.94,0,0,1,2.3-.66,7.43,7.43,0,0,1,2.4,0,7.34,7.34,0,0,1,2.25.85,7.67,7.67,0,0,1,1.78,1.61,7.45,7.45,0,0,1,1.17,1.67,7,7,0,0,1,.75,1.92,7.12,7.12,0,0,1,0,2.06,8,8,0,0,1-.46,2,8.69,8.69,0,0,1-.85,1.88,7.29,7.29,0,0,1-1.42,1.5,8.31,8.31,0,0,1-2.1,1.23,8.2,8.2,0,0,1-2.36.6,8,8,0,0,1-2.44-.11,7.7,7.7,0,0,1-2.28-.9,8.15,8.15,0,0,1-1.82-1.62,6.35,6.35,0,0,1-1-1.52A6,6,0,0,1,122.78,222.52Zm15.14,10.7a8.23,8.23,0,0,0,1.87,1.59,7.91,7.91,0,0,0,2.29.85,8.07,8.07,0,0,0,2.44.24,8.39,8.39,0,0,0,2.38-.63A8.21,8.21,0,0,0,149,234a7.61,7.61,0,0,0,1.37-1.54,8.58,8.58,0,0,0,.87-1.86,8.35,8.35,0,0,0,.46-2,7.55,7.55,0,0,0,0-2.07,7.09,7.09,0,0,0-.68-2,10,10,0,0,0-3.07-3.2,7.08,7.08,0,0,0-2.24-.84,7.32,7.32,0,0,0-2.38,0,8.16,8.16,0,0,0-2.31.58,9.37,9.37,0,0,0-2.06,1.25A7.29,7.29,0,0,0,137.6,224a8.67,8.67,0,0,0-.87,1.88,8.35,8.35,0,0,0-.42,2,7.26,7.26,0,0,0,0,2.08,6.16,6.16,0,0,0,.68,1.72A6.26,6.26,0,0,0,137.92,233.22Z" style="fill: #fff"/>
    <path d="M303,244.17c0-.22,0-.42.07-.64a5.66,5.66,0,0,0-.06-1.18,30.81,30.81,0,0,0,.21-3.66,4.25,4.25,0,0,0-.21-1.4,2.11,2.11,0,0,0-.1-.3c0-.05,0-.1-.05-.15a3.13,3.13,0,0,0-.33-.63,6.44,6.44,0,0,0,.07-.9,20,20,0,0,0-.53-4.32,5.48,5.48,0,0,0-.07-.6l0-.33a4.16,4.16,0,0,0-.68-2.05,3.21,3.21,0,0,0-.21-.85,14.79,14.79,0,0,0-.23-2.1,4.38,4.38,0,0,0-.63-1.59v-1.78a3.53,3.53,0,0,0-2-3.39c-.6-1.31-1.26-2.57-1.94-3.87a5.13,5.13,0,0,0-.76-1.82,32,32,0,0,0-12.36-11.27,3.9,3.9,0,0,0-1.22-.37,49.84,49.84,0,0,0-9.4-4.05,31,31,0,0,0-3.62-1l-.21,0c-1.2-.29-2.41-.54-3.64-.76-3.93-.67-7.77.45-11.65-.09a5,5,0,0,0-2.91.41,32.13,32.13,0,0,0-7.08,1.91,5.88,5.88,0,0,0-1.65.3c-10.14,3.3-17.26,9.29-24.25,17.08a34.2,34.2,0,0,0-6.38,10.16c-.55,1.33-1.34,4.58-1.89,5.86l-.42,1a3.67,3.67,0,0,0-.44.71c-1.1,2.36-2.24,4.51-2.53,7.14-.07.61-2,5.44-1.91,5.95-1.51,4.26-.91,4.15-3.22,8.24a4,4,0,0,0-.53,1.66c-1.77,2.36-3.66,4.63-5.4,6.91-3.31,4.36-7.53,9.93-4.18,15.32a3.93,3.93,0,0,0,3.73,1.95c4.6,2.52,10.82,1.22,15.83,1,3.7-.18,7.22-.38,10.83.61s6.95,2.5,10.46,3.58A65.25,65.25,0,0,0,260,287.06a5.29,5.29,0,0,0,.6.13c4.68.68,8.68-1.2,12.89-2.95,5.86-2.44,10.72-5,15.38-9.37s10.61-12.51,12.26-20.14a15,15,0,0,0,1.56-5.2c0-.17,0-.33,0-.49.16-.88.33-1.75.48-2.63A4.13,4.13,0,0,0,303,244.17Z" style="fill: #828183"/>
    <path d="M377.92,297.56a5.83,5.83,0,0,0-2.85-1.11l-.49-.09c-.37-.08-.93-.19-1.59-.27a4.63,4.63,0,0,0-1.12,0l-.28,0-.09,0a3.87,3.87,0,0,0-1.49-.45,6.18,6.18,0,0,0-1.11.06,1.58,1.58,0,0,1-.38,0l-.58,0-.89-.05a2.32,2.32,0,0,1-.45-.06,6.65,6.65,0,0,0-1-.1,4.16,4.16,0,0,0-1.3.19l-.16.06a2.33,2.33,0,0,1-.35-.06,6.18,6.18,0,0,0-1.1-.14,4.45,4.45,0,0,1-.5,0c-.32,0-.63-.07-.94-.07a5.46,5.46,0,0,1-.57,0l-.88-.05-.87,0-.56,0-.69,0-.79,0h-1.45a5.09,5.09,0,0,0-1.26.2l-.19.06h-1.39a3.09,3.09,0,0,1-.41-.06,5.06,5.06,0,0,0-1.07-.14h-1.43a8.47,8.47,0,0,0-1,.06,3,3,0,0,1-.41,0c-.25,0-.48,0-.7-.06l-.69-.06c-.35,0-.67,0-.95,0h-.24l-.13-.07a4.19,4.19,0,0,0-1.31-.46l-.89-.11-.57-.06a4.1,4.1,0,0,0-1.31.06l-.17,0a3.2,3.2,0,0,1-.42-.1,6,6,0,0,0-1-.19,7.6,7.6,0,0,0-1,0h-.51l-.57-.06-.88-.07c-.31,0-.63,0-.94,0h-.52l-.58-.05-.84-.06a1.25,1.25,0,0,1-.26-.07,4.61,4.61,0,0,0-1.23-.22,3.76,3.76,0,0,0-1.44.27l-.14.05h-.48l-.78,0-.19-.06a4.23,4.23,0,0,0-1.34-.24q-.45,0-.9.06a5.09,5.09,0,0,1-.55,0,5.24,5.24,0,0,0-1.15.18,1.74,1.74,0,0,1-.29.07l-.38,0a5.62,5.62,0,0,0-1.07-.08,4.82,4.82,0,0,0-1.21.23l-.21.06-.18-.05a4.51,4.51,0,0,0-1.29-.15,6.45,6.45,0,0,0-1,.13c-.15,0-.3.06-.45.07a5.34,5.34,0,0,0-1,.14,3.2,3.2,0,0,1-.41.07l-1.43.07a4.35,4.35,0,0,1-.51,0h-.64a5.53,5.53,0,0,0-.64-1.94,10.79,10.79,0,0,0-1.92-2.32,7.94,7.94,0,0,0-1.57-1.14,6.89,6.89,0,0,1-.64-.4c-.64-.46-1.33-.92-2.14-1.4l-.63-.39c-.5-.31-1-.62-1.51-.89l-.75-.41c-.48-.26-.95-.51-1.41-.73s-1-.42-1.43-.6l-.8-.32c-.24-.11-.48-.24-.73-.38a13,13,0,0,0-1.58-.76,10,10,0,0,0-1.55-.44c-.3-.08-.62-.14-.92-.25a6.81,6.81,0,0,1-.79-.35,10.76,10.76,0,0,0-1.57-.66l-.71-.22c-.56-.18-1.14-.37-1.73-.53a10.82,10.82,0,0,0-1.62-.28c-.31,0-.62-.08-.92-.14a6.15,6.15,0,0,1-.74-.28,8.57,8.57,0,0,0-1.71-.56h0a3.09,3.09,0,0,0,.31-.23,3.92,3.92,0,0,0,.93-1.37l0,0c.17-.17.33-.34.49-.52l.33-.34a8.93,8.93,0,0,0,.63-.75l0,0a3.33,3.33,0,0,0,1.63-1,3.93,3.93,0,0,0,.72-1.3l0-.07.15-.13a6.67,6.67,0,0,0,.76-.8l.31-.39c.19-.23.38-.47.56-.72a6,6,0,0,0,.54-.93c.05-.1.1-.21.15-.29l.19-.19a5.75,5.75,0,0,0,.75-.89l.18-.29c.2-.29.39-.59.58-.89s.29-.5.43-.76.16-.31.25-.46a4,4,0,0,0,.48-1.34.5.5,0,0,1,0-.12l.18-.29c.16-.26.32-.53.46-.79,0-.07.1-.14.15-.21a5.87,5.87,0,0,0,.62-1,7.13,7.13,0,0,0,.35-.91l.14-.39a4.37,4.37,0,0,0,.33-1.31v-.07l0-.07a4.34,4.34,0,0,0,.64-1.09l.14-.22a5.94,5.94,0,0,0,.52-1q.15-.42.27-.87c0-.15.08-.31.13-.45a4.53,4.53,0,0,0,.2-1.36v-.11l.1-.19a7.83,7.83,0,0,0,.36-.83l.05-.06a4.08,4.08,0,0,0,.69-1.35,4.35,4.35,0,0,0,.11-1.41.49.49,0,0,1,0-.12c.1-.4.19-.82.3-1.3s.19-.84.27-1.27c0-.12.07-.24.11-.37a8.48,8.48,0,0,0,.25-1c0-.3.08-.61.11-.91s0-.31,0-.47l.07-.41c.05-.32.1-.64.14-.95a3.81,3.81,0,0,0-.08-1.27,3.33,3.33,0,0,0,.51-1.48,4.46,4.46,0,0,0-.14-1.34l0-.14c0-.39,0-.77,0-1.16v-.13a2.93,2.93,0,0,1,.05-.29,6,6,0,0,0,.12-1.1,6.9,6.9,0,0,0-.1-1,2.2,2.2,0,0,1,0-.36,4.5,4.5,0,0,0-.27-1.3l0-.06v0a4.32,4.32,0,0,0,.14-1.37,1.7,1.7,0,0,1,0-.39,7.48,7.48,0,0,0,0-1,6.61,6.61,0,0,0-.2-1,2.74,2.74,0,0,1-.08-.37c-.05-.31-.11-.6-.18-.9s-.07-.31-.09-.47-.05-.31-.07-.47-.09-.61-.15-.91c0-.14,0-.29-.07-.44,0-.31-.09-.63-.16-.94a4,4,0,0,0-.65-1.36h0a.38.38,0,0,1,0-.1,5.48,5.48,0,0,0-.14-1v-.08a3.73,3.73,0,0,0-.17-1.53l-.14-.44c-.09-.3-.19-.61-.3-.9a4.28,4.28,0,0,0-.81-1.26l0,0a.83.83,0,0,1,0-.15,5.88,5.88,0,0,0-.33-1,2.1,2.1,0,0,1-.06-.24,5.31,5.31,0,0,0-.39-1.14,4.81,4.81,0,0,0-.77-1.08l-.12-.13a7.08,7.08,0,0,0-.54-.81l-.18-.23a1.72,1.72,0,0,1-.07-.21,5,5,0,0,0-.5-1.16,4.14,4.14,0,0,0-.93-1l0,0v0a4.23,4.23,0,0,0-.59-1.25,7.22,7.22,0,0,0-.65-.78,2.43,2.43,0,0,1-.26-.29c-.2-.25-.42-.49-.64-.72s-.2-.21-.29-.32a5.44,5.44,0,0,0-.83-.8,1,1,0,0,1-.19-.16l-.12-.13c-.26-.31-.52-.61-.79-.91a2.4,2.4,0,0,1-.18-.26,6.6,6.6,0,0,0-.67-.85,2.78,2.78,0,0,1-.21-.27,7,7,0,0,0-.68-.81c-.22-.21-.45-.41-.69-.61l-.36-.3a6.07,6.07,0,0,0-.85-.64,1.85,1.85,0,0,1-.27-.19l-.75-.62-.36-.29a8.41,8.41,0,0,0-.86-.59l-.28-.17a1.22,1.22,0,0,1-.15-.17,5,5,0,0,0-.9-.89,8.18,8.18,0,0,0-.9-.54,2.27,2.27,0,0,1-.34-.19,4.19,4.19,0,0,1-.33-.26,9.41,9.41,0,0,0-.81-.6c-.4-.26-.8-.51-1.21-.75l-.26-.2a6,6,0,0,0-.91-.65l-.86-.44-.41-.2a3.65,3.65,0,0,0-1.29-.38,3.34,3.34,0,0,0-1.24-1,4.15,4.15,0,0,0-1.42-.32H276l-.34-.16-.71-.31-.08-.07a3.7,3.7,0,0,0-2.8-.95h0l-.06,0a4.78,4.78,0,0,0-1.19-.54,6.54,6.54,0,0,0-1.08-.18,2,2,0,0,1-.34-.05,3.38,3.38,0,0,1-.42-.13,7.9,7.9,0,0,0-1-.27c-.14,0-.27-.08-.4-.12a6.91,6.91,0,0,0-1-.27l-1.4-.23a3.75,3.75,0,0,0-1.58.11h-.08c-.26,0-.53,0-.8,0h-.26l0,0a3.89,3.89,0,0,0-1.52-.47,3.6,3.6,0,0,0-1.67.32l-.16,0c-.3,0-.6-.08-.89-.09l-.15,0a4.72,4.72,0,0,0-1.32-.21l-.4,0a6.48,6.48,0,0,0-1,0,3.31,3.31,0,0,0-1.58.49h0a5.69,5.69,0,0,0-1.14,0,7.69,7.69,0,0,0-1,.16l-.32.07-.21,0a4.79,4.79,0,0,0-1.28,0,3.26,3.26,0,0,1-.45,0c-.31,0-.61.05-.92.1a7.27,7.27,0,0,0-1,.28,1.6,1.6,0,0,1-.31.1l-1.35.29a4.31,4.31,0,0,0-1.13.43,3.5,3.5,0,0,0-1.6,0,8.69,8.69,0,0,0-.94.35c-.12.05-.24.11-.36.15a3.94,3.94,0,0,0-1.19.65,3.47,3.47,0,0,0-1.44.19c-.29.11-.57.24-.85.37s-.28.14-.41.19l-.27.07a5.3,5.3,0,0,0-1.08.33,4,4,0,0,0-1.21.85h-.06a5,5,0,0,0-1.2.39,4.61,4.61,0,0,0-1.06.77l0,0h0a3.71,3.71,0,0,0-2.45,1.38.73.73,0,0,1-.08.09,8.62,8.62,0,0,0-.71.54l-.08.07a3.42,3.42,0,0,0-1.6.55,4.9,4.9,0,0,0-.89.82,1.32,1.32,0,0,0-.13.14c-.25.18-.49.37-.73.56l-.37.29a4.64,4.64,0,0,0-.8.82,3.32,3.32,0,0,0-1.52.7,4.47,4.47,0,0,0-.84,1l-.1.15a5.37,5.37,0,0,0-.68.79l-.16.21a4.7,4.7,0,0,0-.74.92h0a3.65,3.65,0,0,0-1.37.86c-.21.22-.4.46-.59.7a3.76,3.76,0,0,1-.25.31l-.13.09a4.47,4.47,0,0,0-1,.84,6.24,6.24,0,0,0-.6.86,1.81,1.81,0,0,1-.19.29,3.85,3.85,0,0,0-.68,1.41v0l-.17.18c-.21.24-.42.47-.59.7,0,.06-.12.12-.18.18a5.34,5.34,0,0,0-.78.86c-.06.08-.14.16-.21.24a6.41,6.41,0,0,0-.68.82,4.52,4.52,0,0,0-.52,1.13.51.51,0,0,0,0,.14l-.57.93-.09.14-.09.09a4.26,4.26,0,0,0-.9,1.06c-.15.27-.28.56-.41.86,0,.13-.11.26-.17.38a3.71,3.71,0,0,0-.41,1.58l-.09.14a8,8,0,0,0-.51.85c-.12.25-.23.51-.34.78l-.19.46-.22.44-.29.58,0,.05a3.67,3.67,0,0,0-1.17,2.56s0,.08,0,.12q-.13.36-.24.72l-.06.2a3.75,3.75,0,0,0-.93,1.33,3.52,3.52,0,0,0-.22,1.29,3.3,3.3,0,0,0-.76,1.19,4.68,4.68,0,0,0-.23,1.3.61.61,0,0,1,0,.14,5.4,5.4,0,0,0-.2,1c0,.08,0,.16,0,.2a7,7,0,0,0-.24.9c0,.13-.05.26-.07.33l-.12.19a5.29,5.29,0,0,0-.49,1,2.25,2.25,0,0,1-.12.21,5.39,5.39,0,0,0-.49,1q-.12.39-.21.78c-.05.17-.09.33-.14.49a2.34,2.34,0,0,0-.05,1.08c0,.13-.08.24-.13.38s-.18.47-.27.73c-.21.54-.43,1.15-.68,1.81l-.4,1.09-.41,1.07-.46,1.22-.06.13v0l0,.07-.15.31c-.09.21-.19.41-.29.62l-.3.63-.12.26-.17.31-.68,1.27q-.1.2-.21.42v-.1c0,.07-.08-.63,0-.35v-.09l0-.11-.14-.47-.12-.33-.06-.15,0-.06-.07-.29-.17-.63c-.06-.21-.11-.3-.16-.46l-.17-.4-.13-.3,0-.1-.05-.16-.2-.62-.05-.16v0c0-.12,0-.05,0-.08v-.06l-.05-.23c0-.07-.06-.2-.08-.3l-.05-.16,0-.08v0l-.14-.32h0a9.46,9.46,0,0,1-.63-1.17c-.06-.16-.16-.37-.25-.57l0-.08v0a2.59,2.59,0,0,0-.14-.24l-.1-.13a3.2,3.2,0,0,0-.43-.47l-.11-.11-.07,0-.12-.09-.16-.1-.32-.53-.2-.31-.1-.2c-.05-.11-.21-.36-.31-.54l-.62-.8-.21-.26,0-.07c-.14-.14-.17-.16-.26-.24a4.67,4.67,0,0,0-.51-.36,2.38,2.38,0,0,0-.28-.14h0c-.08-.14-.17-.27-.26-.4a2.09,2.09,0,0,0-.14-.17l-.05-.06,0,0-.27-.27h0l-.53-.4-.26-.19a4.44,4.44,0,0,0-.88-.52l-.26-.1-.14,0h0s.17.11,0,0l0,0,0,0-.27-.18-.56-.4-.48-.36-.25-.19-.43-.28-.53-.35a5,5,0,0,0-.8-.39l-.29-.12-.11,0h0a4,4,0,0,0-.39-.29l-.26-.17-.06,0h0l-.3-.15-.11,0-.45-.14-.22,0-.12,0-.26,0h0l-.32-.21-.29-.16-.05,0c0-.35.07-.7.08-1,0-.68,0-1.35,0-2,0-.42,0-.84-.08-1.26,0-.25,0-.51,0-.76,0-.43-.05-.85-.08-1.27l-.06-.75c0-.42-.07-.84-.12-1.26l-.09-.75a5.77,5.77,0,0,1,0-.72,8.13,8.13,0,0,0-.32-2.63c-.06-.22-.12-.45-.16-.67s-.05-.5-.07-.74a11,11,0,0,0-.16-1.29,13,13,0,0,0-.32-1.3l-.18-.69a9.9,9.9,0,0,0-.43-1.3c-.08-.21-.17-.43-.23-.65s-.12-.46-.17-.7a11.48,11.48,0,0,0-.35-1.29c-.08-.23-.14-.45-.21-.67-.13-.42-.26-.86-.45-1.32a8.35,8.35,0,0,0-.73-1.29c-.11-.18-.23-.35-.32-.53-.31-.6-.65-1.24-1-1.85-.11-.18-.2-.38-.29-.56a7.26,7.26,0,0,0-.78-1.33l-.35-.47a10.26,10.26,0,0,0-1-1.27,7.85,7.85,0,0,0-1.36-1c-.16-.1-.32-.2-.47-.31a12.85,12.85,0,0,0-4-2.17,12.53,12.53,0,0,0-1.45-.34l-.21-.35-.25-.39a11.07,11.07,0,0,0-.75-1c-.11-.13-.22-.26-.32-.4-.38-.51-.73-1-1.09-1.37l-.32-.39a11.29,11.29,0,0,0-.84-1l-.34-.34a10.92,10.92,0,0,0-1-.9,15.22,15.22,0,0,0-1.35-.94l-.13-.08a9,9,0,0,0-1.21-.64l-.4-.2c-.62-.31-1.21-.54-1.66-.72a12.84,12.84,0,0,0-1.3-.38l-.43-.11-.46-.15a9.15,9.15,0,0,0-1.25-.35,9.86,9.86,0,0,0-1.45-.12l-.69,0a12.75,12.75,0,0,0-1.54,0,15.86,15.86,0,0,0-1.82.22l-.46.07a8.71,8.71,0,0,0-1.34.26c-.51.15-1,.34-1.72.61a6.48,6.48,0,0,0-1.17.67,3.11,3.11,0,0,1-.38.25,3.38,3.38,0,0,1-.34.11,4.87,4.87,0,0,0-1.34.56,7.12,7.12,0,0,0-1,.83,3.81,3.81,0,0,1-.36.33l-.21.16c-.4.3-.79.6-1.17.94a3.52,3.52,0,0,1-.37.27,5.17,5.17,0,0,0-1.8,1.84,4,4,0,0,1-.27.4c-.11.13-.24.25-.36.37a7.12,7.12,0,0,0-.82.93,9.43,9.43,0,0,0-.64,1l-.29.48-.27.41c-.23.34-.46.69-.67,1.05-.08.16-.17.31-.26.46a12,12,0,0,0-.59,1.06c-.25.52-.49,1.05-.71,1.59a6.26,6.26,0,0,0-.34,1.23,3,3,0,0,1-.1.45c-.13.38-.23.76-.34,1.15,0,.17-.09.34-.14.51a3.42,3.42,0,0,1-.17.4,5.83,5.83,0,0,0-.45,1.22,5.48,5.48,0,0,0-.11,1.33c0,.14,0,.33,0,.4s-.06.35-.1.52l-.12.69h-.36l-.15,0h0l-.26.07-.53.13a2.9,2.9,0,0,0-.57.17l-.64.25-.31.12-.16.07-.07,0-.12.06h0l-.9.51c-.33.21-.71.49-1,.74l-.25.19,0,0-.11.09,0,.05-.08.09-.34.35a8.52,8.52,0,0,0-.73.9l-.18.25-.09.13,0,.06-.06.11h0v0l-.21.42-.21.4c-.07.15-.14.34-.2.51l-.19.51-.11.33-.06.2c-.07.28-.13.56-.2.82s-.09.67-.14,1l0,.24V221a5.43,5.43,0,0,0,0,.78c0,.29.08.57.11.84l0,.1v.08l0,.15,0,.15.09.3a6,6,0,0,0,.45,1.12l.12.26c0,.09.1.18.14.27l.2.36a4.3,4.3,0,0,0,.42.66l.44.59.07.07a3.64,3.64,0,0,1,.39.39l.45.47c.23.19.54.41.87.65l.26.18.07.05h0l.09.05,0,0,.12.06.51.28a4.65,4.65,0,0,0,.59.29l.8.29.43.14,0,0,.13,0,.09,0,.18,0,.75.15a6.9,6.9,0,0,0,1,.06l.53,0h.21l.19,0,.21,0,.86-.14c.32-.08.7-.21,1.06-.32l.28-.1.13,0,.07,0,.14-.06.43-.19c.22-.11.41-.17.64-.29a4.19,4.19,0,0,0,0,.48q0,.45.09.87c0,.18.07.42.1.61a3.88,3.88,0,0,0,.28,1.32l.06.16,0,.08v0l.06.11v0l.12.19.22.36a3.39,3.39,0,0,0,.44.63l.45.55v0a3.89,3.89,0,0,1,.36.41,7.1,7.1,0,0,0,1.3,1.27l.27.19.14.1.26.13a4.48,4.48,0,0,0,.58.24,6.76,6.76,0,0,0,.88.23l.67.12a11,11,0,0,0,3.46.47,9.72,9.72,0,0,0,2.05-.32l.3-.09.14,0,.08,0h0l.12-.06.43-.2a8.6,8.6,0,0,0,1.07-.7l.82-.65.81-.62.52-.46c.17-.19.35-.4.51-.61s.42-.65.63-1l.31-.62.15-.32.07-.17,0-.08v0c0,.12.06-.18.06-.16h0c.05-.19.1-.32.15-.57a7.64,7.64,0,0,0,.11-.83l.09-1.14,0-.57,0-.28c0-.1,0-.25,0-.37l-.06-.79v-.29l-.05-.2-.07-.28-.15-.55a6.19,6.19,0,0,0-.26-.69l-.3-.71-.36-.6a7.12,7.12,0,0,0-.79-1.11l-.23-.29,0,0,0,0-.11-.11-.05,0-.1-.1-.42-.39a8.34,8.34,0,0,0-1.1-.85c-.22-.14-.43-.3-.65-.42l-.52-.28c-.13-.07-.28-.11-.43-.18a0,0,0,0,0,0,0c.19-.61.39-1.21.6-1.79s.45-1.18.69-1.74a10.67,10.67,0,0,1,.49-1l.33-.66.24-.5c.19-.4.38-.79.58-1.16.31-.55.63-1.08,1-1.58a10.74,10.74,0,0,0,.55-1,3.81,3.81,0,0,1,.34-.63,3.47,3.47,0,0,1,.46-.41,7.52,7.52,0,0,0,.91-.84c.22-.25.42-.53.62-.79a6.93,6.93,0,0,1,.5-.63c.46-.45.91-.85,1.34-1.2a8.85,8.85,0,0,1,.93-.63l.55-.36.45-.3c.37-.25.72-.49,1-.65s.51-.28.75-.42a3.08,3.08,0,0,1,1.74-.58l.63-.08a10.34,10.34,0,0,1,1.41-.09h.85a.83.83,0,0,1,.09.16,4,4,0,0,1,.18.51,7.65,7.65,0,0,0,.31.92,7.53,7.53,0,0,0,.43.85,4.16,4.16,0,0,1,.26.52,3.52,3.52,0,0,1,.15.58,9.17,9.17,0,0,0,.24.9c.08.25.17.49.26.73s.18.48.25.73.21.6.33.9a4.77,4.77,0,0,1,.2.57,6.17,6.17,0,0,1,.11.62c0,.31.09.61.15.92a6.49,6.49,0,0,1,.11.66,8.89,8.89,0,0,0,.13.88,7.07,7.07,0,0,0,.3,1,3.53,3.53,0,0,1,.15.49c.06.33.11.67.16,1l.08.55a3.47,3.47,0,0,1,0,.46,6.32,6.32,0,0,0,0,1.12c0,.2,0,.41,0,.62s0,.64.06.95a6.47,6.47,0,0,0,.22,1.07,3.42,3.42,0,0,1,.11.48c0,.26,0,.52.06.78s0,.53,0,.8,0,.57.06.86,0,.48,0,.72,0,.49.06.74.05.56.06.84,0,.57.08.85.05.49.06.74,0,.47,0,.72,0,.57,0,.87a4.91,4.91,0,0,1,0,.53,6.72,6.72,0,0,0-.07,1.06,8.8,8.8,0,0,0,.1,1c0,.17.05.35.06.53l-.26.06-.49.13-.47.11-.21.05-.1,0h0l-.07,0h0l-.07,0-.5.16-.65.26-.07,0a2.46,2.46,0,0,0-.45.25l-.09,0-.3.09-.47.14L165,233l-.07,0h0l-.12,0h0l-.14,0-.62.23a3.81,3.81,0,0,0-.5.26l-.38.24L163,234h0l-.07,0a2.65,2.65,0,0,0-.3.12l-.19.08-.1,0h0l-.25.13h0l-.08.06c-.2.15-.44.36-.59.5l-.15.14-.18.06-.21.1-.11.06-.05,0,0,0h0l-.34.23h0l-.37.3-.19.14-.09.08-.1.08-.07.08-.3.33-.23.29,0,0-.22.12a2.59,2.59,0,0,0-.39.27l-.05,0h0c-.51.47-.15.14-.26.25l0,0,0,0-.13.19-.26.4-.14.24-.06.12,0,0,0,0-.06.08-.29.41-.2.27-.14.19-.15.2-.07.11,0,.05-.16.25c-.18.33-.36.66-.53,1l-.24.44-.11.22h0l0,.1h0v0l0,.06,0,.12-.15.47a1.87,1.87,0,0,1-.1.26l-.08.15-.18.38,0,.11h0l-.1.24h0v.09l-.05.22c0,.15-.07.3-.1.45s-.07.29-.11.43c-.13-.14-.25-.28-.38-.44,0,0,0,0,0,0l-.1-.17a5.63,5.63,0,0,0-.51-.69l-.08-.1,0,0-.17-.16h0l-.07-.06-.3-.22-.31-.22-.23-.14-1-.63-.25-.16-.12-.08-.13-.07-.05,0-.09,0-.74-.33-1.25-.46-.3-.11-.15,0,0,0h0l-.14,0-.08,0-.67-.21-.32-.08-.16,0h0l-.33,0h-.13l-.66,0-.83,0c-.27,0-.53,0-.75,0h-.28l-.22,0-.11,0a3.9,3.9,0,0,0-.79.25l-.35.17,0,0-.17.06c-.17.07-.44.14-.65.21l-.35.11-.17.05h-.07l-.16.07-.1,0c-.24.1-.52.19-.73.29l-.34.15L139,242h0l0,0-.07.05-.16.11-.61.42-.08,0h0l-.14.12-.09.09a2.91,2.91,0,0,0-.33.37,2.4,2.4,0,0,0-.22.3l-.16.25s0,0-.07.12l0,.08h0l-.07.06c-.17.15-.35.29-.53.48l-.14.14-.07.06,0,0-.27.36,0,0-.19.34-.39.67c-.49,1.07-.51,1.54-.68,1.86l-.27.74-.31.93-.12.37,0,.1-.07.26,0,.2-.19.77,0,.1c0,.08,0-.15,0,.19V252l0,.4,0,.4v.1l0,.13v.05l0,.18c0,.23-.08.5-.11.76v.44l0,.31.07.59.07.4v0l0,.15,0,.32v.58l0,.37,0,.2.05.4.06.4v.17l0,.11.09.29.2.58.15.38h0v.06a4.47,4.47,0,0,0,.81,2.52l.17.28.18.36.37.7.44.83.2.34,0,.08,0,0,.15.23v0l.12.16.48.62.12.15.25.3.26.29.51.59.16.16h0l0,0,.08.06.15.12.3.24.3.24.07.06.15.13.15.13c.19.17.38.34.58.5l.14.12.08.06h0l.26.19.05,0,.33.17.66.35.08,0,.24.12,0,0,.17.08.34.14.8.34c.3.09.7.22.93.27l.35.07.28.07.18,0,1.58.23.41.05.34,0h.88c.28,0,.49,0,.71,0h.18l.31,0h0l.08,0,.31-.08.63-.14.29-.07.23-.09.43-.19.22-.09.13-.07.28-.15.13-.07.13-.07h0l0,0,.06-.05.26-.16.5-.33.12-.08,0,0c.26-.16.09-.05.15-.1h0l.08-.07.33-.27a6.09,6.09,0,0,0,.49-.46,5.68,5.68,0,0,1,.43-.41,4,4,0,0,0,.42-.39l.19-.19.09-.09h0c.28-.32.09-.1.15-.18l0,0,0-.09.09-.15.15.41,0,.13,0,.07v0l.07.17.11.26.43,1,.22.54,0,.06,0,0h0l0,.08.07.12.13.26.53,1,.28.52.16.33.17.32c.06.16.12.36.17.53l.13.4v.23a1.33,1.33,0,0,0,0,.28c0,.1,0,.34,0,.51l0,.54v.09h0v0l0,.18,0,.35a1.94,1.94,0,0,1-.07.41c-.08.31-.16.61-.23.9l0,.07-.06.18c0,.11-.07.23-.11.34a6.58,6.58,0,0,1-.3.72l-.15.36-.07.17h0c-.22.38-.41.72-.58,1l-.53.93s0,0,0,0l-.28.37c-.18.22-.37.45-.54.7l-.33.47c-.17.25-.35.51-.54.76a2.34,2.34,0,0,1-.31.32,6.63,6.63,0,0,0-.74.8c-.18.23-.34.46-.5.7s-.26.37-.4.55-.35.45-.51.68-.27.37-.41.54-.39.5-.57.76a5.2,5.2,0,0,1-.35.47,3.31,3.31,0,0,1-.33.32,6.36,6.36,0,0,0-.93,1,11.78,11.78,0,0,0-.73,1.21c-.07.13-.13.26-.21.38a15.81,15.81,0,0,0-.84,1.7,9.18,9.18,0,0,0-.49,1.66l-.06.25c0,.14-.08.28-.12.41a5.81,5.81,0,0,0-.3,1.67,7.55,7.55,0,0,0,.35,2.26,2.75,2.75,0,0,0,.18.46c-.61,0-1.22-.05-1.84,0-2.46.14-5.21.54-5.52,2.37-.36,2.07,2.58,2.14,8.82,2.38,2.7.1,5.53.16,6.78.16h.38l3.33-.07a2,2,0,0,0,1.11,0l2.59-.07c4.3-.11,4.09-.37,8.37-.37l2.67-.07c.06,0,.54.15,1.54.32.29.12,1.22.1,1.45.18a2.28,2.28,0,0,1,.44.15l.28.14a13.26,13.26,0,0,0,1.21.56l.39.17a9.12,9.12,0,0,0,1.16.45l.21.06a14.28,14.28,0,0,0,1.43.35,5.56,5.56,0,0,0,1.32.05h.37l.38.06a7.16,7.16,0,0,0,1.17.12h.11c.4,0,.82-.05,1.24-.08l.55,0a8.51,8.51,0,0,0,1.17-.18l.25,0,.74.08.51.05a8.61,8.61,0,0,0,1,0h.47l.43.05,1,.09.9.05.57,0a2.7,2.7,0,0,1,.41.07,6.6,6.6,0,0,0,1,.15l.58,0c.29,0,.59,0,.88,0a6.48,6.48,0,0,0,1-.06,2.86,2.86,0,0,1,.43,0,7.56,7.56,0,0,0,1-.05l.5,0a2.11,2.11,0,0,1,.35.05,6.28,6.28,0,0,0,1.11.13h1.45a3.17,3.17,0,0,1,.53,0c.31,0,.62,0,.92,0h.6c.29,0,.57,0,.86,0a4.69,4.69,0,0,0,1.16-.2l.22-.06.26.05a5,5,0,0,0,1.24.15,8.65,8.65,0,0,0,.89-.08,5,5,0,0,1,.53-.05,4.07,4.07,0,0,0,1.34-.31l.16,0a1.65,1.65,0,0,1,.31,0,9.21,9.21,0,0,0,1,.08,5.81,5.81,0,0,0,1.06-.14l.25,0,.11,0a3.83,3.83,0,0,0,1.4.31h.67c.24,0,.48,0,.72,0l.79,0h.59c.28,0,.56,0,.83,0h.41l.23,0,.23.06a5.61,5.61,0,0,0,1,.23l.66.06c.25,0,.49,0,.73.07s.54.08.81.12l.57.1.61.08.79.12a6.09,6.09,0,0,0,1.06.08h0a2.17,2.17,0,0,1,.36,0,3.92,3.92,0,0,1,.59.15c.27.07.53.14.79.19a2.54,2.54,0,0,1,.44.15,8.22,8.22,0,0,0,.93.28,5.22,5.22,0,0,0,1.16.1h.3c.28.06.57.11.86.15s.38.05.54.09a1.19,1.19,0,0,1,.26.11,4.93,4.93,0,0,0,1.16.42l.5.11.94.2a7.43,7.43,0,0,0,1.06.09c.15,0,.29,0,.41,0l.27.11a4.84,4.84,0,0,0,1.19.36c.31.05.64.06,1,.08l.53,0a3.06,3.06,0,0,1,.41.1,6.87,6.87,0,0,0,1,.21,4.35,4.35,0,0,0,1.33-.1c.08,0,.15,0,.14-.05a2.57,2.57,0,0,1,.38.08,5.51,5.51,0,0,0,1.07.18h.2l1.25.07.55,0c.3,0,.6.06.9.06h.11c.28,0,.56,0,.84,0,.6,0,1.18-.08,1.59-.15.12,0,.24,0,.37-.06.29,0,.57,0,.86,0s.38,0,.58,0h.57l.87,0,.38,0a5.79,5.79,0,0,0,1.06,0l.43,0a6.78,6.78,0,0,0,1,0,6.09,6.09,0,0,0,1-.18,2.57,2.57,0,0,1,.4-.08c.18,0,.37,0,.56,0s.58,0,.86-.05l1.43-.14a5.12,5.12,0,0,1,.56,0c.29,0,.57,0,.85-.06a5.78,5.78,0,0,0,1.08-.25,1.7,1.7,0,0,1,.32-.1c.12,0,.24,0,.36,0a5.41,5.41,0,0,0,1.06,0,4.19,4.19,0,0,0,1.23-.37l.15-.07.18,0a4.43,4.43,0,0,0,1.25.05c.2,0,.41,0,.61,0l.72,0a5.74,5.74,0,0,0,.83-.13,4,4,0,0,1,.48-.07c.24,0,.48,0,.72-.07l.61-.05h1.34a8.67,8.67,0,0,0,.88-.06,3.73,3.73,0,0,1,.46,0l.87,0,.44,0a1.11,1.11,0,0,1,.26.07,5.37,5.37,0,0,0,1.13.22,4.46,4.46,0,0,0,1.21-.13l.16,0,.7,0,.68,0a3.25,3.25,0,0,1,.43.08,7.46,7.46,0,0,0,.93.14c.2,0,.41,0,.61.06l.78.07a6.13,6.13,0,0,0,1,0,3.05,3.05,0,0,1,.43,0l.5,0,.85.05.25.07a4.37,4.37,0,0,0,1.22.24h2.87c.18,0,.34,0,.52,0s.61,0,.92,0a6.34,6.34,0,0,0,1.12-.15,2.29,2.29,0,0,1,.36-.07c.32,0,.63-.05.94-.09s.36-.05.55-.06.61-.06.92-.11l.45-.06.15,0a4.19,4.19,0,0,0,1.46.17,8.41,8.41,0,0,0,1-.21,2.13,2.13,0,0,1,.42-.1l.88-.12,1.16-.16c.3,0,.59-.06.88-.11a8.55,8.55,0,0,0,.88-.17l.56-.11.85-.17.57-.12.65-.08.79-.11a7.38,7.38,0,0,0,1-.27,2.52,2.52,0,0,1,.39-.12l1.28-.21.13,0a3.86,3.86,0,0,0,1.48.11l1.42-.22a3.84,3.84,0,0,0,1.36-.5l.13-.07.62-.07.66-.08a2.06,2.06,0,0,1,.35,0,5.54,5.54,0,0,0,1.08,0,6.36,6.36,0,0,0,1-.2c.14,0,.27-.08.38-.09a1.54,1.54,0,0,1,.3,0,5.47,5.47,0,0,0,1.15.07l.84-.11.54-.07c.19,0,.38,0,.56,0s.56,0,.83,0a7.52,7.52,0,0,0,.83-.09c.19,0,.37-.05.56-.06a4.73,4.73,0,0,0,1.09-.2c.1,0,.2-.06.29-.07s.37,0,.55,0a6.19,6.19,0,0,0,.75,0,2,2,0,0,1,.23.06,4.74,4.74,0,0,0,1.27.16,6.32,6.32,0,0,0,1.05-.16,1.94,1.94,0,0,1,.33-.07,3.85,3.85,0,0,1,.48,0,7.16,7.16,0,0,0,.92,0l.75,0,.65,0a4.1,4.1,0,0,0,1.22-.24L332,305h1.36l.26.05a4.47,4.47,0,0,0,1.18.15c.31,0,.62-.05.93-.09a3.55,3.55,0,0,1,.47-.06,6.34,6.34,0,0,0,1-.11l.35-.06a2.1,2.1,0,0,1,.24.06,4.14,4.14,0,0,0,1.23.17c.29,0,.57,0,.85-.06l.56-.05.55,0a8,8,0,0,0,.85,0l.76,0,1.27,0,.78,0a7.52,7.52,0,0,0,.82-.05l.58,0c.27,0,.54,0,.8,0l.61,0,.45,0a7.72,7.72,0,0,0,1,.05l1.41-.05a4.5,4.5,0,0,0,1.27-.27l.13-.06a1.65,1.65,0,0,1,.31,0,5.87,5.87,0,0,0,1.11.08,4.91,4.91,0,0,0,1.13-.2l.23-.06.17,0a4.47,4.47,0,0,0,1.29.16,5.7,5.7,0,0,0,1.11-.2,1.82,1.82,0,0,1,.29-.08l.44,0a7.58,7.58,0,0,0,1,0c.3,0,.6-.06.9-.11a4.46,4.46,0,0,1,.51-.07h.49c.31,0,.62,0,.93,0l.56,0c.29,0,.57,0,.86,0a7.69,7.69,0,0,0,.94-.16,4,4,0,0,1,.46-.08h.5c.31,0,.62,0,.93,0a6.83,6.83,0,0,0,1-.21,1.62,1.62,0,0,1,.38-.09,1.93,1.93,0,0,1,.34,0,5.72,5.72,0,0,0,1.09,0,3.85,3.85,0,0,0,.86-.22,2.82,2.82,0,0,1,.43-.12l.16,0a4.33,4.33,0,0,0,1.46.14c.52-.05,1.07-.13,1.58-.21a6.33,6.33,0,0,0,1.34-.41,1.7,1.7,0,0,1,.3-.12,5.28,5.28,0,0,0,2.07-1.09c.89-.79,1.51-.82,1.78-2C378.77,298.73,378.61,298.34,377.92,297.56Zm-244-37.93v0h0ZM200.06,258c.25-.42.51-.85.76-1.29l.74-1.28c.52-.93.85-1.73,1.38-2.69l.71-1.25.18-.31.18-.38.31-.63.31-.61.15-.31,0-.07.06-.16.06-.16c.16-.41.31-.82.46-1.22l.84-2.32c.14-.38.26-.74.38-1.08l.31-.91.28-.86c.08-.24.15-.47.21-.68l.39-1.29a2.05,2.05,0,0,0,.06-1,4.19,4.19,0,0,0,.4-.85l.11-.19a4.64,4.64,0,0,0,.52-1.05c.09-.27.15-.56.22-.84s0-.28.09-.41a4.41,4.41,0,0,0,.23-1.07c0-.08,0-.16,0-.21a4.41,4.41,0,0,0,.21-1.15,3.44,3.44,0,0,0,.81-1.22,3.71,3.71,0,0,0,.2-1.26,3.35,3.35,0,0,0,.75-1.12c.1-.26.18-.52.26-.78a3.73,3.73,0,0,1,.14-.44,4.12,4.12,0,0,0,.27-1.21,3.67,3.67,0,0,0,.78-1.1c.08-.19.17-.37.26-.54l.29-.59c.1-.22.19-.43.27-.64s.14-.34.22-.51a2.46,2.46,0,0,1,.22-.34,7.09,7.09,0,0,0,.45-.75,3.66,3.66,0,0,0,.38-1.55h0c.08-.17.16-.35.23-.52a2.55,2.55,0,0,1,.13-.29l.08-.07a4.49,4.49,0,0,0,.85-1l.15-.24c.17-.29.33-.57.51-.84a5,5,0,0,0,.49-1.07c0-.06,0-.11.05-.16l.19-.2a5.69,5.69,0,0,0,.59-.71,1.45,1.45,0,0,1,.18-.17,5.73,5.73,0,0,0,.72-.78c.1-.13.21-.25.31-.36s.36-.4.52-.6a3.9,3.9,0,0,0,.64-1.36v0c.14-.19.27-.38.39-.58s.09-.16.14-.23l.12-.08a4.67,4.67,0,0,0,.93-.77c.17-.19.33-.38.48-.58l.15-.19a3.59,3.59,0,0,0,1.36-.82,6.4,6.4,0,0,0,.67-.85,1.19,1.19,0,0,1,.1-.16,6.54,6.54,0,0,0,.66-.77l.16-.21a4.11,4.11,0,0,0,.67-.8,3.18,3.18,0,0,0,1.4-.64,5,5,0,0,0,.8-.84c0-.06.08-.12.06-.11l.41-.32c.2-.15.39-.31.59-.45a5.54,5.54,0,0,0,.77-.72,3.31,3.31,0,0,0,1.44-.5,7.27,7.27,0,0,0,.71-.53,2.09,2.09,0,0,1,.29-.23,4.43,4.43,0,0,0,1-.83,4.28,4.28,0,0,0,1.23-.41,4.19,4.19,0,0,0,1-.73l.06,0,.09,0a4.89,4.89,0,0,0,1.11-.35,4.17,4.17,0,0,0,1.13-.82h0l.14,0a6,6,0,0,0,1-.28l.66-.3.27-.13a3.89,3.89,0,0,0,1.53-.16,4.05,4.05,0,0,0,1.23-.72l.06,0c.2-.07.41-.16.61-.25l.14-.06a3.72,3.72,0,0,0,1.56,0,4.88,4.88,0,0,0,1-.41l.14-.07,1.23-.27a6.1,6.1,0,0,0,.9-.26c.11,0,.21-.08.31-.1l.5,0,.69-.06.17,0a4.94,4.94,0,0,0,1.18,0,7.62,7.62,0,0,0,.81-.14l.39-.07.26,0a6.33,6.33,0,0,0,1,0,3.6,3.6,0,0,0,1.53-.5H256c.25,0,.5,0,.74,0l.14,0a4.76,4.76,0,0,0,1.23.21,2.87,2.87,0,0,1,.41.05,7.71,7.71,0,0,0,.84.08,3.41,3.41,0,0,0,1.35-.23,3.84,3.84,0,0,0,1.22.36c.28,0,.55,0,.83,0a3.77,3.77,0,0,1,.47,0,4,4,0,0,0,1.48-.12l.05,0,1.09.19a2.21,2.21,0,0,1,.42.12q.4.13.84.24a3.88,3.88,0,0,1,.45.14c.26.08.52.17.79.24a7.5,7.5,0,0,0,.95.14l.29,0,.15.09a4.47,4.47,0,0,0,1.09.51,4.15,4.15,0,0,0,1.3.16,4.17,4.17,0,0,0,1.14.68l.53.23.65.29a3.85,3.85,0,0,0,1.14.27,3.42,3.42,0,0,0,1.15.93,4,4,0,0,0,1.41.35h.07l.29.15c.24.11.47.23.68.35s.17.13.26.19a5.94,5.94,0,0,0,.8.59c.37.22.73.44,1.1.68a3.24,3.24,0,0,1,.35.27,7.9,7.9,0,0,0,.67.51,7.45,7.45,0,0,0,.77.46l.29.14.15.17a4.73,4.73,0,0,0,.81.82,6.11,6.11,0,0,0,.75.5,3.7,3.7,0,0,1,.33.21l.41.34c.2.15.39.31.59.48a5.77,5.77,0,0,0,.77.57,2.4,2.4,0,0,1,.26.18c.18.17.37.32.55.48a4.47,4.47,0,0,1,.41.35,2.88,2.88,0,0,1,.22.27,5.78,5.78,0,0,0,.58.71,2.4,2.4,0,0,1,.18.26,7,7,0,0,0,.58.76l.71.81.12.13a5.36,5.36,0,0,0,.75.72l.18.14a7.7,7.7,0,0,0,.54.6c.1.11.21.22.3.34s.38.44.58.65l.2.22,0,.11a4.44,4.44,0,0,0,.53,1.15,4.54,4.54,0,0,0,.87.94l0,0,0,.08a4.56,4.56,0,0,0,.43,1,7.61,7.61,0,0,0,.51.75,2.16,2.16,0,0,1,.21.29,4.68,4.68,0,0,0,.72,1l.07.08a.83.83,0,0,1,0,.15,5.19,5.19,0,0,0,.32,1,2.13,2.13,0,0,1,.07.27,5.55,5.55,0,0,0,.29,1,4.53,4.53,0,0,0,.77,1.17l.05.05c.06.16.11.33.16.5s.07.22.11.34v0a4,4,0,0,0,.12,1.39,1.94,1.94,0,0,1,0,.24,5.57,5.57,0,0,0,.16,1.06,4,4,0,0,0,.63,1.27l0,0c0,.1,0,.21,0,.32s.07.5.12.75.07.41.1.62l.09.62c0,.23.09.45.14.67s.08.37.11.57a6.63,6.63,0,0,0,.19.86,2.45,2.45,0,0,1,.08.37,2.67,2.67,0,0,1,0,.4c0,.25,0,.5,0,.74l0,.13a4.75,4.75,0,0,0-.13,1.27,4,4,0,0,0,.26,1.22s0,.09,0,.14c0,.27,0,.53.09.8a2.27,2.27,0,0,1,.05.35,2.74,2.74,0,0,1-.05.28,6.09,6.09,0,0,0-.12,1v.14c0,.38,0,.75,0,1.13a4.3,4.3,0,0,0,.1,1.09,3.44,3.44,0,0,0-.51,1.42,4,4,0,0,0,.14,1.42l0,.06c0,.21-.06.41-.1.62l-.07.45c0,.26-.06.51-.08.77a4,4,0,0,1,0,.5c0,.14-.07.26-.11.39a6.28,6.28,0,0,0-.23.85c-.08.39-.17.78-.27,1.24s-.19.84-.29,1.25a4.17,4.17,0,0,0-.09,1.26,3.68,3.68,0,0,0-.61,1.18c0,.1-.09.19-.13.28a6.34,6.34,0,0,0-.39.91,4.63,4.63,0,0,0-.18,1.29v.12c-.07.21-.12.41-.18.62a4.28,4.28,0,0,1-.13.46c0,.08-.09.15-.14.23a6.49,6.49,0,0,0-.46.86l-.1.14a4.33,4.33,0,0,0-.61,1,4.58,4.58,0,0,0-.31,1.25.57.57,0,0,1,0,.13c-.1.23-.18.46-.26.69a2.25,2.25,0,0,1-.13.37,1.6,1.6,0,0,1-.16.23,5.69,5.69,0,0,0-.56.85c-.09.17-.19.33-.29.49s-.24.39-.35.59a4.37,4.37,0,0,0-.43,1.29.29.29,0,0,0,0,.09l-.27.49c-.09.17-.18.34-.28.51l-.52.8-.18.27c-.05.07-.12.13-.18.2a4.52,4.52,0,0,0-.69.8,5.45,5.45,0,0,0-.48.84,2.69,2.69,0,0,1-.16.29c-.14.19-.28.37-.43.55L290,270a2.39,2.39,0,0,1-.23.22,6.57,6.57,0,0,0-.69.7,4.32,4.32,0,0,0-.54.91,3.29,3.29,0,0,0-1.33.83c-.18.2-.34.4-.51.61a3.47,3.47,0,0,1-.3.37l-.44.46c-.14.16-.28.31-.43.46a3.55,3.55,0,0,0-.71,1,3.37,3.37,0,0,0-1.25.62,4.11,4.11,0,0,0-.84,1,3.9,3.9,0,0,0-2.07,1.5l-.06.08-.31.17c-.24.12-.47.24-.7.38a5.64,5.64,0,0,0-.88.73c-.06.05-.11.11-.1.11a4.89,4.89,0,0,1-.51.26c-.22.1-.43.2-.64.32s-.45.22-.68.33l-.47.23c-.18.09-.36.18-.53.28s-.41.22-.62.31l-.49.24-.67.31-.38.17-.79.33a2.8,2.8,0,0,1-.28.06,6.64,6.64,0,0,0-1,.26,3.19,3.19,0,0,1-.44.13c-.24.06-.49.13-.69.2a1.9,1.9,0,0,1-.25,0,5.57,5.57,0,0,0-1,.19,4.37,4.37,0,0,0-1.13.56l-.1.07-1,.26h-.16a4.53,4.53,0,0,0-1.16.08l-.49.11-.73.16a3.36,3.36,0,0,0-1.2.5,3.58,3.58,0,0,0-1.26-.06,3.4,3.4,0,0,0-1.45.6h-.1a6.37,6.37,0,0,0-.81,0l-.21,0a6.06,6.06,0,0,0-1-.06l-.12,0a4.58,4.58,0,0,0-1.29-.12,8.47,8.47,0,0,0-.88.12,1.51,1.51,0,0,1-.37.06,4,4,0,0,0-1.23.3h-1.17a3.3,3.3,0,0,0-1.38-.32,5.1,5.1,0,0,1-.78,0l-.48,0a1.75,1.75,0,0,0-.4,0l-.85-.06a6.36,6.36,0,0,0-1.12,0l-.25,0a1.12,1.12,0,0,1-.26-.08,5.2,5.2,0,0,0-1.15-.26,4.59,4.59,0,0,1-.51-.1c-.28-.06-.57-.11-.85-.15a7,7,0,0,0-1.1,0l-.3,0-.75-.09-.64-.07a2.85,2.85,0,0,1-.46-.12c-.29-.08-.59-.16-.88-.21a2.26,2.26,0,0,1-.37-.11,6.8,6.8,0,0,0-1-.28,6.62,6.62,0,0,0-1.09-.09h-.3c-.27-.06-.54-.1-.81-.14l-.57-.09c-.16,0-.31-.1-.46-.15s-.57-.2-.86-.27-.45-.12-.67-.18l-.67-.19a6.32,6.32,0,0,0-1.13-.16h-.27c-.23-.07-.47-.13-.7-.18l-.65-.17-.83-.24-.53-.15-.42-.17a8.25,8.25,0,0,0-.9-.34c-.3-.09-.6-.15-.9-.21s-.32-.06-.49-.11l-.6-.19-.77-.24a4.13,4.13,0,0,1-.45-.17c-.3-.12-.61-.23-.91-.32a5.69,5.69,0,0,0-1.21-.17h-.16a3.75,3.75,0,0,0-1.45-.71c-.32-.08-.64-.13-1-.18-.17,0-.34-.05-.5-.09-.35-.07-.71-.12-1.06-.17l-.44-.06a4.71,4.71,0,0,0-1.37,0h-.12l-.08,0a4.31,4.31,0,0,0-1.47-.4,4.83,4.83,0,0,0-1.22.08l-.17,0-.25-.05a4.84,4.84,0,0,0-1.18-.19,5.12,5.12,0,0,0-1.17.13l-.24,0-.51,0c-.3,0-.6,0-.9,0a6.8,6.8,0,0,0-1.06.13,2,2,0,0,1-.34.05h-.52c-.29,0-.59,0-.88,0l-.44,0-1,.07-.44,0-.88.07h-.31c-.34,0-.69,0-1,0h-1.33a3.62,3.62,0,0,1-.46-.06,8.43,8.43,0,0,0-.86-.11c-.23,0-.46-.05-.68-.08l-.63-.08a2.36,2.36,0,0,1-.46-.1c-.27-.06-.54-.13-.81-.17a6.36,6.36,0,0,0-1-.06h0a1.26,1.26,0,0,1-.28,0c-.42-.08-.83-.18-1.23-.29l-.36-.17c-.25-.12-.5-.24-.75-.34a9.47,9.47,0,0,1-1.05-.45,5.94,5.94,0,0,0-1-.38h0l0,0a5.87,5.87,0,0,0-.53-.71,5.43,5.43,0,0,0-.95-.8l-.11-.07a7,7,0,0,1-.33-.62l-.13-.26a2.39,2.39,0,0,1-.11-.46,3.28,3.28,0,0,0-.08-.35c0-.1,0-.2,0-.3s.05-.36.06-.63a3.18,3.18,0,0,1,.1-.74,5.33,5.33,0,0,0,.2-.81c0-.1,0-.2,0-.25.16-.29.36-.61.58-.95l.12-.09a5.07,5.07,0,0,0,.95-.9l.37-.5c.14-.2.28-.4.45-.6a2.42,2.42,0,0,0,.42-.77l.23-.26.14-.15h0l.09-.11,0,0,.06-.09.25-.35c.37-.5.78-1.06,1.22-1.68s.9-1.18,1.44-2l1.52-2.26.78-1.17C199.6,258.82,199.8,258.46,200.06,258Zm-7.4,4.13,0,0h0Zm.11-.12Zm0,0Zm2.14-7.88h0v0Zm0,0h0v0h0ZM194.73,242s.1.13,0,.05v0h0l0,0Zm-.26,9.19h0S194.48,251.21,194.47,251.23Zm0,0h0v0h0Zm-2.85-12.78h0Zm-3.53,2.6,0,0,0,0Zm-.51-.38a.69.69,0,0,1-.21-.16Zm-4.38-7.47,0,0Zm-.25-.15Zm-12-28.4a3.56,3.56,0,0,1,.65.46,6.58,6.58,0,0,1,.63.8l.43.57a4.1,4.1,0,0,1,.34.62,8.32,8.32,0,0,0,.5.93c.28.46.55,1,.85,1.56a8.33,8.33,0,0,0,.55.9,4.45,4.45,0,0,1,.38.66,7,7,0,0,1,.31.91c.08.28.17.56.26.84a7.57,7.57,0,0,1,.23.85c.07.31.14.63.23.94s.22.65.34,1a6.19,6.19,0,0,1,.27.79c.07.27.14.55.22.83s.18.65.25,1a7.52,7.52,0,0,1,.09.83c0,.35.05.7.11,1a8.37,8.37,0,0,0,.24,1.08,6.52,6.52,0,0,1,.17.77,6.14,6.14,0,0,1,0,.77,10.84,10.84,0,0,0,0,1.14c0,.29.06.59.1.89s.08.66.1,1,0,.56.06.85.06.7.07,1.05,0,.68.07,1a8.87,8.87,0,0,1,.06.89c0,.63,0,1.26,0,1.89-.1,0-.15,0,0,0h-.91l-.38.06a.21.21,0,0,1,.11,0h-.3l-.5,0-.25,0-.16,0-.1,0-.41-.07-.23,0h-.21l-.26,0h-.46l-.84,0c0-.29,0-.57-.08-.81s-.05-.36-.06-.54a4.9,4.9,0,0,1,0-.54,7.22,7.22,0,0,0,.07-1.09c0-.23,0-.46,0-.68s0-.64,0-1,0-.66-.09-1,0-.44,0-.65-.05-.66-.08-1,0-.44,0-.66,0-.44,0-.65,0-.66-.06-1,0-.45,0-.68,0-.65-.06-1a6.89,6.89,0,0,0-.24-1.16,3.43,3.43,0,0,1-.11-.46c0-.2,0-.41,0-.61a8.76,8.76,0,0,0-.07-1,2.57,2.57,0,0,1,0-.48,6.16,6.16,0,0,0-.05-1.18l-.07-.51c-.06-.38-.11-.76-.17-1.13a7,7,0,0,0-.33-1.15,2.38,2.38,0,0,1-.15-.45c0-.2-.06-.41-.09-.61,0-.35-.09-.7-.16-1s-.07-.4-.1-.6a8.85,8.85,0,0,0-.19-1.05,6.87,6.87,0,0,0-.38-1.09c-.06-.17-.13-.33-.18-.5-.1-.36-.23-.7-.36-1-.07-.18-.14-.36-.2-.55s-.1-.37-.14-.56a8,8,0,0,0-.3-1.07s0,0,0,0l.49.35A8,8,0,0,0,170.91,204.67Zm-2,31.59h0Zm-38.82-21.58s0,0,0,0Zm-4.78,2.6h0S125.31,217.23,125.28,217.28Zm9.08,8.12,0,0-.07.05-.14.1-.27.21a4.14,4.14,0,0,1-.76.44l-.42.22-.25.1c-.22.08-.4.19-.65.27l-.85.19-.17,0h-.36a3.12,3.12,0,0,1-.62,0L129,227l-.18,0h0a4.78,4.78,0,0,0,3.57-4.72,4.62,4.62,0,0,0-4.49-4.78,4.45,4.45,0,0,0-3.62,2c0-.13.08-.25.12-.39l.06-.2c0-.07,0,.08,0,.06h0l0,0,0-.08.13-.31a3,3,0,0,1,.15-.32l.23-.4.21-.35,0,0,.06-.06.1-.13a3.47,3.47,0,0,1,.52-.57l.36-.33.07-.06s0,0,0,0h0l.15-.1c.22-.13.38-.27.64-.42l.93-.46,0,0h0l-.07,0h0l.09,0,.18-.06.36-.14a1.82,1.82,0,0,1,.46-.11l.53-.11.19,0h.5a1.28,1.28,0,0,1,.4,0l.55.07.28,0,.13,0h0l.34.11a3.37,3.37,0,0,0,.34.09c.15.06.33.16.49.24l.51.26.25.16a3.6,3.6,0,0,1,.73.54l.42.39.07.06.11.16a3.94,3.94,0,0,1,.53.72l.27.45h0v0l0,.09.07.16c0,.12.11.21.16.35l.15.55.07.27v.1l.05.37a4.53,4.53,0,0,1,0,1v.13h0l0,.18-.05.36c0,.26-.19.68-.27,1s-.17.47-.25.7-.31.58-.46.88l0,0-.06.07-.1.14-.2.3C134.83,224.93,134.58,225.17,134.36,225.4ZM148.43,224l.08.07h0v0l.12.16a4,4,0,0,1,.55.74l.15.25.08.12,0,0,.13.32a1.87,1.87,0,0,1,.17.37l.15.55.06.23V227c0,.11,0,.23,0,.34s0,.11,0,.19v.28l0,.56,0,.54,0,.54a1.17,1.17,0,0,0,0,.27c0,.1-.06.28-.09.43v0l0,.09-.07.18-.14.36-.48.84a1.49,1.49,0,0,0-.15.2l-.25.25-.79.66-.72.64a5.43,5.43,0,0,1-.52.41l-.37.21h0l-.07,0-.15.06a6.91,6.91,0,0,1-1.47.3,5.17,5.17,0,0,1-2-.14,4.78,4.78,0,0,0,3.34-4.64,4.63,4.63,0,0,0-4.49-4.79,4.43,4.43,0,0,0-3.62,2,1.86,1.86,0,0,1,.1-.47l0-.08h0l.07-.14.14-.3s0,0,0,0c.17-.29.35-.56.52-.89l0,0,.09-.14c-.06.1,0,0,0,0h0l0,0,0-.07.11-.12.2-.27c.06-.08.23-.21.33-.32l.37-.33,0,0,0,0,0,0,.21-.17.39-.32a2.83,2.83,0,0,1,.33-.27l.24-.17.27-.11.34-.16a2.69,2.69,0,0,1,.36-.06c.17,0,.61-.14.85-.16a5.17,5.17,0,0,1,2.59.19,8.12,8.12,0,0,0,1.2.45l.19.11c.11.06.2.15.31.21a3.73,3.73,0,0,1,.7.56Zm13.34-25.59c-.14,0-.29,0-.45.06a6.81,6.81,0,0,0-3.3,1.1l-.56.32a12.75,12.75,0,0,0-1.45.9l-.4.27-.46.29a12.64,12.64,0,0,0-1.34.93c-.53.43-1.06.91-1.6,1.44a8.83,8.83,0,0,0-.93,1.11c-.13.18-.27.37-.42.55s-.25.22-.4.35a6.29,6.29,0,0,0-1.16,1.12,8.77,8.77,0,0,0-.72,1.25c-.1.2-.2.41-.32.6-.43.67-.78,1.24-1.09,1.8s-.47.91-.7,1.39l-.23.48c-.09.19-.19.38-.29.57-.21.42-.43.85-.62,1.3-.26.62-.52,1.26-.76,1.93s-.45,1.29-.66,2q-.09.3-.15.6c-.14,0-.28-.06-.42-.05l-.74.08c-.37.05-.5.08-.95.17a6.09,6.09,0,0,0-.7.26l-.37.13-.19.07-.09,0,0,0-.14.06h0l-.24.15-.07-.66,0-.19v0l0-.14v0l0-.06-.07-.28-.14-.55c-.07-.21-.17-.47-.27-.7l-.14-.36-.08-.17,0-.09,0-.05-.07-.12-.28-.49a8.52,8.52,0,0,0-.79-1.13l-.23-.3,0,0-.14-.14h0l-.06,0-.1-.1-.43-.37a6.84,6.84,0,0,0-1.1-.8l-.32-.2-.15-.1,0,0-.13-.07h0l-.07,0-.51-.25-.52-.24-.12,0c0-.13,0-.26.07-.4s.09-.41.12-.62a5.93,5.93,0,0,0,.07-1.14,3.78,3.78,0,0,1,0-.38,3.73,3.73,0,0,1,.18-.43,7.39,7.39,0,0,0,.39-1c0-.2.11-.4.16-.6s.15-.57.25-.85a6.25,6.25,0,0,0,.25-1,3.56,3.56,0,0,1,.1-.45c.2-.47.4-.93.62-1.38.13-.26.28-.51.43-.76l.31-.54c.15-.27.33-.53.5-.78l.32-.48c.13-.2.25-.41.37-.62s.26-.45.41-.66a4.18,4.18,0,0,1,.43-.45c.2-.21.4-.41.59-.63a9.08,9.08,0,0,0,.57-.81,4.27,4.27,0,0,1,.29-.41,4,4,0,0,1,.41-.3,7.81,7.81,0,0,0,.77-.59c.3-.26.61-.5.92-.73l.23-.17c.24-.19.47-.4.7-.62a3.7,3.7,0,0,1,.37-.33,2.06,2.06,0,0,1,.35-.12,5.07,5.07,0,0,0,1-.39,8.48,8.48,0,0,0,.81-.51c.14-.09.33-.22.4-.25.55-.22,1-.37,1.33-.48a6.54,6.54,0,0,1,.8-.14l.58-.09a10.6,10.6,0,0,1,1.38-.16,9.35,9.35,0,0,1,1,0l.78,0c.34,0,.66,0,.93.07a5.69,5.69,0,0,1,.62.19,6.18,6.18,0,0,0,.73.23l.51.13a8,8,0,0,1,.84.24,11.91,11.91,0,0,1,1.27.55l.51.24a8.17,8.17,0,0,1,.74.39l.14.09c.37.24.72.46,1,.7a6.59,6.59,0,0,1,.61.58l.41.41c.18.18.34.39.51.59s.27.33.41.49.43.54.64.82ZM162.93,234Zm-1.86,1.23ZM161,241Zm-1.84,2.84h0Zm-.77,1.4Zm-1.46,4.7h0s0,.09,0,.16h0v-.14Zm-8.25-4.7h0C148.64,245.16,148.72,245.2,148.69,245.19Zm-10.6,6h0Zm2.41,12.14s0,0,0,0Zm5.14,3.67Zm12,11.63Zm153.51,18.79a3.14,3.14,0,0,1-.95,1,4.61,4.61,0,0,1-1,.44l-.52.19a10.25,10.25,0,0,1-1.63.39l-.23,0a10.22,10.22,0,0,0-1.26.35,4.62,4.62,0,0,1-.83.24c-.33,0-.73,0-1.15,0h-1.09l-.9,0c-.46,0-.92.05-1.38,0a8.14,8.14,0,0,1-1-.09c-.43-.05-.86-.1-1.28-.11l-1.25-.08-1.07-.08c-.46,0-.9,0-1.34,0s-.69,0-1,0c-.85-.05-1.7-.09-2.54-.11-.57,0-1.11,0-1.59.06-.32,0-.64.05-1,.05s-.52,0-.83-.08a9.16,9.16,0,0,0-1.73-.13c-.54,0-1.09.08-1.63.14-.31,0-.61.07-.92.09a10,10,0,0,0-1.64.3,6.83,6.83,0,0,1-.88.17,6,6,0,0,1-1,0,10.11,10.11,0,0,0-1.7.07c-.45.06-.91.13-1.36.21l-1.23.19c-.4,0-.81.08-1.22.1l-1.35.12a12.16,12.16,0,0,0-1.46.29,8.76,8.76,0,0,1-1.06.2,12.09,12.09,0,0,1-1.23,0c-.43,0-.86,0-1.29,0s-.83.07-1.25.12a10.34,10.34,0,0,1-1.15.1h0a7.24,7.24,0,0,1-1-.11c-.42-.06-.89-.12-1.39-.15s-1,0-1.42,0a9.57,9.57,0,0,1-1.05,0c-.42,0-.85,0-1.27-.05s-.82,0-1.23-.05a5.4,5.4,0,0,1-.85-.19,9,9,0,0,0-1.65-.31,14,14,0,0,0-1.57,0c-.34,0-.68,0-1,0-.72,0-1.44-.06-2.17-.08h-.4a13.22,13.22,0,0,0-1.58.06c-.33,0-.66,0-1,0a6.59,6.59,0,0,1-.83-.11,8.2,8.2,0,0,0-1.77-.19,12.13,12.13,0,0,0-1.58.15c-.33,0-.66.09-1,.1-.53,0-1,.09-1.56.16-.34,0-.68.09-1,.11s-.91.11-1.37.18c-.31.05-.62.11-.93.13a4.37,4.37,0,0,1-.76,0,9.63,9.63,0,0,0-1.56-.05l-1.16.12-1.11.12c-.29,0-.62,0-1,0a11.45,11.45,0,0,0-1.31,0c-.39,0-.78.07-1.16.11s-.71.08-1.07.1a9,9,0,0,0-1.41.18,6,6,0,0,1-.79.1L225,302l-1.23,0a11.5,11.5,0,0,1-1.16-.08c-.4,0-.8-.08-1.2-.09s-.92-.09-1.41-.16l-.86-.11-1-.08a6.78,6.78,0,0,1-1.15-.12c-.64-.16-1.43-.32-2.28-.49a7.59,7.59,0,0,1-.78-.22,9.52,9.52,0,0,0-1.43-.38c-.5-.09-1-.16-1.46-.21l-.82-.11a9.58,9.58,0,0,0-1.91-.1,2.37,2.37,0,0,0-.76-.12,11.59,11.59,0,0,0-1.2.13c-.21,0-.42.06-.63.07a4.21,4.21,0,0,1-.62,0,7.88,7.88,0,0,0-1.23-.05,11.12,11.12,0,0,0-1.16.13c-.23,0-.45.07-.68.08l-.76,0-.89.05h-.63c-.36,0-.71,0-1,0a11.5,11.5,0,0,0-1.16.18l-.5.09-.65,0c-.35,0-.69,0-1,.06l-1,.15-.72.11-.77.08-.91.09c-.27,0-.53.06-.8.08l-.86.08-1.65.18a8.83,8.83,0,0,0-1,.16,3.91,3.91,0,0,1-.58.1l-.61.05-1,.06-.44-.06a7,7,0,0,0-.8-.1,5.17,5.17,0,0,0-.88,0,2,2,0,0,1-.35,0,8.42,8.42,0,0,1-1-.24l-.23-.07a4.06,4.06,0,0,1-.53-.21l-.6-.26a8.76,8.76,0,0,1-.82-.39l-.31-.15a7.5,7.5,0,0,0-1.1-.42,2.1,2.1,0,0,1-.42-.15l-.5-.26c-.33-.17-.66-.35-1-.5s-.94-.36-1.42-.52l-.23-.08-.41-.15a8.53,8.53,0,0,0-1.32-.43,13.88,13.88,0,0,0-1.86-.32,15.54,15.54,0,0,0-1.65,0h-.32a18.58,18.58,0,0,0-1.93.13c-.47.05-.9.14-1.29.22l-.55.12a4.93,4.93,0,0,1-.54.05,7.31,7.31,0,0,0-1.28.16c-.37.08-.73.18-1.09.28l-.64.18a10.28,10.28,0,0,0-1.07.35,5.66,5.66,0,0,1-.58.2,4.41,4.41,0,0,1-.54.07c-.33,0-.66.07-1,.14l-.22.05c-.4.08-.81.17-1.23.22a9.81,9.81,0,0,1-1,.05H156l-.67,0a5.07,5.07,0,0,1-.64,0,5.87,5.87,0,0,1-1-.28l-.35-.12a4.64,4.64,0,0,1-.78-.31,4.25,4.25,0,0,1-.46-.57l-.13-.17a4,4,0,0,1-.42-.63,3.71,3.71,0,0,1-.17-.92c0-.07.08-.28.12-.44s.14-.44.19-.67l.07-.29a4.44,4.44,0,0,1,.25-.9,9.42,9.42,0,0,1,.59-1.19l.27-.51a8.07,8.07,0,0,1,.42-.7,3.9,3.9,0,0,1,.29-.28,7.31,7.31,0,0,0,.75-.74,9.81,9.81,0,0,0,.6-.8c.11-.16.23-.33.35-.48s.4-.51.59-.77l.37-.5a9.56,9.56,0,0,0,.6-.82c.11-.16.23-.33.35-.48a3.4,3.4,0,0,1,.32-.34,6.72,6.72,0,0,0,.78-.85c.23-.3.44-.61.64-.9l.3-.43c.12-.16.24-.32.36-.46a8,8,0,0,0,.64-.86,2.25,2.25,0,0,0,.27-.62l.27-.39c.18-.29.41-.64.67-1l0,0v0h0l.12-.23,0-.08.08-.17c.06-.12.12-.23.17-.35a8.56,8.56,0,0,0,.36-.82c.06-.17.12-.33.19-.5l.09-.26.05-.13,0-.07.07-.22c.08-.3.17-.61.25-.94a3.19,3.19,0,0,0,.12-.59c0-.22.07-.44.11-.67l.05-.35,0-.25v-.14l0-.54c0-.2,0-.32,0-.59l-.06-.84,0-.42,0-.21,0-.11v0l-.06-.25v0l-.18-.55a13.85,13.85,0,0,0-1.18-2.49l-.59-1L161,268l-.06-.11,0,0,0-.07-.25-.52c-.17-.34-.34-.68-.5-1L160,266h0c0,.06-.07-.14.06.13l0,0,0-.07-.06-.12-.24-.5c-.15-.33-.31-.65-.46-1l-.11-.24h0s.12.34.06.17v0l0-.06,0-.12c-.06-.16-.13-.31-.19-.47l-.37-.9-.09-.22-.05-.11,0,0v0h0c0,.08,0-.18,0,.17h0a4,4,0,0,1-.12-.43l-.36-1.27a.59.59,0,0,0,0-.14q0-.22.06-.42a5.51,5.51,0,0,0,0-.77v-.06a1.53,1.53,0,0,0-.85-1.35,1.73,1.73,0,0,0-.86-.55,1.7,1.7,0,0,0-2.06,1.23l0,.08a2.21,2.21,0,0,0,0,.28,8,8,0,0,0,0,.8c0,.17,0,.36,0,.56s0,.21,0,.32V261l0,.18v.08c0,.14,0,.29.07.43l0,.28c0,.16-.05.33-.08.51h0c0,.08,0-.1,0-.08v0l0,0,0,.09-.06.2-.13.39-.1.31,0,.06-.11.2a3.41,3.41,0,0,1-.25.37l-.13.18,0,.05v0h0l0,.09-.06.11c-.43.83-.19.53-.93,1.15a3.87,3.87,0,0,0-.4.33,2.42,2.42,0,0,1-.36.31l-.12.1h0l-.06,0-.51.3-.27.15-.06,0h0l-.07,0-.28.13-.15.07-.07,0-.15,0,0,0h0l-.64.11-.24,0h-.12a6.29,6.29,0,0,1-.63,0h-.32c.28,0,.06,0,.12,0h-.1l-.17,0-.34,0-.27-.05-1.19-.24-.12,0h0l-.08,0-.35-.09c-.23-.07-.29-.11-.45-.15l-1-.48-.65-.37-.24-.14-.13-.12c-.19-.16-.37-.34-.55-.51l-.13-.13v0s0,0,0,0l0,0-.29-.25-.29-.25-.15-.13,0,0-.45-.55-.24-.3-.05-.07a.54.54,0,0,0,.1.13l0,0,0,0-.11-.16-.47-.63,0-.07,0,0-.19-.34c-.07-.12-.11-.22-.17-.33l-.09-.17,0-.08,0,0c.09.17,0,0,0,.07v0l-.36-.7-.18-.36-.08-.14-.05-.09-.1-.17c-.3-.51-.32-.54-.25-.44v-.42l0-.25,0-.24,0-.12v-.07l-.07-.22-.07-.18-.14-.38a1.34,1.34,0,0,0-.07-.18l0-.08v-.12l-.06-.4,0-.37v-.08l0-.88v-.27c0,.15,0-.25,0-.22v-.14l-.08-.4a1.73,1.73,0,0,0,0-.2l0-.08c0-.25.06-.51.11-.79l0-.22v-.12l0-.4,0-.4v-.2h0v0l.17-.78,0-.12,0-.09.12-.38.12-.38,0-.13v0l0,0,.26-.74.16-.47.1-.38.05-.16v-.19h0l-.05.09.36-.68.12-.22.06-.06c.17-.18.38-.37.58-.56l.08-.07,0,0c.05-.06-.1.13.13-.15l0,0,.1-.16a5.81,5.81,0,0,0,.33-.53h0l.5-.36.09-.07.22-.1c.22-.12.41-.18.61-.27l.06,0-.11,0h0l0,0,.17-.06.34-.12c.23-.09.42-.14.69-.25.06,0,.53-.26.68-.34s.44,0,.62,0h1.21l.31.06.56.16.07,0-.09,0h.05l.15,0,.31.09,1.07.35.37.13h.06l.07,0,.25.14.95.54.38.21.14.07,0,0c.17.18,0,0,.1.12l.17.25.29.36c.23.24.47.45.68.67l.67.64.21.19.08.07.05,0h0c.05.09.09.18.07.15h0l.06.17.07.19.12.28.06.14h0v0l.08.14.19.36a2.35,2.35,0,0,0,0,.28,1.17,1.17,0,0,0,0,.24,1.64,1.64,0,0,0,.41.65c0,.05,0,.1,0,.14l0,.17a1.54,1.54,0,0,0,3-.62v-.09s0-.07,0-.21-.05-.35-.1-.57v0l.13-.49c0-.09.05-.19.08-.29l0-.08h0s0,.22,0,.12v-.06l0-.15c.07-.2.14-.43.21-.66s.11-.44.17-.67l.11-.43c0-.13.06-.27.08-.33l0-.12v0h0l0-.1.15-.41.13-.34.15-.43.05-.16,0,0,.27-.44.16-.27a1.16,1.16,0,0,0,.09-.19l.2-.44,0-.12,0,0h0l.13-.21.27-.43.06-.11c-.1.19,0,0,0,.09h0v0l0-.06.13-.21.17-.27h0l0-.05.08-.1.16-.2.18-.21.09-.11h0c-.11.14,0,0-.05.07h0l0,0,0-.05.31-.4.15-.2.13-.19,0,0,0-.06.06-.11.07-.11.05,0,.36-.23a3.44,3.44,0,0,0,.36-.28l.19-.21h0l0,0,0-.05.15-.2.07-.09a.07.07,0,0,0,0-.05h0l.1-.07.19-.14.14-.1h0l.11-.05.2-.1.6-.31h0l.22-.17,0,0,0,0,.08-.08.16-.15c.06-.06,0-.06,0-.09l.09,0,.45-.19.12,0,.06,0,.12-.07h0l.16-.11.26-.16.12-.09.61-.25.14-.06h0l-.08,0h0l.07,0,.26-.09.47-.17.78-.3a2.36,2.36,0,0,0,.57-.35l.15,0,0,0H169l.21-.05.48-.1.59-.13.4-.1h1.07l.16,0,.18,0,.59-.08.76,0,.22,0h.12l.45,0h.34l.12,0,.24,0,.55.09.14,0h.09l.24,0,.51,0h.13l.35,0h.26l.34,0,.18.11.3.14c0,.3,0,.61-.06.92a2,2,0,0,0,1.8,2.18h.19a2,2,0,0,0,2-1.8s0-.06,0-.08h0l.35.05.1,0,0,0,.63.41,0,0h0l.15.07.07,0,.15.06.28.11a3.23,3.23,0,0,1,.34.15l.53.35.92.66.5.34.27.19.13.09.22.13h0l0,0,.08,0a4.55,4.55,0,0,0,.61.26l.17.06,0,0,.38.27h0l.13.23.27.38.17.2.09.09c-.21-.17.34.29.29.25h0l.13.09.08.05.21.12a3.36,3.36,0,0,0,.33.16l.08.1.21.26h0l.74,1.22.37.55.05.07v0l.2.24,0,0,.12.12.3.24c.07.06.14.1.21.15l.16.34a7.52,7.52,0,0,0,.62,1.06l0,.09.11.34.12.41,0,.1s0,.09,0,0v0l.06.16.22.61.06.16.08.2.14.3.1.19.07.14.18.62.09.31.05.16,0,0,0,.08.06.15.1.26,0,.08,0,.19a4,4,0,0,0,0,.45v.44a1,1,0,0,0,0,.12l.13.58,0,.19,0,.05v0l0,.24v0l0,.14,0,.08.06.17.08.25a2.67,2.67,0,0,0-.1.41,3.41,3.41,0,0,0-.06.43v.9l0,.08-.06.28-.09.3,0,.14V257c-.07.43,0,.13,0,.23v.07a3,3,0,0,0,0,.41l0,.3-.16.33-.14.3,0,.07,0,0c-.12.38,0,.11-.06.2v0l0,.13c0,.16-.08.4-.08.43v.1h0l0,0h0l0,0v0l0,0a.14.14,0,0,1,0-.06l-.08.09-.11.14a1.72,1.72,0,0,0-.17.23l-.16.26,0,.07-.09.19h0l0,.06c0,.1,0,.1-.09.3l-.07.24,0,.18,0,.1a.28.28,0,0,1,.07-.13l-.23.47-.12.26-.1.06-.13.09-.23.2a2.5,2.5,0,0,0-.23.23l-.11.12,0,0c.06-.11-.13.17-.11.15v0a5.05,5.05,0,0,1-.64,1.08l-.21.27-.1.13-.06.09a2.24,2.24,0,0,0-1.11.72c-.23.28-.44.56-.64.84l-.24.33a1.39,1.39,0,0,1-.19.15,4.62,4.62,0,0,0-1,1c-.33.5-.63,1-.88,1.45a5.08,5.08,0,0,0-.49,1.51,1.68,1.68,0,0,1-.06.24,7.65,7.65,0,0,0-.32,2l0,.28a4.65,4.65,0,0,0,0,1.81c0,.09,0,.18.05.27a6.11,6.11,0,0,0,.52,1.65l.11.22a9.52,9.52,0,0,0,.8,1.37,4.67,4.67,0,0,0,1.1,1l.17.11.13.18a4.34,4.34,0,0,0,1.14,1.26,4.19,4.19,0,0,0,1.44.64l.19.05a14.12,14.12,0,0,0,1.52.65l.31.15a5.77,5.77,0,0,0,1.15.48c.5.14,1,.26,1.52.37a9,9,0,0,0,1.22.1,1.74,1.74,0,0,1,.32,0l.42.09a9,9,0,0,0,1.06.21c.17,0,.33,0,.49.06.33.05.67.09,1,.11.15,0,.29,0,.43.06A7.42,7.42,0,0,0,202,284h1.51c.4,0,.8,0,1.19,0l.3,0,1.09-.08.4,0,.82-.05.49,0,.64,0h.66a6.78,6.78,0,0,0,1-.13,2.11,2.11,0,0,1,.35-.05l.58,0,.73,0a5.79,5.79,0,0,0,1.08-.12l.18-.05a2.44,2.44,0,0,1,.26.06,6,6,0,0,0,1.09.18,5.8,5.8,0,0,0,1.14-.1l.1,0,.06,0a4.68,4.68,0,0,0,1.31.39,5,5,0,0,0,1.21,0l.21,0,.43.07c.27,0,.55.07.82.13l.69.12.46.07.05,0a4.13,4.13,0,0,0,1.37.69,5.41,5.41,0,0,0,1.13.15l.26,0c.15,0,.3.11.46.17a7.93,7.93,0,0,0,.86.3l.65.21.69.21a8.86,8.86,0,0,0,.89.21,4,4,0,0,1,.5.11c.14,0,.27.11.41.16a9.42,9.42,0,0,0,.93.36l.51.14.88.26c.27.08.54.15.82.21l.58.15a5.13,5.13,0,0,0,1.16.16,2.77,2.77,0,0,1,.3,0l.53.15.87.24a3.45,3.45,0,0,1,.42.14,8.46,8.46,0,0,0,1,.29c.3.07.6.11.9.16a5.25,5.25,0,0,1,.55.09,6.15,6.15,0,0,0,1.12.1h.35l.34.11a7.17,7.17,0,0,0,1.07.3,3.2,3.2,0,0,1,.42.1,6.93,6.93,0,0,0,1,.24l.88.1.58.06a6.48,6.48,0,0,0,1.14,0,1.82,1.82,0,0,1,.33,0,3.4,3.4,0,0,1,.46.09c.33.06.65.13.94.16a2.5,2.5,0,0,1,.26.07,5,5,0,0,0,1.22.28,6.17,6.17,0,0,0,1.17,0,1.55,1.55,0,0,1,.31,0l1.37.09,1.35.07.37,0a3.11,3.11,0,0,0,1,.18h.06l1.35,0a3.89,3.89,0,0,0,1.45-.37l.06,0a5,5,0,0,0,.78-.12l.26,0,.11,0a4,4,0,0,0,1.27.12l.21,0a5,5,0,0,0,1.22.05,2.41,2.41,0,0,1,.38,0,6.43,6.43,0,0,0,1,0,3.22,3.22,0,0,0,1.33-.49,3.37,3.37,0,0,0,1.34.06,3.58,3.58,0,0,0,1.53-.7l.6-.13.37-.08a1.33,1.33,0,0,1,.2,0,4.9,4.9,0,0,0,1.24-.11l1.31-.34a4.15,4.15,0,0,0,1.25-.6l.07,0,.16,0a4.77,4.77,0,0,0,1.11-.23l.42-.11a7.71,7.71,0,0,0,.89-.27,2.8,2.8,0,0,1,.28-.06,5.16,5.16,0,0,0,1.1-.29l.94-.4.36-.16q.42-.18.84-.39l.44-.21c.28-.13.55-.27.83-.42l.42-.22.41-.2c.3-.14.59-.28.87-.43l.43-.21c.29-.14.57-.27.84-.43a5,5,0,0,0,1-.79l.12-.12.39-.22c.16-.08.31-.17.46-.26a2.2,2.2,0,0,0,1.53.94,11.78,11.78,0,0,0,1.38.09,7,7,0,0,1,1,.07,4.26,4.26,0,0,1,.79.28,9,9,0,0,0,1.47.51,13.48,13.48,0,0,0,1.38.22,9.35,9.35,0,0,1,1,.16l1.54.47.75.24a7.09,7.09,0,0,1,.94.41,11,11,0,0,0,1.27.55,10.63,10.63,0,0,0,1.4.38,6.49,6.49,0,0,1,.9.25,9.82,9.82,0,0,1,1.09.53c.35.19.69.37,1,.52s.66.28,1,.42.74.28,1.12.46.78.4,1.18.62l.83.45c.41.21.81.46,1.21.71l.7.43c.68.42,1.27.8,1.8,1.19.32.23.65.43,1,.63a4.17,4.17,0,0,1,.73.48A7.88,7.88,0,0,1,311,295a3.26,3.26,0,0,1,.13,1.21v.42C311.13,296.92,311.14,297.37,311.13,297.46Zm-84.67-36.13a8.92,8.92,0,0,1-.09-1.12,8.71,8.71,0,0,1,.08-1.1c0-.16,0-.32.05-.48a7.93,7.93,0,0,1,.12-1.08c0-.16,0-.33.07-.49,0-.53.11-1.05.18-1.57s.17-1,.26-1.55.21-1,.33-1.54.25-1,.4-1.52l.11-.44c.1-.36.19-.72.31-1.07,0-.13.06-.26.09-.4a6.28,6.28,0,0,1,.29-1.13c.06-.16.11-.33.16-.49.11-.34.22-.68.36-1a4.92,4.92,0,0,1,.7-1.14c.06-.08.12-.15.17-.23.14-.3.32-.61.49-.93l.24-.43a2.71,2.71,0,0,0,.17-.39,7.78,7.78,0,0,1,.49-1,4.11,4.11,0,0,0,.21-.42,10.36,10.36,0,0,1,.54-1,6,6,0,0,1,.82-1,2.83,2.83,0,0,0,.24-.25,2.91,2.91,0,0,0,.17-.3,5.73,5.73,0,0,1,.66-1.06l.3-.37c.23-.3.46-.59.7-.86a5.59,5.59,0,0,1,1-.84l.25-.19c.36-.38.74-.76,1.12-1.11a4.15,4.15,0,0,0,.27-.32,6.84,6.84,0,0,1,.81-.86l.38-.34c.27-.25.54-.49.83-.71a8.24,8.24,0,0,1,1-.63,3,3,0,0,0,.38-.23,10,10,0,0,1,1-.57,3.3,3.3,0,0,0,.41-.23c.33-.2.66-.37,1-.54l.41-.22a2.69,2.69,0,0,0,.27-.2,5.83,5.83,0,0,1,1.07-.7,5.51,5.51,0,0,1,1.22-.4,3.18,3.18,0,0,0,.33-.09c.11-.05.21-.12.31-.17a5.58,5.58,0,0,1,1.15-.57c.52-.17,1-.34,1.56-.47a7.58,7.58,0,0,1,1.16-.21l.45-.07c.54-.1,1.08-.19,1.61-.26l.45-.08a7.88,7.88,0,0,1,1.18-.19,11.49,11.49,0,0,1,1.2,0l.45,0c.46,0,.91,0,1.36.1l.3,0a8.52,8.52,0,0,1,1.22.21l.43.1a14.86,14.86,0,0,1,1.63.37,15.46,15.46,0,0,1,1.62.53,14.78,14.78,0,0,1,1.58.71c.52.28,1,.57,1.42.85s.88.62,1.24.9l.11.08a3,3,0,0,0,.36.26,8.2,8.2,0,0,1,1,.76c.38.36.69.72,1,1l.18.2.3.3a6.4,6.4,0,0,1,.86.95,6.19,6.19,0,0,1,.64,1.14c.06.12.11.24.17.35a3.88,3.88,0,0,0,.23.33,7,7,0,0,1,.69,1.11,5.18,5.18,0,0,1,.38,1.38,1.37,1.37,0,0,0,.05.28,2.09,2.09,0,0,0,.15.3,6,6,0,0,1,.5,1.23c.13.49.27,1,.37,1.62l.06.34c.08.43.15.87.19,1.31a4.52,4.52,0,0,1-.13,1.47,2,2,0,0,0,0,.24c0,.08,0,.21,0,.34a5.84,5.84,0,0,1,.07,1.24,11.47,11.47,0,0,1-.14,1.16c0,.15-.05.3-.07.46-.07.53-.17,1.06-.27,1.59,0,.15-.06.31-.08.46a11.45,11.45,0,0,1-.22,1.14,8.38,8.38,0,0,1-.38,1.08c-.05.15-.11.3-.16.44-.17.52-.36,1-.57,1.52l-.08.19c-.18.44-.35.88-.56,1.3-.06.12-.11.26-.16.39a6,6,0,0,1-.5,1.11c-.24.42-.51.81-.78,1.21l-.11.17q-.31.44-.66.84l-.32.39-.31.43c-.2.29-.41.58-.63.85s-.18.26-.27.39a7.16,7.16,0,0,1-.67.9,9.64,9.64,0,0,1-.83.79,3.39,3.39,0,0,0-.34.31c-.27.27-.56.51-.85.75l-.37.31-.29.26c-.3.28-.6.56-.91.81l-.34.31a7.2,7.2,0,0,1-.88.77c-.33.23-.67.43-1,.62l-.4.23a6.55,6.55,0,0,1-1.15.53l-.36.15c-.13.06-.24.15-.37.22a5.74,5.74,0,0,1-1.07.6c-.51.22-1,.41-1.56.59s-1.06.32-1.61.45a12.63,12.63,0,0,1-1.3.22l-.36.05a13.26,13.26,0,0,1-1.81.15,10.75,10.75,0,0,1-1.86-.18,2,2,0,0,0-.35-.05,6,6,0,0,1-1.56-.37,5,5,0,0,1-1.43-1c-.07-.06-.13-.13-.21-.19l-.24-.16A6.25,6.25,0,0,1,244.5,268a8.86,8.86,0,0,1-1.09-1.69,7.56,7.56,0,0,1-.58-1.82l0-.14a9.86,9.86,0,0,1-.3-1.95c0-.12,0-.25,0-.38a7.23,7.23,0,0,1,0-1.54,6.91,6.91,0,0,1,.36-1.4c0-.14.09-.27.13-.4a11.3,11.3,0,0,1,.55-1.48l.2-.48a11.17,11.17,0,0,1,.68-1.41,12,12,0,0,1,1-1.54,11.69,11.69,0,0,1,1.3-1.39,2.25,2.25,0,0,1,3.05,3.32,7,7,0,0,0-.82.85,10.35,10.35,0,0,0-.67,1,6,6,0,0,0-.4.87l-.22.52a7.4,7.4,0,0,0-.36.91c-.06.21-.13.43-.2.64a1.87,1.87,0,0,0-.14,1.17l0,.56a6.08,6.08,0,0,0,.18,1.05l0,.18a4.68,4.68,0,0,0,.24.84,4.22,4.22,0,0,0,.52.8c.05.05.25.19.39.29l.35.24a6.94,6.94,0,0,1,.59.51l.17.15.34,0c.21,0,.42.05.62.09a5.72,5.72,0,0,0,1.07.11,7,7,0,0,0,1.13-.11l.43-.06a5.74,5.74,0,0,0,.83-.13c.41-.1.83-.21,1.24-.35a12.12,12.12,0,0,0,1.22-.46,3.19,3.19,0,0,0,.38-.23c.24-.15.49-.31.75-.44a6.92,6.92,0,0,1,.83-.36,2.76,2.76,0,0,0,.39-.16c.17-.11.36-.21.54-.31s.41-.23.61-.37a3.49,3.49,0,0,0,.35-.32c.21-.2.42-.41.65-.59s.46-.4.69-.61l.32-.29a6.19,6.19,0,0,1,.55-.47c.16-.14.33-.27.49-.42a8,8,0,0,1,.6-.56,5,5,0,0,0,.42-.38c.1-.12.19-.26.28-.39a9,9,0,0,1,.52-.74,6.61,6.61,0,0,0,.44-.6c.13-.17.25-.35.38-.53s.32-.39.48-.59.27-.32.39-.5l.13-.17c.2-.3.41-.6.59-.92a2.12,2.12,0,0,0,.17-.41,7.27,7.27,0,0,1,.34-.81c.16-.33.3-.67.44-1l.08-.21c.16-.4.32-.81.46-1.23.07-.22.16-.44.25-.66s.15-.39.21-.59.09-.46.13-.69.06-.41.1-.61c.08-.44.17-.87.22-1.31,0-.21.06-.42.1-.62a5.52,5.52,0,0,0,.09-.68c0-.08,0-.28,0-.43a6.52,6.52,0,0,1-.07-.88,5.44,5.44,0,0,1,.14-1.21,1.29,1.29,0,0,0,0-.19c0-.29-.08-.57-.13-.85l-.06-.36c-.08-.42-.19-.85-.3-1.26a2,2,0,0,0-.14-.3,8.42,8.42,0,0,1-.4-.87,5.43,5.43,0,0,1-.24-1.05,2.8,2.8,0,0,0-.06-.28l-.21-.28a6.71,6.71,0,0,1-.47-.71c-.14-.23-.25-.48-.37-.72a3.73,3.73,0,0,0-.21-.41,3.15,3.15,0,0,0-.32-.32c-.19-.19-.39-.38-.57-.58l-.19-.23c-.21-.24-.42-.48-.66-.71a5.4,5.4,0,0,0-.45-.33c-.19-.13-.38-.26-.57-.41l-.11-.08c-.3-.23-.59-.47-.92-.68s-.71-.45-1.1-.66a9,9,0,0,0-1.11-.49A11.92,11.92,0,0,0,260,232c-.35-.1-.74-.19-1.23-.28l-.61-.13a4.54,4.54,0,0,0-.66-.12l-.33,0c-.32,0-.64-.07-1-.07l-.65,0a5,5,0,0,0-.67,0,2.67,2.67,0,0,0-.48.08c-.27.06-.55.12-.83.16-.43,0-.87.12-1.31.21-.25.05-.5.08-.75.11a5.86,5.86,0,0,0-.58.1c-.42.11-.85.25-1.28.39a1.91,1.91,0,0,0-.27.16,7.15,7.15,0,0,1-.93.48,8.14,8.14,0,0,1-1,.29,3.58,3.58,0,0,0-.35.09l-.23.18a6,6,0,0,1-.88.61l-.53.27c-.22.12-.45.23-.67.37s-.45.26-.69.38a4.91,4.91,0,0,0-.5.28c-.23.17-.48.31-.73.46a3.18,3.18,0,0,0-.44.26c-.19.15-.38.32-.56.49l-.48.42-.27.31a8.93,8.93,0,0,1-.65.73c-.33.31-.66.63-1,1a7.37,7.37,0,0,1-.84.7,1.28,1.28,0,0,0-.26.2c-.18.19-.35.42-.53.64l-.34.43a2.85,2.85,0,0,0-.16.3,8.54,8.54,0,0,1-.53.88,6.65,6.65,0,0,1-.7.79,1.81,1.81,0,0,0-.24.24,3.17,3.17,0,0,0-.23.45c-.13.26-.25.52-.4.77a2.13,2.13,0,0,0-.18.41c-.12.29-.24.57-.38.84s-.19.35-.29.52-.25.45-.37.69a5.71,5.71,0,0,1-.63,1,1.84,1.84,0,0,0-.17.22c0,.14-.11.34-.17.54s-.15.49-.24.73a2.73,2.73,0,0,0-.1.41c-.06.31-.13.63-.22.93s-.16.54-.23.82l-.14.51c-.12.44-.24.88-.34,1.33s-.21.89-.29,1.34-.17.9-.23,1.35-.12.91-.16,1.36c0,.25-.06.51-.1.76s-.07.4-.08.6,0,.54-.07.81a5.11,5.11,0,0,0,0,.55,4.89,4.89,0,0,0,0,.55c0,.28.07.55.09.82a4.5,4.5,0,0,0,.08.51,7.56,7.56,0,0,1,.14.83,7.33,7.33,0,0,1,0,1,1.9,1.9,0,0,0,0,.34c.07.4.16.82.26,1.24a5.65,5.65,0,0,0,.2.65c.08.23.16.46.22.69s.17.48.26.72.14.35.2.53.14.43.21.65a4.9,4.9,0,0,0,.21.61c.11.26.2.53.29.81s.12.36.16.44.16.22.25.34a6.73,6.73,0,0,1,.53.75c.23.37.47.73.72,1.09.13.18.26.38.38.57s.23.36.36.52a2.77,2.77,0,0,0,.33.29c.22.19.44.39.64.6a2.25,2.25,0,0,1-1.62,3.81,2.21,2.21,0,0,1-1.62-.7c-.1-.1-.21-.18-.31-.27a7,7,0,0,1-.89-.86,8.53,8.53,0,0,1-.67-1l-.26-.39c-.32-.45-.62-.9-.9-1.36a4,4,0,0,0-.24-.33,6.32,6.32,0,0,1-.69-1,7.46,7.46,0,0,1-.45-1.12,2.83,2.83,0,0,0-.14-.41,9.86,9.86,0,0,1-.38-1.08c-.05-.15-.09-.3-.15-.45s-.1-.29-.16-.43c-.14-.36-.27-.72-.38-1.09,0-.16-.1-.31-.15-.46a8.53,8.53,0,0,1-.33-1.09c-.13-.56-.24-1.06-.32-1.57a6.42,6.42,0,0,1,0-1.27,1.93,1.93,0,0,0,0-.34,3.54,3.54,0,0,0-.08-.45,9.29,9.29,0,0,1-.16-1.13A4,4,0,0,0,226.46,261.33ZM213,238.78a3.19,3.19,0,0,0,.11.65l0,.19,0,0,.05.13,0,0c0,.08.07.15.1.23a3.7,3.7,0,0,0,.42.67l.07.1,0,0h0l.14.13h0l0,0,.1.1a2.3,2.3,0,0,0,.25.16,2.79,2.79,0,0,0,.34.18,1.92,1.92,0,0,1,.28.13l.17.09.31.16.19.1.27.09a3.71,3.71,0,0,0,1.11.14h.33a5,5,0,0,0,.56-.09l.28-.06.14,0,.22-.09.3-.15a8,8,0,0,0,.74-.43l0,0,.18-.12.06-.06.13-.11.25-.24.28-.29.14-.14,0,0,.1-.11v0l.05-.06.82-1,.11-.13a3.66,3.66,0,0,0,.31-.35l.18-.26.08-.13,0-.07.07-.16h0l.08-.29c.06-.18.11-.37.16-.54s.08-.43.12-.62a2.68,2.68,0,0,1,.05-.3l0-.15V236l0-.15v-.49a3.54,3.54,0,0,0,0-.79c0-.29-.08-.49-.1-.62a.88.88,0,0,0,.06-.28h0a4.33,4.33,0,0,0-.05-.55,1.8,1.8,0,0,0-.06-.31l-.17-.49-.11-.27-.06-.14,0,0h0l-.09-.14h0l0,0a1.75,1.75,0,0,0-.36-.44,2.76,2.76,0,0,0-.37-.31l-.27-.18c-.21-.14-.34-.2-.51-.3s-.3-.18-.51-.29a2.78,2.78,0,0,0-1-.27h-.69a6.08,6.08,0,0,0-.95.16l-.06,0h0l-.15.06-.06,0-.14.06-.27.12-.66.4h0l-.15.11,0,0-.06,0-.11.1-.23.2-.6.62c-.25.3-.47.61-.71.91l-.18.22-.09.1a4,4,0,0,0-.54.7l-.06.12,0,0-.07.16h0v0l0,.12-.06.24a3.38,3.38,0,0,0-.11.48c0,.18-.06.34-.09.5v.15h0l0,.14h0V236c0,.26,0,.44,0,.67s0,.27,0,.37a1,1,0,0,0-.17.43,2.5,2.5,0,0,0,0,.63A3.08,3.08,0,0,1,213,238.78Zm2.37-.06Zm2.55.14h0Zm.76-.7Zm1.24-1.21Zm-2.62-3.22h0Zm-.08.08s0,0,0,0ZM216,235c0-.07,0,0,0,0v0Zm-.79,2.38v0s0-.16.1-.45c0-.12.1-.35.15-.58l.05-.18v0h0a.53.53,0,0,0,0,.13h0v0l0-.08q.06-.15.12-.33c0-.11.11-.26.17-.41l.1-.22h0c0,.05,0,0,.14-.1l.3-.27.2-.2.72-.81h0l0,0,.07-.08.16-.16.23-.19.12-.09,0,0,.29-.2.27-.13.12-.07s.07,0,.17-.06l.29,0h.17c-.06,0,0,0,0,0a3.37,3.37,0,0,1,.46.15l.39.13.14.05a.1.1,0,0,1,0,0c0-.1.15.12.23.18v0l0,0a.69.69,0,0,0,.11.13s.06.18.09.24a1.91,1.91,0,0,0,.09.26l0,.18s0,.17-.05.45a3.22,3.22,0,0,1-.11.62l-.09.43v0h0s0,.06,0-.14h0v.05l0,.09-.07.18c0,.13-.07.25-.13.41l-.23.51-.07.16h0v0h0l-.12.1-.33.31c-.27.3-.58.63-.86,1l-.06.06h0l0,.06-.19.19-.25.22-.13.11h0a2.31,2.31,0,0,1-.4.26l-.26.14h0a.18.18,0,0,0-.09,0l-.33,0c-.35,0-.07,0-.16,0h0l-.1,0a1.63,1.63,0,0,1-.26-.09l-.39-.13c-.15,0-.18,0-.27-.07a.21.21,0,0,1,.08.06s.06.08,0,0l-.12-.08,0,0h0l.11.1s-.08,0-.18-.18l-.14-.21h0c0-.06,0,0-.07-.2a3.65,3.65,0,0,0-.17-.69,1.72,1.72,0,0,1-.07-.21A.69.69,0,0,0,215.17,237.39ZM212.67,252l0,.14.05.16,0,.18a2.93,2.93,0,0,0,.22.56,4.25,4.25,0,0,0,.4.61l.3.29.17.14,0,0,.17.09,0,0,.2.11.51.17a4.46,4.46,0,0,0,1.42.07,2.49,2.49,0,0,0,.54-.07,6.22,6.22,0,0,0,.84-.25l.1,0h0l.15-.09h0l0,0,.1-.07.2-.15a3,3,0,0,0,.46-.37l.25-.22.11-.11.09-.09h0l0,0,0-.05.3-.36a6,6,0,0,0,.65-1l.18-.37a4.6,4.6,0,0,0,.18-.49,2.25,2.25,0,0,0,.08-.24l0-.11,0-.06h0l0-.17h0v0c0-.12,0-.22,0-.33a2.9,2.9,0,0,0,0-.59c0-.18,0-.31,0-.41a1.13,1.13,0,0,0,.14-.36,1.6,1.6,0,0,0,0-.4.68.68,0,0,0,0-.23l-.09-.38-.06-.21,0-.11v-.06h0l-.1-.18v0l-.14-.28a2.94,2.94,0,0,0-.8-.9l-.07-.06-.11-.06h0l-.08-.06a1.11,1.11,0,0,0-.2-.11,3.29,3.29,0,0,0-.75-.25,3.07,3.07,0,0,0-.67-.08h-.16l-.15,0h-.11l-.24,0a5,5,0,0,0-1.17.46,5.31,5.31,0,0,0-.9.58,8.8,8.8,0,0,0-.73.63l-.13.11-.21.21a3.28,3.28,0,0,0-.43.51l-.05.07-.08.14h0v0l0,.09-.07.16-.12.32a2.65,2.65,0,0,1-.11.3l0,.07-.11.29v.19a4.09,4.09,0,0,0,0,.49c0,.32,0,.49,0,.49h0s0,0,0,.07h0a1.86,1.86,0,0,0-.11.45c0,.07,0,.15,0,.24a3.28,3.28,0,0,0,0,.43C212.64,251.6,212.65,251.78,212.67,252Zm2.65-.22Zm2.41-3.81ZM215,250.27c0-.09.11-.25.17-.41l.05-.13,0,0v0c-.21.55,0,.15-.1.27h0l0-.06.19-.25.2-.28.1-.15.05-.08v0h0l-.07.12h0l.1,0,.09-.06L216,249c.23-.17.51-.35.59-.41s.52-.31.56-.34c.24-.14.54-.24.42-.24s.11,0,.17-.05l.1,0h-.1l.15,0c.07,0,0,0,0-.06s.11,0,.16,0l.09,0h0l-.1-.05h0s0-.22.2.06l.21.24h0c-.05-.08.09.17-.1-.17h0v0l0,0,0,0,.08.08a.75.75,0,0,1,.07.18s0,0,0,0l-.07.19a1.62,1.62,0,0,0-.09.29,3.9,3.9,0,0,1-.14.42c0,.1-.07.2-.11.31v0h0s0,.05,0-.15h0v0l0,0-.06.09c0,.07-.06.11-.14.22s-.15.22-.24.33-.25.26-.37.44-.23.21-.34.32l-.05,0,0,0h0l.08-.08h0l-.06,0-.12.11a1.5,1.5,0,0,1-.3.23l-.21.14h0a.13.13,0,0,0-.1,0s-.11,0-.18,0l-.24,0a3.1,3.1,0,0,0-.47.09.14.14,0,0,1,.06.07l-.22-.07-.05,0h0l.14.08h0a0,0,0,0,1,0,0l-.09,0s0,0-.12-.13l-.08-.16,0,0v0h0s0,0,0,0l0-.08s-.05-.05-.06-.12a2.09,2.09,0,0,1,0-.24,2.68,2.68,0,0,0,0-.34h0S214.89,250.46,215,250.27Zm70.67,11a9.67,9.67,0,0,0,1-2.54,1.72,1.72,0,0,0,0-.2,4.29,4.29,0,0,1,.17-1.42,6.27,6.27,0,0,1,.28-.71,9.33,9.33,0,0,0,.38-1,2,2,0,0,1,3.69-1.45c.75,1.37.09,2.91-.4,4a2.93,2.93,0,0,0-.12.28v.18a4.16,4.16,0,0,1-.06,1,13.54,13.54,0,0,1-1.51,3.82,2,2,0,0,1-1.73,1,2,2,0,0,1-1-.28A2,2,0,0,1,285.63,261.25ZM279,265.87a7.14,7.14,0,0,1,.41-2.27,4.32,4.32,0,0,0,.26-1.12,2,2,0,0,1,2-2,2,2,0,0,1,2,2,7.61,7.61,0,0,1-.44,2.27,3.84,3.84,0,0,0-.23,1,2,2,0,0,1-2,2h0A2,2,0,0,1,279,265.87Zm-10.54,10.4a1.89,1.89,0,0,1,0,1.83,8,8,0,0,1-.65,1,2.6,2.6,0,0,1-.36.38l-.42.39c-.15.13-.3.27-.46.39l-.58.34a11.29,11.29,0,0,1-1.18.56c-.31.07-.61.11-.86.15l-.6.1a3.69,3.69,0,0,1-.94-.15,1.39,1.39,0,0,1-.53-2.31.89.89,0,0,1,.29-.36c.12-.09.29-.22.5-.36s.45-.33.71-.5a4.29,4.29,0,0,1,.45-.49l.25-.19a1.9,1.9,0,0,1,.24-.25,1.65,1.65,0,0,1,.24-.22c.07-.06.17-.12.2-.18a1.53,1.53,0,0,1,.37-.33l.73-.43A1.87,1.87,0,0,1,268.41,276.27ZM244.49,221a1.07,1.07,0,0,0-.15-.21,4.15,4.15,0,0,0-.44-.38,2.31,2.31,0,0,0-.42-.23c-.12-.05-.25-.12-.38-.16l-.35-.08-.19,0-.24,0-.48,0a6.57,6.57,0,0,0-1.38.19l-.47.13-.64.23-.15.06-.08,0,0,0h0l-.11.06h0l-.2.14-.38.27-.4.31-.2.16s-.09.07-.13.1l-.33.24-.39.31-.18.16-.09.07,0,0h0l-.08.09h0a3.16,3.16,0,0,1-.18.27,4,4,0,0,0-.29.47c-.16.3-.24.47-.24.47a.19.19,0,0,0,0,.07,1.94,1.94,0,0,0-.33.33,4.75,4.75,0,0,0-.46.56,3.55,3.55,0,0,0-.28.49l0,.08h0l0,.11v0l0,.1-.07.19,0,.11,0,.19-.06.4a3.42,3.42,0,0,0,0,.84,3.28,3.28,0,0,0,.17.5l0,.12,0,.06v0c-.14-.18.2.25.16.21h0v0l.08.1a2.69,2.69,0,0,0,.93.68,5,5,0,0,0,.79.24l.18,0,.1,0h.2l.28,0,.27,0c.11,0,.28,0,.42,0l.43-.06.21,0h.1l.14-.05.07,0,1.05-.4.13,0h0l.24-.11h0l.05,0,.24-.15.45-.29.22-.15.11-.07,0,0,.18-.13h0l0,0,.38-.33.35-.31.14-.12.07-.08.16-.15.14-.15.18-.2.17-.19.08-.09.15-.19c.1-.21.18-.39.25-.55.14-.35.21-.56.21-.56a.11.11,0,0,0,0-.05h0a1.89,1.89,0,0,0,.28-.36,2.9,2.9,0,0,0,.31-.64l.09-.22a2.5,2.5,0,0,0,.07-.26l0-.17a2,2,0,0,0,0-.36A2.28,2.28,0,0,0,244.49,221Zm-2,1.76v.12h0a.6.6,0,0,1-.06.31,2.46,2.46,0,0,0-.15.43h0s-.12.14-.24.3l-.4.45h0c-.06.09.09-.11.07-.09h0l0,0,0,0-.1.06-.28.19-.19.12-.09.06h0s.08-.07,0,0h0l-.05,0-.4.26-.42.26,0,0h0l.14-.09h0l-.06,0-.11.06-.24.12c-.15.09-.31.17-.47.25l-.2.11-.07,0-1,.35H238l-.13,0a.84.84,0,0,1-.14,0h-.62c-.13,0-.17,0-.23,0h0l0-.21v-.12h0l0,.07c0-.05,0-.08,0-.15a4.1,4.1,0,0,1,.22-.41l.2-.32.06-.13,0-.06h0l.24-.2c.08-.08.22-.19.38-.32l.25-.2v0h0l-.08.07h0l0,0,.11-.05.25-.1.37-.18a1.28,1.28,0,0,0,.24-.12l.17-.1c.11-.06.22-.14.33-.21l.41-.22.11-.06h.06l.07,0,.28-.09.48-.11a1.59,1.59,0,0,1,.29-.06c.09,0,.11-.06.25-.07l.48,0h.18s.06,0,0,0a.22.22,0,0,1-.08-.13s.09.08.13.11c-.05-.15,0-.09,0-.11s0,0,0,0Z" style="fill: #1d1d1b"/>
  </g>
</svg>
