<svg xmlns="http://www.w3.org/2000/svg" viewBox="0 0 500 500">
  <title>snail</title>
  <g>
    <path d="M199.34,286.09a64.65,64.65,0,0,1,16.6-4.77s17.81,7,30.35,7.75,26.71-3.93,28.76-4.65c5-1.75,9.45-1.79,11.74-2.14,4.06-.63,8.08.2,12.12.54,4.35-.3,5-1.23,8.83-2.59.13-.16,3.24-2,3.37-2.27,2.26-4.53.21-8.38-1.58-12.32a14,14,0,0,1-2.53-3.32,9.42,9.42,0,0,1-1.87-3.33,11.21,11.21,0,0,1-.52-7.44c.11-2.05,1.18-6.21,3.49-8.11a14.65,14.65,0,0,1,5.73-5.67,1.75,1.75,0,0,1,.39-.3,13.69,13.69,0,0,1,2.56-1.23,2.23,2.23,0,0,1,.93-.13A14.3,14.3,0,0,1,325.4,234a26.14,26.14,0,0,1,12.06,2.75,1.92,1.92,0,0,1,1.12,1.32,15.34,15.34,0,0,1,6.86,13,.82.82,0,0,0,.56-.25,11.67,11.67,0,0,1,5.58-6.64c1.81-1.44,6.82-2.27,8,0a12.43,12.43,0,0,1,1.24.66c5.83,3.57,4.71,13.63,2.39,18.83-2.6,5.84-12.15,7.05-16.54,2.76a8.78,8.78,0,0,1-2.3-3.41c-.32-.85-.57-1.73-.91-2.59.56,1.42-.25,3-.43,4.45A22.34,22.34,0,0,1,340.7,272c-1.81,3.76.15,6.6,1.56,9.91l.06,0a82.37,82.37,0,0,0,5.73,7.44c4.94,5.81,3.91,10.64-.23,12.08-2.56.88-5.64.31-8.12-.33-3.32-.87-6.73-1.8-10.19-1.48-2.71.24-5,1.42-7.45,2.62a14.46,14.46,0,0,1-7,1.58c-3.21-.08-6.92-.64-10.1-1-1.74-.2-3.62-.36-6.54-.55-1.7-.11-3.39-.18-5.46-.25l.33-.14-.7,0,.37.1a79.33,79.33,0,0,0-8.84,1.54,46.43,46.43,0,0,1-9.71.65c-4,0-10.15,1-15.11.58s-8.08.67-13.66.09c-4.2-.43-8.51-.81-12.73-1s-9.36.2-13.69-.32c-4.13-.49-7.78,0-11.92.25s-11.87-1.21-16.08-2c-2.72-.5-4.11-1.85-4.11-5.56C187.11,291.71,194.94,288.06,199.34,286.09Z" style="fill: #62a2d9"/>
    <path d="M375.66,225.81a8.25,8.25,0,0,1-1.91,1.51,8,8,0,0,1-2.25.94,7.91,7.91,0,0,1-2.43.09,7.83,7.83,0,0,1-2.37-.53,7.73,7.73,0,0,1-2.09-1.25,7.6,7.6,0,0,1-1.36-1.54,7.49,7.49,0,0,1-1.45-3.84,7.64,7.64,0,0,1,.21-2.05,6.9,6.9,0,0,1,.66-1.93,7.39,7.39,0,0,1,1.1-1.73,7.53,7.53,0,0,1,1.89-1.48,7,7,0,0,1,2.23-.84,7.67,7.67,0,0,1,2.39-.16,8.07,8.07,0,0,1,2.29.74,8.71,8.71,0,0,1,2,1.32,6.93,6.93,0,0,1,1.39,1.52,8.71,8.71,0,0,1,1,1.84,8.49,8.49,0,0,1,.45,2,7.84,7.84,0,0,1-.2,2.06,6.26,6.26,0,0,1-.55,1.74A6.08,6.08,0,0,1,375.66,225.81Zm-12,4.12a7.57,7.57,0,0,0,.13-2.08,9,9,0,0,0-.48-2,8.76,8.76,0,0,0-.85-1.9,7.33,7.33,0,0,0-1.42-1.52,8.77,8.77,0,0,0-2-1.27,8,8,0,0,0-2.3-.67,7.62,7.62,0,0,0-2.38.14,7.13,7.13,0,0,0-2.22.83,7.58,7.58,0,0,0-1.92,1.42,8,8,0,0,0-1.18,1.71,6.94,6.94,0,0,0-.59,2,7.14,7.14,0,0,0-.14,2.05,8.29,8.29,0,0,0,.46,2,8.52,8.52,0,0,0,1,1.8A7.33,7.33,0,0,0,351,234a8,8,0,0,0,9.15.75,8.34,8.34,0,0,0,2-1.46,6.51,6.51,0,0,0,.9-1.62A6.26,6.26,0,0,0,363.65,229.93Z" style="fill: #fff"/>
    <path d="M197,244.17c0-.22-.05-.42-.07-.64a5.66,5.66,0,0,1,.06-1.18,30.81,30.81,0,0,1-.21-3.66,4.25,4.25,0,0,1,.21-1.4,2.11,2.11,0,0,1,.1-.3c0-.05,0-.1,0-.15a3.13,3.13,0,0,1,.33-.63,6.44,6.44,0,0,1-.07-.9A20,20,0,0,1,198,231a5.48,5.48,0,0,1,.07-.6l0-.33a4.16,4.16,0,0,1,.68-2.05,3.21,3.21,0,0,1,.21-.85,14.79,14.79,0,0,1,.23-2.1,4.38,4.38,0,0,1,.63-1.59v-1.78a3.53,3.53,0,0,1,2-3.39c.6-1.31,1.26-2.57,1.94-3.87a5.13,5.13,0,0,1,.76-1.82,32,32,0,0,1,12.36-11.27,3.9,3.9,0,0,1,1.22-.37,49.84,49.84,0,0,1,9.4-4.05,31,31,0,0,1,3.62-1l.21,0c1.2-.29,2.41-.54,3.64-.76,3.93-.67,7.77.45,11.65-.09a5,5,0,0,1,2.91.41,32.13,32.13,0,0,1,7.08,1.91,5.88,5.88,0,0,1,1.65.3c10.14,3.3,17.26,9.29,24.25,17.08a34.2,34.2,0,0,1,6.38,10.16c.55,1.33,1.34,4.58,1.89,5.86l.42,1a3.67,3.67,0,0,1,.44.71c1.1,2.36,2.24,4.51,2.53,7.14.07.61,2,5.44,1.91,5.95,1.51,4.26.91,4.15,3.22,8.24a4,4,0,0,1,.53,1.66c1.77,2.36,3.66,4.63,5.4,6.91,3.31,4.36,7.53,9.93,4.18,15.32a3.93,3.93,0,0,1-3.73,1.95c-4.6,2.52-10.82,1.22-15.83,1-3.7-.18-7.22-.38-10.83.61s-6.95,2.5-10.46,3.58A65.25,65.25,0,0,1,240,287.06a5.29,5.29,0,0,1-.6.13c-4.68.68-8.68-1.2-12.89-2.95-5.86-2.44-10.72-5-15.38-9.37s-10.61-12.51-12.26-20.14a15,15,0,0,1-1.56-5.2c0-.17,0-.33,0-.49-.16-.88-.33-1.75-.48-2.63A4.13,4.13,0,0,1,197,244.17Z" style="fill: #c4c4c6"/>
    <path d="M121.42,299.54c.27,1.16.89,1.19,1.78,2a5.28,5.28,0,0,0,2.07,1.09,1.7,1.7,0,0,1,.3.12,6.33,6.33,0,0,0,1.34.41c.51.08,1.06.16,1.58.21a4.33,4.33,0,0,0,1.46-.14l.16,0a2.82,2.82,0,0,1,.43.12,3.85,3.85,0,0,0,.86.22,5.72,5.72,0,0,0,1.09,0,1.93,1.93,0,0,1,.34,0,1.62,1.62,0,0,1,.38.09,6.83,6.83,0,0,0,1,.21c.31,0,.62,0,.93,0h.5a4,4,0,0,1,.46.08,7.69,7.69,0,0,0,.94.16c.29,0,.57,0,.86,0l.56,0c.31,0,.62,0,.93,0h.49a4.46,4.46,0,0,1,.51.07c.3.05.6.09.9.11a7.58,7.58,0,0,0,1,0l.44,0a1.82,1.82,0,0,1,.29.08,5.7,5.7,0,0,0,1.11.2,4.47,4.47,0,0,0,1.29-.16l.17,0,.23.06a4.91,4.91,0,0,0,1.13.2,5.87,5.87,0,0,0,1.11-.08,1.65,1.65,0,0,1,.31,0l.13.06a4.5,4.5,0,0,0,1.27.27l1.41.05a7.72,7.72,0,0,0,1-.05l.45,0,.61,0c.26,0,.53,0,.8,0l.58,0a7.52,7.52,0,0,0,.82.05l.78,0,1.27,0,.76,0a8,8,0,0,0,.85,0l.55,0,.56.05c.28,0,.56.05.85.06a4.14,4.14,0,0,0,1.23-.17l.24-.06.35.06a6.34,6.34,0,0,0,1,.11,3.55,3.55,0,0,1,.47.06c.31,0,.62.08.93.09a4.47,4.47,0,0,0,1.18-.15l.26-.05H168l.17.06a4.1,4.1,0,0,0,1.22.24l.65,0,.75,0a7.16,7.16,0,0,0,.92,0,3.85,3.85,0,0,1,.48,0,1.94,1.94,0,0,1,.33.07,6.32,6.32,0,0,0,1.05.16,4.74,4.74,0,0,0,1.27-.16,2,2,0,0,1,.23-.06,6.19,6.19,0,0,0,.75,0c.18,0,.37,0,.55,0s.19,0,.29.07a4.73,4.73,0,0,0,1.09.2c.19,0,.37,0,.56.06a7.52,7.52,0,0,0,.83.09c.27,0,.55,0,.83,0s.37,0,.56,0l.54.07.84.11a5.47,5.47,0,0,0,1.15-.07,1.54,1.54,0,0,1,.3,0c.11,0,.24.06.38.09a6.36,6.36,0,0,0,1,.2,5.54,5.54,0,0,0,1.08,0,2.06,2.06,0,0,1,.35,0l.66.08.62.07.13.07a3.84,3.84,0,0,0,1.36.5l1.42.22a3.86,3.86,0,0,0,1.48-.11l.13,0,1.28.21a2.52,2.52,0,0,1,.39.12,7.38,7.38,0,0,0,1,.27l.79.11.65.08.57.12.85.17.56.11a8.55,8.55,0,0,0,.88.17c.29,0,.58.08.88.11l1.16.16.88.12a2.13,2.13,0,0,1,.42.1,8.41,8.41,0,0,0,1,.21,4.19,4.19,0,0,0,1.46-.17l.15,0,.45.06c.31.05.61.09.92.11s.37,0,.55.06.62.07.94.09a2.29,2.29,0,0,1,.36.07,6.34,6.34,0,0,0,1.12.15c.31,0,.62,0,.92,0s.34,0,.52,0h2.87a4.37,4.37,0,0,0,1.22-.24l.25-.07.85-.05.5,0a3.05,3.05,0,0,1,.43,0,6.13,6.13,0,0,0,1,0l.78-.07c.2,0,.41-.05.61-.06a7.46,7.46,0,0,0,.93-.14,3.25,3.25,0,0,1,.43-.08l.68,0,.7,0,.16,0a4.46,4.46,0,0,0,1.21.13,5.37,5.37,0,0,0,1.13-.22,1.11,1.11,0,0,1,.26-.07l.44,0,.87,0a3.73,3.73,0,0,1,.46,0,8.67,8.67,0,0,0,.88.06h1.34l.61.05c.24,0,.48.06.72.07a4,4,0,0,1,.48.07,5.74,5.74,0,0,0,.83.13l.72,0c.2,0,.41,0,.61,0a4.43,4.43,0,0,0,1.25-.05l.18,0,.15.07a4.19,4.19,0,0,0,1.23.37,5.41,5.41,0,0,0,1.06,0c.12,0,.24,0,.36,0a1.7,1.7,0,0,1,.32.1,5.78,5.78,0,0,0,1.08.25c.28,0,.56,0,.85.06a5.12,5.12,0,0,1,.56,0l1.43.14c.28,0,.57,0,.86.05s.38,0,.56,0a2.57,2.57,0,0,1,.4.08,6.09,6.09,0,0,0,1,.18,6.78,6.78,0,0,0,1,0l.43,0a5.79,5.79,0,0,0,1.06,0l.38,0,.87,0h.57c.2,0,.39,0,.58,0s.57,0,.86,0c.13,0,.25,0,.37.06.41.07,1,.11,1.59.15.28,0,.56,0,.84,0h.11c.3,0,.6,0,.9-.06l.55,0,1.25-.07h.2a5.51,5.51,0,0,0,1.07-.18A2.57,2.57,0,0,1,257,310s.06,0,.14.05a4.35,4.35,0,0,0,1.33.1,6.87,6.87,0,0,0,1-.21,3.06,3.06,0,0,1,.41-.1l.53,0c.33,0,.66,0,1-.08a4.84,4.84,0,0,0,1.19-.36l.27-.11c.12,0,.26,0,.41,0a7.43,7.43,0,0,0,1.06-.09l.94-.2.5-.11a4.93,4.93,0,0,0,1.16-.42,1.19,1.19,0,0,1,.26-.11c.16,0,.35-.06.54-.09s.58-.09.86-.15h.3a5.22,5.22,0,0,0,1.16-.1,8.22,8.22,0,0,0,.93-.28,2.54,2.54,0,0,1,.44-.15c.26-.05.52-.12.79-.19a3.92,3.92,0,0,1,.59-.15,2.17,2.17,0,0,1,.36,0h0a6.09,6.09,0,0,0,1.06-.08L275,307l.61-.08.57-.1c.27,0,.53-.09.81-.12s.48,0,.73-.07l.66-.06a5.61,5.61,0,0,0,1-.23l.23-.06.23,0h.41c.27,0,.55,0,.83,0h.59l.79,0c.24,0,.48,0,.72,0h.67a3.83,3.83,0,0,0,1.4-.31l.11,0,.25,0a5.81,5.81,0,0,0,1.06.14,9.21,9.21,0,0,0,1-.08,1.65,1.65,0,0,1,.31,0l.16,0a4.07,4.07,0,0,0,1.34.31,5,5,0,0,1,.53.05,8.65,8.65,0,0,0,.89.08,5,5,0,0,0,1.24-.15l.26-.05.22.06a4.69,4.69,0,0,0,1.16.2c.29,0,.57,0,.86,0h.6c.3,0,.61,0,.92,0a3.17,3.17,0,0,1,.53,0h1.45a6.28,6.28,0,0,0,1.11-.13,2.11,2.11,0,0,1,.35-.05l.5,0a7.56,7.56,0,0,0,.95.05,2.86,2.86,0,0,1,.43,0,6.48,6.48,0,0,0,1,.06c.29,0,.59,0,.88,0l.58,0a6.6,6.6,0,0,0,1.05-.15,2.7,2.7,0,0,1,.41-.07l.57,0,.9-.05,1-.09.43-.05H309a8.61,8.61,0,0,0,1,0l.51-.05.74-.08.25,0a8.51,8.51,0,0,0,1.17.18l.55,0c.42,0,.84.07,1.24.08h.11a7.16,7.16,0,0,0,1.17-.12l.38-.06h.37a5.56,5.56,0,0,0,1.32-.05,14.28,14.28,0,0,0,1.43-.35l.21-.06a9.12,9.12,0,0,0,1.16-.45l.39-.17a13.26,13.26,0,0,0,1.21-.56l.28-.14a2.28,2.28,0,0,1,.44-.15c.23-.08,1.16-.06,1.45-.18,1-.17,1.48-.32,1.54-.32l2.67.07c4.28,0,4.07.26,8.37.37l2.59.07a2,2,0,0,0,1.11,0l3.33.07h.38c1.25,0,4.08-.06,6.78-.16,6.24-.24,9.18-.31,8.82-2.38-.31-1.83-3.06-2.23-5.52-2.37-.62,0-1.23,0-1.84,0a2.75,2.75,0,0,0,.18-.46,7.55,7.55,0,0,0,.35-2.26,5.81,5.81,0,0,0-.3-1.67c0-.13-.09-.27-.12-.41l-.06-.25a9.18,9.18,0,0,0-.49-1.66,15.81,15.81,0,0,0-.84-1.7c-.08-.12-.14-.25-.21-.38a11.78,11.78,0,0,0-.73-1.21,6.36,6.36,0,0,0-.93-1,3.31,3.31,0,0,1-.33-.32,5.2,5.2,0,0,1-.35-.47c-.18-.26-.37-.52-.57-.76s-.27-.36-.41-.54-.33-.46-.51-.68-.27-.37-.4-.55-.32-.47-.5-.7a6.63,6.63,0,0,0-.74-.8,2.34,2.34,0,0,1-.31-.32c-.19-.25-.37-.51-.54-.76l-.33-.47c-.17-.25-.36-.48-.54-.7l-.28-.37s0,0,0,0l-.53-.93c-.17-.28-.36-.62-.58-1h0l-.07-.17-.15-.36a6.58,6.58,0,0,1-.3-.72c0-.11-.07-.23-.11-.34l-.06-.18,0-.07c-.07-.29-.15-.59-.23-.9a1.94,1.94,0,0,1-.07-.41l0-.35,0-.18v0h0V275l0-.54c0-.17,0-.41,0-.51a1.33,1.33,0,0,0,0-.28v-.23l.13-.4c.05-.17.11-.37.17-.53l.17-.32.16-.33.28-.52.53-1,.13-.26.07-.12,0-.08h0l0,0,0-.06.22-.54.43-1,.11-.26.07-.17v0l0-.07,0-.13.15-.41.09.15.05.09,0,0c.06.08-.13-.14.15.18h0l.09.09.19.19a4,4,0,0,0,.42.39,5.68,5.68,0,0,1,.43.41,6.09,6.09,0,0,0,.49.46l.33.27.08.07h0c.06.05-.11-.06.15.1l0,0,.12.08.5.33.26.16.06.05,0,0h0l.13.07.13.07.28.15.13.07.22.09.43.19.23.09.29.07.63.14.31.08.08,0h0l.31,0h.18c.22,0,.43,0,.71,0h.88l.34,0,.41-.05L355,271l.18,0,.28-.07.35-.07c.23-.05.63-.18.93-.27l.8-.34.34-.14.17-.08,0,0,.24-.12.08,0,.66-.35.33-.17.05,0,.26-.19h0l.08-.06.14-.12c.2-.16.39-.33.58-.5l.15-.13.15-.13.07-.06.3-.24.3-.24.15-.12.08-.06,0,0h0l.16-.16.51-.59.26-.29.25-.3.12-.15.48-.62.12-.16v0l.15-.23,0,0,.05-.08.2-.34.44-.83.37-.7.18-.36.17-.28a4.47,4.47,0,0,0,.81-2.52v-.06h0l.15-.38.2-.58.09-.29,0-.11v-.17l.06-.4,0-.4,0-.2,0-.37v-.58l0-.32,0-.15v0l.07-.4.07-.59,0-.31V254c0-.26-.07-.53-.11-.76l0-.18V253l0-.13v-.1l0-.4,0-.4v-.27c-.05-.34,0-.11,0-.19l0-.1-.19-.77,0-.2-.07-.26,0-.1-.12-.37-.31-.93-.27-.74c-.17-.32-.19-.79-.68-1.86l-.39-.67-.19-.34,0,0-.27-.36,0,0-.07-.06-.14-.14c-.18-.19-.36-.33-.53-.48l-.07-.06h0l-.05-.08c-.08-.11,0-.08-.07-.12l-.16-.25a2.4,2.4,0,0,0-.22-.3,2.91,2.91,0,0,0-.33-.37l-.09-.09-.14-.12h0l-.08,0-.61-.42-.16-.11-.07-.05,0,0h0l-.35-.22-.34-.15c-.21-.1-.49-.19-.73-.29l-.1,0-.16-.07h-.07l-.17-.05-.35-.11c-.21-.07-.48-.14-.65-.21l-.17-.06,0,0-.35-.17a3.9,3.9,0,0,0-.79-.25l-.11,0-.22,0h-.28c-.22,0-.48,0-.75,0l-.83,0-.66,0h-.13l-.33,0h0l-.16,0-.32.08-.67.21-.08,0-.14,0h0l0,0-.15,0-.3.11-1.25.46-.74.33-.09,0-.05,0-.13.07-.12.08-.25.16-1,.63-.23.14-.31.22-.3.22-.07.06h0l-.17.16,0,0-.08.1a5.63,5.63,0,0,0-.51.69l-.1.17s0,0,0,0c-.13.16-.25.3-.38.44,0-.14-.07-.29-.11-.43s-.06-.3-.1-.45l-.05-.22v-.09h0l-.1-.24h0l-.05-.11-.18-.38-.08-.15a1.87,1.87,0,0,1-.1-.26l-.15-.47,0-.12,0-.06v0h0l-.05-.1h0l-.11-.22-.24-.44c-.17-.33-.35-.66-.53-1l-.16-.25,0-.05-.07-.11-.15-.2-.14-.19-.2-.27-.29-.41-.06-.08,0,0,0,0-.06-.12-.14-.24-.26-.4-.13-.19,0,0,0,0c-.11-.11.25.22-.26-.25h0l-.05,0a2.59,2.59,0,0,0-.39-.27l-.22-.12,0,0-.23-.29-.3-.33-.07-.08-.1-.08-.09-.08-.19-.14-.37-.3h0l-.34-.23h0l0,0-.05,0-.11-.06-.21-.1-.18-.06-.15-.14c-.15-.14-.39-.35-.59-.5l-.08-.06h0l-.25-.13h0l-.1,0-.19-.08a2.65,2.65,0,0,0-.3-.12l-.07,0h0l-.12-.07-.38-.24a3.81,3.81,0,0,0-.5-.26l-.62-.23-.14,0h0l-.12,0h0l-.07,0-.27-.08-.47-.14-.3-.09-.09,0a2.46,2.46,0,0,0-.45-.25l-.07,0-.65-.26-.5-.16-.07,0h0l-.07,0h0l-.1,0-.21-.05-.47-.11-.49-.13-.26-.06c0-.18,0-.36.06-.53a8.8,8.8,0,0,0,.1-1,6.72,6.72,0,0,0-.07-1.06,4.91,4.91,0,0,1,0-.53q0-.45,0-.87c0-.25,0-.48,0-.72s0-.49.06-.74.06-.56.08-.85,0-.56.06-.84,0-.49.06-.74,0-.48,0-.72,0-.57.06-.86,0-.53,0-.8,0-.52.06-.78a3.42,3.42,0,0,1,.11-.48,6.47,6.47,0,0,0,.22-1.07c0-.31.05-.63.06-.95s0-.42,0-.62a6.32,6.32,0,0,0,0-1.12,3.47,3.47,0,0,1,0-.46l.08-.55c.05-.34.1-.68.16-1a3.53,3.53,0,0,1,.15-.49,7.07,7.07,0,0,0,.3-1,8.89,8.89,0,0,0,.13-.88,6.49,6.49,0,0,1,.11-.66c.06-.31.11-.61.15-.92a6.17,6.17,0,0,1,.11-.62,4.77,4.77,0,0,1,.2-.57c.12-.3.24-.6.33-.9s.16-.49.25-.73.18-.48.26-.73a9.17,9.17,0,0,0,.24-.9,3.52,3.52,0,0,1,.15-.58,4.16,4.16,0,0,1,.26-.52,7.53,7.53,0,0,0,.43-.85,7.65,7.65,0,0,0,.31-.92,4,4,0,0,1,.18-.51.83.83,0,0,1,.09-.16h.85a10.34,10.34,0,0,1,1.41.09l.63.08A3.08,3.08,0,0,1,340,203c.24.14.49.29.75.42s.65.4,1,.65l.45.3.55.36a8.85,8.85,0,0,1,.93.63c.43.35.88.75,1.34,1.2a6.93,6.93,0,0,1,.5.63c.2.26.4.54.62.79a7.52,7.52,0,0,0,.91.84,3.47,3.47,0,0,1,.46.41,3.81,3.81,0,0,1,.34.63,10.74,10.74,0,0,0,.55,1c.33.5.65,1,1,1.58.2.37.39.76.58,1.16l.24.5.33.66a10.67,10.67,0,0,1,.49,1q.36.84.69,1.74c.21.58.41,1.18.6,1.79a0,0,0,0,0,0,0c-.15.07-.3.11-.43.18l-.52.28c-.22.12-.43.28-.65.42a8.34,8.34,0,0,0-1.1.85l-.42.39-.1.1-.05,0-.11.11,0,0,0,0-.23.29a7.12,7.12,0,0,0-.79,1.11l-.36.6-.3.71a6.19,6.19,0,0,0-.26.69l-.15.55-.07.28-.05.2v.29l-.06.79c0,.12,0,.27,0,.37l0,.28,0,.57.09,1.14a7.64,7.64,0,0,0,.11.83c0,.25.1.38.15.57h0s.09.28.06.16v0l0,.08.07.17.15.32.31.62.63,1c.16.21.34.42.51.61l.52.46.81.62.82.65a8.6,8.6,0,0,0,1.07.7l.43.2.12.06h.05l.08,0,.14,0,.3.09a9.72,9.72,0,0,0,2.05.32,11,11,0,0,0,3.46-.47l.67-.12a6.76,6.76,0,0,0,.88-.23,4.48,4.48,0,0,0,.58-.24l.26-.13.14-.1.27-.19a7.1,7.1,0,0,0,1.3-1.27,3.89,3.89,0,0,1,.36-.41v0l.45-.55a3.39,3.39,0,0,0,.44-.63l.22-.36.12-.19v0l.06-.11v0l0-.08.06-.16a3.88,3.88,0,0,0,.28-1.32c0-.19.08-.43.1-.61s.06-.57.09-.87a4.19,4.19,0,0,0,0-.48c.23.12.42.18.64.29l.43.19.14.06.07,0,.13,0,.28.1c.36.11.74.24,1.06.32l.86.14.21,0,.19,0h.21l.53,0a6.9,6.9,0,0,0,1-.06l.75-.15.18,0,.09,0,.13,0,.05,0,.43-.14.8-.29a4.65,4.65,0,0,0,.59-.29l.51-.28.12-.06,0,0,.09-.05h0l.07-.05.26-.18c.33-.24.64-.46.87-.65l.45-.47a3.64,3.64,0,0,1,.39-.39l.07-.07L377,226a4.3,4.3,0,0,0,.42-.66l.2-.36c0-.09.09-.18.14-.27l.12-.26a6,6,0,0,0,.45-1.12l.09-.3,0-.15,0-.15v-.08l0-.1c0-.27.07-.55.11-.84a5.43,5.43,0,0,0,0-.78v-.65l0-.24c-.05-.32-.09-.65-.14-1s-.13-.54-.2-.82l-.06-.2-.11-.33-.19-.51c-.06-.17-.13-.36-.2-.51l-.21-.4-.21-.42v0h0l-.06-.11-.05-.06-.09-.13-.18-.25a8.52,8.52,0,0,0-.73-.9l-.34-.35-.08-.09-.05-.05-.11-.09,0,0-.25-.19c-.33-.25-.71-.53-1-.74l-.9-.51h0l-.12-.06-.07,0-.16-.07-.31-.12-.64-.25a2.9,2.9,0,0,0-.57-.17l-.53-.13-.26-.07h0l-.15,0h-.36l-.12-.69c0-.17-.07-.35-.1-.52s0-.26,0-.4a5.48,5.48,0,0,0-.11-1.33,5.83,5.83,0,0,0-.45-1.22,3.42,3.42,0,0,1-.17-.4c-.05-.17-.1-.34-.14-.51-.11-.39-.21-.77-.34-1.15a3,3,0,0,1-.1-.45,6.26,6.26,0,0,0-.34-1.23c-.22-.54-.46-1.07-.71-1.59a12,12,0,0,0-.59-1.06c-.09-.15-.18-.3-.26-.46-.21-.36-.44-.71-.67-1.05l-.27-.41-.29-.48a9.43,9.43,0,0,0-.64-1,7.12,7.12,0,0,0-.82-.93c-.12-.12-.25-.24-.36-.37a4,4,0,0,1-.27-.4,5.17,5.17,0,0,0-1.8-1.84,3.52,3.52,0,0,1-.37-.27c-.38-.34-.77-.64-1.17-.94l-.21-.16a3.81,3.81,0,0,1-.36-.33,7.12,7.12,0,0,0-1-.83,4.87,4.87,0,0,0-1.34-.56,3.38,3.38,0,0,1-.34-.11,3.11,3.11,0,0,1-.38-.25,6.48,6.48,0,0,0-1.17-.67c-.68-.27-1.21-.46-1.72-.61a8.71,8.71,0,0,0-1.34-.26l-.46-.07a15.86,15.86,0,0,0-1.82-.22,12.75,12.75,0,0,0-1.54,0l-.69,0a9.86,9.86,0,0,0-1.45.12,9.15,9.15,0,0,0-1.25.35l-.46.15-.43.11a12.84,12.84,0,0,0-1.3.38c-.45.18-1,.41-1.66.72l-.4.2a9,9,0,0,0-1.21.64l-.13.08a15.22,15.22,0,0,0-1.35.94,10.92,10.92,0,0,0-1,.9l-.34.34a11.29,11.29,0,0,0-.84,1l-.32.39c-.36.4-.71.86-1.09,1.37-.1.14-.21.27-.32.4a11.07,11.07,0,0,0-.75,1l-.25.39-.21.35a12.53,12.53,0,0,0-1.45.34,12.85,12.85,0,0,0-4,2.17c-.15.11-.31.21-.47.31a7.85,7.85,0,0,0-1.36,1,10.26,10.26,0,0,0-1,1.27l-.35.47a7.26,7.26,0,0,0-.78,1.33c-.09.18-.18.38-.29.56-.38.61-.72,1.25-1,1.85-.09.18-.21.35-.32.53a8.35,8.35,0,0,0-.73,1.29c-.19.46-.32.9-.45,1.32-.07.22-.13.44-.21.67a11.48,11.48,0,0,0-.35,1.29c-.05.24-.1.47-.17.7s-.15.44-.23.65a9.9,9.9,0,0,0-.43,1.3l-.18.69a13,13,0,0,0-.32,1.3,11,11,0,0,0-.16,1.29c0,.24,0,.49-.07.74s-.1.45-.16.67a8.13,8.13,0,0,0-.32,2.63,5.77,5.77,0,0,1,0,.72l-.09.75c-.05.42-.1.84-.12,1.26l-.06.75c0,.42-.07.84-.08,1.27,0,.25,0,.51-.05.76,0,.42-.08.84-.08,1.26,0,.67,0,1.34,0,2,0,.34.05.69.08,1l0,0-.29.16-.32.21h0l-.26,0-.12,0-.22,0-.45.14-.11,0-.3.15h0l-.06,0-.26.17a4,4,0,0,0-.39.29h0l-.11,0-.29.12a5,5,0,0,0-.8.39l-.53.35-.43.28-.25.19-.48.36-.56.4-.27.18,0,0,0,0c-.16.09,0,0,0,0h0l-.14,0-.26.1a4.44,4.44,0,0,0-.88.52l-.26.19-.53.4h0c.23-.23-.33.32-.27.27l0,0-.05.06a2.09,2.09,0,0,0-.14.17c-.09.13-.18.26-.26.4h0l-.28.14a4.67,4.67,0,0,0-.51.36c-.09.08-.12.1-.26.24l-.05.07-.21.26-.62.8c-.1.18-.26.43-.31.54l-.1.2-.2.31-.32.53-.16.1-.12.09-.07,0-.11.11a3.2,3.2,0,0,0-.43.47l-.1.13a2.59,2.59,0,0,0-.14.24v0l0,.08c-.09.2-.19.41-.25.57a9.46,9.46,0,0,1-.63,1.17h0l-.14.32v0l0,.08-.05.16c0,.1-.07.23-.08.3l-.05.23v.06s0,0,0,.08v0l-.05.16-.2.62-.05.16,0,.1-.13.3-.17.4c-.05.16-.1.25-.16.46l-.17.63-.07.29,0,.06-.06.15-.12.33-.14.47,0,.11v.09c0-.28-.06.42-.05.35v.1l-.21-.42-.68-1.27-.17-.31-.12-.26-.3-.63c-.1-.21-.2-.41-.29-.62l-.15-.31,0-.07v0l-.06-.13-.46-1.22-.41-1.07-.4-1.09c-.25-.66-.47-1.27-.68-1.81-.09-.26-.19-.5-.27-.73s-.09-.25-.13-.38a2.34,2.34,0,0,0-.05-1.08c-.05-.16-.09-.32-.14-.49s-.13-.52-.21-.78a5.39,5.39,0,0,0-.49-1,2.25,2.25,0,0,1-.12-.21,5.29,5.29,0,0,0-.49-1l-.12-.19c0-.07,0-.2-.07-.33a7,7,0,0,0-.24-.9s0-.12,0-.2a5.4,5.4,0,0,0-.2-1,.61.61,0,0,1,0-.14,4.68,4.68,0,0,0-.23-1.3,3.3,3.3,0,0,0-.76-1.19,3.52,3.52,0,0,0-.22-1.29,3.75,3.75,0,0,0-.93-1.33l-.06-.2q-.11-.36-.24-.72s0-.08,0-.12a3.67,3.67,0,0,0-1.17-2.56l0-.05c-.09-.19-.19-.39-.29-.58s-.15-.29-.22-.44l-.19-.46c-.11-.27-.22-.53-.34-.78a8,8,0,0,0-.51-.85l-.09-.14a3.71,3.71,0,0,0-.41-1.58c-.06-.12-.12-.25-.17-.38-.13-.3-.26-.59-.41-.86a4.26,4.26,0,0,0-.9-1.06l-.09-.09-.09-.14-.57-.93a.51.51,0,0,0,0-.14,4.52,4.52,0,0,0-.52-1.13,6.41,6.41,0,0,0-.68-.82c-.07-.08-.15-.16-.21-.24a5.34,5.34,0,0,0-.78-.86l-.18-.18c-.17-.23-.38-.46-.59-.7l-.17-.18v0a3.85,3.85,0,0,0-.68-1.41,1.81,1.81,0,0,1-.19-.29,6.24,6.24,0,0,0-.6-.86,4.47,4.47,0,0,0-1-.84l-.13-.09a3.76,3.76,0,0,1-.25-.31c-.19-.24-.38-.48-.59-.7a3.65,3.65,0,0,0-1.37-.86h0a4.7,4.7,0,0,0-.74-.92l-.16-.21a5.37,5.37,0,0,0-.68-.79,1.3,1.3,0,0,1-.1-.15,4.47,4.47,0,0,0-.84-1,3.32,3.32,0,0,0-1.52-.7,4.64,4.64,0,0,0-.8-.82l-.37-.29c-.24-.19-.48-.38-.73-.56a1.32,1.32,0,0,0-.13-.14,4.9,4.9,0,0,0-.89-.82,3.42,3.42,0,0,0-1.6-.55l-.08-.07a8.62,8.62,0,0,0-.71-.54.73.73,0,0,1-.08-.09A3.71,3.71,0,0,0,267,197.7h0l0,0a4.61,4.61,0,0,0-1.06-.77,5,5,0,0,0-1.2-.39h-.06a4,4,0,0,0-1.21-.85,5.3,5.3,0,0,0-1.08-.33l-.27-.07c-.13-.05-.27-.12-.41-.19s-.56-.26-.85-.37a3.47,3.47,0,0,0-1.44-.19,3.94,3.94,0,0,0-1.19-.65c-.12,0-.24-.1-.36-.15a8.69,8.69,0,0,0-.94-.35,3.5,3.5,0,0,0-1.6,0,4.31,4.31,0,0,0-1.13-.43l-1.35-.29a1.6,1.6,0,0,1-.31-.1,7.27,7.27,0,0,0-1-.28c-.31,0-.61-.08-.92-.1a3.26,3.26,0,0,1-.45,0,4.79,4.79,0,0,0-1.28,0l-.21,0-.32-.07a7.69,7.69,0,0,0-1-.16,5.69,5.69,0,0,0-1.14,0h0a3.31,3.31,0,0,0-1.58-.49,6.48,6.48,0,0,0-1,0l-.4,0a4.72,4.72,0,0,0-1.32.21l-.15,0c-.29,0-.59.05-.89.09l-.16,0a3.6,3.6,0,0,0-1.67-.32,3.89,3.89,0,0,0-1.52.47l0,0h-.26c-.27,0-.54,0-.8,0h-.08a3.75,3.75,0,0,0-1.58-.11l-1.4.23a6.91,6.91,0,0,0-1,.27c-.13,0-.26.09-.4.12a7.9,7.9,0,0,0-.95.27,3.38,3.38,0,0,1-.42.13,2,2,0,0,1-.34.05,6.54,6.54,0,0,0-1.08.18,4.78,4.78,0,0,0-1.19.54l-.06,0h0a3.7,3.7,0,0,0-2.8.95l-.08.07-.71.31-.34.16h-.12a4.15,4.15,0,0,0-1.42.32,3.34,3.34,0,0,0-1.24,1,3.65,3.65,0,0,0-1.29.38l-.41.2-.86.44a6,6,0,0,0-.91.65l-.26.2c-.41.24-.81.49-1.21.75a9.41,9.41,0,0,0-.81.6,4.19,4.19,0,0,1-.33.26,2.27,2.27,0,0,1-.34.19,8.18,8.18,0,0,0-.9.54,5,5,0,0,0-.9.89,1.22,1.22,0,0,1-.15.17l-.28.17a8.41,8.41,0,0,0-.86.59l-.36.29-.75.62a1.85,1.85,0,0,1-.27.19,6.07,6.07,0,0,0-.85.64l-.36.3c-.24.2-.47.4-.69.61a7,7,0,0,0-.68.81,2.78,2.78,0,0,1-.21.27,6.6,6.6,0,0,0-.67.85,2.4,2.4,0,0,1-.18.26c-.27.3-.53.6-.79.91l-.12.13a1,1,0,0,1-.19.16,5.44,5.44,0,0,0-.83.8c-.09.11-.19.22-.29.32s-.44.47-.64.72a2.43,2.43,0,0,1-.26.29,7.22,7.22,0,0,0-.65.78,4.23,4.23,0,0,0-.59,1.25v0l0,0a4.14,4.14,0,0,0-.93,1,5,5,0,0,0-.5,1.16,1.72,1.72,0,0,1-.07.21l-.18.23a7.08,7.08,0,0,0-.54.81l-.12.13a4.81,4.81,0,0,0-.77,1.08,5.31,5.31,0,0,0-.39,1.14,2.1,2.1,0,0,1-.06.24,5.88,5.88,0,0,0-.33,1,.83.83,0,0,1,0,.15l0,0a4.28,4.28,0,0,0-.81,1.26c-.11.29-.21.6-.3.9l-.14.44a3.73,3.73,0,0,0-.17,1.53v.08a5.48,5.48,0,0,0-.14,1,.38.38,0,0,1,0,.1h0a4,4,0,0,0-.65,1.36c-.07.31-.12.63-.16.94,0,.15,0,.3-.07.44-.06.3-.1.61-.15.91s0,.32-.07.47-.06.31-.09.47-.13.59-.18.9a2.74,2.74,0,0,1-.08.37,6.61,6.61,0,0,0-.2,1,7.48,7.48,0,0,0,0,1,1.7,1.7,0,0,1,0,.39,4.32,4.32,0,0,0,.14,1.37v0l0,.06a4.5,4.5,0,0,0-.27,1.3,2.2,2.2,0,0,1,0,.36,6.9,6.9,0,0,0-.1,1,6,6,0,0,0,.12,1.1,2.93,2.93,0,0,1,.05.29v.13c0,.39,0,.77,0,1.16l0,.14a4.46,4.46,0,0,0-.14,1.34,3.33,3.33,0,0,0,.51,1.48,3.81,3.81,0,0,0-.08,1.27c0,.31.09.63.14.95l.07.41c0,.16,0,.31,0,.47s.06.61.11.91a8.48,8.48,0,0,0,.25,1c0,.13.08.25.11.37.08.43.17.85.27,1.27s.2.9.3,1.3a.49.49,0,0,1,0,.12,4.35,4.35,0,0,0,.11,1.41,4.08,4.08,0,0,0,.69,1.35l.05.06a7.83,7.83,0,0,0,.36.83l.1.19v.11a4.53,4.53,0,0,0,.2,1.36c0,.14.09.3.13.45q.12.45.27.87a5.94,5.94,0,0,0,.52,1l.14.22a4.34,4.34,0,0,0,.64,1.09l.05.07v.07a4.37,4.37,0,0,0,.33,1.31l.14.39a7.13,7.13,0,0,0,.35.91,5.87,5.87,0,0,0,.62,1c.05.07.11.14.15.21.14.26.3.53.46.79l.18.29a.5.5,0,0,1,0,.12,4,4,0,0,0,.48,1.34c.09.15.17.3.25.46s.28.51.43.76.38.6.58.89l.18.29a5.75,5.75,0,0,0,.75.89,1.7,1.7,0,0,1,.19.19c.05.08.1.19.15.29a6,6,0,0,0,.54.93c.18.25.37.49.56.72l.31.39a6.67,6.67,0,0,0,.76.8l.15.13,0,.07a3.93,3.93,0,0,0,.72,1.3,3.33,3.33,0,0,0,1.63,1l0,0a8.93,8.93,0,0,0,.63.75l.33.34c.16.18.32.35.49.52l0,0a3.92,3.92,0,0,0,.93,1.37,3.09,3.09,0,0,0,.31.23h0a8.57,8.57,0,0,0-1.71.56,6.15,6.15,0,0,1-.74.28c-.3.06-.61.1-.92.14a10.82,10.82,0,0,0-1.62.28c-.59.16-1.17.35-1.73.53l-.71.22a10.76,10.76,0,0,0-1.57.66,6.81,6.81,0,0,1-.79.35c-.3.11-.62.17-.92.25a10,10,0,0,0-1.55.44,13,13,0,0,0-1.58.76c-.25.14-.49.27-.73.38l-.8.32c-.46.18-.94.37-1.43.6s-.93.47-1.41.73l-.75.41c-.52.27-1,.58-1.51.89l-.63.39c-.81.48-1.5.94-2.14,1.4a6.89,6.89,0,0,1-.64.4,7.94,7.94,0,0,0-1.57,1.14,10.79,10.79,0,0,0-1.92,2.32,5.53,5.53,0,0,0-.64,1.94h-.64a4.35,4.35,0,0,1-.51,0l-1.43-.07a3.2,3.2,0,0,1-.41-.07,5.34,5.34,0,0,0-1-.14c-.15,0-.3-.05-.45-.07a6.45,6.45,0,0,0-1-.13,4.51,4.51,0,0,0-1.29.15l-.18.05-.21-.06a4.82,4.82,0,0,0-1.21-.23,5.62,5.62,0,0,0-1.07.08l-.38,0a1.74,1.74,0,0,1-.29-.07,5.24,5.24,0,0,0-1.15-.18,5.09,5.09,0,0,1-.55,0q-.45,0-.9-.06a4.23,4.23,0,0,0-1.34.24l-.19.06-.78,0H169l-.14-.05a3.76,3.76,0,0,0-1.44-.27,4.61,4.61,0,0,0-1.23.22,1.25,1.25,0,0,1-.26.07l-.84.06-.58.05H164c-.31,0-.63,0-.94,0l-.88.07-.57.06h-.51a7.6,7.6,0,0,0-.95,0,6,6,0,0,0-1,.19,3.2,3.2,0,0,1-.42.1l-.17,0a4.1,4.1,0,0,0-1.31-.06l-.57.06-.89.11a4.19,4.19,0,0,0-1.31.46l-.13.07h-.24c-.28,0-.6,0-1,0l-.69.06c-.22,0-.45.05-.7.06a3,3,0,0,1-.41,0,8.47,8.47,0,0,0-1-.06h-1.43a5.06,5.06,0,0,0-1.07.14,3.09,3.09,0,0,1-.41.06H146l-.19-.06a5.09,5.09,0,0,0-1.26-.2h-1.45l-.79,0-.69,0-.56,0-.87,0-.88.05a5.46,5.46,0,0,1-.57,0c-.31,0-.62,0-.94.07a4.45,4.45,0,0,1-.5,0,6.18,6.18,0,0,0-1.1.14,2.33,2.33,0,0,1-.35.06l-.16-.06a4.16,4.16,0,0,0-1.3-.19,6.65,6.65,0,0,0-1,.1,2.32,2.32,0,0,1-.45.06l-.89.05-.58,0a1.58,1.58,0,0,1-.38,0,6.18,6.18,0,0,0-1.11-.06,3.87,3.87,0,0,0-1.49.45l-.09,0-.28,0a4.63,4.63,0,0,0-1.12,0c-.66.08-1.22.19-1.59.27l-.49.09a5.83,5.83,0,0,0-2.85,1.11C121.39,298.34,121.23,298.73,121.42,299.54Zm244.64-39.9h0v0Zm-65.35-.34.78,1.17,1.52,2.26c.54.79,1,1.36,1.44,2s.85,1.18,1.22,1.68l.25.35.06.09,0,0,.09.11h0l.14.15.23.26a2.42,2.42,0,0,0,.42.77c.17.2.31.4.45.6l.37.5a5.07,5.07,0,0,0,.95.9l.12.09c.22.34.42.66.58.95,0,.05,0,.15,0,.25a5.33,5.33,0,0,0,.2.81,3.18,3.18,0,0,1,.1.74c0,.27,0,.45.06.63s0,.2,0,.3a3.28,3.28,0,0,0-.08.35,2.39,2.39,0,0,1-.11.46l-.13.26a7,7,0,0,1-.33.62l-.11.07a5.43,5.43,0,0,0-1,.8,5.87,5.87,0,0,0-.53.71l0,0h0a5.94,5.94,0,0,0-1,.38,9.47,9.47,0,0,1-1.05.45c-.25.1-.5.22-.75.34l-.36.17c-.4.11-.81.21-1.23.29a1.26,1.26,0,0,1-.28,0h0a6.36,6.36,0,0,0-1,.06c-.27,0-.54.11-.81.17a2.36,2.36,0,0,1-.46.1l-.63.08c-.22,0-.45.07-.68.08a8.43,8.43,0,0,0-.86.11,3.62,3.62,0,0,1-.46.06h-1.33c-.34,0-.69,0-1,0h-.31l-.88-.07-.44,0-1-.07-.44,0c-.29,0-.59,0-.88,0h-.52a2,2,0,0,1-.34-.05,6.8,6.8,0,0,0-1.06-.13c-.3,0-.6,0-.9,0l-.51,0-.24,0a5.12,5.12,0,0,0-1.17-.13,4.84,4.84,0,0,0-1.18.19l-.25.05-.17,0a4.83,4.83,0,0,0-1.22-.08,4.31,4.31,0,0,0-1.47.4l-.08,0h-.12a4.71,4.71,0,0,0-1.37,0l-.44.06c-.35.05-.71.1-1.06.17-.16,0-.33.06-.5.09-.33,0-.65.1-1,.18a3.75,3.75,0,0,0-1.45.71h-.16a5.69,5.69,0,0,0-1.21.17c-.3.09-.61.2-.91.32a4.13,4.13,0,0,1-.45.17l-.77.24-.6.19c-.17,0-.33.07-.49.11s-.6.12-.9.21a8.25,8.25,0,0,0-.9.34l-.42.17-.53.15-.83.24-.65.17c-.23.05-.47.11-.7.18h-.27a6.32,6.32,0,0,0-1.13.16l-.67.19c-.22.06-.44.13-.67.18s-.57.17-.86.27-.3.11-.46.15l-.57.09c-.27,0-.54.08-.81.14h-.3a6.62,6.62,0,0,0-1.09.09,6.8,6.8,0,0,0-1,.28,2.26,2.26,0,0,1-.37.11c-.29,0-.59.13-.88.21a2.85,2.85,0,0,1-.46.12l-.64.07-.75.09-.3,0a7,7,0,0,0-1.1,0c-.28,0-.57.09-.85.15a4.59,4.59,0,0,1-.51.1,5.2,5.2,0,0,0-1.15.26,1.12,1.12,0,0,1-.26.08l-.25,0a6.36,6.36,0,0,0-1.12,0l-.85.06a1.75,1.75,0,0,0-.4,0l-.48,0a5.1,5.1,0,0,1-.78,0,3.3,3.3,0,0,0-1.38.32H245.6a4,4,0,0,0-1.23-.3A1.51,1.51,0,0,1,244,286a8.47,8.47,0,0,0-.88-.12,4.58,4.58,0,0,0-1.29.12l-.12,0a6.06,6.06,0,0,0-1,.06l-.21,0a6.37,6.37,0,0,0-.81,0h-.1a3.4,3.4,0,0,0-1.45-.6,3.58,3.58,0,0,0-1.26.06,3.36,3.36,0,0,0-1.2-.5l-.73-.16-.49-.11a4.53,4.53,0,0,0-1.16-.08h-.16l-1-.26-.1-.07a4.37,4.37,0,0,0-1.13-.56,5.57,5.57,0,0,0-1-.19,1.9,1.9,0,0,1-.25,0c-.2-.07-.45-.14-.69-.2a3.19,3.19,0,0,1-.44-.13,6.64,6.64,0,0,0-1-.26,2.8,2.8,0,0,1-.28-.06l-.79-.33-.38-.17-.67-.31-.49-.24c-.21-.09-.41-.2-.62-.31s-.35-.19-.53-.28l-.47-.23c-.23-.11-.46-.21-.68-.33s-.42-.22-.64-.32a4.89,4.89,0,0,1-.51-.26s0-.06-.1-.11a5.64,5.64,0,0,0-.88-.73c-.23-.14-.46-.26-.7-.38l-.31-.17-.06-.08a3.9,3.9,0,0,0-2.07-1.5,4.11,4.11,0,0,0-.84-1,3.37,3.37,0,0,0-1.25-.62,3.55,3.55,0,0,0-.71-1c-.15-.15-.29-.3-.43-.46l-.44-.46a3.47,3.47,0,0,1-.3-.37c-.17-.21-.33-.41-.51-.61a3.29,3.29,0,0,0-1.33-.83,4.32,4.32,0,0,0-.54-.91,6.57,6.57,0,0,0-.69-.7A2.39,2.39,0,0,1,210,270l-.36-.46c-.15-.18-.29-.36-.43-.55a2.69,2.69,0,0,1-.16-.29,5.45,5.45,0,0,0-.48-.84,4.52,4.52,0,0,0-.69-.8c-.06-.07-.13-.13-.18-.2l-.18-.27-.52-.8c-.1-.17-.19-.34-.28-.51l-.27-.49a.29.29,0,0,0,0-.09,4.37,4.37,0,0,0-.43-1.29c-.11-.2-.23-.39-.35-.59s-.2-.32-.29-.49a5.69,5.69,0,0,0-.56-.85,1.6,1.6,0,0,1-.16-.23,2.25,2.25,0,0,1-.13-.37c-.08-.23-.16-.46-.26-.69a.57.57,0,0,1,0-.13,4.58,4.58,0,0,0-.31-1.25,4.33,4.33,0,0,0-.61-1l-.1-.14a6.49,6.49,0,0,0-.46-.86c-.05-.08-.1-.15-.14-.23a4.28,4.28,0,0,1-.13-.46c-.06-.21-.11-.41-.18-.62v-.12a4.63,4.63,0,0,0-.18-1.29,6.34,6.34,0,0,0-.39-.91c0-.09-.09-.18-.13-.28a3.68,3.68,0,0,0-.61-1.18,4.17,4.17,0,0,0-.09-1.26c-.1-.41-.2-.83-.29-1.25s-.19-.85-.27-1.24a6.28,6.28,0,0,0-.23-.85c0-.13-.08-.25-.11-.39a4,4,0,0,1-.05-.5c0-.26,0-.51-.08-.77l-.07-.45c0-.21-.07-.41-.1-.62l0-.06a4,4,0,0,0,.14-1.42,3.44,3.44,0,0,0-.51-1.42,4.3,4.3,0,0,0,.1-1.09c0-.38,0-.75,0-1.13v-.14a6.09,6.09,0,0,0-.12-1,2.74,2.74,0,0,1-.05-.28,2.27,2.27,0,0,1,.05-.35c0-.27.07-.53.09-.8,0-.05,0-.09,0-.14a4,4,0,0,0,.26-1.22,4.75,4.75,0,0,0-.13-1.27l0-.13c0-.24,0-.49,0-.74a2.67,2.67,0,0,1,0-.4,2.45,2.45,0,0,1,.08-.37,6.63,6.63,0,0,0,.19-.86c0-.2.07-.38.11-.57s.1-.44.14-.67l.09-.62c0-.21.06-.42.1-.62s.08-.5.12-.75,0-.22,0-.32l0,0a4,4,0,0,0,.63-1.27,5.57,5.57,0,0,0,.16-1.06,1.94,1.94,0,0,1,0-.24,4,4,0,0,0,.12-1.39v0c0-.12.07-.23.11-.34s.1-.34.16-.5l0-.05a4.53,4.53,0,0,0,.77-1.17,5.55,5.55,0,0,0,.29-1,2.13,2.13,0,0,1,.07-.27,5.19,5.19,0,0,0,.32-1,.83.83,0,0,1,0-.15l.07-.08a4.68,4.68,0,0,0,.72-1,2.16,2.16,0,0,1,.21-.29,7.61,7.61,0,0,0,.51-.75,4.56,4.56,0,0,0,.43-1l0-.08,0,0a4.54,4.54,0,0,0,.87-.94,4.44,4.44,0,0,0,.53-1.15l0-.11.2-.22c.2-.21.4-.42.58-.65s.2-.23.3-.34a7.7,7.7,0,0,0,.54-.6l.18-.14a5.36,5.36,0,0,0,.75-.72l.12-.13.71-.81a7,7,0,0,0,.58-.76,2.4,2.4,0,0,1,.18-.26,5.78,5.78,0,0,0,.58-.71,2.88,2.88,0,0,1,.22-.27,4.47,4.47,0,0,1,.41-.35c.18-.16.37-.31.55-.48a2.4,2.4,0,0,1,.26-.18,5.77,5.77,0,0,0,.77-.57c.2-.17.39-.33.59-.48l.41-.34a3.7,3.7,0,0,1,.33-.21,6.11,6.11,0,0,0,.75-.5,4.73,4.73,0,0,0,.81-.82l.15-.17.29-.14a7.45,7.45,0,0,0,.77-.46,7.9,7.9,0,0,0,.67-.51,3.24,3.24,0,0,1,.35-.27c.37-.24.73-.46,1.1-.68a5.94,5.94,0,0,0,.8-.59c.09-.06.17-.14.26-.19s.44-.24.68-.35l.29-.15h.07a4,4,0,0,0,1.41-.35,3.42,3.42,0,0,0,1.15-.93,3.85,3.85,0,0,0,1.14-.27l.65-.29.53-.23a4.17,4.17,0,0,0,1.14-.68,4.15,4.15,0,0,0,1.3-.16,4.47,4.47,0,0,0,1.09-.51l.15-.09.29,0a7.5,7.5,0,0,0,.95-.14c.27-.07.53-.16.79-.24a3.88,3.88,0,0,1,.45-.14q.43-.1.84-.24a2.21,2.21,0,0,1,.42-.12l1.09-.19.05,0a4,4,0,0,0,1.48.12,3.77,3.77,0,0,1,.47,0c.28,0,.55,0,.83,0a3.84,3.84,0,0,0,1.22-.36,3.41,3.41,0,0,0,1.35.23,7.71,7.71,0,0,0,.84-.08,2.87,2.87,0,0,1,.41-.05,4.76,4.76,0,0,0,1.23-.21l.14,0c.24,0,.49,0,.74,0h.13a3.6,3.6,0,0,0,1.53.5,6.33,6.33,0,0,0,1,0l.26,0,.39.07a7.62,7.62,0,0,0,.81.14,4.94,4.94,0,0,0,1.18,0l.17,0,.69.06.5,0c.1,0,.2.07.31.1a6.1,6.1,0,0,0,.9.26l1.23.27.14.07a4.88,4.88,0,0,0,1,.41,3.72,3.72,0,0,0,1.56,0l.14.06c.2.09.41.18.61.25l.06,0a4.05,4.05,0,0,0,1.23.72,3.89,3.89,0,0,0,1.53.16l.27.13.66.3a6,6,0,0,0,1,.28l.14,0h0a4.17,4.17,0,0,0,1.13.82,4.89,4.89,0,0,0,1.11.35l.09,0,.06,0a4.19,4.19,0,0,0,1,.73,4.28,4.28,0,0,0,1.23.41,4.43,4.43,0,0,0,1,.83,2.09,2.09,0,0,1,.29.23,7.27,7.27,0,0,0,.71.53,3.31,3.31,0,0,0,1.44.5,5.54,5.54,0,0,0,.77.72c.2.14.39.3.59.45l.41.32s0,.05.06.11a5,5,0,0,0,.8.84,3.18,3.18,0,0,0,1.4.64,4.11,4.11,0,0,0,.67.8l.16.21a6.54,6.54,0,0,0,.66.77,1.19,1.19,0,0,1,.1.16,6.4,6.4,0,0,0,.67.85,3.59,3.59,0,0,0,1.36.82l.15.19c.15.2.31.39.48.58a4.67,4.67,0,0,0,.93.77l.12.08c.05.07.09.15.14.23s.25.39.39.58v0a3.9,3.9,0,0,0,.64,1.36c.16.2.34.4.52.6s.21.23.31.36a5.73,5.73,0,0,0,.72.78,1.45,1.45,0,0,1,.18.17,5.69,5.69,0,0,0,.59.71l.19.2c0,.05,0,.1.05.16a5,5,0,0,0,.49,1.07c.18.27.34.55.51.84l.15.24a4.49,4.49,0,0,0,.85,1l.08.07a2.55,2.55,0,0,1,.13.29c.07.17.15.35.23.52h0a3.66,3.66,0,0,0,.38,1.55,7.09,7.09,0,0,0,.45.75,2.46,2.46,0,0,1,.22.34c.08.17.14.34.22.51s.17.42.27.64l.29.59c.09.17.18.35.26.54a3.67,3.67,0,0,0,.78,1.1,4.12,4.12,0,0,0,.27,1.21,3.73,3.73,0,0,1,.14.44c.08.26.16.52.26.78a3.35,3.35,0,0,0,.75,1.12,3.71,3.71,0,0,0,.2,1.26,3.44,3.44,0,0,0,.81,1.22,4.41,4.41,0,0,0,.21,1.15c0,.05,0,.13,0,.21a4.41,4.41,0,0,0,.23,1.07c0,.13.06.27.09.41s.13.57.22.84a4.64,4.64,0,0,0,.52,1.05l.11.19a4.19,4.19,0,0,0,.4.85,2.05,2.05,0,0,0,.06,1l.39,1.29c.06.21.13.44.21.68l.28.86.31.91c.12.34.24.7.38,1.08l.84,2.32c.15.4.3.81.46,1.22l.06.16.06.16,0,.07.15.31.31.61.31.63.18.38.18.31.71,1.25c.53,1,.86,1.76,1.38,2.69l.74,1.28c.25.44.51.87.76,1.29S300.4,258.82,300.71,259.3Zm6.62,2.83h0l0,0Zm-.11-.1h0Zm0,0h0Zm-2.13-7.91v0h0Zm0,0h0v0h0Zm.2-12.13,0,0h0v0c-.07.08,0,0,0-.05Zm.25,9.21h0S305.53,251.22,305.53,251.24Zm0,0h0v0h0Zm2.83-12.8h0Zm3.55,2.58,0,0,0,0S311.91,241.07,311.92,241.05Zm.71-.52a.69.69,0,0,1-.21.16Zm4.21-7.34,0,0Zm.21-.12Zm12.78-28.9.49-.35s0,0,0,0a8,8,0,0,0-.3,1.07c0,.19-.09.38-.14.56s-.13.37-.2.55c-.13.34-.26.68-.36,1-.05.17-.12.33-.18.5a6.87,6.87,0,0,0-.38,1.09,8.85,8.85,0,0,0-.19,1.05c0,.2-.05.4-.1.6s-.12.68-.16,1c0,.2-.05.41-.09.61a2.38,2.38,0,0,1-.15.45,7,7,0,0,0-.33,1.15c-.06.37-.11.75-.17,1.13l-.07.51a6.16,6.16,0,0,0-.05,1.18,2.57,2.57,0,0,1,0,.48,8.76,8.76,0,0,0-.07,1c0,.2,0,.41,0,.61a3.43,3.43,0,0,1-.11.46,6.89,6.89,0,0,0-.24,1.16c0,.31,0,.64-.06,1s0,.45,0,.68,0,.65-.06,1,0,.43,0,.65,0,.44-.05.66-.06.65-.08,1,0,.43-.05.65-.07.65-.09,1,0,.64,0,1,0,.45,0,.68a7.22,7.22,0,0,0,.07,1.09,4.9,4.9,0,0,1,0,.54c0,.18,0,.36-.06.54s-.07.52-.08.81l-.84,0h-.46l-.26,0h-.21l-.23,0-.41.07-.1,0-.16,0-.25,0-.5,0h-.3a.21.21,0,0,1,.11,0l-.38-.06h-.91c.13,0,.08,0,0,0,0-.63,0-1.26,0-1.89a8.87,8.87,0,0,1,.06-.89c0-.34.06-.68.07-1s0-.7.07-1.05.05-.57.06-.85.06-.67.1-1,.08-.6.1-.89a10.84,10.84,0,0,0,0-1.14,6.14,6.14,0,0,1,0-.77,6.52,6.52,0,0,1,.17-.77,8.37,8.37,0,0,0,.24-1.08c.06-.35.08-.7.11-1a7.52,7.52,0,0,1,.09-.83c.07-.34.16-.67.25-1s.15-.56.22-.83a6.19,6.19,0,0,1,.27-.79c.12-.32.25-.64.34-1s.16-.63.23-.94a7.57,7.57,0,0,1,.23-.85c.09-.28.18-.56.26-.84a7,7,0,0,1,.31-.91,4.45,4.45,0,0,1,.38-.66,8.33,8.33,0,0,0,.55-.9c.3-.6.57-1.1.85-1.56a8.32,8.32,0,0,0,.5-.93,4.1,4.1,0,0,1,.34-.62l.43-.57a6.58,6.58,0,0,1,.63-.8,3.56,3.56,0,0,1,.65-.46A8,8,0,0,0,329.83,204.17Zm1.31,32.09h0ZM370,214.68c-.05,0,0,0,0,0Zm4.76,2.6h0C374.69,217.23,374.73,217.31,374.71,217.28ZM365,224.71l-.2-.3-.1-.14-.06-.07,0,0c-.15-.3-.33-.61-.46-.88s-.16-.46-.25-.7-.24-.74-.27-1l-.05-.36,0-.18h0v-.13a4.53,4.53,0,0,1,0-1l.05-.37v-.1l.07-.27.15-.55c0-.14.11-.23.16-.35l.07-.16,0-.09v0h0l.27-.45a3.94,3.94,0,0,1,.53-.72l.11-.16.07-.06.42-.39a3.6,3.6,0,0,1,.73-.54l.25-.16.51-.26c.16-.08.34-.18.49-.24a3.37,3.37,0,0,0,.34-.09l.34-.11h0l.13,0,.28,0,.55-.07a1.28,1.28,0,0,1,.4,0h.5l.19,0,.53.11a1.82,1.82,0,0,1,.46.11l.36.14.18.06.09,0h0l-.07,0h0l0,0,.93.46c.26.15.42.29.64.42l.15.1h0s0,0,0,0l.07.06.36.33a3.47,3.47,0,0,1,.52.57l.1.13.06.06,0,0,.21.35.23.4a3,3,0,0,1,.15.32l.13.31,0,.08,0,0h0s0-.13,0-.06l.06.2.12.39a4.45,4.45,0,0,0-3.62-2,4.62,4.62,0,0,0-4.49,4.78,4.78,4.78,0,0,0,3.57,4.72h0l-.18,0-.75.1a3.12,3.12,0,0,1-.62,0h-.36l-.17,0-.85-.19c-.25-.08-.43-.19-.65-.27l-.25-.1-.42-.22a4.14,4.14,0,0,1-.76-.44l-.27-.21-.14-.1-.07-.05,0,0C365.42,225.17,365.17,224.93,365,224.71Zm-13-1.1a3.73,3.73,0,0,1,.7-.56c.11-.06.2-.15.31-.21l.19-.11a8.12,8.12,0,0,0,1.2-.45,5.17,5.17,0,0,1,2.59-.19c.24,0,.68.13.85.16a2.69,2.69,0,0,1,.36.06l.34.16.27.11.24.17a2.83,2.83,0,0,1,.33.27l.39.32.21.17.05,0,0,0,0,0,.37.33c.1.11.27.24.33.32l.2.27.11.12.05.07,0,0h0s0,.06,0,0l.09.14,0,0c.17.33.35.6.52.89,0,0,0,0,0,0l.14.3.07.14h0l0,.08a1.86,1.86,0,0,1,.1.47,4.43,4.43,0,0,0-3.62-2,4.63,4.63,0,0,0-4.49,4.79,4.78,4.78,0,0,0,3.34,4.64,5.17,5.17,0,0,1-2,.14,6.91,6.91,0,0,1-1.47-.3l-.15-.06-.07,0h0l-.37-.21a5.43,5.43,0,0,1-.52-.41l-.72-.64-.79-.66-.25-.25a1.49,1.49,0,0,0-.15-.2l-.48-.84-.14-.36-.07-.18,0-.09v0c0-.15-.08-.33-.09-.43a1.17,1.17,0,0,0,0-.27l0-.54,0-.54,0-.56v-.28c0-.08,0-.12,0-.19s0-.23,0-.34v-.11l.06-.23.15-.55a1.87,1.87,0,0,1,.17-.37l.13-.32,0,0,.08-.12.15-.25a4,4,0,0,1,.55-.74l.12-.16v0h0l.08-.07Zm-14.06-25.22c.21-.28.42-.56.64-.82s.28-.32.41-.49.33-.41.51-.59l.41-.41a6.59,6.59,0,0,1,.61-.58c.3-.24.65-.46,1-.7l.14-.09a8.17,8.17,0,0,1,.74-.39l.51-.24a11.91,11.91,0,0,1,1.27-.55,8,8,0,0,1,.84-.24l.51-.13a6.18,6.18,0,0,0,.73-.23,5.69,5.69,0,0,1,.62-.19c.27,0,.59-.05.93-.07l.78,0a9.35,9.35,0,0,1,1,0,10.6,10.6,0,0,1,1.38.16l.58.09a6.54,6.54,0,0,1,.8.14c.37.11.78.26,1.33.48.07,0,.26.16.4.25a8.48,8.48,0,0,0,.81.51,5.07,5.07,0,0,0,1,.39,2.06,2.06,0,0,1,.35.12,3.7,3.7,0,0,1,.37.33c.23.22.46.43.7.62l.23.17c.31.23.62.47.92.73a7.81,7.81,0,0,0,.77.59,4,4,0,0,1,.41.3,4.27,4.27,0,0,1,.29.41,9.08,9.08,0,0,0,.57.81c.19.22.39.42.59.63a4.18,4.18,0,0,1,.43.45c.15.21.28.44.41.66s.24.42.37.62l.32.48c.17.25.35.51.5.78l.31.54c.15.25.3.5.43.76.22.45.42.91.62,1.38a3.56,3.56,0,0,1,.1.45,6.25,6.25,0,0,0,.25,1c.1.28.17.57.25.85s.11.4.16.6a7.39,7.39,0,0,0,.39,1,3.73,3.73,0,0,1,.18.43,3.78,3.78,0,0,1,0,.38,5.93,5.93,0,0,0,.07,1.14c0,.21.08.42.12.62s0,.27.07.4l-.12,0-.52.24-.51.25-.07,0h0l-.13.07,0,0-.15.1-.32.2a6.84,6.84,0,0,0-1.1.8l-.43.37-.1.1-.06,0h0l-.14.14,0,0-.23.3a8.52,8.52,0,0,0-.79,1.13l-.28.49-.07.12,0,.05,0,.09-.08.17-.14.36c-.1.23-.2.49-.27.7l-.14.55-.07.28,0,.06v0l0,.14v0l0,.19-.07.66-.24-.15h0l-.14-.06,0,0-.09,0-.19-.07-.37-.13a6.09,6.09,0,0,0-.7-.26c-.45-.09-.58-.12-1-.17l-.74-.08c-.14,0-.28.07-.42.05q-.06-.3-.15-.6c-.21-.68-.43-1.33-.66-2s-.5-1.31-.76-1.93c-.19-.45-.41-.88-.62-1.3-.1-.19-.2-.38-.29-.57l-.23-.48c-.23-.48-.45-1-.7-1.39s-.66-1.13-1.09-1.8c-.12-.19-.22-.4-.32-.6a8.77,8.77,0,0,0-.72-1.25,6.29,6.29,0,0,0-1.16-1.12c-.15-.13-.33-.27-.4-.35s-.29-.37-.42-.55a8.83,8.83,0,0,0-.93-1.11c-.54-.53-1.07-1-1.6-1.44a12.64,12.64,0,0,0-1.34-.93l-.46-.29-.4-.27a12.75,12.75,0,0,0-1.45-.9l-.56-.32a6.81,6.81,0,0,0-3.3-1.1c-.16,0-.31,0-.45-.06ZM337.08,234h0Zm1.85,1.22ZM339,241Zm1.85,2.85Zm.76,1.39Zm1.47,4.75V250h0c0-.07,0-.18,0-.16h0Zm8.22-4.75h0S351.36,245.16,351.29,245.19Zm10.62,6.05Zm-2.41,12.14s0,0,0,0ZM354.36,267Zm-12,11.63ZM188.87,296.61v-.42A3.26,3.26,0,0,1,189,295a7.88,7.88,0,0,1,1.16-1.34,4.17,4.17,0,0,1,.73-.48c.33-.2.66-.4,1-.63.53-.39,1.12-.77,1.8-1.19l.7-.43c.4-.25.8-.5,1.21-.71l.83-.45c.4-.22.79-.43,1.18-.62s.76-.32,1.12-.46.7-.27,1-.42.68-.33,1-.52a9.82,9.82,0,0,1,1.09-.53,6.49,6.49,0,0,1,.9-.25,10.63,10.63,0,0,0,1.4-.38,11,11,0,0,0,1.27-.55,7.09,7.09,0,0,1,.94-.41l.75-.24,1.54-.47a9.35,9.35,0,0,1,1-.16,13.48,13.48,0,0,0,1.38-.22,9,9,0,0,0,1.47-.51,4.26,4.26,0,0,1,.79-.28,7,7,0,0,1,1-.07,11.78,11.78,0,0,0,1.38-.09,2.2,2.2,0,0,0,1.53-.94c.15.09.3.18.46.26l.39.22.12.12a5,5,0,0,0,1,.79c.27.16.55.29.84.43l.43.21c.28.15.57.29.87.43l.41.2.42.22c.28.15.55.29.83.42l.44.21q.42.21.84.39l.36.16.94.4a5.16,5.16,0,0,0,1.1.29,2.8,2.8,0,0,1,.28.06,7.71,7.71,0,0,0,.89.27l.42.11a4.77,4.77,0,0,0,1.11.23l.16,0,.07,0a4.15,4.15,0,0,0,1.25.6l1.31.34a4.9,4.9,0,0,0,1.24.11,1.33,1.33,0,0,1,.2,0l.37.08.6.13a3.58,3.58,0,0,0,1.53.7,3.37,3.37,0,0,0,1.34-.06,3.22,3.22,0,0,0,1.33.49,6.43,6.43,0,0,0,1,0,2.41,2.41,0,0,1,.38,0,5,5,0,0,0,1.22-.05l.21,0a4,4,0,0,0,1.27-.12l.11,0,.26,0a5,5,0,0,0,.78.12l.06,0a3.89,3.89,0,0,0,1.45.37l1.35,0h.06a3.11,3.11,0,0,0,1-.18l.37,0,1.35-.07,1.37-.09a1.55,1.55,0,0,1,.31,0,6.17,6.17,0,0,0,1.17,0,5,5,0,0,0,1.22-.28,2.5,2.5,0,0,1,.26-.07c.29,0,.61-.1.94-.16a3.4,3.4,0,0,1,.46-.09,1.82,1.82,0,0,1,.33,0,6.48,6.48,0,0,0,1.14,0l.58-.06.88-.1a6.93,6.93,0,0,0,1-.24,3.2,3.2,0,0,1,.42-.1,7.17,7.17,0,0,0,1.07-.3l.34-.11h.35a6.15,6.15,0,0,0,1.12-.1,5.25,5.25,0,0,1,.55-.09c.3-.05.6-.09.9-.16a8.46,8.46,0,0,0,1-.29,3.45,3.45,0,0,1,.42-.14l.87-.24.53-.15a2.77,2.77,0,0,1,.3,0,5.13,5.13,0,0,0,1.16-.16l.58-.15c.28-.06.55-.13.82-.21l.88-.26.51-.14a9.42,9.42,0,0,0,.93-.36c.14-.05.27-.12.41-.16a4,4,0,0,1,.5-.11,8.86,8.86,0,0,0,.89-.21l.69-.21.65-.21a7.93,7.93,0,0,0,.86-.3c.16-.06.31-.13.46-.17l.26,0a5.41,5.41,0,0,0,1.13-.15,4.13,4.13,0,0,0,1.37-.69l0,0,.46-.07.69-.12c.27-.06.55-.09.82-.13l.43-.07.21,0a5,5,0,0,0,1.21,0,4.68,4.68,0,0,0,1.31-.39l.06,0,.1,0a5.8,5.8,0,0,0,1.14.1,6,6,0,0,0,1.09-.18,2.44,2.44,0,0,1,.26-.06l.18.05a5.79,5.79,0,0,0,1.08.12l.73,0,.58,0a2.11,2.11,0,0,1,.35.05,6.78,6.78,0,0,0,1,.13h.66l.64,0,.49,0,.82.05.4,0L295,284l.3,0c.39,0,.79,0,1.19,0H298a7.42,7.42,0,0,0,1.06-.12c.14,0,.28-.05.43-.06.34,0,.68-.06,1-.11.16,0,.32-.05.49-.06a9,9,0,0,0,1.06-.21l.42-.09a1.74,1.74,0,0,1,.32,0,9,9,0,0,0,1.22-.1c.51-.11,1-.23,1.52-.37a5.77,5.77,0,0,0,1.15-.48l.31-.15a14.12,14.12,0,0,0,1.52-.65l.19-.05a4.19,4.19,0,0,0,1.44-.64,4.34,4.34,0,0,0,1.14-1.26l.13-.18.17-.11a4.67,4.67,0,0,0,1.1-1,9.52,9.52,0,0,0,.8-1.37l.11-.22a6.11,6.11,0,0,0,.52-1.65c0-.09,0-.18.05-.27a4.65,4.65,0,0,0,0-1.81l0-.28a7.65,7.65,0,0,0-.32-2,1.68,1.68,0,0,1-.06-.24,5.08,5.08,0,0,0-.49-1.51c-.25-.46-.55-.95-.88-1.45a4.62,4.62,0,0,0-1-1,1.39,1.39,0,0,1-.19-.15l-.24-.33c-.2-.28-.41-.56-.64-.84a2.24,2.24,0,0,0-1.11-.72l-.06-.09-.1-.13-.21-.27a5.05,5.05,0,0,1-.64-1.08v0s-.17-.26-.11-.15l0,0-.11-.12a2.5,2.5,0,0,0-.23-.23l-.23-.2-.13-.09-.1-.06-.12-.26-.23-.47a.28.28,0,0,1,.07.13l0-.1,0-.18-.07-.24c-.05-.2-.06-.2-.09-.3l0-.06h0l-.09-.19,0-.07-.16-.26a1.72,1.72,0,0,0-.17-.23l-.11-.14-.08-.09a.14.14,0,0,1,0,.06l0,0v0l0,0h0l0,0h0v-.1s-.05-.27-.08-.43l0-.13v0c0-.09.06.18-.06-.2l0,0,0-.07-.14-.3-.16-.33,0-.3a3,3,0,0,0,0-.41v-.07c0-.1,0,.2,0-.23v-.06l0-.14-.09-.3-.06-.28,0-.08v-.9a3.41,3.41,0,0,0-.06-.43,2.67,2.67,0,0,0-.1-.41l.08-.25.06-.17,0-.08,0-.14v0l0-.24v0l0-.05,0-.19.13-.58a1,1,0,0,0,0-.12v-.44a4,4,0,0,0,0-.45l0-.19,0-.08.1-.26.06-.15,0-.08,0,0,.05-.16.09-.31.18-.62.07-.14.1-.19.14-.3.08-.2.06-.16.22-.61.06-.16v0c0,.1,0,0,0,0l0-.1.12-.41.11-.34,0-.09a7.52,7.52,0,0,0,.62-1.06l.16-.34.21-.15.3-.24.12-.12,0,0,.2-.24v0l.05-.07.37-.55L310,243h0l.21-.26.08-.1a3.36,3.36,0,0,0,.33-.16l.21-.12.08-.05.13-.09h0c-.05,0,.5-.42.29-.25l.09-.09.17-.2.27-.38L312,241h0l.38-.27,0,0,.17-.06a4.55,4.55,0,0,0,.61-.26l.08,0,0,0h0l.22-.13.13-.09.27-.19.5-.34.92-.66.53-.35a3.23,3.23,0,0,1,.34-.15l.28-.11.15-.06.07,0,.15-.07h0l0,0,.63-.41,0,0,.1,0,.35-.05h0s0,.05,0,.08a2,2,0,0,0,2,1.8h.19a2,2,0,0,0,1.8-2.18c0-.31-.05-.62-.06-.92l.3-.14.18-.11.34,0h.26l.35,0h.13l.51,0,.24,0h.09l.14,0,.55-.09.24,0,.12,0h.34l.45,0h.12l.22,0,.76,0,.59.08.18,0,.16,0h1.07l.4.1.59.13.48.1.21.05h.08l0,0,.15,0a2.36,2.36,0,0,0,.57.35l.78.3.47.17.26.09.07,0h0l-.08,0h0l.14.06.61.25.12.09.26.16.16.11h0l.12.07.06,0,.12,0,.45.19.09,0s0,0,.05.09l.16.15.08.08,0,0,0,0,.22.17h0l.6.31.2.1.11.05h0l.14.1.19.14.1.07h0a.07.07,0,0,0,0,.05l.07.09.15.2,0,.05,0,0h0l.19.21a3.44,3.44,0,0,0,.36.28l.36.23.05,0,.07.11.06.11,0,.06,0,0,.13.19.15.2.31.4,0,.05,0,0h0s.06.07-.05-.07h0l.09.11.18.21.16.2.08.1,0,.05h0l.17.27.13.21,0,.06v0h0s.06.1,0-.09l.06.11.27.43.13.21h0l0,0,0,.12.2.44a1.16,1.16,0,0,0,.09.19l.16.27.27.44,0,0,.05.16.15.43.13.34.15.41,0,.1h0v0l0,.12c0,.06,0,.2.08.33l.11.43c.06.23.11.46.17.67s.14.46.21.66l0,.15v.06c0,.1,0-.15,0-.12h0l0,.08c0,.1.06.2.08.29l.13.49v0c-.05.22-.08.44-.1.57s0,.21,0,.21v.09a1.54,1.54,0,0,0,3,.62l0-.17s0-.09,0-.14a1.64,1.64,0,0,0,.41-.65,1.17,1.17,0,0,0,.05-.24,2.35,2.35,0,0,0,0-.28l.19-.36.08-.14v0h0l.06-.14.12-.28.07-.19.06-.17h0s0-.06.07-.15h0l0,0,.08-.07.21-.19.67-.64c.21-.22.45-.43.68-.67l.29-.36.17-.25c.1-.1-.07.06.1-.12l0,0,.14-.07L350,246l1-.54.25-.14.07,0h.06l.37-.13,1.07-.35.31-.09.15,0h.05l-.09,0,.07,0,.56-.16.31-.06h1.21c.18,0,.38,0,.62,0s.62.32.68.34c.27.11.46.16.69.25l.34.12.17.06.05,0h0l-.11,0,.06,0c.2.09.39.15.61.27l.22.1.09.07.5.36h0a5.81,5.81,0,0,0,.33.53l.1.16,0,0c.23.28.08.09.13.15l0,0,.08.07c.2.19.41.38.58.56l.06.06.12.22.36.68-.05-.09h0v.19l.05.16.1.38.16.47.26.74,0,0v0l0,.13.12.38.12.38,0,.09,0,.12.17.78v0h0v.2l0,.4,0,.4v.12l0,.22c.05.28.08.54.11.79l0,.08a1.73,1.73,0,0,0,0,.2l-.08.4v.14s0,.37,0,.22v.27l0,.88v.08l0,.37-.06.4v.12l0,.08a1.34,1.34,0,0,0-.07.18l-.14.38-.07.18-.07.22v.07l0,.12,0,.24,0,.25v.42c.07-.1,0-.07-.25.44l-.1.17-.05.09-.08.14-.18.36-.36.7v0s-.05.1,0-.07l0,0,0,.08-.09.17c-.06.11-.1.21-.17.33l-.19.34,0,0-.05.07-.47.63-.11.16,0,0,0,0a.54.54,0,0,0,.1-.13l-.05.07-.24.3-.45.55,0,0-.15.13-.29.25L358,265l0,0s0,0,0,0v0l-.13.13c-.18.17-.36.35-.55.51l-.13.12-.24.14-.65.37-1,.48c-.16,0-.22.08-.45.15l-.35.09-.08,0h0l-.12,0-1.19.24-.27.05-.34,0-.17,0h-.1c.06,0-.16,0,.12,0h-.32a6.29,6.29,0,0,1-.63,0h-.12l-.24,0-.64-.11h-.05l0,0-.15,0-.07,0-.15-.07-.28-.13-.07,0h0l-.06,0-.27-.15-.51-.3-.06,0h0l-.12-.1a2.42,2.42,0,0,1-.36-.31,3.87,3.87,0,0,0-.4-.33c-.74-.62-.5-.32-.93-1.15l-.06-.11-.05-.09h0v0l0-.05-.13-.18a3.41,3.41,0,0,1-.25-.37l-.11-.2,0-.06-.1-.31-.13-.39-.06-.2,0-.09,0,0v0s.05.16,0,.08h0c0-.18-.05-.35-.08-.51l0-.28c0-.14,0-.29.07-.43v-.08l0-.18v-.22c0-.11,0-.21,0-.32s0-.39,0-.56a8,8,0,0,0,0-.8,2.21,2.21,0,0,0,0-.28l0-.08a1.7,1.7,0,0,0-2.06-1.23,1.73,1.73,0,0,0-.86.55,1.53,1.53,0,0,0-.85,1.35v.06a5.51,5.51,0,0,0,.05.77q0,.19.06.42a.59.59,0,0,0,0,.14l-.36,1.27a4,4,0,0,1-.12.43h0c.09-.35,0-.09,0-.17h0v0l0,0-.05.11-.09.22-.37.9c-.06.16-.13.31-.19.47l-.05.12,0,.06v0c-.06.17.08-.21.06-.17h0l-.11.24c-.15.32-.31.64-.46,1l-.24.5L340,266l0,.07,0,0c.13-.27,0-.07.06-.13h0l-.13.25c-.16.34-.33.68-.5,1l-.25.52,0,.07,0,0L339,268l-.15.25-.59,1a13.85,13.85,0,0,0-1.18,2.49l-.18.55v0l-.06.25v0l0,.11,0,.21,0,.42-.06.84c0,.27,0,.39,0,.59l0,.54v.14l0,.25,0,.35c0,.23.07.45.11.67a3.19,3.19,0,0,0,.12.59c.08.33.17.64.25.94l.07.22,0,.07,0,.13.09.26c.07.17.13.33.19.5a8.56,8.56,0,0,0,.36.82c0,.12.11.23.17.35l.08.17,0,.08.12.23h0v0l0,0c.26.39.49.74.67,1l.27.39a2.25,2.25,0,0,0,.27.62,8,8,0,0,0,.64.86c.12.14.24.3.36.46l.3.43c.2.29.41.6.64.9a6.72,6.72,0,0,0,.78.85,3.4,3.4,0,0,1,.32.34c.12.15.24.32.35.48a9.56,9.56,0,0,0,.6.82l.37.5c.19.26.38.52.59.77s.24.32.35.48a9.81,9.81,0,0,0,.6.8,7.31,7.31,0,0,0,.75.74,3.9,3.9,0,0,1,.29.28,8.07,8.07,0,0,1,.42.7q.13.27.27.51a9.42,9.42,0,0,1,.59,1.19,4.44,4.44,0,0,1,.25.9l.07.29c.05.23.12.45.19.67s.11.37.12.44a3.71,3.71,0,0,1-.17.92,4,4,0,0,1-.42.63l-.13.17a4.25,4.25,0,0,1-.46.57,4.64,4.64,0,0,1-.78.31l-.35.12a5.87,5.87,0,0,1-.95.28,5.07,5.07,0,0,1-.64,0l-.67,0h-.4a9.81,9.81,0,0,1-1-.05c-.42,0-.83-.14-1.23-.22l-.22-.05c-.33-.07-.66-.1-1-.14a4.41,4.41,0,0,1-.54-.07,5.66,5.66,0,0,1-.58-.2,10.28,10.28,0,0,0-1.07-.35l-.64-.18c-.36-.1-.72-.2-1.09-.28a7.31,7.31,0,0,0-1.28-.16,4.93,4.93,0,0,1-.54-.05l-.55-.12c-.39-.08-.82-.17-1.29-.22a18.58,18.58,0,0,0-1.93-.13h-.32a15.54,15.54,0,0,0-1.65,0,13.88,13.88,0,0,0-1.86.32,8.53,8.53,0,0,0-1.32.43l-.41.15-.23.08c-.48.16-.95.32-1.42.52s-.68.33-1,.5l-.5.26a2.1,2.1,0,0,1-.42.15,7.5,7.5,0,0,0-1.1.42l-.31.15a8.76,8.76,0,0,1-.82.39l-.6.26a4.06,4.06,0,0,1-.53.21l-.23.07a8.42,8.42,0,0,1-1,.24,2,2,0,0,1-.35,0,5.17,5.17,0,0,0-.88,0,7,7,0,0,0-.8.1l-.44.06-1-.06-.61-.05a3.91,3.91,0,0,1-.58-.1,8.83,8.83,0,0,0-1-.16l-1.65-.18-.86-.08c-.27,0-.53,0-.8-.08l-.91-.09-.77-.08-.72-.11-1-.15c-.34,0-.68-.05-1-.06l-.65,0-.5-.09a11.5,11.5,0,0,0-1.16-.18c-.33,0-.68,0-1,0h-.63l-.89-.05-.76,0c-.23,0-.45,0-.68-.08a11.12,11.12,0,0,0-1.16-.13,7.88,7.88,0,0,0-1.23.05,4.21,4.21,0,0,1-.62,0c-.21,0-.42,0-.63-.07a11.59,11.59,0,0,0-1.2-.13,2.37,2.37,0,0,0-.76.12,9.58,9.58,0,0,0-1.91.1L289,300c-.47,0-1,.12-1.46.21a9.52,9.52,0,0,0-1.43.38,7.59,7.59,0,0,1-.78.22c-.85.17-1.64.33-2.28.49a6.78,6.78,0,0,1-1.15.12l-1,.08-.86.11c-.49.07-1,.14-1.41.16s-.8.05-1.2.09a11.5,11.5,0,0,1-1.16.08L275,302l-1.18,0a6,6,0,0,1-.79-.1,9,9,0,0,0-1.41-.18c-.36,0-.71-.06-1.07-.1s-.77-.09-1.16-.11a11.45,11.45,0,0,0-1.31,0c-.35,0-.68,0-1,0l-1.11-.12-1.16-.12a9.63,9.63,0,0,0-1.56.05,4.37,4.37,0,0,1-.76,0c-.31,0-.62-.08-.93-.13-.46-.07-.91-.14-1.37-.18s-.68-.07-1-.11c-.52-.07-1-.13-1.56-.16-.33,0-.66-.06-1-.1a12.13,12.13,0,0,0-1.58-.15,8.2,8.2,0,0,0-1.77.19,6.59,6.59,0,0,1-.83.11c-.33,0-.66,0-1,0a13.22,13.22,0,0,0-1.58-.06h-.4c-.73,0-1.45,0-2.17.08-.34,0-.68,0-1,0a14,14,0,0,0-1.57,0,9,9,0,0,0-1.65.31,5.4,5.4,0,0,1-.85.19c-.41,0-.82,0-1.23.05s-.85,0-1.27.05a9.57,9.57,0,0,1-1.05,0c-.43,0-.91-.05-1.42,0s-1,.09-1.39.15a7.24,7.24,0,0,1-1,.11h0a10.34,10.34,0,0,1-1.15-.1c-.42-.05-.83-.1-1.25-.12s-.86,0-1.29,0a12.09,12.09,0,0,1-1.23,0,8.76,8.76,0,0,1-1.06-.2,12.16,12.16,0,0,0-1.46-.29l-1.35-.12c-.41,0-.82-.05-1.22-.1l-1.23-.19c-.45-.08-.91-.15-1.36-.21a10.11,10.11,0,0,0-1.7-.07,6,6,0,0,1-1,0,6.83,6.83,0,0,1-.88-.17,10,10,0,0,0-1.64-.3c-.31,0-.61,0-.92-.09-.54-.06-1.09-.11-1.63-.14a9.16,9.16,0,0,0-1.73.13c-.31,0-.63.06-.83.08s-.65,0-1-.05c-.48,0-1-.07-1.59-.06-.84,0-1.69.06-2.54.11-.33,0-.68,0-1,0s-.88,0-1.34,0l-1.07.08-1.25.08c-.42,0-.85.06-1.28.11a8.14,8.14,0,0,1-1,.09c-.46,0-.92,0-1.38,0l-.9,0h-1.09c-.42,0-.82,0-1.15,0a4.62,4.62,0,0,1-.83-.24,10.22,10.22,0,0,0-1.26-.35l-.23,0a10.25,10.25,0,0,1-1.63-.39l-.52-.19a4.61,4.61,0,0,1-1-.44,3.14,3.14,0,0,1-.95-1C188.86,297.37,188.87,296.92,188.87,296.61Zm84.62-34.81a9.29,9.29,0,0,1-.16,1.13,3.54,3.54,0,0,0-.08.45,1.93,1.93,0,0,0,0,.34,6.42,6.42,0,0,1-.05,1.27c-.08.51-.19,1-.32,1.57a8.53,8.53,0,0,1-.33,1.09c-.05.15-.11.3-.15.46-.11.37-.24.73-.38,1.09-.06.14-.11.28-.16.43s-.1.3-.15.45a9.86,9.86,0,0,1-.38,1.08,2.83,2.83,0,0,0-.14.41,7.46,7.46,0,0,1-.45,1.12,6.32,6.32,0,0,1-.69,1,4,4,0,0,0-.24.33c-.28.46-.58.91-.9,1.36l-.26.39a8.53,8.53,0,0,1-.67,1,7,7,0,0,1-.89.86c-.1.09-.21.17-.31.27a2.21,2.21,0,0,1-1.62.7,2.25,2.25,0,0,1-1.62-3.81c.2-.21.42-.41.64-.6a2.77,2.77,0,0,0,.33-.29c.13-.16.24-.34.36-.52s.25-.39.38-.57c.25-.36.49-.72.72-1.09a6.73,6.73,0,0,1,.53-.75c.09-.12.21-.27.25-.34s.1-.27.16-.44.18-.55.29-.81a4.9,4.9,0,0,0,.21-.61c.07-.22.13-.44.21-.65s.13-.35.2-.53.19-.48.26-.72.14-.46.22-.69a5.65,5.65,0,0,0,.2-.65c.1-.42.19-.84.26-1.24a1.9,1.9,0,0,0,0-.34,7.33,7.33,0,0,1,0-1,7.56,7.56,0,0,1,.14-.83,4.5,4.5,0,0,0,.08-.51c0-.27.05-.54.09-.82a4.89,4.89,0,0,0,.05-.55,5.11,5.11,0,0,0-.05-.55c0-.27-.06-.54-.07-.81s-.05-.4-.08-.6-.07-.51-.1-.76c0-.45-.09-.9-.16-1.36s-.14-.9-.23-1.35-.18-.89-.29-1.34-.22-.89-.34-1.33l-.14-.51c-.07-.28-.14-.55-.23-.82s-.16-.62-.22-.93a2.73,2.73,0,0,0-.1-.41c-.09-.24-.16-.49-.24-.73s-.12-.4-.17-.54a1.84,1.84,0,0,0-.17-.22,5.71,5.71,0,0,1-.63-1c-.12-.24-.25-.46-.37-.69s-.2-.34-.29-.52-.26-.55-.38-.84a2.13,2.13,0,0,0-.18-.41c-.15-.25-.27-.51-.4-.77a3.17,3.17,0,0,0-.23-.45,1.81,1.81,0,0,0-.24-.24,6.65,6.65,0,0,1-.7-.79,8.54,8.54,0,0,1-.53-.88,2.85,2.85,0,0,0-.16-.3l-.34-.43c-.18-.22-.35-.45-.53-.64a1.28,1.28,0,0,0-.26-.2,7.37,7.37,0,0,1-.84-.7c-.32-.34-.65-.66-1-1a8.93,8.93,0,0,1-.65-.73l-.27-.31c-.16-.13-.32-.28-.48-.42s-.37-.34-.56-.49a3.18,3.18,0,0,0-.44-.26c-.25-.15-.5-.29-.73-.46a4.91,4.91,0,0,0-.5-.28c-.24-.12-.47-.25-.69-.38s-.45-.25-.67-.37l-.53-.27a6,6,0,0,1-.88-.61l-.23-.18a3.58,3.58,0,0,0-.35-.09,8.14,8.14,0,0,1-1-.29,7.15,7.15,0,0,1-.93-.48,1.91,1.91,0,0,0-.27-.16c-.43-.14-.86-.28-1.28-.39a5.86,5.86,0,0,0-.58-.1c-.25,0-.5-.06-.75-.11-.44-.09-.88-.16-1.31-.21-.28,0-.56-.1-.83-.16a2.67,2.67,0,0,0-.48-.08,5,5,0,0,0-.67,0l-.65,0c-.33,0-.65,0-1,.07l-.33,0a4.54,4.54,0,0,0-.66.12l-.61.13c-.49.09-.88.18-1.23.28a11.92,11.92,0,0,0-1.19.39,9,9,0,0,0-1.11.49c-.39.21-.75.43-1.1.66s-.62.45-.92.68l-.11.08c-.19.15-.38.28-.57.41a5.4,5.4,0,0,0-.45.33c-.24.23-.45.47-.66.71l-.19.23c-.18.2-.38.39-.57.58a3.15,3.15,0,0,0-.32.32,3.73,3.73,0,0,0-.21.41c-.12.24-.23.49-.37.72a6.71,6.71,0,0,1-.47.71l-.21.28a2.8,2.8,0,0,0-.06.28,5.43,5.43,0,0,1-.24,1.05,8.42,8.42,0,0,1-.4.87,2,2,0,0,0-.14.3c-.11.41-.22.84-.3,1.26l-.06.36c-.05.28-.1.56-.13.85a1.29,1.29,0,0,0,0,.19,5.44,5.44,0,0,1,.14,1.21,6.52,6.52,0,0,1-.07.88c0,.15,0,.35,0,.43a5.52,5.52,0,0,0,.09.68c0,.2.07.41.1.62.05.44.14.87.22,1.31,0,.2.07.4.1.61s.07.46.13.69.14.4.21.59.18.44.25.66c.14.42.3.83.46,1.23l.08.21c.14.34.28.68.44,1a7.27,7.27,0,0,1,.34.81,2.12,2.12,0,0,0,.17.41c.18.32.39.62.59.92l.13.17c.12.18.26.34.39.5s.33.39.48.59.25.36.38.53a6.61,6.61,0,0,0,.44.6,9,9,0,0,1,.52.74c.09.13.18.27.28.39a5,5,0,0,0,.42.38,8,8,0,0,1,.6.56c.16.15.33.28.49.42a6.19,6.19,0,0,1,.55.47l.32.29c.23.21.45.42.69.61s.44.39.65.59a3.49,3.49,0,0,0,.35.32c.2.14.41.25.61.37s.37.2.54.31a2.76,2.76,0,0,0,.39.16,6.92,6.92,0,0,1,.83.36c.26.13.51.29.75.44a3.19,3.19,0,0,0,.38.23,12.12,12.12,0,0,0,1.22.46c.41.14.83.25,1.24.35a5.74,5.74,0,0,0,.83.13l.43.06a7,7,0,0,0,1.13.11,5.72,5.72,0,0,0,1.07-.11c.2,0,.41-.06.62-.09l.34,0,.17-.15a6.94,6.94,0,0,1,.59-.51l.35-.24c.14-.1.34-.24.39-.29a4.22,4.22,0,0,0,.52-.8,4.68,4.68,0,0,0,.24-.84l0-.18a6.08,6.08,0,0,0,.18-1.05l0-.56a1.87,1.87,0,0,0-.14-1.17c-.07-.21-.14-.43-.2-.64a7.4,7.4,0,0,0-.36-.91l-.22-.52a6,6,0,0,0-.4-.87,10.35,10.35,0,0,0-.67-1,7,7,0,0,0-.82-.85,2.25,2.25,0,0,1,3.05-3.32,11.69,11.69,0,0,1,1.3,1.39,12,12,0,0,1,1,1.54,11.17,11.17,0,0,1,.68,1.41l.2.48a11.3,11.3,0,0,1,.55,1.48c0,.13.08.26.13.4a6.91,6.91,0,0,1,.36,1.4,7.23,7.23,0,0,1,0,1.54c0,.13,0,.26,0,.38a9.86,9.86,0,0,1-.3,1.95l0,.14a7.56,7.56,0,0,1-.58,1.82A8.86,8.86,0,0,1,255.5,268a6.25,6.25,0,0,1-1.31,1.13l-.24.16c-.08.06-.14.13-.21.19a5,5,0,0,1-1.43,1,6,6,0,0,1-1.56.37,2,2,0,0,0-.35.05,10.75,10.75,0,0,1-1.86.18,13.26,13.26,0,0,1-1.81-.15l-.36-.05a12.63,12.63,0,0,1-1.3-.22c-.55-.13-1.09-.28-1.61-.45s-1.05-.37-1.56-.59a5.74,5.74,0,0,1-1.07-.6c-.13-.07-.24-.16-.37-.22l-.36-.15a6.55,6.55,0,0,1-1.15-.53l-.4-.23c-.34-.19-.68-.39-1-.62a7.2,7.2,0,0,1-.88-.77l-.34-.31c-.31-.25-.61-.53-.91-.81l-.29-.26-.37-.31c-.29-.24-.58-.48-.85-.75a3.39,3.39,0,0,0-.34-.31,9.64,9.64,0,0,1-.83-.79,7.16,7.16,0,0,1-.67-.9c-.09-.13-.17-.27-.27-.39s-.43-.56-.63-.85l-.31-.43-.32-.39q-.34-.4-.66-.84l-.11-.17c-.27-.4-.54-.79-.78-1.21a6,6,0,0,1-.5-1.11c0-.13-.1-.27-.16-.39-.21-.42-.38-.86-.56-1.3l-.08-.19c-.21-.5-.4-1-.57-1.52-.05-.14-.11-.29-.16-.44a8.38,8.38,0,0,1-.38-1.08,11.45,11.45,0,0,1-.22-1.14c0-.15,0-.31-.08-.46-.1-.53-.2-1.06-.27-1.59,0-.16,0-.31-.07-.46a11.47,11.47,0,0,1-.14-1.16,5.84,5.84,0,0,1,.07-1.24c0-.13,0-.26,0-.34a2,2,0,0,0-.05-.24,4.52,4.52,0,0,1-.13-1.47c0-.44.11-.88.19-1.31L226,242c.1-.58.24-1.13.37-1.62a6,6,0,0,1,.5-1.23,2.09,2.09,0,0,0,.15-.3,1.37,1.37,0,0,0,0-.28,5.18,5.18,0,0,1,.38-1.38,7,7,0,0,1,.69-1.11,3.88,3.88,0,0,0,.23-.33c.06-.11.11-.23.17-.35a6.19,6.19,0,0,1,.64-1.14,6.4,6.4,0,0,1,.86-.95c.1-.1.2-.19.3-.3l.18-.2c.28-.32.59-.68,1-1a8.2,8.2,0,0,1,1-.76,3,3,0,0,0,.36-.26l.11-.08c.36-.28.77-.6,1.24-.9s.9-.57,1.42-.85a14.78,14.78,0,0,1,1.58-.71,15.46,15.46,0,0,1,1.62-.53,14.86,14.86,0,0,1,1.63-.37l.43-.1a8.52,8.52,0,0,1,1.22-.21l.3,0c.45-.05.9-.09,1.36-.1l.45,0a11.49,11.49,0,0,1,1.2,0,7.88,7.88,0,0,1,1.18.19l.45.08c.53.07,1.07.16,1.61.26l.45.07a7.58,7.58,0,0,1,1.16.21c.52.13,1,.3,1.56.47a5.58,5.58,0,0,1,1.15.57c.1.05.2.12.31.17a3.18,3.18,0,0,0,.33.09,5.51,5.51,0,0,1,1.22.4,5.83,5.83,0,0,1,1.07.7,2.69,2.69,0,0,0,.27.2l.41.22c.34.17.67.34,1,.54a3.3,3.3,0,0,0,.41.23,10,10,0,0,1,1,.57,3,3,0,0,0,.38.23,8.24,8.24,0,0,1,1,.63c.29.22.56.46.83.71l.38.34a6.84,6.84,0,0,1,.81.86,4.15,4.15,0,0,0,.27.32c.38.35.76.73,1.12,1.11l.25.19a5.59,5.59,0,0,1,1,.84c.24.27.47.56.7.86l.3.37a5.73,5.73,0,0,1,.66,1.06,2.91,2.91,0,0,0,.17.3,2.83,2.83,0,0,0,.24.25,6,6,0,0,1,.82,1,10.36,10.36,0,0,1,.54,1,4.11,4.11,0,0,0,.21.42,7.78,7.78,0,0,1,.49,1,2.71,2.71,0,0,0,.17.39l.24.43c.17.32.35.63.49.93.05.08.11.15.17.23a4.92,4.92,0,0,1,.7,1.14c.14.33.25.67.36,1,.05.16.1.33.16.49a6.28,6.28,0,0,1,.29,1.13c0,.14.05.27.09.4.12.35.21.71.31,1.07l.11.44c.15.51.28,1,.4,1.52s.23,1,.33,1.54.19,1,.26,1.55.14,1,.18,1.57c0,.16.05.33.07.49a7.93,7.93,0,0,1,.12,1.08c0,.16,0,.32.05.48a8.71,8.71,0,0,1,.08,1.1,8.92,8.92,0,0,1-.09,1.12A4,4,0,0,0,273.49,261.8Zm13.56-23.74a2.5,2.5,0,0,0,0-.63,1,1,0,0,0-.17-.43c0-.1,0-.22,0-.37s0-.41,0-.67v-.24h0l0-.14h0v-.15c0-.16-.06-.32-.09-.5a3.38,3.38,0,0,0-.11-.48l-.06-.24,0-.12v0h0l-.07-.16,0,0-.06-.12a4,4,0,0,0-.54-.7l-.09-.1-.18-.22c-.24-.3-.46-.61-.71-.91l-.6-.62-.23-.2-.11-.1-.06,0,0,0-.15-.11h0l-.66-.4-.27-.12-.14-.06-.06,0-.15-.06h0l-.06,0a6.08,6.08,0,0,0-1-.16h-.69a2.78,2.78,0,0,0-1,.27c-.21.11-.39.21-.51.29s-.3.16-.51.3l-.27.18a2.76,2.76,0,0,0-.37.31,1.75,1.75,0,0,0-.36.44l0,0h0l-.09.14h0l0,0-.06.14-.11.27-.17.49a1.8,1.8,0,0,0-.06.31,4.33,4.33,0,0,0-.05.55h0a.88.88,0,0,0,.06.28c0,.13-.06.33-.1.62a3.54,3.54,0,0,0-.05.79v.49l0,.15V236l0,.15a2.68,2.68,0,0,1,0,.3c0,.19.07.43.12.62s.1.36.16.54l.08.29h0l.07.16,0,.07.08.13.18.26a3.66,3.66,0,0,0,.31.35l.11.13.82,1,.05.06v0l.1.11,0,0,.14.14.28.29.25.24.13.11.06.06.18.12,0,0a8,8,0,0,0,.74.43l.3.15.22.09.14,0,.28.06a5,5,0,0,0,.56.09h.33a3.71,3.71,0,0,0,1.11-.14l.27-.09.19-.1.31-.16.17-.09a1.92,1.92,0,0,1,.28-.13,2.79,2.79,0,0,0,.34-.18,2.3,2.3,0,0,0,.25-.16l.1-.1,0,0h0l.14-.13h0l0,0,.07-.1a3.7,3.7,0,0,0,.42-.67c0-.08.07-.15.1-.23l0,0,.05-.13,0,0,0-.19a3.19,3.19,0,0,0,.11-.65A3.08,3.08,0,0,1,287.05,238.06Zm-2.44.66h0S284.6,238.74,284.61,238.72Zm-2.56.13Zm-.75-.69ZM280.06,237Zm2.62-3.21h0Zm.08.07ZM284,235v0s0-.1,0,0Zm.89,2.57a1.72,1.72,0,0,1-.07.21,3.65,3.65,0,0,0-.17.69c0,.18-.06.14-.07.2h0l-.14.21c-.1.19-.14.14-.18.18l.11-.1h0l0,0-.12.08c-.06,0,0,0,0,0a.21.21,0,0,1,.08-.06c-.09,0-.12,0-.27.07l-.39.13a1.63,1.63,0,0,1-.26.09l-.1,0h0c-.09,0,.19,0-.16,0l-.33,0a.18.18,0,0,0-.09,0h0l-.26-.14a2.31,2.31,0,0,1-.4-.26h0l-.13-.11-.25-.22-.19-.19-.05-.06h0l-.06-.06c-.28-.34-.59-.67-.86-1l-.33-.31-.12-.1h0v0h0l-.07-.16-.23-.51c-.06-.16-.09-.28-.13-.41l-.07-.18,0-.09v-.05h0c0,.2,0,.16,0,.14h0v0l-.09-.43a3.22,3.22,0,0,1-.11-.62c0-.28,0-.45,0-.45l0-.18a1.91,1.91,0,0,0,.09-.26c0-.06.05-.21.09-.24a.69.69,0,0,0,.11-.13l0,0v0c.08-.06.25-.28.23-.18a.1.1,0,0,1,0,0l.14-.05.39-.13a3.37,3.37,0,0,1,.46-.15c.08,0,.1,0,0,0h.17l.29,0c.1,0,.12.06.17.06l.12.07.27.13.29.2,0,0,.12.09.23.19.16.16.07.08,0,0h0l.72.81.2.2.3.27c.11.09.16.15.14.1h0l.1.22c.06.15.14.3.17.41s.08.23.12.33l0,.08v0h0a.53.53,0,0,0,0-.13h0v0l.05.18c.05.23.14.46.15.58.06.29.1.45.1.45v0A.69.69,0,0,0,284.93,237.58Zm2.44,13.86a3.28,3.28,0,0,0,0-.43c0-.09,0-.17,0-.24a1.86,1.86,0,0,0-.11-.45h0s0,0-.05-.07h0s0-.17,0-.49a4.09,4.09,0,0,0,0-.49v-.19l-.11-.29,0-.07a2.65,2.65,0,0,1-.11-.3l-.12-.32-.07-.16,0-.09v0h0l-.08-.14-.05-.07a3.28,3.28,0,0,0-.43-.51l-.21-.21-.13-.11a8.8,8.8,0,0,0-.73-.63,5.31,5.31,0,0,0-.9-.58,5,5,0,0,0-1.17-.46l-.24,0h-.11l-.15,0h-.16a3.07,3.07,0,0,0-.67.08,3.29,3.29,0,0,0-.75.25,1.11,1.11,0,0,0-.2.11l-.08.06h0l-.11.06-.07.06a2.94,2.94,0,0,0-.8.9l-.14.28v0l-.1.18h0v.06l0,.11-.06.21-.09.38a.68.68,0,0,0,0,.23,1.6,1.6,0,0,0,0,.4,1.13,1.13,0,0,0,.14.36c0,.1,0,.23,0,.41a2.9,2.9,0,0,0,0,.59c0,.11,0,.21,0,.33v0h0l.05.17h0l0,.06,0,.11a2.25,2.25,0,0,0,.08.24,4.6,4.6,0,0,0,.18.49l.18.37a6,6,0,0,0,.65,1l.3.36,0,.05,0,0h0l.09.09.11.11.25.22a3,3,0,0,0,.46.37l.2.15.1.07,0,0h0l.15.09h0l.1,0a6.22,6.22,0,0,0,.84.25,2.49,2.49,0,0,0,.54.07,4.46,4.46,0,0,0,1.42-.07l.51-.17.2-.11.05,0,.17-.09,0,0,.17-.14.3-.29a4.25,4.25,0,0,0,.4-.61,2.93,2.93,0,0,0,.22-.56l0-.18.05-.16,0-.14C287.35,251.78,287.36,251.6,287.37,251.44Zm-2.69.3Zm-2.41-3.81Zm2.89,2.64h0a2.68,2.68,0,0,0,0,.34,2.09,2.09,0,0,1,0,.24c0,.07,0,.08-.06.12l0,.08s0,0,0,0h0v0l0,0-.08.16c-.07.16-.09.09-.12.13l-.09,0a0,0,0,0,1,0,0h0l.14-.08h0l-.05,0-.22.07a.14.14,0,0,1,.06-.07,3.1,3.1,0,0,0-.47-.09l-.24,0c-.07,0-.19,0-.18,0a.13.13,0,0,0-.1,0h0l-.21-.14a1.5,1.5,0,0,1-.3-.23L283,251l-.06,0h0l.08.08h0l0,0-.05,0c-.11-.11-.22-.22-.34-.32s-.27-.3-.37-.44-.17-.23-.24-.33-.09-.15-.14-.22l-.06-.09,0,0v0h0c.06.2.05.18.05.15h0v0c0-.11-.08-.21-.11-.31a3.9,3.9,0,0,1-.14-.42,1.62,1.62,0,0,0-.09-.29l-.07-.19s0,0,0,0a.75.75,0,0,1,.07-.18l.08-.08,0,0,0,0v0h0c-.19.34-.05.09-.1.17h0l.21-.24c.19-.28.21,0,.2-.06h0l-.1.05h.05l.09,0s.15-.07.16,0-.05,0,0,.06l.15,0h-.1l.1,0c.06,0,.18,0,.17.05s.18.1.42.24c0,0,.56.28.56.34s.36.24.59.41l.18.13.09.06.1,0h0l-.07-.12h0v0l.05.08.1.15.2.28.19.25,0,.06h0c0-.12.11.28-.1-.27v0l0,0,.05.13c.06.16.15.32.17.41S285.16,250.57,285.16,250.57ZM213.65,264a2,2,0,0,1-1,.28,2,2,0,0,1-1.73-1,13.54,13.54,0,0,1-1.51-3.82,4.16,4.16,0,0,1-.06-1v-.18a2.93,2.93,0,0,0-.12-.28c-.49-1.12-1.15-2.66-.4-4a2,2,0,0,1,3.69,1.45,9.33,9.33,0,0,0,.38,1,6.27,6.27,0,0,1,.28.71,4.29,4.29,0,0,1,.17,1.42,1.72,1.72,0,0,0,0,.2,9.67,9.67,0,0,0,1,2.54A2,2,0,0,1,213.65,264Zm5.4,3.86h0a2,2,0,0,1-2-2,3.84,3.84,0,0,0-.23-1,7.61,7.61,0,0,1-.44-2.27,2,2,0,0,1,2-2,2,2,0,0,1,2,2,4.32,4.32,0,0,0,.26,1.12,7.14,7.14,0,0,1,.41,2.27A2,2,0,0,1,219.05,267.84Zm15.1,7.77.73.43a1.53,1.53,0,0,1,.37.33c0,.06.13.12.2.18a1.65,1.65,0,0,1,.24.22,1.9,1.9,0,0,1,.24.25l.25.19a4.29,4.29,0,0,1,.45.49c.26.17.5.35.71.5s.38.27.5.36a.89.89,0,0,1,.29.36,1.39,1.39,0,0,1-.53,2.31,3.69,3.69,0,0,1-.94.15l-.6-.1c-.25,0-.55-.08-.86-.15a11.29,11.29,0,0,1-1.18-.56l-.58-.34c-.16-.12-.31-.26-.46-.39l-.42-.39a2.6,2.6,0,0,1-.36-.38,8,8,0,0,1-.65-1,1.87,1.87,0,0,1,2.6-2.49Zm20.89-53a2,2,0,0,0,0,.36l0,.17a2.5,2.5,0,0,0,.07.26l.09.22a2.9,2.9,0,0,0,.31.64,1.89,1.89,0,0,0,.28.36h0a.11.11,0,0,0,0,.05s.07.21.21.56l.25.55.15.19.08.09.17.19.18.2.14.15.16.15.07.08.14.12.35.31.38.33,0,0h0l.18.13.05,0,.11.07.22.15.45.29.24.15.05,0h0l.24.11h0l.13,0,1.05.4.07,0,.14.05h.1l.21,0,.43.06c.14,0,.31,0,.42,0l.27,0,.28,0h.2l.1,0,.18,0a5,5,0,0,0,.79-.24,2.69,2.69,0,0,0,.93-.68l.08-.1v0h0s.3-.39.16-.21v0l0-.06.05-.12a3.28,3.28,0,0,0,.17-.5,3.42,3.42,0,0,0,.05-.84l-.06-.4,0-.19,0-.11-.07-.19,0-.1v0l0-.11h0l0-.08a3.55,3.55,0,0,0-.28-.49,4.75,4.75,0,0,0-.46-.56,1.94,1.94,0,0,0-.33-.33.19.19,0,0,0,0-.07s-.08-.17-.24-.47a4,4,0,0,0-.29-.47,3.16,3.16,0,0,1-.18-.27h0l-.08-.09h0l0,0-.09-.07-.18-.16-.39-.31-.33-.24s-.16-.11-.13-.1l-.2-.16-.4-.31-.38-.27-.2-.14h0l-.11-.06h0l0,0-.08,0-.15-.06-.64-.23-.47-.13a6.57,6.57,0,0,0-1.38-.19l-.48,0-.24,0-.19,0-.35.08c-.13,0-.26.11-.38.16a2.31,2.31,0,0,0-.42.23,4.15,4.15,0,0,0-.44.38,1.07,1.07,0,0,0-.15.21A2.28,2.28,0,0,0,255,222.58Zm2.42,0s0,0,0,0,.09,0,0,.11c0,0,.13-.13.13-.11a.22.22,0,0,1-.08.13c-.07,0,0,0,0,0h.18l.48,0c.14,0,.16.06.25.07a1.59,1.59,0,0,1,.29.06l.48.11.28.09.07,0h.06l.11.06.41.22c.11.07.22.15.33.21l.17.1a1.28,1.28,0,0,0,.24.12l.37.18.25.1.11.05.05,0h0l-.08-.07h0v0l.25.2c.16.13.3.24.38.32l.24.2h0l0,.06.06.13.2.32a4.1,4.1,0,0,1,.22.41c0,.07,0,.1,0,.15l0-.07h0v.12l0,.21h0c-.06,0-.1,0-.23,0h-.62a.84.84,0,0,1-.14,0l-.13,0h-.06l-1-.35-.07,0-.2-.11c-.16-.08-.32-.16-.47-.25l-.24-.12-.11-.06-.06,0h0l.14.09h0l0,0-.42-.26-.4-.26-.05,0h0l0,0h0l-.09-.06-.19-.12-.28-.19-.1-.06-.05,0,0,0h0s.13.18.07.09h0l-.4-.45c-.12-.16-.2-.25-.24-.3h0a2.46,2.46,0,0,0-.15-.43.6.6,0,0,1-.06-.31h0v-.29Z" style="fill: #1d1d1b"/>
  </g>
</svg>
