<svg xmlns="http://www.w3.org/2000/svg" viewBox="0 0 500 500">
  <title>spider</title>
  <g>
    <path d="M281.45,264.51a31.75,31.75,0,1,0-42.61,29.84,9.28,9.28,0,0,0-1.27,8.28A18.59,18.59,0,0,0,235.45,335a4.38,4.38,0,0,0-1.83,3.45c0,2.6,2.57,4.71,5.75,4.71s5.75-2.11,5.75-4.71a3,3,0,0,0,0-.43l.45,0c0,.14,0,.27,0,.41,0,2.6,2.57,4.71,5.75,4.71S257,341,257,338.41a4.26,4.26,0,0,0-1.57-3.22,18.58,18.58,0,0,0-.32-31.8,9.37,9.37,0,0,0,.73-3.63,9.25,9.25,0,0,0-.88-3.94A31.76,31.76,0,0,0,281.45,264.51Z" style="fill: #c6c5c6"/>
    <path d="M258.1,322a5.33,5.33,0,0,0-.52-1.44,5.1,5.1,0,0,0-.8-1.29,6.87,6.87,0,0,0-1.24-1.12,7,7,0,0,0-1.48-.73,6.56,6.56,0,0,0-1.62-.37,6.1,6.1,0,0,0-1.65.12,6.32,6.32,0,0,0-1.59.47,6.18,6.18,0,0,0-1.36.95,5.75,5.75,0,0,0-1.17,1.23,7.25,7.25,0,0,0-.75,1.53,5.66,5.66,0,0,0-.24,1.1c0-.22-.06-.43-.1-.64a4.79,4.79,0,0,0-.46-1.45,5.15,5.15,0,0,0-.75-1.32,6.51,6.51,0,0,0-1.25-1.11,6.09,6.09,0,0,0-1.51-.7,5.93,5.93,0,0,0-1.61-.34,6.07,6.07,0,0,0-1.65,0,6.37,6.37,0,0,0-1.58.52,6.14,6.14,0,0,0-1.37.93,5.49,5.49,0,0,0-1.12,1.26,9,9,0,0,0-1.16,3.17,6.17,6.17,0,0,0,.09,1.71,6.05,6.05,0,0,0,.61,1.58,5.84,5.84,0,0,0,2.15,2.48,5.64,5.64,0,0,0,1.45.73,5.76,5.76,0,0,0,1.59.27,5.46,5.46,0,0,0,1.61-.14,6.68,6.68,0,0,0,1.55-.5,7,7,0,0,0,1.3-1,6.18,6.18,0,0,0,1.12-1.27,7,7,0,0,0,.8-1.5,6.61,6.61,0,0,0,.24-1.07,5.59,5.59,0,0,0,.08.59,5.83,5.83,0,0,0,.48,1.63,6.6,6.6,0,0,0,1,1.38,6.1,6.1,0,0,0,1.21,1.08,5.37,5.37,0,0,0,1.46.68,5.9,5.9,0,0,0,1.58.39,6.36,6.36,0,0,0,1.62-.2,6.68,6.68,0,0,0,1.53-.55,7.29,7.29,0,0,0,1.37-.89,5.75,5.75,0,0,0,1.06-1.33,6.52,6.52,0,0,0,.77-1.51,7,7,0,0,0,.37-1.67A6.48,6.48,0,0,0,258.1,322Z" style="fill: #fff"/>
    <path d="M392.49,359.23c-.13-.39-.29-.78-.45-1.18s-.29-.69-.41-1.06a5.18,5.18,0,0,1-.12-.78,10.14,10.14,0,0,0-.3-1.61c-.12-.41-.28-.82-.44-1.24s-.26-.68-.36-1-.32-.91-.47-1.31-.27-.67-.36-1-.14-.66-.2-1-.17-.92-.3-1.38a8.24,8.24,0,0,1-.16-.92,11.91,11.91,0,0,0-.27-1.47c-.09-.34-.16-.7-.23-1s-.17-.88-.28-1.31a13.26,13.26,0,0,0-.49-1.4,6.53,6.53,0,0,1-.32-.89c-.1-.39-.21-.78-.32-1.18s-.22-.77-.32-1.16-.13-.67-.18-1-.15-.92-.26-1.37a8,8,0,0,0-.56-1.51,5.89,5.89,0,0,1-.3-.77c-.08-.35-.14-.71-.19-1.06s-.15-.89-.25-1.33a5.19,5.19,0,0,1-.06-.79,7.68,7.68,0,0,0-.17-1.64,7.18,7.18,0,0,0-.65-1.65,3,3,0,0,1-.28-.62,8.13,8.13,0,0,1-.14-1c0-.43-.1-.91-.2-1.41s-.22-.88-.35-1.32-.2-.68-.28-1-.08-.63-.12-1a13.28,13.28,0,0,0-.18-1.41c-.07-.37-.12-.75-.17-1.12s-.12-.85-.2-1.27a10.66,10.66,0,0,0-.39-1.42c-.1-.34-.2-.65-.25-.91s-.12-.76-.16-1.14-.11-.83-.18-1.24c-.11-.66-.21-1.31-.32-2l-.06-.43c-.09-.51-.22-1-.33-1.4a7.92,7.92,0,0,1-.23-.94,4.21,4.21,0,0,1,0-.76,7.64,7.64,0,0,0,0-1.66l0-.3c-.09-.7-.19-1.39-.27-2.07a7.73,7.73,0,0,0-.35-1.55,5.67,5.67,0,0,1-.19-.78c0-.36,0-.71-.05-1.07s0-.88-.06-1.32l-.1-1-.12-1.33a12.7,12.7,0,0,0-.22-1.41,7.69,7.69,0,0,1-.15-.95c0-.34,0-.69,0-1a12.17,12.17,0,0,0,0-1.35,5.54,5.54,0,0,1,0-.87,9.37,9.37,0,0,0,0-1.52,9.89,9.89,0,0,0-.24-1.49,5.79,5.79,0,0,1-.15-.86c0-.42-.07-.83-.11-1.24s-.08-.75-.11-1.13,0-.7,0-1,0-.89,0-1.33,0-.74,0-1.11,0-.85,0-1.27L378,278c0-.44-.05-.88-.07-1.31s0-.83,0-1.25,0-.75,0-1.13a13.45,13.45,0,0,0-.18-1.44,7.29,7.29,0,0,1-.12-.92c0-.35,0-.69,0-1s0-.9,0-1.35,0-.71,0-1.06,0-.88,0-1.31-.05-.87-.08-1.3-.06-.72-.07-1.07a10.32,10.32,0,0,0-.19-1.52,6.86,6.86,0,0,1-.12-.85c0-.38,0-.76,0-1.13s0-.83,0-1.24,0-.82,0-1.22,0-.78,0-1.16v-2.37c0-.45,0-.88-.05-1.31s0-.72,0-1.06,0-.91-.05-1.34-.05-.7-.05-1,0-.79.05-1.17,0-.81,0-1.2,0-.93,0-1.35,0-.7,0-1a2.13,2.13,0,0,0-.25-1,2.2,2.2,0,0,0-2.12-1.65h0a9.24,9.24,0,0,0-1.76.24,6.89,6.89,0,0,1-1.24.17c-.54,0-1.1-.06-1.68-.11l-1.35-.09c-.51,0-1-.08-1.58-.14l-1.45-.13a6.82,6.82,0,0,1-1.11-.24,8.74,8.74,0,0,0-3.77-.36,7.11,7.11,0,0,1-1.19,0l-.82-.09c-.73-.08-1.47-.15-2.21-.25-.56-.06-1.13-.16-1.69-.25l-1.32-.2-.55-.08c-.82-.11-1.64-.23-2.45-.36-1-.17-2-.34-3-.52l-1.06-.19c-.64-.12-1.28-.23-1.9-.37s-.95-.24-1.42-.37-1-.28-1.48-.39-.86-.25-1.32-.4-1-.33-1.55-.46l-1.21-.29c-.57-.13-1.14-.26-1.69-.41s-1.19-.23-1.71-.31a11.16,11.16,0,0,1-1.23-.21,10.33,10.33,0,0,1-1.2-.46,14.38,14.38,0,0,0-1.59-.6c-1-.28-1.92-.56-2.85-.85-.57-.17-1.13-.29-1.62-.39s-.9-.19-1.27-.31l-1.05-.34-1.77-.58c-.48-.17-1-.31-1.47-.45s-.92-.26-1.36-.43-1-.4-1.47-.61-.84-.37-1.26-.54-1.06-.46-1.59-.69l-1.12-.5a8.33,8.33,0,0,1-1.1-.61,13,13,0,0,0-1.5-.83,2.19,2.19,0,0,0-3.1,2.15l0,.05c-.28.51-.58,1-.89,1.54-.21.34-.42.69-.62,1s-.42.74-.63,1.12-.54,1-.84,1.49a10.14,10.14,0,0,1-.78,1.06,16.49,16.49,0,0,0-1,1.38c-.29.45-.54.91-.8,1.39s-.46.86-.71,1.23-.56.91-.82,1.39-.48.85-.73,1.22a7.13,7.13,0,0,1-.78.86,10.74,10.74,0,0,0-1.25,1.43l-.71,1c-.34.49-.67,1-1,1.46a13.08,13.08,0,0,0-.92,1.55,9.22,9.22,0,0,1-.62,1.07c-.29.39-.6.77-.92,1.14s-.67.81-1,1.23-.57.68-.9,1-.72.8-1.07,1.26-.64.89-.94,1.34-.51.78-.8,1.15-.62.74-.94,1.09-.72.79-1,1.2c-.49.62-1,1.21-1.46,1.8l-.45.54c-.33.4-.64.82-.94,1.23l-.05.06v-.21a9.09,9.09,0,0,0-.09-1.13c0-.17-.05-.33-.06-.49s0-.31,0-.46a6.49,6.49,0,0,0,0-1.17c-.05-.54-.1-1.09-.18-1.62a5.62,5.62,0,0,0-.36-1.27,1.82,1.82,0,0,1-.11-.3,1.93,1.93,0,0,1,0-.34,6,6,0,0,0-.13-1.3c-.09-.36-.21-.71-.33-1.06-.05-.17-.11-.33-.16-.5-.11-.36-.24-.71-.37-1.06-.06-.16-.12-.32-.17-.48a5.29,5.29,0,0,0-.62-1.18,2.63,2.63,0,0,1-.16-.26c-.06-.15-.1-.3-.15-.46a10.08,10.08,0,0,0-.38-1.07,5,5,0,0,1-.2-.49c-.14-.34-.27-.68-.44-1a7.6,7.6,0,0,0-.64-1c-.09-.13-.18-.24-.26-.38-.18-.31-.39-.61-.6-.91-.1-.14-.2-.29-.29-.44a2.93,2.93,0,0,1-.21-.39,6.35,6.35,0,0,0-.59-1l-.27-.43a8.81,8.81,0,0,0-.62-.93c-.34-.43-.68-.85-1-1.26a3.73,3.73,0,0,1-.28-.38,9.11,9.11,0,0,0-.72-.91,5.87,5.87,0,0,0-1.06-.82l-.25-.16a6.88,6.88,0,0,0-.9-.72c-.13-.1-.26-.18-.38-.29a2.5,2.5,0,0,1-.27-.29,6,6,0,0,0-.88-.87c-.13-.1-.26-.22-.39-.34a9.58,9.58,0,0,0-.85-.7l-.41-.32a9.54,9.54,0,0,0-.9-.67c-.3-.19-.63-.37-.95-.54-.16-.08-.32-.16-.47-.25-.32-.18-.65-.34-1-.5-.16-.07-.33-.14-.48-.22a4.91,4.91,0,0,0-1.24-.44l-.31-.08a2.53,2.53,0,0,1-.27-.18,5.3,5.3,0,0,0-1.14-.65l-.47-.22a10.28,10.28,0,0,0-1-.44,5.41,5.41,0,0,0-1.37-.24h-.25l-.48-.15c-.35-.11-.71-.22-1.08-.31s-1-.21-1.43-.3l-.15,0c-.53-.1-1.06-.2-1.58-.27a1.76,1.76,0,0,1-.3-.1,5.44,5.44,0,0,0-1.31-.32l-.5-.05c-.19,0-.39,0-.59-.06l0-.08a2.18,2.18,0,0,1-.14-.86,7,7,0,0,1,.09-1.21,10.18,10.18,0,0,0,.16-1.9A9.85,9.85,0,0,1,252,225a13.67,13.67,0,0,0,.1-1.81c0-.71,0-1.07,0-1.42s0-.85,0-1.69,0-1.29-.06-1.71,0-.71,0-1.41,0-1.24,0-1.65,0-.73,0-1.47,0-1.22,0-1.62,0-.75,0-1.5a9.46,9.46,0,0,0-.17-1.93,5.84,5.84,0,0,1-.1-1.19,7.25,7.25,0,0,1,.09-1.24,11.4,11.4,0,0,0,.14-1.87,10.39,10.39,0,0,1,.07-1.34,16,16,0,0,0,.09-1.78c0-.83,0-1.25,0-1.66s0-.73,0-1.46,0-1.08,0-1.44.05-.83.05-1.67a7.08,7.08,0,0,0-.31-2.17,2.54,2.54,0,0,1-.14-1,3.37,3.37,0,0,1,.13-1,7.32,7.32,0,0,0,.28-2.12c0-.79,0-1.19,0-1.59s0-.76,0-1.53a10.49,10.49,0,0,0-.16-1.93,5.84,5.84,0,0,1-.1-1.19v-3.12a9.54,9.54,0,0,1,.08-1.3,13.92,13.92,0,0,0,.1-1.81c0-.85,0-1.28-.05-1.7s0-.71,0-1.42a7.29,7.29,0,0,1,.09-1.25,11.72,11.72,0,0,0,.14-1.87,6.76,6.76,0,0,0-.33-2.2,2.41,2.41,0,0,1-.14-.92c0-.8,0-1.19,0-1.59s0-.77,0-1.53a1.73,1.73,0,0,1,.15-.78,5.89,5.89,0,0,0,.44-2.34,6.47,6.47,0,0,0-.35-2.22,2.36,2.36,0,0,1-.14-.9,5.66,5.66,0,0,1,.1-1.18,9.58,9.58,0,0,0,.17-1.94c0-.87,0-1.34-.07-1.74a13.74,13.74,0,0,1-.06-1.38c0-.77,0-1.15,0-1.53s0-.8,0-1.59a5.88,5.88,0,0,1,.1-1.2,10.36,10.36,0,0,0,.16-1.92,10.62,10.62,0,0,0-.16-1.94,5.7,5.7,0,0,1-.1-1.19,7.83,7.83,0,0,1,.08-1.26,11.77,11.77,0,0,0,.13-1.86,11.55,11.55,0,0,0-.14-1.88,7.25,7.25,0,0,1-.09-1.24,13.36,13.36,0,0,1,.06-1.35,16.6,16.6,0,0,0,.08-1.77,10.47,10.47,0,0,0-.15-1.91,6,6,0,0,1-.1-1.21c0-.68,0-1,.06-1.37s.07-.88.07-1.75a5.49,5.49,0,0,1,.11-1.17,9.42,9.42,0,0,0,.18-1.95,10.45,10.45,0,0,0-.16-1.92,5.88,5.88,0,0,1-.1-1.2c0-.86,0-1.29-.06-1.71s0-.71,0-1.41a3.12,3.12,0,0,1,.13-1,7.62,7.62,0,0,0,.27-2.1,7.71,7.71,0,0,0-.27-2.11,3.06,3.06,0,0,1-.14-1,13.82,13.82,0,0,1,.06-1.39c0-.44.06-.87.06-1.73v-3.12c0-.71,0-1.06.05-1.42s.06-.85.06-1.7a11.76,11.76,0,0,0-.14-1.88,7.29,7.29,0,0,1-.09-1.25V95.31c0-.73,0-1.1,0-1.46s0-.83,0-1.66V89.06c0-.72,0-1.09,0-1.45s0-.83,0-1.67a9.85,9.85,0,0,1,.07-1.31,13.53,13.53,0,0,0,.11-1.82c0-.71,0-1.07,0-1.43s0-.84,0-1.69a11.7,11.7,0,0,0-.14-1.89,6.14,6.14,0,0,1-.1-1.23c0-.69,0-1,.06-1.39s.07-.87.07-1.74a11.88,11.88,0,0,0-.13-1.86,7.43,7.43,0,0,1-.09-1.26c0-.72,0-1.08,0-1.44s.05-.85.05-1.69,0-1.09,0-1.45.05-.84.05-1.69a2.2,2.2,0,0,0-4.4,0c0,.73,0,1.09,0,1.45s-.05.84-.05,1.69,0,1.07,0,1.43-.05.85-.05,1.7a11.77,11.77,0,0,0,.13,1.86,7.52,7.52,0,0,1,.09,1.26,13.82,13.82,0,0,1-.06,1.39c0,.41-.07.87-.07,1.74a10.29,10.29,0,0,0,.15,1.89,7.2,7.2,0,0,1,.09,1.23c0,.72,0,1.08,0,1.43s0,.85,0,1.69a9.76,9.76,0,0,1-.08,1.32,13.67,13.67,0,0,0-.1,1.81c0,.73,0,1.09,0,1.45s0,.84,0,1.67v3.13c0,.73,0,1.1,0,1.46s0,.83,0,1.66v3.12a10.67,10.67,0,0,0,.14,1.88,7.52,7.52,0,0,1,.08,1.25c0,.7,0,1.06,0,1.41s-.06.86-.06,1.71v3.12c0,.69,0,1,0,1.39s-.07.86-.07,1.73a7.77,7.77,0,0,0,.27,2.11,3.71,3.71,0,0,1,0,2,7.81,7.81,0,0,0-.26,2.11c0,.85,0,1.28,0,1.7s.05.71.05,1.42a10.32,10.32,0,0,0,.16,1.91,6,6,0,0,1,.1,1.21,5.39,5.39,0,0,1-.11,1.16,9.62,9.62,0,0,0-.18,2,11.28,11.28,0,0,1-.06,1.37c0,.41-.07.88-.07,1.75a11.48,11.48,0,0,0,.15,1.91,6,6,0,0,1,.1,1.21c0,.68,0,1-.06,1.36a16.22,16.22,0,0,0-.08,1.76,11.59,11.59,0,0,0,.14,1.89,7.11,7.11,0,0,1,.09,1.23,7.43,7.43,0,0,1-.09,1.26,12.2,12.2,0,0,0-.12,1.86,10.62,10.62,0,0,0,.16,1.94,5.7,5.7,0,0,1,.1,1.19,5.84,5.84,0,0,1-.1,1.19,10.49,10.49,0,0,0-.16,1.93c0,.76,0,1.14,0,1.52s0,.8,0,1.6,0,1.33.07,1.74a13.58,13.58,0,0,1,.06,1.38,5.8,5.8,0,0,1-.1,1.18,9.58,9.58,0,0,0-.17,1.94,6.47,6.47,0,0,0,.35,2.22,2.58,2.58,0,0,1,.14.9,1.73,1.73,0,0,1-.15.78,5.89,5.89,0,0,0-.44,2.34c0,.79,0,1.19,0,1.58s0,.77,0,1.54a7.11,7.11,0,0,0,.32,2.19,2.41,2.41,0,0,1,.15.93,7.38,7.38,0,0,1-.09,1.25,10.54,10.54,0,0,0-.14,1.87c0,.85,0,1.27.06,1.7s0,.71,0,1.42a9.91,9.91,0,0,1-.07,1.3,13.47,13.47,0,0,0-.11,1.81v3.12a10.49,10.49,0,0,0,.16,1.93,5.84,5.84,0,0,1,.1,1.19c0,.79,0,1.19,0,1.59s0,.76,0,1.53a3.37,3.37,0,0,1-.13,1,7.26,7.26,0,0,0-.28,2.12,7.08,7.08,0,0,0,.31,2.17,2.76,2.76,0,0,1,.14.95c0,.72,0,1.08,0,1.44s0,.84,0,1.67,0,1.25,0,1.67,0,.73,0,1.45a10.09,10.09,0,0,1-.07,1.33,16.22,16.22,0,0,0-.09,1.79,7.25,7.25,0,0,1-.09,1.24,11.51,11.51,0,0,0-.14,1.87,9.58,9.58,0,0,0,.17,1.94,5.73,5.73,0,0,1,.1,1.18c0,.82,0,1.22,0,1.63s0,.75,0,1.49,0,1.24,0,1.65,0,.74,0,1.47,0,1.29.06,1.71.05.71.05,1.41,0,1.07,0,1.43,0,.84,0,1.68a9.85,9.85,0,0,1-.07,1.31,13.79,13.79,0,0,0-.1,1.81,6.83,6.83,0,0,1-.1,1.21,10.42,10.42,0,0,0-.15,1.9,6.36,6.36,0,0,0,.08,1.06,5.77,5.77,0,0,0-.93,0c-.4,0-.81.1-1.21.16l-.4.06a6.31,6.31,0,0,0-1.16.29l-.42.12-.41,0a5.93,5.93,0,0,0-1.22.15,4.72,4.72,0,0,0-1.38.63l-.17.11-.3,0a5.3,5.3,0,0,0-1.24.26c-.35.12-.69.26-1,.41l-.46.2a3,3,0,0,1-.32.06,5.68,5.68,0,0,0-1.28.38,4.1,4.1,0,0,0-1.29,1l-.08.09-.21.05a5.66,5.66,0,0,0-1.25.5,6.14,6.14,0,0,0-1,.77l-.27.24c-.12.07-.25.12-.38.18a7.36,7.36,0,0,0-1,.59c-.3.22-.58.45-.86.7-.13.11-.26.23-.4.33a2.16,2.16,0,0,1-.3.18,5.32,5.32,0,0,0-1.08.71l-.09.08c-.38.32-.76.66-1.13,1a5.59,5.59,0,0,0-.83,1.08c-.05.08-.1.17-.15.24l-.16.17c-.32.33-.64.67-.93,1a2.23,2.23,0,0,1-.24.19,5.42,5.42,0,0,0-1,.93,8.24,8.24,0,0,0-.63,1,4.23,4.23,0,0,1-.24.4,3.68,3.68,0,0,1-.31.38,9.71,9.71,0,0,0-.7.91,4.43,4.43,0,0,0-.55,1.41c0,.07,0,.13-.05.2l-.24.38c-.2.31-.39.62-.56,1-.08.15-.16.3-.25.45a10.11,10.11,0,0,0-.52,1,8.4,8.4,0,0,0-.38,1.08c0,.13-.07.25-.12.37l-.1.14a4.19,4.19,0,0,0-.82,1.35,3.45,3.45,0,0,0-.11.4c-.14-.38-.27-.76-.44-1.14a9,9,0,0,0-1-1.72,5.53,5.53,0,0,1-.6-.95,5,5,0,0,1-.25-1.06,9.89,9.89,0,0,0-.51-2,14.13,14.13,0,0,0-.83-1.61,9.8,9.8,0,0,1-.59-1.16c-.18-.45-.33-.91-.48-1.37s-.35-1-.54-1.55-.34-.94-.5-1.42-.34-1-.53-1.51-.37-1-.55-1.53-.32-.92-.49-1.38a9.42,9.42,0,0,0-.92-1.77,6.52,6.52,0,0,1-.55-1,7.08,7.08,0,0,1-.25-1.18,12.28,12.28,0,0,0-.43-1.86,9.74,9.74,0,0,0-.91-1.8,6.42,6.42,0,0,1-.52-1,4.9,4.9,0,0,1-.1-1,7.83,7.83,0,0,0-.29-2.12l-.3-.92c-.22-.68-.43-1.34-.63-2a15.09,15.09,0,0,0-.62-1.63,12.33,12.33,0,0,1-.46-1.24c-.15-.55-.34-1.07-.53-1.59s-.34-.92-.44-1.32c0,0,0-.08,0-.12a2.19,2.19,0,0,0-3.32-2.25,6.31,6.31,0,0,0-.78.58c-.12.09-.22.18-.35.26a3.94,3.94,0,0,0-1.11,1.08l-.08,0a5.07,5.07,0,0,0-1,.43l-.18,0a4.62,4.62,0,0,0-1.24.48l-.66.38-.55.31c-.25.15-.49.32-.73.48a4,4,0,0,1-.43.29,8.37,8.37,0,0,0-.79.53,3.09,3.09,0,0,1-.37.26l-.71.44c-.15.1-.31.21-.47.3s-.48.28-.71.43-.32.21-.49.3l-.57.3-.67.34a6.58,6.58,0,0,0-.83.56l-.25.17-.13,0a4.48,4.48,0,0,0-1.33.42,8.48,8.48,0,0,0-.81.51,2.12,2.12,0,0,1-.37.24c-.13.07-.28.12-.42.18a7.4,7.4,0,0,0-.87.38,5.71,5.71,0,0,0-.93.63,2.68,2.68,0,0,1-.23.17,5.4,5.4,0,0,0-.92.62l-.25.18-1.14.59-.14,0a4.43,4.43,0,0,0-1.36.38,4.83,4.83,0,0,0-1,.67l-.19.15-.64.31-.57.27-.24.06a4.89,4.89,0,0,0-1.17.38c-.12.06-.25.09-.38.14a6.14,6.14,0,0,0-.95.36,4.24,4.24,0,0,0-1.14.86l-.1.09-.68.32-.47.22-.55.23-.63.25-.14,0a4.17,4.17,0,0,0-1.37.33l-.63.28c-.21.11-.42.21-.64.3l-.69.32a6.11,6.11,0,0,1-.58.27,4,4,0,0,0-1.19.84,4.62,4.62,0,0,0-1.36.28,4,4,0,0,0-1.24.86H161a4.32,4.32,0,0,0-1.27.28,5.82,5.82,0,0,0-.95.51c-.1,0-.19.12-.26.16l-.29,0a5.72,5.72,0,0,0-1.1.28,1.73,1.73,0,0,1-.31.07,6.49,6.49,0,0,0-1.06.28,3.63,3.63,0,0,0-1.36,1l-.18,0a7.76,7.76,0,0,0-1,.27,2,2,0,0,1-.35.08,7,7,0,0,0-1,.28l-.61.21-.72.26-.71.28c-.2.08-.4.17-.6.24a5.3,5.3,0,0,0-1,.51,2.49,2.49,0,0,1-.28.15l-1.05.4a2,2,0,0,0-.63.28l-.14.09-.13.1a2.2,2.2,0,0,0-.79,1.54l-.12.43c-.11.42-.23.86-.37,1.33-.2.69-.42,1.44-.66,2.24-.11.38-.2.77-.3,1.17s-.17.73-.28,1.1l-.28.94c-.12.42-.25.86-.39,1.3a4.75,4.75,0,0,1-.32.67,9.53,9.53,0,0,0-.66,1.48c-.13.4-.23.82-.33,1.24s-.16.68-.27,1-.23.82-.33,1.25-.16.67-.27,1-.25.73-.38,1.1-.26.73-.39,1.11l-.32,1c-.13.41-.27.82-.41,1.24a6.19,6.19,0,0,1-.36.77,12,12,0,0,0-.62,1.37l-.31.92c-.15.43-.29.87-.45,1.3l-.32.93c-.14.43-.29.85-.44,1.28l-.79,2.21a8.46,8.46,0,0,0-.37,1.51,4.81,4.81,0,0,1-.17.79c-.12.34-.27.68-.41,1s-.32.76-.46,1.14-.28.73-.43,1.09-.3.73-.44,1.1-.26.62-.41.93-.38.8-.54,1.21-.31.81-.47,1.21l-.64,1.62c-.2.51-.4,1-.61,1.54s-.27.76-.4,1.16-.23.72-.38,1.08a9.09,9.09,0,0,1-.45.85,13.44,13.44,0,0,0-.66,1.27c-.13.29-.25.59-.38.9s-.37.86-.57,1.29-.32.74-.47,1.13-.29.72-.46,1.08-.32.61-.49.91-.46.79-.65,1.2-.34.74-.5,1.12-.32.72-.49,1.07a8.87,8.87,0,0,0-.53,1.44,7.84,7.84,0,0,1-.3.84c-.19.39-.39.77-.59,1.16l-.5,1c-.15.3-.34.58-.52.87a12.91,12.91,0,0,0-.72,1.21c-.16.33-.35.65-.54,1s-.44.75-.64,1.14-.39.83-.57,1.26a10,10,0,0,1-.42.94c-.17.33-.36.64-.55.95s-.46.75-.67,1.14l-1,1.88-.14.25c-.22.41-.4.85-.59,1.28s-.26.62-.41.91-.41.74-.62,1.1-.39.67-.57,1-.43.75-.64,1.12l-.56,1a9.74,9.74,0,0,1-.56.86c-.24.34-.51.73-.76,1.16l-.58,1.07c-.19.36-.38.71-.57,1a9.27,9.27,0,0,0-.65,1.44,6,6,0,0,1-.34.77q-.63,1.08-1.23,2.07a4.54,4.54,0,0,1-.55.67,8.26,8.26,0,0,0-1,1.2A9.7,9.7,0,0,0,107,328a3.4,3.4,0,0,1-.28.64,2.21,2.21,0,0,0,.65,3.05,2.21,2.21,0,0,0,3-.65,7.48,7.48,0,0,0,.69-1.44,6.42,6.42,0,0,1,.36-.81,5.63,5.63,0,0,1,.47-.55,8.4,8.4,0,0,0,1.08-1.38l1.24-2.1a9.57,9.57,0,0,0,.65-1.41,7,7,0,0,1,.36-.84c.22-.37.42-.76.63-1.15l.54-1c.16-.28.35-.54.53-.8a13.59,13.59,0,0,0,.81-1.25l.52-.91c.23-.39.46-.8.68-1.2s.35-.63.53-.94.45-.78.67-1.19a13.42,13.42,0,0,0,.61-1.3,9.34,9.34,0,0,1,.41-.91l.13-.25,1-1.9c.16-.31.35-.61.53-.91s.48-.79.7-1.2.4-.86.59-1.3a9.52,9.52,0,0,1,.41-.92c.16-.32.34-.62.52-.93s.46-.79.67-1.2.33-.57.51-.85a13.79,13.79,0,0,0,.74-1.25l.48-1c.21-.4.42-.81.62-1.22a10,10,0,0,0,.56-1.49,6.61,6.61,0,0,1,.29-.81c.2-.41.38-.83.56-1.25s.29-.65.44-1,.32-.61.49-.9.47-.83.67-1.25.38-.87.55-1.3.26-.64.4-.95l.61-1.39.36-.85a9,9,0,0,1,.46-.87,12.27,12.27,0,0,0,.67-1.31c.2-.48.36-1,.51-1.44.1-.3.2-.6.31-.88.21-.53.41-1.05.62-1.57l.62-1.58.5-1.26a9.52,9.52,0,0,1,.41-.92c.19-.42.39-.83.55-1.25s.26-.67.39-1,.33-.81.48-1.21.26-.66.4-1,.33-.81.48-1.21a8.45,8.45,0,0,0,.38-1.57A5.24,5.24,0,0,1,140,270l.8-2.23c.16-.44.31-.89.46-1.33l.32-.9c.15-.45.31-.9.46-1.34l.3-.9a6.66,6.66,0,0,1,.37-.79,9.81,9.81,0,0,0,.62-1.37c.15-.44.29-.87.43-1.3l.31-.95c.11-.35.24-.69.36-1s.28-.8.41-1.2.26-.91.37-1.36a8.24,8.24,0,0,1,.24-.92c.14-.46.26-.91.36-1.36s.15-.63.25-.93a4.75,4.75,0,0,1,.35-.75,8.61,8.61,0,0,0,.63-1.42c.14-.47.28-.92.41-1.37l.27-.9c.14-.46.25-.92.36-1.37s.14-.63.23-.92c.24-.82.47-1.57.67-2.27.12-.42.23-.81.33-1.19l.22-.09a6.62,6.62,0,0,0,1-.5,1.16,1.16,0,0,1,.26-.15l.74-.3.57-.23.6-.21.74-.26a2.11,2.11,0,0,1,.36-.09,7,7,0,0,0,1-.27c.13-.05.27-.07.4-.11a8.36,8.36,0,0,0,1-.27,3.55,3.55,0,0,0,1.35-1l.12,0a6.15,6.15,0,0,0,1-.28,2.47,2.47,0,0,1,.29-.06,6.05,6.05,0,0,0,1.12-.28,6.22,6.22,0,0,0,1-.52l.23-.14.18,0a4.49,4.49,0,0,0,1.29-.3A3.78,3.78,0,0,0,164,236a4.05,4.05,0,0,0,1.4-.29,4,4,0,0,0,1.26-.89l.07-.07.61-.29.53-.25.75-.34.44-.21.14,0a4.06,4.06,0,0,0,1.4-.33l.52-.22c.27-.1.54-.21.81-.34l.45-.21.84-.39a4.15,4.15,0,0,0,1.17-.88.3.3,0,0,0,.08-.08l.29-.09a8,8,0,0,0,.9-.34,1,1,0,0,1,.25-.06,5.75,5.75,0,0,0,1.17-.38l.57-.28.7-.34a4.75,4.75,0,0,0,1-.68.63.63,0,0,0,.12-.1h.1a4.5,4.5,0,0,0,1.36-.39l1.26-.65a5.59,5.59,0,0,0,.95-.62,1.62,1.62,0,0,1,.23-.18,5.78,5.78,0,0,0,1-.65l.21-.17c.14-.07.29-.12.44-.18a6.7,6.7,0,0,0,1.72-.91L187,225l.14,0a4.4,4.4,0,0,0,1.33-.42,7.26,7.26,0,0,0,.87-.58c.11-.07.21-.16.32-.22l.55-.29.71-.36c.26-.14.5-.3.74-.46l.47-.28c.26-.15.51-.31.76-.47l.45-.29a7.45,7.45,0,0,0,.83-.55,2.8,2.8,0,0,1,.35-.25,8,8,0,0,0,.78-.51c.13-.09.27-.19.41-.27l.51-.29.66-.38.18-.05a4.2,4.2,0,0,0,1.21-.46,1.84,1.84,0,0,1,.25-.09,6.42,6.42,0,0,0,.83-.33c.07.22.16.44.22.66a14.69,14.69,0,0,0,.64,1.74,11.15,11.15,0,0,1,.46,1.23c.21.69.44,1.38.66,2.08l.3.91a5.35,5.35,0,0,1,.09.95,7.63,7.63,0,0,0,.32,2.23,9.29,9.29,0,0,0,.92,1.84,6.43,6.43,0,0,1,.52,1,7.91,7.91,0,0,1,.25,1.14,10.59,10.59,0,0,0,.46,1.94,9.37,9.37,0,0,0,.94,1.82,6.24,6.24,0,0,1,.54,1c.16.43.31.86.46,1.29s.38,1.11.59,1.67.31.87.46,1.31.37,1.11.58,1.65.31.86.45,1.3.37,1.11.58,1.66a14.54,14.54,0,0,0,.86,1.68,12.1,12.1,0,0,1,.58,1.11,7.45,7.45,0,0,1,.25,1.07,8.89,8.89,0,0,0,.53,2,9.11,9.11,0,0,0,1.07,1.79,5.38,5.38,0,0,1,.57.91c.18.41.33.83.47,1.24s.37,1.05.61,1.58a13.41,13.41,0,0,0,.88,1.62,10.15,10.15,0,0,1,.57,1,4.55,4.55,0,0,1,.23.95c0,.24.09.49.15.74s0,.63-.05.95l0,.48c0,.17,0,.34-.05.51,0,.37-.07.74-.07,1.11a4.43,4.43,0,0,0,.34,1.57,1,1,0,0,1,.06.16c0,.5.06,1,.11,1.5l0,.53c0,.36.05.72.1,1.08s.13.75.21,1.12l.09.46c0,.1,0,.2,0,.31a5.71,5.71,0,0,0,.12,1.33.86.86,0,0,0-.13-.14,13.57,13.57,0,0,1-.92-1,5.69,5.69,0,0,1-.52-.9,10.38,10.38,0,0,0-1-1.61l-1.75-2.31c-.29-.39-.61-.77-.92-1.15s-.6-.7-.87-1.07-.55-.8-.81-1.21-.51-.78-.78-1.16a12.23,12.23,0,0,0-1.14-1.33,8.41,8.41,0,0,1-.74-.85c-.25-.38-.52-.75-.79-1.12s-.58-.81-.86-1.22-.49-.79-.72-1.2-.49-.85-.75-1.26-.51-.84-.76-1.27-.46-.8-.7-1.19l-.8-1.2c-.26-.39-.53-.78-.78-1.19a8.65,8.65,0,0,1-.51-1.09c-.2-.46-.43-1-.72-1.5s-.53-.85-.81-1.27-.5-.75-.72-1.14-.43-.84-.62-1.26-.41-.88-.64-1.3c-.46-.85-.89-1.69-1.31-2.52a12.76,12.76,0,0,0-1-1.51c-.11-.15-.22-.3-.31-.44a2.19,2.19,0,0,0-3.89-1.26,3.83,3.83,0,0,0-.7,1.42l0,.05-.43.5-.32.37a2.11,2.11,0,0,1-.23.19,6.42,6.42,0,0,0-.82.74l-.39.45-.52.59c-.2.22-.38.47-.56.71a2.63,2.63,0,0,1-.29.37l-.48.55c-.14.16-.28.33-.43.49s-.22.19-.33.29a8.29,8.29,0,0,0-.7.63,7.48,7.48,0,0,0-.62.75c-.06.08-.11.16-.18.24l-.09,0a4.29,4.29,0,0,0-1.18.8c-.21.21-.4.44-.59.67s-.2.25-.32.37a5.66,5.66,0,0,0-.65.77l-.17.23-.19.11a4.79,4.79,0,0,0-1.05.73,4.64,4.64,0,0,0-.78,1,.64.64,0,0,1-.08.14l-.21.14a5.73,5.73,0,0,0-.87.65c-.11.1-.23.18-.35.27a8.34,8.34,0,0,0-.75.58c-.21.2-.4.4-.6.61s-.24.26-.37.38a7.17,7.17,0,0,0-.66.69c-.1.11-.19.22-.31.33a2.4,2.4,0,0,1-.31.21,9,9,0,0,0-.82.61c-.19.17-.39.36-.58.55s-.27.27-.42.4a1.81,1.81,0,0,1-.29.19,6.42,6.42,0,0,0-.86.61c-.13.11-.27.21-.41.31s-.47.35-.7.54-.44.42-.66.65a3.22,3.22,0,0,1-.32.32,4.29,4.29,0,0,0-.91,1.15l0,.06-.15.08a5.07,5.07,0,0,0-.89.57l-.2.09a4.85,4.85,0,0,0-1.06.63l-.62.48-.44.35c-.22.17-.42.35-.63.54a4.13,4.13,0,0,1-.39.34,7.63,7.63,0,0,0-.67.59c-.12.11-.23.22-.35.31s-.41.33-.61.5l-.44.35-.61.49-.45.36-.55.37-.57.39a8.67,8.67,0,0,0-.74.62l-.25.22-.16.05a4.58,4.58,0,0,0-1.17.55c-.26.18-.49.38-.73.58l-.34.28a4.36,4.36,0,0,1-.42.23,8.19,8.19,0,0,0-.77.45,5.82,5.82,0,0,0-.83.68,1.37,1.37,0,0,1-.22.2,5.69,5.69,0,0,0-.82.67l-.24.21-.47.3-.6.39-.16,0a4.56,4.56,0,0,0-1.21.49,6.26,6.26,0,0,0-.89.71l-.17.16-.72.43-.43.25a2,2,0,0,1-.26.09,5.58,5.58,0,0,0-1,.43,3.62,3.62,0,0,1-.4.19,6,6,0,0,0-.81.37,4.26,4.26,0,0,0-.83.63,2.21,2.21,0,0,0-1.53,1.83c-.05.44-.05.86-.06,1.27a9,9,0,0,1-.05,1.07c-.05.4-.07.82-.09,1.26s0,.71-.07,1.08c0,.1-.13.37-.2.57a7,7,0,0,0-.5,1.69q-.07.6-.12,1.23c0,.36-.06.73-.11,1.1s-.1.8-.14,1.22-.06.74-.12,1.11-.1.82-.14,1.24-.06.73-.12,1.09a6.11,6.11,0,0,1-.21.81,8.75,8.75,0,0,0-.37,1.47,7.56,7.56,0,0,0-.05,1.62,4.82,4.82,0,0,1,0,.75,5.35,5.35,0,0,1-.23.66,8.12,8.12,0,0,0-.49,1.59c-.08.48-.11.95-.14,1.37a8.14,8.14,0,0,1-.09,1c-.06.37-.14.74-.22,1.11s-.16.79-.23,1.19-.15.76-.23,1.14-.15.77-.22,1.16a9.46,9.46,0,0,0-.12,1.52,4.91,4.91,0,0,1-.05.83c-.06.34-.15.67-.24,1s-.22.86-.3,1.29a7.52,7.52,0,0,1-.26.83,9.91,9.91,0,0,0-.41,1.43c-.08.4-.14.8-.21,1.2s-.11.74-.19,1.11-.16.79-.25,1.19l-.24,1.1c-.08.4-.17.8-.26,1.2s-.17.73-.24,1.1a12.2,12.2,0,0,0-.2,1.35c0,.33-.07.66-.14,1s-.18.67-.27,1-.25.85-.35,1.28-.18.73-.27,1.1-.21.78-.3,1.18c-.13.58-.28,1.17-.43,1.78l-.25,1c-.15.57-.29,1.15-.45,1.74-.11.41-.19.84-.27,1.28a9.29,9.29,0,0,1-.22,1,6.86,6.86,0,0,1-.34.89c-.16.39-.34.83-.49,1.32a9,9,0,0,0-.29,1.46,6.87,6.87,0,0,1-.16.87,8.54,8.54,0,0,1-.37.9c-.16.38-.35.82-.51,1.29s-.27.83-.42,1.24-.23.67-.34,1a9.33,9.33,0,0,0-.33,1.52,5.41,5.41,0,0,1-.16.82,5.64,5.64,0,0,1-.37.75,8.33,8.33,0,0,0-.65,1.4l-.45,1.22-.36,1c-.14.37-.28.74-.43,1.1s-.29.74-.42,1.12a10.08,10.08,0,0,0-.4,1.4,8.71,8.71,0,0,1-.23.89l-.35.94-.48,1.29c-.15.42-.28.85-.41,1.28s-.2.66-.32,1-.28.62-.43.93-.4.82-.57,1.24-.29.79-.42,1.18-.25.71-.38,1.05-.3.67-.45,1-.37.78-.53,1.17-.31.89-.45,1.33a8.26,8.26,0,0,1-.3.92l-.36.88L120,368c-.14.34-.31.67-.48,1s-.38.77-.55,1.15-.33.84-.48,1.26a10,10,0,0,1-.36,1,5.23,5.23,0,0,1-.46.78,9.27,9.27,0,0,0-.73,1.27c-.18.4-.34.79-.49,1.17s-.28.68-.42,1a2.2,2.2,0,0,0,4,1.87c.18-.38.34-.79.51-1.21s.27-.67.43-1a6.43,6.43,0,0,1,.4-.67,9.71,9.71,0,0,0,.81-1.43c.18-.4.33-.82.48-1.25s.24-.67.38-1,.27-.58.43-.88.42-.85.61-1.29.37-.9.56-1.36l.35-.86a14.08,14.08,0,0,0,.45-1.34c.09-.31.19-.63.31-.94s.27-.62.42-.93.39-.83.57-1.26.3-.83.45-1.24.23-.68.36-1,.27-.59.41-.88.41-.83.6-1.31.29-.87.43-1.31.19-.65.31-1,.33-.89.49-1.34l.34-.92a11.27,11.27,0,0,0,.4-1.43c.08-.33.15-.64.24-.89s.25-.67.39-1,.32-.83.47-1.24.23-.65.35-1,.32-.86.47-1.29a5.1,5.1,0,0,1,.37-.75,9.59,9.59,0,0,0,.67-1.43,9,9,0,0,0,.34-1.58,4.94,4.94,0,0,1,.16-.79c.1-.32.21-.63.32-1s.31-.88.45-1.32a8.71,8.71,0,0,1,.36-.89,13.66,13.66,0,0,0,.52-1.35,8.49,8.49,0,0,0,.32-1.56,8.27,8.27,0,0,1,.15-.82,9.4,9.4,0,0,1,.34-.88,13.49,13.49,0,0,0,.51-1.38,13.78,13.78,0,0,0,.32-1.45,9.18,9.18,0,0,1,.19-.91c.16-.62.32-1.23.47-1.83l.24-1c.17-.64.33-1.27.46-1.89.08-.35.18-.69.27-1s.21-.84.31-1.26.17-.66.27-1,.25-.87.35-1.31.16-1,.21-1.41.07-.63.13-.94.15-.7.23-1,.19-.85.28-1.28.15-.7.23-1l.27-1.27c.08-.43.15-.87.22-1.3s.11-.69.17-1a7,7,0,0,1,.26-.84,10.4,10.4,0,0,0,.42-1.44c.06-.34.15-.67.24-1s.22-.87.31-1.3a10.26,10.26,0,0,0,.12-1.58,4.54,4.54,0,0,1,.05-.8c.06-.36.13-.71.21-1.07s.17-.84.24-1.25.14-.72.21-1.07.17-.84.25-1.25a13.65,13.65,0,0,0,.14-1.44c0-.31,0-.62.09-.92a4.55,4.55,0,0,1,.24-.71,7.22,7.22,0,0,0,.48-1.56,8.26,8.26,0,0,0,0-1.69,4.2,4.2,0,0,1,0-.7,7,7,0,0,1,.23-.86,9.45,9.45,0,0,0,.36-1.44c.07-.46.11-.91.15-1.36s.06-.67.11-1,.11-.91.16-1.36.06-.67.1-1c.07-.47.11-.93.14-1.38s.06-.66.1-1a3.93,3.93,0,0,1,.23-.69,7.26,7.26,0,0,0,.47-1.6c.06-.51.09-1,.11-1.48a8.29,8.29,0,0,1,.06-.88,13.08,13.08,0,0,0,.08-1.32l.11-.11.11-.12.28-.11a8,8,0,0,0,.9-.43l.24-.08a5.8,5.8,0,0,0,1.1-.47l.42-.25.79-.46a5.29,5.29,0,0,0,.89-.71l.16-.15.12,0a4.73,4.73,0,0,0,1.26-.52l.72-.46.45-.29a5.84,5.84,0,0,0,.83-.67,2.46,2.46,0,0,1,.25-.22,5.43,5.43,0,0,0,.84-.69,2.41,2.41,0,0,1,.24-.21,3.3,3.3,0,0,1,.41-.23c.27-.15.54-.3.8-.47a7.21,7.21,0,0,0,.75-.59c.1-.08.19-.17.29-.24l.16-.06a4.56,4.56,0,0,0,1.2-.56,7.68,7.68,0,0,0,.77-.64,2.73,2.73,0,0,1,.31-.27l.48-.33.67-.46c.23-.16.45-.34.67-.52l.43-.34c.23-.17.45-.36.67-.54a4.46,4.46,0,0,1,.42-.34q.38-.3.72-.63a3.18,3.18,0,0,1,.33-.3c.24-.18.46-.38.69-.59s.24-.22.37-.32l.41-.33.63-.49.21-.1a4.76,4.76,0,0,0,1.07-.64,2.2,2.2,0,0,1,.26-.15,5.19,5.19,0,0,0,1-.63,4.38,4.38,0,0,0,.92-1.16l.06-.1a7.93,7.93,0,0,0,.58-.58,3,3,0,0,1,.31-.31,4.23,4.23,0,0,1,.42-.32c.24-.18.48-.36.7-.55a3.28,3.28,0,0,1,.31-.2,5.84,5.84,0,0,0,.86-.61q.33-.29.63-.6l.39-.37a2.44,2.44,0,0,1,.33-.23,7.56,7.56,0,0,0,.82-.6,9.35,9.35,0,0,0,.69-.72,2.89,2.89,0,0,1,.29-.32c.22-.2.43-.42.64-.64s.23-.25.36-.36a3,3,0,0,1,.35-.27,6.54,6.54,0,0,0,.76-.61,2.68,2.68,0,0,1,.28-.18,5.87,5.87,0,0,0,.87-.66,4.34,4.34,0,0,0,.81-1.07l.06-.09.12-.07a5,5,0,0,0,1.05-.73,8.37,8.37,0,0,0,.69-.81,2.09,2.09,0,0,1,.23-.29c.22-.22.43-.47.63-.71l.23-.27.11-.06a4.17,4.17,0,0,0,1.19-.81,7.65,7.65,0,0,0,.65-.8,3.76,3.76,0,0,1,.25-.31c.1-.1.22-.19.33-.29a7.76,7.76,0,0,0,.73-.66c.2-.21.38-.43.57-.64s.25-.29.38-.43a9.38,9.38,0,0,0,.61-.77c.09-.12.17-.24.27-.35l.58-.66.35-.41.24-.2c.14-.1.29-.23.45-.37l1.14,2.19c.19.35.36.71.53,1.07.24.52.49,1,.77,1.56s.58.95.89,1.42.46.69.67,1.06a8.73,8.73,0,0,1,.48,1,13.51,13.51,0,0,0,.8,1.63c.28.47.59.93.91,1.4s.47.69.69,1.05.42.7.63,1.06.56,1,.87,1.45.43.71.64,1.07.55,1,.86,1.44.63.91,1,1.37.49.67.72,1a11.88,11.88,0,0,0,1.2,1.41,9.39,9.39,0,0,1,.72.81c.24.34.46.69.69,1s.61.94.94,1.39.7.89,1.06,1.33.53.62.77.94c.61.82,1.2,1.61,1.79,2.37a7.57,7.57,0,0,1,.55.94,9.74,9.74,0,0,0,1,1.63c.41.51.85,1,1.23,1.34s.56.56.8.85l.79,1c.35.46.7.91,1.07,1.34a12,12,0,0,0,1.41,1.32,8.42,8.42,0,0,1,.79.71,10.11,10.11,0,0,1,.77,1,16.39,16.39,0,0,0,1.12,1.36c.45.47.9.87,1.34,1.26s.58.51.85.78.52.57.79.9a13.43,13.43,0,0,0,1.21,1.34l.11.09a7.89,7.89,0,0,0,.63.76,4.43,4.43,0,0,0,1.19.87l.16.08h0c.39.37.79.72,1.14,1a1.59,1.59,0,0,1,.15.21,4.45,4.45,0,0,0,1,1.12,7.43,7.43,0,0,0,1,.64,2.88,2.88,0,0,1,.38.22c.12.09.24.2.36.3l.44.37-1.27-.52c-.44-.19-.88-.36-1.32-.53s-1-.38-1.48-.61c-.92-.44-1.83-.89-2.71-1.34a15.06,15.06,0,0,1-1.35-.81c-.42-.26-.83-.53-1.25-.76-.9-.5-1.77-1-2.61-1.52l-1.17-.68c-.49-.27-1-.54-1.43-.84s-1-.73-1.53-1.1l-.9-.67c-.42-.29-.85-.56-1.29-.83s-.85-.52-1.2-.79-.88-.72-1.3-1.09-.64-.56-1-.83-.91-.78-1.35-1.18l-.88-.78c-.4-.35-.77-.72-1.13-1.09s-.67-.67-1-1-.83-.71-1.25-1-.75-.59-1-.87l-.79-.75-1.38-1.32-1.66-1.67L198,270c-.36-.36-.67-.73-1-1.09l-.75-.84a2.13,2.13,0,0,0-.8-1.21,2.2,2.2,0,0,0-3.08.44,12.69,12.69,0,0,1-.9,1c-.34.35-.68.72-1,1.1l-.73.93c-.34.43-.68.88-1.06,1.3l-.64.74c-.41.46-.82.94-1.27,1.41-.28.29-.62.59-1,.91s-.77.67-1.14,1-.71.78-1,1.16a10.06,10.06,0,0,1-.91,1l-.68.65c-.47.44-.94.9-1.44,1.35s-.77.68-1.18,1l-1,.88c-.7.63-1.44,1.27-2.2,1.93-.54.45-1.11.91-1.7,1.37l-.62.48c-.44.36-.92.69-1.39,1l-1,.73c-.75.57-1.53,1.12-2.3,1.67l-.13.09c-.43.31-.84.64-1.25,1s-.75.61-1.14.87a12.52,12.52,0,0,1-1.23.71c-.46.24-.93.49-1.4.79l-1.18.8c-.45.31-.88.61-1.31.88-.67.41-1.3.76-1.88,1.08l-.69.39a2.19,2.19,0,0,0-1.06,2.35c0,.24,0,.47,0,.73s0,.8,0,1.22a7.51,7.51,0,0,1-.13.9c-.07.44-.15.94-.19,1.5,0,.31-.07.63-.12,1s-.14.94-.17,1.44a6.67,6.67,0,0,0,.14,1.69,4.15,4.15,0,0,1,.09.74c-.06.77-.12,1.58-.18,2.41a6.16,6.16,0,0,1-.17.8,9.2,9.2,0,0,0-.3,1.59c0,.41-.05.83-.06,1.25s0,.77-.06,1.16a11.71,11.71,0,0,0,0,1.44,7.82,7.82,0,0,1,0,1,3.09,3.09,0,0,1-.12.55l-.22.08c-.5.21-1,.45-1.46.68s-.84.41-1.26.57-1,.4-1.42.6l-.4.17a2.19,2.19,0,0,0-2.3,1.81,6.15,6.15,0,0,1-.24.75,8,8,0,0,0-.47,1.56,8.88,8.88,0,0,0-.13,1.47,7.88,7.88,0,0,1-.08.93,9.23,9.23,0,0,1-.25,1c-.13.44-.25.89-.35,1.35s-.14.84-.19,1.27-.09.73-.17,1.09a7.85,7.85,0,0,1-.27.9,14,14,0,0,0-.42,1.4c-.09.4-.16.8-.23,1.22s-.12.75-.21,1.13a6.37,6.37,0,0,1-.29.82,11.6,11.6,0,0,0-.5,1.45,10.26,10.26,0,0,0-.21,1.51,4.77,4.77,0,0,1-.11.87,5.39,5.39,0,0,1-.3.77,9.85,9.85,0,0,0-.56,1.47c-.11.41-.2.82-.28,1.24s-.15.73-.25,1.1a10.06,10.06,0,0,0-.27,1.45,6.2,6.2,0,0,1-.16.92,5.71,5.71,0,0,1-.33.8,10.54,10.54,0,0,0-.57,1.44,8.4,8.4,0,0,0-.28,1.51c0,.33-.09.64-.15.87a4.76,4.76,0,0,1-.34.69,8.29,8.29,0,0,0-.67,1.51,10.63,10.63,0,0,0-.32,1.4,8.43,8.43,0,0,1-.22.95,7.82,7.82,0,0,1-.36.91c-.17.4-.36.84-.52,1.33s-.24.87-.34,1.32-.15.68-.26,1-.26.75-.4,1.13l-.39,1.14c-.11.33-.25.65-.38,1s-.35.84-.5,1.27-.26.74-.4,1.11l-.42,1.16a12.74,12.74,0,0,0-.36,1.37c-.08.32-.15.65-.26,1s-.24.73-.35,1.11-.22.73-.35,1.1-.25.71-.36,1.07-.25.75-.39,1.13a3.85,3.85,0,0,1-.35.55,6.81,6.81,0,0,0-.84,1.49l-.27.67c-.19.5-.38,1-.58,1.5a10.32,10.32,0,0,0-.42,1.36,8,8,0,0,1-.27.89l-.5,1.19c-.14.32-.28.64-.41,1l-.39.94c-.17.41-.33.82-.51,1.23s-.3.76-.45,1.15-.26.69-.4,1a9.34,9.34,0,0,1-.46.89c-.21.4-.42.8-.6,1.21s-.33.82-.47,1.23-.23.65-.37,1l-.49,1c-.18.36-.36.72-.53,1.09s-.33.7-.5,1.05-.35.71-.51,1.07a9.54,9.54,0,0,0-.49,1.37,9,9,0,0,1-.3.85c-.17.36-.34.71-.52,1.07l-.51,1a4.47,4.47,0,0,1-.45.71,10.29,10.29,0,0,0-.79,1.31,9.86,9.86,0,0,0-.52,1.4,5.44,5.44,0,0,1-.29.82,5.88,5.88,0,0,1-.47.76,9.53,9.53,0,0,0-.75,1.26l-1,2.1a9.9,9.9,0,0,0-.55,1.41,5.28,5.28,0,0,1-.3.79c-.19.38-.38.76-.58,1.12s-.34.64-.5,1-.38.81-.56,1.21a9.76,9.76,0,0,1-.42.93c-.18.35-.38.68-.57,1s-.41.68-.59,1-.47.86-.71,1.27l-.42.76c-.19.35-.41.67-.61,1s-.44.65-.63,1a2.21,2.21,0,0,0,.81,3,2.17,2.17,0,0,0,1.1.3,2.2,2.2,0,0,0,1.9-1.1c.14-.25.31-.49.47-.74a14.88,14.88,0,0,0,.81-1.29l.41-.73c.24-.44.5-.89.75-1.36.15-.28.32-.56.49-.84s.47-.81.7-1.23.38-.8.56-1.22.27-.64.43-.95l.46-.89c.22-.4.43-.8.64-1.21a11,11,0,0,0,.54-1.4,6.38,6.38,0,0,1,.31-.83c.35-.7.69-1.41,1-2.13.11-.2.28-.46.45-.72a9.86,9.86,0,0,0,.79-1.31,9.61,9.61,0,0,0,.52-1.42,5.78,5.78,0,0,1,.3-.82,4.56,4.56,0,0,1,.43-.69,8.75,8.75,0,0,0,.82-1.35l.46-1q.3-.58.57-1.17a11.09,11.09,0,0,0,.51-1.4,8,8,0,0,1,.29-.84c.15-.33.31-.65.46-1s.39-.79.56-1.18l.46-1c.2-.39.39-.79.57-1.19s.34-.85.49-1.28.22-.63.36-.93.29-.59.44-.88.44-.82.63-1.24.33-.83.48-1.24.25-.65.38-1,.36-.86.53-1.29l.77-1.83c.18-.42.36-.84.53-1.26a10.48,10.48,0,0,0,.45-1.43c.09-.32.16-.62.25-.84.21-.52.41-1,.61-1.55l.26-.66a3.59,3.59,0,0,1,.36-.59,6.81,6.81,0,0,0,.84-1.49c.17-.44.31-.88.46-1.32s.2-.63.32-.94.3-.91.43-1.36.18-.62.28-.91a13,13,0,0,0,.39-1.43,9.05,9.05,0,0,1,.25-.93c.12-.36.25-.72.38-1.07s.3-.82.44-1.22.25-.66.39-1,.35-.85.49-1.27.25-.72.37-1.07l.43-1.23c.16-.5.27-1,.37-1.41s.14-.64.24-.95a9.47,9.47,0,0,1,.37-.93,14.22,14.22,0,0,0,.52-1.33,11.36,11.36,0,0,0,.34-1.48,8.71,8.71,0,0,1,.2-.89,4.7,4.7,0,0,1,.35-.74,8.3,8.3,0,0,0,.67-1.49,10.25,10.25,0,0,0,.3-1.6,5.32,5.32,0,0,1,.14-.81,5,5,0,0,1,.35-.84,9.7,9.7,0,0,0,.56-1.43,10.58,10.58,0,0,0,.29-1.57c0-.32.09-.62.15-.84.13-.46.22-.94.32-1.4s.13-.65.22-1a6.46,6.46,0,0,1,.32-.82,9.1,9.1,0,0,0,.55-1.46,8.9,8.9,0,0,0,.24-1.64,4.81,4.81,0,0,1,.09-.79c.07-.25.19-.55.31-.87a10.51,10.51,0,0,0,.49-1.44q.16-.72.27-1.44c.06-.32.11-.65.18-1a6.86,6.86,0,0,1,.29-.94,13.24,13.24,0,0,0,.42-1.41c.1-.49.16-1,.22-1.46,0-.32.08-.64.15-.95s.16-.67.26-1,.25-.88.35-1.37a9.43,9.43,0,0,0,.14-1.59,6.32,6.32,0,0,1,.07-.85,4.29,4.29,0,0,1,.25-.78l.6-.26,1.26-.54c.28-.11.57-.23.85-.36,0,.1,0,.2,0,.3q-.1.65-.18,1.29t-.15,1.2l-.15,1.21c0,.41-.09.83-.15,1.25s-.09.76-.14,1.15-.1.73-.17,1.09-.15.86-.2,1.3-.07.91-.09,1.36a9.28,9.28,0,0,1-.07,1.06c-.05.41-.11.81-.17,1.22s-.11.78-.16,1.17-.09.83-.13,1.24-.08.78-.13,1.17-.11.78-.18,1.17-.13.82-.19,1.23-.09.89-.12,1.35,0,.71-.09,1.06-.13.68-.21,1-.21.9-.28,1.36-.14.69-.22,1-.2.89-.27,1.35-.19,1.13-.29,1.71l-.1.56c-.06.32-.11.64-.16,1s-.14.88-.23,1.32l-.15.79c-.09.5-.19,1-.29,1.5s-.14.71-.21,1.07-.16.82-.25,1.23-.16.94-.21,1.35-.08.69-.14,1c-.12.48-.23,1-.35,1.45l-.21.83a7.29,7.29,0,0,1-.29.75,8.45,8.45,0,0,0-.54,1.46c-.1.38-.21.75-.32,1.12s-.22.76-.32,1.15-.19.88-.26,1.33-.11.66-.2,1a12.19,12.19,0,0,0-.26,1.41,8.51,8.51,0,0,1-.17.92c-.09.32-.21.64-.33,1s-.31.84-.43,1.27-.21.86-.3,1.29-.14.68-.23,1a6.65,6.65,0,0,1-.33.72,8.41,8.41,0,0,0-.63,1.46,9.91,9.91,0,0,0-.28,1.52,7.93,7.93,0,0,1-.13.82,8.6,8.6,0,0,1-.35.85,10.87,10.87,0,0,0-.53,1.35c-.13.4-.23.8-.34,1.2s-.19.72-.3,1.07-.22.72-.32,1.08l-.36,1.18c-.14.42-.25.84-.35,1.27s-.17.68-.28,1-.25.68-.38,1-.32.8-.45,1.2-.27.77-.41,1.14-.26.72-.38,1.08-.25.8-.37,1.19-.21.72-.33,1.06-.27.66-.41,1-.36.79-.5,1.19a10.13,10.13,0,0,0-.37,1.59,3.86,3.86,0,0,1-.15.72,4.15,4.15,0,0,1-.41.75,7,7,0,0,0-.69,1.32,2.2,2.2,0,1,0,4.1,1.57,6.68,6.68,0,0,1,.34-.58,8.51,8.51,0,0,0,.8-1.55,7.46,7.46,0,0,0,.35-1.52,7.21,7.21,0,0,1,.18-.83c.1-.28.23-.56.36-.85s.39-.86.56-1.36.26-.81.39-1.23.2-.7.32-1.05.23-.64.35-1,.3-.84.45-1.28.22-.61.35-.92.34-.86.49-1.31.24-.85.35-1.29.17-.67.28-1,.26-.83.38-1.25.21-.68.31-1,.24-.83.36-1.26.18-.69.28-1a8.15,8.15,0,0,1,.34-.83,12,12,0,0,0,.55-1.4,8.84,8.84,0,0,0,.29-1.53,6.35,6.35,0,0,1,.13-.83,6.62,6.62,0,0,1,.33-.7,7.87,7.87,0,0,0,.63-1.5c.13-.44.23-.89.32-1.34s.13-.66.22-1,.21-.63.33-.94.32-.88.45-1.33a11.32,11.32,0,0,0,.27-1.45c.05-.34.1-.65.16-.9a12.52,12.52,0,0,0,.29-1.4,9.19,9.19,0,0,1,.18-.94c.09-.34.19-.68.29-1s.24-.85.35-1.28a5.33,5.33,0,0,1,.3-.76,8.52,8.52,0,0,0,.54-1.49l.21-.82c.12-.5.25-1,.36-1.5A12.83,12.83,0,0,0,155,359c0-.3.07-.61.14-.91s.19-.91.27-1.37.12-.65.19-1c.11-.54.21-1.07.31-1.59l.15-.77c.1-.49.18-1,.25-1.47l.15-.89.1-.56c.11-.61.22-1.22.31-1.81.05-.35.13-.69.21-1s.21-.92.28-1.38.13-.68.21-1,.21-.93.28-1.39.1-.95.13-1.42,0-.68.09-1,.11-.74.17-1.11.15-.87.2-1.3.11-.9.15-1.34.07-.73.11-1.09.1-.74.16-1.1l.18-1.32c.06-.47.08-1,.1-1.43s0-.67.06-1,.11-.72.17-1.08.15-.89.2-1.34.09-.73.14-1.1.11-.88.16-1.32.09-.75.14-1.12.11-.87.16-1.3.09-.73.15-1.09.13-.89.18-1.33a8.16,8.16,0,0,0,0-1.4l.38-.15c.57-.24,1.09-.53,1.59-.8s.76-.42,1.16-.61l1.18-.5c.55-.23,1.1-.47,1.64-.72l1-.48,1.77-.84a15.86,15.86,0,0,0,1.59-.93c.35-.22.7-.44,1.07-.63s.73-.34,1.15-.51a16.28,16.28,0,0,0,1.68-.76,15.71,15.71,0,0,0,1.65-1.13,10.18,10.18,0,0,1,.91-.66c.39-.23.79-.44,1.19-.65s1-.52,1.45-.8,1-.66,1.46-1,.68-.49,1-.71c.55-.35,1.09-.7,1.61-1l.91-.61,1-.64,1.53-1c.6-.41,1.17-.82,1.74-1.22l1.34-.95c.64-.45,1.26-.89,1.86-1.33l.88-.65c.54-.38,1.06-.77,1.57-1.16s1-.86,1.52-1.29l.8-.69c.28-.23.61-.46,1-.7a13.7,13.7,0,0,0,1.5-1.13c.47-.43.92-.88,1.37-1.33.36.18.75.35,1.17.53s.66.29,1,.45c.52.25,1.1.52,1.73.77s1.08.37,1.65.55c.4.13.8.25,1.2.39s.71.28,1.07.43c.54.23,1.11.48,1.74.68a14.32,14.32,0,0,0,1.8.4,10.61,10.61,0,0,1,2.24.59,12.79,12.79,0,0,0,1.83.56,13,13,0,0,0,1.94.24c.37,0,.74.05,1.1.11.87.13,1.69.24,2.48.34l.59.07c1.09.14,2.11.24,3.09.33.43,0,.85.11,1.26.18a15.08,15.08,0,0,0,1.85.23l.43,0c.89,0,1.73.08,2.59.08h.11c.85,0,1.69,0,2.53-.06l-.06,0-.4.22-.1,0,0,0-.11.08-.13.09-1,.79-1.13.92-.25.21,0,0-.23.23-.15.18a6.71,6.71,0,0,0-.55.8l-.13.21-.05.06-.41.55-.39.51-.19.25-.28.4-.69,1c-.25.33-.48.62-.82,1.15l-.23.35-.18.36-.27.55-.27.55v0l-.08.19,0,.07-.05.14-.11.29-.2.57-.13.36s-.13.44-.08.26v0l0,.15c-.09.39-.16.79-.23,1.19l-.24,1.25-.05.29,0,.14,0,.08,0,.25v0l0,.58c0,.19,0,.4,0,.6v.3l0,.37a20.44,20.44,0,0,1-.14,2.06l0,.38v.66c0,.11,0-.17,0,.27v0l0,.14c0,.11,0,.12.08.32s.12.33.19.49l.11.27c.08.18.06.17.08.19l.27,1.08.12.51.19.65.3,1,.06.16v0l0,.06.05.12.1.23.21.46.2.45v.06l0,.11.08.24c.09.26.25.7.42,1.09l.06.15v0c.05.08-.08-.13.11.2l0,.05.14.19.28.38.28.35.14.17,0,0,0,0,0,0,.22.4.11.2.15.25.32.51.08.12c.3.33.1.1.17.18l0,0,0,0,.16.14c.22.2.43.38.64.54l.16.13.08.06,0,0,0,0,.09.08.31.28.59.54.35.3.3.25.18.14a5.88,5.88,0,0,0-.54,1.33,4.89,4.89,0,0,0-.15.7l-.06.35,0,.46c0,.21,0,.36,0,.62a9.26,9.26,0,0,0,.18,1l.07.26.12.29.11.29.12.29a2.59,2.59,0,0,0,.23.4l.28.44.15.22.07.11,0,0v0l.13.13,0,0,.45.46a2.53,2.53,0,0,0,.32.28l.39.29.2.14.1.07.05,0,0,0,.15.08.29.16a7.94,7.94,0,0,0,1.73.67,11.41,11.41,0,0,0,1.49.25l.46,0h1.12L241,345l.22,0,.18,0h0l.08,0,.32-.08a5.42,5.42,0,0,0,.73-.22l.43-.17.21-.08.11-.05,0,0h0l.17-.08.55-.33a3.3,3.3,0,0,0,.31-.19l.39-.3c.21-.18.44-.36.63-.55l.11.11a3.73,3.73,0,0,0,.62.53l.38.28.1.07,0,0,.18.1.14.07c.19.11.36.21.58.32s.62.24.93.34l.12,0,.06,0h0l.13,0,.16,0,.32.07.33.07.43.05.46,0,.23,0h1a7.64,7.64,0,0,0,.84-.07l.46-.06.12,0h0l.15,0h0l.16,0,.64-.18c.27-.09.57-.21.86-.33l.21-.09.1,0,.19-.1,0,0,.29-.16.28-.17a3.17,3.17,0,0,0,.32-.22,8.55,8.55,0,0,0,1.31-1.18,5.48,5.48,0,0,0,1-1.59l.05-.12h0l.08-.23v-.06l0-.14.06-.29a3.31,3.31,0,0,0,.1-.7,8.77,8.77,0,0,0,0-.88v-.46l0-.27c0-.07,0-.2-.06-.35l-.1-.42a6.07,6.07,0,0,0-.24-.72l-.15-.28.32-.33c.1-.12.1-.08.13-.12.5-.38.92-.63,1.5-1.08.25-.21.46-.35.77-.64l.44-.4.1-.11,0,0,0,0,.07-.1.15-.18c.2-.24.41-.53.62-.81l.2-.28.14-.21.27-.42.28-.41.07-.11.16-.26.12-.22.51-.9.56-1.09.23-.48.06-.12.07-.19,0-.1.08-.26c.11-.34.21-.69.32-1l.06-.23,0-.06,0-.14.06-.27.12-.54.12-.52.16-.54c0-.15.12-.46.17-.69l.08-.38,0-.09s0-.32,0-.2v-.17c0-.39,0-.77,0-1.16v-.22l0-.3c0-.2,0-.36,0-.64V319c0-.1,0,.16,0-.23l-.1-.59c0-.2-.08-.37-.12-.56l-.06-.28v0l0-.11V317l-.15-1.21-.07-.58,0-.31-.07-.4-.08-.39V314l-.07-.21-.06-.15-.24-.57-.24-.53,0-.07v0l0-.1-.08-.3-.09-.3-.13-.4-.13-.4-.06-.15c0-.08.07.11-.09-.2l-.08-.13q-.31-.56-.66-1.08c-.46-.76-.91-1.53-1.37-2.3l-.47-.72,0,0s-.26-.29-.16-.17l-.05-.06-.12-.12a3.88,3.88,0,0,0-.37-.33l-.56-.44-.06-.05-.3-.28-.89-.81-.22-.24a.2.2,0,0,0,0-.08l-.24-.32-.16-.2-.26-.25-.27-.25-.14-.1,0,0-.07-.05h0c.51,0,1,.06,1.48.07s.77,0,1.16,0,.71.08,1.07.13a16.51,16.51,0,0,0,1.87.2l.74,0,1.1,0c.36,0,.74,0,1.12,0,.63,0,1.17-.05,1.73-.1.39,0,.8-.07,1.21-.08h1.11c.59,0,1.2,0,1.83,0,.36,0,.74,0,1.12,0,.54,0,1.16,0,1.81,0s1.08-.11,1.63-.19.84-.12,1.27-.16.78-.06,1.18-.08c.61,0,1.23-.07,1.84-.15a12.26,12.26,0,0,0,1.84-.41,8.32,8.32,0,0,1,1.12-.28,9.41,9.41,0,0,1,1.14-.07,11.58,11.58,0,0,0,1.88-.14,12.75,12.75,0,0,0,1.84-.51,8.93,8.93,0,0,1,1.08-.32l1.13-.22c.63-.11,1.24-.22,1.84-.36a9.75,9.75,0,0,1,1.2-.19,14.1,14.1,0,0,0,1.81-.32l1.57-.44,0,0c.28.3.56.59.81.91s.46.64.68,1c.34.5.72,1.06,1.17,1.6s.86.93,1.29,1.35.6.59.89.91l.76.87c.42.49.84,1,1.31,1.48l.3.31c.6.63,1.22,1.27,1.87,1.93s1.46,1.42,2.24,2.16c.41.4.85.78,1.3,1.17s.67.59,1,.91.59.59.89.9.81.87,1.29,1.3a18,18,0,0,0,1.51,1.2c.34.25.69.5,1,.78l.84.72c.52.44,1,.9,1.6,1.33s1,.74,1.53,1.1c.35.24.71.49,1.06.75a11.63,11.63,0,0,1,1,.84,13.9,13.9,0,0,0,1.45,1.22c.53.38,1.07.72,1.6,1.06.36.23.72.45,1.05.68.59.4,1.18.74,1.7,1,.36.2.71.4,1,.61s.8.55,1.16.82l.1.07v0c0,.48,0,1,0,1.51,0,.32,0,.65,0,1s0,.93,0,1.42a10.23,10.23,0,0,0,.19,1.49,7.23,7.23,0,0,1,.13.92c0,.76.06,1.57.09,2.4l.06,1.42.09,1.9q0,.73.06,1.5a6.94,6.94,0,0,1-.05.85,11.08,11.08,0,0,0-.06,1.57c0,.35,0,.71,0,1.07l.06,1.34a9.23,9.23,0,0,0,.28,1.57,4.66,4.66,0,0,1,.16.82,4.73,4.73,0,0,1-.06.76,8.47,8.47,0,0,0-.09,1.66,6.63,6.63,0,0,0,.37,1.69,4.25,4.25,0,0,1,.18.7c0,.31,0,.63,0,.95a14.52,14.52,0,0,0,0,1.46c0,.31,0,.62,0,.94s0,.95,0,1.49.11.91.19,1.37.11.68.14,1,.09.87.15,1.31.09.72.13,1.09,0,.7.05,1.05,0,.91.08,1.36a10.85,10.85,0,0,0,.26,1.47,8.2,8.2,0,0,1,.18.92,8.94,8.94,0,0,1,0,.9,10,10,0,0,0,0,1.53,9.38,9.38,0,0,0,.28,1.47,6.32,6.32,0,0,1,.18.91c.05.43.11.87.18,1.3s.11.73.15,1.09,0,.68.06,1,0,.93.1,1.4c0,.31.05.62.06.94a15.41,15.41,0,0,0,.13,1.55c0,.32.08.65.11,1,.05.49.1,1,.18,1.48s.17.93.27,1.4.15.69.21,1,.11.64.16,1,.16,1,.25,1.47a13.91,13.91,0,0,0,.41,1.47,7.41,7.41,0,0,1,.27.91c.07.34.11.68.16,1s.14.94.24,1.41c.16.8.34,1.6.51,2.41.1.45.21.9.32,1.34s.18.7.26,1.06a7.08,7.08,0,0,1,.12.93,12.26,12.26,0,0,0,.23,1.52c.11.45.24.89.37,1.34s.21.68.29,1a12.83,12.83,0,0,0,.47,1.44,8.2,8.2,0,0,1,.31.91c.09.36.17.71.25,1.06s.21.89.33,1.34.13.66.19,1,.15.92.28,1.42.28.92.44,1.38.23.64.32,1l.26,1,.36,1.37c.1.35.19.71.28,1.07s.23.88.35,1.31.29.91.45,1.36.23.65.33,1a5.9,5.9,0,0,1,.11.81,7.67,7.67,0,0,0,.26,1.65,13.94,13.94,0,0,0,.51,1.4c.12.31.25.61.34.91a11,11,0,0,0,.57,1.47,7.74,7.74,0,0,1,.34.83,5.8,5.8,0,0,1,.17.9,9.12,9.12,0,0,0,.31,1.54,13.06,13.06,0,0,0,.58,1.46,8.07,8.07,0,0,1,.34.83c.1.31.17.65.25,1a11.55,11.55,0,0,0,.36,1.4,2.22,2.22,0,0,0,2.08,1.49,2.27,2.27,0,0,0,.72-.12,2.2,2.2,0,0,0,1.36-2.8,7.69,7.69,0,0,1-.21-.88c-.1-.44-.2-.93-.37-1.47s-.34-.86-.51-1.25a7.71,7.71,0,0,1-.4-1,4.34,4.34,0,0,1-.15-.82,8.65,8.65,0,0,0-.85-2.92c-.15-.34-.29-.65-.38-.93s-.3-.87-.47-1.3a8.38,8.38,0,0,1-.37-1,5.22,5.22,0,0,1-.1-.77,8.79,8.79,0,0,0-.26-1.66c-.12-.42-.27-.84-.42-1.27s-.26-.68-.36-1-.21-.81-.32-1.22-.19-.76-.29-1.14-.23-.87-.35-1.31l-.27-1.05c-.12-.44-.27-.88-.42-1.31s-.25-.67-.34-1-.13-.68-.19-1-.15-.93-.27-1.38-.2-.84-.3-1.26l-.27-1.11a11.92,11.92,0,0,0-.46-1.39c-.12-.34-.24-.66-.31-.93-.1-.43-.23-.85-.35-1.26s-.22-.73-.3-1.09a7.33,7.33,0,0,1-.14-1,10.69,10.69,0,0,0-.21-1.46l-.27-1.13q-.17-.61-.3-1.23l-.51-2.38c-.08-.37-.13-.74-.18-1.11s-.12-.86-.21-1.28a10.77,10.77,0,0,0-.4-1.43,8.32,8.32,0,0,1-.26-.91c-.09-.45-.16-.91-.23-1.35s-.11-.7-.17-1-.16-.8-.25-1.2-.16-.78-.23-1.17-.1-.81-.14-1.21-.08-.79-.14-1.17-.06-.76-.08-1.13,0-.85-.09-1.26-.06-.71-.07-1.06,0-.9-.09-1.34-.11-.82-.17-1.23-.11-.76-.15-1.14a10.93,10.93,0,0,0-.29-1.47,8.25,8.25,0,0,1-.18-.89,7.18,7.18,0,0,1,0-.93,10.73,10.73,0,0,0,0-1.48,11,11,0,0,0-.26-1.46,6.31,6.31,0,0,1-.17-.9c0-.37-.05-.74-.06-1.11s0-.86-.07-1.28-.09-.85-.15-1.27-.1-.74-.13-1.11-.11-.91-.18-1.36a8.92,8.92,0,0,1-.14-1,8,8,0,0,1,0-1,13.59,13.59,0,0,0,0-1.42c0-.34,0-.68,0-1s0-.9,0-1.39a7.15,7.15,0,0,0-.38-1.7,5.39,5.39,0,0,1-.17-.66,4.22,4.22,0,0,1,.06-.81,8,8,0,0,0,.09-1.6,7.69,7.69,0,0,0-.28-1.59,5.63,5.63,0,0,1-.15-.77c0-.43,0-.84-.06-1.25s0-.77,0-1.14a7.92,7.92,0,0,1,0-.92,11.3,11.3,0,0,0,.07-1.48c0-.5,0-1-.07-1.47l-.08-1.93c0-.47-.05-.93-.06-1.38,0-.83-.06-1.62-.09-2.38a10.94,10.94,0,0,0-.2-1.58,5,5,0,0,1-.12-.8c0-.42,0-.83,0-1.22s0-.79,0-1.17,0-.83,0-1.22a.28.28,0,0,0,0-.09,2.2,2.2,0,0,0-.79-3c-.31-.19-.69-.47-1.09-.76s-.89-.66-1.39-1-.81-.49-1.24-.74-1-.54-1.39-.84-.78-.51-1.19-.77-.93-.59-1.4-.92a12.17,12.17,0,0,1-1-.88c-.39-.35-.83-.76-1.33-1.13s-.8-.57-1.2-.85-.88-.61-1.3-.93-1-.81-1.45-1.21l-.9-.76c-.4-.34-.82-.65-1.24-.95s-.83-.62-1.16-.91-.68-.67-1-1-.73-.77-1.11-1.12l-1.1-1c-.4-.35-.79-.69-1.16-1-.76-.72-1.48-1.42-2.17-2.1s-1.23-1.25-1.81-1.85l-.29-.31c-.41-.43-.78-.87-1.15-1.29s-.55-.66-.84-1-.7-.74-1.06-1.09-.73-.72-1-1.06-.6-.79-.91-1.23-.55-.81-.84-1.19-.74-.86-1.07-1.22a9.69,9.69,0,0,1-.89-1,2.21,2.21,0,0,0-3.07-.51,1.5,1.5,0,0,0-.23.2c-.52.16-1.1.32-1.77.5a10.55,10.55,0,0,1-1.23.2c-.49.07-1.05.14-1.64.27s-1.07.23-1.63.33c-.4.07-.81.14-1.22.23a14.17,14.17,0,0,0-1.61.46,9.44,9.44,0,0,1-1.19.35,7.37,7.37,0,0,1-1.21.07,13.59,13.59,0,0,0-1.72.12,12.72,12.72,0,0,0-1.66.39,8.73,8.73,0,0,1-1.18.29c-.51.06-1,.09-1.53.12s-.92.05-1.37.09-1,.11-1.44.18-.93.13-1.38.17-.89,0-1.38,0-1,0-1.46,0-1,0-1.51,0-.88,0-1.3,0-1,.06-1.46.1a13.12,13.12,0,0,1-1.34.08c-.41,0-.83,0-1.23,0h-.39a6.81,6.81,0,0,0,1.06-.13,13.42,13.42,0,0,0,1.85-.59,11.43,11.43,0,0,1,1.2-.41c.63-.16,1.22-.37,1.79-.57.4-.14.82-.29,1.25-.41a6.29,6.29,0,0,1,1.06-.16,10.53,10.53,0,0,0,2.1-.38,15.39,15.39,0,0,0,1.74-.71c.42-.19.82-.37,1.21-.51s.78-.25,1.18-.37c.61-.18,1.23-.37,1.85-.6s1.13-.48,1.66-.73.81-.39,1.24-.56a10,10,0,0,1,1.15-.35,14.55,14.55,0,0,0,1.88-.61,10.86,10.86,0,0,0,1.57-.85,9.07,9.07,0,0,1,1-.54c.51-.23,1-.48,1.51-.73s.72-.37,1.09-.54.73-.31,1.1-.45,1-.39,1.58-.65a15.69,15.69,0,0,0,1.5-.87,11.15,11.15,0,0,1,1-.59,6.75,6.75,0,0,1,1-.35,7.66,7.66,0,0,0,3.33-1.75,6,6,0,0,1,.81-.59,9.3,9.3,0,0,1,1-.45,13.19,13.19,0,0,0,1.62-.73c.61-.35,1.2-.7,1.79-1.06l.7-.42c.86-.51,1.69-1,2.48-1.51.35-.22.69-.42,1-.61s.51-.31.77-.47a4.92,4.92,0,0,0,1,.63l.14.06.08.14a4.92,4.92,0,0,0,.88,1.16c.15.13.29.27.43.41s.47.47.72.69a8.1,8.1,0,0,0,.86.65,4.5,4.5,0,0,1,.42.3,4.73,4.73,0,0,0,1.2.72l.2.08a3.55,3.55,0,0,1,.33.34,10.47,10.47,0,0,0,.81.77c.26.21.54.39.83.58l.38.25.08.13a4.08,4.08,0,0,0,1,1.19,5.48,5.48,0,0,0,1.11.63c.1.05.21.08.29.13l1.26.93a8,8,0,0,0,1,.58,2.48,2.48,0,0,1,.39.21,2.27,2.27,0,0,1,.28.26,6.23,6.23,0,0,0,.9.79,6,6,0,0,0,1,.55l.32.14c.06.06.11.13.17.2a4.84,4.84,0,0,0,1,1l.55.39c.24.17.48.35.74.52a8.13,8.13,0,0,0,1,.54,5.06,5.06,0,0,1,.46.24,9.18,9.18,0,0,0,.95.51c.16.08.33.15.49.25a2.51,2.51,0,0,1,.31.26,6.09,6.09,0,0,0,1,.73,4.81,4.81,0,0,0,1.23.5l.22.07.09.11a4.67,4.67,0,0,0,1.18,1,8.19,8.19,0,0,0,1,.45,4.16,4.16,0,0,1,.48.22,5,5,0,0,1,.49.31,9.87,9.87,0,0,0,.88.54l.14.08,1.27.67.88.44.56.28a5.42,5.42,0,0,0,1.27.43,2.56,2.56,0,0,1,.27.07c.3.15.61.28.91.4l.56.25c.06,0,.22.15.33.23a5.9,5.9,0,0,0,1,.64l1.47.67,0,0v.07a4,4,0,0,1,.17.8c0,.28,0,.56-.06.86A14.66,14.66,0,0,0,349,306c0,.45.07.9.12,1.37s.09.69.1,1.05,0,.69,0,1,0,.92,0,1.39a5.08,5.08,0,0,1-.09.73,7.83,7.83,0,0,0-.14,1.7,12,12,0,0,0,.18,1.48,7.67,7.67,0,0,1,.14.94c0,.44.06.88.11,1.33s.08.72.09,1.09a5.19,5.19,0,0,1-.06.8,9.2,9.2,0,0,0-.1,1.64,8.17,8.17,0,0,0,.26,1.56,8.07,8.07,0,0,1,.16.85,7,7,0,0,1-.05.85,10,10,0,0,0-.05,1.58c0,.44.08.88.13,1.33s.08.72.11,1.09,0,.68,0,1a13.27,13.27,0,0,0,0,1.41,6.75,6.75,0,0,0,.39,1.71,4.11,4.11,0,0,1,.18.68,6.65,6.65,0,0,1,0,.87,9,9,0,0,0,0,1.58c0,.35,0,.7.05,1.05s0,.92.06,1.38A9.07,9.07,0,0,0,351,339a5.78,5.78,0,0,1,.17.85,7,7,0,0,1,0,.93,12.74,12.74,0,0,0,0,1.5,11.3,11.3,0,0,0,.26,1.48,7.79,7.79,0,0,1,.18.92c0,.25,0,.57,0,.91a9.9,9.9,0,0,0,0,1.53c.05.44.1.88.16,1.32s.09.73.13,1.1.06.72.09,1.08.06.9.11,1.35a12.45,12.45,0,0,0,.28,1.47,8.8,8.8,0,0,1,.2.93c0,.29,0,.58,0,.88a12.51,12.51,0,0,0,.1,1.54,12.34,12.34,0,0,0,.3,1.43c.08.3.17.61.22.92a6.62,6.62,0,0,1,0,.82,10.29,10.29,0,0,0,.11,1.59c.08.44.17.89.27,1.33s.14.68.2,1a10.94,10.94,0,0,0,.4,1.44,7.31,7.31,0,0,1,.26.87,8.7,8.7,0,0,1,.08.87,11.38,11.38,0,0,0,.17,1.52,12.33,12.33,0,0,0,.4,1.39,7.25,7.25,0,0,1,.26.91c.1.43.21.86.32,1.29s.17.68.25,1c.17.77.34,1.55.52,2.33a4.76,4.76,0,0,1,.06.76,7.94,7.94,0,0,0,.17,1.64c.1.44.23.87.36,1.3s.2.66.28,1,.15.69.22,1,.17.88.28,1.31.22.85.34,1.28.19.68.28,1a11.44,11.44,0,0,0,.47,1.4,8.48,8.48,0,0,1,.31.86c.09.35.16.7.23,1s.19.87.3,1.29.27.89.42,1.33.22.63.31.95a6.17,6.17,0,0,1,.1.8,8.33,8.33,0,0,0,.24,1.58,7.44,7.44,0,0,0,.63,1.53,5.88,5.88,0,0,1,.31.69c.09.34.17.69.25,1s.2.86.32,1.28a14.35,14.35,0,0,0,.49,1.37,7.13,7.13,0,0,1,.32.88c.14.45.27.89.41,1.32l.29,1c.1.35.2.7.29,1.05s.22.85.34,1.26.21.69.31,1,.25.86.38,1.27.3.91.46,1.35.21.61.31.91a9.4,9.4,0,0,1,.25,1,11.23,11.23,0,0,0,.35,1.35,2.21,2.21,0,0,0,2.08,1.49,2.27,2.27,0,0,0,.72-.12,2.21,2.21,0,0,0,1.36-2.8,7.21,7.21,0,0,1-.21-.86c-.09-.42-.2-.9-.36-1.41q-.17-.5-.36-1c-.13-.38-.28-.78-.41-1.19s-.23-.78-.35-1.17-.21-.73-.32-1.09-.2-.72-.3-1.08-.2-.8-.32-1.2-.21-.66-.31-1-.26-.83-.38-1.26a13.21,13.21,0,0,0-.47-1.28c-.12-.31-.25-.62-.34-.94s-.18-.7-.26-1-.19-.83-.3-1.25a8.91,8.91,0,0,0-.62-1.47,4.91,4.91,0,0,1-.32-.72,4.54,4.54,0,0,1-.09-.78,9.22,9.22,0,0,0-.24-1.58c-.12-.43-.26-.84-.41-1.26s-.23-.66-.32-1-.17-.71-.24-1.08-.18-.82-.28-1.22a12.66,12.66,0,0,0-.46-1.36,6.85,6.85,0,0,1-.31-.89c-.1-.38-.21-.76-.31-1.15s-.22-.75-.31-1.13-.16-.73-.23-1.1-.16-.82-.26-1.22-.22-.82-.34-1.23-.21-.7-.3-1a4.8,4.8,0,0,1-.06-.77,8,8,0,0,0-.16-1.6c-.18-.77-.35-1.53-.52-2.3-.08-.39-.18-.78-.28-1.17s-.19-.74-.27-1.12-.26-.95-.39-1.36a7.63,7.63,0,0,1-.26-.9,5.62,5.62,0,0,1-.1-.92,9.67,9.67,0,0,0-.15-1.43,11.6,11.6,0,0,0-.4-1.41c-.1-.32-.2-.62-.25-.86s-.15-.77-.23-1.15-.17-.77-.23-1.15a7.23,7.23,0,0,1-.05-.88,8.63,8.63,0,0,0-.09-1.47,10.88,10.88,0,0,0-.3-1.35,9.06,9.06,0,0,1-.21-.93c0-.3,0-.65,0-1s0-.88-.07-1.3a14.49,14.49,0,0,0-.29-1.46,8.93,8.93,0,0,1-.19-.92q-.06-.57-.09-1.14c0-.43-.06-.85-.1-1.27s-.1-.79-.14-1.18-.11-.81-.15-1.22a5.75,5.75,0,0,1,0-.93,12.6,12.6,0,0,0,0-1.49c-.06-.54-.17-1-.26-1.46a8.65,8.65,0,0,1-.18-.92c0-.28,0-.61,0-1a14.39,14.39,0,0,0,0-1.45,8.76,8.76,0,0,0-.3-1.54,4.79,4.79,0,0,1-.17-.84c0-.37-.05-.74-.06-1.12s0-.86-.05-1.29a7.11,7.11,0,0,1,0-.9,9.37,9.37,0,0,0,0-1.52,7.3,7.3,0,0,0-.39-1.72,3.91,3.91,0,0,1-.18-.65,10,10,0,0,1,0-1.09c0-.44,0-.89,0-1.33s-.08-.87-.13-1.3-.09-.73-.11-1.09a6.13,6.13,0,0,1,.05-.91,7.94,7.94,0,0,0-.21-3.09,4.75,4.75,0,0,1-.16-.81,6,6,0,0,1,.07-.85,8.46,8.46,0,0,0,.1-1.57c0-.45-.07-.89-.12-1.33s-.07-.72-.09-1.07a10.53,10.53,0,0,0-.19-1.51,7.22,7.22,0,0,1-.13-.88,4.82,4.82,0,0,1,.09-.83,7.07,7.07,0,0,0,.14-1.59c0-.43,0-.86,0-1.28s0-.75,0-1.12-.07-1-.13-1.45-.08-.64-.09-.95a9.76,9.76,0,0,1,.06-1,11.71,11.71,0,0,0,.08-1.36,6.61,6.61,0,0,0-.22-1.46,2.69,2.69,0,0,0-2-3.07c-.18-.1-.36-.21-.56-.3l-1.4-.63a2.64,2.64,0,0,1-.29-.21,7.18,7.18,0,0,0-1-.65l-.76-.33-.67-.3a5.71,5.71,0,0,0-1.19-.4,1.27,1.27,0,0,1-.31-.08l-.6-.29-.8-.41-1.23-.65-.14-.07c-.17-.09-.33-.21-.5-.31a7.19,7.19,0,0,0-.83-.52,7.84,7.84,0,0,0-.93-.43l-.4-.17-.11-.13a4.51,4.51,0,0,0-1.14-1,5.18,5.18,0,0,0-1.21-.49l-.26-.08-.33-.27a6.75,6.75,0,0,0-.9-.69c-.29-.18-.59-.32-.89-.47s-.33-.15-.48-.24a7.71,7.71,0,0,0-.89-.49,3.78,3.78,0,0,1-.45-.24c-.22-.15-.43-.29-.63-.44s-.42-.31-.57-.4a1.68,1.68,0,0,1-.18-.21,5.37,5.37,0,0,0-1-1,6.49,6.49,0,0,0-1-.55,2.47,2.47,0,0,1-.36-.19c-.06,0-.2-.18-.31-.28a6.56,6.56,0,0,0-.84-.75,7.52,7.52,0,0,0-1-.56,2.18,2.18,0,0,1-.37-.2l-1.23-.9a6.21,6.21,0,0,0-1.11-.62l-.18-.07-.07-.11a4.2,4.2,0,0,0-1-1.15,8.43,8.43,0,0,0-.78-.55,4.87,4.87,0,0,1-.47-.32,3.06,3.06,0,0,1-.36-.36,9.61,9.61,0,0,0-.73-.7,4.88,4.88,0,0,0-1.17-.69c-.08,0-.16-.08-.17-.07-.26-.21-.53-.4-.81-.59s-.29-.19-.42-.3-.34-.33-.51-.5-.38-.38-.51-.49l-.14-.22a4.54,4.54,0,0,0-.82-1.09,4.72,4.72,0,0,0-1.18-.8l-.15-.07c-.06-.08-.1-.15-.15-.23a6.79,6.79,0,0,0-.72-.95,2.21,2.21,0,0,0-3.11-.06,2.15,2.15,0,0,0-.31.38,2.64,2.64,0,0,0-.29.15c-.38.26-.79.49-1.21.73s-.78.45-1.18.7c-.76.48-1.56,1-2.39,1.46l-.73.44-1.68,1a7.62,7.62,0,0,1-1.05.46,13,13,0,0,0-1.54.68,10.59,10.59,0,0,0-1.46,1,6.6,6.6,0,0,1-.86.62,5.44,5.44,0,0,1-1,.35,9.62,9.62,0,0,0-1.69.63,14.78,14.78,0,0,0-1.38.81,11.38,11.38,0,0,1-1.05.62,11.69,11.69,0,0,1-1.21.49c-.47.18-.95.36-1.41.58l-1.23.6c-.43.22-.86.44-1.3.64a12.45,12.45,0,0,0-1.47.8,8.87,8.87,0,0,1-1,.56,10.72,10.72,0,0,1-1.31.41,15.39,15.39,0,0,0-1.65.51c-.51.21-1,.44-1.49.67s-.91.43-1.32.59-1,.35-1.56.5-.92.28-1.37.44a16.27,16.27,0,0,0-1.59.66,11.54,11.54,0,0,1-1.24.52,6.39,6.39,0,0,1-1.22.19,10.05,10.05,0,0,0-1.82.31c-.52.14-1,.32-1.51.5l-.51.17.18-.16c.11-.1.22-.2.34-.29.37-.26.73-.55,1.09-.83a9.67,9.67,0,0,0,1.43-.68,14.92,14.92,0,0,0,1.52-1.08,11.43,11.43,0,0,1,1-.75l1-.6c.55-.33,1.11-.66,1.67-1,.34-.22.69-.43,1.05-.64.53-.33,1.06-.66,1.59-1a14.17,14.17,0,0,0,1.43-1.11c.36-.3.69-.58,1-.81s.71-.44,1.08-.65a18.35,18.35,0,0,0,1.58-1c.47-.33.92-.68,1.39-1s.72-.56,1.1-.83.91-.69,1.37-1.05l1.09-.85.91-.67,1.59-1.18c.34-.26.71-.52,1.07-.78s.95-.69,1.43-1.06.71-.53,1.08-.79,1-.69,1.43-1.07a12.41,12.41,0,0,0,1.37-1.31,10.41,10.41,0,0,1,.88-.88c.31-.25.68-.5,1.06-.76a16.22,16.22,0,0,0,1.48-1.08c.3-.25.67-.5,1.05-.77a16.83,16.83,0,0,0,1.47-1.09,8.94,8.94,0,0,0,1.38-1.6,6,6,0,0,1,.66-.82l1.05-.87q.69-.55,1.35-1.14a10.21,10.21,0,0,1,1-.75,13,13,0,0,0,1.49-1.15c.49-.44.95-.89,1.42-1.33l.86-.82c.44-.42.86-.87,1.27-1.31s.59-.65.91-.95.66-.62,1-.92.88-.81,1.3-1.23.66-.61,1-.9.89-.78,1.32-1.23a16,16,0,0,0,1.12-1.35l.12.1a2.63,2.63,0,0,1,.37.29,2.78,2.78,0,0,1,.21.27,6.13,6.13,0,0,0,.8,1,4.87,4.87,0,0,0,1.17.75.31.31,0,0,0,.1.05v0a4.08,4.08,0,0,0,1,1.34,8.22,8.22,0,0,0,.89.64,2.8,2.8,0,0,1,.4.27c.13.11.24.23.36.35a10.57,10.57,0,0,0,.77.73l1.22,1,.74.56.51.39a4.74,4.74,0,0,0,1.2.64l.2.08c.25.19.51.36.78.53l.49.33.21.23a5,5,0,0,0,.93.89l1.26.9c.13.1.24.21.37.32a8,8,0,0,0,.82.68,9,9,0,0,0,.92.54,2.26,2.26,0,0,1,.43.24,4.75,4.75,0,0,0,1.28.58l.12,0,0,.06a4.47,4.47,0,0,0,1.09,1.11,4.71,4.71,0,0,0,1.34.58l.15,0,.11.13a5,5,0,0,0,1.05.93l.49.34c.27.18.53.37.81.54s.31.21.46.32a9.53,9.53,0,0,0,.84.57,8.71,8.71,0,0,0,1,.48,3.43,3.43,0,0,1,.44.19c.26.15.52.3.79.44l.58.31a5.91,5.91,0,0,0,1.12.46,3.4,3.4,0,0,1,.34.12l.39.22.92.5.22.19a4.94,4.94,0,0,0,1.08.82,5.94,5.94,0,0,0,1.22.44,1.31,1.31,0,0,1,.27.07l.83.41c.19.09.39.18.57.28a2.54,2.54,0,0,1,.34.23,6.72,6.72,0,0,0,1,.62,4.34,4.34,0,0,1,.46.28,8.09,8.09,0,0,0,.89.51c.29.14.59.27.88.39l.55.24,1.43.66c.32.15.63.28.94.41l.5.22.09.05c0,.42,0,.86,0,1.32s0,.65,0,1,0,1,0,1.45v1c0,.46,0,.93,0,1.4s0,.7,0,1,0,.93,0,1.4.07.9.13,1.37.08.71.1,1.07,0,.93.06,1.41l0,1a7.41,7.41,0,0,1,0,.89,9.72,9.72,0,0,0-.06,1.57,7.9,7.9,0,0,0,.28,1.61,4.66,4.66,0,0,1,.16.82c0,.34,0,.69,0,1s0,.93,0,1.4.08.88.12,1.33.09.73.11,1.11c.05.8.1,1.61.16,2.44a5.3,5.3,0,0,1,0,.85,9.29,9.29,0,0,0,0,1.61,7.2,7.2,0,0,0,.37,1.69,3.7,3.7,0,0,1,.19.72c0,.35,0,.71,0,1.07s0,.92.07,1.38,0,.71.05,1.07,0,.92.07,1.38.08.9.13,1.35l.1,1.09c0,.32,0,.64,0,1s0,.95,0,1.48.11.9.19,1.35.11.72.14,1.08,0,.68.05,1,0,.95.08,1.42a9.09,9.09,0,0,0,.35,1.6,5.42,5.42,0,0,1,.21.81,4.52,4.52,0,0,1,0,.77,7.82,7.82,0,0,0,0,1.7c.06.52.16,1,.25,1.43s.15.66.19,1,0,.6.06.91a12.36,12.36,0,0,0,.11,1.53c.07.5.16,1,.24,1.55l.14.84a8.06,8.06,0,0,0,.46,1.58,4.72,4.72,0,0,1,.25.76c.13.74.27,1.48.41,2.24l0,.14a4.14,4.14,0,0,1,0,.74,8,8,0,0,0,.11,1.69l.18,1c.08.46.17.92.26,1.38s.22.9.35,1.35.19.65.27,1,.13.67.2,1,.18.9.28,1.35l.17.77c.12.53.23,1.06.36,1.58s.23.9.37,1.34.2.65.28,1a7.46,7.46,0,0,1,.14.93c.06.44.12.94.24,1.46l.22.9c.12.49.23,1,.35,1.44l.22.91c.12.48.23,1,.36,1.43a6.92,6.92,0,0,0,.71,1.65,4.4,4.4,0,0,1,.29.58,4.58,4.58,0,0,1,.07.76,8.26,8.26,0,0,0,.22,1.65c.09.35.18.69.26,1s.22.87.34,1.29a10.49,10.49,0,0,0,.51,1.42,8.78,8.78,0,0,1,.32.86c.12.43.25.85.38,1.27s.21.69.31,1,.19.71.29,1.06.22.85.34,1.26.3.9.46,1.34.23.63.33.94a5.28,5.28,0,0,1,.07.71,6.73,6.73,0,0,0,.24,1.71,7.48,7.48,0,0,0,.71,1.57,5,5,0,0,1,.31.64,9.59,9.59,0,0,1,.22.95,12.66,12.66,0,0,0,.32,1.41c.16.48.32.94.47,1.4.11.3.21.6.3.88.16.5.35,1,.53,1.41.12.29.24.58.33.86a2.21,2.21,0,0,0,2.08,1.48,2,2,0,0,0,.72-.12,2.18,2.18,0,0,0,1.36-2.79c-.12-.35-.26-.71-.41-1.07s-.29-.74-.43-1.14-.21-.62-.32-.94-.29-.85-.43-1.3a7,7,0,0,1-.2-.89,12,12,0,0,0-.33-1.43A7.88,7.88,0,0,0,382,379a4.14,4.14,0,0,1-.35-.71,4.37,4.37,0,0,1-.06-.65,7,7,0,0,0-.24-1.74c-.12-.41-.27-.82-.43-1.24s-.25-.67-.35-1-.22-.78-.32-1.18l-.3-1.12c-.11-.38-.23-.76-.35-1.15s-.24-.75-.34-1.13a13.42,13.42,0,0,0-.49-1.37,6.6,6.6,0,0,1-.33-.88c-.11-.41-.22-.82-.32-1.23s-.18-.72-.28-1.09a4.44,4.44,0,0,1-.07-.75,8.27,8.27,0,0,0-.21-1.64,6.75,6.75,0,0,0-.71-1.61,4.42,4.42,0,0,1-.29-.59c-.12-.46-.23-.93-.35-1.4l-.22-.92c-.12-.46-.23-.93-.34-1.39l-.22-.93c-.06-.27-.1-.6-.15-.95a12.09,12.09,0,0,0-.23-1.41c-.1-.43-.23-.85-.36-1.27s-.21-.68-.29-1c-.11-.51-.23-1-.34-1.54l-.17-.78c-.09-.42-.18-.84-.26-1.27s-.15-.71-.22-1.06-.22-.86-.34-1.29-.2-.67-.27-1l-.24-1.28c-.06-.36-.12-.71-.19-1.06a4.46,4.46,0,0,1,0-.78,7.57,7.57,0,0,0-.09-1.6l0-.13c-.13-.75-.27-1.48-.39-2.2a8.71,8.71,0,0,0-.47-1.55,6.2,6.2,0,0,1-.23-.72l-.14-.88c-.08-.49-.17-1-.23-1.45s-.06-.72-.08-1.08,0-.85-.08-1.26-.15-.94-.25-1.4a9.23,9.23,0,0,1-.19-1,4.86,4.86,0,0,1,0-.8,7.49,7.49,0,0,0,0-1.66,8.72,8.72,0,0,0-.36-1.59,5.44,5.44,0,0,1-.2-.8c0-.35,0-.71-.05-1.07s0-.91-.07-1.36-.11-.88-.18-1.31-.11-.73-.15-1.1,0-.68,0-1a11.48,11.48,0,0,0,0-1.41l-.1-1.13c-.05-.43-.09-.86-.13-1.29s0-.76-.05-1.14,0-.87-.07-1.29,0-.76-.05-1.13,0-.87,0-1.3a7.67,7.67,0,0,0-.38-1.7,4.7,4.7,0,0,1-.19-.69,7.49,7.49,0,0,1,0-.9,9.59,9.59,0,0,0,.05-1.55c-.06-.81-.11-1.62-.16-2.42,0-.43-.08-.87-.12-1.3s-.08-.74-.11-1.11,0-.75,0-1.12,0-.88,0-1.31a9.36,9.36,0,0,0-.29-1.64,4.61,4.61,0,0,1-.16-.77,8.53,8.53,0,0,1,.05-1,11.41,11.41,0,0,0,.06-1.48l-.05-1.05c0-.47-.05-.92-.07-1.37s-.07-.95-.12-1.41a8.85,8.85,0,0,1-.1-1c0-.43,0-.84,0-1.24s0-.8,0-1.19,0-.85,0-1.26,0-.78,0-1.16,0-.82,0-1.21,0-.82,0-1.21a11.63,11.63,0,0,1,0-1.2c0-.43,0-.84,0-1.22a2.6,2.6,0,0,0-.11-.63,2.21,2.21,0,0,0-1.32-1.62c-.19-.08-.38-.18-.58-.28l-.77-.36-.53-.23-.85-.37-1.38-.64L361,272c-.22-.1-.45-.19-.67-.3a4.25,4.25,0,0,1-.46-.27,9.17,9.17,0,0,0-.86-.5,3.05,3.05,0,0,1-.32-.22,5.93,5.93,0,0,0-1-.62l-.66-.32-.71-.35a5.26,5.26,0,0,0-1.17-.42.66.66,0,0,0-.23,0,1.19,1.19,0,0,1-.2-.19,5.48,5.48,0,0,0-1.07-.8l-.93-.51-.4-.22a6,6,0,0,0-1.09-.45,3.19,3.19,0,0,1-.33-.11l-.69-.38-.64-.34a8.91,8.91,0,0,0-.95-.46,4,4,0,0,1-.43-.19,5.62,5.62,0,0,1-.5-.35c-.24-.17-.49-.35-.74-.51a6.1,6.1,0,0,1-.59-.4c-.22-.15-.44-.3-.61-.4a1.9,1.9,0,0,1-.19-.21,5.31,5.31,0,0,0-1-.87,4.81,4.81,0,0,0-1.35-.58l-.07,0,0-.05a4.33,4.33,0,0,0-1.05-1.08,4.69,4.69,0,0,0-1.29-.59l-.2-.07a8.84,8.84,0,0,0-.85-.48,4,4,0,0,1-.41-.23,3.26,3.26,0,0,1-.4-.34,7.68,7.68,0,0,0-.77-.64l-1.22-.87a2.41,2.41,0,0,1-.21-.24,5.69,5.69,0,0,0-.89-.85c-.24-.18-.48-.34-.73-.5l-.52-.35a5,5,0,0,0-1.18-.64l-.19-.06-.55-.42L332,254c-.4-.32-.79-.63-1.17-1a3.59,3.59,0,0,1-.4-.38,8.57,8.57,0,0,0-.69-.66,7.63,7.63,0,0,0-.85-.6l-.27-.17,0-.09a4.13,4.13,0,0,0-.93-1.3,5,5,0,0,0-1.13-.72.62.62,0,0,0-.16-.07,2,2,0,0,1-.21-.28,6.56,6.56,0,0,0-.75-.89,8.54,8.54,0,0,0-.79-.65,3.37,3.37,0,0,1-.37-.29,6.92,6.92,0,0,0-.8-.67,2.54,2.54,0,0,1-.36-.29,2.2,2.2,0,0,0-3.11,0,2.39,2.39,0,0,0-.44.63s0,0,0,0c-.37.41-.69.83-1,1.24a10.8,10.8,0,0,1-.92,1.12c-.29.31-.65.62-1,.95s-.83.73-1.22,1.12-.76.73-1.16,1.08-.72.67-1.08,1-.73.74-1.08,1.12-.68.74-1.06,1.09l-.89.85c-.44.43-.88.85-1.34,1.27a10.79,10.79,0,0,1-1,.77,15.24,15.24,0,0,0-1.45,1.09c-.38.35-.79.68-1.19,1s-.78.64-1.16,1a8.76,8.76,0,0,0-1.34,1.55,5,5,0,0,1-.67.83,11.86,11.86,0,0,1-1.11.82c-.45.31-.91.63-1.38,1s-.71.53-1.12.81a16.33,16.33,0,0,0-1.37,1,13.48,13.48,0,0,0-1.32,1.27,9.31,9.31,0,0,1-.89.89c-.41.32-.83.62-1.24.92s-.84.59-1.24.9-.86.65-1.29.95-.79.57-1.17.87l-1.52,1.13-.94.69-1.17.9c-.42.33-.84.66-1.25,1s-.81.6-1.2.91l-1.24.93a13.34,13.34,0,0,1-1.21.73c-.34.2-.69.4-1,.62l.42-.89.31-.67c.18-.39.35-.77.51-1.17s.26-.7.38-1.06l.15-.47c.12-.35.22-.71.31-1.07,0-.16.09-.33.14-.5s.09-.42.13-.64l.05-.05c.39-.43.77-.89,1.15-1.35s.55-.67.84-1,.74-.92,1.07-1.38.52-.71.81-1.06.71-.89,1.06-1.35.53-.72.82-1.07l.44-.54,1.5-1.84c.27-.35.56-.67.86-1s.79-.87,1.15-1.33.69-1,1-1.43.49-.74.76-1.1.56-.66.85-1,.77-.86,1.15-1.36.56-.7.84-1,.75-.89,1.09-1.36a11.06,11.06,0,0,0,1-1.63,8.5,8.5,0,0,1,.61-1l1.07-1.54c.22-.33.45-.67.68-1a6.52,6.52,0,0,1,.78-.86,10.74,10.74,0,0,0,1.28-1.48c.36-.52.65-1.05.94-1.55s.41-.75.65-1.11c.36-.54.64-1.07.92-1.58s.4-.75.62-1.1.48-.67.77-1a16.44,16.44,0,0,0,1.06-1.47c.34-.56.65-1.12,1-1.68.19-.35.37-.69.57-1s.38-.65.58-1l.48-.84c.21.11.41.22.63.31l1.05.47c.58.26,1.16.52,1.76.76.38.15.75.32,1.13.48.55.25,1.12.49,1.69.71s1.15.38,1.7.54.82.23,1.23.37c.62.22,1.25.42,1.89.63l1,.32a15.85,15.85,0,0,0,1.74.44,10.46,10.46,0,0,1,1.23.29l2.92.87A9.08,9.08,0,0,1,330,241a14,14,0,0,0,1.78.65,13.49,13.49,0,0,0,1.76.33,9.9,9.9,0,0,1,1.24.22l1.78.43,1.18.27c.4.1.79.23,1.19.37s1.1.36,1.72.51c.42.09.84.21,1.27.33s1.1.31,1.67.44,1.38.27,2.09.4l1,.18c1,.19,2,.37,3.08.54.84.14,1.69.26,2.55.38l.54.08c.42.05.83.12,1.24.19.62.1,1.23.2,1.85.27s1.53.18,2.29.26l.81.08a10.25,10.25,0,0,0,2,0,9.11,9.11,0,0,1,1.12,0,6.8,6.8,0,0,1,1.15.26,11.18,11.18,0,0,0,1.93.38c.45,0,.89.08,1.33.12.61.06,1.2.12,1.78.16l1.28.08c.64.05,1.26.09,1.85.11h.22a7.88,7.88,0,0,0,.86-.07c0,.1,0,.18,0,.28,0,.31,0,.63,0,1s0,.94,0,1.43,0,.84,0,1.28.05.73.05,1.11,0,.85.05,1.28,0,.74.05,1.11v2.4c0,.41,0,.83.05,1.26l0,1.13c0,.34,0,.68,0,1s0,.9,0,1.36a9.07,9.07,0,0,0,.18,1.5,6.89,6.89,0,0,1,.12.89c0,.43.05.87.08,1.31s.06.71.08,1.08,0,.66,0,1,0,.92,0,1.39,0,.65,0,1a13.59,13.59,0,0,0,0,1.43,13.79,13.79,0,0,0,.18,1.44c0,.34.11.67.12.94s0,.71,0,1.08,0,.87.05,1.31.06.9.08,1.36l.06,1c0,.35,0,.7,0,1.05s0,.9,0,1.35,0,.67,0,1,0,.94,0,1.4.07.87.12,1.3.07.72.1,1.09a10.24,10.24,0,0,0,.24,1.5,7.48,7.48,0,0,1,.16.87,6.65,6.65,0,0,1,0,.84,9.92,9.92,0,0,0,0,1.57,8.18,8.18,0,0,1,0,1c0,.47,0,.94,0,1.41a13.3,13.3,0,0,0,.22,1.44c.06.31.13.62.16.94l.12,1.37.1,1c0,.34,0,.68,0,1s0,.92.07,1.38a8.38,8.38,0,0,0,.35,1.61,5.05,5.05,0,0,1,.2.82c.09.71.18,1.42.28,2.15l0,.29a3.72,3.72,0,0,1,0,.71,7.58,7.58,0,0,0,0,1.78,12.61,12.61,0,0,0,.34,1.46c.08.31.17.62.22.93l.07.42c.1.66.21,1.33.33,2,.06.34.1.69.14,1s.11.93.2,1.39a13.25,13.25,0,0,0,.39,1.46,7.63,7.63,0,0,1,.26.9c.06.35.11.69.16,1s.12.92.21,1.38a7.63,7.63,0,0,1,.12,1,12.51,12.51,0,0,0,.2,1.47,13.33,13.33,0,0,0,.36,1.38c.09.33.19.66.26,1a7.8,7.8,0,0,1,.13,1,12.67,12.67,0,0,0,.22,1.46,6.68,6.68,0,0,0,.66,1.68,3.71,3.71,0,0,1,.28.62,5.34,5.34,0,0,1,.06.8,8.56,8.56,0,0,0,.17,1.65c.08.34.14.69.19,1s.15.93.26,1.38a8.26,8.26,0,0,0,.57,1.56,5.79,5.79,0,0,1,.3.75c.08.33.13.67.18,1s.15.94.26,1.4.23.87.35,1.3.2.7.29,1.06a10.15,10.15,0,0,0,.51,1.45c.12.32.24.62.31.86s.15.7.22,1.05.18.9.29,1.34a7.1,7.1,0,0,1,.17.95,13.52,13.52,0,0,0,.27,1.46,9.29,9.29,0,0,1,.22,1c.08.47.17.93.29,1.38a13.75,13.75,0,0,0,.51,1.43,7.13,7.13,0,0,1,.32.88,14.25,14.25,0,0,0,.5,1.41c.11.3.23.6.32.9a5.85,5.85,0,0,1,.15.89,8.86,8.86,0,0,0,.28,1.54c.17.55.37,1,.55,1.47.12.28.24.56.33.84a2.19,2.19,0,0,0,2.09,1.52,2,2,0,0,0,.68-.11A2.2,2.2,0,0,0,392.49,359.23ZM231.9,298c-.83,0-1.64,0-2.5-.08l-.43,0a10.78,10.78,0,0,1-1.37-.18c-.51-.08-1-.16-1.56-.21-.93-.09-1.9-.18-2.94-.31l-.6-.08c-.75-.1-1.54-.19-2.36-.32-.47-.08-.95-.11-1.43-.15a9.19,9.19,0,0,1-1.38-.16,11.85,11.85,0,0,1-1.34-.42c-.45-.16-.91-.32-1.37-.45s-1-.23-1.51-.31a9.45,9.45,0,0,1-1.3-.28,13.36,13.36,0,0,1-1.37-.54c-.44-.18-.87-.37-1.31-.52s-.9-.3-1.34-.44-.95-.29-1.4-.46-1-.43-1.46-.65-.8-.38-1.18-.54c-.59-.24-1.11-.5-1.56-.72l-.53-.25a2.19,2.19,0,0,0-2.86.17l-.76.76c-.43.43-.85.86-1.31,1.27a9.52,9.52,0,0,1-1,.76c-.4.28-.87.6-1.31,1l-.87.75c-.44.38-.88.77-1.35,1.14s-.93.71-1.42,1.06l-.92.67c-.57.43-1.16.84-1.77,1.27l-1.37,1c-.54.38-1.08.77-1.65,1.15s-.93.62-1.42.92l-1.05.68c-.32.2-.63.41-.95.63l-1.52,1c-.42.27-.84.56-1.25.87s-.77.56-1.19.81-.78.44-1.19.66-.94.49-1.41.78a15.1,15.1,0,0,0-1.31.92,9.56,9.56,0,0,1-1.12.78c-.34.18-.75.35-1.19.53a15.38,15.38,0,0,0-1.54.69c-.5.26-1,.54-1.38.82s-.82.51-1.2.7l-1.66.79-1.06.49c-.47.23-1,.43-1.45.64s-.88.36-1.31.56c-.27.12-.52.27-.79.41,0-.27,0-.53,0-.74,0-.46.06-.92.08-1.38s0-.71.05-1.05a6.16,6.16,0,0,1,.18-.87,10.07,10.07,0,0,0,.29-1.54q.09-1.26.18-2.43a7.07,7.07,0,0,0-.15-1.82,3.91,3.91,0,0,1-.08-.64c0-.37.08-.72.13-1.07a13,13,0,0,0,.16-1.35c0-.36.09-.71.14-1.05a11.62,11.62,0,0,0,.18-1.37c0-.48,0-.94,0-1.38.5-.27,1-.57,1.56-.9s1-.64,1.49-1c.35-.25.71-.5,1.09-.74s.69-.4,1-.6a15.19,15.19,0,0,0,1.64-.95c.52-.35,1-.73,1.43-1.09s.68-.55,1-.8l.13-.1c.8-.57,1.6-1.14,2.38-1.72l1-.69c.53-.38,1.06-.76,1.56-1.16l.6-.47c.65-.5,1.27-1,1.85-1.5l2.25-2c.32-.29.65-.56,1-.83s.88-.75,1.29-1.13,1-.95,1.51-1.41l.67-.64a15.35,15.35,0,0,0,1.26-1.38c.25-.29.49-.59.75-.85s.62-.57.93-.83.87-.76,1.29-1.2,1-1.05,1.41-1.57l.61-.69c.46-.52.86-1,1.25-1.54.21-.28.43-.55.65-.82s.24-.27.36-.4c.29.33.58.67.91,1l.45.45c.54.55,1.11,1.12,1.7,1.7s1,.92,1.45,1.39l.77.73c.44.42.9.78,1.34,1.13s.69.54,1,.84.58.56.87.85.85.86,1.35,1.29c.27.23.54.48.82.73.48.44,1,.88,1.49,1.31.3.24.59.5.89.75.48.42,1,.84,1.48,1.24s1,.72,1.55,1c.35.21.71.43,1.05.68l.83.61c.56.42,1.13.84,1.74,1.24s1.08.67,1.65,1l1.07.61q1.32.81,2.73,1.59c.35.2.7.42,1,.64.52.33,1.06.68,1.66,1,.92.47,1.87.94,2.83,1.4.59.28,1.19.51,1.76.73.39.15.78.3,1.17.47.86.37,1.74.72,2.62,1.07l.38.15,1.33.5Zm21.21.12a6.55,6.55,0,0,1,.08,1.18c0,.22,0,.43,0,.63l-.38-.18a5.85,5.85,0,0,0-.87-.33l-1.3-.31-.08,0-.28-.06h-.05l-.16,0-.33,0c-.22,0-.45-.05-.68-.08l-1.42-.15-1.35-.15-.88-.06h-.29l-.5.05-.66.07-.61.07-.33.07-.64.16-.32.09-.15,0-.25.06-1.19.26c0-.06,0-.12,0-.17a5.39,5.39,0,0,1,.12-.88l0-.23a7.1,7.1,0,0,1,.3-1.06,5.9,5.9,0,0,1,.44-1,6.56,6.56,0,0,1,.64-.91,6.86,6.86,0,0,1,.76-.82,7.21,7.21,0,0,1,.92-.64,6.87,6.87,0,0,1,1-.46,5.69,5.69,0,0,1,1-.21l.13,0a5.7,5.7,0,0,1,1.1-.1A6.84,6.84,0,0,1,248,293l.34.06a5.45,5.45,0,0,1,.75.15A7.77,7.77,0,0,1,251,294.3a5.51,5.51,0,0,1,.58.64l.32.37a4.61,4.61,0,0,1,.53.7,6.52,6.52,0,0,1,.43,1A5.94,5.94,0,0,1,253.11,298.1Zm-11.45,42.68h0C241.6,340.81,241.62,340.8,241.66,340.78Zm7-.22Zm6.89-2.3h0Zm6.74-13.53v0Zm-4.14-16.3c.14.12.21.16.32.25l.13.09h0s0,0,.12.09l.09.09.22.35c.4.65,1,1.52,1.31,2.08.24.35.47.7.69,1.07l0,0h0l0,.05.06.2.07.2.09.3.09.3,0,.14,0,.14,0,0,0,.08.29.59.24.57,0,.05v0l0,.21,0,.21,0,.3.1.63c.05.4.11.8.17,1.2l0,.15V318l.07.31c.05.2.1.41.14.6l.1.47v.35c0,.12,0,.34,0,.53v.65c0,.39.05.78.05,1.16v.09h0l0,.18c0,.14,0,.2-.1.42l-.14.54-.12.58-.1.55-.06.27,0,.13v.07s0,0,0-.08l-.29,1a11.94,11.94,0,0,1-.7,1.63l-.48.92-.12.22,0,.06h0l0,0-.26.43-.48.76c-.17.25-.32.49-.53.75l-.22.29,0,0-.23.22c-.13.14-.42.37-.64.56l-1.36,1a4.65,4.65,0,0,0-.49.46c-.11.13-.26.28-.23.26v0c-.19-.1-.34-.19-.61-.31a4.7,4.7,0,0,0-1.22-.39l-.46-.06a1.34,1.34,0,0,0-1.42.77,1.36,1.36,0,0,0,.67,1.78l.35.15.17.08a2.78,2.78,0,0,1,.46.27c.06,0,.26.19.45.33s.28.25.38.37.16.16.16.2,0,0,.12.17l.11.2.06.1,0,.05h0l-.06-.1h0v0c0,.08.06.14.08.23s.05.19.05.26v.1a.53.53,0,0,1,0,.18v.37a.24.24,0,0,0,0-.07h0v.06a2.28,2.28,0,0,0,0,.26s0,.26-.09.45l-.09.28h0a2.41,2.41,0,0,1-.35.45,4.75,4.75,0,0,1-.59.51.73.73,0,0,1-.21.14l-.29.15-.23.13h0l-.1,0-.37.16-.65.17-.1,0h-.26a2,2,0,0,1-.49,0h-1c-.08,0-.12,0-.23,0l-.32-.06-.33-.06h-.11l0,0-.32-.07-.58-.26-.15-.07h0l-.1-.05a1.1,1.1,0,0,1-.37-.25l-.24-.2-.12-.1,0,0-.09-.09s-.17-.27-.25-.42l-.14-.26,0-.06v0h0c0-.06,0,0,0,.05a.38.38,0,0,0-.08-.11,2.58,2.58,0,0,1,0-.45v-.2l0-.19V338c0-.13,0-.24,0-.33s0-.15,0-.19,0,0,0,0l0-.11.08-.2v0l.06-.1a2.14,2.14,0,0,0,.1-.22c.11-.17.33-.39.47-.56l.05-.06h0l0,0,.14-.12.26-.18.1-.08.29-.12a1.39,1.39,0,0,0-.53-2.66h-.14a2.22,2.22,0,0,0-.33,0l-.62.21c-.19.09-.41.2-.65.34l-.35.24-.19.14-.23.2c-.11.12-.23.22-.35.34l-.11-.11-.16-.13,0,0-.12-.11h0l-.07-.05-.26-.17c-.17-.11-.29-.19-.47-.29a6.48,6.48,0,0,0-.61-.26c-.34-.13-.52-.18-.52-.18a1.11,1.11,0,0,0-.9.12,1.14,1.14,0,0,0-.39,1.57l.57.95a.27.27,0,0,0,.07.08.15.15,0,0,0,.09.05l.37.34.23.2.06.06h0s-.06-.06-.11-.09h0l0,0,.09.11a1.57,1.57,0,0,1,.17.21.55.55,0,0,1,.1.17l0,.05a.93.93,0,0,1,.08.17l.09.2,0,0h0c-.11-.22,0-.06,0-.11h0v.06a2.71,2.71,0,0,1,.07.54c0,.17,0,.34,0,.51h0a.89.89,0,0,0,0-.13h0v.23a.49.49,0,0,0,0,.12v.07l0,.14c-.05.16-.09.32-.14.48h0v0l-.06.09a1.92,1.92,0,0,1-.18.22l-.1.11-.22.21c-.08.08-.16.1-.23.17l-.1.09s-.17.1-.25.14l-.44.23h0l0,0-.1,0-.17.06a2.93,2.93,0,0,1-.54.15l-.33.08h-.12l-.41,0h-.88l-.22,0a8,8,0,0,1-1.16-.18,4.7,4.7,0,0,1-.74-.29l-.23-.11h0l-.07,0-.15-.08a.43.43,0,0,1-.19-.12l-.44-.39,0,0-.08-.08s-.06,0-.11-.11l-.14-.28-.14-.28h0l0,0,0,0h0l0,0a.28.28,0,0,0-.07-.09,4.48,4.48,0,0,1,0-.56v-.25h0v-.06c0-.14,0-.27,0-.38l0-.16a.17.17,0,0,0,0-.07s0,0,0-.1l.11-.23c0-.12.18-.25.24-.4s.28-.33.49-.51l.3-.26,0,0,0,0a1.7,1.7,0,0,1,.35-.19c.12-.06.22-.07.31-.11l.12,0,.17,0a2.29,2.29,0,0,0,.32-.08,1.4,1.4,0,0,0,.94-1.2,1.38,1.38,0,0,0-1.27-1.51,1.57,1.57,0,0,0-.32,0,4.86,4.86,0,0,0-1.17.2,3.86,3.86,0,0,0-.84.32l-.16.08,0,0-.2-.16-.28-.24-.28-.26-.23-.22-.57-.56-.25-.24v0l0,0-.08-.07-.17-.14c-.22-.19-.43-.39-.63-.59l-.11-.1v0l-.13-.26-.17-.33-.2-.4-.06-.11c-.11-.19,0-.06-.07-.11l0,0,0-.05-.14-.19-.29-.39-.27-.38-.09-.13h0l0-.08-.24-.73-.07-.24,0-.12,0-.05,0-.13-.19-.46-.2-.46-.09-.24-.05-.12v0l-.27-1-.07-.25,0-.13,0-.06v0c0-.14.05.17,0,.12l-.11-.51c-.08-.34-.15-.68-.22-1a5.78,5.78,0,0,0-.27-.83l-.06-.16,0-.07h0s0-.12,0-.19v0l0-.16c.17-1,.15-1.68.23-2.46v-.2h0v-.28c0-.19,0-.37,0-.56l0-.51,0-.15.06-.28c.08-.36.16-.72.23-1.07s.16-.77.26-1.17l0-.08.1-.27.22-.56.11-.29.05-.14h0l.26-.53.28-.55.07-.14,0-.07,0,0,0,0,.12-.16.65-.87.74-1.05.09-.13.05-.06v0l.13-.17.38-.5.36-.47.34-.44.21-.33c.18-.26,0,0,.17-.27l.06-.08.21-.17.5-.4.26-.21.12-.1,0,0-.1.08.07-.05,1-.77.08-.07s0,0,0,0h0l0,0,.18-.08.49-.21.3-.13.07,0h0l.16-.09.15-.11.58-.39.45-.3h0l.11,0,.2-.07,1.22-.36.64-.19.31-.09.08,0h.08l1.3-.28.57-.14.65-.15.25-.06h.13l.67-.06.33,0h.21l.45.05,1.31.15,2.31.24,1.3.3c.07,0,.25.11.37.15l.52.25.3.14,0,0,.13.05.07,0,.16,0c.2.08.41.14.61.23l.31.12.16.06.06,0,.46.24.58.31.12.06,0,0,.27.18.55.38.25.17h0l0,0h0l0,0s0,0,0,0l0,0,0,0,.16.2.34.44.23.25.13.13.06.05.12.11.24.22.49.44Zm-10.33,27.81h0S247.86,336.25,247.86,336.24Zm31.66-70.3c0,.07,0,.14-.07.2a4.81,4.81,0,0,0-.33,1.28c0,.21,0,.42-.05.63s0,.52-.07.77-.06.64-.07,1a3,3,0,0,1,0,.46c0,.09-.09.27-.15.43a7.54,7.54,0,0,0-.29.92c-.07.26-.11.53-.16.79a3.86,3.86,0,0,1-.12.59c-.06.21-.11.43-.17.64a6.68,6.68,0,0,1-.21.73l-.18.55c-.09.27-.17.53-.27.79s-.28.63-.42.94l-.34.73q-.19.47-.42.9l-.14.27c-.17.34-.34.67-.52,1s-.25.37-.38.56-.29.4-.42.61-.27.37-.41.55-.3.38-.44.58-.28.41-.42.62a5.36,5.36,0,0,1-.38.55,4.27,4.27,0,0,1-.41.44c-.19.2-.38.39-.56.59l-.4.48c-.17.2-.33.41-.51.6-.33.34-.66.68-1,1a4.35,4.35,0,0,1-.42.33,7.25,7.25,0,0,0-.7.54,5.43,5.43,0,0,0-.72.75,2.33,2.33,0,0,1-.26.28c-.37.3-.75.59-1.13.86a8.42,8.42,0,0,0-.73.61l-.36.31-1.14.69-.19,0a4.33,4.33,0,0,0-1.28.41,5.33,5.33,0,0,0-1,.7l-.14.12-.18,0a5.11,5.11,0,0,0-1.26.29c-.43.18-.87.34-1.31.5a5.73,5.73,0,0,0-1.05.51l-.22.14-.58.17a7.67,7.67,0,0,1-.78.23c-.33.08-.66.14-1,.2h0a8.36,8.36,0,0,0-.82-1.09l-.27-.33a9,9,0,0,0-1.1-1.16,11.9,11.9,0,0,0-1.48-1,9.92,9.92,0,0,0-1.64-.78,7.28,7.28,0,0,0-1.48-.35l-.29-.05a10.7,10.7,0,0,0-1.8-.14,9.61,9.61,0,0,0-1.79.16l-.12,0a8.77,8.77,0,0,0-1.64.39,10,10,0,0,0-3.13,1.8,10.47,10.47,0,0,0-1.14,1.18l-.06,0-.49-.19-1.15-.48a2.92,2.92,0,0,1-.28-.21,6.52,6.52,0,0,0-.91-.6l-.5-.25c-.26-.12-.51-.25-.76-.39a5,5,0,0,0-1.11-.46l-.22-.07a2.58,2.58,0,0,1-.41-.33c-.23-.2-.46-.39-.7-.57a9.6,9.6,0,0,0-.83-.5,2.41,2.41,0,0,1-.33-.19.91.91,0,0,1-.11-.16,5,5,0,0,0-.85-1c-.36-.31-.71-.62-1-1a4.94,4.94,0,0,0-1.07-.74l-.19-.11a4.24,4.24,0,0,1-.31-.4c-.17-.23-.34-.45-.52-.66a3.37,3.37,0,0,1-.19-.32,6.75,6.75,0,0,0-.57-.89c-.18-.22-.37-.43-.56-.64a3.81,3.81,0,0,1-.37-.43l-.46-.59c-.14-.17-.28-.35-.38-.5s-.07-.2-.1-.29a5.91,5.91,0,0,0-.46-1.07,6.72,6.72,0,0,0-.51-.76,2.79,2.79,0,0,1-.28-.42,2.68,2.68,0,0,1-.18-.47,8.78,8.78,0,0,0-.33-.85c-.13-.28-.23-.56-.34-.84l-.18-.47a5.65,5.65,0,0,0-.6-1.05l-.12-.15a1.65,1.65,0,0,1,0-.31,4.81,4.81,0,0,0-.64-2.18l-.12-.22c0-.1,0-.2,0-.3a5.12,5.12,0,0,0-.08-1.17c0-.18-.07-.36-.11-.54s-.12-.56-.16-.84,0-.47,0-.71,0-.46-.05-.69c0-.47-.07-.94-.1-1.41a4.29,4.29,0,0,0-.33-1.4.78.78,0,0,1-.05-.14,4.55,4.55,0,0,1,0-.52c0-.26.05-.51.07-.77l0-.54a8.51,8.51,0,0,1,0-.88,6.17,6.17,0,0,1,.11-.62c0-.26.1-.52.14-.78s.13-.75.2-1.12l0-.27c.06-.31.14-.61.21-.91l.23-1c.07-.3.14-.59.22-.88a6.42,6.42,0,0,0,.2-1c0-.11,0-.24.06-.33l.08-.1a4.44,4.44,0,0,0,.77-1.2c.11-.28.19-.57.28-.85a4.16,4.16,0,0,1,.16-.5c.1-.21.22-.4.33-.6s.24-.42.35-.63a6.34,6.34,0,0,1,.37-.62l.36-.59a4.81,4.81,0,0,0,.48-1.28,1,1,0,0,1,0-.17l.29-.36a8.33,8.33,0,0,0,.54-.67c.18-.25.33-.52.49-.79a4,4,0,0,1,.23-.39,2.31,2.31,0,0,1,.24-.2,5.22,5.22,0,0,0,.87-.78c.26-.3.53-.58.8-.86l.16-.17a5.64,5.64,0,0,0,.71-.95c.05-.09.1-.18.13-.22.31-.3.64-.59,1-.87l.08-.07a2.91,2.91,0,0,1,.3-.17,5.69,5.69,0,0,0,.93-.58l.58-.49c.16-.14.33-.29.51-.42a3.08,3.08,0,0,1,.38-.2,7.43,7.43,0,0,0,.88-.47,6.67,6.67,0,0,0,.84-.66c.09-.08.17-.17.23-.21a2.46,2.46,0,0,1,.29-.09,6.4,6.4,0,0,0,1.09-.41,4.37,4.37,0,0,0,1.15-.91l.06-.06.19,0a5.66,5.66,0,0,0,1.1-.29l.59-.25a7.06,7.06,0,0,1,.71-.29,2,2,0,0,1,.35-.06,5.53,5.53,0,0,0,1.06-.2,4.33,4.33,0,0,0,1.22-.59l.14-.09.33,0a6.85,6.85,0,0,0,1-.1,8,8,0,0,0,.93-.25l.45-.13.44-.06c.32,0,.64-.1,1-.13l.39,0c.33,0,.67,0,1,0a2.47,2.47,0,0,1,.38,0,7.2,7.2,0,0,0,1,.09,4.31,4.31,0,0,0,1.46-.29l.12,0c.22,0,.45,0,.68.07l.54.06a2.63,2.63,0,0,1,.3.09,5.12,5.12,0,0,0,1.12.3c.47.07.93.15,1.39.24l.15,0,1.23.25.78.23.57.18a5.83,5.83,0,0,0,1.2.19h.22a5.79,5.79,0,0,1,.57.25c.24.12.49.23.71.32a1.73,1.73,0,0,1,.28.19,6.08,6.08,0,0,0,1,.57,6.57,6.57,0,0,0,1.07.35,1.77,1.77,0,0,1,.29.07l.64.31a6.19,6.19,0,0,1,.63.32l.64.34c.21.11.42.22.62.34a6,6,0,0,1,.49.39c.21.16.42.33.63.48s.32.27.48.4.4.36.6.52a2.14,2.14,0,0,1,.28.3,6.71,6.71,0,0,0,.71.73c.22.19.46.37.7.54a3.32,3.32,0,0,1,.42.32,5.8,5.8,0,0,0,.93.69l.23.15a4.23,4.23,0,0,1,.32.42c.18.25.35.49.55.72s.61.72.9,1.09a4.13,4.13,0,0,1,.32.49c.14.24.29.48.45.7a3.36,3.36,0,0,1,.22.42c.14.28.29.56.46.83l.38.57a6.25,6.25,0,0,1,.4.6c.16.27.34.52.53.78a3.39,3.39,0,0,1,.27.39,6.14,6.14,0,0,1,.25.59q.14.36.3.72a4,4,0,0,1,.17.52c.08.27.17.55.28.82a6.11,6.11,0,0,0,.55,1,1.76,1.76,0,0,1,.15.23l.21.59q.15.36.27.75c.06.23.14.46.22.69s.16.44.21.64,0,.23,0,.34a5.81,5.81,0,0,0,.09,1.11,6,6,0,0,0,.33,1.07,2.75,2.75,0,0,1,.11.29c.06.47.11,1,.15,1.42a2.69,2.69,0,0,1,0,.49,7.38,7.38,0,0,0,0,.94,8.17,8.17,0,0,0,.09.85,5.54,5.54,0,0,1,.05.56C279.55,265.05,279.54,265.5,279.52,265.94ZM243,336.48Zm13.64-19.33a8,8,0,0,0-1.78-.88,7.46,7.46,0,0,0-1.94-.44,7,7,0,0,0-2,.13,7.62,7.62,0,0,0-1.91.57,7.92,7.92,0,0,0-1.64,1.14,7.29,7.29,0,0,0-1.41,1.5c0,.06-.08.14-.12.21a4.83,4.83,0,0,0-.71-1.14,8.15,8.15,0,0,0-1.49-1.32,7.75,7.75,0,0,0-1.8-.85,8.16,8.16,0,0,0-1.94-.41,7.69,7.69,0,0,0-2,0,7.23,7.23,0,0,0-3.55,1.73A7.09,7.09,0,0,0,233,319a8.69,8.69,0,0,0-.89,1.9,6.66,6.66,0,0,0-.36,3.92,7,7,0,0,0,.72,1.92,8,8,0,0,0,1.11,1.69,7.12,7.12,0,0,0,1.47,1.27,6.6,6.6,0,0,0,3.7,1.22h.35a6.65,6.65,0,0,0,4.84-1.79l.16-.14a7.46,7.46,0,0,0,1.36-1.55l.12-.19a8.82,8.82,0,0,0,1,1.37,7.69,7.69,0,0,0,1.45,1.3,7.2,7.2,0,0,0,1.78.83l.1,0a6.65,6.65,0,0,0,1.83.41h.22a8.63,8.63,0,0,0,3.57-.89,8,8,0,0,0,1.61-1.05,7,7,0,0,0,1.31-1.61,7.92,7.92,0,0,0,.91-1.8,8.26,8.26,0,0,0,.43-2,7.65,7.65,0,0,0-.09-2.1,4.8,4.8,0,0,0-.43-1.3l-.16-.37a6.83,6.83,0,0,0-1-1.63A8.08,8.08,0,0,0,256.6,317.15ZM244,324.84a6,6,0,0,1-.67,1.23,4.7,4.7,0,0,1-.88,1l-.17.14a5.31,5.31,0,0,1-.9.68,5.66,5.66,0,0,1-1.26.4,5,5,0,0,1-1.29.11,4.3,4.3,0,0,1-1.26-.22,4.74,4.74,0,0,1-1.15-.57,4.86,4.86,0,0,1-1.75-2,5,5,0,0,1-.5-1.26,4.23,4.23,0,0,1,.27-2.62l0-.1a5.72,5.72,0,0,1,.59-1.26,4.44,4.44,0,0,1,.89-1c.1-.09.19-.15.28-.22a4.11,4.11,0,0,0-.34.51,4.4,4.4,0,0,0-.42,1.53,4.26,4.26,0,0,0,.11,1.58,4.15,4.15,0,0,0,.73,1.38,4,4,0,0,0,1.18,1,4,4,0,0,0,3,.34,4,4,0,0,0,1.4-.76,4.25,4.25,0,0,0,1-1.25,4.2,4.2,0,0,0,.46-1.52,4.32,4.32,0,0,0-.14-1.59,4.08,4.08,0,0,0-.41-.9,5,5,0,0,1,.4.4,4.74,4.74,0,0,1,.55,1,3.69,3.69,0,0,1,.34,1l0,.18a5,5,0,0,1,.12,1.37A6.59,6.59,0,0,1,244,324.84Zm13.28-1.18a6.1,6.1,0,0,1-.31,1.39,5.47,5.47,0,0,1-.64,1.23,5,5,0,0,1-.83,1.07,5.63,5.63,0,0,1-1.14.73,5.09,5.09,0,0,1-1.24.45,5.42,5.42,0,0,1-1.18.16h-.11a4.38,4.38,0,0,1-1.14-.28l-.11,0a4.8,4.8,0,0,1-1.16-.53,5,5,0,0,1-1-.88,5.64,5.64,0,0,1-.83-1.13,4.74,4.74,0,0,1-.37-1.3,4.92,4.92,0,0,1-.09-1.35,5.21,5.21,0,0,1,.26-1.38,5.47,5.47,0,0,1,.62-1.26,3.69,3.69,0,0,1,.63-.7,4.17,4.17,0,0,0-.39,1.43,4.24,4.24,0,0,0,.11,1.58,4,4,0,0,0,.72,1.4,3.87,3.87,0,0,0,4.24,1.37,3.94,3.94,0,0,0,1.39-.77,4.12,4.12,0,0,0,1-1.25,4.42,4.42,0,0,0,.47-1.52,4.31,4.31,0,0,0-.17-1.58,4,4,0,0,0-.43-1,5.76,5.76,0,0,1,.62.6,4.33,4.33,0,0,1,.6,1l.18.41a2.58,2.58,0,0,1,.25.77A5.12,5.12,0,0,1,257.28,323.66Z" style="fill: #1d1d1b"/>
  </g>
</svg>
