<svg xmlns="http://www.w3.org/2000/svg" viewBox="0 0 500 500">
  <title>stars4</title>
  <g>
    <path d="M270.24,240.29c-.06.51-.19.51-.18,1s.31.51.32,1-.21.51-.2,1c0,.32,0,.63,0,.94s.27.63.27.94-.25.64-.24,1-.05.64,0,.95.26.62.28.92-.13.65-.11.95.3.61.33.92,0,.63,0,.94.17.61.21.92.08.62.14.92.14.62.21.92,0,.63.11.93,0,.65.12.94.25.59.35.88.12.63.23.92.31.56.44.84.46.47.61.73.08.7.25.95.62.33.81.57.42.45.63.68a8.23,8.23,0,0,0,.59.71c.24.21.4.5.65.68s.48.42.75.58.67.08.95.22.52.35.81.46.53.39.83.48.61.19.92.26.65-.08,1,0,.58.32.9.36.63,0,.95,0,.62.07.94.09.62,0,.94,0c-.48,0-.47.14-.95.17s-.5-.21-1-.17c-.31.06-.59.29-.88.36s-.63.06-.92.16-.53.35-.81.46-.69,0-1,.1-.55.3-.81.45-.47.43-.72.6-.46.42-.7.62-.45.4-.68.62-.51.35-.72.58-.28.56-.47.8-.64.29-.82.55,0,.72-.17,1-.61.36-.75.64-.15.61-.28.9-.15.6-.27.89-.14.59-.24.89-.17.58-.26.88-.32.55-.39.85-.18.59-.24.89,0,.62-.1.93-.35.56-.4.87,0,.62-.05.93-.05.62-.08.93-.21.59-.24.9-.05.62-.07.93.06.62,0,.93.2.63.19.94-.34.6-.35.92.16.62.15.93-.11.61-.11.93.06.61.06.93-.07.62-.06.93-.08.62-.07.93c0-.49,0-.49,0-1s.32-.51.31-1-.36-.49-.37-1c0-.32.22-.65.21-1s-.15-.63-.17-1,0-.63,0-.95,0-.64,0-.95-.28-.6-.33-.91,0-.64-.05-.95-.17-.61-.23-.92,0-.65-.06-1-.35-.56-.43-.87.12-.69,0-1-.17-.62-.27-.92-.29-.57-.4-.86-.38-.54-.51-.82-.23-.59-.36-.88-.2-.61-.35-.88-.33-.55-.49-.82-.23-.61-.4-.87-.53-.41-.71-.67-.32-.55-.52-.79-.38-.52-.59-.75-.58-.32-.8-.54-.37-.52-.61-.72-.35-.59-.6-.77-.68-.14-.95-.3-.42-.55-.7-.69-.6-.25-.9-.36a32.38,32.38,0,0,0-1.9-.17c-.31,0-.6-.35-.92-.35s-.39,0-.79,0-.39-.06-.78-.08-.4,0-.79,0c.31,0,.62,0,.92,0s.62-.16.93-.17.61,0,.91,0,.63.05.93,0,.67.13,1,.06.53-.42.82-.52a8.48,8.48,0,0,0,.9-.24c.29-.13.47-.43.74-.59s.61-.18.87-.35.45-.42.69-.63.54-.32.76-.55.52-.37.72-.62.17-.64.35-.9.31-.53.47-.8.45-.45.6-.73.24-.57.37-.85.31-.55.42-.84,0-.66.11-.95.27-.56.37-.86.27-.56.35-.87.12-.61.19-.91,0-.62.11-.93.33-.56.39-.87.12-.61.17-.92,0-.62.08-.94.12-.6.16-.92-.15-.64-.12-.95.4-.58.43-.9-.24-.64-.22-1,.14-.61.16-.93-.05-.62,0-.93,0-.62,0-.94,0-.61,0-.93.36-.61.37-.92,0-.62,0-.94,0-.61,0-.93.11-.62.1-.94A5.17,5.17,0,0,1,270.24,240.29Zm-42.85,12.14c0-.32,0-.63,0-.94s.19-.63.2-.94.11-.63.12-.94,0-.63.07-.94-.14-.65-.11-1,.15-.62.18-.93-.15-.65-.12-.95.19-.62.22-.93.05-.63.1-.93.11-.62.16-.93.2-.6.26-.91,0-.65,0-.95.21-.6.28-.9.08-.64.16-.93.07-.65.16-.94.19-.61.3-.9.28-.58.4-.86.39-.52.52-.79a8.78,8.78,0,0,1,.54-.77c.16-.28.08-.7.25-1s.6-.34.79-.58.41-.46.63-.68a7,7,0,0,1,.6-.71c.25-.2.4-.53.66-.7s.55-.34.83-.48.64-.11.93-.22a9,9,0,0,1,.93-.17c.29-.08.54-.43.86-.48s.63.06.95,0,.62-.19.94-.2.62,0,.94.05c-.57,0-.58.28-1.16.26s-.57-.34-1.14-.36a4.6,4.6,0,0,1-.91-.09c-.31-.05-.66.09-1,0a7.36,7.36,0,0,1-.83-.44c-.28-.14-.53-.32-.8-.49s-.54-.31-.78-.51-.41-.47-.64-.7-.51-.37-.72-.61-.28-.56-.47-.82-.58-.35-.75-.61-.33-.54-.49-.81-.26-.58-.4-.86-.07-.65-.2-.94-.27-.55-.39-.84-.28-.56-.39-.85-.42-.52-.52-.82-.12-.62-.2-.92-.11-.62-.19-.93-.15-.6-.21-.91,0-.63-.07-.94-.09-.62-.13-.93,0-.63,0-.94-.33-.6-.35-.92.15-.63.15-.94-.23-.63-.22-.95c0-.52,0-.52,0-1s0-.53,0-1.06.12-.52.14-1c0,.31.13.62.13.92s-.2.62-.2.92.18.63.17.93.06.62.05.92,0,.63,0,.93-.33.59-.36.89.06.63,0,.93.1.63.06.93-.12.61-.16.91,0,.63-.08.93-.25.58-.31.88-.27.57-.33.87-.08.61-.15.9-.12.61-.21.9-.13.61-.23.89-.17.6-.29.88-.33.53-.46.8-.28.55-.43.81-.27.55-.44.81-.27.56-.46.8-.46.42-.66.64-.41.47-.64.67-.57.26-.82.43a7.66,7.66,0,0,1-.76.5c-.26.15-.52.28-.8.41a8.6,8.6,0,0,1-.84.33c-.29.1-.52.37-.83.45s-.6.06-.91.11a8.31,8.31,0,0,1-.87,0c-.44,0-.44.08-.88.1s-.43.06-.87.07c.32,0,.63-.13.95-.12s.64,0,1,.07.65,0,1,0,.64.12.94.19.61.2.91.31.51.43.79.56a8.13,8.13,0,0,1,.82.45c.28.15.69.09,1,.27s.32.6.56.81a8.22,8.22,0,0,1,.66.66c.21.23.6.31.79.57s.45.46.63.73.16.63.31.92.3.54.44.84.19.59.3.89.37.54.47.85.2.59.29.9-.05.66,0,1,.24.59.3.9.08.63.13.95.12.61.16.93.1.62.13.94.07.63.1,1,.06.62.08.94.06.63.07,1-.19.63-.19,1,.21.63.2.95-.09.63-.09,1-.16.43-.19.87-.06.44-.1.88S227.43,252,227.39,252.43Z" style="fill: #fff381"/>
    <path d="M270.89,292a2,2,0,0,1-1.93-1.46h0a2.34,2.34,0,0,1-.07-.45h0v0h0a4.2,4.2,0,0,1,0-.51c0-.11,0-.22,0-.45a2.62,2.62,0,0,1,.14-1,.13.13,0,0,0,0-.06,2.78,2.78,0,0,1-.19-1,3.41,3.41,0,0,1,.17-1s0-.08,0-.12a4,4,0,0,1-.1-.68c0-.15,0-.31,0-.47a2.75,2.75,0,0,0,0-.41,4.85,4.85,0,0,1,0-.66v-.1a3.77,3.77,0,0,1-.33-1,4.78,4.78,0,0,1,0-.76v-.17l-.08-.28c-.05-.18-.1-.36-.14-.54a3.92,3.92,0,0,1-.07-.84,3.27,3.27,0,0,1-.39-.87,3,3,0,0,1,0-1.25l0-.12c0-.14-.07-.28-.12-.41s-.08-.16-.11-.24a4.81,4.81,0,0,1-.22-.46l-.05-.07a3.6,3.6,0,0,1-.47-.78l-.17-.41c-.05-.14-.11-.27-.17-.4s-.17-.42-.25-.64a1.46,1.46,0,0,0-.07-.19,3,3,0,0,0-.2-.34l-.24-.39a6.27,6.27,0,0,1-.32-.69h0a3.17,3.17,0,0,1-.68-.69,5.14,5.14,0,0,1-.32-.49,1.35,1.35,0,0,0-.14-.22l-.24-.31-.16-.21a3.73,3.73,0,0,1-.83-.58,4.34,4.34,0,0,1-.48-.58l-.09-.12a2.22,2.22,0,0,1-.44-.49,3.2,3.2,0,0,1-.79-.32,3.09,3.09,0,0,1-.78-.71L260,268h0a3.86,3.86,0,0,1-.87-.09s0,0-.09,0c-.21,0-.41,0-.62,0a2.9,2.9,0,0,1-1-.33,4.6,4.6,0,0,1-.6,0l-.26,0h-.27l-.8-.05h-.26a2,2,0,0,1,.3-4h0a3.57,3.57,0,0,1,.76,0h.09a3.42,3.42,0,0,1,.75-.11c.27,0,.54,0,.8,0a3.76,3.76,0,0,1,.75,0h.11a2.34,2.34,0,0,1,.7,0,2.42,2.42,0,0,1,.7-.36,6.29,6.29,0,0,1,.62-.17,4.27,4.27,0,0,1,.67-.51,4.44,4.44,0,0,1,.78-.32h0l.09-.1.36-.34a6,6,0,0,1,.58-.41l.12-.08a3.25,3.25,0,0,1,.4-.34,2.9,2.9,0,0,1,.4-.87l.2-.33.19-.35a4.43,4.43,0,0,1,.56-.7l0,0c0-.08.07-.17.11-.26s.11-.26.17-.4.16-.32.25-.48l.05-.09a3,3,0,0,1,.16-1.05,5.18,5.18,0,0,1,.26-.6l.09-.19a4,4,0,0,1,.26-.65l.08-.17c0-.09,0-.2.06-.31s.06-.35.1-.53a.38.38,0,0,0,0-.13,6,6,0,0,1,.09-.74,3.43,3.43,0,0,1,.42-1c0-.26.09-.47.12-.69a1.14,1.14,0,0,0,0-.26c0-.21,0-.43.06-.64s.06-.34.09-.51l0-.18a3.2,3.2,0,0,1-.09-1.11,2.55,2.55,0,0,1,.29-.93,2.39,2.39,0,0,1-.08-.87,5.52,5.52,0,0,1,.11-.71.79.79,0,0,0,0-.2,1.21,1.21,0,0,0,0-.18,5.93,5.93,0,0,1,0-.73l0-.91c0-.11,0-.23,0-.34a5.42,5.42,0,0,1,0-.57,2.54,2.54,0,0,1,.2-.9,2.8,2.8,0,0,1-.09-.68,3.32,3.32,0,0,1,.17-1.17h0s0-.07,0-.1h0c0-.13,0-.24,0-.33s0-.21,0-.31l0-.19a2,2,0,0,1,4,0,3.58,3.58,0,0,1-.1,1.05h0c0,.1,0,.2,0,.31s0,.39,0,.58,0,.21,0,.32a.91.91,0,0,1,0,.17,2.74,2.74,0,0,1,.08.64,3.08,3.08,0,0,1-.2,1.19V244a3,3,0,0,1,.27,1.15,3,3,0,0,1-.24,1.22l0,.39v.08a3.58,3.58,0,0,1,.26,1.05,3.08,3.08,0,0,1-.05.84,3.27,3.27,0,0,1,.27.94c0,.23,0,.46,0,.68v.22a1.66,1.66,0,0,0,.06.21,5.23,5.23,0,0,1,.15.66l.06.42.06.44c0,.16.07.3.1.44s.07.28.1.42a6.09,6.09,0,0,1,.1.73,1,1,0,0,0,0,.17,4,4,0,0,1,.1.82V255a1.3,1.3,0,0,0,.08.17c.08.18.16.37.22.55a4.21,4.21,0,0,1,.18.72.94.94,0,0,0,0,.16s.07.12.12.21l.16.29h0a3.6,3.6,0,0,1,.63.79,2.52,2.52,0,0,1,.27.69,2.67,2.67,0,0,1,.62.56c.11.13.21.24.32.35l.2.2a6.54,6.54,0,0,1,.41.51l.09.13a4.14,4.14,0,0,1,.44.47l.08.08.35.29,0,0a3,3,0,0,1,1,.26c.19.1.37.21.56.33l.14.09a3.39,3.39,0,0,1,.8.45l0,0c.13,0,.27.09.41.12a3.14,3.14,0,0,1,1.06,0,3.39,3.39,0,0,1,.91.32,4.82,4.82,0,0,1,.76,0l.45.05.42,0H285a2,2,0,0,1,.16,4l-.11,0a3.86,3.86,0,0,1-.92.15H284a3.27,3.27,0,0,1-.69-.08,3.45,3.45,0,0,1-1.29.32h0a4.21,4.21,0,0,1-.74.42,2.83,2.83,0,0,1-1.13.18l-.17.11-.25.17a4.34,4.34,0,0,1-.58.48l-.13.13a4.09,4.09,0,0,1-.44.39l-.38.35-.18.17a4.45,4.45,0,0,1-.53.42l0,0a3.42,3.42,0,0,1-.44.73,2.26,2.26,0,0,1-.54.5,2.42,2.42,0,0,1-.3.82,2.78,2.78,0,0,1-.73.78,4.27,4.27,0,0,1-.2.56s0,.07,0,.12a6.55,6.55,0,0,1-.2.67c0,.06,0,.12-.05.19a6.29,6.29,0,0,1-.17.62c-.05.14-.08.29-.12.43l-.11.38a3.81,3.81,0,0,1-.37.82l0,.06-.09.29c0,.15-.08.29-.11.44a.71.71,0,0,0,0,.16,5.56,5.56,0,0,1-.08.7,3,3,0,0,1-.38,1h0a5.79,5.79,0,0,1,0,.72c0,.13,0,.26,0,.4s0,.32-.05.48a3.84,3.84,0,0,1-.21.86l0,.09,0,.44,0,.37s0,.07,0,.12a4.84,4.84,0,0,1,0,.53,3.18,3.18,0,0,1,.19,1.15,2.63,2.63,0,0,1-.28,1.05,2.66,2.66,0,0,1,.08.74,4.38,4.38,0,0,1-.07.71,2.68,2.68,0,0,1,.19.93,2.78,2.78,0,0,1-.23,1.2,4.72,4.72,0,0,1,0,.64.88.88,0,0,0,0,.17v0a2,2,0,0,1-.81,1.6,2,2,0,0,1-1,.39h-.17Zm-.53-17.83.05.06a5.5,5.5,0,0,1,.31.47l.06-.22c.06-.22.12-.45.2-.66s0-.14,0-.21a5.2,5.2,0,0,1,.22-.77.62.62,0,0,0,0-.16,4.81,4.81,0,0,1,.27-.82v-.05a3.76,3.76,0,0,1,.32-.95,2.8,2.8,0,0,1,.65-.79,2.51,2.51,0,0,1,.4-1,2.72,2.72,0,0,1,1-.85,3.29,3.29,0,0,1,.5-.73,4.77,4.77,0,0,1,.71-.61l.13-.09.14-.13c.21-.2.42-.4.64-.58a1,1,0,0,0,.15-.14,4.78,4.78,0,0,1,.67-.56l.07-.07.13-.13h0a3.07,3.07,0,0,1-1.23-.38,6.45,6.45,0,0,1-.72-.53l-.18-.15a4.54,4.54,0,0,1-.73-.7l-.09-.12a3.92,3.92,0,0,1-.61-.7,1.13,1.13,0,0,1-.1-.13l-.15-.16-.38-.4a2.79,2.79,0,0,1-1.12-.95,2.76,2.76,0,0,1-.42-1.11,3.2,3.2,0,0,1-.58-.82l-.12-.22a6,6,0,0,1-.36-.72,4.83,4.83,0,0,1-.24-.86l0-.17c0,.07-.07.14-.1.22l0,0a2.91,2.91,0,0,1-.2,1.17,6.5,6.5,0,0,1-.34.7l-.12.23a2.33,2.33,0,0,0-.11.28c-.1.23-.2.45-.31.67a3.57,3.57,0,0,1-.65.86l-.14.21c-.09.17-.18.33-.28.49a3.11,3.11,0,0,1-.57,1.21,4,4,0,0,1-.75.69l-.12.09a4.15,4.15,0,0,1-.76.59l-.12.08a1.35,1.35,0,0,0-.15.13,5.26,5.26,0,0,1-.67.59,3.74,3.74,0,0,1-.54.3,2.59,2.59,0,0,1,.31.19,3.36,3.36,0,0,1,.84,1v0a4.42,4.42,0,0,1,.51.6l0,0a3.49,3.49,0,0,1,.95.7c.17.19.32.4.48.6l.18.24a6.16,6.16,0,0,1,.44.65.41.41,0,0,0,.07.11h0a3.34,3.34,0,0,1,.83.85,5,5,0,0,1,.4.81,1,1,0,0,0,.06.16l.16.25c.12.2.25.41.36.62a5,5,0,0,1,.31.76,1.59,1.59,0,0,0,.07.2c.1.21.19.42.28.64ZM227.62,207h0a2,2,0,0,1,2,1.95l0,.12a4.66,4.66,0,0,1,.1.88,3.15,3.15,0,0,0,0,1.89,1.49,1.49,0,0,0,0,.21,6.19,6.19,0,0,1,0,.74l0,.35c0,.2,0,.41,0,.6a1.44,1.44,0,0,0,.08,1,6.59,6.59,0,0,1,0,.77.81.81,0,0,0,0,.16l0,.13c0,.23.05.45.09.67a6,6,0,0,1,.06.73v.18c0,.13.07.3.12.47l.08.34c0,.17.07.35.1.52s0,.22.07.33.09.4.13.61v.08a3.19,3.19,0,0,1,.53.9,2.06,2.06,0,0,0,.12.26q.14.26.24.51c.06.16.14.31.21.46l.15.31a3.29,3.29,0,0,1,.26,1.08c0,.09.09.18.13.27a1.69,1.69,0,0,0,.12.27l.11.19.18.32a2.88,2.88,0,0,1,.82.73,3.42,3.42,0,0,1,.42.72h0l0,0a4.65,4.65,0,0,1,.53.45,5.74,5.74,0,0,1,.41.45l.12.15.22.13c.13.07.25.15.37.23a5.23,5.23,0,0,0,.59.37c.15.07.29.16.43.24a3.64,3.64,0,0,1,.82,0,3,3,0,0,0,.58.06,3.79,3.79,0,0,1,.75.1,2.92,2.92,0,0,1,.54-.05h.18l.59,0,.29,0a2,2,0,0,1,.08,4,3.08,3.08,0,0,1-1.32.27,3.4,3.4,0,0,1-.78-.11h-.4a2.79,2.79,0,0,1-.85.39c-.22.05-.44.09-.67.12l-.15,0a3.19,3.19,0,0,1-.74.16h0l-.37.22v0a4.34,4.34,0,0,1-.54.58l-.06.08a4.77,4.77,0,0,1-.45.54c-.18.18-.34.36-.5.55a2.87,2.87,0,0,1-.57.51,2.51,2.51,0,0,1-.29.75,6,6,0,0,1-.4.58.64.64,0,0,0-.1.13,4.3,4.3,0,0,1-.43.65l-.06.08-.18.38a1.92,1.92,0,0,0-.14.29c-.09.24-.17.5-.25.75a1.22,1.22,0,0,0,0,.17,4.64,4.64,0,0,1-.13.76,1.46,1.46,0,0,0,0,.22c0,.21-.06.43-.11.65a5,5,0,0,1-.2.62.78.78,0,0,1-.05.14v0a3.21,3.21,0,0,1,0,.95,4.67,4.67,0,0,1-.19.71l-.06.17c0,.14-.05.3-.08.46s0,.27-.07.4,0,.28-.05.42,0,.32,0,.48a4.62,4.62,0,0,1-.18.8,3.25,3.25,0,0,1,.08,1,5.32,5.32,0,0,1-.14.78s0,0,0,.06a3.67,3.67,0,0,1,.1,1l0,.44,0,.48a5.4,5.4,0,0,1-.08.69c0,.07,0,.15,0,.23a3.53,3.53,0,0,1-.19,1v0c0,.07,0,.13,0,.2v0a3,3,0,0,1,0,.74,2,2,0,0,1-2.1,1.82,2,2,0,0,1-1.89-2v-.09a3.27,3.27,0,0,1,0-1c0-.25.05-.39.07-.52s0-.14,0-.29a3.24,3.24,0,0,1,.18-.92c0-.17,0-.38.07-.59v-.09a3.31,3.31,0,0,1-.19-1,3.44,3.44,0,0,1,.18-1.09,1.8,1.8,0,0,0,0-.22c0-.17,0-.35,0-.52s0-.3,0-.45,0-.3,0-.45,0-.38-.05-.56l0-.34c0-.14,0-.28-.06-.42s0-.31-.07-.46,0-.31-.07-.46-.05-.28-.07-.42,0-.3-.07-.45a3,3,0,0,0-.06-.43l0-.13a4.41,4.41,0,0,1-.23-.7,3.46,3.46,0,0,1,0-1.08c0-.11-.08-.22-.11-.33l-.11-.27a3.37,3.37,0,0,1-.42-.78c-.07-.17-.12-.34-.18-.51a1.43,1.43,0,0,0-.09-.27c-.09-.21-.2-.4-.3-.6l-.07-.12a4,4,0,0,1-.32-.87l0-.05c-.08-.09-.16-.17-.23-.26A3.13,3.13,0,0,1,222,235c-.17-.18-.34-.34-.52-.51a2.64,2.64,0,0,1-.48-.57,2.5,2.5,0,0,1-.7-.28l-.13-.08c-.17-.09-.33-.19-.51-.27a3.42,3.42,0,0,1-.85-.58l-.06,0c-.15-.05-.29-.11-.44-.15s-.52-.12-.79-.16c0,0,0,0-.09,0a4.33,4.33,0,0,1-.72,0l-.16,0-.27,0-.36,0-.22,0a5.81,5.81,0,0,1-.65.06h0a2,2,0,0,1-2.06-1.94,2,2,0,0,1,1.93-2.06l.14,0a5.9,5.9,0,0,1,.92-.09h.12a2.79,2.79,0,0,1,.57-.05H217l.37,0,.47-.05h0a3.44,3.44,0,0,1,.79-.41c.23-.08.45-.16.67-.26s.43-.21.64-.33.39-.25.59-.39a3.46,3.46,0,0,1,.77-.41l.14-.15c.08-.1.17-.19.25-.28a5.49,5.49,0,0,1,.43-.4l.14-.13s0,0,0-.09a6.22,6.22,0,0,1,.32-.56l.15-.28c.06-.14.13-.27.2-.4s.27-.48.38-.69a4.24,4.24,0,0,1,.33-.59.78.78,0,0,0,.1-.15c0-.07.06-.18.09-.29s.09-.31.14-.46a.94.94,0,0,0,.06-.24c0-.19.09-.38.14-.56a1.87,1.87,0,0,0,.08-.34c0-.16.07-.32.11-.48a1.87,1.87,0,0,0,0-.25,4.28,4.28,0,0,1,.1-.59,3.67,3.67,0,0,1,.31-.84l0-.08a3.68,3.68,0,0,1,.27-.75l0-.05a1.28,1.28,0,0,0,0-.19c0-.2,0-.4,0-.6s.06-.36.1-.54,0-.15,0-.23v0a3.33,3.33,0,0,1-.05-1l0-.11a5.08,5.08,0,0,1,0-.78,2.17,2.17,0,0,1,.1-.53,3.54,3.54,0,0,1,.1-.67,3.11,3.11,0,0,1-.18-1c0-.34,0-.48,0-.63l0-1.51a4.78,4.78,0,0,1,.12-.9,1.64,1.64,0,0,0,0-.18A2,2,0,0,1,227.62,207Zm.37,16.71-.05-.09-.11-.24a1.87,1.87,0,0,0-.07.22,7,7,0,0,1-.23.69,5.22,5.22,0,0,1-.43.78l-.09.14c-.14.29-.29.57-.45.85s-.12.22-.16.3a6.89,6.89,0,0,1-.39.7s0,.1-.08.15a3.91,3.91,0,0,1-.47.78,5.1,5.1,0,0,1-.65.66l-.14.12-.17.19a6.9,6.9,0,0,1-.6.61,3.48,3.48,0,0,1-1,.59l-.05,0-.11.08a2.7,2.7,0,0,1,.71.37,2.91,2.91,0,0,1,.88,1.08l.51.51a3.19,3.19,0,0,1,1,.85l.12.13a5.11,5.11,0,0,1,.59.73A3.35,3.35,0,0,1,227,235l0,.08c.14.28.29.56.43.85a4.68,4.68,0,0,1,.18.48l.14-.27a2.56,2.56,0,0,0,.11-.24,3.75,3.75,0,0,1,.55-.88l.07-.1a4.58,4.58,0,0,1,.44-.67,2.68,2.68,0,0,1,1.51-2.13c.19-.22.39-.43.59-.64l.07-.09a4,4,0,0,1,.63-.71l0-.06a3.34,3.34,0,0,1,.57-.61l-.12-.1a5.24,5.24,0,0,1-.63-.65,1,1,0,0,0-.13-.16l-.11-.08a4.73,4.73,0,0,1-.72-.64,4,4,0,0,1-.51-.81,2.92,2.92,0,0,1-.87-.83c-.15-.24-.3-.49-.44-.74l-.1-.17a5.52,5.52,0,0,1-.34-.69c0-.08-.07-.17-.12-.25A3.06,3.06,0,0,1,228,223.68Z" style="fill: #12110c"/>
  </g>
</svg>
