<svg xmlns="http://www.w3.org/2000/svg" viewBox="0 0 500 500">
  <title>stars</title>
  <g>
    <path d="M243.06,189.6c0,.32.1.63.1.94s0,.63,0,.93,0,.63,0,.94.36.61.37.92,0,.63,0,.93,0,.63,0,.94,0,.63,0,.93.13.62.16.93-.25.65-.22,1,.4.59.43.9-.16.65-.12,1,.12.62.16.92,0,.64.08.94.11.62.17.92.33.57.39.87,0,.63.11.93.11.62.19.91.26.58.35.87.27.57.37.85,0,.67.11,1,.29.56.42.83.23.59.37.86.44.47.6.73.3.55.47.79.16.68.35.91.51.4.72.62.53.35.76.55a7.88,7.88,0,0,0,.69.62,9.37,9.37,0,0,0,.87.36c.27.16.45.46.74.59s.6.14.9.24.52.44.82.52.66-.11,1-.06.61,0,.93,0,.6,0,.91,0,.61.18.93.17.61,0,.92-.05c-.39,0-.39-.05-.79,0s-.39.06-.78.09-.39,0-.79,0-.61.31-.92.35a7.43,7.43,0,0,0-.94.07,7.61,7.61,0,0,0-1,.1c-.3.11-.61.22-.9.36s-.43.52-.7.69-.69.11-.95.3-.36.56-.6.77-.38.5-.61.72-.59.3-.8.54-.39.49-.59.75-.33.53-.52.79-.54.4-.71.67-.24.59-.4.87-.34.53-.49.81-.21.6-.35.89-.23.58-.36.88-.39.52-.51.81-.29.57-.4.87-.17.61-.27.92.12.69,0,1-.36.56-.43.87,0,.65-.06,1-.17.61-.23.92,0,.63-.05,1-.29.59-.33.91,0,.64,0,.95,0,.63,0,1-.16.63-.17.95.21.64.21.95c0,.5-.35.49-.37,1s.33.5.31,1,0,.49,0,1c0-.31-.08-.62-.07-.93s-.06-.63-.06-.93.06-.63.06-.93-.11-.62-.11-.93.16-.63.15-.93-.34-.62-.35-.92.21-.63.19-.94.06-.63,0-.93,0-.62-.07-.93-.2-.6-.23-.9-.05-.63-.09-.93,0-.63-.05-.93-.34-.57-.4-.87,0-.63-.1-.93-.16-.6-.24-.89-.3-.56-.39-.85-.16-.59-.26-.88-.13-.61-.24-.89-.15-.62-.27-.89-.14-.63-.28-.9-.59-.38-.75-.64,0-.74-.17-1-.63-.31-.82-.55-.26-.58-.47-.8-.5-.38-.72-.59-.44-.42-.68-.61-.44-.44-.7-.62-.45-.44-.72-.6-.53-.32-.81-.46-.68,0-1-.09-.52-.37-.81-.46-.62-.08-.92-.16-.57-.3-.88-.36c-.47,0-.49.2-1,.17s-.47-.13-1-.17l.94,0c.32,0,.63-.07.94-.1s.65.06.95,0,.6-.31.9-.36.67.1,1,0,.62-.17.92-.26.54-.37.83-.48.53-.33.81-.46.68-.06.95-.22.49-.39.75-.58a8.39,8.39,0,0,0,.65-.68,8.23,8.23,0,0,0,.59-.71c.21-.23.43-.43.63-.68s.64-.3.81-.57.1-.67.25-1,.48-.45.61-.73.32-.55.44-.84.13-.62.23-.92.26-.57.35-.88,0-.63.12-.94.05-.62.11-.94.16-.59.22-.91.08-.61.13-.93.17-.6.21-.91,0-.63,0-.95.3-.59.33-.91-.13-.63-.11-1,.26-.61.28-.93,0-.62,0-.94-.25-.63-.24-1,.27-.62.27-.94,0-.62,0-.94c0-.51-.21-.52-.2-1s.31-.51.32-1-.12-.51-.17-1A5.28,5.28,0,0,1,243.06,189.6ZM227,261.52c0,.49,0,.49,0,1s-.29.49-.3,1,.06.49.06,1c0,.32,0,.63,0,.94s.18.63.17.94-.11.62-.13.93.14.64.12.94-.06.63-.08.94-.34.6-.37.91,0,.62-.06.92.22.66.18,1l-.15.92c-.05.32-.17.62-.23.91s-.31.58-.38.88.12.68,0,1-.17.62-.26.9-.22.6-.33.88-.41.52-.53.8-.17.61-.3.88-.41.49-.57.75-.18.64-.36.89-.54.36-.74.59a8.54,8.54,0,0,1-.59.73c-.23.21-.36.55-.6.74s-.67.13-.94.29a7.84,7.84,0,0,1-.82.41c-.28.14-.43.54-.72.66s-.63.12-.93.22-.55.34-.86.41-.64,0-.95,0-.61.14-.92.18-.63,0-.94,0-.62-.06-.94,0-.61.17-.92.18c.46,0,.45.2.91.22s.49-.31.95-.27c.31.06.58.42.88.49s.61.15.91.24.56.28.85.4.64.11.92.25.63.18.9.34.54.36.79.54.33.6.57.8.49.39.71.62.45.43.66.67.44.45.62.71.47.45.64.72.08.67.23,1,.48.46.61.75.27.57.39.87,0,.66.11,1,.5.49.6.8,0,.66,0,1,.1.61.17.93,0,.62.11.94.17.6.22.92.25.6.29.92,0,.63,0,1,.1.62.13.94.11.62.14.95.06.62.07.94,0,.64,0,1,0,.63,0,.95v1c0,.31-.12.63-.12.95s.19.63.18,1-.09.63-.1.95c0-.48.07-.48.08-1s.11-.47.12-.95,0-.48,0-1c0-.31-.16-.63-.15-.95s-.1-.64-.08-1,.38-.6.4-.92.09-.62.12-.93-.14-.66-.09-1,.21-.61.26-.91,0-.65.07-1,.24-.59.32-.9.27-.58.36-.88.18-.6.28-.9.12-.62.22-.91.18-.61.3-.9.39-.52.52-.8.07-.66.21-.94.16-.64.32-.91.63-.37.79-.63.28-.57.46-.82.32-.55.51-.8.2-.66.4-.9.53-.38.75-.6.42-.49.65-.7.59-.28.84-.47.48-.41.74-.58.55-.31.83-.45a7.25,7.25,0,0,1,.91-.26,8.24,8.24,0,0,1,.88-.29,7.06,7.06,0,0,1,.9-.25,7.47,7.47,0,0,1,.93-.24c.56,0,.57.08,1.14,0s.56-.17,1.13-.21c-.32,0-.62.06-.92.07s-.61,0-.91,0-.62,0-.92,0-.63,0-.92-.06-.61-.14-.9-.21-.64-.07-.92-.17-.55-.3-.83-.43-.59-.23-.85-.38-.42-.49-.66-.67a8,8,0,0,1-.77-.52c-.22-.2-.46-.4-.67-.63s-.36-.5-.56-.74-.48-.41-.65-.68-.38-.49-.53-.76-.23-.58-.37-.86l-.39-.84c-.12-.28-.15-.6-.26-.89s-.05-.63-.15-.93-.49-.48-.58-.79,0-.63-.09-.93-.3-.56-.37-.86-.1-.61-.16-.92,0-.62,0-.93l-.15-.91c0-.3,0-.62,0-.93s-.15-.6-.18-.91-.16-.6-.19-.91.11-.63.08-.94-.29-.59-.31-.91-.06-.61-.08-.92.2-.63.18-.94-.11-.61-.12-.92,0-.61,0-.92,0-.61,0-.93-.06-.61-.07-.92.07-.61.07-.92C226.86,261,227,261,227,261.52Zm48.07,19.35c0-.44-.07-.43-.1-.88s-.16-.43-.18-.87-.1-.64-.1-1,.2-.64.2-1-.2-.64-.19-1,.06-.64.07-.95.06-.63.08-.94.07-.64.1-.95.09-.63.13-.94.11-.63.16-.94.08-.63.13-.94.23-.6.3-.9-.06-.68,0-1,.2-.61.29-.9.36-.56.47-.85.18-.61.31-.89a9.44,9.44,0,0,1,.43-.84c.15-.29.15-.66.32-.92a8.83,8.83,0,0,1,.62-.73c.19-.26.58-.34.79-.57a8.22,8.22,0,0,1,.66-.66c.24-.21.31-.62.56-.81s.68-.12,1-.28.53-.31.82-.44.49-.46.79-.57.6-.22.91-.3.62-.14.94-.19.64,0,1,0,.63-.06,1-.07.63.11.95.12c-.44,0-.43-.06-.87-.07s-.44-.09-.88-.1-.44,0-.87,0a8.68,8.68,0,0,1-.91-.12c-.31-.07-.54-.34-.82-.44s-.57-.21-.85-.33-.54-.26-.8-.41-.51-.32-.76-.5-.59-.23-.82-.43-.42-.44-.64-.67-.47-.4-.66-.64-.29-.55-.46-.8-.29-.54-.44-.81-.3-.53-.43-.81-.34-.51-.46-.8-.19-.59-.29-.88-.14-.59-.23-.89-.13-.59-.21-.9-.08-.6-.15-.9-.27-.57-.33-.87-.26-.58-.31-.89,0-.61-.08-.92-.13-.6-.16-.91.09-.62.06-.93.05-.62,0-.93-.34-.58-.36-.89,0-.62,0-.93.06-.61.05-.92.18-.62.17-.93-.19-.61-.2-.92.13-.61.13-.92c0,.52.12.52.14,1s0,.53,0,1.06,0,.52.05,1c0,.32-.21.63-.22,1s.17.63.15.94-.32.61-.35.92.05.63,0,.94-.08.62-.13.93,0,.63-.07.94-.14.61-.21.91-.11.63-.19.93-.11.62-.2.92-.41.52-.52.82-.27.56-.39.84-.26.57-.39.85-.06.67-.2.94-.25.59-.4.86-.32.55-.49.81-.57.37-.75.61-.27.59-.47.82-.51.4-.72.61-.4.5-.64.7-.53.34-.78.51-.52.35-.8.49a7.36,7.36,0,0,1-.83.44c-.3.1-.65,0-1,0a4.6,4.6,0,0,1-.91.09c-.57,0-.56.34-1.14.36s-.59-.28-1.16-.26c.32,0,.64-.06.94-.05s.63.17.94.2.65-.08.95,0,.57.4.86.48a9,9,0,0,1,.93.17c.29.11.65.08.93.22s.56.31.83.48.41.5.66.69a8.48,8.48,0,0,1,.6.72c.22.22.43.44.63.68s.61.32.79.58.09.68.25.95.4.49.54.78a9,9,0,0,1,.52.79c.12.28.29.56.4.86s.2.59.3.9.08.63.16.94.09.62.16.93.21.59.28.9,0,.64,0,1,.21.6.26.91.12.61.17.93,0,.62.09.93.19.61.22.93-.15.64-.12.95.16.62.18.93-.13.64-.11,1,.05.62.07.94.1.62.12.94.19.62.2.93,0,.63,0,.95C275,281.33,275.13,281.31,275.08,280.87Z" style="fill: #fff381"/>
    <path d="M242.48,242.36h-.12a2.12,2.12,0,0,1-1-.39,2,2,0,0,1-.81-1.6v0a.88.88,0,0,0,0-.17,4.72,4.72,0,0,1,0-.64,2.78,2.78,0,0,1-.23-1.2,2.68,2.68,0,0,1,.19-.93,4.38,4.38,0,0,1-.07-.71,2.66,2.66,0,0,1,.08-.74,2.63,2.63,0,0,1-.28-1.05,3.41,3.41,0,0,1,.19-1.15,4.71,4.71,0,0,1,0-.53.71.71,0,0,1,0-.12l0-.37,0-.44,0-.09a3.84,3.84,0,0,1-.21-.86c0-.16,0-.32-.05-.48l0-.4a4.35,4.35,0,0,1,0-.72h0a2.76,2.76,0,0,1-.39-1c0-.23-.06-.47-.08-.7a.81.81,0,0,0,0-.17c0-.14-.07-.29-.11-.43l-.09-.29,0-.06a4.37,4.37,0,0,1-.37-.82l-.1-.38c0-.14-.08-.29-.13-.43a6.29,6.29,0,0,1-.17-.62c0-.07,0-.13,0-.19a5.2,5.2,0,0,1-.21-.67l0-.12a4.85,4.85,0,0,1-.2-.56,2.78,2.78,0,0,1-.73-.78,2.65,2.65,0,0,1-.3-.82,2.06,2.06,0,0,1-.53-.5,3.53,3.53,0,0,1-.45-.73l0,0a5.43,5.43,0,0,1-.53-.42l-.18-.17-.38-.35a5.34,5.34,0,0,1-.44-.39l-.13-.13a4.34,4.34,0,0,1-.58-.48l-.25-.18-.17-.1a2.67,2.67,0,0,1-1.13-.19,4.26,4.26,0,0,1-.74-.41h0a5.37,5.37,0,0,1-.7-.11,3.05,3.05,0,0,1-.59-.22,2.69,2.69,0,0,1-.69.09h-.2a4.46,4.46,0,0,1-.92-.15l-.11,0a2,2,0,0,1,.16-4h.88l.42,0,.45,0a4.82,4.82,0,0,1,.76,0,3.08,3.08,0,0,1,.91-.32,3.14,3.14,0,0,1,1.06,0l.41-.12,0,0a3.39,3.39,0,0,1,.8-.45l.14-.1.56-.32a3,3,0,0,1,1-.26l0,0,.35-.29.08-.09a4,4,0,0,1,.44-.46l.09-.13c.13-.17.27-.35.41-.51l.2-.2c.11-.11.21-.22.32-.35a2.67,2.67,0,0,1,.62-.56,2.52,2.52,0,0,1,.27-.69,3.6,3.6,0,0,1,.63-.79h0c0-.1.1-.2.16-.3a2.05,2.05,0,0,1,.12-.2l0-.16a5.41,5.41,0,0,1,.18-.72,5.25,5.25,0,0,1,.22-.55,1.3,1.3,0,0,0,.08-.17v-.08a4,4,0,0,1,.1-.82c0-.06,0-.11,0-.17a4.55,4.55,0,0,1,.09-.73c0-.14.06-.28.1-.42s.07-.29.1-.44l.06-.44.06-.42c0-.23.09-.44.15-.66a1.66,1.66,0,0,0,.06-.21v-.22c0-.22,0-.45,0-.68a3.26,3.26,0,0,1,.28-.94,3.52,3.52,0,0,1-.06-.85,3.59,3.59,0,0,1,.26-1v-.08l0-.39a3,3,0,0,1-.24-1.22,3,3,0,0,1,.27-1.15v-.55a3.12,3.12,0,0,1-.2-1.19,2.67,2.67,0,0,1,.08-.64c0-.06,0-.12,0-.18s0-.2,0-.31,0-.39,0-.58,0-.21,0-.31h0a4,4,0,0,1-.1-1.05,2,2,0,0,1,4,0,1.37,1.37,0,0,0,0,.19c0,.1,0,.2,0,.3s0,.21,0,.34h0s0,.07,0,.1h0a3.53,3.53,0,0,1,.16,1.17,2.65,2.65,0,0,1-.09.67,2.84,2.84,0,0,1,.21.91c0,.19,0,.38,0,.57v.34l0,.91a5.93,5.93,0,0,1,0,.73c0,.06,0,.13,0,.18a1.29,1.29,0,0,0,0,.19,6,6,0,0,1,.11.72,2.41,2.41,0,0,1-.08.87,2.49,2.49,0,0,1,.29.92,3.24,3.24,0,0,1-.09,1.12l0,.18a4.54,4.54,0,0,1,.09.51c0,.21,0,.43.06.64a1.14,1.14,0,0,0,0,.26c0,.22.07.43.12.69a3.43,3.43,0,0,1,.42,1,4.53,4.53,0,0,1,.09.74c0,.06,0,.11,0,.13,0,.18.07.35.1.53a2.38,2.38,0,0,0,.07.31c0,.06.05.11.07.17a4,4,0,0,1,.26.65l.09.19a5.18,5.18,0,0,1,.26.6,3,3,0,0,1,.16,1,.41.41,0,0,1,.05.09c.09.16.17.32.25.48s.12.27.17.4.07.18.11.26l0,0a4.43,4.43,0,0,1,.56.7c.07.11.13.23.2.35a3.37,3.37,0,0,0,.19.32,3.12,3.12,0,0,1,.41.88,3.92,3.92,0,0,1,.39.34l.12.08a5,5,0,0,1,.58.41l.36.34.1.1h0a4.15,4.15,0,0,1,.78.32,3.73,3.73,0,0,1,.67.51,6.29,6.29,0,0,1,.62.17,2.42,2.42,0,0,1,.7.36,2.34,2.34,0,0,1,.7,0h.11a3.76,3.76,0,0,1,.75,0c.27,0,.53,0,.8,0a3.42,3.42,0,0,1,.75.11h.09a3.57,3.57,0,0,1,.76,0h0a2,2,0,0,1,.3,4h-.26l-.8.05h-.27l-.26,0a4.6,4.6,0,0,1-.6,0,2.9,2.9,0,0,1-1,.33c-.2,0-.41,0-.61,0h-.1a3.84,3.84,0,0,1-.86.09h0l-.31.12a3.09,3.09,0,0,1-.78.71,2.81,2.81,0,0,1-.79.31,2.24,2.24,0,0,1-.43.5.47.47,0,0,0-.09.12,5.37,5.37,0,0,1-.49.58,3.33,3.33,0,0,1-.83.57l-.16.22-.24.31-.14.22a5.14,5.14,0,0,1-.32.49,3.17,3.17,0,0,1-.68.69h0a6.27,6.27,0,0,1-.32.69l-.24.39a3,3,0,0,0-.2.34,1.46,1.46,0,0,0-.07.19c-.08.22-.15.43-.25.64s-.12.26-.17.4l-.17.41a3.6,3.6,0,0,1-.47.78l0,.07c-.06.15-.14.31-.21.46s-.09.16-.12.24l-.12.41,0,.12a3,3,0,0,1,0,1.25,3.42,3.42,0,0,1-.39.87,3.92,3.92,0,0,1-.07.84c0,.18-.09.36-.14.54l-.08.28v.17a4.84,4.84,0,0,1,0,.76,3.16,3.16,0,0,1-.33,1v.1a4.85,4.85,0,0,1,0,.66,2.68,2.68,0,0,0,0,.4c0,.16,0,.33,0,.48a4,4,0,0,1-.1.68.5.5,0,0,1,0,.12,3.41,3.41,0,0,1,.17,1,2.78,2.78,0,0,1-.19,1,.13.13,0,0,0,0,.06,2.62,2.62,0,0,1,.14,1v.45c0,.13,0,.26,0,.51h0v0h0a2.13,2.13,0,0,1-.07.44h0a2,2,0,0,1-1.93,1.46Zm.67-18.06c.09-.22.18-.43.28-.64a1.59,1.59,0,0,0,.07-.2,5,5,0,0,1,.31-.76c.11-.22.24-.42.36-.62l.16-.25c0-.05,0-.11.07-.16a4.12,4.12,0,0,1,.39-.81,3.42,3.42,0,0,1,.83-.86h0a.41.41,0,0,0,.07-.11,7.57,7.57,0,0,1,.44-.66l.18-.23c.16-.21.32-.41.49-.6a3.26,3.26,0,0,1,.94-.7l0,0a4.55,4.55,0,0,1,.51-.6v0a3.24,3.24,0,0,1,.84-1,1.73,1.73,0,0,1,.31-.19,3.21,3.21,0,0,1-.53-.3,5.53,5.53,0,0,1-.68-.59l-.15-.14-.12-.08a3.65,3.65,0,0,1-.76-.58l-.12-.09a4,4,0,0,1-.75-.69,3.08,3.08,0,0,1-.57-1.22,5.5,5.5,0,0,1-.28-.48l-.14-.21a3.47,3.47,0,0,1-.65-.87,6.62,6.62,0,0,1-.3-.66l-.12-.28-.12-.23a6.5,6.5,0,0,1-.34-.7,3.12,3.12,0,0,1-.2-1.17s0,0,0,0l-.1-.21,0,.16a3.8,3.8,0,0,1-.24.86,5.5,5.5,0,0,1-.36.73l-.12.22a3,3,0,0,1-.58.82,2.76,2.76,0,0,1-.42,1.11,2.72,2.72,0,0,1-1.12,1c-.12.14-.25.27-.38.4l-.15.16a1.13,1.13,0,0,1-.1.13,3.92,3.92,0,0,1-.61.7l-.09.11a4.14,4.14,0,0,1-.73.71l-.18.15a5.43,5.43,0,0,1-.72.52,3,3,0,0,1-1.23.39h0l0,0,.13.13.07.07a4.78,4.78,0,0,1,.67.56,1,1,0,0,0,.15.14c.23.18.43.38.64.58l.14.13.13.09a4.77,4.77,0,0,1,.71.61,3.07,3.07,0,0,1,.5.73,2.63,2.63,0,0,1,1,.85,3.34,3.34,0,0,0,1,1.83,3.76,3.76,0,0,1,.32.95v.05a4.06,4.06,0,0,1,.27.82.75.75,0,0,0,0,.16,4.87,4.87,0,0,1,.22.77c0,.07,0,.14.05.21s.14.44.2.66l.06.21c.11-.19.23-.34.31-.46l.05-.06ZM225.9,311.4a2,2,0,0,1-1.94-2,6.5,6.5,0,0,1,.06-.71s0-.09,0-.15a3.19,3.19,0,0,1-.16-1,4,4,0,0,1,.09-.81.5.5,0,0,1,0-.12v-1.12a4,4,0,0,1-.06-.91,2.34,2.34,0,0,1,.12-.64v-.09c0-.15,0-.29,0-.44s0-.32,0-.46,0-.19,0-.28a4.78,4.78,0,0,1-.09-.63c0-.12,0-.24,0-.36s-.06-.36-.08-.54a5.23,5.23,0,0,1,0-.68v-.15l0-.05a3.93,3.93,0,0,1-.27-.9,1.34,1.34,0,0,0-.07-.27c-.05-.2-.1-.39-.14-.59s-.06-.45-.08-.68a1.27,1.27,0,0,0,0-.2c0-.17-.07-.34-.1-.52s0-.23-.06-.34a3.1,3.1,0,0,1-.09-.75,2.8,2.8,0,0,1-.51-.88,3.18,3.18,0,0,1-.16-1.08c-.05-.11-.11-.23-.16-.35l0,0a3.51,3.51,0,0,1-.64-.83,2.91,2.91,0,0,1-.31-.95,4,4,0,0,1-.42-.5,2.09,2.09,0,0,0-.2-.22,3.8,3.8,0,0,1-.33-.37l-.3-.3-.26-.25c-.11-.11-.23-.21-.34-.3l-.24-.2a3,3,0,0,1-.68-.88l-.34-.23-.09,0a5.19,5.19,0,0,1-.64-.23l-.08,0a4,4,0,0,1-.81-.23q-.25-.1-.51-.24l-.21-.1c-.15-.05-.3-.08-.46-.12l-.32-.08a3.1,3.1,0,0,1-.61-.24,2.67,2.67,0,0,1-.67.08h-.17a3.12,3.12,0,0,1-1.07-.25,2,2,0,0,1,.14-4l.08,0a3.8,3.8,0,0,1,.88-.17h.18a5.27,5.27,0,0,1,.57,0h.11a5.93,5.93,0,0,1,.73,0h.12l.4-.08.42-.08a4,4,0,0,1,.85-.05,3.62,3.62,0,0,1,.73-.34l.54-.13a2.88,2.88,0,0,1,.8-.62l.4-.18.27-.13a2.74,2.74,0,0,1,.83-.35,3.55,3.55,0,0,1,.38-.43,1.09,1.09,0,0,0,.13-.17c.11-.15.22-.3.34-.44a1.77,1.77,0,0,0,.9-1.21,4.35,4.35,0,0,1,.46-.6l0,0,0-.08c.07-.23.14-.45.23-.67a3.52,3.52,0,0,1,.53-.82l.1-.23c.05-.14.11-.28.15-.42s.11-.36.17-.54a2.91,2.91,0,0,1,0-1.18,3.48,3.48,0,0,1,.38-.94l0,0a4.16,4.16,0,0,1,.12-.44c0-.08,0-.16.07-.26l0-.14c0-.15.05-.29.07-.44a2.94,2.94,0,0,1-.13-1.2c0-.12,0-.25,0-.37l0-.52a3.09,3.09,0,0,1,.39-1.17.88.88,0,0,1,0-.16l0-.34,0-.06a3.9,3.9,0,0,1-.09-.95,4.8,4.8,0,0,1,.09-.75v-.09a3.41,3.41,0,0,1-.14-1c0-.17,0-.34,0-.51s0-.27,0-.42a1,1,0,0,0,0-.22,6.56,6.56,0,0,1,0-.77,3.09,3.09,0,0,1,.21-1.06,1.94,1.94,0,0,0,0-.24c0-.23,0-.46,0-.69a5.49,5.49,0,0,1,0-.7,1.79,1.79,0,0,0,0-.23h0v-.05h0a2,2,0,0,1,4,0,3,3,0,0,1,.14,1.09c0,.28,0,.43,0,.57s0,.18,0,.38a2.59,2.59,0,0,1-.1.74v.29c0,.19,0,.39,0,.59l0,.19a5.74,5.74,0,0,1,.09.71,2.93,2.93,0,0,1-.15,1,1.38,1.38,0,0,1,0,.29v.08c0,.06,0,.11,0,.17a3.42,3.42,0,0,1,.33,1.11,3.72,3.72,0,0,1-.07,1v0l0,.1a4.51,4.51,0,0,1,.13.7,2.1,2.1,0,0,0,.06.24c0,.21.09.43.12.63a6.69,6.69,0,0,1,0,.77.85.85,0,0,0,0,.16c0,.28.08.56.13.83a4.13,4.13,0,0,1,0,.89v.09l.06.39c0,.1,0,.19,0,.28l0,.05a4,4,0,0,1,.35.86,3,3,0,0,1,.1.68,2.62,2.62,0,0,1,.53.92,3.6,3.6,0,0,1,.16.93v.05c.05.17.1.34.14.51s0,.13,0,.15c.11.26.23.51.34.76a5.38,5.38,0,0,1,.24.55c0,.07.05.14.08.2a2.4,2.4,0,0,0,.18.26l.22.3.07.07a3.37,3.37,0,0,1,.55.57,4,4,0,0,1,.29.39c0,.07.1.15.16.22a3.61,3.61,0,0,0,.35.33l.18.16.17.11a3.52,3.52,0,0,1,.45.3,3.47,3.47,0,0,1,.64.62l.13.05.4.18c.16.07.32.16.48.25s.13.08.1.08l.16,0a4.68,4.68,0,0,1,.67.12l.12,0c.21,0,.41.11.62.14a1.18,1.18,0,0,0,.27,0l.54,0h1.56a2.6,2.6,0,0,0,.4,0l.43,0A2,2,0,0,1,243,285.5a2.07,2.07,0,0,1-1.91,2.15,3.67,3.67,0,0,1-1,.19,4.17,4.17,0,0,1-1,0H239a3.67,3.67,0,0,1-.85.22l-.21.07-.46.13a5.75,5.75,0,0,0-.66.23,4.49,4.49,0,0,1-.72.19l-.09,0a6.38,6.38,0,0,0-.57.32,2.35,2.35,0,0,0-.25.19,3.51,3.51,0,0,1-.36.29,4.06,4.06,0,0,1-.76.44h0l-.14.16-.34.37a4.37,4.37,0,0,1-.53.44,3.05,3.05,0,0,1-.45.88,1.07,1.07,0,0,0-.16.25l-.29.46a1.83,1.83,0,0,0-.13.24l-.27.49a2.68,2.68,0,0,1-.8.81c0,.11-.08.24-.14.38h0a3.33,3.33,0,0,1-.27,1.06,4,4,0,0,1-.49.78l0,0c0,.08-.05.16-.07.23s-.1.34-.16.5a1.29,1.29,0,0,0,0,.19,5.77,5.77,0,0,1-.17.66l-.06.2c-.07.21-.14.42-.2.64a4.67,4.67,0,0,1-.3.74s-.05.09-.05.08a4.45,4.45,0,0,1-.24.7,1.17,1.17,0,0,1,0,.11v.09a4.31,4.31,0,0,1-.06.82,3.89,3.89,0,0,1-.21.74,3.12,3.12,0,0,1,.06,1l-.05.39a3.86,3.86,0,0,0-.06.49,2.68,2.68,0,0,1-.31,1c0,.12,0,.24,0,.37v.11a1,1,0,0,1,0,.17l0,.08a4,4,0,0,1,.13,1,2,2,0,0,0,0,.35c0,.16,0,.31,0,.61a4.16,4.16,0,0,1-.1.82v.13a4.39,4.39,0,0,1-.07.72,2.06,2.06,0,0,0,0,.26,2,2,0,0,1-2,1.92Zm1.18-18.52,0-.13a3.81,3.81,0,0,1,.35-.93,2.59,2.59,0,0,1,1-1,6.27,6.27,0,0,1,.36-.62L229,290c.09-.16.19-.32.29-.47a3.23,3.23,0,0,1,.6-1.17,4.12,4.12,0,0,1,.78-.67l.06,0,.18-.21a7.94,7.94,0,0,1,.57-.59,3.49,3.49,0,0,1,1-.58l.07,0,.14-.11.08-.07a3.4,3.4,0,0,1-.69-.67l0,0-.09-.05a5.56,5.56,0,0,1-.75-.54l-.15-.14c-.23-.2-.45-.4-.66-.62a6.79,6.79,0,0,1-.51-.66,1.29,1.29,0,0,1-.09-.15l-.1-.09a3.67,3.67,0,0,1-.7-.77c0-.07-.1-.13-.15-.2a6.15,6.15,0,0,1-.45-.68,5.56,5.56,0,0,1-.34-.74,1.43,1.43,0,0,0-.08-.22c-.15-.3-.3-.61-.44-.94a5,5,0,0,1-.24-.78c0-.06,0-.13-.06-.2a2.85,2.85,0,0,1-.11-.39,3.35,3.35,0,0,1-.57.92.24.24,0,0,0,0,.08,5.24,5.24,0,0,1-.32.84,3.55,3.55,0,0,1-.58.81h0a3.22,3.22,0,0,1-.49,1.07,3.31,3.31,0,0,1-.93.83l-.06.08a7,7,0,0,1-.53.64l-.06.07a3.15,3.15,0,0,1-.75.84,2.94,2.94,0,0,1-1.32.55l-.53.25h0c-.09.1-.19.22-.32.34l.3.22a3.11,3.11,0,0,1,.87,1h0a6.86,6.86,0,0,1,.64.57l.18.18a5.67,5.67,0,0,1,.59.61l.17.19a5.63,5.63,0,0,1,.52.61l.11.1a4.81,4.81,0,0,1,.63.77,2.93,2.93,0,0,1,.38,1.08,3.13,3.13,0,0,1,.58.84l.09.19c.12.25.24.51.34.77a2.86,2.86,0,0,1,.19.94,2.7,2.7,0,0,1,.4.57,2.12,2.12,0,0,1,.25-.35A3,3,0,0,1,227.08,292.88Zm49.74-54.68a1.3,1.3,0,0,0,0,.18,4.9,4.9,0,0,1,.12.9l0,1.52c0,.15,0,.29,0,.63a2.88,2.88,0,0,1-.18,1,3.54,3.54,0,0,1,.1.67,2.17,2.17,0,0,1,.1.53,5.08,5.08,0,0,1,0,.78l0,.11a3.86,3.86,0,0,1,0,1v0c0,.08,0,.16,0,.23s.07.36.1.54,0,.4.05.6a1.28,1.28,0,0,0,0,.19l0,0a3.68,3.68,0,0,1,.27.75l0,.07a3.5,3.5,0,0,1,.31.85,4.28,4.28,0,0,1,.1.59,1.87,1.87,0,0,0,0,.25c0,.16.08.32.11.48a1.59,1.59,0,0,0,.08.33c.05.19.1.38.14.56a1.53,1.53,0,0,0,.06.25c0,.15.1.31.14.46s.07.22.09.29l.1.15a4.79,4.79,0,0,1,.33.58c.11.22.22.42.38.7s.14.26.2.39a2.69,2.69,0,0,0,.16.29,6.12,6.12,0,0,1,.31.56c0,.06.05.11,0,.09l.14.12.43.4c.08.1.17.19.25.28l.14.16a3.73,3.73,0,0,1,.78.41c.19.14.38.27.58.39s.42.22.64.32a6.26,6.26,0,0,0,.67.27,3.24,3.24,0,0,1,.79.41h.05l.47.05.37,0h.34a3.55,3.55,0,0,1,.57.06h.12a7.53,7.53,0,0,1,.93.1l.13,0a2,2,0,0,1,1.93,2.06,2,2,0,0,1-2.06,1.94h0a5.81,5.81,0,0,1-.65-.06l-.22,0-.36,0-.27,0h-.16a4.33,4.33,0,0,1-.72,0c-.06,0-.11,0-.09,0-.27,0-.53.1-.79.16s-.29.1-.43.15l-.07,0a3.42,3.42,0,0,1-.85.58c-.18.08-.34.18-.5.27l-.14.08a2.5,2.5,0,0,1-.7.28,2.64,2.64,0,0,1-.48.57c-.18.16-.35.33-.52.51a3.13,3.13,0,0,1-.84.64c-.07.09-.15.17-.23.26l-.05.05a4,4,0,0,1-.32.87l-.07.12c-.1.19-.21.39-.3.6s-.06.18-.09.27-.11.34-.17.51a4.36,4.36,0,0,1-.42.78l-.12.27c0,.11-.07.22-.11.33a3.46,3.46,0,0,1-.05,1.08,4.41,4.41,0,0,1-.23.7l0,.13c0,.14,0,.28-.06.43l-.06.45c0,.14-.05.28-.08.42s0,.3-.07.45-.05.31-.07.47-.05.27-.06.42l0,.34c0,.18,0,.37-.05.56s0,.29,0,.44,0,.31,0,.46,0,.35,0,.52a1.8,1.8,0,0,0,0,.22,3.44,3.44,0,0,1,.18,1.09,3.31,3.31,0,0,1-.19,1v.09a4.68,4.68,0,0,1,.07.59,3.24,3.24,0,0,1,.18.92c0,.15,0,.22,0,.29s.05.27.07.52a3.27,3.27,0,0,1,0,1v.09a2,2,0,0,1-1.89,2A2,2,0,0,1,273,282a3,3,0,0,1,0-.74v0a1.34,1.34,0,0,0,0-.2v0a3.38,3.38,0,0,1-.19-1,1.57,1.57,0,0,0,0-.23,5.4,5.4,0,0,1-.08-.69l0-.48,0-.44a3.43,3.43,0,0,1,.09-1s0,0,0-.05a5.32,5.32,0,0,1-.14-.78,3,3,0,0,1,.09-1,3.77,3.77,0,0,1-.19-.8c0-.16,0-.32,0-.48s0-.28-.05-.42,0-.27-.07-.4-.06-.32-.08-.46l-.06-.17a5,5,0,0,1-.19-.71,3.59,3.59,0,0,1,0-.95v0a.78.78,0,0,1-.05-.14,5,5,0,0,1-.2-.62c-.05-.22-.08-.44-.11-.66a1.52,1.52,0,0,0,0-.21,4.83,4.83,0,0,1-.13-.76,1.22,1.22,0,0,0,0-.17l-.24-.75c0-.1-.1-.2-.14-.29s-.13-.26-.19-.39l-.05-.07a3.65,3.65,0,0,1-.44-.65.6.6,0,0,0-.09-.13,5.56,5.56,0,0,1-.41-.58,2.51,2.51,0,0,1-.29-.75,2.87,2.87,0,0,1-.57-.51c-.16-.2-.32-.37-.49-.55a3.31,3.31,0,0,1-.45-.54L268,263a5.06,5.06,0,0,1-.54-.58v0l-.37-.22h0a3.24,3.24,0,0,1-.74-.17l-.15,0a5.2,5.2,0,0,1-.67-.11,2.58,2.58,0,0,1-.85-.4,2.75,2.75,0,0,1-.4,0,3.4,3.4,0,0,1-.78.11,3.24,3.24,0,0,1-1.32-.27,2,2,0,0,1,.08-4l.3,0a5.63,5.63,0,0,1,.58,0h.18a2.92,2.92,0,0,1,.54,0,3.9,3.9,0,0,1,.75-.1,3,3,0,0,0,.58-.06,2.75,2.75,0,0,1,.82,0,3.62,3.62,0,0,1,.43-.24c.18-.09.34-.21.59-.37s.24-.16.37-.23l.22-.13.12-.15a4.38,4.38,0,0,1,.41-.45,4.65,4.65,0,0,1,.53-.45l0,0h0a3.42,3.42,0,0,1,.42-.72,2.88,2.88,0,0,1,.82-.73l.18-.32.11-.19a2.21,2.21,0,0,0,.12-.27c.05-.09.09-.18.13-.27a3.29,3.29,0,0,1,.26-1.08l.15-.31c.07-.15.15-.3.21-.46s.15-.34.24-.51a2.06,2.06,0,0,0,.12-.26,3.06,3.06,0,0,1,.53-.9V249c0-.21.08-.41.13-.61s.05-.22.07-.33.06-.35.1-.52l.09-.34.11-.47v-.18a6,6,0,0,1,.06-.73c0-.22.06-.44.09-.67l0-.13a1,1,0,0,0,0-.17,6.42,6.42,0,0,1,0-.76,1.44,1.44,0,0,0,.08-1c0-.2,0-.4,0-.6v-.35a4.58,4.58,0,0,1,0-.74,1.49,1.49,0,0,0,0-.21,3.05,3.05,0,0,1,.13-1,3.49,3.49,0,0,1-.16-.94,4.64,4.64,0,0,1,.1-.87l0-.13a2,2,0,0,1,1.95-1.94h0A2,2,0,0,1,276.82,238.2Zm-2.7,16c-.05.08-.08.17-.12.25a5.52,5.52,0,0,1-.34.69l-.09.17c-.15.25-.29.5-.45.73a2.84,2.84,0,0,1-.87.84,4,4,0,0,1-.51.81,4.73,4.73,0,0,1-.72.64l-.11.08-.13.15a4.62,4.62,0,0,1-.63.66l-.12.1a3.34,3.34,0,0,1,.57.61l.06.06a4.3,4.3,0,0,1,.62.71l.07.09c.21.21.4.42.6.64a3.09,3.09,0,0,1,1.05.91,3,3,0,0,1,.45,1.22,4.09,4.09,0,0,1,.44.67l.07.09a4.24,4.24,0,0,1,.55.88,2.56,2.56,0,0,0,.11.24l.14.28a4.68,4.68,0,0,1,.18-.48c.14-.3.29-.57.43-.85l0-.08a3.27,3.27,0,0,1,.43-1.08,4.6,4.6,0,0,1,.59-.73l.13-.13a3,3,0,0,1,1-.85l.51-.51a3,3,0,0,1,.88-1.09,2.85,2.85,0,0,1,.72-.36l-.11-.08-.06,0a3.48,3.48,0,0,1-1-.59,5.86,5.86,0,0,1-.6-.62l-.17-.18a.81.81,0,0,0-.14-.12,5.1,5.1,0,0,1-.65-.66,4.46,4.46,0,0,1-.47-.78l-.08-.16a5.25,5.25,0,0,1-.39-.7l-.16-.29c-.15-.28-.31-.56-.45-.85l-.09-.14a5.22,5.22,0,0,1-.43-.78,7,7,0,0,1-.23-.69,1.87,1.87,0,0,0-.07-.22,1.63,1.63,0,0,1-.11.23l-.05.1A3.1,3.1,0,0,1,274.12,254.21Z" style="fill: #12110c"/>
  </g>
</svg>
