<svg xmlns="http://www.w3.org/2000/svg" viewBox="0 0 500 500">
  <title>star</title>
  <g>
    <path d="M250,272.68c0-.31-.1-.62-.1-.93s.21-.62.21-.92,0-.62,0-.93,0-.62,0-.93-.2-.63-.18-.93,0-.63,0-.94l.06-.93c0-.31.28-.6.31-.91s0-.62.05-.93.07-.62.11-.92.1-.61.14-.91,0-.64,0-.94.15-.61.21-.9.15-.61.21-.9.06-.63.14-.93.22-.58.31-.87.19-.6.28-.89.21-.59.32-.87.34-.53.46-.81,0-.7.11-1,.43-.48.58-.74.24-.59.41-.84.52-.4.71-.63a7.66,7.66,0,0,1,.51-.79c.22-.22.5-.38.73-.57s.47-.42.72-.59.62-.16.89-.3.47-.45.75-.57.62-.1.92-.19.6-.08.9-.14.58-.21.9-.25.59-.22.91-.24.61.32.92.32.63-.26.94-.24c-.54,0-.54,0-1.08-.05s-.54,0-1.08,0a7.65,7.65,0,0,1-.94.09c-.31,0-.57-.31-.87-.39a9.08,9.08,0,0,1-.9-.22c-.28-.12-.55-.26-.83-.41s-.47-.39-.74-.56-.63-.16-.88-.35-.54-.33-.77-.54-.3-.58-.52-.8-.44-.43-.64-.67-.35-.51-.54-.77-.56-.36-.73-.62,0-.7-.2-1-.53-.41-.68-.69-.34-.52-.47-.81,0-.68-.1-1-.23-.57-.34-.86-.38-.51-.48-.81-.09-.62-.18-.92-.23-.57-.31-.88-.18-.59-.25-.89-.12-.61-.18-.92-.27-.58-.32-.89.14-.65.1-.95-.15-.61-.18-.92-.19-.61-.21-.92,0-.63,0-.94.11-.62.11-.93.08-.46.06-.91-.06-.45-.07-.91-.12-.45-.13-.9c0,.31.12.62.13.93s0,.63,0,.94-.06.62-.06.93,0,.62,0,.93-.07.62-.08.93.08.63.06.93,0,.63,0,.93-.24.61-.26.91,0,.63-.06.93.21.66.16,1-.06.63-.11.93-.44.56-.5.86.1.66,0,.95-.27.58-.35.88-.16.6-.26.89-.09.63-.2.92-.22.58-.34.86-.36.53-.5.8-.14.64-.29.9-.39.5-.57.75a8.36,8.36,0,0,1-.46.83c-.19.24-.45.44-.66.67s-.52.36-.75.56-.48.39-.73.58-.45.43-.71.6-.48.42-.76.56-.62.15-.91.27a8.09,8.09,0,0,1-.86.34c-.29.1-.56.3-.87.38s-.63.06-.94.12-.45-.11-.89-.09-.43.08-.87.12c.33,0,.65-.11,1-.09s.62.32.92.35.64,0,.95.07.65-.07,1,0,.62.14.92.22.57.33.86.43.67,0,1,.16.55.32.82.47.51.39.77.57.44.44.68.65.65.24.87.48.37.52.56.77.22.61.39.88.31.54.46.82.4.5.53.79.05.65.16,1,.38.52.48.83.17.6.25.92.26.58.33.9-.19.67-.13,1,.45.56.49.88-.24.66-.2,1,.3.59.33.92-.09.63-.06.95.19.62.21.94-.18.63-.16,1,0,.63,0,.95.05.63.06.95.22.63.22.95c0,.47,0,.47,0,.93s-.2.47-.19.93.27.47.26.94S250,272.21,250,272.68Z" style="fill: #fff381"/>
    <path d="M249.16,224.32a2,2,0,0,1,2,1.92s0,0,0,.07a3.63,3.63,0,0,1,.12.85,1.29,1.29,0,0,0,0,.25,6.17,6.17,0,0,1,0,.66,3.28,3.28,0,0,1-.06.86V229a4,4,0,0,1-.09.8.68.68,0,0,0,0,.14v.34c0,.13,0,.26,0,.39l0,.1a4,4,0,0,1,.18.83,1.6,1.6,0,0,0,0,.21c.05.22.09.43.12.64a3,3,0,0,1,0,1,3.12,3.12,0,0,1,.25.75l.06.33c0,.18.06.35.1.53s.07.27.11.41.09.27.12.41a1.57,1.57,0,0,0,.1.26c.07.19.14.37.2.56a5.9,5.9,0,0,1,.15.73v0a3.91,3.91,0,0,1,.46.82c.11.29.2.54.31.79a2.9,2.9,0,0,1,.21,1.13l.15.26a3,3,0,0,1,.77.84,2.56,2.56,0,0,1,.32.91,2.49,2.49,0,0,1,.5.52c.1.13.19.27.28.4a1.85,1.85,0,0,0,.19.27,3.45,3.45,0,0,0,.26.28l.3.3a3.23,3.23,0,0,1,.53.77h0l.31.2a3.17,3.17,0,0,1,.95.41,5.34,5.34,0,0,1,.53.41l.12.1c.16.08.35.18.55.26a.86.86,0,0,0,.23.05l.44.1a3.15,3.15,0,0,1,.72.29,3.39,3.39,0,0,1,.71,0l.43,0a6.73,6.73,0,0,1,.68,0c.55,0,.55,0,1.08,0a2,2,0,0,1,.1,4,2.94,2.94,0,0,1-1.18.26,2.63,2.63,0,0,1-1-.22,4,4,0,0,1-.59.13l-.09,0a5.11,5.11,0,0,1-.64.18l-.54.08-.21,0a4.13,4.13,0,0,1-.61.13,3,3,0,0,1-.68.48,3.31,3.31,0,0,1-.83.29l-.13.12-.29.25c-.14.11-.28.22-.43.32l-.1.07h0a3.73,3.73,0,0,1-.45.69,3.5,3.5,0,0,1-.63.58h0a5.25,5.25,0,0,1-.31.63,3.46,3.46,0,0,1-.36.49,2.8,2.8,0,0,1-.21,1,4.45,4.45,0,0,1-.39.69L254,257c-.06.19-.16.44-.25.71l-.09.27c-.06.17-.12.35-.17.53s-.13.39-.2.59a1.57,1.57,0,0,0-.09.23,1.33,1.33,0,0,0,0,.21c0,.21,0,.43-.09.65s-.07.3-.11.45-.07.26-.1.4-.08.35-.12.53-.05.17-.07.26v.09a4.41,4.41,0,0,1,0,.87l-.06.4c0,.16,0,.31-.07.48l0,.13-.09.75c0,.12,0,.24,0,.37l0,.53a3,3,0,0,1-.32,1.08c0,.23,0,.47,0,.71s0,.47,0,.71a3.5,3.5,0,0,1,.17,1.11l0,1.35c0,.15,0,.3,0,.46a2.11,2.11,0,0,1,0,.26,2.78,2.78,0,0,1,.06.67,3.64,3.64,0,0,1-.15,1,2,2,0,0,1-2,1.93,2,2,0,0,1-2-1.95v0l0-.16a5.39,5.39,0,0,1-.07-.79,2.72,2.72,0,0,1,0-.42,2.34,2.34,0,0,1-.05-.47,3,3,0,0,1,.19-1.12v-.6a3.1,3.1,0,0,1-.23-1.1c0-.13,0-.25,0-.37s0-.37,0-.56,0-.4,0-.59,0-.22,0-.33a3.34,3.34,0,0,1,.12-1,4.12,4.12,0,0,1-.17-.83,4,4,0,0,1,0-.82,3,3,0,0,1-.3-1,2.86,2.86,0,0,1,0-.9,2.43,2.43,0,0,1-.32-.85,3,3,0,0,1,0-1.14q-.12-.3-.21-.6c-.06-.23-.12-.47-.19-.69v0a3.62,3.62,0,0,1-.47-.86,3.18,3.18,0,0,1-.18-.89,3.5,3.5,0,0,1-.41-.62l-.06-.11c-.1-.2-.2-.39-.31-.57a3.4,3.4,0,0,1-.37-.82l0,0-.18-.26,0-.05a3.34,3.34,0,0,1-.86-.52c-.13-.12-.26-.25-.38-.38l-.15-.15-.36-.28a1.84,1.84,0,0,0-.22-.17,3.13,3.13,0,0,1-.34-.21l-.16-.1a3.35,3.35,0,0,1-1-.17,3.87,3.87,0,0,1-.77-.39l-.05,0-.55-.13h0a3.78,3.78,0,0,1-1,0c-.13,0-.27,0-.41,0l-.44,0a3,3,0,0,1-1-.3,4.62,4.62,0,0,1-.65,0,2,2,0,0,1-2-1.89,2,2,0,0,1,1.77-2.1l.24,0a3.9,3.9,0,0,1,.72-.09h.22a3.09,3.09,0,0,1,.71.08l.36,0h.14l.1-.06a5.3,5.3,0,0,1,.65-.28l.58-.23.14-.06a4.09,4.09,0,0,1,.77-.23h0l0,0a5.45,5.45,0,0,1,.56-.42l.1-.1a5.85,5.85,0,0,1,.47-.4c.25-.19.43-.32.59-.47a6.22,6.22,0,0,1,.58-.43l.12-.08c0-.06.17-.17.29-.29l.17-.15a1,1,0,0,0,0-.1,5.13,5.13,0,0,1,.36-.65c.11-.15.23-.31.36-.46l.07-.08a3.3,3.3,0,0,1,.29-.88,5,5,0,0,1,.39-.62l.09-.13c.08-.19.18-.45.28-.71h0s0-.05,0-.1a4.77,4.77,0,0,1,.16-.73c.07-.22.13-.44.19-.67l0-.14a4.92,4.92,0,0,1,.27-.69,3.06,3.06,0,0,1,0-1,2.88,2.88,0,0,1,.54-1.14.17.17,0,0,1,0-.07l0-.16a2.8,2.8,0,0,1-.14-1.21c0-.12,0-.25,0-.37l0-.52a3.74,3.74,0,0,1,.26-1h0v-.2a5.23,5.23,0,0,1,0-.56,1.25,1.25,0,0,0,0-.15c0-.25,0-.5,0-.75s0-.4.06-.6a2.83,2.83,0,0,0,0-.29c0-.16,0-.33,0-.49s0-.28,0-.42,0-.44,0-.66a1.94,1.94,0,0,0,0-.24c0-.18,0-.37,0-.55s0-.24,0-.36,0-.1,0-.16a3.35,3.35,0,0,1-.1-.77,2,2,0,0,1,1.94-2.05Zm1.77,19a3,3,0,0,1-.58-.74,1,1,0,0,0-.13-.22,6.38,6.38,0,0,1-.38-.67,2.64,2.64,0,0,1-.21-.66,3.51,3.51,0,0,1-.18.73c-.12.32-.25.65-.39,1a4.54,4.54,0,0,1-.48.81l0,0v0a3.44,3.44,0,0,1-.38,1,5.59,5.59,0,0,1-.51.7l-.13.17a.64.64,0,0,1-.06.11,3.64,3.64,0,0,1-.5.84,6.88,6.88,0,0,1-.59.62l-.18.17a4.32,4.32,0,0,1-.77.62l-.12.08c-.23.21-.5.41-.77.62a1.39,1.39,0,0,0-.2.17l-.11.1.35.21.22.14a5.44,5.44,0,0,1,.76.53l.19.15a5,5,0,0,1,.69.62l0,0a3.06,3.06,0,0,1,1.14.74,6.44,6.44,0,0,1,.54.72l.15.21a3.44,3.44,0,0,1,.5,1l0,.08c.15.25.29.5.43.77l.1.15a4.08,4.08,0,0,1,.56.88,3.24,3.24,0,0,1,.22.85l.15-.41a4.07,4.07,0,0,1,.39-.76,2.68,2.68,0,0,1,.27-1.24,3.84,3.84,0,0,1,.63-.87l0,0a1,1,0,0,0,0-.1,4.35,4.35,0,0,1,.43-.81,3.59,3.59,0,0,1,.82-.81h0a3.8,3.8,0,0,1,.61-.88,5.52,5.52,0,0,1,.72-.58l.17-.12.18-.16a6.23,6.23,0,0,1,.71-.56l.08-.05a3.93,3.93,0,0,1-.41-.26l-.14-.1a4.37,4.37,0,0,1-.75-.54,3.36,3.36,0,0,1-.7-1v0l-.1-.1c-.18-.18-.36-.37-.53-.57a4.68,4.68,0,0,1-.45-.62l-.05-.07a3,3,0,0,1-.9-.88A2.45,2.45,0,0,1,250.93,243.33Z" style="fill: #12110c"/>
  </g>
</svg>
