<svg xmlns="http://www.w3.org/2000/svg" viewBox="0 0 500 500">
  <title>stars2</title>
  <g>
    <path d="M256.81,190.63c-.05.51-.18.51-.17,1s.31.51.32,1-.21.51-.2,1c0,.32,0,.63,0,.94s.27.63.27.94-.25.64-.24,1,0,.64,0,.94.26.62.28.93-.13.65-.11,1,.29.61.33.91,0,.64,0,.95.16.61.21.91.08.63.13.93.15.61.22.91,0,.64.11.94,0,.65.12.94.25.59.35.88.12.63.23.92.3.56.44.84.46.47.61.73.08.7.25,1,.62.33.81.57.42.45.63.68a8.23,8.23,0,0,0,.59.71,8.39,8.39,0,0,0,.65.68c.26.19.48.42.75.58s.66.08.95.22.52.34.81.46.53.39.83.48.61.19.92.26.65-.09,1,0,.58.32.9.36.63-.05.95,0,.62.08.94.1l.94,0c-.48,0-.47.14-.95.17s-.5-.21-1-.17c-.31.06-.59.29-.88.36s-.63.06-.92.16-.53.35-.81.46-.69,0-1,.09-.55.31-.81.46-.47.43-.72.6-.46.42-.7.62-.45.4-.68.61-.51.36-.72.59-.28.56-.47.8-.64.29-.82.55,0,.72-.17,1-.61.36-.75.64-.15.61-.28.9-.15.59-.27.89-.14.59-.24.89-.17.58-.26.88-.32.55-.39.85-.18.59-.24.89-.05.62-.1.93-.35.56-.4.87,0,.62-.05.93-.05.61-.09.93-.2.59-.23.9-.05.62-.07.93.06.62,0,.93.2.63.19.94-.34.6-.35.92.16.62.15.93-.11.61-.11.93,0,.61.06.93-.07.62-.06.93-.08.62-.07.93c0-.49,0-.49,0-1s.32-.51.31-1-.36-.49-.37-1c0-.31.21-.64.21-.95s-.15-.63-.17-.95,0-.63,0-1,0-.64,0-.95-.29-.6-.33-.91,0-.64-.05-1-.17-.61-.23-.92,0-.65-.06-1-.35-.56-.43-.87.12-.69,0-1-.17-.62-.27-.92-.29-.57-.4-.87-.38-.53-.51-.81-.23-.59-.36-.88-.2-.61-.35-.89-.33-.54-.49-.81-.23-.61-.4-.87-.53-.42-.71-.67-.32-.55-.52-.79-.38-.52-.59-.75-.58-.32-.8-.54-.37-.52-.61-.72-.35-.59-.6-.77-.68-.14-.95-.3-.42-.55-.7-.69-.6-.25-.9-.36a7.61,7.61,0,0,0-1-.1,7.43,7.43,0,0,0-.94-.07c-.31,0-.6-.35-.92-.35s-.4,0-.79,0-.39-.06-.78-.09-.4.05-.79,0c.31,0,.62.05.92.05s.62-.16.93-.17.61,0,.91,0,.63.05.93,0,.67.13,1,.06.53-.42.82-.52.62-.12.9-.24.47-.43.74-.59A9.37,9.37,0,0,0,250,214a7.88,7.88,0,0,0,.69-.62c.23-.2.54-.32.76-.55s.52-.37.72-.62.17-.65.35-.91.31-.52.47-.79.45-.45.6-.73.24-.57.37-.86.3-.54.42-.83,0-.66.11-1,.27-.55.37-.85.27-.56.35-.87.11-.61.19-.91,0-.62.11-.93.33-.56.39-.87.11-.61.17-.92,0-.62.08-.94.12-.6.16-.92-.16-.64-.12-1,.4-.59.43-.9-.24-.64-.22-1,.14-.61.16-.93,0-.62,0-.93,0-.62,0-.94,0-.61,0-.93.36-.61.37-.92,0-.62,0-.94,0-.62,0-.93.1-.62.1-.94A5.28,5.28,0,0,1,256.81,190.63Zm16.32,69.9c0,.31.07.62.07.92s-.07.62-.07.93,0,.62,0,.92,0,.62,0,.92-.11.62-.12.92.2.63.18.94-.06.62-.08.92-.29.61-.31.91.11.63.08.94-.15.61-.19.91-.14.61-.18.91,0,.63,0,.93l-.15.91c-.05.31,0,.64,0,.93s-.09.62-.16.92-.3.57-.37.86,0,.64-.09.93-.49.51-.58.79,0,.64-.15.93-.14.61-.26.89l-.39.84c-.14.28-.22.6-.37.86s-.37.51-.53.76-.47.44-.65.68-.35.52-.56.74-.45.43-.67.63a8,8,0,0,1-.77.52c-.24.18-.4.51-.66.67s-.57.25-.85.38-.54.32-.83.43-.62.09-.92.17-.59.15-.9.21-.61,0-.92.06-.61,0-.92,0-.6,0-.91,0-.6-.05-.92-.07c.57,0,.56.17,1.13.21s.58-.07,1.14,0a7.47,7.47,0,0,1,.93.24,7.06,7.06,0,0,1,.9.25,8.24,8.24,0,0,1,.88.29,7.25,7.25,0,0,1,.91.26c.28.14.56.28.83.45s.49.39.74.58.6.26.84.47.43.47.65.7.54.36.75.6.21.65.4.9.33.53.51.8.29.54.46.82.64.35.79.63.18.62.32.91.08.65.21.94.4.51.52.8.19.6.3.9.12.61.22.91.2.6.28.9.29.57.36.88.26.59.32.9,0,.64.07,1,.21.6.26.91-.13.65-.09,1,.09.62.12.93.38.61.4.92-.09.64-.08,1-.15.64-.15.95c0,.48,0,.48,0,1s.1.47.12.95.07.48.08,1c0-.32-.09-.64-.1-.95s.19-.65.18-1-.12-.64-.12-.95v-1c0-.32,0-.64,0-.95s0-.64,0-1,.05-.63.07-.94.11-.64.14-.95.1-.63.13-.94,0-.64,0-1,.24-.61.29-.92.16-.61.22-.92,0-.64.11-.94.1-.63.17-.93,0-.68.05-1,.5-.51.6-.8,0-.68.11-1,.26-.59.39-.87.46-.48.61-.75.07-.69.23-1,.45-.47.64-.72.42-.47.62-.71.44-.45.66-.67.47-.41.71-.62.31-.61.57-.8.52-.38.79-.54.61-.19.9-.34.62-.13.92-.25.55-.29.85-.4.6-.15.91-.24.57-.43.88-.49.49.3.95.27.45-.18.91-.22c-.31,0-.61-.17-.92-.18s-.63.07-.94,0-.63,0-.94,0-.62-.13-.92-.18-.66,0-.95,0-.57-.32-.86-.41-.64-.11-.93-.22-.44-.52-.72-.66a7.84,7.84,0,0,1-.82-.41c-.27-.16-.69-.1-.94-.29s-.37-.53-.6-.74a8.54,8.54,0,0,1-.59-.73c-.2-.23-.56-.34-.74-.59s-.19-.62-.36-.89-.42-.46-.57-.75-.18-.59-.3-.88-.42-.5-.53-.8-.24-.57-.33-.88-.18-.59-.26-.9.11-.66,0-1-.32-.56-.38-.88-.18-.59-.23-.9l-.15-.93c0-.31.21-.65.18-1s0-.61-.06-.92-.35-.6-.37-.91-.06-.62-.08-.94.13-.62.12-.94-.13-.61-.13-.93.18-.63.17-.94,0-.62,0-.94c0-.49.07-.49.06-1s-.3-.49-.3-1,0-.49-.05-1S273.14,261,273.13,260.53ZM225,281.77c0-.32,0-.63,0-.95s.19-.62.2-.93.11-.63.12-.94.05-.64.07-.94-.14-.65-.11-1,.15-.62.18-.93-.15-.65-.12-.95.18-.62.22-.93.05-.63.09-.93.12-.62.17-.93.2-.6.26-.91,0-.65,0-1,.21-.6.28-.9.08-.64.16-.93.07-.65.16-.94.19-.61.3-.9.28-.58.4-.86a9,9,0,0,1,.52-.79c.14-.29.38-.51.54-.78s.08-.69.25-.95.59-.34.79-.58.41-.46.63-.68a8.48,8.48,0,0,1,.6-.72c.25-.19.4-.53.66-.69s.55-.34.83-.48.64-.11.93-.22a9,9,0,0,1,.93-.17c.29-.08.54-.43.86-.48s.63.06,1,0,.62-.19.94-.2.62,0,.94.05c-.57,0-.58.28-1.16.26s-.57-.34-1.14-.36a4.6,4.6,0,0,1-.91-.09c-.31-.05-.66.09-1,0a7.36,7.36,0,0,1-.83-.44c-.28-.14-.53-.32-.8-.49s-.54-.31-.78-.51-.41-.47-.64-.7-.51-.37-.72-.61-.28-.56-.47-.82-.58-.35-.75-.61-.33-.54-.49-.81-.26-.58-.4-.86-.07-.65-.2-.94-.27-.55-.39-.85-.28-.55-.39-.84-.42-.52-.52-.82-.12-.62-.2-.92-.11-.62-.19-.93-.15-.6-.21-.91,0-.63-.07-.94-.09-.62-.13-.93,0-.63,0-.94-.33-.6-.35-.92.15-.63.15-.94-.23-.63-.22-1c0-.52,0-.52.05-1s0-.53,0-1.06.11-.52.14-1c0,.31.13.62.13.92s-.2.62-.2.92.18.62.17.93.06.62,0,.92,0,.62,0,.93-.34.59-.36.89.06.63,0,.93.1.63.06.93-.12.61-.16.91,0,.63-.08.92-.25.59-.31.89-.27.57-.33.87-.08.61-.15.9-.13.61-.21.9-.13.61-.23.89-.17.6-.29.88-.33.53-.46.8-.28.54-.43.81-.27.55-.44.81-.27.56-.46.8-.46.42-.66.64-.41.47-.64.67-.57.25-.82.43-.49.34-.76.5-.52.28-.8.41-.55.23-.85.33-.51.37-.82.44a8.68,8.68,0,0,1-.91.12c-.43,0-.43,0-.87,0s-.44.08-.88.1-.43.06-.87.07c.32,0,.63-.13.95-.12s.63,0,.95.07.65-.05,1,0,.63.12.94.19.61.2.91.3.51.44.79.57.55.29.82.44.69.1.95.28.32.6.56.81a8.22,8.22,0,0,1,.66.66c.21.23.6.31.79.57a8.83,8.83,0,0,1,.62.73c.17.26.17.63.32.92a9.44,9.44,0,0,1,.43.84c.13.28.2.59.31.89s.37.54.47.85.2.59.29.9-.05.66,0,1,.24.59.3.9.08.62.13.94.12.62.16.94.1.62.13.94.07.62.1.95.06.62.08.94.06.63.07.95-.2.64-.19,1,.21.63.2,1-.09.63-.1,1-.15.43-.18.87-.06.44-.1.88S225,281.33,225,281.77Z" style="fill: #fff381"/>
    <path d="M257.47,242.36a2,2,0,0,1-1.93-1.46h0a2.13,2.13,0,0,1-.07-.44h0v0h0c0-.25,0-.38,0-.51v-.45a2.62,2.62,0,0,1,.14-1,.13.13,0,0,0,0-.06,2.78,2.78,0,0,1-.19-1,3.41,3.41,0,0,1,.17-1,.5.5,0,0,1,0-.12,4,4,0,0,1-.1-.68c0-.15,0-.32,0-.48a2.68,2.68,0,0,0,0-.4,4.85,4.85,0,0,1,0-.66V234a3.16,3.16,0,0,1-.33-1,4.84,4.84,0,0,1,0-.76v-.17l-.08-.28c0-.18-.1-.36-.14-.54a3.92,3.92,0,0,1-.07-.84,3.42,3.42,0,0,1-.39-.87,3,3,0,0,1,0-1.25l0-.12-.12-.41c0-.08-.08-.16-.12-.24s-.15-.31-.21-.46l0-.07a3.6,3.6,0,0,1-.47-.78l-.17-.41c0-.14-.11-.27-.17-.4s-.17-.42-.25-.64a1.46,1.46,0,0,0-.07-.19,3,3,0,0,0-.2-.34l-.24-.39a6.27,6.27,0,0,1-.32-.69h0a3.17,3.17,0,0,1-.68-.69,5.14,5.14,0,0,1-.32-.49l-.14-.22-.24-.31-.16-.22a3.33,3.33,0,0,1-.83-.57,5.37,5.37,0,0,1-.49-.58.47.47,0,0,0-.09-.12,2.24,2.24,0,0,1-.43-.5,2.81,2.81,0,0,1-.79-.31,3.09,3.09,0,0,1-.78-.71l-.31-.12h0a3.84,3.84,0,0,1-.86-.09h-.1c-.2,0-.41,0-.61,0a2.9,2.9,0,0,1-1-.33,4.6,4.6,0,0,1-.6,0l-.26,0h-.27l-.8-.05h-.26a2,2,0,0,1,.3-4h.05a3.57,3.57,0,0,1,.76,0H243a3.42,3.42,0,0,1,.75-.11c.27,0,.53,0,.8,0a3.76,3.76,0,0,1,.75,0h.11a2.34,2.34,0,0,1,.7,0,2.42,2.42,0,0,1,.7-.36,6.29,6.29,0,0,1,.62-.17,3.73,3.73,0,0,1,.67-.51,4.15,4.15,0,0,1,.78-.32h0l.1-.1.36-.34a5,5,0,0,1,.58-.41l.12-.08a3.92,3.92,0,0,1,.39-.34,3.12,3.12,0,0,1,.41-.88,3.37,3.37,0,0,0,.19-.32c.07-.12.13-.24.2-.35a4.43,4.43,0,0,1,.56-.7l0,0c0-.08.07-.17.11-.26s.11-.26.17-.4.16-.32.25-.48a.41.41,0,0,1,.05-.09,3,3,0,0,1,.16-1,5.18,5.18,0,0,1,.26-.6l.09-.19a4,4,0,0,1,.26-.65c0-.06.05-.11.07-.17a2.38,2.38,0,0,0,.07-.31c0-.18.06-.35.1-.53,0,0,0-.07,0-.13a4.53,4.53,0,0,1,.09-.74,3.43,3.43,0,0,1,.42-1c0-.26.09-.47.12-.69a1.14,1.14,0,0,0,0-.26c0-.21,0-.43.06-.64a4.54,4.54,0,0,1,.09-.51l0-.18a3.24,3.24,0,0,1-.09-1.12,2.49,2.49,0,0,1,.29-.92,2.41,2.41,0,0,1-.08-.87,6,6,0,0,1,.11-.72,1.29,1.29,0,0,0,0-.19c0-.05,0-.12,0-.18a5.93,5.93,0,0,1,0-.73l0-.91v-.34c0-.19,0-.38,0-.57a2.84,2.84,0,0,1,.21-.91,2.65,2.65,0,0,1-.09-.67,3.53,3.53,0,0,1,.16-1.17h0s0-.07,0-.1h0c0-.13,0-.24,0-.34s0-.2,0-.3a1.37,1.37,0,0,0,0-.19,2,2,0,0,1,4,0,4,4,0,0,1-.1,1.05h0c0,.1,0,.2,0,.31s0,.39,0,.58,0,.21,0,.31,0,.12,0,.18a2.67,2.67,0,0,1,.08.64,3.12,3.12,0,0,1-.2,1.19v.55a3,3,0,0,1,.27,1.15,3,3,0,0,1-.24,1.22l0,.39v.08a3.59,3.59,0,0,1,.26,1,3.52,3.52,0,0,1-.06.85,3.26,3.26,0,0,1,.28.94c0,.23,0,.46,0,.68V201a1.66,1.66,0,0,0,.06.21c.06.22.11.43.15.66l.06.42.06.44c0,.15.07.3.1.44s.07.28.1.42a4.55,4.55,0,0,1,.09.73c0,.06,0,.11,0,.17a4,4,0,0,1,.1.82v.08a1.3,1.3,0,0,0,.08.17,5.25,5.25,0,0,1,.22.55,5.41,5.41,0,0,1,.18.72l0,.16a2.05,2.05,0,0,1,.12.2c.06.1.11.2.16.3h0a3.6,3.6,0,0,1,.63.79,2.52,2.52,0,0,1,.27.69,2.67,2.67,0,0,1,.62.56c.11.13.21.24.32.35l.2.2c.14.16.28.34.41.51l.09.13a4,4,0,0,1,.44.46l.08.09.35.29s0,0,0,0a3,3,0,0,1,1,.26l.56.32.14.1a3.39,3.39,0,0,1,.8.45l0,0,.41.12a3.14,3.14,0,0,1,1.06,0,3.08,3.08,0,0,1,.91.32,4.82,4.82,0,0,1,.76,0l.45,0,.42,0h.88a2,2,0,0,1,.16,4l-.11,0a4.46,4.46,0,0,1-.92.15h-.2a2.69,2.69,0,0,1-.69-.09,3.05,3.05,0,0,1-.59.22,5.37,5.37,0,0,1-.7.11h0a4.26,4.26,0,0,1-.74.41,2.67,2.67,0,0,1-1.13.19l-.17.1-.25.18a4.34,4.34,0,0,1-.58.48,1.58,1.58,0,0,0-.13.13,5.34,5.34,0,0,1-.44.39l-.38.35-.18.17a5.43,5.43,0,0,1-.53.42l0,0a3.53,3.53,0,0,1-.45.73,2.06,2.06,0,0,1-.53.5,2.65,2.65,0,0,1-.3.82,2.78,2.78,0,0,1-.73.78,4.85,4.85,0,0,1-.2.56l0,.12a5.2,5.2,0,0,1-.21.67c0,.06,0,.12,0,.19a6.29,6.29,0,0,1-.17.62c0,.14-.09.29-.13.43l-.1.38a4.37,4.37,0,0,1-.37.82l0,.06-.09.29c0,.14-.08.29-.11.43a.81.81,0,0,0,0,.17c0,.23,0,.47-.08.7a2.76,2.76,0,0,1-.39,1h0a4.35,4.35,0,0,1,0,.72l0,.4c0,.16,0,.32,0,.48a3.84,3.84,0,0,1-.21.86l0,.09,0,.44,0,.37a.71.71,0,0,1,0,.12,4.71,4.71,0,0,1,0,.53,3.41,3.41,0,0,1,.19,1.15,2.63,2.63,0,0,1-.28,1.05,2.66,2.66,0,0,1,.08.74,4.38,4.38,0,0,1-.07.71,2.68,2.68,0,0,1,.19.93,2.78,2.78,0,0,1-.23,1.2,4.72,4.72,0,0,1-.05.64.88.88,0,0,0,0,.17v0a2,2,0,0,1-.81,1.6,2.12,2.12,0,0,1-1,.39h-.17Zm-.53-17.83.05.06c.08.12.2.27.31.46l.06-.21c.06-.22.12-.45.2-.66s0-.14.05-.21a4.87,4.87,0,0,1,.22-.77.75.75,0,0,0,0-.16,4.06,4.06,0,0,1,.27-.82v-.05a3.76,3.76,0,0,1,.32-.95,3.34,3.34,0,0,0,1.05-1.83,2.63,2.63,0,0,1,1-.85,3.07,3.07,0,0,1,.5-.73,4.77,4.77,0,0,1,.71-.61l.13-.09L262,217c.21-.2.41-.4.64-.58a1,1,0,0,0,.15-.14,4.78,4.78,0,0,1,.67-.56l.07-.07.13-.13,0,0h0a3,3,0,0,1-1.23-.39,5.43,5.43,0,0,1-.72-.52l-.18-.15a4.14,4.14,0,0,1-.73-.71l-.09-.11a3.92,3.92,0,0,1-.61-.7,1.13,1.13,0,0,1-.1-.13l-.15-.16c-.13-.13-.26-.26-.38-.4a2.72,2.72,0,0,1-1.12-1,2.76,2.76,0,0,1-.42-1.11,3,3,0,0,1-.58-.82l-.12-.22a5.5,5.5,0,0,1-.36-.73,3.8,3.8,0,0,1-.24-.86l0-.16-.1.21s0,0,0,0a3.12,3.12,0,0,1-.2,1.17,6.5,6.5,0,0,1-.34.7l-.12.23-.12.28a6.62,6.62,0,0,1-.3.66,3.47,3.47,0,0,1-.65.87l-.14.21a5.5,5.5,0,0,1-.28.48,3.08,3.08,0,0,1-.57,1.22,4,4,0,0,1-.75.69l-.12.09a3.65,3.65,0,0,1-.76.58l-.12.08-.15.14a5.53,5.53,0,0,1-.68.59,3.21,3.21,0,0,1-.53.3,1.73,1.73,0,0,1,.31.19,3.24,3.24,0,0,1,.84,1v0a4.55,4.55,0,0,1,.51.6l0,0a3.26,3.26,0,0,1,.94.7c.17.19.33.39.49.6l.18.23a7.57,7.57,0,0,1,.44.66.41.41,0,0,0,.07.11h0a3.42,3.42,0,0,1,.83.86,4.12,4.12,0,0,1,.39.81c0,.05,0,.11.07.16l.16.25c.12.2.25.4.36.62a5,5,0,0,1,.31.76,1.59,1.59,0,0,0,.07.2c.1.21.19.42.28.64ZM274,311.4a2,2,0,0,1-2-1.92,2.06,2.06,0,0,0,0-.26,4.39,4.39,0,0,1-.07-.72v-.13a4.16,4.16,0,0,1-.1-.82c0-.3,0-.45,0-.61a2,2,0,0,0,0-.35,4,4,0,0,1,.13-1l0-.08a1,1,0,0,1,0-.17v-.11c0-.13,0-.25,0-.37a2.68,2.68,0,0,1-.31-1,3.86,3.86,0,0,0-.06-.49l-.05-.39a3.12,3.12,0,0,1,.06-1,3.89,3.89,0,0,1-.21-.74,4.31,4.31,0,0,1-.06-.82v-.09a1.17,1.17,0,0,1-.05-.11,4.45,4.45,0,0,1-.24-.7s0,0-.05-.08a4.67,4.67,0,0,1-.3-.74c-.06-.22-.13-.43-.2-.64l-.06-.2a5.77,5.77,0,0,1-.17-.66,1.29,1.29,0,0,0,0-.19c-.06-.16-.11-.33-.16-.5s0-.15-.07-.23l0,0a4,4,0,0,1-.49-.78,3.33,3.33,0,0,1-.27-1.06h0c-.06-.14-.1-.27-.14-.38a2.68,2.68,0,0,1-.8-.81l-.27-.49a1.83,1.83,0,0,0-.13-.24l-.29-.46a1.07,1.07,0,0,0-.16-.25,3.05,3.05,0,0,1-.45-.88,4.37,4.37,0,0,1-.53-.44l-.34-.37-.14-.16h0a4.06,4.06,0,0,1-.76-.44,3.51,3.51,0,0,1-.36-.29,2.35,2.35,0,0,0-.25-.19,6.38,6.38,0,0,0-.57-.32l-.09,0a4.49,4.49,0,0,1-.72-.19,5.75,5.75,0,0,0-.66-.23l-.46-.13-.21-.07a3.67,3.67,0,0,1-.85-.22h-.11a4.17,4.17,0,0,1-1,0,3.67,3.67,0,0,1-1-.19A2.07,2.07,0,0,1,257,285.5a2,2,0,0,1,2.06-1.86l.43,0a2.6,2.6,0,0,0,.4,0h1.56l.54,0a1.18,1.18,0,0,0,.27,0c.21,0,.41-.09.62-.14l.12,0a4.68,4.68,0,0,1,.67-.12l.16,0s0,0,.1-.08.32-.18.48-.25l.4-.18.13-.05a3.47,3.47,0,0,1,.64-.62,3.52,3.52,0,0,1,.45-.3l.17-.11.18-.16a3.61,3.61,0,0,0,.35-.33c.06-.07.11-.15.16-.22a4,4,0,0,1,.29-.39,3.37,3.37,0,0,1,.55-.57l.07-.07.22-.3a2.4,2.4,0,0,0,.18-.26c0-.06.05-.13.08-.2a5.38,5.38,0,0,1,.24-.55c.11-.25.23-.5.34-.76,0,0,0-.09,0-.15s.09-.34.14-.51v-.05a3.6,3.6,0,0,1,.16-.93,2.62,2.62,0,0,1,.53-.92,3,3,0,0,1,.1-.68,4,4,0,0,1,.35-.86l0-.05c0-.09,0-.18.05-.28l.06-.39v-.09a4.13,4.13,0,0,1,0-.89c.05-.27.09-.55.13-.83a.85.85,0,0,0,0-.16,6.69,6.69,0,0,1,0-.77c0-.2.07-.42.12-.63a2.1,2.1,0,0,0,.06-.24,4.51,4.51,0,0,1,.13-.7l0-.1v0a3.72,3.72,0,0,1-.07-1,3.42,3.42,0,0,1,.33-1.11c0-.06,0-.11,0-.17v-.08a1.38,1.38,0,0,1,0-.29,2.93,2.93,0,0,1-.15-1,5.74,5.74,0,0,1,.09-.71l0-.19c0-.2,0-.4,0-.59v-.29a2.59,2.59,0,0,1-.1-.74c0-.2,0-.29,0-.38s0-.29,0-.57a3,3,0,0,1,.14-1.09,2,2,0,0,1,4,0h0v.05h0a1.79,1.79,0,0,0,0,.23,5.49,5.49,0,0,1,.05.7c0,.23,0,.46-.05.69a1.94,1.94,0,0,0,0,.24,3.09,3.09,0,0,1,.21,1.06,6.56,6.56,0,0,1,0,.77,1,1,0,0,0,0,.22c0,.15,0,.29,0,.42s0,.34,0,.51a3.41,3.41,0,0,1-.14,1v.09a4.8,4.8,0,0,1,.09.75,3.9,3.9,0,0,1-.09.95l0,.06,0,.34a.88.88,0,0,1,0,.16,3.09,3.09,0,0,1,.39,1.17l0,.52c0,.12,0,.25,0,.37a2.94,2.94,0,0,1-.13,1.2c0,.15.05.29.07.44l0,.14c0,.1,0,.18.07.26a4.16,4.16,0,0,1,.12.44l0,0a3.48,3.48,0,0,1,.38.94,2.91,2.91,0,0,1,0,1.18c.06.18.11.36.17.54s.1.28.15.42l.1.23a3.52,3.52,0,0,1,.53.82c.09.22.16.44.23.67l0,.08s0,0,0,0a4.35,4.35,0,0,1,.46.6,1.77,1.77,0,0,0,.9,1.21c.12.14.23.29.34.44a1.09,1.09,0,0,0,.13.17,3.55,3.55,0,0,1,.38.43,2.74,2.74,0,0,1,.83.35l.27.13.4.18a2.88,2.88,0,0,1,.8.62l.54.13a3.62,3.62,0,0,1,.73.34,4,4,0,0,1,.85.05l.42.08.4.08H285a5.93,5.93,0,0,1,.73,0h.11a5.27,5.27,0,0,1,.57,0h.18a3.8,3.8,0,0,1,.88.17l.08,0a2,2,0,0,1,.14,4,3.12,3.12,0,0,1-1.07.25h-.17a2.67,2.67,0,0,1-.67-.08,3.1,3.1,0,0,1-.61.24l-.32.08c-.16,0-.31.07-.46.12l-.21.1q-.26.14-.51.24a4,4,0,0,1-.81.23l-.08,0a5.19,5.19,0,0,1-.64.23l-.09,0-.34.23a3,3,0,0,1-.68.88l-.24.2c-.11.09-.23.19-.34.3l-.26.25-.3.3a3.8,3.8,0,0,1-.33.37,2.09,2.09,0,0,0-.2.22,4,4,0,0,1-.42.5,2.91,2.91,0,0,1-.31.95,3.51,3.51,0,0,1-.64.83l0,0c-.05.12-.11.24-.16.35a3.18,3.18,0,0,1-.16,1.08,2.8,2.8,0,0,1-.51.88,3.1,3.1,0,0,1-.09.75c0,.11,0,.23-.06.34s-.06.35-.1.52a1.27,1.27,0,0,0,0,.2c0,.23,0,.46-.08.68s-.09.39-.14.59a1.34,1.34,0,0,0-.07.27,3.93,3.93,0,0,1-.27.9l0,.05v.15a5.23,5.23,0,0,1,0,.68c0,.18,0,.36-.08.54s0,.24-.05.36a4.78,4.78,0,0,1-.09.63c0,.09,0,.18,0,.28s0,.3,0,.46,0,.29,0,.44v.09a2.34,2.34,0,0,1,.12.64,4,4,0,0,1-.06.91v1.12a.5.5,0,0,1,0,.12,4,4,0,0,1,.09.81,3.19,3.19,0,0,1-.16,1c0,.06,0,.11,0,.15a6.5,6.5,0,0,1,.06.71,2,2,0,0,1-1.94,2Zm-.86-17.54a2.12,2.12,0,0,1,.25.35,2.7,2.7,0,0,1,.4-.57,2.86,2.86,0,0,1,.19-.94c.1-.26.22-.52.34-.77l.09-.19a3.13,3.13,0,0,1,.58-.84,2.93,2.93,0,0,1,.38-1.08,4.81,4.81,0,0,1,.63-.77l.11-.1a5.63,5.63,0,0,1,.52-.61l.17-.19a5.67,5.67,0,0,1,.59-.61l.18-.18a6.86,6.86,0,0,1,.64-.57h0a3.11,3.11,0,0,1,.87-1l.3-.22c-.13-.12-.23-.24-.32-.34h0l-.53-.25a2.94,2.94,0,0,1-1.32-.55,3.15,3.15,0,0,1-.75-.84l-.06-.07a7,7,0,0,1-.53-.64l-.06-.08a3.31,3.31,0,0,1-.93-.83,3.22,3.22,0,0,1-.49-1.07h0a3.55,3.55,0,0,1-.58-.81,5.24,5.24,0,0,1-.32-.84.24.24,0,0,0,0-.08,3.35,3.35,0,0,1-.57-.92,2.85,2.85,0,0,1-.11.39c0,.07,0,.14-.06.2a5,5,0,0,1-.24.78c-.14.33-.29.64-.44.94a1.43,1.43,0,0,0-.08.22,5.56,5.56,0,0,1-.34.74,6.15,6.15,0,0,1-.45.68c-.05.07-.11.13-.15.2a3.67,3.67,0,0,1-.7.77l-.1.09a1.29,1.29,0,0,1-.09.15,6.79,6.79,0,0,1-.51.66c-.21.22-.43.42-.66.62l-.15.14a5.56,5.56,0,0,1-.75.54l-.09.05,0,0a3.4,3.4,0,0,1-.69.67l.08.07.14.11.07,0a3.49,3.49,0,0,1,.95.58,7.94,7.94,0,0,1,.57.59l.18.21.06,0a4.12,4.12,0,0,1,.78.67,3.23,3.23,0,0,1,.6,1.17c.1.15.2.31.29.47l.15.23a6.27,6.27,0,0,1,.36.62,2.59,2.59,0,0,1,1,1,3.81,3.81,0,0,1,.35.93l0,.13A3,3,0,0,1,273.18,293.86Zm-48-57.55h0a2,2,0,0,1,1.95,1.94l0,.13a4.64,4.64,0,0,1,.1.87,3.49,3.49,0,0,1-.16.94,3.05,3.05,0,0,1,.13,1,1.49,1.49,0,0,0,0,.21,4.58,4.58,0,0,1,0,.74v.35c0,.2,0,.4,0,.6a1.44,1.44,0,0,0,.08,1,6.42,6.42,0,0,1,0,.76,1,1,0,0,0,0,.17l0,.13c0,.23,0,.45.09.67a6,6,0,0,1,.06.73v.18l.11.47.09.34c0,.17.07.35.1.52s0,.22.07.33.09.4.13.61v.08a3.06,3.06,0,0,1,.53.9,2.06,2.06,0,0,0,.12.26q.13.26.24.51c.06.16.14.31.21.46l.15.31a3.29,3.29,0,0,1,.26,1.08c0,.09.08.18.13.27a2.21,2.21,0,0,0,.12.27l.11.19.18.32a2.88,2.88,0,0,1,.82.73,3.42,3.42,0,0,1,.42.72h0l0,0a4.65,4.65,0,0,1,.53.45,4.38,4.38,0,0,1,.41.45l.12.15.22.13c.13.07.25.15.37.23s.41.28.59.37a3.62,3.62,0,0,1,.43.24,2.75,2.75,0,0,1,.82,0,3,3,0,0,0,.58.06,3.9,3.9,0,0,1,.75.1,2.92,2.92,0,0,1,.54,0h.18a5.63,5.63,0,0,1,.58,0l.3,0a2,2,0,0,1,.08,4,3.24,3.24,0,0,1-1.32.27,3.4,3.4,0,0,1-.78-.11,2.75,2.75,0,0,1-.4,0,2.58,2.58,0,0,1-.85.4,5.2,5.2,0,0,1-.67.11l-.15,0a3.24,3.24,0,0,1-.74.17h0l-.37.22v0a5.06,5.06,0,0,1-.54.58l-.07.08a3.31,3.31,0,0,1-.45.54c-.17.18-.33.35-.49.55a2.87,2.87,0,0,1-.57.51,2.51,2.51,0,0,1-.29.75,5.56,5.56,0,0,1-.41.58.6.6,0,0,0-.09.13,3.65,3.65,0,0,1-.44.65l-.05.07c-.06.13-.12.26-.19.39s-.1.19-.14.29-.16.5-.24.75a1.22,1.22,0,0,0,0,.17,4.83,4.83,0,0,1-.13.76,1.52,1.52,0,0,0,0,.21c0,.22-.06.44-.11.66a5,5,0,0,1-.2.62.78.78,0,0,1,0,.14v0a3.59,3.59,0,0,1,0,.95,5,5,0,0,1-.19.71l-.06.17c0,.14,0,.3-.08.46s-.05.27-.07.4,0,.28-.05.42,0,.32,0,.48a3.77,3.77,0,0,1-.19.8,3,3,0,0,1,.09,1,5.32,5.32,0,0,1-.14.78s0,0,0,.05a3.43,3.43,0,0,1,.09,1l0,.44,0,.48a5.4,5.4,0,0,1-.08.69,1.57,1.57,0,0,0,0,.23,3.38,3.38,0,0,1-.19,1v0a1.34,1.34,0,0,0,0,.2v0a3,3,0,0,1,0,.74,2,2,0,0,1-2.1,1.82,2,2,0,0,1-1.89-2v-.09a3.27,3.27,0,0,1,0-1c0-.25,0-.39.07-.52s0-.14,0-.29a3.24,3.24,0,0,1,.18-.92,4.68,4.68,0,0,1,.07-.59v-.09a3.31,3.31,0,0,1-.19-1,3.44,3.44,0,0,1,.18-1.09,1.8,1.8,0,0,0,0-.22c0-.17,0-.35,0-.52s0-.31,0-.46,0-.3,0-.44,0-.38,0-.56l0-.34c0-.15,0-.29-.06-.42s-.05-.31-.07-.47,0-.3-.07-.45,0-.28-.08-.42l-.06-.45c0-.15,0-.29-.06-.43l-.05-.13a4.41,4.41,0,0,1-.23-.7,3.46,3.46,0,0,1-.05-1.08c0-.11-.08-.22-.11-.33l-.12-.27a4.36,4.36,0,0,1-.42-.78c-.06-.17-.11-.34-.17-.51s-.05-.18-.09-.27-.2-.41-.3-.6l-.07-.12a4,4,0,0,1-.32-.87l-.05-.05c-.08-.09-.16-.17-.23-.26a3.13,3.13,0,0,1-.84-.64c-.17-.18-.34-.35-.52-.51a2.64,2.64,0,0,1-.48-.57,2.5,2.5,0,0,1-.7-.28l-.14-.08c-.16-.09-.32-.19-.5-.27a3.42,3.42,0,0,1-.85-.58l-.07,0c-.14-.05-.28-.11-.43-.15s-.52-.12-.79-.16c0,0,0,0-.09,0a4.33,4.33,0,0,1-.72,0h-.16l-.27,0-.36,0-.22,0a5.81,5.81,0,0,1-.65.06h0a2,2,0,0,1-2.06-1.94,2,2,0,0,1,1.93-2.06l.13,0a7.53,7.53,0,0,1,.93-.1h.12a3.55,3.55,0,0,1,.57-.06h.34l.37,0,.47-.05h.05a3.24,3.24,0,0,1,.79-.41,6.26,6.26,0,0,0,.67-.27c.22-.1.43-.2.64-.32s.39-.25.58-.39a3.73,3.73,0,0,1,.78-.41l.14-.16c.08-.09.17-.18.25-.28l.43-.4.14-.12s0,0,0-.09a6.12,6.12,0,0,1,.31-.56,2.69,2.69,0,0,0,.16-.29c.06-.13.13-.26.2-.39s.27-.48.38-.7a4.79,4.79,0,0,1,.33-.58l.1-.15c0-.07.05-.18.09-.29s.09-.31.14-.46a1.53,1.53,0,0,0,.06-.25c0-.18.09-.37.14-.56a1.59,1.59,0,0,0,.08-.33c0-.16.07-.32.11-.48a1.87,1.87,0,0,0,0-.25,4.28,4.28,0,0,1,.1-.59,3.5,3.5,0,0,1,.31-.85l0-.07a3.68,3.68,0,0,1,.27-.75l0,0a1.28,1.28,0,0,0,0-.19c0-.2,0-.4.05-.6s.06-.36.1-.54,0-.15,0-.23v0a3.86,3.86,0,0,1,0-1l0-.11a5.08,5.08,0,0,1,0-.78,2.17,2.17,0,0,1,.1-.53,3.54,3.54,0,0,1,.1-.67,2.88,2.88,0,0,1-.18-1c0-.34,0-.48,0-.63l.05-1.52a4.9,4.9,0,0,1,.12-.9,1.3,1.3,0,0,0,0-.18A2,2,0,0,1,225.2,236.31Zm.37,16.71,0-.1a1.63,1.63,0,0,1-.11-.23,1.87,1.87,0,0,0-.07.22,7,7,0,0,1-.23.69,5.22,5.22,0,0,1-.43.78l-.09.14c-.14.29-.3.57-.45.85l-.16.29a5.25,5.25,0,0,1-.39.7l-.08.16a4.46,4.46,0,0,1-.47.78,5.1,5.1,0,0,1-.65.66.81.81,0,0,0-.14.12l-.17.18a5.86,5.86,0,0,1-.6.62,3.48,3.48,0,0,1-1,.59l-.06,0-.11.08a2.85,2.85,0,0,1,.72.36,3,3,0,0,1,.88,1.09l.51.51a3,3,0,0,1,1,.85l.13.13a4.6,4.6,0,0,1,.59.73,3.27,3.27,0,0,1,.43,1.08l0,.08c.14.28.29.55.43.85a4.68,4.68,0,0,1,.18.48l.14-.28a2.56,2.56,0,0,0,.11-.24,4.24,4.24,0,0,1,.55-.88l.07-.09a4.09,4.09,0,0,1,.44-.67,3,3,0,0,1,.45-1.22,3.09,3.09,0,0,1,1.05-.91c.2-.22.39-.43.6-.64l.07-.09a4.3,4.3,0,0,1,.62-.71l.06-.06a3.34,3.34,0,0,1,.57-.61l-.12-.1a4.62,4.62,0,0,1-.63-.66l-.13-.15-.11-.08a4.73,4.73,0,0,1-.72-.64,4,4,0,0,1-.51-.81,2.84,2.84,0,0,1-.87-.84c-.16-.23-.3-.48-.45-.73l-.09-.17a5.52,5.52,0,0,1-.34-.69c0-.08-.07-.17-.12-.25A3.1,3.1,0,0,1,225.57,253Z" style="fill: #12110c"/>
  </g>
</svg>
