<svg xmlns="http://www.w3.org/2000/svg" viewBox="0 0 500 500">
  <title>stars3</title>
  <g>
    <path d="M229.64,239.26c0,.32.09.63.1.94s0,.63,0,.93,0,.63,0,.94.35.62.37.92,0,.63,0,.93,0,.63,0,.94-.05.63,0,.93.13.62.16.93-.25.65-.22,1,.4.59.43.9-.16.65-.12.95.12.62.16.92,0,.64.08.94.11.62.17.92.33.57.39.87,0,.63.11.93.11.62.19.91.26.58.35.87.27.57.37.86,0,.67.11.95.29.56.42.84.23.58.37.85.44.47.6.73.29.55.47.8.16.67.35.9.51.4.72.62.53.35.76.55.44.45.69.63.6.2.87.35.45.46.74.59a8.48,8.48,0,0,0,.9.24c.29.1.52.44.82.52s.66-.11,1-.06.61,0,.93,0,.6,0,.91,0,.61.18.93.17.61,0,.92,0c-.39,0-.39,0-.79,0s-.39.05-.78.08-.4,0-.79,0-.61.31-.92.35a32.38,32.38,0,0,0-1.9.17c-.3.11-.61.22-.9.36s-.43.53-.7.69-.69.11-1,.3-.36.56-.6.77-.38.5-.61.72-.59.3-.8.54-.39.5-.59.75-.34.53-.52.79-.54.4-.71.67-.24.6-.4.87-.34.53-.49.82-.21.6-.35.88-.24.58-.36.88-.4.52-.51.82-.29.56-.4.86-.17.61-.27.92.12.69,0,1-.36.56-.43.87,0,.65-.06,1-.17.61-.23.92,0,.64-.05.95-.3.6-.33.91,0,.64,0,.95,0,.64,0,.95-.16.63-.17,1,.21.64.21,1c0,.49-.35.48-.37,1s.33.5.31,1,0,.5,0,1c0-.31-.08-.62-.07-.93s-.06-.63-.06-.93.06-.63.06-.93-.11-.62-.11-.93.16-.63.15-.93-.34-.61-.35-.92.21-.63.19-.94.06-.63,0-.93,0-.62-.07-.93-.2-.6-.24-.9,0-.63-.08-.93,0-.63,0-.93-.34-.57-.4-.87,0-.63-.1-.93-.16-.6-.24-.89-.3-.56-.39-.85-.16-.59-.26-.88-.13-.61-.24-.89-.15-.61-.27-.89-.14-.63-.28-.9-.59-.38-.75-.64,0-.74-.17-1-.63-.31-.82-.55-.26-.58-.47-.8-.5-.37-.72-.58-.44-.43-.68-.62-.44-.44-.7-.62-.45-.44-.72-.6-.53-.32-.81-.45-.68,0-1-.1-.52-.37-.81-.46-.62-.08-.92-.16-.57-.3-.88-.36c-.47,0-.49.2-1,.17s-.47-.13-.95-.17c.32,0,.63,0,.94,0s.63-.07.94-.09.65.06,1,0,.6-.31.9-.36.67.11,1,0,.62-.17.92-.26.54-.37.83-.48.53-.33.81-.46.68-.06,1-.22.49-.39.75-.58.41-.47.65-.68a8.23,8.23,0,0,0,.59-.71c.21-.23.43-.43.63-.68s.64-.3.81-.57.1-.67.25-.95.48-.44.61-.73.32-.55.44-.84.12-.62.23-.92.26-.57.35-.88,0-.63.12-.94.05-.62.11-.93.16-.6.21-.92.09-.61.14-.92.17-.61.21-.92,0-.63,0-.94.3-.6.33-.92-.13-.63-.11-.95.26-.61.28-.92-.05-.63,0-.95-.25-.63-.24-1,.27-.62.27-.94,0-.62,0-.94c0-.51-.21-.51-.2-1s.31-.51.32-1-.12-.51-.18-1A5.17,5.17,0,0,1,229.64,239.26Zm43,12.27c0-.44-.08-.43-.1-.88s-.16-.43-.19-.87-.09-.64-.09-1,.2-.64.2-.95-.2-.64-.19-1,.06-.65.07-1,.06-.63.08-.94.07-.64.1-1,.09-.63.13-.94.11-.63.16-.93.08-.64.13-.95.23-.6.3-.9-.06-.68,0-1,.2-.61.29-.9.36-.56.47-.85.18-.61.3-.89.29-.57.44-.84.15-.66.31-.92.44-.49.63-.73.58-.34.79-.57a8.22,8.22,0,0,1,.66-.66c.24-.21.31-.62.56-.81s.67-.12.95-.27a8.13,8.13,0,0,1,.82-.45c.28-.13.49-.46.79-.56s.6-.23.91-.31.62-.14.94-.19.64,0,1,0,.63-.06.95-.07.63.11.95.12c-.44,0-.43-.06-.87-.07s-.44-.09-.88-.1a8.31,8.31,0,0,1-.87,0c-.31,0-.62,0-.91-.11s-.54-.35-.83-.45a8.6,8.6,0,0,1-.84-.33c-.28-.13-.54-.26-.8-.41a7.66,7.66,0,0,1-.76-.5c-.25-.17-.59-.22-.82-.43s-.42-.44-.64-.67-.47-.39-.66-.64-.29-.54-.46-.8-.29-.54-.44-.81-.3-.53-.43-.81-.34-.51-.46-.8-.19-.58-.29-.88-.14-.59-.23-.89-.13-.59-.21-.9-.08-.6-.15-.9-.28-.56-.33-.87-.26-.57-.31-.88,0-.62-.08-.93-.13-.6-.16-.91.09-.62.06-.93.05-.62,0-.93-.34-.58-.36-.89,0-.61,0-.93.06-.61.05-.92.18-.62.17-.93-.2-.6-.2-.92.12-.61.13-.92c0,.52.12.52.14,1s0,.53,0,1.06,0,.52.05,1c0,.32-.21.63-.22.95s.16.63.15.94-.32.61-.35.92.05.63,0,.94-.08.62-.13.93,0,.64-.07.94-.14.61-.21.91-.11.63-.19.93-.11.63-.2.92-.41.53-.52.82-.27.56-.39.85-.26.56-.39.84-.06.67-.2.94-.25.59-.4.86-.32.55-.49.81-.57.37-.75.61-.28.59-.47.82-.51.4-.72.61-.4.5-.64.7-.53.34-.78.51-.52.35-.8.49a7.36,7.36,0,0,1-.83.44c-.3.1-.65,0-1,0a4.6,4.6,0,0,1-.91.09c-.57,0-.56.34-1.14.36s-.59-.28-1.16-.26c.32,0,.64-.06.94-.05s.63.17.94.2.65-.08.95,0,.57.4.86.48a9,9,0,0,1,.93.17c.29.11.65.08.93.22s.56.31.83.48.41.5.66.7a7,7,0,0,1,.6.71c.22.22.43.44.63.68s.61.32.79.58.09.68.25,1a8.78,8.78,0,0,1,.54.77c.13.27.4.5.52.79s.29.56.4.86.2.59.3.9.08.63.16.94.08.62.16.93.21.59.28.9,0,.64,0,.95.21.6.26.91.12.61.16.93.06.62.1.93.19.61.22.93-.15.64-.12.95.16.62.18.93-.13.64-.11,1,.05.62.07.94.1.62.12.94.19.62.2.94,0,.62,0,.94C272.57,252,272.7,252,272.66,251.53Z" style="fill: #fff381"/>
    <path d="M229.06,292h-.12a2,2,0,0,1-1-.39,2,2,0,0,1-.81-1.6v0a.88.88,0,0,0,0-.17,4.72,4.72,0,0,1-.05-.64,2.78,2.78,0,0,1-.23-1.2,2.68,2.68,0,0,1,.19-.93,4.38,4.38,0,0,1-.07-.71,2.66,2.66,0,0,1,.08-.74,2.63,2.63,0,0,1-.28-1.05,3.18,3.18,0,0,1,.19-1.15,4.84,4.84,0,0,1,0-.53c0-.05,0-.11,0-.12l0-.37,0-.44,0-.09a3.84,3.84,0,0,1-.21-.86c0-.16,0-.32,0-.48s0-.27,0-.4a5.79,5.79,0,0,1,0-.72h0a3,3,0,0,1-.38-1,5.56,5.56,0,0,1-.08-.7.71.71,0,0,0,0-.16c0-.15-.07-.29-.11-.44l-.09-.29,0-.06a3.81,3.81,0,0,1-.37-.82l-.11-.38c0-.14-.07-.29-.12-.43a6.29,6.29,0,0,1-.17-.62c0-.07,0-.13,0-.19a6.55,6.55,0,0,1-.2-.67s0-.11,0-.12a4.27,4.27,0,0,1-.2-.56,2.78,2.78,0,0,1-.73-.78,2.42,2.42,0,0,1-.3-.82,2.26,2.26,0,0,1-.54-.5,3.42,3.42,0,0,1-.44-.73l0,0a4.45,4.45,0,0,1-.53-.42l-.18-.17-.38-.35a4.09,4.09,0,0,1-.44-.39,1.58,1.58,0,0,0-.13-.13,4.34,4.34,0,0,1-.58-.48l-.25-.17-.17-.11a2.83,2.83,0,0,1-1.13-.18,4.21,4.21,0,0,1-.74-.42h0a3.45,3.45,0,0,1-1.29-.32,3.27,3.27,0,0,1-.69.08h-.2a3.86,3.86,0,0,1-.92-.15l-.11,0a2,2,0,0,1,.16-4h.88l.42,0,.45-.05a4.82,4.82,0,0,1,.76,0,3.39,3.39,0,0,1,.91-.32,3.14,3.14,0,0,1,1.06,0c.14,0,.28-.08.41-.12l0,0a3.39,3.39,0,0,1,.8-.45l.14-.09c.19-.12.37-.23.56-.33a3,3,0,0,1,1-.26l0,0,.35-.29.08-.08a4.14,4.14,0,0,1,.44-.47l.09-.13a6.54,6.54,0,0,1,.41-.51l.2-.2c.11-.11.21-.22.32-.35a2.67,2.67,0,0,1,.62-.56,2.52,2.52,0,0,1,.27-.69,3.6,3.6,0,0,1,.63-.79h0l.16-.29c.05-.09.11-.18.12-.21a.94.94,0,0,0,0-.16,4.21,4.21,0,0,1,.18-.72c.06-.18.14-.37.22-.55a1.3,1.3,0,0,0,.08-.17v-.08a4,4,0,0,1,.1-.82,1,1,0,0,0,0-.17,6.09,6.09,0,0,1,.1-.73c0-.14.06-.28.1-.42s.07-.28.1-.44l.06-.44.06-.42a5.23,5.23,0,0,1,.15-.66,1.66,1.66,0,0,0,.06-.21v-.22c0-.22,0-.45,0-.68a3.27,3.27,0,0,1,.27-.94,3.08,3.08,0,0,1-.05-.84,3.58,3.58,0,0,1,.26-1.05v-.08l0-.39a3,3,0,0,1-.24-1.22,3,3,0,0,1,.27-1.15v-.55a3.08,3.08,0,0,1-.2-1.19,2.74,2.74,0,0,1,.08-.64.91.91,0,0,1,0-.17c0-.11,0-.21,0-.32s0-.38,0-.58,0-.21,0-.31h0a3.58,3.58,0,0,1-.1-1.05,2,2,0,0,1,4,0l0,.19c0,.1,0,.2.05.31s0,.2,0,.33h0s0,.07,0,.1h0a3.32,3.32,0,0,1,.17,1.17,2.8,2.8,0,0,1-.09.68,2.54,2.54,0,0,1,.2.9,5.42,5.42,0,0,1,0,.57c0,.11,0,.23,0,.34l0,.91a5.93,5.93,0,0,1,0,.73,1.21,1.21,0,0,0,0,.18.79.79,0,0,0,0,.2,5.52,5.52,0,0,1,.11.71,2.39,2.39,0,0,1-.08.87,2.55,2.55,0,0,1,.29.93,3.2,3.2,0,0,1-.09,1.11l0,.18c0,.17.07.34.09.51s.05.43.06.64a1.14,1.14,0,0,0,0,.26c0,.22.07.43.12.69a3.43,3.43,0,0,1,.42,1,6,6,0,0,1,.09.74.38.38,0,0,0,0,.13c0,.18.07.35.1.53s0,.22.06.31l.08.17a4,4,0,0,1,.26.65l.09.19a5.18,5.18,0,0,1,.26.6,3,3,0,0,1,.16,1.05l0,.09c.09.16.17.32.25.48s.11.27.17.4.07.18.11.26l0,0a4.43,4.43,0,0,1,.56.7l.19.35.2.33a2.9,2.9,0,0,1,.4.87,3.25,3.25,0,0,1,.4.34l.12.08a6,6,0,0,1,.58.41l.36.34.09.1h0a4.44,4.44,0,0,1,.78.32,4.27,4.27,0,0,1,.67.51,6.29,6.29,0,0,1,.62.17,2.42,2.42,0,0,1,.7.36,2.34,2.34,0,0,1,.7,0h.11a3.76,3.76,0,0,1,.75,0c.26,0,.53,0,.8,0a3.42,3.42,0,0,1,.75.11h.09a3.57,3.57,0,0,1,.76,0h0a2,2,0,0,1,.3,4h-.26l-.8.05h-.27l-.26,0a4.6,4.6,0,0,1-.6,0,2.9,2.9,0,0,1-1,.33c-.21,0-.41,0-.62,0-.06,0-.11,0-.09,0a3.86,3.86,0,0,1-.87.09h0l-.31.12a3.09,3.09,0,0,1-.78.71,3.2,3.2,0,0,1-.79.32,2.22,2.22,0,0,1-.44.49l-.09.12a4.34,4.34,0,0,1-.48.58,3.73,3.73,0,0,1-.83.58l-.16.21-.24.31a1.35,1.35,0,0,0-.14.22,5.14,5.14,0,0,1-.32.49,3.17,3.17,0,0,1-.68.69h0a6.27,6.27,0,0,1-.32.69l-.24.39a3,3,0,0,0-.2.34,1.46,1.46,0,0,0-.07.19c-.08.22-.16.44-.25.64s-.12.26-.17.4l-.17.41a3.6,3.6,0,0,1-.47.78l-.05.07a4.81,4.81,0,0,1-.22.46c0,.08-.08.16-.11.24s-.08.27-.12.41l0,.12a3,3,0,0,1-.05,1.25,3.27,3.27,0,0,1-.39.87,3.92,3.92,0,0,1-.07.84c0,.18-.09.36-.14.54l-.08.28v.17a4.78,4.78,0,0,1,0,.76,3.77,3.77,0,0,1-.33,1v.1a4.85,4.85,0,0,1,0,.66,2.75,2.75,0,0,0,0,.41c0,.16,0,.32,0,.47a4,4,0,0,1-.1.68s0,.08,0,.12a3.41,3.41,0,0,1,.17,1,2.78,2.78,0,0,1-.19,1,.13.13,0,0,0,0,.06,2.62,2.62,0,0,1,.14,1c0,.23,0,.34,0,.45a4.2,4.2,0,0,1,0,.51h0v0h0a2.34,2.34,0,0,1-.07.45h0a2,2,0,0,1-1.93,1.46Zm.67-18.06c.09-.22.18-.43.28-.64a1.59,1.59,0,0,0,.07-.2,5,5,0,0,1,.31-.76c.11-.21.24-.42.36-.62l.16-.25a1,1,0,0,0,.06-.16,5,5,0,0,1,.4-.81,3.34,3.34,0,0,1,.83-.85h0a.41.41,0,0,0,.07-.11,6.16,6.16,0,0,1,.44-.65l.18-.24c.16-.2.31-.41.48-.6a3.49,3.49,0,0,1,.95-.7l0,0a4.42,4.42,0,0,1,.51-.6v0a3.36,3.36,0,0,1,.84-1,2.59,2.59,0,0,1,.31-.19,3.74,3.74,0,0,1-.54-.3,5.26,5.26,0,0,1-.67-.59,1.35,1.35,0,0,0-.15-.13l-.12-.08a4.15,4.15,0,0,1-.76-.59l-.12-.09a4,4,0,0,1-.75-.69,3.11,3.11,0,0,1-.57-1.21c-.1-.16-.19-.32-.28-.49l-.14-.21a3.57,3.57,0,0,1-.65-.86c-.11-.22-.21-.44-.31-.67a2.33,2.33,0,0,0-.11-.28l-.12-.23a6.5,6.5,0,0,1-.34-.7,2.91,2.91,0,0,1-.2-1.17l0,0c0-.08-.07-.15-.1-.22l0,.17a4.83,4.83,0,0,1-.24.86,6,6,0,0,1-.36.72l-.12.22a3.2,3.2,0,0,1-.58.82,2.76,2.76,0,0,1-.42,1.11,2.79,2.79,0,0,1-1.12.95l-.38.4-.15.16a1.13,1.13,0,0,1-.1.13,3.92,3.92,0,0,1-.61.7l-.09.12a4.54,4.54,0,0,1-.73.7l-.18.15a6.45,6.45,0,0,1-.72.53,3.07,3.07,0,0,1-1.23.38h0l.13.13.07.07a4.78,4.78,0,0,1,.67.56,1,1,0,0,0,.15.14c.22.18.43.38.64.58l.14.13.13.09a4.77,4.77,0,0,1,.71.61,3.29,3.29,0,0,1,.5.73,2.72,2.72,0,0,1,1,.85,2.51,2.51,0,0,1,.4,1,2.8,2.8,0,0,1,.65.79,3.76,3.76,0,0,1,.32.95v.05a4.81,4.81,0,0,1,.27.82.62.62,0,0,0,0,.16,5.2,5.2,0,0,1,.22.77c0,.07,0,.14.05.21s.14.44.2.66l.06.22a5.5,5.5,0,0,1,.31-.47l0-.06Zm44.67-65.09a1.64,1.64,0,0,0,0,.18,4.78,4.78,0,0,1,.12.9l.05,1.51c0,.15,0,.29,0,.63a3.11,3.11,0,0,1-.18,1,3.54,3.54,0,0,1,.1.67,2.17,2.17,0,0,1,.1.53,5.08,5.08,0,0,1,0,.78l0,.11a3.33,3.33,0,0,1-.05,1v0c0,.08,0,.16,0,.23s.07.36.1.54,0,.4.05.6a1.28,1.28,0,0,0,0,.19l0,.05a3.68,3.68,0,0,1,.27.75l0,.08a3.67,3.67,0,0,1,.31.84,4.28,4.28,0,0,1,.1.59,1.87,1.87,0,0,0,0,.25c0,.16.08.32.11.48a1.87,1.87,0,0,0,.08.34c0,.18.1.37.14.56a.94.94,0,0,0,.06.24c.05.15.09.31.14.46s.07.22.09.29a.78.78,0,0,0,.1.15,4.24,4.24,0,0,1,.33.59c.11.21.22.41.38.69s.14.26.2.4l.15.28a6.22,6.22,0,0,1,.32.56c0,.06.05.12,0,.09l.14.13a5.49,5.49,0,0,1,.43.4c.08.09.17.18.25.28l.14.15a3.46,3.46,0,0,1,.77.41c.2.14.39.27.59.39s.42.22.64.33.44.18.67.26a3.44,3.44,0,0,1,.79.41h.05l.47.05.37,0h.34a2.79,2.79,0,0,1,.57.05H284a5.9,5.9,0,0,1,.92.09l.14,0a2,2,0,0,1,1.93,2.06,2,2,0,0,1-2.06,1.94h0a5.81,5.81,0,0,1-.65-.06l-.22,0-.36,0-.27,0-.16,0a4.33,4.33,0,0,1-.72,0c-.06,0-.11,0-.09,0-.27,0-.53.1-.79.16s-.29.1-.44.15l-.06,0a3.42,3.42,0,0,1-.85.58c-.18.08-.34.18-.51.27l-.13.08a2.5,2.5,0,0,1-.7.28,2.64,2.64,0,0,1-.48.57c-.18.17-.35.33-.52.51a3.13,3.13,0,0,1-.84.64c-.07.09-.15.17-.23.26l-.05.05a4,4,0,0,1-.32.87l-.07.12c-.1.2-.21.39-.3.6a1.43,1.43,0,0,0-.09.27c-.06.17-.11.34-.18.51a3.37,3.37,0,0,1-.42.78l-.11.27c0,.11-.07.22-.11.33a3.46,3.46,0,0,1-.05,1.08,4.41,4.41,0,0,1-.23.7l-.05.13a3,3,0,0,0-.06.43c0,.15,0,.3-.07.45s0,.28-.07.42-.05.3-.07.46-.05.3-.07.46,0,.28-.06.42l0,.34c0,.18,0,.37-.05.56s0,.3,0,.45,0,.3,0,.45,0,.35,0,.52a1.8,1.8,0,0,0,0,.22,3.44,3.44,0,0,1,.18,1.09,3.31,3.31,0,0,1-.19,1V249c0,.21.06.42.07.59a3.24,3.24,0,0,1,.18.92c0,.15,0,.22,0,.29s.05.27.07.52a3.27,3.27,0,0,1,0,1v.09a2,2,0,0,1-1.89,2,2,2,0,0,1-2.1-1.82,3,3,0,0,1,0-.74v0c0-.07,0-.13,0-.2v0a3.53,3.53,0,0,1-.19-1c0-.08,0-.16,0-.23a5.4,5.4,0,0,1-.08-.69l0-.48,0-.44a3.67,3.67,0,0,1,.1-1s0,0,0-.06a5.32,5.32,0,0,1-.14-.78,3.25,3.25,0,0,1,.08-1,4.62,4.62,0,0,1-.18-.8c0-.16,0-.32,0-.48s0-.28-.05-.42,0-.27-.07-.4-.06-.32-.08-.46l-.06-.17a4.67,4.67,0,0,1-.19-.71,3.21,3.21,0,0,1,0-.95v0a.78.78,0,0,1-.05-.14,5,5,0,0,1-.2-.62c-.05-.22-.08-.44-.11-.65a1.46,1.46,0,0,0,0-.22,4.64,4.64,0,0,1-.13-.76,1.22,1.22,0,0,0,0-.17c-.08-.25-.16-.51-.25-.75a1.92,1.92,0,0,0-.14-.29l-.18-.38-.06-.08a4.3,4.3,0,0,1-.43-.65.64.64,0,0,0-.1-.13,6,6,0,0,1-.4-.58,2.51,2.51,0,0,1-.29-.75,2.87,2.87,0,0,1-.57-.51c-.16-.19-.32-.37-.5-.55a4.77,4.77,0,0,1-.45-.54l-.06-.08a4.34,4.34,0,0,1-.54-.58v0l-.37-.22h0a3.19,3.19,0,0,1-.74-.16l-.15,0c-.23,0-.45-.07-.67-.12a2.79,2.79,0,0,1-.85-.39h-.4a3.4,3.4,0,0,1-.78.11,3.08,3.08,0,0,1-1.32-.27,2,2,0,0,1,.08-4l.29,0,.59,0h.18a2.92,2.92,0,0,1,.54.05,3.79,3.79,0,0,1,.75-.1,3,3,0,0,0,.58-.06,3.64,3.64,0,0,1,.82,0c.14-.08.28-.17.43-.24a5.23,5.23,0,0,0,.59-.37c.12-.08.24-.16.37-.23l.22-.13.12-.15a5.74,5.74,0,0,1,.41-.45,4.65,4.65,0,0,1,.53-.45l0,0h0a3.42,3.42,0,0,1,.42-.72,2.88,2.88,0,0,1,.82-.73l.18-.32.11-.19a1.69,1.69,0,0,0,.12-.27c0-.09.08-.18.13-.27a3.29,3.29,0,0,1,.26-1.08l.15-.31c.07-.15.15-.3.21-.46s.15-.34.24-.51a2.06,2.06,0,0,0,.12-.26,3.19,3.19,0,0,1,.53-.9v-.08c0-.21.08-.41.13-.61s.05-.22.07-.33.06-.35.1-.52l.08-.34c.05-.17.09-.34.12-.47v-.18a6,6,0,0,1,.06-.73c0-.22.06-.44.09-.67l0-.13a.81.81,0,0,0,0-.16,6.59,6.59,0,0,1,0-.77,1.44,1.44,0,0,0,.08-1c0-.19,0-.4,0-.6l0-.35a6.19,6.19,0,0,1,0-.74,1.49,1.49,0,0,0,0-.21,3.15,3.15,0,0,0,0-1.89,4.66,4.66,0,0,1,.1-.88l0-.12a2,2,0,0,1,1.95-1.95h0A2,2,0,0,1,274.4,208.87Zm-2.7,16c-.05.08-.08.17-.12.25a5.52,5.52,0,0,1-.34.69l-.1.17c-.14.25-.29.5-.44.74a2.92,2.92,0,0,1-.87.83,4,4,0,0,1-.51.81,4.73,4.73,0,0,1-.72.64l-.11.08a1,1,0,0,0-.13.16,5.24,5.24,0,0,1-.63.65l-.12.1a3.34,3.34,0,0,1,.57.61l.05.06a4,4,0,0,1,.63.71l.07.09c.2.21.4.42.59.64a2.68,2.68,0,0,1,1.51,2.13,4.58,4.58,0,0,1,.44.67l.07.1a3.75,3.75,0,0,1,.55.88,2.56,2.56,0,0,0,.11.24l.14.27a4.68,4.68,0,0,1,.18-.48c.14-.29.29-.57.43-.85l0-.08a3.35,3.35,0,0,1,.43-1.08,5.11,5.11,0,0,1,.59-.73l.12-.13a3.19,3.19,0,0,1,1-.85q.25-.27.51-.51a2.91,2.91,0,0,1,.88-1.08,2.7,2.7,0,0,1,.71-.37l-.11-.08,0,0a3.48,3.48,0,0,1-1-.59,6.9,6.9,0,0,1-.6-.61l-.17-.19-.14-.12a5.1,5.1,0,0,1-.65-.66,3.91,3.91,0,0,1-.47-.78c0-.05-.05-.11-.08-.15a6.89,6.89,0,0,1-.39-.7l-.16-.3c-.16-.28-.31-.56-.45-.85l-.09-.14a5.22,5.22,0,0,1-.43-.78,7,7,0,0,1-.23-.69,1.87,1.87,0,0,0-.07-.22l-.11.24-.05.09A3.06,3.06,0,0,1,271.7,224.87Z" style="fill: #12110c"/>
  </g>
</svg>
