<svg xmlns="http://www.w3.org/2000/svg" viewBox="0 0 500 500">
  <title>twig</title>
  <g>
    <path d="M276.9,201.94a.62.62,0,0,1,0-.11h0a3.37,3.37,0,0,1-.12-.53,7.29,7.29,0,0,0-.21-1.15l0-.06a6.46,6.46,0,0,0-.35-1.12,1.8,1.8,0,0,1-.08-.21l-.08-.21a2.66,2.66,0,0,0-.24-.55,1.67,1.67,0,0,0-.57-.64l-.32-.27a4.94,4.94,0,0,0-.92-.71l-.29-.19-.19-.13a2,2,0,0,0-1.12-.34h-.24a1.89,1.89,0,0,1-.4,0,1.55,1.55,0,0,1-.54-.25,2.27,2.27,0,0,0-1.46-.26l-.44,0c-.29,0-.59.07-.89.12l-.2,0-.15,0a1.86,1.86,0,0,0-.46.19,3.63,3.63,0,0,1-.48.21c-.12-.17-.2-.3-.26-.4a2,2,0,0,0,.47-.21l.11-.07.53-.3.35-.17c.26-.12.53-.25.85-.43l.19-.12c.29-.18.59-.36.88-.57s.6-.46.89-.7l.15-.13c.32-.27.64-.58.95-.89s.58-.61.87-1l.28-.31a5.5,5.5,0,0,0,.52-.61l.25-.35a6.54,6.54,0,0,0,.48-.73c.08-.14.16-.27.29-.47a4.46,4.46,0,0,0,.34-.59,1.07,1.07,0,0,0,.07-.19,2.19,2.19,0,0,0,.12-.49l0-.16c0-.14.06-.27.12-.44.11-.37.22-.76.33-1.25a3.06,3.06,0,0,1,.1-.41,1.39,1.39,0,0,0,.06-.19c0-.15.07-.29.1-.42a1.23,1.23,0,0,0,0-.2,9.39,9.39,0,0,0,0-1.18,2,2,0,0,0,0-.26,2.24,2.24,0,0,0-.16-.52c-.06-.17-.13-.34-.16-.47a4.93,4.93,0,0,1-.06-.58,1.84,1.84,0,0,0-.53-1.32,2.44,2.44,0,0,1-.3-.37l-.08-.13-.11-.15a4.37,4.37,0,0,0-.56-.76l-.24-.25a4,4,0,0,0-.33-.35,1.8,1.8,0,0,0-.37-.3,4,4,0,0,1-.41-.3,3.46,3.46,0,0,0-.53-.35,4.36,4.36,0,0,0-.91-.3l-.2-.06a1.9,1.9,0,0,0-.58-.09h-.77a6.36,6.36,0,0,0-1.23,0,3.41,3.41,0,0,1-.56,0h0a2,2,0,0,0-.87.07,6.11,6.11,0,0,0-.89.38,2.14,2.14,0,0,0-.32.2,2.8,2.8,0,0,0-.32.29l0,0c-.11.1-.24.23-.35.31a3.15,3.15,0,0,1-.53.29l-.13.06a2.44,2.44,0,0,0-.86.83c-.12.16-.23.33-.37.5a1.53,1.53,0,0,0-.19.3,2.06,2.06,0,0,0-.12.26,5.26,5.26,0,0,1-.27.47l-.25.36c-.15.22-.31.45-.45.69a2.37,2.37,0,0,1-.38.47,2.58,2.58,0,0,0-.31.36,1.38,1.38,0,0,0-.14.24,2,2,0,0,0-.11.26,1,1,0,0,0-.07.15,5,5,0,0,1-.31.67,2.91,2.91,0,0,0-.25.5.36.36,0,0,1,0,.09,2.43,2.43,0,0,1-.33.61l-.2.28c-.19.26-.38.51-.59.77l-.58.63-1.41,1.5a8.31,8.31,0,0,0-.59.66c-.27.32-.54.64-.77,1-.1.13-.21.27-.34.42a5.53,5.53,0,0,0-.41.52l-.07.11c-.09.14-.19.28-.35.49a3.1,3.1,0,0,0-.37.57,3.21,3.21,0,0,0-.21.54l0,.15a2,2,0,0,1-.08.26c-.18,0-.36-.08-.53-.1a1.9,1.9,0,0,0,.11-.63s0-.14,0-.21h0a3,3,0,0,1,.05-.64,3.72,3.72,0,0,1,.18-.58,2.06,2.06,0,0,0,.14-.44,2.1,2.1,0,0,0,0-.75,0,0,0,0,0,0,0,3.82,3.82,0,0,1,0-.58,2.85,2.85,0,0,1,.12-.54,2.13,2.13,0,0,0,.13-.43,1.9,1.9,0,0,0,0-.75,1.38,1.38,0,0,0,0-.2,2.51,2.51,0,0,1-.05-.63,4.49,4.49,0,0,0,0-.64,3,3,0,0,0,0-.31v-.18a2.31,2.31,0,0,1,.07-.51,1.82,1.82,0,0,0,.06-1.36.93.93,0,0,0,0-.13l-.1-.47a9.34,9.34,0,0,0-.19-1.1l0-.17s0-.07,0-.11a3.54,3.54,0,0,0-.14-.39.87.87,0,0,0-.07-.17,3.25,3.25,0,0,1-.18-.5,1.86,1.86,0,0,1-.05-.63,1.94,1.94,0,0,0-.12-.75,1.82,1.82,0,0,0-.26-.5,5.26,5.26,0,0,1-.3-.49,4.81,4.81,0,0,0-.33-.52l-.18-.24c-.07-.09-.13-.17-.23-.32a3.07,3.07,0,0,0-.38-.44l-.08-.08c-.11-.1-.22-.21-.32-.32a2.23,2.23,0,0,1-.27-.46.83.83,0,0,0-.07-.13,1.86,1.86,0,0,0-.6-.68,5,5,0,0,0-.64-.41l-.1-.06-.3-.22-.15-.11a3.43,3.43,0,0,0-.33-.24,2.22,2.22,0,0,0-.78-.28l-.28-.05-.25,0a2.34,2.34,0,0,0-.75,0l-.12,0a3.88,3.88,0,0,1-.4,0l-.43,0a7,7,0,0,0-.91,0h-.43a2.7,2.7,0,0,0-.75,0l-.13,0-.27,0a5.68,5.68,0,0,0-.79.16,1.57,1.57,0,0,0-.3.12,3.13,3.13,0,0,0-.5.31l-.08.06-.35.22a7.86,7.86,0,0,0-1,.68,4,4,0,0,1-.43.29l-.11.06c-.11.07-.22.13-.31.2a1.83,1.83,0,0,0-.49.51l-.17.27-.21.33a2.28,2.28,0,0,0-.2.45,1.69,1.69,0,0,0-.08.34.24.24,0,0,0,0,.08,2.91,2.91,0,0,1-.13.55l-.06.18a4.34,4.34,0,0,0-.28,1,5.56,5.56,0,0,0,0,1.22,6.43,6.43,0,0,0,.21,1.23,2.35,2.35,0,0,1,.09.49.69.69,0,0,0,0,.2,1,1,0,0,0,0,.2,1.82,1.82,0,0,0,.29.67l.13.17.09.1c.13.15.26.31.38.48a5.45,5.45,0,0,0,.45.59l.25.31a1.81,1.81,0,0,1,.26.52,2.07,2.07,0,0,0,.71.94,1.59,1.59,0,0,1,.45.42,2,2,0,0,1,.25.7,2,2,0,0,0,.39.79,2.07,2.07,0,0,1,.37.61s0,.09.05.13l.12.24a4.35,4.35,0,0,1,.28.76,3.53,3.53,0,0,1,.05,1.32,2.56,2.56,0,0,1-.22.66l0,.05a4.07,4.07,0,0,0-.18.44,3.56,3.56,0,0,1-.27.57,2.52,2.52,0,0,0-.26.52,8.09,8.09,0,0,0-.28.83l-.06.16a2,2,0,0,0-.12.68,1.48,1.48,0,0,0,0,.21,2.6,2.6,0,0,1,0,.5l-.06.27a4.73,4.73,0,0,0-.16.9,3.7,3.7,0,0,1-.09.48,1,1,0,0,0,0,.17s0,.11,0,.13a1.61,1.61,0,0,0,0,.49s0,.06,0,.08c-.36.14-.7.27-1,.42l-.33-.46a3.06,3.06,0,0,1-.24-.58c0-.08,0-.16-.06-.22a2,2,0,0,0-.58-.89,3.56,3.56,0,0,1-.39-.5,2.61,2.61,0,0,1-.19-.66v0a2.07,2.07,0,0,0-.28-.8l-.14-.22a3.42,3.42,0,0,1-.35-.62c-.06-.17-.14-.34-.21-.5a4.6,4.6,0,0,1-.31-.76c-.08-.22-.16-.44-.23-.61l-.06-.15c0-.1-.08-.2-.14-.37a3.07,3.07,0,0,1-.14-.52l-.05-.18a2.33,2.33,0,0,0-.07-.25,1.8,1.8,0,0,0-.08-.21c-.06-.15-.12-.32-.17-.48a1.09,1.09,0,0,0,0-.17,2.73,2.73,0,0,0-.22-.53c-.13-.26-.28-.5-.43-.74l-.11-.17a2.37,2.37,0,0,0-.32-.39.5.5,0,0,0-.12-.11,1.29,1.29,0,0,0-.17-.16,2.22,2.22,0,0,1-.34-.31l-.26-.33a5.64,5.64,0,0,0-.58-.67c-.1-.1-.19-.22-.29-.33l0,0c-.1-.13-.2-.25-.32-.38a2.31,2.31,0,0,0-.24-.2,10.36,10.36,0,0,0-1-.58,7.17,7.17,0,0,0-1.07-.47l-.36-.14a8,8,0,0,0-.84-.25,2,2,0,0,0-.8,0l-.35,0h-.93l-.4,0a2.1,2.1,0,0,0-.6.19l-.17.07a2.74,2.74,0,0,1-.43.17,8.47,8.47,0,0,0-1.08.41,2.78,2.78,0,0,1-.4.16l-.26.1-.22.09a2.43,2.43,0,0,0-.35.2,3.21,3.21,0,0,0-.49.46l-.31.31-.13.12a5.87,5.87,0,0,0-.65.67,9.86,9.86,0,0,0-.67,1,2.86,2.86,0,0,1-.31.42,2.69,2.69,0,0,0-.34.47,1.33,1.33,0,0,0-.11.24l-.06.14c-.1.21-.2.46-.28.68a1.93,1.93,0,0,0-.1.63v.18a2.43,2.43,0,0,1,0,.47s0,.09,0,.13a6.23,6.23,0,0,0,0,.75l0,.4v.24a3.42,3.42,0,0,0,.06.79l0,.11s0,.08,0,.11a4.67,4.67,0,0,0,.29.93l.06.11a5.25,5.25,0,0,0,.54.82,2.89,2.89,0,0,0,.55.5,4.68,4.68,0,0,1,.45.36l.17.17.12.11a1.59,1.59,0,0,1-.27-.31,2.42,2.42,0,0,0,.9.72l.11.07a1.8,1.8,0,0,1,.49.5l.07.1a2,2,0,0,0,.72.58l.11.05a2.2,2.2,0,0,1,.63.39c.18.19.33.39.47.56l.06.07a4,4,0,0,0,.3.39,2.07,2.07,0,0,1,.31.65l.12.29s.07.09.1.15,0,.28-.07.43l-.15-.19a2.4,2.4,0,0,1-.29-.62,1.93,1.93,0,0,0-.34-.63c-.06-.08-.12-.15-.18-.24l-.07-.09-.07-.08c-.08-.11-.17-.21-.25-.3a1.88,1.88,0,0,0-.69-.5l-.1-.05h0a2,2,0,0,1-.49-.28,2.82,2.82,0,0,1-.34-.38,1.87,1.87,0,0,0-.74-.59h0a1.77,1.77,0,0,0-.54-.29l-.35-.14-.44-.21-.22-.12a2,2,0,0,0-1.26-.17,2.07,2.07,0,0,1-.55,0c-.15,0-.29,0-.44-.06l-.16,0a3.41,3.41,0,0,0-.63,0h-.62a2.74,2.74,0,0,0-.7.08,8.83,8.83,0,0,0-1.05.33,2.48,2.48,0,0,0-.54.32.76.76,0,0,0-.14.11,3.37,3.37,0,0,1-.45.32,2.88,2.88,0,0,1-.47.19,2.07,2.07,0,0,0-1.16.78l0,0a5.54,5.54,0,0,1-.37.45,1.59,1.59,0,0,0-.13.13c-.08.1-.17.23-.29.41a3.75,3.75,0,0,1-.24.36c-.09.12-.19.24-.34.41a4.64,4.64,0,0,0-.31.4l-.08.13-.13.24a5.94,5.94,0,0,0-.43.84,4,4,0,0,0-.18.66l0,.21-.06.24a2.7,2.7,0,0,1-.21.51.05.05,0,0,1,0,0,2,2,0,0,0-.14,1.37c0,.15,0,.31.05.5v.24a6.7,6.7,0,0,0,0,.72,2.33,2.33,0,0,0,.08.36,4.72,4.72,0,0,0,.26.56l.13.28a3,3,0,0,1,.15.42,2.75,2.75,0,0,0,.19.49,2.08,2.08,0,0,0,.37.51l.32.3.6.54a3.55,3.55,0,0,0,.64.49,4.73,4.73,0,0,0,.72.31l.41.19a2,2,0,0,0,1,.54,4.91,4.91,0,0,1,.73.19,4.6,4.6,0,0,0,.49.16,5.13,5.13,0,0,1,.79.29l.28.13c.29.14.57.27.84.43l.42.23a7,7,0,0,1,.71.42,3.49,3.49,0,0,1,.48.4l.15.13a4.69,4.69,0,0,0,.37.33l.46.31.09.05a.41.41,0,0,0,.11.07l.34.2a4.23,4.23,0,0,1,.5.45l.11.11s.1.07.15.11,0,.24,0,.36a2.65,2.65,0,0,1-.46-.39l-.15-.15a2.34,2.34,0,0,0-.35-.29l-.2-.11-.13-.08a5.35,5.35,0,0,1-.67-.46,4.23,4.23,0,0,1-.4-.34l-.07-.07a5,5,0,0,0-.43-.37l-.11-.07c-.2-.13-.4-.24-.61-.35l-.45-.25a8,8,0,0,0-.77-.39l-.42-.2a4.23,4.23,0,0,0-.63-.21l-.41-.13a4.09,4.09,0,0,0-.71-.2l-.54-.11a4.76,4.76,0,0,1-.57-.19,2.38,2.38,0,0,0-.47-.17,1.54,1.54,0,0,0-.31,0,6.74,6.74,0,0,0-1,0h-.2a2.2,2.2,0,0,0-.37.06l-.18,0-.17,0a3.32,3.32,0,0,1-.43.12,2.53,2.53,0,0,1-.47,0h0a2.3,2.3,0,0,0-1.42.37l-.12.08-.33.19a1.69,1.69,0,0,0-.31.21c-.08.06-.16.14-.3.27a3.8,3.8,0,0,1-.37.33,8.23,8.23,0,0,0-.89.78,3.1,3.1,0,0,1-.49.38l-.07,0a2.17,2.17,0,0,0-.63.65l-.17.32-.1.19a2.39,2.39,0,0,1-.12.22,1.77,1.77,0,0,0-.23.63,1.06,1.06,0,0,0,0,.19,3.64,3.64,0,0,1-.14.47l-.19.45a3.48,3.48,0,0,0-.2.62,3.18,3.18,0,0,1-.11.38l0,.12c0,.15-.08.29-.11.44a1,1,0,0,0,0,.24,4,4,0,0,1-.08.46,1.48,1.48,0,0,0,0,.19,2,2,0,0,0,0,.34,2,2,0,0,0,.18.84,2,2,0,0,1,.17.48,7,7,0,0,0,.26,1.16c0,.14.07.27.13.5a2.75,2.75,0,0,0,.13.47l.09.21a4.36,4.36,0,0,0,.44.64l.21.28a3.13,3.13,0,0,1,.22.36l.08.13a2,2,0,0,0,1,.88l.36.18.2.12.09,0,.14.08.4.2a2,2,0,0,0,1,.15h.29l.12,0a3.28,3.28,0,0,1,.41.08l.29.08a2,2,0,0,0,.54,0c.3,0,.62-.08,1-.14l.18,0a3.94,3.94,0,0,0,.66-.2,4.31,4.31,0,0,1,.67-.21,3.78,3.78,0,0,1,.84-.06h.17l.3,0a2,2,0,0,0,.59-.15,2.63,2.63,0,0,1,.66-.12h.16a6,6,0,0,1,1.39.32,2.68,2.68,0,0,1,.51.26,2.85,2.85,0,0,0,.37.23l.21.11a2.23,2.23,0,0,1,.53.4l.09.07a2.08,2.08,0,0,0,.43.3,2.35,2.35,0,0,0,.45.17,3,3,0,0,1,.58.25l.11.06.44.17.06,0a2.1,2.1,0,0,1,.5.23l1.5,1,.54.34a2.26,2.26,0,0,1,.42.31,1.2,1.2,0,0,0,.21.17,2.05,2.05,0,0,0,.46.25,6.22,6.22,0,0,0,1,.31l.22,0h.25a3.1,3.1,0,0,0,.41,0h.19a2,2,0,0,0,.81-.17l.08,0a2.3,2.3,0,0,1,.42-.14,4.59,4.59,0,0,0,1.06-.42,3.39,3.39,0,0,1,.51-.17,1.25,1.25,0,0,0,.25-.09l.2-.09a1.46,1.46,0,0,0,.33-.22l.38-.32a2,2,0,0,0,.59-.93,2.09,2.09,0,0,1,.19-.5,1.44,1.44,0,0,1,.3-.36,2,2,0,0,0,.5-.79,3.62,3.62,0,0,0,.56-.17l.2.07a2.29,2.29,0,0,0,.56,1.43,1.92,1.92,0,0,0-.48.32l0,0-.17.15-.23.2a3.42,3.42,0,0,0-.57.61l-.22.26-.13.15a3.66,3.66,0,0,0-.28.45l-.06.1a2.55,2.55,0,0,1-.24.38,2,2,0,0,0-.61,1.18l-.12.32a4.43,4.43,0,0,0-.29.91l0,.25a3.94,3.94,0,0,0,.09,2.17,3.41,3.41,0,0,0,.34.94c0,.09.08.18.14.34a10.54,10.54,0,0,0,.57,1.07,5.3,5.3,0,0,0,.49.71l.28.38a5.4,5.4,0,0,1,.32.52,3.47,3.47,0,0,0,.38.6c.07.09.15.17.22.25l.12.13.12.13a3.61,3.61,0,0,1,.36.4c.16.19.3.39.48.62l.32.44c.28.34.54.69.76,1s.21.35.32.54.22.38.38.61.36.49.54.72l.23.3a2.18,2.18,0,0,0,.47.44h0a2.91,2.91,0,0,1,.48.45,2.28,2.28,0,0,1,.33.6h0a.75.75,0,0,1,.06.13,2.34,2.34,0,0,0,.69.78l.09.07a3.54,3.54,0,0,1,.46.37l.38.39a5.5,5.5,0,0,0,.55.54,3.91,3.91,0,0,1,.36.4l0,0a1.18,1.18,0,0,1,.13.18,2.08,2.08,0,0,0,1,.65l.06,0a4.23,4.23,0,0,1,.46.21l.45.31a5,5,0,0,0,.53.36l.16.08a4.27,4.27,0,0,0,.92.26l.45.11a6,6,0,0,0,1,.19l.31,0,.62,0,.34,0a9.46,9.46,0,0,0,1.1-.14,2.72,2.72,0,0,0,.38-.11,1.69,1.69,0,0,0,.34-.18,3.06,3.06,0,0,1,.49-.22,4.5,4.5,0,0,0,.82-.34l.33-.15a2.69,2.69,0,0,1,.5-.15,2,2,0,0,0,1.19-.76,2.25,2.25,0,0,1,.33-.35l.19-.16a5.78,5.78,0,0,0,.71-.65,3.7,3.7,0,0,1,.28-.28l.15-.16a3.87,3.87,0,0,0,.34-.4,2,2,0,0,0,.11-.2l.06-.09c.08-.16.17-.32.23-.46a2,2,0,0,0,.18-.84,2.11,2.11,0,0,0,0-.25,3.33,3.33,0,0,1,0-.57l0-.13a1.8,1.8,0,0,1,0-.22,3,3,0,0,0,0-.84,5.08,5.08,0,0,0-.19-.86s0-.09,0-.11l-.1-.36c0-.1-.05-.2-.07-.29s-.08-.34-.13-.49a1.47,1.47,0,0,0-.15-.34,4.52,4.52,0,0,0-.72-1.06,5,5,0,0,0-.63-.5l-.26-.2a11.13,11.13,0,0,0-1.09-.7,3.88,3.88,0,0,0-.63-.26,5.32,5.32,0,0,1-.53-.21,2.39,2.39,0,0,1-.55-.41l-.12-.11-.16-.14a2.21,2.21,0,0,0-.36-.23l-.19-.09a4.83,4.83,0,0,1-.75-.47l-.2-.14a1.09,1.09,0,0,0-.17-.13,2.23,2.23,0,0,1-.7-.64,2.09,2.09,0,0,1-.24-.58c0-.08,0-.1-.06-.17a2.18,2.18,0,0,0-.11-.27.77.77,0,0,0-.07-.16,4.37,4.37,0,0,0-.27-.44l-.1-.16c-.11-.17-.22-.36-.34-.57s-.2-.39-.32-.64a3.74,3.74,0,0,0-.29-.56,1.43,1.43,0,0,0-.14-.2l-.06-.07.26-.15a2.55,2.55,0,0,1,.21.28c.12.21.22.43.34.69s.15.31.26.52.24.4.37.6.2.3.28.46l.07.11a1.28,1.28,0,0,1,.11.24,2,2,0,0,0,.65.83l.24.18a3.26,3.26,0,0,0,.61.42c.16.08.32.14.49.21l.12.05a2.75,2.75,0,0,1,.36.15,2.12,2.12,0,0,0,.68.2,3.89,3.89,0,0,1,.6.16,3.39,3.39,0,0,1,.39.18l0,0,.29.16a1.64,1.64,0,0,0,.5.17l.23.06a4.23,4.23,0,0,0,.8.2,6,6,0,0,0,.74,0h.6c.25,0,.52,0,.83-.05h.13c.52-.05.88-.09,1.24-.16l.38-.1a5.48,5.48,0,0,0,.55-.14,1.93,1.93,0,0,0,.7-.42l.07-.05a1.91,1.91,0,0,1,.42-.32c.12-.08.25-.14.46-.25a3.48,3.48,0,0,0,.36-.22l.21-.16a2.86,2.86,0,0,1,.38-.26h0a2,2,0,0,0,.67-.54l.09-.11a7.12,7.12,0,0,0,.48-.64.82.82,0,0,0,.12-.2,2.31,2.31,0,0,0,.2-.54,2.48,2.48,0,0,1,.2-.52c.06-.12.13-.23.2-.35l.07-.1a5.36,5.36,0,0,0,.3-.59c0-.12.09-.23.16-.39a.54.54,0,0,0,0-.11c.06-.14.12-.28.17-.42a2,2,0,0,0,.05-1.08c0-.16,0-.31,0-.4a4.25,4.25,0,0,0-.13-.9l-.07-.35c0-.16-.06-.33-.07-.45a3.19,3.19,0,0,0-.11-.65,1.87,1.87,0,0,0-.26-.53,3,3,0,0,0-.24-.71,1.87,1.87,0,0,1,.11-1.79l.1,0a2.21,2.21,0,0,0,.48.15l.1,0a7.33,7.33,0,0,0,1.19.12,6.9,6.9,0,0,0,1.07-.1,1.84,1.84,0,0,0,.56-.18l.09,0,.1,0a3.31,3.31,0,0,1,.38-.19l.16-.06a5.68,5.68,0,0,0,.94-.41l.34-.19a4.08,4.08,0,0,0,.5-.29,1.76,1.76,0,0,0,.3-.24,7.26,7.26,0,0,0,.51-.64l.1-.14a2.07,2.07,0,0,0,.15-.25,2.36,2.36,0,0,0,.12-.28.88.88,0,0,0,.05-.15,4.24,4.24,0,0,1,.18-.46c.06-.12.13-.23.19-.34l0-.06a1.22,1.22,0,0,0,.12-.19,2.14,2.14,0,0,0,.23-.54.75.75,0,0,1,.05-.16l.07-.21a3,3,0,0,0,.15-.48,1.09,1.09,0,0,0,0-.26,4.71,4.71,0,0,0,0-.95v-.15a2.06,2.06,0,0,0-.24-.82l-.12-.32-.09-.49a.43.43,0,0,0,0-.11,2.25,2.25,0,0,0-.18-.64,3.72,3.72,0,0,1-.15-.48,2.07,2.07,0,0,0-.87-1.31,3.47,3.47,0,0,1-.37-.3,8,8,0,0,0-.94-.81,10,10,0,0,0-1.07-.68l-.43-.26-.1-.06c-.16-.1-.33-.2-.58-.33a7.66,7.66,0,0,0-.72-.27l-.19-.07-.27-.11-.07,0-.08,0a.7.7,0,0,1,.4-.49h.39l.47,0,.1,0a4.44,4.44,0,0,0,.62,0h1.23c.38,0,.76-.05,1.13-.09a2.22,2.22,0,0,0,.49-.13l.2-.07a2.5,2.5,0,0,1,.54-.19,1.82,1.82,0,0,1,.62,0h.25a1.84,1.84,0,0,0,.41,0l.45-.09a3.06,3.06,0,0,0,.57-.12,1.93,1.93,0,0,0,.61-.3l.13-.1a2.9,2.9,0,0,1,.49-.3,5,5,0,0,0,.72-.44l.28-.17.41-.23.17-.09a2.07,2.07,0,0,0,.25-.15,1.14,1.14,0,0,0,.25-.18c.11-.09.25-.18.39-.28l.12-.08a2.1,2.1,0,0,0,.52-.51,3.07,3.07,0,0,0,.24-.48,2.93,2.93,0,0,1,.19-.4l.1-.18c.05-.11.14-.34.22-.57l.18-.5a3.59,3.59,0,0,1,.15-.37,2.8,2.8,0,0,0,.26-.74v0c.06-.31.11-.63.14-.89A2.34,2.34,0,0,0,276.9,201.94ZM243,205.44c0-.1,0-.19-.07-.28a2.22,2.22,0,0,1-.1-.41,13.23,13.23,0,0,1,1.42-.46,2.25,2.25,0,0,0,.36.06h0a2,2,0,0,0,1.17-.39,6.64,6.64,0,0,1,1.08-.06,1.8,1.8,0,0,0,.11.5,2.44,2.44,0,0,0,0,1.21,3.11,3.11,0,0,1,.07.67l-.09,0a2.23,2.23,0,0,0-.61.27l-.2.15,0,0a2.67,2.67,0,0,1-.48.32c-.13.07-.28.13-.42.19a3.38,3.38,0,0,0-.51.24l-.14.08a3.46,3.46,0,0,1-.47.26l-.28.12a1.94,1.94,0,0,0-.44.31,7.82,7.82,0,0,0-.76.78,2.33,2.33,0,0,0-.17.26l-.39-.06c.14-.33.27-.65.39-1a2.81,2.81,0,0,1,.21-.47l0-.09a2.19,2.19,0,0,0,.13-.27,1.84,1.84,0,0,0,.16-.6c0-.12,0-.41,0-.8v-.12A1.84,1.84,0,0,0,243,205.44ZM228.34,183.6a1.58,1.58,0,0,0-.36.14h0A2.22,2.22,0,0,1,228.34,183.6Zm10.82,33.47a5.21,5.21,0,0,0-1.22.42,2.5,2.5,0,0,1-.43.16,2,2,0,0,0-1.16.83,5.49,5.49,0,0,1-.37.43.79.79,0,0,1-.2,0h0l-.1-.15-.07-.13a.24.24,0,0,1,0-.08c0-.18.1-.36.17-.58a3.39,3.39,0,0,0,.17-.59,2.27,2.27,0,0,0,0-.76c0-.11,0-.21,0-.32a5,5,0,0,1,1-1.24,2,2,0,0,0,1.14.37h0a1.94,1.94,0,0,0,1.06-.31,1.4,1.4,0,0,0,.1.16,4.45,4.45,0,0,0,.9.86,2.8,2.8,0,0,0-.49.76h-.06ZM342.34,260.7a2.19,2.19,0,0,1-.1.63c-.07.19-.19.47-.32.74a2.07,2.07,0,0,1-.46.71l-.16.14,0,0a2.45,2.45,0,0,1-.44.81l-.75.88a2.92,2.92,0,0,1-1.51,1,3.63,3.63,0,0,1-.68.35,5.75,5.75,0,0,1-1.05.24l-.1,0-.2,0a6.22,6.22,0,0,1-1.18.12h-.14a3.08,3.08,0,0,1-.86-.17l-.13,0-.31-.07-.1,0a2.2,2.2,0,0,0-.37-.06h-.22a4.22,4.22,0,0,1-.56-.11l-.15,0a13.13,13.13,0,0,1-1.22-.52l-.11-.06a3.28,3.28,0,0,1-.53-.39l-.11-.08-.05,0a2,2,0,0,1-.23-.18l0,.1a2.75,2.75,0,0,1-.17.29c.07.16.14.3.19.43a.78.78,0,0,0,.05.14c.06.15.12.31.19.46a3.24,3.24,0,0,0,.35.55v0a2.09,2.09,0,0,1,.34.56l.15.39a9.59,9.59,0,0,1,.31,1,3,3,0,0,1,.08.68v.1c0,.23,0,.41,0,.59a4.18,4.18,0,0,0,.09.5,3.33,3.33,0,0,1,.12.8,1.34,1.34,0,0,1,0,.2,2.54,2.54,0,0,1-.14.64,2.94,2.94,0,0,0-.1.52,10.49,10.49,0,0,1-.28,1.35,6,6,0,0,1-.48,1.26l-.16.31a2.34,2.34,0,0,0-.14.27,2,2,0,0,1-.51.68,2.75,2.75,0,0,1-.68.44,4.12,4.12,0,0,0-.42.26,5.38,5.38,0,0,1-1.12.57,4.36,4.36,0,0,1-1.31.31l-.34,0a5.47,5.47,0,0,1-1-.1l-.43,0h-.13a1.91,1.91,0,0,1-.81-.21,2.2,2.2,0,0,1-.38-.24l-.24-.22a2.65,2.65,0,0,0-.42-.38l-.36-.22-.1-.06a2.44,2.44,0,0,1-.58-.39l-.1-.09-.27-.27a5.94,5.94,0,0,1-.55-.57,1.87,1.87,0,0,1-.33-.54c0-.07-.07-.2-.1-.3l0,0a4.4,4.4,0,0,0-.25-.58,4.28,4.28,0,0,0-.52-.67,3.31,3.31,0,0,1-.35-.41c-.14-.16-.33-.33-.49-.48l-.05-.06c-.13-.11-.26-.22-.38-.34l-.1-.11a3.92,3.92,0,0,1-.25-.32,5.57,5.57,0,0,0-.54-.63,5.7,5.7,0,0,0-.53-.41l-.1-.07a4.12,4.12,0,0,1-.41-.32l-.31-.27c-.2-.17-.46-.4-.7-.63l-.4-.33-.16-.12-.3-.25a2,2,0,0,1-.37-.46,1.1,1.1,0,0,1-.09-.14s-.07-.13-.08-.15a2.39,2.39,0,0,0-.33-.52,2.29,2.29,0,0,0-.27-.27h0c-.7-.14-1.07-.18-1.25-.2,0,0,0,0,0,.06a2.46,2.46,0,0,1,.06.53.41.41,0,0,1,0,.11,2.77,2.77,0,0,0,.08.73,5.45,5.45,0,0,0,.42,1l.14.3a4.93,4.93,0,0,1,.24.64s0,.13,0,.15.1.32.16.48l.05.14c.15.39.28.75.38,1.11.05.18.11.35.16.53a5.38,5.38,0,0,1,.2.64l0,.14c.06.45.11.87.13,1.33a3.21,3.21,0,0,0,.11.59l0,.14,0,.14a2,2,0,0,1,0,.92s-.06.17-.07.21l0,.13a4.13,4.13,0,0,0-.15.5,4,4,0,0,1-.3.91c0,.09-.09.24-.15.38s-.06.22-.1.33l0,.15a4.28,4.28,0,0,1-.15.53l-.08.18a5.79,5.79,0,0,1-.74,1l-.15.16a6.74,6.74,0,0,1-.95.86l-.24.19a3.87,3.87,0,0,1-.78.54,6.26,6.26,0,0,1-1.16.42,2.63,2.63,0,0,1-.94,0h-.09a1.63,1.63,0,0,0-.36,0,3.16,3.16,0,0,0-.59.06h0a2.06,2.06,0,0,1-1.49-.27l0,0-.48-.25-.26-.09-.23-.08a2,2,0,0,1-1.15-.76l-.11-.16c-.1-.13-.22-.27-.33-.39a3.91,3.91,0,0,1-.56-.79l-.05-.09a1.37,1.37,0,0,1-.13-.2l-.25-.33a4.16,4.16,0,0,1-.34-.46,2,2,0,0,1-.13-.25l-.21-.44c-.13-.25-.27-.57-.29-.62a2,2,0,0,1-.1-.49,4.56,4.56,0,0,1,0-.64,4.38,4.38,0,0,0,0-.51l-.06-.51a5.75,5.75,0,0,1-.05-.88,3.21,3.21,0,0,1,.1-.7,7,7,0,0,0,.12-.74,3,3,0,0,0,0-.67s0-.08,0-.11,0-.31,0-.45a1.21,1.21,0,0,1,0-.19,2.9,2.9,0,0,1,.14-.65,3.34,3.34,0,0,0,.15-.8,4.14,4.14,0,0,0-.08-.87c0-.2-.06-.35-.07-.5a2.58,2.58,0,0,1,0-.66,3.09,3.09,0,0,0,0-.81,3.58,3.58,0,0,0-.33-.85,4.43,4.43,0,0,1-.2-.43l-.09-.2a7.61,7.61,0,0,0-.53-1.18,7.28,7.28,0,0,0-.72-1l-.15-.18a4.34,4.34,0,0,0-.63-.58l-.12-.09-.24-.19a1.36,1.36,0,0,1-.24-.24l-.24-.32a2.6,2.6,0,0,0-.55-.61c-.22-.16-.45-.29-.65-.41l-.09-.05c-.16-.07-.3-.16-.45-.24a4.89,4.89,0,0,1-.42-.29l-.1-.08-.23-.16a2,2,0,0,1-.74-1,8.74,8.74,0,0,1-1.1-1c-.58-.59-1-1.09-1.39-1.52a15.38,15.38,0,0,0-2.46-1h-.33c-.72.06-1.69.35-2.58.43a2.15,2.15,0,0,0-.56.94,1.78,1.78,0,0,1,.3.17,2.36,2.36,0,0,0,.57.29c.23.06.4.09.58.12a3.32,3.32,0,0,1,.71.16,9.84,9.84,0,0,1,1,.5l.18.1c.18.09.35.17.53.24a2.17,2.17,0,0,0-.32-.06,2,2,0,0,1,1.2.59,2.52,2.52,0,0,1,.38.46l.06.07c.09.11.17.22.27.33a3.39,3.39,0,0,0,.46.39h0a2,2,0,0,1,.8,1.05l0,.13,0,.12a3,3,0,0,0,.14.42l0,.09a8.24,8.24,0,0,1,.37,1.25,8.44,8.44,0,0,1,.2,1.35l0,.47a5.55,5.55,0,0,1,0,.92,6.46,6.46,0,0,1-.1.67l0,.12a.52.52,0,0,1,0,.11,3.4,3.4,0,0,0-.07.34l-.05.22a6.27,6.27,0,0,0-.12,1.21,2,2,0,0,0,.19.71l0,.11a.58.58,0,0,1,.05.14,1.87,1.87,0,0,1,.1.62,2.19,2.19,0,0,1,0,.36,2,2,0,0,0,0,.8c.08.37.17.69.27,1l.12.45.18.57.18.56s0,.1,0,.15l.15.6c.06.27.1.48.16.68a4.64,4.64,0,0,0,.22.61,3.81,3.81,0,0,1,.21.59,5.47,5.47,0,0,0,.18.63,3.33,3.33,0,0,1,.19.67s0,.09,0,.14a7.67,7.67,0,0,1,0,1v.33a5.92,5.92,0,0,1-.18,1.2l0,.1a3.42,3.42,0,0,1-.45,1l-.27.51a2.64,2.64,0,0,1-.2.36,1.93,1.93,0,0,1-.69.67l-.34.18c-.13.07-.26.14-.38.22a2.14,2.14,0,0,0-.46.35,3.36,3.36,0,0,1-.25.23,1.86,1.86,0,0,1-.49.29,7.64,7.64,0,0,1-.91.31,2.05,2.05,0,0,1-.49.06,1.64,1.64,0,0,1-.38,0l-.1,0-.16,0a4,4,0,0,0-.56-.11,5.69,5.69,0,0,1-1.19-.21l-.13,0-.47-.1-.14,0-.24-.05a1.94,1.94,0,0,1-.5-.2c-.3-.17-.56-.32-.78-.46a2.6,2.6,0,0,1-.36-.3,1.83,1.83,0,0,1-.24-.31,1.19,1.19,0,0,1-.09-.15,2.23,2.23,0,0,0-.4-.6l-.32-.29a4.82,4.82,0,0,1-.68-.68c-.1-.1-.27-.24-.43-.37a3.08,3.08,0,0,1-.39-.32,1.78,1.78,0,0,1-.22-.26c-.17-.24-.32-.49-.46-.73l-.2-.34a8.19,8.19,0,0,1-.48-1,1.5,1.5,0,0,1-.15-.42l-.11-.44c-.07-.26-.14-.54-.22-.8s-.18-.43-.28-.66a5.55,5.55,0,0,1-.24-.64c0-.1-.12-.3-.2-.47a.69.69,0,0,0,0-.13,4.2,4.2,0,0,1-.2-.6,6.21,6.21,0,0,1-.15-.85l-.06-.44c0-.15,0-.27-.06-.39s0-.07,0-.11l0-.17a5.37,5.37,0,0,1-.07-.75,1.48,1.48,0,0,1,0-.21c0-.15,0-.29.07-.44l0-.11a3.76,3.76,0,0,0,.1-.66v-.12c0-.18,0-.35,0-.52a2.52,2.52,0,0,1-.29-.12c0,.16,0,.32,0,.47v.22a1.34,1.34,0,0,1,0,.2c0,.15-.05.31-.08.46a3,3,0,0,0-.12.81,6.83,6.83,0,0,0,.09.89l.1.69a8.46,8.46,0,0,0,.2,1.24,5,5,0,0,0,.26.7l.15.38a2.25,2.25,0,0,1,.08.24,2.77,2.77,0,0,0,.1.26l.06.12a2.08,2.08,0,0,1,.16.92,3.71,3.71,0,0,0,.34.91,2.28,2.28,0,0,1,.15.36,2,2,0,0,1,.07.26c0,.14,0,.28,0,.42s0,.37.06.57a3.94,3.94,0,0,1,0,.69v.27c0,.11,0,.21,0,.32a3.25,3.25,0,0,0,.06.51c0,.05,0,.14,0,.21a2,2,0,0,1,0,.69,6.77,6.77,0,0,1-.26,1,3.6,3.6,0,0,1-.2.39l-.26.34a.65.65,0,0,1-.08.09c-.12.16-.23.28-.33.42l-.23.37a5.71,5.71,0,0,1-.38.59l-.15.17a5.39,5.39,0,0,1-.78.59l-.28.18a5.63,5.63,0,0,1-1.13.6l-.2.1-.18.08c-.25.13-.41.19-.5.23a1.86,1.86,0,0,1-.47.09h-.24l-.41,0-.3,0a1.81,1.81,0,0,1-.56-.06l-.44-.14a4.09,4.09,0,0,0-.44-.13c-.29,0-.57,0-.79,0a1.92,1.92,0,0,1-.63-.14,6.26,6.26,0,0,1-1.06-.54,3.27,3.27,0,0,1-.64-.55c-.11-.1-.22-.21-.32-.29a1.52,1.52,0,0,1-.22-.22,3.15,3.15,0,0,1-.22-.29l-.07-.09c-.11-.15-.22-.31-.34-.45a2,2,0,0,0-.38-.32,1.09,1.09,0,0,1-.17-.13,2,2,0,0,1-.52-.57c-.19-.33-.37-.64-.51-.93l-.05-.13a8.39,8.39,0,0,1-.33-.88,2,2,0,0,1-.09-.59c0-.1,0-.25,0-.34a2.64,2.64,0,0,0,.05-.66,1.76,1.76,0,0,0-.14-.49,2,2,0,0,1,0-1.52,2.43,2.43,0,0,0,.18-.59,12.76,12.76,0,0,0,.15-1.31,2.08,2.08,0,0,0-.17-.75s0,0,0,0a2,2,0,0,1-.12-.68,2.4,2.4,0,0,1,.05-.46,2,2,0,0,0,.06-.77,2.24,2.24,0,0,0-.31-.67v0s0-.09-.07-.12a2,2,0,0,1-.24-.95v-.11a2.7,2.7,0,0,0-.07-.67l0-.09c-.05-.2-.1-.4-.14-.6s-.09-.42-.16-.64l-.14-.45q-.12-.37-.24-.78l-.16-.48c-.1-.3-.18-.55-.24-.81a2.28,2.28,0,0,0-.27-.57l-.1-.17a2.54,2.54,0,0,1-.22-.71,9.57,9.57,0,0,1-.05-1.1,5.59,5.59,0,0,1,.13-1.25l0-.17a3.83,3.83,0,0,1,.37-1.22,4,4,0,0,1,.57-.76l.19-.22a5.17,5.17,0,0,1,.87-.8,1.9,1.9,0,0,1,.51-.3l.15-.06a3.52,3.52,0,0,0,.59-.28,1.55,1.55,0,0,0,.24-.19,4.14,4.14,0,0,1,0-.62,2,2,0,0,0-.11-.75l-.25-.08a2,2,0,0,1-1-.67h0a2.33,2.33,0,0,0-.41-.38,2.42,2.42,0,0,0-.5-.26,2,2,0,0,1-1.07-1l-.12-.25c-.06-.14-.13-.26-.19-.38a3.64,3.64,0,0,0-.2-.33,2.9,2.9,0,0,1-.33-.55l-.09-.27a6.46,6.46,0,0,1-.17-1.33v-.11a3.47,3.47,0,0,1,.07-.63c0-.22.06-.39.08-.56l0-.11c0-.08,0-.26,0-.45h0a2,2,0,0,1,0-.91,6.81,6.81,0,0,1,.23-.68l.07-.2c0-.11.08-.21.11-.32.11-.36.26-.75.41-1.15l0-.1c.09-.22.18-.39.26-.55l.06-.12a5.14,5.14,0,0,0,.29-.57,3.26,3.26,0,0,0,.21-.73,5.52,5.52,0,0,1,.14-.58,4.32,4.32,0,0,1,.22-.47l.06-.12a2.24,2.24,0,0,0,.28-.65c.12-.45.21-.88.3-1.3s.11-.54.14-.77.05-.39.09-.6a1.36,1.36,0,0,1,0-.17c.05-.18.11-.38.17-.57l0-.14a4.12,4.12,0,0,0,.13-.47c0-.16.07-.39.09-.6v-.11a3.61,3.61,0,0,1,.14-.7,2.32,2.32,0,0,1,.25-.58,5.23,5.23,0,0,0,.29-.62,3.61,3.61,0,0,0,.14-.53l0-.22a2.6,2.6,0,0,1,.21-.55,3,3,0,0,0,.15-.31l.06-.12.1-.24a2,2,0,0,1,.39-.53,2.52,2.52,0,0,1,.56-.41,3.33,3.33,0,0,0,.48-.28,3,3,0,0,0,.39-.4,2.18,2.18,0,0,1,1.46-.69,2.7,2.7,0,0,0,.41-.06l.21,0a3.87,3.87,0,0,1,.48,0h.69a3.63,3.63,0,0,0,.59-.11,2.1,2.1,0,0,1,1.57.23l.09.05.09.05.23.13a3.24,3.24,0,0,1,.78.65l.17.15a3.05,3.05,0,0,0,.3.26l.38.33a2.07,2.07,0,0,1,.39.54,2.45,2.45,0,0,1,.18.52,4.83,4.83,0,0,0,.19.5,6.33,6.33,0,0,1,.26.78c.05.2.09.31.12.4a2.17,2.17,0,0,0,.28.61h0a2,2,0,0,1,.3,1c0,.07,0,.21,0,.29a2.49,2.49,0,0,0,0,.61c0,.37.06.68.07,1l0,.34a2.32,2.32,0,0,0,.06.44l.28-.1c0-.09,0-.18,0-.26a.66.66,0,0,1,0-.14v-.33c0-.29,0-.62-.07-.91a1.93,1.93,0,0,1,0-.24,3.4,3.4,0,0,1,0-.45,2.76,2.76,0,0,0,0-.7c0-.08,0-.15,0-.23a6,6,0,0,1,.08-1.13l0-.25a6.13,6.13,0,0,1,.11-.7,2.09,2.09,0,0,1,.28-.63l.13-.17a2.73,2.73,0,0,0,.36-.52,2.89,2.89,0,0,0,.2-.47,3.17,3.17,0,0,1,.26-.57c.09-.15.18-.28.28-.42a6.75,6.75,0,0,1,.45-.58l.11-.12L283,232l.37-.36a2,2,0,0,1,1-.47,2.38,2.38,0,0,0,.58-.12c.12-.05.27-.11.42-.19l.17-.07.12,0a1.93,1.93,0,0,1,.75-.15,6.94,6.94,0,0,1,.94.07h.16a5.56,5.56,0,0,1,1.17.29l.19.06c.12,0,.31.07.49.11l.25.05a2,2,0,0,1,1.06.69l.19.25a4,4,0,0,0,.26.32,4.89,4.89,0,0,1,.74,1.07,6.19,6.19,0,0,1,.47,1.35l0,.15c.07.32.15.71.2,1.11l.06.43a6.09,6.09,0,0,1,.09.9,3.71,3.71,0,0,1-.07.67c0,.2-.06.38-.07.56s0,.29,0,.41c.1-.12.2-.25.31-.37a3.86,3.86,0,0,1,.06-.49,6,6,0,0,0,.07-.64,2.13,2.13,0,0,1,.16-.66c0-.05,0-.11,0-.15a3.65,3.65,0,0,1,.22-.61l.26-.62a8.2,8.2,0,0,1,.57-1.22c.09-.17.16-.33.24-.49a3.42,3.42,0,0,1,.43-.78c.05-.06.12-.19.2-.31l.09-.14a3.71,3.71,0,0,1,.52-.69,8.39,8.39,0,0,1,1.06-.9,7,7,0,0,1,1.08-.66,1.81,1.81,0,0,1,.65-.19l.22,0a4.85,4.85,0,0,0,.61-.08h.1l.23-.06L300,230a3.75,3.75,0,0,1,.71-.12,5.06,5.06,0,0,1,.67,0,3.15,3.15,0,0,1,3.57,1.57l.19.24.16.21a3.25,3.25,0,0,0,.26.3h0l.06.06a2,2,0,0,1,.6,1.37s0,.08,0,.12a2.12,2.12,0,0,0,0,.44,2.83,2.83,0,0,0,.18.58,2.51,2.51,0,0,1,.1.27,1.93,1.93,0,0,1,.06,1l-.06.3s0,.08,0,.12l-.09.39a10.22,10.22,0,0,1-.27,1.3,4.65,4.65,0,0,0-.14.57,2.56,2.56,0,0,1-.13.53,1.94,1.94,0,0,1-.38.67l-.08.09a1.65,1.65,0,0,0-.4.62,2.21,2.21,0,0,0,0,.84v.08a1.8,1.8,0,0,1,0,.73l0,.1a.59.59,0,0,1,0,.14,3.61,3.61,0,0,0-.1.83,9.76,9.76,0,0,0,.13,1.21l0,.1a3.92,3.92,0,0,0,.2.77l.13.41a2.14,2.14,0,0,1,.06.5,3.07,3.07,0,0,1,0,.38,2.66,2.66,0,0,0,0,.63,5.7,5.7,0,0,0,.17.56,2.39,2.39,0,0,1,.15.53,1.72,1.72,0,0,1,0,.64l0,.21,0,.11c0,.16-.06.31-.08.46l0,.25a4.16,4.16,0,0,1-.19,1.09c-.07.23-.13.41-.19.57h.41a2,2,0,0,1,.89-.64,1.75,1.75,0,0,0,.51-.26,2.77,2.77,0,0,0,.55-.63c.11-.15.24-.32.38-.48s.33-.45.51-.71l.22-.36.17-.24.3-.32a2.61,2.61,0,0,0,.48-.65,8.56,8.56,0,0,0,.51-1.31,9.12,9.12,0,0,0,.36-1.41,4.26,4.26,0,0,0,0-.94V243c0-.37,0-.75,0-1.11,0-.11,0-.21,0-.31l0-.25s0-.15,0-.2a3.39,3.39,0,0,0,.06-.72l0-.75c0-.2,0-.4,0-.61v-.42a6.35,6.35,0,0,1,.06-1c0-.16,0-.32.06-.48a3.15,3.15,0,0,1,.14-.84,5.73,5.73,0,0,1,.67-1.3l.06-.09a7.92,7.92,0,0,1,.79-1,7.25,7.25,0,0,1,1-.87,1.91,1.91,0,0,1,.61-.29l.36-.1a2.24,2.24,0,0,0,.34-.11,7,7,0,0,1,1.26-.37l.19,0a10,10,0,0,1,1.06-.08h.15a4.73,4.73,0,0,0,.58,0,2.92,2.92,0,0,1,.72,0,4.72,4.72,0,0,1,1.18.32,1.81,1.81,0,0,1,.6.42,1.85,1.85,0,0,1,.14.14,4.54,4.54,0,0,0,.37.38,5.36,5.36,0,0,1,.87,1,6.82,6.82,0,0,1,.6,1.09,3.3,3.3,0,0,0,.28.49,2.26,2.26,0,0,1,.25.47,1.86,1.86,0,0,1,.1.25,7.85,7.85,0,0,1,.24,1.2,2.16,2.16,0,0,1,0,.36c0,.14,0,.28-.06.43s-.08.47-.11.66a9,9,0,0,1-.22,1.21,4.08,4.08,0,0,0-.1.45,2.79,2.79,0,0,1-.18.81c-.14.35-.26.69-.37,1l-.1.31c0,.1-.09.25-.15.4l0,.1c-.12.31-.21.53-.28.77a4.59,4.59,0,0,1-.17.54l-.05.12a3.83,3.83,0,0,0-.21.65,4.77,4.77,0,0,0-.1.66,3.76,3.76,0,0,1-.09.65,6.68,6.68,0,0,1-.18.71l-.17.64c0,.13-.08.3-.11.46a5.15,5.15,0,0,1-.23.87s0,.07,0,.11-.08.14-.11.21a3,3,0,0,1,.5.56l.32-.07.25-.05,0,0,.28-.12.09,0a2.31,2.31,0,0,0,.55-.26,3.57,3.57,0,0,0,.49-.38l0,0a2.26,2.26,0,0,1,.62-.44,8.8,8.8,0,0,1,1.21-.45,1,1,0,0,1,.25-.06,2.69,2.69,0,0,1,.64,0h.08a3.8,3.8,0,0,0,.6,0l.29,0a6.46,6.46,0,0,1,1.06-.06,4.34,4.34,0,0,1,1.06.25l.35.11c.19.06.36.09.54.13a2,2,0,0,1,.94.3l.42.3.14.1.1.08.35.26.41.28.83.55a3.48,3.48,0,0,0,.66.35l.13.06a3.87,3.87,0,0,1,.55.26,7.73,7.73,0,0,0,1.22.58,3.17,3.17,0,0,1,.55.24,2.86,2.86,0,0,0,.69.28c.22.05.43.08.64.11l.33,0a1.88,1.88,0,0,1,.61.19,2.14,2.14,0,0,1,.38.23c.23.15.38.25.55.34a6.33,6.33,0,0,1,1.05.68,3.83,3.83,0,0,0,.47.31,1.48,1.48,0,0,1,.33.21,1.67,1.67,0,0,1,.38.37l.07.08a5.73,5.73,0,0,1,.58.84c0,.08.07.15.1.23s.09.34.13.52c0,0,0,.08,0,.11s.06.3.09.43a2.9,2.9,0,0,1,.1.73,1,1,0,0,1,0,.17c0,.14,0,.27,0,.41l0,.27a5.49,5.49,0,0,1,.06,1,3.74,3.74,0,0,0,0,.58.76.76,0,0,1,0,.15C342.33,260.56,342.34,260.65,342.34,260.7Z" style="fill: #00a550"/>
    <path d="M166.68,292.11l-.32.12-.23.09-.13.06a4,4,0,0,1-.74.29,3.69,3.69,0,0,1-1,.09l-.34,0-.46,0h-.11a3.64,3.64,0,0,1-.46,0l-.28,0a6.09,6.09,0,0,1-1.31-.37,4.7,4.7,0,0,1-1.14-.6,4.86,4.86,0,0,1-.95-.79,1.3,1.3,0,0,1-.18-.23,3.47,3.47,0,0,1-.27-.46l-.06-.11,0-.11-.08-.16a.83.83,0,0,1-.09-.16,5.75,5.75,0,0,1-.42-1.13l0-.09a.64.64,0,0,0-.06-.18,5.13,5.13,0,0,1-.23-.95l0-.23s0-.12,0-.14c0-.28,0-.55,0-.77a2,2,0,0,1,.15-.76l0-.05A3.75,3.75,0,0,0,158,285l.05-.23a6.14,6.14,0,0,1,.23-1,6.57,6.57,0,0,1,.42-.91l0-.1a5.75,5.75,0,0,1,.66-1,5.58,5.58,0,0,1,.84-.86,2.09,2.09,0,0,0,.15-.15l.09-.08a2.88,2.88,0,0,1,.35-.34,2,2,0,0,1,.62-.34l.8-.24a8.23,8.23,0,0,1,1.16-.28l.51-.08a5.4,5.4,0,0,1,.57-.07,2.2,2.2,0,0,1,.44.05,3.81,3.81,0,0,1,.45.13l.12,0,.26.07a5.52,5.52,0,0,1,1.21.47l.35.12.15.06a2,2,0,0,1,.41.19,1.88,1.88,0,0,1,.23.16,4.85,4.85,0,0,1,.71.72,2,2,0,0,1,.3.5c0,.08.07.17.1.27s.09.25.15.37a2.4,2.4,0,0,0,.28.44l0,0,.08.1a2.06,2.06,0,0,1,.29.55,2,2,0,0,1,.27,1,13.71,13.71,0,0,1,0,1.41c0,.13,0,.32,0,.5a1,1,0,0,1,0,.17c0,.06,0,.24,0,.3a1.9,1.9,0,0,1-.09.58,4.6,4.6,0,0,1-.19.52c-.09.19-.16.34-.22.49l-.16.55c-.08.26-.17.5-.21.59a2.26,2.26,0,0,1-.16.26,6.09,6.09,0,0,1-.6.66l-.27.28a4,4,0,0,1-.86.74A8.19,8.19,0,0,1,166.68,292.11Zm38.89-31.36a3.56,3.56,0,0,0,.19.78l.14.46a5.77,5.77,0,0,0,.47,1.22,2,2,0,0,1,.15.29,4.53,4.53,0,0,0,.34.61,1.3,1.3,0,0,0,.18.23,5.39,5.39,0,0,0,1,.79,5.67,5.67,0,0,0,1.14.6,6.09,6.09,0,0,0,1.31.37l.28,0a2.85,2.85,0,0,0,.55-.06l.44,0H212a6.93,6.93,0,0,0,.89-.05l.23-.06a5.55,5.55,0,0,0,.69-.28l.44-.18.2-.08a6.86,6.86,0,0,0,.95-.43,3.44,3.44,0,0,0,.76-.64l.45-.46a3.26,3.26,0,0,0,.68-.85,5.24,5.24,0,0,0,.28-.81l.06-.2.06-.17a2.71,2.71,0,0,1,.2-.47,2.85,2.85,0,0,0,.2-.51,2.1,2.1,0,0,0,.08-.56,3.18,3.18,0,0,0,0-.36v-.11a4.83,4.83,0,0,1,0-.56V259c0-.37,0-.73,0-1.13a2,2,0,0,0-.24-.93,1.9,1.9,0,0,0-.39-.71l0,0a3.22,3.22,0,0,1-.25-.39,3.39,3.39,0,0,1-.19-.45,2.53,2.53,0,0,0-.24-.53,1.07,1.07,0,0,0-.15-.22A5,5,0,0,0,216,254a3.07,3.07,0,0,0-.89-.48,2.56,2.56,0,0,1-.4-.16,6.32,6.32,0,0,0-1.06-.41,3.19,3.19,0,0,1-.44-.13l-.15,0a2.33,2.33,0,0,0-.55-.13h-.22l-.63.07-.44.08a8.05,8.05,0,0,0-1.17.28l-.3.09a4.26,4.26,0,0,0-.63.2,2.43,2.43,0,0,0-.73.5.57.57,0,0,1-.11.11c-.1.11-.22.22-.29.29a5,5,0,0,0-.79.8,5.73,5.73,0,0,0-.63,1,8.19,8.19,0,0,0-.51,1.07,8.62,8.62,0,0,0-.23,1l0,.2a4.85,4.85,0,0,1-.15.48l-.09.25a1.87,1.87,0,0,0-.1.62,5.93,5.93,0,0,0,.06.84Zm-26.26,35c0-.51,0-.92,0-1.29h0a2.06,2.06,0,0,0-.3-1.19,1.79,1.79,0,0,0-.2-.39l-.08-.11a.44.44,0,0,0-.08-.11,2.55,2.55,0,0,1-.27-.42,3.62,3.62,0,0,1-.2-.51l-.06-.15a1.87,1.87,0,0,0-.33-.54,5.21,5.21,0,0,0-.6-.62,1.87,1.87,0,0,0-.59-.36l-.28-.11a3.12,3.12,0,0,1-.41-.16,6.39,6.39,0,0,0-1.07-.41,4,4,0,0,1-.46-.14l-.1,0a3.08,3.08,0,0,0-.57-.13h-.22a4.69,4.69,0,0,0-.58.07l-.56.08a8.91,8.91,0,0,0-1.16.29l-.27.09a4.34,4.34,0,0,0-.65.21,2.05,2.05,0,0,0-.43.26,2.09,2.09,0,0,0-.22.2.93.93,0,0,0-.14.14l-.29.28a4.85,4.85,0,0,0-.83.86,6.31,6.31,0,0,0-.55.87.47.47,0,0,0,0,.1,7.72,7.72,0,0,0-.5,1,5.67,5.67,0,0,0-.22.93l-.05.25a2.5,2.5,0,0,1-.13.45,2.18,2.18,0,0,0-.16.56,1.66,1.66,0,0,0,0,.22,7.32,7.32,0,0,0,0,.78l0,.45a4.42,4.42,0,0,0,.21.88l.08.25,0,.1a6.72,6.72,0,0,0,.47,1.23,2.49,2.49,0,0,1,.15.28l.07.15a5.5,5.5,0,0,0,.28.48l.18.22a5.52,5.52,0,0,0,1,.8,5.84,5.84,0,0,0,1.13.59l.1,0,.11,0a5.82,5.82,0,0,0,1.12.29l.25,0a2.47,2.47,0,0,0,.39,0l.19,0,.42,0h.33a5.45,5.45,0,0,0,.9-.06l.22,0a7.41,7.41,0,0,0,.73-.3l.74-.3a5.94,5.94,0,0,0,.75-.34,3.42,3.42,0,0,0,.91-.78l.29-.29a3.41,3.41,0,0,0,.7-.82,3.31,3.31,0,0,0,.29-.75l.14-.49c.06-.16.14-.32.22-.52a3.43,3.43,0,0,0,.19-.48,1.9,1.9,0,0,0,.09-.58,3.79,3.79,0,0,0,0-.39C179.32,296.14,179.31,295.93,179.31,295.77Zm42.53,4.38h0a2.37,2.37,0,0,0-.41-1,3.9,3.9,0,0,0-.37-.84l-.2-.37-.07-.13a4.33,4.33,0,0,0-.63-1,5.43,5.43,0,0,0-.92-.82,3.71,3.71,0,0,0-1-.47l-.13,0-.11,0-.1,0a5.45,5.45,0,0,0-1.29-.33h-.1a2.17,2.17,0,0,0-1.06.19,3.19,3.19,0,0,0-.84-.38,3,3,0,0,0,.5-.62,3.3,3.3,0,0,0,.28-.7l.16-.55c.06-.15.13-.31.22-.49s.13-.32.18-.47a1.87,1.87,0,0,0,.1-.62c0-.06,0-.23,0-.3a1,1,0,0,0,0-.17,4.1,4.1,0,0,1,0-.51,12.17,12.17,0,0,0,0-1.24V289a1.83,1.83,0,0,0-.24-.94l-.06-.15a2.76,2.76,0,0,0-.5-.71,3,3,0,0,0-.16-.37l-.17-.44,0-.13a1.91,1.91,0,0,0-.34-.56,5,5,0,0,0-.59-.61,1.73,1.73,0,0,0-.59-.37l-.17-.06-.12,0-.42-.16a5.16,5.16,0,0,0-1.07-.41,4.59,4.59,0,0,1-.45-.14l-.11,0a3.39,3.39,0,0,0-.55-.13h-.23a4.62,4.62,0,0,0-.57.07l-.57.08a9.76,9.76,0,0,0-1.16.29l-.26.09a4.49,4.49,0,0,0-.67.21,1.94,1.94,0,0,0-.43.27,1.77,1.77,0,0,0-.31.3l-.33.3a5.66,5.66,0,0,0-.83.86,6.07,6.07,0,0,0-.6,1,7.37,7.37,0,0,0-.49,1s0,.08,0,.12c-.06.22-.13.52-.19.83l-.05.25a3.14,3.14,0,0,1-.17.56.65.65,0,0,0,0,.13,1.92,1.92,0,0,0-.11.54,5.3,5.3,0,0,0,0,.77l0,.17v.1l0,.19a3.77,3.77,0,0,0,.21.88l.08.26,0,.11a5.77,5.77,0,0,0,.47,1.2l.2.39a3.07,3.07,0,0,0,.31.53,1.84,1.84,0,0,0,.17.22,5,5,0,0,0,.92.77,5.18,5.18,0,0,0,1.16.62l.18.07a8.23,8.23,0,0,0,1.08.29,1.84,1.84,0,0,0,.33,0,2.22,2.22,0,0,0,.37,0l.19,0,.43,0h.33c.31,0,.57,0,.78,0a3.54,3.54,0,0,0,0,.48,2,2,0,0,0-.81,1.38,2.65,2.65,0,0,1-.1.55c0,.11-.1.24-.18.41s0,0-.05.1a2,2,0,0,0-.1.21,2.64,2.64,0,0,0-.12.4,8.3,8.3,0,0,0-.14,1.19,3.42,3.42,0,0,0,.07.61l.19,0v.1l-.17,0a3.43,3.43,0,0,1,.08.48l0,.22a5.26,5.26,0,0,0,.17,1.08,2.33,2.33,0,0,1,.07.25l0,.12a4.53,4.53,0,0,0,.18.67l.07.15a3.92,3.92,0,0,0,.72.92l.07.08a5.46,5.46,0,0,0,1.07.89l.11.06a5.24,5.24,0,0,0,.9.53,2.13,2.13,0,0,0,.45.13l.34,0h.16l.42,0a7.1,7.1,0,0,0,1,.06h.31a8.47,8.47,0,0,0,1.31-.2,7.65,7.65,0,0,0,1.19-.35,8.44,8.44,0,0,0,1.11-.58l.52-.28a3,3,0,0,0,.42-.24,1.86,1.86,0,0,0,.36-.33,6.46,6.46,0,0,0,.56-.84l.06-.1a4.09,4.09,0,0,0,.32-.84l.13-.4a8.46,8.46,0,0,0,.31-1.25,4.93,4.93,0,0,1,.11-.52,3.92,3.92,0,0,0,.11-.76A12.55,12.55,0,0,0,221.84,300.15Zm-36.07-30.9a2,2,0,0,1,0-.35c0-.53,0-.93,0-1.31v0a2.37,2.37,0,0,0-.3-1.17,3.6,3.6,0,0,0-.29-.5l-.07-.11a2.36,2.36,0,0,1-.27-.42,3.42,3.42,0,0,1-.19-.48l-.07-.18a2,2,0,0,0-.33-.53,5.21,5.21,0,0,0-.6-.62,1.94,1.94,0,0,0-.58-.36l-.27-.1a2.94,2.94,0,0,1-.43-.17l-.14-.06a4.29,4.29,0,0,0-1-.36l-.35-.1a4.26,4.26,0,0,0-.54-.16,1.87,1.87,0,0,0-.88,0l-.3.05-.32.05a8.18,8.18,0,0,0-1.23.3l-.27.09a5.24,5.24,0,0,0-.59.18,2.51,2.51,0,0,0-.74.51l-.11.12-.29.28a4.76,4.76,0,0,0-.8.82,7.19,7.19,0,0,0-.64,1,9.77,9.77,0,0,0-.48,1,5.45,5.45,0,0,0-.23,1l0,.2c0,.17-.1.34-.13.44a2.5,2.5,0,0,0-.17.59,1.52,1.52,0,0,0,0,.21,7.5,7.5,0,0,0,0,.79l.05.42a3.64,3.64,0,0,0,.21.91l.11.37a5.77,5.77,0,0,0,.47,1.2l.2.38a4,4,0,0,0,.3.54l.18.22a5.42,5.42,0,0,0,1,.81,5.66,5.66,0,0,0,1.11.58l.17.06a7,7,0,0,0,1.09.3,2,2,0,0,0,.34,0l.32,0,.13,0h.11l.42,0,.56,0a3.21,3.21,0,0,0,.73-.07,3.76,3.76,0,0,0,.89-.32l.37-.16.22-.08.13-.06a4.08,4.08,0,0,0,.84-.4,3.94,3.94,0,0,0,.84-.72l.29-.29a3.61,3.61,0,0,0,.7-.83,3.43,3.43,0,0,0,.29-.74l.14-.46c.06-.18.14-.35.22-.55a3.43,3.43,0,0,0,.19-.48,1.9,1.9,0,0,0,.09-.58,3.79,3.79,0,0,0,0-.39Zm22.69,33.44a14,14,0,0,0,0-1.42,2.08,2.08,0,0,0-.26-1,2.59,2.59,0,0,0-.3-.57l-.06-.08a3.58,3.58,0,0,1-.29-.43c-.07-.15-.13-.31-.22-.55l-.05-.13a1.81,1.81,0,0,0-.3-.52,6,6,0,0,0-.63-.66,1.92,1.92,0,0,0-.69-.4l-.16-.06a2.72,2.72,0,0,1-.43-.17,6.08,6.08,0,0,0-1.07-.41l-.43-.13-.15,0a2.33,2.33,0,0,0-.55-.13h-.22s-.34,0-.65.08l-.44.07a7.52,7.52,0,0,0-1.14.28l-.25.07a6.18,6.18,0,0,0-.68.21,2.48,2.48,0,0,0-.72.49l-.13.14-.29.28a5.1,5.1,0,0,0-.85.88,6,6,0,0,0-.57.93,6.13,6.13,0,0,0-.51,1.07,6,6,0,0,0-.19.74l0,.18a.5.5,0,0,1,0,.12l0,.12a2.54,2.54,0,0,1-.14.47l0,.11s0,.11,0,.13a2,2,0,0,0-.11.64,6.07,6.07,0,0,0,.06.85l0,.28a3.56,3.56,0,0,0,.19.78l.14.46a5.5,5.5,0,0,0,.45,1.18l.17.32a3.68,3.68,0,0,0,.34.63l.18.22a6.61,6.61,0,0,0,1,.8,6.18,6.18,0,0,0,1.14.59,6.44,6.44,0,0,0,1.31.37l.28,0a3.46,3.46,0,0,0,.55-.06h.17l.26,0h.34a5.74,5.74,0,0,0,.9-.06l.22,0a5.49,5.49,0,0,0,.67-.27l.46-.19.34-.14a6.28,6.28,0,0,0,.82-.38,3.48,3.48,0,0,0,.74-.62l.4-.41a8.27,8.27,0,0,0,.57-.62,2.38,2.38,0,0,0,.23-.41c0-.11.16-.47.23-.71a1.06,1.06,0,0,1,.06-.19c0-.05,0-.1,0-.16a4.24,4.24,0,0,1,.2-.48,3.43,3.43,0,0,0,.19-.48,1.9,1.9,0,0,0,.09-.58,4,4,0,0,0,0-.46C208.47,303,208.46,302.82,208.46,302.69Z" style="fill: #ffd400"/>
    <path d="M306.9,254.93a4.19,4.19,0,0,1,1.17-.06,4.67,4.67,0,0,1,1.14.29l.14.05.83,0,.25,0a1.93,1.93,0,0,0,.47-.08c.22,0,.43-.09.65-.12a3.9,3.9,0,0,0,.59-.14l.47-.13a6.36,6.36,0,0,0,.61-.23l.36-.15.52-.19a3.15,3.15,0,0,0,.44-.17,3.26,3.26,0,0,0,.38-.31l.39-.32a6.75,6.75,0,0,0,.73-.68,4.55,4.55,0,0,1,1-.76h0a.83.83,0,0,0,0-.12,7.43,7.43,0,0,1,.37-.81,2.94,2.94,0,0,0,.17-.43c.07-.21.15-.41.23-.61a6.35,6.35,0,0,1,.44-.81,2,2,0,0,0,.14-.25,3.81,3.81,0,0,0,.14-.56c0-.2.09-.4.14-.6l.13-.47c.07-.26.14-.51.2-.77a3,3,0,0,0,.05-.42,7.19,7.19,0,0,1,.14-.93,8.08,8.08,0,0,1,.32-1,2.84,2.84,0,0,0,.13-.38,9,9,0,0,1,.35-1c.05-.13.11-.27.15-.4l.06-.18c.14-.42.28-.85.45-1.27a1.2,1.2,0,0,0,.06-.33,7,7,0,0,1,.14-.69,6.39,6.39,0,0,0,.18-1c0-.22.06-.44.1-.66s.05-.23.06-.34a5.14,5.14,0,0,0-.18-.84,1.18,1.18,0,0,0-.11-.19,6.61,6.61,0,0,1-.39-.68,5.4,5.4,0,0,0-.41-.78,3.87,3.87,0,0,0-.54-.64,6,6,0,0,1-.51-.5l-.13-.14a2.38,2.38,0,0,0-.58-.16,1.6,1.6,0,0,0-.3,0,6.12,6.12,0,0,1-.85,0,6.53,6.53,0,0,0-1,.08,4.29,4.29,0,0,0-.84.25,7,7,0,0,1-.69.22l-.22.06a5.45,5.45,0,0,0-.68.63,6.1,6.1,0,0,0-.6.79,4.55,4.55,0,0,0-.46.85,2.5,2.5,0,0,0,0,.4c0,.21,0,.41-.07.62a4.24,4.24,0,0,0,0,.76v.37c0,.26,0,.51,0,.76l0,.51a5.3,5.3,0,0,1-.09,1.15c0,.1,0,.2,0,.3,0,.51,0,1,0,1.55v.37a6.11,6.11,0,0,1-.06,1.38,11.14,11.14,0,0,1-.42,1.68,11.86,11.86,0,0,1-.62,1.58,4.88,4.88,0,0,1-.87,1.19l-.17.18-.17.28a10.25,10.25,0,0,1-.78,1.08,3.24,3.24,0,0,0-.24.31,4.62,4.62,0,0,1-1,1.06,3.86,3.86,0,0,1-1.06.56c-.06.14-.11.28-.18.42a4.8,4.8,0,0,1-.89,1.14l-.11.12.21.08.26.1.14,0,.18,0Zm-6.87,3.5a7.52,7.52,0,0,1-1.28.24l-.31,0a4.35,4.35,0,0,1-1.13-.17l-.12,0-.09,0-.51.1.28.2c.11.08.22.17.33.24s.24.14.37.2a10.1,10.1,0,0,1,1,.63,4.38,4.38,0,0,1,1,1.05l.15.2.27.21a5.93,5.93,0,0,1,1,.9l.14.17a9.92,9.92,0,0,1,.9,1.22,9.39,9.39,0,0,1,.66,1.43l.07.17.14.29a5.71,5.71,0,0,1,.51,1.34,4.85,4.85,0,0,1,.07,1.43,1.51,1.51,0,0,0,0,.3c0,.11,0,.22.05.34a6.28,6.28,0,0,1,.11,1.34,5.51,5.51,0,0,1-.23,1.23,1.53,1.53,0,0,0-.07.29c0,.09,0,.19,0,.3a4.63,4.63,0,0,1,0,1.14,8.11,8.11,0,0,1-.14.86,2.24,2.24,0,0,0-.07.44,3.41,3.41,0,0,0,0,.59l.06.58a6.94,6.94,0,0,1,0,.79,1.82,1.82,0,0,0,0,.33s.11.24.19.39.17.35.25.53a2.07,2.07,0,0,0,.19.25c.14.18.27.35.39.53l.22.35a2.83,2.83,0,0,0,.29.43,7.57,7.57,0,0,1,.5.6l.1.14.19.05c.22.08.45.15.66.24s.43.21.64.33l.12.07H307a5,5,0,0,1,.91-.1,4.81,4.81,0,0,1,.88.08l.14,0a4.22,4.22,0,0,0,.72-.26,3.13,3.13,0,0,0,.41-.31l.3-.23a4.68,4.68,0,0,0,.68-.61l.11-.12a4,4,0,0,0,.48-.62,1.85,1.85,0,0,0,.06-.25c.07-.24.13-.48.21-.71l.18-.45a3.15,3.15,0,0,0,.18-.5,5.45,5.45,0,0,1,.22-.79c0-.08,0-.15.07-.22l0-.14a4.71,4.71,0,0,1-.18-1,10.62,10.62,0,0,0-.11-1.12c0-.09-.08-.26-.14-.43s-.14-.44-.2-.66a8.74,8.74,0,0,0-.31-.9l-.07-.18c-.07-.21-.14-.42-.2-.63a3.71,3.71,0,0,0-.16-.47l-.12-.25a7.6,7.6,0,0,1-.56-1.33,4.7,4.7,0,0,1-.16-1.23,2.46,2.46,0,0,0,0-.26.89.89,0,0,1-.09-.15,5.06,5.06,0,0,1-.42-1.06,6.69,6.69,0,0,1-.16-.75,4.31,4.31,0,0,0-.11-.49c-.06-.19-.11-.38-.16-.57s-.11-.4-.18-.59a4.77,4.77,0,0,0-.24-.44,5.3,5.3,0,0,1-.33-.57,4.84,4.84,0,0,1-.37-1l0-.11a1.8,1.8,0,0,0-.2-.19c-.18-.16-.35-.32-.51-.49a4,4,0,0,0-.52-.42l-.28-.21a6.87,6.87,0,0,1-.57-.52c-.08-.07-.15-.15-.23-.21l-.43-.16-.72-.12-.45-.07c-.32-.05-.65-.1-1-.17a2.14,2.14,0,0,1-.76-.36h-.24a5.33,5.33,0,0,1-.8,0,2,2,0,0,1-.61-.13l-.24.05-.34.06Zm-3.93-4.1a5,5,0,0,1,1.17-.15,4.42,4.42,0,0,1,1.06.17l.12,0,.54-.12.39-.1.57-.11a3.65,3.65,0,0,0,.44-.09,6.2,6.2,0,0,0,.89-.45l.16-.09c.18-.1.35-.21.49-.3a4.32,4.32,0,0,1,.58-1c.15-.18.31-.35.48-.52s.13-.13.18-.2a6.8,6.8,0,0,0,.29-.79,2.87,2.87,0,0,0,.1-.63l0-.26a5,5,0,0,1,.13-.76l0-.18a1.27,1.27,0,0,0-.06-.18,6.5,6.5,0,0,1-.25-.86,4.72,4.72,0,0,1-.05-1.21.91.91,0,0,0,0-.17c0-.08-.05-.17-.08-.26A5.59,5.59,0,0,1,303,245l0-.12a11.46,11.46,0,0,1-.16-1.45,5.33,5.33,0,0,1,.14-1.3,2.56,2.56,0,0,1,.05-.27s0-.09,0-.14a3.9,3.9,0,0,1,.09-1.62,3.5,3.5,0,0,1,.84-1.42l.06-.07a2.61,2.61,0,0,0,.06-.27,5.87,5.87,0,0,1,.18-.75,9.76,9.76,0,0,0,.22-1.06c0-.18.07-.36.11-.53s.05-.26.07-.36l0-.07a4.66,4.66,0,0,1-.31-1,4.9,4.9,0,0,1-.08-.76.76.76,0,0,1,0-.15,1.56,1.56,0,0,1-.13-.13c-.13-.14-.25-.29-.37-.44l-.1-.13a3.28,3.28,0,0,0-.36-.43l-.39-.31a2.78,2.78,0,0,0-.27-.21c-.09,0-.41-.07-.7-.11h-.12a4.74,4.74,0,0,0-1,0,3.86,3.86,0,0,0-.49.1c-.18,0-.36.09-.55.12a6,6,0,0,1-.77.1l-.23,0a5.13,5.13,0,0,0-.79.49,6.35,6.35,0,0,0-.84.71,2.87,2.87,0,0,0-.24.35c-.13.2-.26.41-.4.6a3,3,0,0,0-.18.36c-.1.22-.2.44-.32.65a6.86,6.86,0,0,0-.46,1l-.2.48c-.07.17-.17.39-.19.47a2.16,2.16,0,0,1-.15.47c0,.3-.06.58-.09.8s0,.24-.05.36a2.17,2.17,0,0,0,0,.36,8.62,8.62,0,0,1,0,1,1.78,1.78,0,0,0,0,.4,8.81,8.81,0,0,1,0,.89,4.52,4.52,0,0,1-.29,1.17s0,.09-.05.13c0,.34,0,.7,0,1.06s0,.78.06,1.17.09.76.17,1.16l.06.31A6.42,6.42,0,0,1,295,248v.2a7.54,7.54,0,0,1-.08,1.53,9.81,9.81,0,0,1-.44,1.68l-.09.25a6.74,6.74,0,0,1-.57,1.32,3.88,3.88,0,0,1-.37.56l.05,0a3,3,0,0,0,.48.23,3.75,3.75,0,0,0,.64.16l.45.1a6.69,6.69,0,0,1,.86.29l.13.05Zm-13.93,4.93a2.14,2.14,0,0,1-2.42-1.84,2.16,2.16,0,0,1,1.84-2.42l.1,0a2.16,2.16,0,0,1,1.07-.39,4.09,4.09,0,0,1,1.22.13h.16l.18-.06.66-.23a1.61,1.61,0,0,0,.29-.15c.23-.12.46-.24.7-.34a5.6,5.6,0,0,1,.88-.27l.16,0,.09-.09a5,5,0,0,1,.73-.66l.35-.24c.19-.14.38-.27.5-.37a5.37,5.37,0,0,1,.51-.44,2.2,2.2,0,0,0,.28-.24l.27-.32a4.57,4.57,0,0,0,.37-.47,4.3,4.3,0,0,0,.23-.59l.12-.33a5.56,5.56,0,0,0,.23-.94,3.94,3.94,0,0,0,0-.72V248a3.88,3.88,0,0,0-.09-.5c0-.15-.06-.29-.08-.44-.1-.5-.16-1-.21-1.47s-.08-1-.09-1.48,0-1,0-1.46a4.31,4.31,0,0,1,.3-1.35s0-.08,0-.13,0-.22,0-.34a7,7,0,0,1,0-.92c0-.13,0-.25,0-.38a6.48,6.48,0,0,1,0-.88,7,7,0,0,1,.09-.77,2.32,2.32,0,0,0,0-.38,3.55,3.55,0,0,0-.06-.55c0-.17,0-.35-.08-.54a8.89,8.89,0,0,0-.19-1,5,5,0,0,0-.3-.9,3.32,3.32,0,0,0-.48-.68c-.13-.15-.26-.31-.38-.47l-.12-.16-.14,0c-.25-.05-.5-.1-.73-.17l-.12,0a5,5,0,0,0-.8-.22l-.21,0a6.55,6.55,0,0,0-.7,0l-.14.06q-.3.15-.6.27a4.41,4.41,0,0,1-1,.23l-.24.24-.27.26a4.35,4.35,0,0,0-.32.43,2.83,2.83,0,0,0-.2.28.87.87,0,0,0-.07.17,5.37,5.37,0,0,1-.33.78,5,5,0,0,1-.54.79l-.06.08a4.34,4.34,0,0,0-.07.47l0,.3a3.84,3.84,0,0,0-.06.73,4.83,4.83,0,0,1,0,1.25,1.64,1.64,0,0,0,0,.22c0,.33.06.7.08,1.09v.33c0,.1,0,.2,0,.3a5,5,0,0,1,.13,1.16c0,.14,0,.28,0,.43a8.85,8.85,0,0,1,0,1,6.45,6.45,0,0,1-.18,1.06c0,.13-.06.25-.08.38,0,.33-.1.67-.17,1l-.08.42c-.06.34-.14.68-.23,1l-.1.39a2.77,2.77,0,0,0,0,.3,5.17,5.17,0,0,1-.19,1.14l-.09.4a8.38,8.38,0,0,1-.27,1,6.26,6.26,0,0,1-.48,1c-.06.11-.12.22-.17.33s-.07.21-.1.31a5.9,5.9,0,0,1-.41,1.1,7.41,7.41,0,0,1-.64,1,2,2,0,0,0-.22.29,5,5,0,0,1-.86,1,1.45,1.45,0,0,0-.18.17c-.07.09-.13.19-.2.29a5.93,5.93,0,0,1-.74,1c-.08.08-.15.17-.22.25a5.9,5.9,0,0,1,1.08.56,10,10,0,0,1,1.48,1.17,5.91,5.91,0,0,1,.93,1.33l.16.29a8.59,8.59,0,0,1,.82,1.76l.12.3a6.79,6.79,0,0,1,.42,1.53,5.29,5.29,0,0,1,0,1.29,2.06,2.06,0,0,0,0,.35,5.6,5.6,0,0,1-.12,1.19,2.36,2.36,0,0,0,0,.28c0,.05,0,.11,0,.17a4.48,4.48,0,0,1,.19,1.36c0,.41,0,.81,0,1.22v.17a5.4,5.4,0,0,1-.16,1.09c0,.1,0,.19-.05.28a6.34,6.34,0,0,0,.08.67c0,.16,0,.33.07.49l0,.16a8.41,8.41,0,0,0,.15.9,3.52,3.52,0,0,0,.15.42c.1.23.2.48.28.72a2.66,2.66,0,0,0,.16.39c.12.28.24.56.34.85s.2.7.29,1.05l.09.35v0l0,0a6.62,6.62,0,0,0,.38.8l.12.2c.14.24.28.5.45.74a1,1,0,0,0,.16.12,6,6,0,0,1,.8.73,3.41,3.41,0,0,0,.43.42l.4.36a4,4,0,0,1,.78,1.1l0,0c.2.13.45.27.68.4l.24.05a4.92,4.92,0,0,1,.8.19,4.12,4.12,0,0,0,.86.14,6.38,6.38,0,0,1,.83.16l.15,0a5.33,5.33,0,0,0,.64-.22l.13-.12a4.32,4.32,0,0,1,.78-.61q.27-.17.54-.3l.23-.12c.05-.08.09-.17.13-.25l.21-.4.08-.14a3.78,3.78,0,0,0,.25-.5,4.69,4.69,0,0,0,.15-.89v-.34a5.68,5.68,0,0,0,0-.73,2.47,2.47,0,0,0-.11-.36,7.15,7.15,0,0,1-.23-.79,2.48,2.48,0,0,0-.13-.35c-.11-.28-.22-.56-.3-.84s-.11-.46-.16-.69l-.15-.61c-.06-.18-.11-.36-.17-.54s-.17-.53-.25-.79l-.08-.31c-.11-.37-.21-.74-.29-1.11a3.8,3.8,0,0,1,0-1.59v0l0-.08a4.11,4.11,0,0,1-.35-1.47,8.57,8.57,0,0,1,.17-1.66l0-.14c0-.17.06-.33.1-.49a3.35,3.35,0,0,0,.07-1.34l0-.35a5.7,5.7,0,0,0-.15-1,6.23,6.23,0,0,0-.28-.95,5.1,5.1,0,0,1-.24-.69l-.06-.19-.09-.06a5.19,5.19,0,0,1-.73-.63c-.18-.19-.33-.39-.49-.59a1.55,1.55,0,0,0-.19-.24l-.2-.07a6.89,6.89,0,0,1-.73-.34,10.6,10.6,0,0,0-.95-.48,2,2,0,0,0-.35-.07,6.47,6.47,0,0,1-.74-.15,3.82,3.82,0,0,1-1.18-.56l-.14,0h-.61l-.07,0a3.5,3.5,0,0,1-.54.05c-.13,0-.24,0-.35,0l-.47,0a2,2,0,0,0-.48.08Zm-7,26.28c.09,0,.29,0,.49,0a2.17,2.17,0,0,0,.36,0l.29-.14.49-.23a3.69,3.69,0,0,0,.77-.41l.29-.19a3.75,3.75,0,0,0,.46-.33s.14-.22.21-.34.22-.37.34-.54.27-.35.41-.52.15-.18.21-.27a4.43,4.43,0,0,0,.16-.67s0-.09,0-.13a4.39,4.39,0,0,1-.11-.93c0-.15,0-.3,0-.45a4.2,4.2,0,0,0,0-.53c0-.26-.06-.51-.08-.76a1.1,1.1,0,0,0,0-.18l-.05-.11a5.29,5.29,0,0,1-.52-1.45,2.26,2.26,0,0,1,0-.45,5,5,0,0,1-.25-.64l-.15-.38a7.94,7.94,0,0,1-.35-1,10.93,10.93,0,0,1-.24-1.43l-.08-.53a10.66,10.66,0,0,1-.13-1.26,4.82,4.82,0,0,1,.15-1.26c0-.1.05-.19.06-.29V270c0-.4,0-.8,0-1.2,0-.06,0-.12,0-.18a4.72,4.72,0,0,1-.19-1.3,6.09,6.09,0,0,1,.12-1,1.88,1.88,0,0,0,0-.33,7.19,7.19,0,0,1,.05-.92c0-.11,0-.22,0-.33a3.65,3.65,0,0,0-.17-.49c-.06-.16-.12-.31-.17-.47a4.36,4.36,0,0,0-.41-.87l-.26-.46a3.09,3.09,0,0,0-.25-.41,7.2,7.2,0,0,0-.84-.64c-.06,0-.28-.13-.44-.2l-.58-.25a9.21,9.21,0,0,0-.94-.37,6.27,6.27,0,0,1-1-.2l-.31-.08-.69,0c-.24,0-.48,0-.73,0a5,5,0,0,0-.55,0l0,0-.09.1a4.27,4.27,0,0,1-.89.76,5.35,5.35,0,0,1-.89.43l-.15.06a4.55,4.55,0,0,0-.61.55l-.18.21a4.11,4.11,0,0,0-.35.44,3.52,3.52,0,0,0-.15.62l0,.16a4.5,4.5,0,0,0-.1.89,8,8,0,0,0,0,.87l0,.06a4.11,4.11,0,0,1,.52,1.16c.05.21.12.42.19.63s.12.36.17.54l.24.76.15.48c.08.27.15.56.21.84s.07.32.11.48a4.48,4.48,0,0,1,.16,1.25v.11l0,.05a4,4,0,0,1,.57,1.37,3.85,3.85,0,0,1-.08,1.54v.06a4,4,0,0,1,.29,1.51,11.91,11.91,0,0,1-.18,1.57,4.7,4.7,0,0,1-.29,1,3.8,3.8,0,0,1,.29,1.06,4.44,4.44,0,0,1-.06,1.16V281c.08.26.19.52.29.76a7.92,7.92,0,0,0,.41.74l.09.07a4.11,4.11,0,0,1,.79.69c.16.19.31.39.45.59s.11.16.17.23l.45.41a1.41,1.41,0,0,0,.25.24,5,5,0,0,0,.75.39h.13a5.1,5.1,0,0,1,.95.08,6.25,6.25,0,0,1,.74.21Zm-7.22-107.27h-.1a4.53,4.53,0,0,0-.6.26l-.11.11a7.45,7.45,0,0,1-.66.58,5.16,5.16,0,0,1-.79.44l-.12.06-.12.18c-.14.2-.28.4-.44.6,0,0,0,.1-.08.18a6.08,6.08,0,0,1-.42.74l-.24.35a5.81,5.81,0,0,0-.36.55,4.49,4.49,0,0,1-.72.91l-.07.07c0,.08-.07.17-.11.25a6.12,6.12,0,0,1-.47,1,2.06,2.06,0,0,0-.12.26,4.63,4.63,0,0,1-.58,1.07l-.19.26c-.22.31-.45.61-.69.89s-.54.6-.82.9l-.52.54-.46.49-.14.15c-.22.24-.44.47-.65.73s-.47.56-.7.88l-.41.51a3.51,3.51,0,0,0-.29.36,7,7,0,0,1-.41.59,2.44,2.44,0,0,0-.23.33,3.21,3.21,0,0,0-.12.33,6.65,6.65,0,0,1-.26.75,2.45,2.45,0,0,0-.08.29,8.48,8.48,0,0,1-.22.83,4.9,4.9,0,0,1-.48.93l-.12.2a1.94,1.94,0,0,1-.4.75c.12,0,.24,0,.37,0l.46,0,.78-.05.7-.06.73-.07c.27,0,.55,0,.83-.08l.39-.05c.21,0,.43-.05.64-.1l.16-.09a5.7,5.7,0,0,1,.76-.34c.14,0,.27-.1.42-.14a4.45,4.45,0,0,0,.51-.19.49.49,0,0,1,.1-.09,4.16,4.16,0,0,1,1-.66,4,4,0,0,1,1.23-.3h.09l.08-.06a4.18,4.18,0,0,1,1.15-.58,3,3,0,0,1,1.16-.11l.19-.11c.22-.13.44-.26.68-.38l.25-.12c.25-.12.51-.24.77-.39s.64-.38,1-.61.6-.47.9-.72.56-.51.84-.79.5-.53.73-.8.28-.32.42-.47a3.17,3.17,0,0,0,.3-.34l.19-.27a6.27,6.27,0,0,0,.42-.63c.1-.18.21-.35.32-.52a3.52,3.52,0,0,0,.24-.4,2.65,2.65,0,0,0,.06-.3c.06-.26.11-.51.19-.75s.19-.66.27-1a5.33,5.33,0,0,1,.17-.66c0-.12.07-.24.09-.35a6.78,6.78,0,0,0,0-.91.88.88,0,0,0,0-.15,5.26,5.26,0,0,1-.28-.87,8.08,8.08,0,0,1-.09-.86v0h0a4.52,4.52,0,0,1-.53-.69l-.1-.14a3.69,3.69,0,0,0-.36-.52l-.31-.33-.25-.27a6.08,6.08,0,0,1-.54-.39,2.27,2.27,0,0,0-.25-.18,4.16,4.16,0,0,0-.6-.18l-.2-.06h-.22a6.4,6.4,0,0,1-.76,0,4,4,0,0,0-.85,0A5.06,5.06,0,0,1,267.91,178.27Zm-1.55,71.86a.51.51,0,0,1,0,.19,5.48,5.48,0,0,1,0,.93c0,.23-.06.47-.1.7a2.15,2.15,0,0,0-.05.34,5.28,5.28,0,0,0,.1.91,1.86,1.86,0,0,0,.17.26c.1.16.2.32.29.48s.18.35.26.54l.06.12a4.26,4.26,0,0,1,.9.46,4.45,4.45,0,0,1,.85.79l0,0,.38.12a2.23,2.23,0,0,1,.27,0l.59,0c.32,0,.63,0,.95,0h.13a2.15,2.15,0,0,1,.56-.3l.21-.14c.19-.13.38-.25.58-.36a4.74,4.74,0,0,1,1-.38l.07,0c.06-.06.11-.13.17-.2s.29-.33.44-.49a3.21,3.21,0,0,0,.21-.3c.13-.2.26-.4.41-.59a4.65,4.65,0,0,1,.64-.67l.19-.19c.1-.16.25-.36.4-.56s.21-.27.25-.34a2.13,2.13,0,0,0,.09-.3,5.82,5.82,0,0,1,.29-.83,6.67,6.67,0,0,1,.35-.71,1.85,1.85,0,0,0,.19-.37,3.28,3.28,0,0,0,.11-.45c.05-.25.11-.49.18-.73a2.58,2.58,0,0,0,0-.29,5.66,5.66,0,0,1,.13-.92l.11-.47c.06-.24.13-.47.17-.71l.09-.5c0-.23.1-.46.13-.7a7.67,7.67,0,0,1,.15-.81,1.78,1.78,0,0,0,.07-.39,3,3,0,0,0,0-.52c0-.24,0-.47,0-.69a1.71,1.71,0,0,0-.05-.3,5.55,5.55,0,0,1-.12-.9l0-.37c0-.27,0-.53-.05-.8a4.38,4.38,0,0,1,0-1.1v-.07l0,0a4.22,4.22,0,0,1-.45-1c0-.15-.1-.31-.14-.48a4.55,4.55,0,0,0-.17-.52,7.77,7.77,0,0,1-.28-.76,1.06,1.06,0,0,0-.06-.19l-.19-.16a6,6,0,0,1-.46-.4l-.19-.18a3.1,3.1,0,0,0-.36-.33l-.23-.13-.26-.14a5.4,5.4,0,0,1-.93.17c-.23,0-.46,0-.68,0h-.38a6,6,0,0,1-.76.12h-.09a5,5,0,0,1-.69.67,5.38,5.38,0,0,1-.79.48l-.05,0-.09.21c-.09.19-.17.37-.27.55l-.05.25a7.76,7.76,0,0,1-.22.79,6.78,6.78,0,0,1-.36.78,1.64,1.64,0,0,0-.14.3,2.7,2.7,0,0,0-.07.44c0,.26-.07.53-.12.8s-.15.55-.23.82-.1.31-.14.46-.06.35-.08.53-.09.56-.15.84c-.1.47-.2.95-.32,1.41a4.45,4.45,0,0,1-.49,1.18c0,.08-.09.16-.12.24a2.38,2.38,0,0,0-.07.31,5.76,5.76,0,0,1-.37,1.22c-.1.21-.2.41-.31.61s-.17.32-.24.49c-.15.39-.3.77-.41,1.13s-.15.43-.22.64A3.36,3.36,0,0,0,266.36,250.13Zm-13.61-31.21.45,0A7.57,7.57,0,0,1,255,219a7.16,7.16,0,0,1,1.28.41l.27.11a5.68,5.68,0,0,1,1.08.55l.29.17a13.56,13.56,0,0,1,1.28.79,2.53,2.53,0,0,0,.27.18,5.88,5.88,0,0,1,1,.67l.23.2.35.3.08,0c.19,0,.37.09.54.15a5.87,5.87,0,0,1,.63.24c.1,0,.19.08.28.1a5.59,5.59,0,0,0,.86.09,5,5,0,0,0,.74-.07l.12-.06a4.37,4.37,0,0,1,.73-.34,5.24,5.24,0,0,0,.72-.3l.44-.24.28-.16s.18-.23.29-.38l.1-.14s0-.09.05-.13a4.48,4.48,0,0,1,.28-.72c.1-.21.22-.4.34-.6l.1-.15c0-.16.1-.31.15-.46s.08-.2.1-.3a4.69,4.69,0,0,0,0-.68v-.15a.54.54,0,0,1-.07-.14,5.62,5.62,0,0,1-.25-.76l-.09-.49a2,2,0,0,0-.09-.37,7.14,7.14,0,0,1-.27-.84v0l-.05,0a6.53,6.53,0,0,1-.63-.53,6.4,6.4,0,0,0-.72-.61,8.39,8.39,0,0,0-.86-.55l-.48-.29c-.15-.09-.3-.19-.46-.27a5.37,5.37,0,0,0-.56-.21l-.53-.2-.13-.05-.58-.22-.84-.14a2.58,2.58,0,0,1-.42-.13,3.06,3.06,0,0,1-.41-.1,3.73,3.73,0,0,1-1.23-.75h0l-.1,0a4.46,4.46,0,0,1-1.1-.27c-.45-.18-.88-.36-1.3-.55a6.39,6.39,0,0,1-1-.61l-.27-.18a2.93,2.93,0,0,0-.44-.21c-.2-.09-.4-.17-.59-.27l-.2-.05a5,5,0,0,1-.86-.26,6.18,6.18,0,0,1-.84-.45,1.22,1.22,0,0,0-.19-.12,3.84,3.84,0,0,1-.44-.15,4.26,4.26,0,0,0-.47-.15,3.41,3.41,0,0,0-.53,0c-.17,0-.34,0-.5,0a6,6,0,0,0-.84,0h-.15a8.06,8.06,0,0,0-1,.08l-.27,0a5.8,5.8,0,0,0-.57.11l-.09.07a4.49,4.49,0,0,1-.79.52,6.46,6.46,0,0,1-.6.27l-.28.13a5.51,5.51,0,0,1-.84.45l-.13.06a6.18,6.18,0,0,0-.57.58l-.06.15a5.26,5.26,0,0,1-.45.88q-.18.27-.39.54c-.08.11-.2.26-.23.32s-.24.42-.38.64a2,2,0,0,0-.18.29s0,.12,0,.2a6.24,6.24,0,0,1-.19.88,3.11,3.11,0,0,0-.08.44,1.18,1.18,0,0,1,0,.2,4.21,4.21,0,0,1,1.35.22c.34.12.85.31,1.37.55a6.9,6.9,0,0,1,.85.49l.33.2.86.47.28.15c.21.11.41.24.62.37s.28.18.43.26a3.9,3.9,0,0,0,.47.2l.6.25a6.89,6.89,0,0,1,.7.39,2.49,2.49,0,0,0,.28.15,4.11,4.11,0,0,0,.53.13l.47.1a5.39,5.39,0,0,0,1,.15A4.82,4.82,0,0,0,252.75,218.92Zm-3.64-15.21h.14a9.42,9.42,0,0,1,1.4,0l.33,0a6.22,6.22,0,0,1,1.19.13,7.61,7.61,0,0,1,1.07.32,3.59,3.59,0,0,0,.35.12,4.3,4.3,0,0,1,1.1.55l.21.12.2.05a5.54,5.54,0,0,1,1.16.4,2.07,2.07,0,0,0,.34.15,10.24,10.24,0,0,1,.94.47,6.18,6.18,0,0,1,.53.36,3.94,3.94,0,0,0,.36.23c.33.15.69.3,1.05.44l.18,0a6.11,6.11,0,0,1,1,.24,3.82,3.82,0,0,1,1.17.71h0a4.47,4.47,0,0,1,1.18.23l.08,0c.16,0,.33,0,.5,0l.55,0c.22,0,.44,0,.66.07a3.49,3.49,0,0,0,.44,0h1.11c.34,0,.68,0,1-.08l.14,0a4.89,4.89,0,0,1,1-.32,4.35,4.35,0,0,1,1.12,0h.1l.56-.11a1.47,1.47,0,0,0,.29,0l.12-.09a5.19,5.19,0,0,1,.8-.49,5.07,5.07,0,0,0,.55-.34l.27-.17c.19-.12.39-.23.59-.33l.25-.14a6,6,0,0,1,.59-.43l.1-.07a.36.36,0,0,0,0-.09,4.46,4.46,0,0,1,.35-.73c0-.08.11-.29.17-.46l.12-.34c.06-.18.14-.36.22-.54a1.48,1.48,0,0,0,.12-.29l0-.11a6.8,6.8,0,0,0,.11-.68l0-.1a4.53,4.53,0,0,1-.2-1,5.29,5.29,0,0,0-.15-.78l0-.11a5,5,0,0,0-.24-.79c-.08-.18-.14-.37-.21-.55A1.7,1.7,0,0,0,274,199l-.21-.16-.3-.27a3,3,0,0,0-.59-.46l-.41-.26-.17-.12h-.24a4.43,4.43,0,0,1-.76-.06,3.52,3.52,0,0,1-1.22-.51l-.22,0-.47,0c-.24,0-.49.06-.74.1l-.15,0a4.07,4.07,0,0,1-1.14.47,2.87,2.87,0,0,1-.69.08l-.32.08-.25.07a.92.92,0,0,0-.24.09,3.66,3.66,0,0,1-1.37.4h-.35l0,0a5.57,5.57,0,0,1-.9.6,8.77,8.77,0,0,1-1.09.42l-.29.09-.24.12a4.89,4.89,0,0,1-1.12.45,10.29,10.29,0,0,1-1.11.19l-.31,0c-.37.05-.75.08-1.12.11l-.65.06-.87.07-.69,0-.51,0c-.37,0-.73.06-1.09.11s-.5,0-.75,0h-.28l-.33.07a5.56,5.56,0,0,0-.58.14,5.76,5.76,0,0,1-.59.18l-.24.07-.08.09a5.2,5.2,0,0,1-.66.6,7.52,7.52,0,0,0-.72.63,3.61,3.61,0,0,1-.3.25l-.2.21a2.6,2.6,0,0,1-.38.27l-.17.22ZM244.47,175a1.37,1.37,0,0,0-.35,0l-.41.07c-.19,0-.42.07-.52.1a2,2,0,0,0-.23.16c-.2.13-.39.26-.6.38a6.42,6.42,0,0,0-.79.53,5.82,5.82,0,0,1-.66.44l-.23.14-.34.55s0,.07,0,.1a5,5,0,0,1-.22.92l-.08.23a2.45,2.45,0,0,0-.16.53,3.72,3.72,0,0,0,0,.8,4.86,4.86,0,0,0,.14.85,4.4,4.4,0,0,1,.16.87s0,.07,0,.11l.08.1a7.72,7.72,0,0,1,.55.7,3,3,0,0,0,.31.4l.3.37a3.82,3.82,0,0,1,.55,1.05,3.64,3.64,0,0,1,.9.88,3.45,3.45,0,0,1,.56,1.35v0l0,.05a4.15,4.15,0,0,1,.67,1.17l.1.21a5.92,5.92,0,0,1,.42,1.19,5.59,5.59,0,0,1,.07,2,5.07,5.07,0,0,1-.4,1.23,2,2,0,0,0-.11.26,5.76,5.76,0,0,1-.43.92,1.19,1.19,0,0,0-.13.25q-.13.34-.24.72l-.08.22s0,.07,0,.1a4.9,4.9,0,0,1-.09,1.06l-.06.26a3.89,3.89,0,0,0-.12.62,5.16,5.16,0,0,1-.13.77l0,.17a5.5,5.5,0,0,0,.16.81c0,.11.06.24.09.37a5,5,0,0,1,.38.87,1.46,1.46,0,0,0,.07.19c.23.42.44.86.61,1.25s.29.64.41,1a3.07,3.07,0,0,1,.32-.58c.28-.4.57-.79.85-1.12a4.68,4.68,0,0,1,.89-.8l.11-.13c.16-.18.31-.36.48-.52s.52-.54.77-.81l.15-.24a6.15,6.15,0,0,1,.45-.68,4.12,4.12,0,0,1,.88-.81l.05,0a3.18,3.18,0,0,0,.16-.32l.23-.43,0-.14a4.74,4.74,0,0,1,.33-1,4.58,4.58,0,0,1,.63-.94l.06-.07c.06-.16.1-.32.15-.48s.09-.31.14-.46a6.55,6.55,0,0,1,.27-.69l.12-.29s0-.09,0-.14a4.88,4.88,0,0,1,.08-1.07,5.46,5.46,0,0,1,.25-.85,2.67,2.67,0,0,0,.09-.26.78.78,0,0,1,0-.19,6.39,6.39,0,0,1,0-1,5.38,5.38,0,0,1,.24-1,.58.58,0,0,0,.05-.14.77.77,0,0,1,0-.15,4.65,4.65,0,0,1-.09-1,3.59,3.59,0,0,0,0-.47c0-.23,0-.44,0-.66a4.48,4.48,0,0,1,.21-1.27v0c0-.06,0-.12-.05-.17-.07-.27-.13-.54-.17-.8s-.12-.74-.19-1.09c0-.08-.07-.17-.1-.26a5.34,5.34,0,0,1-.28-.76,3.94,3.94,0,0,1-.12-1.24.35.35,0,0,0-.05-.08,6.25,6.25,0,0,1-.41-.69c0-.06-.15-.21-.23-.32s-.25-.34-.36-.51a1.94,1.94,0,0,0-.2-.21c-.16-.15-.31-.31-.46-.47a4.21,4.21,0,0,1-.58-.94s0,0,0,0-.32-.21-.51-.32l-.1-.06c-.2-.12-.39-.27-.58-.41l-.23-.17-.39-.07-.29-.05h-.11a4.7,4.7,0,0,1-1,.05l-.3,0a3.71,3.71,0,0,0-.65,0Zm-15.8,10.57-.75.06-.49,0c-.15,0-.36,0-.43,0l-.18.08a5.8,5.8,0,0,1-.69.27,6.24,6.24,0,0,0-.86.33c-.21.09-.42.18-.64.25l-.27.11a3.28,3.28,0,0,0-.25.26l-.3.29-.16.16a4.14,4.14,0,0,0-.47.47,7.52,7.52,0,0,0-.52.76,6.17,6.17,0,0,1-.48.66,1.24,1.24,0,0,0-.14.18c-.07.17-.21.46-.29.7v.18a5,5,0,0,1,0,.78,4.64,4.64,0,0,0,0,.51v.31c0,.13,0,.26,0,.39a2,2,0,0,0,0,.38l0,.17a4.06,4.06,0,0,0,.16.56,4.82,4.82,0,0,0,.37.55l.1.07a6,6,0,0,1,.63.5l.27.26.08.08a2.4,2.4,0,0,1,.39.2,3.6,3.6,0,0,1,1.08,1.05l0,0,0,0a3.91,3.91,0,0,1,1.24.81,9.61,9.61,0,0,1,.71.83,3.65,3.65,0,0,0,.24.31,3.86,3.86,0,0,1,.65,1.22s0,.09.05.13l.15.17a5.79,5.79,0,0,1,.69.9c.16.28.3.57.44.88l.18.38.13.13a4.68,4.68,0,0,1,.57.74c.13.2.27.38.41.57l.24.32c.11.16.22.32.32.48s.2.3.31.44a5.67,5.67,0,0,1,.43.57c.09.12.17.24.27.35a2.82,2.82,0,0,0,.36.33c.17.16.34.31.5.48l.17.1a4.66,4.66,0,0,1,.83.64l.55.57.34.36a5.46,5.46,0,0,1,.7.92,1.48,1.48,0,0,0,.13.21,13.76,13.76,0,0,1,.91,1.12,10.08,10.08,0,0,1,.73,1.23l.19.37A6.74,6.74,0,0,1,238,213a4,4,0,0,1,.09.45q0-.22.12-.48a2.51,2.51,0,0,0,0-.27,5.2,5.2,0,0,1,.29-1.17,5.33,5.33,0,0,1,.57-1,1.91,1.91,0,0,0,.16-.27,6,6,0,0,1,.65-1l.17-.22a1.66,1.66,0,0,1,.14-.43c.15-.34.28-.67.39-1a6.81,6.81,0,0,1,.34-.78l.11-.22c0-.1,0-.34,0-.6v-.12l0-.11a4.75,4.75,0,0,1-.21-.91l0-.28a4,4,0,0,0-.09-.57,6.24,6.24,0,0,0-.32-.79c0-.1-.08-.17-.12-.25a2.56,2.56,0,0,1-.33-.46,6.47,6.47,0,0,1-.46-1.09c0-.1-.07-.19-.1-.28a1.66,1.66,0,0,1-.06-.16h0a5.37,5.37,0,0,1-.65-.79l-.27-.38c-.16-.21-.33-.43-.48-.67a4.66,4.66,0,0,1-.49-1.15s0-.07,0-.1l-.08-.07a5,5,0,0,1-.76-1,4.08,4.08,0,0,1-.39-1.26.59.59,0,0,1,0-.13l-.11-.16a5.58,5.58,0,0,1-.55-1,1.94,1.94,0,0,0-.13-.3,6.36,6.36,0,0,1-.41-1c-.06-.18-.13-.35-.2-.52s-.14-.35-.2-.53a5.69,5.69,0,0,1-.22-.78c0-.1-.05-.2-.08-.3a5.73,5.73,0,0,1-.26-.73,2.65,2.65,0,0,0-.11-.3c-.15-.28-.32-.54-.48-.8l0,0-.12-.11a4.64,4.64,0,0,1-.69-.67l-.16-.21a6.09,6.09,0,0,0-.46-.55,7.43,7.43,0,0,1-.53-.59,1.39,1.39,0,0,0-.15-.19,7.71,7.71,0,0,0-.74-.43,5.51,5.51,0,0,0-.83-.37l-.32-.12a5.08,5.08,0,0,0-.54-.17A.52.52,0,0,1,228.67,185.57ZM218.18,198c-.1,0-.21,0-.31,0h-.73a.75.75,0,0,0-.21,0,6.48,6.48,0,0,0-.82.26l-.12.09a4.18,4.18,0,0,1-1.7.92h0l0,.07a6.08,6.08,0,0,1-.56.66c-.05.06-.1.15-.16.24l-.31.45q-.18.24-.39.48a2.33,2.33,0,0,0-.19.23l-.16.29a4.44,4.44,0,0,0-.28.53,2.73,2.73,0,0,0-.1.41c0,.17-.07.34-.12.51a4.71,4.71,0,0,1-.35.89v0s0,.05,0,.07a6.94,6.94,0,0,1,.08.77c0,.13,0,.26,0,.39s0,.37,0,.44.1.2.15.31l.18.38a6.61,6.61,0,0,1,.24.67.56.56,0,0,0,0,.12l.34.31.17.14.29.27a2.24,2.24,0,0,0,.33.28,3.27,3.27,0,0,0,.5.21l.34.14a2.11,2.11,0,0,1,.72.48,6.89,6.89,0,0,1,1.09.29l.32.1a6.36,6.36,0,0,1,1.07.4l.28.13c.34.16.68.32,1,.52l.33.18c.3.16.61.34.91.54a7.22,7.22,0,0,1,.78.65,3.85,3.85,0,0,0,.3.27c.13.1.27.18.41.27l.51.31a5.59,5.59,0,0,1,.77.67l.1.1a1.45,1.45,0,0,0,.29.11l.67.28c.21.1.41.21.61.33a2.64,2.64,0,0,0,.37.2H225a5.15,5.15,0,0,1,1,.24,4.41,4.41,0,0,1,1.05.58l.1.07.29.08a7.72,7.72,0,0,1,.89.28,9.35,9.35,0,0,1,1.05.52l.25.14a5.21,5.21,0,0,1,1.07.78l.21.18.2.15a5,5,0,0,1,1.07.94l.11.1a4.15,4.15,0,0,1,1,1.16,3.73,3.73,0,0,1,.41,1.41s0,.08,0,.11a.16.16,0,0,1,0,.07,4.34,4.34,0,0,1,.6,1.29c.09.37.17.72.24,1.08a2.1,2.1,0,0,1,.11.75,4.29,4.29,0,0,1-.09.69,4.6,4.6,0,0,1,.88-.2,11.15,11.15,0,0,1,1.6-.06h.31a5.44,5.44,0,0,1,1.28.09,4,4,0,0,1,1.37.62l.14.09.2.06a7.13,7.13,0,0,1,1.15.48,1.7,1.7,0,0,0,.24.09,5.09,5.09,0,0,1,1.17.61,4.74,4.74,0,0,1,1,1,1.39,1.39,0,0,0,.15.19l.21.19a5.76,5.76,0,0,1,.9.93,5.61,5.61,0,0,1,.56.94,3.47,3.47,0,0,0,.18.33c0,.06.11.12.17.19a5.54,5.54,0,0,1,.72.91,9.23,9.23,0,0,1,.42.83c.06.13.12.26.19.39l.32.52c.13.2.25.39.36.59a3.39,3.39,0,0,1,.27.54l.24.18a2.26,2.26,0,0,0,.31.23c.14.07.28.12.43.18s.36.14.54.23l.19,0a5.84,5.84,0,0,1,.82.22,6.2,6.2,0,0,1,.79.36l.19.11.42.11a3.92,3.92,0,0,0,.49.13,3.62,3.62,0,0,0,.47,0h.5a7.24,7.24,0,0,0,.87-.05,9.13,9.13,0,0,0,1-.12l.21,0c.2-.05.4-.09.55-.14l.09-.08a4.42,4.42,0,0,1,.68-.51c.16-.1.33-.19.5-.28s.18-.09.27-.15a4.34,4.34,0,0,1,.7-.49l.13-.07c.16-.2.33-.4.47-.61a.57.57,0,0,0,0-.14,5.08,5.08,0,0,1,.34-.87,5.7,5.7,0,0,1,.3-.54,3.12,3.12,0,0,0,.2-.35c.06-.16.13-.32.2-.48s.11-.24.15-.36a1.24,1.24,0,0,1,0-.23c0-.21,0-.42,0-.62a3.7,3.7,0,0,0-.09-.51l-.07-.35c0-.2-.07-.4-.1-.61a1.65,1.65,0,0,0,0-.32s-.07-.07-.11-.13a4.66,4.66,0,0,1-.43-.66,5.88,5.88,0,0,1-.33-.72,2.44,2.44,0,0,0-.1-.24c-.08-.11-.22-.24-.35-.38a.47.47,0,0,1-.1-.1c-.29-.15-.58-.29-.85-.45a2.15,2.15,0,0,1-.88-.94l-.13-.08a8,8,0,0,0-.84-.53c-.16-.08-.31-.18-.46-.27l-.38-.21c-.13,0-.26-.1-.38-.15a3.67,3.67,0,0,0-.45-.16,2.63,2.63,0,0,0-.74,0l-.32,0a6.74,6.74,0,0,1-1.29,0,10.47,10.47,0,0,1-1.55-.25l-.33-.07a7.76,7.76,0,0,1-1.14-.3,5,5,0,0,1-1-.52c-.09-.05-.18-.11-.27-.15l-.39-.16c-.3-.12-.59-.24-.87-.38s-.5-.29-.75-.44l-.38-.23-.28-.15-.81-.44c-.22-.12-.44-.26-.65-.4a3,3,0,0,0-.34-.2c-.3-.14-.6-.26-.9-.37H242a6.36,6.36,0,0,1-.86-.08,3.94,3.94,0,0,1-.86-.28c-.21.08-.43.15-.64.21a3.39,3.39,0,0,0-.76.25,5.1,5.1,0,0,1-.75.3l-.11,0,0,.07a5.65,5.65,0,0,1-.62.71,2.15,2.15,0,0,1-3-.1,2.86,2.86,0,0,1-.3-.41,2.25,2.25,0,0,1-.3-.6,2.09,2.09,0,0,1,0-1.19c.06-.23.13-.45.2-.66A2.26,2.26,0,0,0,234,217a1.1,1.1,0,0,0,0-.24c0-.26,0-.51,0-.76a5.21,5.21,0,0,0,0-.91c0-.21,0-.43,0-.64a2.64,2.64,0,0,0,0-.28,3.87,3.87,0,0,0-.2-.38l-.19-.34-.07-.14a5.86,5.86,0,0,0-.39-.69,9.64,9.64,0,0,0-.66-.8,5.85,5.85,0,0,1-.54-.76l-.14-.22c-.11-.1-.24-.24-.38-.39s-.29-.31-.45-.46l-.15-.1a4.77,4.77,0,0,1-.88-.68,4,4,0,0,0-.3-.28c-.23-.21-.46-.41-.67-.64a7.55,7.55,0,0,1-.6-.77,3.81,3.81,0,0,0-.24-.32,9.55,9.55,0,0,1-.57-.8l-.23-.33-.2-.27a10.72,10.72,0,0,1-.62-.88l-.13-.15a5,5,0,0,1-.73-1c-.1-.2-.2-.4-.29-.6a2.14,2.14,0,0,0-.21-.43,1.83,1.83,0,0,0-.21-.26,7,7,0,0,1-.5-.61,4.59,4.59,0,0,1-.52-1.06l0-.09-.24-.31c-.09-.11-.17-.22-.26-.32l-.09,0a4.2,4.2,0,0,1-.93-.55,3.79,3.79,0,0,1-.69-.73,1.82,1.82,0,0,1-.27-.15l-.11-.08-.51-.2-.6-.29-.12-.07a4,4,0,0,1-1.11.07C218.59,198.07,218.39,198,218.18,198Zm107.14,52.47a1.93,1.93,0,0,0-.23,0,7.68,7.68,0,0,0-1,.36,1.27,1.27,0,0,1-.16.15,5.48,5.48,0,0,1-.73.57,4.79,4.79,0,0,1-.92.45l-.19.08-.12.17a5.9,5.9,0,0,1-.67.8,2.23,2.23,0,0,1-.24.19l0,.07a4.67,4.67,0,0,1-.62,1.22c-.06.08-.13.15-.19.22.28.09.53.19.74.28l.33.13.38.1a6.43,6.43,0,0,1,1.12.33,9.44,9.44,0,0,1,1,.53l.35.2c.39.2.75.43,1.11.66l.22.13.2.08a4.89,4.89,0,0,1,1.19.62,8.35,8.35,0,0,1,.85.75l.3.29.16.14c.33.29.67.59,1,.9s.59.66.86,1l.15.18a10.06,10.06,0,0,1,.67.94l.22.33.06.08c.16.22.3.46.45.69a2.48,2.48,0,0,1,.26.19,2.6,2.6,0,0,0,.33.25,10.16,10.16,0,0,0,1,.43l.4.06a4.55,4.55,0,0,1,.66.1c.22,0,.43.1.64.15a1.81,1.81,0,0,0,.37.09,4.82,4.82,0,0,0,1-.1l.2,0a5.76,5.76,0,0,0,.76-.16,4,4,0,0,0,.51-.3l.33-.21c.08-.07.16-.17.25-.26s.29-.3.44-.44a4.73,4.73,0,0,0,.43-.52l.18-.24a5.89,5.89,0,0,1,.59-.64l.11-.1,0-.08a6.34,6.34,0,0,0,.26-.58c0-.06,0-.13,0-.19a5,5,0,0,1,0-.86,4.23,4.23,0,0,0-.05-.64l0-.29q0-.3,0-.6a2.19,2.19,0,0,0,0-.36c-.05-.18-.09-.38-.13-.58a3.59,3.59,0,0,0-.08-.35,4.86,4.86,0,0,0-.43-.59l-.12-.07a4.85,4.85,0,0,1-.71-.47,4.25,4.25,0,0,0-.76-.49,7.06,7.06,0,0,1-.65-.4l-.24-.15-.35,0c-.26,0-.52-.08-.78-.14a5.21,5.21,0,0,1-1.17-.45,1.66,1.66,0,0,0-.27-.13,9,9,0,0,1-1.58-.74,3,3,0,0,0-.37-.17,6.26,6.26,0,0,1-1.1-.58l-.56-.37-.65-.44a6.41,6.41,0,0,1-.52-.39l-.46-.33-.24,0a6.46,6.46,0,0,1-.76-.18l-.39-.12a2.47,2.47,0,0,0-.53-.15,4.48,4.48,0,0,0-.77,0l-.31,0A5.6,5.6,0,0,1,325.32,250.47Zm-7.51,8.14-.2,0a6.06,6.06,0,0,1-1,.08,5.55,5.55,0,0,1-1-.11l-.26-.05-.4.11q-.33.09-.66.15a2,2,0,0,1-.64,0h-.05l-.34.1a8.2,8.2,0,0,1-1.19.27l-.13,0a4.54,4.54,0,0,1,.38,1.05l.06.2.17.28a8.93,8.93,0,0,1,.54,1l.11.35a2.11,2.11,0,0,1,.59,1,6.85,6.85,0,0,1,.16.76c0,.09,0,.18.05.27a8.58,8.58,0,0,0,.47.82l.19.17a8.07,8.07,0,0,1,.58.59,4.74,4.74,0,0,1,.57.89l.09.16.32.26c.2.15.39.31.58.48s.43.4.66.59l.3.27a3.81,3.81,0,0,0,.32.24,7,7,0,0,1,.76.59,6.46,6.46,0,0,1,.74.85c.06.08.12.17.19.25l.29.26a9.06,9.06,0,0,1,.8.82,2.85,2.85,0,0,0,.23.26,5,5,0,0,1,1.23,2c0,.06,0,.12.05.17a6.33,6.33,0,0,0,.45.46l.27.27a2,2,0,0,0,.29.18,5.8,5.8,0,0,1,.59.36,4.86,4.86,0,0,1,.72.64l.05,0H325a5,5,0,0,1,.69.07,3.22,3.22,0,0,0,.83.06,3,3,0,0,0,.8-.2,3.5,3.5,0,0,0,.75-.4l.55-.33a1.28,1.28,0,0,0,.28-.16l.2-.39.18-.34a4.18,4.18,0,0,0,.3-.82,7.52,7.52,0,0,0,.22-1,6.73,6.73,0,0,1,.17-.85,1.37,1.37,0,0,0,.07-.29l-.07-.35a6,6,0,0,1-.12-.7c0-.23-.05-.47-.06-.71a3.91,3.91,0,0,0,0-.43,5.93,5.93,0,0,0-.24-.71l-.15-.39a.42.42,0,0,1-.1-.13,5.18,5.18,0,0,1-.53-.87c-.1-.21-.19-.42-.27-.64a4.32,4.32,0,0,0-.19-.45c-.18-.31-.39-.6-.59-.9l-.06-.08-.29-.43c-.12-.19-.25-.38-.39-.56l-.16-.19c-.2-.25-.4-.49-.62-.72s-.48-.45-.73-.67l-.16-.14-.47-.45a5,5,0,0,0-.42-.38l-.15,0a4.74,4.74,0,0,1-.95-.46l-.24-.14a6.72,6.72,0,0,0-.78-.47l-.55-.31a4.45,4.45,0,0,0-.48-.26c-.09,0-.28-.08-.45-.13a5.84,5.84,0,0,1-.69-.18,5.1,5.1,0,0,1-.74-.28l-.36-.14-.29-.06A8,8,0,0,0,317.81,258.61Zm1.15-28.9a6.82,6.82,0,0,1,1.94.59,4.51,4.51,0,0,1,1.28,1l.19.2a7.39,7.39,0,0,1,1.19,1.34,8.58,8.58,0,0,1,.86,1.52,1,1,0,0,0,.12.19,4.89,4.89,0,0,1,.64,1.37,11,11,0,0,1,.31,1.71,5.36,5.36,0,0,1-.12,1.36c0,.11,0,.22-.05.34A10.06,10.06,0,0,1,325,241a2.5,2.5,0,0,0,0,.29,5.77,5.77,0,0,1-.34,1.31c-.13.3-.23.61-.33.92l-.06.19c-.07.23-.16.45-.25.68a4.52,4.52,0,0,0-.18.47,6.23,6.23,0,0,1-.28.83,1.95,1.95,0,0,0-.19.81.43.43,0,0,0,0,.05,6.67,6.67,0,0,1,.72-.23,4.74,4.74,0,0,1,1.53-.11,1.34,1.34,0,0,0,.28,0l.26,0a7.8,7.8,0,0,1,1.51-.06,6.38,6.38,0,0,1,1.59.36l.26.08c.11,0,.22,0,.33.08a4.68,4.68,0,0,1,1.48.47,7,7,0,0,1,1,.72l.34.25c.18.13.37.25.56.37l.64.44c.11.06.23.1.34.15a8.59,8.59,0,0,1,.81.39,5.41,5.41,0,0,0,.82.4,7.05,7.05,0,0,1,.85.37,1.92,1.92,0,0,0,.25.12l.34.05a6.26,6.26,0,0,1,1.1.22,5.06,5.06,0,0,1,1.26.63,2.68,2.68,0,0,0,.28.18,8.49,8.49,0,0,1,1.46,1l.18.11a4.11,4.11,0,0,1,1.25,1,8.15,8.15,0,0,1,1,1.48,5.76,5.76,0,0,1,.43,1.36,2.82,2.82,0,0,0,.07.31,5.84,5.84,0,0,1,.17,1.37c0,.1,0,.21,0,.31l0,.24a7.18,7.18,0,0,1,.06,1.44,2,2,0,0,0,0,.23,4.73,4.73,0,0,1-.09,1.49,7.18,7.18,0,0,1-.57,1.45l-.08.17a4.22,4.22,0,0,1-1,1.26l-.15.15-.14.19a7.74,7.74,0,0,1-1,1.12l-.23.24a5.12,5.12,0,0,1-1.09.94l-.25.16a6.35,6.35,0,0,1-1.34.72,8.21,8.21,0,0,1-1.6.39l-.17,0a9.69,9.69,0,0,1-1.64.16h-.15a4.78,4.78,0,0,1-1.19-.19c0,.26,0,.5.06.71s0,.25,0,.37,0,.24.07.36a6.16,6.16,0,0,1,.16,1.26,5.2,5.2,0,0,1-.21,1.37,2.86,2.86,0,0,0-.07.28,11.49,11.49,0,0,1-.33,1.63,8,8,0,0,1-.69,1.77l-.13.25a6.11,6.11,0,0,1-.9,1.36,4.67,4.67,0,0,1-1.3,1l-.26.15a7.68,7.68,0,0,1-3.56,1.3,5.12,5.12,0,0,1-.56,0,8.75,8.75,0,0,1-1.37-.13l-.26,0a4.64,4.64,0,0,1-1.62-.35,4,4,0,0,1-1.3-.95l-.19-.18-.24-.14a5.45,5.45,0,0,1-1.2-.88l-.21-.21a9.27,9.27,0,0,1-.95-1,4.52,4.52,0,0,1-.62-1.26,2.5,2.5,0,0,0-.09-.25l-.27-.31c-.13-.14-.26-.29-.38-.44a3.55,3.55,0,0,0-.34-.33l-.47-.44-.26-.31a10.91,10.91,0,0,1,.12,1.23c0,.05,0,.13.06.21a4.88,4.88,0,0,1,.17,1.41,5.36,5.36,0,0,1-.3,1.34c0,.1-.06.19-.08.28a7,7,0,0,1-.42,1.29c0,.1-.08.2-.11.3s-.06.21-.09.31a5.34,5.34,0,0,1-.5,1.33,8.28,8.28,0,0,1-1,1.3l-.1.11a8.76,8.76,0,0,1-1.33,1.22l-.22.18a6.3,6.3,0,0,1-1.28.83,8.56,8.56,0,0,1-1.72.59,4.09,4.09,0,0,1-1.61,0l-.21,0-.17,0a5.39,5.39,0,0,1-.93.1,3.34,3.34,0,0,1-.68-.07,4.65,4.65,0,0,1-1.4-.57l-.25-.13a2,2,0,0,0-.26-.09,4.87,4.87,0,0,1-1.37-.63,4.72,4.72,0,0,1-1.05-1.07,1.63,1.63,0,0,0-.17-.22,7,7,0,0,1-.84-1.13l-.16-.26a2.07,2.07,0,0,0-.17-.24,5.37,5.37,0,0,1-.75-1.18,3.78,3.78,0,0,0-.17-.35,6.36,6.36,0,0,1-.52-1.33,5.3,5.3,0,0,1-.1-1.47c0-.11,0-.21,0-.31s0-.27,0-.4a8,8,0,0,1-.07-1.27,7.21,7.21,0,0,1,.16-1.1,3.07,3.07,0,0,0,.07-.42c0-.08,0-.18,0-.28a5.3,5.3,0,0,1,0-1.16,6.27,6.27,0,0,1,.2-1,2,2,0,0,0,.08-.33c0-.06,0-.26,0-.41s-.08-.48-.1-.71a5.72,5.72,0,0,1,0-.95c0-.07,0-.14,0-.21a2.15,2.15,0,0,0-.15-.31c-.1-.21-.21-.43-.29-.64l-.07-.19a6.25,6.25,0,0,0-.35-.79,7,7,0,0,0-.51-.66l-.16-.2-.3-.24c-.19-.15-.39-.31-.57-.48a4.64,4.64,0,0,1-.66-.78,1.83,1.83,0,0,1-.13-.16,10.34,10.34,0,0,1,.19,1.39l0,.28a8.53,8.53,0,0,1,0,1.37,7.76,7.76,0,0,1-.18,1.21c0,.13-.06.25-.08.38l0,.16c0,.24-.08.47-.1.66a.3.3,0,0,1,0,.1,4.54,4.54,0,0,1,.32,1.08,4,4,0,0,1,0,1.33s0,.05,0,.08l.21.75.09.33c.06.21.12.41.19.62l.21.67c.08.28.14.56.21.84l.12.52a3.84,3.84,0,0,0,.14.36,6.53,6.53,0,0,1,.34,1c0,.13.07.25.11.37A6.27,6.27,0,0,1,298,278a8.57,8.57,0,0,1,0,1.39v.28a8.06,8.06,0,0,1-.25,1.81,6,6,0,0,1-.71,1.67l-.07.13-.12.22a4.9,4.9,0,0,1-1,1.42,4.66,4.66,0,0,1-1.23.83l-.31.17-.08.09a4.53,4.53,0,0,1-1.33.9,8,8,0,0,1-1.81.55,3.32,3.32,0,0,1-.53,0,5,5,0,0,1-1.19-.17l-.21-.05a7.9,7.9,0,0,1-1.78-.33l-.27-.06a4.45,4.45,0,0,1-1.44-.46,11.27,11.27,0,0,1-1.45-.9,3.54,3.54,0,0,1-1-1.15s0,0,0,0a5.44,5.44,0,0,1-.78,1.19,3,3,0,0,0-.22.28,2.13,2.13,0,0,0-.16.25,6.48,6.48,0,0,1-.81,1.13,6.69,6.69,0,0,1-1.18.93l-.21.14a8.1,8.1,0,0,1-1.57.85l-.28.13a5.6,5.6,0,0,1-1.4.51,4.36,4.36,0,0,1-.78.06c-.26,0-.5,0-.7,0l-.3,0a4.48,4.48,0,0,1-1.43-.29l-.25-.08a.81.81,0,0,1-.16,0,4,4,0,0,1-1.53-.25,12.49,12.49,0,0,1-1.5-.76,5,5,0,0,1-1-.85l-.24-.22a5.06,5.06,0,0,1-.89-1,2,2,0,0,0-.17-.23l-.09-.06a3.77,3.77,0,0,1-1.1-1.1,10.29,10.29,0,0,1-.8-1.46,10.68,10.68,0,0,1-.57-1.57,3.9,3.9,0,0,1,0-1.59,0,0,0,0,1,0,0,3.61,3.61,0,0,1-.37-1.64,3.85,3.85,0,0,1,.36-1.44c0-.07.05-.13.07-.2.05-.28.09-.57.11-.82l0-.07a4.76,4.76,0,0,1-.27-1.15,4.33,4.33,0,0,1,.08-1.15,4.37,4.37,0,0,1-.47-1.09,5.08,5.08,0,0,1-.12-1.12,1.55,1.55,0,0,0,0-.22c0-.16-.1-.41-.16-.66s-.07-.34-.12-.5l-.14-.45c-.09-.28-.18-.56-.26-.84s-.09-.29-.14-.43-.17-.54-.25-.81a.75.75,0,0,0-.07-.12,4.11,4.11,0,0,1-.56-1.39,12.6,12.6,0,0,1-.11-1.63,8.34,8.34,0,0,1,.18-1.8l0-.14a6.19,6.19,0,0,1,.5-1.7.26.26,0,0,1,.05-.09c-.29,0-.56,0-.77,0l-.16,0,0,0a3.92,3.92,0,0,1-1.45.58,5.4,5.4,0,0,1-1.1.05,1.93,1.93,0,0,0-.34,0,2.25,2.25,0,0,0-.42.13,7.94,7.94,0,0,1-.95.28,4.43,4.43,0,0,1-1.38.05l-.15,0-.2.11a6.91,6.91,0,0,1-1.08.43l-.5.13c-.3.07-.59.15-.88.24a4.39,4.39,0,0,1-1.4.14h-.17l-.41.17c-.24.11-.49.22-.75.32l-.15.11a4.66,4.66,0,0,1-1.19.7,7.51,7.51,0,0,1-1.06.27,2,2,0,0,0-.35.07,8.09,8.09,0,0,1-.83.28,4.93,4.93,0,0,0-.54.19l-.16.13a5.1,5.1,0,0,1-1.07.68l-.65.32-.64.32-.64.28-.68.31c-.2.1-.39.22-.59.33s-.44.26-.67.38a4.86,4.86,0,0,1-1.25.41l-.19,0-.33.24a6.88,6.88,0,0,1-.78.55,3.47,3.47,0,0,0-.44.31l-.72.51c-.2.12-.38.25-.57.39l-.59.41a3.62,3.62,0,0,1-1.58.53,0,0,0,0,0,0,0,5.31,5.31,0,0,1-.86.84,5.76,5.76,0,0,1-1,.59l-.09,0a3.85,3.85,0,0,1-.94,1.31,3.68,3.68,0,0,0-.33.35q-.3.34-.63.66a4.11,4.11,0,0,1-1.27.75h0l0,0a4.73,4.73,0,0,1-.75,1.12c-.19.19-.39.37-.59.55s-.29.27-.43.42a8.53,8.53,0,0,1-.69.65,3.4,3.4,0,0,0-.34.32l-.4.46c-.18.2-.35.39-.52.6a4.9,4.9,0,0,1-.93.85l-.2.17a3.34,3.34,0,0,0-.18.32,7.82,7.82,0,0,1-.51.84,2,2,0,0,0-.13.29,5.79,5.79,0,0,1-.53,1c-.11.17-.24.34-.36.52l-.45.64a5,5,0,0,1-.73.88c-.07.08-.15.15-.22.24s-.22.39-.33.59l-.36.64-.26.44c-.16.26-.32.53-.47.8a2.28,2.28,0,0,0-.15.36,6.1,6.1,0,0,1-.41,1c-.12.21-.22.43-.33.65l-.32.63c-.09.18-.17.36-.25.55s-.22.51-.35.77a6.12,6.12,0,0,1-.62.94l-.09.13.16.05.14.05a6.46,6.46,0,0,1,1.58.74,7.65,7.65,0,0,1,1.43,1.26,6.74,6.74,0,0,1,.93,1.46l.2.37a6.66,6.66,0,0,1,.63,1.44,2.32,2.32,0,0,1,.06.38,2.17,2.17,0,0,1,.42,1.09,14.12,14.12,0,0,1,.05,1.58,6,6,0,0,1-.18,1.27c0,.12,0,.23-.06.33a11.67,11.67,0,0,1-.41,1.65l-.09.26a5.43,5.43,0,0,1-.56,1.4,8,8,0,0,1-.81,1.22l.14.16a4,4,0,0,0,.4.32,8.4,8.4,0,0,1,.86.73l.31.3c.29.28.57.56.85.85a9,9,0,0,1,.69.89c.1.13.19.27.3.4a1.88,1.88,0,0,0,.26.22,5,5,0,0,1,.93.89l.12.14c.3.38.6.76.87,1.14l.35.45.62.83c.2.31.39.62.57.92.09.15.18.3.28.45l.19.3a13.2,13.2,0,0,1,.74,1.16,5.24,5.24,0,0,1,.45,1.21l.11.37.3.5c.18.29.36.6.53.92a3.48,3.48,0,0,0,.27.44,8.86,8.86,0,0,1,.58,1c.14.29.27.59.4.9l.27.59a7.4,7.4,0,0,1,.4,1.17,2.77,2.77,0,0,0,.12.41,2.16,2.16,0,0,1-1.1,2.84,2.19,2.19,0,0,1-.87.18,2.14,2.14,0,0,1-2-1.28,6.69,6.69,0,0,1-.35-1,4.55,4.55,0,0,0-.14-.46c-.11-.23-.21-.47-.31-.71s-.21-.48-.33-.72a4.71,4.71,0,0,0-.29-.48,7.77,7.77,0,0,1-.53-.87c-.11-.21-.23-.41-.35-.6s-.31-.51-.44-.76a5.76,5.76,0,0,1-.46-1.25c0-.1-.05-.2-.08-.29-.16-.27-.36-.56-.52-.8l-.26-.38-.34-.56c-.13-.23-.27-.46-.43-.69s-.31-.43-.48-.65-.27-.34-.4-.52c-.25-.34-.52-.68-.79-1l-.11-.15-.24-.19a5.38,5.38,0,0,1-.86-.79c-.18-.22-.36-.46-.53-.71a4.83,4.83,0,0,0-.34-.45c-.22-.24-.45-.46-.69-.69l-.33-.33a5.72,5.72,0,0,0-.46-.37c-.22-.17-.44-.34-.65-.53a5.81,5.81,0,0,1-.74-.82,2.65,2.65,0,0,0-.21-.26l0,0c-.42.14-.84.25-1.22.34a9.19,9.19,0,0,1-1.67.24H215a8.73,8.73,0,0,1-1.27-.09l-.3,0a4.64,4.64,0,0,1-1.45-.27,7,7,0,0,1-1.46-.79l-.14-.1a7.31,7.31,0,0,1-1.26-1,7.41,7.41,0,0,1-.63.69l-.26.27a6.27,6.27,0,0,1-1.33,1.11,7.93,7.93,0,0,1-1.29.6l-.22.09-.31.13a7,7,0,0,1-1.27.46,7.68,7.68,0,0,1-1.41.13h-.28c-.11,0-.21,0-.32,0a6.47,6.47,0,0,1-.84.06,4.08,4.08,0,0,1-.59,0,8.52,8.52,0,0,1-1.73-.47,7.9,7.9,0,0,1-1.63-.84,7.72,7.72,0,0,1-1.41-1.2,5.13,5.13,0,0,1-.84-1.31c0-.09-.09-.18-.14-.26A7.86,7.86,0,0,1,194,306l-.09-.26a6.42,6.42,0,0,1-.32-1.42l0-.2a8.37,8.37,0,0,1,0-1.47,4.52,4.52,0,0,1,.29-1.26,1.59,1.59,0,0,0,.07-.2l0-.15a8.51,8.51,0,0,1,.31-1.29,10,10,0,0,1,.65-1.41,8.67,8.67,0,0,1,.85-1.34,7.79,7.79,0,0,1,1.13-1.16l.16-.16a4.72,4.72,0,0,1,1.12-.89c.15-.08.3-.13.44-.19a4,4,0,0,0-.37-.24,1.85,1.85,0,0,0-.4-.16,10.48,10.48,0,0,1-1-.39,5.25,5.25,0,0,1-1.06-.69,4.76,4.76,0,0,0-.47-.33,5.48,5.48,0,0,0-.56-.23,10.1,10.1,0,0,1-1.12-.49,11.13,11.13,0,0,1-1-.67c-.17-.12-.34-.24-.51-.34s-.42-.22-.62-.32a8.49,8.49,0,0,1-1.06-.57l-.1-.07a6.32,6.32,0,0,0-1-.59,3.91,3.91,0,0,0-.68-.19l-.7-.17-.3-.09-.58-.16a2,2,0,0,1-.6,0,2.16,2.16,0,0,1-.84.2c-1.14,0-2.26.15-3.45.29l-1.88.2-.63.08.08.09a4.38,4.38,0,0,1,.68,1.29l.09.23s0,.05.08.09a4.41,4.41,0,0,1,.72,1.39,2.12,2.12,0,0,1,.07.61,2.17,2.17,0,0,1,.28.89,14.29,14.29,0,0,1,0,1.57c0,.11,0,.23,0,.35a5.06,5.06,0,0,1,0,1.28,4.82,4.82,0,0,1-.44,1.36c0,.09-.08.17-.11.25l-.09.29a5.45,5.45,0,0,1-.55,1.39,6,6,0,0,1-1,1.28l-.27.27a6.27,6.27,0,0,1-1.33,1.11,7.87,7.87,0,0,1-1.28.6l-.23.09-.31.13a6.5,6.5,0,0,1-1.26.45,7.13,7.13,0,0,1-1.42.14H173l-.31,0a6.78,6.78,0,0,1-.85.06,4,4,0,0,1-.58,0,8.73,8.73,0,0,1-1.73-.47,7.9,7.9,0,0,1-1.63-.84,8.19,8.19,0,0,1-1.42-1.21,5.21,5.21,0,0,1-.84-1.3l-.13-.26a8,8,0,0,1-.66-1.67l-.08-.26a7,7,0,0,1-.33-1.42l0-.22a8.17,8.17,0,0,1,0-1.45,3.41,3.41,0,0,1,.12-.69H164l-.31,0a6.32,6.32,0,0,1-.85.07,4,4,0,0,1-.58,0,8.85,8.85,0,0,1-1.73-.48,7.9,7.9,0,0,1-1.63-.84,7.35,7.35,0,0,1-1.41-1.2,5.5,5.5,0,0,1-.85-1.31c0-.08-.08-.17-.13-.26a8.77,8.77,0,0,1-.66-1.66l-.08-.26a6.7,6.7,0,0,1-.32-1.42l0-.22a9.18,9.18,0,0,1-.06-1.45,4.47,4.47,0,0,1,.3-1.27c0-.07.05-.13.07-.2l0-.15a10.49,10.49,0,0,1,.32-1.29,8.51,8.51,0,0,1,.65-1.4,8.12,8.12,0,0,1,.84-1.34,7.94,7.94,0,0,1,1.14-1.17l.16-.16a4.72,4.72,0,0,1,1.12-.89,5.71,5.71,0,0,1,1.28-.48l.25-.08a12.08,12.08,0,0,1,1.54-.37l.27,0a6.56,6.56,0,0,1,1.35-.12,4.71,4.71,0,0,1,1.39.28l.24.07a7.4,7.4,0,0,1,1.51.56l.28.11a4.55,4.55,0,0,1,1.34.68,7.52,7.52,0,0,1,1.23,1.23,4.3,4.3,0,0,1,.68,1.3l.09.23a.39.39,0,0,1,.08.09,4,4,0,0,1,.72,1.38,4,4,0,0,0,.35,1.5,14.29,14.29,0,0,1,0,1.57c0,.11,0,.23,0,.35s0,.29,0,.45l.31-.05a2.32,2.32,0,0,1,.78-.36,61.5,61.5,0,0,1,6.06-1.18c.61,0,1.2-.12,1.79-.19,1-.11,2-.21,3-.27-.76-1.62-1.45-3.31-2.13-5-.31-.76-.61-1.5-.91-2.21-.14,0-.26.09-.41.12a7.13,7.13,0,0,1-1.42.14h-.28a1.55,1.55,0,0,0-.31,0,6.78,6.78,0,0,1-.85.06,3.86,3.86,0,0,1-.58,0,8.73,8.73,0,0,1-1.73-.47,7.9,7.9,0,0,1-1.63-.84,8.19,8.19,0,0,1-1.42-1.21,5.21,5.21,0,0,1-.84-1.3l-.13-.26a7.48,7.48,0,0,1-.66-1.67l-.08-.26a6.36,6.36,0,0,1-.33-1.42l0-.22a8.17,8.17,0,0,1-.05-1.45,4.15,4.15,0,0,1,.3-1.26,1.52,1.52,0,0,0,.06-.2l0-.17a9.83,9.83,0,0,1,.32-1.27,9.08,9.08,0,0,1,.64-1.41,9.39,9.39,0,0,1,.85-1.34,8.31,8.31,0,0,1,1.13-1.16l.17-.16a4.31,4.31,0,0,1,1.12-.89,6.34,6.34,0,0,1,1.28-.49l.25-.07a9.43,9.43,0,0,1,1.54-.37l.26,0a6.68,6.68,0,0,1,1.36-.13,4.9,4.9,0,0,1,1.38.28,1.09,1.09,0,0,0,.24.07,7.51,7.51,0,0,1,1.52.56,1.56,1.56,0,0,0,.28.11,4.52,4.52,0,0,1,1.33.68,7.64,7.64,0,0,1,1.24,1.24,4.51,4.51,0,0,1,.68,1.29,1.57,1.57,0,0,0,.09.23s0,.05.08.1a4.23,4.23,0,0,1,.72,1.38,2.12,2.12,0,0,1,.07.61,2.17,2.17,0,0,1,.28.89,14.21,14.21,0,0,1,0,1.57c0,.11,0,.23,0,.35a5,5,0,0,1,0,1.27,5.12,5.12,0,0,1-.44,1.37c0,.09-.08.17-.11.26l-.09.27a5.62,5.62,0,0,1-.54,1.39,5.84,5.84,0,0,1-1.06,1.29l-.26.27-.2.21c.37.87.74,1.76,1.1,2.64a70.18,70.18,0,0,0,2.86,6.42,1.82,1.82,0,0,1,.18.47h0a7.75,7.75,0,0,1,1.43.43,10.7,10.7,0,0,1,1.71.95l.09.06a5.21,5.21,0,0,0,.58.31c.29.14.59.28.88.45s.56.36.84.55a4.74,4.74,0,0,0,.6.39c.2.11.43.19.64.28a7.35,7.35,0,0,1,.95.41,6.43,6.43,0,0,1,1.14.75,3.19,3.19,0,0,0,.32.23c.17.08.36.14.54.21a6.12,6.12,0,0,1,1.21.53c.23.14.44.29.65.43a6.08,6.08,0,0,1,0-.74,4.65,4.65,0,0,1,.3-1.27,1.39,1.39,0,0,0,.06-.19l0-.16a10.37,10.37,0,0,1,.32-1.28,9.67,9.67,0,0,1,.64-1.41,8.32,8.32,0,0,1,.86-1.34,7.79,7.79,0,0,1,1.13-1.16c0-.05.1-.11.16-.16a4.49,4.49,0,0,1,1.12-.89A6.34,6.34,0,0,1,207,282l.25-.07a10.28,10.28,0,0,1,1.54-.37l.27,0a5.88,5.88,0,0,1,1.35-.13,4.9,4.9,0,0,1,1.38.28,1.09,1.09,0,0,0,.24.07,7.82,7.82,0,0,1,1.46.53c0-.16,0-.32.05-.49a3.19,3.19,0,0,0,.06-.53,4.34,4.34,0,0,0,0-.51c0-.33,0-.65,0-1a4.76,4.76,0,0,1,.34-1.39.69.69,0,0,0,.05-.13,2.48,2.48,0,0,0,0-.27,5,5,0,0,1-.07-1.16,5.2,5.2,0,0,1,.31-1.28c0-.09.07-.18.09-.26,0-.26.06-.57.1-.88,0-.11,0-.22,0-.33s0,0,0-.05a3.73,3.73,0,0,1-.26-1.77l.05-.34.15-1.17a3.62,3.62,0,0,1,.77-1.66l0,0,0-.26.15-1a1.43,1.43,0,0,0,0-.29v-.06l-.19.08-.31.13a7.19,7.19,0,0,1-1.26.46,7.85,7.85,0,0,1-1.42.13h-.28c-.11,0-.21,0-.32,0a6.47,6.47,0,0,1-.84.06,4.08,4.08,0,0,1-.59,0,9.13,9.13,0,0,1-1.73-.47,8.27,8.27,0,0,1-3-2,5.42,5.42,0,0,1-.84-1.31c0-.09-.09-.18-.14-.26a7.92,7.92,0,0,1-.65-1.67l-.08-.26a5.85,5.85,0,0,1-.33-1.42l0-.22a8.13,8.13,0,0,1,0-1.45,4.52,4.52,0,0,1,.29-1.26,1.59,1.59,0,0,0,.07-.2l0-.17a9.68,9.68,0,0,1,.31-1.27,9.87,9.87,0,0,1,.65-1.4,8.28,8.28,0,0,1,.85-1.35,7.79,7.79,0,0,1,1.13-1.16l.16-.16a4.72,4.72,0,0,1,1.12-.89,5.9,5.9,0,0,1,1.28-.48l.26-.08a10.28,10.28,0,0,1,1.54-.37l.26,0a7.35,7.35,0,0,1,1.35-.13,4.9,4.9,0,0,1,1.39.28,1.09,1.09,0,0,0,.24.07,7.18,7.18,0,0,1,1.51.56,1.6,1.6,0,0,0,.29.11,4.64,4.64,0,0,1,1.33.68,7.07,7.07,0,0,1,1,1v-.07a5,5,0,0,1,.17-1.25c.09-.31.2-.6.31-.9a5.27,5.27,0,0,0,.19-.51c.06-.19.11-.38.16-.57s.15-.58.24-.87a5.44,5.44,0,0,0,.15-.54c.08-.3.16-.6.26-.9a4.38,4.38,0,0,1,.73-1.27.64.64,0,0,0,.1-.13l.31-.81.18-.49a2.09,2.09,0,0,0,.08-.34,6.33,6.33,0,0,1,.29-1.11l.36-.84.24-.54a6.7,6.7,0,0,1,.52-1,2.23,2.23,0,0,0,.2-.33c.08-.18.15-.36.22-.54s.2-.48.31-.72a.76.76,0,0,1,0-.15,4.09,4.09,0,0,1,.35-1.47,4.21,4.21,0,0,1,.82-1.15l.13-.14.39-.76.26-.5a3.18,3.18,0,0,0,.14-.37,5.56,5.56,0,0,1,.41-1c.14-.26.29-.51.44-.76l-.56,0a5.07,5.07,0,0,1-.83-.07,9.79,9.79,0,0,1-1.55-.47,3.88,3.88,0,0,1-1.19-.76l-.15-.12c-.18-.1-.43-.26-.71-.45l-.69-.45-.66-.43s-.05,0-.11,0a4.79,4.79,0,0,1-.95-.42l-.21-.07a4.89,4.89,0,0,1-.82-.34,4.28,4.28,0,0,1-.91-.67l-.08-.07a6.61,6.61,0,0,1-.62-.36,2.12,2.12,0,0,0-.2-.12,5.09,5.09,0,0,0-.67-.16l-.11,0a4.94,4.94,0,0,1-.94.21,7,7,0,0,1-.79,0h-.33a2.44,2.44,0,0,0-.32.11,6.24,6.24,0,0,1-1,.3,11.36,11.36,0,0,1-1.65.22,4.11,4.11,0,0,1-1.38-.19l-.17,0h-.24a4.23,4.23,0,0,1-1.31-.17,5.88,5.88,0,0,1-1.32-.61l-.18-.11-.23-.11a3.89,3.89,0,0,1-2.09-1.9l-.11-.19-.16-.21a6.35,6.35,0,0,1-.72-1.1,6,6,0,0,1-.39-1.18c0-.1,0-.19-.07-.29a10,10,0,0,1-.31-1.33,1,1,0,0,0,0-.1,3.58,3.58,0,0,1-.39-1.44,5.17,5.17,0,0,1,.13-1.24c0-.08,0-.16.05-.23a5.44,5.44,0,0,1,.25-1.18c0-.09,0-.18.07-.26a6.23,6.23,0,0,1,.42-1.23l.09-.22c0-.06,0-.13.05-.2a4.24,4.24,0,0,1,.45-1.27c0-.09.09-.19.14-.28a7.54,7.54,0,0,1,.63-1.07,4.13,4.13,0,0,1,1.1-1l.15-.1a11,11,0,0,1,1.1-1l.22-.18a4.58,4.58,0,0,1,1-.79l.26-.16a6,6,0,0,1,1.15-.6,4.67,4.67,0,0,1-.23-.64l-.06-.19-.11-.23a5.56,5.56,0,0,1-.49-1.3,6,6,0,0,1-.11-1.32V205a1.52,1.52,0,0,0,0-.21,4.63,4.63,0,0,1-.06-1.34,4.22,4.22,0,0,1,.43-1.33.8.8,0,0,0,.08-.16l0-.25a7.37,7.37,0,0,1,.31-1.11,9.6,9.6,0,0,1,.54-1.07l.13-.23a5.66,5.66,0,0,1,.72-1c.06-.06.11-.13.17-.2l.17-.25a5.23,5.23,0,0,1,.76-1,.84.84,0,0,0,.13-.17,4.89,4.89,0,0,1,.94-1,4.16,4.16,0,0,1,1.3-.61l.18-.06s0-.05.08-.08a4.23,4.23,0,0,1,1.2-.74,11,11,0,0,1,1.52-.48,6.37,6.37,0,0,1,1.29-.12h.28a5.82,5.82,0,0,1-.13-1.34l0-.5a7.55,7.55,0,0,1,0-1.32,1.46,1.46,0,0,0,0-.21,4.3,4.3,0,0,1,.16-1.32,10.19,10.19,0,0,1,.55-1.4,4.6,4.6,0,0,1,.7-1.07,1.15,1.15,0,0,0,.14-.17,11.42,11.42,0,0,1,.81-1.18,8.13,8.13,0,0,1,.89-.93l.35-.35a6.09,6.09,0,0,1,1-.83,5,5,0,0,1,1.14-.54l.27-.11a10.18,10.18,0,0,1,1.43-.55,1.22,1.22,0,0,0,.24-.1,4.87,4.87,0,0,1,1.25-.39,5.6,5.6,0,0,1,1.27,0h.31l.23,0a4.78,4.78,0,0,1,1.37,0,7.56,7.56,0,0,1,1.29.36l.26.09a11,11,0,0,1,1.46.65,10.73,10.73,0,0,1,1.35.83,4.86,4.86,0,0,1,.88.9,1.81,1.81,0,0,0,.18.21,10.82,10.82,0,0,1,.83,1l.14.18a.3.3,0,0,1,.1.07,4.39,4.39,0,0,1,.92,1l.07.1c.23.36.47.73.68,1.13a6.32,6.32,0,0,1,.39,1c0,.11.07.22.12.33a6.44,6.44,0,0,1,.31,1c0,.11.05.22.09.33s.09.24.14.36a8.48,8.48,0,0,1,.33.93,3.73,3.73,0,0,0,.16.35,6.31,6.31,0,0,1,.29.66l0,0c0-.11.07-.22.11-.32a5.13,5.13,0,0,1,.4-.84l.12-.22a5.38,5.38,0,0,1,.26-.64,1.45,1.45,0,0,0,.09-.22s0-.13-.06-.41a1.74,1.74,0,0,0-.11-.25c-.07-.15-.14-.3-.2-.46l-.08-.11a5.7,5.7,0,0,1-.44-.65,3.87,3.87,0,0,1-.34-.91,3.67,3.67,0,0,1-.73-.68,4.08,4.08,0,0,1-.6-1.14l0-.07-.13-.15a8.57,8.57,0,0,1-.61-.81,1.92,1.92,0,0,0-.18-.22,4.4,4.4,0,0,1-.74-1.06,4.71,4.71,0,0,1-.38-1.45,1.36,1.36,0,0,0,0-.2,7.62,7.62,0,0,1-.29-1.62,7.74,7.74,0,0,1,0-1.74,5.88,5.88,0,0,1,.4-1.49l.06-.18s0-.09,0-.15a3.89,3.89,0,0,1,.51-1.53l.09-.14a7.93,7.93,0,0,1,.9-1.27,4.76,4.76,0,0,1,1.13-.87l.22-.13a11,11,0,0,1,1.35-.91l.26-.17a5.15,5.15,0,0,1,1.17-.64,6.47,6.47,0,0,1,1.35-.32l.28,0a5.93,5.93,0,0,1,1.2-.07h.3a8.74,8.74,0,0,1,1.28,0l.24,0,.14,0a3.73,3.73,0,0,1,1.45,0l.29,0a7.23,7.23,0,0,1,1.28.34,4.48,4.48,0,0,1,1.17.72,1.7,1.7,0,0,0,.22.15l.09.06a8.78,8.78,0,0,1,1.22.85,3.77,3.77,0,0,1,.91,1.25l0,.11.15.15a5.08,5.08,0,0,1,.8.94,2.35,2.35,0,0,0,.19.25,6.73,6.73,0,0,1,.64,1l.14.21a5.74,5.74,0,0,1,.59,1.08,3.63,3.63,0,0,1,.18,1.53v0l.06.14a5.77,5.77,0,0,1,.36,1.09c.09.44.18.9.24,1.37a1.53,1.53,0,0,0,.07.29,6,6,0,0,1,.19,1.07,3.76,3.76,0,0,1-.2,1.41.29.29,0,0,1,0,.09,2.46,2.46,0,0,0,0,.26.86.86,0,0,0,0,.16L257,185c.24-.26.49-.51.72-.78s.31-.39.46-.6l.22-.3a.76.76,0,0,1,.07-.19,5.26,5.26,0,0,1,.39-.79,3.52,3.52,0,0,0,.17-.39c.08-.19.16-.39.25-.58a4,4,0,0,1,.85-1.15l.08-.08c.17-.29.36-.56.54-.82l.19-.27a1.74,1.74,0,0,0,.14-.27,5.71,5.71,0,0,1,.61-1,2.34,2.34,0,0,0,.2-.27,5.44,5.44,0,0,1,.74-.93,4.17,4.17,0,0,1,1.22-.78l.16-.09.12-.12a4.26,4.26,0,0,1,1.12-.85,9.58,9.58,0,0,1,1.56-.63,3.85,3.85,0,0,1,1.54-.09h.19a8.4,8.4,0,0,1,1.58,0h.26a4.44,4.44,0,0,1,1.37.13l.23.06a7.57,7.57,0,0,1,1.3.43,5,5,0,0,1,1.11.72l.22.16a5.27,5.27,0,0,1,1.1,1l.18.2a6.77,6.77,0,0,1,.94,1.25l.08.13.12.12a4.28,4.28,0,0,1,.84,1.29,4.38,4.38,0,0,1,.26,1.42,1.69,1.69,0,0,0,0,.23,1.13,1.13,0,0,1,.06.14,4,4,0,0,1,.34,1.41,11.74,11.74,0,0,1,0,1.58,6,6,0,0,1-.24,1.17,1.89,1.89,0,0,0-.09.34c-.11.5-.24,1-.39,1.46a2.47,2.47,0,0,0-.06.29,5.91,5.91,0,0,1-.34,1.17,7.57,7.57,0,0,1-.56,1l-.19.32c-.2.35-.43.68-.66,1l-.17.23a5.85,5.85,0,0,1-.71.84c-.08.09-.17.18-.25.28a14.33,14.33,0,0,1-1,1.09l-.17.15h0a5.47,5.47,0,0,1,1.2.63l.23.15a7.29,7.29,0,0,1,1.32,1l.19.17a5.58,5.58,0,0,1,1,1,4.88,4.88,0,0,1,.58,1.23l.09.27a8.4,8.4,0,0,1,.48,1.49,9.61,9.61,0,0,1,.27,1.49l0,.16a4.09,4.09,0,0,1,.2,1.33,8.67,8.67,0,0,1-.18,1.43l0,.12a5.49,5.49,0,0,1-.42,1.25,2.56,2.56,0,0,0-.11.24l-.09.26a6.75,6.75,0,0,1-.53,1.24l-.08.19a4.54,4.54,0,0,1-.69,1.24,4.73,4.73,0,0,1-1.05.88l-.2.14a5.7,5.7,0,0,1-1,.67,2.1,2.1,0,0,0-.26.13l-.22.15a10.44,10.44,0,0,1-1,.62.61.61,0,0,0-.13.09,4.39,4.39,0,0,1-1.15.64,5.23,5.23,0,0,1-1.06.26l-.33.07a3.52,3.52,0,0,1-.75.1,3.48,3.48,0,0,1,.65.71,4.17,4.17,0,0,1,.59,1.4,1.8,1.8,0,0,0,.06.22,5.84,5.84,0,0,1,.35,1.27l.06.31.07.18a4.81,4.81,0,0,1,.35,1.36v.14a7.65,7.65,0,0,1,0,1.45,5.42,5.42,0,0,1-.31,1.29l-.09.25a4.51,4.51,0,0,1-.58,1.24,1.22,1.22,0,0,0-.12.19,1.89,1.89,0,0,0-.06.18,4.13,4.13,0,0,1-.62,1.27l-.13.18a7.22,7.22,0,0,1-.91,1.07,5.39,5.39,0,0,1-1.14.74l-.24.14a8.49,8.49,0,0,1-1.48.65l-.13.07a4,4,0,0,1-1.38.51l-.76.1a5.07,5.07,0,0,1,.15.81c0,.1,0,.2,0,.29l.06.26a7,7,0,0,1,.19,1.38,2.45,2.45,0,0,0,0,.27,4.67,4.67,0,0,1,0,1.44,5.12,5.12,0,0,1-.45,1.31l-.12.29a6.57,6.57,0,0,1-.51,1l-.16.26s0,.12,0,.19a4.53,4.53,0,0,1-.52,1.18,10.69,10.69,0,0,1-.92,1.2,4.48,4.48,0,0,1-1.11.88l-.15.09a5.26,5.26,0,0,1-1,.67,1.71,1.71,0,0,0-.23.13,1.1,1.1,0,0,0-.14.11,4,4,0,0,1-1.16.76,8.16,8.16,0,0,1-1.32.39l-.17,0a8.08,8.08,0,0,1-.92.16,1.19,1.19,0,0,0,.09.15,5.4,5.4,0,0,1,.45,1.34c0,.1.05.21.08.31l.06.22a8.2,8.2,0,0,1,.3,1.31,5.5,5.5,0,0,1,0,1.38,2.11,2.11,0,0,0,0,.25l0,.13a3.89,3.89,0,0,1-.08,1.59,7.13,7.13,0,0,1-.67,1.48l-.05.09a4.85,4.85,0,0,1-.88,1.09l-.19.19a7,7,0,0,1-1,.94l-.17.14-.06.08a4,4,0,0,1-1.07,1,4.17,4.17,0,0,1-1.27.48l-.2,0-.24.12a8.9,8.9,0,0,1-1.08.44l-.16.08a4.49,4.49,0,0,1-1.23.48,13.67,13.67,0,0,1-1.49.21l-.47,0c-.3,0-.58,0-.82,0l-.26,0a7.92,7.92,0,0,1-1.53-.26l-.36-.09a7,7,0,0,1-1.34-.4,5.53,5.53,0,0,1-1.08-.66l-.27-.19-.22-.09a5.08,5.08,0,0,1-1.14-.62,4.46,4.46,0,0,1-.87-.9l-.17-.19c-.25-.23-.5-.48-.74-.74l-.26-.26a1.66,1.66,0,0,0-.21-.16,5.93,5.93,0,0,1-.88-.76,4.18,4.18,0,0,1-.7-1.18.36.36,0,0,1,0-.09l-.13-.1a5.24,5.24,0,0,1-.83-.82l-.22-.29c-.2-.27-.41-.53-.6-.8s-.34-.53-.5-.8a2.77,2.77,0,0,0-.2-.34c-.2-.3-.44-.6-.69-.92-.14-.17-.27-.36-.41-.55s-.22-.31-.34-.45l-.3-.33c-.21-.22-.41-.44-.6-.67a5.85,5.85,0,0,1-.57-.89,3.14,3.14,0,0,0-.18-.31l-.23-.3a9.79,9.79,0,0,1-.63-.9l-.38-.69a2,2,0,0,1-.13.25,4.17,4.17,0,0,1-.8,1.1l0,0v0a4.41,4.41,0,0,1-.32,1.42c-.11.23-.2.46-.29.69l-.26.62a6.64,6.64,0,0,1-.5.91,2.33,2.33,0,0,0-.2.34c-.09.22-.18.44-.28.65s-.2.44-.28.66a2.84,2.84,0,0,0-.08.34,5.42,5.42,0,0,1-.27,1.05l-.2.52-.3.81a4.4,4.4,0,0,1-.71,1.22l-.1.12c0,.17-.09.33-.13.49s-.14.53-.22.78-.13.44-.19.67-.13.47-.2.71-.18.53-.28.8-.14.36-.2.55v.23a5,5,0,0,1-.16,1.21c0,.18-.07.36-.11.54s-.1.58-.17.86a4.86,4.86,0,0,0-.1.55c-.05.28-.1.57-.17.85a3.7,3.7,0,0,1-.81,1.49.53.53,0,0,1,0,.13,5.1,5.1,0,0,1-.12,1.15c0,.23-.09.46-.13.69s-.1.51-.16.76-.11.49-.17.74-.11.46-.16.69a5.15,5.15,0,0,0-.07.53c0,.31-.07.63-.13.93a5.58,5.58,0,0,0-.08.57c0,.3-.06.59-.12.89s-.11.51-.16.76-.11.45-.15.67a1.48,1.48,0,0,0,0,.29,5.64,5.64,0,0,1,0,1.19c-.05.3-.1.6-.14.9l-.09.54a3.64,3.64,0,0,1-.76,1.63s0,0,0,0c0,.27-.07.55-.11.82v.12a3.58,3.58,0,0,1,.27,1.73c0,.23-.05.45-.08.67s-.07.51-.1.76a5.38,5.38,0,0,1-.3,1.23,1.59,1.59,0,0,0-.07.2.76.76,0,0,0,0,.21,6.15,6.15,0,0,1,.07,1.22,4.52,4.52,0,0,1-.33,1.31l-.07.18c0,.14,0,.29,0,.43,0,.32,0,.63,0,.95s-.06.63-.11.94-.05.34-.06.51a5.06,5.06,0,0,0,0,.55c0,.31,0,.61,0,.9,0,.06,0,.16.06.25s.06.28.09.45l.23-.39.29-.52c.15-.27.3-.54.46-.81a6.13,6.13,0,0,1,.79-1,1.55,1.55,0,0,0,.21-.23c.17-.26.36-.52.55-.79l.31-.45a2.8,2.8,0,0,0,.15-.3,5.63,5.63,0,0,1,.57-1.06,3,3,0,0,0,.23-.38,6.33,6.33,0,0,1,.57-.93,5.19,5.19,0,0,1,1-.94,1.66,1.66,0,0,0,.21-.16c.17-.22.39-.47.61-.72s.24-.26.35-.4a7.69,7.69,0,0,1,.79-.76,3.06,3.06,0,0,0,.32-.3c.23-.25.48-.48.73-.71l.33-.31.09-.16a4.41,4.41,0,0,1,.83-1.2,4.31,4.31,0,0,1,1.33-.82l.12-.05.23-.25a8,8,0,0,1,.59-.62l0-.09a3.83,3.83,0,0,1,1-1.39,5.45,5.45,0,0,1,1.1-.65,2.24,2.24,0,0,0,.27-.13,1.17,1.17,0,0,1,.14-.17,4.67,4.67,0,0,1,.95-.93,3.71,3.71,0,0,1,1.75-.58h0l.24-.18c.26-.18.53-.37.8-.54s.27-.19.41-.29a8.56,8.56,0,0,1,.85-.59c.12-.07.24-.17.35-.25a7,7,0,0,1,.92-.62A4.29,4.29,0,0,1,240,264a2.1,2.1,0,0,0,.24-.06l.45-.26c.27-.15.54-.31.82-.45s.57-.27.86-.39l.53-.24.53-.26c.28-.15.56-.29.84-.41l.19-.15a4.73,4.73,0,0,1,1.12-.7c.31-.13.64-.24,1-.34.17-.05.34-.1.49-.16a5.54,5.54,0,0,1,1.17-.31,2.8,2.8,0,0,0,.28-.06.91.91,0,0,0,.16-.11,4.36,4.36,0,0,1,1.24-.71c.17-.06.33-.14.49-.21a8.4,8.4,0,0,1,.94-.38,4.38,4.38,0,0,1,1.5-.17,1,1,0,0,0,.17,0l.93-.24.47-.13a2.38,2.38,0,0,0,.29-.13,5.4,5.4,0,0,1,1.15-.45,4.58,4.58,0,0,1,1.48-.07l.17,0c.12,0,.24-.08.36-.12a7.2,7.2,0,0,1,1.05-.3,5.48,5.48,0,0,1,1.22-.07.74.74,0,0,1,.21,0l.08-.05a4,4,0,0,1,1.51-.58,6,6,0,0,1,1.29,0l.17,0c0-.09-.09-.18-.12-.26l-.14-.28c0-.08-.09-.16-.14-.24a5,5,0,0,1-.7-1.44,9.33,9.33,0,0,1-.24-1.72,5.55,5.55,0,0,1,.1-1.39c0-.12,0-.24.05-.37s0-.12,0-.19a4.76,4.76,0,0,1,.05-1.43,7.43,7.43,0,0,1,.34-1.09l.15-.41c.14-.46.31-.93.51-1.42a7.69,7.69,0,0,1,.44-.92l.21-.42a2.11,2.11,0,0,0,.06-.29c.06-.27.12-.54.2-.8a7.22,7.22,0,0,1,.41-.9c0-.08.09-.16.13-.24.09-.37.18-.79.26-1.2.05-.2.08-.4.11-.6s.07-.48.12-.73a7.36,7.36,0,0,1,.25-.92c0-.14.09-.29.12-.43a3,3,0,0,0,.06-.42,8.53,8.53,0,0,1,.19-1,5,5,0,0,1,.47-1.14c0-.1.1-.19.13-.28a1.77,1.77,0,0,0,.08-.31,5.36,5.36,0,0,1,.44-1.27c.05-.09.09-.19.14-.29a5.09,5.09,0,0,1,.73-1.28,4,4,0,0,1,1.35-1l.19-.1s0,0,.06-.09a4.08,4.08,0,0,1,1.4-1.1,4.74,4.74,0,0,1,1.42-.33l.33,0a5.61,5.61,0,0,1,1.28-.11h.39l.19-.05a3.87,3.87,0,0,1,1.71-.12,5.51,5.51,0,0,1,1.67.67l.18.09a5.82,5.82,0,0,1,1.35,1.06l.15.14.21.18.29.25c.08-.13.16-.26.25-.39l.18-.24a7,7,0,0,1,.85-1l.2-.19a6.55,6.55,0,0,1,1.08-.94,3.8,3.8,0,0,1,1.66-.54h.11l.16-.08a4.11,4.11,0,0,1,1.55-.48,8.61,8.61,0,0,1,1.63,0l.19,0a8.76,8.76,0,0,1,1.69.4l.12,0a1.83,1.83,0,0,0,.25.06,4.56,4.56,0,0,1,1.62.58,4.65,4.65,0,0,1,1.22,1.21l.2.25c.12.14.26.31.41.51a0,0,0,0,1,0,0,6.19,6.19,0,0,1,.82-1.09,11.27,11.27,0,0,1,1.35-1.15,9.28,9.28,0,0,1,1.59-.95,4.53,4.53,0,0,1,1.65-.38l.27,0,.37-.09a6.34,6.34,0,0,1,1.27-.21,9.66,9.66,0,0,1,1.76.07l.11,0a7.33,7.33,0,0,1,1.71.37,4.84,4.84,0,0,1,1.43.88l.21.17a5.88,5.88,0,0,1,1.24,1.3l.09.11c.05.07.11.13.17.2a4,4,0,0,1,1.22,2.87c0,.09,0,.19,0,.28s0,.05,0,.1a4.24,4.24,0,0,1,.31,1,11.65,11.65,0,0,1,.65-1.16,9.25,9.25,0,0,1,1.14-1.48,9.4,9.4,0,0,1,1.36-1.2,4.52,4.52,0,0,1,1.51-.64,2.25,2.25,0,0,0,.24-.08,8.6,8.6,0,0,1,1.77-.49,10.94,10.94,0,0,1,1.74-.13,1.37,1.37,0,0,0,.28,0A5.12,5.12,0,0,1,319,229.71ZM308.3,240.52l0-.41c0-.27,0-.54,0-.8a4.7,4.7,0,0,1-.33,1.12,3.83,3.83,0,0,1-.61.93,3.67,3.67,0,0,1,0,.94c0,.22-.06.43-.1.64a1.51,1.51,0,0,0-.06.36,8.92,8.92,0,0,0,.11.91l0,.13a2.72,2.72,0,0,0,.11.38,6.39,6.39,0,0,1,.22.78,2.58,2.58,0,0,1,.07.6c.08-.18.15-.4.24-.67a8,8,0,0,0,.28-1.06c0-.09,0-.32,0-.51a5.81,5.81,0,0,1,0-.59c0-.42,0-.85,0-1.29a6.19,6.19,0,0,1,.08-1.15A1.76,1.76,0,0,0,308.3,240.52Zm-56,4a2,2,0,0,0,0-.38,4,4,0,0,0-.15-.6l-.08-.25c-.05-.19-.09-.38-.14-.56a2.64,2.64,0,0,0-.07-.3,3.66,3.66,0,0,0-.39-.62,3.71,3.71,0,0,0-.41-.32l-.27-.2a9.52,9.52,0,0,0-.84-.54,2.26,2.26,0,0,0-.33-.13,7.28,7.28,0,0,1-.77-.31,4.23,4.23,0,0,1-1-.76l-.15-.13-.18-.09a7.5,7.5,0,0,1-1.15-.72l-.19-.14a4.12,4.12,0,0,1-1.27-1.21,4.06,4.06,0,0,1-.49-1.11c0-.07-.05-.15-.08-.22s-.17-.28-.27-.44-.28-.44-.41-.67-.26-.5-.38-.76a3.73,3.73,0,0,0-.2-.4l-.17-.18a5.28,5.28,0,0,1-.64-.79c-.15-.23-.28-.48-.41-.73a3,3,0,0,0-.16-.31l-.28-.25-.5-.47a6.79,6.79,0,0,1-.47-.57l-.1-.13-.15-.06a4.64,4.64,0,0,1-.72-.32c-.1-.05-.3-.12-.5-.19l-.37-.13a4.27,4.27,0,0,1-.92-.48l0,0h-.81a5.57,5.57,0,0,0-.89,0l-.27.1c-.18.07-.36.14-.54.19a4.19,4.19,0,0,1-1,.16l-.1.09-.46.4a3.69,3.69,0,0,0-.27.31l-.3.35c-.06.08-.11.18-.17.28s-.19.34-.3.51a2,2,0,0,1-.35.41,2.13,2.13,0,0,1-.1.42l-.14.37a2.89,2.89,0,0,0-.16.47l0,.27a2.32,2.32,0,0,0,.08,1.45,2.41,2.41,0,0,0,.19.47c.06.13.12.26.17.39a8.44,8.44,0,0,0,.47.89,3.47,3.47,0,0,0,.31.44l.34.45a6.25,6.25,0,0,1,.43.7,2.29,2.29,0,0,0,.18.31l.34.38a6.37,6.37,0,0,1,.5.55c.18.22.35.45.51.67l.29.39c.32.39.61.78.87,1.16.14.21.27.43.4.66s.16.28.25.41l.52.69.23.3.14.11a5.11,5.11,0,0,1,.77.74,4.35,4.35,0,0,1,.61,1.06l0,.07.14.1a5.59,5.59,0,0,1,.74.61l.3.31a6.38,6.38,0,0,0,.52.52,6.38,6.38,0,0,1,.65.71l.11.15.19.07a6.59,6.59,0,0,1,.8.39l.59.41a2.22,2.22,0,0,0,.27.19,4.39,4.39,0,0,0,.54.14l.36.08a5.27,5.27,0,0,0,.83.17l.34,0a3.51,3.51,0,0,0,.63,0,8.15,8.15,0,0,0,.91-.12l.14-.08a5,5,0,0,1,.87-.38,3.5,3.5,0,0,0,.56-.24l.35-.16a4.47,4.47,0,0,1,.9-.28h0a5.2,5.2,0,0,1,.67-.7l.21-.17a3.92,3.92,0,0,0,.44-.39,5.93,5.93,0,0,1,.43-.44c.06-.07.13-.13.18-.2l0,0c.08-.15.17-.31.23-.44h0a4.6,4.6,0,0,1,0-1C252.26,244.83,252.28,244.69,252.29,244.54Zm-22-20.26c-.05-.23-.1-.46-.16-.68l-.07-.12a4.28,4.28,0,0,1-.46-.87,5.34,5.34,0,0,1-.22-1,5.58,5.58,0,0,1-.54-.55c-.07-.06-.16-.11-.24-.17l-.38-.28c-.15-.12-.3-.24-.44-.37a2.09,2.09,0,0,0-.22-.2l-.31-.16a4.34,4.34,0,0,0-.57-.29,1.89,1.89,0,0,0-.36-.1c-.25-.07-.5-.14-.75-.23a3.88,3.88,0,0,1-1-.58l-.09-.06h-.12a4.9,4.9,0,0,1-1.15-.3,8.88,8.88,0,0,1-.87-.44,3.9,3.9,0,0,0-.35-.19,2.52,2.52,0,0,0-.29-.12,6.08,6.08,0,0,1-1-.44,4.11,4.11,0,0,1-1-.78l-.15-.15-.28-.17a6.49,6.49,0,0,1-.86-.58,6.68,6.68,0,0,1-.57-.49,3.85,3.85,0,0,0-.3-.27,4.67,4.67,0,0,0-.49-.27l-.5-.28a5.67,5.67,0,0,0-.65-.33l-.33-.16a3.45,3.45,0,0,0-.42-.14l-.59-.19a3.72,3.72,0,0,0-.47-.11l-.53-.11a6.67,6.67,0,0,1-.79-.27,2.18,2.18,0,0,0-.23-.09c-.12,0-.39,0-.68,0h-.2l-.22.06c-.22.07-.45.13-.68.18a5.43,5.43,0,0,1-1,.06h0l-.21.14c-.16.1-.32.2-.49.29l-.18.17c-.17.16-.34.31-.52.45a6,6,0,0,0-.7.62,4.64,4.64,0,0,1-.82.64l-.06,0c-.06.1-.12.22-.19.35s-.12.24-.19.36,0,.12,0,.19a6,6,0,0,1-.24.83l-.14.32a3.16,3.16,0,0,0-.16.45c-.05.2-.1.4-.17.6s-.06.2-.08.3a5.3,5.3,0,0,1-.12.75s0,.05,0,.08a3.89,3.89,0,0,1,.33,1,5.1,5.1,0,0,0,.2.89c.05.17.09.33.13.5a3.37,3.37,0,0,0,.09.34,2.91,2.91,0,0,0,.24.32l.24.33a5.5,5.5,0,0,1,.36.57l.06.1a.51.51,0,0,1,.12.05l.51.25.25.15.39.21s.06,0,.15,0,.43,0,.65,0a4.83,4.83,0,0,1,.81.16l.14,0c.28,0,.59-.08.94-.14a2.13,2.13,0,0,0,.33-.11,6,6,0,0,1,.91-.28,5.38,5.38,0,0,1,1.24-.11h.33l.12-.05a4.16,4.16,0,0,1,1.68-.21,7.84,7.84,0,0,1,1.82.41,4.52,4.52,0,0,1,1,.53l.21.13a3.83,3.83,0,0,1,1.09.76l.07.06.18.06a5.51,5.51,0,0,1,1,.42l.18.06a4.93,4.93,0,0,1,1,.46l.72.46.72.47c.18.12.34.23.48.31a4,4,0,0,1,.79.58l.07.05a4.59,4.59,0,0,0,.67.21,2.11,2.11,0,0,0,.35,0h.31l.11-.05a7.07,7.07,0,0,1,.74-.24,3.34,3.34,0,0,0,.65-.27,4.64,4.64,0,0,1,.85-.3l0,0,.31-.26a4.54,4.54,0,0,1,.38-.95,3.54,3.54,0,0,1,.65-.8,5.66,5.66,0,0,1,.07-.72,6.22,6.22,0,0,1,.19-.71A.43.43,0,0,0,230.31,224.28Zm-10.42,77.2a8.72,8.72,0,0,0,0-1.13h0a2.24,2.24,0,0,1-.35-.71,2.77,2.77,0,0,0-.23-.46l-.18-.34-.09-.17a3.73,3.73,0,0,0-.32-.57,3.33,3.33,0,0,0-.61-.54,3.61,3.61,0,0,0-.62-.26l-.16-.05a3.58,3.58,0,0,0-.84-.23h-.1a2.16,2.16,0,0,1-.83.21,5.17,5.17,0,0,1-1,.8,7.87,7.87,0,0,1-1.28.6l-.23.09-.31.13a7.22,7.22,0,0,1-.85.33h0a4.78,4.78,0,0,1-.19.93,4.6,4.6,0,0,1-.31.72l-.07.15a5.9,5.9,0,0,0-.11.83,2,2,0,0,0,0,.29,5.65,5.65,0,0,1,.11.7,6.78,6.78,0,0,0,.11.89c.06.19.1.38.15.57a1.59,1.59,0,0,0,.08.33,4,4,0,0,0,.42.48l.09.1a3.18,3.18,0,0,0,.62.51l.16.1a4.64,4.64,0,0,0,.56.34l.27,0a6.2,6.2,0,0,1,.62.06,5.21,5.21,0,0,0,.91,0,5.43,5.43,0,0,0,.92-.15,6.16,6.16,0,0,0,.93-.26,6.28,6.28,0,0,0,.82-.44c.22-.13.4-.22.58-.31a2.39,2.39,0,0,0,.22-.12,5,5,0,0,0,.4-.63,3.78,3.78,0,0,0,.16-.48l.12-.36a6.94,6.94,0,0,0,.24-1c0-.21.08-.42.13-.63A3.6,3.6,0,0,0,219.89,301.48Zm-3.8-40.94a2.36,2.36,0,0,0,.12-.28c0-.05,0-.18,0-.3a5.88,5.88,0,0,1,0-.73c0-.39,0-.77,0-1.11a1.93,1.93,0,0,1,0-.24,2,2,0,0,1-.16-.36l-.08-.1a5.71,5.71,0,0,1-.47-.74c-.1-.21-.19-.43-.27-.65a1,1,0,0,0-.06-.16,3.38,3.38,0,0,0-.4-.42l-.18-.06a5.36,5.36,0,0,1-.6-.24,5,5,0,0,0-.72-.29c-.2-.05-.41-.11-.61-.18a2.5,2.5,0,0,0-.26-.07l-.46.07-.34.06a6,6,0,0,0-.88.22l-.34.1a3.19,3.19,0,0,0-.4.12l-.13.13c-.15.16-.31.31-.47.45a3.5,3.5,0,0,0-.53.55,4.33,4.33,0,0,0-.42.69,5.31,5.31,0,0,0-.37.77,4.92,4.92,0,0,0-.15.67l0,.21a5.28,5.28,0,0,1-.24.81l-.06.16a6,6,0,0,0,0,.68l0,.25a3.63,3.63,0,0,0,.14.49l.12.39a3.51,3.51,0,0,0,.29.78c.08.14.15.28.22.43a2.06,2.06,0,0,0,.17.33,3.79,3.79,0,0,0,.6.5,4,4,0,0,0,.76.4,4.32,4.32,0,0,0,.86.25l.28,0,.66-.06H212a4.24,4.24,0,0,0,.57,0l.42-.18.48-.2.26-.11a5.45,5.45,0,0,0,.65-.28,3.67,3.67,0,0,0,.44-.41l.32-.33a2.87,2.87,0,0,0,.36-.39,3.64,3.64,0,0,0,.14-.43c0-.14.08-.28.13-.41A4.65,4.65,0,0,1,216.09,260.54ZM214,291.64c0-.09.08-.18.11-.27s0-.17,0-.3a5.86,5.86,0,0,1,0-.73,10.42,10.42,0,0,0,0-1.12V289c-.05-.09-.09-.19-.13-.28a2.18,2.18,0,0,1-.58-.92h0a6.11,6.11,0,0,1-.26-.64L213,287a4.18,4.18,0,0,0-.41-.42l-.17-.06a6.44,6.44,0,0,1-.61-.24,5,5,0,0,0-.71-.29c-.21-.05-.41-.11-.62-.18a2,2,0,0,0-.26-.07l-.45.07-.35,0a7.54,7.54,0,0,0-.88.22l-.34.11a2.6,2.6,0,0,0-.39.12,1.59,1.59,0,0,0-.13.13c-.16.16-.31.31-.48.45a3.5,3.5,0,0,0-.53.55,5.66,5.66,0,0,0-.42.69,6.44,6.44,0,0,0-.37.77,6.73,6.73,0,0,0-.15.68l0,.19a5.39,5.39,0,0,1-.23.81l-.06.17a6.12,6.12,0,0,0,0,.69l0,.24a3.32,3.32,0,0,0,.13.49c0,.13.09.26.12.39a4.4,4.4,0,0,0,.29.78c.08.14.15.28.22.42a2.71,2.71,0,0,0,.18.34,3.38,3.38,0,0,0,.6.5,3.69,3.69,0,0,0,.75.4,6.41,6.41,0,0,0,.87.25l.28,0c.22,0,.43-.05.65-.06h.38a4.24,4.24,0,0,0,.57,0,3.08,3.08,0,0,0,.42-.18l.49-.21.26-.1a6.27,6.27,0,0,0,.65-.28,3.06,3.06,0,0,0,.43-.41l.33-.33a3.41,3.41,0,0,0,.35-.38,4.34,4.34,0,0,0,.15-.44l.12-.42C213.77,292.11,213.87,291.88,214,291.64Zm-7.46,12c0-.06,0-.18,0-.3s0-.48,0-.72a10.39,10.39,0,0,0,0-1.12,1.93,1.93,0,0,1,0-.24,2.21,2.21,0,0,1-.16-.35l-.08-.11a5.71,5.71,0,0,1-.47-.74c-.1-.21-.19-.43-.27-.65l-.06-.16a3.38,3.38,0,0,0-.4-.42l-.18-.06a6.25,6.25,0,0,1-.6-.24,5,5,0,0,0-.72-.29c-.2-.05-.41-.11-.61-.18a2.5,2.5,0,0,0-.26-.07l-.46.07-.35.06a5.83,5.83,0,0,0-.87.22l-.35.1-.39.12-.13.13c-.15.16-.31.31-.47.45a3.64,3.64,0,0,0-.54.56,4.85,4.85,0,0,0-.41.68,4.71,4.71,0,0,0-.37.77,6.38,6.38,0,0,0-.16.68l0,.19a5.41,5.41,0,0,1-.24.81l-.06.17a6.21,6.21,0,0,0,0,.69l0,.24a3.63,3.63,0,0,0,.14.49l.12.39a3.86,3.86,0,0,0,.29.79l.22.41a1.8,1.8,0,0,0,.17.34,3.79,3.79,0,0,0,.6.5,4,4,0,0,0,.76.4,4.32,4.32,0,0,0,.86.25l.28,0,.65-.06h.39a4.24,4.24,0,0,0,.57,0c.07,0,.27-.11.42-.18l.48-.2.26-.11a6.27,6.27,0,0,0,.65-.28,3.67,3.67,0,0,0,.44-.41l.32-.33c.13-.13.31-.31.36-.38A4.22,4.22,0,0,0,206,305c0-.13.08-.27.13-.4a4.65,4.65,0,0,1,.28-.7A2.36,2.36,0,0,0,206.52,303.65Zm-22.83-33.51a2.36,2.36,0,0,0,.12-.28c0-.06,0-.18,0-.31s0-.48,0-.71a10.51,10.51,0,0,0,0-1.13,1.76,1.76,0,0,1,0-.23,2.37,2.37,0,0,1-.17-.36l-.07-.1a4.47,4.47,0,0,1-.48-.75,6.11,6.11,0,0,1-.26-.64l-.06-.16a4.18,4.18,0,0,0-.41-.42l-.18-.06a6.25,6.25,0,0,1-.6-.24,4,4,0,0,0-.71-.29c-.21,0-.41-.11-.62-.18l-.26-.08-.46.08-.34.05a6,6,0,0,0-.88.22l-.34.11-.4.12-.13.13c-.15.16-.31.31-.47.45a3.5,3.5,0,0,0-.53.55,4.67,4.67,0,0,0-.42.68,6.39,6.39,0,0,0-.37.78,4.6,4.6,0,0,0-.15.67l0,.21a5.63,5.63,0,0,1-.24.81.75.75,0,0,0-.05.16,5.67,5.67,0,0,0,0,.67l0,.26a2.4,2.4,0,0,0,.13.49l.12.39a4.4,4.4,0,0,0,.29.78c.08.14.15.28.22.42a2.71,2.71,0,0,0,.18.34,3.38,3.38,0,0,0,.6.5,4.26,4.26,0,0,0,.75.4,6.41,6.41,0,0,0,.87.25l.28,0c.21,0,.43-.05.65-.06h.38a4,4,0,0,0,.57,0,2.64,2.64,0,0,0,.43-.17l.47-.21.27-.1a4,4,0,0,0,.64-.29,3.44,3.44,0,0,0,.44-.4l.32-.33a2.33,2.33,0,0,0,.36-.39,3.08,3.08,0,0,0,.15-.44l.12-.4C183.49,270.6,183.59,270.37,183.69,270.14ZM177.24,297a2.36,2.36,0,0,0,.12-.28c0-.06,0-.18,0-.31s0-.47,0-.71a10.32,10.32,0,0,0,0-1.12,1.92,1.92,0,0,1,0-.24,2,2,0,0,1-.17-.36.86.86,0,0,1-.07-.1,4.47,4.47,0,0,1-.48-.75,6.11,6.11,0,0,1-.26-.64l-.06-.16a4.18,4.18,0,0,0-.41-.42l-.17-.06a5.53,5.53,0,0,1-.61-.24,5,5,0,0,0-.71-.29c-.21,0-.41-.11-.62-.18a2,2,0,0,0-.26-.07l-.45.07-.35,0a7.54,7.54,0,0,0-.88.22l-.34.11a2.6,2.6,0,0,0-.39.12l-.14.13a5,5,0,0,1-.47.45,3.5,3.5,0,0,0-.53.55,5.66,5.66,0,0,0-.42.69,6.44,6.44,0,0,0-.37.77,4.77,4.77,0,0,0-.15.68l0,.19a5.39,5.39,0,0,1-.23.81,1.15,1.15,0,0,0-.06.17,5.67,5.67,0,0,0,0,.67l0,.26a3.32,3.32,0,0,0,.13.49c0,.13.09.26.12.39a4.11,4.11,0,0,0,.29.78c.08.14.15.28.22.43a3.47,3.47,0,0,0,.18.33,3.38,3.38,0,0,0,.6.5,4,4,0,0,0,.75.4,5.23,5.23,0,0,0,.87.25l.28,0c.21,0,.43-.05.65-.06h.38a4.24,4.24,0,0,0,.57,0,3.72,3.72,0,0,0,.42-.18l.48-.21.27-.1a5.21,5.21,0,0,0,.64-.28,2.6,2.6,0,0,0,.44-.41l.32-.33a2.85,2.85,0,0,0,.36-.38,3.61,3.61,0,0,0,.15-.44l.12-.42C177,297.48,177.14,297.25,177.24,297Zm-9-9.73a2.33,2.33,0,0,0,.11-.28c0-.05,0-.18,0-.3s0-.48,0-.72a10.39,10.39,0,0,0,0-1.12,1.93,1.93,0,0,1,0-.24,1.58,1.58,0,0,1-.16-.35l-.08-.1a4.51,4.51,0,0,1-.47-.75,5.82,5.82,0,0,1-.27-.64l-.06-.16a2.74,2.74,0,0,0-.41-.42l-.17-.07a6.37,6.37,0,0,1-.61-.23,4,4,0,0,0-.71-.3c-.2,0-.41-.11-.62-.17l-.26-.08-.45.07-.35.06a6.29,6.29,0,0,0-.88.22l-.34.1-.39.12a.86.86,0,0,0-.13.14c-.16.15-.31.31-.47.44a3.63,3.63,0,0,0-.54.56,4.49,4.49,0,0,0-.42.68,5.49,5.49,0,0,0-.36.77,4.94,4.94,0,0,0-.16.68l0,.2a6.15,6.15,0,0,1-.23.81l-.06.16c0,.19,0,.43,0,.68l0,.26a3.26,3.26,0,0,0,.13.48,3.43,3.43,0,0,1,.12.39,4.58,4.58,0,0,0,.29.79c.08.13.15.28.22.42a3.47,3.47,0,0,0,.18.33,3.32,3.32,0,0,0,.6.5,3.51,3.51,0,0,0,.76.4,4.32,4.32,0,0,0,.86.25l.28,0a4.76,4.76,0,0,1,.65-.06l.39,0a2.87,2.87,0,0,0,.56,0,3.73,3.73,0,0,0,.43-.18l.47-.2.27-.1a6.09,6.09,0,0,0,.65-.29,3,3,0,0,0,.44-.41l.31-.32a3.93,3.93,0,0,0,.37-.39c0-.06.09-.28.14-.44L168,288A6.91,6.91,0,0,1,168.26,287.29Z" style="fill: #1d1d1b"/>
  </g>
</svg>
