<svg xmlns="http://www.w3.org/2000/svg" viewBox="0 0 500 500">
  <title>twig-left</title>
  <g>
    <path d="M174.65,218a3.94,3.94,0,0,1,.93-1.25,5.06,5.06,0,0,1,1.23-.93l.21-.1a4,4,0,0,1,1.17-.48,4.68,4.68,0,0,1,1.67,0l.49.09a5.77,5.77,0,0,1,1.16.28,2,2,0,0,1,.36.19l.44.34.09.07a5,5,0,0,0,.44.33l.28.18a2.1,2.1,0,0,1,.54.61,1.86,1.86,0,0,1,.21.3,4.87,4.87,0,0,1,.73,1.7,4.47,4.47,0,0,1,.07,1.19,2.93,2.93,0,0,1,0,.29,2,2,0,0,1,.34.12,2.05,2.05,0,0,1,.66-.22,2,2,0,0,1,1.79.71c.15.18.29.35.47.53a4.71,4.71,0,0,1,.49.55l.27.38.11.16.06.09c.16.26.35.52.53.77a4.09,4.09,0,0,1,.33.54l.07.13a5.36,5.36,0,0,0,.47.75c.3.39.61.77.91,1.14l.11.14c.2.24.41.46.63.69l.48.53c.17.2.35.39.53.57l.14.14c.16.16.31.32.44.47s.26.28.38.42l.15.17a6.29,6.29,0,0,0,.59.66,4.27,4.27,0,0,0,1,.69l.25.14.4.24.12.09a3.77,3.77,0,0,0,.9.5,3.54,3.54,0,0,0,.83.16,4.53,4.53,0,0,1,.76.1c.32.07.66.12,1,.18l.46.08a4.07,4.07,0,0,1,.82.21,5.45,5.45,0,0,0,.79.22,3.22,3.22,0,0,0,.76,0h.49a2,2,0,0,1,.34,0,3,3,0,0,1,.81.27,6.23,6.23,0,0,0,.73.24c.5.12,1,.25,1.53.4l.4.1.51.12a1.39,1.39,0,0,1,.52.21,13.88,13.88,0,0,1,2.16.64,15.68,15.68,0,0,1,2,.91c.67.35,1.32.7,2,1.09l.19.1c.58.35,1.17.7,1.72,1l.23.12c.59.33,1.17.64,1.79.92a17.4,17.4,0,0,0,4.3,1.3,18.59,18.59,0,0,0,2.16.16h.76a13.23,13.23,0,0,0,1.46-.07c.45,0,.9-.13,1.41-.23l.73-.14,2.13-.31c.65-.09,1.29-.12,2.07-.16a2,2,0,0,1-1.6-1c-.11-.19-.22-.38-.33-.55l-.07-.1-.22-.39a3.89,3.89,0,0,0-.3-.5,6.44,6.44,0,0,0-.47-.53,1.59,1.59,0,0,0-.13-.13l-.14-.16c-.22-.27-.45-.53-.74-.85l-.24-.29c-.14-.16-.27-.32-.39-.44a3.63,3.63,0,0,0-.5-.39,3.59,3.59,0,0,1-.33-.25l-.11-.1-.26-.25-.13-.13-.32-.29a3.76,3.76,0,0,1-.29-.28l-.1-.11c-.11-.11-.21-.22-.39-.38l-.32-.27c-.16-.13-.32-.27-.44-.39l-.26-.23c-.16-.14-.32-.28-.47-.43l-.15-.14a2.16,2.16,0,0,1-.29-.37l-.09-.15a3.73,3.73,0,0,0-.31-.52c-.23-.34-.48-.7-.72-1.11l-.23-.36c-.16-.26-.32-.52-.47-.78a3.36,3.36,0,0,0-.4-.5,3.34,3.34,0,0,1-.35-.4l-.14-.22-.2-.34-.12-.19c-.12-.19-.24-.38-.38-.63-.05-.1-.1-.19-.14-.28l-.06-.12-.07-.13a2.91,2.91,0,0,0-.28-.56l-.07-.12a2.55,2.55,0,0,1-.23-.54,2.76,2.76,0,0,0-.33-.67l-.19-.31c-.18-.27-.35-.53-.53-.76a2.44,2.44,0,0,0-.55-.51,4,4,0,0,1-.46-.38,8.18,8.18,0,0,1-.85-1,1.77,1.77,0,0,1-.27-.53,2.33,2.33,0,0,1-.08-.31,3,3,0,0,0-.23-.62,2.25,2.25,0,0,0-.37-.49l-.05-.07a1.94,1.94,0,0,1-.54-1.13l0-.29a4.65,4.65,0,0,0-.08-.56c-.05-.19-.11-.38-.18-.58l0-.1-.08-.24a1.94,1.94,0,0,1,0-1.26s0,0,0-.06h0a5.06,5.06,0,0,0,.1-.58,3.81,3.81,0,0,0,0-.64,3.52,3.52,0,0,1,0-.45,2.42,2.42,0,0,1,0-.47,8.49,8.49,0,0,1,.42-1.22c0-.13.09-.26.14-.41l0-.1.13-.35a2,2,0,0,1,.74-.92l.11-.07a3.47,3.47,0,0,0,.5-.38,6.73,6.73,0,0,1,1-.91l.3-.24.08-.06.1-.08a3.74,3.74,0,0,1,.69-.46l.43-.25a5.36,5.36,0,0,1,.79-.41l.23-.07a4.85,4.85,0,0,1,.55-.09,3.66,3.66,0,0,0,.67-.12,2.75,2.75,0,0,0,.5-.2l.2-.09.23-.1a2.18,2.18,0,0,1,1.07-.09.63.63,0,0,1,.19,0,2.41,2.41,0,0,0,.54.05,3.67,3.67,0,0,0,.52-.08l.1,0,.16,0a2,2,0,0,1,.94,0,3.19,3.19,0,0,1,.5.21l.1,0,.34.13.09,0a3.09,3.09,0,0,0,.53.09l.11,0a2.44,2.44,0,0,1,.55.12l.25.1a9.78,9.78,0,0,1,1.12.61,3.47,3.47,0,0,1,.64.53c.16.15.32.31.45.41a4.94,4.94,0,0,1,.55.52l.08.09a4.52,4.52,0,0,0,.38.38,3.75,3.75,0,0,0,.48.36l.09.07a2.94,2.94,0,0,1,.41.31l.14.13a5.29,5.29,0,0,0,.41.4l.08.07a6.31,6.31,0,0,1,.51.52l.6.76.23.3a2.2,2.2,0,0,1,.17.25,4.68,4.68,0,0,1,.21.44,3,3,0,0,0,.3.57,3.46,3.46,0,0,0,.5.55,3.19,3.19,0,0,1,.4.43,1,1,0,0,1,.08.11c.14.22.29.47.43.71s.15.26.24.39l.09.15a3.17,3.17,0,0,1,.27.66,3.37,3.37,0,0,0,.24.54,2.22,2.22,0,0,0,.43.51l.13.13.19.21a2.8,2.8,0,0,1,.27.4l.16.34.17.36.21.42a3.28,3.28,0,0,1,.25.58l0,.12a3.17,3.17,0,0,0,.25.63c.1.19.22.37.38.62l.09.15c.08.14.17.27.25.44l.3.51a.67.67,0,0,1,.07.11l.1.18a4,4,0,0,1,.23.39,5.28,5.28,0,0,0,.39.6l.08.11c.1.14.19.28.29.45s.3.48.46.71l.27.4a2.39,2.39,0,0,1,.13.21,3.78,3.78,0,0,1,.2.52,2.18,2.18,0,0,0,.26.56,1.45,1.45,0,0,1,.17.26c.21.21.4.46.63.74s.25.32.39.47l.14.18c.07.11.25.38.37.61a4.92,4.92,0,0,0,.42.63c.15.2.31.37.44.52s.41.45.61.7a5.47,5.47,0,0,0,.45.51l.18.2a6.28,6.28,0,0,1,.47.54,7.23,7.23,0,0,0,.63.68c.17.17.33.34.47.51a2.46,2.46,0,0,1,.22.34c.05.11.11.25.18.44a3,3,0,0,0,.41.74q.5.65,1,1.26a8.42,8.42,0,0,0,.67.69l.09.1c.15.14.3.29.38.38s.31.36.49.58a7,7,0,0,0,.62.72,3.58,3.58,0,0,0,.59.47l.18.13a5,5,0,0,1,.47.36,5.21,5.21,0,0,1,.47.47l.1.11a4.9,4.9,0,0,0,.64.65,7.4,7.4,0,0,0,.74.52c.23.14.46.28.66.43a4.69,4.69,0,0,1,.53.47,5.79,5.79,0,0,0,.68.55,4.13,4.13,0,0,0,.73.36l.12.05a4.62,4.62,0,0,1,.6.33l.5.34.46.31.3.21a4.36,4.36,0,0,1,.62.49c.22.17.42.36.65.51a5.15,5.15,0,0,0,.62.32l.16.08a3.13,3.13,0,0,1,.7.38l.08.06a3.73,3.73,0,0,1,.45.45,2.86,2.86,0,0,0,.59.56l1.33.89a4.54,4.54,0,0,0,.62.34l.11.05.11,0a6,6,0,0,1,.58.32,3.38,3.38,0,0,0,.74.34,5.87,5.87,0,0,1,.56.25l.11.07a3.94,3.94,0,0,1,.69.57l.11.09a3.93,3.93,0,0,0,.52.43,5.09,5.09,0,0,1,.59.55,3.62,3.62,0,0,0,.6.52l.23.18c.35.25.69.49,1,.72l.64.48c.22.17.44.33.61.48a3.28,3.28,0,0,0,.78.44,5.59,5.59,0,0,1,.67.37c.34.24.69.44,1.05.66l.32.19a6.55,6.55,0,0,1,.55.38,8.31,8.31,0,0,0,.85.53,3.85,3.85,0,0,1,.59.4,4.58,4.58,0,0,0,.76.47l.38.17c.38.17.77.33,1.12.46a3.49,3.49,0,0,0,.84.15l.57.06.25.06c.35.11.72.18,1.1.27l.45.1.21.05.44.19.13.07a2.93,2.93,0,0,0,.8.29,2.34,2.34,0,0,0,.84-.06,3,3,0,0,1,.89-.07,4.18,4.18,0,0,1,.57.14l.1,0a4.27,4.27,0,0,0,.85.17,4.08,4.08,0,0,0,.93-.06,5.66,5.66,0,0,1,.6,0h.12a2.76,2.76,0,0,1,.71.12l.14,0a2.45,2.45,0,0,0,.79.13,3.18,3.18,0,0,0,.83-.18l.12,0a2.59,2.59,0,0,1,.62-.13c.46-.05.91-.07,1.29-.08l.33,0,.53-.05.67-.09a2.1,2.1,0,0,1,.9.14,3.7,3.7,0,0,1,.35.17,2.51,2.51,0,0,0,.73.26l.25.06c.45.09.83.18,1.26.3l.6.15a5.59,5.59,0,0,1,.94.24c.2.07.41.13.72.21l.13,0c.24.07.48.14.73.24l.13.06a4.2,4.2,0,0,1,.44.26l.13.09a3.84,3.84,0,0,0,.68.41,3.7,3.7,0,0,0,.68.21,3,3,0,0,1,.92.34,1.94,1.94,0,0,1,.55.48l0,0a2.6,2.6,0,0,0,.55.48,2.87,2.87,0,0,0,.67.28l.47.16a2,2,0,0,1,.82.62h0l.13.14a4,4,0,0,0,.52.49,3.17,3.17,0,0,0,.52.27,2,2,0,0,1,1.19,1.85,2.07,2.07,0,0,1-.35,1.09l.73.48h0l.42-.08a2.41,2.41,0,0,1,.38,0,8.76,8.76,0,0,1,1.27.2,3.25,3.25,0,0,1,.77.28l.16.07.34.14a8.59,8.59,0,0,1,1.33.59l.17.08.28.13a4.82,4.82,0,0,1,.7.38,6,6,0,0,1,.67.53l.38.32a5.37,5.37,0,0,0,.45.35,6.8,6.8,0,0,1,.62.51,2,2,0,0,1,.45.69,3.6,3.6,0,0,0,.3.48c.27.33.53.68.81,1.09a3.41,3.41,0,0,0,.41.43,1.49,1.49,0,0,1,.28.23,2.05,2.05,0,0,1,.58,1.13,2.22,2.22,0,0,0,.2.56,2.91,2.91,0,0,0,.28.47l.11.16c.09.16.2.33.29.53a5.26,5.26,0,0,1,.28.81c.06.16.11.32.19.52.15.42.3.83.43,1.27a4,4,0,0,0,.21.58l0,.11a4.34,4.34,0,0,1,.21.62,4.44,4.44,0,0,1,.08.65v.15a3.1,3.1,0,0,0,.05.58c0,.2.08.39.15.67a3.75,3.75,0,0,1,.14.67,4.73,4.73,0,0,1,0,.9c0,.16,0,.33,0,.45v.47a6.71,6.71,0,0,1,0,.93,4.14,4.14,0,0,1-.25.91c-.06.17-.12.35-.16.51l-.09.33a.36.36,0,0,1,0,.11l-.05.21a6.78,6.78,0,0,1-.22.72c-.06.14-.1.29-.15.43a.5.5,0,0,1,0,.13l0,.13a5.21,5.21,0,0,1-.2.54l-.09.16a5.5,5.5,0,0,1-.51.65l-.33.4a6.37,6.37,0,0,1-.74.8l-.21.2c-.12.12-.23.26-.35.4l-.1.12-.1.12a2.16,2.16,0,0,1-.89.6l-.26.07-.16,0-.43.13-.14.06-.06,0a5.27,5.27,0,0,1-1.2.37,7.11,7.11,0,0,1-1.2.1H317a5.73,5.73,0,0,1-1.16-.1,7.48,7.48,0,0,1-.76-.25l-.49-.18a7.39,7.39,0,0,1-1.27-.55,8.69,8.69,0,0,1-1.2-.73,11.22,11.22,0,0,1-1.07-.89l-.23-.2-.39-.39-.16-.16a.69.69,0,0,1-.11-.13c-.15-.17-.29-.34-.51-.56a1.9,1.9,0,0,1-.33-.3,2.08,2.08,0,0,1-.27-.32l-.26-.31-.07-.1c-.17-.22-.35-.46-.53-.73a5,5,0,0,1-.37-.7l0-.09a4.66,4.66,0,0,0-.22-.45l-.19-.31-.1-.16a8.45,8.45,0,0,1-.46-.8,5,5,0,0,1-.24-.6l0-.13a5,5,0,0,0-.2-.54l-.07-.18a4,4,0,0,1-.51-.25l-.94-.58a1.74,1.74,0,0,1-.38.33,2,2,0,0,1-2.32-.14c-.23-.18-.45-.36-.68-.56a10.11,10.11,0,0,0-1.08-.85,16.18,16.18,0,0,0-1.39-.86l-.67-.39a23.28,23.28,0,0,0-2.13-1.14,6.73,6.73,0,0,0-1.45-.41c-.3-.07-.59-.13-.86-.21a13.69,13.69,0,0,0-2.34-.46,7.81,7.81,0,0,1-1.07-.22l-.13,0a6.28,6.28,0,0,0-1.14-.24c-.38,0-.76-.08-1.18-.14s-.83-.12-1.19-.16-.85,0-1.21,0a9.64,9.64,0,0,1-1.22,0l-1.12,0-1.29-.06c-.43,0-.85-.1-1.27-.17l-1.07-.16a5.87,5.87,0,0,1-1.15-.29l-.21-.07a8.22,8.22,0,0,0-1-.29c-.16,0-.33-.06-.49-.09l-.31-.05a15.2,15.2,0,0,1-1.58-.34,9.78,9.78,0,0,1-1.27-.53,8.42,8.42,0,0,0-.87-.4,5.79,5.79,0,0,0-1.09-.27,5,5,0,0,1-1.27-.38,4.71,4.71,0,0,0-.45-.22l-.31-.15a13.1,13.1,0,0,1-1.38-.72,5,5,0,0,1-.85-.72l-.19-.18a5.8,5.8,0,0,0-.89-.79,5.74,5.74,0,0,0-1.2-.56l-.15-.06a4.51,4.51,0,0,1-1-.49,13.07,13.07,0,0,1-1.09-.9c-.3-.27-.59-.53-.89-.76s-.75-.5-1.05-.68a10.32,10.32,0,0,1-1.12-.74,4.84,4.84,0,0,1-.91-1,5.46,5.46,0,0,0-.83-1c-.32-.26-.67-.49-1.07-.76a10.5,10.5,0,0,1-1-.73,10.22,10.22,0,0,0-.84-.63l-.14-.11a12.66,12.66,0,0,1-1.07-.79l-1-.88c-.3-.28-.61-.54-1-.84a6.22,6.22,0,0,1-.7-.75l-.14-.17a7.18,7.18,0,0,0-.88-.95,7.63,7.63,0,0,0-1.1-.7l-.1-.05a5.05,5.05,0,0,1-1-.62,6.31,6.31,0,0,1-.78-.77l-.16-.17a7.27,7.27,0,0,0-.92-.92c-.3-.25-.59-.51-.9-.81s-.66-.61-1-.9a13.33,13.33,0,0,0-1.11-.74l-.19-.12-.87-.56a1.93,1.93,0,0,1-.87-.43,3.08,3.08,0,0,0-.52-.34,13.86,13.86,0,0,0-1.46-.67,6.09,6.09,0,0,0-.82-.23l-.1,0a5,5,0,0,1-.59-.14,6,6,0,0,0-.85-.15l-.08,0-.65-.09-.47-.1a9.62,9.62,0,0,0-1-.18l-.14,0-.59-.1c-.31-.05-.59-.1-.9-.12a5.6,5.6,0,0,1-.73-.09,6,6,0,0,0-.9-.08,3.55,3.55,0,0,0-.76.12,4.25,4.25,0,0,1-.78.12h-.11a4.47,4.47,0,0,1-.67-.06,3.64,3.64,0,0,0-.68-.07h-.13a3.28,3.28,0,0,0-.76.14l-.15,0a5,5,0,0,1-.64.11c-.3,0-.59,0-.89,0H225c-.2,0-.4,0-.6,0l-.1,0a5.39,5.39,0,0,0-1.39,0h-.07a5.71,5.71,0,0,1-.87.09l-.53,0-1.08-.06c-.48-.06-1-.15-1.46-.24l-.34-.05-.41-.07a9,9,0,0,1-.9-.18l-.1,0a3.85,3.85,0,0,1-.73-.37c-.17-.09-.39-.21-.6-.3s-.56-.23-.83-.36l-.56-.27a5.47,5.47,0,0,0-.64-.23l-.11,0a4.83,4.83,0,0,1-.68-.26c-.37-.2-.73-.41-1.12-.64a1.72,1.72,0,0,1-.49-.4,1.94,1.94,0,0,0-.46-.41,2.89,2.89,0,0,0-.53-.27,1.22,1.22,0,0,1-.28-.14l-.22-.14a6.52,6.52,0,0,1-.74-.45,9.85,9.85,0,0,0-.91-.54l-.14-.08a4.23,4.23,0,0,1-.41-.23c-.39-.24-.78-.44-1.15-.63l-.29-.15a5.05,5.05,0,0,1-.58-.36l-.12-.08a4.14,4.14,0,0,0-.8-.45l-.41-.16a8,8,0,0,0-1.15-.41,5.34,5.34,0,0,0-1-.14c-.2,0-.4,0-.66-.05l-.31,0a11.37,11.37,0,0,0-1.39-.11,5.24,5.24,0,0,0-.76.07,5.56,5.56,0,0,1-.62.06h-.22a7.38,7.38,0,0,1-.88-.15l-.16,0c-.2,0-.38-.09-.63-.13s-.63-.16-1.06-.29l-.42-.14H195a4.2,4.2,0,0,1-.79-.31L194,241a4.27,4.27,0,0,0-.53-.24,3.61,3.61,0,0,0-.8-.19l-.47-.1a1.94,1.94,0,0,1-.42-.17,7.44,7.44,0,0,1-.66-.44l-.19-.14a3.11,3.11,0,0,0-.43-.31,14.25,14.25,0,0,1-1.31-1,6.06,6.06,0,0,1-.76-.76l-.37-.4a3.51,3.51,0,0,0-.58-.46,3.77,3.77,0,0,1-.63-.49l-.11-.12c-.17-.19-.32-.41-.48-.62l-.13-.18-.06-.09c-.09-.14-.19-.27-.29-.41l-.08-.1c-.09-.14-.2-.33-.32-.55l-.09-.18a4.48,4.48,0,0,0-.34-.59,6.17,6.17,0,0,0-.59-.71l-.07-.08a4.72,4.72,0,0,1-.37-.43l-.08-.12-.29-.46-.07-.12a4.4,4.4,0,0,0-.49-.73c-.2-.23-.41-.41-.61-.6a5.85,5.85,0,0,1-.57-.54,4.69,4.69,0,0,1-.49-.64,6,6,0,0,0-.49-.64c-.14-.14-.3-.28-.45-.41l-.38-.34a2,2,0,0,1,.48-3.31c0-.05,0-.1,0-.14l-.59.06a5.4,5.4,0,0,1-2.28-.28,4.55,4.55,0,0,1-1.31-.72,2,2,0,0,1-.81-.75c-.12-.18-.25-.35-.39-.54a4.21,4.21,0,0,1-.39-.55,3.2,3.2,0,0,1-.16-.39,4.45,4.45,0,0,1-.14-1.18l0-.34A3.76,3.76,0,0,1,174.65,218Z" style="fill: #a7723c"/>
    <path d="M185.35,278h0a2,2,0,0,0,.15-.49,2.21,2.21,0,0,0,0-.59c0-.05,0-.11,0-.16a2.26,2.26,0,0,1,0-.25,2.22,2.22,0,0,1,0-.37c0-.25.11-.48.18-.76l.12-.45,0-.11a4.08,4.08,0,0,1,.17-.42,3.71,3.71,0,0,0,.21-.57c.07-.42.15-.85.2-1.27a4.42,4.42,0,0,0,0-.73c0-.17,0-.35,0-.52s0-.3,0-.46a5.64,5.64,0,0,0,0-.82,3.33,3.33,0,0,0-.14-.7l-.06-.24a1.91,1.91,0,0,1-.06-.48,2.18,2.18,0,0,1,.06-.52,2,2,0,0,0,0-.64c-.08-.45-.13-.87-.17-1.32a1.88,1.88,0,0,0-.21-.6,2,2,0,0,1,0-1.53,1.91,1.91,0,0,0,.15-.58,3.75,3.75,0,0,0,0-.59,3.29,3.29,0,0,1,0-.7.59.59,0,0,1,0-.13,5,5,0,0,1,.14-.62l0-.19a4.73,4.73,0,0,0,.13-.49l.05-.19a11.91,11.91,0,0,1,.32-1.17c.05-.17.09-.38.14-.65a3.54,3.54,0,0,1,.1-.49,2.26,2.26,0,0,1,.13-.33c0-.07.21-.35.32-.5s.24-.35.34-.53.16-.35.23-.52a.65.65,0,0,1,0-.13,3.52,3.52,0,0,1,.27-.55,1,1,0,0,1,.08-.14,3.69,3.69,0,0,1,.54-.58l.11-.12a2.49,2.49,0,0,0,.23-.23c.11-.12.21-.25.34-.42a6.82,6.82,0,0,1,.49-.58l.1-.09a5,5,0,0,1,.48-.34l.12-.08a3.77,3.77,0,0,0,.41-.28l.33-.31a5.69,5.69,0,0,1,.64-.55,4.11,4.11,0,0,0,.43-.37c.11-.11.22-.22.33-.31a1.94,1.94,0,0,1,.67-.38l.16,0,.17-.06a2.56,2.56,0,0,0,.49-.18,6.7,6.7,0,0,1,.8-.3l.15-.05.21-.07a2,2,0,0,1,2.36.29,2,2,0,0,1,.6,1.27,3.35,3.35,0,0,1,.54-.08l.07-.12.13-.24a2,2,0,0,1,.12-.19s0,0,0-.05.28-.42.44-.64l.18-.27a5.16,5.16,0,0,1,.47-.66c.05-.06.11-.11.15-.17a2,2,0,0,1,.55-.49l.25-.17.61-.37a2.16,2.16,0,0,1,1-.67l.15-.07,1.29-.59c.12,0,.23-.1.37-.16l.15-.07a5.15,5.15,0,0,1,.68-.29,10.24,10.24,0,0,1,1.33-.37l.06,0a6.75,6.75,0,0,1,1.22-.17h.65a2.78,2.78,0,0,1,.41,0,1.59,1.59,0,0,1,.38.07l.25.08a2,2,0,0,1,.68.33l.44.34.41.3a1.78,1.78,0,0,1,.35.32l.32.34a6.54,6.54,0,0,1,.73.82,2.1,2.1,0,0,1,.36.93,1.82,1.82,0,0,0,.11.33,3.55,3.55,0,0,0,.23.42,2,2,0,0,1,.44,1.25c0,.17,0,.39,0,.56v.28a2,2,0,0,1-.21.81l-.06.2a2.45,2.45,0,0,1-.35,1.59l-.18.67c0,.18-.1.36-.17.57a4.62,4.62,0,0,0-.17.69,5.5,5.5,0,0,1-.15.57c0,.15-.09.31-.14.47l-.05.17c0,.18-.08.35-.13.52a1.88,1.88,0,0,1-.12.3,2.8,2.8,0,0,1-.21.34,2.07,2.07,0,0,0-.31.61,4.72,4.72,0,0,0-.1.83c0,.15,0,.31-.05.46a12.2,12.2,0,0,0-.12,1.28,3.57,3.57,0,0,1-.07.56,3.12,3.12,0,0,0-.06.74,1,1,0,0,1,0,.17v.39a3.19,3.19,0,0,0,0,.81,1.69,1.69,0,0,0,.26.58,4.23,4.23,0,0,1,.24.4,2.11,2.11,0,0,1,.17.5l0,.16c0,.08,0,.17.05.26l0,.14a4.14,4.14,0,0,0,.08.44,2.89,2.89,0,0,0,.2.55,3,3,0,0,1,.15.42,2,2,0,0,1,.05.91.36.36,0,0,0,0,.11h0a1.93,1.93,0,0,0,0,.61,3.5,3.5,0,0,0,.07.45,1.72,1.72,0,0,1,0,.24,3.7,3.7,0,0,1,.07.57,4.37,4.37,0,0,1-.05.78,3.94,3.94,0,0,0,0,.52c0,.33,0,.66-.06,1l0,.32a1.91,1.91,0,0,0,.05.59,2.34,2.34,0,0,1,0,.38,2.05,2.05,0,0,1-.27,1,2,2,0,0,0-.27.61c0,.17-.05.34-.08.52,0,0,0,.1,0,.12a3.93,3.93,0,0,1-.12.58,2.6,2.6,0,0,0-.07.58,2,2,0,0,1-.52,1.35,2.09,2.09,0,0,0-.38.49,1.86,1.86,0,0,0-.12.63c0,.06,0,.11,0,.17a2.18,2.18,0,0,1-.32.81,3.59,3.59,0,0,1-.25.33l-.09.12c-.07.1-.14.19-.25.36-.23.35-.48.71-.73,1a8.84,8.84,0,0,1-.71.8l-.13.14-.08.08c-.13.13-.26.26-.4.38l-.57.52-.64.52-.12.09a2.42,2.42,0,0,0-.24.19,4.3,4.3,0,0,0-.45.43,3.87,3.87,0,0,1-.49.43,2,2,0,0,1-.76.34,2.49,2.49,0,0,0-.47.21,4.1,4.1,0,0,0-.41.28,3.79,3.79,0,0,1-.45.34,1.81,1.81,0,0,1-.59.25l-.31.05h-.05a2.22,2.22,0,0,0-.55.13l-.35.14a5.73,5.73,0,0,1-.88.33,4.51,4.51,0,0,1-.82.18l-.43.09a3,3,0,0,0-.61.21l-.4.15a1.87,1.87,0,0,1-.4.07c-.29,0-.66,0-1,.06h-.06a2.58,2.58,0,0,1-.4,0,3.48,3.48,0,0,1-.4-.12,2.26,2.26,0,0,0-.58-.13,2.23,2.23,0,0,0-.36,0,2,2,0,0,1-1.6-.37,2.11,2.11,0,0,0-.41-.24c-.16-.06-.34-.1-.46-.14a3.31,3.31,0,0,1-.45-.12,1.48,1.48,0,0,1-.29-.12l-.37-.17-.13-.05a4.34,4.34,0,0,1-.67-.35l-.31-.19-.09,0a5.81,5.81,0,0,1-.63-.43A6.06,6.06,0,0,1,189,287l-.27-.27-.07-.07A6.27,6.27,0,0,1,188,286l-.2-.22c-.2-.23-.38-.47-.55-.7l-.13-.18-.07-.09-.08-.12a2.58,2.58,0,0,1-.19-.37l-.11-.29a3.31,3.31,0,0,0-.18-.42,4.66,4.66,0,0,0-.25-.4,2.91,2.91,0,0,1-.39-.64,1.17,1.17,0,0,1-.05-.11l-.11-.27c0-.06-.09-.21-.11-.27a2.41,2.41,0,0,1-.19-.59,5.33,5.33,0,0,1-.1-.79l-.1-1c0-.19,0-.37-.05-.54A2.09,2.09,0,0,1,185.35,278Z" style="fill: #00a550"/>
    <path d="M261.29,260.9a4.17,4.17,0,0,1-1.08-1.06c-.31-.46-.67-1-.95-1.46l-.41-.72-.05-.09h0l0,0-.11-.13-.27-.33-.52-.64a2.91,2.91,0,0,1-.2-.27l-.23-.28c-.29-.35-.79-.49-1-1a3.06,3.06,0,0,1-.3-1c.13-.86.42-1.27,1.35-1.38a1.47,1.47,0,0,1,1.17.21,1.25,1.25,0,0,1,.26.17l.9.66.29.21.33.27.65.51.34.27.18.14,0,0h0l.09.1,0,0,.08.09.61.77c.41.55.74,1,1.08,1.47l.08.09.21.13c.14.09.23.14.42.28a4,4,0,0,1,.84.8c.11.15.21.29.3.43l.12.19.05.1.16.38v0a2,2,0,0,1-3.43,1.86l-.23-.35-.26-.18S261.46,261,261.29,260.9ZM314,280.29l-.06-.24a1.41,1.41,0,0,0,.9-.51,1.48,1.48,0,0,0,.13-1.7,2.08,2.08,0,0,0-.22-.3c-.08-.09-.19-.21-.34-.35a2.52,2.52,0,0,0-.7-.47,2.23,2.23,0,0,0-.75-.18,2,2,0,0,0-1.12.26,2.13,2.13,0,0,0-1,1.4,3.55,3.55,0,0,0,.09,1.84,3.47,3.47,0,0,0,.28.73c.1.2.19.4.3.59a8.59,8.59,0,0,0,.67,1c.12.15.21.26.34.4s.24.26.29.3a.65.65,0,0,0,.24.15,1.27,1.27,0,0,0,1.54-.92,1.46,1.46,0,0,0,0-.55.58.58,0,0,0-.13-.25.66.66,0,0,1-.1-.18c0-.08-.09-.17-.13-.27A5.55,5.55,0,0,1,314,280.29Zm-.17-1.34s0,0,0,0ZM316.63,289a6.06,6.06,0,0,0,.74,0h.18l.09,0,.18,0,.19,0h0l.14,0h0l0,0,.21-.08a3.64,3.64,0,0,0,1.09-.77l.13-.12.09-.08.18-.16a3,3,0,0,0,.34-.36l.15-.19.06-.09.05-.09,0,0,.11-.2.05-.14a3.37,3.37,0,0,0,.14-.57l0-.36a1.4,1.4,0,0,1,0-.28v-.09h0L321,285c0-.16.08-.32.1-.45l0-.22,0-.11,0-.3h0v-.09l0-.88a6.15,6.15,0,0,0-.3-1.2c-.1-.27-.16-.56-.24-.84l-.05-.21,0-.1,0-.17,0,0-.17-.39-.17-.39,0-.1a.38.38,0,0,1,0-.12l0-.17a3.79,3.79,0,0,0-.12-.36l-.07-.19,0-.1v0l-.06-.16h0l0-.06-.26-.43-.23-.33-.11-.15-.05-.12-.15-.3-.17-.31,0-.08,0,0v0l-.11-.17h0l-.11-.13-.43-.47-.1-.11-.18-.2-.19-.2-.35-.37-.08-.08,0,0-.11-.12h0l-.16-.13a4.66,4.66,0,0,0-.65-.49,1.11,1.11,0,0,0-1.49.45,1.09,1.09,0,0,0,.06,1.13l0,0a4.24,4.24,0,0,0,.55.61l.08.08,0,.05.07.09.31.4.65.86,0,.05,0,.08c.05.1.09.21.14.32l.14.36c0,.08,0,.09.1.23l.09.16.18.33.11.22,0,.06.05.2.1.43.06.23s0,.07,0,.09l0,.09.13.4.14.38v0l0,.1.05.22c.07.28.11.57.2.85a3.09,3.09,0,0,0,.14.51l0,.82-.05.21a2.12,2.12,0,0,1-.1.4l-.05.18,0,0,0,.18,0,.11a3.87,3.87,0,0,0,0,.42c-.13.1-.36.31-.45.4l-.16.15h0l-.18,0H317s0,0,0,0l-.08,0c-.09,0-.25-.06-.28-.08l-.1-.05h-.05l-.2-.14-.41-.29,0,0-.11-.09-.59-.55a1.46,1.46,0,0,0-2,2.1l.05,0,.57.58.14.15.35.28c.13.09.26.2.4.31l.22.17.06,0h0l.13.08h0l.05,0,.23.11.47.19a2.37,2.37,0,0,0,.34.1l.17.05h0l.11,0h0ZM209.29,263.81v.33a5.45,5.45,0,0,0,.07,1.23,3.71,3.71,0,0,0,.57,1.33,1.74,1.74,0,0,1,.11.18c0,.1.05.29.09.47s.07.4.12.6a5.05,5.05,0,0,0,.29.86,1.67,1.67,0,0,1,.08.2s0,.08,0,.12a3.94,3.94,0,0,0-.06,1.14,5.65,5.65,0,0,0,.11.7,3.62,3.62,0,0,1,.06.46,2.37,2.37,0,0,1,0,.46,5.65,5.65,0,0,0-.05.71c0,.4,0,.78-.08,1.17a4.15,4.15,0,0,0,.07,1.12v0a3.89,3.89,0,0,0-.48,1.14,6.5,6.5,0,0,0-.12.75,2.79,2.79,0,0,1-.07.4,4.59,4.59,0,0,0-.15,1.1v0a3.89,3.89,0,0,0-.72,1,3.82,3.82,0,0,0-.29,1.26.13.13,0,0,0,0,.06c-.06.09-.14.18-.21.27s-.26.35-.37.53-.43.63-.66.92a9.32,9.32,0,0,1-.67.74l-.08.09c-.18.18-.37.34-.56.52l-.32.29c-.17.15-.35.29-.53.43l-.4.31a7.15,7.15,0,0,0-.57.53,2.62,2.62,0,0,1-.3.28s-.06,0-.13,0a5.2,5.2,0,0,0-1,.42,6.08,6.08,0,0,0-.66.47,1.84,1.84,0,0,1-.22.17l-.14,0a4.24,4.24,0,0,0-1.06.26l-.41.17a4.32,4.32,0,0,1-.63.24,4.13,4.13,0,0,1-.61.13l-.48.09a4.78,4.78,0,0,0-.93.31l-.22.09-.95,0-.14,0a5.38,5.38,0,0,0-.9-.22,3.47,3.47,0,0,0-1.09.06,3.47,3.47,0,0,0-.85-.49,6.12,6.12,0,0,0-.76-.24l-.28-.07a5.45,5.45,0,0,0-.59-.27,3.55,3.55,0,0,1-.37-.17l-.4-.25a4.65,4.65,0,0,1-.52-.34,3.87,3.87,0,0,1-.41-.4c-.13-.12-.25-.25-.37-.37a5.37,5.37,0,0,1-.51-.56l-.22-.25c-.21-.23-.38-.49-.56-.73l-.08-.12-.08-.22a6.16,6.16,0,0,0-.33-.74,6.33,6.33,0,0,0-.39-.61,1.32,1.32,0,0,1-.16-.25c0-.12-.11-.27-.18-.42s-.14-.33-.15-.4a5.56,5.56,0,0,1-.08-.7l-.08-.82c0-.18,0-.35-.05-.51a.36.36,0,0,0,0-.09,3.69,3.69,0,0,0,.3-1.05,4.21,4.21,0,0,0,0-1.1s0-.08,0-.12c0-.21.09-.41.14-.61l.12-.45a1.65,1.65,0,0,1,.09-.21,5.39,5.39,0,0,0,.36-1.06c.08-.45.16-.92.22-1.42a6.22,6.22,0,0,0,0-1.06c0-.13,0-.26,0-.39s0-.22,0-.34a9.84,9.84,0,0,0,0-1.09,5,5,0,0,0-.2-1l-.06-.24a.24.24,0,0,1,0-.08,3.83,3.83,0,0,0,0-1.42c-.07-.4-.11-.78-.15-1.17a3.83,3.83,0,0,0-.37-1.23,4.11,4.11,0,0,0,.28-1.15,6.91,6.91,0,0,0,0-.91,1.74,1.74,0,0,1,0-.32c0-.18.09-.37.14-.56s.12-.4.16-.6c.1-.41.19-.81.31-1.18a5.48,5.48,0,0,0,.21-.89,3.23,3.23,0,0,1,.06-.33s.12-.18.2-.29.32-.48.45-.72.23-.5.32-.74a2.83,2.83,0,0,1,.15-.35,3,3,0,0,1,.32-.33c.15-.15.3-.29.43-.44s.3-.36.45-.55a2.6,2.6,0,0,1,.3-.36,2.53,2.53,0,0,1,.27-.18,7.09,7.09,0,0,0,.69-.49c.17-.14.33-.29.48-.43a2.83,2.83,0,0,1,.37-.33,5.89,5.89,0,0,0,.7-.6l.21-.2c.06,0,.17,0,.27-.08a4.82,4.82,0,0,0,.78-.29,4.37,4.37,0,0,1,.57-.21c.18-.06.35-.11.52-.18l.21-.1v0l-.05.15v0a1.76,1.76,0,0,0-.06.25v0a9.89,9.89,0,0,0-.14,1.25c0,.46-.06.92-.09,1.4l0,.32v.36l0,.16c0,.22,0,.44.07.66s.06.52.08.79l.1.67.21,1.44.09.69,0,.21,0,.09,0,.17.08.34.15.61v.15c0,.16,0,.13,0,.16l0,.29v.24l0,.35a2.6,2.6,0,0,0,0,.47l.06.35.24,1.41.08.56,0,.12V266a6.57,6.57,0,0,1-.05.66l0,.32v.41c0,.23,0,.47,0,.54v.24h0l0,.08-.12.62-.06.31,0,.15,0,.07,0,.12,0,.06v0l0,.07-.09.15-.09.16-.12.23-.1.23,0,.06v0l-.06.2h0l0,.07,0,.27c0,.17-.06.33-.08.49l0,.18v.18c-.06.13-.12.25-.17.38l-.21.49c-.07.19-.12.28-.22.55s-.14.54-.21.78-.07.23-.1.34l0,.16v0h0l-.06.26h0v.09a6.55,6.55,0,0,0,0,1,2.48,2.48,0,0,0,.05.34l.06.3a1.43,1.43,0,0,0,2.75.11,2.07,2.07,0,0,0,.07-.34c0-.21.07-.52.12-.9l0-.12.12-.33.28-.76a2.05,2.05,0,0,0,.15-.26l.2-.37.24-.44,0-.09h0v0l0-.08,0-.16.09-.33.15-.58.05-.17,0,0v0l.07-.09.06-.09.11-.17c.09-.14.2-.31.27-.45l.13-.27v0h0l.08-.25v0l0-.07.05-.15.08-.3c.06-.2.12-.4.17-.6a8.2,8.2,0,0,0,.21-1.72v-.25l.06-.35q.06-.36.09-.69l0-.35v-.06h0v-.28l0-.22c0-.29,0-.61-.08-.82-.06-.45-.11-.91-.17-1.37l0-.35a1.5,1.5,0,0,1,0-.24h0v-.12l0-.41c0-.21,0-.48,0-.55v-.22l0-.21v0l0-.09-.17-.77-.12-.57-.09-.7c-.08-.73-.26-1.91-.3-2.51l-.06-.66v-.13l0-.32.06-1.09a6.36,6.36,0,0,1,.08-.92c.1-.15.2-.3.29-.45s.21-.36.3-.53a.82.82,0,0,0,.12-.2c.09-.16.39-.54.46-.65a5.64,5.64,0,0,1,.38-.57l.23-.27h0l.21-.15.35-.21L203,250a2,2,0,0,0,.54-.49,3.37,3.37,0,0,0,.42-.17l1.18-.54.45-.2c.22-.1.43-.21.66-.29a8.16,8.16,0,0,1,1.06-.3l.1,0a4.47,4.47,0,0,1,.83-.13h.85l.28.09.35.27.55.41c.07.08.13.16.2.23l.21.21a4.89,4.89,0,0,1,.51.56.41.41,0,0,0,0,.17,6.75,6.75,0,0,0,.24.72,5.21,5.21,0,0,0,.46.82l.05.06c0,.14,0,.32,0,.49v.28a.65.65,0,0,0-.07.16,5.41,5.41,0,0,0-.24.81c0,.15-.06.31-.08.47a6.19,6.19,0,0,1-.13.62l-.15.54c-.06.21-.11.43-.18.64a6.42,6.42,0,0,0-.23.86c0,.14,0,.27-.09.4-.1.28-.17.57-.25.85,0,.13-.06.26-.1.39l-.07.11a3.79,3.79,0,0,0-.6,1.26,6.13,6.13,0,0,0-.15,1.09c0,.12,0,.25,0,.38-.07.48-.11,1-.14,1.5a1.76,1.76,0,0,1,0,.31A5,5,0,0,0,209.29,263.81Zm78.38-8.14a4.89,4.89,0,0,0-1.4.09l-.2,0-.24-.12a5.91,5.91,0,0,0-1.15-.44l-.51-.11c-.33-.07-.65-.14-1-.23a6.6,6.6,0,0,0-1.16-.19,2.33,2.33,0,0,1-.37,0c-.33-.12-.67-.27-1-.42l-.38-.16a2.9,2.9,0,0,1-.38-.26,6,6,0,0,0-.89-.57,6.63,6.63,0,0,1-.56-.37c-.22-.16-.45-.32-.68-.46l-.25-.14c-.34-.21-.68-.41-1-.64a6.24,6.24,0,0,0-1-.54l-.36-.18c-.28-.23-.61-.48-1-.74l-.34-.26c-.37-.28-.76-.56-1.18-.86l-.14-.1a2.72,2.72,0,0,1-.3-.29,5.86,5.86,0,0,0-.91-.81c-.13-.09-.25-.21-.38-.32a7.73,7.73,0,0,0-.86-.72,5.2,5.2,0,0,0-1.15-.56,1.92,1.92,0,0,1-.33-.14,6.73,6.73,0,0,0-1-.52,3.81,3.81,0,0,1-.45-.23l-1.33-.89c-.06-.05-.12-.14-.2-.22a4.55,4.55,0,0,0-1-.9,8.3,8.3,0,0,0-1-.53,2.14,2.14,0,0,1-.43-.21,3.74,3.74,0,0,1-.45-.36,7.79,7.79,0,0,0-.8-.62l-.7-.48-.6-.41a6.58,6.58,0,0,0-1.07-.56,1.61,1.61,0,0,1-.35-.16,3.09,3.09,0,0,1-.47-.4c-.25-.22-.48-.43-.73-.61l-.64-.42a7.07,7.07,0,0,1-.63-.44,3.47,3.47,0,0,1-.42-.43,8.25,8.25,0,0,0-.65-.67,9.77,9.77,0,0,0-.81-.63,4,4,0,0,1-.42-.32,5.07,5.07,0,0,1-.48-.56c-.17-.22-.35-.43-.53-.63s-.41-.43-.62-.63a4.52,4.52,0,0,1-.48-.5c-.35-.41-.69-.82-1-1.23a3,3,0,0,1-.13-.3,5,5,0,0,0-.63-1.16,7.78,7.78,0,0,0-.74-.82,3.41,3.41,0,0,1-.37-.39,9.14,9.14,0,0,0-.71-.81c-.13-.14-.27-.29-.39-.44s-.46-.55-.69-.81-.29-.31-.42-.48a2,2,0,0,1-.24-.4,6.39,6.39,0,0,0-.72-1.05l-.36-.44c-.18-.24-.38-.46-.58-.68l-.09-.16a1.31,1.31,0,0,1-.05-.15,5.51,5.51,0,0,0-.49-1.06c-.1-.16-.22-.32-.33-.49s-.26-.38-.39-.59-.29-.46-.45-.7a4.84,4.84,0,0,1-.3-.44c-.11-.21-.24-.42-.37-.63l-.33-.57c-.12-.23-.27-.46-.41-.7s-.21-.33-.31-.5a2,2,0,0,1-.11-.32,6.45,6.45,0,0,0-.42-1c-.09-.15-.16-.31-.24-.47a8.52,8.52,0,0,0-.4-.8,4.74,4.74,0,0,0-.78-1,1.62,1.62,0,0,1-.18-.19,1.52,1.52,0,0,1-.09-.26,5.36,5.36,0,0,0-.48-1c-.09-.14-.18-.29-.26-.44s-.33-.54-.5-.8a5.47,5.47,0,0,0-.76-.88,1.2,1.2,0,0,1-.22-.23,2.09,2.09,0,0,1-.13-.26,5.15,5.15,0,0,0-.58-1l-.09-.11c-.27-.36-.55-.72-.84-1.07a8.85,8.85,0,0,0-.75-.75c-.11-.11-.23-.21-.33-.32a5.67,5.67,0,0,0-.93-.76,1.79,1.79,0,0,1-.28-.2l-.3-.31a7,7,0,0,0-.82-.78,3.45,3.45,0,0,1-.28-.26,5.35,5.35,0,0,0-.95-.78,13.13,13.13,0,0,0-1.46-.79,4.7,4.7,0,0,0-1.38-.36l-.27,0c-.1,0-.2-.08-.3-.12a4.79,4.79,0,0,0-1.34-.43,4.37,4.37,0,0,0-1.49.11,1.19,1.19,0,0,1-.26.05l-.18,0a4.19,4.19,0,0,0-1.53,0,4.92,4.92,0,0,0-1.24.43l-.25.12c-.11,0-.24,0-.36.05a5.06,5.06,0,0,0-1.22.26,7.59,7.59,0,0,0-1.15.59c-.11.06-.21.13-.32.18a6.6,6.6,0,0,0-1.11.76c-.1.07-.18.15-.28.21a11.21,11.21,0,0,0-1.3,1.15,1,1,0,0,1-.17.11,3.92,3.92,0,0,0-1.19,1.1,5.58,5.58,0,0,0-.61,1.36l-.12.31a9.32,9.32,0,0,0-.53,1.71,4.48,4.48,0,0,0,0,1.45c0,.1,0,.2,0,.29l0,.21a4,4,0,0,0-.16,1.5,6.44,6.44,0,0,0,.31,1.26c0,.12.09.24.12.36s0,.24.05.36a4.94,4.94,0,0,0,.26,1.27,4,4,0,0,0,.85,1.31l.1.12a1.41,1.41,0,0,1,.06.22,4.31,4.31,0,0,0,.55,1.29,10,10,0,0,0,1.12,1.36,5.29,5.29,0,0,0,.68.58,2,2,0,0,1,.23.18c.12.16.26.39.41.61l.24.38c0,.06.06.15.1.24a4.73,4.73,0,0,0,.44.93,3.11,3.11,0,0,1,.2.41c.12.26.24.52.38.76l.36.58c.11.18.23.37.33.55a4.72,4.72,0,0,0,.71.91c.05.06.12.12.17.19.14.26.31.53.48.8l.21.35c.28.45.55.86.8,1.21.09.13.15.26.22.37a3.57,3.57,0,0,0,.87,1.14l.19.14.31.29.24.21c.18.17.36.32.54.47l.3.27.26.25c.17.18.33.34.51.5s.25.23.37.35l.39.36a6.26,6.26,0,0,0,.57.45l.23.17a3.22,3.22,0,0,1,.24.28c.13.16.26.32.4.47s.42.47.63.72.26.29.4.43a.81.81,0,0,0,.09.1l-2.27.44c-.94.3-2.15-.1-4.15,0l-2.77-.82c-1.17-.69-2.32-1.12-2.72-1.36l-1.74-1.13c-.68-.4-1.36-.77-2.05-1.13a19.46,19.46,0,0,0-2.27-1,15.31,15.31,0,0,0-1.75-.56,2.06,2.06,0,0,0-.37-.16,9.58,9.58,0,0,0-1.11-.29l-.53-.12c-.57-.16-1.1-.31-1.62-.43a3.57,3.57,0,0,1-.46-.16,6.87,6.87,0,0,0-1.13-.36,5.35,5.35,0,0,0-1.35,0,1.74,1.74,0,0,1-.32,0,3.43,3.43,0,0,1-.5-.14,5.64,5.64,0,0,0-1-.27l-.6-.1c-.3-.05-.59-.09-.87-.15a7.43,7.43,0,0,0-.93-.13c-.15,0-.36,0-.43-.06a3.57,3.57,0,0,1-.45-.28l-.56-.37-.39-.21a4.07,4.07,0,0,1-.56-.35c-.15-.15-.3-.33-.46-.52s-.36-.42-.56-.64-.31-.33-.48-.51-.41-.41-.61-.64-.35-.39-.53-.59-.37-.39-.55-.6l-1-1.25a3.58,3.58,0,0,1-.25-.44,8.41,8.41,0,0,0-.58-.95c-.18-.23-.33-.47-.49-.7l-.42-.61a6.29,6.29,0,0,0-.76-.87,3.59,3.59,0,0,1-.29-.31,3.93,3.93,0,0,1-.17-.38,5.51,5.51,0,0,0-.65-1.19,14.19,14.19,0,0,0-.94-1.12l-.25-.28a8,8,0,0,0-1.07-.95c-.13-.1-.26-.19-.38-.3a11.35,11.35,0,0,0-1.55-1.09,2.44,2.44,0,0,1-.35-.26,5,5,0,0,0-1.41-.89,8.37,8.37,0,0,0-1.67-.4l-.33,0a6.69,6.69,0,0,0-2.26-.06,6,6,0,0,0-1.84.69l-.19.1a6.5,6.5,0,0,0-1.75,1.32,5.84,5.84,0,0,0-1.36,1.88,5.59,5.59,0,0,0-.4,2.42v.24a6.91,6.91,0,0,0,.29,1.89,4.75,4.75,0,0,0,.84,1.44,3.33,3.33,0,0,1,.24.32l.1.17a11,11,0,0,0,.94,1.38,2.5,2.5,0,0,1,.24.36,7,7,0,0,0,.78,1.06,6.35,6.35,0,0,0,.92.77,3.14,3.14,0,0,1,.38.28l.47.5q.3.33.63.66c.21.21.43.41.66.61a5.34,5.34,0,0,1,.5.46,2.66,2.66,0,0,1,.28.38,8.15,8.15,0,0,0,.68.88c.21.22.44.43.68.64a3.81,3.81,0,0,1,.46.44,3,3,0,0,1,.27.43c.15.25.3.51.48.77a9.81,9.81,0,0,0,.66.79,3.57,3.57,0,0,1,.4.46,4.16,4.16,0,0,1,.23.42,7.27,7.27,0,0,0,.64,1.06l.3.42a10.26,10.26,0,0,0,.76,1,4.91,4.91,0,0,0,1.06.91,3.38,3.38,0,0,1,.34.25l.33.36a8.47,8.47,0,0,0,.95.94,17.24,17.24,0,0,0,1.49,1.11,4.61,4.61,0,0,1,.38.28,7.43,7.43,0,0,0,1.17.75,4.8,4.8,0,0,0,1.41.43,3.1,3.1,0,0,1,.38.09,4.17,4.17,0,0,1,.44.19,7.86,7.86,0,0,0,1.26.5l.46.14a9,9,0,0,0,1.3.34l.49.11a9.8,9.8,0,0,0,1.3.24,5.64,5.64,0,0,0,1.35-.07,2.3,2.3,0,0,1,.45,0,12.44,12.44,0,0,1,1.32.12l.14,0,.76.07a3.65,3.65,0,0,1,.68.07,6.87,6.87,0,0,1,.91.33l.43.17.1.06-.24.1-.37.17-1.29.59a3,3,0,0,1-.39.13,7.61,7.61,0,0,0-.88.32l-.57.28c-.18.09-.34.18-.52.25a10.59,10.59,0,0,1-1.07.32c-.23.06-.47.14-.72.23l-.52.17,0,0h-.19a4.22,4.22,0,0,0-1.2.15,4.36,4.36,0,0,0-1.15.59l-.19.13-.32.1a9,9,0,0,0-1,.39l-.28.1a5.21,5.21,0,0,0-1.12.46,4.56,4.56,0,0,0-.93.75,2.41,2.41,0,0,1-.24.21,7.4,7.4,0,0,0-.8.68c-.1.1-.2.2-.31.29l-.25.16a5.64,5.64,0,0,0-1,.71,8.58,8.58,0,0,0-.67.79,3.92,3.92,0,0,1-.27.33,1.75,1.75,0,0,1-.19.2,5.65,5.65,0,0,0-.92,1.05,5.85,5.85,0,0,0-.51,1c0,.12-.1.26-.16.38s-.11.17-.17.26a4.36,4.36,0,0,0-.92,2.22,2.09,2.09,0,0,1-.08.36c-.15.48-.27,1-.39,1.48,0,.13-.07.27-.11.4a8,8,0,0,0-.26,1.09,5.45,5.45,0,0,0,0,1.2,2.45,2.45,0,0,1,0,.27.88.88,0,0,0,0,.15,3.71,3.71,0,0,0-.3,1.45,3.62,3.62,0,0,0,.4,1.52l.06.12c0,.38.09.82.17,1.28a.5.5,0,0,1,0,.12,3.66,3.66,0,0,0-.05,1.19,7.52,7.52,0,0,0,.18.85c0,.09,0,.18.07.27s0,.39,0,.59,0,.33,0,.49,0,.49,0,.73a2.08,2.08,0,0,1,0,.35c0,.38-.1.74-.17,1.09,0,.06-.06.14-.09.22a3.92,3.92,0,0,0-.32.89l-.1.41c-.08.28-.15.57-.21.86a4,4,0,0,0,0,1.33s0,.07,0,.1,0,0,0,.05a3.59,3.59,0,0,0-.34,1.45,9.51,9.51,0,0,0,.08,1.12l.06.66c0,.36.06.74.13,1.13a6.08,6.08,0,0,0,.42,1.25l.12.3a5.36,5.36,0,0,0,.6,1.07,2.4,2.4,0,0,1,.18.26l.09.23a4.3,4.3,0,0,0,.56,1.12l.08.11a11.12,11.12,0,0,0,.81,1.06l.19.22a10.72,10.72,0,0,0,.8.86l.26.26a7.42,7.42,0,0,0,.8.74,8.49,8.49,0,0,0,.91.61l.3.19a5.45,5.45,0,0,0,1,.5,3.13,3.13,0,0,1,.32.15A4.76,4.76,0,0,0,192,291l.18,0,.06.05a3.53,3.53,0,0,0,1.35.75,3.73,3.73,0,0,0,1.69-.05l0,0a4.44,4.44,0,0,0,1.31.24h.05c.49,0,1,0,1.49-.09a4.26,4.26,0,0,0,1.26-.36l.21-.09.34-.06a9.7,9.7,0,0,0,1.07-.23c.37-.12.71-.26,1-.4l.33-.14h.15a4.24,4.24,0,0,0,1.29-.37,5.21,5.21,0,0,0,.95-.63c.09-.06.17-.14.26-.19l.19-.07a4,4,0,0,0,1.15-.54,6.33,6.33,0,0,0,.82-.72,3,3,0,0,1,.26-.25l.33-.26c.27-.21.54-.42.79-.65l.28-.26c.26-.23.52-.47.76-.71l.08-.09a13.65,13.65,0,0,0,.93-1,14.87,14.87,0,0,0,.86-1.22l.23-.31a6,6,0,0,0,.61-.91,3.54,3.54,0,0,0,.4-1.44,3.62,3.62,0,0,0,.8-1.23,4.14,4.14,0,0,0,.23-1.29,1.62,1.62,0,0,1,0-.22,6.07,6.07,0,0,0,.18-1,2.7,2.7,0,0,1,0-.28.33.33,0,0,1,.06-.1,3.79,3.79,0,0,0,.52-1.35,4.11,4.11,0,0,0-.05-1.31l0-.21c0-.4.08-.87.09-1.34,0-.14,0-.27,0-.4a6.38,6.38,0,0,0,.05-1,6.55,6.55,0,0,0-.13-1c0-.13-.05-.26-.06-.4s0-.05,0-.11a3.84,3.84,0,0,0,0-1.34,4.85,4.85,0,0,0-.33-1.1,1.36,1.36,0,0,1-.11-.28c0-.14-.06-.27-.08-.41a8.52,8.52,0,0,0-.23-1,4.19,4.19,0,0,0-.51-1l0-.06v-.29c0-.24,0-.46,0-.68a2,2,0,0,1,0-.34,6.49,6.49,0,0,0,.09-.74,9.75,9.75,0,0,1,.1-1.08c0-.24.05-.48.07-.72s0-.21,0-.32l.07-.09a4.56,4.56,0,0,0,.54-1.07c.07-.22.13-.45.18-.67s.09-.35.15-.52a6.84,6.84,0,0,0,.23-.89c0-.13,0-.26.09-.38.1-.3.19-.61.27-.91,0-.15.07-.29.11-.43a8.09,8.09,0,0,0,.24-1.09l.06-.36a2.67,2.67,0,0,1,.09-.26,4.7,4.7,0,0,0,.3-1.32v-.23c0-.21,0-.45,0-.7a4.23,4.23,0,0,0,.74.29c.46.12.91.19,1.31.26l.43.07c.64.12,1.18.21,1.72.27s1,.07,1.49.09h.23a7.19,7.19,0,0,0,1.23-.1l.46-.06c.17,0,.33,0,.5,0a6.44,6.44,0,0,0,1.14.07h.65c.32,0,.64,0,1,0a5.69,5.69,0,0,0,1.19-.21l.38-.09c.09,0,.28,0,.44.05a6.12,6.12,0,0,0,1.12.08,5.51,5.51,0,0,0,1.14-.17,2.9,2.9,0,0,1,.38-.07,3.68,3.68,0,0,1,.56.06,7,7,0,0,0,.92.11c.23,0,.45.06.68.1s.51.09.77.12.59.1.89.16l.51.11.74.11a4.14,4.14,0,0,1,.65.11l.7.17a4.78,4.78,0,0,1,.66.17c.41.16.84.37,1.28.59l.33.26a7.55,7.55,0,0,0,.8.6,2.1,2.1,0,0,0,.79.26l.38.25a8.15,8.15,0,0,1,.92.62,11.3,11.3,0,0,1,.9.79c.33.31.66.62,1,.9a5.38,5.38,0,0,1,.7.72,10.36,10.36,0,0,0,1.1,1.1,8.89,8.89,0,0,0,1.41.9,5.47,5.47,0,0,1,.76.47,5,5,0,0,1,.64.7,8.69,8.69,0,0,0,1.12,1.19l.93.81,1,.88c.41.34.82.63,1.21.9s.6.41.87.64a12.6,12.6,0,0,0,1.25.91,8.87,8.87,0,0,1,.86.61,3.91,3.91,0,0,1,.5.6,6.75,6.75,0,0,0,1.25,1.39,13.81,13.81,0,0,0,1.33.88c.3.18.59.36.87.56s.52.44.78.66a13.75,13.75,0,0,0,1.25,1,7.76,7.76,0,0,0,1.64.81,2.57,2.57,0,0,1,1.38.9,8,8,0,0,0,1.41,1.18,15.87,15.87,0,0,0,1.67.87l.62.31a6.58,6.58,0,0,0,1.85.56,3.44,3.44,0,0,1,.66.15c.26.1.51.23.75.35a11.19,11.19,0,0,0,1.61.66,15.48,15.48,0,0,0,1.76.37l.75.13a8.12,8.12,0,0,1,.78.24,8.68,8.68,0,0,0,1.66.44l.75.11c.56.08,1.14.17,1.72.22s.93.06,1.4.07l1,0c.43,0,.88,0,1.33,0s.71,0,1.07,0,.73.08,1.1.14.83.12,1.26.15a5.4,5.4,0,0,1,.85.19,10,10,0,0,0,1.46.31,10.55,10.55,0,0,1,2,.37,8.93,8.93,0,0,0,1.05.25,5.62,5.62,0,0,1,1,.28c.55.26,1.17.59,2,1.05l.55.32c.49.28,1,.55,1.4.85.29.2.59.46.92.74l.87.72c.37.28.75.51,1.08.72a6.55,6.55,0,0,1,.87.59l.22.18c.53.43,1.06.88,1.59,1.34a6.4,6.4,0,0,1,.63.69,13.58,13.58,0,0,0,1,1.07c.32.29.66.55,1,.82s.41.33.61.51l.19.18c.1.11.21.22.3.33s.15.14.22.22l.11.14a9.19,9.19,0,0,0,1,1.14,1.85,1.85,0,0,0,.79.45l.26.21a11.79,11.79,0,0,0,1.45.89,9.72,9.72,0,0,0,1.62.69l.39.15a7.43,7.43,0,0,0,1.2.37,10.63,10.63,0,0,0,1.58.12h.32a9.34,9.34,0,0,0,1.6-.13,8.14,8.14,0,0,0,1.61-.49l.11-.05c.1,0,.21-.06.31-.09a4.63,4.63,0,0,0,1.4-.57,5,5,0,0,0,1.07-1,1.59,1.59,0,0,1,.2-.24l.1-.1a8.84,8.84,0,0,0,1.09-1.16c.07-.1.16-.19.24-.29a6.32,6.32,0,0,0,.78-1.07,5.87,5.87,0,0,0,.47-1.2c0-.12.07-.25.12-.37a9,9,0,0,0,.36-1.22l.08-.35c0-.13.08-.25.13-.38a6.5,6.5,0,0,0,.32-1.19,8.42,8.42,0,0,0,.07-1.28v-.36c0-.13,0-.27,0-.4a6.53,6.53,0,0,0,0-1.27,7.47,7.47,0,0,0-.21-1.05c0-.14-.07-.28-.1-.42s0-.26,0-.4a7.08,7.08,0,0,0-.13-1.09,6.69,6.69,0,0,0-.36-1.05c-.05-.12-.11-.24-.15-.37-.14-.47-.3-.94-.47-1.41-.05-.14-.1-.28-.14-.43-.11-.33-.22-.66-.35-1a7.27,7.27,0,0,0-.55-1,2.3,2.3,0,0,1-.21-.33l-.05-.21a4.34,4.34,0,0,0-.47-1.22,4.19,4.19,0,0,0-.95-1.05l-.16-.14c-.24-.35-.53-.75-.85-1.14a2.18,2.18,0,0,1-.12-.22,4.44,4.44,0,0,0-.74-1.08,6.71,6.71,0,0,0-.9-.75l-.32-.24-.24-.21a11.05,11.05,0,0,0-1-.79,6.47,6.47,0,0,0-.94-.52,1.94,1.94,0,0,0-.58-.56,6.27,6.27,0,0,0-.9-.45,3.43,3.43,0,0,1-.42-.2,4.25,4.25,0,0,1-.41-.35,9.35,9.35,0,0,0-.75-.64,3.19,3.19,0,0,1-.33-.31,6.25,6.25,0,0,0-.82-.75l-.73-.53-.55-.4a5.3,5.3,0,0,0-1.14-.6,2.12,2.12,0,0,1-.31-.14l-.27-.27a5.62,5.62,0,0,0-.93-.82,4.75,4.75,0,0,0-1.28-.58,1.84,1.84,0,0,1-.28-.09l-.16-.18a4.24,4.24,0,0,0-1.1-.9,5.1,5.1,0,0,0-1.34-.48,3,3,0,0,1-.32-.09,3.82,3.82,0,0,1-.4-.25,5.85,5.85,0,0,0-1.05-.6,11.39,11.39,0,0,0-1.15-.37l-.48-.13a7.82,7.82,0,0,0-1.22-.33l-.45-.1a14.65,14.65,0,0,0-1.65-.39,1.86,1.86,0,0,1-.36-.15,4.07,4.07,0,0,0-1.51-.47,6.26,6.26,0,0,0-1.44.09l-.43,0h-.23l-1.46.09a5.56,5.56,0,0,0-1.11.25l-.35.1-.21-.06a5.32,5.32,0,0,0-1.34-.22,8.26,8.26,0,0,0-1,.07l-.53,0-.45-.11A7.26,7.26,0,0,0,287.67,255.67Zm-.67,4a1.51,1.51,0,0,1,.28-.05,3.56,3.56,0,0,1,.36.1,5.7,5.7,0,0,0,1.27.25,6.72,6.72,0,0,0,1.24-.06,2.67,2.67,0,0,1,.5,0,3,3,0,0,1,.34.08,4.22,4.22,0,0,0,1.41.2,5,5,0,0,0,1.38-.28,2,2,0,0,1,.31-.08c.43,0,.85-.06,1.28-.08l.23,0a7.47,7.47,0,0,0,.8-.08l.48-.06.15.08a4.81,4.81,0,0,0,1.25.45c.51.11.92.19,1.37.32.24.07.5.13.77.19a4.81,4.81,0,0,1,.68.17c.26.09.53.17.82.24a6,6,0,0,1,.65.2c.1,0,.2.13.31.2a6,6,0,0,0,1,.61,6.27,6.27,0,0,0,1,.32,2.13,2.13,0,0,1,.36.1s.06.08.13.15a4.65,4.65,0,0,0,1,.83,4.86,4.86,0,0,0,1.16.5l.3.1a2,2,0,0,0,.23.24,5.44,5.44,0,0,0,.84.77,4.66,4.66,0,0,0,.86.47l-.49.23-.28.14a1.55,1.55,0,0,1-.23.06,4.36,4.36,0,0,0-1.36.52,4.22,4.22,0,0,0-1,1,1.71,1.71,0,0,1-.18.2,8.69,8.69,0,0,0-.94,1.11l-.13.18a1.41,1.41,0,0,1-.17.18,4.52,4.52,0,0,0-.86,1.13c-.05.09-.1.19-.16.28a6,6,0,0,0-.57,1.19,12,12,0,0,0-.4,1.54v0a7.25,7.25,0,0,0-.81-.57,7.44,7.44,0,0,0-1.48-.66,6.34,6.34,0,0,1-.72-.3l-.73-.45c-.46-.28-.91-.56-1.36-.82a8.46,8.46,0,0,1-.71-.49,7.36,7.36,0,0,0-1.42-.89,7.12,7.12,0,0,0-2.35-.59c-.2,0-.39-.05-.57-.09a9.73,9.73,0,0,0-3.22-.43,8,8,0,0,0-2.11.57,4.21,4.21,0,0,1-.65.23,4,4,0,0,1-1.51-.29,8.36,8.36,0,0,0-1.42-.27,3.93,3.93,0,0,1-.74-.12l-1-.25a6.81,6.81,0,0,1-1-.27,8.57,8.57,0,0,1-1-.5c-.24-.14-.49-.27-.74-.4a4.88,4.88,0,0,1-.6-.47,10.51,10.51,0,0,0-.9-.72,9.12,9.12,0,0,0-1.05-.6,3.78,3.78,0,0,1-.71-.42,6.38,6.38,0,0,1-.68-.69,11.63,11.63,0,0,0-.85-.87l-.61-.61a11.61,11.61,0,0,0-1.07-1,2,2,0,1,0-2.53,3.09,9.17,9.17,0,0,1,.71.7c.26.27.53.54.81.8s.39.4.59.61a12,12,0,0,0,1,1,7,7,0,0,0,1.51.95,5.76,5.76,0,0,1,.6.33c.2.14.37.3.55.45a6.83,6.83,0,0,0,1.42,1c.21.1.41.21.61.32a11.34,11.34,0,0,0,1.56.77,12.25,12.25,0,0,0,1.5.41c.26.06.51.11.75.19a9.36,9.36,0,0,0,1.4.26,4.33,4.33,0,0,1,.76.12,6.69,6.69,0,0,0,3.62.34,9.8,9.8,0,0,0,1.12-.37A4.37,4.37,0,0,1,290,272a7.53,7.53,0,0,1,1.84.33,8.85,8.85,0,0,0,1.07.18,3.87,3.87,0,0,1,1.13.24,4.61,4.61,0,0,1,.72.49,11.85,11.85,0,0,0,1.14.76c.4.23.8.48,1.21.73l.77.47a8,8,0,0,0,1.44.64,4.83,4.83,0,0,1,.76.32,7.33,7.33,0,0,1,.69.52,9.08,9.08,0,0,0,1.27.92,2,2,0,0,0,.7.23,6.22,6.22,0,0,0,.18,1c0,.13.06.27.08.41s0,.27,0,.41a7.36,7.36,0,0,0,.11,1c.07.4.16.82.26,1.24l-.63-.52a12.76,12.76,0,0,0-1.24-1c-.57-.4-1.14-.72-1.68-1l-.51-.3a23.76,23.76,0,0,0-2.31-1.23,8.29,8.29,0,0,0-1.88-.56c-.24-.05-.47-.1-.7-.17a15.63,15.63,0,0,0-2.67-.52,7.89,7.89,0,0,1-.88-.19,8.78,8.78,0,0,0-1.53-.31c-.35,0-.7-.08-1.05-.13s-.91-.13-1.36-.17-.94,0-1.4,0a8.47,8.47,0,0,1-1,0c-.41,0-.81,0-1.22-.05s-.77,0-1.14-.05-1-.13-1.5-.2l-.8-.12a5.46,5.46,0,0,1-.9-.25,10.56,10.56,0,0,0-1.29-.38l-.87-.15c-.47-.08-.91-.16-1.31-.27a8,8,0,0,1-1-.42c-.34-.17-.68-.33-1-.47a6.57,6.57,0,0,0-1.4-.36,3.82,3.82,0,0,1-.77-.2l-.72-.35a13.87,13.87,0,0,1-1.28-.66,5.41,5.41,0,0,1-.67-.6,7.56,7.56,0,0,0-1.24-1.08,7.94,7.94,0,0,0-1.55-.74,4.37,4.37,0,0,1-.76-.34,9.4,9.4,0,0,1-.9-.75c-.34-.3-.68-.6-1-.87s-.83-.56-1.2-.78a10,10,0,0,1-.93-.61,3.61,3.61,0,0,1-.5-.61,7.37,7.37,0,0,0-1.19-1.33,13.55,13.55,0,0,0-1.17-.84,10.62,10.62,0,0,1-.9-.64c-.37-.31-.76-.58-1.15-.86a10,10,0,0,1-.9-.67l-1-.83c-.32-.29-.65-.57-1-.85a7.83,7.83,0,0,1-.62-.69,7,7,0,0,0-2.57-2.14,4.66,4.66,0,0,1-.78-.48,7,7,0,0,1-.66-.67,10.09,10.09,0,0,0-1.18-1.18c-.27-.22-.53-.46-.79-.7a15.32,15.32,0,0,0-1.17-1,13.65,13.65,0,0,0-1.28-.86,10.55,10.55,0,0,1-.89-.59,2.1,2.1,0,0,0-.83-.36,4.58,4.58,0,0,0-.89-.59,15,15,0,0,0-1.62-.74,8.65,8.65,0,0,0-1.24-.36l-.47-.11a8.75,8.75,0,0,0-1.24-.23l-.49-.07-.44-.09a11.08,11.08,0,0,0-1.26-.22l-.53-.09a9.29,9.29,0,0,0-1.17-.15,4.46,4.46,0,0,1-.51-.07,7.77,7.77,0,0,0-1.17-.11,5.29,5.29,0,0,0-1.28.17,2.63,2.63,0,0,1-.38.07,2.09,2.09,0,0,1-.43,0,6,6,0,0,0-1.19-.08,5.3,5.3,0,0,0-1.2.21,2.91,2.91,0,0,1-.38.08c-.26,0-.52,0-.78,0h-.78a3.27,3.27,0,0,1-.54,0,8.54,8.54,0,0,0-1-.07,7,7,0,0,0-1,.1,3.88,3.88,0,0,1-.46.06h-.23c-.42,0-.83,0-1.24-.07s-.88-.13-1.32-.21l-.61-.1c-.29-.05-.59-.09-.88-.17a3.38,3.38,0,0,1-.35-.19,6.43,6.43,0,0,0-.91-.45c-.27-.1-.51-.22-.76-.34l-.51-.24a7.64,7.64,0,0,0-.87-.32,3.61,3.61,0,0,1-.46-.17c-.35-.18-.69-.38-1-.58a3.82,3.82,0,0,0-.86-.76,4.88,4.88,0,0,0-.88-.45l-.29-.18a5.05,5.05,0,0,1-.58-.36,11.38,11.38,0,0,0-1-.62l-.48-.27c-.44-.27-.87-.5-1.3-.72l-.3-.15a3.42,3.42,0,0,1-.4-.26,5.89,5.89,0,0,0-1.24-.69l-.37-.15a10,10,0,0,0-1.44-.51,7.64,7.64,0,0,0-1.4-.19l-.51,0-.14,0a16.88,16.88,0,0,0-1.74-.15,6,6,0,0,0-1.12.09,2.41,2.41,0,0,1-.4,0,7.29,7.29,0,0,1-.75-.14l-.7-.15c-.24,0-.51-.13-.8-.22l-.61-.19a4,4,0,0,1-.62-.26c-.23-.11-.46-.22-.7-.31a5.45,5.45,0,0,0-1.11-.28l-.34-.07a6.8,6.8,0,0,1-.56-.39c-.19-.15-.38-.29-.58-.42a12.76,12.76,0,0,1-1.14-.85,5.08,5.08,0,0,1-.51-.52c-.16-.18-.32-.36-.49-.53a6.69,6.69,0,0,0-.88-.7,1.78,1.78,0,0,1-.31-.23c-.18-.21-.35-.46-.52-.69s-.24-.35-.37-.52-.18-.31-.29-.51a7,7,0,0,0-.49-.85,8.9,8.9,0,0,0-.75-.91c-.11-.12-.23-.24-.32-.36l-.3-.49a6.52,6.52,0,0,0-.74-1.08c-.28-.31-.56-.56-.8-.78a4.73,4.73,0,0,1-.4-.37,3.25,3.25,0,0,1-.31-.42,6.71,6.71,0,0,0-.7-.89c-.24-.25-.51-.48-.76-.71l-.2-.17a8.39,8.39,0,0,0,2.22-.89,6.09,6.09,0,0,0,1.52-1.28,5.31,5.31,0,0,0,.81-1.24c.19.23.38.45.55.62a3.15,3.15,0,0,1,.35.38c.12.16.23.33.35.5s.4.6.62.9a4,4,0,0,1,.24.41,6.83,6.83,0,0,0,.65,1c.35.45.71.89,1.06,1.32.23.28.47.54.71.79l.43.47c.25.29.52.56.77.82l.4.42c.16.17.3.34.44.5a10,10,0,0,0,.73.81,6.15,6.15,0,0,0,1.43,1l.28.16a3.87,3.87,0,0,1,.34.21,5.49,5.49,0,0,0,1.4.76,6,6,0,0,0,1.34.26,2.42,2.42,0,0,1,.46.06l1.12.19.53.09a2.54,2.54,0,0,1,.45.13,7.06,7.06,0,0,0,1.09.29,5,5,0,0,0,1.21,0h.37a3.17,3.17,0,0,1,.4.15,6.9,6.9,0,0,0,1,.34c.47.11.94.24,1.44.38l.75.18.27.06a1.76,1.76,0,0,0,.55.22,12.09,12.09,0,0,1,1.84.55,15.24,15.24,0,0,1,1.83.82c.64.33,1.26.67,1.88,1l.17.1c.6.36,1.2.71,1.82,1.06l.19.1c.61.34,1.25.69,2,1a19.79,19.79,0,0,0,4.78,1.44,20.3,20.3,0,0,0,2.33.18h1a15.28,15.28,0,0,0,1.6-.08c.5-.06,1-.15,1.51-.25l.71-.13,2.08-.31c.6-.08,1.24-.11,1.95-.14a11.94,11.94,0,0,1,1.8,0,13.26,13.26,0,0,1,2.16.48,2,2,0,0,0,2.58-1.27c.38-1-.64-2.29-1.67-2.67a11.31,11.31,0,0,0-2.54-.5,13.32,13.32,0,0,0-2.33-.07c-.14-.25-.28-.49-.43-.71l-.16-.28a5.56,5.56,0,0,0-.46-.75,6.54,6.54,0,0,0-.59-.68l-.21-.22q-.37-.47-.78-.9l-.21-.25a8.39,8.39,0,0,0-.56-.63,6,6,0,0,0-.68-.54l-.22-.16-.31-.3c-.16-.15-.32-.31-.49-.45l-.26-.26a5.78,5.78,0,0,0-.5-.49l-.38-.33-.4-.35-.27-.24-.47-.44,0,0a.43.43,0,0,1,0-.07,7.08,7.08,0,0,0-.43-.71c-.21-.3-.43-.63-.66-1l-.23-.37c-.15-.24-.3-.48-.45-.74a5.27,5.27,0,0,0-.67-.86,1.9,1.9,0,0,1-.19-.21c-.11-.2-.25-.42-.38-.64s-.21-.33-.31-.5l-.2-.4a5.92,5.92,0,0,0-.43-.83,1.62,1.62,0,0,1-.11-.28,4.69,4.69,0,0,0-.5-1l-.21-.34c-.2-.31-.4-.61-.61-.89a4.76,4.76,0,0,0-1-1,.86.86,0,0,1-.18-.14,6.09,6.09,0,0,1-.64-.74c0-.06,0-.13-.05-.2a4.83,4.83,0,0,0-.36-1,4,4,0,0,0-.69-1l-.08-.09,0-.26a7.91,7.91,0,0,0-.13-.85c-.06-.23-.14-.47-.22-.71s-.08-.25-.11-.34,0-.11.05-.16a5.92,5.92,0,0,0,.17-1,6.35,6.35,0,0,0,0-.87c0-.1,0-.2,0-.29a6.08,6.08,0,0,1,.32-.93c.07-.17.13-.35.19-.53l.13-.35.08,0a4.7,4.7,0,0,0,.85-.67,5,5,0,0,1,.78-.69l.42-.33a3.13,3.13,0,0,1,.47-.34l.52-.3a4.4,4.4,0,0,1,.51-.27l.29,0a5.63,5.63,0,0,0,.93-.17,4.34,4.34,0,0,0,.9-.35l.24-.1.17,0a4.42,4.42,0,0,0,1,.09,5.47,5.47,0,0,0,1-.14l.15,0a1.38,1.38,0,0,1,.22.1,6.77,6.77,0,0,0,.75.28,4.66,4.66,0,0,0,.89.18,2.5,2.5,0,0,1,.29.05,10,10,0,0,1,1,.53,2.74,2.74,0,0,1,.28.26c.2.19.4.38.61.55a4,4,0,0,1,.36.35,6.26,6.26,0,0,0,.51.52,5.74,5.74,0,0,0,.73.56,3.06,3.06,0,0,1,.29.21c.16.17.33.34.51.5a5.18,5.18,0,0,1,.41.4c.25.3.49.62.73.93l.08.1c0,.07.07.16.11.25a5.27,5.27,0,0,0,.51.94,5.65,5.65,0,0,0,.7.78,2.28,2.28,0,0,1,.22.22c.13.2.26.42.39.64s.2.34.31.5a1.42,1.42,0,0,1,.11.31,6.67,6.67,0,0,0,.43,1,4.52,4.52,0,0,0,.76.92l.18.19.22.47c.12.24.23.48.36.71a2.37,2.37,0,0,1,.13.34,5.31,5.31,0,0,0,.39.95c.13.25.28.49.43.72s.2.32.29.49.28.49.42.72l.29.49a7.1,7.1,0,0,0,.54.84c.09.13.17.24.24.36a10.06,10.06,0,0,0,.56.87l.25.37a2.15,2.15,0,0,1,.1.27,4.08,4.08,0,0,0,.53,1.08,2.1,2.1,0,0,0,.34.46c.17.18.33.38.49.58s.32.41.49.6a4.62,4.62,0,0,1,.24.4,6,6,0,0,0,.61.92c.18.23.37.44.56.65s.33.37.48.56.44.51.67.76.29.3.42.47a7.78,7.78,0,0,0,.74.82,4.75,4.75,0,0,1,.38.4c0,.08.08.19.12.29a4.8,4.8,0,0,0,.68,1.22c.35.45.71.89,1.08,1.33a9.88,9.88,0,0,0,.78.81c.14.14.29.28.42.43s.25.29.37.44a9.27,9.27,0,0,0,.77.89,6.62,6.62,0,0,0,1,.78,4.4,4.4,0,0,1,.41.31,4.35,4.35,0,0,1,.36.38,7.43,7.43,0,0,0,.89.88,11.46,11.46,0,0,0,1,.69,5.14,5.14,0,0,1,.49.32,2.86,2.86,0,0,1,.33.29,7.17,7.17,0,0,0,.92.75,5.28,5.28,0,0,0,1,.53,4.39,4.39,0,0,1,.43.21l.56.39.76.51a4,4,0,0,1,.41.33,9,9,0,0,0,.84.66,7.13,7.13,0,0,0,1,.51,2.73,2.73,0,0,1,.45.23,2.2,2.2,0,0,1,.19.21,4.89,4.89,0,0,0,1,.9l1.32.88a7.25,7.25,0,0,0,1,.52,4.73,4.73,0,0,1,.45.23,5.37,5.37,0,0,0,1.14.56,2.37,2.37,0,0,1,.32.13,2.57,2.57,0,0,1,.4.35,8.55,8.55,0,0,0,.8.66,4.56,4.56,0,0,1,.35.33,5.6,5.6,0,0,0,.82.73l.13.1c.39.28.77.55,1.11.81l.36.27c.3.23.58.43.83.64a5.48,5.48,0,0,0,1.2.71l.36.18c.41.29.83.54,1.26.8l.23.14c.15.09.29.19.44.3a8.58,8.58,0,0,0,1,.65,2.9,2.9,0,0,1,.36.25,5.89,5.89,0,0,0,1.15.7l.35.15c.42.19.85.37,1.28.53a5.72,5.72,0,0,0,1.36.26l.39,0c.4.12.82.21,1.24.3l.45.1c.09,0,.19.09.3.14a4.73,4.73,0,0,0,1.36.48A4.29,4.29,0,0,0,287,259.7Zm24.26,9.52a1.7,1.7,0,0,0,.39,0,8.32,8.32,0,0,0,.87-.15l.28-.06a7.41,7.41,0,0,1,1,.16,3,3,0,0,1,.39.16l.62.26a7.36,7.36,0,0,1,1,.44c.16.09.33.16.49.24a4,4,0,0,1,.52.27,5.69,5.69,0,0,1,.61.49l.29.25.54.42a4.08,4.08,0,0,1,.39.31,1,1,0,0,0,.07.16,5.39,5.39,0,0,0,.56.88,11.6,11.6,0,0,1,.72,1,4.48,4.48,0,0,0,.82.85l.09.07a.74.74,0,0,0,0,.12,4.9,4.9,0,0,0,.37,1,5.84,5.84,0,0,0,.43.71,3.17,3.17,0,0,1,.21.36,3.86,3.86,0,0,1,.21.6c.06.19.13.39.2.58.14.39.28.78.4,1.18a7.47,7.47,0,0,0,.29.79,2.74,2.74,0,0,1,.15.4,2.85,2.85,0,0,1,0,.42,5.69,5.69,0,0,0,.08.83c0,.25.1.5.16.74a4.15,4.15,0,0,1,.11.48,3.47,3.47,0,0,1,0,.51c0,.21,0,.43,0,.64v.47a5,5,0,0,1,0,.71,3,3,0,0,1-.14.45c-.08.22-.15.45-.21.67s-.08.3-.11.44-.12.51-.19.69-.16.46-.23.69-.11.35-.14.41a4.65,4.65,0,0,1-.31.39l-.41.49a5.48,5.48,0,0,1-.64.67l-.1.1a6,6,0,0,0-.53.59c-.06.06-.11.13-.17.2l-.26.07a4.75,4.75,0,0,0-.73.23l-.12,0a4.43,4.43,0,0,1-.82.28,5.64,5.64,0,0,1-1,.07h-.16a6.51,6.51,0,0,1-.93-.06,3.7,3.7,0,0,1-.46-.16c-.2-.08-.41-.16-.61-.22a6,6,0,0,1-1-.42,6.61,6.61,0,0,1-.95-.57,8.65,8.65,0,0,1-.9-.76l-.21-.18c-.17-.16-.33-.33-.5-.5a8.06,8.06,0,0,0-.7-.76l-.16-.13a1.81,1.81,0,0,1-.18-.21l-.3-.37c-.16-.21-.33-.43-.48-.65a3.81,3.81,0,0,1-.23-.45,7.8,7.8,0,0,0-.35-.71l-.33-.54c-.12-.19-.24-.38-.34-.58a5.27,5.27,0,0,1-.19-.51c-.08-.24-.16-.48-.26-.71l-.2-.46c-.1-.24-.21-.47-.29-.71l-.13-.36a7.86,7.86,0,0,1-.25-.79c-.1-.41-.19-.82-.26-1.22a4.36,4.36,0,0,1-.05-.52c0-.24,0-.47-.05-.7s-.09-.54-.15-.79a1.56,1.56,0,0,1-.08-.41s0-.1,0-.18a4.38,4.38,0,0,0,.14-1,5.58,5.58,0,0,0-.13-1.08,1.16,1.16,0,0,1,0-.18c0-.4.07-.75.13-1.05a9.32,9.32,0,0,1,.27-1.07c0-.08.14-.26.22-.41s.2-.34.29-.51l.15-.14a6,6,0,0,0,.53-.6l.15-.2a3.06,3.06,0,0,1,.43-.54,6.1,6.1,0,0,0,.54-.59l.1-.12.13,0a4.65,4.65,0,0,0,.83-.25c.22-.08.42-.19.63-.29ZM176.39,219.46a1.64,1.64,0,0,1,.11-.66,4.05,4.05,0,0,1,1.21-1.16l.24-.12a3.62,3.62,0,0,1,.64-.29,2.7,2.7,0,0,1,.91,0l.38.07a5.36,5.36,0,0,1,.89.19l.29.23a7.06,7.06,0,0,0,.74.55l.13.08a.28.28,0,0,0,0,.09l.12.16a.73.73,0,0,1,.09.13,3,3,0,0,1,.45,1,2.3,2.3,0,0,1,0,.64,1.57,1.57,0,0,1-.16.6s-.17.22-.33.36a3.29,3.29,0,0,1-.66.45,4.37,4.37,0,0,1-1.77.48,3.58,3.58,0,0,1-1.47-.17,2.56,2.56,0,0,1-1-.66l-.07,0v0c-.15-.24-.32-.47-.49-.69a2.26,2.26,0,0,1-.23-.31,5.1,5.1,0,0,1-.06-.76Z" style="fill: #1d1d1b"/>
  </g>
</svg>
