<svg xmlns="http://www.w3.org/2000/svg" viewBox="0 0 500 500">
  <title>twig-right</title>
  <g>
    <path d="M325.35,218a3.94,3.94,0,0,0-.93-1.25,5.06,5.06,0,0,0-1.23-.93l-.21-.1a4,4,0,0,0-1.17-.48,4.68,4.68,0,0,0-1.67,0l-.49.09a5.77,5.77,0,0,0-1.16.28,2,2,0,0,0-.36.19l-.44.34-.09.07a5,5,0,0,1-.44.33l-.28.18a2.1,2.1,0,0,0-.54.61,1.86,1.86,0,0,0-.21.3,4.87,4.87,0,0,0-.73,1.7,4.47,4.47,0,0,0-.07,1.19,2.93,2.93,0,0,0,.05.29,2,2,0,0,0-.34.12,2.05,2.05,0,0,0-.66-.22,2,2,0,0,0-1.79.71c-.15.18-.29.35-.47.53a4.71,4.71,0,0,0-.49.55l-.27.38-.11.16-.06.09c-.16.26-.35.52-.53.77a4.09,4.09,0,0,0-.33.54l-.07.13a5.36,5.36,0,0,1-.47.75c-.3.39-.61.77-.91,1.14l-.11.14c-.2.24-.41.46-.63.69l-.48.53c-.17.2-.35.39-.53.57l-.14.14c-.16.16-.31.32-.44.47s-.26.28-.38.42l-.15.17a6.29,6.29,0,0,1-.59.66,4.27,4.27,0,0,1-1,.69l-.25.14-.4.24-.12.09a3.77,3.77,0,0,1-.9.5,3.54,3.54,0,0,1-.83.16,4.53,4.53,0,0,0-.76.1c-.32.07-.66.12-1,.18l-.46.08a4.07,4.07,0,0,0-.82.21,5.45,5.45,0,0,1-.79.22,3.22,3.22,0,0,1-.76,0h-.49a2,2,0,0,0-.34,0,3,3,0,0,0-.81.27,6.23,6.23,0,0,1-.73.24c-.5.12-1,.25-1.53.4l-.4.1-.51.12a1.39,1.39,0,0,0-.52.21,13.88,13.88,0,0,0-2.16.64,15.68,15.68,0,0,0-2,.91c-.67.35-1.32.7-2,1.09l-.19.1c-.58.35-1.17.7-1.72,1l-.23.12c-.59.33-1.17.64-1.79.92a17.4,17.4,0,0,1-4.3,1.3,18.59,18.59,0,0,1-2.16.16h-.76a13.23,13.23,0,0,1-1.46-.07c-.45,0-.9-.13-1.41-.23l-.73-.14-2.13-.31c-.65-.09-1.29-.12-2.07-.16a2,2,0,0,0,1.6-1c.11-.19.22-.38.33-.55l.07-.1.22-.39a3.89,3.89,0,0,1,.3-.5,6.44,6.44,0,0,1,.47-.53,1.59,1.59,0,0,1,.13-.13l.14-.16c.22-.27.45-.53.74-.85l.24-.29c.14-.16.27-.32.39-.44a3.63,3.63,0,0,1,.5-.39,3.59,3.59,0,0,0,.33-.25l.11-.1.26-.25.13-.13.32-.29a3.76,3.76,0,0,0,.29-.28l.1-.11c.11-.11.21-.22.39-.38l.32-.27c.16-.13.32-.27.44-.39l.26-.23c.16-.14.32-.28.47-.43l.15-.14a2.16,2.16,0,0,0,.29-.37l.09-.15a3.73,3.73,0,0,1,.31-.52c.23-.34.48-.7.72-1.11l.23-.36c.16-.26.32-.52.47-.78a3.36,3.36,0,0,1,.4-.5,3.34,3.34,0,0,0,.35-.4l.14-.22.2-.34.12-.19c.12-.19.24-.38.38-.63.05-.1.1-.19.14-.28l.06-.12.07-.13a2.91,2.91,0,0,1,.28-.56l.07-.12a2.55,2.55,0,0,0,.23-.54,2.76,2.76,0,0,1,.33-.67l.19-.31c.18-.27.35-.53.53-.76a2.44,2.44,0,0,1,.55-.51,4,4,0,0,0,.46-.38,8.18,8.18,0,0,0,.85-1,1.77,1.77,0,0,0,.27-.53,2.33,2.33,0,0,0,.08-.31,3,3,0,0,1,.23-.62,2.25,2.25,0,0,1,.37-.49l0-.07a1.94,1.94,0,0,0,.54-1.13l0-.29a4.65,4.65,0,0,1,.08-.56c.05-.19.11-.38.18-.58l0-.1.08-.24a1.94,1.94,0,0,0,0-1.26s0,0,0-.06h0a5.06,5.06,0,0,1-.1-.58,3.81,3.81,0,0,1,.05-.64,3.52,3.52,0,0,0,0-.45,2.42,2.42,0,0,0-.05-.47,8.49,8.49,0,0,0-.42-1.22c-.05-.13-.09-.26-.14-.41l0-.1-.13-.35a2,2,0,0,0-.74-.92l-.11-.07a3.47,3.47,0,0,1-.5-.38,6.73,6.73,0,0,0-1-.91l-.3-.24-.08-.06-.1-.08a3.74,3.74,0,0,0-.69-.46l-.43-.25a5.36,5.36,0,0,0-.79-.41l-.23-.07a4.85,4.85,0,0,0-.55-.09,3.66,3.66,0,0,1-.67-.12,2.75,2.75,0,0,1-.5-.2l-.2-.09-.23-.1a2.18,2.18,0,0,0-1.07-.09.63.63,0,0,0-.19,0,2.41,2.41,0,0,1-.54.05,3.67,3.67,0,0,1-.52-.08l-.1,0-.16,0a2,2,0,0,0-.94,0,3.19,3.19,0,0,0-.5.21l-.1,0-.34.13-.09,0a3.09,3.09,0,0,1-.53.09l-.11,0a2.44,2.44,0,0,0-.55.12l-.25.1a9.78,9.78,0,0,0-1.12.61,3.47,3.47,0,0,0-.64.53c-.16.15-.32.31-.45.41a4.94,4.94,0,0,0-.55.52l-.08.09a4.52,4.52,0,0,1-.38.38,3.75,3.75,0,0,1-.48.36l-.09.07a2.94,2.94,0,0,0-.41.31l-.14.13a5.29,5.29,0,0,1-.41.4l-.08.07a6.31,6.31,0,0,0-.51.52l-.6.76-.23.3a2.2,2.2,0,0,0-.17.25,4.68,4.68,0,0,0-.21.44,3,3,0,0,1-.3.57,3.46,3.46,0,0,1-.5.55,3.19,3.19,0,0,0-.4.43,1,1,0,0,0-.08.11c-.14.22-.29.47-.43.71s-.15.26-.24.39l-.09.15a3.17,3.17,0,0,0-.27.66,3.37,3.37,0,0,1-.24.54,2.22,2.22,0,0,1-.43.51l-.13.13-.19.21a2.8,2.8,0,0,0-.27.4l-.16.34-.17.36q-.09.19-.21.42a3.28,3.28,0,0,0-.25.58l0,.12a3.17,3.17,0,0,1-.25.63c-.1.19-.22.37-.38.62l-.09.15c-.08.14-.17.27-.25.44s-.2.35-.3.51a.67.67,0,0,0-.07.11l-.1.18a4,4,0,0,0-.23.39,5.28,5.28,0,0,1-.39.6l-.08.11c-.1.14-.19.28-.29.45s-.3.48-.46.71l-.27.4a2.39,2.39,0,0,0-.13.21,3.78,3.78,0,0,0-.2.52,2.18,2.18,0,0,1-.26.56,1.45,1.45,0,0,0-.17.26c-.21.21-.4.46-.63.74s-.25.32-.39.47l-.14.18c-.07.11-.25.38-.37.61a4.92,4.92,0,0,1-.42.63c-.15.2-.31.37-.44.52s-.41.45-.61.7a5.47,5.47,0,0,1-.45.51l-.18.2a6.28,6.28,0,0,0-.47.54,7.23,7.23,0,0,1-.63.68c-.17.17-.33.34-.47.51a2.46,2.46,0,0,0-.22.34c-.05.11-.11.25-.18.44a3,3,0,0,1-.41.74q-.5.65-1,1.26a8.42,8.42,0,0,1-.67.69l-.09.1c-.15.14-.3.29-.38.38s-.31.36-.49.58a7,7,0,0,1-.62.72,3.58,3.58,0,0,1-.59.47l-.18.13a5,5,0,0,0-.47.36,5.21,5.21,0,0,0-.47.47l-.1.11a4.9,4.9,0,0,1-.64.65,7.4,7.4,0,0,1-.74.52c-.23.14-.46.28-.66.43a4.69,4.69,0,0,0-.53.47,5.79,5.79,0,0,1-.68.55,4.13,4.13,0,0,1-.73.36l-.12.05a4.62,4.62,0,0,0-.6.33l-.5.34-.46.31-.3.21a4.36,4.36,0,0,0-.62.49c-.22.17-.42.36-.65.51a5.15,5.15,0,0,1-.62.32l-.16.08a3.13,3.13,0,0,0-.7.38l-.08.06a3.73,3.73,0,0,0-.45.45,2.86,2.86,0,0,1-.59.56l-1.33.89a4.54,4.54,0,0,1-.62.34l-.11.05-.11,0a6,6,0,0,0-.58.32,3.38,3.38,0,0,1-.74.34,5.87,5.87,0,0,0-.56.25l-.11.07a3.94,3.94,0,0,0-.69.57l-.11.09a3.93,3.93,0,0,1-.52.43,5.09,5.09,0,0,0-.59.55,3.62,3.62,0,0,1-.6.52l-.23.18c-.35.25-.69.49-1,.72l-.64.48c-.22.17-.44.33-.61.48a3.28,3.28,0,0,1-.78.44,5.59,5.59,0,0,0-.67.37c-.34.24-.69.44-1.05.66l-.32.19a6.55,6.55,0,0,0-.55.38,8.31,8.31,0,0,1-.85.53,3.85,3.85,0,0,0-.59.4,4.58,4.58,0,0,1-.76.47l-.38.17c-.38.17-.77.33-1.12.46a3.49,3.49,0,0,1-.84.15l-.57.06-.25.06c-.35.11-.72.18-1.1.27l-.45.1-.21.05-.44.19-.13.07a2.93,2.93,0,0,1-.8.29,2.34,2.34,0,0,1-.84-.06,3,3,0,0,0-.89-.07,4.18,4.18,0,0,0-.57.14l-.1,0a4.27,4.27,0,0,1-.85.17,4.08,4.08,0,0,1-.93-.06,5.66,5.66,0,0,0-.6,0h-.12a2.76,2.76,0,0,0-.71.12l-.14,0a2.45,2.45,0,0,1-.79.13,3.18,3.18,0,0,1-.83-.18l-.12,0a2.59,2.59,0,0,0-.62-.13c-.46-.05-.91-.07-1.29-.08l-.33,0-.53-.05-.67-.09a2.1,2.1,0,0,0-.9.14,3.7,3.7,0,0,0-.35.17,2.51,2.51,0,0,1-.73.26l-.25.06c-.45.09-.83.18-1.26.3l-.6.15a5.59,5.59,0,0,0-.94.24c-.2.07-.41.13-.72.21l-.13,0c-.24.07-.48.14-.73.24l-.13.06a4.2,4.2,0,0,0-.44.26l-.13.09a3.84,3.84,0,0,1-.68.41,3.7,3.7,0,0,1-.68.21,3,3,0,0,0-.92.34,1.94,1.94,0,0,0-.55.48l0,0a2.6,2.6,0,0,1-.55.48,2.87,2.87,0,0,1-.67.28l-.47.16a2,2,0,0,0-.82.62h0l-.13.14a4,4,0,0,1-.52.49,3.17,3.17,0,0,1-.52.27,2,2,0,0,0-1.19,1.85,2.07,2.07,0,0,0,.35,1.09l-.73.48h0l-.42-.08a2.41,2.41,0,0,0-.38,0,8.76,8.76,0,0,0-1.27.2,3.25,3.25,0,0,0-.77.28l-.16.07-.34.14a8.59,8.59,0,0,0-1.33.59l-.17.08-.28.13a4.82,4.82,0,0,0-.7.38,6,6,0,0,0-.67.53l-.38.32a5.37,5.37,0,0,1-.45.35,6.8,6.8,0,0,0-.62.51,2,2,0,0,0-.45.69,3.6,3.6,0,0,1-.3.48c-.27.33-.53.68-.81,1.09a3.41,3.41,0,0,1-.41.43,1.49,1.49,0,0,0-.28.23,2.05,2.05,0,0,0-.58,1.13,2.22,2.22,0,0,1-.2.56,2.91,2.91,0,0,1-.28.47l-.11.16c-.09.16-.2.33-.29.53a5.26,5.26,0,0,0-.28.81c-.06.16-.11.32-.19.52-.15.42-.3.83-.43,1.27a4,4,0,0,1-.21.58l-.05.11a4.34,4.34,0,0,0-.21.62,4.44,4.44,0,0,0-.08.65v.15a3.1,3.1,0,0,1-.05.58c0,.2-.08.39-.15.67a3.75,3.75,0,0,0-.14.67,4.73,4.73,0,0,0,0,.9c0,.16,0,.33,0,.45v.47a6.71,6.71,0,0,0,0,.93,4.14,4.14,0,0,0,.25.91c.06.17.12.35.16.51l.09.33a.36.36,0,0,0,0,.11l0,.21a6.78,6.78,0,0,0,.22.72c.06.14.1.29.15.43a.5.5,0,0,0,0,.13l0,.13a5.21,5.21,0,0,0,.2.54l.09.16a5.5,5.5,0,0,0,.51.65l.33.4a6.37,6.37,0,0,0,.74.8l.21.2c.12.12.23.26.35.4l.1.12.1.12a2.16,2.16,0,0,0,.89.6l.26.07.16,0,.43.13.14.06.06,0a5.27,5.27,0,0,0,1.2.37,7.11,7.11,0,0,0,1.2.1h.5a5.73,5.73,0,0,0,1.16-.1,7.48,7.48,0,0,0,.76-.25l.49-.18a7.39,7.39,0,0,0,1.27-.55,8.69,8.69,0,0,0,1.2-.73,11.22,11.22,0,0,0,1.07-.89l.23-.2.39-.39.16-.16a.69.69,0,0,0,.11-.13c.15-.17.29-.34.51-.56a1.9,1.9,0,0,0,.33-.3,2.08,2.08,0,0,0,.27-.32l.26-.31.07-.1c.17-.22.35-.46.53-.73a5,5,0,0,0,.37-.7l0-.09a4.66,4.66,0,0,1,.22-.45l.19-.31.1-.16a8.45,8.45,0,0,0,.46-.8,5,5,0,0,0,.24-.6l0-.13a5,5,0,0,1,.2-.54l.07-.18a4,4,0,0,0,.51-.25l.94-.58a1.74,1.74,0,0,0,.38.33,2,2,0,0,0,2.32-.14c.23-.18.45-.36.68-.56a10.11,10.11,0,0,1,1.08-.85,16.18,16.18,0,0,1,1.39-.86l.67-.39a23.28,23.28,0,0,1,2.13-1.14,6.73,6.73,0,0,1,1.45-.41c.3-.07.59-.13.86-.21a13.69,13.69,0,0,1,2.34-.46,7.81,7.81,0,0,0,1.07-.22l.13,0a6.28,6.28,0,0,1,1.14-.24c.38,0,.76-.08,1.18-.14s.83-.12,1.19-.16.85,0,1.21,0a9.64,9.64,0,0,0,1.22,0l1.12,0,1.29-.06c.43,0,.85-.1,1.27-.17l1.07-.16a5.87,5.87,0,0,0,1.15-.29l.21-.07a8.22,8.22,0,0,1,1-.29c.16,0,.33-.06.49-.09l.31-.05a15.2,15.2,0,0,0,1.58-.34,9.78,9.78,0,0,0,1.27-.53,8.42,8.42,0,0,1,.87-.4,5.79,5.79,0,0,1,1.09-.27,5,5,0,0,0,1.27-.38,4.71,4.71,0,0,1,.45-.22l.31-.15a13.1,13.1,0,0,0,1.38-.72,5,5,0,0,0,.85-.72l.19-.18a5.8,5.8,0,0,1,.89-.79,5.74,5.74,0,0,1,1.2-.56l.15-.06a4.51,4.51,0,0,0,1-.49,13.07,13.07,0,0,0,1.09-.9c.3-.27.59-.53.89-.76s.75-.5,1-.68a10.32,10.32,0,0,0,1.12-.74,4.84,4.84,0,0,0,.91-1,5.46,5.46,0,0,1,.83-1c.32-.26.67-.49,1.07-.76a10.5,10.5,0,0,0,1-.73,10.22,10.22,0,0,1,.84-.63l.14-.11a12.66,12.66,0,0,0,1.07-.79l1-.88c.3-.28.61-.54,1-.84a6.22,6.22,0,0,0,.7-.75l.14-.17a7.18,7.18,0,0,1,.88-.95,7.63,7.63,0,0,1,1.1-.7l.1-.05a5.05,5.05,0,0,0,1-.62,6.31,6.31,0,0,0,.78-.77l.16-.17a7.27,7.27,0,0,1,.92-.92c.3-.25.59-.51.9-.81s.66-.61,1-.9a13.33,13.33,0,0,1,1.11-.74l.19-.12.87-.56a1.93,1.93,0,0,0,.87-.43,3.08,3.08,0,0,1,.52-.34,13.86,13.86,0,0,1,1.46-.67,6.09,6.09,0,0,1,.82-.23l.1,0a5,5,0,0,0,.59-.14,6,6,0,0,1,.85-.15l.08,0,.65-.09.47-.1a9.62,9.62,0,0,1,1-.18l.14,0,.59-.1c.31-.05.59-.1.9-.12a5.6,5.6,0,0,0,.73-.09,6,6,0,0,1,.9-.08,3.55,3.55,0,0,1,.76.12,4.25,4.25,0,0,0,.78.12h.11a4.47,4.47,0,0,0,.67-.06,3.64,3.64,0,0,1,.68-.07h.13a3.28,3.28,0,0,1,.76.14l.15,0a5,5,0,0,0,.64.11c.3,0,.59,0,.89,0H275c.2,0,.4,0,.6,0l.1,0a5.39,5.39,0,0,1,1.39,0h.07a5.71,5.71,0,0,0,.87.09l.53,0,1.08-.06c.48-.06,1-.15,1.46-.24l.34-.05.41-.07a9,9,0,0,0,.9-.18l.1,0a3.85,3.85,0,0,0,.73-.37c.17-.09.39-.21.6-.3s.56-.23.83-.36l.56-.27a5.47,5.47,0,0,1,.64-.23l.11,0a4.83,4.83,0,0,0,.68-.26c.37-.2.73-.41,1.12-.64a1.72,1.72,0,0,0,.49-.4,1.94,1.94,0,0,1,.46-.41,2.89,2.89,0,0,1,.53-.27,1.22,1.22,0,0,0,.28-.14l.22-.14a6.52,6.52,0,0,0,.74-.45,9.85,9.85,0,0,1,.91-.54l.14-.08a4.23,4.23,0,0,0,.41-.23c.39-.24.78-.44,1.15-.63l.29-.15a5.05,5.05,0,0,0,.58-.36l.12-.08a4.14,4.14,0,0,1,.8-.45l.41-.16a8,8,0,0,1,1.15-.41,5.34,5.34,0,0,1,1-.14c.2,0,.4,0,.66-.05l.31,0a11.37,11.37,0,0,1,1.39-.11,5.24,5.24,0,0,1,.76.07,5.56,5.56,0,0,0,.62.06h.22a7.38,7.38,0,0,0,.88-.15l.16,0c.2,0,.38-.09.63-.13s.63-.16,1.06-.29l.42-.14h0a4.2,4.2,0,0,0,.79-.31L306,241a4.27,4.27,0,0,1,.53-.24,3.61,3.61,0,0,1,.8-.19l.47-.1a1.94,1.94,0,0,0,.42-.17,7.44,7.44,0,0,0,.66-.44l.19-.14a3.11,3.11,0,0,1,.43-.31,14.25,14.25,0,0,0,1.31-1,6.06,6.06,0,0,0,.76-.76l.37-.4a3.51,3.51,0,0,1,.58-.46,3.77,3.77,0,0,0,.63-.49l.11-.12c.17-.19.32-.41.48-.62l.13-.18.06-.09c.09-.14.19-.27.29-.41l.08-.1c.09-.14.2-.33.32-.55l.09-.18a4.48,4.48,0,0,1,.34-.59,6.17,6.17,0,0,1,.59-.71l.07-.08a4.72,4.72,0,0,0,.37-.43.83.83,0,0,0,.08-.12l.29-.46.07-.12a4.4,4.4,0,0,1,.49-.73c.2-.23.41-.41.61-.6a5.85,5.85,0,0,0,.57-.54,4.69,4.69,0,0,0,.49-.64,6,6,0,0,1,.49-.64c.14-.14.3-.28.45-.41l.38-.34a2,2,0,0,0-.48-3.31c0-.05,0-.1,0-.14l.59.06a5.4,5.4,0,0,0,2.28-.28,4.55,4.55,0,0,0,1.31-.72,2,2,0,0,0,.81-.75c.12-.18.25-.35.39-.54a4.21,4.21,0,0,0,.39-.55,3.2,3.2,0,0,0,.16-.39,4.45,4.45,0,0,0,.14-1.18l0-.34A3.76,3.76,0,0,0,325.35,218Z" style="fill: #a7723c"/>
    <path d="M314.65,278h0a2,2,0,0,1-.15-.49,2.21,2.21,0,0,1,0-.59c0-.05,0-.11,0-.16a2.26,2.26,0,0,0,0-.25,2.22,2.22,0,0,0,0-.37c-.05-.25-.11-.48-.18-.76l-.12-.45,0-.11a4.08,4.08,0,0,0-.17-.42,3.71,3.71,0,0,1-.21-.57c-.07-.42-.15-.85-.2-1.27a4.42,4.42,0,0,1,0-.73c0-.17,0-.35,0-.52s0-.3,0-.46a5.64,5.64,0,0,1,0-.82,3.33,3.33,0,0,1,.14-.7l.06-.24a1.91,1.91,0,0,0,.06-.48,2.18,2.18,0,0,0-.06-.52,2,2,0,0,1,0-.64c.08-.45.13-.87.17-1.32a1.88,1.88,0,0,1,.21-.6,2,2,0,0,0,0-1.53,1.91,1.91,0,0,1-.15-.58,3.75,3.75,0,0,1,0-.59,3.29,3.29,0,0,0,0-.7.59.59,0,0,0,0-.13,5,5,0,0,0-.14-.62l-.05-.19a4.73,4.73,0,0,1-.13-.49l-.05-.19a11.91,11.91,0,0,0-.32-1.17c-.05-.17-.09-.38-.14-.65a3.54,3.54,0,0,0-.1-.49,2.26,2.26,0,0,0-.13-.33c0-.07-.21-.35-.32-.5s-.24-.35-.34-.53-.16-.35-.23-.52a.65.65,0,0,0,0-.13,3.52,3.52,0,0,0-.27-.55,1,1,0,0,0-.08-.14,3.69,3.69,0,0,0-.54-.58l-.11-.12-.23-.23c-.11-.12-.21-.25-.34-.42a6.82,6.82,0,0,0-.49-.58l-.1-.09a5,5,0,0,0-.48-.34l-.12-.08a3.77,3.77,0,0,1-.41-.28l-.33-.31a5.69,5.69,0,0,0-.64-.55,4.11,4.11,0,0,1-.43-.37c-.11-.11-.22-.22-.33-.31a1.94,1.94,0,0,0-.67-.38l-.16,0-.17-.06a2.56,2.56,0,0,1-.49-.18,6.7,6.7,0,0,0-.8-.3l-.15-.05-.21-.07a2,2,0,0,0-2.36.29,2,2,0,0,0-.6,1.27,3.35,3.35,0,0,0-.54-.08l-.07-.12-.13-.24a2,2,0,0,0-.12-.19s0,0,0-.05-.28-.42-.44-.64l-.18-.27a5.16,5.16,0,0,0-.47-.66c0-.06-.11-.11-.15-.17a2,2,0,0,0-.55-.49l-.25-.17-.61-.37a2.16,2.16,0,0,0-1-.67l-.15-.07-1.29-.59c-.12,0-.23-.1-.37-.16l-.15-.07a5.15,5.15,0,0,0-.68-.29,10.24,10.24,0,0,0-1.33-.37l-.06,0a6.75,6.75,0,0,0-1.22-.17h-.65a2.78,2.78,0,0,0-.41,0,1.59,1.59,0,0,0-.38.07l-.25.08a2,2,0,0,0-.68.33l-.44.34-.41.3a1.78,1.78,0,0,0-.35.32l-.32.34a6.54,6.54,0,0,0-.73.82,2.1,2.1,0,0,0-.36.93,1.82,1.82,0,0,1-.11.33,3.55,3.55,0,0,1-.23.42,2,2,0,0,0-.44,1.25c0,.17,0,.39,0,.56v.28a2,2,0,0,0,.21.81l.06.2a2.45,2.45,0,0,0,.35,1.59l.18.67c.05.18.1.36.17.57a4.62,4.62,0,0,1,.17.69,5.5,5.5,0,0,0,.15.57c.05.15.09.31.14.47l.05.17c0,.18.08.35.13.52a1.88,1.88,0,0,0,.12.3,2.8,2.8,0,0,0,.21.34,2.07,2.07,0,0,1,.31.61,4.72,4.72,0,0,1,.1.83c0,.15,0,.31.05.46a12.2,12.2,0,0,1,.12,1.28,3.57,3.57,0,0,0,.07.56,3.12,3.12,0,0,1,.06.74,1,1,0,0,0,0,.17v.39a3.19,3.19,0,0,1,0,.81,1.69,1.69,0,0,1-.26.58,4.23,4.23,0,0,0-.24.4,2.11,2.11,0,0,0-.17.5l0,.16c0,.08,0,.17-.05.26l0,.14a4.14,4.14,0,0,1-.08.44,2.89,2.89,0,0,1-.2.55,3,3,0,0,0-.15.42,2,2,0,0,0,0,.91.36.36,0,0,1,0,.11h0a1.93,1.93,0,0,1,0,.61,3.5,3.5,0,0,1-.07.45,1.72,1.72,0,0,0,0,.24,3.7,3.7,0,0,0-.07.57,4.37,4.37,0,0,0,0,.78,3.94,3.94,0,0,1,0,.52c0,.33,0,.66.06,1l0,.32a1.91,1.91,0,0,1,0,.59,2.34,2.34,0,0,0,0,.38,2.05,2.05,0,0,0,.27,1,2,2,0,0,1,.27.61c0,.17.05.34.08.52,0,0,0,.1,0,.12a3.93,3.93,0,0,0,.12.58,2.6,2.6,0,0,1,.07.58,2,2,0,0,0,.52,1.35,2.09,2.09,0,0,1,.38.49,1.86,1.86,0,0,1,.12.63c0,.06,0,.11,0,.17a2.18,2.18,0,0,0,.32.81,3.59,3.59,0,0,0,.25.33l.09.12c.07.1.14.19.25.36.23.35.48.71.73,1a8.84,8.84,0,0,0,.71.8l.13.14.08.08c.13.13.26.26.4.38l.57.52.64.52.12.09a2.42,2.42,0,0,1,.24.19,4.3,4.3,0,0,1,.45.43,3.87,3.87,0,0,0,.49.43,2,2,0,0,0,.76.34,2.49,2.49,0,0,1,.47.21,4.1,4.1,0,0,1,.41.28,3.79,3.79,0,0,0,.45.34,1.81,1.81,0,0,0,.59.25l.31.05h.05a2.22,2.22,0,0,1,.55.13l.35.14a5.73,5.73,0,0,0,.88.33,4.51,4.51,0,0,0,.82.18l.43.09a3,3,0,0,1,.61.21l.4.15a1.87,1.87,0,0,0,.4.07c.29,0,.66,0,1,.06h.06a2.58,2.58,0,0,0,.4,0,3.48,3.48,0,0,0,.4-.12,2.26,2.26,0,0,1,.58-.13,2.23,2.23,0,0,1,.36,0,2,2,0,0,0,1.6-.37,2.11,2.11,0,0,1,.41-.24c.16-.06.34-.1.46-.14a3.31,3.31,0,0,0,.45-.12,1.48,1.48,0,0,0,.29-.12l.37-.17.13-.05a4.34,4.34,0,0,0,.67-.35l.31-.19.09,0a5.81,5.81,0,0,0,.63-.43A6.06,6.06,0,0,0,311,287l.27-.27.07-.07A6.27,6.27,0,0,0,312,286l.2-.22c.2-.23.38-.47.55-.7l.13-.18.07-.09.08-.12a2.58,2.58,0,0,0,.19-.37l.11-.29a3.31,3.31,0,0,1,.18-.42,4.66,4.66,0,0,1,.25-.4,2.91,2.91,0,0,0,.39-.64,1.17,1.17,0,0,0,.05-.11l.11-.27c0-.06.09-.21.11-.27a2.41,2.41,0,0,0,.19-.59,5.33,5.33,0,0,0,.1-.79l.1-1c0-.19,0-.37,0-.54A2.09,2.09,0,0,0,314.65,278Z" style="fill: #00a550"/>
    <path d="M238.2,261.18l-.26.18-.23.35a2,2,0,0,1-3.43-1.86v0l.16-.38.05-.1.12-.19c.09-.14.19-.28.3-.43a4,4,0,0,1,.84-.8c.19-.14.28-.19.42-.28l.21-.13.08-.09c.34-.48.67-.92,1.08-1.47l.61-.77.08-.09,0,0,.09-.1h0l0,0,.18-.14.34-.27.65-.51.33-.27.29-.21.9-.66a1.25,1.25,0,0,1,.26-.17,1.47,1.47,0,0,1,1.17-.21c.93.11,1.22.52,1.35,1.38a3.06,3.06,0,0,1-.3,1c-.23.53-.73.67-1,1l-.23.28a2.91,2.91,0,0,1-.2.27l-.52.64-.27.33-.11.13,0,0h0l0,.09-.41.72c-.28.44-.64,1-1,1.46a4.17,4.17,0,0,1-1.08,1.06C238.54,261,238.21,261.17,238.2,261.18Zm-52.44,19.88c0,.1-.09.19-.13.27a.66.66,0,0,1-.1.18.58.58,0,0,0-.13.25,1.46,1.46,0,0,0,0,.55,1.27,1.27,0,0,0,1.54.92.65.65,0,0,0,.24-.15c.05,0,.18-.18.29-.3s.22-.25.34-.4a8.59,8.59,0,0,0,.67-1c.11-.19.2-.39.3-.59a3.47,3.47,0,0,0,.28-.73,3.55,3.55,0,0,0,.09-1.84,2.13,2.13,0,0,0-1-1.4,2,2,0,0,0-1.12-.26,2.23,2.23,0,0,0-.75.18,2.52,2.52,0,0,0-.7.47c-.15.14-.26.26-.34.35a2.08,2.08,0,0,0-.22.3,1.48,1.48,0,0,0,.13,1.7,1.41,1.41,0,0,0,.9.51l-.06.24A5.55,5.55,0,0,1,185.76,281.06Zm.44-2.12s0,0,0,0Zm-2.65,10h0l.11,0h0l.17-.05a2.37,2.37,0,0,0,.34-.1l.47-.19.23-.11.05,0h0l.13-.08h0l.06,0,.22-.17c.14-.11.27-.22.4-.31l.35-.28.14-.15.57-.58,0,0a1.46,1.46,0,0,0-2-2.1l-.59.55-.11.09-.05,0-.41.29-.2.14h-.05l-.1.05s-.19.05-.28.08l-.08,0s0,0,0,0H183l-.18,0h0l-.16-.15c-.09-.09-.32-.3-.45-.4a3.87,3.87,0,0,0,0-.42l0-.11,0-.18,0,0,0-.18a2.12,2.12,0,0,1-.1-.4l0-.21,0-.82a3.09,3.09,0,0,0,.14-.51c.09-.28.13-.57.2-.85l.05-.22,0-.1v0l.14-.38.13-.4,0-.09s0-.08,0-.09l.06-.23.1-.43.05-.2,0-.06.11-.22.18-.33.09-.16c.07-.14.06-.15.1-.23l.14-.36c.05-.11.09-.22.14-.32l0-.08,0-.05.65-.86.31-.4.07-.09,0-.05.08-.08a4.24,4.24,0,0,0,.55-.61l0,0a1.09,1.09,0,0,0,.06-1.13,1.11,1.11,0,0,0-1.49-.45,4.66,4.66,0,0,0-.65.49l-.16.13h0l-.11.12,0,0-.08.08-.35.37-.19.2-.18.2-.1.11-.43.47-.11.13h0l-.11.17v0l0,0,0,.08-.17.31-.15.3-.05.12-.11.15-.23.33-.26.43,0,.06h0l-.06.16v0l0,.1-.07.19a3.79,3.79,0,0,0-.12.36l-.05.17a.38.38,0,0,1,0,.12l0,.1-.17.39-.17.39,0,0-.05.17,0,.1,0,.21c-.08.28-.14.57-.24.84a6.15,6.15,0,0,0-.3,1.2l0,.88v.09h0l0,.3,0,.11,0,.22c0,.13.06.29.1.45l.06.24h0v.09a1.4,1.4,0,0,1,0,.28l0,.36a3.37,3.37,0,0,0,.14.57l0,.14.11.2,0,0,.05.09.06.09.15.19a3,3,0,0,0,.34.36l.18.16.09.08.13.12a3.64,3.64,0,0,0,1.09.77l.21.08.05,0h0l.14,0h0l.19,0,.18,0,.09,0h.18a6.06,6.06,0,0,0,.74,0Zm107.08-26.4a1.76,1.76,0,0,1,0-.31c0-.55-.07-1-.14-1.5,0-.13,0-.26,0-.38a6.13,6.13,0,0,0-.15-1.09,3.79,3.79,0,0,0-.6-1.26l-.07-.11c0-.13-.07-.26-.1-.39-.08-.28-.15-.57-.25-.85,0-.13-.06-.26-.09-.4a6.42,6.42,0,0,0-.23-.86c-.07-.21-.12-.43-.18-.64l-.15-.54a6.19,6.19,0,0,1-.13-.62c0-.16,0-.32-.08-.47a5.41,5.41,0,0,0-.24-.81.65.65,0,0,0-.07-.16v-.28c0-.17,0-.35,0-.49l0-.06a5.21,5.21,0,0,0,.46-.82,6.75,6.75,0,0,0,.24-.72.41.41,0,0,0,0-.17,4.89,4.89,0,0,1,.51-.56l.21-.21c.07-.07.13-.15.2-.23l.55-.41.35-.27.28-.09h.85a4.47,4.47,0,0,1,.83.13l.1,0a8.16,8.16,0,0,1,1.06.3c.23.08.44.19.66.29l.45.2,1.18.54a3.37,3.37,0,0,0,.42.17,2,2,0,0,0,.54.49l.29.17.35.21.21.15h0l.23.27a5.64,5.64,0,0,1,.38.57c.07.11.37.49.46.65a.82.82,0,0,0,.12.2c.09.17.2.35.3.53s.19.3.29.45a6.36,6.36,0,0,1,.08.92l.06,1.09,0,.32v.13l-.06.66c0,.6-.22,1.78-.3,2.51l-.09.7-.12.57-.17.77,0,.09v0l0,.21v.22c0,.07,0,.34,0,.55l0,.41v.12h0a1.5,1.5,0,0,1,0,.24l-.05.35c-.06.46-.11.92-.17,1.37,0,.21-.06.53-.08.82l0,.22v.28h0v.06l0,.35q0,.33.09.69l.06.35v.25a8.2,8.2,0,0,0,.21,1.72c.05.2.11.4.17.6l.08.3.05.15,0,.07v0l.08.25h0v0l.13.27c.07.14.18.31.27.45l.11.17.06.09.07.09v0l0,0,0,.17.15.58.09.33,0,.16,0,.08v0h0l0,.09.24.44.2.37a2.05,2.05,0,0,0,.15.26l.28.76c0,.11.08.23.12.33l0,.12c.05.38.09.69.12.9a2.07,2.07,0,0,0,.07.34,1.43,1.43,0,0,0,2.75-.11l.06-.3a2.48,2.48,0,0,0,.05-.34,6.55,6.55,0,0,0,0-1V275h0l-.06-.26h0v0l0-.16c0-.11-.07-.22-.1-.34s-.14-.5-.21-.78-.15-.36-.22-.55l-.21-.49c0-.13-.11-.25-.17-.38v-.18l0-.18c0-.16-.05-.32-.08-.49l0-.27,0-.07h0l-.06-.2v0l0-.06-.1-.23-.12-.23-.09-.16-.09-.15,0-.07v0a.59.59,0,0,1,0-.06l-.05-.12,0-.07,0-.15-.06-.31-.12-.62,0-.08h0v-.24c0-.07,0-.31,0-.54V267l0-.32a6.57,6.57,0,0,1-.05-.66v-.33l0-.12.08-.56.24-1.41.06-.35a2.6,2.6,0,0,0,.05-.47l0-.35v-.24l0-.29s0,0,0-.16v-.15l.15-.61.08-.34,0-.17,0-.09,0-.21.09-.69.21-1.44.1-.67c0-.27.05-.53.08-.79s.05-.44.07-.66l0-.16v-.36l0-.32c0-.48-.06-.94-.09-1.4a9.89,9.89,0,0,0-.14-1.25v0a1.76,1.76,0,0,0-.06-.25v0l-.05-.15v0l.21.1c.17.07.34.12.52.18a4.37,4.37,0,0,1,.57.21,4.82,4.82,0,0,0,.78.29c.1,0,.21.06.27.08l.21.2a5.89,5.89,0,0,0,.7.6,2.83,2.83,0,0,1,.37.33c.15.14.31.29.48.43a7.09,7.09,0,0,0,.69.49,2.53,2.53,0,0,1,.27.18,2.6,2.6,0,0,1,.3.36c.15.19.29.37.45.55s.28.29.43.44a3,3,0,0,1,.32.33,2.83,2.83,0,0,1,.15.35c.09.24.2.49.32.74s.29.48.45.72.18.25.2.29a3.23,3.23,0,0,1,.06.33,5.48,5.48,0,0,0,.21.89c.12.37.21.77.31,1.18,0,.2.1.4.16.6s.11.38.14.56a1.74,1.74,0,0,1,0,.32,6.91,6.91,0,0,0,0,.91,4.11,4.11,0,0,0,.28,1.15A3.83,3.83,0,0,0,312,266c0,.39-.08.77-.15,1.17a3.83,3.83,0,0,0,0,1.42.24.24,0,0,1,0,.08l-.06.24a5,5,0,0,0-.2,1,9.84,9.84,0,0,0,0,1.09c0,.12,0,.23,0,.34s0,.26,0,.39a6.22,6.22,0,0,0,0,1.06c.06.5.14,1,.22,1.42a5.39,5.39,0,0,0,.36,1.06,1.65,1.65,0,0,1,.09.21l.12.45c.05.2.1.4.14.61,0,0,0,.08,0,.12a4.21,4.21,0,0,0,0,1.1,3.69,3.69,0,0,0,.3,1.05.36.36,0,0,0,0,.09c0,.16,0,.33,0,.51l-.08.82a5.56,5.56,0,0,1-.08.7c0,.07-.1.26-.15.4s-.13.3-.18.42a1.32,1.32,0,0,1-.16.25,6.33,6.33,0,0,0-.39.61,6.16,6.16,0,0,0-.33.74l-.08.22-.08.12c-.18.24-.35.5-.56.73l-.22.25a5.37,5.37,0,0,1-.51.56c-.12.12-.24.25-.37.37a3.87,3.87,0,0,1-.41.4,4.65,4.65,0,0,1-.52.34l-.4.25a3.55,3.55,0,0,1-.37.17,5.45,5.45,0,0,0-.59.27l-.28.07a6.12,6.12,0,0,0-.76.24,1.82,1.82,0,0,1-1.94.43,5.38,5.38,0,0,0-.9.22l-.14,0-1,0-.22-.09a4.78,4.78,0,0,0-.93-.31l-.48-.09a4.13,4.13,0,0,1-.61-.13,4.32,4.32,0,0,1-.63-.24l-.41-.17a4.24,4.24,0,0,0-1.06-.26l-.14,0a1.84,1.84,0,0,1-.22-.17A6.08,6.08,0,0,0,297,286a5.2,5.2,0,0,0-1-.42c-.07,0-.14-.05-.13,0a2.62,2.62,0,0,1-.3-.28,7.15,7.15,0,0,0-.57-.53l-.4-.31c-.18-.14-.36-.28-.53-.43l-.32-.29c-.19-.18-.38-.34-.56-.52l-.08-.09a9.32,9.32,0,0,1-.67-.74c-.23-.29-.45-.61-.66-.92s-.24-.35-.37-.53-.15-.18-.21-.27a.13.13,0,0,0,0-.06,3.82,3.82,0,0,0-.29-1.26,3.89,3.89,0,0,0-.72-1v0a4.59,4.59,0,0,0-.15-1.1,2.79,2.79,0,0,1-.07-.4,6.5,6.5,0,0,0-.12-.75,3.89,3.89,0,0,0-.48-1.14v0a4.15,4.15,0,0,0,.07-1.12c0-.39-.07-.77-.08-1.17a5.65,5.65,0,0,0-.05-.71,2.37,2.37,0,0,1,0-.46,3.62,3.62,0,0,1,.06-.46,5.65,5.65,0,0,0,.11-.7,3.94,3.94,0,0,0-.06-1.14s0-.08,0-.12a1.67,1.67,0,0,1,.08-.2,5.05,5.05,0,0,0,.29-.86q.08-.3.12-.6c0-.18.07-.37.09-.47a1.74,1.74,0,0,1,.11-.18,3.71,3.71,0,0,0,.57-1.33,5.45,5.45,0,0,0,.07-1.23v-.33A5,5,0,0,0,290.63,262.58Zm-79.35-6.68-.45.11-.53,0a8.26,8.26,0,0,0-1-.07,5.32,5.32,0,0,0-1.34.22l-.21.06-.35-.1a5.56,5.56,0,0,0-1.11-.25l-1.46-.09h-.23l-.43,0a6.26,6.26,0,0,0-1.44-.09,4.07,4.07,0,0,0-1.51.47,1.86,1.86,0,0,1-.36.15,14.65,14.65,0,0,0-1.65.39l-.45.1a7.82,7.82,0,0,0-1.22.33l-.48.13a11.39,11.39,0,0,0-1.15.37,5.85,5.85,0,0,0-1,.6,3.82,3.82,0,0,1-.4.25,3,3,0,0,1-.32.09,5.1,5.1,0,0,0-1.34.48,4.24,4.24,0,0,0-1.1.9l-.16.18a1.84,1.84,0,0,1-.28.09,4.75,4.75,0,0,0-1.28.58,5.62,5.62,0,0,0-.93.82l-.27.27a2.12,2.12,0,0,1-.31.14,5.3,5.3,0,0,0-1.14.6l-.55.4-.73.53a6.25,6.25,0,0,0-.82.75,3.19,3.19,0,0,1-.33.31,9.35,9.35,0,0,0-.75.64,4.25,4.25,0,0,1-.41.35,3.43,3.43,0,0,1-.42.2,6.27,6.27,0,0,0-.9.45,1.94,1.94,0,0,0-.58.56,6.47,6.47,0,0,0-.94.52,11.05,11.05,0,0,0-1,.79l-.24.21-.32.24a6.71,6.71,0,0,0-.9.75,4.44,4.44,0,0,0-.74,1.08,2.18,2.18,0,0,1-.12.22c-.32.39-.61.79-.85,1.14l-.16.14a4.19,4.19,0,0,0-1,1.05,4.34,4.34,0,0,0-.47,1.22l0,.21a2.3,2.3,0,0,1-.21.33,7.27,7.27,0,0,0-.55,1c-.13.32-.24.65-.35,1,0,.15-.09.29-.14.43-.17.47-.33.94-.47,1.41,0,.13-.1.25-.15.37a6.69,6.69,0,0,0-.36,1.05,7.08,7.08,0,0,0-.13,1.09c0,.14,0,.27,0,.4s-.06.28-.1.42a7.47,7.47,0,0,0-.21,1.05,6.53,6.53,0,0,0,0,1.27c0,.13,0,.27,0,.4v.36a8.42,8.42,0,0,0,.07,1.28,6.5,6.5,0,0,0,.32,1.19c.05.13.09.25.13.38l.08.35a9,9,0,0,0,.36,1.22c.05.12.08.25.12.37a5.87,5.87,0,0,0,.47,1.2,6.32,6.32,0,0,0,.78,1.07c.08.1.17.19.24.29a8.84,8.84,0,0,0,1.09,1.16l.1.1a1.59,1.59,0,0,1,.2.24,5,5,0,0,0,1.07,1,4.63,4.63,0,0,0,1.4.57c.1,0,.21.05.31.09l.11.05a8.14,8.14,0,0,0,1.61.49,9.34,9.34,0,0,0,1.6.13h.32a10.63,10.63,0,0,0,1.58-.12,7.43,7.43,0,0,0,1.2-.37l.39-.15a9.72,9.72,0,0,0,1.62-.69,11.79,11.79,0,0,0,1.45-.89l.26-.21a1.85,1.85,0,0,0,.79-.45,9.19,9.19,0,0,0,1-1.14l.11-.14c.07-.08.15-.15.22-.22s.2-.22.3-.33l.19-.18c.2-.18.4-.35.61-.51s.69-.53,1-.82a13.58,13.58,0,0,0,1-1.07,6.4,6.4,0,0,1,.63-.69c.53-.46,1.06-.91,1.59-1.34l.22-.18a6.55,6.55,0,0,1,.87-.59c.33-.21.71-.44,1.08-.72l.87-.72c.33-.28.63-.54.92-.74.44-.3.91-.57,1.4-.85l.55-.32c.78-.46,1.4-.79,1.95-1.05a5.62,5.62,0,0,1,1-.28,8.93,8.93,0,0,0,1-.25,10.55,10.55,0,0,1,2-.37,10,10,0,0,0,1.46-.31,5.4,5.4,0,0,1,.85-.19c.43,0,.85-.09,1.26-.15s.74-.11,1.1-.14.72,0,1.07,0,.9,0,1.33,0l1,0c.47,0,.94,0,1.4-.07s1.16-.14,1.72-.22l.75-.11a8.68,8.68,0,0,0,1.66-.44,8.12,8.12,0,0,1,.78-.24l.75-.13a15.48,15.48,0,0,0,1.76-.37,11.19,11.19,0,0,0,1.61-.66c.24-.12.49-.25.75-.35a3.44,3.44,0,0,1,.66-.15,6.58,6.58,0,0,0,1.85-.56l.62-.31a15.87,15.87,0,0,0,1.67-.87,8,8,0,0,0,1.41-1.18,2.57,2.57,0,0,1,1.38-.9,7.76,7.76,0,0,0,1.64-.81,13.75,13.75,0,0,0,1.25-1c.26-.22.51-.45.78-.66s.57-.38.87-.56a13.81,13.81,0,0,0,1.33-.88,6.75,6.75,0,0,0,1.25-1.39,3.91,3.91,0,0,1,.5-.6,8.87,8.87,0,0,1,.86-.61,12.6,12.6,0,0,0,1.25-.91c.27-.23.57-.43.87-.64s.8-.56,1.21-.9l1-.88.93-.81a8.69,8.69,0,0,0,1.12-1.19,5,5,0,0,1,.64-.7,5.47,5.47,0,0,1,.76-.47,8.89,8.89,0,0,0,1.41-.9,10.36,10.36,0,0,0,1.1-1.1,5.38,5.38,0,0,1,.7-.72c.35-.28.68-.59,1-.9a11.3,11.3,0,0,1,.9-.79,8.15,8.15,0,0,1,.92-.62l.38-.25a2.1,2.1,0,0,0,.79-.26,7.55,7.55,0,0,0,.8-.6l.33-.26c.44-.22.87-.43,1.28-.59a4.78,4.78,0,0,1,.66-.17l.7-.17a4.14,4.14,0,0,1,.65-.11l.74-.11.51-.11c.3-.06.59-.13.89-.16s.52-.08.77-.12.45-.08.68-.1A7,7,0,0,0,268,252a3.68,3.68,0,0,1,.56-.06,2.9,2.9,0,0,1,.38.07,5.51,5.51,0,0,0,1.14.17,6.12,6.12,0,0,0,1.12-.08c.16,0,.35-.05.44-.05l.38.09a5.69,5.69,0,0,0,1.19.21c.32,0,.64,0,1,0h.65a6.44,6.44,0,0,0,1.14-.07c.17,0,.33,0,.5,0l.46.06a7.19,7.19,0,0,0,1.23.1h.23c.49,0,1,0,1.49-.09s1.08-.15,1.72-.27L282,252c.4-.07.85-.14,1.31-.26a4.23,4.23,0,0,0,.74-.29c0,.25,0,.49,0,.7v.23a4.7,4.7,0,0,0,.3,1.32,2.67,2.67,0,0,1,.09.26l.06.36a8.09,8.09,0,0,0,.24,1.09c0,.14.08.28.11.43.08.3.17.61.27.91,0,.12.06.25.09.38a6.84,6.84,0,0,0,.23.89c.06.17.1.34.15.52s.11.45.18.67a4.56,4.56,0,0,0,.54,1.07l.07.09c0,.11,0,.21,0,.32s0,.48.07.72a9.75,9.75,0,0,1,.1,1.08,6.49,6.49,0,0,0,.09.74,2,2,0,0,1,0,.34c0,.22,0,.44,0,.68v.29l0,.06a4.19,4.19,0,0,0-.51,1,8.52,8.52,0,0,0-.23,1c0,.14-.05.27-.08.41a1.36,1.36,0,0,1-.11.28,4.85,4.85,0,0,0-.33,1.1,3.84,3.84,0,0,0,0,1.34c0,.06,0,.11,0,.11s0,.27-.06.4a6.55,6.55,0,0,0-.13,1,6.38,6.38,0,0,0,0,1c0,.13,0,.26,0,.4,0,.47.05.94.09,1.34l0,.21a4.11,4.11,0,0,0-.05,1.31,3.79,3.79,0,0,0,.52,1.35.33.33,0,0,1,.06.1,2.7,2.7,0,0,1,0,.28,6.07,6.07,0,0,0,.18,1,1.62,1.62,0,0,1,0,.22,4.14,4.14,0,0,0,.23,1.29,3.62,3.62,0,0,0,.8,1.23,3.54,3.54,0,0,0,.4,1.44,6,6,0,0,0,.61.91l.23.31a14.87,14.87,0,0,0,.86,1.22,13.65,13.65,0,0,0,.93,1l.08.09c.24.24.5.48.76.71l.28.26c.25.23.52.44.79.65l.33.26a3,3,0,0,1,.26.25,6.33,6.33,0,0,0,.82.72,4,4,0,0,0,1.15.54l.19.07c.09.05.17.13.26.19a5.21,5.21,0,0,0,.95.63,4.24,4.24,0,0,0,1.29.37h.15l.33.14c.34.14.68.28,1.05.4a9.7,9.7,0,0,0,1.07.23l.34.06.21.09a4.26,4.26,0,0,0,1.26.36c.5.05,1,.09,1.49.09h.05a4.44,4.44,0,0,0,1.31-.24l0,0a3.73,3.73,0,0,0,1.69.05,3.53,3.53,0,0,0,1.35-.75l.06-.05.18,0a4.76,4.76,0,0,0,1.13-.39,3.13,3.13,0,0,1,.32-.15,5.45,5.45,0,0,0,1-.5l.3-.19a8.49,8.49,0,0,0,.91-.61,7.42,7.42,0,0,0,.8-.74l.26-.26a10.72,10.72,0,0,0,.8-.86l.19-.22a11.12,11.12,0,0,0,.81-1.06l.08-.11a4.3,4.3,0,0,0,.56-1.12l.09-.23a2.4,2.4,0,0,1,.18-.26,5.36,5.36,0,0,0,.6-1.07l.12-.3a6.08,6.08,0,0,0,.42-1.25c.07-.39.1-.77.13-1.13l.06-.66a9.51,9.51,0,0,0,.08-1.12,3.59,3.59,0,0,0-.34-1.45s0,0,0-.05,0-.06,0-.1a4,4,0,0,0,0-1.33c-.06-.29-.13-.58-.21-.86l-.1-.41a3.92,3.92,0,0,0-.32-.89c0-.08-.07-.16-.09-.22-.07-.35-.13-.71-.17-1.09a2.08,2.08,0,0,1,0-.35c0-.24,0-.48,0-.73s0-.33,0-.49,0-.4,0-.59.05-.18.07-.27a7.52,7.52,0,0,0,.18-.85,3.66,3.66,0,0,0,0-1.19.5.5,0,0,1,0-.12c.08-.46.13-.9.17-1.28l.06-.12a3.62,3.62,0,0,0,.4-1.52,3.71,3.71,0,0,0-.3-1.45.88.88,0,0,0-.05-.15,2.45,2.45,0,0,1,0-.27,5.45,5.45,0,0,0,0-1.2,8,8,0,0,0-.26-1.09c0-.13-.08-.27-.11-.4-.12-.51-.24-1-.39-1.48a2.09,2.09,0,0,1-.08-.36,4.36,4.36,0,0,0-.92-2.22c-.06-.09-.12-.17-.17-.26s-.11-.26-.16-.38a5.85,5.85,0,0,0-.51-1,5.65,5.65,0,0,0-.92-1.05,1.75,1.75,0,0,1-.19-.2,3.92,3.92,0,0,1-.27-.33,8.58,8.58,0,0,0-.67-.79,5.64,5.64,0,0,0-.95-.71l-.25-.16c-.11-.09-.21-.19-.31-.29a7.4,7.4,0,0,0-.8-.68,2.41,2.41,0,0,1-.24-.21,4.56,4.56,0,0,0-.93-.75,5.21,5.21,0,0,0-1.12-.46l-.28-.1a9,9,0,0,0-1-.39l-.32-.1-.19-.13a4.36,4.36,0,0,0-1.15-.59,4.22,4.22,0,0,0-1.2-.15h-.19l0,0-.52-.17c-.25-.09-.49-.17-.72-.23a10.59,10.59,0,0,1-1.07-.32c-.18-.07-.34-.16-.52-.25l-.57-.28a7.61,7.61,0,0,0-.88-.32,3,3,0,0,1-.39-.13l-1.29-.59-.37-.17-.24-.1.1-.06.43-.17a6.87,6.87,0,0,1,.91-.33,3.65,3.65,0,0,1,.68-.07l.76-.07.14,0a12.44,12.44,0,0,1,1.32-.12,2.3,2.3,0,0,1,.45,0,5.64,5.64,0,0,0,1.35.07,9.8,9.8,0,0,0,1.3-.24l.49-.11a9,9,0,0,0,1.3-.34l.46-.14a7.86,7.86,0,0,0,1.26-.5,4.17,4.17,0,0,1,.44-.19,3.1,3.1,0,0,1,.38-.09,4.8,4.8,0,0,0,1.41-.43,7.43,7.43,0,0,0,1.17-.75,4.61,4.61,0,0,1,.38-.28,17.24,17.24,0,0,0,1.49-1.11,8.47,8.47,0,0,0,.95-.94l.33-.36a3.38,3.38,0,0,1,.34-.25,4.91,4.91,0,0,0,1.06-.91,10.26,10.26,0,0,0,.76-1l.3-.42a7.27,7.27,0,0,0,.64-1.06,4.16,4.16,0,0,1,.23-.42,3.57,3.57,0,0,1,.4-.46,9.81,9.81,0,0,0,.66-.79c.18-.26.33-.52.48-.77a3,3,0,0,1,.27-.43,3.81,3.81,0,0,1,.46-.44c.24-.21.47-.42.68-.64a8.15,8.15,0,0,0,.68-.88,2.66,2.66,0,0,1,.28-.38,5.34,5.34,0,0,1,.5-.46c.23-.2.45-.4.66-.61s.43-.44.63-.66l.47-.5a3.14,3.14,0,0,1,.38-.28,6.35,6.35,0,0,0,.92-.77,7,7,0,0,0,.78-1.06,2.5,2.5,0,0,1,.24-.36,11,11,0,0,0,.94-1.38l.1-.17a3.33,3.33,0,0,1,.24-.32,4.75,4.75,0,0,0,.84-1.44,6.91,6.91,0,0,0,.29-1.89v-.24a5.59,5.59,0,0,0-.4-2.42,5.84,5.84,0,0,0-1.36-1.88,6.5,6.5,0,0,0-1.75-1.32l-.19-.1a6,6,0,0,0-1.84-.69,6.69,6.69,0,0,0-2.26.06l-.33,0a8.37,8.37,0,0,0-1.67.4,5,5,0,0,0-1.41.89,2.44,2.44,0,0,1-.35.26,11.35,11.35,0,0,0-1.55,1.09c-.12.11-.25.2-.38.3a8,8,0,0,0-1.07.95l-.25.28a14.19,14.19,0,0,0-.94,1.12,5.51,5.51,0,0,0-.65,1.19,3.93,3.93,0,0,1-.17.38,3.59,3.59,0,0,1-.29.31,6.29,6.29,0,0,0-.76.87l-.42.61c-.16.23-.31.47-.49.7a8.41,8.41,0,0,0-.58.95,3.58,3.58,0,0,1-.25.44l-1,1.25c-.18.21-.36.41-.55.6s-.36.39-.53.59-.41.44-.61.64-.33.34-.48.51-.39.43-.56.64-.31.37-.46.52a4.07,4.07,0,0,1-.56.35l-.39.21-.56.37a3.57,3.57,0,0,1-.45.28c-.07,0-.28,0-.43.06a7.43,7.43,0,0,0-.93.13c-.28.06-.57.1-.87.15l-.6.1a5.64,5.64,0,0,0-1,.27,3.43,3.43,0,0,1-.5.14,1.74,1.74,0,0,1-.32,0,5.35,5.35,0,0,0-1.35,0,6.87,6.87,0,0,0-1.13.36,3.57,3.57,0,0,1-.46.16c-.52.12-1.05.27-1.62.43l-.53.12a9.58,9.58,0,0,0-1.11.29,2.06,2.06,0,0,0-.37.16,15.31,15.31,0,0,0-1.75.56,19.46,19.46,0,0,0-2.27,1c-.69.36-1.37.73-2.05,1.13L283,236.33c-.4.24-1.55.67-2.72,1.36l-2.77.82c-2-.06-3.21.34-4.15,0l-2.27-.44a.81.81,0,0,0,.09-.1c.14-.14.27-.28.4-.43s.41-.49.63-.72.27-.31.4-.47a3.22,3.22,0,0,1,.24-.28l.23-.17a6.26,6.26,0,0,0,.57-.45l.39-.36c.12-.12.24-.24.37-.35s.34-.32.51-.5l.26-.25.3-.27c.18-.15.36-.3.54-.47l.24-.21.31-.29.19-.14a3.57,3.57,0,0,0,.87-1.14c.07-.11.13-.24.22-.37.25-.35.52-.76.8-1.21l.21-.35c.17-.27.34-.54.48-.8.05-.07.12-.13.17-.19a4.72,4.72,0,0,0,.71-.91c.1-.18.22-.37.33-.55l.36-.58c.14-.24.26-.5.38-.76a3.11,3.11,0,0,1,.2-.41,4.73,4.73,0,0,0,.44-.93c0-.09.07-.18.1-.24l.24-.38c.15-.22.29-.45.41-.61A2,2,0,0,1,283,223a5.29,5.29,0,0,0,.68-.58,10,10,0,0,0,1.12-1.36,4.31,4.31,0,0,0,.55-1.29,1.41,1.41,0,0,1,.06-.22l.1-.12a4,4,0,0,0,.85-1.31,4.94,4.94,0,0,0,.26-1.27c0-.12,0-.24.05-.36s.08-.24.12-.36a6.44,6.44,0,0,0,.31-1.26,4,4,0,0,0-.16-1.5l-.05-.21c0-.09,0-.19,0-.29a4.48,4.48,0,0,0,0-1.45,9.32,9.32,0,0,0-.53-1.71l-.12-.31a5.58,5.58,0,0,0-.61-1.36,3.92,3.92,0,0,0-1.19-1.1,1,1,0,0,1-.17-.11,11.21,11.21,0,0,0-1.3-1.15c-.1-.06-.18-.14-.28-.21a6.6,6.6,0,0,0-1.11-.76c-.11-.05-.21-.12-.32-.18a7.59,7.59,0,0,0-1.15-.59,5.06,5.06,0,0,0-1.22-.26c-.12,0-.25,0-.36-.05l-.25-.12a4.92,4.92,0,0,0-1.24-.43,4.19,4.19,0,0,0-1.53,0l-.18,0a1.19,1.19,0,0,1-.26-.05,4.37,4.37,0,0,0-1.49-.11,4.79,4.79,0,0,0-1.34.43c-.1,0-.2.09-.3.12l-.27,0a4.7,4.7,0,0,0-1.38.36,13.13,13.13,0,0,0-1.46.79,5.35,5.35,0,0,0-.95.78,3.45,3.45,0,0,1-.28.26,7,7,0,0,0-.82.78l-.3.31a1.79,1.79,0,0,1-.28.2,5.67,5.67,0,0,0-.93.76c-.1.11-.22.21-.33.32a8.85,8.85,0,0,0-.75.75c-.29.35-.57.71-.84,1.07l-.09.11a5.15,5.15,0,0,0-.58,1,2.09,2.09,0,0,1-.13.26,1.2,1.2,0,0,1-.22.23,5.47,5.47,0,0,0-.76.88c-.17.26-.33.53-.5.8s-.17.3-.26.44a5.36,5.36,0,0,0-.48,1,1.52,1.52,0,0,1-.09.26,1.62,1.62,0,0,1-.18.19,4.74,4.74,0,0,0-.78,1,8.52,8.52,0,0,0-.4.8c-.08.16-.15.32-.24.47a6.45,6.45,0,0,0-.42,1,2,2,0,0,1-.11.32c-.1.17-.2.34-.31.5s-.29.47-.41.7-.22.38-.33.57-.26.42-.37.63a4.84,4.84,0,0,1-.3.44c-.16.24-.32.46-.45.7s-.26.4-.39.59-.23.33-.33.49a5.51,5.51,0,0,0-.49,1.06,1.31,1.31,0,0,1-.05.15l-.09.16c-.2.22-.4.44-.58.68l-.36.44a6.39,6.39,0,0,0-.72,1.05,2,2,0,0,1-.24.4c-.13.17-.28.32-.42.48s-.47.52-.69.81-.26.3-.39.44a9.14,9.14,0,0,0-.71.81,3.41,3.41,0,0,1-.37.39,7.78,7.78,0,0,0-.74.82,5,5,0,0,0-.63,1.16,3,3,0,0,1-.13.3c-.32.41-.66.82-1,1.23a4.52,4.52,0,0,1-.48.5c-.21.2-.42.41-.62.63s-.36.41-.53.63a5.07,5.07,0,0,1-.48.56,4,4,0,0,1-.42.32,9.77,9.77,0,0,0-.81.63,8.25,8.25,0,0,0-.65.67,3.47,3.47,0,0,1-.42.43,7.07,7.07,0,0,1-.63.44l-.64.42c-.25.18-.48.39-.73.61a3.09,3.09,0,0,1-.47.4,1.61,1.61,0,0,1-.35.16,6.58,6.58,0,0,0-1.07.56l-.6.41-.7.48a7.79,7.79,0,0,0-.8.62,3.74,3.74,0,0,1-.45.36,2.14,2.14,0,0,1-.43.21,8.3,8.3,0,0,0-1,.53,4.55,4.55,0,0,0-1,.9c-.08.08-.14.17-.2.22l-1.33.89a3.81,3.81,0,0,1-.45.23,6.73,6.73,0,0,0-1,.52,1.92,1.92,0,0,1-.33.14,5.2,5.2,0,0,0-1.15.56,7.73,7.73,0,0,0-.86.72c-.13.11-.25.23-.38.32a5.86,5.86,0,0,0-.91.81,2.72,2.72,0,0,1-.3.29l-.14.1c-.42.3-.81.58-1.18.86l-.34.26c-.36.26-.69.51-1,.74l-.36.18a6.24,6.24,0,0,0-1,.54c-.32.23-.66.43-1,.64l-.25.14c-.23.14-.46.3-.68.46a6.63,6.63,0,0,1-.56.37,6,6,0,0,0-.89.57,2.9,2.9,0,0,1-.38.26l-.38.16c-.33.15-.67.3-1,.42a2.33,2.33,0,0,1-.37,0,6.6,6.6,0,0,0-1.16.19c-.31.09-.63.16-1,.23l-.51.11a5.91,5.91,0,0,0-1.15.44l-.24.12-.2,0a4.89,4.89,0,0,0-1.4-.09A7.26,7.26,0,0,0,211.28,255.9Zm3.28,3.86a4.73,4.73,0,0,0,1.36-.48c.11,0,.21-.11.3-.14l.45-.1c.42-.09.84-.18,1.24-.3l.39,0a5.72,5.72,0,0,0,1.36-.26c.43-.16.86-.34,1.28-.53l.35-.15a5.89,5.89,0,0,0,1.15-.7,2.9,2.9,0,0,1,.36-.25,8.58,8.58,0,0,0,1-.65c.15-.11.29-.21.44-.3l.23-.14c.43-.26.85-.51,1.26-.8l.36-.18a5.48,5.48,0,0,0,1.2-.71c.25-.21.53-.41.83-.64l.36-.27c.34-.26.72-.53,1.11-.81l.13-.1a5.6,5.6,0,0,0,.82-.73,4.56,4.56,0,0,1,.35-.33,8.55,8.55,0,0,0,.8-.66,2.57,2.57,0,0,1,.4-.35,2.37,2.37,0,0,1,.32-.13,5.37,5.37,0,0,0,1.14-.56,4.73,4.73,0,0,1,.45-.23,7.25,7.25,0,0,0,1-.52l1.32-.88a4.89,4.89,0,0,0,1-.9,2.2,2.2,0,0,1,.19-.21,2.73,2.73,0,0,1,.45-.23,7.13,7.13,0,0,0,1-.51,9,9,0,0,0,.84-.66,4,4,0,0,1,.41-.33l.76-.51.56-.39a4.39,4.39,0,0,1,.43-.21,5.28,5.28,0,0,0,1-.53,7.17,7.17,0,0,0,.92-.75,2.86,2.86,0,0,1,.33-.29,5.14,5.14,0,0,1,.49-.32,11.46,11.46,0,0,0,1-.69,7.43,7.43,0,0,0,.89-.88,4.35,4.35,0,0,1,.36-.38,4.4,4.4,0,0,1,.41-.31,6.62,6.62,0,0,0,1-.78,9.27,9.27,0,0,0,.77-.89c.12-.15.24-.3.37-.44s.28-.29.42-.43a9.88,9.88,0,0,0,.78-.81c.37-.44.73-.88,1.08-1.33a4.8,4.8,0,0,0,.68-1.22c0-.1.08-.21.12-.29a4.75,4.75,0,0,1,.38-.4,7.78,7.78,0,0,0,.74-.82c.13-.17.28-.32.42-.47s.46-.49.67-.76.31-.38.48-.56.38-.42.56-.65a6,6,0,0,0,.61-.92,4.62,4.62,0,0,1,.24-.4c.17-.19.33-.39.49-.6s.32-.4.49-.58a2.1,2.1,0,0,0,.34-.46,4.08,4.08,0,0,0,.53-1.08,2.15,2.15,0,0,1,.1-.27l.25-.37a10.06,10.06,0,0,0,.56-.87c.07-.12.15-.23.24-.36a7.1,7.1,0,0,0,.54-.84l.29-.49c.14-.23.29-.47.42-.72s.19-.32.29-.49.3-.47.43-.72a5.31,5.31,0,0,0,.39-.95,2.37,2.37,0,0,1,.13-.34c.13-.23.24-.47.36-.71l.22-.47.18-.19a4.52,4.52,0,0,0,.76-.92,6.67,6.67,0,0,0,.43-1,1.42,1.42,0,0,1,.11-.31c.11-.16.21-.33.31-.5s.26-.44.39-.64a2.28,2.28,0,0,1,.22-.22,5.65,5.65,0,0,0,.7-.78,5.27,5.27,0,0,0,.51-.94c0-.09.07-.18.11-.25l.08-.1c.24-.31.48-.63.73-.93a5.18,5.18,0,0,1,.41-.4c.18-.16.35-.33.51-.5a3.06,3.06,0,0,1,.29-.21,5.74,5.74,0,0,0,.73-.56,6.26,6.26,0,0,0,.51-.52A4,4,0,0,1,270,209c.21-.17.41-.36.61-.55a2.74,2.74,0,0,1,.28-.26,10,10,0,0,1,1-.53,2.5,2.5,0,0,1,.29-.05,4.66,4.66,0,0,0,.89-.18,6.77,6.77,0,0,0,.75-.28,1.38,1.38,0,0,1,.22-.1l.15,0a5.47,5.47,0,0,0,1,.14,4.42,4.42,0,0,0,1-.09l.17,0,.24.1a4.34,4.34,0,0,0,.9.35,5.63,5.63,0,0,0,.93.17l.29,0a4.4,4.4,0,0,1,.51.27l.52.3a3.13,3.13,0,0,1,.47.34l.42.33a5,5,0,0,1,.78.69,4.7,4.7,0,0,0,.85.67l.08,0,.13.35c.06.18.12.36.19.53a6.08,6.08,0,0,1,.32.93c0,.09,0,.19,0,.29a6.35,6.35,0,0,0-.05.87,5.92,5.92,0,0,0,.17,1c0,.05,0,.11.05.16s-.08.23-.11.34-.16.48-.22.71a7.91,7.91,0,0,0-.13.85l0,.26-.08.09a4,4,0,0,0-.69,1,4.83,4.83,0,0,0-.36,1c0,.07,0,.14-.05.2a6.09,6.09,0,0,1-.64.74.86.86,0,0,1-.18.14,4.76,4.76,0,0,0-1,1c-.21.28-.41.58-.61.89l-.21.34a4.69,4.69,0,0,0-.5,1,1.62,1.62,0,0,1-.11.28,5.92,5.92,0,0,0-.43.83l-.2.4c-.1.17-.2.34-.31.5s-.27.44-.38.64a1.9,1.9,0,0,1-.19.21,5.27,5.27,0,0,0-.67.86c-.15.26-.3.5-.45.74l-.23.37c-.23.38-.45.71-.66,1a7.08,7.08,0,0,0-.43.71.43.43,0,0,1,0,.07l-.05,0-.47.44-.27.24-.4.35-.38.33a5.78,5.78,0,0,0-.5.49l-.26.26c-.17.14-.33.3-.49.45l-.31.3-.22.16a6,6,0,0,0-.68.54,8.39,8.39,0,0,0-.56.63l-.21.25q-.4.44-.78.9l-.21.22a6.54,6.54,0,0,0-.59.68,5.56,5.56,0,0,0-.46.75l-.16.28c-.15.22-.29.46-.43.71a13.32,13.32,0,0,0-2.33.07,11.31,11.31,0,0,0-2.54.5c-1,.38-2,1.64-1.67,2.67a2,2,0,0,0,2.58,1.27,13.26,13.26,0,0,1,2.16-.48,11.94,11.94,0,0,1,1.8,0c.71,0,1.35.06,2,.14l2.08.31.71.13c.51.1,1,.19,1.51.25a15.28,15.28,0,0,0,1.6.08h1a20.3,20.3,0,0,0,2.33-.18,19.79,19.79,0,0,0,4.78-1.44c.72-.32,1.36-.67,2-1l.19-.1c.62-.35,1.22-.7,1.82-1.06l.17-.1c.62-.36,1.24-.7,1.88-1a15.24,15.24,0,0,1,1.83-.82,12.09,12.09,0,0,1,1.84-.55,1.76,1.76,0,0,0,.55-.22l.27-.06.75-.18c.5-.14,1-.27,1.44-.38a6.9,6.9,0,0,0,1-.34,3.17,3.17,0,0,1,.4-.15h.37a5,5,0,0,0,1.21,0,7.06,7.06,0,0,0,1.09-.29,2.54,2.54,0,0,1,.45-.13l.53-.09,1.12-.19a2.42,2.42,0,0,1,.46-.06,6,6,0,0,0,1.34-.26,5.49,5.49,0,0,0,1.4-.76,3.87,3.87,0,0,1,.34-.21l.28-.16a6.15,6.15,0,0,0,1.43-1,10,10,0,0,0,.73-.81c.14-.16.28-.33.44-.5l.4-.42c.25-.26.52-.53.77-.82l.43-.47c.24-.25.48-.51.71-.79.35-.43.71-.87,1.06-1.32a6.83,6.83,0,0,0,.65-1,4,4,0,0,1,.24-.41c.22-.3.43-.6.62-.9s.23-.34.35-.5a3.15,3.15,0,0,1,.35-.38c.17-.17.36-.39.55-.62a5.31,5.31,0,0,0,.81,1.24,6.09,6.09,0,0,0,1.52,1.28,8.39,8.39,0,0,0,2.22.89l-.2.17c-.25.23-.52.46-.76.71a6.71,6.71,0,0,0-.7.89,3.25,3.25,0,0,1-.31.42,4.73,4.73,0,0,1-.4.37c-.24.22-.52.47-.8.78a6.52,6.52,0,0,0-.74,1.08l-.3.49c-.09.12-.21.24-.32.36a8.9,8.9,0,0,0-.75.91,7,7,0,0,0-.49.85c-.11.2-.21.39-.29.51s-.25.34-.37.52-.34.48-.52.69a1.78,1.78,0,0,1-.31.23,6.69,6.69,0,0,0-.88.7c-.17.17-.33.35-.49.53a5.08,5.08,0,0,1-.51.52,12.76,12.76,0,0,1-1.14.85c-.2.13-.39.27-.58.42a6.8,6.8,0,0,1-.56.39l-.34.07a5.45,5.45,0,0,0-1.11.28c-.24.09-.47.2-.7.31a4,4,0,0,1-.62.26l-.61.19c-.29.09-.56.17-.8.22l-.7.15a7.29,7.29,0,0,1-.75.14,2.41,2.41,0,0,1-.4,0,6,6,0,0,0-1.12-.09,16.88,16.88,0,0,0-1.74.15l-.14,0-.51,0a7.64,7.64,0,0,0-1.4.19,10,10,0,0,0-1.44.51l-.37.15a5.89,5.89,0,0,0-1.24.69,3.42,3.42,0,0,1-.4.26l-.3.15c-.43.22-.86.45-1.3.72l-.48.27a11.38,11.38,0,0,0-1.05.62,5.05,5.05,0,0,1-.58.36l-.29.18a4.88,4.88,0,0,0-.88.45,3.82,3.82,0,0,0-.86.76c-.34.2-.68.4-1,.58a3.61,3.61,0,0,1-.46.17,7.64,7.64,0,0,0-.87.32l-.51.24c-.25.12-.49.24-.76.34a6.43,6.43,0,0,0-.91.45,3.38,3.38,0,0,1-.35.19c-.29.08-.59.12-.88.17l-.61.1c-.44.08-.88.16-1.32.21s-.82,0-1.24.07H278a3.88,3.88,0,0,1-.46-.06,7,7,0,0,0-1-.1,8.54,8.54,0,0,0-1,.07,3.27,3.27,0,0,1-.54,0h-.78c-.26,0-.52,0-.78,0a2.91,2.91,0,0,1-.38-.08,5.3,5.3,0,0,0-1.2-.21,6,6,0,0,0-1.19.08,2.09,2.09,0,0,1-.43,0,2.63,2.63,0,0,1-.38-.07,5.29,5.29,0,0,0-1.28-.17,7.77,7.77,0,0,0-1.17.11,4.46,4.46,0,0,1-.51.07,9.29,9.29,0,0,0-1.17.15l-.53.09a11.08,11.08,0,0,0-1.26.22l-.44.09-.49.07a8.75,8.75,0,0,0-1.24.23l-.47.11a8.65,8.65,0,0,0-1.24.36,15,15,0,0,0-1.62.74,4.58,4.58,0,0,0-.89.59,2.1,2.1,0,0,0-.83.36,10.55,10.55,0,0,1-.89.59,13.65,13.65,0,0,0-1.28.86,15.32,15.32,0,0,0-1.17,1c-.26.24-.52.48-.79.7a10.09,10.09,0,0,0-1.18,1.18,7,7,0,0,1-.66.67,4.66,4.66,0,0,1-.78.48,7,7,0,0,0-2.57,2.14,7.83,7.83,0,0,1-.62.69c-.33.28-.66.56-1,.85l-1,.83a10,10,0,0,1-.9.67c-.39.28-.78.55-1.15.86a10.62,10.62,0,0,1-.9.64,13.55,13.55,0,0,0-1.17.84,7.37,7.37,0,0,0-1.19,1.33,3.61,3.61,0,0,1-.5.61,10,10,0,0,1-.93.61c-.37.22-.79.48-1.2.78s-.7.57-1,.87a9.4,9.4,0,0,1-.9.75,4.37,4.37,0,0,1-.76.34,7.94,7.94,0,0,0-1.55.74,7.56,7.56,0,0,0-1.24,1.08,5.41,5.41,0,0,1-.67.6,13.87,13.87,0,0,1-1.28.66l-.72.35a3.82,3.82,0,0,1-.77.2,6.57,6.57,0,0,0-1.4.36c-.35.14-.69.3-1,.47a8,8,0,0,1-1,.42c-.4.11-.84.19-1.31.27l-.87.15a10.56,10.56,0,0,0-1.29.38,5.46,5.46,0,0,1-.9.25l-.8.12c-.49.07-1,.15-1.5.2s-.76,0-1.14.05-.81,0-1.22.05a8.47,8.47,0,0,1-1,0c-.46,0-.93,0-1.4,0s-.9.1-1.36.17-.7.1-1,.13a8.78,8.78,0,0,0-1.53.31,7.89,7.89,0,0,1-.88.19,15.63,15.63,0,0,0-2.67.52c-.23.07-.46.12-.7.17a8.29,8.29,0,0,0-1.88.56,23.76,23.76,0,0,0-2.31,1.23l-.51.3c-.54.31-1.11.63-1.68,1a12.76,12.76,0,0,0-1.24,1l-.63.52c.1-.42.19-.84.26-1.24a7.36,7.36,0,0,0,.11-1c0-.14,0-.28,0-.41s0-.28.08-.41a6.22,6.22,0,0,0,.18-1,2,2,0,0,0,.7-.23,9.08,9.08,0,0,0,1.27-.92,7.33,7.33,0,0,1,.69-.52,4.83,4.83,0,0,1,.76-.32,8,8,0,0,0,1.44-.64l.77-.47c.41-.25.81-.5,1.21-.73a11.85,11.85,0,0,0,1.14-.76,4.61,4.61,0,0,1,.72-.49,3.87,3.87,0,0,1,1.13-.24,8.85,8.85,0,0,0,1.07-.18A7.53,7.53,0,0,1,210,272a4.37,4.37,0,0,1,1.08.33,9.8,9.8,0,0,0,1.12.37,6.69,6.69,0,0,0,3.62-.34,4.33,4.33,0,0,1,.76-.12A9.36,9.36,0,0,0,218,272c.24-.08.49-.13.75-.19a12.25,12.25,0,0,0,1.5-.41,11.34,11.34,0,0,0,1.56-.77c.2-.11.4-.22.61-.32a6.83,6.83,0,0,0,1.42-1c.18-.15.35-.31.55-.45a5.76,5.76,0,0,1,.6-.33,7,7,0,0,0,1.51-.95,12,12,0,0,0,1-1c.2-.21.39-.43.59-.61s.55-.53.81-.8a9.17,9.17,0,0,1,.71-.7,2,2,0,0,0-2.53-3.09,11.61,11.61,0,0,0-1.07,1l-.61.61a11.63,11.63,0,0,0-.85.87,6.38,6.38,0,0,1-.68.69,3.78,3.78,0,0,1-.71.42,9.12,9.12,0,0,0-1,.6,10.51,10.51,0,0,0-.9.72,4.88,4.88,0,0,1-.6.47c-.25.13-.5.26-.74.4a8.57,8.57,0,0,1-1,.5,6.81,6.81,0,0,1-1,.27l-1,.25a3.93,3.93,0,0,1-.74.12,8.36,8.36,0,0,0-1.42.27,4,4,0,0,1-1.51.29,4.21,4.21,0,0,1-.65-.23,8,8,0,0,0-2.11-.57,9.73,9.73,0,0,0-3.22.43c-.18,0-.37.06-.57.09a7.12,7.12,0,0,0-2.35.59,7.36,7.36,0,0,0-1.42.89,8.46,8.46,0,0,1-.71.49c-.45.26-.9.54-1.36.82l-.73.45a6.34,6.34,0,0,1-.72.3,7.44,7.44,0,0,0-1.48.66,7.25,7.25,0,0,0-.81.57v0a12,12,0,0,0-.4-1.54,6,6,0,0,0-.57-1.19c-.06-.09-.11-.19-.16-.28a4.52,4.52,0,0,0-.86-1.13,1.41,1.41,0,0,1-.17-.18l-.13-.18a8.69,8.69,0,0,0-.94-1.11,1.71,1.71,0,0,1-.18-.2,4.22,4.22,0,0,0-1.05-1,4.36,4.36,0,0,0-1.36-.52,1.55,1.55,0,0,1-.23-.06,2.44,2.44,0,0,1-.28-.14l-.49-.23a4.66,4.66,0,0,0,.86-.47,5.44,5.44,0,0,0,.84-.77,2,2,0,0,0,.23-.24l.3-.1a4.86,4.86,0,0,0,1.16-.5,4.65,4.65,0,0,0,1-.83c.07-.07.13-.13.13-.15a2.13,2.13,0,0,1,.36-.1,6.27,6.27,0,0,0,1-.32,6,6,0,0,0,1-.61c.11-.07.21-.15.31-.2a6,6,0,0,1,.65-.2c.29-.07.56-.15.82-.24a4.81,4.81,0,0,1,.68-.17c.27-.06.53-.12.77-.19.45-.13.86-.21,1.37-.32a4.81,4.81,0,0,0,1.25-.45l.15-.08.48.06a7.47,7.47,0,0,0,.8.08l.23,0c.43,0,.85,0,1.28.08a2,2,0,0,1,.31.08,5,5,0,0,0,1.38.28A4.22,4.22,0,0,0,209,260a3,3,0,0,1,.34-.08,2.67,2.67,0,0,1,.5,0,6.72,6.72,0,0,0,1.24.06,5.7,5.7,0,0,0,1.27-.25,3.56,3.56,0,0,1,.36-.1,1.51,1.51,0,0,1,.28.05A4.29,4.29,0,0,0,214.56,259.76Zm-25.69,9.54c.21.1.41.21.63.29a4.65,4.65,0,0,0,.83.25l.13,0,.1.12a6.1,6.1,0,0,0,.54.59,3.06,3.06,0,0,1,.43.54l.15.2a6,6,0,0,0,.53.6l.15.14c.09.17.19.34.29.51s.19.33.22.41a9.32,9.32,0,0,1,.27,1.07c.06.3.09.65.13,1.05a1.16,1.16,0,0,1,0,.18,5.58,5.58,0,0,0-.13,1.08,4.38,4.38,0,0,0,.14,1c0,.08,0,.16,0,.18a1.56,1.56,0,0,1-.08.41c-.06.25-.11.52-.15.79s0,.46-.05.7a4.36,4.36,0,0,1-.05.52c-.07.4-.16.81-.26,1.22a7.86,7.86,0,0,1-.25.79l-.13.36c-.08.24-.19.47-.29.71l-.2.46c-.1.23-.18.47-.26.71a5.27,5.27,0,0,1-.19.51c-.1.2-.22.39-.34.58l-.33.54a7.8,7.8,0,0,0-.35.71,3.81,3.81,0,0,1-.23.45c-.15.22-.32.44-.48.65l-.3.37a1.81,1.81,0,0,1-.18.21l-.16.13a8.06,8.06,0,0,0-.7.76l-.5.5-.21.18a8.65,8.65,0,0,1-.9.76,6.61,6.61,0,0,1-.95.57,6,6,0,0,1-1,.42c-.2.06-.41.14-.61.22a3.7,3.7,0,0,1-.46.16,6.51,6.51,0,0,1-.93.06h-.16a5.64,5.64,0,0,1-1-.07,4.43,4.43,0,0,1-.82-.28l-.12,0a4.75,4.75,0,0,0-.73-.23l-.26-.07c-.06-.07-.11-.14-.17-.2a6,6,0,0,0-.53-.59l-.1-.1a5.48,5.48,0,0,1-.64-.67l-.41-.49a4.65,4.65,0,0,1-.31-.39c0-.06-.09-.26-.14-.41s-.14-.47-.23-.69-.12-.43-.19-.69-.07-.29-.11-.44-.13-.45-.21-.67a3,3,0,0,1-.14-.45,5,5,0,0,1,0-.71v-.47c0-.21,0-.43,0-.64a3.47,3.47,0,0,1,0-.51,4.15,4.15,0,0,1,.11-.48c.06-.24.12-.49.16-.74a5.69,5.69,0,0,0,.08-.83,2.85,2.85,0,0,1,0-.42,2.74,2.74,0,0,1,.15-.4,7.47,7.47,0,0,0,.29-.79c.12-.4.26-.79.4-1.18.07-.19.14-.39.2-.58a3.86,3.86,0,0,1,.21-.6,3.17,3.17,0,0,1,.21-.36,5.84,5.84,0,0,0,.43-.71,4.9,4.9,0,0,0,.37-1,.74.74,0,0,0,0-.12l.09-.07A4.48,4.48,0,0,0,180,274a11.6,11.6,0,0,1,.72-1,5.39,5.39,0,0,0,.56-.88,1,1,0,0,0,.07-.16,4.08,4.08,0,0,1,.39-.31l.54-.42.29-.25a5.69,5.69,0,0,1,.61-.49,4,4,0,0,1,.52-.27c.16-.08.33-.15.49-.24a7.36,7.36,0,0,1,1-.44l.62-.26a3,3,0,0,1,.39-.16,7.41,7.41,0,0,1,1-.16l.28.06a8.32,8.32,0,0,0,.87.15,1.7,1.7,0,0,0,.39,0Zm134.72-49.57a5.1,5.1,0,0,1-.06.76,2.26,2.26,0,0,1-.23.31c-.17.22-.34.45-.49.69v0l-.07,0a2.56,2.56,0,0,1-1,.66,3.58,3.58,0,0,1-1.47.17,4.37,4.37,0,0,1-1.77-.48,3.29,3.29,0,0,1-.66-.45c-.16-.14-.29-.34-.33-.36a1.57,1.57,0,0,1-.16-.6,2.3,2.3,0,0,1,0-.64,3,3,0,0,1,.45-1,.73.73,0,0,1,.09-.13l.12-.16a.28.28,0,0,0,.05-.09l.13-.08a7.06,7.06,0,0,0,.74-.55l.29-.23a5.36,5.36,0,0,1,.89-.19l.38-.07a2.7,2.7,0,0,1,.91,0,3.62,3.62,0,0,1,.64.29l.24.12a4.05,4.05,0,0,1,1.21,1.16,1.64,1.64,0,0,1,.11.66Z" style="fill: #1d1d1b"/>
  </g>
</svg>
