<svg xmlns="http://www.w3.org/2000/svg" viewBox="0 0 500 500">
  <title>vindfruen</title>
  <g>
    <path d="M300.87,404.15c-.11-1.21-.2-2.46-.31-3.71-.19-2.47-.39-5-.72-7.52-1.26-9.7-2.45-18.47-4.16-27.49l-.25-1.28c-1.12-5.85-2.18-11.38-2.77-17.1-.34-3.33-1-6.6-1.64-9.77-.36-1.76-.73-3.59-1-5.37-.64-3.75-1.74-8.17-2.92-12.86-1.92-7.69-3.9-15.63-4-21.34a2.33,2.33,0,0,0-.24-1c.33-.74.7-1.48,1.07-2.23.53-1.07,1.07-2.18,1.54-3.3a22,22,0,0,1,1.14-2c1.48-2.47,3-5,2.44-7.39h0s-1.29-5.8-1.73-7.7c-.39-1.69-.87-3.36-1.34-5s-.86-3-1.21-4.47c-.62-2.6-1.47-5.2-2.3-7.71a62.11,62.11,0,0,1-2.72-10.12,53.87,53.87,0,0,1-.28-8.49c0-1.44.06-2.92,0-4.36,0-1,0-2,0-3a64.17,64.17,0,0,0-.19-6.48,23,23,0,0,0-.71-3.55,18.88,18.88,0,0,1-.58-2.8,47.69,47.69,0,0,1-.15-5.28c0-.92,0-1.84,0-2.75a29.09,29.09,0,0,1,.49-3.31c.76-4.22,1.16-7,.27-8.76a2.31,2.31,0,0,0-.18-.35l0,0-.1-.11a1.75,1.75,0,0,0-.16-.2l-.18-.17-.17-.14c-.08-.06-.15-.09-.23-.14l-.14-.08-11.86-4.6a2.23,2.23,0,0,0-.67-.19,2.17,2.17,0,0,0-.95-.13,48.16,48.16,0,0,0-5.52.6c-.39.07-.75.13-1.27.18a28,28,0,0,0-3.77.79c-.72.19-1.39.36-2.06.5a2.52,2.52,0,0,0-.35-1c-.38-.72-2.37-5-2.59-7.14-.16-1.45-.13-6.32-.12-7.95,0-.89,0-1.77,0-2.63,0,0,0,0,0,0,6.32-4,14.46-7.54,21.05-10.58,2.72-1.26,5.29-2.45,7.84-3.69a2.35,2.35,0,0,0,.86-.73,2.42,2.42,0,0,0,1.77-2.31c0-2.06.06-2.58.13-3.78a23.72,23.72,0,0,0-.4-5,21.53,21.53,0,0,1-.36-3.87c.25-7,.25-20.65.19-26.17.47-.45.95-.89,1.43-1.3,1.9-1.64,4.07-3.49,4-6.9a33.63,33.63,0,0,0-2-9.75,80,80,0,0,1-3.91-18.92,4.26,4.26,0,0,0-3.86-2.5c-5.73.75-7.26,1-7.72,1-1.72.23-3.26,1.34-5.05,2.61A30.26,30.26,0,0,1,253,87.59a52.58,52.58,0,0,0-12.16,5.48,58.69,58.69,0,0,1-9.55,4.58c-5.83,2-12.65,4.66-19.07,9.83-5,4.06-11.71,6.34-18.15,8.53l-.93.32c-3.69,1.26-7.59,2.75-11.59,4.42-2.45,1-9.6,3.55-9.68,3.57a2.42,2.42,0,0,0-1.52,2.81h-.46s.13,9.4.17,12.84a87.58,87.58,0,0,1-.74,11c-.18,1.62-.37,3.25-.5,4.87-.34,3.88-.17,7.64-.24,10.7a16.25,16.25,0,0,0,1.6,6.49,16.49,16.49,0,0,1,1.28,4.15c.29,2.48-.32,5.2-.38,7.5a2.62,2.62,0,0,0,.27,1.18,3.24,3.24,0,0,0,.76,1.71c.39.43,1.05,1.32,5.4,1.32l1.15,0c.08,3,.72,11.79.76,13.45a1.1,1.1,0,0,0,0,.18c-1.67,1-3.17,1.89-4.69,2.91s-5.73,3.72-5.74,3.72l.67,1.08a2.41,2.41,0,0,0-1.32,2.57,32.88,32.88,0,0,1,.11,5.08,42.83,42.83,0,0,0,0,4.82,31.21,31.21,0,0,0,.68,3.91,25.64,25.64,0,0,1,.65,4.24,78.39,78.39,0,0,1-.58,10.39c-.2,2.06-.42,4.19-.53,6.31-.24,4.17-.1,8.43,0,12.54.06,1.77.12,3.52.14,5.27.1,5.52.19,10.74-1.14,15.89-.31,1.2-.68,2.39-1.07,3.65a58.68,58.68,0,0,0-1.59,5.81c-.17.76-.32,1.59-.49,2.45-.6,3.24-1.3,6.92-2.59,9.55,0,0,0,0,0,.05s-.06.17-.1.26,0,.14-.07.21,0,.05,0,.07c-.21,1-2,9.71-2.19,12.63-.06.91-.09,1.79-.14,2.68-.09,2-.19,3.93-.47,5.91-.22,1.53-.29,3.07-.36,4.56s-.12,2.68-.28,4c-.69,5.26-1.46,10.13-2.26,14.48-1.06,5.68-1.65,11.51-2.21,17.17-.39,3.95-.81,8-1.36,12A106.58,106.58,0,0,0,151.22,394c0,1.22.09,2.69.17,4.27a84.5,84.5,0,0,1,0,11.9,2.55,2.55,0,0,0-.26,1.14v.7a2.41,2.41,0,0,0,2.16,2.36h.21a2.21,2.21,0,0,0,1-.23c2.54.89,5.65.77,8.42.66,1.21-.05,2.34-.1,3.25-.06,2.58.13,5.2.4,7.73.65,1.66.17,3.33.35,5,.49,4.1.32,8.24.49,12.25.66,3,.12,6.15.26,9.2.45,3.8.26,7.59.27,11.25.28,4.48,0,9.11,0,13.64.48a63.34,63.34,0,0,0,7.37.22,49,49,0,0,1,9.07.52,39.91,39.91,0,0,0,6.33.38c4.09,0,8.34-.27,9.06-.32h.09c9.66-1,10.11-1.09,12.63-1.4l.4-.05a107.89,107.89,0,0,1,12.14-.58c1.49,0,2.92-.13,4.3-.23s2.51-.19,3.78-.22h.22c2.58,0,5.22-.17,7.17-1a2.18,2.18,0,0,0,1,.27h0a2.42,2.42,0,0,0,2.34-2.46C301.22,412.62,301.15,407.12,300.87,404.15Z" style="fill: #c4c4c6"/>
    <path d="M358.29,415a9.38,9.38,0,0,0-1.59,0,6.17,6.17,0,0,1-.86,0,7.24,7.24,0,0,1-.88-.21,10.46,10.46,0,0,0-1.59-.35,9.2,9.2,0,0,0-1.74,0c-.22,0-.44,0-.65,0-.05,0-.1,0-.08,0l-.47-.23a5.28,5.28,0,0,0-2.05-.71l-1.51-.13-1-.08a5.67,5.67,0,0,0-2.13.31l-.44.14a8.14,8.14,0,0,1-.92-.16,10.93,10.93,0,0,0-1.57-.26,4.58,4.58,0,0,1-.71-.18,6.81,6.81,0,0,0-1.79-.39,10.78,10.78,0,0,0-1.6.05c-.26,0-.52.05-.79.05h-.14c-.49,0-1,0-1.5,0a8.81,8.81,0,0,1-1,0,4.42,4.42,0,0,1-.59-.18,6.33,6.33,0,0,0-1.92-.44h-.24a11.09,11.09,0,0,0-1.4.12,5.45,5.45,0,0,1-.89.08,5.64,5.64,0,0,1-.86-.13,9.63,9.63,0,0,0-1.66-.23l-1.1-.06c-.47,0-.94-.07-1.41-.08a5.39,5.39,0,0,0-2,.36,3.65,3.65,0,0,1-.55.15,3.86,3.86,0,0,1-.59-.16,6.48,6.48,0,0,0-2-.39,6.4,6.4,0,0,0-1.8.31,4.18,4.18,0,0,1-.63.14,3.51,3.51,0,0,1-.58-.16,6.33,6.33,0,0,0-1.94-.39h-.23l-1.13,0c-.33,0-.67,0-1,0h-.16c-.35,0-.7,0-1.05-.07s-1-.09-1.46-.1l-2.56,0a3.69,3.69,0,0,0-.9.12v-.17a4.7,4.7,0,0,1,0-.54c0-.3,0-.62,0-.95s0-.36,0-.54a5.83,5.83,0,0,0-.11-1.13c0-.13-.05-.25-.06-.37a8,8,0,0,0-.13-1.14c0-.14-.05-.27-.06-.35a1.15,1.15,0,0,1,0-.26,5.5,5.5,0,0,0,.06-1.21,1.83,1.83,0,0,1,0-.33,6.34,6.34,0,0,0,0-1.09,4.18,4.18,0,0,0-.43-1.44v0a4.76,4.76,0,0,0,.13-1.38,5,5,0,0,0-.31-1.25.38.38,0,0,0-.06-.15h0a1.51,1.51,0,0,1,0-.3,6.11,6.11,0,0,0,0-1.17,4.91,4.91,0,0,0-.35-1.28l-.06-.14a1.53,1.53,0,0,1,0-.37,6,6,0,0,0,0-1.09,6.45,6.45,0,0,0-.21-1c0-.14-.08-.28-.09-.35a1.94,1.94,0,0,1,0-.24,5.09,5.09,0,0,0,0-1.25,1.93,1.93,0,0,1,0-.34,5.89,5.89,0,0,0,0-1.08,3.77,3.77,0,0,0-.55-1.46s0-.05,0-.08c0-.21-.07-.42-.11-.63s0-.23-.07-.35,0,0,0,0a3.89,3.89,0,0,0,.17-1.65,5.32,5.32,0,0,0-.33-1.16c0-.08-.07-.16-.08-.2a3.24,3.24,0,0,1,0-.44,8.07,8.07,0,0,0-.07-1l-.21-1.4a5.2,5.2,0,0,0-.37-1.2.73.73,0,0,0-.08-.16c0-.28-.1-.56-.16-.84L301,380a.36.36,0,0,0,0-.11,3.92,3.92,0,0,0,.07-1.47l-.09-.63c0-.26-.07-.52-.11-.77a4.18,4.18,0,0,0-.53-1.38l-.06-.11c0-.21-.07-.42-.11-.63s-.08-.41-.12-.63a8.21,8.21,0,0,0-.18-.83c0-.15-.07-.3-.1-.45s0-.1,0-.14a4.58,4.58,0,0,0,0-1.4l-.15-.78c-.05-.21-.09-.41-.13-.62a4.33,4.33,0,0,0-.44-1.23l0,0a3.81,3.81,0,0,0,0-1.54,4.47,4.47,0,0,0-.42-1.16l-.07-.15c0-.21-.09-.42-.14-.64s-.09-.37-.12-.56l-.21-1h0a3.72,3.72,0,0,0,.07-1.55,4.72,4.72,0,0,0-.47-1.23l-.06-.1-.06-.44c0-.24-.07-.48-.11-.66s0-.14,0-.22a5.21,5.21,0,0,0-.05-1.14,2.22,2.22,0,0,0-.34-.84c-.05-.14-.09-.29-.14-.43a3.39,3.39,0,0,1-.19-.65,5.06,5.06,0,0,1-.06-.75,9.65,9.65,0,0,0-.1-1.24,8.85,8.85,0,0,0-.34-1.31,4.36,4.36,0,0,1-.18-.64,7.54,7.54,0,0,1-.06-.83,11.11,11.11,0,0,0-.08-1.15c0-.37-.11-.73-.18-1.1a8.6,8.6,0,0,1-.15-.86,4.28,4.28,0,0,1,0-.62,7.78,7.78,0,0,0-.05-1.41c0-.23,0-.46,0-.7a10.83,10.83,0,0,0-.12-1.3,5.88,5.88,0,0,0-.51-1.49c-.06-.14-.15-.34-.17-.4-.07-.37-.16-.74-.24-1.11s-.13-.53-.18-.78a3.34,3.34,0,0,1,0-.41,5.59,5.59,0,0,0-.06-1.6,9,9,0,0,0-.38-1.23,4.3,4.3,0,0,1-.2-.62,7.54,7.54,0,0,1-.12-.81c-.05-.37-.09-.73-.17-1.14-.12-.6-.24-1.21-.34-1.81a7.56,7.56,0,0,0-.39-1.33,6.29,6.29,0,0,1-.2-.65c-.08-.39-.18-.79-.28-1.18s-.14-.53-.2-.8a3.79,3.79,0,0,1,0-.52,7.56,7.56,0,0,0-.15-1.53l-.19-.78c-.09-.39-.18-.79-.28-1.19a6.2,6.2,0,0,0-.54-1.37,4.71,4.71,0,0,1-.23-.51c-.09-.34-.18-.69-.28-1s-.16-.6-.23-.9-.2-.7-.3-1.05-.18-.58-.26-.87a3.9,3.9,0,0,1,0-.58,7.43,7.43,0,0,0-.19-1.42l-.24-.9-.27-1a8,8,0,0,0-.46-1.27,4.57,4.57,0,0,1-.23-.6,3.33,3.33,0,0,1,0-.49,5.63,5.63,0,0,0-.13-1.51,9,9,0,0,0-.41-1.24c-.09-.24-.18-.47-.22-.63l-.19-.81c-.08-.37-.17-.74-.24-1.11l0-.15c-.13-.6-.25-1.19-.35-1.77a2.92,2.92,0,0,1,0-.5,6,6,0,0,0,0-1.46,8.78,8.78,0,0,0-.34-1.29A6.07,6.07,0,0,1,286,302c-.05-.46-.09-.93-.12-1.38l0-.51a5.8,5.8,0,0,1,0-.8,9.69,9.69,0,0,0,.05-1.07,2.18,2.18,0,0,0-.38-1.18c.34-.73.71-1.46,1.09-2.2.55-1.09,1.12-2.21,1.61-3.35a24.28,24.28,0,0,1,1.21-2.11c1.34-2.17,2.7-4.39,2.65-6.46a2.28,2.28,0,0,0,0-.9c-.15-.66-.22-1-.3-1.27s-.15-.61-.32-1.33c-.08-.36-.14-.75-.2-1.13s-.16-1-.27-1.51a11.36,11.36,0,0,0-.73-2,4.6,4.6,0,0,1-.22-.51c-.16-.67-.34-1.32-.53-2l-.14-.51q-.21-.72-.45-1.44l-.3-1a5.73,5.73,0,0,1-.15-.91,9.91,9.91,0,0,0-.29-1.53c-.11-.4-.25-.78-.38-1.17s-.28-.78-.36-1.12-.13-.67-.18-1a12.56,12.56,0,0,0-.36-1.81,7.81,7.81,0,0,0-.84-1.76,5.51,5.51,0,0,1-.41-.77,4.59,4.59,0,0,1-.08-.79,7,7,0,0,0-.31-2,8.46,8.46,0,0,0-.81-1.65,4.19,4.19,0,0,1-.42-.8,10.38,10.38,0,0,1-.3-1.22c-.1-.46-.2-.92-.33-1.38s-.26-.8-.4-1.2a12.57,12.57,0,0,1-.41-1.29,11.57,11.57,0,0,1-.18-1.36c0-.39-.07-.79-.13-1.19-.12-.77-.2-1.58-.25-2.46a11.28,11.28,0,0,0-.19-1.43,7.4,7.4,0,0,1-.13-1.13,4.92,4.92,0,0,1,.13-.95,8.9,8.9,0,0,0,.22-1.68,8,8,0,0,0-.23-1.84,6.47,6.47,0,0,1-.13-.86,3.51,3.51,0,0,1,.19-.69,6.59,6.59,0,0,0,.38-2.07c0-.54-.07-1.08-.12-1.62a11,11,0,0,1-.1-1.46,19.32,19.32,0,0,0-.13-1.94,11,11,0,0,1-.1-1.28c0-1.09-.09-2.18-.21-3.32l0-.34a19.34,19.34,0,0,0-.51-3.25,19.08,19.08,0,0,1-.44-2.9c0-.41-.11-.81-.18-1.22a10.72,10.72,0,0,1-.17-1.36c0-.55-.08-1.07-.13-1.54a7.65,7.65,0,0,1-.1-1.2,5.66,5.66,0,0,1,.13-1,9.57,9.57,0,0,0,.21-1.89,12.27,12.27,0,0,1,.19-2.4c.07-.39.16-.8.26-1.21s.24-1.08.33-1.64a9.71,9.71,0,0,0,.08-2.18,8.73,8.73,0,0,1,0-.89c0-.35.09-.69.14-1a4.31,4.31,0,0,0-.35-3.33,2.18,2.18,0,0,0-1.69-.95L267.5,190a1.69,1.69,0,0,0-.36-.12,2.15,2.15,0,0,0-1.21-.28c-.44,0-.85.09-1.23.15l-.57.08c-.49,0-.92.1-1.31.16-.18,0-.35.06-.51.07a4,4,0,0,1-.77,0,6.27,6.27,0,0,0-1.12,0l-.86.19a3.24,3.24,0,0,1-.74.15l-.46,0a8.61,8.61,0,0,0-1.33.14l-.32.07c-.44.09-.88.18-1.32.29a6.19,6.19,0,0,0-1.14.44,2.73,2.73,0,0,1-.31.14,2.39,2.39,0,0,1-.43,0,8.56,8.56,0,0,0-1,.1l-.1,0a2.18,2.18,0,0,0-.35-1.14,29.25,29.25,0,0,1-1.32-6.36,41.27,41.27,0,0,1-.12-4.75c0-.9,0-1.8,0-2.68a1.1,1.1,0,0,0,0-.18l.27-.19a11.35,11.35,0,0,1,1-.74c.51-.3,1-.58,1.55-.86l.86-.48a10.34,10.34,0,0,1,1.15-.53c.46-.2.93-.4,1.37-.63l1.09-.6c.44-.25.89-.5,1.34-.73l.67-.33c.6-.31,1.21-.62,1.82-.91.43-.21.87-.39,1.31-.58l1.24-.55c.47-.22.91-.47,1.36-.72s.74-.41,1.12-.59l2.56-1.15c.46-.21.9-.43,1.35-.65s.78-.4,1.18-.58a11.73,11.73,0,0,1,1.11-.39c.47-.16,1-.33,1.56-.57a15.62,15.62,0,0,0,1.49-.81,8.7,8.7,0,0,1,1-.56c.36-.16.73-.3,1.1-.44s1-.37,1.54-.62l.23-.13.23,0h.06a2.21,2.21,0,0,0,2.15-2.25,6.55,6.55,0,0,1,0-1.08,13.45,13.45,0,0,0,.05-1.68c0-.42,0-.86,0-1.3s0-1,0-1.45a16.08,16.08,0,0,1,.13-1.85c0-.31.07-.57.08-.77a9.66,9.66,0,0,0-.26-2.55,8.79,8.79,0,0,1-.15-.87c-.06-.45-.1-.9-.13-1.35s-.09-1.13-.16-1.68a14.86,14.86,0,0,1-.15-2.61,9.31,9.31,0,0,0-.09-1.63,8,8,0,0,1-.07-1,8.45,8.45,0,0,1,.13-1,11.16,11.16,0,0,0,.19-1.67,10.61,10.61,0,0,0-.12-1.66,6.36,6.36,0,0,1-.09-1l0-1.84v-.8a8.6,8.6,0,0,1,.13-1,11.17,11.17,0,0,0,.19-1.66,15.42,15.42,0,0,0-.1-1.6,10.08,10.08,0,0,1-.07-1c0-.51,0-1,0-1.51s0-.76,0-1.13,0-.84.05-1.23.06-1,.06-1.4v-1.85c.53-.51,1.08-1,1.62-1.44,2-1.62,4.17-3.47,4.11-6.82A49.59,49.59,0,0,0,285,99.83a95.41,95.41,0,0,1-4.51-21.07,2.2,2.2,0,0,0-2.35-2.05,2.65,2.65,0,0,0-.49.09,2.2,2.2,0,0,0-.85-.06c-.72.09-1.05.15-1.39.21s-.61.11-1.3.2c-.39,0-.8.08-1.21.1s-1,.07-1.51.14a6.26,6.26,0,0,1-1.83-.09,3.31,3.31,0,0,0-1,0,8.56,8.56,0,0,0-3.28,1.43,14.23,14.23,0,0,0-1.31,1c-.28.22-.57.45-.89.67s-.6.44-.9.67-.76.58-1.14.82a13.13,13.13,0,0,1-1.25.63l-.93.45a9.4,9.4,0,0,0-1.21.77,5,5,0,0,1-.84.53,14.78,14.78,0,0,1-1.66.47l-.66.16-.92.21a14.38,14.38,0,0,0-2,.5c-1,.35-1.92.74-2.7,1.08a15.28,15.28,0,0,0-1.62.85c-.3.17-.6.35-.92.5a5.26,5.26,0,0,1-.87.28,8.44,8.44,0,0,0-1.82.66,7,7,0,0,0-1.6,1.26,4.51,4.51,0,0,1-.6.52c-.48.26-1,.5-1.45.75l-1,.51c-.8.41-1.6.83-2.41,1.22a7.65,7.65,0,0,1-1.12.38c-.42.13-.91.27-1.4.47s-.78.35-1.16.54a9.38,9.38,0,0,1-1.22.54,4.58,4.58,0,0,1-.81.09,7.35,7.35,0,0,0-2,.33c-.35.13-.7.23-1.06.33a16.17,16.17,0,0,0-1.59.51,5.25,5.25,0,0,0-1.92,1.4l-.35.37a4.24,4.24,0,0,1-.65.08,5.72,5.72,0,0,0-2.19.48c-.57.28-1.08.59-1.58.88l-.87.51c-.63.34-1.24.72-1.85,1.1l-1,.61c-.65.4-1.32.81-2,1.27a6.67,6.67,0,0,0-1.47,1.51,4.33,4.33,0,0,1-.49.59,4,4,0,0,1-.8.34,8.73,8.73,0,0,0-1.69.77c-.73.47-1.51.9-2.33,1.35a7.25,7.25,0,0,0-1.55,1.2,4.34,4.34,0,0,1-.63.55,8.61,8.61,0,0,1-1.15.38,14.45,14.45,0,0,0-1.5.49,8.07,8.07,0,0,1-1.16.35,12.57,12.57,0,0,0-1.53.44A8.07,8.07,0,0,0,198,112a4.33,4.33,0,0,1-.79.47c-.5.17-1,.33-1.49.48l-1.22.39a11.44,11.44,0,0,1-1.15.28,10,10,0,0,0-3.12,1,7.39,7.39,0,0,1-.9.4c-.34.12-.69.22-1,.32-.49.14-1,.28-1.41.44a4.54,4.54,0,0,1-.57,0,5.44,5.44,0,0,0-2.11.29,7.27,7.27,0,0,0-1.61.89,4.33,4.33,0,0,1-.67.41,10.17,10.17,0,0,0-1.48.76c-.3.17-.59.34-.82.44s-.53.17-.89.27-1.05.29-1.66.51a6,6,0,0,1-.94.2,9.87,9.87,0,0,0-1.72.41,9.26,9.26,0,0,0-1.73.88,5.2,5.2,0,0,1-.7.4,6.13,6.13,0,0,1-1.08.29,8.28,8.28,0,0,0-1.56.39,2.21,2.21,0,0,0-1.34,1.3,2.16,2.16,0,0,0-.47,1.38c0,.74.05,1.1.08,1.41a8.26,8.26,0,0,1,.07,1.2,6.54,6.54,0,0,1-.07.91,14.59,14.59,0,0,0-.1,1.71c0,.48,0,1,.09,1.46s.07.77.08,1.15,0,.74-.07,1.15a14.12,14.12,0,0,0-.07,1.48c0,.51,0,1,0,1.42s0,.84,0,1.19,0,.67,0,1c0,.53,0,1.07,0,1.6s-.08,1.26-.13,1.89l-.06.75c0,.43-.05.86-.07,1.29s0,.92-.08,1.39c-.09.9-.18,1.8-.28,2.7-.06.5-.08,1-.11,1.52s0,.81-.08,1.22-.08,1.08-.1,1.62c0,.38,0,.76-.06,1.15s-.1.65-.17,1a13.56,13.56,0,0,0-.24,1.6,12.44,12.44,0,0,0,0,1.61,9.42,9.42,0,0,1,0,1.06,6.13,6.13,0,0,1-.2.8,8.46,8.46,0,0,0-.36,1.83l0,.67c0,.67-.06,1.34-.08,2a7,7,0,0,0,.59,2.66c.09.22.17.45.24.68a28.34,28.34,0,0,0,1,2.78,6,6,0,0,1,.26,1,12,12,0,0,0,.38,1.52l0,.14a10.3,10.3,0,0,1,.56,2c0,.27.07.56.12.88a13.14,13.14,0,0,1,.22,1.87c0,.5,0,1,0,1.55s0,.91,0,1.36c0,.6,0,1.2,0,1.77,0,.4,0,.79,0,1.16a16.61,16.61,0,0,0,.05,1.74c0,.29,0,.56,0,1.19a2.24,2.24,0,0,0,.32,1.21c.14.87.8,1.86,2.85,2.38a1.85,1.85,0,0,1,.29.13,5.17,5.17,0,0,0,1.85.54h.22a5.72,5.72,0,0,0,1.29-.18,4.5,4.5,0,0,1,.46-.08h1.24c.09,3,.24,8.55.27,10.32a1.35,1.35,0,0,0,0,.29l-.3.17c-.2.11-.4.19-.61.28a9.43,9.43,0,0,0-1.13.54l-1,.65-.59.37a7.21,7.21,0,0,0-1,.78,4.87,4.87,0,0,1-.5.4l-.47.26c-.32.18-.69.37-1.06.61s-.57.39-.86.61a6.36,6.36,0,0,1-.59.43,4,4,0,0,1-.52.23,6.11,6.11,0,0,0-1.11.53l-1.5.94a2.2,2.2,0,0,0-.85,2.73,2.1,2.1,0,0,0,0,.79,19.32,19.32,0,0,1,.13,2.24,8.49,8.49,0,0,0,.17,1.51,5.57,5.57,0,0,1,.11.92,3.42,3.42,0,0,1-.2.54,5.56,5.56,0,0,0-.53,2.1,8.58,8.58,0,0,0,.27,2.06,6.77,6.77,0,0,1,.13.74,26.3,26.3,0,0,0,.49,3.07,8.54,8.54,0,0,0,.59,1.71,6.52,6.52,0,0,1,.35,1,4.13,4.13,0,0,1-.08.9,8.47,8.47,0,0,0-.14,1.67c0,.41.05.82.08,1.23s.08,1,.07,1.5a10.85,10.85,0,0,0,.11,1.68,6.82,6.82,0,0,1,.08,1.12c-.07.94-.14,1.89-.23,2.83a4.88,4.88,0,0,1-.28.8,7.87,7.87,0,0,0-.57,2,8.88,8.88,0,0,0,.08,2,5.09,5.09,0,0,1,.06,1,7.31,7.31,0,0,1-.2,1,9.85,9.85,0,0,0-.31,1.87,12.11,12.11,0,0,0,.08,2c0,.41.07.8.07,1.14s0,.8-.08,1.21a17.86,17.86,0,0,0-.09,1.84,14.12,14.12,0,0,0,.14,1.78c.05.42.1.83.11,1.24s0,.89,0,1.34,0,1.11,0,1.67,0,.88,0,1.32,0,1.08,0,1.66.07,1.05.12,1.58a12.81,12.81,0,0,1,.1,1.38,10.29,10.29,0,0,1-.07,1.18,13.58,13.58,0,0,0-.1,1.63,9.8,9.8,0,0,0,.2,1.74,5.54,5.54,0,0,1,.13,1,4,4,0,0,1-.2.86,8,8,0,0,0-.38,1.85,9.79,9.79,0,0,0,.1,1.69,6.79,6.79,0,0,1,.06,1,6.17,6.17,0,0,1-.29,1.06,10.48,10.48,0,0,0-.42,1.53,7.87,7.87,0,0,0-.08,1.78,3.62,3.62,0,0,1,0,.9c-.2.76-.43,1.53-.66,2.3-.08.25-.23.55-.37.88a9.23,9.23,0,0,0-.58,1.4c-.16.51-.29,1-.43,1.54-.07.31-.15.62-.24.92-.17.61-.28,1.2-.39,1.77,0,.26-.1.53-.16.79s-.15.69-.24,1.09-.21.9-.32,1.4-.17.8-.25,1.21l-.27,1.3c-.08.37-.2.74-.3,1.11a13.73,13.73,0,0,0-.37,1.36c-.12.53-.2,1.06-.27,1.56,0,.34-.09.67-.16,1a1.27,1.27,0,0,1-.22.58,4.79,4.79,0,0,0-.76,1.82v0a3.38,3.38,0,0,0-.11.34c-.1.52-.17.75-.23,1s-.17.65-.34,1.52q-.12.6-.24,1.29t-.21,1.23c-.07.32-.13.65-.2,1-.11.52-.21,1-.31,1.54-.16.9-.3,1.78-.43,2.57a12,12,0,0,0-.12,2.2c0,.2,0,.38,0,.54-.05.66-.07,1.3-.1,1.94,0,.36,0,.72,0,1.08s-.09.92-.16,1.42-.14,1-.18,1.49c-.07.9-.15,1.86-.29,2.81a18.4,18.4,0,0,0-.15,2.16c0,.31,0,.62,0,.92l-.09,1.34c0,.52-.08,1-.11,1.56,0,.32,0,.65,0,1,0,.62,0,1.2-.11,1.73a10,10,0,0,1-.28,1.19,12.29,12.29,0,0,0-.4,1.73c-.06.41-.12.82-.17,1.22-.08.58-.16,1.16-.25,1.74a15.88,15.88,0,0,0-.14,1.72,11.5,11.5,0,0,1-.1,1.27c-.08.48-.19.95-.3,1.42s-.23,1-.33,1.51-.15.95-.22,1.43c0,.21-.07.42-.1.63a2.26,2.26,0,0,0-.36.84c0,.23-.1.45-.16.67s-.18.72-.25,1.08-.1.72-.14,1.08-.05.47-.09.7-.08.48-.12.72-.13.69-.18,1l-.15,1.11-.08.66a5.08,5.08,0,0,0,0,1.5c0,.11,0,.23,0,.3,0,.33-.07.66-.1,1s0,.52-.07.78a3.73,3.73,0,0,1-.13.44,6.85,6.85,0,0,0-.3,1.29c0,.32-.06.64-.09,1s-.05.53-.08.79a8.08,8.08,0,0,0,0,1.19,5.61,5.61,0,0,1,0,.58c0,.24-.07.48-.11.71s-.12.68-.16,1a8.68,8.68,0,0,0,0,1.14c0,.18,0,.37,0,.55a2.72,2.72,0,0,1-.11.25,5.09,5.09,0,0,0-.46,1.52c0,.3-.06.6-.08.9s-.05.56-.08.84a5.19,5.19,0,0,0,.09,1.49l.05.27a3.78,3.78,0,0,1-.13.56,8.74,8.74,0,0,0-.25,1.15c0,.35-.06.7-.07,1.05a5.17,5.17,0,0,1,0,.68c0,.3-.09.61-.14.91s-.09.53-.13.79-.07.73-.1,1.09,0,.45-.05.67-.08.47-.12.71-.12.68-.16,1a1.89,1.89,0,0,1-.13.33,6.18,6.18,0,0,0-.39,1.42,4.54,4.54,0,0,0,.18,1.69l.06.22c0,.2-.05.4-.07.6s-.09.7-.11,1a2.31,2.31,0,0,1-.1.28,4.68,4.68,0,0,0-.41,1.56,10.44,10.44,0,0,0,0,1.12q0,.33,0,.66a6.14,6.14,0,0,0,.13,1.39,3.41,3.41,0,0,1,.07.4c0,.1,0,.3-.08.49a7.27,7.27,0,0,0-.15,1.29,5.43,5.43,0,0,0,.23,1.45c0,.1.06.19.07.28a1.17,1.17,0,0,1-.07.25,6.22,6.22,0,0,0-.27,1.54,10.11,10.11,0,0,0,0,1.09,5.79,5.79,0,0,1,0,.72A8.94,8.94,0,0,0,148,401a4.63,4.63,0,0,1,0,.65l0,.76c0,.36,0,.73-.05,1.1s0,.46-.07.69c0,.4-.1.79-.11,1.19v.31c0,.54,0,1.07,0,1.59a4.11,4.11,0,0,1-.08.42,5,5,0,0,0-.18,1.54,10.94,10.94,0,0,0,.21,1.52c0,.18.07.35.1.51a6.89,6.89,0,0,0,.29,1.26h-1.44c-.61,0-1.16.11-1.64.18-.3.05-.58.09-.85.11l-1.08.05c-.53,0-1,0-1.41.09a2.25,2.25,0,1,0,0,4.5h.45a14.29,14.29,0,0,1,1.43.08,2.75,2.75,0,0,1,.41.17,6.93,6.93,0,0,0,2.09.59,9,9,0,0,0,1.54,0,5.89,5.89,0,0,1,.95,0l1,.12c.47.05.95.11,1.46.15a11.47,11.47,0,0,0,1.44,0c.33,0,.7,0,1,0,.09,0,.34.11.52.18a6.17,6.17,0,0,0,1.91.49l1.06.11c.46.05.92.1,1.39.13a6.13,6.13,0,0,0,1.92-.25,3.92,3.92,0,0,1,.57-.12c.43,0,.86,0,1.3.05l1.16,0a13.87,13.87,0,0,0,1.44,0c.34,0,.68,0,1,0a7.87,7.87,0,0,1,.91.14,12.68,12.68,0,0,0,1.53.2,10.92,10.92,0,0,0,1.51,0c.26,0,.52,0,.78,0h.13a5.12,5.12,0,0,1,.48.19,5.77,5.77,0,0,0,2,.54h.3a10.52,10.52,0,0,0,1.34-.11,4.67,4.67,0,0,1,.83-.08,12.23,12.23,0,0,0,1.48,0c.26,0,.53,0,.79,0h.2l1.29,0,1.1,0c.08,0,.32.12.47.18a5.47,5.47,0,0,0,2,.55H183a6.47,6.47,0,0,0,1.77-.31,3,3,0,0,1,.53-.14l2.46.1a7.51,7.51,0,0,1,.9.12,12.51,12.51,0,0,0,1.55.2h.21a8.74,8.74,0,0,0,1.45-.15,4.24,4.24,0,0,1,.8-.09,5.29,5.29,0,0,1,.58.17,6.41,6.41,0,0,0,1.87.41h.16a7.39,7.39,0,0,0,1.63-.22,3.83,3.83,0,0,1,.67-.12,4,4,0,0,1,.56.17,6.17,6.17,0,0,0,1.89.41h.15a7.11,7.11,0,0,0,1.69-.25,3.84,3.84,0,0,1,.62-.13c.09,0,.36.11.55.17a6,6,0,0,0,1.91.42h.11A5.52,5.52,0,0,0,207,421l.43-.15a3.92,3.92,0,0,1,.6.16,6.5,6.5,0,0,0,1.85.37c.34,0,.69.05,1,.08s.95.1,1.42.11.71.05,1.07.08.92.08,1.39.09h.23c.39,0,.79,0,1.19-.05s.61,0,.92,0h.43l1,0,.89,0h.21a5.63,5.63,0,0,1,.86.12,10,10,0,0,0,1.66.19,5.53,5.53,0,0,0,2-.45l.42-.15.46.16a5.8,5.8,0,0,0,2,.44h.23c.38,0,.76,0,1.14,0l.95,0h2.67a7,7,0,0,0,1.73-.26,4,4,0,0,1,.67-.13,3.53,3.53,0,0,1,.65.15,7.28,7.28,0,0,0,1.85.3,7.38,7.38,0,0,0,1.72-.25,4.2,4.2,0,0,1,.69-.13,3.93,3.93,0,0,1,.73.14,8.16,8.16,0,0,0,1.76.25,6.26,6.26,0,0,0,1.85-.33,5.61,5.61,0,0,1,.58-.15,3.86,3.86,0,0,1,.7.14,7.22,7.22,0,0,0,1.81.27,8,8,0,0,0,1.7-.23,4,4,0,0,1,.76-.13h0a4,4,0,0,1,.66.14,7.09,7.09,0,0,0,1.83.29,4.93,4.93,0,0,1,.75.13,8.11,8.11,0,0,0,1.74.24h0a5,5,0,0,0,2.22-.64l.38-.18,1,0c.45,0,.91.05,1.41.05s.89,0,1.34,0,.77,0,1.18,0,.69,0,1,0,.89.06,1.4.06h0a3.62,3.62,0,0,1,.59.15,6.42,6.42,0,0,0,1.91.34c.46,0,.92,0,1.38-.07l1.11-.06c.47,0,.94,0,1.42-.08s.71-.06,1.08-.06.92,0,1.39-.08.73-.06,1.16-.06.67,0,1,.05.88.06,1.32.06h.12a8.1,8.1,0,0,0,1.72-.26,4.92,4.92,0,0,1,.77-.13h.11c.34,0,.67,0,1,0s.81,0,1.21,0h.23c.32,0,.64,0,1,.06s.91.08,1.36.08h.13l2.49-.05c.52,0,1-.06,1.45-.11s.69-.07,1-.08a4.57,4.57,0,0,1,.71.13,7.43,7.43,0,0,0,1.78.24h0a5.89,5.89,0,0,0,1.93-.41,4,4,0,0,1,.55-.16h2.49l1.32,0,1.2,0a6.12,6.12,0,0,1,.87.09,10.66,10.66,0,0,0,1.47.12h.12a13,13,0,0,0,1.5-.14c.36,0,.7-.09,1-.09a3.56,3.56,0,0,1,.61.14,6.57,6.57,0,0,0,1.88.3h.12c.32,0,.63,0,.95,0s.8.05,1.21.05h.21a4.86,4.86,0,0,0,2.22-.67l.3-.15.37.14a5.6,5.6,0,0,0,2.08.45h0c.47,0,.95-.06,1.42-.1s.71-.07,1.06-.08l1.33-.05c.39,0,.77-.05,1.16-.06h1.15c.44,0,.89,0,1.34,0a6,6,0,0,0,1.94-.42,4.89,4.89,0,0,1,.52-.17,4.26,4.26,0,0,1,.58.14,5.82,5.82,0,0,0,1.93.33h1.19l1.3,0a5.92,5.92,0,0,0,2-.48,3.89,3.89,0,0,1,.53-.17,7.69,7.69,0,0,1,.85.08,9.89,9.89,0,0,0,1.41.12H334a7.59,7.59,0,0,1,.87.08,11,11,0,0,0,1.38.11h.19a6.73,6.73,0,0,0,1.9-.4,4,4,0,0,1,.57-.17h1.2l1.37,0a8.47,8.47,0,0,1,.88.07,10.21,10.21,0,0,0,1.3.09h.23a11.53,11.53,0,0,0,1.6-.19,7,7,0,0,1,.88-.12c.39,0,.77,0,1.14,0s1,0,1.32,0a4.65,4.65,0,0,1,.54.16,5.53,5.53,0,0,0,1.85.39h.16a7.61,7.61,0,0,0,1.9-.37,5,5,0,0,1,.58-.15,11.23,11.23,0,0,0,1.84-.28,5.31,5.31,0,0,1,.66-.12c.71,0,1.24,0,1.55,0l.46,0a2.27,2.27,0,0,0,2.26-2.2A2.3,2.3,0,0,0,358.29,415ZM285.68,287.08a24.68,24.68,0,0,0-1.5,2.66c-.44,1-1,2.09-1.51,3.12-.4.8-.8,1.59-1.17,2.37-1.15-.32-2.44-.58-3.82-.86-2.55-.51-5.44-1.09-6.64-2.09a2,2,0,1,0-2.55,3.09c2,1.63,5.24,2.29,8.4,2.92a31.33,31.33,0,0,1,4.54,1.13,7.07,7.07,0,0,0,0,1l0,.48c0,.52.08,1.06.15,1.61A7.44,7.44,0,0,0,282,304a4.88,4.88,0,0,1,.17.6,2.73,2.73,0,0,1,0,.47,6,6,0,0,0,.05,1.61c.11.61.24,1.23.36,1.85l0,.15c.09.41.18.82.28,1.23l.17.76a8.11,8.11,0,0,0,.43,1.29c.09.24.18.47.22.63a2.47,2.47,0,0,1,0,.49,6.56,6.56,0,0,0,.14,1.56,9.56,9.56,0,0,0,.47,1.3,3.9,3.9,0,0,1,.24.6c.09.36.18.72.28,1.08l.23.86a3.93,3.93,0,0,1,.05.59,8.46,8.46,0,0,0,.19,1.42c.09.35.2.7.3,1s.18.59.25.88l.26.95.26,1a6.49,6.49,0,0,0,.55,1.38,3.35,3.35,0,0,1,.21.48c.1.37.18.74.27,1.1l.19.82c0,.11,0,.36,0,.57a6.46,6.46,0,0,0,.13,1.43c.07.31.15.62.23.92s.16.65.23,1a9.57,9.57,0,0,0,.37,1.25,4.4,4.4,0,0,1,.19.61c.11.63.24,1.26.37,1.94,0,.26.08.51.11.77s.1.79.18,1.18a8.92,8.92,0,0,0,.38,1.25,5.33,5.33,0,0,1,.19.58,3,3,0,0,1,0,.41,5.77,5.77,0,0,0,.05,1.58l.21,1c.08.3.15.61.21.92a6,6,0,0,0,.49,1.4,2.58,2.58,0,0,1,.17.41,4.9,4.9,0,0,1,.06.77,10,10,0,0,0,.1,1.1,4.62,4.62,0,0,1,0,.65,8.47,8.47,0,0,0,0,1.22c.05.42.13.83.21,1.25,0,.26.1.53.14.79s0,.52.05.78a12.37,12.37,0,0,0,.09,1.29,8.47,8.47,0,0,0,.35,1.37,4.29,4.29,0,0,1,.18.63,5.84,5.84,0,0,1,.05.73,11.32,11.32,0,0,0,.12,1.32,7.52,7.52,0,0,0,.37,1.34,6.58,6.58,0,0,1,.19.64,1.89,1.89,0,0,0,.1.36,4,4,0,0,0,.06.94c0,.18.06.35.08.53s.07.51.12.76a4.23,4.23,0,0,0,.43,1.16,3.54,3.54,0,0,0,0,1.41l.26,1.28c0,.24.1.47.15.7s.09.38.13.57a4,4,0,0,0,.42,1.15h0a3.89,3.89,0,0,0,0,1.52,4.52,4.52,0,0,0,.43,1.21l.09.18c0,.21.08.42.13.63s.07.38.11.57a.77.77,0,0,0,0,.15,4.43,4.43,0,0,0,0,1.38c0,.28.11.55.18.82s.09.37.12.55.08.46.13.7l.12.68a4.06,4.06,0,0,0,.52,1.36l.06.1c0,.18,0,.35.07.53s.05.38.08.57a.5.5,0,0,1,0,.12,4.14,4.14,0,0,0-.07,1.47c0,.27.1.54.16.81s.08.37.11.56a5.37,5.37,0,0,0,.37,1.2l.07.15.22,1.39c0,.14,0,.29,0,.44a7.73,7.73,0,0,0,.06,1,5.32,5.32,0,0,0,.33,1.16l0,.06a3.51,3.51,0,0,0-.16,1.59,7.62,7.62,0,0,0,.14.81c0,.19.07.38.1.57a4,4,0,0,0,.55,1.46l0,0c0,.07,0,.13,0,.19a5.82,5.82,0,0,0,0,1,1.94,1.94,0,0,1,0,.24,4.58,4.58,0,0,0,0,1.25,6.45,6.45,0,0,0,.21,1,2.86,2.86,0,0,1,.1.42,2.28,2.28,0,0,1,0,.37,7.1,7.1,0,0,0,0,1,5.53,5.53,0,0,0,.34,1.23,1.11,1.11,0,0,1,.07.16,2,2,0,0,1,0,.24,5.79,5.79,0,0,0,0,1.14,5.28,5.28,0,0,0,.3,1.22l.05.12s0,.07,0,.11a4.4,4.4,0,0,0-.13,1.37,4.17,4.17,0,0,0,.43,1.45l0,.07a1.49,1.49,0,0,1,0,.21,6.06,6.06,0,0,0,0,1.06,2.48,2.48,0,0,1,0,.27,5.61,5.61,0,0,0-.06,1.23c0,.24.07.49.11.75a3.79,3.79,0,0,1,.08.52,7.84,7.84,0,0,0,.11,1,2.3,2.3,0,0,1,.05.39c0,.26,0,.52,0,.78s0,.39,0,.59,0,.66,0,1c0,.15,0,.29,0,.41a1.6,1.6,0,0,1,0,.23,4.58,4.58,0,0,0-.2.9l-.1-.15a3.44,3.44,0,0,1-.74.4,6.23,6.23,0,0,1-.69.1l-.56.07c-.27,0-.55.11-.82.17a4.3,4.3,0,0,1-.54.11,3.88,3.88,0,0,1-.59,0,8.24,8.24,0,0,0-.85,0,6.77,6.77,0,0,0-1.19.17,2.22,2.22,0,0,1-.31.07h-.53c-.31,0-.62,0-.93,0l-.52,0-.92,0-1.42.1a2.17,2.17,0,0,1-.36,0,5.47,5.47,0,0,0-1-.05c-.23,0-.46,0-.69,0l-.68,0a6.91,6.91,0,0,0-.9.11,3.32,3.32,0,0,1-.44.06c-.3,0-.6,0-.9,0a4.92,4.92,0,0,1-.52,0,1.28,1.28,0,0,1-.27-.05,5.42,5.42,0,0,0-1.22-.17l-.86,0-.6,0h-1.47l-.87.05-.6,0c-.32,0-.65,0-1,.06l-.5,0a5.13,5.13,0,0,0-1.18.23,1.82,1.82,0,0,1-.29.08h-.49a8.35,8.35,0,0,0-1,0c-.31,0-.63.07-.94.12l-.54.06c-.35.05-.67.12-1,.19l-.35.07-.24,0a4.77,4.77,0,0,0-1.16,0l-.44,0c-.29,0-.59,0-.93.05a4.65,4.65,0,0,0-1.05.28,1.31,1.31,0,0,1-.28.09l-.55,0c-.26,0-.53,0-.73.07l-.22,0a4.79,4.79,0,0,0-1.25-.05,3.54,3.54,0,0,0-1.26.39l-.08,0-.07,0-.45-.07a5.85,5.85,0,0,0-.07-.72,2.65,2.65,0,0,1,0-.38,1.67,1.67,0,0,1,0-.31A6.82,6.82,0,0,0,262,414c0-.46,0-.91,0-1.36a4.81,4.81,0,0,0-.13-1.2.87.87,0,0,0,0-.1.08.08,0,0,1,0-.05,4.52,4.52,0,0,0,.34-1.37,3.5,3.5,0,0,0-.17-1.25,3.29,3.29,0,0,0,.5-1.45,5,5,0,0,0,0-1.15c0-.09,0-.18,0-.23a5.17,5.17,0,0,0-.05-1.17c0-.09,0-.18,0-.22l.06-.64c0-.24,0-.49.06-.71a2.29,2.29,0,0,1,.08-.28,4.94,4.94,0,0,0,.25-1.08,2.8,2.8,0,0,1,.09-.31,6.36,6.36,0,0,0,.24-1.05,5.2,5.2,0,0,0,0-1.13,2.44,2.44,0,0,1,0-.26,5.65,5.65,0,0,0,0-1.19s0-.09,0-.13l0-.05a3.82,3.82,0,0,0,.46-1.37,6.09,6.09,0,0,0,0-1,2.54,2.54,0,0,1,0-.39c0-.18.06-.36.09-.54a8,8,0,0,0,.14-.83,3.65,3.65,0,0,0-.08-1.33,3.47,3.47,0,0,0,.55-1.44,4.61,4.61,0,0,0-.05-1.28.59.59,0,0,0,0-.14l.06-.14a5.22,5.22,0,0,0,.33-1.23,5.55,5.55,0,0,0,0-1.18c0-.09,0-.18,0-.24s.06-.24.09-.36a6.31,6.31,0,0,0,.21-1,5.14,5.14,0,0,0,0-1.29l0-.16c0-.06,0-.12.07-.19a5.45,5.45,0,0,0,.29-1.15,4,4,0,0,0-.18-1.55v-.06c0-.11,0-.22.06-.33.05-.3.11-.6.14-.9s0-.38.07-.57.08-.56.11-.89.08-.83.11-1.25a.61.61,0,0,0,0-.12,4.07,4.07,0,0,0,.39-1.41,4.43,4.43,0,0,1,.06-.51c0-.31.08-.62.09-.92a4.68,4.68,0,0,0-.14-1.3.49.49,0,0,0,0-.16,6.58,6.58,0,0,0-.08-1.09.77.77,0,0,1,0-.15,3.86,3.86,0,0,0,.42-1.68c0-.33,0-.65-.09-1,0-.17,0-.34-.05-.5s0-.36,0-.55,0-.62,0-.93,0-.6-.06-.89,0-.39-.05-.59,0-.52,0-.78l0-.7a4.23,4.23,0,0,0-.41-1.54l0-.05,0-.18a5.71,5.71,0,0,0,.1-1.18q0-.42-.06-.84c0-.21,0-.42,0-.63a6,6,0,0,0-.17-1.13c0-.07,0-.13,0-.2a.19.19,0,0,1,0-.07,4,4,0,0,0,.29-1.53,3.27,3.27,0,0,1,0-.45,8.71,8.71,0,0,0,0-1,3.91,3.91,0,0,0-.42-1.59.93.93,0,0,1-.05-.1,1.83,1.83,0,0,0-.07-.32,2.05,2.05,0,0,0,.25-1.15l-.06-.66c0-.21,0-.41-.09-1a7.34,7.34,0,0,0-.17-1,4.13,4.13,0,0,1-.12-.63c0-.31-.09-.63-.14-1s-.07-.44-.1-.66a4.86,4.86,0,0,1,0-.54,5.88,5.88,0,0,0,0-1.1,8.55,8.55,0,0,0-.28-1.34c0-.12-.06-.23-.08-.32l-.1-.58c-.07-.38-.14-.75-.18-1.12s-.07-.86-.09-1.29l0-.45a2.06,2.06,0,0,1,.08-.39,5.44,5.44,0,0,0,.17-1.47c0-.35,0-.71-.08-1.06s-.05-.53-.07-.79a5.54,5.54,0,0,0-.29-1.41,1.73,1.73,0,0,1-.11-1,8.48,8.48,0,0,0,0-1.13l-.06-.73c0-.31-.05-.62-.08-.94a8.23,8.23,0,0,0-.22-1.12,3.37,3.37,0,0,1-.12-.53,4.21,4.21,0,0,1,0-.5,6.14,6.14,0,0,0,0-1.2,6.85,6.85,0,0,0-.28-1.18,2.62,2.62,0,0,1-.13-.48,2.9,2.9,0,0,1,0-.51,6.79,6.79,0,0,0-.08-1.21c0-.2-.05-.4-.07-.61,0-.37-.08-.74-.15-1.1a6.41,6.41,0,0,0-.46-1.35,3.63,3.63,0,0,1-.19-.52,5,5,0,0,1-.13-.69c-.06-.34-.12-.73-.23-1.14a8.84,8.84,0,0,0-.37-1c-.09-.25-.19-.48-.23-.65a4.68,4.68,0,0,1,0-.62,9.24,9.24,0,0,0-.06-1.05,11.79,11.79,0,0,1-.15-1.58,2,2,0,0,0-.18-.78,10.39,10.39,0,0,0,0-2.22,8.12,8.12,0,0,1,0-1.39,34.93,34.93,0,0,1,1.3-6.36,2,2,0,0,0-3.6-1.73c-.85,1.76-1.49,6.23-1.67,7.56a10.29,10.29,0,0,0,0,2.07,2,2,0,0,0-1.07-.32h0l-.48-.06a6.37,6.37,0,0,0-1.28-.09,2.06,2.06,0,0,1-.32-.07,4.48,4.48,0,0,0-1.57-.17,6.35,6.35,0,0,0-1.29.29l-.47.13a7.45,7.45,0,0,0-1.15.24,3.89,3.89,0,0,1-.49.12l-.22-.05a3.9,3.9,0,0,0-1.68-.15,4.36,4.36,0,0,0-.9.24c.81-2.15,2.89-5,4.64-7.45a37.62,37.62,0,0,0,3.57-5.5c.17-.08.34-.16.76-.4l.1-.05,1-.58.22-.06a4.09,4.09,0,0,0,2.07-1.19l.15-.15a2.51,2.51,0,0,1,.33-.13,4.14,4.14,0,0,0,1-.52l.37-.28c.22-.17.45-.34.69-.5a4.55,4.55,0,0,0,.88-.91l.1-.14.36-.23c.25-.15.5-.31.73-.48l.39-.26a6.92,6.92,0,0,0,.77-.52,9,9,0,0,0,.72-.65,3.28,3.28,0,0,1,.34-.31c.27-.24.52-.48.77-.73l.28-.27c.37-.36.71-.71,1-1.07l.18-.2a8.6,8.6,0,0,0,.89-1.1,12.48,12.48,0,0,0,.64-1.13l.14-.29c.26-.51.48-1,.65-1.45a2.48,2.48,0,0,1,.17-.32,5.52,5.52,0,0,0,.51-1.13,7.28,7.28,0,0,0,.22-1.19,2.57,2.57,0,0,1,0-.4c0-.14.06-.27.1-.4a7,7,0,0,0,.21-1.09,126.52,126.52,0,0,1,15.88,5.52h0ZM272.73,160.87a9.89,9.89,0,0,1-1.1.4,12.42,12.42,0,0,0-1.55.57c-.46.2-.91.43-1.36.65s-.78.39-1.18.57L265,164.23c-.49.22-1,.49-1.44.75s-.71.4-1.08.57l-1.12.49c-.49.22-1,.43-1.48.67s-1.27.62-1.9.94l-.65.33c-.51.26-1,.54-1.52.82l-1,.55c-.33.17-.68.32-1,.47a13.68,13.68,0,0,0-1.57.74l-.83.45c-.57.31-1.13.62-1.69,1s-1,.68-1.45,1c-.2.16-.41.3-.61.45-3.63-.5-8.93-1.44-10.56-2.26h0a1.45,1.45,0,0,0-.29-.11l-.1,0-.25,0-.18,0H236a.83.83,0,0,0-.22,0l-.17,0a.66.66,0,0,0-.2.06l-.17.07-.17.1-.15.11-.15.13-.14.13-.11.15a1.88,1.88,0,0,0-.12.18s0,.06,0,.09l0,.07a1.67,1.67,0,0,0-.08.2,1.21,1.21,0,0,0,0,.18l0,.19a1.5,1.5,0,0,0,0,.22.21.21,0,0,0,0,.08c0,.74-.12,2.2-.26,3.89-.64,7.24-1,14,.91,18a2.21,2.21,0,0,0-2.09.16h-1.76c-.43,0-.86,0-1.29,0a3.35,3.35,0,0,1-.56-.1,7.64,7.64,0,0,0-1.12-.19l-.77,0c-.32,0-.63,0-.94-.06a6.28,6.28,0,0,0-1.26,0c-.17,0-.39,0-.48,0s-.46-.08-.69-.13a8.36,8.36,0,0,0-1-.19,7.88,7.88,0,0,0-1.09-.06c-.22,0-.44,0-.64,0l-.39-.14a5.29,5.29,0,0,0-1.33-.39l-1.75-.23a5.11,5.11,0,0,0-1.37,0l-.42,0-.65-.11a12.18,12.18,0,0,0-1.21-.19,3.7,3.7,0,0,1-.58-.1,7.26,7.26,0,0,0-1.27-.19,11.23,11.23,0,0,0-1.16,0c-.23,0-.45,0-.69,0l-1.07,0-.72,0a3.63,3.63,0,0,1-.55-.08,9,9,0,0,0-2.2-.1,6.69,6.69,0,0,1-.78,0c-.23,0-.47-.06-.7-.1s-.71-.11-1.07-.14l-.67-.05c-.4,0-.8-.07-1.2-.08a6,6,0,0,0-1.44.15,5,5,0,0,1-.51.07,3.08,3.08,0,0,1-.52,0,5.89,5.89,0,0,0-1.53,0,5,5,0,0,0-1.15.32,2.27,2.27,0,0,0-1.15.11,2.36,2.36,0,0,1-.38.1,6.86,6.86,0,0,0-1.31.39c-.33.15-.65.33-1,.51s-.38.22-.58.32l-.67.29-.92.4c-.2.1-.41.17-.62.25a8.68,8.68,0,0,0-1,.4,8.46,8.46,0,0,0-1,.57,3.68,3.68,0,0,1-.5.3l-.62.25c-.34.12-.67.25-1,.4s-.63.32-.93.49-.4.23-.61.33a4.24,4.24,0,0,1-.59.23,7.6,7.6,0,0,0-1,.43,4,4,0,0,0-.62.36c-.07-2.63-.18-6.73-.24-9l.33-.23.17-.14a3.2,3.2,0,0,1,.42-.1,5.73,5.73,0,0,0,1.25-.4,6.74,6.74,0,0,0,1-.65,2.83,2.83,0,0,1,.28-.2l.21,0a4,4,0,0,0,1.43-.36,6.48,6.48,0,0,1,1-.46c.58-.18,1.17-.37,1.77-.58a11.73,11.73,0,0,0,1.12-.43l.6-.23a5.88,5.88,0,0,0,1.22-.69,3.22,3.22,0,0,1,.37-.23c.34-.14.67-.31,1-.48s.41-.21.63-.3a7.94,7.94,0,0,0,1-.55l.44-.25h.06a4.21,4.21,0,0,0,1.88-.3,6.44,6.44,0,0,0,1.12-.69,2.9,2.9,0,0,1,.38-.26,3.28,3.28,0,0,1,.49-.15,7.48,7.48,0,0,0,1.09-.35,6.87,6.87,0,0,0,1-.59,2.23,2.23,0,0,1,.4-.25,3.46,3.46,0,0,1,.47-.12,7.05,7.05,0,0,0,1.13-.33,5,5,0,0,0,1.13-.69l.24-.17h.21a4.07,4.07,0,0,0,1.53-.25,7.9,7.9,0,0,0,.93-.44c.18-.09.37-.19.56-.27a4.07,4.07,0,0,0,1.38-1,1.59,1.59,0,0,1,.13-.13l.41-.16,1-.37a4.9,4.9,0,0,1,.55-.13,6.88,6.88,0,0,0,1.06-.27l.83-.32.63-.25h.31a4.52,4.52,0,0,0,1.44-.19,5.4,5.4,0,0,0,1.18-.58l.25-.17h.32a4.89,4.89,0,0,0,1.41-.18,3.88,3.88,0,0,0,1.45-.88l.12-.11c.16,0,.32-.06.48-.09s.57-.11.85-.18l.18,0a4,4,0,0,0,1.7,0,6.47,6.47,0,0,0,1-.4,4.5,4.5,0,0,1,.51-.2,9.47,9.47,0,0,0,1.88-.77l.37-.16a6.12,6.12,0,0,0,1.31-.63,3.71,3.71,0,0,0,1-1.07,2.14,2.14,0,0,1,.13-.19c.37-.24.77-.51,1.22-.79a5.48,5.48,0,0,0,.86-.66l.16-.16a3.64,3.64,0,0,0,1.81-.34,3.33,3.33,0,0,0,1.22-1.15,4,4,0,0,0,1.5-.32,4.16,4.16,0,0,0,1.17-.85l.12-.12h.16a5.14,5.14,0,0,0,1.39-.3l.3-.16c1.15-.41,1.95-.63,2.71-.83,1.86-.49,3.47-.92,8.94-3.85a37.5,37.5,0,0,1,7.18-2.55c1.86-.53,3.76-1.07,5.51-1.76a1.92,1.92,0,0,0,.62.41,28.63,28.63,0,0,1,2.7,1.37c.88.49,1.79,1,2.75,1.42a11.85,11.85,0,0,0,2.55.71Zm-26.38,23.89c0,.05.57,5.1,1.64,7.56l-.54.07-.68.09-.6.07c-.5,0-1,.11-1.5.21s-1,.23-1.79.44a5,5,0,0,0-1.25.6,2,2,0,0,1-.25.15,2.09,2.09,0,0,1-.36,0,5.86,5.86,0,0,0-1.26.17,5.43,5.43,0,0,1-.58.13,1.85,1.85,0,0,0-.33-.46c-2.25-2.28-1.41-12-1-16.6.05-.56.09-1.06.13-1.54a79.69,79.69,0,0,0,8.23,1.57c0,.73,0,1.47,0,2.21A42.69,42.69,0,0,0,246.35,184.76Zm31.75-32.54a18.47,18.47,0,0,0-.16,2.39c0,.52,0,1.07.05,1.61s0,.81,0,1.19,0,.66,0,.86l-.24-.21a9.14,9.14,0,0,0-3.75-1.35,8,8,0,0,1-1.73-.45c-.81-.36-1.6-.8-2.45-1.26-.66-.37-1.35-.73-2.06-1.07a.78.78,0,0,0,0-.14,4.54,4.54,0,0,0,.12-1.08,3.55,3.55,0,0,0-.37-1.43l0-.08c0-.2,0-.4,0-.61s0-.28,0-.42a.56.56,0,0,0,0-.12,3.84,3.84,0,0,0,.24-1.32c0-.24,0-.48,0-.72s0-.4,0-.61,0-.39,0-.59,0-.49,0-.73a3.37,3.37,0,0,0-.38-1.42,3.94,3.94,0,0,0,.21-1.25,6,6,0,0,0-.12-1,2.43,2.43,0,0,1,0-.31,2,2,0,0,1,0-.24,4.84,4.84,0,0,0,.14-1.14,3.5,3.5,0,0,0-.29-1.32l0-.08c0-.05,0-.11,0-.16a5.26,5.26,0,0,0,.12-1.1c0-.19,0-.38,0-.57s0-.5,0-.76a4.3,4.3,0,0,0-.24-1.22,3.38,3.38,0,0,0,.38-1.55,3.26,3.26,0,0,0-.41-1.47,3.32,3.32,0,0,0,.29-1.4c0-.22,0-.43,0-.64s0-.53,0-.8,0-.57-.05-.85,0-.39,0-.58a3.89,3.89,0,0,0-.33-1.41l-.06-.14c0-.4,0-.8-.06-1.21l0-.09a3.68,3.68,0,0,0,.31-1.48,3.34,3.34,0,0,0-.18-1,3.35,3.35,0,0,0,.5-1.14c.06-.27.13-.55.2-.83l.08-.34a4.8,4.8,0,0,0,.11-1.16v-.17L268,119a22.83,22.83,0,0,1,9.06,1.48,1.93,1.93,0,0,0,.4.15v1.18c0,.35,0,.72-.05,1.1s-.06,1-.06,1.51,0,.87,0,1.31,0,.86,0,1.31a14.23,14.23,0,0,0,.09,1.5c0,.4.08.78.08,1.11a8.61,8.61,0,0,1-.13,1,11.17,11.17,0,0,0-.19,1.66l0,2.63a10.19,10.19,0,0,0,.13,1.64,7.83,7.83,0,0,1,.08,1,7.73,7.73,0,0,1-.13,1,11.44,11.44,0,0,0-.19,1.57,10.31,10.31,0,0,0,.1,1.64,7.61,7.61,0,0,1,.07,1,19.67,19.67,0,0,0,.18,3.38c.06.46.1.94.13,1.41s.09,1.06.15,1.59c.05.38.13.77.2,1.15a6.55,6.55,0,0,1,.19,1.44Q278.15,151.92,278.1,152.22ZM176.72,186.78h-.62a6.63,6.63,0,0,0-1.24.17l-.4.09a3.11,3.11,0,0,1-.43-.18,6.88,6.88,0,0,0-.75-.3c0-.61,0-1,0-1.28s0-.63,0-1.39c0-.34,0-.71,0-1.09,0-.61,0-1.26,0-1.91,0-.41,0-.82,0-1.22,0-.62,0-1.22,0-1.8a17.94,17.94,0,0,0-.27-2.43c0-.26-.08-.49-.1-.7a13.3,13.3,0,0,0-.78-2.94l0-.12a7.75,7.75,0,0,1-.22-.94,10.17,10.17,0,0,0-.51-1.85c-.36-.88-.64-1.65-.85-2.35a9.28,9.28,0,0,0-.35-1,4.66,4.66,0,0,1-.3-1c0-.63.05-1.26.08-1.9l0-.68a4.44,4.44,0,0,1,.19-.8,8,8,0,0,0,.36-1.76,15,15,0,0,0,0-1.51,10.06,10.06,0,0,1,0-1.09,10.27,10.27,0,0,1,.18-1.09c.08-.45.18-1,.23-1.48s.06-.91.08-1.37,0-.88.08-1.32.08-1,.1-1.5,0-.82.08-1.22c.1-.91.2-1.83.29-2.74.06-.56.08-1.12.1-1.68,0-.37,0-.74.05-1.11l.06-.72c.06-.69.12-1.39.15-2.09s0-1.32,0-1.94c0-.3,0-.61,0-.91s0-.58,0-.91c0-.52,0-1.09,0-1.7a7.15,7.15,0,0,1,.06-1c0-.48.08-1,.08-1.6s-.05-1-.1-1.49-.07-.75-.07-1.12a8.12,8.12,0,0,1,.08-1.17,11.4,11.4,0,0,0,.09-1.45,12.81,12.81,0,0,0-.06-1.36,10.29,10.29,0,0,0,1.4-.39,7.68,7.68,0,0,0,1.57-.81,5.76,5.76,0,0,1,.89-.48,6.31,6.31,0,0,1,1-.22,9.27,9.27,0,0,0,1.7-.41c.46-.17.91-.29,1.32-.4a13.13,13.13,0,0,0,1.38-.44,10.57,10.57,0,0,0,1.39-.72,6,6,0,0,1,.86-.45,8,8,0,0,0,1.54-.87,4.75,4.75,0,0,1,.64-.41,3.51,3.51,0,0,1,.58,0,6,6,0,0,0,2.06-.28c.38-.13.76-.24,1.14-.35s.86-.25,1.28-.39a12.27,12.27,0,0,0,1.39-.61,9.58,9.58,0,0,1,.93-.41,10.29,10.29,0,0,1,1.12-.27,14.55,14.55,0,0,0,1.68-.41l1.14-.37,1.61-.52a8.12,8.12,0,0,0,1.8-1,5.75,5.75,0,0,1,.79-.47c.3-.11.66-.2,1-.3a11.3,11.3,0,0,0,1.77-.54,10.52,10.52,0,0,1,1-.33,12.68,12.68,0,0,0,1.81-.63,7,7,0,0,0,1.8-1.34,4.57,4.57,0,0,1,.61-.53c.86-.47,1.75-1,2.62-1.51a5,5,0,0,1,.79-.33,6.92,6.92,0,0,0,2-1,7.38,7.38,0,0,0,1.29-1.4,4.52,4.52,0,0,1,.47-.56c.57-.4,1.17-.76,1.76-1.12l1-.63c.53-.34,1.07-.67,1.62-1,.35-.19.69-.4,1-.6a13.06,13.06,0,0,1,1.21-.68,3.93,3.93,0,0,1,.63-.08,6,6,0,0,0,2-.41,5.7,5.7,0,0,0,1.78-1.34l.35-.38a12.68,12.68,0,0,1,1.22-.38c.44-.13.88-.25,1.31-.4a4.27,4.27,0,0,1,.78-.1,7,7,0,0,0,1.89-.3,13.9,13.9,0,0,0,1.8-.77c.3-.15.59-.3.89-.42s.64-.22,1-.32a12,12,0,0,0,1.78-.63c.86-.41,1.7-.85,2.54-1.29l1-.49c.52-.26,1-.52,1.54-.8a7,7,0,0,0,1.57-1.24,4.51,4.51,0,0,1,.6-.52,5.22,5.22,0,0,1,.9-.3,8.71,8.71,0,0,0,1.69-.58c.39-.2.77-.42,1.15-.63a12.67,12.67,0,0,1,1.18-.63c.72-.31,1.56-.67,2.42-1a10.55,10.55,0,0,1,1.37-.34c.38-.08.75-.16,1.12-.26l.62-.15a16.56,16.56,0,0,0,2.17-.63,8.2,8.2,0,0,0,1.84-1.06,6.51,6.51,0,0,1,.64-.43l.8-.38a14,14,0,0,0,1.71-.89,15.24,15.24,0,0,0,1.49-1.06c.25-.19.49-.37.73-.53.4-.28.77-.57,1.12-.85a10.87,10.87,0,0,1,.9-.67,11.88,11.88,0,0,1,1.37-.76,10.61,10.61,0,0,0,2.95.08c.4,0,.82-.08,1.24-.11s1-.07,1.47-.13c.81-.1,1.17-.17,1.52-.23l.12,0a101.42,101.42,0,0,0,4.55,20.08,45.87,45.87,0,0,1,2.36,10.42c0,1.13-.68,1.81-2.52,3.35-.61.5-1.28,1.08-1.94,1.73a23,23,0,0,0-6.77-1.7c.13-.13.27-.27.41-.44a6.41,6.41,0,0,0,.61-1c.06-.11.11-.22.16-.29a1.37,1.37,0,0,1,.17-.17,4.38,4.38,0,0,0,.84-1,7.3,7.3,0,0,0,.47-1.07l.14-.35a6.11,6.11,0,0,0,.34-1.14c0-.12.05-.24.08-.36s.08-.17.12-.26a4.68,4.68,0,0,0,.41-1.25c0-.12.05-.24.07-.36a5.94,5.94,0,0,0,.18-1.25,3.69,3.69,0,0,0-.31-1.49.53.53,0,0,0-.06-.13h0a9.89,9.89,0,0,0-.35-1.63,2.09,2.09,0,0,1,0-.25,4.16,4.16,0,0,0-.23-1.43,6.15,6.15,0,0,0-.44-.92,2.64,2.64,0,0,1-.2-.37,4.71,4.71,0,0,1-.11-.51c0-.25-.1-.49-.16-.74a5.47,5.47,0,0,0-.42-1,.89.89,0,0,0-.09-.15h0l-.07-.38c-.06-.29-.11-.58-.14-.84,0-.1,0-.2,0-.3a5.5,5.5,0,0,0,.06-1l0-.42c0-.31,0-.62-.05-.94s0-.43,0-.65,0-.5,0-.75a2,2,0,0,0-2.07-1.94,2,2,0,0,0-1.93,2.07c0,.22,0,.44,0,.65s0,.51,0,.76,0,.7.05,1l0,.39c0,.1,0,.2,0,.3a4.62,4.62,0,0,0-.05,1.22,11.79,11.79,0,0,0,.19,1.19l.06.35a4.45,4.45,0,0,0,.48,1.27l.11.22c0,.14.06.29.09.44a7,7,0,0,0,.28,1.12,5.37,5.37,0,0,0,.47,1c0,.1.11.19.16.3v.19a4.87,4.87,0,0,0,.15,1.2,6.87,6.87,0,0,1,.24,1.09,4.64,4.64,0,0,0,.29,1.06.36.36,0,0,1,0,.09c0,.11-.05.25-.07.38a4.93,4.93,0,0,0-.11.52,1.19,1.19,0,0,1-.11.26,6,6,0,0,0-.31.8c-.06.21-.11.41-.16.62s-.08.36-.11.45-.13.32-.19.48l-.19.49-.17.17a4.59,4.59,0,0,0-.68.77,6.48,6.48,0,0,0-.39.67,3.44,3.44,0,0,1-.2.34,2.92,2.92,0,0,1-.29.26,5.76,5.76,0,0,0-.57.53,8.2,8.2,0,0,1-.62.57l-.24.22a5,5,0,0,0-.73.85l-.1.15a2,2,0,0,0-.4.48,2,2,0,0,0-.75.14l-.19,0a5.31,5.31,0,0,0-1.2.31,4.57,4.57,0,0,0-.93.54l-.17.14a1.6,1.6,0,0,1-.23,0,4.13,4.13,0,0,0-2.21.85l-.19.13h-.17a5.09,5.09,0,0,0-1.24.26,4.51,4.51,0,0,0-1.13.72l-.09.08-.16,0a4.93,4.93,0,0,0-1.17.26c-.17.07-.35.12-.53.18a8.19,8.19,0,0,0-.79.27l-.55.18c-.26.09-.52.17-.77.27l-.79.35-.49.23-.75.32-.53.23a3,3,0,0,1-.4.12,5.64,5.64,0,0,0-.94.28,4.06,4.06,0,0,0-1.17.77l-.05.05h-.1a4,4,0,0,0-1.26.28c-.26.11-.52.23-.77.36l-.51.23-.83.37-.46.21a4.81,4.81,0,0,0-1,.63l-.19.15-.29.07a4.22,4.22,0,0,0-2.11,1.05l-.19.16a2.6,2.6,0,0,1-.36.13,4.77,4.77,0,0,0-1,.47,4.43,4.43,0,0,0-1.16,1.1,1.13,1.13,0,0,0-.1.13,2,2,0,0,0,1.34,3.46,4.1,4.1,0,0,1-.54.3,4.46,4.46,0,0,1-.54.17c-.29.07-.58.15-.87.25s-.51.21-.78.33a5.35,5.35,0,0,1-.64.27l-1.44.42h-.27a4.41,4.41,0,0,0-1.81.3,5.45,5.45,0,0,0-1.23.78,2.26,2.26,0,0,1-.31.23,8.41,8.41,0,0,0-1,.6,4.9,4.9,0,0,1-.48.31c-.07,0-.28.08-.43.12a8.07,8.07,0,0,0-1.12.37l-.58.29c-.27.13-.53.26-.73.33l-.5.16c-.37.11-.75.23-1.13.37a6.88,6.88,0,0,0-1.05.51,3.81,3.81,0,0,1-.45.23,3.36,3.36,0,0,1-.48.13,9.23,9.23,0,0,0-1.11.33,3.38,3.38,0,0,1-.54.17c-.34.1-.68.2-1,.33l-.7.29-.77.32a6.9,6.9,0,0,0-1,.51l-.37.21c-.49.17-1,.32-1.47.47-.07,0-.29,0-.45.06a5.65,5.65,0,0,0-1,.15l-.53.13c-.29.07-.58.15-.88.2a2.15,2.15,0,0,0,.33,4.27l.32,0c.44-.07.87-.18,1.3-.29l.45-.11a3.15,3.15,0,0,1,.43,0,6,6,0,0,0,1.31-.22c.55-.17,1.1-.34,1.64-.53a6.05,6.05,0,0,0,1.14-.56,2.82,2.82,0,0,1,.38-.21l.93-.38.6-.25a5,5,0,0,1,.55-.17c.34-.1.69-.2,1-.33a3,3,0,0,1,.49-.14,7.86,7.86,0,0,0,1.06-.31,7.13,7.13,0,0,0,1-.48,4,4,0,0,1,.46-.23c.3-.11.6-.2.91-.3l.55-.17a9.14,9.14,0,0,0,1.32-.58l.46-.22a2.66,2.66,0,0,1,.4-.11,6.45,6.45,0,0,0,1.32-.47,9,9,0,0,0,.93-.58,4.19,4.19,0,0,1,.5-.31,6.32,6.32,0,0,0,1-.69l.2-.16h.18a4.69,4.69,0,0,0,1.35-.15l1.62-.47a8.09,8.09,0,0,0,1.17-.47c.15-.07.29-.14.43-.19l.52-.15a7.21,7.21,0,0,0,1.2-.39,8.89,8.89,0,0,0,1.08-.59c.16-.09.32-.19.5-.28s.58-.35.89-.56l.54-.36a6.94,6.94,0,0,0,.85-.6,5.1,5.1,0,0,1,.51-.36,2.16,2.16,0,0,0,.73-3,2.13,2.13,0,0,0-2.11-1l.05-.05a2,2,0,0,1,.26-.06,5,5,0,0,0,1.09-.35,4.91,4.91,0,0,0,.92-.58,2.65,2.65,0,0,1,.22-.17l.48-.22.76-.33.68-.32.5-.24h.18a4.54,4.54,0,0,0,1.26-.28,3.93,3.93,0,0,0,1.14-.76l.1-.09.31-.08a7.14,7.14,0,0,0,.93-.28c.24-.09.47-.2.71-.31s.36-.17.56-.24.51-.22.76-.34.33-.17.5-.23l.56-.19.75-.26q.27-.1.54-.18l.74-.25a1.26,1.26,0,0,1,.27,0,4.8,4.8,0,0,0,1.15-.26,3.94,3.94,0,0,0,1.16-.74l.07,0,.14,0a4.28,4.28,0,0,0,1.2-.25,4.74,4.74,0,0,0,1.06-.6c.07,0,.14-.1.12-.11a2.06,2.06,0,0,1,.26,0l.45-.07c0,.12-.06.23-.08.35l0,0a3,3,0,0,0-.73,1.53,3.51,3.51,0,0,0,.26,1.69h0a3.46,3.46,0,0,0-.31,1.6v.12c0,.41,0,.82.06,1.21a4.08,4.08,0,0,0,.32,1.41l.06.14c0,.25,0,.5,0,.74a5.65,5.65,0,0,1,0,.58c0,.22,0,.43,0,.64s0,.42,0,.63c0,0,0,.07,0,.11a3.71,3.71,0,0,0-.33,1.5,3.25,3.25,0,0,0,.39,1.43,3.34,3.34,0,0,0-.33,1.45,4.33,4.33,0,0,0,.23,1.21l.06.17c0,.16,0,.33,0,.49s0,.51,0,.75a1.09,1.09,0,0,1,0,.25,4.69,4.69,0,0,0-.13,1.11,3.86,3.86,0,0,0,.29,1.31l0,.07,0,.13a4.38,4.38,0,0,0-.15,1.14,6.09,6.09,0,0,0,.12,1c0,.09,0,.18,0,.27a.74.74,0,0,1,0,.14,4,4,0,0,0-.21,1.28,3.55,3.55,0,0,0,.41,1.49l0,0c0,.12,0,.25,0,.38s0,.49,0,.74,0,.48,0,.72,0,.33,0,.5l0,.13a3.83,3.83,0,0,0-.24,1.31c0,.27,0,.53.05.8s0,.35,0,.53a3.38,3.38,0,0,0,.29,1.24,45.78,45.78,0,0,1-5.83,1.93,40.71,40.71,0,0,0-8,2.87c-5.06,2.71-6.39,3.07-8.08,3.51a35.06,35.06,0,0,0-3.45,1.08l-.15.08h-.15a4.72,4.72,0,0,0-1.38.31,4.36,4.36,0,0,0-1.3.93l-.05.05h-.1a3.84,3.84,0,0,0-1.57.33,3.42,3.42,0,0,0-1.3,1.16,3.22,3.22,0,0,0-1.67.37,6,6,0,0,0-1.09.83c-.09.08-.17.16-.24.21l-1.41.9a4.34,4.34,0,0,0-1.15,1.21l-.06.08a2.42,2.42,0,0,1-.39.16c-.27.11-.53.21-.78.33a5.58,5.58,0,0,1-1.1.48,7,7,0,0,0-1.09.41c-.12.05-.24.11-.37.15l-.17,0a3.88,3.88,0,0,0-1.72,0,6,6,0,0,1-.61.13c-.35.07-.7.13-1,.23a3.91,3.91,0,0,0-1.47.9l-.08.07h-.19a4.71,4.71,0,0,0-1.43.18,4.86,4.86,0,0,0-1.21.6,2.37,2.37,0,0,0-.24.16h-.31a4.74,4.74,0,0,0-1.47.2l-.93.35c-.21.09-.43.18-.65.25a4.72,4.72,0,0,1-.54.13,8.64,8.64,0,0,0-1.1.29l-1.05.39-.54.2a4,4,0,0,0-1.41,1l-.13.14c-.29.12-.57.26-.85.41l-.47.23h-.24a4.28,4.28,0,0,0-1.56.26,5.29,5.29,0,0,0-1.16.7,2.61,2.61,0,0,1-.3.2,3.26,3.26,0,0,1-.46.12,6.45,6.45,0,0,0-1.17.35,6.66,6.66,0,0,0-1.06.6c-.15.1-.32.22-.4.26s-.32.09-.49.14a7.27,7.27,0,0,0-1.14.36,6.54,6.54,0,0,0-1.13.71l-.28.2h-.19a4.11,4.11,0,0,0-1.72.29c-.33.15-.65.34-1,.52a5.09,5.09,0,0,1-.56.32c-.29.12-.58.27-.86.41a7.21,7.21,0,0,1-.69.33,6,6,0,0,0-1.13.65,3.6,3.6,0,0,1-.37.24c-.23.08-.46.18-.69.27s-.59.24-.92.35c-.52.18-1.05.36-1.58.52a8.89,8.89,0,0,0-1.6.67h-.16a4.13,4.13,0,0,0-1.59.42,6.82,6.82,0,0,0-.84.54,4.93,4.93,0,0,1-.43.28,2.67,2.67,0,0,1-.39.1,6.21,6.21,0,0,0-1,.29,5.06,5.06,0,0,0-1.09.64l-.12.1h-.07a6.34,6.34,0,0,0-1.34-.05C177.48,186.77,177.11,186.77,176.72,186.78Zm65.12-57.29-.08.06-.07,0s0,0,0-.06ZM151.92,408.68a5.9,5.9,0,0,0,.19-1.43c0-.48,0-1,0-1.47v-.32c0-.24,0-.48.07-.72a9.85,9.85,0,0,0,.1-1.08c0-.35,0-.7.05-1l0-.79a9.65,9.65,0,0,0-.05-1.26,4,4,0,0,1,0-.59,10.22,10.22,0,0,0,0-1.3c0-.2,0-.39,0-.58a4.06,4.06,0,0,1,.12-.47,5.08,5.08,0,0,0,.24-1.48,5.25,5.25,0,0,0-.23-1.37,3,3,0,0,1-.08-.32,3.32,3.32,0,0,1,.08-.5,7.21,7.21,0,0,0,.14-1.18,5.52,5.52,0,0,0-.13-1.31c0-.14-.06-.33-.06-.39,0-.33,0-.65,0-1s0-.44,0-.65.07-.17.1-.25a4.89,4.89,0,0,0,.4-1.49c0-.29.07-.58.1-.87s.07-.54.1-.82a4.55,4.55,0,0,0-.19-1.64c0-.06,0-.11,0-.16a1.57,1.57,0,0,1,.09-.23,5.84,5.84,0,0,0,.39-1.37c0-.26.08-.53.13-.79s.11-.6.15-.9.07-.67.09-1a5.36,5.36,0,0,1,.06-.7c0-.24.07-.48.11-.72s.11-.69.16-1a10.54,10.54,0,0,0,.08-1.12c0-.22,0-.44,0-.66a3.53,3.53,0,0,1,.13-.54,7.7,7.7,0,0,0,.25-1.19,5.43,5.43,0,0,0-.08-1.52,2.43,2.43,0,0,1-.05-.28c0-.32.06-.65.08-1l.06-.7a1.89,1.89,0,0,1,.11-.25,4.85,4.85,0,0,0,.47-1.54,10.39,10.39,0,0,0,0-1.12c0-.21,0-.42,0-.63s.07-.48.11-.72.12-.68.15-1a7.9,7.9,0,0,0,0-1.17,3.74,3.74,0,0,1,0-.58c0-.29.05-.58.08-.87s0-.58.08-.87c0-.07.08-.28.13-.44A6.68,6.68,0,0,0,156,360l.09-.9c0-.28,0-.55.08-.83a5.2,5.2,0,0,0-.06-1.47c0-.11,0-.23,0-.29l.09-.69c0-.34.08-.68.13-1s.1-.58.16-.87.1-.55.14-.82.08-.62.12-.94,0-.52.1-.78.1-.44.15-.66a2.19,2.19,0,0,0,.46-1c.11-.57.19-1.14.28-1.72.06-.43.12-.86.2-1.29s.17-.85.27-1.28.26-1.13.36-1.7a15.21,15.21,0,0,0,.15-1.8,10.74,10.74,0,0,1,.1-1.23c.09-.61.17-1.22.26-1.82l.16-1.19a9.46,9.46,0,0,1,.29-1.17,14.94,14.94,0,0,0,.4-1.79,21,21,0,0,0,.15-2.18l0-.88c0-.49.07-1,.1-1.46s.08-.95.1-1.42,0-.71,0-1.06a16.44,16.44,0,0,1,.1-1.65c.16-1.08.25-2.13.33-3.1,0-.41.09-.81.14-1.22.08-.57.17-1.17.2-1.81,0-.37,0-.75,0-1.12,0-.6.05-1.21.09-1.82a8.71,8.71,0,0,0,0-.9,7.91,7.91,0,0,1,.07-1.45c.12-.76.26-1.6.41-2.47.09-.48.19-1,.29-1.44s.14-.69.2-1,.17-.9.24-1.33.14-.8.21-1.16c.15-.73.22-1,.29-1.27s.15-.56.28-1.18a2.07,2.07,0,0,0,.1-.33,1.9,1.9,0,0,1,.06-.22l.08-.12a5.45,5.45,0,0,0,.85-2.07c.09-.4.15-.83.22-1.29s.11-.81.2-1.24.19-.7.29-1.05.28-.94.39-1.42.19-.92.28-1.37.16-.78.24-1.15.2-.92.3-1.33l.27-1.17c.06-.3.12-.6.17-.9.1-.49.18-1,.3-1.38s.19-.69.28-1,.22-.87.35-1.3a8,8,0,0,1,.37-.87,11.44,11.44,0,0,0,.59-1.43c.25-.82.49-1.65.71-2.47a7.27,7.27,0,0,0,.17-2.2,5.59,5.59,0,0,1,0-.84,8.18,8.18,0,0,1,.27-.93,7.48,7.48,0,0,0,.42-4,5.81,5.81,0,0,1-.07-1,4.91,4.91,0,0,1,.2-.84,7.28,7.28,0,0,0,.38-2.06,9.38,9.38,0,0,0-.2-1.86,6.18,6.18,0,0,1-.13-1,9.67,9.67,0,0,1,.08-1.14,14.8,14.8,0,0,0,.09-1.7c0-.61-.06-1.18-.12-1.74s-.09-.85-.1-1.28,0-.86,0-1.3.05-1.1,0-1.69,0-.95,0-1.42,0-1,0-1.56-.08-1.11-.14-1.63a10.83,10.83,0,0,1-.11-1.32,11.92,11.92,0,0,1,.08-1.42c0-.5.08-1,.09-1.5s-.05-1.15-.09-1.65a8.23,8.23,0,0,1-.07-1.26,7.26,7.26,0,0,1,.21-1.13,13.43,13.43,0,0,0,.3-1.66,9.38,9.38,0,0,0-.08-1.88,5.48,5.48,0,0,1-.07-1,4.45,4.45,0,0,1,.27-.81,6.82,6.82,0,0,0,.58-2c.09-1,.16-2,.23-2.93a9.42,9.42,0,0,0-.09-2,6.8,6.8,0,0,1-.08-1,18,18,0,0,0-.08-2c0-.34-.06-.69-.07-1a5.13,5.13,0,0,1,.09-.86,6.83,6.83,0,0,0,0-2.37,8.45,8.45,0,0,0-.63-1.88,6.07,6.07,0,0,1-.33-.9,19.8,19.8,0,0,1-.4-2.56c-.05-.45-.14-.89-.22-1.27a7.21,7.21,0,0,1-.18-1c0-.09.13-.35.2-.52a5.57,5.57,0,0,0,.54-2.07,8.47,8.47,0,0,0-.18-1.83,6.45,6.45,0,0,1-.1-.84,22.56,22.56,0,0,0-.17-2.68l.35-.22a2,2,0,0,1,.39-.17,6.88,6.88,0,0,0,1.24-.6,9.58,9.58,0,0,0,.92-.65,6.08,6.08,0,0,1,.54-.39c.28-.18.55-.32.79-.45s.57-.31.78-.45a9.52,9.52,0,0,0,1-.74,4.47,4.47,0,0,1,.49-.38l.64-.41.91-.56a6.27,6.27,0,0,1,.64-.3,9.48,9.48,0,0,0,1-.48l.49-.27c.37-.21.74-.42,1.12-.62l1-.51.65-.34a6,6,0,0,0,1-.63,4.13,4.13,0,0,1,.46-.31,4.33,4.33,0,0,1,.54-.21c.35-.13.7-.26,1-.42s.55-.29.83-.45.45-.25.68-.36.41-.17.62-.25.65-.24,1-.39a10.34,10.34,0,0,0,1-.56,3.78,3.78,0,0,1,.51-.3c.21-.1.43-.18.65-.26s.64-.23.94-.37l.83-.37.74-.32a10.3,10.3,0,0,0,1-.52,5.29,5.29,0,0,1,.52-.29c.1,0,.31-.08.49-.13a6.05,6.05,0,0,0,1.16-.34,2,2,0,0,0,.47-.28l.09,0a2.62,2.62,0,0,1,.57-.2,2.5,2.5,0,0,1,.58,0,8.07,8.07,0,0,0,1,.05,5.85,5.85,0,0,0,1.15-.15,2.6,2.6,0,0,1,.54-.08l1,.08.75,0c.22,0,.45.06.68.1a11.08,11.08,0,0,0,1.14.14,10.69,10.69,0,0,0,1.29,0c.21,0,.42,0,.63,0a3.52,3.52,0,0,1,.54.08,7,7,0,0,0,1.24.15l1,0,.8,0c.33,0,.66,0,1,0s.5,0,.75,0a4.87,4.87,0,0,1,.62.1,7.5,7.5,0,0,0,1.09.18,7,7,0,0,1,.78.12c.3.06.59.12.89.15a5.48,5.48,0,0,0,1.36,0,3.74,3.74,0,0,1,.41,0l1.74.23a4,4,0,0,1,.39.14,5.29,5.29,0,0,0,1.33.39,9.64,9.64,0,0,0,1.15.06,4.43,4.43,0,0,1,.63,0,4.94,4.94,0,0,1,.65.12,10.78,10.78,0,0,0,1.11.2,6.27,6.27,0,0,0,1.32,0,2.29,2.29,0,0,1,.49,0l1.12.07.68,0a4.94,4.94,0,0,1,.53.1,6.77,6.77,0,0,0,1.27.2c.46,0,.93,0,1.41,0h2.23l.17,0a6.12,6.12,0,0,0,2,.33h.52a12.38,12.38,0,0,0,1.59-.11,10.12,10.12,0,0,0,1.25-.29l.52-.14.56-.11c.38-.08.77-.15,1.15-.26l.39,0a5.89,5.89,0,0,0,1.31-.2,5.62,5.62,0,0,0,1.34-.63l.15-.11c.61-.18,1.09-.3,1.41-.36s.77-.11,1.15-.16l.67-.07.73-.1q.58-.09,1.17-.15a4.66,4.66,0,0,1,.65,0,8.05,8.05,0,0,0,1.37,0,8.18,8.18,0,0,0,1.41-.32,6.25,6.25,0,0,1,.62-.16c.13,0,.27,0,.41,0a6.09,6.09,0,0,0,1.3-.15,6,6,0,0,0,1.18-.45,1.75,1.75,0,0,1,.31-.15c.37-.09.74-.16,1.11-.24l.34-.07a5.53,5.53,0,0,1,.68-.06l.67-.05a7.9,7.9,0,0,0,1.4-.27,4.34,4.34,0,0,1,.43-.1c.1,0,.21,0,.33,0a9.89,9.89,0,0,0,1.38,0l.67-.1c.3,0,.64-.1,1-.13s.56-.06.87-.11l.41,0L277,199.2c-.06.36-.12.73-.16,1.12a12,12,0,0,0,0,1.47,6.24,6.24,0,0,1,0,1.24c-.09.48-.19,1-.3,1.43s-.21.94-.29,1.38a16.74,16.74,0,0,0-.26,3.28,6.27,6.27,0,0,1-.13,1,9,9,0,0,0-.21,1.75,13.47,13.47,0,0,0,.13,1.77,10,10,0,0,1,.1,1.09,14.31,14.31,0,0,0,.23,2c.05.32.11.63.15,1a22.37,22.37,0,0,0,.56,3.49,16.18,16.18,0,0,1,.39,2.56l0,.35c.11,1,.17,2,.19,3,0,.58.07,1.13.12,1.66a12.76,12.76,0,0,1,.11,1.43,17,17,0,0,0,.12,2c0,.42.09.84.1,1.26a5.23,5.23,0,0,1-.18.65,6.53,6.53,0,0,0-.39,2,8,8,0,0,0,.23,1.81,5.09,5.09,0,0,1,.13.87,5.44,5.44,0,0,1-.14.92,8.84,8.84,0,0,0-.21,1.82,11.07,11.07,0,0,0,.19,1.83,7.93,7.93,0,0,1,.14,1c.06,1,.15,2,.29,2.86.05.3.07.62.1.93a13.58,13.58,0,0,0,.28,2,15.67,15.67,0,0,0,.54,1.75c.11.32.23.65.32,1a9.6,9.6,0,0,1,.25,1.06,17.15,17.15,0,0,0,.42,1.68,8.58,8.58,0,0,0,.83,1.69,5,5,0,0,1,.43.8,5.89,5.89,0,0,1,.08.79,7,7,0,0,0,.29,1.95,8.35,8.35,0,0,0,.81,1.64,4.43,4.43,0,0,1,.4.77,8.55,8.55,0,0,1,.23,1.2,12.63,12.63,0,0,0,.26,1.39,14,14,0,0,0,.48,1.54c.11.31.21.61.3.91a6.08,6.08,0,0,1,.15.89,9,9,0,0,0,.31,1.61c.1.35.21.7.32,1s.28.86.4,1.3l.15.52c.17.59.34,1.18.48,1.78a7.72,7.72,0,0,0,.48,1.29,7.13,7.13,0,0,1,.46,1.23c.09.38.15.79.21,1.19s.16,1,.26,1.44c.15.66.24,1,.31,1.28-3.12-1.3-13.07-5.14-17.57-5.78a4,4,0,0,0-.39-.47l-.2-.23c-.07-.17-.15-.35-.22-.54a4.88,4.88,0,0,1-.28-.73,5.31,5.31,0,0,1-.12-.6c0-.27-.08-.54-.13-.75a1.31,1.31,0,0,1,0-.28,5.09,5.09,0,0,0-.05-1.26,3,3,0,0,1-.05-.52c0-.32,0-.64-.09-.95a6.27,6.27,0,0,0-.32-1.09c0-.12-.09-.24-.12-.36l-.24-1.5a6,6,0,0,0-.32-1.17,3,3,0,0,1-.11-.31c-.07-.44-.16-.83-.25-1.18l-.09-.39a3.87,3.87,0,0,1-.05-.49,7.9,7.9,0,0,0-.16-1.12c-.09-.37-.19-.74-.29-1.12l-.1-.38a2.8,2.8,0,0,1,0-.29,4.72,4.72,0,0,0-.11-1.38,3.58,3.58,0,0,0-.79-1.4,3.52,3.52,0,0,0,0-1.6,7.88,7.88,0,0,0-.32-1,2.5,2.5,0,0,1-.16-.43,5.3,5.3,0,0,1-.1-.55,7.1,7.1,0,0,0-.17-.92,3.68,3.68,0,0,0-.78-1.44l0,0s0-.09,0-.14a5.13,5.13,0,0,0-.12-1.21l-.24-.84c-.07-.2-.13-.39-.18-.59s-.08-.38-.12-.57-.11-.6-.19-.9a1.84,1.84,0,0,1-.06-.4,6.37,6.37,0,0,0-.18-1.08,4,4,0,0,0-.76-1.36,1,1,0,0,1-.08-.11c-.14-.45-.27-.9-.41-1.34,0-.07,0-.26-.06-.41a5.93,5.93,0,0,0-.2-1.09,8.89,8.89,0,0,0-.36-.93,3.53,3.53,0,0,1-.18-.42c0-.1,0-.21,0-.32a5,5,0,0,0-.1-1.16,9.13,9.13,0,0,0-.27-.89,3.4,3.4,0,0,1-.14-.44,2.3,2.3,0,0,1,0-.37,6.72,6.72,0,0,0,0-1,3.72,3.72,0,0,1,0-.53,6.84,6.84,0,0,0,.05-.79c0-.22,0-.45,0-.67a4.51,4.51,0,0,1,0-.64,9.1,9.1,0,0,1,.16-.91l.09-.45c.05-.28.08-.56.11-.84a4,4,0,0,1,.1-.67c.11-.45.22-.91.34-1.36a7,7,0,0,0,.19-1,3.7,3.7,0,0,1,.07-.48,7.26,7.26,0,0,0,.19-1.08c0-.16,0-.33.07-.49a2.22,2.22,0,0,1,.14-.32,5,5,0,0,0,.42-1.25,4.8,4.8,0,0,0,0-1.35,1.8,1.8,0,0,1,0-.22.31.31,0,0,1,.05-.1,3.72,3.72,0,0,0,.5-1.75,15.81,15.81,0,0,0-.09-1.62,2,2,0,0,0,.06-.77c1.14-2.45,1.07-5.46,1-8.17a24.74,24.74,0,0,1,.07-3.83,24.21,24.21,0,0,1,1.81-5.74,2,2,0,0,0-3.61-1.71,27.42,27.42,0,0,0-2.16,6.9,28.49,28.49,0,0,0-.11,4.48c.07,2.68.14,5.44-1,7l0,.06-.79.17-.23,0a5.9,5.9,0,0,0-.93.27,2.67,2.67,0,0,1-.34.11l-1.36.17-.6,0c-.27,0-.54,0-.75.06l-.25,0a4.7,4.7,0,0,0-1.28,0l-.21,0c-.43,0-.87.11-1.29.18a9.39,9.39,0,0,0-1.09.29l-.44.13a3.4,3.4,0,0,0-1.29.69h0a2,2,0,0,1-.24,0,7.58,7.58,0,0,0-.83.15l-1.09.26-.1,0a4,4,0,0,0-1.32,0,4,4,0,0,0-1.2.52l0,0H243a4.42,4.42,0,0,0-1.12,0,5.59,5.59,0,0,1-.59.08l-.59.07-.57,0-.66.05a4.45,4.45,0,0,0-1.09.29c-.07,0-.13.05-.12.06a7,7,0,0,0-.8.11l-.42.07a1.18,1.18,0,0,1-.25,0,5.09,5.09,0,0,0-1-.08l-.74,0-.52,0a5.72,5.72,0,0,0-1.06.17l-.2.05q-.48,0-.9.09l-.36,0h-.05a3.22,3.22,0,0,0-1.18-.2h0a2,2,0,0,0,0,4,3.49,3.49,0,0,0,1.24.2h.14a5.63,5.63,0,0,0,.78-.07l.52,0a4.36,4.36,0,0,0,1-.16c.1,0,.19,0,.29-.06l.48,0,.79,0,.24,0a4.54,4.54,0,0,0,1.12.08,8.47,8.47,0,0,0,.88-.12l.44-.07a4.61,4.61,0,0,0,1.18-.29l.12-.06.49,0c.29,0,.58,0,.86-.08l.46,0c.31,0,.61-.07.84-.12h.22a4,4,0,0,0,1.17,0,3.77,3.77,0,0,0,1.23-.52,3.59,3.59,0,0,0,1.33,0l.11,0,1.15-.28c.13,0,.27,0,.41-.06a8.79,8.79,0,0,0,.87-.15,3.37,3.37,0,0,0,1.3-.7l0,0,.43-.13c.2-.06.4-.13.6-.17l1.1-.16.15,0,.25,0a4.5,4.5,0,0,0,1.21,0l.61,0,.81-.06L257,222a6,6,0,0,0,1.14-.3l.21-.07a4.48,4.48,0,0,0-.13.6,7.13,7.13,0,0,0,0,1.06c0,.12,0,.23,0,.31s-.09.2-.13.31a5.18,5.18,0,0,0-.39,1.05,9,9,0,0,0-.15.93,3.09,3.09,0,0,1-.09.53,8.3,8.3,0,0,0-.17,1,4,4,0,0,1-.08.5c-.13.48-.25,1-.39,1.53a9,9,0,0,0-.17,1.12c0,.17,0,.34-.06.5l-.08.4c-.09.42-.17.83-.22,1.26a9.08,9.08,0,0,0,0,1.26,3.23,3.23,0,0,1,0,.44c0,.16,0,.31,0,.46a7.88,7.88,0,0,0,0,1.23,2.42,2.42,0,0,1,0,.38,5.32,5.32,0,0,0,0,1.32,7,7,0,0,0,.33,1.17,3.84,3.84,0,0,1,.13.41,1.69,1.69,0,0,1,0,.32,4.88,4.88,0,0,0,.15,1.32,6.58,6.58,0,0,0,.39,1c.06.15.13.29.18.45s0,.25.06.4a5.52,5.52,0,0,0,.21,1.12c.14.48.29.95.43,1.44a4.07,4.07,0,0,0,.74,1.32l.07.09a2.66,2.66,0,0,1,0,.28,6,6,0,0,0,.18,1c0,.2.08.4.12.6s.11.55.18.83.14.51.22.76.13.42.18.62,0,.2,0,.3a4.61,4.61,0,0,0,.12,1.2,3.45,3.45,0,0,0,.79,1.43.18.18,0,0,0,0,.07l.06.37c0,.3.09.6.16.9a7.67,7.67,0,0,0,.32,1l.12.29,0,.11a3.28,3.28,0,0,0,.82,3.2l0,0v.12a4.54,4.54,0,0,0,.12,1.35l.11.45.27,1.05a3,3,0,0,1,.06.51,8.28,8.28,0,0,0,.13,1c0,.15.07.31.11.47s.14.57.19.91a6.19,6.19,0,0,0,.29,1,2.27,2.27,0,0,1,.14.42l.24,1.51a5.84,5.84,0,0,0,.32,1.1,2.66,2.66,0,0,1,.12.39,4.4,4.4,0,0,1,0,.51,7.8,7.8,0,0,0,.1,1,1.51,1.51,0,0,1,0,.3,4.94,4.94,0,0,0,.08,1.33c0,.18.06.37.09.55a9,9,0,0,0,.22,1.06,10.44,10.44,0,0,0,.44,1.22c.06.13.12.26.17.39a4.54,4.54,0,0,0,1,1.47l0,0a2,2,0,0,0,0,.49c0,.22.06.45.1.68a2.9,2.9,0,0,1,.06.39,3.76,3.76,0,0,1-.11.48c-.06.22-.11.44-.16.66s-.07.48-.1.73a3.37,3.37,0,0,1-.07.48,2.48,2.48,0,0,1-.17.32,7.24,7.24,0,0,0-.39.79c-.16.38-.31.75-.49,1.1l-.17.33a6.23,6.23,0,0,1-.39.72,5.87,5.87,0,0,1-.51.61l-.21.23c-.26.29-.53.56-.82.84l-.33.33-.55.52a6.39,6.39,0,0,0-.54.5c-.13.12-.25.25-.39.36l-.43.28c-.22.14-.44.28-.65.44l-.45.29-.65.42a4.23,4.23,0,0,0-.9.93,1.13,1.13,0,0,1-.1.13c-.23.16-.45.33-.67.5l-.27.2-.14.05a5.21,5.21,0,0,0-1,.49,4.76,4.76,0,0,0-.8.65.85.85,0,0,0-.13.15l-.24.07a4.56,4.56,0,0,0-1.07.42l-1,.58-.1.06-.54.28-.63.31a2,2,0,0,0-.72.69,2.12,2.12,0,0,0-.45.68,31.64,31.64,0,0,1-3.29,5.09c-2.54,3.5-5.14,7.11-5.65,10.24a3.85,3.85,0,0,0-1.57.63l-.05,0-.07,0A4.24,4.24,0,0,0,238,312a4.16,4.16,0,0,0-1.53.44l-.11,0-.14,0a4.34,4.34,0,0,0-1.65-.36c-.34,0-.69,0-1,.07l-.76.05a5.17,5.17,0,0,1-.68,0c-.37,0-.74-.05-1.11-.05l-1.79,0a3.52,3.52,0,0,0-1.86.67,4.13,4.13,0,0,0-1.71-.44,4.87,4.87,0,0,1-.66,0,9.64,9.64,0,0,0-1.13-.07,5.8,5.8,0,0,0-1.34.21l-.45.1H220.3a5.57,5.57,0,0,0-1.37.28l-.38.11-.82,0-.91.06c-.27,0-.53,0-.8,0h-.83l-.26-.08a4.39,4.39,0,0,0-1.51-.31h0c-.44,0-.85,0-1.28,0h-.36a7.89,7.89,0,0,0-1,0c-.24,0-.48,0-.64,0a3.94,3.94,0,0,0-1.77.3l-.1,0-.45-.15c-.29-.11-.58-.22-.86-.3a13.28,13.28,0,0,1-1.35-.44l-.16-.17a4.16,4.16,0,0,0-1.29-1,4.27,4.27,0,0,0-1.62-.35h-.19l-.17-.18a4.94,4.94,0,0,0-1.16-.93l-.66-.39-.89-.53c-.21-.11-.41-.23-.61-.35a11.41,11.41,0,0,0-1-.58,4.57,4.57,0,0,0-1.57-.41l-.32,0a7.76,7.76,0,0,0-1.3-.42c-.19-.05-.37-.09-.55-.15a2.23,2.23,0,0,1-.33-.2,4.81,4.81,0,0,0-1.4-.67l-.24-.07c-.52-.14-1-.28-1.58-.4a5.42,5.42,0,0,0-1.46-.08,3,3,0,0,1-.41,0,7.87,7.87,0,0,0-1.21-.11,5.11,5.11,0,0,1-.58,0,2.33,2.33,0,0,1-.33-.14,4.75,4.75,0,0,0-1.44-.48,5.8,5.8,0,0,0-1.4,0,2.61,2.61,0,0,1-.41,0c-.35-.05-.71-.06-1.06-.08a5.36,5.36,0,0,1-.7-.05c-.31,0-.62-.1-.92-.16l-.51-.09-.09-.08a3.55,3.55,0,0,0-1.76-1c-.31-.06-.62-.1-.93-.14a6.62,6.62,0,0,1-.74-.11,3.93,3.93,0,0,0-1.78.05l-.2,0a2,2,0,0,0-.92,3.89,3.87,3.87,0,0,0,1.93,0l.2,0a9.3,9.3,0,0,0,1,.15l.38.05.08.08a3.56,3.56,0,0,0,1.85,1l.71.12c.36.07.73.14,1.09.19s.74.07,1.11.09.46,0,.69,0a5.73,5.73,0,0,0,1.39,0l.36,0a1.92,1.92,0,0,1,.33.14,5.23,5.23,0,0,0,1.39.47c.35,0,.71.07,1.07.09a4.73,4.73,0,0,1,.65,0,5.6,5.6,0,0,0,1.32.06,3,3,0,0,1,.41,0c.46.1.92.23,1.38.35l.21.06a2.33,2.33,0,0,1,.34.2,5.49,5.49,0,0,0,1.17.6c.28.1.58.17.87.25a4.93,4.93,0,0,1,.69.2,4.62,4.62,0,0,0,1.4.34l.3,0c.24.12.48.27.71.41l.8.47c.23.12.45.26.67.4s.57.35.83.49a3,3,0,0,1,.26.25,4.9,4.9,0,0,0,1.21,1,4.19,4.19,0,0,0,1.74.41h.15a1.14,1.14,0,0,0,.11.11,4,4,0,0,0,1.46,1.09,19.75,19.75,0,0,0,1.88.63,5.52,5.52,0,0,1,.53.18,7,7,0,0,0,1.35.4,3.73,3.73,0,0,0,2-.26l.17-.07a7.94,7.94,0,0,0,1.1,0,5.43,5.43,0,0,1,.57,0l.35,0c.47,0,.93,0,1.4,0a2.67,2.67,0,0,1,.26.09,4.48,4.48,0,0,0,1.61.3c.24,0,.47,0,.71,0h.56l.51,0,1-.05.79,0a5.51,5.51,0,0,0,1.34-.28,1.78,1.78,0,0,1,.36-.1h1.7a5.75,5.75,0,0,0,1.33-.22c.16,0,.38-.09.45-.09a2.89,2.89,0,0,1,.65.05,9.14,9.14,0,0,0,1,.06l.18.09a4.09,4.09,0,0,0,1.81.48,3.63,3.63,0,0,0,1.95-.73l.1-.07,1.51,0a5.32,5.32,0,0,1,.69,0c.37,0,.74.05,1.11.05s.68,0,1-.07l.67-.05.24.09a4.39,4.39,0,0,0,1.65.36,4.1,4.1,0,0,0,1.66-.44l.14-.07.14.05a4.2,4.2,0,0,0,1.69.24,3.82,3.82,0,0,0,1.69-.65l.17-.1.56,0c.36,0,.71-.05,1.06-.1a3.8,3.8,0,0,1,.44,0,5.45,5.45,0,0,0,1.33,0,5.09,5.09,0,0,0,1.29-.38l.31-.12.2.05a4.29,4.29,0,0,0,1.65.15,10.35,10.35,0,0,0,1.07-.23,3.08,3.08,0,0,1,.6-.14,7,7,0,0,0,1.17-.28l.39-.13c.11,0,.22.05.33.07a4.54,4.54,0,0,0,1.45.18,4.35,4.35,0,0,1,.5.06,7,7,0,0,0,1.14.1,2.07,2.07,0,0,0,.79-.17,1.93,1.93,0,0,0,.5.8c0,.23.05.46.08.67a3.69,3.69,0,0,1,0,.58,6.73,6.73,0,0,0,.15,1.45,7.34,7.34,0,0,0,.42,1.23c.07.2.16.39.21.59a5.78,5.78,0,0,1,.14.7,8.21,8.21,0,0,0,.21,1.1,8.39,8.39,0,0,0,.38,1,3.47,3.47,0,0,1,.22.59c0,.22.06.46.09.69s.06.6.11.89a4,4,0,0,1,0,.53,6.09,6.09,0,0,0,.05,1.09,7.38,7.38,0,0,0,.27,1.1,1.93,1.93,0,0,1,.13,1,6,6,0,0,0,0,1.12,6.9,6.9,0,0,0,.21,1.08,3.37,3.37,0,0,1,.12.53c0,.29.05.58.07.86l.06.79a3.15,3.15,0,0,1,0,.53,7.19,7.19,0,0,0,0,1.14A7,7,0,0,0,260,336a4.52,4.52,0,0,1,.13.47c0,.31.05.62.07.93s.06.59.07.87a3.09,3.09,0,0,1-.07.4,5,5,0,0,0-.17,1.51l0,.45c0,.49.06,1,.11,1.47s.13,1,.22,1.43l.09.52c0,.21.1.45.17.71a5.62,5.62,0,0,1,.17.77,2.25,2.25,0,0,1,0,.45,6.35,6.35,0,0,0,0,1.14c0,.3.08.6.13.9s.08.46.1.69a10.06,10.06,0,0,0,.18,1c-.18,0-.36,0-.54.06-.72.11-1.79.07-2.44.17a4.35,4.35,0,0,1-.5.06l-.43-.08a5.05,5.05,0,0,0-1.34-.18,5.93,5.93,0,0,0-1.29.22,3.22,3.22,0,0,1-.37.08,1.58,1.58,0,0,1-.4,0,5.87,5.87,0,0,0-1.25-.08,5.56,5.56,0,0,1-.58,0,9.37,9.37,0,0,0-1.06,0,5.26,5.26,0,0,0-1.26.28,2.44,2.44,0,0,1-.33.1,3.11,3.11,0,0,1-.48,0,6.61,6.61,0,0,0-1.13,0,6.18,6.18,0,0,0-1.12.19,2.72,2.72,0,0,1-.45.09l-.46,0a5.5,5.5,0,0,0-1.41-.09l-1.32.15-.52.06a10.91,10.91,0,0,0-1.12.19l-.69.12c-.22,0-.45,0-.68.06-.38,0-.76.06-1.14.12l-1.79.31-1,.23-.73.17a11.24,11.24,0,0,0-1.1.3,5,5,0,0,1-.63.18,4.91,4.91,0,0,1-.67.09,8.45,8.45,0,0,0-1.11.15c-.23,0-.47.07-.7.09s-.71.08-1.06.15a4.56,4.56,0,0,0-1.48.66l-.24.15-.68.14-.9.18-.27,0a5.65,5.65,0,0,0-1.46,0,5.43,5.43,0,0,0-1.26.37l-.33.13-.26-.07a4.82,4.82,0,0,0-1.46-.18c-.54,0-1.09,0-1.65,0-.33,0-.59,0-.89-.05l-.74-.05a5.32,5.32,0,0,0-1.41.18.77.77,0,0,0-.23.08,4.53,4.53,0,0,1-.72-.17c-.28-.07-.56-.15-.83-.2a2,2,0,0,0-.75,3.93l.54.13a7.19,7.19,0,0,0,1.33.28,4.45,4.45,0,0,0,1.6-.16l.29-.07.61,0c.4,0,.8.05,1.23.06.61,0,1.22,0,1.78-.05a1.87,1.87,0,0,1,.34.08,5.19,5.19,0,0,0,1.25.18h.3a4.94,4.94,0,0,0,1.5-.41l.28-.11a2.62,2.62,0,0,1,.43,0,4.64,4.64,0,0,0,1.45,0l1.06-.22.7-.14a4.45,4.45,0,0,0,1.51-.66c.08-.05.15-.11.23-.15s.42-.06.63-.08a9.51,9.51,0,0,0,1.07-.16c.22,0,.45-.06.67-.08a8.08,8.08,0,0,0,1.1-.15,10.27,10.27,0,0,0,1.05-.29,4.81,4.81,0,0,1,.65-.18c.31-.06.61-.14.91-.21l.81-.18,1.73-.31c.24,0,.5,0,.75-.07s.66,0,1-.09.59-.1.88-.16.55-.11.83-.14l.55-.06c.38-.05.77-.1,1.16-.13a2.4,2.4,0,0,1,.46.05,6.56,6.56,0,0,0,1.26.1,6,6,0,0,0,1.2-.2,2.63,2.63,0,0,1,.44-.09,2.58,2.58,0,0,1,.48,0,7,7,0,0,0,1.16,0A5.26,5.26,0,0,0,251,354a3,3,0,0,1,.33-.1,4,4,0,0,1,.6,0c.34,0,.68,0,1,0l.4,0a6,6,0,0,0,1.19.09,5.69,5.69,0,0,0,1.19-.21l.35-.09a2.74,2.74,0,0,1,.37.08,6.7,6.7,0,0,0,1.18.18,7.38,7.38,0,0,0,1.26-.11c.65-.1,1.35-.06,2.09-.13a4.72,4.72,0,0,0,.37,1.12l0,0,0,.26c0,.25-.06.54-.06.87a.36.36,0,0,1,0,.11,4.27,4.27,0,0,0-.29,1.55,5.51,5.51,0,0,0,.17,1.14c0,.11.05.22.06.33,0,.28,0,.57.06.85s0,.42,0,.61a3.11,3.11,0,0,1,0,.32,5,5,0,0,0-.1,1.18,4.06,4.06,0,0,0,.4,1.54s0,.07.05.1l0,.61,0,.68c0,.3,0,.59.07.88s0,.39,0,.58a5.42,5.42,0,0,1,0,.57c0,.3,0,.6,0,.91s0,.62.09.94l0,.25a3.69,3.69,0,0,0-.42,1.61,6.71,6.71,0,0,0,.08,1,2.2,2.2,0,0,1,0,.36,5.46,5.46,0,0,0,.14,1.22,1.12,1.12,0,0,0,.05.15c0,.19,0,.37-.06.56s-.06.44-.08.66a.61.61,0,0,0-.05.12,4.4,4.4,0,0,0-.38,1.36c0,.44-.08.88-.12,1.37,0,.21-.05.42-.09.64l-.09.73a4.89,4.89,0,0,1-.09.53c0,.27-.1.55-.13.84a4,4,0,0,0,.17,1.54h0l0,.1a5,5,0,0,0-.29,1.15,5.11,5.11,0,0,0,.05,1.29c0,.08,0,.16,0,.13a1.58,1.58,0,0,1-.09.36,6.77,6.77,0,0,0-.21,1,5.38,5.38,0,0,0,0,1.16,1.49,1.49,0,0,1,0,.21l-.06.17a4.51,4.51,0,0,0-.33,1.2,4.88,4.88,0,0,0,0,1.25,3.62,3.62,0,0,0-.57,1.48,3.94,3.94,0,0,0,.11,1.46s0,.07,0,.1-.05.27-.08.4-.1.56-.14.83a7.57,7.57,0,0,0,0,1c0,.09,0,.18,0,.27l-.05.08a4.42,4.42,0,0,0-.46,1.38,5.21,5.21,0,0,0,0,1.2c0,.08,0,.17,0,.21a4.86,4.86,0,0,0,0,1.15c0,.09,0,.19,0,.26a2.8,2.8,0,0,1-.09.31,5.93,5.93,0,0,0-.23,1.05c0,.1-.06.19-.09.29a6.42,6.42,0,0,0-.25,1.11c0,.27-.05.55-.08.83l-.05.57a5,5,0,0,0,.05,1.21c0,.08,0,.17,0,.21a6,6,0,0,0,0,1.17,3.4,3.4,0,0,0-.59,1.62,3.77,3.77,0,0,0,.22,1.49,4.46,4.46,0,0,0-.32,1.36,5.32,5.32,0,0,0,.13,1.25,1.71,1.71,0,0,0,.05.18c0,.47,0,.95,0,1.42,0,.1,0,.21-.05.31a5.48,5.48,0,0,0-.13,1.12,7.05,7.05,0,0,0,.1,1c0,.12,0,.24.05.36l-.23,0a2.74,2.74,0,0,1-.62.08,5.14,5.14,0,0,0-1.15.21,3.11,3.11,0,0,1-.55.11,4,4,0,0,1-.59,0c-.36,0-.73-.05-1.13,0l-1.71,0c-.22,0-.45,0-.69,0a8.33,8.33,0,0,0-1-.05c-.2,0-.42,0-.62-.06a8.29,8.29,0,0,0-1.08-.1l-.88,0c-.27,0-.53,0-.79,0a9.57,9.57,0,0,0-1.08,0c-.22,0-.44,0-.57,0a7.13,7.13,0,0,1-1-.16l-.52-.11a5.63,5.63,0,0,1-.59-.14,10.9,10.9,0,0,0-1.25-.26,5.73,5.73,0,0,0-1.4,0l-.45,0c-.4,0-.79,0-1.18,0h-.64c-.37,0-.74,0-1.11,0h-.61a3,3,0,0,1-.56-.08,6.32,6.32,0,0,0-1.27-.15h0a6.26,6.26,0,0,0-1.27.16c-.18,0-.39.08-.48.08h-1.74a4.5,4.5,0,0,1-.63-.07,7.89,7.89,0,0,0-1.07-.1c-.34,0-.67,0-1,0a4.07,4.07,0,0,1-.7,0c-.56,0-1.12-.07-1.64-.12a2.42,2.42,0,0,1-.35-.12,5.09,5.09,0,0,0-1.43-.37c-.36,0-.72,0-1.08,0l-.71,0a7.49,7.49,0,0,0-1.19,0c-.2,0-.39,0-.6,0s-.39-.05-.59-.08a8.83,8.83,0,0,0-1.17-.15,9.75,9.75,0,0,0-1.08,0c-.23,0-.46,0-.69,0l-1,0-.74,0h-1l-.71,0-.9,0-.92,0-.91,0h-2.57c-.25,0-.5,0-.74,0s-.67-.06-1-.06-.5,0-.76,0-.65-.05-1-.06-.64,0-1,0-.5,0-.76,0-.47,0-.71-.07-.67-.09-1-.1l-.87,0c-.28,0-.56,0-.85,0l-1.27-.07-.47,0c-.21,0-.42-.05-.63-.08a8.27,8.27,0,0,0-1.1-.14,7.43,7.43,0,0,0-1.22.07,4.34,4.34,0,0,1-.53.05l-1,0-.72,0a8.18,8.18,0,0,0-1.15.05,4,4,0,0,1-.59,0l-1.69-.07a2.13,2.13,0,0,1-.33-.11,5.24,5.24,0,0,0-1.43-.32,4.76,4.76,0,0,0-1.34.15l-.37.07a2.35,2.35,0,0,1-.35-.11,5,5,0,0,0-1.38-.29l-1.72-.09a7,7,0,0,0-1.3.1,3.09,3.09,0,0,1-.43.06c-.3,0-.6,0-.91,0s-.54,0-.8,0l-.88-.08-.81-.07a1.54,1.54,0,0,1-.34-.12,5.7,5.7,0,0,0-1.31-.32,5,5,0,0,0-1.43.12l-.27,0a1.3,1.3,0,0,1-.25-.1,5,5,0,0,0-1.39-.39,5.71,5.71,0,0,0-1.18,0,4.82,4.82,0,0,1-.52,0l-.74-.08-.95-.11a5.72,5.72,0,0,1-.57-.11A7.81,7.81,0,0,0,167,413a5.66,5.66,0,0,0-1.28.06,3,3,0,0,1-.45,0,5.25,5.25,0,0,1-.55-.09,7.15,7.15,0,0,0-1.16-.17,9.8,9.8,0,0,0-1.25,0l-.65.05a4.35,4.35,0,0,1-.5-.06,7.11,7.11,0,0,0-1.29-.09,5.13,5.13,0,0,0-1.34.26,3.15,3.15,0,0,1-.38.1h-1.76c-.52,0-1,0-1.54-.05a4.74,4.74,0,0,1-.53-.15,6.84,6.84,0,0,0-.82-.24,2.25,2.25,0,0,0-1-.69l0-.07a5.49,5.49,0,0,1-.39-1.25c0-.24-.08-.5-.13-.76a5.83,5.83,0,0,1-.14-.84A2.74,2.74,0,0,1,151.92,408.68ZM189,208a2,2,0,1,1,3.21-2.39,4.17,4.17,0,0,0,.34.38c.16.16.32.33.47.5.26.32.51.61.79.9a4.66,4.66,0,0,1,.66.93,1.09,1.09,0,0,0,.08.15l.31.29a4.51,4.51,0,0,0,.51.47c.32.27.65.51,1,.74a2,2,0,0,0,.25.11,4.89,4.89,0,0,1,.86.43l.28.18.75.47a1.84,1.84,0,0,0,.28.09,5.29,5.29,0,0,1,.87.34c.22.11.44.24.65.36a3.5,3.5,0,0,0,.42.24,3.29,3.29,0,0,1,1,.69,3.06,3.06,0,0,1,1.36.13l1.18.39.71.26.47.17.61.13.63.13a3.88,3.88,0,0,1,1.18.52H208a3.84,3.84,0,0,1,1.22,0,4.15,4.15,0,0,1,1.24.48h.07a3.64,3.64,0,0,1,1.34,0,7.59,7.59,0,0,1,1.84.62,6,6,0,0,1,.89.62l.21.16.31.11a5.63,5.63,0,0,1,.9.35,4.25,4.25,0,0,1,1,.82l0,.06.35.12c.22.07.43.14.64.23l.3.07a5.16,5.16,0,0,1,.84.21,3.9,3.9,0,0,1,.94.47l.2.12a4.85,4.85,0,0,1,.73.27,2.26,2.26,0,0,0,.39.15,2,2,0,0,1-.48,3.94,2.12,2.12,0,0,1-.49-.06,6,6,0,0,1-1-.36l-.28-.11a4.59,4.59,0,0,1-1.19-.56l-.17-.1-.28-.05a5,5,0,0,1-1-.3l-.37-.13a7.06,7.06,0,0,1-1-.38,3.64,3.64,0,0,1-1-.81l-.09-.09-.18-.05a6.91,6.91,0,0,1-1-.41,5.1,5.1,0,0,1-.79-.55,2,2,0,0,0-.28-.21,3.94,3.94,0,0,0-.59-.19h-.05a3.9,3.9,0,0,1-1.44,0,4.08,4.08,0,0,1-1.16-.44l-.09-.05h-.06a3.89,3.89,0,0,1-1.35,0,3.8,3.8,0,0,1-1.22-.52l-.14-.08-.38-.08c-.29,0-.59-.11-.89-.19s-.58-.19-.87-.3l-.44-.16c-.37-.11-.72-.23-1.09-.36h0a3.29,3.29,0,0,1-1.7-.14,3.54,3.54,0,0,1-1.23-.88l-.08-.07c-.24-.12-.48-.26-.72-.4s-.25-.15-.38-.22a1.84,1.84,0,0,0-.28-.09,5.69,5.69,0,0,1-1.05-.43c-.32-.19-.63-.39-.94-.59l-.27-.17a1.12,1.12,0,0,0-.25-.11,5.34,5.34,0,0,1-1-.55c-.39-.28-.78-.58-1.16-.88s-.51-.45-.76-.7l-.31-.29a4.17,4.17,0,0,1-.79-1.06,1.08,1.08,0,0,0-.11-.18c-.28-.3-.59-.66-.9-1l-.28-.3A8.23,8.23,0,0,1,189,208Zm42,78.35a3.89,3.89,0,0,1,1.3-.28,4.34,4.34,0,0,1,1.22.19l.09,0,.1,0a4.2,4.2,0,0,1,1.13-.31l.47-.05.81-.1a4,4,0,0,1,1.2,0,3.33,3.33,0,0,1,1.31-.68,4.48,4.48,0,0,0,.52-.16c.24-.08.49-.17.74-.23a3.2,3.2,0,0,1,1.77.09l.3-.08c.23-.06.45-.11.67-.18l.48-.18a7.54,7.54,0,0,1,.79-.3l.19-.12a4.67,4.67,0,0,1,1.05-.51,4.55,4.55,0,0,1,1.25-.17h.23l.37-.17a8.93,8.93,0,0,1,.85-.35l.22-.13a4.89,4.89,0,0,1,1-.52l.7-.22.65-.21a4.74,4.74,0,0,1,1.19-.22l.26,0a4.18,4.18,0,0,0,.39-.18,7,7,0,0,1,.89-.37s0-.05.1-.09a4.29,4.29,0,0,1,1.17-.63c.28-.09.57-.16.86-.23l.53-.14c.29-.09.58-.16.87-.23l.54-.13a2,2,0,1,1,1.1,3.84l-.72.19c-.21,0-.41.09-.62.15s-.49.14-.74.2l-.53.14-.17.11a4.13,4.13,0,0,1-1.13.62,2.92,2.92,0,0,0-.44.19,8.19,8.19,0,0,1-.86.36,4.67,4.67,0,0,1-1.19.21,2.06,2.06,0,0,0-.26,0l-.67.22-.64.2-.23.14a4.45,4.45,0,0,1-1.05.52,2.92,2.92,0,0,0-.44.19c-.3.13-.6.26-.91.36a4.09,4.09,0,0,1-1.24.17h-.17l-.17.1a4.56,4.56,0,0,1-1.06.51c-.16.05-.31.12-.46.18a8.71,8.71,0,0,1-.85.32l-.83.22-.53.14a3.07,3.07,0,0,1-1.8-.07l-.18.06a7,7,0,0,1-.69.22l-.05.05a3.56,3.56,0,0,1-1.48.74,4.26,4.26,0,0,1-1.32,0l-.23,0h0c-.27.05-.61.09-1,.13l-.42,0-.15.07a4.45,4.45,0,0,1-1.29.33,4.16,4.16,0,0,1-1.37-.18l-.1,0-.05,0a4.19,4.19,0,0,1-1.3.27,4.09,4.09,0,0,1-1.28-.21l-.15-.05a5.7,5.7,0,0,1-.91-.08l-.23,0-.09,0a4.13,4.13,0,0,1-1.34.31,4.9,4.9,0,0,1-1.16-.16l-.16,0-.14.05a4.36,4.36,0,0,1-1.2.22h-.06a4,4,0,0,1-1.31-.26l-.11,0-.46,0-.69,0c0,.11-.08.21-.13.32a5.8,5.8,0,0,1-.45.8c-.07.12-.15.23-.21.36s-.14.38-.21.58-.16.46-.25.69-.19.45-.29.67-.17.38-.24.57-.15.41-.21.61l-.24.69-.24.66c-.07.22-.15.43-.23.64a3.34,3.34,0,0,0-.1.43,8.06,8.06,0,0,1-.25.91c-.1.28-.21.54-.31.8l-.2.52a8.3,8.3,0,0,1-.44.93c-.06.12-.13.23-.18.35l-.19.51c-.12.32-.23.62-.35.88a2,2,0,0,1-1.81,1.15,2.13,2.13,0,0,1-.85-.18,2,2,0,0,1-1-2.66c.08-.17.15-.36.23-.57s.14-.4.23-.61a7.67,7.67,0,0,1,.37-.77,3,3,0,0,0,.22-.44l.22-.57.27-.71a2.48,2.48,0,0,0,.1-.39,7.45,7.45,0,0,1,.26-1l.21-.58c.08-.25.17-.49.26-.73s.12-.36.18-.54.18-.53.28-.79.21-.53.33-.79.15-.34.22-.51.13-.34.19-.51.19-.56.3-.82a7.13,7.13,0,0,1,.51-.94,2.69,2.69,0,0,0,.19-.32c.07-.16.13-.32.19-.47s.16-.4.25-.59a2,2,0,0,1,1.88-1.5,3.42,3.42,0,0,0,.46,0,8.46,8.46,0,0,1,.88-.08l.59,0c.25,0,.49,0,.74,0a3.77,3.77,0,0,1,1.37.26h0l.07,0a4.33,4.33,0,0,1,1.21-.23,4.9,4.9,0,0,1,1.16.16l.11,0,0,0a4.1,4.1,0,0,1,1.35-.3,7,7,0,0,1,1,.08.93.93,0,0,0,.33,0,4.57,4.57,0,0,1,1.27.22h.1ZM212.46,285a2,2,0,0,1-1.8,1.13,2,2,0,0,1-.88-.21c-.38-.18-.51-.26-.68-.35s-.26-.15-.58-.31a4.8,4.8,0,0,1-.85-.58c-.12-.09-.25-.2-.32-.24l-.44-.2a8.11,8.11,0,0,1-.84-.41c-.25-.13-.49-.28-.74-.43l-.49-.28a3.11,3.11,0,0,0-.41-.2,7.36,7.36,0,0,1-.89-.44,5.77,5.77,0,0,1-.91-.72,2.29,2.29,0,0,0-.23-.21l-.44-.26c-.28-.17-.56-.34-.81-.52a14.13,14.13,0,0,1-1.24-1,5.63,5.63,0,0,1-1.39-1.58l-.16-.29c-.14-.27-.28-.55-.45-.83a1.9,1.9,0,0,0-.2-.22A6.63,6.63,0,0,1,197,276a6.14,6.14,0,0,1-.45-.88c-.06-.13-.13-.29-.17-.35-.16-.24-.3-.49-.44-.74s-.17-.32-.27-.47l-.15-.11a4.69,4.69,0,0,1-.85-.9l-.46-.71c-.1-.17-.21-.34-.32-.5l-.8-1.21a4.69,4.69,0,0,1-.52-1.17,1,1,0,0,0-.08-.24l-.17-.17a4.83,4.83,0,0,1-.75-.95,4.64,4.64,0,0,1-.46-1.23,2.33,2.33,0,0,0-.07-.25c-.21-.42-.45-.91-.65-1.41a2,2,0,1,1,3.74-1.44,11.53,11.53,0,0,0,.5,1.1,4.46,4.46,0,0,1,.35,1,1.47,1.47,0,0,0,.08.28l.15.13a5.94,5.94,0,0,1,.71.87,4.43,4.43,0,0,1,.46,1.09,2.5,2.5,0,0,0,.09.25l.74,1.1.41.65c.11.18.22.37.34.54a1.13,1.13,0,0,1,.16.13,4.32,4.32,0,0,1,.85.89c.17.26.33.53.48.8a4.41,4.41,0,0,0,.25.43,6.23,6.23,0,0,1,.51,1,3.13,3.13,0,0,0,.15.32,3.08,3.08,0,0,0,.24.27,5,5,0,0,1,.7.88c.21.36.4.72.58,1.07l.11.21c.1.11.34.32.51.48s.59.51.94.76c.16.11.34.22.53.33l.56.35a5.87,5.87,0,0,1,.79.63,1.79,1.79,0,0,0,.25.23,2.83,2.83,0,0,0,.43.2c.27.12.54.24.79.38l.55.33c.21.12.41.25.62.36a5.36,5.36,0,0,0,.54.26c.24.1.47.21.68.32a6.37,6.37,0,0,1,.95.65,1.46,1.46,0,0,0,.21.16l.66.35.5.26A2,2,0,0,1,212.46,285Zm10.48-17.9a8.6,8.6,0,0,1,.43-1l.15-.31v-.11a4.09,4.09,0,0,1,.14-1.63,5.24,5.24,0,0,1,.6-1.19c.05-.08.11-.16.15-.24a1.17,1.17,0,0,1,0-.23,6,6,0,0,1,.18-1.24c.09-.31.21-.62.33-.92a3.24,3.24,0,0,0,.19-.52,5.55,5.55,0,0,1,.45-1.1,1.73,1.73,0,0,0,.14-.31,3.94,3.94,0,0,0,.09-.6c0-.3.08-.59.14-.87l.1-.51c.07-.31.14-.63.19-.95a3,3,0,0,0,0-.52c0-.33,0-.65.06-1a4.74,4.74,0,0,1,.41-1.34l.09-.19c0-.45.06-.91.08-1.36v-.4c0-.34,0-.68,0-1,0-.08,0-.19-.06-.29a5.51,5.51,0,0,1-.17-1.14,1.74,1.74,0,0,0-.07-.29,6.08,6.08,0,0,1-.19-1.16l-.06-1.49a7,7,0,0,1,.07-1.1,3,3,0,0,0,0-.42,8,8,0,0,1,.08-1.16,5.42,5.42,0,0,0,.06-.58,4.87,4.87,0,0,0,0-.54,8.38,8.38,0,0,1,0-1.12c0-.25,0-.5,0-.75s.05-.56.05-.84,0-.47,0-.71,0-.55,0-.83c0-.1-.06-.22-.09-.33a5.67,5.67,0,0,1-.23-1.11l0-.35a9.44,9.44,0,0,0-.11-1,4.64,4.64,0,0,1-.08-1.34s0-.1,0-.16a2.15,2.15,0,0,1,4-1.59,3.79,3.79,0,0,1,.3,2,2.61,2.61,0,0,0,0,.28,10.65,10.65,0,0,1,.19,1.49l0,.31c0,.1.06.21.09.32a5.32,5.32,0,0,1,.24,1.45,11,11,0,0,1,0,1.15l0,.57q0,.53-.06,1c0,.21,0,.42,0,.62a4.16,4.16,0,0,0,0,.61c0,.34,0,.67,0,1s-.05.65-.09.95a3.5,3.5,0,0,0-.05.54,7.46,7.46,0,0,1-.07,1,2,2,0,0,0,0,.43l.06,1.48a2.38,2.38,0,0,0,.07.29A5.58,5.58,0,0,1,231,248c0,.1,0,.2.06.31a5.33,5.33,0,0,1,.17,1.22c0,.4,0,.8,0,1.2l0,.37c0,.56,0,1.13-.1,1.68a4.44,4.44,0,0,1-.43,1.49,1.19,1.19,0,0,0-.08.2,3,3,0,0,0,0,.42,7.33,7.33,0,0,1-.09,1.16c-.06.38-.14.76-.22,1.15l-.1.46a4.85,4.85,0,0,0-.08.55c0,.36-.1.72-.18,1.07a5.66,5.66,0,0,1-.47,1.2,2.73,2.73,0,0,0-.14.31,7.26,7.26,0,0,1-.36,1c-.06.16-.13.33-.18.5a1.23,1.23,0,0,0,0,.29,5.57,5.57,0,0,1-.2,1.31,4.91,4.91,0,0,1-.62,1.24l-.08.12v.07a4,4,0,0,1-.15,1.65,7.6,7.6,0,0,1-.44,1,3.36,3.36,0,0,0-.2.43,2.14,2.14,0,0,1-2,1.46,2.37,2.37,0,0,1-.69-.11A2.15,2.15,0,0,1,222.94,267.09Zm-21.12,79.46a5.5,5.5,0,0,1-.92-2.56,2,2,0,0,1,4-.31,1.87,1.87,0,0,0,.36.81,6.14,6.14,0,0,1,.92,2.28,2,2,0,0,1-1.65,2.3l-.32,0a2,2,0,0,1-2-1.68A2.61,2.61,0,0,0,201.82,346.55Zm4.61-10.43a4.89,4.89,0,0,0,.46-2.9v-.63a2,2,0,0,1,2-2,2,2,0,0,1,2,2v.59a8.42,8.42,0,0,1-1,5.05,2,2,0,0,1-3.41-2.08ZM179,143.75a2,2,0,0,1-1.78-1.08,2,2,0,0,1,.83-2.68,3.51,3.51,0,0,1,1.3-.41h0l.09-.09a4.41,4.41,0,0,1,1.19-.85,4.29,4.29,0,0,1,1.2-.33l.28-.05.19-.15a5.17,5.17,0,0,1,1.08-.61,4.54,4.54,0,0,1,1.32-.27l.25,0c.09,0,.2-.1.32-.15a4,4,0,0,1,1.26-.45,3.85,3.85,0,0,1,.81,0h.35l.24-.11a5.68,5.68,0,0,1,1-.4c.26-.07.54-.13.82-.18a4.1,4.1,0,0,0,.48-.1l1-.32.21-.07.15-.1a4.52,4.52,0,0,1,1.11-.58,4.3,4.3,0,0,1,1.3-.18h.16l.52-.19.66-.23c.16-.06.3-.13.45-.2s.53-.23.8-.33a3.54,3.54,0,0,0,.34-.16,6.27,6.27,0,0,1,.89-.42,4.15,4.15,0,0,1,1.3-.2h.15l.37-.17c.27-.13.53-.25.79-.35s.61-.18.91-.25a2.34,2.34,0,0,0,.4-.11,5.69,5.69,0,0,0,.55-.23,7.39,7.39,0,0,1,.69-.29l.63-.24.63-.25a2,2,0,1,1,1.36,3.76l-.45.18c-.16.07-.33.14-.82.31l-.37.16a8,8,0,0,1-.88.37c-.26.09-.53.16-.82.23a4.5,4.5,0,0,0-.49.14,3.29,3.29,0,0,0-.39.17,8.41,8.41,0,0,1-.87.37,3.83,3.83,0,0,1-1.27.2h-.17a1.49,1.49,0,0,0-.25.13,5.52,5.52,0,0,1-.93.42l-.43.19a6.58,6.58,0,0,1-.83.34l-.56.21-.72.25a4,4,0,0,1-1.33.18H194l-.08.07a4.52,4.52,0,0,1-1.11.58l-.28.09-1,.33a9,9,0,0,1-1,.22,2.7,2.7,0,0,0-.39.08c-.13,0-.25.11-.37.16a5.42,5.42,0,0,1-.94.37,5.09,5.09,0,0,1-1.53.14h0l-.13.06a5.64,5.64,0,0,1-.92.39,4.79,4.79,0,0,1-1.05.19l-.29,0a1.1,1.1,0,0,1-.17.14,5,5,0,0,1-1,.56,4.42,4.42,0,0,1-1.17.32l-.17,0-.13.13a4.3,4.3,0,0,1-1,.73,4.09,4.09,0,0,1-1.33.41A2,2,0,0,1,179,143.75Zm25.31,9.88a2,2,0,0,1-2,2,4.41,4.41,0,0,0-2.4,1.21,9.83,9.83,0,0,1-2.64,1.55,2.06,2.06,0,0,1-.65.11,2,2,0,0,1-.64-3.9,6.64,6.64,0,0,0,1.53-1,7.94,7.94,0,0,1,4.72-2A2,2,0,0,1,204.35,153.63Zm10,115.51a2,2,0,0,1-1.68-2.28,10.79,10.79,0,0,1,2.9-5.54l.22-.26a2,2,0,0,1,3.09,2.53l-.22.27c-1.1,1.34-1.83,2.23-2,3.6a2,2,0,0,1-2,1.7Z" style="fill: #1d1d1b"/>
  </g>
</svg>
