<svg xmlns="http://www.w3.org/2000/svg" viewBox="0 0 500 500">
  <title>web</title>
  <path d="M352.11,212a2.19,2.19,0,0,0-3.1-.28,7.44,7.44,0,0,1-.78.53,8.63,8.63,0,0,0-1.21.82c-.32.26-.63.53-.93.8s-.59.52-.89.76-.69.51-1,.76l-.89.65c-.29.22-.61.42-.92.62s-.72.45-1.07.7-.66.51-1,.78-.58.48-.89.69-.79.62-1.11.9a8.11,8.11,0,0,1-.74.61,6.82,6.82,0,0,1-.82.42,10.36,10.36,0,0,0-1.31.68,10.93,10.93,0,0,0-1.16.89,7.1,7.1,0,0,1-.74.57l-.58.36c-.48.3-1,.6-1.45.88a10.88,10.88,0,0,1-1,.52c-.37.18-.74.36-1.1.56s-.66.33-1,.48-.78.34-1.15.54a8,8,0,0,0-1.33.92,7.21,7.21,0,0,1-.63.46c-.33.16-.67.29-1,.42s-.81.3-1.19.48-.75.38-1.12.58-.65.36-1,.51a4.49,4.49,0,0,1-.82.22,8.77,8.77,0,0,0-1.48.43,8.9,8.9,0,0,0-1.35.71l-.08.05-.29-.14-.45-.22-.1-.06-.26-.16-1.18-.71-.11-.07-.05,0-.32-.24c-.22-.16-.45-.32-.68-.5l-.36-.26-.1-.07h0l-.08-.09-.67-.68-.35-.35-.18-.18-.09-.09h0l0,0,0,0c-.18-.22-.35-.44-.54-.66s-.43-.57-.65-.89l-.5-.78-.29-.51-.08-.12,0-.07-.06-.1,0,0-.31-.39a6.11,6.11,0,0,0-.53-.56l-.14-.14-.08-.06c-.35-.47-.14-.13-.24-.4a11.83,11.83,0,0,0-.39-1.43l-.05-.15v0s-.16-.37-.09-.21l0,0,0-.07-.18-.3-.37-.6-.34-.57-.08-.14,0-.06-.08-.18-.5-1.25-.13-.32-.05-.22-.12-.53-.15-.66-.08-.34,0-.08,0-.14v0l-.06-.16-.45-1.33-.11-.34,0,0v-.07l0-.17-.17-.69a10.13,10.13,0,0,0-.38-1.38l-.52-1.43-.06-.17,0-.05,0-.23-.09-.62-.1-.71,0-.18,0-.09,0-.13v-.05l-.12-.38-.43-1.45-.06-.17h0l0-.3-.07-.64-.07-.71,0-.17v-.15l0-.09-.06-.35c-.33-1.88-.57-3.58-.79-5.4-.09-.87-.17-1.73-.26-2.57-.05-.43-.11-.85-.16-1.27l-.08-.6c0-.1,0-.1,0-.27l.09-.62.06-.44c0-.14,0-.21,0-.32a4.69,4.69,0,0,0-.25-1.68l-.07-.24-.05-.14a.64.64,0,0,1-.05-.22l0-.26v-.11l0-.23,0-.46c0-.36,0-.7.07-1s0-.73,0-1.08,0-.64,0-.95a6,6,0,0,0-.15-1.25l-.12-.44-.07-.23a3.33,3.33,0,0,1-.05-.37l0-.09,0-.13c0-.46.09-.88.12-1.25l0-.31,0-.14v-.23h0v-.08c.84-1.88,1.73-3.83,2.42-5.52l.3-.7a7.16,7.16,0,0,1,.43-.72c.16-.23.32-.45.47-.68a9.8,9.8,0,0,0,.61-1l.07-.14,0-.08,0-.05.09-.21.17-.4c.12-.27.23-.54.34-.8s.23-.53.34-.79l.16-.38,0-.08,0,0,.1-.18c.25-.51.5-1,.75-1.48l.38-.77a2.49,2.49,0,0,0,.19-.4l.13-.36.49-1.38c.08-.23.16-.45.23-.67l.12-.32v0L309,163v0l0-.08.05-.16q.16-.65.33-1.26c.09-.37.17-.74.26-1.08.24-.81.48-1.43.69-2,.43-1.24.73-2.13,1-2.89l.34-1.15a2.15,2.15,0,0,0-4.1-1.27l-.1.3s-.09.31-.27.87-.54,1.58-1,2.77c-.21.59-.49,1.3-.7,2q-.17.6-.33,1.26c-.12.4-.23.82-.36,1.25l0,.17,0,.07-.08.21-.24.66q-.26.67-.51,1.38l-.14.36a2.45,2.45,0,0,1-.14.29c-.11.21-.22.42-.32.63l-.73,1.41-.1.18-.08.17,0,.09-.16.39c-.12.26-.23.52-.34.78s-.23.53-.34.8l-.18.41-.08.2,0,0s0,0,0,0l0,.05a4.63,4.63,0,0,1-.32.53l-.56.82a7.85,7.85,0,0,0-.53.87l-.06.1c-.14.26,0,.09-.08.16v0l0,.06-.1.23-.19.45c-.55,1.31-1.1,2.54-1.67,3.81a2.62,2.62,0,0,1-.28,0,6.34,6.34,0,0,0-.88,0,4.06,4.06,0,0,0-1,.28c-.07,0-.15.05-.12.06a3.4,3.4,0,0,1-.45,0l-.72-.06c-.11,0-.21,0-.32-.06a6.35,6.35,0,0,0-.85-.16,4.29,4.29,0,0,0-1.06.05l-.2,0-.23,0a8.85,8.85,0,0,1-.87-.16c-.06,0-.22-.09-.35-.14a5.39,5.39,0,0,0-.75-.31c-.37-.12-.75-.25-1.12-.4l-.61-.22a4.45,4.45,0,0,1-.51-.19l-.37-.17-.72-.35a3.6,3.6,0,0,1-.4-.28,6.42,6.42,0,0,0-.6-.42l-1-.68c-.19-.14-.39-.26-.59-.38s-.3-.18-.44-.29a4,4,0,0,1-.29-.29,8.07,8.07,0,0,0-.59-.58c-.1-.09-.19-.21-.29-.31a6.2,6.2,0,0,0-.55-.6,4.92,4.92,0,0,0-.83-.61l-.2-.12-.87-.91c-.07-.08-.13-.19-.2-.29a6.53,6.53,0,0,0-.52-.74l-.42-.46c-.14-.16-.29-.31-.42-.48s-.28-.37-.42-.56l-.33-.45c-.14-.19-.3-.38-.45-.56s-.24-.28-.35-.43-.29-.39-.44-.57-.23-.29-.33-.44l-.41-.64-.27-.44c-.08-.13-.15-.28-.22-.42s-.23-.48-.37-.71a4.74,4.74,0,0,1-.26-.5c-.11-.21-.21-.43-.33-.63a5.54,5.54,0,0,0-.58-.81c-.06-.08-.13-.15-.18-.23s-.2-.37-.31-.55-.22-.37-.32-.57-.11-.28-.17-.43a8.09,8.09,0,0,0-.31-.76c-.11-.24-.25-.47-.38-.7a4.49,4.49,0,0,1-.24-.42,4.81,4.81,0,0,1-.2-.53c-.09-.22-.17-.45-.26-.67s-.25-.59-.37-.88l-.12-.3c-.1-.25-.22-.49-.34-.73s-.15-.29-.2-.43a3.64,3.64,0,0,1-.14-.47,6.77,6.77,0,0,0-.22-.77,1.92,1.92,0,0,1-.09-.4,7.37,7.37,0,0,0-.21-.84,5.28,5.28,0,0,0-.41-.91l-.12-.25c-.11-.35-.2-.69-.29-1l0-.21a4.21,4.21,0,0,1-.09-.49c0-.26-.08-.51-.13-.75a2.42,2.42,0,0,1-.06-.46c0-.24-.06-.48-.1-.7l.09-.53a.73.73,0,0,0,0-.17v-.3l0-1.32,0-.63v0h0l0-.17,0-.33.21-1.4.05-.36,0-.18v-.37a6.58,6.58,0,0,0-.05-.78,4.68,4.68,0,0,1,0-2.2c.11-.86.22-1.72.34-2.57.05-.46.1-.91.16-1.36s0-.85.07-1.27l.06-1.42-.06-1.22c-.42-.81.64-3,.31-4.69l-.06-1c0-.49,0-.78,0-1.17s0-.71,0-1V121l0-.53c.06-.67.15-1.5.19-2.19s.07-1.34.11-2,0-1.28,0-1.9v-.73c0-.29.07-.58.11-.87s.07-.63.11-.94l.05-.48v-.15c0-.07,0,.13,0-.18v0l0-.2c0-.51-.08-1-.12-1.48a6.92,6.92,0,0,1,0-1.37c0-.46,0-.89,0-1.31v-.7l0-.56c0-.36-.05-.69-.07-1l0-.44v-.27c0-.27,0-.52.05-.74.06-1,.09-1.52.09-1.52a2.14,2.14,0,0,0-4.26-.31l0,.43s0,.41-.1,1.18c0,.22,0,.47-.06.74V104l0,.49c0,.33,0,.69.06,1.07,0,.18,0,.37,0,.56v.21l0,.3c0,.41,0,.84-.06,1.3a9.29,9.29,0,0,0,0,1.48c0,.52.07,1.06.11,1.61v.15h0v.09l-.05.34c0,.24-.07.49-.11.74s-.07.57-.11.86l0,.11v0c0,.09,0-.15,0,.2v.74c0,.6,0,1.25,0,1.86s-.07,1.31-.11,2-.12,1.21-.19,1.95l-.05.53v.07c0,.21,0,.08,0,.13v1.61c0,.34,0,.79,0,1,0,.42,0,.84.05,1.26l0,.57v.4l-.18,1-.21,1.17c0,.41,0,.14,0,.24v.65l0,.69.06,1.19h0v.46l0,.62c0,.41,0,.83-.07,1.25l-.15,1.16c-.11.83-.22,1.68-.33,2.53l-.08.65-.05.33a1.18,1.18,0,0,0,0,.16v.48c0,.17,0,.38,0,.53l.06.39.05.34,0,.15a2.4,2.4,0,0,1,0,.54v.12l0,.29-.19,1.26-.05.33,0,.17,0,.2v.09l0,.72v.73a4.81,4.81,0,0,0-.63.52,6.86,6.86,0,0,0-.64.68c-.16.18-.31.35-.43.46s-.45.35-.69.52-.38.26-.56.4a6.41,6.41,0,0,0-.83.78,3,3,0,0,1-.31.31c-.43.29-.88.57-1.33.84a3,3,0,0,1-.55.24c-.3.12-.6.25-.88.39a3.66,3.66,0,0,1-.62.25c-.28.1-.57.21-.84.33l-.12.05c-.43.2-.86.4-1.31.57-.29.12-.57.26-.85.4a4.2,4.2,0,0,1-.56.26,4.69,4.69,0,0,1-.62.13,9.37,9.37,0,0,0-.92.19l-.38.1c-.38.11-.75.21-1.13.29a7.54,7.54,0,0,1-.83.12l-.71.1-.78.15a6.54,6.54,0,0,1-.75.13c-.31,0-.62.09-.92.15a3.65,3.65,0,0,1-.63.1l-.71,0c-.28,0-.57,0-.85,0a2.77,2.77,0,0,1-.43-.09,6.9,6.9,0,0,0-1.12-.2c-.28,0-.55-.07-.83-.11l-.7-.11a7.05,7.05,0,0,0-1.1,0,3.3,3.3,0,0,1-.47,0l-.68-.11a8.13,8.13,0,0,1-.86-.15c-.17-.05-.39-.14-.63-.23a7.67,7.67,0,0,0-.84-.32A3.55,3.55,0,0,1,235,151c-.28-.14-.56-.27-.84-.38l-.62-.22c-.28-.1-.56-.2-.84-.32a6.65,6.65,0,0,0-1.08-.35,4.11,4.11,0,0,1-.42-.12c-.46-.24-.92-.49-1.37-.76a3.92,3.92,0,0,1-.42-.34,7.43,7.43,0,0,0-.8-.65c-.23-.15-.47-.29-.71-.43s-.42-.25-.62-.4a4.14,4.14,0,0,1-.35-.36l-.08-.1c0-.09-.05-.18-.07-.28a8.59,8.59,0,0,1-.1-1c0-.46-.08-.93-.16-1.38s-.15-.94-.22-1.4l-.16-1a13.31,13.31,0,0,0-.34-1.41c-.09-.35-.18-.67-.23-1s-.09-.73-.12-1.09-.08-.88-.15-1.31a11.61,11.61,0,0,0-.33-1.45,6,6,0,0,1-.22-.92c-.06-.38-.1-.76-.13-1.14s-.09-.85-.15-1.26-.12-.91-.18-1.35l-.14-1.06-.18-1.19c-.07-.4-.13-.81-.18-1.2a10,10,0,0,1-.06-1c0-.43,0-.91-.08-1.42s-.1-.81-.14-1.21-.08-.81-.13-1.2a10.48,10.48,0,0,0-.36-1.55,7.29,7.29,0,0,1-.2-.82c-.05-.43-.11-.85-.17-1.26s-.11-.77-.16-1.15-.06-.74-.08-1.1,0-.9-.09-1.33-.06-.76-.08-1.12,0-.9-.09-1.32c-.08-.61-.19-1.16-.28-1.67-.05-.28-.1-.53-.14-.78a2.2,2.2,0,0,0-4.35.68c0,.28.1.58.16.91s.18.91.25,1.44c0,.29,0,.6.06.92,0,.48,0,1,.1,1.5,0,.3.05.62.07,1,0,.48,0,1,.1,1.47s.11.81.17,1.22.12.79.17,1.19a9.38,9.38,0,0,0,.34,1.49,8.92,8.92,0,0,1,.22.9c0,.35.08.71.11,1.07s.1.89.16,1.35a7.08,7.08,0,0,1,0,.93,11.93,11.93,0,0,0,.1,1.51c.06.43.12.86.19,1.29s.12.75.17,1.13l.14,1c.06.46.12.93.19,1.4s.08.7.12,1.05.09.91.15,1.37a12,12,0,0,0,.34,1.45c.09.34.18.66.23.94s.08.68.11,1,.08.93.16,1.39a11.85,11.85,0,0,0,.33,1.44,9.42,9.42,0,0,1,.24.95l.15,1q.12.71.24,1.44c0,.32.07.65.1,1a14.1,14.1,0,0,0,.16,1.46c.08.44.18.88.29,1.33,0,.28-.09.57-.15.87a4.63,4.63,0,0,1-.22.67,8.52,8.52,0,0,0-.4,1.31,8.25,8.25,0,0,0-.14,1.31,5,5,0,0,1-.07.77c-.09.36-.19.72-.29,1.08s-.18.62-.26.94l-.21.89c-.09.37-.18.76-.29,1.15s-.2.61-.31.93-.25.69-.35,1-.21.56-.33.85-.29.72-.41,1.1-.21.77-.3,1.16a8.29,8.29,0,0,1-.21.86l-.25.74c-.14.41-.28.83-.43,1.24s-.19.54-.29.82-.27.76-.41,1.14-.23.61-.34.92-.25.7-.39,1-.31.7-.48,1l-.39.85c-.14.3-.3.59-.46.88s-.35.63-.5,1-.3.53-.46.79-.41.66-.59,1a7.28,7.28,0,0,0-.49,1.32,3.7,3.7,0,0,1-.22.63,4.11,4.11,0,0,1-.39.44,6.21,6.21,0,0,0-.95,1.16,10.23,10.23,0,0,0-.55,1.1,6.11,6.11,0,0,1-.37.73c-.38.57-.77,1.13-1.16,1.68a6,6,0,0,1-.57.63,10.72,10.72,0,0,0-.8.86l-.44.56c-.26.34-.53.68-.82,1s-.67.69-1,1l-.39.38a11.86,11.86,0,0,0-.79.91,4.16,4.16,0,0,1-.51.59,10,10,0,0,1-.87.61c-.26.16-.51.32-.75.5s-.57.45-.84.69a6.88,6.88,0,0,1-.67.53,10.11,10.11,0,0,1-1.08.49l-.71.3a15.4,15.4,0,0,1-3.55,1.17,13.69,13.69,0,0,1-1.87.25,17.59,17.59,0,0,1-1.9,0l-.55,0a11,11,0,0,1-1.36-.13,2.4,2.4,0,0,0-.46,0l-.35-.46-.82-1.07c-.5-.65-1.17-1.38-1.7-2.06l-.22-.25-.09-.12,0-.06-.29-.49-.62-1.07-.33-.57-.4-.62-.71-1.09-.35-.54a2.13,2.13,0,0,0-.17-.25l-.21-.27-.82-1.08-.38-.51-.19-.26,0,0,0-.06-.51-1-.55-1.11-.07-.13c-.08-.16,0-.07-.06-.11l0,0-.05-.07-.19-.27-.38-.55-.7-1-.17-.25-.07-.1-.22-.47L178,174l-1-2.06c-.3-.66-.61-1.31-.9-1.95a9.89,9.89,0,0,1-.41-.93c-.09-.29-.18-.57-.26-.85l-.28-.95-.15-.49-.21-.59-.65-1.82L174,164l-.28-.61-.15-.29-.13-.23-.27-.44a5.33,5.33,0,0,1-.3-.51l-.19-.39,0-.05-.06-.16c-.19-.53-.38-1-.55-1.53l-.27-.73c-.06-.19-.11-.43-.16-.64-.23-.93-.44-1.8-.63-2.58s-.33-1.42-.47-2v-.08l-.06-.2,0-.11-.08-.21-.14-.39c-.09-.25-.18-.47-.25-.68l-.46-1.24,0-.1a2.15,2.15,0,0,0-4,1.48s.16.43.45,1.25c.13.36.28.8.47,1.32s.31,1.37.49,2.19c.08.37.17.77.27,1.18s.22.94.34,1.43c.07.27.12.52.21.81s.17.48.25.73c.18.49.36,1,.54,1.54l.07.19,0,.1.09.24,0,.05.17.39c.12.26.39.71.56,1l.2.33.1.17,0,.12.11.23.16.46.65,1.82.08.24,0,.08s0-.1,0,0l0,.06.14.49c.1.33.2.67.31,1l.36,1.14c.15.43.3.68.45,1l.94,2.05L174,176l1,2.17.27.59,0,0c-.08-.13.13.23.11.21l0,.06.09.12.17.25.66,1,.32.46.16.22,0,.06,0,0h0l0,.08.55,1.12c.21.41.42.82.64,1.23l0,.08,0,0c-.09-.13.13.21.12.18l.09.13.19.25.38.51.74.94.18.24c.1.13.13.19.2.29l.36.54.71,1.08.31.48.33.56.33.58.39.64.39.64.05.08.09.12,0,0,.11.13.21.25c.57.72,1.13,1.29,1.73,2.07l.82,1.07.42.54.26.32.22.26.54.6,0,.49c.07.69.15,1.53.24,2.48,0,.25,0,.5.07.76s0,.26,0,.39v.27c0,.55-.06,1.14-.1,1.74,0,.32,0,.65,0,1s0,.62,0,.94c0,.65,0,1.32,0,2v.42l0,.53c0,.35-.05.71-.07,1.08s-.05.72-.07,1.09v1.12c0,.37,0,.75,0,1.13v1.22c0,.73,0,1.48,0,2.22v.24l0,.3-.07.59-.12,1.19-.06.59,0,.3a1.24,1.24,0,0,0,0,.24l-.19,1.19-.17,1.19-.05.29v0c0,.06,0-.07,0-.05v.12l0,.14-.1.59c-.13.8-.27,1.55-.38,2.37-.05.39-.1.78-.14,1.17s-.1.72-.14,1.07l0,.26s0,.13,0,.1l0,.14-.11.56-.24,1.11c-.07.35-.14.7-.22,1v0l0,.13-.08.27-.15.52-.62,2c-.17.67-.34,1.31-.51,1.94-.09.33-.17.66-.25,1s-.15.61-.21.9c-.13.53-.25,1-.37,1.52l0,.17v0h0l0,.09-.15.36-.28.7c-.18.46-.35.88-.51,1.27s-.28.69-.41,1c-.18.45-.34.82-.47,1.13h-.28a6.36,6.36,0,0,1-.87-.23,9.35,9.35,0,0,0-1.44-.38,11,11,0,0,0-1.44-.11,6,6,0,0,1-.93-.07,6.48,6.48,0,0,1-1-.3,13.27,13.27,0,0,0-1.29-.4,9.47,9.47,0,0,0-1.54-.19,5.89,5.89,0,0,1-.82-.1c-.32-.09-.68-.23-1.06-.38s-.77-.32-1.16-.44l-.9-.28c-.46-.13-.91-.27-1.35-.43a3.66,3.66,0,0,1-.67-.41,8,8,0,0,0-1.38-.79,8.61,8.61,0,0,0-1.48-.44,5.49,5.49,0,0,1-.78-.23l-1-.45c-.39-.16-.77-.32-1.13-.51a3.79,3.79,0,0,1-.57-.48,7.62,7.62,0,0,0-1.28-1c-.39-.23-.79-.42-1.2-.61a8,8,0,0,1-.89-.46c-.67-.43-1.32-.87-1.94-1.32-.33-.24-.68-.45-1-.67s-.68-.42-.95-.63-.71-.59-1-.89L151,230a2.2,2.2,0,1,0-2.82,3.38c.22.18.43.38.65.57.41.36.83.72,1.27,1.07a15.69,15.69,0,0,0,1.3.88c.27.17.54.34.81.53.67.48,1.37.95,2.09,1.42a11.86,11.86,0,0,0,1.43.76,9.23,9.23,0,0,1,.83.42,3.22,3.22,0,0,1,.51.43,7,7,0,0,0,1.52,1.15c.49.26,1,.47,1.46.67l.86.38a8.09,8.09,0,0,0,1.66.53,5.5,5.5,0,0,1,.78.22,4,4,0,0,1,.61.38,7.8,7.8,0,0,0,1.62.89c.52.19,1.06.36,1.61.52l.82.25c.28.09.56.21.84.32a13.79,13.79,0,0,0,1.55.56,8.66,8.66,0,0,0,1.7.24,5.85,5.85,0,0,1,.83.09,6.61,6.61,0,0,1,.83.26,10.44,10.44,0,0,0,1.59.47,11.09,11.09,0,0,0,1.63.15,7.82,7.82,0,0,1,.9.06,6.16,6.16,0,0,1,.77.21,8.76,8.76,0,0,0,1.68.42,6.32,6.32,0,0,0,1,0l0,0c0,.15-.11.34-.15.48s0,.19-.06.3l0,.07h0a2.07,2.07,0,1,1,0,.26v.26c0,.13,0,.26,0,.4s0,.54.06.84v.26c0,.08,0-.09,0-.07v.1l0,.2c0,.14,0,.27.05.41l.07.3.06.26,0,.1,0,.05,0,.12v.15h0v0s0,0,0,.11l-.05.21-.09.42a4.7,4.7,0,0,0-.11.72v0c0,.35,0,.11,0,.19v.14l0,.19.06.38c0,.23.07.46.11.69l0,.31v.13c0,.18,0,.37-.08.56s-.05.47-.07.7v.28l0,.17,0,.34a2.74,2.74,0,0,0,.14.54l.09.3c0,.05,0,0,.06.18l0,.16v0l0,.33c0,.24,0,.49-.05.73l0,.4v.35l0,.2c0,.27,0,.54.07.82l0,.41c0,.11,0,.05,0,.06v0a1.57,1.57,0,0,1-.06.23l-.07.31-.09.39a1.3,1.3,0,0,0,0,.29l0,.22v.05c0-.2,0,.31,0,.28v.05l0,.21.09.43a4.94,4.94,0,0,0,.19.58c0,.13,0,.09.07.14l.08.4v.07l0,.25c.05.32.09.64.14,1l0,.13a.81.81,0,0,0,0,.11l0,.15c0,.14-.08.3-.11.45a4.39,4.39,0,0,0-.07.44l0,.23v.15c0-.05,0,.53,0,.3l0,.08,0,.28.12.58.18.79.09,1c0,.32.07.66.15,1.06l.21,1.05,0,.19v.21l0,.51c0,.33.06.69.07,1s0,.49,0,.87v.53c0,.1,0-.19,0,.23v.11l0,.14.06.29.21,1.07v.38l0,.45,0,.54v.2s0,.33,0,.22v.08c.06.21.12.42.2.63a2.64,2.64,0,0,0,.21.44l.19.33c0,.08,0-.1.06,0l0,.14v.06l.05.48,0,.53,0,.27,0,.23v.1c0,.28,0,.51,0,.91v.45l0,.27v.06l.06.49.06.52,0,.28,0,.13V287a1.39,1.39,0,0,0,0,.17l0,.08a4,4,0,0,0,.44,1.05l.19.32s0,0,0,0,0,0,0,0a.34.34,0,0,1,0,.1l0,.16,0,.48v.48l0,.28v.07c.08.53,0,.17.05.29v0l0,.15.08.3.16.58.14.54,0,.06s0-.12,0,0l0,.07.09.3a4.86,4.86,0,0,0,.23.53l.19.34.07.13h0s0,0,0,0l.09.25.21.84c.08.35.18.74.22,1.05l.19,1.05.22,1.12.11.54,0,.14,0,.13,0,0,0,.07.1.31.41,1.12,0,.06v.05l0,.2.05.43.07.54,0,.14v.07c0-.05.11.47.07.28l0,.07c.07.18.14.37.22.54a2.83,2.83,0,0,0,.22.39l.19.3,0,0h0l.06.12v0a1.21,1.21,0,0,1,0,.19,8,8,0,0,0,.07.93l0,.26,0,.07.08.32,0,.13.3,1,.07.26,0,.13a2.08,2.08,0,0,0,.1.24c.07.17.15.34.23.5a2.65,2.65,0,0,0,.21.34l.17.26,0,0,0,0,0,0a3.81,3.81,0,0,0,0,.49c0,.2,0,.4,0,.59l.05.28,0,.13v0c0-.07.19.67.12.39l.06.13c.08.17.17.34.26.51a3.26,3.26,0,0,0,.24.35l.22.29,0,0s0,0,.06.07l.13.22v0l.2.47.4.95.27.86.16.47,0,.12.1.23,0,.06.1.23.42.89.1.22.11.24.17.42.37.87c.45.84.89,1.41,1.06,1.74s.16.45.29.74l.17.41.05.11,0,0a2.49,2.49,0,0,0,.13.24l0,0,.16.22c.44.64.8,1.07,1.11,1.49l.51.69.25.34c.16.21.25.29.38.44s.49.54.66.71l.56.56.56.55.28.27.2.2.14.15.54.57.27.25.13.13.06.06,0,0,.18.16c.41.34.81.69,1.16.93l.14.1.06.05,0,0,.21.13h0l.4.21c.25.11.56.28.74.34l.58.23.07,0,.14.05h0l.07,0,.27.07a3.06,3.06,0,0,0,.51.09l.43,0h.31l.54,0h.1l-.09.19-.19.39,0,.1-.1.22,0,.05-.08.2-.16.4c0,.13-.11.37-.16.55l-.25.94-.09.34a1.54,1.54,0,0,0-.08.19l0,.1v0l-.18.27a2.38,2.38,0,0,1-.38.46l-.54.62a7.23,7.23,0,0,0-.7,1l-.08.14,0,.06c.06-.11-.12.24-.1.22l-.08.19-.16.38c-.11.25-.23.68-.33,1l-.22.73c-.07.21-.13.29-.18.45-.42,1-.84,1.92-1.25,2.85-.57.86-1.12,1.71-1.66,2.54l-1.53,2.53-.18.31-.2.4-.31.64-.57,1.21-.25.53h0l-.1.14-.19.28c-.27.32-.29.3-.71.79a5.8,5.8,0,0,0-.54.65l-.28.4-.13.2,0,.05-.1.19,0,.07-.27.58c-.1.23-.2.51-.29.76l-.21.6a3.15,3.15,0,0,1-.17.44l-.07.16,0,.08v0h0l-.29.45-1.28,2-.08.12,0,.06,0,0-.07.13-.12.25-.23.48c-.15.31-.3.61-.44.91l-.4.82-.1.2v0l0,0-.27.38-1.06,1.22a10.82,10.82,0,0,0-.69,1c-.12.23-.25.46-.36.68l-.64,1.21-.28.52-.07.13,0,.06v0l-.12.18c-.22.3-.41.58-.58.82l-1.12,1.6a2.14,2.14,0,0,0,3.5,2.48l.17-.23,1-1.42.58-.82.17-.23.08-.13v0l0-.07.08-.14.32-.58c.21-.4.44-.82.69-1.27.11-.22.24-.45.36-.68,0,0,.18-.23.26-.34l.5-.57c.25-.28.57-.64.76-.9l.28-.38.07-.1v0l.11-.17,0-.06.12-.24q.24-.47.48-1c.16-.31.31-.63.47-.95l.24-.48.09-.18h0l0-.05.08-.11,1.22-1.83.32-.5.07-.12,0,0,0-.1.1-.19.18-.38a5.64,5.64,0,0,0,.28-.7l.21-.56.14-.42.26-.55h0l.05-.06.1-.13a2.16,2.16,0,0,1,.29-.35c.15-.17.77-.83,1-1.22l.2-.28.1-.14,0-.07,0,0,.13-.21.32-.67.63-1.31.31-.65.07-.16,0-.08h0l.17-.3,1.52-2.52c.52-.79,1-1.42,1.68-2.59l1.3-3c.15-.34.33-.74.43-1l.25-.83c.07-.18.06-.29.17-.55l.15-.38,0-.08h0l0,0c.11-.11.08-.17.27-.37l.56-.64a6.88,6.88,0,0,0,.67-.86l.24-.35,0-.05s.23-.4.14-.25l.06-.15.12-.29.23-.6.13-.48.18-.72a1.67,1.67,0,0,1,.07-.29l.16-.4.07-.19,0,0,.17-.36s0,.05,0,0v.09l.09.69.05.32v0h0v.13c0,.18,0,.36,0,.55l0,.34v.11c0-.16,0,.24,0,.21v0l0,.18c0,.23.05.46.08.7l0,.28v.08s0-.09,0-.08l-.07.3-.07.39,0,.19v.1l0,.2v0c0,.48,0,.15,0,.27v0l0,.11.1.47.08.42,0,.19,0,.1V339s0,.15,0-.11c.14.67.23,1.23.37,1.72.07.25.13.51.2.77l0,.14c0,.17-.07.33-.09.5l0,.23v.31c0-.25,0,.36,0,.31l.07.28c.08.32.17.65.26,1l0,.11v0l0,.17.08.45a7.22,7.22,0,0,0,.21,1l.24.78,0,.1c0,.13,0,.35-.06.52v.57c0,.13,0-.25,0,.3v0l.15.55a8.11,8.11,0,0,0,.29.94l.24.64.18.44h0v.17c0,.12,0,.21,0,.4l0,.25v.22l.06.29.25.63.22.51.06.13v.13l.06.41.09.51v0c0,.1,0-.17.06.23l.06.13.11.27.12.26.1.16.15.25h0a1.26,1.26,0,0,1,.07.16l0,.1.1.44.12.52,0,.06.07.2v0l.05.12.1.25.21.49.09.23v.05l0,.27c0,.2.05.39.09.59l.07.26v0c0,.12-.09-.22.1.28l.06.14.15.27.16.25.12.15.17.23s0,0,0,0l.14.23,0,0s-.14-.26-.07-.12l0,.06.06.12.26.48.22.39a.56.56,0,0,0,0,.07l.07.4a4.13,4.13,0,0,0,.14.52l0,.13,0,.06v0c.24.52.08.16.14.29l.21.31.39.55.17.22.08.11h0l0,0,.58.94a13.25,13.25,0,0,0,.82,1.07l.17.21.14.2.32.45a11.36,11.36,0,0,0,1.48,2c.29.28.52.45.85.81s.48.53.74.8l.2.18.08.05.17.12.36.2.19.08.11,0,.22.08.22.07h0l0,0v0l.06,0,.1.05.16.12c.16.11.33.24.48.33a12.58,12.58,0,0,0,2.24,1.38c.2.1.37.16.54.23l.25.1,0,0,.23.07.2,0c.13,0,.26,0,.39.06a3.94,3.94,0,0,0,.58,0l.23,0h0s-.07,0,0,0h0l.05,0,.1.05.32.12a3.23,3.23,0,0,0,.53.17l.13,0,.07,0h0l.44.05h.27l.55,0h.62l.18,0a5.5,5.5,0,0,0,.69-.15l.42-.15c.15,0,0,0,.24-.09l.12,0h0l.27-.06,1.18-.25c.4-.09.75-.18,1.09-.28l1.24-.43.25-.09.14-.06,0,0,.08,0,.16-.09.58-.36.37-.24.42-.16.46-.22.12-.05.06,0h0l.26-.16c.17-.13.34-.27.5-.42s.19-.21.3-.32l.12-.14h0s-.05,0,0-.06l0,0h0a8.48,8.48,0,0,0,.78-.4l.22-.14,0,0,.25-.2.05,0,.1-.09.39-.32.39-.33a4,4,0,0,0,.68-.79l.19-.31a0,0,0,0,0,0,0s0,0,0,0l.32-.17a4.68,4.68,0,0,0,.49-.32l.19-.15,0,0,.27-.26.09-.12.18-.25.16-.26a1,1,0,0,0,.09-.17l.15-.31s-.07.06.06-.13l.07-.11h0l.1-.14.58-.76.59-.67.15-.18.07-.09,0,0,0,0,.13-.18.26-.38.55-.81.52-.73a3.23,3.23,0,0,0,.27-.41l.25-.48.21-.41.1-.19,0,0h0l0,0c.14-.17.25-.31.43-.56l.12-.17.06-.08,0,0,.13-.21v0l.21-.46c.12-.26.24-.52.35-.78s.21-.44.31-.65l.17-.35.08-.17.1-.25.53-1.41c.09-.22.18-.44.26-.66l.07-.16,0-.1,0-.07.14-.26.15-.3,0,.24.05.46,0,.11,0,.2v.06l.05.22c.08.31.12.58.22.91l.59,1.87c.1.29.13.49.19.71l.08.33v.06l0,.22c0,.28.07.61.06.85v1.61a7.82,7.82,0,0,0,.06,1l.05.54,0,.14v.07s0,.19,0,.14l.05.21.18.83q.38,1.62.72,3.18t.39,3.15l.1.81.05.4V372c0-.12.05.23.05.21l0,.1.05.18.2.74c.09.28.21.59.31.88l.54,1.4a7.76,7.76,0,0,1,.26,1c.14,1,.28,1.89.41,2.8s.28,1.76.41,2.6c.26,1.66.53,3.42.89,4.8.16.72.32,1.41.47,2.06l.12.49,0,.12,0,.06.05.2v0l.07.24.3.89c.19.57.37,1.11.53,1.62.09.24.17.47.25.7l.12.34,0,.16,0,.09v0c.08.44.18.88.22,1.21s.08.66.11.94.08.66.11.93.11.56.15.76l.13.63a2.14,2.14,0,0,0,4.2-.82l-.05-.31s0-.13-.07-.38-.06-.26-.09-.48,0-.49-.09-.79-.09-.78-.14-1.24-.15-.84-.23-1.32v0l0-.13,0-.05,0-.09-.06-.18-.12-.38c-.09-.25-.17-.52-.26-.79-.18-.53-.36-1.09-.55-1.68-.09-.3-.19-.6-.29-.9l-.06-.2,0-.11c0-.16-.08-.33-.11-.49-.15-.66-.3-1.35-.46-2.07-.37-1.48-.55-2.89-.82-4.6l-.21-1.35c-.06-.41-.12-.84-.18-1.26-.12-.89-.24-1.8-.37-2.73a12.3,12.3,0,0,0-.46-1.81c-.18-.45-.35-.91-.53-1.38-.07-.18-.14-.34-.21-.54l-.21-.74-.05-.19h0v0l-.05-.37-.09-.74c-.13-1.05-.27-2.13-.4-3.23s-.5-2.19-.75-3.32l-.19-.83,0-.18v-.11l0-.31a4.72,4.72,0,0,1,0-.7v-.83l0-1.07a8.42,8.42,0,0,0-.07-.91l0-.22v-.11c0,.11,0-.21,0-.21v-.06l-.13-.55c-.08-.35-.17-.74-.27-1-.17-.52-.34-1-.52-1.58-.07-.25-.14-.58-.21-.87l-.05-.22h0v-.08l-.06-.46c-.15-1.22-.31-2.46-.47-3.71a12.18,12.18,0,0,1-.08-1.56c0-.49,0-1.54,0-2.11l0-.48,0-.18h0l1.23.41a9.73,9.73,0,0,0,1.82.27l.87.06.41,0H265l.87,0,.45,0h.17l.25,0,.22,0,.92-.15.24,0h0l.19,0,.05,0,.12,0,.46-.15,2.05-.68.24-.09.06,0h0l.09,0h0l.14-.08.57-.31.47-.28.22-.14.19-.09,1-.48.12-.06.06,0,.21-.13.23-.15.45-.3.46-.3a5.78,5.78,0,0,0,.56-.44l.84-.72c.28-.19.56-.37.87-.6l.23-.16,0,0h0l.14-.12.06-.06.12-.13.47-.49c.53-.6.94-1,1.6-1.67a42.14,42.14,0,0,0,3-3.54l.67-1,.15-.23.12-.17.08-.11.32-.44.33-.44.16-.22.17-.28.55-.92c.42-.74.72-1.19,1.09-1.92l.92-1.83c.3-.59.59-1.17.88-1.73l.47-1,.15.69.09.41.06.24.11.38a3.93,3.93,0,0,0,.25.61,2.51,2.51,0,0,0,.13.26,1.11,1.11,0,0,1,.09.24h0s0,0,0,0v.47c0,.15,0,.3,0,.45s0,.18,0,.27l0,.12v0l.07.29,0,.06.07.23.13.46.14.47.08.24.06.17,0,.06.05.11.4.94c.2.43.29.7.44,1.07l.22.49,0,.12,0,.06.09.17.05.07a4.66,4.66,0,0,0,.39.49,2.23,2.23,0,0,0,.36.32l.26.21a.09.09,0,0,0,.07,0s.11.11.17.16l.1.1-.12-.13,0,0,.06.08.27.29a6.05,6.05,0,0,0,.51.51l.4.36.08.09s.1.13.16.19a5,5,0,0,0,3,1.68l.2,0h.59a2.15,2.15,0,0,0,.55-.06l.25,0,.14,0,.29-.07.24-.05.42-.07a4.71,4.71,0,0,0,.75-.17l.29-.09.18.4.17.38.2.39.81,1.58.2.4.11.2.05.1.12.18.46.72.89,1.34.11.16,0,0,.14.32a2.06,2.06,0,0,1,.17.55,9.83,9.83,0,0,0,.71,1.94l0,.07.12.2.06.09.12.16.23.34c.21.27.46.57.69.83l.43.51.12.17.06.09,0,0h0c.49,1,.85,1.8,1.51,2.95l1.51,2.17c.09.2.22.46.27.62s.08.26.14.43l.26.76c.12.31.28.63.43.93l0,.06a.77.77,0,0,0,.07.13l.05.07.1.15.18.28.38.56.69,1,.17.26,0,0h0l.07.14.29.57c.19.39.39.78.58,1.16l.29.59.08.14,0,.08s0-.05.06.1l0,0,.17.25.64,1c.4.61.79,1.16,1.17,1.78l1.09,1.71.19.3.14.2.27.38c.17.26.34.5.51.74l1.76,2.56.35.5.17.24.08.11,0,.06h0a7.25,7.25,0,0,1,.36.79c.1.26.19.48.26.68l.14.35.16.34.31.62a2.14,2.14,0,0,0,3.86-1.86l-.16-.34-.12-.26-.07-.15c0-.09-.07-.18-.11-.28l-.33-.86a10.48,10.48,0,0,0-.48-1l-.08-.16,0,0,0-.07-.09-.13-.18-.27-.4-.59-1.76-2.6-1-1.44L321,362.21c-.36-.59-.8-1.25-1.24-1.92l-.63-1-.15-.23h0l0-.06-.06-.13-.25-.5c-.17-.35-.34-.71-.52-1.07l-.28-.57-.07-.15,0-.07c-.12-.22-.05-.08-.08-.14l0,0-.18-.28L316,353.87a3,3,0,0,0-.15-.32l-.19-.56c-.1-.31-.21-.61-.32-.92s-.2-.45-.31-.68l0-.09-.1-.2,0,0-.11-.16-.22-.33-.46-.65-.85-1.24c-.32-.6-.81-1.63-1.27-2.53l-.1-.18-.08-.12-.16-.24-.33-.47c-.21-.26-.4-.47-.6-.71l-.34-.38-.23-.34-.1-.14h0a9,9,0,0,1-.37-1.15,8.38,8.38,0,0,0-.35-1l-.17-.39,0,0s-.2-.4-.13-.24l-.06-.1-.12-.18-1-1.48-.47-.72v0l0-.06-.1-.18-.18-.37-.78-1.51-.2-.39-.06-.11,0-.05,0-.08-.08-.19-.3-.69.15-.2a2.7,2.7,0,0,0,.29-.53l.13-.28s0,0,0-.12l.09-.14.05-.07,0,0-.1.14.49-.75.36-.6,0-.07h0l0,0,.09-.09.27-.28c.13-.14.32-.35.38-.43l.1-.14,0-.07,0,0c-.11.17.16-.26.14-.23l.15-.31.31-.62.15-.32v0s0,0,0,0h0l0,0s0-.09,0-.07v0a.21.21,0,0,1,0,.07h0l0,0,.09-.08.24-.24.26-.29.12-.15,0-.08.1-.14.05-.07c.07-.13-.13.23.16-.3l0-.06.28-.88c.12-.46.25-.93.38-1.4l.19-.72,0-.09v0s0-.16,0,.08l.05-.24.1-.48.13-.72.09-.1a6.82,6.82,0,0,0,.51-.69c.09-.16.12-.24.19-.36l0,0c.24-.66.07-.21.13-.38l0-.11,0-.24.12-.85.05-.37h0l0-.15.19-.72a5.66,5.66,0,0,0,.17-.81l.13-.87,0-.16.11-.15a3.75,3.75,0,0,0,.24-.36l.21-.34.07-.18,0-.08,0,0c-.08.26.14-.41.12-.36l0-.22.15-.83.06-.38.08-.51c0-.12,0-.3,0-.38v-.5s0,0,0,0V313l.05-.08.24-.47.15-.33.07-.18,0-.09,0,0c-.05.17.08-.29.07-.27l0-.25.08-.95,0-.36.05-.1c.07-.18.13-.31.23-.58l.13-.36,0-.09c0,.18.08-.3.08-.29v-.11c0-.15,0-.29,0-.44a5.93,5.93,0,0,0,0-.64c0-.26,0-.14,0-.17s0-.09,0-.2h0l0-.15.2-.65.12-.37v0a2,2,0,0,0,.05-.22l0-.1,0-.19.11-.77,0-.28a.08.08,0,0,1,0,0l0,0,0-.09s0,0,0,.09l.07-.12c.09-.17.26-.48.36-.72s.09-.27.14-.41c-.05.23.1-.37.09-.35v-.11l0-.23c0-.15,0-.31,0-.46s0-.37-.06-.56,0,0,0,0v-.37a1.06,1.06,0,0,1,0,.21s0-.05,0,0V301l0-.11,0-.23.08-.83v-.09l.1-.18a7.41,7.41,0,0,0,.37-.76l.06-.19,0-.09v-.05c.15-.63,0-.21.08-.37l0-.5,0-.87v-.23l.05-.35a16.55,16.55,0,0,0,.18-1.66l0-.82v-.16l0-.1.07-.38.13-.76a3.44,3.44,0,0,1,.16-.59l.19-.7,0-.1c0-.12,0,.21,0-.28v-.05l0-.22,0-.44,0-.79v0s0,0,0,0v0l0-.15.07-.29.16-.73a3.56,3.56,0,0,0,0-1.13,3.19,3.19,0,0,0-.08-.38l-.08-.27,0-.13v0a.2.2,0,0,1,0,.07c0,.1,0,0,0-.14l0-.09.05-.33.12-.74,0-.2,0-.06,0-.12.08-.25.18-.71.14-.92.11-.73a3.62,3.62,0,0,0,0-1l0-.25,0-.13-.08-.27a.64.64,0,0,0,0-.14l.16-.39.12-.39,0-.19,0-.18c0,.05.08-.57.05-.33V277s0-.12,0,.05v-.35a3.58,3.58,0,0,0-.1-.76l-.07-.26,0-.11h0a0,0,0,0,1,0,0s0,0,0-.06l0-.18h0l0-.27,0-.73,0-.36,0-.31c.05-.49.11-1,.16-1.46l.08-.66,0-.35v-.5l0-.82,0-.35v-.11h0v-.06c0-.16.07-.29.11-.49l.07-.34,0-.17,0-.09v0c0-.13,0,.22,0-.29a7.36,7.36,0,0,0-.06-.81c0-.21-.08-.33-.12-.5s0-.1,0-.09h0s0,0,0-.09l.1-.32a4.69,4.69,0,0,0,.17-.63l0-.17v-.13c0-.13,0,.24,0-.3l0-.34,0-.67,0-.33v-.17l0-.37a4.62,4.62,0,0,0-.09-.64l-.09-.36h0l.13-.3.13-.36c0-.12.09-.28.09-.3l.07-.32c.07-.73,0-.26,0-.45v-.09l0-.19,0-.39a1.81,1.81,0,0,0-.06-.28l-.06-.22-.06-.19s0,0,0,0,0,.08,0-.08l0-.16v0c0-.38,0-.75,0-1.12s.07-.63.1-1.08l0-.3v-1.06a10.1,10.1,0,0,1,0-1.13l0-.53V253c0-.22,0-.09,0-.15l-.09-1.25c-.06-.54.21-.77.15-2.11l-.09-1.12v-.39l0-.51c0-.59-.11-1.56-.16-2.1l0-.12v0c0-.13,0,.16,0,.11V245l0-.46c0-.3-.06-.63,0-.88,0-.58.08-1.13.11-1.67,0-.24,0-.49.06-.72v-.92c0-.25,0-.5,0-.74v-.36c0-.14,0-.28,0-.42s-.07-.51-.1-.75l0-.32,0-.15v0s0,.31,0,.15v-.11c0-.41-.07-.78-.1-1.14-.06-.64-.12-1.19-.16-1.65l.09-.05a5.8,5.8,0,0,1,.74-.41,6.92,6.92,0,0,1,.77-.2,8.2,8.2,0,0,0,1.63-.49c.46-.2.9-.43,1.34-.67.29-.16.58-.32.88-.46a7.87,7.87,0,0,1,.89-.36c.42-.17.91-.35,1.4-.6a8,8,0,0,0,1.42-1,5.08,5.08,0,0,1,.63-.46c.29-.15.58-.28.88-.41a15,15,0,0,0,1.36-.65c.28-.16.58-.3.87-.44.45-.22.9-.44,1.33-.69s1-.62,1.55-.94l.57-.35a10.59,10.59,0,0,0,1.26-.95,7.14,7.14,0,0,1,.71-.56,6.69,6.69,0,0,1,.76-.38A9.33,9.33,0,0,0,340,224a11.45,11.45,0,0,0,1.2-1c.23-.2.47-.41.72-.59s.77-.58,1.15-.89.53-.43.8-.63.54-.36.82-.54a14.71,14.71,0,0,0,1.23-.83l.8-.58c.4-.29.8-.57,1.19-.88s.74-.61,1.1-.93.51-.45.78-.67a6.78,6.78,0,0,1,.74-.49,11.91,11.91,0,0,0,1.31-.9A2.2,2.2,0,0,0,352.11,212ZM182.05,267v0a.09.09,0,0,1,0-.05V267Zm113.7-77.29c.37-.62.73-1.25,1.09-1.87l.12-.23.06-.12.12-.24.24-.48.46-.94.1-.2c0,.1,0,.19,0,.29s0,.36,0,.54v.39l-.12,1.06-.06.62,0,.32,0,.16v0c0,.08,0-.14,0,.17v.09c0,.21,0,.31.09.61l.18.73a1.76,1.76,0,0,1,.08.39s0,.05,0,.08v.17c0,.09,0,.22,0,.27l0,.16-.12.59a5.54,5.54,0,0,0-.06,1l0,.65c.05.42.09.84.13,1.27.06.88.13,1.77.19,2.69.16,1.74.38,3.72.66,5.54l.05.35v.12l0,.17.05.71.06.78,0,.39V206c0-.15,0,.22,0,.19l0,.09.05.17.36,1.3.09.3h0v.07l0,.18.08.71.11.8.06.41.06.21v.07l0,.08.06.17.24.67.22.58a11.79,11.79,0,0,1,.36,1.36l.16.7,0,.17,0,.08.05.16.11.33c.14.45.29.89.44,1.34l.05.16v.07l.07.34.15.69.21.82a3,3,0,0,0,.12.44l.13.31c.16.43.33.85.49,1.26l.13.32.11.24h0l0,0,0,.07.08.15.34.57.32.52.16.26,0,0,0,0,.11.3a1.25,1.25,0,0,1,0,.15,1,1,0,0,0,0,.18l.09.41,0,.2.11.29c.08.19.16.38.25.56l0,.07.12.19h0l0,.07.09.12c.07.09.1.15.2.27,1.2,1.29.83.74,1.41,1.72.19.32.5.77.75,1.13s.43.58.65.87l.8,1,.05.06.11.12.1.09.18.18.35.34.68.67.09.08,0,0,0,0,.17.15.18.13.37.25.69.49h0l-.06,0c-.41.12-.8.28-1.2.43a10.35,10.35,0,0,1-1,.36c-.41.12-.83.21-1.24.3l-1.06.23a12.48,12.48,0,0,0-1.3.42,9.94,9.94,0,0,1-.95.3l-.82.18c-.49.11-1,.22-1.48.31s-.9.13-1.35.19l-1,.13c-.41.06-.83.08-1.24.11l-1.09.1c-.35,0-.7.08-1.05.13s-.86.12-1.28.15-.89.11-1.34.19l-.31.05-.07-.09a2.94,2.94,0,0,1-.19-.29,19,19,0,0,0-1.26-2c-.25-.34-.48-.77-.74-1.17l-.07-.13h0l-.08-.28-.18-.57c-.07-.25-.15-.49-.22-.74l-.11-.39,0-.1v-.07l0-.11h0l-.09-.19c-.23-.52-.49-1-.71-1.55l-.17-.39-.06-.15,0-.07-.18-.74c-.13-.52-.24-1.09-.4-1.71s-.31-1.14-.46-1.72l-.12-.43c0-.08,0-.25-.08-.37l-.14-.81c-.2-1.19-.41-2.39-.61-3.56l-.3-1.69a12.51,12.51,0,0,0-.37-1.71c-.16-.56-.31-1.11-.46-1.65l-.05-.19v-.05l0-.35c0-.23,0-.46,0-.68s0-.51,0-.76l0-.38V211l0-.15v-.05l0-.18c-.06-.48-.13-.94-.19-1.39-.1-.88-.27-1.71-.4-2.45-.06-.34-.12-.65-.18-.94s-.09-.6-.13-.86c-.07-.51-.13-.9-.19-1.17l.35-.45.31-.41,0,0,.1-.09.19-.2.77-.79.85-.91.21-.23.05-.05.11-.15v0l.08-.12.3-.46.58-.92.56-.9.61-1,.6-.93.29-.46.15-.23,0,0,.07-.08.34-.44.26-.27.37-.4a6.27,6.27,0,0,0,.44-.51l.46-.62.05-.08c0,.06.09-.14.08-.13l0,0,.06-.12.13-.24.52-1,.5-.92.12-.23.14-.26ZM292,265.45v.13c0,.11-.06.26-.07.24s0,0-.08.17a4.74,4.74,0,0,0-.34,1.3l-.05,1.29-.24,1.27c-.13.51-.26.81-.47,1.74l0,.73,0,.57-.37,1.38c-.09.47-.15,1-.23,1.44s-.22.93-.33,1.39l-.37,1.36-.33,1.35,0,.17,0,.09,0,.19v0l0,.35-.07.6a7.59,7.59,0,0,1-.26,1.23l-.08.33,0,.11v0l-.28.62-.32.72v0c0,.09,0-.16-.06.21v0l0,.08,0,.16-.06.33-.06.49a1.3,1.3,0,0,1,0,.21l-.11.3-.23.58-.12.3,0,.07,0,.06c-.17.37-.36.74-.56,1.14l-.51,1-.13.26-.06.12-.07.16,0,.06-.1.27-.12.4-.12.43v0h0l-.06.09c-.2.3-.4.57-.58.8l-.57.74c-.09.12-.14.15-.2.24l-.09.1,0,0,0,0-.18.14c-.05,0,0,0-.05,0l0,0-.13.06-.11.05v0l-.38-.86-.39-.91-.2-.46-.05-.11,0-.06a.84.84,0,0,0-.08-.16l-.19-.31c-.12-.2-.26-.43-.38-.6l-.36-.45-.26-.33-.2-.25-.26-.42-.07-.11,0,0c0-.05,0-.05,0,0l-.05-.08-.47-.88c-.3-.58-.65-1.18-.91-1.74l-.76-1.76-.41-1-.34-.84-.36-.89-.18-.46-.09-.23-.07-.15,0-.06-.06-.11-1-1.77-.46-.83a7.54,7.54,0,0,0-.69-1.08l-.3-.42-.19-.24a2,2,0,0,1-.23-.34l-.12-.21-.06-.1v0l-.75-1.69-.39-.87c-.1-.26-.13-.34-.21-.58l-.24-.93-.16-.6-.16-.45-.08-.22-.08-.19,0-.05-.05-.11-.2-.43-.4-.84c-.25-.58-.54-1.11-.76-1.69a29.72,29.72,0,0,0-1.51-3.4l-.45-.87.41-.08.54-.13a6.72,6.72,0,0,0,.72-.27l.09,0,.21-.12.09-.06.19-.12a8.2,8.2,0,0,0,.65-.52l.37-.35.13-.11s.06-.05,0-.05l.11-.08a8.61,8.61,0,0,0,.95-.79l.3-.28.15-.15.07-.07,0,0,.11-.14,0,0c.1-.15.21-.31.33-.47a5.94,5.94,0,0,0,.35-.55l.4-.71c.2-.35.39-.71.59-1.08l.15-.27,0-.07.12-.27.06-.14.25-.58.25-.59.06-.15,0,0,.07-.19,0-.08.09-.31.36-1.24.06-.28v-.32l0-.32c0-.22,0-.4,0-.6v-.29c0-.07,0,0,0-.19l0-.16.08-.63.07-.63,0-.16v-.05l.07-.3c.08-.36.2-.9.29-1.4l0-.09v0h0c0-.43,0-.13,0-.22v0l0-.15,0-.3c0-.19,0-.37-.05-.55s0-.32-.05-.48a5.15,5.15,0,0,1,0-.57q0-.56.06-1.08c0-.32,0-.63.07-.93s.06-.73.08-1.07,0-.57,0-.84v-1l0-.16,0-.16c.48.11,1,.23,1.45.33.29.06.59.14.88.22a14,14,0,0,0,1.57.37c.52.08,1.06.13,1.59.17.3,0,.61.05.91.09l.76.09c.57.08,1.15.15,1.73.19.83.07,1.66.11,2.5.14.3,0,.6,0,.9.09a12.64,12.64,0,0,0,1.6.13h1l1.29,0c0,.32,0,.67,0,1.06,0,.86.07,1.89.11,3.08,0,.52,0,1.24-.07,1.86s-.12,1.36-.19,2.09c0,.18,0,.37-.05.56s0,.36,0,.55c0,.38,0,.76,0,1.16s0,.8,0,1.21-.05.82-.07,1.24,0,.81-.06,1.26v.53l-.11.65-.13.76c0,.22,0,.45,0,.68a12.28,12.28,0,0,1-.11,1.35c-.06.47-.13.9-.18,1.37s-.09,1-.17,1.39-.18.95-.24,1.39l-.08.72L292,264l0,.35v1.14ZM285,296v0Zm-1.08-3.07h0S283.94,292.91,283.9,292.94Zm-7-.66,0,.09-.06.17-.15.37-.15.41-.08.21,0,.09-.44.88-.12.24-.05.12-.28.47-.3.52-.08.13,0,0-.15.2-.39.52-.2.27-.05.05h0l-.06.07-.84.88-1.07,1-1,.85-1.12.82-1.21.71-1.27.66-2.56.94-1.36.33-1.34.27-1.45.13-1.24.05c-.34,0-.93,0-1.17,0h-.27l-.12,0-.58-.13c-.35-.1-.7-.19-1.06-.26s-.55-.13-.79-.18h0l0,0-.2-.1-.4-.19-.23-.11c0-.53,0-1.07,0-1.61-.09-1.42-.18-2.84-.26-4.26s-.12-2.76-.17-4.14-.22-2.73-.32-4.09a35.26,35.26,0,0,1-.08-4v-2.1c0-.67-.05-1.34-.08-2s0-1.33-.08-2l-.21-2c-.07-.65-.14-1.31-.2-2l-.05-.48,0-.13v-2.53a8.93,8.93,0,0,0,3,.53h0c3.13,0,6.79-1.65,9.19-5.88.26.62.5,1.27.75,1.9s.51,1.15.76,1.71l.38.85.2.43,0,.1.07.2.16.44.06.31.22.92c.11.36.3.87.43,1.21l.38.88c.26.58.51,1.17.76,1.76l.11.2,0,.05.06.11.12.21a4.78,4.78,0,0,0,.3.47l.64.9c.2.25.25.4.36.55l.47.88.9,1.66.05.11,0,0,.08.21.18.46.37.94.39,1c.07.21.24.58.35.87l.8,1.88c.29.65.61,1.19.91,1.79l.46.89.12.22.11.21,0,.05.07.11.26.43.21.3-.38,1.06v.06h0S277,292.13,276.93,292.28Zm-1.74,3.64h0S275.23,295.87,275.19,295.92ZM253,264.76v-1.38c0-.6,0-1.21,0-1.81,0-2.38-.07-4.74-.15-7,0-1.12-.1-2.26-.08-3.31s.1-2.1.15-3.12l0-.79V245c0-1,.07-2,0-3s-.19-1.93-.29-2.86l-.06-.68,0-.33V238h0V238c0-.44,0-.87,0-1.3,0-1.45-.05-2.81,0-4.05l0,.05a8.49,8.49,0,0,0,.68,1.21,5,5,0,0,1,.8,1.76c.12.39.25.79.37,1.19l.19.61.05.15,0,.08v0s-.06-.19,0-.08l.08.32a8,8,0,0,1,.21,1.11c.05.25.08.48.14.76l.25.88,1,2.63,1,2.78.95,2.95,0,.09s.12.29.08.18l0,.05.09.17.17.36c.14.26.35.59.53.87l.38.62.11.23.06.11,0,.05h0c.16.52.32,1,.49,1.56l.27.85.14.43v.06l.08.17.05.09.09.19.2.38.28.47.46.74c.16.24.18.36.29.53s.21.52.32.77l.65,1.61.14.34v0l0,.1.06.21.17.57c-1.21,4.45-3.8,7.09-7,7.11h0a3.66,3.66,0,0,1-3.33-1.56c-.05-.43-.09-.88-.14-1.31V265h0Zm-7.13,45.71h0l-.08.06-.17.12c-.22.16-.45.31-.67.48l-.12.08,0,0-.36.22-.74.44h0l-.16.08-.4.19-.41.18-.13.07h0l-.87.25-.22.07-.07,0-.35.06-.92.16c0-.05-1.36,0-1.36-.07l-.94-.08h-.11l-.11,0-.46-.12-.47-.11-.19,0,0,0-.9-.31c-.13,0-1.19-.6-1.32-.63-.51-.32-1-.63-1.54-.93l-.36-.23-.28-.18-.06-.05,0,0h0l-.06-.07-.32-.32-.62-.66-.6-.56-.23-.22-.06-.06h0s0-.06,0,.05l0,0-.13-.17-.51-.64-.22-.28,0-.06-.11-.17q-.21-.33-.39-.66c-.08-.12-.1-.18-.21-.35l-.21-.31-.36-.53a1.78,1.78,0,0,0-.13-.18l-.14-.32-.27-.6c-.15-.36-.31-.71-.45-1l-.22-.51-.06-.12v0l-.07-.24c-.08-.23-.14-.43-.2-.63l.31-.63.84-1.7a9.53,9.53,0,0,0,.46-1.3l.22-1a5.48,5.48,0,0,1,.16-.72l.15-.46s0,0,0,0l0-.09.08-.22c.46-1.18.87-2.46,1.41-3.54l.78-1.73.8-1.71.41-.87.1-.21.09-.21,0-.12.16-.48.61-1.86.3-.95.18-.63.09-.53c.08-.41.11-.56.14-.78a2.14,2.14,0,0,1,.09-.4l.13-.46c.34-.79.94-2.44,1.27-3.14.05-.15.25-.45.36-.67s.4-.69.57-1l.19-.42.1-.21.08-.2,0-.05,0-.11.3-.87c.24-.69.49-1.4.75-2.1.18.24.35.46.51.64l.22.27a10.38,10.38,0,0,0,1.47,1.53,8,8,0,0,0,1.93,1.16,7.22,7.22,0,0,0,2.26.58c.21,0,.41,0,.61,0a7.31,7.31,0,0,0,1.67-.18,6,6,0,0,0,1.64-.69l.35-.19a13.25,13.25,0,0,0,1.27-.71l.05.45.18,1.94.18,1.89.06,2,.06,2v.36h0v.56l0,1a36.22,36.22,0,0,0,0,4.17c.09,1.36.24,2.72.27,4.11s.09,2.76.13,4.15.15,2.7.22,4.06c0,.86,0,1.73,0,2.6,0,0,0,0,0,0l-.09.16-.76,1.43-.43.81-.12.23v0l-.05.08-.3.48-.32.5,0,.08,0,.05-.19.26-.38.55-.17.24,0,0-.12.13c-.16.17-.32.36-.48.54l-.22.24,0,0-.14.12-.59.52Zm0,0ZM209.17,271a5.4,5.4,0,0,0-.47-1.27,3.72,3.72,0,0,1-.18-.42l-.15-.86c-.05-.3-.09-.6-.15-.9a3.4,3.4,0,0,1,0-.48,6.12,6.12,0,0,0-.07-1.31c0-.29-.11-.58-.17-.86s-.12-.6-.17-.9a6.74,6.74,0,0,0-.34-1.18,4.45,4.45,0,0,1-.17-.54,9.69,9.69,0,0,0-.23-1c-.06-.24-.12-.47-.16-.71s-.08-.6-.12-.91-.07-.58-.12-.87a4.74,4.74,0,0,1,0-.51,5.65,5.65,0,0,0,0-1.29c0-.32-.08-.64-.11-1l-.1-.81c-.05-.38-.1-.77-.14-1.16l-.08-.61a6.83,6.83,0,0,0-.26-1.19,5.74,5.74,0,0,1-.14-.57,7.73,7.73,0,0,0-.21-1.12,4.67,4.67,0,0,1-.13-.65,3.11,3.11,0,0,1,0-.48,5.6,5.6,0,0,0,.05-1.33,4.42,4.42,0,0,1,0-.63,7.55,7.55,0,0,0,0-1.16v0l.47,0a6.9,6.9,0,0,0,1.81,0c.52-.09,1-.2,1.53-.32l.93-.2a7.17,7.17,0,0,1,.91-.09,10,10,0,0,0,1.6-.2,15.12,15.12,0,0,0,1.5-.43c.3-.1.61-.2.92-.28a7.64,7.64,0,0,0,1.65-.66,4.8,4.8,0,0,1,.69-.32l.95-.24c.5-.13,1-.25,1.48-.4.31-.1.63-.16.94-.23l.66-.15V243c0,.67,0,1.42,0,2.24,0,.42,0,.86,0,1.31v.77l.09.68.09.67,0,.31h0v.32c0,.25,0,.5,0,.76l0,.43v.41l0,.14c.11.5.22,1,.34,1.46l0,.18h0v.09l0,.39.05.39.06.48c.22,1.52.63,2.05.81,3.23l.25.95,0,.12.07.16.07.19.15.38.29.75.07.19,0,.09.1.22,0,0,.18.36c.12.23.24.47.39.72l.22.37.05.09.09.15,0,0,.1.16.87,1.28a11.62,11.62,0,0,0,2.27,2.63l.76.59.05,0,.14.09.07,0,.15.08.29.17.29.16.41.18.4.17.2.09.1,0h0l.23.06h0l.58.13.29.06.37,0,1.26.1.29,0-.46,1.15c-.46,1.12-.87,2.23-1.28,3.39l-.31.87,0,.08-.09.2-.2.42-.36.58c-.17.33-.34.54-.53,1l-.27.57c-.09.2-.12.31-.19.46l-.35.87-.35.87-.18.43-.09.22,0,.11,0,.05-.07.2-.13.45a5,5,0,0,0-.14.51l-.21,1.07-.07.4-.09.28,0,.13v0l0,.12,0,.11-.15.45-.59,1.75-.15.42,0,.08,0,0-.1.21-.42.86-.84,1.74-.81,1.76c-.61,1.21-1,2.38-1.47,3.59l-.23.59-.15.46a10.39,10.39,0,0,0-.3,1.15l-.19.86a5.44,5.44,0,0,1-.19.52l-.31.64-.07,0a3.37,3.37,0,0,1-.83.32l-.26,0a3.83,3.83,0,0,1-.81,0,4.4,4.4,0,0,1-1.1-.56,2.43,2.43,0,0,1-.29-.35,8.35,8.35,0,0,0-.68-.79,6.88,6.88,0,0,0-.7-.6,4.14,4.14,0,0,1-.47-.39c-.06-.11-.1-.25-.15-.37a6.33,6.33,0,0,0-.56-1.16,6.25,6.25,0,0,0-.81-.94,2.78,2.78,0,0,1-.31-.33,3.86,3.86,0,0,1-.16-.46,5.78,5.78,0,0,0-1-2.13,4.37,4.37,0,0,1-.32-.49,6.59,6.59,0,0,1-.23-.67c-.11-.33-.21-.66-.34-1a7,7,0,0,1-.22-.69c-.09-.32-.18-.65-.3-1s-.24-.66-.35-1l-.23-.67a4.67,4.67,0,0,0-.69-1.25c-.08-.12-.19-.27-.2-.3a4.56,4.56,0,0,1-.14-.64,9.6,9.6,0,0,0-.25-1.09c-.07-.25-.15-.49-.23-.74s-.2-.63-.3-1a3.94,3.94,0,0,1,0-.49,6,6,0,0,0-.18-1.28,5.14,5.14,0,0,0-.57-1.28c-.07-.13-.17-.3-.19-.36a4,4,0,0,1-.09-.62,7.94,7.94,0,0,0-.18-1.15,6.76,6.76,0,0,0-.39-1.13,4.75,4.75,0,0,1-.19-.5,2.17,2.17,0,0,1,0-.36A4.94,4.94,0,0,0,209.17,271Zm-.87-47.53v-.35c0-.57-.05-1.17-.09-1.67l-.06-.78V220c0-.49,0-1,0-1.46,0-.25,0-.49,0-.73v-.46l0-.35c-.07-.95-.1-1.78-.19-2.66-.08-.68-.15-1.3-.22-1.87l.84.5.16.09.08,0c.07,0-.11,0,.16.09h0l.31.13.61.25c.42.18.8.31,1.19.47l.29.11.05,0,.08.05a3.39,3.39,0,0,1,.5.32l.15.12.21.16c.22.16.4.31.65.47s.58.33.87.49l.55.25,1.2.55.63.28.16.07.08,0,.22.08h0l.31.08a12.36,12.36,0,0,0,1.52.26,4.36,4.36,0,0,1,.49.06l.15,0h.11l.45.21c.14.07.21.14.33.2l.54.33.32.19.43.19.21.08c0,.14,0,.28.05.43s.06.45.09.69v.05h0s0-.06,0-.15h0v.31c0,.13,0,.26,0,.4,0,.54,0,1.13,0,1.75s0,1.2,0,1.83c0,.34,0,.68,0,1v.31h0v.12l0,.53-.09,2.08c0,.72-.09,1.43-.14,2.14s-.07,1.37-.11,2,0,1.37-.1,1.9-.12,1.19-.17,1.73c0,.25,0,.5-.07.73s0,.48,0,.7c0,.38,0,.71-.06,1-.27.09-.61.17-1,.25a12,12,0,0,0-1.31.33c-.4.12-.81.22-1.22.33l-1.09.28a7.32,7.32,0,0,0-1.48.62,5.76,5.76,0,0,1-.74.33c-.4.1-.8.22-1.2.35s-.73.24-1.11.33-.59.07-.94.1a12,12,0,0,0-1.46.16l-1.05.23c-.43.1-.86.2-1.29.27a4.63,4.63,0,0,1-.7,0l-.43,0v0c.05-.14.09-.28.14-.42l0-.12.08-.3.07-.23.57-2.15.08-.3.09-.43.12-.63c.09-.43.18-.88.27-1.34l.07-.34,0-.18,0-.17v-.09c0-.24,0-.48.08-.72l.15-1.49,0-.39,0-.19v-.26c0-.26,0-.52,0-.78,0-.52.06-1.05.08-1.59.05-1.18,0-2.16.06-3.31l.14-1.56.06-.81,0-.4v-.17Zm55-40.24c.08.31.16.61.25.89a5,5,0,0,0,.5,1.06l.12.21c.11.31.23.62.35.91l.15.39c.18.44.35.87.54,1.29l.18.45c.11.29.23.57.36.85a3.4,3.4,0,0,1,.12.34,5.54,5.54,0,0,0,.4,1,4.88,4.88,0,0,0,.7,1l.15.16a2.6,2.6,0,0,1,.1.25,4,4,0,0,0,1.29,2c.06.07.13.12.18.18l.18.25c.23.31.45.61.68.89a2.33,2.33,0,0,1,.17.26,5,5,0,0,0,.65.93,4.57,4.57,0,0,0,1,.78l.16.09c.06.07.11.15.16.22a4.85,4.85,0,0,0,.78.9c.33.28.66.54,1,.79l.14.11c.32.25.66.47,1,.69l.2.13a5.3,5.3,0,0,0,1.05.52l.25.11.35.23a6.63,6.63,0,0,0,.85.55c.14.07.26.15.39.23a9,9,0,0,0,.86.48c.43.2.86.4,1.3.58a4.72,4.72,0,0,0,.95.26c-.41.4-.89.84-1.36,1.28l-.1.09-.1.09,0,0-.18.21-.36.42-.7.81-.7.78-.61.5-3.13,2.46-.78.61c-.16.13-.35.23-.54.36l-.62.3-.07,0-.75-.16-.2,0-.33-.13-.81-.32h0l-.23-.13-.47-.27-.24-.13-.07,0-.36-.3-.46-.38-.11-.09,0,0-.1-.11-.42-.46-.21-.24-.11-.11-.72-1-.07-.09v0l-.18-.28-.36-.56-.18-.28,0,0h0l-.07-.12-.32-.59-.26-.48-.28-.62-.28-.62,0,0v0s0-.11,0,.09h0l0-.08-.07-.15-.13-.32-.25-.62-.07-.16v0h0v0l-.09-.32-.2-.64-.1-.32-.08-.24c-.13-.41-.27-.83-.4-1.23-.2-.78-.4-1.54-.58-2.26,0-.19-.1-.38-.14-.56s-.07-.34-.1-.5c-.07-.35-.14-.68-.21-1-.13-.65-.25-1.31-.36-1.78l-.13-.57,0-.22c.06-.39.12-.78.17-1.18l.08-.57.15-.62.27-1.24.07-.31,0-.1h0v0l0-.08.18-.62c.12-.44.24-.89.37-1.34.22-.92.29-1.74.44-2.63.11-.51.22-1,.33-1.56,0,.23.1.47.17.69Zm20.16,27.87h0v.47c0,.25,0,.5,0,.76s0,.59,0,.88v.59l0,.17v0l0,.2c.12.51.24,1,.35,1.55a12.87,12.87,0,0,1,.28,1.65l.24,1.79c.16,1.15.32,2.33.48,3.51l.16,1a3.68,3.68,0,0,0,.1.5l.11.43c.15.58.3,1.16.44,1.73s.23,1.11.38,1.71c.07.32.14.63.22.94l0,.12,0,.06.07.19v0l.08.2.17.38c.21.54.43,1,.66,1.47l.08.17h0l0,.1.11.38c.08.26.15.51.23.76l.29.87.15.43,0,.05v0l.1.19.05.08.1.16c.26.41.48.8.77,1.19l.17.24-.53,0c-.79,0-1.57-.06-2.33-.12-.51,0-1-.11-1.51-.17l-.81-.1-1.05-.1c-.43,0-.85-.07-1.28-.14a9.4,9.4,0,0,1-1.09-.26c-.39-.11-.78-.21-1.17-.29-.77-.16-1.52-.34-2.27-.52h-.05c0-.08-.1-.34-.21-.74-.06-.25-.18-.5-.26-.9l-.27-1.3c-.12-.46-.2-1-.29-1.57s-.19-1.16-.29-1.78c-.16-1.26-.38-2.59-.5-4s-.29-2.7-.43-4-.21-2.42-.3-3.43-.08-1.89-.11-2.49a1.77,1.77,0,0,0,.18-.45l.25-.16.78-.6,3.31-2.51.45-.35.22-.17.11-.09.15-.14,0,0,0,0,.72-.76.68-.77.34-.38.17-.2,0,0h0l.1-.09.81-.72c0,.14,0,.27.05.42.08.71.19,1.5.24,2.42,0,.45.07.91.1,1.4v.22C283.43,211.06,283.43,211.18,283.43,211.14Zm-9.15,28.38h0v0Zm-.71,5.64v1c-.11.33-.21.66-.32,1l-.09.3v.06l0,.12v.08l0,.16-.1.62-.11.63,0,.16s0,.09,0,.13l0,.35-.09.68,0,.32,0,.16v0l-.34,1.1-.09.29h0l-.06.14-.26.59-.26.57,0,0,0,0-.15.28-.62,1.06,0,.06.05-.08h0l0,0-.06.1-.12.21c-.09.14-.16.28-.28.45l-.28.41h0l-.06.05-.11.1a7.08,7.08,0,0,1-.7.58l-.1.09-.15.12-.25.23-.35.33s0,0-.08.09L268,258l0,0-.05,0-.26.07-.76.19-.16,0-.08-.2c-.23-.53-.45-1.07-.68-1.6-.12-.27-.2-.5-.35-.81s-.37-.74-.53-1l-.45-.68-.17-.25-.19-.36c-.33-.73-.64-1.87-1-2.88v-.05a.59.59,0,0,0-.07-.16l-.06-.12-.12-.25-.26-.49-.48-.74c-.1-.16-.2-.27-.31-.47l-.18-.36-.08-.16,0,0c-.34-1-.66-2-1-2.9s-.7-1.85-1-2.74-.72-1.76-1.06-2.61l-.12-.43c-.05-.16-.08-.38-.12-.56a11.14,11.14,0,0,0-.31-1.47l-.09-.32-.13-.41-.2-.61-.39-1.18a7,7,0,0,0-.49-1.28,9,9,0,0,0-.71-1.21,3.39,3.39,0,0,1-.44-.74l-.12-.25,0,0,0-.05-.18-.5c-.24-.67-.47-1.3-.7-1.91a5.44,5.44,0,0,1-.16-.64c.44.37.88.74,1.34,1.1l.13.11a9.61,9.61,0,0,0,1.42.89,7,7,0,0,1,.74.45l.49.35c.52.37,1,.75,1.59,1.1a8.44,8.44,0,0,1,.71.51,12.07,12.07,0,0,0,1.37.93c.65.37,1.33.72,2,1.06l.24.12c.74.37,1.5.75,2.27,1.1l.76.35c.51.25,1,.49,1.55.7a13.12,13.12,0,0,0,1.55.46c.29.07.59.14.88.24l.84.31c.48.19,1,.38,1.53.54l.29.07a3.44,3.44,0,0,0,.05.45c0,.11,0,.23.06.37a.92.92,0,0,1,0,.23v.12h0v.05c0,.22,0,.47-.08.73s-.05.54-.08.83-.09.51-.14.78l-.09.49,0,.25,0,.33c-.05.34-.1.7-.16,1.07,0,.18-.06.38-.07.54S273.57,244.93,273.57,245.16Zm-2.07,8.67Zm-.14-33.47c0,1.33.06,2.74.16,4.16s.28,2.82.42,4.15c.09.66.21,1.3.32,1.91s.2,1.18.34,1.73c.07.28.13.55.2.81-.38-.13-.77-.23-1.15-.32a9.37,9.37,0,0,1-1-.29c-.43-.17-.85-.37-1.26-.57l-.86-.4c-.71-.32-1.41-.66-2.09-1l-.23-.12c-.62-.31-1.24-.62-1.83-.95a10.55,10.55,0,0,1-.89-.62c-.33-.25-.66-.5-1-.72s-.92-.62-1.37-1l-.52-.37a12.22,12.22,0,0,0-1.17-.71,5.91,5.91,0,0,1-.81-.49l-.13-.1c-.56-.45-1.13-.9-1.65-1.37a10.11,10.11,0,0,1-.85-.87c-.24-.27-.49-.54-.74-.79a11,11,0,0,1-.79-.92l0,0,.74-.13c.32,0,.66-.11,1-.19l1.19-.24,2.45-.55.33-.07.17,0,.23-.07.09,0,.66-.22c.45-.15.92-.32,1.4-.51l.63-.24.74-.19.67-.13c.32-.08.59-.11.94-.23a6.63,6.63,0,0,0,1.05-.39l.76-.38,1.57-.78.2-.1.25-.13,0,0,.1-.06.38-.25.76-.49.68-.47c0,.34-.05.7-.06,1.1C271.41,217.77,271.32,219.05,271.36,220.36Zm-4.89-12.3h0v0Zm-.66-.92h0Zm-.1-.14h0C265.67,206.94,265.69,207,265.71,207Zm-4.83-.3.16.3.31.6.08.15.16.28.17.29.35.57.17.28,0,.07.15.22.1.13.74,1.07.57.65.41.46.1.11.06.06,0,0h0l.22.2.23.19.46.37.45.37,0,0,.26.19h0l.06,0,.12.07.25.13.47.26.11.06-1.26.67-.75.41a5.38,5.38,0,0,1-.51.2c-.17.07-.44.12-.65.18l-.9.21-.76.22-.14,0,0,0-.09,0-.18.07-.34.15c-.46.19-.91.37-1.36.53l-.66.25-.08,0h0l-.06,0L259,217l-2.43.62-1,.23c-.33.09-.66.16-1,.22l-.9.18-.59.05v0l.18-.43.82-2.05.49-1.25.28-.7.21-.7c.15-.47.3-1,.46-1.48l.06-.25,0-.09,0-.21.08-.4c0-.26.1-.52.16-.79s.08-.49.14-.77l.29-.86c.09-.29.19-.58.29-.88l.15-.45v0c-.06.18,0,0,0,.07l0-.06,0-.11.09-.22.76-2,.55-2c.19-.67.39-1.36.58-2.06.2.76.4,1.54.6,2.33l.08.33,0,.08.06.17.06.15.23.64.27.74.26.63.26.62,0,.08.09.2Zm-1.23-29.14-.08.33,0,.16,0,.21,0,.08-.1.67-.21,1.34c-.17.87-.34,1.73-.5,2.59s-.22,1.79-.39,2.56c-.11.39-.21.77-.31,1.16l-.17.62-.06.25,0,.15-.07.32c-.09.41-.17.83-.26,1.24l-.12.6-.09.68c0,.21-.05.43-.08.64a.87.87,0,0,0-.13.15l-.41.5-.06.06v0l-.12.12-.26.28-.61.65-.24.24,0,0-.09.08-.19.15-.41.31-.36.22-.47.29,0,0h0l.07-.06-.06,0-.13.07-.25.14-.25.13-.13.07-.07,0,.1-.06h-.06l-.51.3-.23.13-.06,0-.13.07-.55.29c-.06,0-.84.33-.91.35l-.61.22-.12,0-.26,0-.34,0-.16,0h-.13l-.61.12-.16,0h-.32l-.67,0s-1,0-1,0l-.65-.1h0l.16,0h0l-.08,0-.16,0-.32-.06-.32-.05-.16,0h-.24l-.27,0h-.11l-.08-.06a2.63,2.63,0,0,0-.23-.16l-.35-.19-.08,0-.15-.06h0l-.08,0-.46-.13h-.11s0,0,0,0l-.21-.12-.47-.28h0l-.22-.19-.23-.22-.12-.11-.06-.05,0,0-.12-.09h0l-.44-.24-.11,0-.06,0h0l-.3-.33-.16-.2-.09-.1h0s.05.06,0,0h0l0,0-.34-.32-.33-.3h0l0-.06h0c0-.08-.05-.17-.09-.26a7.44,7.44,0,0,0-.78-1.45,3.47,3.47,0,0,1-.35-.61,7.9,7.9,0,0,1-.27-.95c-.11-.44-.22-.87-.36-1.3s-.32-.81-.49-1.21a8.7,8.7,0,0,1-.38-1,3.43,3.43,0,0,1-.12-.73,8.22,8.22,0,0,0-.29-1.58,8.12,8.12,0,0,0-.65-1.44,7,7,0,0,1-.34-.7c-.11-.36-.19-.72-.28-1.09s-.2-.79-.31-1.18a1.22,1.22,0,0,1-.06-.31l.13.09a16.41,16.41,0,0,0,1.66.85,7.4,7.4,0,0,0,1.27.41,4.1,4.1,0,0,1,.5.14,2.26,2.26,0,0,1,.42.19,7.11,7.11,0,0,0,1.29.5,12.41,12.41,0,0,0,1.3.21l.52.06c.55.08,1.14.15,1.81.19a10.44,10.44,0,0,0,1.26,0l.54,0a4.75,4.75,0,0,1,.54,0c.24,0,.5,0,.79,0a4,4,0,0,0,.48,0,10.59,10.59,0,0,0,1.27-.2l.51-.09a9,9,0,0,0,1.24-.3l.52-.14a3.44,3.44,0,0,1,.45-.05,6.46,6.46,0,0,0,1.34-.24c.41-.13.82-.3,1.23-.47l.46-.2a6.93,6.93,0,0,0,1.13-.6,4.17,4.17,0,0,1,.46-.26,2.86,2.86,0,0,1,.41-.15,5.21,5.21,0,0,0,1.28-.53,6.63,6.63,0,0,0,1-.81,4,4,0,0,1,.39-.33c.49-.35,1-.7,1.44-1.1l.22-.2C260,176.38,259.81,176.87,259.65,177.56ZM243.9,200h0S243.87,200,243.9,200Zm-2.17-.82h0ZM239,192.76v0C239.08,192.8,239,192.72,239,192.76Zm-1.9,7.88a9.05,9.05,0,0,0,.76,1.37c.16.27.32.52.41.72a6.78,6.78,0,0,1,.23.77A9,9,0,0,0,239,205a10.64,10.64,0,0,0,.78,1.33,8.33,8.33,0,0,1,.44.74c.21.43.45.84.69,1.26.16.27.32.55.47.84s.26.58.38.87a14.33,14.33,0,0,0,.59,1.32c.15.28.3.57.44.86s.42.86.65,1.28.49.82.75,1.23.35.53.51.81a5.19,5.19,0,0,1,.33.76,9.56,9.56,0,0,0,.68,1.43,8.49,8.49,0,0,0,.72,1l-.32,0c-.47,0-.56.08-1,.11h-.48l-.39-.06-1.44-.39-.37-.06-.19,0h-.16l-.17,0c-.33,0-.7,0-1,0l-.81.06a3,3,0,0,1-.65,0h-.32l-.37,0-.87-.1-.91-.1-.46-.06a2.26,2.26,0,0,1-.39-.08l-1.8-.42-.56-.13-.43-.12-.9-.24-1-.28a5.94,5.94,0,0,0-1.55-.17l-.62,0-.31,0a1.2,1.2,0,0,1-.45,0l-.2,0-.11,0-1.1-.39C232.05,213.18,235.59,207.62,237.14,200.64Zm11.68,32.85c0-.14,0-.35.06-.52l0-.27,0-.13.11-.52,0-.12c-.12,1.5-.11,3-.11,4.7v1.76l0,.33.05.67c.08.88.15,1.78.23,2.7a9.61,9.61,0,0,1,0,1.43c0,.49,0,1,0,1.49l0,1.52v.69l-.05.78c-.07,1.08-.14,2.17-.2,3.29s0,2.21,0,3.35c0,2.28.06,4.6,0,7,0,.6,0,1.21,0,1.82v1.95c0,.3,0,.61.08.91a1.94,1.94,0,0,0,0,.83c0,.08.06.16.08.24,0,.45.08.89.13,1.35l-.13.15-.19.3a7.42,7.42,0,0,1-.6.84,7.32,7.32,0,0,1-1,.91,6.37,6.37,0,0,1-1.11.65c-.17.08-.33.17-.49.26a3.67,3.67,0,0,1-.6.3,3.92,3.92,0,0,1-1.12.06,4.09,4.09,0,0,1-1-.29,4.39,4.39,0,0,1-.94-.59,6.62,6.62,0,0,1-.84-.91l-.28-.33a5.68,5.68,0,0,1-.59-.8,12.27,12.27,0,0,1-.64-1.25,4.48,4.48,0,0,1-.15-.59c-.06-.28-.13-.58-.22-.87,0,0,0-.05,0-.08a1.71,1.71,0,0,0,.16-.71l.07-.14c.23-.5.46-1,.68-1.51l.18-.4.09-.19,0-.1.09-.25.27-.82.54-1.62a11.13,11.13,0,0,0,.47-1.95l.11-.75a4.35,4.35,0,0,1,.14-.73l0-.19,0-.08.15-.36.28-.72.57-1.5a8.66,8.66,0,0,0,.41-2l.07-.64a6.19,6.19,0,0,1,.13-.72l0-.09,0-.14.13-.36.24-.69c.17-.48.33-1,.5-1.43l.06-.17L245,248l.1-.36.21-.72.41-1.4c.28-1,.47-1.85.71-2.75l.17-.67c.06-.21.11-.32.16-.48a3.47,3.47,0,0,1,.22-.52l.29-.66c.1-.25.23-.53.29-.72l.1-.3,0-.16.09-.28c.11-.41.23-.81.34-1.21s.23-.8.34-1.19l.16-.59.12-.82a4.73,4.73,0,0,0,0-.71v-1Zm-10.26,22.67,0,0,0,.2c-.06.26-.13.52-.19.89l-.15.91-.06.36-.07.28-.08.28-.14.4c-.18.54-.37,1.07-.56,1.62L237,262l-.29.64-.72,1.54-.15,0-.18,0h-.52l-.47,0-.82-.08h-.2l-.27-.06-.48-.1-.07,0-.17-.07-.18-.06-.28-.16-.28-.16-.15-.09h0l-.32-.26a8.1,8.1,0,0,1-1.54-1.77L229,260l-.11-.16,0,0s0,0,0,0v0l-.18-.3c-.13-.2-.25-.43-.38-.67l-.19-.35v0l-.08-.18-.3-.75-.15-.37-.08-.19v0l0-.06-.16-.62c-.17-1-.85-2.38-.88-3l-.11-.71-.06-.39v-.12l0-.11h0l0,0,0-.2c-.15-.5-.29-1-.44-1.49v-.08l0-.16,0-.31c0-.24-.05-.48-.08-.71l0-.44-.08-.36-.15-.72c-.05-.23-.1-.45-.14-.67v-.06l0-.17,0-.33c0-.42-.07-.83-.11-1.22-.06-.8-.11-1.53-.16-2.17,0-.35-.05-.67-.07-1l.15-.05a10.22,10.22,0,0,0,1.48-.72,8.36,8.36,0,0,1,.79-.4c.79-.33,1.56-.68,2.31-1a6.77,6.77,0,0,1,.83-.27,9.06,9.06,0,0,0,1.56-.57c.49-.24,1-.51,1.4-.78.27-.16.54-.32.81-.46a7.22,7.22,0,0,0,1.48-1.12c.21-.18.42-.37.54-.45l.86-.46c.47-.24.92-.49,1.35-.76s1-.65,1.45-1l.64-.45.6-.4c.51-.35,1-.69,1.48-1a5.6,5.6,0,0,1,.73-.41,7.77,7.77,0,0,0,1.47-.9,9.11,9.11,0,0,0,1.24-1.26c.13-.15.25-.29.37-.41-.12.43-.21.86-.32,1.33s-.15.66-.23,1l-.12.52,0,.13-.06.27,0,.27c0,.2-.06.34-.07.58l0,.73,0,.57a2.08,2.08,0,0,1,0,.46c0,.11,0,.23-.05.34l-.16.56-.36,1.18-.36,1.21V238l0,.08-.06.15-.11.31a3.41,3.41,0,0,1-.21.49l-.26.54c-.1.24-.21.42-.31.71s-.21.58-.28.81l-.18.66c-.24.88-.47,1.82-.74,2.71-.14.46-.29.93-.43,1.4l-.22.7-.11.36,0,.06h0l0,.05-.06.17c-.17.48-.35,1-.52,1.44l-.28.75-.14.38-.07.18-.05.18v.05l0,.09c0,.28-.12.46-.17.82l-.12.93a6.88,6.88,0,0,1-.22,1.11c-.21.51-.41,1-.61,1.52l-.33.8-.16.41,0,.1C238.63,255.9,238.55,256.17,238.56,256.16Zm-3.08,8.07h0Zm-3.85-1ZM247,222.41a5.06,5.06,0,0,1-.54.38,7.69,7.69,0,0,0-1.35,1l-.63.63c-.32.34-.66.68-1,1a9.86,9.86,0,0,0-1,1,5.89,5.89,0,0,1-.66.71,5.46,5.46,0,0,1-.69.39,8.55,8.55,0,0,0-1.37.81c-.42.31-.86.61-1.32.91l-.62.42-.69.48c-.41.29-.82.59-1.26.86s-.68.39-1,.58-.69.36-1,.56a7.61,7.61,0,0,0-1.29,1,4.05,4.05,0,0,1-.6.49c-.32.17-.64.36-1,.55s-.73.43-1.12.63a7.89,7.89,0,0,1-.83.28,9.86,9.86,0,0,0-1.43.5c-.71.32-1.43.64-2.18.95a2.44,2.44,0,0,0-.28.14c0-.14,0-.28,0-.43.06-.53.12-1.11.19-1.73s.08-1.29.11-2,0-1.41.07-2.13l.09-2.14,0-2.21v-.87l0-.26c0-.35-.05-.69-.08-1s0-.67-.08-1c0-.16,0-.32,0-.48l0-.22v-.12l0-.23c-.07-.62-.14-1.2-.21-1.73,0-.13,0-.27,0-.39l0-.19v-.06h0l1.1.37,1.19.38.15,0h0l.25.05h.07l.27,0a3.25,3.25,0,0,0,.66,0l.78,0,.46,0a1.28,1.28,0,0,1,.3,0h.14l.13,0,1,.26,2,.48,1,.2,1,.2a4,4,0,0,0,.52.09l.46.05.91.08.88.08.43,0h.58a7.47,7.47,0,0,0,1,0l.79-.09.53,0,.59.09.49.13.76.19.91.12H245l.3,0c.41,0,1.06-.12,1.31-.16a5.6,5.6,0,0,1,.71-.07A2.57,2.57,0,0,1,247,222.41Zm-13-29.34c-.2,12.82-6.48,19.39-11.8,21.12a2.32,2.32,0,0,0-.39.18l-.34-.2-.56-.27-.21-.08-.05,0-.11,0-.22-.06-.45-.11c-.31-.07-.48-.08-.74-.12l-.47-.06h-.17l-.3-.09-.24-.06h0l-.13-.06-.53-.25-1.11-.53-.62-.3a1.28,1.28,0,0,0-.25-.15l-1.06-.81a5.17,5.17,0,0,0-.61-.4l-.13-.09,0,0-.19-.1-.08,0-.32-.13-1.26-.53-.61-.26-.25-.11-.06,0-.13-.08-.21-.14.84-.52c.4-.27.8-.57,1.19-.88l.59-.45.6-.42c.4-.28.81-.57,1.19-.88a8.43,8.43,0,0,0,1-1c.18-.18.35-.38.54-.55l.62-.5a13.37,13.37,0,0,0,1.07-.91c.36-.35.7-.71,1-1.08l.48-.52a5.51,5.51,0,0,1,.57-.5,9.46,9.46,0,0,0,1.06-1c.31-.35.59-.73.87-1.1.16-.22.32-.44.49-.65a13,13,0,0,0,.82-1.13c.15-.22.3-.45.46-.66.44-.59.88-1.18,1.29-1.79.15-.22.31-.43.46-.64.28-.38.56-.76.81-1.16a8.88,8.88,0,0,0,.65-1.32,6,6,0,0,1,.32-.68l.31-.55c.27-.45.53-.91.76-1.37.12-.23.24-.46.37-.68.23-.43.46-.85.66-1.3l.18-.41c.24-.54.48-1.08.69-1.63l.21-.53c.13-.33.24-.65.36-1,.12.28.25.54.37.76a4.14,4.14,0,0,1,.33.69,3.68,3.68,0,0,1,.12.73,7.63,7.63,0,0,0,.31,1.64c.15.45.33.88.52,1.32s.26.59.37.89.17.61.25.92a13.42,13.42,0,0,0,.39,1.38,6.34,6.34,0,0,0,.49,1C234,192.87,234,193,234,193.07Zm16.26,23.42-.21-.26a7.25,7.25,0,0,1-.56-.75,6,6,0,0,1-.34-.77,11.07,11.07,0,0,0-.62-1.34c-.2-.34-.41-.68-.63-1s-.41-.63-.59-1-.37-.72-.55-1.09-.32-.65-.5-1-.28-.62-.41-.94-.33-.8-.52-1.18-.4-.73-.6-1.08-.37-.62-.53-.95a9.29,9.29,0,0,0-.72-1.23,6.26,6.26,0,0,1-.46-.78,5.74,5.74,0,0,1-.24-.78,9.82,9.82,0,0,0-.46-1.44,10.07,10.07,0,0,0-.72-1.29,7.12,7.12,0,0,1-.38-.66l.3.11h0l.07.06.33.24.28.17.14.07,0,0,.24.1h0l.13,0,.52.11.37.06H244l.32.06,1.47.26.17,0h1.51l.66,0h.33l.18,0h.07l.08,0,.16,0,.64-.15.71-.12.32-.06h.06l.25-.07h0l.07,0,.15-.06.59-.26a13.75,13.75,0,0,0,1.39-.67l.52-.34.13-.08.06,0,.14-.08,0,0,.25-.18,1.06-.73.23-.17.11-.08.2-.14.17-.14v0l-.16.55c-.2.73-.43,1.47-.6,2.15s-.36,1.4-.53,2.08-.34,1.36-.51,2-.43,1.18-.63,1.74l-.2.55-.14.45-.27.89c-.09.29-.18.58-.26.86l-.18,1c-.09.53-.18,1-.26,1.54s-.29,1-.42,1.49c-.07.24-.14.47-.2.7s-.16.41-.23.61c-.15.42-.3.81-.44,1.19C250.71,215.33,250.49,215.94,250.28,216.49Zm17.83-57.28a3.84,3.84,0,0,1,.22.39c.06.13.11.27.16.4a6.11,6.11,0,0,0,.36.87c.13.26.27.51.41.76s.18.29.26.44a5.32,5.32,0,0,0,.61.88,2.23,2.23,0,0,1,.19.24c.08.14.15.29.22.44s.27.52.41.77.14.26.21.4a7.23,7.23,0,0,0,.44.82l.25.4c.15.25.31.51.48.77s.35.48.54.71l.3.38c.17.25.36.48.55.71s.21.24.31.37l.29.39c.17.24.35.49.54.72s.39.46.6.68l.31.36a1.87,1.87,0,0,1,.2.29,5.58,5.58,0,0,0,.63.85c.31.34.64.67,1,1a4.68,4.68,0,0,0,.93.7l.21.14a2.52,2.52,0,0,1,.27.3,6.56,6.56,0,0,0,.7.72,2.47,2.47,0,0,1,.28.28,7.38,7.38,0,0,0,.74.71,9,9,0,0,0,.82.55c.13.07.25.15.37.23.4.28.79.55,1.19.8l.35.25a9.53,9.53,0,0,0,.84.57c.32.17.65.33,1,.48l.33.15a7.93,7.93,0,0,0,1,.37l.4.14c.45.18.91.35,1.37.5a3.27,3.27,0,0,1,.33.14,6.17,6.17,0,0,0,1.05.39c.39.09.79.16,1.19.22l.26,0a4.24,4.24,0,0,0,1.3,0l.19,0,.31.06a5.31,5.31,0,0,0,1.15.17l.38,0a6.58,6.58,0,0,0,.83.06h.17l-.31.38c-.13.17-.32.4-.41.54l-.29.44,0,0,0,0s-.18.3-.1.18l-.06.12-.12.25-.24.5c-.3.61-.59,1.23-.89,1.84s-.71,1.25-1.07,1.88l-.27.47-.26.48-.53,1-.52,1-.13.24,0,.09,0,0a2.35,2.35,0,0,0-.19.25c-.05.08-.19.22-.28.33l-.38.41-.48.54-.34.44-.08.11-.11.14,0,.06-.15.24-.29.46-.59.94-1.15,1.9-.59.95-.29.47,0,.07,0,0-.16.18-.65.71-.74.79-.15.16-.13-.06a7.43,7.43,0,0,0-.77-.33,4.48,4.48,0,0,0-.91-.23l-.31-.07c-.37-.15-.75-.33-1.12-.5a4.91,4.91,0,0,1-.44-.25c-.2-.13-.41-.26-.62-.37a2.49,2.49,0,0,1-.38-.25,7.14,7.14,0,0,0-.64-.43,5.67,5.67,0,0,0-.85-.4,1.57,1.57,0,0,1-.26-.1l-.21-.14-.79-.55-.14-.11c-.27-.21-.55-.42-.78-.61-.06-.07-.1-.14-.15-.21a5.43,5.43,0,0,0-.65-.78,4.68,4.68,0,0,0-.84-.63c-.07,0-.14-.08-.15-.07a1.5,1.5,0,0,1-.15-.25,6.8,6.8,0,0,0-.53-.79c-.19-.22-.36-.46-.54-.7l-.19-.27a5.37,5.37,0,0,0-.67-.72l-.16-.13a2.34,2.34,0,0,1-.09-.24,5.15,5.15,0,0,0-.42-.95,5.46,5.46,0,0,0-.62-.8l-.16-.18a3,3,0,0,1-.11-.32,6.19,6.19,0,0,0-.32-.85c-.09-.19-.17-.39-.25-.59s-.15-.38-.23-.57c-.16-.37-.32-.75-.48-1.15l-.17-.43c-.1-.24-.2-.49-.29-.74a4.38,4.38,0,0,0-.45-.92c0-.08-.1-.16-.12-.22-.08-.23-.14-.47-.2-.71l-.14-.51c-.07-.24-.12-.48-.18-.72l-.12-.52c-.05-.21-.12-.42-.18-.63s-.12-.4-.16-.6a5,5,0,0,1-.09-.56c0-.23-.07-.47-.11-.7s-.08-.44-.11-.66-.06-.41-.1-.61a2.17,2.17,0,0,1,0-.36,5.81,5.81,0,0,0-.06-.93,5.4,5.4,0,0,0-.28-1,1.6,1.6,0,0,1-.08-.23c-.06-.42-.11-.85-.16-1.28s-.08-.8-.12-1.3c0-.13,0-.27,0-.41a5.17,5.17,0,0,0,0-.88,3.85,3.85,0,0,1,0-.48,7.48,7.48,0,0,0,0-.82,1.33,1.33,0,0,0-.08-.45l.24-1.27.47-2.81.15-1.4.08-.71,0-.33v-.53l0-1.33a7.43,7.43,0,0,1,.15-1.35l.21-1.4.07-1.51v-.18a1,1,0,0,1,0,.1l.12.29c.13.32.26.65.4,1,.07.15.12.3.18.46s.2.54.32.8A7.89,7.89,0,0,0,268.11,159.21Zm-38.8-6a5.61,5.61,0,0,0,1.3.45l.42.12c.38.17.76.31,1.15.44l.52.19c.17.06.33.15.5.23a8.33,8.33,0,0,0,1.14.48l.52.2a8.34,8.34,0,0,0,1.17.41c.4.1.81.16,1.21.22l.56.1a7.17,7.17,0,0,0,1.33.07,2.46,2.46,0,0,1,.47,0l.56.08c.4.07.8.13,1.2.16l.43.09a5.38,5.38,0,0,0,1.34.21h.11c.37,0,.74,0,1.11,0l.58,0a7.8,7.8,0,0,0,1.22-.17,3.7,3.7,0,0,1,.55-.09,9.74,9.74,0,0,0,1.18-.21l.57-.11.57-.07c.39-.05.79-.1,1.19-.18s.91-.23,1.36-.35l.35-.1a5.12,5.12,0,0,1,.54-.1,7.37,7.37,0,0,0,1.21-.28,7.48,7.48,0,0,0,1.12-.49,3.8,3.8,0,0,1,.5-.24c.52-.2,1-.43,1.51-.66l.12-.05a4.81,4.81,0,0,1,.53-.2,8.77,8.77,0,0,0,1.12-.47,4.4,4.4,0,0,1,.5-.21,8,8,0,0,0,1.13-.53c.51-.31,1-.63,1.52-1a5.35,5.35,0,0,0,1-.91,4.19,4.19,0,0,1,.32-.31l0,0v.09l0,.17-.18,1.38-.09.7c0,.13,0,.19-.07.34l-.18.64a7,7,0,0,0-.22.88l-.07.34c0-.13,0,.23,0,.22v.33l0,.76,0,1.31-.21,1.4a9.1,9.1,0,0,0-.15,1.45l0,1.5v.55l-.07.7-.13,1.41-.41,2.77-.24,1.38-.12.68,0,.25a5.68,5.68,0,0,1-.39.67,4.76,4.76,0,0,1-.41.44c-.21.21-.42.42-.61.64-.31.37-.65.76-1,1.11s-.71.7-1.08,1-.79.61-1.19.9a8.3,8.3,0,0,0-.73.6,4.17,4.17,0,0,1-.43.35,2.91,2.91,0,0,1-.42.16,4.88,4.88,0,0,0-1,.38c-.26.13-.51.28-.76.43a3.52,3.52,0,0,1-.55.3l-.55.23a8.86,8.86,0,0,1-.85.34,2.47,2.47,0,0,1-.47.06,8.12,8.12,0,0,0-1,.15l-.7.19a6.87,6.87,0,0,1-.75.19c-.23,0-.45.08-.67.12s-.54.11-.82.14-.41,0-.67,0-.57,0-.84,0l-.75,0a4.7,4.7,0,0,1-.75,0c-.5,0-1-.08-1.49-.15-.21,0-.42-.06-.63-.09a6,6,0,0,1-.85-.13,3,3,0,0,1-.46-.2,8,8,0,0,0-.91-.39l-.79-.22a4.47,4.47,0,0,1-.62-.18c-.4-.18-.82-.4-1.29-.67a2.74,2.74,0,0,1-.49-.39c-.21-.17-.41-.35-.63-.51l-.56-.38a7,7,0,0,1-.6-.43c-.24-.23-.49-.54-.76-.86l-.16-.2a7.11,7.11,0,0,0-.6-.63h0c-.13-.43-.28-.83-.42-1.18a7.64,7.64,0,0,1-.32-.89l-.3-1.13c-.12-.41-.23-.81-.32-1.21s-.17-.77-.25-1.15-.16-.81-.25-1.22-.15-.73-.21-1.09-.14-.86-.24-1.28-.2-.82-.31-1.23-.2-.74-.29-1.11a12.17,12.17,0,0,0-.42-1.42,6.41,6.41,0,0,1-.28-.9c-.09-.42-.17-.84-.25-1.26s-.14-.75-.22-1.12a8.12,8.12,0,0,1-.1-1,14.3,14.3,0,0,0-.18-1.45l-.19-.95v-.08C228.38,152.68,228.84,153,229.31,153.19Zm-36,43.17c.31,0,.62,0,.91,0a17.4,17.4,0,0,0,2.37-.3,20.26,20.26,0,0,0,2.3-.6,20,20,0,0,0,2.19-.87l.56-.24a12.7,12.7,0,0,0,1.57-.73,7.87,7.87,0,0,0,1.3-1c.18-.16.35-.31.54-.45s.38-.26.58-.38a12.85,12.85,0,0,0,1.3-.93A7.83,7.83,0,0,0,208,189.7a6.09,6.09,0,0,1,.46-.55l.37-.35c.41-.4.82-.8,1.21-1.24s.67-.8,1-1.22l.4-.51a6.42,6.42,0,0,1,.51-.54,8.57,8.57,0,0,0,1-1.11c.43-.59.85-1.2,1.26-1.82a10,10,0,0,0,.67-1.28,4.79,4.79,0,0,1,.34-.68,3,3,0,0,1,.38-.44,5.9,5.9,0,0,0,1-1.28,6.56,6.56,0,0,0,.56-1.45,5.2,5.2,0,0,1,.22-.62,7.34,7.34,0,0,1,.42-.71,12.41,12.41,0,0,0,.67-1.18c.13-.26.26-.51.4-.76s.43-.78.61-1.18c.11-.25.23-.51.35-.76.2-.4.39-.81.56-1.22s.32-.82.47-1.24.19-.53.29-.8c.17-.43.32-.86.47-1.29.09-.25.17-.5.27-.75.16-.45.31-.9.46-1.35l.24-.71a9.78,9.78,0,0,0,.34-1.31c.06-.27.12-.53.2-.79s.2-.54.31-.8.33-.82.45-1.23.19-.57.29-.85.23-.68.34-1l.09.48a11.11,11.11,0,0,0,.43,1.46,6.41,6.41,0,0,1,.28.9c.1.44.22.89.34,1.33s.19.69.27,1,.14.69.19,1,.16.92.27,1.38.15.7.21,1,.18.9.29,1.35.23.9.36,1.34.19.69.27,1a11.79,11.79,0,0,0,.5,1.46,8.87,8.87,0,0,1,.32.87c.07.28.13.56.19.84s0,.39,0,.58a9.22,9.22,0,0,1,0,1,6.46,6.46,0,0,1-.19.85,9.77,9.77,0,0,0-.25,1.07l-.09.52a14.19,14.19,0,0,1-.27,1.42c-.07.31-.14.63-.2.95a7.51,7.51,0,0,1-.22,1c-.14.44-.31.88-.48,1.31l-.22.57c-.19.48-.4,1-.61,1.42l-.19.43c-.15.34-.33.67-.51,1s-.29.52-.43.79-.42.79-.65,1.17l-.34.6a11.32,11.32,0,0,0-.51,1.08,5.48,5.48,0,0,1-.36.76c-.2.31-.42.61-.64.91s-.37.5-.54.75c-.38.56-.79,1.11-1.2,1.66-.2.26-.38.54-.57.81s-.39.59-.6.85-.4.52-.6.78a9,9,0,0,1-.66.84,5.17,5.17,0,0,1-.62.56,9.3,9.3,0,0,0-.9.82l-.53.57c-.29.31-.57.62-.88.91a9.78,9.78,0,0,1-.77.65c-.27.21-.54.42-.8.65s-.56.55-.83.84a5.82,5.82,0,0,1-.6.61c-.32.25-.65.48-1,.71l-.68.48-.67.51c-.31.24-.62.49-.95.7-.56.37-1.13.73-1.71,1.07a5.5,5.5,0,0,1-.83.37l-.31.14-.14-.08h0l-2.2-1.41-2.15-1.71-.89-.79-1-.92-2.22-1.77-2.24-1.66,0,0,0,0-.24-.25-.48-.49-1-1a5.19,5.19,0,0,1-.37-.45Zm-7.54,45.88.54-1.26q.14-.33.3-.69l.15-.36,0-.09,0-.1v-.05l.06-.22c.16-.58.35-1.28.47-1.83.07-.29.15-.59.22-.89s.15-.57.23-.87c.17-.62.34-1.27.52-1.93s.42-1.34.64-2l.15-.53.08-.26,0-.13,0-.07.05-.21.21-1.09c.08-.37.15-.74.23-1.12l.11-.56,0-.14,0-.19,0-.31c.05-.42.11-.83.16-1.25l.12-1.17c.1-.74.24-1.55.36-2.33l.19-1.25.16-1.19.14-1.19c.07-.51.07-.83.11-1.25l.09-1.19,0-.59,0-.3a1.92,1.92,0,0,0,0-.35c0-.43,0-.86,0-1.29s-.05-.78-.07-1.17v-.51l0-.57c0-.39,0-.76,0-1.14l0-1.12,0-1.09,0-1.06v-1.14c0-.69-.1-1.36-.14-2,0-.32-.06-.63-.06-1s0-.58,0-.87c0-.59,0-1.15,0-1.69v-.06l.36.37.48.49.24.24.07.06,0,0c.09.08-.17-.14.21.19l.14.1,2.21,1.61,1.09.85,1,.79,1,.92,1.2,1,2.18,1.68,2.39,1.49.23.14.07,0,.15.08.3.16.12.05a13.68,13.68,0,0,0,0,1.47c0,.65.06,1.38.1,2.17s0,1.68,0,2.59v.62c0-.2,0-.05,0-.09h0v.07c0,.24,0,.48-.07.72,0,.5-.08,1-.13,1.53l0,.4,0,.2v.26c0,.26,0,.52,0,.78,0,.5,0,1,0,1.51v.27l0,.4-.09.81-.2,1.67c0,1,0,2.22-.1,3.16,0,.54-.07,1.07-.1,1.59l-.06.78V232h0v.13l0,.38c-.05.51-.11,1-.16,1.49,0,.25-.05.49-.07.73v0h0v0l0,.17-.07.35c-.08.46-.17.9-.25,1.33l-.12.64,0,.16v0h0l-.07.3c-.2.79-.37,1.51-.53,2.15l-.06.24h0v0c0,.15-.09.29-.13.43s-.16.53-.22.75c-.16.55-.28.93-.35,1.17l-.63.11a9.92,9.92,0,0,1-1,.18,10.69,10.69,0,0,0-1.46.26,5.53,5.53,0,0,1-.92.17,3.33,3.33,0,0,1-.63-.11,6.66,6.66,0,0,0-1.79-.21,13,13,0,0,0-1.42.18,8.08,8.08,0,0,1-1,.12l-.65,0c-1.1,0-2.24,0-3.13.12a7.65,7.65,0,0,1-1,.07,4.07,4.07,0,0,1-.67-.17,6.67,6.67,0,0,0-1.68-.36h-.19Zm17.76-7.46h0S203.5,234.81,203.5,234.78Zm-.53,2.75v0C203,237.61,203,237.57,203,237.53Zm-.62,2.54v0C202.37,240,202.35,240.06,202.35,240.07Zm0,.16h0ZM185,288.62h0S185,288.59,185,288.62Zm2.13-9Zm1.25,6.64h0v-.09a.11.11,0,0,1,0,.08Zm.41,17.07h0Zm5.76,5.05Zm0,0h0Zm19.6,8.41v.05l-.12.2-.24.4c-.34.56-.68,1.12-1,1.68l-.26.44-.13.32V320l0,.11-.07.22-.06.22,0,.11,0,.17-.12.71-.13.9a.46.46,0,0,1-.05.2.5.5,0,0,0,0,.12l-.85,1.4-.68,1.12-.26.09-.66.3-.17.08h-.08l-.16,0s-.09,0,0,0l-.22,0-.47.08-.57,0-.54,0h-.41l-.07,0h0l-.55-.22c-.22-.09-.27-.15-.42-.22l-.11-.06h0l-.14-.1a9.29,9.29,0,0,1-1-.84c.28.25.07.06.13.11h0l0,0-.06-.07-.13-.13-.26-.25-.49-.53-.11-.12h0l-.07-.07-.28-.27-.55-.55-.58-.58-.47-.5-.18-.18-.25-.34c-.17-.23-.33-.46-.51-.69-.32-.44-.65-.88-1-1.33l-.07-.09,0,0-.17-.42-.41-1,0-.13-.07-.12,0,0,0-.05-.12-.2-.26-.39-.2-.32L198,316l-.05-.08h0c-.12-.29-.25-.58-.37-.88l-.2-.47-.19-.43-.42-.9-.09-.21,0-.06-.15-.48c-.12-.35-.24-.7-.35-1.06l-.4-.92-.2-.47,0-.12-.13-.26,0-.05-.12-.23A3.87,3.87,0,0,0,195,309l-.3-.4-.09-.11s0-.07,0-.08a.12.12,0,0,1,0,.07c0,.18,0-.27,0-.48a2.86,2.86,0,0,0,0-.57l-.06-.33,0-.17,0-.08c0-.12.07.14-.1-.28l-.12-.24-.06-.12-.12-.19-.26-.41-.12-.19a1.08,1.08,0,0,0-.08-.11s0,0,0,0,0,0,0,0l0-.13-.08-.26-.3-1v0l-.05-.27c0-.13,0,0,0-.15a4.45,4.45,0,0,0-.07-.86l-.06-.28,0-.14,0-.07c.07.17-.11-.32-.09-.27l-.12-.25,0-.13-.13-.22-.26-.44-.11-.17,0,0-.08-.53-.1-.66,0-.34V299l0-.17v0l0-.13-.36-.95-.09-.21,0,0v0l0-.08-.11-.54-.12-.57-.1-.47-.21-1.13c-.07-.43-.16-.75-.25-1.12l-.13-.54-.07-.27,0-.13c-.15-.49-.05-.15-.08-.27l0,0,0-.07-.1-.26c-.07-.14-.16-.32-.25-.47l-.27-.47h0v0h0c0,.08,0-.09,0-.09l0-.07-.15-.53-.15-.49-.06-.23,0-.09v-.23h0a.32.32,0,0,0,0-.07l0-.38a4.38,4.38,0,0,0,0-.52l0-.3,0-.16v-.07s-.16-.59-.09-.34l-.1-.26-.06-.14-.13-.25-.28-.5-.1-.15,0,0,0-.27-.08-.56-.07-.49h0v-.41l-.07-1.27V283c0,.18,0,0,0,.06V283l0-.27-.07-.55-.07-.59,0-.14v0c.06.25-.09-.39-.08-.33l0-.07-.09-.25a7.25,7.25,0,0,0-.47-.91l-.08-.13,0-.47,0-.6,0-.31v-.16l-.05-.21-.21-1,0-.22,0-.12h0v-.42l0-1.2c0-.38-.06-.69-.09-1l-.05-.51v-.22l0-.13-.05-.25-.21-.92a6.5,6.5,0,0,1-.14-.91c0-.33-.09-.65-.13-1V270l0-.19v0l0-.12-.06-.23-.12-.46-.1-.37-.05-.18v-.19c0-.05,0,0,0,0s0,0,0,0l.07-.31c0-.12.05-.18.07-.34s0-.35,0-.52v-.32s0-.15,0-.14v-.06l0-.23-.15-.86-.1-.59-.1-.46c-.07-.23-.19-.54-.25-.7a2,2,0,0,1-.09-.25h0v-.05c0-.07,0-.16,0-.14s0,0,0,0l0-.12c0-.2.08-.32.12-.6l0-.44c0-.13,0-.33,0-.36l0-.42c0-.27-.07-.55-.1-.82l0-.2v-.1h0v-.35c0-.28,0-.56,0-.84v-.52c0-.38,0-.12,0-.21l0-.09,0-.19a8,8,0,0,0-.28-1c0-.08-.07-.18-.05-.16v0c0-.49.07-1,.11-1.42v-.25c0-.38,0-.11,0-.2v0l0-.08-.06-.32-.12-.57-.05-.24,0-.12,0,0v0c0-.16,0-.33,0-.33a1.2,1.2,0,0,1,0-.14l.07-.35a2.22,2.22,0,0,0,.06-.44l0-.25v-.36h0l0-.26,0-.14,0-.2c-.05-.21-.11-.41-.16-.6l0-.17a.07.07,0,0,0,0-.05v0h0V250l0-.22c0-.27,0-.53-.07-.77l0-.33v-.14l0-.22s0,0,0,0l.12-.36c0-.08.05-.16.07-.22s0-.22.06-.31v0l.81,0a4.83,4.83,0,0,1,.64.17,6.86,6.86,0,0,0,1.85.37h.2c.49,0,.95-.05,1.36-.09.93-.09,1.87-.08,2.82-.1l.64,0a11.56,11.56,0,0,0,1.56-.18,7.4,7.4,0,0,1,.93-.12,3.72,3.72,0,0,1,.6.11,6.47,6.47,0,0,0,1.92.2,9.78,9.78,0,0,0,1.58-.27,6.07,6.07,0,0,1,.9-.17c.43,0,.82-.12,1.2-.19,0,.09,0,.18,0,.27a8.06,8.06,0,0,0,0,1.19c0,.09,0,.31,0,.49a6.42,6.42,0,0,0,0,1.35,8.28,8.28,0,0,0,.22,1.16c.05.22.1.42.13.64a8.06,8.06,0,0,0,.26,1.22,2.83,2.83,0,0,1,.14.56l.07.61.15,1.2.09.77c0,.35.08.69.13,1a3.15,3.15,0,0,1,0,.52,6,6,0,0,0,0,1.32c0,.26.07.52.1.78s.08.69.14,1a8.3,8.3,0,0,0,.24,1.1,5.52,5.52,0,0,1,.15.68,7.21,7.21,0,0,0,.35,1.24c.07.2.14.4.17.52,0,.35.12.69.19,1s.11.51.16.76a4.09,4.09,0,0,1,0,.5,5.9,5.9,0,0,0,.08,1.34c.05.26.09.52.13.77s.11.69.18,1a5.47,5.47,0,0,0,.49,1.33c.06.13.15.32.16.36a2.36,2.36,0,0,1,0,.37,5.08,5.08,0,0,0,.05,1.53,7.34,7.34,0,0,0,.42,1.21,5.16,5.16,0,0,1,.19.52,4.55,4.55,0,0,1,.09.63,8.55,8.55,0,0,0,.19,1.19,5.27,5.27,0,0,0,.59,1.36,3.15,3.15,0,0,1,.18.33,3,3,0,0,1,.06.52,6.52,6.52,0,0,0,.2,1.32c.1.37.22.73.33,1.08s.15.45.21.68a4.56,4.56,0,0,1,.14.64,7.61,7.61,0,0,0,.27,1.16,5.12,5.12,0,0,0,.73,1.36,2.59,2.59,0,0,1,.2.28l.21.62c.13.38.25.76.39,1.13.08.21.14.44.2.66a10.32,10.32,0,0,0,.37,1.11c.09.22.15.43.22.65a11.73,11.73,0,0,0,.4,1.11,6.89,6.89,0,0,0,.72,1.19,2.87,2.87,0,0,1,.28.43,3.22,3.22,0,0,1,.18.51,6.07,6.07,0,0,0,.5,1.28,5.43,5.43,0,0,0,1,1.21,2.38,2.38,0,0,1,.27.29,2.31,2.31,0,0,1,.19.43,5.28,5.28,0,0,0,.72,1.35,6.11,6.11,0,0,0,1.16,1.1c.12.1.25.19.35.29a3,3,0,0,1,.33.4,5.14,5.14,0,0,0,1.19,1.19,8.23,8.23,0,0,0,2.16,1.08,4.47,4.47,0,0,0,1.4.2l-.12.39-.06.2-.25.41c-.09.17-.13.16-.19.24l-.17.19-.36.44a4.58,4.58,0,0,0-.37.51q-.21.33-.39.66l-.1.17c0,.09,0,0,0,0l0,.05-.1.21-.89,1.73-.22.45-.12.22-.05.11,0,.06-.11.28-.14.45-.07.23c0,.09-.05.22-.07.33-.09.45-.17,1-.2,1.16l-.06.37a1.34,1.34,0,0,0-.07.18v.07l-.22.35a.83.83,0,0,1-.2.23,1.29,1.29,0,0,0-.16.17l-.36.41a4.25,4.25,0,0,0-.38.47c-.15.21-.29.43-.42.65l-.1.17-.05.08a1.07,1.07,0,0,0-.1.21l-.08.22-.62,1.72Zm2,41.55v0C216.2,358.43,216.21,358.46,216.17,358.38Zm1.65,3.68s0,0,0,0Zm.65-8.66,0,0h0Zm1.67,4.74,0,0h0Zm13.05,12.41h0c-.15,0,0,0,0,0h0Zm1.13,0h0Zm9.51.35h0Zm11.38-26.94L254.7,345l-.08.16,0,.08,0,0h0a.65.65,0,0,1,0,.1v0c0,.09-.05.19-.08.3s-.1.39-.16.61l0,.15,0,.06,0,.1-.12.4c-.09.32-.19.65-.29,1s-.14.56-.22.86a2.12,2.12,0,0,1-.16.46l-.21.54-.09.22,0,.05-.07.13-.29.59-.59,1.14-.18.35,0,.08s0,0,0,.06l-.07.16-.27.66-.17.43-.13.34-.23.6,0,.11-.08.17-.17.35-.37.78c-.1.23-.21.46-.31.7l-.1.24,0,0-.12.17-.57.8,0,.06,0,0-.06.11-.05.09-.09.2-.18.36-.15.3a2.06,2.06,0,0,1-.22.32l-.52.73-.47.7-.21.3h0l-.07.09-.15.18a18.23,18.23,0,0,0-1.22,1.5l-.14.2-.14.19,0,.05-.06.1a6,6,0,0,0-.36.68h0l-.33.18a4.83,4.83,0,0,0-.58.43L244,365s-.27.31-.16.19l0,0-.08.1a3.15,3.15,0,0,0-.19.27l-.32.5-.37.31-.38.33-.19.12c-.07,0,.18-.11-.15,0-.11.06-.17.07-.38.19l-.25.15-.13.09-.06,0-.19.16-.19.17-.31.33-.19.22-.46.22-.56.24s-.16.1-.1.07h0l-.06,0-.11.07-.22.15-.32.2-.07,0,0,0h0l-.19.07-.5.18-.25.09h0c-.35.1-.7.19-1,.25l-.94.2-.26.05-.23.05-.13,0a6.78,6.78,0,0,0-.79.27l-.05,0h-.18l-.55,0h-.09l-.14-.06-.16-.07-.22-.09-.3-.09-.16,0-.07,0c-.13,0,.19,0-.32-.05h-.27a4.79,4.79,0,0,0-.52,0h-.22c-.17-.07-.35-.14-.48-.21a13.2,13.2,0,0,1-1.52-1,4.73,4.73,0,0,1-.43-.31l-.2-.15-.27-.16h0l-.07,0-.12-.06-.06,0-.15-.06-.29-.1L227,368c-.18-.19-.37-.37-.57-.59s-.52-.48-.77-.71c-.12.06-.88-1.21-1.18-1.57l-.32-.45-.19-.25-.18-.21c-.27-.32-.4-.46-.56-.67l-.6-.93,0-.06-.08-.11,0,0-.09-.11-.16-.22-.26-.33-.09-.1v0c-.06-.13,0,0,0,0v0l0-.17c0-.16,0-.21-.1-.45a4.44,4.44,0,0,0-.24-.64l-.26-.46-.27-.47-.22-.38-.14-.23c-.09-.13-.2-.28-.31-.41l-.16-.2h0v-.05a.05.05,0,0,1,0,.05v-.08l0-.19,0-.19-.07-.3a3.46,3.46,0,0,0-.26-.75l-.21-.49-.11-.24,0-.11-.14-.48-.15-.58,0-.15v0a1.4,1.4,0,0,0-.08-.22l0-.06-.12-.25-.26-.43-.12-.19h0l-.18-1,0-.15,0-.08v0l-.07-.21-.11-.24-.19-.42-.13-.25v0l0-.25-.06-.6,0-.33v-.08c0-.11.06.18-.08-.26v0l0-.12-.2-.45-.14-.28c-.14-.32-.22-.65-.31-.92l-.1-.32v-.14l0,0v0l0-.33a2.47,2.47,0,0,0,0-.5l0-.3,0-.15a1.81,1.81,0,0,0,0-.2v0l-.27-.81a4.18,4.18,0,0,1-.21-.79l-.09-.45,0-.22,0-.2,0-.05,0-.11-.24-.74,0-.09v-.1s0,0,0,0a.09.09,0,0,1,0,.07l.05-.26a1.88,1.88,0,0,0,.06-.37,3.6,3.6,0,0,0,0-.57V341c0,.14-.05-.26,0-.23v0l0-.11c-.08-.24-.15-.47-.22-.71-.17-.58-.27-1.1-.37-1.47l0-.16v-.07l0-.1,0-.19-.09-.36-.07-.29,0-.05v-.15h0a0,0,0,0,1,0,0l.09-.44a5.57,5.57,0,0,0,0-.82l-.05-.36c0-.24-.07-.47-.11-.7l0-.15h0v-.34l0-.79v-.22a.84.84,0,0,0,0-.12v-.12l0-.31-.09-.55-.08-.45a1.89,1.89,0,0,0-.07-.32c-.05-.18-.11-.35-.17-.52l-.07-.18c0-.08,0,0,0,0s0,0,0,0v-.13c0-.36,0-.7,0-1q0-.91.06-1.62c0-.23,0-.43,0-.63a2.46,2.46,0,0,0,.08-.46l.34-.56.46-.76.24-.39.11-.19.06-.1,0-.05c.16-.29.07-.13.11-.22.09-.24.18-.49.25-.75a3.35,3.35,0,0,0,.17-.68l.12-.91a1.48,1.48,0,0,0,0-.21V322l0-.11.07-.22.06-.22v0l.18-.29.9-1.49.24-.4.12-.2.06-.1.1-.2,0-.06.36-1,.66-1.81,0-.11,0,0,0,0a.64.64,0,0,0,.08-.14,2.78,2.78,0,0,1,.22-.26l.26-.3.46-.55a4.67,4.67,0,0,0,.39-.51l.25-.4.06-.1.16-.29,0-.09.13-.36c.08-.24.15-.49.22-.73l.09-.56a6.32,6.32,0,0,0,.11-.72.35.35,0,0,1,0-.14l.07-.23.11-.36,0-.08.11-.2.2-.41.86-1.67.1-.22,0-.05s.08-.17.06-.11l0,0,.1-.17a2.16,2.16,0,0,1,.19-.26l.25-.3.44-.56.12-.16.06.15.12.32c.11.23.15.28.23.43s.28.51.4.71l.2.32.15.31c.12.24.24.47.37.7l.1.17.05.09,0,.05v0h0l.11.16.23.33c.15.23.31.45.47.68l.12.17,0,.05.09.1.09.1.35.39c.25.28.42.43.64.65l.54.66.3.33.15.17.13.12h0l0,0,0,0,.12.09.46.35.4.28c.58.4,1,.69,1.59,1l1,.56.41.22.06,0,0,0h0l.21.09.11.05.22.08.89.34.11,0,0,0,.28.08.23.06.46.13.46.12.22.07h0l.25.05h.21l.94.09.24,0h.06l.31,0H239l.47,0,.47,0h.42l.28,0h0l.92-.14.45-.08h.06l.29-.06h0l.11,0,.22-.07.88-.24.11,0,.05,0h0l.27-.09.21-.09.4-.19.41-.18.2-.09.1,0,.27-.14.05,0,.74-.44.37-.22.09-.06.29-.19.17-.12.67-.48.16-.12.08-.06,0,0h0l.19-.16.3-.26.58-.52.14-.13.07-.06.18-.18,0,0,.24-.28.49-.54.11-.14.06-.06,0,0,.12-.15,0,0,0,0,.12.8.33,2c.22,1.34.36,2.76.54,4.13l.12,1,.07,1,.15,2.11c.1,1.45.24,2.81.36,4.18s.3,2.76.49,4.1l.14,1,.07.51,0,.25,0,.26,0,.12c.14.67.28,1.33.41,2s.27,1.25.4,1.88.16,1.32.24,2l.21,2,0,.49v.19l0,.16,0,.24.19,1,.27,1.34Zm33.48-29.25s-.07.18-.21.5l-.25.61c0,.1-.12.28-.14.35s-.1.28-.15.44-.22.63-.35,1l-.45,1.21-.51,1.33c-.2.46-.41.95-.62,1.46s-.5,1-.76,1.49l-.84,1.64c-.29.57-.58,1.15-.89,1.74s-.68,1.23-1,1.73l-.54.92a2,2,0,0,0-.1.19l-.16.22-.32.44-.32.44-.08.11h0l0,.06-.16.23-.57.87a37.07,37.07,0,0,1-2.8,3.35c-.38.41-1,1.11-1.49,1.66l-.29.34-.07.08,0,0-.17.13-.95.7,0,0h0l-.06,0-.05.05-.1.09-.2.19-.36.34c-.1.08-.23.22-.29.26l-.45.32-.45.31-.19.14-.11.06c-.31.18-.63.35-.94.51-.1.06-.11.05-.29.16l-.22.14-.42.28-.33.2-.08.05h-.05l-.23.09-1.72.67-.45.17-.11,0h0l-.17,0-.91.2-.19,0H266l-.44,0-.8.08h-1.41c-.54,0-1-.07-1.09,0l-1.24-.35-.05,0-.23-.12a2.9,2.9,0,0,1-.44-.24l-.35-.22c-.18-.11-.27-.14-.4-.21l-.28-.14-.09-.45-.05-.24v0l0-.12,0-.49-.21-2c-.08-.66-.12-1.33-.24-2s-.29-1.38-.43-2.07l-.42-2,0-.12,0-.25-.07-.5-.14-1c-.19-1.37-.4-2.69-.49-4.07s-.27-2.76-.35-4.08l-.15-2-.07-1-.13-1.08c-.19-1.39-.32-2.75-.55-4.17l-.35-2.14-.16-1-.08-.49h0v-.39c-.07-1-.14-2.1-.2-3.13.71.25,1.26.36,2,.63l.58.17.15,0,.08,0h0l.15,0h.07l.4,0c.61.06.9.06,1.46.08l.69,0h.85l1.46,0,1.63-.21.89-.17.76-.15h.05l.18-.05.09,0,.19-.06.37-.12.75-.23c.81-.29.94-.3,1.76-.61l1.54-.77.68-.38.34-.2.17-.09.08-.05.18-.11,0,0,.63-.45.31-.22.16-.11.28-.21.59-.47.29-.23.15-.12.27-.23,1.08-1,1.07-1.14.06-.06,0,0,.14-.17.1-.14.2-.26.39-.52.19-.26,0,0,.11-.17v0l0-.06.08-.14.3-.52.29-.5,0-.07.11-.19,0,0,.06-.13.11-.24c.06-.13.11-.23.16-.35l.18.29,1,1.58.1.15v0l.17.48c0,.12,0,.17,0,.26s0,.11.07.36l.11.6a7.12,7.12,0,0,0,.24.76l.16.4,0,.1s-.05-.09,0,0l.05.11.21.46.85,1.9.11.24,0,.06.16.27.07.11.29.41c.22.3.73.83.93,1a3.36,3.36,0,0,1,.41.47l0,.06h0l.12.36c.1.32,0,.28.09.56l.11.6c0,.1,0,.18.07.31l.13.41.15.41.08.2,0,.1.12.21.27.42.54.84.5.75.12.18.06.1,0,0,.14.36.79,1.94.22.51a1.59,1.59,0,0,0,.11.2Zm6.49,16.49Zm4.63,2.53-.2,0-.36.09-.31.08-.15,0h-.11l-.41-.09a.4.4,0,0,1-.19-.07l-.11-.05-.06,0-.09-.06-.05,0h.06s0,0,0,0l-.09-.11-.22-.25-.32-.34c-.19-.18-.31-.26-.46-.4a1.67,1.67,0,0,1-.3-.29l-.12-.11,0,0h0c.13.14-.18-.21-.16-.19l-.1-.09a1.88,1.88,0,0,0-.24-.22l-.38-.3-.18-.12,0,0-.23-.48c-.12-.29-.27-.68-.37-.87l-.42-.94-.06-.11,0-.06h0l0-.17-.15-.47-.15-.46,0-.14,0-.07c0-.06,0-.19,0-.19l0,0v-.46a3.43,3.43,0,0,0,0-.41l0-.22,0-.11v-.05c0,.12-.06-.22,0-.2-.07-.16-.08-.23-.19-.46-.23-.5-.34-.67-.34-.71l0,0,0-.17-.1-.4c-.07-.26-.13-.52-.2-.77V323h0l.06-.35a3.53,3.53,0,0,0,.05-.66v-.32l.33.72c.32.56.63,1.12.95,1.67l.23.42.12.21.06.1.17.29.27.39.14.19.21.26.75.85a2.26,2.26,0,0,1,.23.26.66.66,0,0,0,.12.17l0,0,0,.09.17.44c0,.08,0,.16,0,.23l.09.34a6.51,6.51,0,0,0,.37,1.2l.14.35.08.17,0,.08s.21.35.13.22l.26.38.14.2.19.24.42.5.29.33c.07.09.19.21.23.28l.9,1.34,0,.06Zm11.34-25.85h0S311.16,307.88,311.15,307.84ZM314,313s0,0,0,0Zm1.77-52.74s0,0,0,0v.05S315.77,260.3,315.77,260.28Zm.05.17s0,0,0,0S315.83,260.48,315.82,260.45Zm-.14-8.64c0,.33.06.66.08,1s0,.72-.07,1.09,0,.82,0,1.23v.6h0v.13l0,.3c0,.36-.12,1-.11,1.38s0,.83,0,1.25v.57a5,5,0,0,0,.11.53l.1.34-.08.19a2.41,2.41,0,0,0-.22.6,3.73,3.73,0,0,0-.09.46l0,.24c0,.13,0-.14,0,.33v0l0,.33c0,.21.08.42.13.63l.07.28v0h0s0,0,0,0v0a.06.06,0,0,0,0,0v.08l0,.34,0,.67v.16l0,.08,0,.17c0,.08,0,0,0,0h0l0,.09-.08.23c0,.09,0,.13-.07.25l-.07.39-.05.4s0,.52,0,.32v.12a2.3,2.3,0,0,0,.06.47l.08.34.06.24v.15l-.07.34-.15.89v.11c0,.08,0-.1,0,.2v.22l0,.35,0,.6v.21l0,.36-.08.76c-.05.47-.11.94-.16,1.41s-.07,1-.1,1.49l0,.37v.05a2.66,2.66,0,0,0,0,.31v.27a2,2,0,0,0,.05.3l.08.39.09.35c0-.31,0,.57,0,.93v.38l0,.17,0,0s0,0,0,0l-.09.23-.1.25a4.09,4.09,0,0,0-.11.42,3.58,3.58,0,0,0-.09.45c0,.18,0-.23,0,.43v.14a3.93,3.93,0,0,0,.09.54,5.57,5.57,0,0,0,.17.64v0l-.08.58-.06.42v.07l0,.08-.19.77-.11.49-.05.25,0,.12c0-.2,0,0,0-.06v.05l-.12.76-.07.43,0,.21v.06c0-.29,0,.45,0,.39v.09a3,3,0,0,0,.08.53c0,.15.06.3.1.44l.07.25-.11.51-.09.46-.05.24v.05c0,.06,0-.05,0,.16v.09l0,.75,0,.34v.11h0l-.21.79a16.65,16.65,0,0,0-.34,1.68l-.07.39v.14c0-.1,0,.19,0,.18v.19l0,.73a9.16,9.16,0,0,1-.15,1.43l-.05.39v0l0,.24v1.19l0,.11s0-.06,0-.08l-.24.44a3.51,3.51,0,0,0-.17.42c-.05.16-.1.33-.14.5s0,0,0,.22v.34l-.06.71,0,.58v.4c0,.25,0,.55.07.76V302l0,.06s0-.1,0,0a4.19,4.19,0,0,0-.27.52,5.07,5.07,0,0,0-.28.87l-.06.39-.1.76,0,.2v0l-.1.34-.25.84-.06.23,0,.05c0-.19-.05.32,0,.29v.09c0,.15,0,.2,0,.51s0,.6,0,.6v.08l-.09.24-.3.87-.07.23c0,.12,0-.19-.06.29v.14l0,.39c0,.29,0,.39,0,.58v.11l0,.16s0,0,0,0h0l-.1.21-.12.23c0,.08-.1.24-.15.36l-.13.4-.05.27v.14l0,.19v1h0l0,.26-.06.37-.1.66v.06l-.06.13s0,0,0,0a.08.08,0,0,1,0,0l0,0-.08.12a2.59,2.59,0,0,0-.36.58,3.82,3.82,0,0,0-.21.46l0,.12-.07.28v.09l0,.38-.07.61a3.25,3.25,0,0,1-.12.65l-.18.73,0,.18,0,.09s-.08.39-.05.23v.05l0,.37-.06.61v.13h0a.72.72,0,0,1-.07.11.19.19,0,0,1,.05-.13l-.3.36-.1.12-.13.21c-.08.15-.16.3-.23.45l-.09.23c-.12.44,0,.14-.07.25v0l0,.18-.1.64,0,.23v.12l-.05.17v0l0,.09-.16.67-.06.25,0,.13v.06l-.06.19v0l-.19.69-.11.43,0,.07-.05.07v0s0,0,0,0,.05-.05,0,0l-.17.17-.17.17a3.31,3.31,0,0,0-.25.31l-.24.36-.05.09h0l0,.08-.15.32-.29.62-.12.26-.1.14c-.07.11-.06,0-.08.08l-.2.21a4.13,4.13,0,0,0-.66.87l-.43.74-.83-1.23c-.14-.18-.24-.28-.36-.43l-.31-.36-.19-.2-.1-.11-.13-.19-.19-.28h0v-.05l0-.08a2.5,2.5,0,0,1-.18-.58l-.14-.57-.2-.67-.17-.43-.09-.22c-.06-.11.08.17-.13-.27l-.05-.07-.1-.16-.42-.6c-.15-.21-.26-.29-.39-.45l-.33-.37-.18-.19-.11-.1-.13-.19-.24-.35,0-.07-.12-.21-.23-.41-.95-1.67c-.27-.55-.45-1-.72-1.63l-.38-.89-.05-.11,0-.06-.08-.18-.08-.2-.17-.4-.72-1.73-.09-.22,0-.06c-.16-.32-.08-.15-.13-.25l-.13-.2a4.61,4.61,0,0,0-.54-.69c-.18-.2-.32-.32-.49-.48l-.39-.35-.28-.26-.09-.08s0,0,0,0,0-.06-.09-.12l0-.07-.15-.39-.69-1.73-.19-.46c-.16-.33-.06-.12-.11-.21l0-.06-.07-.11-.15-.23-.59-.92-.55-.84-.21-.32h0v0a.14.14,0,0,0,0-.06l0-.06a1.39,1.39,0,0,1,0-.17l-.07-.38a13.17,13.17,0,0,0-.31-1.4l-.17-.47,0-.06c-.06-.13.11.22-.14-.32l-.11-.17-.24-.35a6.64,6.64,0,0,0-.88-1.05l-.24-.24c-.06-.08-.1-.06-.2-.19l-.29-.42h0l-.09-.19-.79-1.77-.21-.45-.05-.12c0,.05-.06-.13-.05-.11v0a.19.19,0,0,0,0-.07c0-.07,0-.06-.06-.19l-.08-.39-.12-.63c-.06-.24-.12-.52-.18-.72l-.17-.47,0-.12,0-.06L285,296a3.92,3.92,0,0,0,.71-.43l.1-.06,0,0,.11-.09,0,0,.05-.05.23-.23c.14-.15.32-.33.43-.46s.44-.53.66-.81A10,10,0,0,0,288,293l.08-.1,0-.06h0l.08-.12,0-.06a4,4,0,0,0,.22-.47,2.78,2.78,0,0,0,.13-.37l.08-.24,0-.14.11-.26.23-.42.58-1.07c.18-.3.37-.64.56-1l0-.07,0,0v0l.07-.16.06-.14.13-.29.25-.58.13-.29a3.11,3.11,0,0,0,.11-.41l.17-.78.07-.32,0-.14.24-.47.28-.6,0-.08,0,0a2,2,0,0,0,.07-.21h0l0-.17.09-.33a12,12,0,0,0,.35-1.45l.13-.78.05-.33v0l0-.17.39-1.39c.13-.47.27-.94.41-1.41s.26-.91.38-1.42.16-.95.26-1.44.24-.69.43-1.45l.16-1.64a5.68,5.68,0,0,0,.39-1.1l.33-1.63c0-.29.05-.6.07-.91l0-.68a1.44,1.44,0,0,1,.07-.18l.2-.51a2.88,2.88,0,0,0,.13-.45l0-.09v0l0-.22v-.26l0-.46,0-.77v-.19l.05-.36.09-.72c.06-.51.17-.95.25-1.43s.12-.95.19-1.43.13-.95.19-1.4a13.31,13.31,0,0,0,.13-1.39c0-.22,0-.45,0-.68l.1-.56.11-.65v-.09l0-.17v-.53c0-.42,0-.89.06-1.31s0-.85.07-1.27,0-.81,0-1.21,0-.81,0-1.2c0-.2,0-.4,0-.59s0-.37,0-.56c.06-.74.11-1.46.17-2.14s0-1.29,0-2c-.06-1.21-.12-2.27-.16-3.15,0-.43-.05-.81-.08-1.15,0-.12,0-.22,0-.32l.35,0c.3,0,.61-.09.92-.12l.92-.08c.52,0,1.05-.07,1.57-.15l.88-.11c.53-.07,1.06-.13,1.6-.23s1.11-.23,1.67-.35l.77-.17a11.8,11.8,0,0,0,1.51-.46c.29-.1.58-.21.88-.29l.91-.2c.51-.11,1-.22,1.52-.36a12.57,12.57,0,0,0,1.43-.5c.3-.12.6-.24.91-.33a5.51,5.51,0,0,1,.81-.16,9.45,9.45,0,0,0,1.3-.27,1.23,1.23,0,0,0,0,.19c0,.35,0,.73.08,1.14l0,.32,0,.15,0,.32c0,.18.05.37.08.56l0,.26v.35c0,.24,0,.48,0,.74v.31h0v.3c0,.28-.05.57-.07.87l-.06.77-.06,1c0,.35,0,.61,0,.93l.06,1.07a17.28,17.28,0,0,1,.14,1.8v1.15c0,.31.05.64.08,1C315.93,249.66,315.59,250.86,315.68,251.81Zm1,47.83h0v0Zm2.2-19.43,0,0S318.87,280.24,318.88,280.21Zm.08-.15s0,.07,0,0l0-.05S319,280.06,319,280.06Z" style="fill: #1d1d1b"/>
</svg>
