<svg xmlns="http://www.w3.org/2000/svg" viewBox="0 0 500 500">
  <title>worm-right</title>
  <g>
    <path d="M293.51,309.54c-2.07,2.3-3.73,2.52-6.23,2.85-.55.07-1.12.15-1.74.25a17,17,0,0,1-2.74.2,42.61,42.61,0,0,1-5.16-.41l-.28,0c-1-.12-2-.24-3-.31l-.26,0a6.62,6.62,0,0,1-5-5.49c0-4.43,3.16-7.64,6.6-10.46.27-.22.55-.46.83-.71l.37-.31c1.84-1.61,4.16-3.64,6.78-3.67,3.25,0,6.62,2.5,8.38,4.82C294.52,299.44,296.34,306.39,293.51,309.54ZM209.79,292.9a9.16,9.16,0,0,0-8.72,3.16h-.37l-.35.14c-2.57,1.06-4.22,2.52-4.78,4.23a5.22,5.22,0,0,0,.81,4.45l.2.32.31.22c1.89,1.39,7.67,1.43,8.32,1.43a20.74,20.74,0,0,0,4.38-.4,7.44,7.44,0,0,0,5.62-7.62A6,6,0,0,0,209.79,292.9Zm40.39-106.73a11.81,11.81,0,0,0-6.65,2.32c-1.91,1.37-2.37,3.07-2.91,5a13.78,13.78,0,0,1-.53,1.44l-.1.23a6.86,6.86,0,0,0-.79,2.76,3.06,3.06,0,0,0,1.21,2.34,10.77,10.77,0,0,0,6.5,2.06c.34,0,.66,0,1-.05l.46.22.55,0,.8-.08.45,0c3.42-.35,5.9-.6,7.49-3.93s0-7.21-1.76-9.56A7,7,0,0,0,250.18,186.17Z" style="fill: #c4c4c6"/>
    <path d="M279.62,223.15l-.06-.53a4.14,4.14,0,0,0-.15-.86l0-.13c0-.16-.08-.3-.11-.39h0l-.09-.28c-.05-.15-.1-.31-.18-.54s-.16-.35-.22-.46l-.05-.11a.54.54,0,0,1-.05-.11l-.14-.22-.49-.71c-.07-.09-.21-.25-.29-.33l-.08-.07-.06-.06a2.19,2.19,0,0,0-.34-.34l-.39-.31a3.13,3.13,0,0,0-.66-.46l-.09-.07a2.32,2.32,0,0,0-.41-.22l-.54-.25-.12-.06a2.55,2.55,0,0,0-.44-.15l-.21-.05,0,0a2.11,2.11,0,0,0-.5-.1l-.75-.08a3.08,3.08,0,0,0-.43,0h-.4a1.85,1.85,0,0,0-.66.05l-.09,0h0a2.86,2.86,0,0,0-.76.2l-.14,0-.27.09h0l-.32.11a2.75,2.75,0,0,0-.67.28h0a2.6,2.6,0,0,0-.25.1l-.12.06-.55.33-.14.09-.47.33-.16.11c-.18.14-.6.48-.76.64l-.08.08,0,0h0l-.2.17a1.84,1.84,0,0,0-.24-.64l0-.13a2.8,2.8,0,0,0-.06-.28,2.3,2.3,0,0,0-.1-.35l-.1-.33a.93.93,0,0,0,0-.13A1.33,1.33,0,0,0,266,217v0h0l0-.14v0h0v-.17a2.38,2.38,0,0,0,0-.54h0a2,2,0,0,0-.26-.73l-.07-.23a1.93,1.93,0,0,0-.23-.48c-.09-.14-.37-.63-.48-.84l-.13-.28-.07-.13a1.63,1.63,0,0,0-.24-.45l-.3-.56a2.9,2.9,0,0,0-.19-.29l-.06-.08-.5-.62h0l-.06-.1c-.29-.42-.56-.83-.84-1.25a1.4,1.4,0,0,0-.12-.18l-.11-.13h0l-.41-.48-.16-.18-.09-.08-.63-.55-.08-.06-.16-.13-.2-.16-.29-.23-.68-.59-.19-.15-.72-.57a2.08,2.08,0,0,0-.78-.66l-.16-.08-.51-.27a2.17,2.17,0,0,0-.41-.19c-.16-.08-.31-.19-.51-.31a2,2,0,0,0-.83-.36,2.85,2.85,0,0,0-.41,0h-.13a1.8,1.8,0,0,1-.53-.07.86.86,0,0,1-.28-.15,2,2,0,0,0-1.81-.29.8.8,0,0,1-.44,0,3.65,3.65,0,0,1-.5-.14,3.67,3.67,0,0,0-.62-.19l-.27,0h-1.19a2,2,0,0,0-.74.14l-.05,0a2.39,2.39,0,0,1-.59.14.82.82,0,0,1-.4-.1,2,2,0,0,0-2,.08.85.85,0,0,1-.37.14,2.28,2.28,0,0,1-.58,0,2.36,2.36,0,0,0-.88,0c-.23.05-.45.13-.66.19l-.57.2a2,2,0,0,0-.67.38,2.6,2.6,0,0,1-.45.26,1,1,0,0,1-.46.08,1.94,1.94,0,0,0-1.54.65,2,2,0,0,1-.4.37,1.77,1.77,0,0,1-.59.22l-.08,0h0a2.1,2.1,0,0,0-1.11.69l-.08.1c-.14.14-.27.29-.41.41a4.45,4.45,0,0,0-.48.49l-.1.1-.37.41a1.59,1.59,0,0,1-.37.25,2,2,0,0,0-1,1.51.89.89,0,0,1-.15.46l-.27.32-.08.08a4.09,4.09,0,0,0-.48.58,8.13,8.13,0,0,0-.47.81l-.21.37a3,3,0,0,1-.3.44l0,0a2.46,2.46,0,0,0-.36.49,2.16,2.16,0,0,0-.25.74l0,.2a4.38,4.38,0,0,1-.13.52,1.46,1.46,0,0,1-.32.5,2,2,0,0,0-.55,1.38,2.47,2.47,0,0,0,.08.67v0a2.56,2.56,0,0,1,0,.67s0,.1,0,.15,0,.11,0,.15-.07.27-.11.4l-.06.24a.83.83,0,0,0,0,.15,2,2,0,0,0-.06.49l0,1.37a2.64,2.64,0,0,0,0,.28l0,.19a2.12,2.12,0,0,0,.13.54l0,0,.06.24a2.73,2.73,0,0,1,.06.34c0,.23.06.47.08.72s0,.38,0,.55a8.08,8.08,0,0,1,.08,1.07v.42a1.58,1.58,0,0,0,.05.43l.27,1.21c0,.06,0,.13,0,.18a1.66,1.66,0,0,0,.14.37c.1.21.2.42.31.62a2.14,2.14,0,0,0,.37.52,1.51,1.51,0,0,0,.23.21,2.09,2.09,0,0,0,.16.54,2,2,0,0,0-1.35.24,2,2,0,0,1-.62.2,2,2,0,0,0-1,.54,1.94,1.94,0,0,0-.26.31,2,2,0,0,1-.43.48c-.09.09-.19.16-.26.22a4.22,4.22,0,0,0-.77.66c-.28.32-.54.63-.82,1-.09.12-.19.23-.28.34l-.08.09a3.43,3.43,0,0,0-.4.54,2.1,2.1,0,0,0-.27.68.36.36,0,0,0,0,.1,3.48,3.48,0,0,1-.12.4,6.42,6.42,0,0,0-.39,1.17l-.14.55a6.68,6.68,0,0,0-.15.81,11.13,11.13,0,0,0,0,1.22v.41a7.49,7.49,0,0,0,0,1c0,.15,0,.32,0,.48s0,.12,0,.15a3.54,3.54,0,0,0,.05.48,2,2,0,0,0,.06.23,3.22,3.22,0,0,1,.08.33,6.58,6.58,0,0,0,.28.89,2,2,0,0,0,.43.62c.12.15.24.31.34.46l.21.4a.41.41,0,0,0,0,.09l.06.13c.12.21.24.4.32.51a1.8,1.8,0,0,0,.39.39l.19.13a5.46,5.46,0,0,1,.44.38l.26.26c.11.13.23.26.35.38a2,2,0,0,0-1.64-.4,2,2,0,0,0-1.21.76l0,0a5.53,5.53,0,0,1-.46.51,4.33,4.33,0,0,1-.38.34l-.1.08-.09.08a5.78,5.78,0,0,0-.44.43c-.08.09-.17.17-.25.25l-.21.21a4.22,4.22,0,0,0-.47.51,9.3,9.3,0,0,0-.62,1c-.05.1-.1.19-.14.29a3.19,3.19,0,0,0-.15.59,2.42,2.42,0,0,1-.15.49l-.13.34a4.41,4.41,0,0,0-.3.89,3.25,3.25,0,0,0-.05.72c0,.18,0,.37,0,.49a2,2,0,0,1-.15.54c0,.06,0,.12-.07.19h0a2.31,2.31,0,0,0-.13.77,1.41,1.41,0,0,0,0,.2c0,.24,0,.49,0,.73a1.92,1.92,0,0,0,.14.63,1.69,1.69,0,0,0,.13.27,4,4,0,0,1,.22.56,3.11,3.11,0,0,1,0,.57,1.34,1.34,0,0,0,0,.2,2,2,0,0,0,.28,1,4.26,4.26,0,0,0,.34.49l.2.28c.13.19.23.4.35.62a4.68,4.68,0,0,0,.3.54,1.85,1.85,0,0,0,.36.38,1.69,1.69,0,0,0,.37.26,2.57,2.57,0,0,1,.53.42c.15.17.27.35.39.51l.16.23a2.17,2.17,0,0,0,1.09.79,2,2,0,0,0,.74.91l0,0a2,2,0,0,0-2.42.31l-.35.35a13.21,13.21,0,0,0-.94,1.06,3.22,3.22,0,0,1-.37.39,2.85,2.85,0,0,0-.38.39,2.14,2.14,0,0,0-.32.55c-.05.15-.09.3-.11.39a4.45,4.45,0,0,1-.18.55,8.36,8.36,0,0,0-.33,1l-.09.31a2.5,2.5,0,0,1-.26.56,2,2,0,0,0-.19.43,1.77,1.77,0,0,0-.1.61,2.24,2.24,0,0,0,0,.49,3.74,3.74,0,0,1,.06.53,1.69,1.69,0,0,1-.12.55v.05a2,2,0,0,0,0,1.39v0a3.8,3.8,0,0,1,.1.47s0,.09,0,.13a4.15,4.15,0,0,0,.17.61c.06.18.11.36.16.53a5.51,5.51,0,0,0,.19.58l.21.53c.06.16.1.31.15.48a2.34,2.34,0,0,0,.17.53,1,1,0,0,0,.11.21,2.1,2.1,0,0,1,.13.26l.08.15a3,3,0,0,0,.25.47l.18.24.9,1a2.16,2.16,0,0,0,.6.44,2.9,2.9,0,0,1,.49.35l.23.22a6.61,6.61,0,0,0,.8.69,3.59,3.59,0,0,1,.36.32,2.18,2.18,0,0,0,.72.45,2.27,2.27,0,0,0,.56.37h0c.21.09.46.18.69.26.39.14.7.24,1,.31-.39-.1-.74-.22-1-.3a2,2,0,0,0-2.39.91,11,11,0,0,0-.9,8.06,9.79,9.79,0,0,0,2.93,4,2,2,0,0,0,1.1.5,2.08,2.08,0,0,0,1,.49l3.35.52.19,0a58,58,0,0,0,8.31,1c.36,0,.71,0,1,0l.81-.06a51,51,0,0,1,6.69-.2,18.94,18.94,0,0,0,4.63-.51c.74-.14,1.47-.28,2.24-.39q.86-.13,1.62-.21a2,2,0,0,0,1.63-1.23,13.43,13.43,0,0,0,1.18-5.08,10.59,10.59,0,0,0-1.57-5.63,13.78,13.78,0,0,0-3.13-3.62,2,2,0,0,0-2.24-.15v-.07l.19-.18.05,0,.16-.16.1-.09a1.79,1.79,0,0,0,.27-.28,1.86,1.86,0,0,0,.56-.59c.13-.22.31-.52.48-.88l.06-.13a5.61,5.61,0,0,0,.17-.58,4.59,4.59,0,0,1,.17-.54c0-.13.11-.27.17-.41a1.89,1.89,0,0,0,.09-.21c.07-.15.14-.32.2-.49a4.81,4.81,0,0,0,.32-1.37l0-.33a9.29,9.29,0,0,0,0-1.2,3.62,3.62,0,0,0-.18-.71,4.15,4.15,0,0,1-.14-.6,6.17,6.17,0,0,0-.17-.77l0-.13,0-.12a.73.73,0,0,1-.06-.21.83.83,0,0,0,0-.15c0-.14-.06-.28-.1-.46a.36.36,0,0,0,0-.1,2.76,2.76,0,0,0-.16-.61l-.07-.16a6.2,6.2,0,0,0-.59-.89l-.15-.21a3.43,3.43,0,0,1-.33-.63l0-.06a2,2,0,0,0-.91-.94h0c0-.06,0-.12,0-.18a5.14,5.14,0,0,0-.35-.84l0,0a4.58,4.58,0,0,1,.46-.33,4.71,4.71,0,0,0,.48-.34l.11-.12a11.43,11.43,0,0,0,.84-1l.17-.21c.2-.27.4-.53.58-.81l.08-.12c.13-.25.25-.5.32-.68l.1-.23s0-.1.1-.22l.24-.44s.07-.13.09-.15a3.1,3.1,0,0,0,.27-.58,8.93,8.93,0,0,0,.4-1.39,5.79,5.79,0,0,0,0-.71c0-.17,0-.34,0-.47l.06-.59a5.49,5.49,0,0,0,.06-.91,3.69,3.69,0,0,0-.16-.87,5.09,5.09,0,0,1-.14-.65,2.54,2.54,0,0,1,0-.29,8.53,8.53,0,0,0-.18-1,7.26,7.26,0,0,0-.63-1.46l-.22-.39a2.08,2.08,0,0,0-1.8-1l.27-.06c.21,0,.49-.11.58-.14A2.17,2.17,0,0,0,257,253a4.91,4.91,0,0,0,.58-.44l.72-.62a7.39,7.39,0,0,0,.7-.67,3.28,3.28,0,0,0,.48-.74,4.1,4.1,0,0,1,.26-.43c.1-.14.21-.26.32-.39l0,0a2.88,2.88,0,0,0,.42-.5l.09-.14a6,6,0,0,0,.29-.63l.09-.23c.05-.12.1-.26.16-.38l.12-.28a8.53,8.53,0,0,0,.4-1l.11-.3a5,5,0,0,0,.3-1,4,4,0,0,0,0-.84l0-.62a3.16,3.16,0,0,0-.16-.74q-.08-.25-.12-.48a3.45,3.45,0,0,1,0-.58.86.86,0,0,0,0-.16,2.42,2.42,0,0,0,0-.47,2.39,2.39,0,0,0-.31-.78l-.08-.13L261,240v0a.42.42,0,0,0,0-.1,2.2,2.2,0,0,0-.09-.21,2,2,0,0,0-1-.95.11.11,0,0,1,0-.05,6,6,0,0,1,.12-1.48l.93-.91c.64-.62,1.3-1.26,1.9-1.94a2,2,0,0,0,.37-2.05,1.61,1.61,0,0,0-.23-.43h.16l.37-.06a2,2,0,0,0,1.5-1,1.78,1.78,0,0,0,.19.36l.24.38a.33.33,0,0,0,.06.1,2.7,2.7,0,0,0,.33.46l.22.23.21.22c.14.15.3.3.49.47a4.47,4.47,0,0,0,.89.61l.67.3a1.57,1.57,0,0,0,.23.09,2.07,2.07,0,0,0,.41.08h0l.35.08.11,0,.28.06a2.76,2.76,0,0,0,.77.1,1.84,1.84,0,0,0,.62,0l.28,0,.48-.07.15,0,.45-.13h0a1.7,1.7,0,0,0,.34-.12l.62-.23.59-.23.26-.12.15-.08.46-.26a2,2,0,0,0,.19-.12l1.2-.86.13-.1.2-.18.16-.14a1.34,1.34,0,0,0,.21-.2l.55-.59a1.19,1.19,0,0,0,.15-.18l.24-.31a3.13,3.13,0,0,0,.2-.3l.55-1,.05-.1.08-.16c0-.09.08-.18.11-.27l.41-1.26a1.61,1.61,0,0,0,.08-.38l.1-.78a.49.49,0,0,0,0-.12l.08-1a10.42,10.42,0,0,0,.07-1.24h0a1.62,1.62,0,0,0,0-.22C279.63,223.29,279.62,223.22,279.62,223.15Zm-33-2.72,0-.16a.17.17,0,0,0,0-.07,8.09,8.09,0,0,1,1.27-2.92,6.16,6.16,0,0,1,1.1-1.18,5.39,5.39,0,0,1,1.44-.78A6.51,6.51,0,0,1,252,215a7.06,7.06,0,0,1,1.61.05,6.46,6.46,0,0,1,1.53.44,5.59,5.59,0,0,1,1.28.89,6.14,6.14,0,0,1,1.11,1.17,6.93,6.93,0,0,1,.66,1.44,7.57,7.57,0,0,1,.37,1.6,5.55,5.55,0,0,1-.45,3.12,5.73,5.73,0,0,1-.91,1.33,6.55,6.55,0,0,1-1.21,1.1,6.24,6.24,0,0,1-1.43.73,6.58,6.58,0,0,1-1.54.35,7.37,7.37,0,0,1-1.56,0,6.12,6.12,0,0,1-1.48-.49,5.44,5.44,0,0,1-1.36-.8,6.22,6.22,0,0,1-1-1.15,6.82,6.82,0,0,1-.68-1.47,6.62,6.62,0,0,1-.32-1.5A4.83,4.83,0,0,1,246.6,220.43Z" style="fill: #f8d1dd"/>
    <path d="M245.46,221.29a7,7,0,1,0,7-7A7,7,0,0,0,245.46,221.29Z" style="fill: #fff"/>
    <path d="M218,304.26c1,.12,3.24.4,3.07,2.48s-2.11,2.12-4.83,2.34c-1.5.12-3.3.2-3.92.18l-1.43-.06a1.84,1.84,0,0,1-.57.09,2,2,0,0,1-.76-.16l-.94-.05c-2.24-.12-4.54-.23-6.76-.23a1.93,1.93,0,0,1-.87-.21c-2.77-.33-5.29-1.09-6.24-2.54a7.15,7.15,0,0,1-1.11-6.27c.54-1.67,2.07-4,6.34-5.63l0,0a11.12,11.12,0,0,1,10-3.26,8,8,0,0,1,7.12,7.83,9.9,9.9,0,0,1-1.61,5.76A7,7,0,0,1,218,304.26Zm-8.89.25a5.44,5.44,0,0,0,4.07-5.59,4,4,0,0,0-3.71-4,7.17,7.17,0,0,0-6.87,2.43,2,2,0,0,1-1.52.75c-2,.82-3.27,1.88-3.63,3a3.29,3.29,0,0,0,.59,2.77C199.27,304.7,206,305.26,209.14,304.51Zm44.3-88.44a5.39,5.39,0,0,0-1.34,0,5.88,5.88,0,0,0-1.34.24,4,4,0,0,0-1.13.62,5.39,5.39,0,0,0-.93,1,6.17,6.17,0,0,0-.68,1.22,5.19,5.19,0,0,0-.28.81,4.2,4.2,0,0,1,3.43-1.38,4,4,0,0,1,3.73,4.39,4.14,4.14,0,0,1-2.39,3.35,2.55,2.55,0,0,0,.39,0,5.49,5.49,0,0,0,1.34-.3,4.7,4.7,0,0,0,1.19-.62,5.3,5.3,0,0,0,1-.92,4.64,4.64,0,0,0,.76-1.1,4.58,4.58,0,0,0,.37-1.26,4.93,4.93,0,0,0,0-1.33,6.61,6.61,0,0,0-.32-1.35,6.18,6.18,0,0,0-.55-1.24,5.09,5.09,0,0,0-.92-.95,5.17,5.17,0,0,0-1.07-.75A4.62,4.62,0,0,0,253.44,216.07Zm-3.65-2.64a8.77,8.77,0,0,1,2-.39,8.57,8.57,0,0,1,2.1.07,8,8,0,0,1,2,.6,7.53,7.53,0,0,1,1.76,1.2,7.73,7.73,0,0,1,1.45,1.55,8.39,8.39,0,0,1,.88,1.89,9.21,9.21,0,0,1,.48,2,7.67,7.67,0,0,1,0,2.15,7.23,7.23,0,0,1-.63,2.08,7.85,7.85,0,0,1-1.2,1.78,8.63,8.63,0,0,1-1.58,1.42,7.88,7.88,0,0,1-1.91,1,8.92,8.92,0,0,1-2,.45,8.51,8.51,0,0,1-.88,0,9.55,9.55,0,0,1-1.2-.08,8.1,8.1,0,0,1-2-.65,7.24,7.24,0,0,1-1.82-1.1,7.59,7.59,0,0,1-1.4-1.58A8.79,8.79,0,0,1,245,224a8.15,8.15,0,0,1-.44-2,6.63,6.63,0,0,1,0-1.79l0-.16s0-.07,0-.1a9.81,9.81,0,0,1,1.66-3.85,8,8,0,0,1,1.5-1.57A7.09,7.09,0,0,1,249.79,213.43Zm1.37,39a7.42,7.42,0,0,1,.32,6.21,5.29,5.29,0,0,1-3.58,3.09,7.11,7.11,0,0,1-1.85.25,5.65,5.65,0,0,1-3.05-.85,7.41,7.41,0,0,1-3.11-4.92,2,2,0,0,1,3.92-.78,3.51,3.51,0,0,0,1.3,2.3,2.06,2.06,0,0,0,1.78.13,1.28,1.28,0,0,0,.91-.8,3.47,3.47,0,0,0-.14-2.7,2,2,0,1,1,3.5-1.93ZM259.61,275a4.74,4.74,0,0,1,.25,1.24,12.21,12.21,0,0,1,0,1.51v.14a7,7,0,0,1-.41,1.84,8.49,8.49,0,0,1-.35.88c-.06.13-.12.26-.17.39s-.06.22-.09.33a5.9,5.9,0,0,1-.35,1,.9.9,0,0,0,0,.09,15.86,15.86,0,0,1,3.56,4.13,12.66,12.66,0,0,1,1.82,6.47,9.73,9.73,0,0,1-.31,2.85,11.74,11.74,0,0,0,1.37.06,11.16,11.16,0,0,1,2.18.23,7.26,7.26,0,0,0,1.41.17c1.34,0,2.71-.06,4.13-.15.61-.56,1.24-1.1,1.88-1.63.37-.3.75-.63,1.14-1,2.11-1.84,4.74-4.13,8-4.17h.1c3.94,0,7.84,2.82,9.95,5.61a12.93,12.93,0,0,1,1,1.52h.29a2.51,2.51,0,0,1,1.28.17l.14,0s3.37-.54,4.46.75l.83,1-.54,1.17c-.58,1.22-1.33,1.25-4.76,1.24a13.46,13.46,0,0,1,.14,7.41,12.61,12.61,0,0,1,5.81.7,1.91,1.91,0,0,1,.53.36,12.83,12.83,0,0,1,2,0,2,2,0,1,1-.32,4,20.58,20.58,0,0,0-4.72.45c-1.05.17-2.12.35-3.16.44s-2.1.11-3.11.13c-.81,0-1.62,0-2.42.08-.11,0-.43.09-.65.14a8.33,8.33,0,0,1-1.91.29,3.18,3.18,0,0,1-1.49-.34c-.36.05-.74.1-1.14.17a18.77,18.77,0,0,1-3.07.23,45.05,45.05,0,0,1-5.4-.43c-1.12-.13-2.18-.26-3.26-.34l-.2,0c-4.22-.74-6.81-4.85-6.82-7.47a11.16,11.16,0,0,1,1.36-5.38h-2.64l-.3,0a35.34,35.34,0,0,0-7.93.51c-.71.1-1.41.24-2.1.37a20.08,20.08,0,0,1-5.16.54,49.69,49.69,0,0,0-6.4.21l-.82.06c-.37,0-.76,0-1.15,0a60.27,60.27,0,0,1-8.86-1c-2.27-.37-4.62-.75-6.45-.87-3,.12-3.32,0-3.89-.94a2,2,0,0,1-.06-2,1.78,1.78,0,0,1,1.4-1,8.31,8.31,0,0,1-1-2.12,13.19,13.19,0,0,1,1.15-9.77l-.46-.44-.2-.19-.19-.12a4.16,4.16,0,0,1-1-.81l-.28-.3c-.23-.25-.47-.51-.69-.77a5,5,0,0,1-.7-1.14,2.1,2.1,0,0,0-.13-.26,5.45,5.45,0,0,1-.46-1.19,1.38,1.38,0,0,0-.08-.27l-.11-.28a7.09,7.09,0,0,1-.38-1.13,1.7,1.7,0,0,0-.1-.32,6.66,6.66,0,0,1-.27-1.09,1.25,1.25,0,0,0-.07-.26,4.85,4.85,0,0,1-.21-1.14,3.64,3.64,0,0,1,.22-1.35.19.19,0,0,1,0-.08l0-.16a4.31,4.31,0,0,1-.05-1.43,4,4,0,0,1,.52-1.37,1.28,1.28,0,0,0,.11-.2l.06-.22a8.94,8.94,0,0,1,.41-1.24,2.46,2.46,0,0,0,.09-.29,5,5,0,0,1,.47-1.21,4.65,4.65,0,0,1,.88-1,1.62,1.62,0,0,0,.19-.18,11.74,11.74,0,0,1,1-1.18l.39-.4-.11-.07a4.66,4.66,0,0,1-1.15-1,7,7,0,0,1-.56-.94,4.77,4.77,0,0,0-.25-.43l-.16-.23a5.68,5.68,0,0,1-.76-1.32,3.61,3.61,0,0,1-.21-1.52v-.14l-.07-.14a4,4,0,0,1-.43-1.35,8.67,8.67,0,0,1,0-1.23c0-.11,0-.23,0-.34a3.73,3.73,0,0,1,.3-1.38,1.89,1.89,0,0,0,.06-.18v-.25a5.46,5.46,0,0,1,.11-1.19,7.36,7.36,0,0,1,.4-1.16l.12-.3a2.27,2.27,0,0,0,.06-.25,4.27,4.27,0,0,1,.44-1.27,9.88,9.88,0,0,1,.85-1.36,8.75,8.75,0,0,1,.71-.77l.36-.36a8.94,8.94,0,0,1,.71-.67c.12-.1.24-.19.34-.29a5.09,5.09,0,0,0,.34-.38,4.93,4.93,0,0,1,.5-.55l-.09-.17a1.84,1.84,0,0,0-.17-.22,4.45,4.45,0,0,1-.72-1.1,7.86,7.86,0,0,1-.39-1.2l-.08-.33a4.8,4.8,0,0,1-.17-1.25c0-.11,0-.22,0-.32a8,8,0,0,1-.07-1.24v-.32a11.2,11.2,0,0,1,.07-1.55,8.79,8.79,0,0,1,.24-1.22l.08-.3a9.06,9.06,0,0,1,.48-1.5,1.55,1.55,0,0,0,.07-.23,4.15,4.15,0,0,1,.48-1.23,6,6,0,0,1,.67-.89l.24-.29c.27-.36.57-.72.88-1.08a6.43,6.43,0,0,1,1.05-.93l.26-.2a.71.71,0,0,1,.07-.11,3.8,3.8,0,0,1,1.08-1.1,3.43,3.43,0,0,1,.93-.4l0-.11-.09-.25-.17-.5c-.08-.26-.16-.53-.23-.8a5.83,5.83,0,0,1-.15-.73l0-.57a11.12,11.12,0,0,0-.15-1.41l-.12-.83s0,0,0-.09l-.11-.35a5.87,5.87,0,0,1-.17-.7l0-.19v-.16l0-.31c0-.25,0-.49,0-.73l0-.69v-.17c0-.21,0-.23,0-.36s.07-.43.1-.55l.12-.39a.62.62,0,0,1,.05-.14,1.47,1.47,0,0,0,.1-.38v0c0-.12,0-.23,0-.33s0-.4,0-.57,0-.19,0-.27,0-.2,0-.2a1.38,1.38,0,0,1,0-.2,2.23,2.23,0,0,1,0-.36,3.3,3.3,0,0,1,.83-1.62s0,0,0,0l0-.16a5.83,5.83,0,0,1,.34-1.17,4.42,4.42,0,0,1,.68-1.06c.06-.08.12-.14.17-.22L231,212c.19-.36.38-.71.61-1.06a6.62,6.62,0,0,1,.68-.84l0,0a3,3,0,0,1,.68-1.81,4.1,4.1,0,0,1,1.16-.85l.14-.07.24-.26a7.48,7.48,0,0,1,.74-.75,3.2,3.2,0,0,0,.25-.27,5.69,5.69,0,0,1,.82-.78,3.73,3.73,0,0,1,1.42-.61h0l0,0a3.74,3.74,0,0,1,1.1-1,3.24,3.24,0,0,1,1.72-.33l0,0,.35-.22a8.42,8.42,0,0,1-1.95-1.24,5.15,5.15,0,0,1-1.91-3.73,9.12,9.12,0,0,1,1-3.74,10.63,10.63,0,0,0,.52-1.35c.58-2.15,1.18-4.36,3.68-6.16,4.64-3.32,11.32-4.12,15.09.81,2.14,2.8,3.94,7.53,2,11.64a7.94,7.94,0,0,1-3,3.52h0a5,5,0,0,1,1,.54,3,3,0,0,0,.3.18,2.42,2.42,0,0,1,.42.29l.57.23.17.08.05,0h0l.06,0,0,0,.14.11.29.22.26.21.19.17,0,0,.05,0,.47.33.12.09.07,0,.17.14.24.21c.18.15.37.3.56.47s.33.24.52.4l.15.11.26.24.24.21.27.26,0,0v0l.18.18.05.08.12.15.25.3.12.15.09.11.07.11.29.44.21.34h0l0,0,0,0,0,0,.1.17.21.34.1.18,0,0,.08.13.06.08.22.33.22.33.06.08.08.15h0v0l0,.05.08.18.39.84q.12.38.24.72a16.79,16.79,0,0,1,.58,1.58l.12.66,0,.15c0,.15,0,.27.06.4s0,.14,0,.2l.21-.16.38-.24.19-.12.15-.09.07,0,.14-.07.54-.24.47-.17.36-.11.18-.05.16,0,.11,0,.82-.17a4.59,4.59,0,0,1,.52,0l.42,0a1.6,1.6,0,0,1,.44,0h.23l.64,0,.68,0h.29l.2,0h.06l.07,0,.59.16a4.86,4.86,0,0,1,.61.19l.47.19.24.1.06,0,.14.06,0,0,.18.1.7.43a4.42,4.42,0,0,1,.55.4l.24.2.12.1,0,0,.11.09,0,0,.08.09c.21.21.43.44.64.68l.15.18.1.13.2.28.2.29.14.2.06.12.11.23c.15.29.32.65.42.91l.24.71a8.72,8.72,0,0,1,.25,1.05,4.7,4.7,0,0,1,.12.87l0,.4v.15h0v.43a18.26,18.26,0,0,1-.13,1.85c0,.3-.06.61-.08.92l-.13.83v.08l-.08.31h0l0,.1-.07.2-.14.41-.27.81v.05l-.15.33h0v0l0,.09-.11.19-.21.37-.42.75v0c-.06.09-.09.13-.09.15h0l-.05.06-.09.11-.19.23-.38.45-.64.64c-.29.24-.59.5-.88.72l-.75.52-.89.54-.37.19-.19.09-.09.05-.05,0-.26.11h0l-1.71.55-1,.2-.79.08h-.39l-.29,0-.57-.08a2.24,2.24,0,0,1-.44-.1l-.36-.1a8.35,8.35,0,0,1-1.69-.63l-.3-.16-.22-.12-.1-.07-.2-.15c-.24-.2-.54-.43-.7-.6l-.14-.16q-.18.39-.39.75a12.11,12.11,0,0,1-.77,1.15,20.24,20.24,0,0,1-2.28,2.48l.06.11a6.65,6.65,0,0,1,.55,1.16l0,.11.11.2a4.34,4.34,0,0,1,.71,2.45,1.82,1.82,0,0,0,0,.33c0,.1,0,.2.08.31a5.31,5.31,0,0,1,.24,1.28v.3a6.64,6.64,0,0,1,0,1.4,6,6,0,0,1-.39,1.43l-.09.27a10.15,10.15,0,0,1-.47,1.12l-.13.3-.15.37a11.36,11.36,0,0,1-.48,1,5,5,0,0,1-.76,1c-.07.08-.14.15-.2.23s-.13.22-.19.33a5.65,5.65,0,0,1-.67,1,9.16,9.16,0,0,1-1,.94l-.15.13.13.22a8.68,8.68,0,0,1,.81,1.88,10.22,10.22,0,0,1,.23,1.25l.05.38c0,.13.06.25.09.38a5.93,5.93,0,0,1,.22,1.29,7.08,7.08,0,0,1-.08,1.27c0,.14,0,.28,0,.42s0,.22,0,.33a5.42,5.42,0,0,1-.1,1.26,12.09,12.09,0,0,1-.44,1.51,6.19,6.19,0,0,1-.51,1.06,3.3,3.3,0,0,0-.18.32l-.15.33a7.82,7.82,0,0,1-.52,1.05,11.7,11.7,0,0,1-.74,1l-.15.2c-.28.37-.55.68-.81,1a6.31,6.31,0,0,1,.45.82,1.55,1.55,0,0,0,.14.29l.14.21a9.51,9.51,0,0,1,.76,1.18,4.77,4.77,0,0,1,.42,1.36l.09.41.09.34a9,9,0,0,1,.29,1.23A1.87,1.87,0,0,0,259.61,275Zm-24.73-44.7c.23.4.35.56.5.8v0a0,0,0,0,0,0,0l0,0,.16.16.28.28a5.38,5.38,0,0,1,.4.38,1,1,0,0,1,.11.16,1.55,1.55,0,0,1-.71,2.06,1.56,1.56,0,0,1-1.06.1l-.11,0a1.09,1.09,0,0,1-.2-.08l-.49-.32c-.1-.08-.2-.16-.32-.24l-.18-.14-.1-.07-.05,0h0l-.1-.1,0,0c-.26-.29-.63-.7-.85-1a3.9,3.9,0,0,1-1.24.43h0a4,4,0,0,1-.79.89l-.39.31a3.14,3.14,0,0,0-.43.35c-.26.3-.5.59-.73.88s-.24.3-.37.45a3.37,3.37,0,0,0-.29.37.69.69,0,0,1,0,.17,4.61,4.61,0,0,1-.24.77,4.43,4.43,0,0,0-.28.87l-.1.38a6,6,0,0,0-.14.65,8.87,8.87,0,0,0,0,1v.41a5.93,5.93,0,0,0,0,.64,6,6,0,0,1,.06.73c0,.12,0,.24,0,.35s.08.28.11.42a5,5,0,0,0,.18.6l.14.15a6.65,6.65,0,0,1,.51.71c.1.17.19.34.28.52s.18.34.24.42l.2.14a6.64,6.64,0,0,1,.64.55l.34.35a3.3,3.3,0,0,0,.42.42,2,2,0,0,1,.31,2.81,2,2,0,0,1-1.56.76,2,2,0,0,1-1.25-.44c-.12-.09-.21-.19-.32-.29l0,.05a7,7,0,0,1-.6.67,5.93,5.93,0,0,1-.58.52c-.13.12-.27.23-.39.36s-.31.32-.46.47a4.27,4.27,0,0,0-.37.38,8.13,8.13,0,0,0-.48.79,1,1,0,0,0-.06.25,5.61,5.61,0,0,1-.23.8l-.16.42a3.37,3.37,0,0,0-.2.53,1.76,1.76,0,0,0,0,.33q0,.36,0,.72a4.21,4.21,0,0,1-.28,1.06s0,.09,0,.13,0,.23,0,.35a5.19,5.19,0,0,0,0,.56c0,.05.05.09.07.14a4.9,4.9,0,0,1,.38,1,5.1,5.1,0,0,1,.08,1.1.19.19,0,0,0,0,.08,3.71,3.71,0,0,0,.23.32l.23.33a7.39,7.39,0,0,1,.47.81,2.71,2.71,0,0,0,.18.34,2,2,0,0,0,.19.12,4.28,4.28,0,0,1,.94.78c.19.22.35.44.51.66l.16.22a1.95,1.95,0,0,1,1.32,1.21,2.47,2.47,0,0,0,.47.23,2,2,0,0,1-.69,3.88,1.93,1.93,0,0,1-.7-.13,8.07,8.07,0,0,1-1.25-.62l-.32.32a11,11,0,0,0-.77.86,5.25,5.25,0,0,1-.66.71.86.86,0,0,0-.14.13,2.17,2.17,0,0,0-.07.24,7.16,7.16,0,0,1-.27.82,5.38,5.38,0,0,0-.24.74l-.09.31a4.77,4.77,0,0,1-.43,1,.16.16,0,0,0,0,.07.52.52,0,0,0,0,.11,5.9,5.9,0,0,1,.09.95,3.84,3.84,0,0,1-.22,1.15.14.14,0,0,1,0,.06s0,.08.05.13a6.11,6.11,0,0,1,.19.87,2.56,2.56,0,0,0,.1.34c.07.22.14.44.2.66a5.27,5.27,0,0,0,.19.55l.14.35c.08.21.14.42.2.63a2.29,2.29,0,0,0,.08.28c.09.15.17.32.26.5a2.8,2.8,0,0,0,.15.3l.57.63.3.32.16.09a4.58,4.58,0,0,1,.85.62l.23.22a6.35,6.35,0,0,0,.6.53,6.2,6.2,0,0,1,.56.48,2.07,2.07,0,0,1,.69.42,0,0,0,0,0,0,0l.56.21a7,7,0,0,0,1.07.31,2,2,0,0,1-.41,4,2,2,0,0,1-.41,0,12.48,12.48,0,0,1-1.58-.45,9.09,9.09,0,0,0-.72,6.51,7.91,7.91,0,0,0,2.37,3.12,2,2,0,0,1,1.08.48c1.09.16,2.22.34,3.38.53a46,46,0,0,0,9.07.94l.81-.06a52.22,52.22,0,0,1,7-.21,16.89,16.89,0,0,0,4.13-.47c.77-.15,1.54-.3,2.32-.41.6-.09,1.17-.16,1.7-.22a11.68,11.68,0,0,0,1-4.19,8.75,8.75,0,0,0-1.32-4.78,11.66,11.66,0,0,0-2.64-3,4.92,4.92,0,0,1-.55.41l-.12.11a4,4,0,0,1-1.18.8l0,0a6.37,6.37,0,0,1-3.1,5.83,5.27,5.27,0,0,1-2.75.81,4.83,4.83,0,0,1-1.71-.31,7.92,7.92,0,0,1-4.34-4.81,2,2,0,1,1,3.79-1.26,4.15,4.15,0,0,0,1.92,2.32,1,1,0,0,0,1-.17c.84-.51,1.82-1.55.71-4.73l0-.11a2,2,0,0,1,3.55-1.75l.15-.12a3.29,3.29,0,0,0,.52-.46l.09-.08a3,3,0,0,1,.26-.24,2.24,2.24,0,0,1,.45-.42c.11-.18.25-.42.39-.71a3,3,0,0,0,.09-.32,6.59,6.59,0,0,1,.22-.72,6.19,6.19,0,0,1,.26-.61c.06-.15.14-.31.19-.48a3,3,0,0,0,.22-.85v-.16a9.05,9.05,0,0,0,0-1,1.49,1.49,0,0,0-.09-.31,6.37,6.37,0,0,1-.21-.9c0-.25-.11-.48-.17-.71a3.6,3.6,0,0,1-.12-.44c-.06-.21-.1-.42-.14-.62a2.78,2.78,0,0,0-.08-.36,5.83,5.83,0,0,0-.44-.64l-.16-.23a5.68,5.68,0,0,1-.51-1v0a4.15,4.15,0,0,1-.85.5,1.93,1.93,0,0,1-2.13-.37,6.21,6.21,0,0,1-3.8,6.93,5,5,0,0,1-2.06.45,5.06,5.06,0,0,1-2.34-.58,6.94,6.94,0,0,1-3.47-4.79,2,2,0,0,1,3.94-.71,3,3,0,0,0,1.38,1.95.89.89,0,0,0,.88,0c1.78-.82,1.84-1.85,1.12-4.77a2,2,0,0,1,3.89-1,.31.31,0,0,0,0,.08,2,2,0,0,1,1-1,2.65,2.65,0,0,0,.22-.17c.2-.15.39-.3.6-.43a8.1,8.1,0,0,0,.86-.59,7,7,0,0,1,.62-.45,2.31,2.31,0,0,0,.28-.19,10.31,10.31,0,0,0,.7-.84l.17-.22c.17-.22.34-.44.49-.67a5.69,5.69,0,0,0,.26-.56c.07-.15.13-.31.21-.46s.21-.41.33-.61a3.32,3.32,0,0,0,.19-.37,6.54,6.54,0,0,0,.31-1c0-.06,0-.24,0-.38s0-.46,0-.69l.06-.54a4.49,4.49,0,0,0,.05-.67,2.69,2.69,0,0,0-.09-.42,7.08,7.08,0,0,1-.17-.77c0-.15-.05-.31-.07-.46a5.16,5.16,0,0,0-.13-.77,5.42,5.42,0,0,0-.44-1l-.23-.4-.13,0a2,2,0,0,1-.48-3.94l.42-.09.38-.09c.1-.06.29-.24.47-.39l.51-.44a6,6,0,0,0,.56-.52,1.69,1.69,0,0,0,.19-.32,7.23,7.23,0,0,1,.4-.66,8.21,8.21,0,0,1,.54-.66,1.71,1.71,0,0,0,.22-.25c.1-.18.17-.38.26-.59s.13-.33.2-.49l.15-.34a7.19,7.19,0,0,0,.32-.76l.12-.34a4.22,4.22,0,0,0,.19-.58,4.73,4.73,0,0,0,0-.64l0-.39a2.25,2.25,0,0,0-.09-.35,6.62,6.62,0,0,1-.17-.71,5.58,5.58,0,0,1-.07-.91,2.46,2.46,0,0,0,0-.28l-.16-.28a7.93,7.93,0,0,1-.36-.71l0-.11s0-.06,0-.1a2,2,0,0,1-.93,0,9.38,9.38,0,0,1-1.73.5,16.23,16.23,0,0,1-2.68.27,6.16,6.16,0,0,1-1.64-.19,2,2,0,0,1-1.4-2.46,2,2,0,0,1,2.46-1.4,7,7,0,0,0,2.58-.16,7.74,7.74,0,0,0,2.6-1.12,1.45,1.45,0,0,1,.17-.18c.84-.86,1.93-1.84,2.8-2.82-.37,0-.73-.08-1.08-.15l-.63-.11-.61-.15a2.36,2.36,0,0,1-.46-.16l-.27-.13a.55.55,0,0,1-.23-.15,1.31,1.31,0,0,1,.29-1.84,1.29,1.29,0,0,1,.33-.17l0,0a.54.54,0,0,1,.28,0l.31,0a.69.69,0,0,0,.32,0l.32,0h.14l.26,0c.33,0,.66,0,1-.06,0,0,0,0,.06,0h.07l.15,0,.28,0,.56-.07a.67.67,0,0,1,.2,0h.18l.38-.06h0c0-.09,0-.17,0-.26a1.47,1.47,0,0,0,.05-.53c0-.18,0-.31,0-.41a.51.51,0,0,1,.05-.14.43.43,0,0,1,0-.07c0-.11,0-.21,0-.29a3.33,3.33,0,0,1,0-.42,1.36,1.36,0,0,1,2.62-.43v0s.05.13.12.39.07.29.11.48.1.35.17.56.13.48.21.75a1.88,1.88,0,0,0,.13.33l.06.16,0,.08.27.43c.05.07.1.17.15.23l.13.14.14.15,0,0,.06.05c.14.15.29.29.45.44a1.87,1.87,0,0,0,.33.22l0,0,.3.14.32.14c.1,0,.15,0,.22,0l.48.11.36.07a1.19,1.19,0,0,0,.3.05h.18l.1,0h0l.73-.11.45-.13h0l0,0,.1,0,.19-.07.38-.15.62-.24.08,0,.18-.11.37-.2.52-.36.64-.47c.15-.13.27-.25.42-.37l.55-.59.16-.22.09-.11,0,0,.36-.67.21-.37.08-.16.23-.71.13-.41.05-.15.1-.78,0-.74a11.79,11.79,0,0,0,.09-1.42v-.22l0-.38a5.37,5.37,0,0,0-.1-.68c0-.14-.08-.38-.1-.43-.08-.24-.15-.48-.23-.71s-.14-.27-.2-.41l0-.09v0l-.17-.25-.2-.28-.1-.14-.07-.07a3.44,3.44,0,0,1-.27-.27l0,0-.09-.07-.24-.2a2.16,2.16,0,0,0-.41-.31l-.27-.17-.07,0h0l-.23-.11-.46-.21c-.14-.06-.2,0-.29-.09l-.25-.07h-.15l-.66-.07-.34,0h-.47l-.11,0a3.43,3.43,0,0,0-.44.09,2.69,2.69,0,0,1-.4.13h-.06l-.17.06-.37.12a1.1,1.1,0,0,0-.28.12,1.33,1.33,0,0,1-.24.1l-.06,0h0l-.14.08-.39.23-.52.36c-.09.07-.48.37-.61.5l-.22.21-.12.09,0,0,0,0,0,0-.53.65-.24.29-.12.14,0,0h0l.11-.2h0l-.05.07-.61.94a1.34,1.34,0,0,1-.19.26l-.09.08-.06,0a1.68,1.68,0,0,1-2.23-.76,1.56,1.56,0,0,1-.13-.38.39.39,0,0,1,0-.12,1.21,1.21,0,0,1,.09-.3c.09-.26.22-.62.37-1.06.12-.23.25-.49.38-.76l-.08-.09h0a.82.82,0,0,1-.08-.18c0-.12-.07-.3-.12-.53a1.16,1.16,0,0,0,0-.18v-.08l0-.05-.13-.44c0-.07-.05-.15-.07-.24l0-.12,0-.07h0l0-.14v0l0-.14a.69.69,0,0,1,0-.2c0-.16,0-.47,0-.45v-.07a.35.35,0,0,0,0,.06s0,0,0,.09l-.05-.15-.21-.64c-.07-.1-.48-.83-.59-1s-.19-.39-.28-.59h0l0,0-.05-.08-.09-.17-.19-.34-.07-.13-.05-.07-.25-.31-.25-.31,0,0h0l0-.05h0l0,0-.08-.12-.85-1.28,0-.05,0,0-.13-.15-.25-.29-.08-.1,0,0-.28-.25-.31-.26h0l-.07-.07,0,0,0,0-.59-.47-.45-.39-.23-.2h0l-.12-.09-.46-.35-.22-.17-.09-.09-.18-.18-.09-.1,0-.06,0,0h0l-.16-.08-.65-.34,0,0-.17-.06a7.09,7.09,0,0,1-.75-.45l-.14-.09a1.2,1.2,0,0,0-.19,0,3.62,3.62,0,0,1-1.09-.15,2.86,2.86,0,0,1-.91-.46,2.84,2.84,0,0,1-1.4.11,5.27,5.27,0,0,1-.87-.24,1.66,1.66,0,0,0-.29-.1h-1.08l-.14.05a4,4,0,0,1-1.19.25,2.84,2.84,0,0,1-1.36-.32,2.91,2.91,0,0,1-1.1.42,4.76,4.76,0,0,1-1.12,0l-.18,0c-.24.06-.46.14-.68.21l-.38.13-.1.09a6,6,0,0,1-.88.5,3.12,3.12,0,0,1-1.31.24,4.13,4.13,0,0,1-.8.71,4,4,0,0,1-1.24.49h-.06l-.16.18a6.57,6.57,0,0,1-.59.59,4.75,4.75,0,0,0-.38.4l-.45.49a3.82,3.82,0,0,1-.81.59,2.87,2.87,0,0,1-.54,1.42c-.15.2-.32.38-.49.57a2.22,2.22,0,0,0-.28.33,8.46,8.46,0,0,0-.44.77l-.14.25a6.23,6.23,0,0,1-.54.79,1.4,1.4,0,0,0-.16.2s0,.2-.07.36-.1.46-.17.68a3.48,3.48,0,0,1-.77,1.29s0,0,0,0a.38.38,0,0,0,0,.12.09.09,0,0,1,0,.07,5,5,0,0,1,.05,1.45,6.18,6.18,0,0,1-.12.61c-.06.2-.11.4-.17.61s0,0,0,.07,0,0,0,0v.12c0,.22,0,.45,0,.69s0,.37,0,.56v.07l0,.19s0,0,0,0l.11.41a4.85,4.85,0,0,1,.13.68c0,.26.06.52.08.78a15.83,15.83,0,0,1,.14,1.87v.27s0,0,0,.07c.06.27.11.53.17.8l.07.27,0,.14v.11c.09.19.18.38.28.56a.08.08,0,0,0,0,0,1.83,1.83,0,0,1,.51.56,2,2,0,0,1,.28.77,3.28,3.28,0,0,1,.2.31A6.26,6.26,0,0,1,234.88,230.28ZM292,308.2c2-2.21.5-8.09-1.53-10.76-1.52-2-4.33-4-6.77-4-1.87,0-3.8,1.7-5.5,3.19-.42.36-.83.72-1.23,1-3.53,2.89-5.88,5.52-5.87,8.91a4.81,4.81,0,0,0,3.42,3.53c1.14.08,2.26.22,3.34.35a40.55,40.55,0,0,0,4.92.4,14.38,14.38,0,0,0,2.43-.18c.64-.1,1.23-.18,1.79-.25C289.44,310.09,290.45,310,292,308.2ZM255.83,197.57c1.11-2.32,0-5.43-1.55-7.48-2.22-2.9-6.5-2.19-9.58,0-1.28.92-1.6,1.93-2.15,3.95a16.17,16.17,0,0,1-.69,1.87,6.52,6.52,0,0,0-.66,2c0,.09,0,.39.52.83a9.12,9.12,0,0,0,5.92,1.53h.23a2,2,0,0,1,.84.18l1.23-.13C253.49,200,254.77,199.78,255.83,197.57Z" style="fill: #1d1d1b"/>
  </g>
</svg>
