<svg xmlns="http://www.w3.org/2000/svg" viewBox="0 0 500 500">
  <title>worm-left</title>
  <g>
    <path d="M207.92,296.23c1.76-2.32,5.13-4.82,8.38-4.82,2.62,0,4.94,2.06,6.78,3.67l.37.31c.28.25.56.49.83.71,3.44,2.82,6.61,6,6.6,10.46a6.62,6.62,0,0,1-5,5.49l-.26,0c-1,.07-2,.19-3,.31l-.28,0a42.61,42.61,0,0,1-5.16.41,17,17,0,0,1-2.74-.2c-.62-.1-1.19-.18-1.74-.25-2.5-.33-4.16-.55-6.23-2.85C203.66,306.39,205.48,299.44,207.92,296.23Zm76.87,2.61a7.44,7.44,0,0,0,5.62,7.62,20.74,20.74,0,0,0,4.38.4c.65,0,6.43,0,8.32-1.43l.31-.22.2-.32a5.22,5.22,0,0,0,.81-4.45c-.56-1.71-2.21-3.17-4.78-4.23l-.35-.14h-.37a9.16,9.16,0,0,0-8.72-3.16A6,6,0,0,0,284.79,298.84Zm-40.66-110c-1.8,2.35-3.34,6.27-1.76,9.56s4.07,3.58,7.49,3.93l.45,0,.8.08.55,0,.46-.22c.31,0,.63.05,1,.05a10.77,10.77,0,0,0,6.5-2.06A3.06,3.06,0,0,0,260.8,198a6.86,6.86,0,0,0-.79-2.76l-.1-.23a13.78,13.78,0,0,1-.53-1.44c-.54-2-1-3.68-2.91-5a11.81,11.81,0,0,0-6.65-2.32A7,7,0,0,0,244.13,188.87Z" style="fill: #c4c4c6"/>
    <path d="M220.37,223.36a1.62,1.62,0,0,0,0,.22h0a10.42,10.42,0,0,0,.07,1.24l.08,1a.49.49,0,0,0,0,.12l.1.78a1.61,1.61,0,0,0,.08.38l.41,1.26c0,.09.07.18.11.27l.08.16s0,.07.05.1l.55,1a3.13,3.13,0,0,0,.2.3l.24.31a1.19,1.19,0,0,0,.15.18l.55.59a1.34,1.34,0,0,0,.21.2l.16.14.2.18.13.1,1.2.86a2,2,0,0,0,.19.12l.46.26.15.08.26.12.59.23.62.23a1.7,1.7,0,0,0,.34.12h0l.45.13.15,0,.48.07.28,0a1.84,1.84,0,0,0,.62,0,2.76,2.76,0,0,0,.77-.1l.28-.06.11,0,.35-.08h0a2.07,2.07,0,0,0,.41-.08,1.57,1.57,0,0,0,.23-.09l.67-.3a4.47,4.47,0,0,0,.89-.61c.19-.17.35-.32.49-.47l.21-.22.22-.23a2.7,2.7,0,0,0,.33-.46.33.33,0,0,0,.06-.1l.24-.38a1.78,1.78,0,0,0,.19-.36,2,2,0,0,0,1.5,1l.37.06h.16a1.61,1.61,0,0,0-.23.43,2,2,0,0,0,.37,2.05c.6.68,1.26,1.32,1.9,1.94l.93.91a6,6,0,0,1,.12,1.48.11.11,0,0,1,0,.05,2,2,0,0,0-1,.95,2.2,2.2,0,0,0-.09.21.42.42,0,0,0,0,.1v0l-.25.48-.08.13a2.39,2.39,0,0,0-.31.78,2.42,2.42,0,0,0,0,.47.86.86,0,0,0,0,.16,3.45,3.45,0,0,1,0,.58q0,.22-.12.48a3.16,3.16,0,0,0-.16.74l0,.62a4,4,0,0,0,0,.84,5,5,0,0,0,.3,1l.11.3a8.53,8.53,0,0,0,.4,1l.12.28c.06.12.11.26.16.38l.09.23a6,6,0,0,0,.29.63l.09.14a2.88,2.88,0,0,0,.42.5l0,0c.11.13.22.25.32.39a4.1,4.1,0,0,1,.26.43,3.28,3.28,0,0,0,.48.74,7.39,7.39,0,0,0,.7.67l.72.62a4.91,4.91,0,0,0,.58.44,2.17,2.17,0,0,0,.41.19c.09,0,.37.1.58.14l.27.06a2.08,2.08,0,0,0-1.8,1l-.22.39a7.26,7.26,0,0,0-.63,1.46,8.53,8.53,0,0,0-.18,1,2.54,2.54,0,0,1,0,.29,5.09,5.09,0,0,1-.14.65,3.69,3.69,0,0,0-.16.87,5.49,5.49,0,0,0,.06.91l.06.59c0,.13,0,.3,0,.47a5.79,5.79,0,0,0,0,.71,8.93,8.93,0,0,0,.4,1.39,3.1,3.1,0,0,0,.27.58s.07.12.09.15l.24.44c.06.12.08.17.1.22l.1.23c.07.18.19.43.32.68l.08.12c.18.28.38.54.58.81l.17.21a11.43,11.43,0,0,0,.84,1l.11.12a4.71,4.71,0,0,0,.48.34,4.58,4.58,0,0,1,.46.33l0,0a5.14,5.14,0,0,0-.35.84c0,.06,0,.12,0,.18h0a2,2,0,0,0-.91.94l0,.06a3.43,3.43,0,0,1-.33.63l-.15.21a6.2,6.2,0,0,0-.59.89l-.07.16a2.76,2.76,0,0,0-.16.61.36.36,0,0,0,0,.1c0,.18-.06.32-.1.46a.83.83,0,0,0,0,.15.73.73,0,0,1-.06.21l0,.12,0,.13a6.17,6.17,0,0,0-.17.77,4.15,4.15,0,0,1-.14.6,3.62,3.62,0,0,0-.18.71,9.29,9.29,0,0,0,0,1.2l0,.33a4.81,4.81,0,0,0,.32,1.37c.06.17.13.34.2.49a1.89,1.89,0,0,0,.09.21c.06.14.13.28.17.41a4.59,4.59,0,0,1,.17.54,5.61,5.61,0,0,0,.17.58l.06.13c.17.36.35.66.48.88a1.86,1.86,0,0,0,.56.59,1.79,1.79,0,0,0,.27.28l.1.09.16.16.05,0,.19.18v.07a2,2,0,0,0-2.24.15,13.78,13.78,0,0,0-3.13,3.62,10.59,10.59,0,0,0-1.57,5.63,13.43,13.43,0,0,0,1.18,5.08,2,2,0,0,0,1.63,1.23q.76.07,1.62.21c.77.11,1.5.25,2.24.39a18.94,18.94,0,0,0,4.63.51,51,51,0,0,1,6.69.2l.81.06c.33,0,.68,0,1,0a58,58,0,0,0,8.31-1l.19,0,3.35-.52a2.08,2.08,0,0,0,1.05-.49,2,2,0,0,0,1.1-.5,9.79,9.79,0,0,0,2.93-4,11,11,0,0,0-.9-8.06,2,2,0,0,0-2.39-.91c-.24.08-.59.2-1,.3.28-.07.59-.17,1-.31.23-.08.48-.17.69-.26h0a2.27,2.27,0,0,0,.56-.37,2.18,2.18,0,0,0,.72-.45A3.59,3.59,0,0,1,274,284a6.61,6.61,0,0,0,.8-.69l.23-.22a2.9,2.9,0,0,1,.49-.35,2.16,2.16,0,0,0,.6-.44l.9-1,.18-.24a3,3,0,0,0,.25-.47l.08-.15a2.1,2.1,0,0,1,.13-.26,1,1,0,0,0,.11-.21,2.34,2.34,0,0,0,.17-.53c.05-.17.09-.32.15-.48l.21-.53a5.51,5.51,0,0,0,.19-.58c.05-.17.1-.35.16-.53a4.15,4.15,0,0,0,.17-.61s0-.09,0-.13a3.8,3.8,0,0,1,.1-.47v0a2,2,0,0,0,0-1.39v-.05a1.69,1.69,0,0,1-.12-.55,3.74,3.74,0,0,1,.06-.53,2.24,2.24,0,0,0,.05-.49,1.77,1.77,0,0,0-.1-.61,2,2,0,0,0-.19-.43,2.5,2.5,0,0,1-.26-.56l-.09-.31a8.36,8.36,0,0,0-.33-1,4.45,4.45,0,0,1-.18-.55c0-.09-.06-.24-.11-.39a2.14,2.14,0,0,0-.32-.55,2.85,2.85,0,0,0-.38-.39,3.22,3.22,0,0,1-.37-.39,13.21,13.21,0,0,0-.94-1.06l-.35-.35a2,2,0,0,0-2.42-.31l0,0a2,2,0,0,0,.74-.91,2.17,2.17,0,0,0,1.09-.79l.16-.23c.12-.16.24-.34.39-.51a2.57,2.57,0,0,1,.53-.42,1.69,1.69,0,0,0,.37-.26,1.85,1.85,0,0,0,.36-.38,4.68,4.68,0,0,0,.3-.54c.12-.22.22-.43.35-.62l.2-.28a4.26,4.26,0,0,0,.34-.49,2,2,0,0,0,.28-1,1.34,1.34,0,0,0,0-.2,3.11,3.11,0,0,1,0-.57,4,4,0,0,1,.22-.56,1.69,1.69,0,0,0,.13-.27,1.92,1.92,0,0,0,.14-.63c0-.24,0-.49,0-.73a1.41,1.41,0,0,0,0-.2,2.31,2.31,0,0,0-.13-.77h0c0-.07-.05-.13-.07-.19a2,2,0,0,1-.15-.54c0-.12,0-.31,0-.49a3.25,3.25,0,0,0,0-.72,4.41,4.41,0,0,0-.3-.89l-.13-.34a2.42,2.42,0,0,1-.15-.49,3.19,3.19,0,0,0-.15-.59c0-.1-.09-.19-.14-.29a9.3,9.3,0,0,0-.62-1,4.22,4.22,0,0,0-.47-.51l-.21-.21c-.08-.08-.17-.16-.25-.25a5.78,5.78,0,0,0-.44-.43l-.09-.08-.1-.08a4.33,4.33,0,0,1-.38-.34,5.53,5.53,0,0,1-.46-.51l0,0a2,2,0,0,0-1.21-.76,2,2,0,0,0-1.64.4c.12-.12.24-.25.35-.38l.26-.26a5.46,5.46,0,0,1,.44-.38l.19-.13a1.8,1.8,0,0,0,.39-.39c.08-.11.2-.3.32-.51l.06-.13a.41.41,0,0,0,.05-.09l.21-.4c.1-.15.22-.31.34-.46a2,2,0,0,0,.43-.62,6.58,6.58,0,0,0,.28-.89,3.22,3.22,0,0,1,.08-.33,2,2,0,0,0,.06-.23,3.54,3.54,0,0,0,.05-.48s0-.12,0-.15,0-.33,0-.48a7.49,7.49,0,0,0,.05-1v-.41a11.13,11.13,0,0,0-.05-1.22,6.68,6.68,0,0,0-.15-.81l-.14-.55a6.42,6.42,0,0,0-.39-1.17,3.48,3.48,0,0,1-.12-.4.36.36,0,0,0,0-.1,2.1,2.1,0,0,0-.27-.68,3.43,3.43,0,0,0-.4-.54l-.08-.09c-.09-.11-.19-.22-.28-.34-.28-.36-.54-.67-.82-1a4.22,4.22,0,0,0-.77-.66c-.07-.06-.17-.13-.26-.22a2,2,0,0,1-.43-.48,1.94,1.94,0,0,0-.26-.31,2,2,0,0,0-1-.54,2,2,0,0,1-.62-.2,2,2,0,0,0-1.35-.24,2.09,2.09,0,0,0,.16-.54,1.51,1.51,0,0,0,.23-.21,2.14,2.14,0,0,0,.37-.52c.11-.2.21-.41.31-.62a1.66,1.66,0,0,0,.14-.37c0-.05,0-.12,0-.18l.27-1.21a1.58,1.58,0,0,0,.05-.43v-.42a8.08,8.08,0,0,1,.08-1.07c0-.17,0-.35.05-.55s.05-.49.08-.72a2.73,2.73,0,0,1,.06-.34l.06-.24,0,0a2.12,2.12,0,0,0,.13-.54l0-.19a2.64,2.64,0,0,0,0-.28l0-1.37a2,2,0,0,0-.06-.49.83.83,0,0,0,0-.15l-.06-.24c0-.13-.07-.26-.11-.4l0-.15c0-.05,0-.1,0-.15a2.56,2.56,0,0,1,0-.67v0a2.47,2.47,0,0,0,.08-.67,2,2,0,0,0-.55-1.38,1.46,1.46,0,0,1-.32-.5,4.38,4.38,0,0,1-.13-.52l0-.2a2.16,2.16,0,0,0-.25-.74,2.46,2.46,0,0,0-.36-.49l0,0a3,3,0,0,1-.3-.44l-.21-.37a8.13,8.13,0,0,0-.47-.81,4.09,4.09,0,0,0-.48-.58l-.08-.08-.27-.32a.89.89,0,0,1-.15-.46,2,2,0,0,0-1-1.51,1.59,1.59,0,0,1-.37-.25l-.37-.41-.1-.1a4.45,4.45,0,0,0-.48-.49c-.14-.12-.27-.27-.41-.41l-.08-.1a2.1,2.1,0,0,0-1.11-.69h0l-.08,0a1.77,1.77,0,0,1-.59-.22,2,2,0,0,1-.4-.37,1.94,1.94,0,0,0-1.54-.65,1,1,0,0,1-.46-.08,2.6,2.6,0,0,1-.45-.26,2,2,0,0,0-.67-.38l-.57-.2c-.21-.06-.43-.14-.66-.19a2.36,2.36,0,0,0-.88,0,2.28,2.28,0,0,1-.58,0,.85.85,0,0,1-.37-.14,2,2,0,0,0-2-.08.82.82,0,0,1-.4.1,2.39,2.39,0,0,1-.59-.14l-.05,0a2,2,0,0,0-.74-.14h-1.19l-.27,0a3.67,3.67,0,0,0-.62.19,3.65,3.65,0,0,1-.5.14.8.8,0,0,1-.44,0,2,2,0,0,0-1.81.29.86.86,0,0,1-.28.15,1.8,1.8,0,0,1-.53.07H245a2.85,2.85,0,0,0-.41,0,2,2,0,0,0-.83.36c-.2.12-.35.23-.51.31a2.17,2.17,0,0,0-.41.19l-.51.27-.16.08a2.08,2.08,0,0,0-.78.66l-.72.57-.19.15-.68.59-.29.23-.2.16-.16.13-.08.06-.63.55-.09.08-.16.18-.41.48h0l-.11.13a1.4,1.4,0,0,0-.12.18c-.28.42-.55.83-.84,1.25l-.06.1h0l-.5.62-.06.08a2.9,2.9,0,0,0-.19.29l-.3.56a1.63,1.63,0,0,0-.24.45l-.07.13-.13.28c-.11.21-.39.7-.48.84a1.93,1.93,0,0,0-.23.48l-.07.23a2,2,0,0,0-.26.73h0a2.38,2.38,0,0,0,0,.54v.17h0v0l0,.14h0v0a1.33,1.33,0,0,0-.05.19.93.93,0,0,0,0,.13l-.1.33a2.3,2.3,0,0,0-.1.35,2.8,2.8,0,0,0-.06.28l0,.13a1.84,1.84,0,0,0-.24.64l-.2-.17h0l0,0-.08-.08c-.16-.16-.58-.5-.76-.64l-.16-.11-.47-.33-.14-.09-.55-.33-.12-.06a2.6,2.6,0,0,0-.25-.1h0a2.75,2.75,0,0,0-.67-.28l-.32-.11h0l-.27-.09-.14,0a2.86,2.86,0,0,0-.76-.2h0l-.09,0a1.85,1.85,0,0,0-.66-.05h-.4a3.08,3.08,0,0,0-.43,0l-.75.08a2.11,2.11,0,0,0-.5.1l0,0-.21.05a2.55,2.55,0,0,0-.44.15l-.12.06-.54.25a2.32,2.32,0,0,0-.41.22l-.09.07a3.13,3.13,0,0,0-.66.46l-.39.31a2.19,2.19,0,0,0-.34.34l-.06.06-.08.07c-.08.08-.22.24-.29.33l-.49.71-.14.22a.54.54,0,0,1-.05.11l-.05.11c-.06.11-.13.25-.22.46l-.18.54-.09.28h0c0,.09-.07.23-.11.39l0,.13a4.14,4.14,0,0,0-.15.86l-.06.53C220.38,223.22,220.37,223.29,220.37,223.36Zm33-1.55a6.62,6.62,0,0,1-.32,1.5,6.82,6.82,0,0,1-.68,1.47,6.22,6.22,0,0,1-1,1.15,5.44,5.44,0,0,1-1.36.8,6.12,6.12,0,0,1-1.48.49,7.37,7.37,0,0,1-1.56,0,6.58,6.58,0,0,1-1.54-.35,6.24,6.24,0,0,1-1.43-.73,6.55,6.55,0,0,1-1.21-1.1,5.73,5.73,0,0,1-.91-1.33,5.55,5.55,0,0,1-.45-3.12,7.57,7.57,0,0,1,.37-1.6,6.93,6.93,0,0,1,.66-1.44,6.14,6.14,0,0,1,1.11-1.17,5.59,5.59,0,0,1,1.28-.89,6.46,6.46,0,0,1,1.53-.44A7.06,7.06,0,0,1,248,215a6.51,6.51,0,0,1,1.55.29,5.39,5.39,0,0,1,1.44.78,6.16,6.16,0,0,1,1.1,1.18,8.09,8.09,0,0,1,1.27,2.92.17.17,0,0,0,0,.07l0,.16A4.83,4.83,0,0,1,253.41,221.81Z" style="fill: #9fc"/>
    <path d="M254.54,221.29a7,7,0,1,1-7-7A7,7,0,0,1,254.54,221.29Z" style="fill: #fff"/>
    <path d="M284.4,304.51a9.9,9.9,0,0,1-1.61-5.76,8,8,0,0,1,7.12-7.83,11.12,11.12,0,0,1,10,3.26l0,0c4.27,1.64,5.8,4,6.34,5.63a7.15,7.15,0,0,1-1.11,6.27c-1,1.45-3.47,2.21-6.24,2.54a1.93,1.93,0,0,1-.87.21c-2.22,0-4.52.11-6.76.23l-.94.05a2,2,0,0,1-.76.16,1.84,1.84,0,0,1-.57-.09l-1.43.06c-.62,0-2.42-.06-3.92-.18-2.72-.22-4.68-.38-4.83-2.34s2.07-2.36,3.07-2.48A7,7,0,0,1,284.4,304.51Zm17.53-.69a3.29,3.29,0,0,0,.59-2.77c-.36-1.11-1.64-2.17-3.63-3a2,2,0,0,1-1.52-.75,7.17,7.17,0,0,0-6.87-2.43,4,4,0,0,0-3.71,4,5.44,5.44,0,0,0,4.07,5.59C294,305.26,300.73,304.7,301.93,303.82ZM245.3,216.43a5.17,5.17,0,0,0-1.07.75,5.09,5.09,0,0,0-.92.95,6.18,6.18,0,0,0-.55,1.24,6.61,6.61,0,0,0-.32,1.35,4.93,4.93,0,0,0,0,1.33,4.58,4.58,0,0,0,.37,1.26,4.64,4.64,0,0,0,.76,1.1,5.3,5.3,0,0,0,1,.92,4.7,4.7,0,0,0,1.19.62,5.49,5.49,0,0,0,1.34.3,2.55,2.55,0,0,0,.39,0,4.14,4.14,0,0,1-2.39-3.35,4,4,0,0,1,3.73-4.39,4.2,4.2,0,0,1,3.43,1.38,5.19,5.19,0,0,0-.28-.81,6.17,6.17,0,0,0-.68-1.22,5.39,5.39,0,0,0-.93-1,4,4,0,0,0-1.13-.62,5.88,5.88,0,0,0-1.34-.24,5.39,5.39,0,0,0-1.34,0A4.62,4.62,0,0,0,245.3,216.43Zm6.89-1.93a8,8,0,0,1,1.5,1.57,9.81,9.81,0,0,1,1.66,3.85s0,.06,0,.1l0,.16a6.63,6.63,0,0,1,0,1.79,8.15,8.15,0,0,1-.44,2,8.79,8.79,0,0,1-.88,1.86,7.59,7.59,0,0,1-1.4,1.58,7.24,7.24,0,0,1-1.82,1.1,8.1,8.1,0,0,1-2,.65,9.55,9.55,0,0,1-1.2.08,8.51,8.51,0,0,1-.88,0,8.92,8.92,0,0,1-2-.45,7.88,7.88,0,0,1-1.91-1,8.63,8.63,0,0,1-1.58-1.42,7.85,7.85,0,0,1-1.2-1.78,7.23,7.23,0,0,1-.63-2.08,7.67,7.67,0,0,1,0-2.15,9.21,9.21,0,0,1,.48-2,8.39,8.39,0,0,1,.88-1.89,7.73,7.73,0,0,1,1.45-1.55,7.53,7.53,0,0,1,1.76-1.2,8,8,0,0,1,2-.6,8.57,8.57,0,0,1,2.1-.07,8.77,8.77,0,0,1,2,.39A7.09,7.09,0,0,1,252.19,214.5Zm-.63,37.12a2,2,0,0,1,.78,2.72,3.47,3.47,0,0,0-.14,2.7,1.28,1.28,0,0,0,.91.8,2.06,2.06,0,0,0,1.78-.13,3.51,3.51,0,0,0,1.3-2.3,2,2,0,1,1,3.92.78,7.41,7.41,0,0,1-3.11,4.92A5.65,5.65,0,0,1,254,262a7.11,7.11,0,0,1-1.85-.25,5.29,5.29,0,0,1-3.58-3.09,7.42,7.42,0,0,1,.32-6.21A2,2,0,0,1,251.56,251.62Zm-11.09,23a9,9,0,0,1,.29-1.23l.09-.34.09-.41a4.77,4.77,0,0,1,.42-1.36,9.51,9.51,0,0,1,.76-1.18l.14-.21a1.55,1.55,0,0,0,.14-.29,6.31,6.31,0,0,1,.45-.82c-.26-.29-.53-.6-.81-1l-.15-.2a11.7,11.7,0,0,1-.74-1,7.82,7.82,0,0,1-.52-1.05l-.15-.33a3.3,3.3,0,0,0-.18-.32,6.19,6.19,0,0,1-.51-1.06,12.09,12.09,0,0,1-.44-1.51,5.42,5.42,0,0,1-.1-1.26c0-.11,0-.23,0-.33s0-.28,0-.42a7.08,7.08,0,0,1-.08-1.27,5.93,5.93,0,0,1,.22-1.29c0-.13.07-.25.09-.38l0-.38a10.22,10.22,0,0,1,.23-1.25,8.68,8.68,0,0,1,.81-1.88l.13-.22-.15-.13a9.16,9.16,0,0,1-1-.94,5.65,5.65,0,0,1-.67-1c-.06-.11-.12-.22-.19-.33s-.13-.15-.2-.23a5,5,0,0,1-.76-1,11.36,11.36,0,0,1-.48-1l-.15-.37-.13-.3a10.15,10.15,0,0,1-.47-1.12l-.09-.27a6,6,0,0,1-.39-1.43,6.64,6.64,0,0,1,0-1.4v-.3a5.31,5.31,0,0,1,.24-1.28c0-.11.06-.21.08-.31a1.82,1.82,0,0,0,0-.33,4.34,4.34,0,0,1,.71-2.45l.11-.2,0-.11a6.65,6.65,0,0,1,.55-1.16l.06-.11a20.24,20.24,0,0,1-2.28-2.48,12.11,12.11,0,0,1-.77-1.15q-.21-.36-.39-.75l-.14.16c-.16.17-.46.4-.7.6l-.2.15-.1.07-.22.12-.3.16a8.35,8.35,0,0,1-1.69.63l-.36.1a2.24,2.24,0,0,1-.44.1l-.57.08-.29,0h-.39l-.79-.08-1-.2-1.71-.55h0l-.26-.11,0,0-.09-.05-.19-.09-.37-.19-.89-.54-.75-.52c-.29-.22-.59-.48-.88-.72l-.64-.64-.38-.45-.19-.23-.09-.11-.05-.06h0s0-.06-.09-.15v0l-.42-.75-.21-.37-.11-.19-.05-.09v0h0l-.15-.33v-.05l-.27-.81-.14-.41-.07-.2,0-.1h0l-.08-.31v-.08l-.13-.83c0-.31-.05-.62-.08-.92a18.26,18.26,0,0,1-.13-1.85v-.43h0V223l0-.4a4.7,4.7,0,0,1,.12-.87,8.72,8.72,0,0,1,.25-1.05l.24-.71c.1-.26.27-.62.42-.91l.11-.23.06-.12.14-.2.2-.29.2-.28.1-.13.15-.18c.21-.24.43-.47.64-.68l.08-.09,0,0,.11-.09,0,0,.12-.1.24-.2a4.42,4.42,0,0,1,.55-.4l.7-.43.18-.1,0,0,.14-.06.06,0,.24-.1.47-.19a4.86,4.86,0,0,1,.61-.19l.59-.16.07,0h.06l.2,0H226l.68,0,.64,0h.23a1.6,1.6,0,0,1,.44,0l.42,0a4.59,4.59,0,0,1,.52,0l.82.17.11,0,.16,0,.18.05.36.11.47.17.54.24.14.07.07,0,.15.09.19.12.38.24.21.16c0-.06,0-.14,0-.2s0-.25.06-.4l0-.15.12-.66a16.79,16.79,0,0,1,.58-1.58q.12-.34.24-.72l.39-.84.08-.18,0-.05v0h0l.08-.15.06-.08.22-.33.22-.33.06-.08.08-.13,0,0,.1-.18.21-.34.1-.17,0,0,0,0,0,0h0l.21-.34.29-.44.07-.11.09-.11.12-.15.25-.3.12-.15,0-.08.18-.18v0l0,0,.27-.26.24-.21.26-.24.15-.11c.19-.16.35-.28.52-.4s.38-.32.56-.47l.24-.21.17-.14.07,0,.12-.09L240,205l.05,0,0,0,.19-.17.26-.21.29-.22.14-.11,0,0,.06,0h0l0,0,.17-.08.57-.23a2.42,2.42,0,0,1,.42-.29,3,3,0,0,0,.3-.18,5,5,0,0,1,1-.54h0a7.94,7.94,0,0,1-3-3.52c-2-4.11-.17-8.84,2-11.64,3.77-4.93,10.45-4.13,15.09-.81,2.5,1.8,3.1,4,3.68,6.16a10.63,10.63,0,0,0,.52,1.35,9.12,9.12,0,0,1,1,3.74,5.15,5.15,0,0,1-1.91,3.73,8.42,8.42,0,0,1-1.95,1.24l.35.22,0,0a3.24,3.24,0,0,1,1.72.33,3.74,3.74,0,0,1,1.1,1l0,0h0a3.73,3.73,0,0,1,1.42.61,5.69,5.69,0,0,1,.82.78,3.2,3.2,0,0,0,.25.27,7.48,7.48,0,0,1,.74.75l.24.26.14.07a4.1,4.1,0,0,1,1.16.85,3,3,0,0,1,.68,1.81s0,0,0,0a6.62,6.62,0,0,1,.68.84c.23.35.42.7.61,1.06l.12.23c.05.08.11.14.17.22a4.42,4.42,0,0,1,.68,1.06,5.83,5.83,0,0,1,.34,1.17l0,.16,0,0a3.3,3.3,0,0,1,.83,1.62,2.23,2.23,0,0,1,0,.36,1.38,1.38,0,0,1,0,.2s0,.07,0,.2,0,.11,0,.27,0,.36,0,.57,0,.21,0,.33v0a1.47,1.47,0,0,0,.1.38.62.62,0,0,1,.05.14l.12.39c0,.12.07.37.1.55s0,.15,0,.36v.17q0,.33,0,.69c0,.24,0,.48,0,.73l0,.31v.16l0,.19a5.87,5.87,0,0,1-.17.7l-.11.35c0,.1,0,.06,0,.09l-.12.83a11.12,11.12,0,0,0-.15,1.41l0,.57a5.83,5.83,0,0,1-.15.73c-.07.27-.15.54-.23.8l-.17.5-.09.25,0,.11a3.43,3.43,0,0,1,.93.4,3.8,3.8,0,0,1,1.08,1.1.71.71,0,0,1,.07.11l.26.2a6.43,6.43,0,0,1,1,.93c.31.36.61.72.88,1.08l.24.29a6,6,0,0,1,.67.89,4.15,4.15,0,0,1,.48,1.23,1.55,1.55,0,0,0,.07.23,9.06,9.06,0,0,1,.48,1.5l.08.3a8.79,8.79,0,0,1,.24,1.22,11.2,11.2,0,0,1,.07,1.55v.32a8,8,0,0,1-.07,1.24c0,.1,0,.21,0,.32a4.8,4.8,0,0,1-.17,1.25l-.08.33a7.86,7.86,0,0,1-.39,1.2,4.45,4.45,0,0,1-.72,1.1,1.84,1.84,0,0,0-.17.22l-.09.17a4.93,4.93,0,0,1,.5.55,5.09,5.09,0,0,0,.34.38c.1.1.22.19.34.29a8.94,8.94,0,0,1,.71.67q.18.19.36.36a8.75,8.75,0,0,1,.71.77,9.88,9.88,0,0,1,.85,1.36,4.27,4.27,0,0,1,.44,1.27,2.27,2.27,0,0,0,.06.25l.12.3a7.36,7.36,0,0,1,.4,1.16,5.46,5.46,0,0,1,.11,1.19v.25a1.89,1.89,0,0,0,.06.18,3.73,3.73,0,0,1,.3,1.38c0,.11,0,.23,0,.34a8.67,8.67,0,0,1,0,1.23,4,4,0,0,1-.43,1.35s-.05.09-.07.14v.14a3.61,3.61,0,0,1-.21,1.52,5.68,5.68,0,0,1-.76,1.32l-.16.23a4.77,4.77,0,0,0-.25.43,7,7,0,0,1-.56.94,4.66,4.66,0,0,1-1.15,1l-.11.07.39.4a11.74,11.74,0,0,1,1,1.18,1.62,1.62,0,0,0,.19.18,4.65,4.65,0,0,1,.88,1,5,5,0,0,1,.47,1.21,2.46,2.46,0,0,0,.09.29,8.94,8.94,0,0,1,.41,1.24l.06.22a1.28,1.28,0,0,0,.11.2,4,4,0,0,1,.52,1.37,4.31,4.31,0,0,1,0,1.43l0,.16a.19.19,0,0,1,0,.08,3.64,3.64,0,0,1,.22,1.35,4.85,4.85,0,0,1-.21,1.14,1.25,1.25,0,0,0-.07.26,6.66,6.66,0,0,1-.27,1.09,1.7,1.7,0,0,0-.1.32,7.09,7.09,0,0,1-.38,1.13l-.11.28a1.38,1.38,0,0,0-.08.27,5.45,5.45,0,0,1-.46,1.19,2.1,2.1,0,0,0-.13.26,5,5,0,0,1-.7,1.14c-.22.26-.46.52-.69.77l-.28.3a4.16,4.16,0,0,1-1,.81l-.19.12-.2.19-.46.44a13.19,13.19,0,0,1,1.15,9.77,8.31,8.31,0,0,1-1,2.12,1.78,1.78,0,0,1,1.4,1,2,2,0,0,1-.06,2c-.57.9-.88,1.06-3.89.94-1.83.12-4.18.5-6.45.87a60.27,60.27,0,0,1-8.86,1c-.39,0-.78,0-1.15,0l-.82-.06a49.69,49.69,0,0,0-6.4-.21,20.08,20.08,0,0,1-5.16-.54c-.69-.13-1.39-.27-2.1-.37a35.34,35.34,0,0,0-7.93-.51l-.3,0h-2.64a11.16,11.16,0,0,1,1.36,5.38c0,2.62-2.6,6.73-6.82,7.47l-.2,0c-1.08.08-2.14.21-3.26.34a45.05,45.05,0,0,1-5.4.43,18.77,18.77,0,0,1-3.07-.23c-.4-.07-.78-.12-1.14-.17a3.18,3.18,0,0,1-1.49.34,8.33,8.33,0,0,1-1.91-.29c-.22-.05-.54-.13-.65-.14-.8-.05-1.61-.06-2.42-.08-1,0-2.06,0-3.11-.13s-2.11-.27-3.16-.44a20.58,20.58,0,0,0-4.72-.45,2,2,0,1,1-.32-4,12.83,12.83,0,0,1,2,0,1.91,1.91,0,0,1,.53-.36,12.61,12.61,0,0,1,5.81-.7,13.46,13.46,0,0,1,.14-7.41c-3.43,0-4.18,0-4.76-1.24l-.54-1.17.83-1c1.09-1.29,4.43-.75,4.46-.75l.14,0a2.51,2.51,0,0,1,1.28-.17h.29a12.93,12.93,0,0,1,1-1.52c2.11-2.79,6-5.61,9.95-5.61h.1c3.29,0,5.92,2.33,8,4.17.39.34.77.67,1.14,1,.64.53,1.27,1.07,1.88,1.63,1.42.09,2.79.17,4.13.15a7.26,7.26,0,0,0,1.41-.17,11.16,11.16,0,0,1,2.18-.23,11.74,11.74,0,0,0,1.37-.06,9.73,9.73,0,0,1-.31-2.85,12.66,12.66,0,0,1,1.82-6.47,15.86,15.86,0,0,1,3.56-4.13.9.9,0,0,0-.05-.09,5.9,5.9,0,0,1-.35-1c0-.11-.05-.22-.09-.33s-.11-.26-.17-.39a8.49,8.49,0,0,1-.35-.88,7,7,0,0,1-.41-1.84v-.14a12.21,12.21,0,0,1,0-1.51,4.74,4.74,0,0,1,.25-1.24A1.87,1.87,0,0,0,240.47,274.66Zm25-44.93a3.28,3.28,0,0,1,.2-.31,2,2,0,0,1,.28-.77,1.83,1.83,0,0,1,.51-.56l0,0c.1-.18.19-.37.28-.56v-.11l0-.14.07-.27c.06-.27.11-.53.17-.8,0-.09,0,0,0-.07v-.27a15.83,15.83,0,0,1,.14-1.87c0-.26.05-.52.08-.78a4.85,4.85,0,0,1,.13-.68l.11-.41s0,0,0,0l0-.19v-.07c0-.19,0-.38,0-.56s0-.47,0-.69v-.12s0,0,0,0,0,0,0-.07-.11-.41-.17-.61a6.18,6.18,0,0,1-.12-.61,5,5,0,0,1,0-1.45.09.09,0,0,1,0-.07.38.38,0,0,0,0-.12s0,0,0,0a3.48,3.48,0,0,1-.77-1.29c-.07-.22-.12-.45-.17-.68s-.07-.34-.07-.36a1.4,1.4,0,0,0-.16-.2,6.23,6.23,0,0,1-.54-.79l-.14-.25a8.46,8.46,0,0,0-.44-.77,2.22,2.22,0,0,0-.28-.33c-.17-.19-.34-.37-.49-.57a2.87,2.87,0,0,1-.54-1.42,3.82,3.82,0,0,1-.81-.59l-.45-.49a4.75,4.75,0,0,0-.38-.4,6.57,6.57,0,0,1-.59-.59l-.16-.18h-.06A4,4,0,0,1,260,208a4.13,4.13,0,0,1-.8-.71,3.12,3.12,0,0,1-1.31-.24,6,6,0,0,1-.88-.5l-.1-.09-.38-.13c-.22-.07-.44-.15-.68-.21l-.18,0a4.76,4.76,0,0,1-1.12,0,2.91,2.91,0,0,1-1.1-.42,2.84,2.84,0,0,1-1.36.32,4,4,0,0,1-1.19-.25l-.14-.05h-1.08a1.66,1.66,0,0,0-.29.1,5.27,5.27,0,0,1-.87.24,2.84,2.84,0,0,1-1.4-.11,2.86,2.86,0,0,1-.91.46,3.62,3.62,0,0,1-1.09.15,1.2,1.2,0,0,0-.19,0l-.14.09a7.09,7.09,0,0,1-.75.45l-.17.06,0,0-.65.34-.16.08h0l0,0,0,.06-.09.1-.18.18-.09.09-.22.17-.46.35-.12.09h0l-.23.2-.45.39-.59.47,0,0,0,0-.07.07h0l-.31.26-.28.25,0,0-.08.1-.25.29-.13.15,0,0,0,.05-.85,1.28-.08.12,0,0h0l0,.05h0l0,0-.25.31-.25.31,0,.07-.07.13-.19.34-.09.17-.05.08,0,0h0c-.09.2-.19.39-.28.59s-.52.94-.59,1l-.21.64,0,.15s0-.06,0-.09a.35.35,0,0,0,0-.06v.07s0,.29,0,.45a.69.69,0,0,1,0,.2l0,.14v0l0,.14h0l0,.07,0,.12c0,.09,0,.17-.07.24l-.13.44,0,.05v.08a1.16,1.16,0,0,0,0,.18c0,.23-.08.41-.12.53a.82.82,0,0,1-.08.18h0l-.08.09.38.76c.15.44.28.8.37,1.06a1.21,1.21,0,0,1,.09.3.39.39,0,0,1,0,.12,1.56,1.56,0,0,1-.13.38,1.68,1.68,0,0,1-2.23.76l-.06,0-.09-.08a1.34,1.34,0,0,1-.19-.26l-.61-.94,0-.07h0l.11.2h0l0,0-.12-.14-.24-.29-.53-.65,0,0,0,0,0,0-.12-.09-.22-.21c-.13-.13-.52-.43-.61-.5l-.52-.36-.39-.23L230,219h0l-.06,0a1.33,1.33,0,0,1-.24-.1,1.1,1.1,0,0,0-.28-.12l-.37-.12-.17-.06h-.06a2.69,2.69,0,0,1-.4-.13,3.43,3.43,0,0,0-.44-.09l-.11,0h-.47l-.34,0-.66.07h-.15l-.25.07c-.09,0-.15,0-.29.09l-.46.21-.23.11h0l-.07,0-.27.17a2.16,2.16,0,0,0-.41.31l-.24.2-.09.07,0,0-.27.27-.07.07-.1.14-.2.28-.17.25v0l0,.09c-.06.14-.12.21-.2.41s-.15.47-.23.71c0,0-.06.29-.1.43a5.37,5.37,0,0,0-.1.68l0,.38v.22a11.79,11.79,0,0,0,.09,1.42l.05.74.1.78,0,.15.13.41.23.71.08.16.21.37.36.67,0,0,.09.11.16.22.55.59c.15.12.27.24.42.37l.64.47.52.36.37.2.18.11.08,0,.62.24.38.15.19.07.1,0,0,0h0l.45.13.73.11h0l.1,0h.18a1.19,1.19,0,0,0,.3-.05l.36-.07.48-.11c.07,0,.12,0,.22,0l.32-.14.3-.14.05,0a1.87,1.87,0,0,0,.33-.22c.16-.15.31-.29.45-.44l.06-.05,0,0,.14-.15.13-.14c.05-.06.1-.16.15-.23l.27-.43,0-.08.06-.16a1.88,1.88,0,0,0,.13-.33q.12-.4.21-.75c.07-.21.12-.4.17-.56s.08-.35.11-.48.12-.39.12-.39v0a1.36,1.36,0,0,1,2.62.43,3.33,3.33,0,0,1,0,.42c0,.08,0,.18,0,.29a.43.43,0,0,1,0,.07.51.51,0,0,1,0,.14c0,.1,0,.23,0,.41a1.47,1.47,0,0,0,0,.53c0,.09,0,.17.05.26h0l.38.06h.18a.67.67,0,0,1,.2,0l.56.07.28,0,.15,0h.07s0,0,.06,0c.34,0,.67,0,1,.06l.26,0h.14l.32,0a.69.69,0,0,0,.32,0l.31,0a.54.54,0,0,1,.28,0l0,0a1.29,1.29,0,0,1,.33.17,1.31,1.31,0,0,1,.29,1.84.55.55,0,0,1-.23.15l-.27.13a2.36,2.36,0,0,1-.46.16l-.61.15-.63.11c-.35.07-.71.11-1.08.15.87,1,2,2,2.8,2.82a1.45,1.45,0,0,1,.17.18,7.74,7.74,0,0,0,2.6,1.12,7,7,0,0,0,2.58.16,2,2,0,0,1,2.46,1.4,2,2,0,0,1-1.4,2.46,6.16,6.16,0,0,1-1.64.19,16.23,16.23,0,0,1-2.68-.27,9.38,9.38,0,0,1-1.73-.5,2,2,0,0,1-.93,0s0,.06,0,.1l0,.11a7.93,7.93,0,0,1-.36.71l-.16.28a2.46,2.46,0,0,0,0,.28,5.58,5.58,0,0,1-.07.91,6.62,6.62,0,0,1-.17.71,2.25,2.25,0,0,0-.09.35l0,.39a4.73,4.73,0,0,0,0,.64,4.22,4.22,0,0,0,.19.58l.12.34a7.19,7.19,0,0,0,.32.76l.15.34c.07.16.14.33.2.49s.16.41.26.59a1.71,1.71,0,0,0,.22.25,8.21,8.21,0,0,1,.54.66,7.23,7.23,0,0,1,.4.66,1.69,1.69,0,0,0,.19.32,6,6,0,0,0,.56.52l.51.44c.18.15.37.33.47.39l.38.09.42.09a2,2,0,0,1-.48,3.94l-.13,0-.23.4a5.42,5.42,0,0,0-.44,1,5.16,5.16,0,0,0-.13.77c0,.15,0,.31-.07.46a7.08,7.08,0,0,1-.17.77,2.69,2.69,0,0,0-.09.42,4.49,4.49,0,0,0,0,.67l.06.54c0,.23,0,.46,0,.69s0,.32,0,.38a6.54,6.54,0,0,0,.31,1,3.32,3.32,0,0,0,.19.37c.12.2.23.4.33.61s.14.31.21.46a5.69,5.69,0,0,0,.26.56c.15.23.32.45.49.67l.17.22a10.31,10.31,0,0,0,.7.84,2.31,2.31,0,0,0,.28.19,7,7,0,0,1,.62.45,8.1,8.1,0,0,0,.86.59c.21.13.4.28.6.43a2.65,2.65,0,0,0,.22.17,2,2,0,0,1,1,1,.31.31,0,0,0,0-.08,2,2,0,0,1,3.89,1c-.72,2.92-.66,3.95,1.12,4.77a.89.89,0,0,0,.88,0,3,3,0,0,0,1.38-1.95,2,2,0,0,1,3.94.71,6.94,6.94,0,0,1-3.47,4.79,5.06,5.06,0,0,1-2.34.58,5,5,0,0,1-2.06-.45,6.21,6.21,0,0,1-3.8-6.93,1.93,1.93,0,0,1-2.13.37,4.15,4.15,0,0,1-.85-.5v0a5.68,5.68,0,0,1-.51,1l-.16.23a5.83,5.83,0,0,0-.44.64,2.78,2.78,0,0,0-.08.36c0,.2-.08.41-.14.62a3.6,3.6,0,0,1-.12.44c-.06.23-.13.46-.17.71a6.37,6.37,0,0,1-.21.9,1.49,1.49,0,0,0-.09.31,9.05,9.05,0,0,0,0,1v.16a3,3,0,0,0,.22.85c.05.17.13.33.19.48a6.19,6.19,0,0,1,.26.61,6.59,6.59,0,0,1,.22.72,3,3,0,0,0,.09.32c.14.29.28.53.39.71a2.24,2.24,0,0,1,.45.42,3,3,0,0,1,.26.24l.09.08a3.29,3.29,0,0,0,.52.46l.15.12a2,2,0,0,1,3.55,1.75l0,.11c-1.11,3.18-.13,4.22.71,4.73a1,1,0,0,0,1,.17,4.15,4.15,0,0,0,1.92-2.32,2,2,0,1,1,3.79,1.26,7.92,7.92,0,0,1-4.34,4.81,4.83,4.83,0,0,1-1.71.31,5.27,5.27,0,0,1-2.75-.81,6.37,6.37,0,0,1-3.1-5.83l0,0a4,4,0,0,1-1.18-.8l-.12-.11a4.92,4.92,0,0,1-.55-.41,11.66,11.66,0,0,0-2.64,3,8.75,8.75,0,0,0-1.32,4.78,11.68,11.68,0,0,0,1,4.19c.53.06,1.1.13,1.7.22.78.11,1.55.26,2.32.41a16.89,16.89,0,0,0,4.13.47,52.22,52.22,0,0,1,7,.21l.81.06a46,46,0,0,0,9.07-.94c1.16-.19,2.29-.37,3.38-.53a2,2,0,0,1,1.08-.48,7.91,7.91,0,0,0,2.37-3.12,9.09,9.09,0,0,0-.72-6.51,12.48,12.48,0,0,1-1.58.45,2,2,0,0,1-.41,0,2,2,0,0,1-.41-4,7,7,0,0,0,1.07-.31l.56-.21a0,0,0,0,0,0,0,2.07,2.07,0,0,1,.69-.42,6.2,6.2,0,0,1,.56-.48,6.35,6.35,0,0,0,.6-.53l.23-.22a4.58,4.58,0,0,1,.85-.62l.16-.09.3-.32.57-.63a2.8,2.8,0,0,0,.15-.3c.09-.18.17-.35.26-.5a2.29,2.29,0,0,0,.08-.28c.06-.21.12-.42.2-.63l.14-.35a5.27,5.27,0,0,0,.19-.55c.06-.22.13-.44.2-.66a2.56,2.56,0,0,0,.1-.34,6.11,6.11,0,0,1,.19-.87c0-.05,0-.09.05-.13a.14.14,0,0,1,0-.06,3.84,3.84,0,0,1-.22-1.15,5.9,5.9,0,0,1,.09-.95.52.52,0,0,0,0-.11.16.16,0,0,0,0-.07,4.77,4.77,0,0,1-.43-1l-.09-.31a5.38,5.38,0,0,0-.24-.74,7.16,7.16,0,0,1-.27-.82,2.17,2.17,0,0,0-.07-.24.86.86,0,0,0-.14-.13,5.25,5.25,0,0,1-.66-.71,11,11,0,0,0-.77-.86l-.32-.32a8.07,8.07,0,0,1-1.25.62,1.93,1.93,0,0,1-.7.13,2,2,0,0,1-.69-3.88,2.47,2.47,0,0,0,.47-.23,1.95,1.95,0,0,1,1.32-1.21l.16-.22c.16-.22.32-.44.51-.66a4.28,4.28,0,0,1,.94-.78,2,2,0,0,0,.19-.12,2.71,2.71,0,0,0,.18-.34,7.39,7.39,0,0,1,.47-.81l.23-.33a3.71,3.71,0,0,0,.23-.32.19.19,0,0,0,0-.08,5.1,5.1,0,0,1,.08-1.1,4.9,4.9,0,0,1,.38-1c0-.05.05-.09.07-.14a5.19,5.19,0,0,0,0-.56c0-.12,0-.24,0-.35s0-.09-.05-.13a4.21,4.21,0,0,1-.28-1.06q0-.36,0-.72a1.76,1.76,0,0,0,0-.33,3.37,3.37,0,0,0-.2-.53l-.16-.42a5.61,5.61,0,0,1-.23-.8,1,1,0,0,0-.06-.25,8.13,8.13,0,0,0-.48-.79,4.27,4.27,0,0,0-.37-.38c-.15-.15-.31-.3-.46-.47s-.26-.24-.39-.36a5.93,5.93,0,0,1-.58-.52,7,7,0,0,1-.6-.67l0-.05c-.11.1-.2.2-.32.29a2,2,0,0,1-1.25.44,2,2,0,0,1-1.56-.76,2,2,0,0,1,.31-2.81,3.3,3.3,0,0,0,.42-.42l.34-.35a6.64,6.64,0,0,1,.64-.55l.2-.14c.06-.08.15-.26.24-.42s.18-.35.28-.52a6.65,6.65,0,0,1,.51-.71l.14-.15a5,5,0,0,0,.18-.6c0-.14.07-.29.11-.42s0-.23,0-.35a6,6,0,0,1,.06-.73,5.93,5.93,0,0,0,0-.64v-.41a8.87,8.87,0,0,0,0-1,6,6,0,0,0-.14-.65l-.1-.38a4.43,4.43,0,0,0-.28-.87,4.61,4.61,0,0,1-.24-.77.69.69,0,0,1,0-.17,3.37,3.37,0,0,0-.29-.37c-.13-.15-.25-.29-.37-.45s-.47-.58-.73-.88a3.14,3.14,0,0,0-.43-.35l-.39-.31a4,4,0,0,1-.79-.89h0a3.9,3.9,0,0,1-1.24-.43c-.22.3-.59.71-.85,1l0,0-.1.1h0l-.05,0-.1.07-.18.14c-.12.08-.22.16-.32.24l-.49.32a1.09,1.09,0,0,1-.2.08l-.11,0a1.56,1.56,0,0,1-1.06-.1,1.55,1.55,0,0,1-.71-2.06,1,1,0,0,1,.11-.16,5.38,5.38,0,0,1,.4-.38c.08-.08.18-.17.28-.28l.16-.16,0,0a0,0,0,0,0,0,0v0c.15-.24.27-.4.5-.8A6.26,6.26,0,0,1,265.46,229.73ZM213,310.41c.56.07,1.15.15,1.79.25a14.38,14.38,0,0,0,2.43.18,40.55,40.55,0,0,0,4.92-.4c1.08-.13,2.2-.27,3.34-.35a4.81,4.81,0,0,0,3.42-3.53c0-3.39-2.34-6-5.87-8.91-.4-.33-.81-.69-1.23-1-1.7-1.49-3.63-3.17-5.5-3.19-2.44,0-5.25,2-6.77,4-2,2.67-3.52,8.55-1.53,10.76C209.55,310,210.56,310.09,213,310.41Zm37.08-110,1.23.13a2,2,0,0,1,.84-.18h.23a9.12,9.12,0,0,0,5.92-1.53c.51-.44.52-.74.52-.83a6.52,6.52,0,0,0-.66-2,16.17,16.17,0,0,1-.69-1.87c-.55-2-.87-3-2.15-3.95-3.08-2.21-7.36-2.92-9.58,0-1.57,2-2.66,5.16-1.55,7.48S246.51,200,250.06,200.37Z" style="fill: #1d1d1b"/>
  </g>
</svg>
