<!-- Generator: Adobe Illustrator 22.1.0, SVG Export Plug-In  -->
<svg version="1.1"
	 xmlns="http://www.w3.org/2000/svg" xmlns:xlink="http://www.w3.org/1999/xlink" xmlns:a="http://ns.adobe.com/AdobeSVGViewerExtensions/3.0/"
	 x="0px" y="0px" width="282px" height="347.6px" viewBox="0 0 282 347.6" style="enable-background:new 0 0 282 347.6;"
	 xml:space="preserve">
<style type="text/css">
	.st0{fill:#E6575A;}
	.st1{fill:#1D1D1B;}
	.st2{fill:#FFFFFF;}
	.st3{fill:none;}
</style>
<defs>
</defs>
<g>
	<g>
		
			<rect x="-7.8" y="86.1" transform="matrix(0.3832 0.9237 -0.9237 0.3832 247.4733 -23.0463)" class="st0" width="297.6" height="175.4"/>
		<path class="st1" d="M0.2,68.8L166.1,0l115.6,278.7l-165.8,68.8L0.2,68.8z M163.9,5.4L5.6,71l112.5,271.1l158.2-65.6L163.9,5.4z"
			/>
	</g>
	<g>
		<g>
			<path class="st2" d="M121.8,113.1l2.3,5.5l-18.5,19.9l-2.6-6.4l4-4.1l-4.2-10l-5.7,0l-2.6-6.2L121.8,113.1z M110.7,124l5.8-6
				l-8.3,0L110.7,124z"/>
			<path class="st2" d="M129.5,131.7l3.1,7.4l-13.3,14.1l19.5,0.8l3,7.3l-22.8,9.5l-2.3-5.5L132,159l-18.2-0.8l-2-4.8l12.7-13.2
				l-15.5,6.4l-2.3-5.5L129.5,131.7z"/>
			<path class="st2" d="M144.5,167.7l8.1,19.5l-4.7,1.9l-5.7-13.7l-4.3,1.8l5.2,12.6l-4.7,1.9l-5.2-12.6l-9.1,3.8l-2.4-5.7
				L144.5,167.7z"/>
			<path class="st2" d="M154.5,191.9l2.4,5.7l-22.8,9.5l-2.4-5.7L154.5,191.9z"/>
			<path class="st2" d="M159.6,204l8.4,20.2l-4.7,1.9l-6-14.5l-3.8,1.6l5.4,13l-4.7,1.9l-5.4-13l-5,2.1l6,14.5l-4.7,1.9l-8.4-20.2
				L159.6,204z"/>
			<path class="st2" d="M151.7,249.5l-2.4-5.7l18.1-7.5l-3.2-7.8l4.7-1.9l8.8,21.3l-4.7,1.9l-3.2-7.8L151.7,249.5z"/>
		</g>
	</g>
</g>
<rect y="0.4" class="st3" width="282" height="347"/>
</svg>